<?xml version="1.0" encoding="UTF-8" standalone="no"?><!DOCTYPE svg PUBLIC "-//W3C//DTD SVG 1.1//EN" "http://www.w3.org/Graphics/SVG/1.1/DTD/svg11.dtd"><svg width="100%" height="100%" viewBox="0 0 6894 998" version="1.1" xmlns="http://www.w3.org/2000/svg" xmlns:xlink="http://www.w3.org/1999/xlink" xml:space="preserve" xmlns:serif="http://www.serif.com/" style="fill-rule:evenodd;clip-rule:evenodd;stroke-miterlimit:2;"><g><g><path d="M9.364,453.442l6875,-0" style="fill:none;stroke:#000;stroke-width:8.38px;"/><path d="M9.364,388.858l6875,0" style="fill:none;stroke:#000;stroke-width:8.38px;"/><path d="M9.364,518.025l6875,0" style="fill:none;stroke:#000;stroke-width:8.38px;"/><path d="M9.364,647.192l6875,-0" style="fill:none;stroke:#000;stroke-width:8.38px;"/><path d="M9.364,582.608l6875,0" style="fill:none;stroke:#000;stroke-width:8.38px;"/></g><g><path d="M2325.64,384.667l-0,266.721" style="fill:none;stroke:#000;stroke-width:10.33px;"/><path d="M4215.36,384.667l0,266.721" style="fill:none;stroke:#000;stroke-width:10.33px;"/><path d="M6105.32,384.667l-0,266.721" style="fill:none;stroke:#000;stroke-width:10.33px;"/><path d="M6843.07,384.667l-0,266.721" style="fill:none;stroke:#000;stroke-width:10.33px;"/><path d="M6879.15,384.667l0,266.721" style="fill:none;stroke:#000;stroke-width:10.33px;"/></g><g><path d="M611.055,517.792l0,280.012" style="fill:none;stroke:#000;stroke-width:7.75px;"/></g><g><path d="M512.226,776.358l128.517,0" style="fill:none;stroke:#000;stroke-width:10.33px;"/><path d="M512.226,711.775l128.517,0" style="fill:none;stroke:#000;stroke-width:10.33px;"/></g><g><path d="M833.843,490.879l-0,242.342" style="fill:none;stroke:#000;stroke-width:7.75px;"/></g><g><path d="M735.143,711.775l128.387,0" style="fill:none;stroke:#000;stroke-width:10.33px;"/></g><g><path d="M1056.5,463.979l-0,236.95" style="fill:none;stroke:#000;stroke-width:7.75px;"/></g><g><path d="M972.772,711.775l113.412,0" style="fill:none;stroke:#000;stroke-width:10.33px;"/></g><g><path d="M1279.41,437.063l-0,166.991" style="fill:none;stroke:#000;stroke-width:7.75px;"/><path d="M1433.19,593.458l-0,167.096" style="fill:none;stroke:#000;stroke-width:7.75px;"/><path d="M1655.98,528.875l0,199.371" style="fill:none;stroke:#000;stroke-width:7.75px;"/><path d="M1878.76,496.583l-0,199.359" style="fill:none;stroke:#000;stroke-width:7.75px;"/><path d="M2101.42,399.708l-0,263.971" style="fill:none;stroke:#000;stroke-width:7.75px;"/><path d="M2431.63,367.417l0,231.679" style="fill:none;stroke:#000;stroke-width:7.75px;"/><path d="M2654.54,302.838l-0,263.954" style="fill:none;stroke:#000;stroke-width:7.75px;"/></g><g><path d="M2624.73,324.275l128.513,0" style="fill:none;stroke:#000;stroke-width:10.33px;"/></g><g><path d="M2877.2,270.546l-0,263.967" style="fill:none;stroke:#000;stroke-width:7.75px;"/></g><g><path d="M2862.61,259.692l113.283,-0" style="fill:none;stroke:#000;stroke-width:10.33px;"/><path d="M2863.66,324.275l112.242,0" style="fill:none;stroke:#000;stroke-width:10.33px;"/></g><g><path d="M3099.98,173.671l0,328.55" style="fill:none;stroke:#000;stroke-width:7.75px;"/></g><g><path d="M3070.3,195.108l128.517,0" style="fill:none;stroke:#000;stroke-width:10.33px;"/><path d="M3070.3,259.692l128.517,-0" style="fill:none;stroke:#000;stroke-width:10.33px;"/><path d="M3070.3,324.275l128.517,0" style="fill:none;stroke:#000;stroke-width:10.33px;"/></g><g><path d="M3322.9,141.379l0,360.542" style="fill:none;stroke:#000;stroke-width:7.75px;"/></g><g><path d="M3293.21,130.525l128.387,0" style="fill:none;stroke:#000;stroke-width:10.33px;"/><path d="M3293.21,195.108l128.387,0" style="fill:none;stroke:#000;stroke-width:10.33px;"/><path d="M3293.21,259.692l128.387,-0" style="fill:none;stroke:#000;stroke-width:10.33px;"/><path d="M3293.21,324.275l128.387,0" style="fill:none;stroke:#000;stroke-width:10.33px;"/></g><g><path d="M3545.69,173.671l-0,339.017" style="fill:none;stroke:#000;stroke-width:7.75px;"/></g><g><path d="M3516,195.108l128.513,0" style="fill:none;stroke:#000;stroke-width:10.33px;"/><path d="M3516,259.692l128.513,-0" style="fill:none;stroke:#000;stroke-width:10.33px;"/><path d="M3516,324.275l128.513,0" style="fill:none;stroke:#000;stroke-width:10.33px;"/></g><g><path d="M3768.61,270.546l0,252.912" style="fill:none;stroke:#000;stroke-width:7.75px;"/></g><g><path d="M3738.78,259.692l128.517,-0" style="fill:none;stroke:#000;stroke-width:10.33px;"/><path d="M3738.78,324.275l128.517,0" style="fill:none;stroke:#000;stroke-width:10.33px;"/></g><g><path d="M3991.15,302.838l0,231.374" style="fill:none;stroke:#000;stroke-width:7.75px;"/></g><g><path d="M3961.44,324.275l128.516,0" style="fill:none;stroke:#000;stroke-width:10.33px;"/></g><g><path d="M4321.32,367.417l-0,263.866" style="fill:none;stroke:#000;stroke-width:7.75px;"/><path d="M4544.23,399.708l0,258.488" style="fill:none;stroke:#000;stroke-width:7.75px;"/><path d="M4767.03,496.583l0,188.513" style="fill:none;stroke:#000;stroke-width:7.75px;"/><path d="M4989.82,528.875l-0,183.138" style="fill:none;stroke:#000;stroke-width:7.75px;"/><path d="M5281.73,372.375l0,199.388" style="fill:none;stroke:#000;stroke-width:7.75px;"/><path d="M5504.65,404.667l0,199.387" style="fill:none;stroke:#000;stroke-width:7.75px;"/><path d="M5727.44,436.958l-0,263.971" style="fill:none;stroke:#000;stroke-width:7.75px;"/></g><g><path d="M5643.73,711.775l113.413,0" style="fill:none;stroke:#000;stroke-width:10.33px;"/></g><g><path d="M5950.23,469.25l0,263.971" style="fill:none;stroke:#000;stroke-width:7.75px;"/></g><g><path d="M5851.53,711.775l128.517,0" style="fill:none;stroke:#000;stroke-width:10.33px;"/><path d="M6181.73,776.358l161.459,0" style="fill:none;stroke:#000;stroke-width:10.33px;"/><path d="M6181.73,711.775l161.459,0" style="fill:none;stroke:#000;stroke-width:10.33px;"/></g><g><path d="M561.58,288.6c0,0 -0.258,1.042 -0.258,1.821c-0,1.041 1.042,2.083 2.083,2.083c0.779,0 1.3,-0.779 1.563,-1.042c0.258,-0.779 3.383,-11.458 4.946,-14.062c0.52,-1.042 1.041,-1.3 1.304,-1.3c0.521,-0 0.779,1.042 0.779,1.821l-0,37.241c-0,3.125 -2.604,4.946 -5.208,4.946c-1.042,0 -2.342,0.521 -2.342,2.084c-0,1.562 1.3,2.083 3.383,2.083l21.875,-0c2.084,-0 2.084,-2.083 2.084,-2.083c-0,-0 -0,-2.084 -2.084,-2.084c-1.821,0 -4.166,-2.341 -4.166,-4.687l-0,-54.167c-0,-2.083 -0.78,-3.125 -2.605,-3.125c-1.82,0 -3.383,0.521 -4.945,0.521c-2.605,-0 -3.125,-0 -5.209,-0.521c-1.041,0 -2.346,1.563 -3.125,2.604l-8.075,27.867" style="fill-rule:nonzero;"/></g><g><path d="M813.214,300.838l-0,-27.863c-0,-1.304 -0.259,-2.346 -1.563,-2.346c-1.042,0 -1.821,0.263 -2.604,1.304l-7.813,15.105c-0.52,0.52 -1.3,1.3 -1.3,3.125l0,10.675l-16.929,-0c10.679,-8.855 27.346,-38.28 27.604,-39.842c0,-0.263 0.263,-0.521 0.263,-0.784c-0,-1.041 -1.042,-1.82 -1.825,-1.82c-1.3,-0 -6.771,0.52 -9.113,0.52c-2.345,0 -3.908,-0.52 -4.95,-0.52c-1.3,-0 -3.125,0.52 -3.125,2.604c0,16.666 -13.541,35.675 -16.925,40.362c-0.52,0.521 -1.041,1.304 -1.041,2.084c-0,1.304 1.041,2.604 2.604,2.604l23.437,-0l0,8.075c0,3.646 -2.083,4.687 -4.166,4.687c-2.346,0 -3.388,1.042 -3.388,2.342c0,1.304 0.521,2.867 2.867,2.867l22.396,-0c1.3,-0 2.604,-1.042 2.604,-2.867c-0,-1.821 -1.563,-2.604 -2.867,-2.604c-1.3,-0 -4.166,-0.779 -4.166,-4.946l-0,-7.554l9.637,-0c1.3,-0 2.083,-1.042 2.083,-2.604c0,-1.563 -0.52,-2.605 -2.083,-2.605l-9.637,0" style="fill-rule:nonzero;"/></g><g><path d="M1007.07,288.6c-0,0 -0.259,1.042 -0.259,1.821c0,1.041 1.042,2.083 2.084,2.083c0.779,0 1.3,-0.779 1.562,-1.042c0.259,-0.779 3.384,-11.458 4.946,-14.062c0.521,-1.042 1.042,-1.3 1.304,-1.3c0.521,-0 0.779,1.042 0.779,1.821l0,37.241c0,3.125 -2.604,4.946 -5.208,4.946c-1.042,0 -2.342,0.521 -2.342,2.084c0,1.562 1.3,2.083 3.384,2.083l21.875,-0c2.083,-0 2.083,-2.083 2.083,-2.083c0,-0 0,-2.084 -2.083,-2.084c-1.821,0 -4.167,-2.341 -4.167,-4.687l0,-54.167c0,-2.083 -0.779,-3.125 -2.604,-3.125c-1.821,0 -3.383,0.521 -4.946,0.521c-2.604,-0 -3.125,-0 -5.208,-0.521c-1.042,0 -2.346,1.563 -3.125,2.604l-8.075,27.867" style="fill-rule:nonzero;"/></g><g><path d="M1258.7,300.838l-0,-27.863c-0,-1.304 -0.263,-2.346 -1.563,-2.346c-1.041,0 -1.825,0.263 -2.604,1.304l-7.812,15.105c-0.521,0.52 -1.304,1.3 -1.304,3.125l-0,10.675l-16.925,-0c10.675,-8.855 27.341,-38.28 27.604,-39.842c-0,-0.263 0.258,-0.521 0.258,-0.784c0,-1.041 -1.042,-1.82 -1.821,-1.82c-1.304,-0 -6.771,0.52 -9.116,0.52c-2.342,0 -3.905,-0.52 -4.946,-0.52c-1.304,-0 -3.125,0.52 -3.125,2.604c-0,16.666 -13.542,35.675 -16.929,40.362c-0.521,0.521 -1.042,1.304 -1.042,2.084c-0,1.304 1.042,2.604 2.604,2.604l23.438,-0l-0,8.075c-0,3.646 -2.084,4.687 -4.167,4.687c-2.342,0 -3.383,1.042 -3.383,2.342c-0,1.304 0.52,2.867 2.862,2.867l22.396,-0c1.304,-0 2.604,-1.042 2.604,-2.867c0,-1.821 -1.562,-2.604 -2.862,-2.604c-1.305,-0 -4.167,-0.779 -4.167,-4.946l-0,-7.554l9.633,-0c1.304,-0 2.084,-1.042 2.084,-2.604c-0,-1.563 -0.521,-2.605 -2.084,-2.605l-9.633,0" style="fill-rule:nonzero;"/></g><g><path d="M1452.75,288.6c-0,0 -0.263,1.042 -0.263,1.821c0,1.041 1.042,2.083 2.084,2.083c0.779,0 1.3,-0.779 1.562,-1.042c0.259,-0.779 3.384,-11.458 4.946,-14.062c0.521,-1.042 1.042,-1.3 1.304,-1.3c0.521,-0 0.779,1.042 0.779,1.821l0,37.241c0,3.125 -2.604,4.946 -5.208,4.946c-1.042,0 -2.342,0.521 -2.342,2.084c0,1.562 1.3,2.083 3.384,2.083l21.875,-0c2.083,-0 2.083,-2.083 2.083,-2.083c0,-0 0,-2.084 -2.083,-2.084c-1.821,0 -4.167,-2.341 -4.167,-4.687l0,-54.167c0,-2.083 -0.779,-3.125 -2.604,-3.125c-1.821,0 -3.383,0.521 -4.946,0.521c-2.604,-0 -3.125,-0 -5.208,-0.521c-1.042,0 -2.346,1.563 -3.125,2.604l-8.071,27.867" style="fill-rule:nonzero;"/></g><g><path d="M1704.37,300.838l-0,-27.863c-0,-1.304 -0.258,-2.346 -1.563,-2.346c-1.041,0 -1.82,0.263 -2.604,1.304l-7.812,15.105c-0.521,0.52 -1.3,1.3 -1.3,3.125l-0,10.675l-16.929,-0c10.679,-8.855 27.345,-38.28 27.604,-39.842c-0,-0.263 0.262,-0.521 0.262,-0.784c0,-1.041 -1.041,-1.82 -1.825,-1.82c-1.3,-0 -6.771,0.52 -9.112,0.52c-2.346,0 -3.909,-0.52 -4.95,-0.52c-1.3,-0 -3.125,0.52 -3.125,2.604c-0,16.666 -13.542,35.675 -16.925,40.362c-0.521,0.521 -1.042,1.304 -1.042,2.084c0,1.304 1.042,2.604 2.604,2.604l23.438,-0l-0,8.075c-0,3.646 -2.084,4.687 -4.167,4.687c-2.346,0 -3.387,1.042 -3.387,2.342c-0,1.304 0.52,2.867 2.866,2.867l22.396,-0c1.3,-0 2.604,-1.042 2.604,-2.867c0,-1.821 -1.562,-2.604 -2.866,-2.604c-1.3,-0 -4.167,-0.779 -4.167,-4.946l-0,-7.554l9.637,-0c1.3,-0 2.084,-1.042 2.084,-2.604c-0,-1.563 -0.521,-2.605 -2.084,-2.605l-9.637,0" style="fill-rule:nonzero;"/></g><g><path d="M1898.42,288.6c-0,0 -0.263,1.042 -0.263,1.821c0,1.041 1.042,2.083 2.084,2.083c0.783,0 1.304,-0.779 1.562,-1.042c0.263,-0.779 3.388,-11.458 4.95,-14.062c0.521,-1.042 1.042,-1.3 1.3,-1.3c0.521,-0 0.784,1.042 0.784,1.821l-0,37.241c-0,3.125 -2.605,4.946 -5.209,4.946c-1.041,0 -2.346,0.521 -2.346,2.084c0,1.562 1.305,2.083 3.388,2.083l21.875,-0c2.083,-0 2.083,-2.083 2.083,-2.083c0,-0 0,-2.084 -2.083,-2.084c-1.825,0 -4.167,-2.341 -4.167,-4.687l0,-54.167c0,-2.083 -0.783,-3.125 -2.604,-3.125c-1.825,0 -3.387,0.521 -4.95,0.521c-2.604,-0 -3.125,-0 -5.208,-0.521c-1.042,0 -2.342,1.563 -3.125,2.604l-8.071,27.867" style="fill-rule:nonzero;"/></g><g><path d="M2149.84,300.783l-0,-27.866c-0,-1.3 -0.259,-2.342 -1.563,-2.342c-1.042,0 -1.821,0.258 -2.604,1.3l-7.813,15.104c-0.52,0.521 -1.3,1.304 -1.3,3.125l0,10.679l-16.929,0c10.679,-8.854 27.346,-38.283 27.604,-39.845c0,-0.259 0.263,-0.521 0.263,-0.78c-0,-1.041 -1.042,-1.825 -1.825,-1.825c-1.3,0 -6.771,0.521 -9.113,0.521c-2.345,0 -3.908,-0.521 -4.95,-0.521c-1.3,0 -3.125,0.521 -3.125,2.605c0,16.666 -13.541,35.679 -16.925,40.366c-0.52,0.521 -1.041,1.3 -1.041,2.084c-0,1.3 1.041,2.604 2.604,2.604l23.437,-0l0,8.071c0,3.645 -2.083,4.687 -4.166,4.687c-2.346,0 -3.388,1.042 -3.388,2.346c0,1.3 0.521,2.862 2.867,2.862l22.396,0c1.3,0 2.604,-1.041 2.604,-2.862c-0,-1.825 -1.563,-2.604 -2.867,-2.604c-1.3,-0 -4.166,-0.784 -4.166,-4.95l-0,-7.55l9.637,-0c1.3,-0 2.083,-1.042 2.083,-2.605c0,-1.562 -0.52,-2.604 -2.083,-2.604l-9.637,0" style="fill-rule:nonzero;"/></g><g><path d="M2451.23,256.046c0,-0 -0.262,1.042 -0.262,1.825c-0,1.042 1.042,2.083 2.083,2.083c0.784,0 1.304,-0.783 1.563,-1.041c0.262,-0.784 3.387,-11.459 4.95,-14.063c0.521,-1.042 1.041,-1.304 1.3,-1.304c0.521,-0 0.783,1.042 0.783,1.825l0,37.237c0,3.125 -2.604,4.95 -5.208,4.95c-1.042,0 -2.346,0.521 -2.346,2.084c-0,1.562 1.304,2.083 3.387,2.083l21.875,0c2.084,0 2.084,-2.083 2.084,-2.083c-0,-0 -0,-2.084 -2.084,-2.084c-1.825,0 -4.166,-2.345 -4.166,-4.687l-0,-54.167c-0,-2.083 -0.784,-3.125 -2.604,-3.125c-1.825,0 -3.388,0.521 -4.95,0.521c-2.605,0 -3.125,0 -5.209,-0.521c-1.041,0 -2.341,1.563 -3.125,2.604l-8.071,27.863" style="fill-rule:nonzero;"/></g><g><path d="M2702.86,203.908l0,-27.866c0,-1.3 -0.258,-2.342 -1.562,-2.342c-1.042,0 -1.821,0.258 -2.604,1.3l-7.813,15.104c-0.521,0.521 -1.3,1.304 -1.3,3.125l0,10.679l-16.929,0c10.679,-8.854 27.346,-38.283 27.604,-39.845c0,-0.259 0.263,-0.521 0.263,-0.78c-0,-1.041 -1.042,-1.825 -1.825,-1.825c-1.3,0 -6.771,0.521 -9.113,0.521c-2.346,0 -3.908,-0.521 -4.95,-0.521c-1.3,0 -3.125,0.521 -3.125,2.605c0,16.666 -13.541,35.679 -16.925,40.366c-0.521,0.521 -1.041,1.3 -1.041,2.084c-0,1.3 1.041,2.604 2.604,2.604l23.437,-0l0,8.071c0,3.645 -2.083,4.687 -4.166,4.687c-2.346,0 -3.388,1.042 -3.388,2.346c0,1.3 0.521,2.862 2.867,2.862l22.396,0c1.3,0 2.604,-1.041 2.604,-2.862c-0,-1.825 -1.563,-2.604 -2.867,-2.604c-1.3,-0 -4.167,-0.784 -4.167,-4.95l0,-7.55l9.638,-0c1.3,-0 2.083,-1.042 2.083,-2.605c0,-1.562 -0.521,-2.604 -2.083,-2.604l-9.638,0" style="fill-rule:nonzero;"/></g><g><path d="M2896.79,159.171c-0,-0 -0.259,1.042 -0.259,1.825c0,1.042 1.042,2.083 2.084,2.083c0.779,0 1.3,-0.783 1.562,-1.041c0.259,-0.784 3.384,-11.459 4.946,-14.063c0.521,-1.042 1.042,-1.304 1.304,-1.304c0.521,-0 0.779,1.042 0.779,1.825l0,37.237c0,3.125 -2.604,4.95 -5.208,4.95c-1.042,0 -2.342,0.521 -2.342,2.084c0,1.562 1.3,2.083 3.384,2.083l21.875,0c2.083,0 2.083,-2.083 2.083,-2.083c0,-0 0,-2.084 -2.083,-2.084c-1.821,0 -4.167,-2.345 -4.167,-4.687l0,-54.167c0,-2.083 -0.779,-3.125 -2.604,-3.125c-1.821,0 -3.383,0.521 -4.946,0.521c-2.604,0 -3.125,0 -5.208,-0.521c-1.042,0 -2.346,1.563 -3.125,2.604l-8.075,27.863" style="fill-rule:nonzero;"/></g><g><path d="M3148.42,74.742l-0,-27.867c-0,-1.3 -0.263,-2.342 -1.563,-2.342c-1.041,0 -1.825,0.259 -2.604,1.3l-7.812,15.105c-0.521,0.52 -1.304,1.304 -1.304,3.124l-0,10.68l-16.925,-0c10.675,-8.854 27.341,-38.284 27.604,-39.846c-0,-0.258 0.258,-0.521 0.258,-0.779c0,-1.042 -1.042,-1.825 -1.821,-1.825c-1.304,-0 -6.771,0.521 -9.116,0.521c-2.342,-0 -3.905,-0.521 -4.946,-0.521c-1.304,-0 -3.125,0.521 -3.125,2.604c-0,16.667 -13.542,35.679 -16.929,40.367c-0.521,0.52 -1.042,1.3 -1.042,2.083c-0,1.3 1.042,2.604 2.604,2.604l23.438,0l-0,8.071c-0,3.646 -2.084,4.687 -4.167,4.687c-2.342,0 -3.383,1.042 -3.383,2.346c-0,1.3 0.52,2.863 2.862,2.863l22.396,-0c1.304,-0 2.604,-1.042 2.604,-2.863c0,-1.825 -1.562,-2.604 -2.862,-2.604c-1.305,0 -4.167,-0.783 -4.167,-4.95l-0,-7.55l9.633,0c1.304,0 2.084,-1.042 2.084,-2.604c-0,-1.563 -0.521,-2.604 -2.084,-2.604l-9.633,-0" style="fill-rule:nonzero;"/></g><g><path d="M3371.26,42.45l0,-27.867c0,-1.3 -0.262,-2.341 -1.562,-2.341c-1.042,-0 -1.825,0.258 -2.604,1.3l-7.813,15.104c-0.521,0.521 -1.304,1.304 -1.304,3.125l0,10.679l-16.925,0c10.675,-8.854 27.342,-38.283 27.604,-39.846c0,-0.258 0.259,-0.521 0.259,-0.779c-0,-1.042 -1.042,-1.825 -1.821,-1.825c-1.304,0 -6.771,0.521 -9.117,0.521c-2.342,-0 -3.904,-0.521 -4.946,-0.521c-1.304,0 -3.125,0.521 -3.125,2.604c0,16.667 -13.541,35.679 -16.929,40.367c-0.521,0.521 -1.042,1.3 -1.042,2.083c0,1.3 1.042,2.604 2.605,2.604l23.437,0l0,8.071c0,3.646 -2.083,4.688 -4.167,4.688c-2.341,-0 -3.383,1.041 -3.383,2.346c0,1.3 0.521,2.862 2.863,2.862l22.395,0c1.305,0 2.605,-1.042 2.605,-2.862c-0,-1.825 -1.563,-2.605 -2.863,-2.605c-1.304,0 -4.167,-0.783 -4.167,-4.95l0,-7.55l9.634,0c1.304,0 2.083,-1.041 2.083,-2.604c0,-1.562 -0.521,-2.604 -2.083,-2.604l-9.634,0" style="fill-rule:nonzero;"/></g><g><path d="M3594.1,74.742l-0,-27.867c-0,-1.3 -0.263,-2.342 -1.563,-2.342c-1.041,0 -1.825,0.259 -2.604,1.3l-7.812,15.105c-0.521,0.52 -1.304,1.304 -1.304,3.124l-0,10.68l-16.925,-0c10.675,-8.854 27.341,-38.284 27.604,-39.846c-0,-0.258 0.258,-0.521 0.258,-0.779c0,-1.042 -1.042,-1.825 -1.821,-1.825c-1.304,-0 -6.771,0.521 -9.116,0.521c-2.342,-0 -3.905,-0.521 -4.946,-0.521c-1.304,-0 -3.125,0.521 -3.125,2.604c-0,16.667 -13.542,35.679 -16.929,40.367c-0.521,0.52 -1.042,1.3 -1.042,2.083c-0,1.3 1.042,2.604 2.604,2.604l23.438,0l-0,8.071c-0,3.646 -2.084,4.687 -4.167,4.687c-2.342,0 -3.383,1.042 -3.383,2.346c-0,1.3 0.52,2.863 2.862,2.863l22.396,-0c1.304,-0 2.604,-1.042 2.604,-2.863c0,-1.825 -1.562,-2.604 -2.862,-2.604c-1.305,0 -4.167,-0.783 -4.167,-4.95l-0,-7.55l9.633,0c1.304,0 2.084,-1.042 2.084,-2.604c-0,-1.563 -0.521,-2.604 -2.084,-2.604l-9.633,-0" style="fill-rule:nonzero;"/></g><g><path d="M3788.15,159.171c0,-0 -0.262,1.042 -0.262,1.825c-0,1.042 1.041,2.083 2.083,2.083c0.783,0 1.304,-0.783 1.562,-1.041c0.263,-0.784 3.388,-11.459 4.95,-14.063c0.521,-1.042 1.042,-1.304 1.3,-1.304c0.521,-0 0.784,1.042 0.784,1.825l-0,37.237c-0,3.125 -2.604,4.95 -5.209,4.95c-1.041,0 -2.345,0.521 -2.345,2.084c-0,1.562 1.304,2.083 3.387,2.083l21.875,0c2.083,0 2.083,-2.083 2.083,-2.083c0,-0 0,-2.084 -2.083,-2.084c-1.825,0 -4.167,-2.345 -4.167,-4.687l0,-54.167c0,-2.083 -0.783,-3.125 -2.604,-3.125c-1.825,0 -3.387,0.521 -4.95,0.521c-2.604,0 -3.125,0 -5.208,-0.521c-1.042,0 -2.342,1.563 -3.125,2.604l-8.071,27.863" style="fill-rule:nonzero;"/></g><g><path d="M4039.57,203.908l-0,-27.866c-0,-1.3 -0.259,-2.342 -1.563,-2.342c-1.041,0 -1.821,0.258 -2.604,1.3l-7.812,15.104c-0.521,0.521 -1.3,1.304 -1.3,3.125l-0,10.679l-16.925,0c10.675,-8.854 27.341,-38.283 27.6,-39.845c-0,-0.259 0.262,-0.521 0.262,-0.78c0,-1.041 -1.042,-1.825 -1.825,-1.825c-1.3,0 -6.771,0.521 -9.112,0.521c-2.346,0 -3.909,-0.521 -4.95,-0.521c-1.3,0 -3.125,0.521 -3.125,2.605c-0,16.666 -13.538,35.679 -16.925,40.366c-0.521,0.521 -1.042,1.3 -1.042,2.084c-0,1.3 1.042,2.604 2.604,2.604l23.438,-0l-0,8.071c-0,3.645 -2.084,4.687 -4.167,4.687c-2.346,0 -3.388,1.042 -3.388,2.346c0,1.3 0.521,2.862 2.867,2.862l22.396,0c1.3,0 2.604,-1.041 2.604,-2.862c0,-1.825 -1.562,-2.604 -2.867,-2.604c-1.3,-0 -4.166,-0.784 -4.166,-4.95l-0,-7.55l9.637,-0c1.3,-0 2.084,-1.042 2.084,-2.605c-0,-1.562 -0.521,-2.604 -2.084,-2.604l-9.637,0" style="fill-rule:nonzero;"/></g><g><path d="M4340.98,256.046c0,-0 -0.262,1.042 -0.262,1.825c-0,1.042 1.042,2.083 2.083,2.083c0.784,0 1.304,-0.783 1.563,-1.041c0.262,-0.784 3.387,-11.459 4.95,-14.063c0.521,-1.042 1.041,-1.304 1.3,-1.304c0.521,-0 0.783,1.042 0.783,1.825l0,37.237c0,3.125 -2.604,4.95 -5.208,4.95c-1.042,0 -2.346,0.521 -2.346,2.084c-0,1.562 1.304,2.083 3.387,2.083l21.875,0c2.084,0 2.084,-2.083 2.084,-2.083c-0,-0 -0,-2.084 -2.084,-2.084c-1.825,0 -4.166,-2.345 -4.166,-4.687l-0,-54.167c-0,-2.083 -0.784,-3.125 -2.604,-3.125c-1.825,0 -3.388,0.521 -4.95,0.521c-2.605,0 -3.125,0 -5.209,-0.521c-1.041,0 -2.341,1.563 -3.125,2.604l-8.071,27.863" style="fill-rule:nonzero;"/></g><g><path d="M4592.61,300.783l0,-27.866c0,-1.3 -0.258,-2.342 -1.562,-2.342c-1.042,0 -1.821,0.258 -2.604,1.3l-7.813,15.104c-0.521,0.521 -1.3,1.304 -1.3,3.125l0,10.679l-16.929,0c10.679,-8.854 27.346,-38.283 27.604,-39.845c0,-0.259 0.263,-0.521 0.263,-0.78c-0,-1.041 -1.042,-1.825 -1.825,-1.825c-1.3,0 -6.771,0.521 -9.113,0.521c-2.346,0 -3.908,-0.521 -4.95,-0.521c-1.3,0 -3.125,0.521 -3.125,2.605c0,16.666 -13.541,35.679 -16.925,40.366c-0.521,0.521 -1.041,1.3 -1.041,2.084c-0,1.3 1.041,2.604 2.604,2.604l23.437,-0l0,8.071c0,3.645 -2.083,4.687 -4.166,4.687c-2.346,0 -3.388,1.042 -3.388,2.346c0,1.3 0.521,2.862 2.867,2.862l22.396,0c1.3,0 2.604,-1.041 2.604,-2.862c-0,-1.825 -1.563,-2.604 -2.867,-2.604c-1.3,-0 -4.167,-0.784 -4.167,-4.95l0,-7.55l9.638,-0c1.3,-0 2.083,-1.042 2.083,-2.605c0,-1.562 -0.521,-2.604 -2.083,-2.604l-9.638,0" style="fill-rule:nonzero;"/></g><g><path d="M4786.65,288.6c0,0 -0.258,1.042 -0.258,1.821c-0,1.041 1.041,2.083 2.083,2.083c0.779,0 1.3,-0.779 1.563,-1.042c0.258,-0.779 3.383,-11.458 4.945,-14.062c0.521,-1.042 1.042,-1.3 1.305,-1.3c0.52,-0 0.779,1.042 0.779,1.821l-0,37.241c-0,3.125 -2.604,4.946 -5.209,4.946c-1.041,0 -2.341,0.521 -2.341,2.084c-0,1.562 1.3,2.083 3.383,2.083l21.875,-0c2.083,-0 2.083,-2.083 2.083,-2.083c0,-0 0,-2.084 -2.083,-2.084c-1.821,0 -4.167,-2.341 -4.167,-4.687l0,-54.167c0,-2.083 -0.779,-3.125 -2.604,-3.125c-1.821,0 -3.383,0.521 -4.946,0.521c-2.604,-0 -3.125,-0 -5.208,-0.521c-1.042,0 -2.346,1.563 -3.125,2.604l-8.075,27.867" style="fill-rule:nonzero;"/></g><g><path d="M5038.28,300.838l0,-27.863c0,-1.304 -0.262,-2.346 -1.562,-2.346c-1.042,0 -1.825,0.263 -2.605,1.304l-7.812,15.105c-0.521,0.52 -1.304,1.3 -1.304,3.125l-0,10.675l-16.925,-0c10.675,-8.855 27.341,-38.28 27.604,-39.842c-0,-0.263 0.258,-0.521 0.258,-0.784c0,-1.041 -1.041,-1.82 -1.821,-1.82c-1.304,-0 -6.77,0.52 -9.116,0.52c-2.342,0 -3.904,-0.52 -4.946,-0.52c-1.304,-0 -3.125,0.52 -3.125,2.604c-0,16.666 -13.542,35.675 -16.929,40.362c-0.521,0.521 -1.042,1.304 -1.042,2.084c0,1.304 1.042,2.604 2.604,2.604l23.438,-0l-0,8.075c-0,3.646 -2.084,4.687 -4.167,4.687c-2.342,0 -3.383,1.042 -3.383,2.342c-0,1.304 0.521,2.867 2.862,2.867l22.396,-0c1.304,-0 2.604,-1.042 2.604,-2.867c0,-1.821 -1.562,-2.604 -2.862,-2.604c-1.304,-0 -4.167,-0.779 -4.167,-4.946l0,-7.554l9.633,-0c1.305,-0 2.084,-1.042 2.084,-2.604c-0,-1.563 -0.521,-2.605 -2.084,-2.605l-9.633,0" style="fill-rule:nonzero;"/></g><g><path d="M5232.32,288.6c-0,0 -0.263,1.042 -0.263,1.821c0,1.041 1.042,2.083 2.084,2.083c0.783,0 1.304,-0.779 1.562,-1.042c0.263,-0.779 3.388,-11.458 4.95,-14.062c0.521,-1.042 1.042,-1.3 1.3,-1.3c0.521,-0 0.783,1.042 0.783,1.821l0,37.241c0,3.125 -2.604,4.946 -5.208,4.946c-1.042,0 -2.346,0.521 -2.346,2.084c0,1.562 1.304,2.083 3.388,2.083l21.875,-0c2.083,-0 2.083,-2.083 2.083,-2.083c0,-0 0,-2.084 -2.083,-2.084c-1.825,0 -4.167,-2.341 -4.167,-4.687l0,-54.167c0,-2.083 -0.783,-3.125 -2.604,-3.125c-1.825,0 -3.388,0.521 -4.95,0.521c-2.604,-0 -3.125,-0 -5.208,-0.521c-1.042,0 -2.342,1.563 -3.125,2.604l-8.071,27.867" style="fill-rule:nonzero;"/></g><g><path d="M5483.94,300.838l-0,-27.863c-0,-1.304 -0.259,-2.346 -1.563,-2.346c-1.041,0 -1.821,0.263 -2.604,1.304l-7.812,15.105c-0.521,0.52 -1.3,1.3 -1.3,3.125l-0,10.675l-16.93,-0c10.68,-8.855 27.346,-38.28 27.605,-39.842c-0,-0.263 0.262,-0.521 0.262,-0.784c0,-1.041 -1.042,-1.82 -1.825,-1.82c-1.3,-0 -6.771,0.52 -9.112,0.52c-2.346,0 -3.909,-0.52 -4.95,-0.52c-1.3,-0 -3.125,0.52 -3.125,2.604c-0,16.666 -13.542,35.675 -16.925,40.362c-0.521,0.521 -1.042,1.304 -1.042,2.084c-0,1.304 1.042,2.604 2.604,2.604l23.438,-0l-0,8.075c-0,3.646 -2.084,4.687 -4.167,4.687c-2.346,0 -3.388,1.042 -3.388,2.342c0,1.304 0.521,2.867 2.867,2.867l22.396,-0c1.3,-0 2.604,-1.042 2.604,-2.867c0,-1.821 -1.562,-2.604 -2.867,-2.604c-1.3,-0 -4.166,-0.779 -4.166,-4.946l-0,-7.554l9.637,-0c1.3,-0 2.084,-1.042 2.084,-2.604c-0,-1.563 -0.521,-2.605 -2.084,-2.605l-9.637,0" style="fill-rule:nonzero;"/></g><g><path d="M5677.98,288.6c0,0 -0.262,1.042 -0.262,1.821c-0,1.041 1.042,2.083 2.083,2.083c0.784,0 1.304,-0.779 1.563,-1.042c0.262,-0.779 3.387,-11.458 4.95,-14.062c0.521,-1.042 1.041,-1.3 1.3,-1.3c0.521,-0 0.783,1.042 0.783,1.821l0,37.241c0,3.125 -2.604,4.946 -5.208,4.946c-1.042,0 -2.346,0.521 -2.346,2.084c-0,1.562 1.304,2.083 3.387,2.083l21.875,-0c2.084,-0 2.084,-2.083 2.084,-2.083c-0,-0 -0,-2.084 -2.084,-2.084c-1.825,0 -4.166,-2.341 -4.166,-4.687l-0,-54.167c-0,-2.083 -0.784,-3.125 -2.604,-3.125c-1.825,0 -3.388,0.521 -4.95,0.521c-2.605,-0 -3.125,-0 -5.209,-0.521c-1.041,0 -2.341,1.563 -3.125,2.604l-8.071,27.867" style="fill-rule:nonzero;"/></g><g><path d="M5929.65,300.838l0,-27.863c0,-1.304 -0.262,-2.346 -1.562,-2.346c-1.042,0 -1.825,0.263 -2.605,1.304l-7.812,15.105c-0.521,0.52 -1.304,1.3 -1.304,3.125l-0,10.675l-16.925,-0c10.675,-8.855 27.341,-38.28 27.604,-39.842c-0,-0.263 0.258,-0.521 0.258,-0.784c0,-1.041 -1.041,-1.82 -1.821,-1.82c-1.304,-0 -6.77,0.52 -9.116,0.52c-2.342,0 -3.904,-0.52 -4.946,-0.52c-1.304,-0 -3.125,0.52 -3.125,2.604c-0,16.666 -13.542,35.675 -16.929,40.362c-0.521,0.521 -1.042,1.304 -1.042,2.084c0,1.304 1.042,2.604 2.604,2.604l23.438,-0l-0,8.075c-0,3.646 -2.084,4.687 -4.167,4.687c-2.342,0 -3.383,1.042 -3.383,2.342c-0,1.304 0.521,2.867 2.862,2.867l22.396,-0c1.304,-0 2.604,-1.042 2.604,-2.867c0,-1.821 -1.562,-2.604 -2.862,-2.604c-1.304,-0 -4.167,-0.779 -4.167,-4.946l0,-7.554l9.633,-0c1.305,-0 2.084,-1.042 2.084,-2.604c-0,-1.563 -0.521,-2.605 -2.084,-2.605l-9.633,0" style="fill-rule:nonzero;"/></g><g><path d="M6247.57,288.6c-0,0 -0.263,1.042 -0.263,1.821c0,1.041 1.042,2.083 2.084,2.083c0.783,0 1.304,-0.779 1.562,-1.042c0.263,-0.779 3.388,-11.458 4.95,-14.062c0.521,-1.042 1.042,-1.3 1.3,-1.3c0.521,-0 0.783,1.042 0.783,1.821l0,37.241c0,3.125 -2.604,4.946 -5.208,4.946c-1.042,0 -2.346,0.521 -2.346,2.084c0,1.562 1.304,2.083 3.388,2.083l21.875,-0c2.083,-0 2.083,-2.083 2.083,-2.083c0,-0 0,-2.084 -2.083,-2.084c-1.825,0 -4.167,-2.341 -4.167,-4.687l0,-54.167c0,-2.083 -0.783,-3.125 -2.604,-3.125c-1.825,0 -3.388,0.521 -4.95,0.521c-2.604,-0 -3.125,-0 -5.208,-0.521c-1.042,0 -2.342,1.563 -3.125,2.604l-8.071,27.867" style="fill-rule:nonzero;"/></g><g><path d="M576.53,865.596c34.113,-0 61.979,27.604 61.979,61.721c0,34.112 -27.866,61.979 -61.979,61.979c-34.116,-0 -61.979,-27.867 -61.979,-61.979c0,-34.117 27.863,-61.721 61.979,-61.721m18.75,80.208c0,11.721 -7.812,19.534 -18.491,19.534c-10.675,-0 -18.75,-8.334 -18.75,-20.055c-0,-11.458 7.812,-19.008 19.27,-19.008c10.938,0 17.971,7.292 17.971,19.529m11.717,-0.779c-0,-17.187 -11.717,-28.908 -28.383,-28.908c-9.117,-0 -16.146,3.646 -21.096,10.416c-0,-22.654 7.291,-35.154 20.575,-35.154c8.071,0 13.541,5.209 15.362,14.063l11.459,-0c-2.084,-15.104 -11.98,-24.221 -26.042,-24.221c-21.613,-0 -33.071,18.229 -33.071,50.262c0,28.905 9.896,44.009 30.988,44.009c17.45,-0 30.208,-12.5 30.208,-30.467m-30.467,52.604c38.8,0 70.313,-31.512 70.313,-70.312c-0,-38.804 -31.513,-70.054 -70.313,-70.054c-38.804,-0 -70.312,31.25 -70.312,70.054c-0,38.8 31.508,70.312 70.312,70.312" style="fill-rule:nonzero;"/></g><g><path d="M1022,826.704c34.117,0 61.979,27.604 61.979,61.721c0,34.112 -27.862,61.979 -61.979,61.979c-34.112,0 -61.979,-27.866 -61.979,-61.979c-0,-34.117 27.867,-61.721 61.979,-61.721m30.208,78.388c0,-18.229 -12.237,-30.209 -29.945,-30.209c-6.513,0 -11.721,1.563 -16.93,5.467l3.646,-23.696l38.284,0l-0,-11.458l-47.659,-0l-6.771,48.437l10.417,0c5.471,-6.512 9.896,-8.596 16.929,-8.596c12.5,0 20.313,7.813 20.313,21.617c-0,13.279 -7.813,20.834 -20.313,20.834c-9.896,-0 -16.146,-5.209 -18.75,-15.625l-11.458,-0c3.646,18.487 14.062,25.779 30.467,25.779c18.75,-0 31.77,-13.021 31.77,-32.55m-30.208,53.646c38.804,-0 70.313,-31.513 70.313,-70.313c-0,-38.804 -31.509,-70.054 -70.313,-70.054c-38.8,-0 -70.312,31.25 -70.312,70.054c-0,38.8 31.512,70.313 70.312,70.313" style="fill-rule:nonzero;"/></g><g><path d="M1441.96,881.658l28.904,-40.366l-0,40.366l-28.904,0m25.779,-75.52c34.116,-0 61.979,27.604 61.979,61.716c-0,34.117 -27.863,61.979 -61.979,61.979c-34.113,0 -61.975,-27.862 -61.975,-61.979c-0,-34.112 27.862,-61.716 61.975,-61.716m28.125,75.52l-13.542,0l0,-59.895l-8.592,-0l-41.925,58.07l0,12.242l39.059,0l-0,22.133l11.458,0l0,-22.133l13.542,0l-0,-10.417m-28.125,56.509c38.804,-0 70.312,-31.509 70.312,-70.313c0,-38.8 -31.508,-70.05 -70.312,-70.05c-38.8,0 -70.309,31.25 -70.309,70.05c0,38.804 31.509,70.313 70.309,70.313" style="fill-rule:nonzero;"/></g><g><path d="M1913.37,741.796c34.116,-0 61.979,27.604 61.979,61.717c-0,34.116 -27.863,61.979 -61.979,61.979c-34.113,-0 -61.979,-27.863 -61.979,-61.979c-0,-34.113 27.866,-61.717 61.979,-61.717m-0,132.029c38.804,0 70.312,-31.508 70.312,-70.312c0,-38.8 -31.508,-70.05 -70.312,-70.05c-38.8,-0 -70.313,31.25 -70.313,70.05c0,38.804 31.513,70.312 70.313,70.312m30.991,-51.3c0,-11.2 -4.687,-17.708 -15.625,-21.617c8.592,-3.383 12.759,-9.375 12.759,-18.487c-0,-15.888 -10.417,-25.521 -28.125,-25.521c-18.488,-0 -28.384,10.154 -28.904,29.946l11.458,-0c0.258,-13.8 5.987,-19.792 17.708,-19.792c10.154,0 16.146,5.992 16.146,15.625c0,9.896 -4.167,14.063 -22.658,14.063l-0,9.637l6.25,0c12.762,0 19.271,5.988 19.271,16.146c-0,11.717 -7.292,18.488 -19.271,18.488c-12.5,-0 -18.488,-6.25 -19.271,-19.53l-11.458,0c1.304,20.571 11.458,29.688 30.47,29.688c19.009,-0 31.25,-11.2 31.25,-28.646" style="fill-rule:nonzero;"/></g><g><path d="M2466.18,671.588c34.117,-0 61.979,27.604 61.979,61.716c0,34.117 -27.862,61.979 -61.979,61.979c-34.112,0 -61.979,-27.862 -61.979,-61.979c0,-34.112 27.867,-61.716 61.979,-61.716m0,132.029c38.804,-0 70.313,-31.509 70.313,-70.313c-0,-38.8 -31.509,-70.05 -70.313,-70.05c-38.8,0 -70.312,31.25 -70.312,70.05c-0,38.804 31.512,70.313 70.312,70.313m30.992,-93.229c-0,-15.625 -11.979,-27.084 -29.429,-27.084c-19.009,0 -29.946,9.638 -30.467,32.034l11.458,-0c0.78,-15.367 7.292,-21.875 18.488,-21.875c10.417,-0 18.229,7.291 18.229,17.187c0,7.292 -4.167,13.542 -12.5,18.229l-11.979,6.771c-19.271,10.938 -24.738,19.792 -25.779,40.104l61.458,0l0,-11.458l-48.7,-0c1.304,-7.554 5.471,-12.242 16.667,-19.013l13.021,-7.029c13.02,-6.771 19.533,-16.408 19.533,-27.866" style="fill-rule:nonzero;"/></g><g><path d="M2911.74,671.588c34.112,-0 61.979,27.604 61.979,61.716c-0,34.117 -27.867,61.979 -61.979,61.979c-34.117,0 -61.979,-27.862 -61.979,-61.979c-0,-34.112 27.862,-61.716 61.979,-61.716m7.812,17.966l-7.554,0c-3.904,14.325 -6.508,16.146 -24.217,18.492l0,8.071l20.313,-0l-0,65.887l11.458,0l0,-92.45m-7.812,114.063c38.8,-0 70.312,-31.509 70.312,-70.313c0,-38.8 -31.512,-70.05 -70.312,-70.05c-38.804,0 -70.313,31.25 -70.313,70.05c0,38.804 31.509,70.313 70.313,70.313" style="fill-rule:nonzero;"/></g><g><path d="M4025.73,671.588c34.113,-0 61.98,27.604 61.98,61.716c-0,34.117 -27.867,61.979 -61.98,61.979c-34.116,0 -61.979,-27.862 -61.979,-61.979c0,-34.112 27.863,-61.716 61.979,-61.716m0,132.029c38.8,-0 70.313,-31.509 70.313,-70.313c-0,-38.8 -31.513,-70.05 -70.313,-70.05c-38.804,0 -70.312,31.25 -70.312,70.05c-0,38.804 31.508,70.313 70.312,70.313m30.988,-93.229c-0,-15.625 -11.979,-27.084 -29.425,-27.084c-19.013,0 -29.95,9.638 -30.471,32.034l11.458,-0c0.784,-15.367 7.292,-21.875 18.492,-21.875c10.417,-0 18.229,7.291 18.229,17.187c0,7.292 -4.166,13.542 -12.5,18.229l-11.979,6.771c-19.271,10.938 -24.742,19.792 -25.783,40.104l61.458,0l0,-11.458l-48.696,-0c1.3,-7.554 5.467,-12.242 16.667,-19.013l13.021,-7.029c13.021,-6.771 19.529,-16.408 19.529,-27.866" style="fill-rule:nonzero;"/></g><g><path d="M4578.73,711.396c34.117,-0 61.98,27.604 61.98,61.721c-0,34.112 -27.863,61.979 -61.98,61.979c-34.112,-0 -61.975,-27.867 -61.975,-61.979c0,-34.117 27.863,-61.721 61.975,-61.721m0,132.033c38.805,0 70.313,-31.512 70.313,-70.312c-0,-38.804 -31.508,-70.054 -70.313,-70.054c-38.8,-0 -70.308,31.25 -70.308,70.054c0,38.8 31.508,70.312 70.308,70.312m30.992,-51.304c0,-11.196 -4.687,-17.708 -15.625,-21.613c8.592,-3.387 12.758,-9.375 12.758,-18.491c0,-15.884 -10.416,-25.521 -28.125,-25.521c-18.487,0 -28.383,10.158 -28.904,29.95l11.459,-0c0.258,-13.804 5.987,-19.792 17.708,-19.792c10.154,0 16.146,5.988 16.146,15.625c-0,9.896 -4.167,14.063 -22.659,14.063l0,9.633l6.25,0c12.763,0 19.271,5.992 19.271,16.146c0,11.721 -7.291,18.492 -19.271,18.492c-12.5,-0 -18.487,-6.25 -19.27,-19.534l-11.459,0c1.304,20.575 11.459,29.688 30.471,29.688c19.008,-0 31.25,-11.196 31.25,-28.646" style="fill-rule:nonzero;"/></g><g><path d="M4998.69,828.071l28.904,-40.363l-0,40.363l-28.904,-0m25.779,-75.521c34.117,-0 61.979,27.604 61.979,61.721c0,34.112 -27.862,61.979 -61.979,61.979c-34.113,-0 -61.979,-27.867 -61.979,-61.979c-0,-34.117 27.866,-61.721 61.979,-61.721m28.125,75.521l-13.542,-0l0,-59.896l-8.591,-0l-41.93,58.075l0,12.237l39.063,0l-0,22.138l11.458,-0l0,-22.138l13.542,0l-0,-10.416m-28.125,56.512c38.804,0 70.312,-31.512 70.312,-70.312c0,-38.804 -31.508,-70.054 -70.312,-70.054c-38.8,-0 -70.313,31.25 -70.313,70.054c0,38.8 31.513,70.312 70.313,70.312" style="fill-rule:nonzero;"/></g><g><path d="M5470.11,671.846c34.117,-0 61.98,27.604 61.98,61.721c-0,34.112 -27.863,61.979 -61.98,61.979c-34.112,-0 -61.979,-27.867 -61.979,-61.979c0,-34.117 27.867,-61.721 61.979,-61.721m30.209,78.387c-0,-18.229 -12.238,-30.208 -29.946,-30.208c-6.513,0 -11.721,1.563 -16.929,5.467l3.646,-23.696l38.283,-0l-0,-11.458l-47.658,-0l-6.771,48.437l10.416,0c5.471,-6.512 9.896,-8.596 16.93,-8.596c12.5,0 20.312,7.813 20.312,21.617c0,13.279 -7.812,20.833 -20.312,20.833c-9.896,0 -16.146,-5.208 -18.75,-15.625l-11.459,0c3.646,18.488 14.063,25.779 30.467,25.779c18.75,0 31.771,-13.02 31.771,-32.55m-30.209,53.646c38.805,0 70.313,-31.512 70.313,-70.312c-0,-38.804 -31.508,-70.054 -70.313,-70.054c-38.8,-0 -70.312,31.25 -70.312,70.054c-0,38.8 31.512,70.312 70.312,70.312" style="fill-rule:nonzero;"/></g><g><path d="M5915.78,801.013c34.113,-0 61.979,27.604 61.979,61.72c0,34.113 -27.866,61.979 -61.979,61.979c-34.117,0 -61.979,-27.866 -61.979,-61.979c-0,-34.116 27.862,-61.721 61.979,-61.721m18.75,80.209c0,11.721 -7.812,19.533 -18.492,19.533c-10.675,0 -18.75,-8.333 -18.75,-20.054c0,-11.458 7.813,-19.008 19.271,-19.008c10.938,-0 17.971,7.291 17.971,19.529m11.717,-0.779c-0,-17.188 -11.717,-28.909 -28.384,-28.909c-9.116,0 -16.145,3.646 -21.095,10.417c-0,-22.654 7.291,-35.154 20.575,-35.154c8.07,-0 13.541,5.208 15.362,14.062l11.458,0c-2.083,-15.104 -11.979,-24.221 -26.041,-24.221c-21.613,0 -33.071,18.23 -33.071,50.263c-0,28.904 9.896,44.008 30.987,44.008c17.45,0 30.209,-12.5 30.209,-30.466m-30.467,52.604c38.8,-0 70.313,-31.513 70.313,-70.313c-0,-38.804 -31.513,-70.054 -70.313,-70.054c-38.804,0 -70.312,31.25 -70.312,70.054c-0,38.8 31.508,70.313 70.312,70.313" style="fill-rule:nonzero;"/></g><g><path d="M563.368,841.204c23.179,0 51.562,-21.354 51.562,-43.491c0,-13.28 -10.416,-21.613 -25.258,-21.613c-28.646,0 -51.563,21.092 -51.563,43.488c0,13.541 11.196,21.616 25.259,21.616" style="fill-rule:nonzero;"/></g><g><path d="M786.209,776.621c23.175,-0 51.563,-21.354 51.563,-43.492c-0,-13.279 -10.417,-21.612 -25.263,-21.612c-28.645,-0 -51.562,21.091 -51.562,43.487c-0,13.542 11.2,21.617 25.262,21.617" style="fill-rule:nonzero;"/></g><g><path d="M946.393,723.496c-1.563,5.208 -13.804,10.417 -19.792,10.417c-1.562,-0 -2.867,-0.521 -3.125,-1.305c-0.521,-1.041 -0.783,-6.77 -0.783,-13.02c-0,-8.071 0.262,-17.188 0.783,-19.271c0.521,-4.425 12.5,-9.896 19.008,-9.896c1.825,-0 3.388,0.521 3.909,1.562c0.521,1.304 1.041,7.813 1.041,14.846c0,7.029 -0.52,14.321 -1.041,16.667m17.966,-42.45c1.825,-0.779 3.125,-2.863 3.125,-4.425l0,-18.492c0,-1.3 -0.779,-2.083 -1.82,-2.083c-0.521,-0 -0.784,-0 -1.305,0.262c0,0 -5.208,2.084 -6.508,2.342c-1.825,0 -3.646,-1.3 -3.646,-3.383l0,-31.771c0,-1.563 -1.562,-2.867 -3.646,-2.867c-2.604,0 -4.166,1.304 -4.166,2.867l-0,33.854c-0.263,2.604 -1.042,5.987 -3.388,7.55c-3.125,1.825 -11.979,5.471 -16.404,6.512c-2.346,0 -3.125,-3.125 -3.125,-5.208l0,-31.25c0,-1.562 -1.825,-2.867 -3.646,-2.867c-2.604,0 -4.166,1.305 -4.166,2.867l-0,35.154c-0,3.646 -1.563,6.25 -3.125,7.034c-1.563,0.779 -6.771,2.862 -6.771,2.862c-1.825,0.521 -3.125,2.604 -3.125,4.167l-0,18.491c-0,1.563 0.779,2.342 2.083,2.342c1.042,0 5.988,-2.342 6.771,-2.862c0.258,-0 0.521,-0.263 0.779,-0.263c1.825,0 3.388,2.604 3.388,4.688l-0,25.783c-0,2.862 -1.305,5.208 -2.867,5.987c-1.563,0.521 -7.029,2.867 -7.029,2.867c-1.825,0.521 -3.125,2.604 -3.125,4.167l-0,18.487c-0,1.563 0.779,2.346 2.083,2.346c0.258,0 0.779,-0.262 1.042,-0.262c-0,-0 3.646,-1.563 5.987,-2.342c0.263,-0.263 0.521,-0.263 0.784,-0.263c1.82,0 3.125,2.867 3.125,4.167l-0,32.033c-0,1.563 1.562,2.863 3.383,2.863c2.604,-0 4.429,-1.3 4.429,-2.863l0,-36.2c0,-3.383 1.3,-5.208 2.604,-5.729l15.884,-6.508c0.262,0 0.783,-0.262 1.041,-0.262c2.084,-0 3.388,3.125 3.388,4.687l-0,32.554c-0,1.563 1.562,2.863 3.383,2.863c2.867,-0 4.429,-1.3 4.429,-2.863l0,-36.979c0,-2.083 1.042,-5.208 2.863,-5.992c1.825,-0.779 7.291,-2.862 7.291,-2.862c1.825,-0.784 3.125,-2.867 3.125,-4.429l0,-18.488c0,-1.304 -0.779,-2.083 -1.82,-2.083c-0.521,-0 -0.784,-0 -1.305,0.258l-6.77,2.604c-1.563,0 -3.384,-1.562 -3.384,-4.687l0,-24.217c0,-1.825 1.3,-6.771 3.384,-7.554l6.77,-2.604" style="fill-rule:nonzero;"/></g><g><path d="M1008.85,744.329c23.179,0 51.563,-21.354 51.563,-43.491c-0,-13.28 -10.417,-21.613 -25.259,-21.613c-28.646,0 -51.562,21.092 -51.562,43.488c-0,13.541 11.196,21.616 25.258,21.616" style="fill-rule:nonzero;"/></g><g><path d="M1231.69,647.454c23.179,0 51.562,-21.354 51.562,-43.491c0,-13.28 -10.417,-21.613 -25.258,-21.613c-28.646,0 -51.563,21.092 -51.563,43.488c0,13.541 11.196,21.616 25.259,21.616" style="fill-rule:nonzero;"/></g><g><path d="M1454.53,615.163c23.175,-0 51.563,-21.355 51.563,-43.492c-0,-13.279 -10.417,-21.613 -25.263,-21.613c-28.646,0 -51.562,21.092 -51.562,43.488c-0,13.542 11.2,21.617 25.262,21.617" style="fill-rule:nonzero;"/></g><g><path d="M1677.37,550.579c23.175,0 51.562,-21.354 51.562,-43.491c0,-13.28 -10.416,-21.613 -25.262,-21.613c-28.646,0 -51.563,21.092 -51.563,43.488c0,13.541 11.2,21.616 25.263,21.616" style="fill-rule:nonzero;"/></g><g><path d="M1837.76,497.454c-1.562,5.209 -13.804,10.417 -19.791,10.417c-1.563,-0 -2.867,-0.521 -3.125,-1.304c-0.521,-1.042 -0.784,-6.771 -0.784,-13.021c0,-8.071 0.263,-17.188 0.784,-19.271c0.521,-4.425 12.5,-9.896 19.008,-9.896c1.825,0 3.388,0.521 3.908,1.563c0.521,1.304 1.042,7.812 1.042,14.846c0,7.029 -0.521,14.32 -1.042,16.666m17.967,-42.45c1.825,-0.779 3.125,-2.862 3.125,-4.425l0,-18.491c0,-1.3 -0.779,-2.084 -1.821,-2.084c-0.521,0 -0.783,0 -1.304,0.263c0,-0 -5.208,2.083 -6.508,2.341c-1.825,0 -3.646,-1.3 -3.646,-3.383l-0,-31.771c-0,-1.562 -1.563,-2.866 -3.646,-2.866c-2.604,-0 -4.167,1.304 -4.167,2.866l0,33.854c-0.262,2.605 -1.041,5.988 -3.387,7.55c-3.125,1.825 -11.979,5.471 -16.404,6.513c-2.346,-0 -3.125,-3.125 -3.125,-5.208l-0,-31.25c-0,-1.563 -1.825,-2.867 -3.646,-2.867c-2.604,-0 -4.167,1.304 -4.167,2.867l0,35.154c0,3.646 -1.562,6.25 -3.125,7.033c-1.562,0.779 -6.771,2.863 -6.771,2.863c-1.825,0.52 -3.125,2.604 -3.125,4.166l0,18.492c0,1.562 0.78,2.342 2.084,2.342c1.041,-0 5.987,-2.342 6.771,-2.863c0.258,0 0.52,-0.262 0.779,-0.262c1.825,-0 3.387,2.604 3.387,4.687l0,25.783c0,2.863 -1.304,5.209 -2.866,5.988c-1.563,0.521 -7.03,2.867 -7.03,2.867c-1.825,0.52 -3.125,2.604 -3.125,4.166l0,18.488c0,1.562 0.78,2.346 2.084,2.346c0.258,-0 0.779,-0.263 1.041,-0.263c0,0 3.646,-1.562 5.988,-2.342c0.262,-0.262 0.521,-0.262 0.783,-0.262c1.821,-0 3.125,2.867 3.125,4.167l0,32.033c0,1.562 1.563,2.862 3.384,2.862c2.604,0 4.429,-1.3 4.429,-2.862l-0,-36.2c-0,-3.383 1.3,-5.208 2.604,-5.729l15.883,-6.509c0.263,0 0.784,-0.262 1.042,-0.262c2.083,-0 3.387,3.125 3.387,4.687l0,32.555c0,1.562 1.563,2.862 3.384,2.862c2.866,0 4.429,-1.3 4.429,-2.862l-0,-36.98c-0,-2.083 1.042,-5.208 2.862,-5.991c1.825,-0.779 7.292,-2.863 7.292,-2.863c1.825,-0.783 3.125,-2.866 3.125,-4.429l0,-18.487c0,-1.305 -0.779,-2.084 -1.821,-2.084c-0.521,0 -0.783,0 -1.304,0.259l-6.771,2.604c-1.562,-0 -3.383,-1.563 -3.383,-4.688l-0,-24.216c-0,-1.825 1.3,-6.771 3.383,-7.555l6.771,-2.604" style="fill-rule:nonzero;"/></g><g><path d="M1900.2,518.288c23.179,-0 51.563,-21.355 51.563,-43.492c-0,-13.279 -10.417,-21.613 -25.259,-21.613c-28.645,0 -51.562,21.092 -51.562,43.488c-0,13.542 11.196,21.617 25.258,21.617" style="fill-rule:nonzero;"/></g><g><path d="M2122.85,421.413c23.179,-0 51.562,-21.355 51.562,-43.492c0,-13.279 -10.416,-21.613 -25.258,-21.613c-28.646,0 -51.562,21.092 -51.562,43.488c-0,13.542 11.195,21.617 25.258,21.617" style="fill-rule:nonzero;"/></g><g><path d="M2453.02,389.121c23.175,-0 51.562,-21.354 51.562,-43.492c0,-13.279 -10.416,-21.612 -25.262,-21.612c-28.646,-0 -51.563,21.091 -51.563,43.487c0,13.542 11.2,21.617 25.263,21.617" style="fill-rule:nonzero;"/></g><g><path d="M2675.87,324.538c23.179,-0 51.562,-21.355 51.562,-43.492c0,-13.279 -10.416,-21.613 -25.258,-21.613c-28.646,0 -51.563,21.092 -51.563,43.488c0,13.542 11.196,21.617 25.259,21.617" style="fill-rule:nonzero;"/></g><g><path d="M2836.12,271.413c-1.563,5.208 -13.804,10.416 -19.792,10.416c-1.562,0 -2.867,-0.521 -3.125,-1.304c-0.521,-1.042 -0.783,-6.771 -0.783,-13.021c-0,-8.071 0.262,-17.187 0.783,-19.271c0.521,-4.425 12.5,-9.895 19.008,-9.895c1.825,-0 3.388,0.52 3.909,1.562c0.521,1.304 1.041,7.813 1.041,14.846c0,7.029 -0.52,14.321 -1.041,16.667m17.966,-42.45c1.825,-0.78 3.125,-2.863 3.125,-4.425l0,-18.492c0,-1.3 -0.779,-2.083 -1.82,-2.083c-0.521,-0 -0.784,-0 -1.305,0.262c0,0 -5.208,2.083 -6.508,2.342c-1.825,-0 -3.646,-1.3 -3.646,-3.384l0,-31.771c0,-1.562 -1.562,-2.866 -3.646,-2.866c-2.604,-0 -4.166,1.304 -4.166,2.867l-0,33.854c-0.263,2.604 -1.042,5.987 -3.388,7.55c-3.125,1.825 -11.979,5.471 -16.404,6.512c-2.346,0 -3.125,-3.125 -3.125,-5.208l0,-31.25c0,-1.563 -1.825,-2.867 -3.646,-2.867c-2.604,0 -4.166,1.304 -4.166,2.867l-0,35.154c-0,3.646 -1.563,6.25 -3.125,7.033c-1.563,0.78 -6.771,2.863 -6.771,2.863c-1.825,0.521 -3.125,2.604 -3.125,4.167l-0,18.491c-0,1.563 0.779,2.342 2.083,2.342c1.042,-0 5.988,-2.342 6.771,-2.863c0.258,0 0.521,-0.262 0.779,-0.262c1.825,-0 3.388,2.604 3.388,4.687l-0,25.784c-0,2.862 -1.305,5.208 -2.867,5.987c-1.563,0.521 -7.029,2.867 -7.029,2.867c-1.825,0.521 -3.125,2.604 -3.125,4.166l-0,18.488c-0,1.562 0.779,2.346 2.083,2.346c0.258,-0 0.779,-0.263 1.042,-0.263c-0,0 3.646,-1.562 5.987,-2.341c0.263,-0.263 0.521,-0.263 0.784,-0.263c1.82,0 3.125,2.867 3.125,4.167l-0,32.033c-0,1.563 1.562,2.863 3.383,2.863c2.604,-0 4.429,-1.3 4.429,-2.863l0,-36.2c0,-3.383 1.3,-5.208 2.604,-5.729l15.884,-6.508c0.262,-0 0.783,-0.263 1.041,-0.263c2.084,0 3.388,3.125 3.388,4.688l-0,32.554c-0,1.562 1.562,2.862 3.383,2.862c2.867,0 4.429,-1.3 4.429,-2.862l0,-36.979c0,-2.084 1.042,-5.209 2.863,-5.992c1.825,-0.779 7.291,-2.863 7.291,-2.863c1.825,-0.783 3.125,-2.866 3.125,-4.429l0,-18.487c0,-1.304 -0.779,-2.084 -1.82,-2.084c-0.521,0 -0.784,0 -1.305,0.259l-6.77,2.604c-1.563,-0 -3.384,-1.563 -3.384,-4.688l0,-24.216c0,-1.825 1.3,-6.771 3.384,-7.554l6.77,-2.605" style="fill-rule:nonzero;"/></g><g><path d="M2898.58,292.246c23.179,-0 51.563,-21.354 51.563,-43.492c-0,-13.279 -10.417,-21.612 -25.259,-21.612c-28.646,-0 -51.562,21.091 -51.562,43.487c-0,13.542 11.196,21.617 25.258,21.617" style="fill-rule:nonzero;"/></g><g><path d="M3121.41,195.371c23.179,-0 51.562,-21.354 51.562,-43.492c0,-13.279 -10.417,-21.612 -25.258,-21.612c-28.646,-0 -51.563,21.091 -51.563,43.487c0,13.542 11.196,21.617 25.259,21.617" style="fill-rule:nonzero;"/></g><g><path d="M3344.26,163.079c23.175,0 51.563,-21.354 51.563,-43.491c-0,-13.28 -10.417,-21.613 -25.263,-21.613c-28.646,0 -51.562,21.092 -51.562,43.488c-0,13.541 11.2,21.616 25.262,21.616" style="fill-rule:nonzero;"/></g><g><path d="M3567.09,195.371c23.175,-0 51.562,-21.354 51.562,-43.492c0,-13.279 -10.416,-21.612 -25.262,-21.612c-28.646,-0 -51.563,21.091 -51.563,43.487c0,13.542 11.2,21.617 25.263,21.617" style="fill-rule:nonzero;"/></g><g><path d="M3789.94,292.246c23.175,-0 51.562,-21.354 51.562,-43.492c0,-13.279 -10.416,-21.612 -25.262,-21.612c-28.646,-0 -51.563,21.091 -51.563,43.487c0,13.542 11.2,21.617 25.263,21.617" style="fill-rule:nonzero;"/></g><g><path d="M4012.57,324.538c23.179,-0 51.562,-21.355 51.562,-43.492c0,-13.279 -10.416,-21.613 -25.258,-21.613c-28.646,0 -51.563,21.092 -51.563,43.488c0,13.542 11.196,21.617 25.259,21.617" style="fill-rule:nonzero;"/></g><g><path d="M4342.78,389.121c23.175,-0 51.563,-21.354 51.563,-43.492c-0,-13.279 -10.417,-21.612 -25.263,-21.612c-28.646,-0 -51.562,21.091 -51.562,43.487c-0,13.542 11.2,21.617 25.262,21.617" style="fill-rule:nonzero;"/></g><g><path d="M4565.61,421.413c23.18,-0 51.563,-21.355 51.563,-43.492c-0,-13.279 -10.417,-21.613 -25.258,-21.613c-28.646,0 -51.563,21.092 -51.563,43.488c0,13.542 11.196,21.617 25.258,21.617" style="fill-rule:nonzero;"/></g><g><path d="M4725.98,497.454c-1.562,5.209 -13.804,10.417 -19.791,10.417c-1.563,-0 -2.867,-0.521 -3.125,-1.304c-0.521,-1.042 -0.784,-6.771 -0.784,-13.021c0,-8.071 0.263,-17.188 0.784,-19.271c0.521,-4.425 12.5,-9.896 19.008,-9.896c1.825,0 3.388,0.521 3.908,1.563c0.521,1.304 1.042,7.812 1.042,14.846c0,7.029 -0.521,14.32 -1.042,16.666m17.967,-42.45c1.825,-0.779 3.125,-2.862 3.125,-4.425l0,-18.491c0,-1.3 -0.779,-2.084 -1.821,-2.084c-0.521,0 -0.783,0 -1.304,0.263c0,-0 -5.208,2.083 -6.508,2.341c-1.825,0 -3.646,-1.3 -3.646,-3.383l-0,-31.771c-0,-1.562 -1.563,-2.866 -3.646,-2.866c-2.604,-0 -4.167,1.304 -4.167,2.866l0,33.854c-0.262,2.605 -1.041,5.988 -3.387,7.55c-3.125,1.825 -11.979,5.471 -16.404,6.513c-2.346,-0 -3.125,-3.125 -3.125,-5.208l-0,-31.25c-0,-1.563 -1.825,-2.867 -3.646,-2.867c-2.604,-0 -4.167,1.304 -4.167,2.867l0,35.154c0,3.646 -1.562,6.25 -3.125,7.033c-1.562,0.779 -6.771,2.863 -6.771,2.863c-1.825,0.52 -3.125,2.604 -3.125,4.166l0,18.492c0,1.562 0.78,2.342 2.084,2.342c1.041,-0 5.987,-2.342 6.771,-2.863c0.258,0 0.52,-0.262 0.779,-0.262c1.825,-0 3.387,2.604 3.387,4.687l0,25.783c0,2.863 -1.304,5.209 -2.866,5.988c-1.563,0.521 -7.03,2.867 -7.03,2.867c-1.825,0.52 -3.125,2.604 -3.125,4.166l0,18.488c0,1.562 0.78,2.346 2.084,2.346c0.258,-0 0.779,-0.263 1.041,-0.263c0,0 3.646,-1.562 5.988,-2.342c0.262,-0.262 0.521,-0.262 0.783,-0.262c1.821,-0 3.125,2.867 3.125,4.167l0,32.033c0,1.562 1.563,2.862 3.384,2.862c2.604,0 4.429,-1.3 4.429,-2.862l-0,-36.2c-0,-3.383 1.3,-5.208 2.604,-5.729l15.883,-6.509c0.263,0 0.784,-0.262 1.042,-0.262c2.083,-0 3.387,3.125 3.387,4.687l0,32.555c0,1.562 1.563,2.862 3.384,2.862c2.866,0 4.429,-1.3 4.429,-2.862l-0,-36.98c-0,-2.083 1.042,-5.208 2.862,-5.991c1.825,-0.779 7.292,-2.863 7.292,-2.863c1.825,-0.783 3.125,-2.866 3.125,-4.429l0,-18.487c0,-1.305 -0.779,-2.084 -1.821,-2.084c-0.521,0 -0.783,0 -1.304,0.259l-6.771,2.604c-1.562,-0 -3.383,-1.563 -3.383,-4.688l-0,-24.216c-0,-1.825 1.3,-6.771 3.383,-7.555l6.771,-2.604" style="fill-rule:nonzero;"/></g><g><path d="M4788.44,518.288c23.179,-0 51.562,-21.355 51.562,-43.492c0,-13.279 -10.416,-21.613 -25.258,-21.613c-28.646,0 -51.563,21.092 -51.563,43.488c0,13.542 11.196,21.617 25.259,21.617" style="fill-rule:nonzero;"/></g><g><path d="M5011.28,550.579c23.175,0 51.558,-21.354 51.558,-43.491c0,-13.28 -10.416,-21.613 -25.258,-21.613c-28.646,0 -51.562,21.092 -51.562,43.488c-0,13.541 11.2,21.616 25.262,21.616" style="fill-rule:nonzero;"/></g><g><path d="M5234.11,615.163c23.175,-0 51.563,-21.355 51.563,-43.492c-0,-13.279 -10.417,-21.613 -25.263,-21.613c-28.645,0 -51.562,21.092 -51.562,43.488c-0,13.542 11.2,21.617 25.262,21.617" style="fill-rule:nonzero;"/></g><g><path d="M5456.94,647.454c23.175,0 51.562,-21.354 51.562,-43.491c0,-13.28 -10.416,-21.613 -25.262,-21.613c-28.646,0 -51.563,21.092 -51.563,43.488c0,13.541 11.2,21.616 25.263,21.616" style="fill-rule:nonzero;"/></g><g><path d="M5617.32,723.496c-1.563,5.208 -13.804,10.417 -19.792,10.417c-1.562,-0 -2.867,-0.521 -3.125,-1.305c-0.521,-1.041 -0.783,-6.77 -0.783,-13.02c-0,-8.071 0.262,-17.188 0.783,-19.271c0.521,-4.425 12.5,-9.896 19.008,-9.896c1.825,-0 3.388,0.521 3.909,1.562c0.521,1.304 1.041,7.813 1.041,14.846c0,7.029 -0.52,14.321 -1.041,16.667m17.966,-42.45c1.825,-0.779 3.125,-2.863 3.125,-4.425l0,-18.492c0,-1.3 -0.779,-2.083 -1.82,-2.083c-0.521,-0 -0.784,-0 -1.305,0.262c0,0 -5.208,2.084 -6.508,2.342c-1.825,0 -3.646,-1.3 -3.646,-3.383l0,-31.771c0,-1.563 -1.562,-2.867 -3.646,-2.867c-2.604,0 -4.166,1.304 -4.166,2.867l-0,33.854c-0.263,2.604 -1.042,5.987 -3.388,7.55c-3.125,1.825 -11.979,5.471 -16.404,6.512c-2.346,0 -3.125,-3.125 -3.125,-5.208l0,-31.25c0,-1.562 -1.825,-2.867 -3.646,-2.867c-2.604,0 -4.166,1.305 -4.166,2.867l-0,35.154c-0,3.646 -1.563,6.25 -3.125,7.034c-1.563,0.779 -6.771,2.862 -6.771,2.862c-1.825,0.521 -3.125,2.604 -3.125,4.167l-0,18.491c-0,1.563 0.779,2.342 2.083,2.342c1.042,0 5.988,-2.342 6.771,-2.862c0.258,-0 0.521,-0.263 0.779,-0.263c1.825,0 3.388,2.604 3.388,4.688l-0,25.783c-0,2.862 -1.305,5.208 -2.867,5.987c-1.563,0.521 -7.029,2.867 -7.029,2.867c-1.825,0.521 -3.125,2.604 -3.125,4.167l-0,18.487c-0,1.563 0.779,2.346 2.083,2.346c0.258,0 0.779,-0.262 1.042,-0.262c-0,-0 3.646,-1.563 5.987,-2.342c0.263,-0.263 0.521,-0.263 0.784,-0.263c1.82,0 3.125,2.867 3.125,4.167l-0,32.033c-0,1.563 1.562,2.863 3.383,2.863c2.604,-0 4.429,-1.3 4.429,-2.863l0,-36.2c0,-3.383 1.3,-5.208 2.604,-5.729l15.884,-6.508c0.262,0 0.783,-0.262 1.041,-0.262c2.084,-0 3.388,3.125 3.388,4.687l-0,32.554c-0,1.563 1.562,2.863 3.383,2.863c2.867,-0 4.429,-1.3 4.429,-2.863l0,-36.979c0,-2.083 1.042,-5.208 2.863,-5.992c1.825,-0.779 7.291,-2.862 7.291,-2.862c1.825,-0.784 3.125,-2.867 3.125,-4.429l0,-18.488c0,-1.304 -0.779,-2.083 -1.82,-2.083c-0.521,-0 -0.784,-0 -1.305,0.258l-6.77,2.604c-1.563,0 -3.384,-1.562 -3.384,-4.687l0,-24.217c0,-1.825 1.3,-6.771 3.384,-7.554l6.77,-2.604" style="fill-rule:nonzero;"/></g><g><path d="M5679.78,744.329c23.179,0 51.563,-21.354 51.563,-43.491c-0,-13.28 -10.417,-21.613 -25.259,-21.613c-28.646,0 -51.562,21.092 -51.562,43.488c-0,13.541 11.196,21.616 25.258,21.616" style="fill-rule:nonzero;"/></g><g><path d="M5902.65,776.621c23.179,-0 51.563,-21.354 51.563,-43.492c-0,-13.279 -10.417,-21.612 -25.259,-21.612c-28.646,-0 -51.562,21.091 -51.562,43.487c-0,13.542 11.196,21.617 25.258,21.617" style="fill-rule:nonzero;"/></g><g><path d="M6236.44,792.246c2.862,-9.117 12.5,-10.417 20.571,-10.417c17.97,0 32.291,19.271 32.291,34.896c0,8.071 -3.383,15.363 -11.979,17.446c-2.604,0.783 -5.467,1.042 -8.071,1.042c-9.375,-0 -19.012,-6.25 -24.479,-13.542c-5.208,-5.988 -9.117,-14.842 -9.117,-23.175c0,-2.083 0.263,-4.167 0.784,-6.25m27.341,-16.146c-34.633,0 -56.25,14.321 -56.25,32.029c0,17.45 14.846,33.075 53.646,33.075c42.709,0 56.25,-14.846 56.25,-33.075c0,-18.487 -29.425,-32.029 -53.646,-32.029" style="fill-rule:nonzero;"/></g><g><path d="M135.664,514.379c0.779,4.95 0.779,4.688 -3.909,6.25c-22.916,7.813 -37.758,28.388 -37.758,50.521c-0,23.438 12.237,40.104 29.946,46.096c2.083,0.779 5.208,1.562 7.033,1.562c2.083,0 3.125,-1.304 3.125,-2.866c0,-1.821 -2.083,-2.604 -3.908,-3.384c-10.938,-4.687 -18.75,-15.887 -18.75,-27.866c-0,-14.842 10.158,-26.042 26.041,-30.467c4.167,-1.042 4.688,-0.783 5.209,2.083l13.021,77.605c0.52,2.862 0.262,2.862 -3.646,3.645c-4.167,0.78 -9.375,1.3 -14.584,1.3c-45.57,0 -75,-25.258 -75,-61.458c0,-15.362 2.605,-35.937 24.221,-60.417c15.625,-17.445 27.604,-27.083 39.842,-36.979c2.604,-2.083 3.125,-1.821 3.646,1.042l5.471,33.333m28.383,-177.341c8.596,-0 15.625,7.029 15.625,21.354c-0,28.904 -24.738,52.341 -45.313,70.312c-1.82,1.563 -2.862,1.3 -3.383,-2.083c-1.042,-6.771 -1.562,-15.625 -1.562,-23.958c-0,-40.625 18.75,-65.625 34.633,-65.625m-10.417,218.75c-0.521,-3.125 -0.258,-3.909 2.867,-3.646c21.092,1.821 38.542,19.529 38.542,42.446c-0,16.408 -9.896,29.687 -24.48,36.979c-3.125,1.562 -3.645,1.562 -4.166,-1.563l-12.763,-74.216m-14.062,-81.25c-0.521,-3.125 -0,-3.388 1.562,-4.95c28.125,-26.3 49.479,-59.375 49.479,-99.217c0,-22.658 -6.25,-45.054 -16.925,-60.679c-3.908,-5.729 -10.679,-13.021 -13.541,-13.021c-3.646,-0 -11.721,6.771 -16.929,12.5c-19.271,21.354 -25.521,53.908 -25.521,80.992c-0,15.104 1.825,32.029 3.646,42.708c0.52,3.125 0.783,3.646 -2.342,6.25c-37.5,30.987 -77.346,68.229 -77.346,120.833c0,45.313 30.992,88.279 94.792,88.279c5.991,0 12.762,-0.52 17.971,-1.562c2.862,-0.521 3.383,-0.779 3.904,2.346c3.125,17.446 7.033,40.104 7.033,52.341c0,38.542 -26.042,43.23 -41.408,43.23c-14.063,-0 -20.834,-4.167 -20.834,-7.55c0,-1.825 2.346,-2.605 8.334,-4.43c8.075,-2.341 17.45,-9.375 17.45,-24.479c-0,-14.321 -9.117,-26.562 -25,-26.562c-17.45,-0 -27.867,13.804 -27.867,29.95c0,16.925 10.158,42.446 49.479,42.446c17.45,-0 51.304,-7.813 51.304,-52.084c0,-14.841 -4.687,-39.583 -7.554,-55.729c-0.521,-3.125 -0.258,-2.862 3.388,-4.425c26.3,-10.417 43.75,-32.554 43.75,-61.979c-0,-33.333 -24.479,-62.763 -62.763,-62.763c-6.771,0 -6.771,0 -7.55,-4.687l-6.512,-37.758" style="fill-rule:nonzero;"/></g><g><text x="275.709px" y="452.921px" style="font-family:'Bravura';font-size:260.417px;"></text></g><g><text x="275.709px" y="583.333px" style="font-family:'Bravura';font-size:260.417px;"></text></g><g><path d="M607.147,534.171l-0,-32.525l676.042,-80.729l-0,32.525l-676.042,80.729" style="fill-rule:nonzero;"/></g><g><path d="M1429.28,776.7l0,-32.633l676.042,-96.875l0,32.633l-676.042,96.875" style="fill-rule:nonzero;"/></g><g><path d="M2427.72,615.242l-0,-32.634l676.175,-96.875l-0,32.634l-676.175,96.875" style="fill-rule:nonzero;"/></g><g><path d="M3319,518.067l-0,-32.334l676.037,32.292l0,32.333l-676.037,-32.291" style="fill-rule:nonzero;"/></g><g><path d="M4317.44,647.429l-0,-32.529l676.304,80.729l-0,32.529l-676.304,-80.729" style="fill-rule:nonzero;"/></g><g><path d="M5277.86,388.858l0,-32.629l676.3,96.875l0,32.629l-676.3,-96.875" style="fill-rule:nonzero;"/></g></g></svg>