<?xml version="1.0" encoding="UTF-8" standalone="no"?><!DOCTYPE svg PUBLIC "-//W3C//DTD SVG 1.1//EN" "http://www.w3.org/Graphics/SVG/1.1/DTD/svg11.dtd"><svg width="100%" height="100%" viewBox="0 0 1913 538" version="1.1" xmlns="http://www.w3.org/2000/svg" xmlns:xlink="http://www.w3.org/1999/xlink" xml:space="preserve" xmlns:serif="http://www.serif.com/" style="fill-rule:evenodd;clip-rule:evenodd;stroke-miterlimit:2;"><g><g><path d="M131.251,139.583l1650,0" style="fill:none;stroke:#000;stroke-width:2.01px;"/><path d="M131.251,155.083l1650,0" style="fill:none;stroke:#000;stroke-width:2.01px;"/><path d="M131.251,170.583l1650,0" style="fill:none;stroke:#000;stroke-width:2.01px;"/><path d="M131.251,186.083l1650,0" style="fill:none;stroke:#000;stroke-width:2.01px;"/><path d="M131.251,201.583l1650,0" style="fill:none;stroke:#000;stroke-width:2.01px;"/></g><g><path d="M1003.88,138.577l-0,64.013" style="fill:none;stroke:#000;stroke-width:2.48px;"/><path d="M1780,138.577l0,64.013" style="fill:none;stroke:#000;stroke-width:2.48px;"/></g><g><path d="M233.282,174.424l-0,63.306" style="fill:none;stroke:#000;stroke-width:1.86px;"/></g><g><path d="M209.594,232.583l30.844,0" style="fill:none;stroke:#000;stroke-width:2.48px;"/><path d="M209.594,217.083l30.844,0" style="fill:none;stroke:#000;stroke-width:2.48px;"/></g><g><path d="M314.157,166.674l-0,55.556" style="fill:none;stroke:#000;stroke-width:1.86px;"/></g><g><path d="M290.469,217.083l30.813,0" style="fill:none;stroke:#000;stroke-width:2.48px;"/></g><g><path d="M395,158.874l0,55.606" style="fill:none;stroke:#000;stroke-width:1.86px;"/></g><g><path d="M374.907,217.083l27.218,0" style="fill:none;stroke:#000;stroke-width:2.48px;"/></g><g><path d="M461.063,149.19l-0,57.54" style="fill:none;stroke:#000;stroke-width:1.86px;"/><path d="M527.157,139.499l-0,51.731" style="fill:none;stroke:#000;stroke-width:1.86px;"/><path d="M576.688,188.686l-0,43.916" style="fill:none;stroke:#000;stroke-width:1.86px;"/><path d="M633.844,180.936l-0,49.085" style="fill:none;stroke:#000;stroke-width:1.86px;"/><path d="M691,173.186l0,54.25" style="fill:none;stroke:#000;stroke-width:1.86px;"/><path d="M748.188,173.186l-0,51.666" style="fill:none;stroke:#000;stroke-width:1.86px;"/><path d="M805.313,165.436l-0,47.825" style="fill:none;stroke:#000;stroke-width:1.86px;"/><path d="M871.375,157.686l0,47.829" style="fill:none;stroke:#000;stroke-width:1.86px;"/><path d="M937.469,142.186l-0,55.575" style="fill:none;stroke:#000;stroke-width:1.86px;"/><path d="M1029.31,134.436l0,51.788" style="fill:none;stroke:#000;stroke-width:1.86px;"/><path d="M1110.19,118.937l0,51.787" style="fill:none;stroke:#000;stroke-width:1.86px;"/></g><g><path d="M1103.06,124.083l30.813,0" style="fill:none;stroke:#000;stroke-width:2.48px;"/></g><g><path d="M1191.03,111.187l0,59.399" style="fill:none;stroke:#000;stroke-width:1.86px;"/></g><g><path d="M1187.5,108.583l27.219,0" style="fill:none;stroke:#000;stroke-width:2.48px;"/><path d="M1187.75,124.083l26.969,0" style="fill:none;stroke:#000;stroke-width:2.48px;"/></g><g><path d="M1257.09,103.437l-0,65.212" style="fill:none;stroke:#000;stroke-width:1.86px;"/></g><g><path d="M1253.84,108.583l26.937,0" style="fill:none;stroke:#000;stroke-width:2.48px;"/><path d="M1249.97,124.083l30.812,0" style="fill:none;stroke:#000;stroke-width:2.48px;"/></g><g><path d="M1323.19,87.937l0,78.774" style="fill:none;stroke:#000;stroke-width:1.86px;"/></g><g><path d="M1316.06,93.083l30.813,0" style="fill:none;stroke:#000;stroke-width:2.48px;"/><path d="M1316.06,108.583l30.813,0" style="fill:none;stroke:#000;stroke-width:2.48px;"/><path d="M1316.06,124.083l30.813,0" style="fill:none;stroke:#000;stroke-width:2.48px;"/></g><g><path d="M1389.28,80.187l-0,86.528" style="fill:none;stroke:#000;stroke-width:1.86px;"/></g><g><path d="M1382.16,77.583l30.812,0" style="fill:none;stroke:#000;stroke-width:2.48px;"/><path d="M1382.16,93.083l30.812,0" style="fill:none;stroke:#000;stroke-width:2.48px;"/><path d="M1382.16,108.583l30.812,0" style="fill:none;stroke:#000;stroke-width:2.48px;"/><path d="M1382.16,124.083l30.812,0" style="fill:none;stroke:#000;stroke-width:2.48px;"/></g><g><path d="M1446.44,87.937l0,80.068" style="fill:none;stroke:#000;stroke-width:1.86px;"/></g><g><path d="M1439.31,93.083l30.844,0" style="fill:none;stroke:#000;stroke-width:2.48px;"/><path d="M1439.31,108.583l30.844,0" style="fill:none;stroke:#000;stroke-width:2.48px;"/><path d="M1439.31,124.083l30.844,0" style="fill:none;stroke:#000;stroke-width:2.48px;"/></g><g><path d="M1503.62,95.687l-0,73.609" style="fill:none;stroke:#000;stroke-width:1.86px;"/></g><g><path d="M1496.5,93.083l30.812,0" style="fill:none;stroke:#000;stroke-width:2.48px;"/><path d="M1496.5,108.583l30.812,0" style="fill:none;stroke:#000;stroke-width:2.48px;"/><path d="M1496.5,124.083l30.812,0" style="fill:none;stroke:#000;stroke-width:2.48px;"/></g><g><path d="M1560.81,103.437l0,67.153" style="fill:none;stroke:#000;stroke-width:1.86px;"/></g><g><path d="M1557.53,108.583l26.969,0" style="fill:none;stroke:#000;stroke-width:2.48px;"/><path d="M1553.66,124.083l30.844,0" style="fill:none;stroke:#000;stroke-width:2.48px;"/></g><g><path d="M1617.97,118.937l0,51.787" style="fill:none;stroke:#000;stroke-width:1.86px;"/></g><g><path d="M1610.84,124.083l30.844,0" style="fill:none;stroke:#000;stroke-width:2.48px;"/></g><g><path d="M1698.84,134.436l0,51.788" style="fill:none;stroke:#000;stroke-width:1.86px;"/></g><g><path d="M221.428,115.521c0,-0 -0.062,0.25 -0.062,0.437c-0,0.25 0.25,0.5 0.5,0.5c0.187,0 0.312,-0.187 0.374,-0.25c0.063,-0.187 0.813,-2.75 1.188,-3.375c0.125,-0.25 0.25,-0.312 0.312,-0.312c0.125,-0 0.188,0.25 0.188,0.437l-0,8.938c-0,0.75 -0.625,1.187 -1.25,1.187c-0.25,0 -0.562,0.125 -0.562,0.5c-0,0.375 0.312,0.5 0.812,0.5l5.25,0c0.5,0 0.5,-0.5 0.5,-0.5c-0,0 -0,-0.5 -0.5,-0.5c-0.438,0 -1,-0.562 -1,-1.125l-0,-13c-0,-0.5 -0.188,-0.75 -0.625,-0.75c-0.438,0 -0.813,0.125 -1.188,0.125c-0.625,0 -0.75,0 -1.25,-0.125c-0.25,0 -0.562,0.375 -0.75,0.625l-1.937,6.688" style="fill-rule:nonzero;"/></g><g><path d="M309.202,118.458l-0,-6.687c-0,-0.313 -0.063,-0.563 -0.375,-0.563c-0.25,0 -0.438,0.063 -0.625,0.313l-1.875,3.625c-0.125,0.125 -0.312,0.312 -0.312,0.75l-0,2.562l-4.063,0c2.563,-2.125 6.562,-9.187 6.625,-9.562c-0,-0.063 0.062,-0.125 0.062,-0.188c0,-0.25 -0.25,-0.437 -0.437,-0.437c-0.313,-0 -1.625,0.125 -2.187,0.125c-0.563,-0 -0.938,-0.125 -1.188,-0.125c-0.312,-0 -0.75,0.125 -0.75,0.625c0,4 -3.25,8.562 -4.062,9.687c-0.125,0.125 -0.25,0.313 -0.25,0.5c-0,0.313 0.25,0.625 0.625,0.625l5.625,0l-0,1.938c-0,0.875 -0.5,1.125 -1,1.125c-0.563,-0 -0.813,0.25 -0.813,0.562c0,0.313 0.125,0.688 0.688,0.688l5.374,-0c0.313,-0 0.625,-0.25 0.625,-0.688c0,-0.437 -0.375,-0.625 -0.687,-0.625c-0.313,0 -1,-0.187 -1,-1.187l-0,-1.813l2.312,0c0.313,0 0.5,-0.25 0.5,-0.625c0,-0.375 -0.125,-0.625 -0.5,-0.625l-2.312,0" style="fill-rule:nonzero;"/></g><g><path d="M383.128,115.521c0,-0 -0.062,0.25 -0.062,0.437c-0,0.25 0.25,0.5 0.5,0.5c0.187,0 0.312,-0.187 0.375,-0.25c0.062,-0.187 0.812,-2.75 1.187,-3.375c0.125,-0.25 0.25,-0.312 0.313,-0.312c0.125,-0 0.187,0.25 0.187,0.437l0,8.938c0,0.75 -0.625,1.187 -1.25,1.187c-0.25,0 -0.562,0.125 -0.562,0.5c-0,0.375 0.312,0.5 0.812,0.5l5.25,0c0.5,0 0.5,-0.5 0.5,-0.5c0,0 0,-0.5 -0.5,-0.5c-0.437,0 -1,-0.562 -1,-1.125l0,-13c0,-0.5 -0.187,-0.75 -0.625,-0.75c-0.437,0 -0.812,0.125 -1.187,0.125c-0.625,0 -0.75,0 -1.25,-0.125c-0.25,0 -0.563,0.375 -0.75,0.625l-1.938,6.688" style="fill-rule:nonzero;"/></g><g><path d="M458.969,119.083c-0,-0.437 -0.188,-0.5 -0.375,-0.5c-0.25,0 -0.375,0.188 -0.438,0.375c-0.312,0.875 -1,2 -1.937,2c-0.125,0 -0.25,0 -0.375,-0.062l-0.938,-0.313c-0.625,-0.25 -2.125,-0.75 -3.375,-0.75c-0.437,0 -0.812,0.063 -1.187,0.188c0.687,-1.188 3.937,-2.75 4.625,-2.938c2.25,-0.312 4.125,-1.625 4.125,-4.062c-0,-1.5 -0.625,-2.5 -1.438,-3.25c-1.625,-1.313 -4,-1.5 -4.687,-1.5c-2.25,-0 -4.063,0.125 -5.688,2c-0.437,0.5 -0.625,1 -0.625,1.5c0,0.437 0.188,0.937 0.375,1.5c0.375,0.75 1.188,1.312 2.063,1.312c1.562,0 1.75,-1.5 1.75,-2.187c-0,-1.438 -1.563,-1.563 -1.563,-2.188c0,-0.437 0.625,-1.187 2.5,-1.187c2.938,-0 3.938,2.437 3.938,3.187c-0,1.125 -0.375,2.188 -1,3.063c-1.125,1.437 -3.188,1.937 -4.75,2.937c-1.75,1.063 -2.938,2.875 -3.5,4.875c-0,0.438 0.187,0.938 0.562,1.125c0.063,0.063 0.188,0.063 0.25,0.063c0.688,-0 1.063,-1.938 2.938,-1.938c1.25,0 1.687,1.688 4.5,1.688c1.312,-0 3.75,-0.125 4.25,-4.938" style="fill-rule:nonzero;"/></g><g><path d="M522.2,118.458l-0,-6.687c-0,-0.313 -0.063,-0.563 -0.375,-0.563c-0.25,0 -0.438,0.063 -0.625,0.313l-1.875,3.625c-0.125,0.125 -0.313,0.312 -0.313,0.75l0,2.562l-4.062,0c2.562,-2.125 6.562,-9.187 6.625,-9.562c-0,-0.063 0.062,-0.125 0.062,-0.188c0,-0.25 -0.25,-0.437 -0.437,-0.437c-0.313,-0 -1.625,0.125 -2.188,0.125c-0.562,-0 -0.937,-0.125 -1.187,-0.125c-0.313,-0 -0.75,0.125 -0.75,0.625c-0,4 -3.25,8.562 -4.063,9.687c-0.125,0.125 -0.25,0.313 -0.25,0.5c0,0.313 0.25,0.625 0.625,0.625l5.625,0l0,1.938c0,0.875 -0.5,1.125 -1,1.125c-0.562,-0 -0.812,0.25 -0.812,0.562c-0,0.313 0.125,0.688 0.687,0.688l5.375,-0c0.313,-0 0.625,-0.25 0.625,-0.688c0,-0.437 -0.375,-0.625 -0.687,-0.625c-0.313,0 -1,-0.187 -1,-1.187l-0,-1.813l2.312,0c0.313,0 0.5,-0.25 0.5,-0.625c0,-0.375 -0.125,-0.625 -0.5,-0.625l-2.312,0" style="fill-rule:nonzero;"/></g><g><path d="M581.387,115.521c0,-0 -0.062,0.25 -0.062,0.437c-0,0.25 0.25,0.5 0.5,0.5c0.187,0 0.312,-0.187 0.375,-0.25c0.062,-0.187 0.812,-2.75 1.187,-3.375c0.125,-0.25 0.25,-0.312 0.313,-0.312c0.125,-0 0.187,0.25 0.187,0.437l0,8.938c0,0.75 -0.625,1.187 -1.25,1.187c-0.25,0 -0.562,0.125 -0.562,0.5c-0,0.375 0.312,0.5 0.812,0.5l5.25,0c0.5,0 0.5,-0.5 0.5,-0.5c0,0 0,-0.5 -0.5,-0.5c-0.437,0 -1,-0.562 -1,-1.125l0,-13c0,-0.5 -0.187,-0.75 -0.625,-0.75c-0.437,0 -0.812,0.125 -1.187,0.125c-0.625,0 -0.75,0 -1.25,-0.125c-0.25,0 -0.563,0.375 -0.75,0.625l-1.938,6.688" style="fill-rule:nonzero;"/></g><g><path d="M648.322,119.083c-0,-0.437 -0.188,-0.5 -0.375,-0.5c-0.25,0 -0.375,0.188 -0.438,0.375c-0.312,0.875 -1,2 -1.937,2c-0.125,0 -0.25,0 -0.375,-0.062l-0.938,-0.313c-0.625,-0.25 -2.125,-0.75 -3.375,-0.75c-0.437,0 -0.812,0.063 -1.187,0.188c0.687,-1.188 3.937,-2.75 4.625,-2.938c2.25,-0.312 4.125,-1.625 4.125,-4.062c-0,-1.5 -0.625,-2.5 -1.438,-3.25c-1.625,-1.313 -4,-1.5 -4.687,-1.5c-2.25,-0 -4.063,0.125 -5.688,2c-0.437,0.5 -0.625,1 -0.625,1.5c0,0.437 0.188,0.937 0.375,1.5c0.375,0.75 1.188,1.312 2.063,1.312c1.562,0 1.75,-1.5 1.75,-2.187c-0,-1.438 -1.563,-1.563 -1.563,-2.188c0,-0.437 0.625,-1.187 2.5,-1.187c2.938,-0 3.938,2.437 3.938,3.187c-0,1.125 -0.375,2.188 -1,3.063c-1.125,1.437 -3.188,1.937 -4.75,2.937c-1.75,1.063 -2.938,2.875 -3.5,4.875c-0,0.438 0.187,0.938 0.562,1.125c0.063,0.063 0.188,0.063 0.25,0.063c0.688,-0 1.063,-1.938 2.938,-1.938c1.25,0 1.687,1.688 4.5,1.688c1.312,-0 3.75,-0.125 4.25,-4.938" style="fill-rule:nonzero;"/></g><g><path d="M702.615,118.458l0,-6.687c0,-0.313 -0.062,-0.563 -0.375,-0.563c-0.25,0 -0.437,0.063 -0.625,0.313l-1.875,3.625c-0.125,0.125 -0.312,0.312 -0.312,0.75l-0,2.562l-4.063,0c2.563,-2.125 6.563,-9.187 6.625,-9.562c0,-0.063 0.063,-0.125 0.063,-0.188c-0,-0.25 -0.25,-0.437 -0.438,-0.437c-0.312,-0 -1.625,0.125 -2.187,0.125c-0.563,-0 -0.938,-0.125 -1.188,-0.125c-0.312,-0 -0.75,0.125 -0.75,0.625c0,4 -3.25,8.562 -4.062,9.687c-0.125,0.125 -0.25,0.313 -0.25,0.5c-0,0.313 0.25,0.625 0.625,0.625l5.625,0l-0,1.938c-0,0.875 -0.5,1.125 -1,1.125c-0.563,-0 -0.813,0.25 -0.813,0.562c0,0.313 0.125,0.688 0.688,0.688l5.375,-0c0.312,-0 0.625,-0.25 0.625,-0.688c-0,-0.437 -0.375,-0.625 -0.688,-0.625c-0.312,0 -1,-0.187 -1,-1.187l0,-1.813l2.313,0c0.312,0 0.5,-0.25 0.5,-0.625c-0,-0.375 -0.125,-0.625 -0.5,-0.625l-2.313,0" style="fill-rule:nonzero;"/></g><g><path d="M759.79,118.458l0,-6.687c0,-0.313 -0.062,-0.563 -0.375,-0.563c-0.25,0 -0.437,0.063 -0.625,0.313l-1.875,3.625c-0.125,0.125 -0.312,0.312 -0.312,0.75l-0,2.562l-4.063,0c2.563,-2.125 6.563,-9.187 6.625,-9.562c0,-0.063 0.063,-0.125 0.063,-0.188c-0,-0.25 -0.25,-0.437 -0.438,-0.437c-0.312,-0 -1.625,0.125 -2.187,0.125c-0.563,-0 -0.938,-0.125 -1.188,-0.125c-0.312,-0 -0.75,0.125 -0.75,0.625c0,4 -3.25,8.562 -4.062,9.687c-0.125,0.125 -0.25,0.313 -0.25,0.5c-0,0.313 0.25,0.625 0.625,0.625l5.625,0l-0,1.938c-0,0.875 -0.5,1.125 -1,1.125c-0.563,-0 -0.813,0.25 -0.813,0.562c0,0.313 0.125,0.688 0.688,0.688l5.375,-0c0.312,-0 0.625,-0.25 0.625,-0.688c-0,-0.437 -0.375,-0.625 -0.688,-0.625c-0.312,0 -1,-0.187 -1,-1.187l0,-1.813l2.313,0c0.312,0 0.5,-0.25 0.5,-0.625c-0,-0.375 -0.125,-0.625 -0.5,-0.625l-2.313,0" style="fill-rule:nonzero;"/></g><g><path d="M810.015,115.521c0,-0 -0.062,0.25 -0.062,0.437c-0,0.25 0.25,0.5 0.5,0.5c0.187,0 0.312,-0.187 0.375,-0.25c0.062,-0.187 0.812,-2.75 1.187,-3.375c0.125,-0.25 0.25,-0.312 0.313,-0.312c0.125,-0 0.187,0.25 0.187,0.437l0,8.938c0,0.75 -0.625,1.187 -1.25,1.187c-0.25,0 -0.562,0.125 -0.562,0.5c-0,0.375 0.312,0.5 0.812,0.5l5.25,0c0.5,0 0.5,-0.5 0.5,-0.5c0,0 0,-0.5 -0.5,-0.5c-0.437,0 -1,-0.562 -1,-1.125l0,-13c0,-0.5 -0.187,-0.75 -0.625,-0.75c-0.437,0 -0.812,0.125 -1.187,0.125c-0.625,0 -0.75,0 -1.25,-0.125c-0.25,0 -0.563,0.375 -0.75,0.625l-1.938,6.688" style="fill-rule:nonzero;"/></g><g><path d="M885.843,119.083c0,-0.437 -0.187,-0.5 -0.375,-0.5c-0.25,0 -0.375,0.188 -0.437,0.375c-0.313,0.875 -1,2 -1.938,2c-0.125,0 -0.25,0 -0.375,-0.062l-0.937,-0.313c-0.625,-0.25 -2.125,-0.75 -3.375,-0.75c-0.438,0 -0.813,0.063 -1.188,0.188c0.688,-1.188 3.938,-2.75 4.625,-2.938c2.25,-0.312 4.125,-1.625 4.125,-4.062c0,-1.5 -0.625,-2.5 -1.437,-3.25c-1.625,-1.313 -4,-1.5 -4.688,-1.5c-2.25,-0 -4.062,0.125 -5.687,2c-0.438,0.5 -0.625,1 -0.625,1.5c-0,0.437 0.187,0.937 0.375,1.5c0.375,0.75 1.187,1.312 2.062,1.312c1.563,0 1.75,-1.5 1.75,-2.187c0,-1.438 -1.562,-1.563 -1.562,-2.188c-0,-0.437 0.625,-1.187 2.5,-1.187c2.937,-0 3.937,2.437 3.937,3.187c0,1.125 -0.375,2.188 -1,3.063c-1.125,1.437 -3.187,1.937 -4.75,2.937c-1.75,1.063 -2.937,2.875 -3.5,4.875c0,0.438 0.188,0.938 0.563,1.125c0.062,0.063 0.187,0.063 0.25,0.063c0.687,-0 1.062,-1.938 2.937,-1.938c1.25,0 1.688,1.688 4.5,1.688c1.313,-0 3.75,-0.125 4.25,-4.938" style="fill-rule:nonzero;"/></g><g><path d="M949.072,118.445l-0,-6.688c-0,-0.312 -0.063,-0.562 -0.375,-0.562c-0.25,-0 -0.438,0.062 -0.625,0.312l-1.875,3.625c-0.125,0.125 -0.313,0.313 -0.313,0.75l0,2.563l-4.062,-0c2.562,-2.125 6.562,-9.188 6.625,-9.563c-0,-0.062 0.062,-0.125 0.062,-0.187c0,-0.25 -0.25,-0.438 -0.437,-0.438c-0.313,0 -1.625,0.125 -2.188,0.125c-0.562,0 -0.937,-0.125 -1.187,-0.125c-0.313,0 -0.75,0.125 -0.75,0.625c-0,4 -3.25,8.563 -4.063,9.688c-0.125,0.125 -0.25,0.312 -0.25,0.5c0,0.312 0.25,0.625 0.625,0.625l5.625,-0l0,1.937c0,0.875 -0.5,1.125 -1,1.125c-0.562,0 -0.812,0.25 -0.812,0.563c-0,0.312 0.125,0.687 0.687,0.687l5.375,0c0.313,0 0.625,-0.25 0.625,-0.687c0,-0.438 -0.375,-0.625 -0.687,-0.625c-0.313,-0 -1,-0.188 -1,-1.188l-0,-1.812l2.312,-0c0.313,-0 0.5,-0.25 0.5,-0.625c0,-0.375 -0.125,-0.625 -0.5,-0.625l-2.312,-0" style="fill-rule:nonzero;"/></g><g><path d="M1034.02,107.708c0,0 -0.062,0.25 -0.062,0.438c-0,0.25 0.25,0.5 0.5,0.5c0.187,-0 0.312,-0.188 0.375,-0.25c0.062,-0.188 0.812,-2.75 1.187,-3.375c0.125,-0.25 0.25,-0.313 0.313,-0.313c0.125,0 0.187,0.25 0.187,0.438l0,8.937c0,0.75 -0.625,1.188 -1.25,1.188c-0.25,-0 -0.562,0.125 -0.562,0.5c-0,0.375 0.312,0.5 0.812,0.5l5.25,-0c0.5,-0 0.5,-0.5 0.5,-0.5c0,-0 0,-0.5 -0.5,-0.5c-0.437,-0 -1,-0.563 -1,-1.125l0,-13c0,-0.5 -0.187,-0.75 -0.625,-0.75c-0.437,-0 -0.812,0.125 -1.187,0.125c-0.625,-0 -0.75,-0 -1.25,-0.125c-0.25,-0 -0.563,0.375 -0.75,0.625l-1.938,6.687" style="fill-rule:nonzero;"/></g><g><path d="M1121.8,95.195l0,-6.688c0,-0.312 -0.062,-0.562 -0.375,-0.562c-0.25,-0 -0.437,0.062 -0.625,0.312l-1.875,3.625c-0.125,0.125 -0.312,0.313 -0.312,0.75l-0,2.563l-4.063,-0c2.563,-2.125 6.563,-9.188 6.625,-9.563c0,-0.062 0.063,-0.125 0.063,-0.187c-0,-0.25 -0.25,-0.438 -0.438,-0.438c-0.312,0 -1.625,0.125 -2.187,0.125c-0.563,0 -0.938,-0.125 -1.188,-0.125c-0.312,0 -0.75,0.125 -0.75,0.625c0,4 -3.25,8.563 -4.062,9.688c-0.125,0.125 -0.25,0.312 -0.25,0.5c-0,0.312 0.25,0.625 0.625,0.625l5.625,-0l-0,1.937c-0,0.875 -0.5,1.125 -1,1.125c-0.563,0 -0.813,0.25 -0.813,0.563c0,0.312 0.125,0.687 0.688,0.687l5.375,0c0.312,0 0.625,-0.25 0.625,-0.687c-0,-0.438 -0.375,-0.625 -0.688,-0.625c-0.312,-0 -1,-0.188 -1,-1.188l0,-1.812l2.313,-0c0.312,-0 0.5,-0.25 0.5,-0.625c-0,-0.375 -0.125,-0.625 -0.5,-0.625l-2.313,-0" style="fill-rule:nonzero;"/></g><g><path d="M1195.72,84.458c0,0 -0.062,0.25 -0.062,0.438c-0,0.25 0.25,0.5 0.5,0.5c0.187,-0 0.312,-0.188 0.375,-0.25c0.062,-0.188 0.812,-2.75 1.187,-3.375c0.125,-0.25 0.25,-0.313 0.313,-0.313c0.125,0 0.187,0.25 0.187,0.438l0,8.937c0,0.75 -0.625,1.188 -1.25,1.188c-0.25,-0 -0.562,0.125 -0.562,0.5c-0,0.375 0.312,0.5 0.812,0.5l5.25,-0c0.5,-0 0.5,-0.5 0.5,-0.5c0,-0 0,-0.5 -0.5,-0.5c-0.437,-0 -1,-0.563 -1,-1.125l0,-13c0,-0.5 -0.187,-0.75 -0.625,-0.75c-0.437,-0 -0.812,0.125 -1.187,0.125c-0.625,-0 -0.75,-0 -1.25,-0.125c-0.25,-0 -0.563,0.375 -0.75,0.625l-1.938,6.687" style="fill-rule:nonzero;"/></g><g><path d="M1271.56,80.076c-0,-0.438 -0.188,-0.5 -0.375,-0.5c-0.25,-0 -0.375,0.187 -0.438,0.375c-0.312,0.875 -1,2 -1.937,2c-0.125,-0 -0.25,-0 -0.375,-0.063l-0.938,-0.312c-0.625,-0.25 -2.125,-0.75 -3.375,-0.75c-0.437,-0 -0.812,0.062 -1.187,0.187c0.687,-1.187 3.937,-2.75 4.625,-2.937c2.25,-0.313 4.125,-1.625 4.125,-4.063c-0,-1.5 -0.625,-2.5 -1.438,-3.25c-1.625,-1.312 -4,-1.5 -4.687,-1.5c-2.25,0 -4.063,0.125 -5.688,2c-0.437,0.5 -0.625,1 -0.625,1.5c0,0.438 0.188,0.938 0.375,1.5c0.375,0.75 1.188,1.313 2.063,1.313c1.562,-0 1.75,-1.5 1.75,-2.188c-0,-1.437 -1.563,-1.562 -1.563,-2.187c0,-0.438 0.625,-1.188 2.5,-1.188c2.938,0 3.938,2.438 3.938,3.188c-0,1.125 -0.375,2.187 -1,3.062c-1.125,1.438 -3.188,1.938 -4.75,2.938c-1.75,1.062 -2.938,2.875 -3.5,4.875c-0,0.437 0.187,0.937 0.562,1.125c0.063,0.062 0.188,0.062 0.25,0.062c0.688,0 1.063,-1.937 2.938,-1.937c1.25,-0 1.687,1.687 4.5,1.687c1.312,0 3.75,-0.125 4.25,-4.937" style="fill-rule:nonzero;"/></g><g><path d="M1334.79,64.195l0,-6.688c0,-0.312 -0.062,-0.562 -0.375,-0.562c-0.25,-0 -0.437,0.062 -0.625,0.312l-1.875,3.625c-0.125,0.125 -0.312,0.313 -0.312,0.75l-0,2.563l-4.063,-0c2.563,-2.125 6.563,-9.188 6.625,-9.563c0,-0.062 0.063,-0.125 0.063,-0.187c-0,-0.25 -0.25,-0.438 -0.438,-0.438c-0.312,0 -1.625,0.125 -2.187,0.125c-0.563,0 -0.938,-0.125 -1.188,-0.125c-0.312,0 -0.75,0.125 -0.75,0.625c0,4 -3.25,8.563 -4.062,9.688c-0.125,0.125 -0.25,0.312 -0.25,0.5c-0,0.312 0.25,0.625 0.625,0.625l5.625,-0l-0,1.937c-0,0.875 -0.5,1.125 -1,1.125c-0.563,0 -0.813,0.25 -0.813,0.563c0,0.312 0.125,0.687 0.688,0.687l5.375,0c0.312,0 0.625,-0.25 0.625,-0.687c-0,-0.438 -0.375,-0.625 -0.688,-0.625c-0.312,-0 -1,-0.188 -1,-1.188l0,-1.812l2.313,-0c0.312,-0 0.5,-0.25 0.5,-0.625c-0,-0.375 -0.125,-0.625 -0.5,-0.625l-2.313,-0" style="fill-rule:nonzero;"/></g><g><path d="M1400.89,56.445l-0,-6.688c-0,-0.312 -0.063,-0.562 -0.375,-0.562c-0.25,-0 -0.438,0.062 -0.625,0.312l-1.875,3.625c-0.125,0.125 -0.313,0.313 -0.313,0.75l0,2.563l-4.062,-0c2.562,-2.125 6.562,-9.188 6.625,-9.563c-0,-0.062 0.062,-0.125 0.062,-0.187c0,-0.25 -0.25,-0.438 -0.437,-0.438c-0.313,0 -1.625,0.125 -2.188,0.125c-0.562,0 -0.937,-0.125 -1.187,-0.125c-0.313,0 -0.75,0.125 -0.75,0.625c-0,4 -3.25,8.563 -4.063,9.688c-0.125,0.125 -0.25,0.312 -0.25,0.5c0,0.312 0.25,0.625 0.625,0.625l5.625,-0l0,1.937c0,0.875 -0.5,1.125 -1,1.125c-0.562,0 -0.812,0.25 -0.812,0.563c-0,0.312 0.125,0.687 0.687,0.687l5.375,0c0.313,0 0.625,-0.25 0.625,-0.687c0,-0.438 -0.375,-0.625 -0.687,-0.625c-0.313,-0 -1,-0.188 -1,-1.188l-0,-1.812l2.312,-0c0.313,-0 0.5,-0.25 0.5,-0.625c0,-0.375 -0.125,-0.625 -0.5,-0.625l-2.312,-0" style="fill-rule:nonzero;"/></g><g><path d="M1458.06,64.195l-0,-6.688c-0,-0.312 -0.063,-0.562 -0.375,-0.562c-0.25,-0 -0.438,0.062 -0.625,0.312l-1.875,3.625c-0.125,0.125 -0.313,0.313 -0.313,0.75l0,2.563l-4.062,-0c2.562,-2.125 6.562,-9.188 6.625,-9.563c-0,-0.062 0.062,-0.125 0.062,-0.187c0,-0.25 -0.25,-0.438 -0.437,-0.438c-0.313,0 -1.625,0.125 -2.188,0.125c-0.562,0 -0.937,-0.125 -1.187,-0.125c-0.313,0 -0.75,0.125 -0.75,0.625c-0,4 -3.25,8.563 -4.063,9.688c-0.125,0.125 -0.25,0.312 -0.25,0.5c0,0.312 0.25,0.625 0.625,0.625l5.625,-0l0,1.937c0,0.875 -0.5,1.125 -1,1.125c-0.562,0 -0.812,0.25 -0.812,0.563c-0,0.312 0.125,0.687 0.687,0.687l5.375,0c0.313,0 0.625,-0.25 0.625,-0.687c0,-0.438 -0.375,-0.625 -0.687,-0.625c-0.313,-0 -1,-0.188 -1,-1.188l-0,-1.812l2.312,-0c0.313,-0 0.5,-0.25 0.5,-0.625c0,-0.375 -0.125,-0.625 -0.5,-0.625l-2.312,-0" style="fill-rule:nonzero;"/></g><g><path d="M1511.27,61.771c-3.438,-0 -4.938,2.312 -4.938,3.625c0,0.875 0.5,1.937 2.063,2c1.187,-0 1.75,-0.75 1.75,-1.563l-0,-0.25c-0.063,-0.937 -0.688,-1 -0.813,-1.062c-0.125,-0.063 -0.375,-0.313 -0.375,-0.75c0.125,-0.688 1.063,-0.938 1.313,-0.938c3.187,0 4.125,1.688 4.125,2.75c-0,2.938 -3,3.188 -3.938,3.25c-0.437,0 -0.875,0.188 -0.875,0.563c0,0.375 0.563,0.375 0.813,0.375c3.625,-0 4.125,1.875 4.125,2.812c-0,3.625 -2.938,3.75 -3.688,3.75c-0.375,0 -1,-0.187 -1.062,-0.5l-0,-0.375c-0,-0.687 0.187,-1.437 0.25,-2.062c-0,-1.125 -0.75,-1.813 -1.875,-1.813l-0.25,0c-0.438,0.125 -0.875,0.375 -1.188,0.688c-0.437,0.375 -0.562,0.937 -0.562,1.5c0.062,2 1.812,3.687 4.937,3.75l0.375,-0c3.063,-0 6.25,-1.625 6.25,-4.375c0,-0.625 -0.125,-1.125 -0.312,-1.5c-0.125,-0.375 -0.375,-0.688 -0.625,-0.938c-0.188,-0.25 -0.438,-0.437 -0.688,-0.625l-0.687,-0.375l-0.375,-0.125c-0.125,0 -0.188,-0.062 -0.313,-0.062l-0.375,-0.125c-0.187,-0.063 -0.25,-0 -0.312,-0.125c-0.063,-0.063 -0.063,-0.125 -0.063,-0.188c0,-0.125 0.063,-0.25 0.188,-0.25l1,-0.312c0.437,-0.25 0.875,-0.438 1.187,-0.875c0.5,-0.5 0.688,-1.313 0.688,-2c-0,-2.938 -3.875,-3.75 -5.25,-3.875l-0.5,-0" style="fill-rule:nonzero;"/></g><g><path d="M1565.5,76.708c0,0 -0.062,0.25 -0.062,0.438c-0,0.25 0.25,0.5 0.5,0.5c0.187,-0 0.312,-0.188 0.375,-0.25c0.062,-0.188 0.812,-2.75 1.187,-3.375c0.125,-0.25 0.25,-0.313 0.313,-0.313c0.125,0 0.187,0.25 0.187,0.438l0,8.937c0,0.75 -0.625,1.188 -1.25,1.188c-0.25,-0 -0.562,0.125 -0.562,0.5c-0,0.375 0.312,0.5 0.812,0.5l5.25,-0c0.5,-0 0.5,-0.5 0.5,-0.5c0,-0 0,-0.5 -0.5,-0.5c-0.437,-0 -1,-0.563 -1,-1.125l0,-13c0,-0.5 -0.187,-0.75 -0.625,-0.75c-0.437,-0 -0.812,0.125 -1.187,0.125c-0.625,-0 -0.75,-0 -1.25,-0.125c-0.25,-0 -0.563,0.375 -0.75,0.625l-1.938,6.687" style="fill-rule:nonzero;"/></g><g><path d="M1629.58,95.195l-0,-6.688c-0,-0.312 -0.063,-0.562 -0.375,-0.562c-0.25,-0 -0.438,0.062 -0.625,0.312l-1.875,3.625c-0.125,0.125 -0.313,0.313 -0.313,0.75l0,2.563l-4.062,-0c2.562,-2.125 6.562,-9.188 6.625,-9.563c-0,-0.062 0.062,-0.125 0.062,-0.187c0,-0.25 -0.25,-0.438 -0.437,-0.438c-0.313,0 -1.625,0.125 -2.188,0.125c-0.562,0 -0.937,-0.125 -1.187,-0.125c-0.313,0 -0.75,0.125 -0.75,0.625c-0,4 -3.25,8.563 -4.063,9.688c-0.125,0.125 -0.25,0.312 -0.25,0.5c0,0.312 0.25,0.625 0.625,0.625l5.625,-0l0,1.937c0,0.875 -0.5,1.125 -1,1.125c-0.562,0 -0.812,0.25 -0.812,0.563c-0,0.312 0.125,0.687 0.687,0.687l5.375,0c0.313,0 0.625,-0.25 0.625,-0.687c0,-0.438 -0.375,-0.625 -0.687,-0.625c-0.313,-0 -1,-0.188 -1,-1.188l-0,-1.812l2.312,-0c0.313,-0 0.5,-0.25 0.5,-0.625c0,-0.375 -0.125,-0.625 -0.5,-0.625l-2.312,-0" style="fill-rule:nonzero;"/></g><g><path d="M1703.54,107.708c-0,0 -0.063,0.25 -0.063,0.438c0,0.25 0.25,0.5 0.5,0.5c0.188,-0 0.313,-0.188 0.375,-0.25c0.063,-0.188 0.813,-2.75 1.188,-3.375c0.125,-0.25 0.25,-0.313 0.312,-0.313c0.125,0 0.188,0.25 0.188,0.438l-0,8.937c-0,0.75 -0.625,1.188 -1.25,1.188c-0.25,-0 -0.563,0.125 -0.563,0.5c0,0.375 0.313,0.5 0.813,0.5l5.25,-0c0.5,-0 0.5,-0.5 0.5,-0.5c-0,-0 -0,-0.5 -0.5,-0.5c-0.438,-0 -1,-0.563 -1,-1.125l-0,-13c-0,-0.5 -0.188,-0.75 -0.625,-0.75c-0.438,-0 -0.813,0.125 -1.188,0.125c-0.625,-0 -0.75,-0 -1.25,-0.125c-0.25,-0 -0.562,0.375 -0.75,0.625l-1.937,6.687" style="fill-rule:nonzero;"/></g><g><path d="M221.857,248.146c5.562,-0 12.375,-5.125 12.375,-10.438c-0,-3.187 -2.5,-5.187 -6.063,-5.187c-6.875,-0 -12.375,5.062 -12.375,10.437c0,3.25 2.688,5.188 6.063,5.188" style="fill-rule:nonzero;"/></g><g><path d="M302.721,232.646c5.563,-0 12.375,-5.125 12.375,-10.438c0,-3.187 -2.5,-5.187 -6.062,-5.187c-6.875,-0 -12.375,5.062 -12.375,10.437c-0,3.25 2.687,5.188 6.062,5.188" style="fill-rule:nonzero;"/></g><g><path d="M368.566,219.896c-0.375,1.25 -3.313,2.5 -4.75,2.5c-0.375,-0 -0.688,-0.125 -0.75,-0.313c-0.125,-0.25 -0.188,-1.625 -0.188,-3.125c0,-1.937 0.063,-4.125 0.188,-4.625c0.125,-1.062 3,-2.375 4.562,-2.375c0.438,0 0.813,0.125 0.938,0.375c0.125,0.313 0.25,1.875 0.25,3.563c-0,1.687 -0.125,3.437 -0.25,4m4.312,-10.188c0.438,-0.187 0.75,-0.687 0.75,-1.062l0,-4.438c0,-0.312 -0.187,-0.5 -0.437,-0.5c-0.125,0 -0.188,0 -0.313,0.063c0,-0 -1.25,0.5 -1.562,0.562c-0.438,0 -0.875,-0.312 -0.875,-0.812l-0,-7.625c-0,-0.375 -0.375,-0.688 -0.875,-0.688c-0.625,0 -1,0.313 -1,0.688l-0,8.125c-0.063,0.625 -0.25,1.437 -0.813,1.812c-0.75,0.438 -2.875,1.313 -3.937,1.563c-0.563,-0 -0.75,-0.75 -0.75,-1.25l-0,-7.5c-0,-0.375 -0.438,-0.688 -0.875,-0.688c-0.625,0 -1,0.313 -1,0.688l-0,8.437c-0,0.875 -0.375,1.5 -0.75,1.688c-0.375,0.187 -1.625,0.687 -1.625,0.687c-0.438,0.125 -0.75,0.625 -0.75,1l-0,4.438c-0,0.375 0.187,0.562 0.5,0.562c0.25,0 1.437,-0.562 1.625,-0.687c0.062,-0 0.125,-0.063 0.187,-0.063c0.438,0 0.813,0.625 0.813,1.125l-0,6.188c-0,0.687 -0.313,1.25 -0.688,1.437c-0.375,0.125 -1.687,0.688 -1.687,0.688c-0.438,0.125 -0.75,0.625 -0.75,1l-0,4.437c-0,0.375 0.187,0.563 0.5,0.563c0.062,-0 0.187,-0.063 0.25,-0.063c-0,0 0.875,-0.375 1.437,-0.562c0.063,-0.063 0.125,-0.063 0.188,-0.063c0.437,0 0.75,0.688 0.75,1l-0,7.688c-0,0.375 0.375,0.687 0.812,0.687c0.625,0 1.063,-0.312 1.063,-0.687l-0,-8.688c-0,-0.812 0.312,-1.25 0.625,-1.375l3.812,-1.562c0.063,-0 0.188,-0.063 0.25,-0.063c0.5,0 0.813,0.75 0.813,1.125l-0,7.813c-0,0.375 0.375,0.687 0.812,0.687c0.688,0 1.063,-0.312 1.063,-0.687l-0,-8.875c-0,-0.5 0.25,-1.25 0.687,-1.438c0.438,-0.187 1.75,-0.687 1.75,-0.687c0.438,-0.188 0.75,-0.688 0.75,-1.063l0,-4.437c0,-0.313 -0.187,-0.5 -0.437,-0.5c-0.125,-0 -0.188,-0 -0.313,0.062l-1.625,0.625c-0.375,0 -0.812,-0.375 -0.812,-1.125l-0,-5.812c-0,-0.438 0.312,-1.625 0.812,-1.813l1.625,-0.625" style="fill-rule:nonzero;"/></g><g><path d="M383.556,224.896c5.563,-0 12.375,-5.125 12.375,-10.438c0,-3.187 -2.5,-5.187 -6.062,-5.187c-6.875,-0 -12.375,5.062 -12.375,10.437c-0,3.25 2.687,5.188 6.062,5.188" style="fill-rule:nonzero;"/></g><g><path d="M434.631,212.146c-0.375,1.25 -3.312,2.5 -4.75,2.5c-0.375,-0 -0.687,-0.125 -0.75,-0.313c-0.125,-0.25 -0.187,-1.625 -0.187,-3.125c-0,-1.937 0.062,-4.125 0.187,-4.625c0.125,-1.062 3,-2.375 4.563,-2.375c0.437,0 0.812,0.125 0.937,0.375c0.125,0.313 0.25,1.875 0.25,3.563c0,1.687 -0.125,3.437 -0.25,4m4.313,-10.188c0.437,-0.187 0.75,-0.687 0.75,-1.062l-0,-4.438c-0,-0.312 -0.188,-0.5 -0.438,-0.5c-0.125,0 -0.187,0 -0.312,0.063c-0,-0 -1.25,0.5 -1.563,0.562c-0.437,0 -0.875,-0.312 -0.875,-0.812l0,-7.625c0,-0.375 -0.375,-0.688 -0.875,-0.688c-0.625,0 -1,0.313 -1,0.688l0,8.125c-0.062,0.625 -0.25,1.437 -0.812,1.812c-0.75,0.438 -2.875,1.313 -3.938,1.563c-0.562,-0 -0.75,-0.75 -0.75,-1.25l0,-7.5c0,-0.375 -0.437,-0.688 -0.875,-0.688c-0.625,0 -1,0.313 -1,0.688l0,8.437c0,0.875 -0.375,1.5 -0.75,1.688c-0.375,0.187 -1.625,0.687 -1.625,0.687c-0.437,0.125 -0.75,0.625 -0.75,1l0,4.438c0,0.375 0.188,0.562 0.5,0.562c0.25,0 1.438,-0.562 1.625,-0.687c0.063,-0 0.125,-0.063 0.188,-0.063c0.437,0 0.812,0.625 0.812,1.125l0,6.188c0,0.687 -0.312,1.25 -0.687,1.437c-0.375,0.125 -1.688,0.688 -1.688,0.688c-0.437,0.125 -0.75,0.625 -0.75,1l0,4.437c0,0.375 0.188,0.563 0.5,0.563c0.063,-0 0.188,-0.063 0.25,-0.063c0,0 0.875,-0.375 1.438,-0.562c0.062,-0.063 0.125,-0.063 0.187,-0.063c0.438,0 0.75,0.688 0.75,1l0,7.688c0,0.375 0.375,0.687 0.813,0.687c0.625,0 1.062,-0.312 1.062,-0.687l0,-8.688c0,-0.812 0.313,-1.25 0.625,-1.375l3.813,-1.562c0.062,-0 0.187,-0.063 0.25,-0.063c0.5,0 0.812,0.75 0.812,1.125l0,7.813c0,0.375 0.375,0.687 0.813,0.687c0.687,0 1.062,-0.312 1.062,-0.687l0,-8.875c0,-0.5 0.25,-1.25 0.688,-1.438c0.437,-0.187 1.75,-0.687 1.75,-0.687c0.437,-0.188 0.75,-0.688 0.75,-1.063l-0,-4.437c-0,-0.313 -0.188,-0.5 -0.438,-0.5c-0.125,-0 -0.187,-0 -0.312,0.062l-1.625,0.625c-0.375,0 -0.813,-0.375 -0.813,-1.125l0,-5.812c0,-0.438 0.313,-1.625 0.813,-1.813l1.625,-0.625" style="fill-rule:nonzero;"/></g><g><path d="M449.622,217.146c5.562,-0 12.375,-5.125 12.375,-10.438c-0,-3.187 -2.5,-5.187 -6.063,-5.187c-6.875,-0 -12.375,5.062 -12.375,10.437c0,3.25 2.688,5.188 6.063,5.188" style="fill-rule:nonzero;"/></g><g><path d="M515.719,201.646c5.562,-0 12.375,-5.125 12.375,-10.438c-0,-3.187 -2.5,-5.187 -6.063,-5.187c-6.875,-0 -12.375,5.062 -12.375,10.437c0,3.25 2.688,5.188 6.063,5.188" style="fill-rule:nonzero;"/></g><g><path d="M581.816,193.896c5.562,-0 12.375,-5.125 12.375,-10.438c-0,-3.187 -2.5,-5.187 -6.063,-5.187c-6.875,-0 -12.375,5.062 -12.375,10.437c0,3.25 2.688,5.188 6.063,5.188" style="fill-rule:nonzero;"/></g><g><path d="M617.862,183.396c0,-0 -0.187,-3.75 -0.187,-6.25c-0,-1 0.062,-1.75 0.125,-2c0.437,-1.25 2.937,-3.063 4.375,-3.063c1.812,0 2.562,2.063 2.562,3.625c0,3.375 -2.875,6.75 -5.562,8.438c-0.25,0.125 -0.438,0.187 -0.625,0.187c-0.563,0 -0.688,-0.625 -0.688,-0.937m-2.187,5.562c0.187,0.25 0.375,0.313 0.562,0.313c0.188,-0 0.375,-0.125 0.375,-0.125c1.875,-1.063 3.375,-2.75 4.938,-3.813c5.562,-3.875 7.5,-7.687 7.5,-10.562c-0,-3.563 -2.75,-5.813 -5.625,-6c-1.063,-0 -2.563,0.5 -3.438,1.062c-0.375,0.313 -1.062,0.875 -1.375,0.875c-0.125,0 -0.187,0 -0.312,-0.062c-0.438,-0.188 -0.688,-0.625 -0.688,-1.063c0.063,-1.375 0.438,-16.375 0.438,-17.625c-0,-0.687 -0.563,-1.062 -1.188,-1.062c-0.875,-0 -1.875,0.625 -1.937,1.75c-0,-0 0.25,35.687 0.75,36.312" style="fill-rule:nonzero;"/></g><g><path d="M638.975,186.146c5.562,-0 12.375,-5.125 12.375,-10.438c-0,-3.187 -2.5,-5.187 -6.063,-5.187c-6.875,-0 -12.375,5.062 -12.375,10.437c0,3.25 2.688,5.188 6.063,5.188" style="fill-rule:nonzero;"/></g><g><path d="M675.022,175.646c-0,-0 -0.188,-3.75 -0.188,-6.25c0,-1 0.063,-1.75 0.125,-2c0.438,-1.25 2.938,-3.063 4.375,-3.063c1.813,0 2.563,2.063 2.563,3.625c-0,3.375 -2.875,6.75 -5.563,8.438c-0.25,0.125 -0.437,0.187 -0.625,0.187c-0.562,0 -0.687,-0.625 -0.687,-0.937m-2.188,5.562c0.188,0.25 0.375,0.313 0.563,0.313c0.187,-0 0.375,-0.125 0.375,-0.125c1.875,-1.063 3.375,-2.75 4.937,-3.813c5.563,-3.875 7.5,-7.687 7.5,-10.562c0,-3.563 -2.75,-5.813 -5.625,-6c-1.062,-0 -2.562,0.5 -3.437,1.062c-0.375,0.313 -1.063,0.875 -1.375,0.875c-0.125,0 -0.188,0 -0.313,-0.062c-0.437,-0.188 -0.687,-0.625 -0.687,-1.063c0.062,-1.375 0.437,-16.375 0.437,-17.625c0,-0.687 -0.562,-1.062 -1.187,-1.062c-0.875,-0 -1.875,0.625 -1.938,1.75c0,-0 0.25,35.687 0.75,36.312" style="fill-rule:nonzero;"/></g><g><path d="M696.134,178.396c5.563,-0 12.375,-5.125 12.375,-10.438c0,-3.187 -2.5,-5.187 -6.062,-5.187c-6.875,-0 -12.375,5.062 -12.375,10.437c-0,3.25 2.687,5.188 6.062,5.188" style="fill-rule:nonzero;"/></g><g><path d="M735.187,168.146c0,-0.875 3.813,-2.5 5.313,-2.5c0.375,-0 0.562,0.062 0.562,0.312l0,6.438c0,1.125 -3.562,2.562 -5.125,2.562c-0.437,0 -0.75,-0.125 -0.75,-0.375l0,-6.437m6.5,-8.875c-0.125,-0 -0.187,0.062 -0.25,0.062c0,0 -4,1.438 -5.625,1.438c-0.375,-0 -0.625,-0.063 -0.625,-0.313l0,-10.437c0,-0.438 -0.375,-0.75 -0.75,-0.75l-0.812,-0c-0.438,-0 -0.75,0.312 -0.75,0.75l-0,32.187c-0,0.375 0.187,0.563 0.5,0.563c0.062,-0 0.375,-0.063 0.437,-0.125c0.875,-0.375 4.375,-1.875 6.188,-1.875c0.625,-0 1.062,0.187 1.062,0.687l0,9.313c0,0.437 0.313,0.75 0.75,0.75l0.813,-0c0.375,-0 0.75,-0.313 0.75,-0.75l-0,-31.375c-0,-0.313 -0.25,-0.5 -0.5,-0.5c-0.063,-0 -0.188,-0 -0.25,0.062l-0.938,0.313" style="fill-rule:nonzero;"/></g><g><path d="M753.309,178.396c5.563,-0 12.375,-5.125 12.375,-10.438c0,-3.187 -2.5,-5.187 -6.062,-5.187c-6.875,-0 -12.375,5.062 -12.375,10.437c-0,3.25 2.687,5.188 6.062,5.188" style="fill-rule:nonzero;"/></g><g><path d="M795.456,165.646c-0.375,1.25 -3.312,2.5 -4.75,2.5c-0.375,-0 -0.687,-0.125 -0.75,-0.313c-0.125,-0.25 -0.187,-1.625 -0.187,-3.125c-0,-1.937 0.062,-4.125 0.187,-4.625c0.125,-1.062 3,-2.375 4.563,-2.375c0.437,0 0.812,0.125 0.937,0.375c0.125,0.313 0.25,1.875 0.25,3.563c0,1.687 -0.125,3.437 -0.25,4m4.313,-10.188c0.437,-0.187 0.75,-0.687 0.75,-1.062l-0,-4.438c-0,-0.312 -0.188,-0.5 -0.438,-0.5c-0.125,0 -0.187,0 -0.312,0.063c-0,-0 -1.25,0.5 -1.563,0.562c-0.437,0 -0.875,-0.312 -0.875,-0.812l0,-7.625c0,-0.375 -0.375,-0.688 -0.875,-0.688c-0.625,0 -1,0.313 -1,0.688l0,8.125c-0.062,0.625 -0.25,1.437 -0.812,1.812c-0.75,0.438 -2.875,1.313 -3.938,1.563c-0.562,-0 -0.75,-0.75 -0.75,-1.25l0,-7.5c0,-0.375 -0.437,-0.688 -0.875,-0.688c-0.625,0 -1,0.313 -1,0.688l0,8.437c0,0.875 -0.375,1.5 -0.75,1.688c-0.375,0.187 -1.625,0.687 -1.625,0.687c-0.437,0.125 -0.75,0.625 -0.75,1l0,4.438c0,0.375 0.188,0.562 0.5,0.562c0.25,0 1.438,-0.562 1.625,-0.687c0.063,-0 0.125,-0.063 0.188,-0.063c0.437,0 0.812,0.625 0.812,1.125l0,6.188c0,0.687 -0.312,1.25 -0.687,1.437c-0.375,0.125 -1.688,0.688 -1.688,0.688c-0.437,0.125 -0.75,0.625 -0.75,1l0,4.437c0,0.375 0.188,0.563 0.5,0.563c0.063,-0 0.188,-0.063 0.25,-0.063c0,0 0.875,-0.375 1.438,-0.562c0.062,-0.063 0.125,-0.063 0.187,-0.063c0.438,0 0.75,0.688 0.75,1l0,7.688c0,0.375 0.375,0.687 0.813,0.687c0.625,0 1.062,-0.312 1.062,-0.687l0,-8.688c0,-0.812 0.313,-1.25 0.625,-1.375l3.813,-1.562c0.062,-0 0.187,-0.063 0.25,-0.063c0.5,0 0.812,0.75 0.812,1.125l0,7.813c0,0.375 0.375,0.687 0.813,0.687c0.687,0 1.062,-0.312 1.062,-0.687l0,-8.875c0,-0.5 0.25,-1.25 0.688,-1.438c0.437,-0.187 1.75,-0.687 1.75,-0.687c0.437,-0.188 0.75,-0.688 0.75,-1.063l-0,-4.437c-0,-0.313 -0.188,-0.5 -0.438,-0.5c-0.125,-0 -0.187,-0 -0.312,0.062l-1.625,0.625c-0.375,0 -0.813,-0.375 -0.813,-1.125l0,-5.812c0,-0.438 0.313,-1.625 0.813,-1.813l1.625,-0.625" style="fill-rule:nonzero;"/></g><g><path d="M810.447,170.646c5.562,-0 12.375,-5.125 12.375,-10.438c-0,-3.187 -2.5,-5.187 -6.063,-5.187c-6.875,-0 -12.375,5.062 -12.375,10.437c0,3.25 2.688,5.188 6.063,5.188" style="fill-rule:nonzero;"/></g><g><path d="M861.506,157.896c-0.375,1.25 -3.313,2.5 -4.75,2.5c-0.375,-0 -0.688,-0.125 -0.75,-0.313c-0.125,-0.25 -0.188,-1.625 -0.188,-3.125c0,-1.937 0.063,-4.125 0.188,-4.625c0.125,-1.062 3,-2.375 4.562,-2.375c0.438,0 0.813,0.125 0.938,0.375c0.125,0.313 0.25,1.875 0.25,3.563c-0,1.687 -0.125,3.437 -0.25,4m4.312,-10.188c0.438,-0.187 0.75,-0.687 0.75,-1.062l0,-4.438c0,-0.312 -0.187,-0.5 -0.437,-0.5c-0.125,0 -0.188,0 -0.313,0.063c0,-0 -1.25,0.5 -1.562,0.562c-0.438,0 -0.875,-0.312 -0.875,-0.812l-0,-7.625c-0,-0.375 -0.375,-0.688 -0.875,-0.688c-0.625,0 -1,0.313 -1,0.688l-0,8.125c-0.063,0.625 -0.25,1.437 -0.813,1.812c-0.75,0.438 -2.875,1.313 -3.937,1.563c-0.563,-0 -0.75,-0.75 -0.75,-1.25l-0,-7.5c-0,-0.375 -0.438,-0.688 -0.875,-0.688c-0.625,0 -1,0.313 -1,0.688l-0,8.437c-0,0.875 -0.375,1.5 -0.75,1.688c-0.375,0.187 -1.625,0.687 -1.625,0.687c-0.438,0.125 -0.75,0.625 -0.75,1l-0,4.438c-0,0.375 0.187,0.562 0.5,0.562c0.25,0 1.437,-0.562 1.625,-0.687c0.062,-0 0.125,-0.063 0.187,-0.063c0.438,0 0.813,0.625 0.813,1.125l-0,6.188c-0,0.687 -0.313,1.25 -0.688,1.437c-0.375,0.125 -1.687,0.688 -1.687,0.688c-0.438,0.125 -0.75,0.625 -0.75,1l-0,4.437c-0,0.375 0.187,0.563 0.5,0.563c0.062,-0 0.187,-0.063 0.25,-0.063c-0,0 0.875,-0.375 1.437,-0.562c0.063,-0.063 0.125,-0.063 0.188,-0.063c0.437,0 0.75,0.688 0.75,1l-0,7.688c-0,0.375 0.375,0.687 0.812,0.687c0.625,0 1.063,-0.312 1.063,-0.687l-0,-8.688c-0,-0.812 0.312,-1.25 0.625,-1.375l3.812,-1.562c0.063,-0 0.188,-0.063 0.25,-0.063c0.5,0 0.813,0.75 0.813,1.125l-0,7.813c-0,0.375 0.375,0.687 0.812,0.687c0.688,0 1.063,-0.312 1.063,-0.687l-0,-8.875c-0,-0.5 0.25,-1.25 0.687,-1.438c0.438,-0.187 1.75,-0.687 1.75,-0.687c0.438,-0.188 0.75,-0.688 0.75,-1.063l0,-4.437c0,-0.313 -0.187,-0.5 -0.437,-0.5c-0.125,-0 -0.188,-0 -0.313,0.062l-1.625,0.625c-0.375,0 -0.812,-0.375 -0.812,-1.125l-0,-5.812c-0,-0.438 0.312,-1.625 0.812,-1.813l1.625,-0.625" style="fill-rule:nonzero;"/></g><g><path d="M876.497,162.896c5.562,-0 12.375,-5.125 12.375,-10.438c-0,-3.187 -2.5,-5.187 -6.063,-5.187c-6.875,-0 -12.375,5.062 -12.375,10.437c0,3.25 2.688,5.188 6.063,5.188" style="fill-rule:nonzero;"/></g><g><path d="M942.593,147.396c5.563,-0 12.375,-5.125 12.375,-10.438c0,-3.187 -2.5,-5.187 -6.062,-5.187c-6.875,-0 -12.375,5.062 -12.375,10.437c-0,3.25 2.687,5.188 6.062,5.188" style="fill-rule:nonzero;"/></g><g><path d="M1034.45,139.646c5.562,-0 12.375,-5.125 12.375,-10.438c-0,-3.187 -2.5,-5.187 -6.063,-5.187c-6.875,-0 -12.375,5.062 -12.375,10.437c0,3.25 2.688,5.188 6.063,5.188" style="fill-rule:nonzero;"/></g><g><path d="M1115.32,124.146c5.563,-0 12.375,-5.125 12.375,-10.438c0,-3.187 -2.5,-5.187 -6.062,-5.187c-6.875,-0 -12.375,5.062 -12.375,10.437c-0,3.25 2.687,5.188 6.062,5.188" style="fill-rule:nonzero;"/></g><g><path d="M1181.16,111.396c-0.375,1.25 -3.313,2.5 -4.75,2.5c-0.375,-0 -0.688,-0.125 -0.75,-0.313c-0.125,-0.25 -0.188,-1.625 -0.188,-3.125c0,-1.937 0.063,-4.125 0.188,-4.625c0.125,-1.062 3,-2.375 4.562,-2.375c0.438,0 0.813,0.125 0.938,0.375c0.125,0.313 0.25,1.875 0.25,3.563c-0,1.687 -0.125,3.437 -0.25,4m4.312,-10.188c0.438,-0.187 0.75,-0.687 0.75,-1.062l0,-4.438c0,-0.312 -0.187,-0.5 -0.437,-0.5c-0.125,0 -0.188,0 -0.313,0.063c0,-0 -1.25,0.5 -1.562,0.562c-0.438,0 -0.875,-0.312 -0.875,-0.812l-0,-7.625c-0,-0.375 -0.375,-0.688 -0.875,-0.688c-0.625,0 -1,0.313 -1,0.688l-0,8.125c-0.063,0.625 -0.25,1.437 -0.813,1.812c-0.75,0.438 -2.875,1.313 -3.937,1.563c-0.563,-0 -0.75,-0.75 -0.75,-1.25l-0,-7.5c-0,-0.375 -0.438,-0.688 -0.875,-0.688c-0.625,0 -1,0.313 -1,0.688l-0,8.437c-0,0.875 -0.375,1.5 -0.75,1.688c-0.375,0.187 -1.625,0.687 -1.625,0.687c-0.438,0.125 -0.75,0.625 -0.75,1l-0,4.438c-0,0.375 0.187,0.562 0.5,0.562c0.25,0 1.437,-0.562 1.625,-0.687c0.062,-0 0.125,-0.063 0.187,-0.063c0.438,0 0.813,0.625 0.813,1.125l-0,6.188c-0,0.687 -0.313,1.25 -0.688,1.437c-0.375,0.125 -1.687,0.688 -1.687,0.688c-0.438,0.125 -0.75,0.625 -0.75,1l-0,4.437c-0,0.375 0.187,0.563 0.5,0.563c0.062,-0 0.187,-0.063 0.25,-0.063c-0,0 0.875,-0.375 1.437,-0.562c0.063,-0.063 0.125,-0.063 0.188,-0.063c0.437,0 0.75,0.688 0.75,1l-0,7.688c-0,0.375 0.375,0.687 0.812,0.687c0.625,0 1.063,-0.312 1.063,-0.687l-0,-8.688c-0,-0.812 0.312,-1.25 0.625,-1.375l3.812,-1.562c0.063,-0 0.188,-0.063 0.25,-0.063c0.5,0 0.813,0.75 0.813,1.125l-0,7.813c-0,0.375 0.375,0.687 0.812,0.687c0.688,0 1.063,-0.312 1.063,-0.687l-0,-8.875c-0,-0.5 0.25,-1.25 0.687,-1.438c0.438,-0.187 1.75,-0.687 1.75,-0.687c0.438,-0.188 0.75,-0.688 0.75,-1.063l0,-4.437c0,-0.313 -0.187,-0.5 -0.437,-0.5c-0.125,-0 -0.188,-0 -0.313,0.062l-1.625,0.625c-0.375,0 -0.812,-0.375 -0.812,-1.125l-0,-5.812c-0,-0.438 0.312,-1.625 0.812,-1.813l1.625,-0.625" style="fill-rule:nonzero;"/></g><g><path d="M1196.15,116.396c5.563,-0 12.375,-5.125 12.375,-10.438c0,-3.187 -2.5,-5.187 -6.062,-5.187c-6.875,-0 -12.375,5.062 -12.375,10.437c-0,3.25 2.687,5.188 6.062,5.188" style="fill-rule:nonzero;"/></g><g><path d="M1247.23,103.646c-0.375,1.25 -3.313,2.5 -4.75,2.5c-0.375,-0 -0.688,-0.125 -0.75,-0.313c-0.125,-0.25 -0.188,-1.625 -0.188,-3.125c0,-1.937 0.063,-4.125 0.188,-4.625c0.125,-1.062 3,-2.375 4.562,-2.375c0.438,0 0.813,0.125 0.938,0.375c0.125,0.313 0.25,1.875 0.25,3.563c-0,1.687 -0.125,3.437 -0.25,4m4.312,-10.188c0.438,-0.187 0.75,-0.687 0.75,-1.062l0,-4.438c0,-0.312 -0.187,-0.5 -0.437,-0.5c-0.125,0 -0.188,0 -0.313,0.063c0,-0 -1.25,0.5 -1.562,0.562c-0.438,0 -0.875,-0.312 -0.875,-0.812l-0,-7.625c-0,-0.375 -0.375,-0.688 -0.875,-0.688c-0.625,0 -1,0.313 -1,0.688l-0,8.125c-0.063,0.625 -0.25,1.437 -0.813,1.812c-0.75,0.438 -2.875,1.313 -3.937,1.563c-0.563,-0 -0.75,-0.75 -0.75,-1.25l-0,-7.5c-0,-0.375 -0.438,-0.688 -0.875,-0.688c-0.625,0 -1,0.313 -1,0.688l-0,8.437c-0,0.875 -0.375,1.5 -0.75,1.688c-0.375,0.187 -1.625,0.687 -1.625,0.687c-0.438,0.125 -0.75,0.625 -0.75,1l-0,4.438c-0,0.375 0.187,0.562 0.5,0.562c0.25,0 1.437,-0.562 1.625,-0.687c0.062,-0 0.125,-0.063 0.187,-0.063c0.438,0 0.813,0.625 0.813,1.125l-0,6.188c-0,0.687 -0.313,1.25 -0.688,1.437c-0.375,0.125 -1.687,0.688 -1.687,0.688c-0.438,0.125 -0.75,0.625 -0.75,1l-0,4.437c-0,0.375 0.187,0.563 0.5,0.563c0.062,-0 0.187,-0.063 0.25,-0.063c-0,0 0.875,-0.375 1.437,-0.562c0.063,-0.063 0.125,-0.063 0.188,-0.063c0.437,0 0.75,0.688 0.75,1l-0,7.688c-0,0.375 0.375,0.687 0.812,0.687c0.625,0 1.063,-0.312 1.063,-0.687l-0,-8.688c-0,-0.812 0.312,-1.25 0.625,-1.375l3.812,-1.562c0.063,-0 0.188,-0.063 0.25,-0.063c0.5,0 0.813,0.75 0.813,1.125l-0,7.813c-0,0.375 0.375,0.687 0.812,0.687c0.688,0 1.063,-0.312 1.063,-0.687l-0,-8.875c-0,-0.5 0.25,-1.25 0.687,-1.438c0.438,-0.187 1.75,-0.687 1.75,-0.687c0.438,-0.188 0.75,-0.688 0.75,-1.063l0,-4.437c0,-0.313 -0.187,-0.5 -0.437,-0.5c-0.125,-0 -0.188,-0 -0.313,0.062l-1.625,0.625c-0.375,0 -0.812,-0.375 -0.812,-1.125l-0,-5.812c-0,-0.438 0.312,-1.625 0.812,-1.813l1.625,-0.625" style="fill-rule:nonzero;"/></g><g><path d="M1262.21,108.646c5.563,-0 12.375,-5.125 12.375,-10.438c0,-3.187 -2.5,-5.187 -6.062,-5.187c-6.875,-0 -12.375,5.062 -12.375,10.437c-0,3.25 2.687,5.188 6.062,5.188" style="fill-rule:nonzero;"/></g><g><path d="M1328.31,93.146c5.562,-0 12.375,-5.125 12.375,-10.438c-0,-3.187 -2.5,-5.187 -6.063,-5.187c-6.875,-0 -12.375,5.062 -12.375,10.437c0,3.25 2.688,5.188 6.063,5.188" style="fill-rule:nonzero;"/></g><g><path d="M1394.41,85.396c5.562,-0 12.375,-5.125 12.375,-10.438c-0,-3.187 -2.5,-5.187 -6.063,-5.187c-6.875,-0 -12.375,5.062 -12.375,10.437c0,3.25 2.688,5.188 6.063,5.188" style="fill-rule:nonzero;"/></g><g><path d="M1451.58,93.146c5.562,-0 12.375,-5.125 12.375,-10.438c-0,-3.187 -2.5,-5.187 -6.063,-5.187c-6.875,-0 -12.375,5.062 -12.375,10.437c0,3.25 2.688,5.188 6.063,5.188" style="fill-rule:nonzero;"/></g><g><path d="M1508.75,100.896c5.563,-0 12.375,-5.125 12.375,-10.438c0,-3.187 -2.5,-5.187 -6.062,-5.187c-6.875,-0 -12.375,5.062 -12.375,10.437c-0,3.25 2.687,5.188 6.062,5.188" style="fill-rule:nonzero;"/></g><g><path d="M1547.81,98.396c0,-0.875 3.813,-2.5 5.313,-2.5c0.375,-0 0.562,0.062 0.562,0.312l0,6.438c0,1.125 -3.562,2.562 -5.125,2.562c-0.437,0 -0.75,-0.125 -0.75,-0.375l0,-6.437m6.5,-8.875c-0.125,-0 -0.187,0.062 -0.25,0.062c0,0 -4,1.438 -5.625,1.438c-0.375,-0 -0.625,-0.063 -0.625,-0.313l0,-10.437c0,-0.438 -0.375,-0.75 -0.75,-0.75l-0.812,-0c-0.438,-0 -0.75,0.312 -0.75,0.75l-0,32.187c-0,0.375 0.187,0.563 0.5,0.563c0.062,-0 0.375,-0.063 0.437,-0.125c0.875,-0.375 4.375,-1.875 6.188,-1.875c0.625,-0 1.062,0.187 1.062,0.687l0,9.313c0,0.437 0.313,0.75 0.75,0.75l0.813,-0c0.375,-0 0.75,-0.313 0.75,-0.75l-0,-31.375c-0,-0.313 -0.25,-0.5 -0.5,-0.5c-0.063,-0 -0.188,-0 -0.25,0.062l-0.938,0.313" style="fill-rule:nonzero;"/></g><g><path d="M1565.93,108.646c5.563,-0 12.375,-5.125 12.375,-10.438c0,-3.187 -2.5,-5.187 -6.062,-5.187c-6.875,-0 -12.375,5.062 -12.375,10.437c-0,3.25 2.687,5.188 6.062,5.188" style="fill-rule:nonzero;"/></g><g><path d="M1623.1,124.146c5.563,-0 12.375,-5.125 12.375,-10.438c0,-3.187 -2.5,-5.187 -6.062,-5.187c-6.875,-0 -12.375,5.062 -12.375,10.437c-0,3.25 2.687,5.188 6.062,5.188" style="fill-rule:nonzero;"/></g><g><path d="M1703.97,139.646c5.562,-0 12.375,-5.125 12.375,-10.438c-0,-3.187 -2.5,-5.187 -6.063,-5.187c-6.875,-0 -12.375,5.062 -12.375,10.437c0,3.25 2.688,5.188 6.063,5.188" style="fill-rule:nonzero;"/></g><g><path d="M161.563,169.708c0.187,1.188 0.187,1.125 -0.938,1.5c-5.5,1.875 -9.062,6.813 -9.062,12.125c-0,5.625 2.937,9.625 7.187,11.063c0.5,0.187 1.25,0.375 1.688,0.375c0.5,-0 0.75,-0.313 0.75,-0.688c-0,-0.437 -0.5,-0.625 -0.938,-0.812c-2.625,-1.125 -4.5,-3.813 -4.5,-6.688c0,-3.562 2.438,-6.25 6.25,-7.312c1,-0.25 1.125,-0.188 1.25,0.5l3.125,18.625c0.125,0.687 0.063,0.687 -0.875,0.875c-1,0.187 -2.25,0.312 -3.5,0.312c-10.937,0 -18,-6.062 -18,-14.75c0,-3.687 0.625,-8.625 5.813,-14.5c3.75,-4.187 6.625,-6.5 9.562,-8.875c0.625,-0.5 0.75,-0.437 0.875,0.25l1.313,8m6.812,-42.562c2.063,-0 3.75,1.687 3.75,5.125c0,6.937 -5.937,12.562 -10.875,16.875c-0.437,0.375 -0.687,0.312 -0.812,-0.5c-0.25,-1.625 -0.375,-3.75 -0.375,-5.75c-0,-9.75 4.5,-15.75 8.312,-15.75m-2.5,52.5c-0.125,-0.75 -0.062,-0.938 0.688,-0.875c5.062,0.437 9.25,4.687 9.25,10.187c-0,3.938 -2.375,7.125 -5.875,8.875c-0.75,0.375 -0.875,0.375 -1,-0.375l-3.063,-17.812m-3.375,-19.5c-0.125,-0.75 0,-0.813 0.375,-1.188c6.75,-6.312 11.875,-14.25 11.875,-23.812c0,-5.438 -1.5,-10.813 -4.062,-14.563c-0.938,-1.375 -2.563,-3.125 -3.25,-3.125c-0.875,0 -2.813,1.625 -4.063,3c-4.625,5.125 -6.125,12.938 -6.125,19.438c0,3.625 0.438,7.687 0.875,10.25c0.125,0.75 0.188,0.875 -0.562,1.5c-9,7.437 -18.563,16.375 -18.563,29c0,10.875 7.438,21.187 22.75,21.187c1.438,0 3.063,-0.125 4.313,-0.375c0.687,-0.125 0.812,-0.187 0.937,0.563c0.75,4.187 1.688,9.625 1.688,12.562c-0,9.25 -6.25,10.375 -9.938,10.375c-3.375,0 -5,-1 -5,-1.812c0,-0.438 0.563,-0.625 2,-1.063c1.938,-0.562 4.188,-2.25 4.188,-5.875c-0,-3.437 -2.188,-6.375 -6,-6.375c-4.188,0 -6.688,3.313 -6.688,7.188c0,4.062 2.438,10.187 11.875,10.187c4.188,0 12.313,-1.875 12.313,-12.5c-0,-3.562 -1.125,-9.5 -1.813,-13.375c-0.125,-0.75 -0.062,-0.687 0.813,-1.062c6.312,-2.5 10.5,-7.813 10.5,-14.875c-0,-8 -5.875,-15.063 -15.063,-15.063c-1.625,0 -1.625,0 -1.812,-1.125l-1.563,-9.062" style="fill-rule:nonzero;"/></g><g><text x="443.55px" y="251.87px" style="font-family:'Bravura';font-size:62.5px;"></text></g><g><text x="861.215px" y="237.806px" style="font-family:'Bravura';font-size:62.5px;"></text></g><g><text x="1246.93px" y="228.896px" style="font-family:'Bravura';font-size:62.5px;"></text></g><g><path d="M232.376,178.333l-0,-7.784l82.718,-7.75l0,7.784l-82.718,7.75" style="fill-rule:nonzero;"/></g><g><path d="M394.063,162.833l-0,-7.834l134.031,-19.375l0,7.834l-134.031,19.375" style="fill-rule:nonzero;"/></g><g><path d="M575.75,236.477l0,-7.756l173.344,-7.75l-0,7.756l-173.344,7.75" style="fill-rule:nonzero;"/></g><g><path d="M575.75,224.843l0,-7.76l173.344,-7.75l-0,7.76l-173.344,7.75" style="fill-rule:nonzero;"/></g><g><path d="M804.375,217.136l0,-7.803l134,-15.5l0,7.803l-134,15.5" style="fill-rule:nonzero;"/></g><g><path d="M1028.38,190.099l-0,-7.891l82.75,-15.5l-0,7.891l-82.75,15.5" style="fill-rule:nonzero;"/></g><g><path d="M1190.09,174.461l-0,-7.753l134.031,-3.875l-0,7.753l-134.031,3.875" style="fill-rule:nonzero;"/></g><g><path d="M1388.34,170.59l0,-7.754l173.375,3.875l0,7.754l-173.375,-3.875" style="fill-rule:nonzero;"/></g><g><path d="M1388.34,158.961l0,-7.753l173.375,3.875l0,7.753l-173.375,-3.875" style="fill-rule:nonzero;"/></g><g><path d="M1617.03,174.599l-0,-7.891l82.718,15.5l0,7.891l-82.718,-15.5" style="fill-rule:nonzero;"/></g><g><path d="M372.375,240.396l63.438,-0l-0,-2.481l-60.969,-0l0,-9.144l-2.469,-0" style="fill-rule:nonzero;"/></g><g><path d="M529.344,240.396l-59.562,-0l-0,-2.481l57.062,-0l0,-9.144l2.5,-0" style="fill-rule:nonzero;"/></g><g><path d="M131.251,356.583l678.718,0" style="fill:none;stroke:#000;stroke-width:2.01px;"/><path d="M131.251,372.083l678.718,0" style="fill:none;stroke:#000;stroke-width:2.01px;"/><path d="M131.251,387.583l678.718,0" style="fill:none;stroke:#000;stroke-width:2.01px;"/><path d="M131.251,403.083l678.718,0" style="fill:none;stroke:#000;stroke-width:2.01px;"/><path d="M131.251,418.583l678.718,0" style="fill:none;stroke:#000;stroke-width:2.01px;"/></g><g><path d="M643.438,355.577l-0,64.012" style="fill:none;stroke:#000;stroke-width:2.48px;"/><path d="M793.219,355.577l-0,64.012" style="fill:none;stroke:#000;stroke-width:2.48px;"/></g><g><path d="M806.094,355.577l-0,64.012" style="fill:none;stroke:#000;stroke-width:7.75px;"/></g><g><path d="M216.719,359.186l0,59.666" style="fill:none;stroke:#000;stroke-width:1.86px;"/><path d="M260.563,382.436l0,48.041" style="fill:none;stroke:#000;stroke-width:1.86px;"/><path d="M321,340.983l0,43.997" style="fill:none;stroke:#000;stroke-width:1.86px;"/><path d="M356.844,346.796l0,45.934" style="fill:none;stroke:#000;stroke-width:1.86px;"/><path d="M392.657,352.608l-0,47.872" style="fill:none;stroke:#000;stroke-width:1.86px;"/><path d="M428.5,356.396l0,51.834" style="fill:none;stroke:#000;stroke-width:1.86px;"/><path d="M472.219,366.083l0,57.647" style="fill:none;stroke:#000;stroke-width:1.86px;"/><path d="M515.907,375.771l-0,55.709" style="fill:none;stroke:#000;stroke-width:1.86px;"/></g><g><path d="M495.844,434.083l27.219,0" style="fill:none;stroke:#000;stroke-width:2.48px;"/></g><g><path d="M551.75,387.571l0,51.659" style="fill:none;stroke:#000;stroke-width:1.86px;"/></g><g><path d="M528.063,434.083l30.812,0" style="fill:none;stroke:#000;stroke-width:2.48px;"/></g><g><path d="M587.594,389.508l0,57.472" style="fill:none;stroke:#000;stroke-width:1.86px;"/></g><g><path d="M563.907,449.583l30.812,0" style="fill:none;stroke:#000;stroke-width:2.48px;"/><path d="M563.907,434.083l30.812,0" style="fill:none;stroke:#000;stroke-width:2.48px;"/></g><g><path d="M623.438,391.446l-0,63.284" style="fill:none;stroke:#000;stroke-width:1.86px;"/></g><g><path d="M599.75,449.583l30.813,0" style="fill:none;stroke:#000;stroke-width:2.48px;"/><path d="M599.75,434.083l30.813,0" style="fill:none;stroke:#000;stroke-width:2.48px;"/><path d="M661.75,449.583l38.781,0" style="fill:none;stroke:#000;stroke-width:2.48px;"/><path d="M661.75,434.083l38.781,0" style="fill:none;stroke:#000;stroke-width:2.48px;"/></g><g><path d="M228.337,335.444l0,-6.688c0,-0.312 -0.062,-0.562 -0.375,-0.562c-0.25,-0 -0.437,0.062 -0.625,0.312l-1.875,3.625c-0.125,0.125 -0.312,0.313 -0.312,0.75l-0,2.563l-4.063,-0c2.563,-2.125 6.563,-9.188 6.625,-9.563c0,-0.062 0.063,-0.125 0.063,-0.187c-0,-0.25 -0.25,-0.438 -0.438,-0.438c-0.312,0 -1.625,0.125 -2.187,0.125c-0.563,0 -0.938,-0.125 -1.188,-0.125c-0.312,0 -0.75,0.125 -0.75,0.625c0,4 -3.25,8.563 -4.062,9.688c-0.125,0.125 -0.25,0.312 -0.25,0.5c-0,0.312 0.25,0.625 0.625,0.625l5.625,-0l-0,1.937c-0,0.875 -0.5,1.125 -1,1.125c-0.563,0 -0.813,0.25 -0.813,0.563c0,0.312 0.125,0.687 0.688,0.687l5.375,0c0.312,0 0.625,-0.25 0.625,-0.687c-0,-0.438 -0.375,-0.625 -0.688,-0.625c-0.312,-0 -1,-0.188 -1,-1.188l0,-1.812l2.313,-0c0.312,-0 0.5,-0.25 0.5,-0.625c-0,-0.375 -0.125,-0.625 -0.5,-0.625l-2.313,-0" style="fill-rule:nonzero;"/></g><g><path d="M265.275,332.522c0,-0 -0.062,0.25 -0.062,0.437c-0,0.25 0.25,0.5 0.5,0.5c0.187,0 0.312,-0.187 0.375,-0.25c0.062,-0.187 0.812,-2.75 1.187,-3.375c0.125,-0.25 0.25,-0.312 0.313,-0.312c0.125,-0 0.187,0.25 0.187,0.437l0,8.938c0,0.75 -0.625,1.187 -1.25,1.187c-0.25,0 -0.562,0.125 -0.562,0.5c-0,0.375 0.312,0.5 0.812,0.5l5.25,0c0.5,0 0.5,-0.5 0.5,-0.5c0,0 0,-0.5 -0.5,-0.5c-0.437,0 -1,-0.562 -1,-1.125l0,-13c0,-0.5 -0.187,-0.75 -0.625,-0.75c-0.437,0 -0.812,0.125 -1.187,0.125c-0.625,0 -0.75,0 -1.25,-0.125c-0.25,0 -0.563,0.375 -0.75,0.625l-1.938,6.688" style="fill-rule:nonzero;"/></g><g><path d="M316.032,323.781l0,-6.687c0,-0.313 -0.062,-0.563 -0.375,-0.563c-0.25,0 -0.437,0.063 -0.625,0.313l-1.875,3.625c-0.125,0.125 -0.312,0.312 -0.312,0.75l-0,2.562l-4.063,0c2.563,-2.125 6.563,-9.187 6.625,-9.562c0,-0.063 0.063,-0.125 0.063,-0.188c-0,-0.25 -0.25,-0.437 -0.438,-0.437c-0.312,-0 -1.625,0.125 -2.187,0.125c-0.563,-0 -0.938,-0.125 -1.188,-0.125c-0.312,-0 -0.75,0.125 -0.75,0.625c0,4 -3.25,8.562 -4.062,9.687c-0.125,0.125 -0.25,0.313 -0.25,0.5c-0,0.313 0.25,0.625 0.625,0.625l5.625,0l-0,1.938c-0,0.875 -0.5,1.125 -1,1.125c-0.563,-0 -0.813,0.25 -0.813,0.562c0,0.313 0.125,0.688 0.688,0.688l5.375,-0c0.312,-0 0.625,-0.25 0.625,-0.688c-0,-0.437 -0.375,-0.625 -0.688,-0.625c-0.312,0 -1,-0.187 -1,-1.187l0,-1.813l2.313,0c0.312,0 0.5,-0.25 0.5,-0.625c-0,-0.375 -0.125,-0.625 -0.5,-0.625l-2.313,0" style="fill-rule:nonzero;"/></g><g><path d="M354.741,327.362c-0,-0.437 -0.188,-0.5 -0.375,-0.5c-0.25,0 -0.375,0.188 -0.438,0.375c-0.312,0.875 -1,2 -1.937,2c-0.125,0 -0.25,0 -0.375,-0.062l-0.938,-0.313c-0.625,-0.25 -2.125,-0.75 -3.375,-0.75c-0.437,0 -0.812,0.063 -1.187,0.188c0.687,-1.188 3.937,-2.75 4.625,-2.938c2.25,-0.312 4.125,-1.625 4.125,-4.062c-0,-1.5 -0.625,-2.5 -1.438,-3.25c-1.625,-1.313 -4,-1.5 -4.687,-1.5c-2.25,-0 -4.063,0.125 -5.688,2c-0.437,0.5 -0.625,1 -0.625,1.5c0,0.437 0.188,0.937 0.375,1.5c0.375,0.75 1.188,1.312 2.063,1.312c1.562,0 1.75,-1.5 1.75,-2.187c-0,-1.438 -1.563,-1.563 -1.563,-2.188c0,-0.437 0.625,-1.187 2.5,-1.187c2.938,-0 3.938,2.437 3.938,3.187c-0,1.125 -0.375,2.188 -1,3.063c-1.125,1.437 -3.188,1.937 -4.75,2.937c-1.75,1.063 -2.938,2.875 -3.5,4.875c-0,0.438 0.187,0.938 0.562,1.125c0.063,0.063 0.188,0.063 0.25,0.063c0.688,-0 1.063,-1.938 2.938,-1.938c1.25,0 1.687,1.688 4.5,1.688c1.312,-0 3.75,-0.125 4.25,-4.938" style="fill-rule:nonzero;"/></g><g><path d="M380.803,330.081c0,0 -0.062,0.25 -0.062,0.438c-0,0.25 0.25,0.5 0.5,0.5c0.187,-0 0.312,-0.188 0.375,-0.25c0.062,-0.188 0.812,-2.75 1.187,-3.375c0.125,-0.25 0.25,-0.313 0.313,-0.313c0.125,0 0.187,0.25 0.187,0.438l0,8.937c0,0.75 -0.625,1.188 -1.25,1.188c-0.25,-0 -0.562,0.125 -0.562,0.5c-0,0.375 0.312,0.5 0.812,0.5l5.25,-0c0.5,-0 0.5,-0.5 0.5,-0.5c0,-0 0,-0.5 -0.5,-0.5c-0.437,-0 -1,-0.563 -1,-1.125l0,-13c0,-0.5 -0.187,-0.75 -0.625,-0.75c-0.437,-0 -0.812,0.125 -1.187,0.125c-0.625,-0 -0.75,-0 -1.25,-0.125c-0.25,-0 -0.563,0.375 -0.75,0.625l-1.938,6.687" style="fill-rule:nonzero;"/></g><g><path d="M423.553,335.459l0,-6.687c0,-0.313 -0.062,-0.563 -0.375,-0.563c-0.25,0 -0.437,0.063 -0.625,0.313l-1.875,3.625c-0.125,0.125 -0.312,0.312 -0.312,0.75l-0,2.562l-4.063,0c2.563,-2.125 6.563,-9.187 6.625,-9.562c0,-0.063 0.063,-0.125 0.063,-0.188c-0,-0.25 -0.25,-0.437 -0.438,-0.437c-0.312,-0 -1.625,0.125 -2.187,0.125c-0.563,-0 -0.938,-0.125 -1.188,-0.125c-0.312,-0 -0.75,0.125 -0.75,0.625c0,4 -3.25,8.562 -4.062,9.687c-0.125,0.125 -0.25,0.313 -0.25,0.5c-0,0.313 0.25,0.625 0.625,0.625l5.625,0l-0,1.938c-0,0.875 -0.5,1.125 -1,1.125c-0.563,-0 -0.813,0.25 -0.813,0.562c0,0.313 0.125,0.688 0.688,0.688l5.375,-0c0.312,-0 0.625,-0.25 0.625,-0.688c-0,-0.437 -0.375,-0.625 -0.688,-0.625c-0.312,0 -1,-0.187 -1,-1.187l0,-1.813l2.313,0c0.312,0 0.5,-0.25 0.5,-0.625c-0,-0.375 -0.125,-0.625 -0.5,-0.625l-2.313,0" style="fill-rule:nonzero;"/></g><g><path d="M470.122,336.084c-0,-0.437 -0.188,-0.5 -0.375,-0.5c-0.25,0 -0.375,0.188 -0.438,0.375c-0.312,0.875 -1,2 -1.937,2c-0.125,0 -0.25,0 -0.375,-0.062l-0.938,-0.313c-0.625,-0.25 -2.125,-0.75 -3.375,-0.75c-0.437,0 -0.812,0.063 -1.187,0.188c0.687,-1.188 3.937,-2.75 4.625,-2.938c2.25,-0.312 4.125,-1.625 4.125,-4.062c-0,-1.5 -0.625,-2.5 -1.438,-3.25c-1.625,-1.313 -4,-1.5 -4.687,-1.5c-2.25,-0 -4.063,0.125 -5.688,2c-0.437,0.5 -0.625,1 -0.625,1.5c0,0.437 0.188,0.937 0.375,1.5c0.375,0.75 1.188,1.312 2.063,1.312c1.562,0 1.75,-1.5 1.75,-2.187c-0,-1.438 -1.563,-1.563 -1.563,-2.188c0,-0.437 0.625,-1.187 2.5,-1.187c2.938,-0 3.938,2.437 3.938,3.187c-0,1.125 -0.375,2.188 -1,3.063c-1.125,1.437 -3.188,1.937 -4.75,2.937c-1.75,1.063 -2.938,2.875 -3.5,4.875c-0,0.438 0.187,0.938 0.562,1.125c0.063,0.063 0.188,0.063 0.25,0.063c0.688,-0 1.063,-1.938 2.938,-1.938c1.25,0 1.687,1.688 4.5,1.688c1.312,-0 3.75,-0.125 4.25,-4.938" style="fill-rule:nonzero;"/></g><g><path d="M504.05,332.522c-0,-0 -0.063,0.25 -0.063,0.437c0,0.25 0.25,0.5 0.5,0.5c0.188,0 0.313,-0.187 0.375,-0.25c0.063,-0.187 0.813,-2.75 1.188,-3.375c0.125,-0.25 0.25,-0.312 0.312,-0.312c0.125,-0 0.188,0.25 0.188,0.437l-0,8.938c-0,0.75 -0.625,1.187 -1.25,1.187c-0.25,0 -0.563,0.125 -0.563,0.5c0,0.375 0.313,0.5 0.813,0.5l5.25,0c0.5,0 0.5,-0.5 0.5,-0.5c-0,0 -0,-0.5 -0.5,-0.5c-0.438,0 -1,-0.562 -1,-1.125l-0,-13c-0,-0.5 -0.188,-0.75 -0.625,-0.75c-0.438,0 -0.813,0.125 -1.188,0.125c-0.625,0 -0.75,0 -1.25,-0.125c-0.25,0 -0.562,0.375 -0.75,0.625l-1.937,6.688" style="fill-rule:nonzero;"/></g><g><path d="M546.797,335.459l-0,-6.687c-0,-0.313 -0.063,-0.563 -0.375,-0.563c-0.25,0 -0.438,0.063 -0.625,0.313l-1.875,3.625c-0.125,0.125 -0.313,0.312 -0.313,0.75l0,2.562l-4.062,0c2.562,-2.125 6.562,-9.187 6.625,-9.562c-0,-0.063 0.062,-0.125 0.062,-0.188c0,-0.25 -0.25,-0.437 -0.437,-0.437c-0.313,-0 -1.625,0.125 -2.188,0.125c-0.562,-0 -0.937,-0.125 -1.187,-0.125c-0.313,-0 -0.75,0.125 -0.75,0.625c-0,4 -3.25,8.562 -4.063,9.687c-0.125,0.125 -0.25,0.313 -0.25,0.5c0,0.313 0.25,0.625 0.625,0.625l5.625,0l0,1.938c0,0.875 -0.5,1.125 -1,1.125c-0.562,-0 -0.812,0.25 -0.812,0.562c-0,0.313 0.125,0.688 0.687,0.688l5.375,-0c0.313,-0 0.625,-0.25 0.625,-0.688c0,-0.437 -0.375,-0.625 -0.687,-0.625c-0.313,0 -1,-0.187 -1,-1.187l-0,-1.813l2.312,0c0.313,0 0.5,-0.25 0.5,-0.625c0,-0.375 -0.125,-0.625 -0.5,-0.625l-2.312,0" style="fill-rule:nonzero;"/></g><g><path d="M585.506,336.084c0,-0.437 -0.187,-0.5 -0.375,-0.5c-0.25,0 -0.375,0.188 -0.437,0.375c-0.313,0.875 -1,2 -1.938,2c-0.125,0 -0.25,0 -0.375,-0.062l-0.937,-0.313c-0.625,-0.25 -2.125,-0.75 -3.375,-0.75c-0.438,0 -0.813,0.063 -1.188,0.188c0.688,-1.188 3.938,-2.75 4.625,-2.938c2.25,-0.312 4.125,-1.625 4.125,-4.062c0,-1.5 -0.625,-2.5 -1.437,-3.25c-1.625,-1.313 -4,-1.5 -4.688,-1.5c-2.25,-0 -4.062,0.125 -5.687,2c-0.438,0.5 -0.625,1 -0.625,1.5c-0,0.437 0.187,0.937 0.375,1.5c0.375,0.75 1.187,1.312 2.062,1.312c1.563,0 1.75,-1.5 1.75,-2.187c0,-1.438 -1.562,-1.563 -1.562,-2.188c-0,-0.437 0.625,-1.187 2.5,-1.187c2.937,-0 3.937,2.437 3.937,3.187c0,1.125 -0.375,2.188 -1,3.063c-1.125,1.437 -3.187,1.937 -4.75,2.937c-1.75,1.063 -2.937,2.875 -3.5,4.875c0,0.438 0.188,0.938 0.563,1.125c0.062,0.063 0.187,0.063 0.25,0.063c0.687,-0 1.062,-1.938 2.937,-1.938c1.25,0 1.688,1.688 4.5,1.688c1.313,-0 3.75,-0.125 4.25,-4.938" style="fill-rule:nonzero;"/></g><g><path d="M611.569,332.522c-0,-0 -0.063,0.25 -0.063,0.437c0,0.25 0.25,0.5 0.5,0.5c0.188,0 0.313,-0.187 0.375,-0.25c0.063,-0.187 0.813,-2.75 1.188,-3.375c0.125,-0.25 0.25,-0.312 0.312,-0.312c0.125,-0 0.188,0.25 0.188,0.437l-0,8.938c-0,0.75 -0.625,1.187 -1.25,1.187c-0.25,0 -0.563,0.125 -0.563,0.5c0,0.375 0.313,0.5 0.813,0.5l5.25,0c0.5,0 0.5,-0.5 0.5,-0.5c-0,0 -0,-0.5 -0.5,-0.5c-0.438,0 -1,-0.562 -1,-1.125l-0,-13c-0,-0.5 -0.188,-0.75 -0.625,-0.75c-0.438,0 -0.813,0.125 -1.188,0.125c-0.625,0 -0.75,0 -1.25,-0.125c-0.25,0 -0.562,0.375 -0.75,0.625l-1.937,6.688" style="fill-rule:nonzero;"/></g><g><path d="M677.553,332.522c-0,-0 -0.063,0.25 -0.063,0.437c0,0.25 0.25,0.5 0.5,0.5c0.188,0 0.313,-0.187 0.375,-0.25c0.063,-0.187 0.813,-2.75 1.188,-3.375c0.125,-0.25 0.25,-0.312 0.312,-0.312c0.125,-0 0.188,0.25 0.188,0.437l-0,8.938c-0,0.75 -0.625,1.187 -1.25,1.187c-0.25,0 -0.563,0.125 -0.563,0.5c0,0.375 0.313,0.5 0.813,0.5l5.25,0c0.5,0 0.5,-0.5 0.5,-0.5c-0,0 -0,-0.5 -0.5,-0.5c-0.438,0 -1,-0.562 -1,-1.125l-0,-13c-0,-0.5 -0.188,-0.75 -0.625,-0.75c-0.438,0 -0.813,0.125 -1.188,0.125c-0.625,0 -0.75,0 -1.25,-0.125c-0.25,0 -0.562,0.375 -0.75,0.625l-1.937,6.688" style="fill-rule:nonzero;"/></g><g><path d="M221.857,364.397c5.562,-0 12.375,-5.125 12.375,-10.438c-0,-3.187 -2.5,-5.187 -6.063,-5.187c-6.875,-0 -12.375,5.062 -12.375,10.437c0,3.25 2.688,5.188 6.063,5.188" style="fill-rule:nonzero;"/></g><g><path d="M250.715,382.647c-0.375,1.25 -3.313,2.5 -4.75,2.5c-0.375,-0 -0.688,-0.125 -0.75,-0.313c-0.125,-0.25 -0.188,-1.625 -0.188,-3.125c0,-1.937 0.063,-4.125 0.188,-4.625c0.125,-1.062 3,-2.375 4.562,-2.375c0.438,0 0.813,0.125 0.938,0.375c0.125,0.313 0.25,1.875 0.25,3.563c-0,1.687 -0.125,3.437 -0.25,4m4.312,-10.188c0.438,-0.187 0.75,-0.687 0.75,-1.062l0,-4.438c0,-0.312 -0.187,-0.5 -0.437,-0.5c-0.125,0 -0.188,0 -0.313,0.063c0,-0 -1.25,0.5 -1.562,0.562c-0.438,0 -0.875,-0.312 -0.875,-0.812l-0,-7.625c-0,-0.375 -0.375,-0.688 -0.875,-0.688c-0.625,0 -1,0.313 -1,0.688l-0,8.125c-0.063,0.625 -0.25,1.437 -0.813,1.812c-0.75,0.438 -2.875,1.313 -3.937,1.563c-0.563,-0 -0.75,-0.75 -0.75,-1.25l-0,-7.5c-0,-0.375 -0.438,-0.688 -0.875,-0.688c-0.625,0 -1,0.313 -1,0.688l-0,8.437c-0,0.875 -0.375,1.5 -0.75,1.688c-0.375,0.187 -1.625,0.687 -1.625,0.687c-0.438,0.125 -0.75,0.625 -0.75,1l-0,4.438c-0,0.375 0.187,0.562 0.5,0.562c0.25,0 1.437,-0.562 1.625,-0.687c0.062,-0 0.125,-0.063 0.187,-0.063c0.438,0 0.813,0.625 0.813,1.125l-0,6.188c-0,0.687 -0.313,1.25 -0.688,1.437c-0.375,0.125 -1.687,0.688 -1.687,0.688c-0.438,0.125 -0.75,0.625 -0.75,1l-0,4.437c-0,0.375 0.187,0.563 0.5,0.563c0.062,-0 0.187,-0.063 0.25,-0.063c-0,0 0.875,-0.375 1.437,-0.562c0.063,-0.063 0.125,-0.063 0.188,-0.063c0.437,0 0.75,0.688 0.75,1l-0,7.688c-0,0.375 0.375,0.687 0.812,0.687c0.625,0 1.063,-0.312 1.063,-0.687l-0,-8.688c-0,-0.812 0.312,-1.25 0.625,-1.375l3.812,-1.562c0.063,-0 0.188,-0.063 0.25,-0.063c0.5,0 0.813,0.75 0.813,1.125l-0,7.813c-0,0.375 0.375,0.687 0.812,0.687c0.688,0 1.063,-0.312 1.063,-0.687l-0,-8.875c-0,-0.5 0.25,-1.25 0.687,-1.438c0.438,-0.187 1.75,-0.687 1.75,-0.687c0.438,-0.188 0.75,-0.688 0.75,-1.063l0,-4.437c0,-0.313 -0.187,-0.5 -0.437,-0.5c-0.125,-0 -0.188,-0 -0.313,0.062l-1.625,0.625c-0.375,0 -0.812,-0.375 -0.812,-1.125l-0,-5.812c-0,-0.438 0.312,-1.625 0.812,-1.813l1.625,-0.625" style="fill-rule:nonzero;"/></g><g><path d="M265.704,387.647c5.563,-0 12.375,-5.125 12.375,-10.438c0,-3.187 -2.5,-5.187 -6.062,-5.187c-6.875,-0 -12.375,5.062 -12.375,10.437c-0,3.25 2.687,5.188 6.062,5.188" style="fill-rule:nonzero;"/></g><g><path d="M309.552,395.397c5.562,-0 12.375,-5.125 12.375,-10.438c-0,-3.187 -2.5,-5.187 -6.063,-5.187c-6.875,-0 -12.374,5.062 -12.374,10.437c-0,3.25 2.687,5.188 6.062,5.188" style="fill-rule:nonzero;"/></g><g><path d="M345.391,403.147c5.562,-0 12.375,-5.125 12.375,-10.438c-0,-3.187 -2.5,-5.187 -6.063,-5.187c-6.875,-0 -12.375,5.062 -12.375,10.437c0,3.25 2.688,5.188 6.063,5.188" style="fill-rule:nonzero;"/></g><g><path d="M381.231,410.897c5.563,-0 12.375,-5.125 12.375,-10.438c0,-3.187 -2.5,-5.187 -6.062,-5.187c-6.875,-0 -12.375,5.062 -12.375,10.437c-0,3.25 2.687,5.188 6.062,5.188" style="fill-rule:nonzero;"/></g><g><path d="M417.072,418.647c5.562,-0 12.375,-5.125 12.375,-10.438c-0,-3.187 -2.5,-5.187 -6.063,-5.187c-6.875,-0 -12.375,5.062 -12.375,10.437c0,3.25 2.688,5.188 6.063,5.188" style="fill-rule:nonzero;"/></g><g><path d="M445.784,429.147c-0.375,1.25 -3.312,2.5 -4.75,2.5c-0.375,-0 -0.687,-0.125 -0.75,-0.313c-0.125,-0.25 -0.187,-1.625 -0.187,-3.125c-0,-1.937 0.062,-4.125 0.187,-4.625c0.125,-1.062 3,-2.375 4.563,-2.375c0.437,0 0.812,0.125 0.937,0.375c0.125,0.313 0.25,1.875 0.25,3.563c0,1.687 -0.125,3.437 -0.25,4m4.313,-10.188c0.437,-0.187 0.75,-0.687 0.75,-1.062l-0,-4.438c-0,-0.312 -0.188,-0.5 -0.438,-0.5c-0.125,0 -0.187,0 -0.312,0.063c-0,-0 -1.25,0.5 -1.563,0.562c-0.437,0 -0.875,-0.312 -0.875,-0.812l0,-7.625c0,-0.375 -0.375,-0.688 -0.875,-0.688c-0.625,0 -1,0.313 -1,0.688l0,8.125c-0.062,0.625 -0.25,1.437 -0.812,1.812c-0.75,0.438 -2.875,1.313 -3.938,1.563c-0.562,-0 -0.75,-0.75 -0.75,-1.25l0,-7.5c0,-0.375 -0.437,-0.688 -0.875,-0.688c-0.625,0 -1,0.313 -1,0.688l0,8.437c0,0.875 -0.375,1.5 -0.75,1.688c-0.375,0.187 -1.625,0.687 -1.625,0.687c-0.437,0.125 -0.75,0.625 -0.75,1l0,4.438c0,0.375 0.188,0.562 0.5,0.562c0.25,0 1.438,-0.562 1.625,-0.687c0.063,-0 0.125,-0.063 0.188,-0.063c0.437,0 0.812,0.625 0.812,1.125l0,6.188c0,0.687 -0.312,1.25 -0.687,1.437c-0.375,0.125 -1.688,0.688 -1.688,0.688c-0.437,0.125 -0.75,0.625 -0.75,1l0,4.437c0,0.375 0.188,0.563 0.5,0.563c0.063,-0 0.188,-0.063 0.25,-0.063c0,0 0.875,-0.375 1.438,-0.562c0.062,-0.063 0.125,-0.063 0.187,-0.063c0.438,0 0.75,0.688 0.75,1l0,7.688c0,0.375 0.375,0.687 0.813,0.687c0.625,0 1.062,-0.312 1.062,-0.687l0,-8.688c0,-0.812 0.313,-1.25 0.625,-1.375l3.813,-1.562c0.062,-0 0.187,-0.063 0.25,-0.063c0.5,0 0.812,0.75 0.812,1.125l0,7.813c0,0.375 0.375,0.687 0.813,0.687c0.687,0 1.062,-0.312 1.062,-0.687l0,-8.875c0,-0.5 0.25,-1.25 0.688,-1.438c0.437,-0.187 1.75,-0.687 1.75,-0.687c0.437,-0.188 0.75,-0.688 0.75,-1.063l-0,-4.437c-0,-0.313 -0.188,-0.5 -0.438,-0.5c-0.125,-0 -0.187,-0 -0.312,0.062l-1.625,0.625c-0.375,0 -0.813,-0.375 -0.813,-1.125l0,-5.812c0,-0.438 0.313,-1.625 0.813,-1.813l1.625,-0.625" style="fill-rule:nonzero;"/></g><g><path d="M460.775,434.147c5.563,-0 12.375,-5.125 12.375,-10.438c0,-3.187 -2.5,-5.187 -6.062,-5.187c-6.875,-0 -12.375,5.062 -12.375,10.437c-0,3.25 2.687,5.188 6.062,5.188" style="fill-rule:nonzero;"/></g><g><path d="M489.487,436.897c-0.375,1.25 -3.312,2.5 -4.75,2.5c-0.375,-0 -0.687,-0.125 -0.75,-0.313c-0.125,-0.25 -0.187,-1.625 -0.187,-3.125c-0,-1.937 0.062,-4.125 0.187,-4.625c0.125,-1.062 3,-2.375 4.563,-2.375c0.437,0 0.812,0.125 0.937,0.375c0.125,0.313 0.25,1.875 0.25,3.563c0,1.687 -0.125,3.437 -0.25,4m4.313,-10.188c0.437,-0.187 0.75,-0.687 0.75,-1.062l-0,-4.438c-0,-0.312 -0.188,-0.5 -0.438,-0.5c-0.125,0 -0.187,0 -0.312,0.063c-0,-0 -1.25,0.5 -1.563,0.562c-0.437,0 -0.875,-0.312 -0.875,-0.812l0,-7.625c0,-0.375 -0.375,-0.688 -0.875,-0.688c-0.625,0 -1,0.313 -1,0.688l0,8.125c-0.062,0.625 -0.25,1.437 -0.812,1.812c-0.75,0.438 -2.875,1.313 -3.938,1.563c-0.562,-0 -0.75,-0.75 -0.75,-1.25l0,-7.5c0,-0.375 -0.437,-0.688 -0.875,-0.688c-0.625,0 -1,0.313 -1,0.688l0,8.437c0,0.875 -0.375,1.5 -0.75,1.688c-0.375,0.187 -1.625,0.687 -1.625,0.687c-0.437,0.125 -0.75,0.625 -0.75,1l0,4.438c0,0.375 0.188,0.562 0.5,0.562c0.25,0 1.438,-0.562 1.625,-0.687c0.063,-0 0.125,-0.063 0.188,-0.063c0.437,0 0.812,0.625 0.812,1.125l0,6.188c0,0.687 -0.312,1.25 -0.687,1.437c-0.375,0.125 -1.688,0.688 -1.688,0.688c-0.437,0.125 -0.75,0.625 -0.75,1l0,4.437c0,0.375 0.188,0.563 0.5,0.563c0.063,-0 0.188,-0.063 0.25,-0.063c0,0 0.875,-0.375 1.438,-0.562c0.062,-0.063 0.125,-0.063 0.187,-0.063c0.438,0 0.75,0.688 0.75,1l0,7.688c0,0.375 0.375,0.687 0.813,0.687c0.625,0 1.062,-0.312 1.062,-0.687l0,-8.688c0,-0.812 0.313,-1.25 0.625,-1.375l3.813,-1.562c0.062,-0 0.187,-0.063 0.25,-0.063c0.5,0 0.812,0.75 0.812,1.125l0,7.813c0,0.375 0.375,0.687 0.813,0.687c0.687,0 1.062,-0.312 1.062,-0.687l0,-8.875c0,-0.5 0.25,-1.25 0.688,-1.438c0.437,-0.187 1.75,-0.687 1.75,-0.687c0.437,-0.188 0.75,-0.688 0.75,-1.063l-0,-4.437c-0,-0.313 -0.188,-0.5 -0.438,-0.5c-0.125,-0 -0.187,-0 -0.312,0.062l-1.625,0.625c-0.375,0 -0.813,-0.375 -0.813,-1.125l0,-5.812c0,-0.438 0.313,-1.625 0.813,-1.813l1.625,-0.625" style="fill-rule:nonzero;"/></g><g><path d="M504.478,441.897c5.563,-0 12.375,-5.125 12.375,-10.438c0,-3.187 -2.5,-5.187 -6.062,-5.187c-6.875,-0 -12.375,5.062 -12.375,10.437c-0,3.25 2.687,5.188 6.062,5.188" style="fill-rule:nonzero;"/></g><g><path d="M540.319,449.647c5.562,-0 12.375,-5.125 12.375,-10.438c-0,-3.187 -2.5,-5.187 -6.063,-5.187c-6.875,-0 -12.375,5.062 -12.375,10.437c0,3.25 2.688,5.188 6.063,5.188" style="fill-rule:nonzero;"/></g><g><path d="M576.156,457.397c5.563,-0 12.375,-5.125 12.375,-10.438c0,-3.187 -2.5,-5.187 -6.062,-5.187c-6.875,-0 -12.375,5.062 -12.375,10.437c-0,3.25 2.687,5.188 6.062,5.188" style="fill-rule:nonzero;"/></g><g><path d="M611.997,465.147c5.562,-0 12.375,-5.125 12.375,-10.438c-0,-3.187 -2.5,-5.187 -6.063,-5.187c-6.875,-0 -12.375,5.062 -12.375,10.437c0,3.25 2.688,5.188 6.063,5.188" style="fill-rule:nonzero;"/></g><g><path d="M674.89,453.397c0.688,-2.188 3,-2.5 4.938,-2.5c4.312,-0 7.75,4.625 7.75,8.375c-0,1.937 -0.813,3.687 -2.875,4.187c-0.625,0.188 -1.313,0.25 -1.938,0.25c-2.25,0 -4.562,-1.5 -5.875,-3.25c-1.25,-1.437 -2.187,-3.562 -2.187,-5.562c-0,-0.5 0.062,-1 0.187,-1.5m6.563,-3.875c-8.313,-0 -13.5,3.437 -13.5,7.687c-0,4.188 3.562,7.938 12.875,7.938c10.25,-0 13.5,-3.563 13.5,-7.938c-0,-4.437 -7.063,-7.687 -12.875,-7.687" style="fill-rule:nonzero;"/></g><g><path d="M161.563,386.709c0.187,1.188 0.187,1.125 -0.938,1.5c-5.5,1.875 -9.062,6.813 -9.062,12.125c-0,5.625 2.937,9.625 7.187,11.063c0.5,0.187 1.25,0.375 1.688,0.375c0.5,-0 0.75,-0.313 0.75,-0.688c-0,-0.437 -0.5,-0.625 -0.938,-0.812c-2.625,-1.125 -4.5,-3.813 -4.5,-6.688c0,-3.562 2.438,-6.25 6.25,-7.312c1,-0.25 1.125,-0.188 1.25,0.5l3.125,18.625c0.125,0.687 0.063,0.687 -0.875,0.875c-1,0.187 -2.25,0.312 -3.5,0.312c-10.937,0 -18,-6.062 -18,-14.75c0,-3.687 0.625,-8.625 5.813,-14.5c3.75,-4.187 6.625,-6.5 9.562,-8.875c0.625,-0.5 0.75,-0.437 0.875,0.25l1.313,8m6.812,-42.562c2.063,-0 3.75,1.687 3.75,5.125c0,6.937 -5.937,12.562 -10.875,16.875c-0.437,0.375 -0.687,0.312 -0.812,-0.5c-0.25,-1.625 -0.375,-3.75 -0.375,-5.75c-0,-9.75 4.5,-15.75 8.312,-15.75m-2.5,52.5c-0.125,-0.75 -0.062,-0.938 0.688,-0.875c5.062,0.437 9.25,4.687 9.25,10.187c-0,3.938 -2.375,7.125 -5.875,8.875c-0.75,0.375 -0.875,0.375 -1,-0.375l-3.063,-17.812m-3.375,-19.5c-0.125,-0.75 0,-0.813 0.375,-1.188c6.75,-6.312 11.875,-14.25 11.875,-23.812c0,-5.438 -1.5,-10.813 -4.062,-14.563c-0.938,-1.375 -2.563,-3.125 -3.25,-3.125c-0.875,0 -2.813,1.625 -4.063,3c-4.625,5.125 -6.125,12.938 -6.125,19.438c0,3.625 0.438,7.687 0.875,10.25c0.125,0.75 0.188,0.875 -0.562,1.5c-9,7.437 -18.563,16.375 -18.563,29c0,10.875 7.438,21.187 22.75,21.187c1.438,0 3.063,-0.125 4.313,-0.375c0.687,-0.125 0.812,-0.187 0.937,0.563c0.75,4.187 1.688,9.625 1.688,12.562c-0,9.25 -6.25,10.375 -9.938,10.375c-3.375,0 -5,-1 -5,-1.812c0,-0.438 0.563,-0.625 2,-1.063c1.938,-0.562 4.188,-2.25 4.188,-5.875c-0,-3.437 -2.188,-6.375 -6,-6.375c-4.188,0 -6.688,3.313 -6.688,7.188c0,4.062 2.438,10.187 11.875,10.187c4.188,0 12.313,-1.875 12.313,-12.5c-0,-3.562 -1.125,-9.5 -1.813,-13.375c-0.125,-0.75 -0.062,-0.687 0.813,-1.062c6.312,-2.5 10.5,-7.813 10.5,-14.875c-0,-8 -5.875,-15.063 -15.063,-15.063c-1.625,0 -1.625,0 -1.812,-1.125l-1.563,-9.062" style="fill-rule:nonzero;"/></g><g><text x="339.303px" y="445.897px" style="font-family:'Bravura';font-size:62.5px;"></text></g><g><text x="454.688px" y="471.603px" style="font-family:'Bravura';font-size:62.5px;"></text></g><g><text x="570.072px" y="486.765px" style="font-family:'Bravura';font-size:62.5px;"></text></g><g><path d="M215.782,422.727l-0,-8.019l45.719,11.625l-0,8.019l-45.719,-11.625" style="fill-rule:nonzero;"/></g><g><path d="M320.063,344.958l-0,-7.85l73.531,11.625l0,7.85l-73.531,-11.625" style="fill-rule:nonzero;"/></g><g><path d="M427.594,360.458l0,-7.937l89.25,19.375l0,7.937l-89.25,-19.375" style="fill-rule:nonzero;"/></g><g><path d="M550.813,391.458l-0,-7.762l73.562,3.875l0,7.762l-73.562,-3.875" style="fill-rule:nonzero;"/></g><g><path d="M298.375,434.421l33.188,-0l-0,-2.479l-30.719,0l0,-9.146l-2.469,-0" style="fill-rule:nonzero;"/></g><g><path d="M394.844,434.421l-29.312,-0l-0,-2.479l26.843,0l0,-9.146l2.469,-0" style="fill-rule:nonzero;"/></g><g><path d="M405.907,450.411l41.156,6.828l-0,-2.515l-38.688,-6.416l0,-9.522l-2.468,0" style="fill-rule:nonzero;"/></g><g><path d="M518.094,469.18l-37.281,-6.166l-0,-2.515l34.781,5.953l0,-8.897l2.5,-0" style="fill-rule:nonzero;"/></g><g><path d="M529.125,465.146l33.344,6.656l0,-2.535l-30.844,-6.159l0,-9.587l-2.5,-0" style="fill-rule:nonzero;"/></g><g><path d="M625.594,484.63l-29.469,-5.85l0,-2.534l27,5.596l0,-8.837l2.469,-0" style="fill-rule:nonzero;"/></g></g></svg>