<?xml version="1.0" encoding="UTF-8" standalone="no"?><!DOCTYPE svg PUBLIC "-//W3C//DTD SVG 1.1//EN" "http://www.w3.org/Graphics/SVG/1.1/DTD/svg11.dtd"><svg width="100%" height="100%" viewBox="0 0 6894 1806" version="1.1" xmlns="http://www.w3.org/2000/svg" xmlns:xlink="http://www.w3.org/1999/xlink" xml:space="preserve" xmlns:serif="http://www.serif.com/" style="fill-rule:evenodd;clip-rule:evenodd;stroke-miterlimit:2;"><g><g><path d="M9.41,388.863l6875,-0" style="fill:none;stroke:#000;stroke-width:8.42px;"/><path d="M9.41,453.446l6875,-0" style="fill:none;stroke:#000;stroke-width:8.42px;"/><path d="M9.41,518.029l6875,0" style="fill:none;stroke:#000;stroke-width:8.42px;"/><path d="M9.41,582.613l6875,-0" style="fill:none;stroke:#000;stroke-width:8.42px;"/><path d="M9.41,647.196l6875,-0" style="fill:none;stroke:#000;stroke-width:8.42px;"/></g><g><path d="M2469.7,384.667l-0,266.721" style="fill:none;stroke:#000;stroke-width:10.33px;"/><path d="M4669.16,384.667l0,266.721" style="fill:none;stroke:#000;stroke-width:10.33px;"/><path d="M6879.2,384.667l-0,266.721" style="fill:none;stroke:#000;stroke-width:10.33px;"/></g><g><path d="M434.539,534.029l0,263.775" style="fill:none;stroke:#000;stroke-width:7.75px;"/></g><g><path d="M335.843,776.363l128.517,-0" style="fill:none;stroke:#000;stroke-width:10.33px;"/><path d="M335.843,711.779l128.517,0" style="fill:none;stroke:#000;stroke-width:10.33px;"/></g><g><path d="M605.893,517.883l0,247.629" style="fill:none;stroke:#000;stroke-width:7.75px;"/></g><g><path d="M507.198,776.363l128.383,-0" style="fill:none;stroke:#000;stroke-width:10.33px;"/><path d="M507.198,711.779l128.383,0" style="fill:none;stroke:#000;stroke-width:10.33px;"/></g><g><path d="M777.248,501.738l-0,231.483" style="fill:none;stroke:#000;stroke-width:7.75px;"/></g><g><path d="M678.423,711.779l128.512,0" style="fill:none;stroke:#000;stroke-width:10.33px;"/></g><g><path d="M985.06,469.446l0,231.483" style="fill:none;stroke:#000;stroke-width:7.75px;"/></g><g><path d="M901.339,711.779l113.409,0" style="fill:none;stroke:#000;stroke-width:10.33px;"/></g><g><path d="M1156.29,453.3l0,215.337" style="fill:none;stroke:#000;stroke-width:7.75px;"/><path d="M1327.64,437.154l0,199.192" style="fill:none;stroke:#000;stroke-width:7.75px;"/><path d="M1498.86,404.433l0,199.621" style="fill:none;stroke:#000;stroke-width:7.75px;"/><path d="M1670.22,372.142l0,199.62" style="fill:none;stroke:#000;stroke-width:7.75px;"/><path d="M1841.57,339.854l-0,199.617" style="fill:none;stroke:#000;stroke-width:7.75px;"/><path d="M1943.79,528.875l0,183.2" style="fill:none;stroke:#000;stroke-width:7.75px;"/><path d="M2125.82,496.583l0,190.534" style="fill:none;stroke:#000;stroke-width:7.75px;"/><path d="M2297.17,464.292l-0,199.346" style="fill:none;stroke:#000;stroke-width:7.75px;"/><path d="M2575.82,432l0,215.767" style="fill:none;stroke:#000;stroke-width:7.75px;"/><path d="M2747.04,399.708l0,215.767" style="fill:none;stroke:#000;stroke-width:7.75px;"/><path d="M2918.39,367.417l0,215.766" style="fill:none;stroke:#000;stroke-width:7.75px;"/><path d="M3089.75,335.129l-0,199.163" style="fill:none;stroke:#000;stroke-width:7.75px;"/></g><g><path d="M3060.06,324.279l128.388,0" style="fill:none;stroke:#000;stroke-width:10.33px;"/></g><g><path d="M3260.97,302.838l-0,216.858" style="fill:none;stroke:#000;stroke-width:7.75px;"/></g><g><path d="M3231.28,324.279l128.517,0" style="fill:none;stroke:#000;stroke-width:10.33px;"/></g><g><path d="M3468.78,270.546l0,231.454" style="fill:none;stroke:#000;stroke-width:7.75px;"/></g><g><path d="M3454.2,259.696l113.412,-0" style="fill:none;stroke:#000;stroke-width:10.33px;"/><path d="M3455.24,324.279l112.371,0" style="fill:none;stroke:#000;stroke-width:10.33px;"/></g><g><path d="M3640.12,238.254l0,279.813" style="fill:none;stroke:#000;stroke-width:7.75px;"/></g><g><path d="M3610.45,259.696l128.387,-0" style="fill:none;stroke:#000;stroke-width:10.33px;"/><path d="M3610.45,324.279l128.387,0" style="fill:none;stroke:#000;stroke-width:10.33px;"/></g><g><path d="M3811.37,205.963l0,304.029" style="fill:none;stroke:#000;stroke-width:7.75px;"/></g><g><path d="M3781.66,195.113l128.513,-0" style="fill:none;stroke:#000;stroke-width:10.33px;"/><path d="M3781.66,259.696l128.513,-0" style="fill:none;stroke:#000;stroke-width:10.33px;"/><path d="M3781.66,324.279l128.513,0" style="fill:none;stroke:#000;stroke-width:10.33px;"/></g><g><path d="M3982.7,173.671l-0,328.25" style="fill:none;stroke:#000;stroke-width:7.75px;"/></g><g><path d="M3953.04,195.113l128.383,-0" style="fill:none;stroke:#000;stroke-width:10.33px;"/><path d="M3953.04,259.696l128.383,-0" style="fill:none;stroke:#000;stroke-width:10.33px;"/><path d="M3953.04,324.279l128.383,0" style="fill:none;stroke:#000;stroke-width:10.33px;"/></g><g><path d="M4154.08,141.379l-0,360.646" style="fill:none;stroke:#000;stroke-width:7.75px;"/></g><g><path d="M4124.24,130.529l128.513,0" style="fill:none;stroke:#000;stroke-width:10.33px;"/><path d="M4124.24,195.113l128.513,-0" style="fill:none;stroke:#000;stroke-width:10.33px;"/><path d="M4124.24,259.696l128.513,-0" style="fill:none;stroke:#000;stroke-width:10.33px;"/><path d="M4124.24,324.279l128.513,0" style="fill:none;stroke:#000;stroke-width:10.33px;"/></g><g><path d="M4325.28,173.671l0,344.5" style="fill:none;stroke:#000;stroke-width:7.75px;"/></g><g><path d="M4295.62,195.113l128.513,-0" style="fill:none;stroke:#000;stroke-width:10.33px;"/><path d="M4295.62,259.696l128.513,-0" style="fill:none;stroke:#000;stroke-width:10.33px;"/><path d="M4295.62,324.279l128.513,0" style="fill:none;stroke:#000;stroke-width:10.33px;"/></g><g><path d="M4496.66,205.963l0,328.354" style="fill:none;stroke:#000;stroke-width:7.75px;"/></g><g><path d="M4466.95,195.113l128.383,-0" style="fill:none;stroke:#000;stroke-width:10.33px;"/><path d="M4466.95,259.696l128.383,-0" style="fill:none;stroke:#000;stroke-width:10.33px;"/><path d="M4466.95,324.279l128.383,0" style="fill:none;stroke:#000;stroke-width:10.33px;"/></g><g><path d="M4775.16,238.254l0,263.746" style="fill:none;stroke:#000;stroke-width:7.75px;"/></g><g><path d="M4745.49,259.696l128.517,-0" style="fill:none;stroke:#000;stroke-width:10.33px;"/><path d="M4745.49,324.279l128.517,0" style="fill:none;stroke:#000;stroke-width:10.33px;"/></g><g><path d="M4982.99,270.546l0,249.15" style="fill:none;stroke:#000;stroke-width:7.75px;"/></g><g><path d="M4968.41,259.696l113.283,-0" style="fill:none;stroke:#000;stroke-width:10.33px;"/><path d="M4969.45,324.279l112.241,0" style="fill:none;stroke:#000;stroke-width:10.33px;"/></g><g><path d="M5154.33,302.838l-0,231.454" style="fill:none;stroke:#000;stroke-width:7.75px;"/></g><g><path d="M5124.53,324.279l128.517,0" style="fill:none;stroke:#000;stroke-width:10.33px;"/></g><g><path d="M5325.53,335.129l0,231.479" style="fill:none;stroke:#000;stroke-width:7.75px;"/></g><g><path d="M5295.87,324.279l128.517,0" style="fill:none;stroke:#000;stroke-width:10.33px;"/></g><g><path d="M5496.91,367.417l0,215.337" style="fill:none;stroke:#000;stroke-width:7.75px;"/><path d="M5668.12,399.708l0,199.192" style="fill:none;stroke:#000;stroke-width:7.75px;"/><path d="M5839.49,432l0,199.583" style="fill:none;stroke:#000;stroke-width:7.75px;"/><path d="M6010.83,464.292l-0,198.604" style="fill:none;stroke:#000;stroke-width:7.75px;"/><path d="M6192.74,496.583l0,199.584" style="fill:none;stroke:#000;stroke-width:7.75px;"/><path d="M6433.12,323.954l0,183.225" style="fill:none;stroke:#000;stroke-width:7.75px;"/><path d="M6604.45,348.175l-0.004,191.296" style="fill:none;stroke:#000;stroke-width:7.75px;"/><path d="M6775.7,372.388l-0,199.374" style="fill:none;stroke:#000;stroke-width:7.75px;"/></g><g><path d="M385.152,288.6c-0,0 -0.263,1.042 -0.263,1.825c0,1.042 1.042,2.083 2.084,2.083c0.783,0 1.304,-0.783 1.562,-1.041c0.263,-0.784 3.388,-11.459 4.95,-14.063c0.521,-1.041 1.042,-1.304 1.3,-1.304c0.521,-0 0.783,1.042 0.783,1.825l0,37.237c0,3.125 -2.604,4.95 -5.208,4.95c-1.042,0 -2.346,0.521 -2.346,2.084c0,1.562 1.304,2.083 3.388,2.083l21.875,0c2.083,0 2.083,-2.083 2.083,-2.083c0,-0 0,-2.084 -2.083,-2.084c-1.825,0 -4.167,-2.345 -4.167,-4.687l0,-54.167c0,-2.083 -0.783,-3.125 -2.604,-3.125c-1.825,0 -3.388,0.521 -4.95,0.521c-2.604,0 -3.125,0 -5.208,-0.521c-1.042,0 -2.342,1.563 -3.125,2.605l-8.071,27.862" style="fill-rule:nonzero;"/></g><g><path d="M597.189,303.446c0,-1.825 -0.783,-2.083 -1.562,-2.083c-1.042,-0 -1.563,0.779 -1.825,1.562c-1.3,3.646 -4.167,8.333 -8.071,8.333c-0.521,0 -1.042,0 -1.563,-0.262l-3.908,-1.3c-2.604,-1.042 -8.854,-3.125 -14.062,-3.125c-1.821,-0 -3.384,0.258 -4.946,0.779c2.862,-4.946 16.404,-11.458 19.271,-12.237c9.375,-1.305 17.187,-6.771 17.187,-16.93c0,-6.25 -2.604,-10.416 -5.992,-13.541c-6.77,-5.467 -16.666,-6.25 -19.529,-6.25c-9.375,-0 -16.929,0.521 -23.7,8.333c-1.821,2.083 -2.604,4.167 -2.604,6.25c0,1.825 0.783,3.908 1.563,6.25c1.562,3.125 4.95,5.471 8.595,5.471c6.509,-0 7.292,-6.25 7.292,-9.117c0,-5.987 -6.512,-6.508 -6.512,-9.112c-0,-1.825 2.604,-4.95 10.416,-4.95c12.242,-0 16.409,10.158 16.409,13.283c-0,4.688 -1.563,9.113 -4.167,12.758c-4.688,5.992 -13.283,8.075 -19.792,12.242c-7.291,4.425 -12.241,11.979 -14.583,20.313c-0,1.82 0.779,3.904 2.342,4.687c0.262,0.258 0.783,0.258 1.041,0.258c2.867,0 4.429,-8.07 12.242,-8.07c5.208,-0 7.029,7.029 18.75,7.029c5.467,-0 15.625,-0.521 17.708,-20.571" style="fill-rule:nonzero;"/></g><g><path d="M756.543,300.842l0,-27.867c0,-1.3 -0.262,-2.342 -1.562,-2.342c-1.042,0 -1.825,0.259 -2.604,1.3l-7.813,15.105c-0.521,0.52 -1.304,1.304 -1.304,3.125l0,10.679l-16.925,-0c10.675,-8.854 27.342,-38.284 27.604,-39.846c0,-0.258 0.259,-0.521 0.259,-0.779c-0,-1.042 -1.042,-1.825 -1.821,-1.825c-1.304,-0 -6.771,0.521 -9.117,0.521c-2.342,-0 -3.904,-0.521 -4.946,-0.521c-1.304,-0 -3.125,0.521 -3.125,2.604c0,16.667 -13.541,35.679 -16.929,40.367c-0.521,0.52 -1.042,1.3 -1.042,2.083c0,1.3 1.042,2.604 2.605,2.604l23.437,0l0,8.071c0,3.646 -2.083,4.687 -4.167,4.687c-2.341,0 -3.383,1.042 -3.383,2.346c0,1.3 0.521,2.863 2.863,2.863l22.395,-0c1.305,-0 2.605,-1.042 2.605,-2.863c-0,-1.825 -1.563,-2.604 -2.863,-2.604c-1.304,0 -4.167,-0.783 -4.167,-4.95l0,-7.55l9.634,0c1.304,0 2.083,-1.042 2.083,-2.604c0,-1.563 -0.521,-2.604 -2.083,-2.604l-9.634,-0" style="fill-rule:nonzero;"/></g><g><path d="M935.556,288.6c-0,0 -0.263,1.042 -0.263,1.825c0,1.042 1.042,2.083 2.084,2.083c0.783,0 1.304,-0.783 1.562,-1.041c0.263,-0.784 3.388,-11.459 4.95,-14.063c0.521,-1.041 1.042,-1.304 1.304,-1.304c0.521,-0 0.78,1.042 0.78,1.825l-0,37.237c-0,3.125 -2.605,4.95 -5.209,4.95c-1.041,0 -2.346,0.521 -2.346,2.084c0,1.562 1.305,2.083 3.388,2.083l21.875,0c2.083,0 2.083,-2.083 2.083,-2.083c0,-0 0,-2.084 -2.083,-2.084c-1.825,0 -4.167,-2.345 -4.167,-4.687l0,-54.167c0,-2.083 -0.783,-3.125 -2.604,-3.125c-1.825,0 -3.387,0.521 -4.95,0.521c-2.604,0 -3.125,0 -5.208,-0.521c-1.042,0 -2.342,1.563 -3.125,2.605l-8.071,27.862" style="fill-rule:nonzero;"/></g><g><path d="M1147.59,303.446c0,-1.825 -0.783,-2.083 -1.562,-2.083c-1.042,-0 -1.563,0.779 -1.825,1.562c-1.3,3.646 -4.167,8.333 -8.071,8.333c-0.521,0 -1.042,0 -1.563,-0.262l-3.908,-1.3c-2.604,-1.042 -8.854,-3.125 -14.062,-3.125c-1.821,-0 -3.384,0.258 -4.946,0.779c2.862,-4.946 16.404,-11.458 19.271,-12.237c9.375,-1.305 17.187,-6.771 17.187,-16.93c0,-6.25 -2.604,-10.416 -5.992,-13.541c-6.77,-5.467 -16.666,-6.25 -19.529,-6.25c-9.375,-0 -16.929,0.521 -23.7,8.333c-1.821,2.083 -2.604,4.167 -2.604,6.25c0,1.825 0.783,3.908 1.563,6.25c1.562,3.125 4.95,5.471 8.595,5.471c6.509,-0 7.292,-6.25 7.292,-9.117c0,-5.987 -6.512,-6.508 -6.512,-9.112c-0,-1.825 2.604,-4.95 10.416,-4.95c12.242,-0 16.409,10.158 16.409,13.283c-0,4.688 -1.563,9.113 -4.167,12.758c-4.688,5.992 -13.283,8.075 -19.792,12.242c-7.291,4.425 -12.241,11.979 -14.583,20.313c-0,1.82 0.779,3.904 2.342,4.687c0.262,0.258 0.783,0.258 1.041,0.258c2.867,0 4.429,-8.07 12.242,-8.07c5.208,-0 7.029,7.029 18.75,7.029c5.467,-0 15.625,-0.521 17.708,-20.571" style="fill-rule:nonzero;"/></g><g><path d="M1306.95,300.842l-0,-27.867c-0,-1.3 -0.259,-2.342 -1.563,-2.342c-1.042,0 -1.821,0.259 -2.604,1.3l-7.813,15.105c-0.52,0.52 -1.3,1.304 -1.3,3.125l0,10.679l-16.929,-0c10.679,-8.854 27.346,-38.284 27.604,-39.846c0,-0.258 0.263,-0.521 0.263,-0.779c-0,-1.042 -1.042,-1.825 -1.825,-1.825c-1.3,-0 -6.771,0.521 -9.113,0.521c-2.345,-0 -3.908,-0.521 -4.95,-0.521c-1.3,-0 -3.125,0.521 -3.125,2.604c0,16.667 -13.541,35.679 -16.925,40.367c-0.52,0.52 -1.041,1.3 -1.041,2.083c-0,1.3 1.041,2.604 2.604,2.604l23.437,0l0,8.071c0,3.646 -2.083,4.687 -4.166,4.687c-2.346,0 -3.388,1.042 -3.388,2.346c0,1.3 0.521,2.863 2.867,2.863l22.396,-0c1.3,-0 2.604,-1.042 2.604,-2.863c-0,-1.825 -1.563,-2.604 -2.867,-2.604c-1.3,0 -4.166,-0.783 -4.166,-4.95l-0,-7.55l9.637,0c1.3,0 2.083,-1.042 2.083,-2.604c0,-1.563 -0.52,-2.604 -2.083,-2.604l-9.637,-0" style="fill-rule:nonzero;"/></g><g><path d="M1478.25,300.842l-0,-27.867c-0,-1.3 -0.263,-2.342 -1.563,-2.342c-1.041,0 -1.825,0.259 -2.604,1.3l-7.812,15.105c-0.521,0.52 -1.305,1.304 -1.305,3.125l0,10.679l-16.925,-0c10.675,-8.854 27.342,-38.284 27.605,-39.846c-0,-0.258 0.258,-0.521 0.258,-0.779c-0,-1.042 -1.042,-1.825 -1.821,-1.825c-1.304,-0 -6.771,0.521 -9.117,0.521c-2.341,-0 -3.904,-0.521 -4.945,-0.521c-1.305,-0 -3.125,0.521 -3.125,2.604c-0,16.667 -13.542,35.679 -16.93,40.367c-0.52,0.52 -1.041,1.3 -1.041,2.083c-0,1.3 1.041,2.604 2.604,2.604l23.437,0l0,8.071c0,3.646 -2.083,4.687 -4.166,4.687c-2.342,0 -3.384,1.042 -3.384,2.346c0,1.3 0.521,2.863 2.863,2.863l22.396,-0c1.304,-0 2.604,-1.042 2.604,-2.863c-0,-1.825 -1.563,-2.604 -2.863,-2.604c-1.304,0 -4.166,-0.783 -4.166,-4.95l-0,-7.55l9.633,0c1.304,0 2.083,-1.042 2.083,-2.604c0,-1.563 -0.52,-2.604 -2.083,-2.604l-9.633,-0" style="fill-rule:nonzero;"/></g><g><path d="M1620.76,288.6c0,0 -0.262,1.042 -0.262,1.825c-0,1.042 1.041,2.083 2.083,2.083c0.783,0 1.304,-0.783 1.563,-1.041c0.262,-0.784 3.387,-11.459 4.95,-14.063c0.52,-1.041 1.041,-1.304 1.304,-1.304c0.521,-0 0.779,1.042 0.779,1.825l-0,37.237c-0,3.125 -2.604,4.95 -5.208,4.95c-1.042,0 -2.346,0.521 -2.346,2.084c-0,1.562 1.304,2.083 3.387,2.083l21.875,0c2.084,0 2.084,-2.083 2.084,-2.083c-0,-0 -0,-2.084 -2.084,-2.084c-1.825,0 -4.166,-2.345 -4.166,-4.687l-0,-54.167c-0,-2.083 -0.784,-3.125 -2.605,-3.125c-1.825,0 -3.387,0.521 -4.95,0.521c-2.604,0 -3.125,0 -5.208,-0.521c-1.042,0 -2.342,1.563 -3.125,2.605l-8.071,27.862" style="fill-rule:nonzero;"/></g><g><path d="M1832.8,270.5c-0,-1.821 -0.784,-2.083 -1.563,-2.083c-1.042,-0 -1.562,0.783 -1.825,1.562c-1.304,3.646 -4.167,8.334 -8.075,8.334c-0.521,-0 -1.042,-0 -1.562,-0.259l-3.905,-1.304c-2.604,-1.042 -8.854,-3.125 -14.062,-3.125c-1.825,0 -3.388,0.263 -4.95,0.783c2.867,-4.95 16.408,-11.458 19.271,-12.241c9.375,-1.3 17.187,-6.771 17.187,-16.925c0,-6.25 -2.604,-10.417 -5.987,-13.542c-6.771,-5.471 -16.667,-6.25 -19.534,-6.25c-9.375,0 -16.925,0.521 -23.695,8.333c-1.825,2.084 -2.605,4.167 -2.605,6.25c0,1.821 0.784,3.905 1.563,6.25c1.562,3.125 4.95,5.467 8.596,5.467c6.508,0 7.291,-6.25 7.291,-9.112c0,-5.992 -6.512,-6.513 -6.512,-9.117c-0,-1.821 2.604,-4.946 10.417,-4.946c12.241,0 16.408,10.154 16.408,13.279c-0,4.688 -1.563,9.117 -4.167,12.763c-4.687,5.987 -13.283,8.071 -19.791,12.237c-7.292,4.429 -12.242,11.979 -14.584,20.313c0,1.825 0.779,3.908 2.342,4.687c0.262,0.263 0.783,0.263 1.042,0.263c2.866,-0 4.429,-8.075 12.241,-8.075c5.209,-0 7.029,7.033 18.75,7.033c5.467,0 15.625,-0.521 17.709,-20.575" style="fill-rule:nonzero;"/></g><g><path d="M1992.16,300.842l-0,-27.867c-0,-1.3 -0.258,-2.342 -1.563,-2.342c-1.041,0 -1.82,0.259 -2.604,1.3l-7.812,15.105c-0.521,0.52 -1.3,1.304 -1.3,3.125l-0,10.679l-16.929,-0c10.679,-8.854 27.345,-38.284 27.604,-39.846c-0,-0.258 0.262,-0.521 0.262,-0.779c0,-1.042 -1.041,-1.825 -1.825,-1.825c-1.3,-0 -6.771,0.521 -9.112,0.521c-2.346,-0 -3.909,-0.521 -4.95,-0.521c-1.3,-0 -3.125,0.521 -3.125,2.604c-0,16.667 -13.542,35.679 -16.925,40.367c-0.521,0.52 -1.042,1.3 -1.042,2.083c0,1.3 1.042,2.604 2.604,2.604l23.438,0l-0,8.071c-0,3.646 -2.084,4.687 -4.167,4.687c-2.346,0 -3.387,1.042 -3.387,2.346c-0,1.3 0.52,2.863 2.866,2.863l22.396,-0c1.3,-0 2.604,-1.042 2.604,-2.863c0,-1.825 -1.562,-2.604 -2.866,-2.604c-1.3,0 -4.167,-0.783 -4.167,-4.95l-0,-7.55l9.637,0c1.3,0 2.084,-1.042 2.084,-2.604c-0,-1.563 -0.521,-2.604 -2.084,-2.604l-9.637,-0" style="fill-rule:nonzero;"/></g><g><path d="M2145.46,288.6c0,0 -0.258,1.042 -0.258,1.825c-0,1.042 1.042,2.083 2.083,2.083c0.779,0 1.3,-0.783 1.563,-1.041c0.258,-0.784 3.383,-11.459 4.946,-14.063c0.52,-1.041 1.041,-1.304 1.304,-1.304c0.521,-0 0.779,1.042 0.779,1.825l-0,37.237c-0,3.125 -2.604,4.95 -5.208,4.95c-1.042,0 -2.342,0.521 -2.342,2.084c-0,1.562 1.3,2.083 3.383,2.083l21.875,0c2.084,0 2.084,-2.083 2.084,-2.083c-0,-0 -0,-2.084 -2.084,-2.084c-1.821,0 -4.166,-2.345 -4.166,-4.687l-0,-54.167c-0,-2.083 -0.78,-3.125 -2.605,-3.125c-1.82,0 -3.383,0.521 -4.945,0.521c-2.605,0 -3.125,0 -5.209,-0.521c-1.041,0 -2.346,1.563 -3.125,2.605l-8.075,27.862" style="fill-rule:nonzero;"/></g><g><path d="M2357.5,303.446c-0,-1.825 -0.784,-2.083 -1.563,-2.083c-1.042,-0 -1.562,0.779 -1.825,1.562c-1.3,3.646 -4.167,8.333 -8.071,8.333c-0.521,0 -1.041,0 -1.562,-0.262l-3.909,-1.3c-2.604,-1.042 -8.854,-3.125 -14.062,-3.125c-1.821,-0 -3.383,0.258 -4.946,0.779c2.863,-4.946 16.404,-11.458 19.271,-12.237c9.375,-1.305 17.187,-6.771 17.187,-16.93c0,-6.25 -2.604,-10.416 -5.991,-13.541c-6.771,-5.467 -16.667,-6.25 -19.529,-6.25c-9.375,-0 -16.93,0.521 -23.7,8.333c-1.821,2.083 -2.605,4.167 -2.605,6.25c0,1.825 0.784,3.908 1.563,6.25c1.562,3.125 4.95,5.471 8.596,5.471c6.508,-0 7.291,-6.25 7.291,-9.117c0,-5.987 -6.512,-6.508 -6.512,-9.112c-0,-1.825 2.604,-4.95 10.417,-4.95c12.241,-0 16.408,10.158 16.408,13.283c-0,4.688 -1.563,9.113 -4.167,12.758c-4.687,5.992 -13.283,8.075 -19.791,12.242c-7.292,4.425 -12.242,11.979 -14.584,20.313c0,1.82 0.779,3.904 2.342,4.687c0.262,0.258 0.783,0.258 1.042,0.258c2.866,0 4.429,-8.07 12.241,-8.07c5.209,-0 7.029,7.029 18.75,7.029c5.467,-0 15.625,-0.521 17.709,-20.571" style="fill-rule:nonzero;"/></g><g><path d="M2624.19,300.842l0,-27.867c0,-1.3 -0.262,-2.342 -1.562,-2.342c-1.042,0 -1.825,0.259 -2.604,1.3l-7.813,15.105c-0.521,0.52 -1.304,1.304 -1.304,3.125l-0,10.679l-16.925,-0c10.675,-8.854 27.342,-38.284 27.604,-39.846c0,-0.258 0.258,-0.521 0.258,-0.779c0,-1.042 -1.041,-1.825 -1.82,-1.825c-1.305,-0 -6.771,0.521 -9.117,0.521c-2.342,-0 -3.904,-0.521 -4.946,-0.521c-1.304,-0 -3.125,0.521 -3.125,2.604c0,16.667 -13.542,35.679 -16.929,40.367c-0.521,0.52 -1.042,1.3 -1.042,2.083c0,1.3 1.042,2.604 2.604,2.604l23.438,0l-0,8.071c-0,3.646 -2.083,4.687 -4.167,4.687c-2.341,0 -3.383,1.042 -3.383,2.346c-0,1.3 0.521,2.863 2.862,2.863l22.396,-0c1.304,-0 2.604,-1.042 2.604,-2.863c0,-1.825 -1.562,-2.604 -2.862,-2.604c-1.304,0 -4.167,-0.783 -4.167,-4.95l0,-7.55l9.634,0c1.304,0 2.083,-1.042 2.083,-2.604c-0,-1.563 -0.521,-2.604 -2.083,-2.604l-9.634,-0" style="fill-rule:nonzero;"/></g><g><path d="M2795.49,300.783l0,-27.866c0,-1.3 -0.258,-2.342 -1.562,-2.342c-1.042,0 -1.821,0.258 -2.604,1.3l-7.813,15.104c-0.521,0.521 -1.3,1.304 -1.3,3.125l0,10.679l-16.929,0c10.679,-8.854 27.346,-38.283 27.604,-39.845c0,-0.259 0.263,-0.521 0.263,-0.78c-0,-1.041 -1.042,-1.825 -1.825,-1.825c-1.3,0 -6.771,0.521 -9.113,0.521c-2.346,0 -3.908,-0.521 -4.95,-0.521c-1.3,0 -3.125,0.521 -3.125,2.605c0,16.666 -13.542,35.679 -16.925,40.366c-0.521,0.521 -1.042,1.3 -1.042,2.084c0,1.3 1.042,2.604 2.605,2.604l23.437,-0l0,8.071c0,3.645 -2.083,4.687 -4.167,4.687c-2.345,0 -3.387,1.042 -3.387,2.346c-0,1.3 0.521,2.862 2.867,2.862l22.395,0c1.3,0 2.605,-1.041 2.605,-2.862c-0,-1.825 -1.563,-2.604 -2.867,-2.604c-1.3,-0 -4.167,-0.784 -4.167,-4.95l0,-7.55l9.638,-0c1.3,-0 2.083,-1.042 2.083,-2.605c0,-1.562 -0.521,-2.604 -2.083,-2.604l-9.638,0" style="fill-rule:nonzero;"/></g><g><path d="M2938.01,256.05c-0,0 -0.263,1.042 -0.263,1.821c0,1.041 1.042,2.083 2.084,2.083c0.783,0 1.304,-0.779 1.562,-1.042c0.263,-0.779 3.388,-11.458 4.95,-14.062c0.521,-1.042 1.042,-1.3 1.3,-1.3c0.521,0 0.784,1.042 0.784,1.821l-0,37.242c-0,3.125 -2.605,4.945 -5.209,4.945c-1.041,0 -2.346,0.521 -2.346,2.084c0,1.562 1.305,2.083 3.388,2.083l21.875,-0c2.083,-0 2.083,-2.083 2.083,-2.083c0,-0 0,-2.084 -2.083,-2.084c-1.825,0 -4.167,-2.341 -4.167,-4.687l0,-54.167c0,-2.083 -0.783,-3.125 -2.604,-3.125c-1.825,0 -3.387,0.521 -4.95,0.521c-2.604,0 -3.125,0 -5.208,-0.521c-1.042,0 -2.346,1.563 -3.125,2.604l-8.075,27.867" style="fill-rule:nonzero;"/></g><g><path d="M3150.05,237.788c-0,-1.825 -0.78,-2.084 -1.563,-2.084c-1.042,0 -1.562,0.779 -1.821,1.563c-1.304,3.646 -4.166,8.333 -8.075,8.333c-0.521,0 -1.041,0 -1.562,-0.262l-3.904,-1.3c-2.605,-1.042 -8.855,-3.125 -14.063,-3.125c-1.825,-0 -3.387,0.258 -4.95,0.779c2.867,-4.946 16.408,-11.459 19.271,-12.238c9.375,-1.304 17.187,-6.771 17.187,-16.929c0,-6.25 -2.604,-10.417 -5.987,-13.542c-6.771,-5.466 -16.667,-6.25 -19.533,-6.25c-9.375,0 -16.925,0.521 -23.696,8.334c-1.825,2.083 -2.604,4.166 -2.604,6.25c-0,1.825 0.779,3.908 1.562,6.25c1.563,3.125 4.946,5.471 8.592,5.471c6.512,-0 7.291,-6.25 7.291,-9.117c0,-5.988 -6.508,-6.508 -6.508,-9.113c0,-1.825 2.604,-4.95 10.417,-4.95c12.237,0 16.404,10.159 16.404,13.284c-0,4.687 -1.563,9.112 -4.167,12.758c-4.687,5.992 -13.279,8.075 -19.791,12.242c-7.292,4.425 -12.238,11.979 -14.584,20.312c0,1.821 0.784,3.904 2.346,4.688c0.258,0.258 0.779,0.258 1.042,0.258c2.862,0 4.425,-8.071 12.237,-8.071c5.209,0 7.034,7.029 18.75,7.029c5.471,0 15.625,-0.52 17.709,-20.57" style="fill-rule:nonzero;"/></g><g><path d="M3309.4,203.908l-0,-27.866c-0,-1.3 -0.263,-2.342 -1.563,-2.342c-1.042,0 -1.825,0.258 -2.604,1.3l-7.813,15.104c-0.52,0.521 -1.304,1.304 -1.304,3.125l0,10.679l-16.925,0c10.675,-8.854 27.342,-38.283 27.604,-39.845c0,-0.259 0.259,-0.521 0.259,-0.78c-0,-1.041 -1.042,-1.825 -1.821,-1.825c-1.304,0 -6.771,0.521 -9.117,0.521c-2.341,0 -3.904,-0.521 -4.946,-0.521c-1.304,0 -3.125,0.521 -3.125,2.605c0,16.666 -13.541,35.679 -16.929,40.366c-0.521,0.521 -1.041,1.3 -1.041,2.084c-0,1.3 1.041,2.604 2.604,2.604l23.437,-0l0,8.071c0,3.645 -2.083,4.687 -4.166,4.687c-2.342,0 -3.384,1.042 -3.384,2.346c0,1.3 0.521,2.862 2.863,2.862l22.396,0c1.304,0 2.604,-1.041 2.604,-2.862c-0,-1.825 -1.563,-2.604 -2.863,-2.604c-1.304,-0 -4.166,-0.784 -4.166,-4.95l-0,-7.55l9.633,-0c1.304,-0 2.083,-1.042 2.083,-2.605c0,-1.562 -0.521,-2.604 -2.083,-2.604l-9.633,0" style="fill-rule:nonzero;"/></g><g><path d="M3488.41,159.175c-0,0 -0.258,1.042 -0.258,1.821c-0,1.042 1.041,2.083 2.083,2.083c0.779,0 1.3,-0.779 1.562,-1.041c0.259,-0.78 3.384,-11.459 4.946,-14.063c0.521,-1.042 1.042,-1.3 1.304,-1.3c0.521,0 0.78,1.042 0.78,1.821l-0,37.242c-0,3.125 -2.605,4.945 -5.209,4.945c-1.041,0 -2.341,0.521 -2.341,2.084c-0,1.562 1.3,2.083 3.383,2.083l21.875,0c2.083,0 2.083,-2.083 2.083,-2.083c0,-0 0,-2.084 -2.083,-2.084c-1.821,0 -4.167,-2.341 -4.167,-4.687l0,-54.167c0,-2.083 -0.779,-3.125 -2.604,-3.125c-1.821,0 -3.383,0.521 -4.946,0.521c-2.604,0 -3.125,0 -5.208,-0.521c-1.042,0 -2.346,1.563 -3.125,2.604l-8.075,27.867" style="fill-rule:nonzero;"/></g><g><path d="M3700.45,140.913c-0,-1.826 -0.784,-2.084 -1.563,-2.084c-1.041,0 -1.562,0.779 -1.825,1.563c-1.3,3.646 -4.166,8.333 -8.071,8.333c-0.52,0 -1.041,0 -1.562,-0.262l-3.908,-1.3c-2.605,-1.042 -8.855,-3.125 -14.063,-3.125c-1.821,-0 -3.383,0.258 -4.946,0.779c2.863,-4.946 16.404,-11.459 19.271,-12.238c9.375,-1.304 17.188,-6.771 17.188,-16.929c-0,-6.25 -2.605,-10.417 -5.992,-13.542c-6.771,-5.466 -16.667,-6.25 -19.529,-6.25c-9.375,0 -16.929,0.521 -23.7,8.334c-1.821,2.083 -2.604,4.166 -2.604,6.25c-0,1.825 0.783,3.908 1.562,6.25c1.563,3.125 4.95,5.471 8.596,5.471c6.508,-0 7.292,-6.25 7.292,-9.117c-0,-5.988 -6.513,-6.508 -6.513,-9.113c0,-1.825 2.604,-4.95 10.417,-4.95c12.241,0 16.408,10.159 16.408,13.284c0,4.687 -1.562,9.112 -4.167,12.758c-4.687,5.992 -13.283,8.075 -19.791,12.242c-7.292,4.425 -12.242,11.979 -14.584,20.312c0,1.821 0.78,3.904 2.342,4.688c0.263,0.258 0.783,0.258 1.042,0.258c2.866,0 4.429,-8.071 12.241,-8.071c5.209,0 7.03,7.029 18.75,7.029c5.467,0 15.625,-0.52 17.709,-20.57" style="fill-rule:nonzero;"/></g><g><path d="M3843.24,64.642c-14.325,-0 -20.575,9.637 -20.575,15.104c0,3.646 2.084,8.075 8.596,8.333c4.946,0 7.292,-3.125 7.292,-6.508l-0,-1.042c-0.263,-3.908 -2.867,-4.166 -3.388,-4.429c-0.52,-0.258 -1.562,-1.3 -1.562,-3.125c0.521,-2.862 4.429,-3.904 5.471,-3.904c13.279,-0 17.187,7.029 17.187,11.458c0,12.238 -12.5,13.279 -16.408,13.542c-1.821,-0 -3.646,0.779 -3.646,2.342c0,1.562 2.346,1.562 3.388,1.562c15.104,0 17.187,7.813 17.187,11.721c0,15.104 -12.242,15.625 -15.367,15.625c-1.562,-0 -4.166,-0.783 -4.425,-2.083l0,-1.563c0,-2.867 0.78,-5.992 1.042,-8.596c0,-4.687 -3.125,-7.55 -7.812,-7.55l-1.042,0c-1.825,0.521 -3.646,1.563 -4.95,2.863c-1.821,1.562 -2.342,3.908 -2.342,6.25c0.259,8.333 7.55,15.366 20.571,15.625l1.563,-0c12.762,-0 26.041,-6.771 26.041,-18.229c0,-2.605 -0.521,-4.688 -1.3,-6.25c-0.521,-1.563 -1.562,-2.863 -2.604,-3.905c-0.783,-1.041 -1.825,-1.825 -2.867,-2.604l-2.862,-1.562l-1.563,-0.521c-0.52,-0 -0.783,-0.263 -1.304,-0.263l-1.562,-0.52c-0.779,-0.259 -1.042,-0 -1.3,-0.521c-0.263,-0.259 -0.263,-0.521 -0.263,-0.779c0,-0.521 0.263,-1.042 0.784,-1.042l4.166,-1.304c1.821,-1.042 3.646,-1.821 4.946,-3.646c2.083,-2.083 2.867,-5.467 2.867,-8.333c-0,-12.238 -16.146,-15.625 -21.875,-16.146l-2.084,-0" style="fill-rule:nonzero;"/></g><g><path d="M4031.12,74.742l0,-27.867c0,-1.3 -0.258,-2.342 -1.562,-2.342c-1.042,0 -1.821,0.259 -2.604,1.3l-7.813,15.105c-0.521,0.52 -1.3,1.304 -1.3,3.125l0,10.679l-16.929,-0c10.679,-8.854 27.346,-38.284 27.604,-39.846c0,-0.258 0.263,-0.521 0.263,-0.779c-0,-1.042 -1.042,-1.825 -1.825,-1.825c-1.3,-0 -6.771,0.521 -9.113,0.521c-2.346,-0 -3.908,-0.521 -4.95,-0.521c-1.3,-0 -3.125,0.521 -3.125,2.604c0,16.667 -13.541,35.679 -16.925,40.367c-0.521,0.52 -1.041,1.3 -1.041,2.083c-0,1.3 1.041,2.604 2.604,2.604l23.437,0l0,8.071c0,3.646 -2.083,4.687 -4.166,4.687c-2.346,0 -3.388,1.042 -3.388,2.346c0,1.3 0.521,2.863 2.867,2.863l22.396,-0c1.3,-0 2.604,-1.042 2.604,-2.863c-0,-1.825 -1.563,-2.604 -2.867,-2.604c-1.3,0 -4.167,-0.783 -4.167,-4.95l0,-7.55l9.638,0c1.3,0 2.083,-1.042 2.083,-2.604c0,-1.563 -0.521,-2.604 -2.083,-2.604l-9.638,-0" style="fill-rule:nonzero;"/></g><g><path d="M4202.41,42.45l0,-27.867c0,-1.3 -0.262,-2.341 -1.562,-2.341c-1.042,-0 -1.825,0.258 -2.605,1.3l-7.812,15.104c-0.521,0.521 -1.304,1.304 -1.304,3.125l-0,10.679l-16.925,0c10.675,-8.854 27.341,-38.283 27.604,-39.846c-0,-0.258 0.258,-0.521 0.258,-0.779c0,-1.042 -1.041,-1.825 -1.821,-1.825c-1.304,0 -6.77,0.521 -9.116,0.521c-2.342,-0 -3.904,-0.521 -4.946,-0.521c-1.304,0 -3.125,0.521 -3.125,2.604c-0,16.667 -13.542,35.679 -16.929,40.367c-0.521,0.521 -1.042,1.3 -1.042,2.083c0,1.3 1.042,2.604 2.604,2.604l23.438,0l-0,8.071c-0,3.646 -2.084,4.688 -4.167,4.688c-2.342,-0 -3.383,1.041 -3.383,2.346c-0,1.299 0.521,2.862 2.862,2.862l22.396,0c1.304,0 2.604,-1.042 2.604,-2.862c0,-1.825 -1.562,-2.605 -2.862,-2.605c-1.304,0 -4.167,-0.783 -4.167,-4.95l0,-7.55l9.633,0c1.305,0 2.084,-1.041 2.084,-2.604c-0,-1.562 -0.521,-2.604 -2.084,-2.604l-9.633,0" style="fill-rule:nonzero;"/></g><g><path d="M4373.7,74.742l-0,-27.867c-0,-1.3 -0.259,-2.342 -1.563,-2.342c-1.041,0 -1.821,0.259 -2.604,1.3l-7.812,15.105c-0.521,0.52 -1.3,1.304 -1.3,3.125l-0,10.679l-16.93,-0c10.68,-8.854 27.346,-38.284 27.605,-39.846c-0,-0.258 0.262,-0.521 0.262,-0.779c0,-1.042 -1.042,-1.825 -1.825,-1.825c-1.3,-0 -6.771,0.521 -9.112,0.521c-2.346,-0 -3.909,-0.521 -4.95,-0.521c-1.3,-0 -3.125,0.521 -3.125,2.604c-0,16.667 -13.542,35.679 -16.925,40.367c-0.521,0.52 -1.042,1.3 -1.042,2.083c-0,1.3 1.042,2.604 2.604,2.604l23.438,0l-0,8.071c-0,3.646 -2.084,4.687 -4.167,4.687c-2.346,0 -3.388,1.042 -3.388,2.346c0,1.3 0.521,2.863 2.867,2.863l22.396,-0c1.3,-0 2.604,-1.042 2.604,-2.863c0,-1.825 -1.562,-2.604 -2.867,-2.604c-1.3,0 -4.166,-0.783 -4.166,-4.95l-0,-7.55l9.637,0c1.3,0 2.084,-1.042 2.084,-2.604c-0,-1.563 -0.521,-2.604 -2.084,-2.604l-9.637,-0" style="fill-rule:nonzero;"/></g><g><path d="M4528.45,64.642c-14.325,-0 -20.575,9.637 -20.575,15.104c-0,3.646 2.083,8.075 8.596,8.333c4.945,0 7.291,-3.125 7.291,-6.508l0,-1.042c-0.262,-3.908 -2.866,-4.166 -3.387,-4.429c-0.521,-0.258 -1.563,-1.3 -1.563,-3.125c0.521,-2.862 4.429,-3.904 5.471,-3.904c13.279,-0 17.188,7.029 17.188,11.458c-0,12.238 -12.5,13.279 -16.409,13.542c-1.821,-0 -3.646,0.779 -3.646,2.342c0,1.562 2.346,1.562 3.388,1.562c15.104,0 17.187,7.813 17.187,11.721c0,15.104 -12.241,15.625 -15.366,15.625c-1.563,-0 -4.167,-0.783 -4.425,-2.083l-0,-1.563c-0,-2.867 0.779,-5.992 1.041,-8.596c0,-4.687 -3.125,-7.55 -7.812,-7.55l-1.042,0c-1.825,0.521 -3.646,1.563 -4.95,2.863c-1.821,1.562 -2.341,3.908 -2.341,6.25c0.258,8.333 7.55,15.366 20.57,15.625l1.563,-0c12.762,-0 26.042,-6.771 26.042,-18.229c-0,-2.605 -0.521,-4.688 -1.3,-6.25c-0.521,-1.563 -1.563,-2.863 -2.605,-3.905c-0.783,-1.041 -1.825,-1.825 -2.866,-2.604l-2.863,-1.562l-1.562,-0.521c-0.521,-0 -0.784,-0.263 -1.304,-0.263l-1.563,-0.52c-0.779,-0.259 -1.042,-0 -1.3,-0.521c-0.262,-0.259 -0.262,-0.521 -0.262,-0.779c-0,-0.521 0.262,-1.042 0.783,-1.042l4.167,-1.304c1.82,-1.042 3.645,-1.821 4.945,-3.646c2.084,-2.083 2.867,-5.467 2.867,-8.333c0,-12.238 -16.146,-15.625 -21.875,-16.146l-2.083,-0" style="fill-rule:nonzero;"/></g><g><path d="M4835.49,140.913c0,-1.826 -0.783,-2.084 -1.562,-2.084c-1.042,0 -1.563,0.779 -1.825,1.563c-1.3,3.646 -4.167,8.333 -8.071,8.333c-0.521,0 -1.042,0 -1.562,-0.262l-3.909,-1.3c-2.604,-1.042 -8.854,-3.125 -14.062,-3.125c-1.821,-0 -3.384,0.258 -4.946,0.779c2.862,-4.946 16.404,-11.459 19.271,-12.238c9.375,-1.304 17.187,-6.771 17.187,-16.929c0,-6.25 -2.604,-10.417 -5.991,-13.542c-6.771,-5.466 -16.667,-6.25 -19.53,-6.25c-9.375,0 -16.929,0.521 -23.7,8.334c-1.82,2.083 -2.604,4.166 -2.604,6.25c0,1.825 0.784,3.908 1.563,6.25c1.562,3.125 4.95,5.471 8.596,5.471c6.508,-0 7.291,-6.25 7.291,-9.117c0,-5.988 -6.512,-6.508 -6.512,-9.113c-0,-1.825 2.604,-4.95 10.416,-4.95c12.242,0 16.409,10.159 16.409,13.284c-0,4.687 -1.563,9.112 -4.167,12.758c-4.687,5.992 -13.283,8.075 -19.792,12.242c-7.291,4.425 -12.241,11.979 -14.583,20.312c0,1.821 0.779,3.904 2.342,4.688c0.262,0.258 0.783,0.258 1.041,0.258c2.867,0 4.43,-8.071 12.242,-8.071c5.208,0 7.029,7.029 18.75,7.029c5.467,0 15.625,-0.52 17.708,-20.57" style="fill-rule:nonzero;"/></g><g><path d="M5002.58,159.175c-0,0 -0.259,1.042 -0.259,1.821c0,1.042 1.042,2.083 2.084,2.083c0.779,0 1.3,-0.779 1.562,-1.041c0.259,-0.78 3.384,-11.459 4.946,-14.063c0.521,-1.042 1.042,-1.3 1.304,-1.3c0.521,0 0.779,1.042 0.779,1.821l0,37.242c0,3.125 -2.604,4.945 -5.208,4.945c-1.042,0 -2.342,0.521 -2.342,2.084c0,1.562 1.3,2.083 3.384,2.083l21.875,0c2.083,0 2.083,-2.083 2.083,-2.083c0,-0 0,-2.084 -2.083,-2.084c-1.821,0 -4.167,-2.341 -4.167,-4.687l0,-54.167c0,-2.083 -0.779,-3.125 -2.604,-3.125c-1.821,0 -3.383,0.521 -4.946,0.521c-2.604,0 -3.125,0 -5.208,-0.521c-1.042,0 -2.346,1.563 -3.125,2.604l-8.075,27.867" style="fill-rule:nonzero;"/></g><g><path d="M5202.66,203.908l0,-27.866c0,-1.3 -0.258,-2.342 -1.562,-2.342c-1.042,0 -1.821,0.258 -2.605,1.3l-7.812,15.104c-0.521,0.521 -1.3,1.304 -1.3,3.125l-0,10.679l-16.929,0c10.679,-8.854 27.346,-38.283 27.604,-39.845c-0,-0.259 0.262,-0.521 0.262,-0.78c0,-1.041 -1.041,-1.825 -1.825,-1.825c-1.3,0 -6.77,0.521 -9.112,0.521c-2.346,0 -3.908,-0.521 -4.95,-0.521c-1.3,0 -3.125,0.521 -3.125,2.605c-0,16.666 -13.542,35.679 -16.925,40.366c-0.521,0.521 -1.042,1.3 -1.042,2.084c0,1.3 1.042,2.604 2.604,2.604l23.438,-0l-0,8.071c-0,3.645 -2.083,4.687 -4.167,4.687c-2.346,0 -3.387,1.042 -3.387,2.346c-0,1.3 0.521,2.862 2.866,2.862l22.396,0c1.3,0 2.604,-1.041 2.604,-2.862c0,-1.825 -1.562,-2.604 -2.866,-2.604c-1.3,-0 -4.167,-0.784 -4.167,-4.95l0,-7.55l9.638,-0c1.3,-0 2.083,-1.042 2.083,-2.605c-0,-1.562 -0.521,-2.604 -2.083,-2.604l-9.638,0" style="fill-rule:nonzero;"/></g><g><path d="M5385.91,237.788c0,-1.825 -0.779,-2.084 -1.562,-2.084c-1.042,0 -1.563,0.779 -1.821,1.563c-1.304,3.646 -4.167,8.333 -8.075,8.333c-0.521,0 -1.042,0 -1.563,-0.262l-3.904,-1.3c-2.604,-1.042 -8.854,-3.125 -14.062,-3.125c-1.825,-0 -3.388,0.258 -4.95,0.779c2.866,-4.946 16.408,-11.459 19.27,-12.238c9.375,-1.304 17.188,-6.771 17.188,-16.929c-0,-6.25 -2.604,-10.417 -5.988,-13.542c-6.77,-5.466 -16.666,-6.25 -19.533,-6.25c-9.375,0 -16.925,0.521 -23.696,8.334c-1.825,2.083 -2.604,4.166 -2.604,6.25c0,1.825 0.779,3.908 1.563,6.25c1.562,3.125 4.945,5.471 8.591,5.471c6.513,-0 7.292,-6.25 7.292,-9.117c-0,-5.988 -6.508,-6.508 -6.508,-9.113c-0,-1.825 2.604,-4.95 10.416,-4.95c12.238,0 16.404,10.159 16.404,13.284c0,4.687 -1.562,9.112 -4.166,12.758c-4.688,5.992 -13.279,8.075 -19.792,12.242c-7.292,4.425 -12.237,11.979 -14.583,20.312c-0,1.821 0.783,3.904 2.346,4.688c0.258,0.258 0.779,0.258 1.041,0.258c2.863,0 4.425,-8.071 12.238,-8.071c5.208,0 7.033,7.029 18.75,7.029c5.471,0 15.625,-0.52 17.708,-20.57" style="fill-rule:nonzero;"/></g><g><path d="M5516.45,256.05c-0,0 -0.263,1.042 -0.263,1.821c0,1.041 1.042,2.083 2.084,2.083c0.783,0 1.304,-0.779 1.562,-1.042c0.263,-0.779 3.388,-11.458 4.95,-14.062c0.521,-1.042 1.042,-1.3 1.3,-1.3c0.521,0 0.783,1.042 0.783,1.821l0,37.242c0,3.125 -2.604,4.945 -5.208,4.945c-1.042,0 -2.346,0.521 -2.346,2.084c0,1.562 1.304,2.083 3.388,2.083l21.875,-0c2.083,-0 2.083,-2.083 2.083,-2.083c0,-0 0,-2.084 -2.083,-2.084c-1.825,0 -4.167,-2.341 -4.167,-4.687l0,-54.167c0,-2.083 -0.783,-3.125 -2.604,-3.125c-1.825,0 -3.388,0.521 -4.95,0.521c-2.604,0 -3.125,0 -5.208,-0.521c-1.042,0 -2.342,1.563 -3.125,2.604l-8.071,27.867" style="fill-rule:nonzero;"/></g><g><path d="M5716.58,300.783l-0,-27.866c-0,-1.3 -0.263,-2.342 -1.563,-2.342c-1.041,0 -1.825,0.258 -2.604,1.3l-7.812,15.104c-0.521,0.521 -1.305,1.304 -1.305,3.125l0,10.679l-16.925,0c10.675,-8.854 27.342,-38.283 27.605,-39.845c-0,-0.259 0.258,-0.521 0.258,-0.78c-0,-1.041 -1.042,-1.825 -1.821,-1.825c-1.304,0 -6.771,0.521 -9.117,0.521c-2.341,0 -3.904,-0.521 -4.945,-0.521c-1.305,0 -3.125,0.521 -3.125,2.605c-0,16.666 -13.542,35.679 -16.93,40.366c-0.52,0.521 -1.041,1.3 -1.041,2.084c-0,1.3 1.041,2.604 2.604,2.604l23.437,-0l0,8.071c0,3.645 -2.083,4.687 -4.166,4.687c-2.342,0 -3.384,1.042 -3.384,2.346c0,1.3 0.521,2.862 2.863,2.862l22.396,0c1.304,0 2.604,-1.041 2.604,-2.862c-0,-1.825 -1.563,-2.604 -2.863,-2.604c-1.304,-0 -4.166,-0.784 -4.166,-4.95l-0,-7.55l9.633,-0c1.304,-0 2.083,-1.042 2.083,-2.605c0,-1.562 -0.52,-2.604 -2.083,-2.604l-9.633,0" style="fill-rule:nonzero;"/></g><g><path d="M5887.87,300.842l0,-27.867c0,-1.3 -0.258,-2.342 -1.562,-2.342c-1.042,0 -1.821,0.259 -2.604,1.3l-7.813,15.105c-0.521,0.52 -1.3,1.304 -1.3,3.125l0,10.679l-16.929,-0c10.679,-8.854 27.346,-38.284 27.604,-39.846c0,-0.258 0.263,-0.521 0.263,-0.779c-0,-1.042 -1.042,-1.825 -1.825,-1.825c-1.3,-0 -6.771,0.521 -9.113,0.521c-2.346,-0 -3.908,-0.521 -4.95,-0.521c-1.3,-0 -3.125,0.521 -3.125,2.604c0,16.667 -13.541,35.679 -16.925,40.367c-0.521,0.52 -1.041,1.3 -1.041,2.083c-0,1.3 1.041,2.604 2.604,2.604l23.437,0l0,8.071c0,3.646 -2.083,4.687 -4.166,4.687c-2.346,0 -3.388,1.042 -3.388,2.346c0,1.3 0.521,2.863 2.867,2.863l22.396,-0c1.3,-0 2.604,-1.042 2.604,-2.863c-0,-1.825 -1.563,-2.604 -2.867,-2.604c-1.3,0 -4.167,-0.783 -4.167,-4.95l0,-7.55l9.638,0c1.3,0 2.083,-1.042 2.083,-2.604c0,-1.563 -0.521,-2.604 -2.083,-2.604l-9.638,-0" style="fill-rule:nonzero;"/></g><g><path d="M6071.12,303.446c0,-1.825 -0.779,-2.083 -1.562,-2.083c-1.042,-0 -1.563,0.779 -1.821,1.562c-1.304,3.646 -4.167,8.333 -8.075,8.333c-0.521,0 -1.042,0 -1.562,-0.262l-3.905,-1.3c-2.604,-1.042 -8.854,-3.125 -14.062,-3.125c-1.825,-0 -3.388,0.258 -4.95,0.779c2.867,-4.946 16.408,-11.458 19.271,-12.237c9.375,-1.305 17.187,-6.771 17.187,-16.93c0,-6.25 -2.604,-10.416 -5.987,-13.541c-6.771,-5.467 -16.667,-6.25 -19.534,-6.25c-9.375,-0 -16.925,0.521 -23.695,8.333c-1.825,2.083 -2.605,4.167 -2.605,6.25c0,1.825 0.78,3.908 1.563,6.25c1.562,3.125 4.946,5.471 8.592,5.471c6.512,-0 7.291,-6.25 7.291,-9.117c0,-5.987 -6.508,-6.508 -6.508,-9.112c-0,-1.825 2.604,-4.95 10.417,-4.95c12.237,-0 16.404,10.158 16.404,13.283c-0,4.688 -1.563,9.113 -4.167,12.758c-4.687,5.992 -13.279,8.075 -19.792,12.242c-7.291,4.425 -12.237,11.979 -14.583,20.313c0,1.82 0.783,3.904 2.346,4.687c0.258,0.258 0.779,0.258 1.042,0.258c2.862,0 4.425,-8.07 12.237,-8.07c5.208,-0 7.033,7.029 18.75,7.029c5.471,-0 15.625,-0.521 17.708,-20.571" style="fill-rule:nonzero;"/></g><g><path d="M6212.33,288.6c-0,0 -0.259,1.042 -0.259,1.825c0,1.042 1.042,2.083 2.084,2.083c0.779,0 1.3,-0.783 1.562,-1.041c0.259,-0.784 3.384,-11.459 4.946,-14.063c0.521,-1.041 1.042,-1.304 1.304,-1.304c0.521,-0 0.779,1.042 0.779,1.825l0,37.237c0,3.125 -2.604,4.95 -5.208,4.95c-1.042,0 -2.342,0.521 -2.342,2.084c0,1.562 1.3,2.083 3.384,2.083l21.875,0c2.083,0 2.083,-2.083 2.083,-2.083c0,-0 0,-2.084 -2.083,-2.084c-1.821,0 -4.167,-2.345 -4.167,-4.687l0,-54.167c0,-2.083 -0.779,-3.125 -2.604,-3.125c-1.821,0 -3.383,0.521 -4.946,0.521c-2.604,0 -3.125,0 -5.208,-0.521c-1.042,0 -2.346,1.563 -3.125,2.605l-8.075,27.862" style="fill-rule:nonzero;"/></g><g><path d="M6412.45,252.283l-0,-27.862c-0,-1.304 -0.259,-2.346 -1.563,-2.346c-1.041,0 -1.821,0.263 -2.604,1.304l-7.812,15.104c-0.521,0.521 -1.3,1.3 -1.3,3.125l-0,10.675l-16.93,0c10.68,-8.854 27.346,-38.279 27.605,-39.841c-0,-0.263 0.262,-0.521 0.262,-0.784c0,-1.041 -1.042,-1.82 -1.825,-1.82c-1.3,-0 -6.771,0.52 -9.112,0.52c-2.346,0 -3.909,-0.52 -4.95,-0.52c-1.3,-0 -3.125,0.52 -3.125,2.604c-0,16.666 -13.542,35.675 -16.925,40.362c-0.521,0.521 -1.042,1.304 -1.042,2.083c-0,1.305 1.042,2.605 2.604,2.605l23.438,-0l-0,8.075c-0,3.646 -2.084,4.687 -4.167,4.687c-2.346,0 -3.388,1.042 -3.388,2.342c0,1.304 0.521,2.867 2.867,2.867l22.396,-0c1.3,-0 2.604,-1.042 2.604,-2.867c0,-1.821 -1.562,-2.604 -2.867,-2.604c-1.3,-0 -4.166,-0.779 -4.166,-4.946l-0,-7.554l9.637,-0c1.3,-0 2.084,-1.042 2.084,-2.605c-0,-1.562 -0.521,-2.604 -2.084,-2.604l-9.637,0" style="fill-rule:nonzero;"/></g><g><path d="M6595.7,268.571c-0,-1.825 -0.779,-2.084 -1.563,-2.084c-1.041,0 -1.562,0.78 -1.821,1.563c-1.304,3.646 -4.166,8.333 -8.075,8.333c-0.52,0 -1.041,0 -1.562,-0.262l-3.904,-1.3c-2.604,-1.042 -8.854,-3.125 -14.063,-3.125c-1.825,-0 -3.387,0.258 -4.95,0.779c2.867,-4.946 16.409,-11.458 19.271,-12.238c9.375,-1.304 17.188,-6.77 17.188,-16.929c-0,-6.25 -2.605,-10.416 -5.988,-13.541c-6.771,-5.467 -16.667,-6.25 -19.533,-6.25c-9.375,-0 -16.925,0.52 -23.696,8.333c-1.825,2.083 -2.604,4.167 -2.604,6.25c-0,1.825 0.779,3.908 1.562,6.25c1.563,3.125 4.946,5.471 8.592,5.471c6.512,-0 7.292,-6.25 7.292,-9.117c-0,-5.987 -6.509,-6.508 -6.509,-9.112c0,-1.825 2.604,-4.95 10.417,-4.95c12.237,-0 16.404,10.158 16.404,13.283c0,4.687 -1.562,9.112 -4.167,12.758c-4.687,5.992 -13.279,8.075 -19.791,12.242c-7.292,4.425 -12.238,11.979 -14.584,20.312c0,1.821 0.784,3.905 2.346,4.688c0.259,0.258 0.779,0.258 1.042,0.258c2.862,0 4.425,-8.071 12.237,-8.071c5.209,0 7.034,7.03 18.75,7.03c5.471,-0 15.625,-0.521 17.709,-20.571" style="fill-rule:nonzero;"/></g><g><path d="M6726.24,279.758c0,0 -0.262,1.042 -0.262,1.821c-0,1.042 1.042,2.084 2.083,2.084c0.784,-0 1.304,-0.78 1.563,-1.042c0.262,-0.779 3.387,-11.459 4.95,-14.063c0.521,-1.041 1.041,-1.3 1.3,-1.3c0.521,0 0.783,1.042 0.783,1.821l0,37.242c0,3.125 -2.604,4.946 -5.208,4.946c-1.042,-0 -2.346,0.52 -2.346,2.083c-0,1.562 1.304,2.083 3.387,2.083l21.875,0c2.084,0 2.084,-2.083 2.084,-2.083c-0,-0 -0,-2.083 -2.084,-2.083c-1.825,-0 -4.166,-2.342 -4.166,-4.688l-0,-54.167c-0,-2.083 -0.784,-3.125 -2.604,-3.125c-1.825,0 -3.388,0.521 -4.95,0.521c-2.605,0 -3.125,0 -5.209,-0.521c-1.041,0 -2.341,1.563 -3.125,2.605l-8.071,27.866" style="fill-rule:nonzero;"/></g><g><path d="M386.939,841.204c23.175,0 51.563,-21.354 51.563,-43.487c-0,-13.284 -10.417,-21.617 -25.263,-21.617c-28.646,-0 -51.562,21.096 -51.562,43.492c-0,13.541 11.2,21.612 25.262,21.612" style="fill-rule:nonzero;"/></g><g><path d="M558.239,808.913c23.175,-0 51.563,-21.355 51.563,-43.488c-0,-13.283 -10.417,-21.617 -25.263,-21.617c-28.646,0 -51.562,21.096 -51.562,43.492c-0,13.542 11.2,21.613 25.262,21.613" style="fill-rule:nonzero;"/></g><g><path d="M729.539,776.621c23.179,-0 51.563,-21.354 51.563,-43.488c-0,-13.283 -10.417,-21.616 -25.259,-21.616c-28.645,-0 -51.562,21.096 -51.562,43.491c-0,13.542 11.196,21.613 25.258,21.613" style="fill-rule:nonzero;"/></g><g><path d="M874.881,723.496c-1.563,5.208 -13.804,10.417 -19.792,10.417c-1.562,-0 -2.866,-0.521 -3.125,-1.3c-0.521,-1.042 -0.783,-6.771 -0.783,-13.021c-0,-8.075 0.262,-17.188 0.783,-19.271c0.521,-4.429 12.5,-9.896 19.009,-9.896c1.825,-0 3.387,0.521 3.908,1.562c0.521,1.3 1.042,7.813 1.042,14.842c-0,7.033 -0.521,14.325 -1.042,16.667m17.967,-42.446c1.825,-0.783 3.125,-2.867 3.125,-4.429l-0,-18.488c-0,-1.304 -0.78,-2.083 -1.821,-2.083c-0.521,-0 -0.784,-0 -1.304,0.258c-0,0 -5.209,2.084 -6.509,2.346c-1.825,0 -3.646,-1.304 -3.646,-3.387l0,-31.771c0,-1.563 -1.562,-2.863 -3.645,-2.863c-2.605,0 -4.167,1.3 -4.167,2.863l-0,33.854c-0.263,2.604 -1.042,5.992 -3.388,7.554c-3.125,1.821 -11.979,5.467 -16.404,6.508c-2.346,0 -3.125,-3.125 -3.125,-5.208l0,-31.25c0,-1.562 -1.825,-2.862 -3.646,-2.862c-2.604,-0 -4.166,1.3 -4.166,2.862l-0,35.158c-0,3.646 -1.563,6.25 -3.125,7.03c-1.563,0.783 -6.771,2.866 -6.771,2.866c-1.825,0.521 -3.125,2.604 -3.125,4.167l-0,18.487c-0,1.563 0.779,2.346 2.083,2.346c1.042,0 5.988,-2.346 6.771,-2.866c0.258,-0 0.521,-0.259 0.779,-0.259c1.825,0 3.388,2.604 3.388,4.688l-0,25.779c-0,2.867 -1.304,5.208 -2.867,5.992c-1.562,0.52 -7.029,2.862 -7.029,2.862c-1.825,0.521 -3.125,2.604 -3.125,4.167l-0,18.491c-0,1.563 0.779,2.342 2.083,2.342c0.259,0 0.779,-0.258 1.042,-0.258c-0,-0 3.646,-1.563 5.987,-2.346c0.263,-0.258 0.521,-0.258 0.784,-0.258c1.821,-0 3.125,2.862 3.125,4.166l-0,32.029c-0,1.563 1.562,2.867 3.383,2.867c2.604,0 4.429,-1.304 4.429,-2.867l0,-36.195c0,-3.388 1.3,-5.209 2.604,-5.73l15.884,-6.512c0.262,-0 0.783,-0.258 1.041,-0.258c2.084,-0 3.388,3.125 3.388,4.687l-0,32.55c-0,1.563 1.562,2.867 3.383,2.867c2.867,-0 4.429,-1.304 4.429,-2.867l0,-36.979c0,-2.083 1.042,-5.208 2.863,-5.988c1.825,-0.783 7.292,-2.866 7.292,-2.866c1.825,-0.779 3.125,-2.863 3.125,-4.425l-0,-18.492c-0,-1.3 -0.78,-2.083 -1.821,-2.083c-0.521,-0 -0.784,-0 -1.304,0.262l-6.771,2.604c-1.563,0 -3.384,-1.562 -3.384,-4.687l0,-24.221c0,-1.821 1.3,-6.771 3.384,-7.55l6.771,-2.604" style="fill-rule:nonzero;"/></g><g><path d="M937.339,744.329c23.179,0 51.563,-21.354 51.563,-43.487c-0,-13.284 -10.417,-21.617 -25.259,-21.617c-28.645,-0 -51.562,21.096 -51.562,43.492c-0,13.541 11.196,21.612 25.258,21.612" style="fill-rule:nonzero;"/></g><g><path d="M1108.64,712.038c23.175,-0 51.563,-21.355 51.563,-43.488c-0,-13.283 -10.417,-21.617 -25.263,-21.617c-28.645,0 -51.562,21.096 -51.562,43.492c-0,13.542 11.2,21.613 25.262,21.613" style="fill-rule:nonzero;"/></g><g><path d="M1279.94,679.746c23.18,-0 51.563,-21.354 51.563,-43.488c-0,-13.283 -10.417,-21.616 -25.258,-21.616c-28.646,-0 -51.563,21.096 -51.563,43.491c0,13.542 11.196,21.613 25.258,21.613" style="fill-rule:nonzero;"/></g><g><path d="M1451.25,647.454c23.175,0 51.562,-21.354 51.562,-43.487c0,-13.284 -10.417,-21.617 -25.262,-21.617c-28.646,-0 -51.563,21.096 -51.563,43.492c0,13.541 11.2,21.612 25.263,21.612" style="fill-rule:nonzero;"/></g><g><path d="M1622.55,615.163c23.179,-0 51.562,-21.355 51.562,-43.488c0,-13.283 -10.417,-21.617 -25.258,-21.617c-28.646,0 -51.563,21.096 -51.563,43.492c0,13.542 11.196,21.613 25.259,21.613" style="fill-rule:nonzero;"/></g><g><path d="M1793.85,582.871c23.175,-0 51.562,-21.354 51.562,-43.488c0,-13.283 -10.416,-21.616 -25.262,-21.616c-28.646,-0 -51.563,21.096 -51.563,43.491c0,13.542 11.2,21.613 25.263,21.613" style="fill-rule:nonzero;"/></g><g><path d="M1965.15,550.579c23.179,0 51.562,-21.354 51.562,-43.487c0,-13.284 -10.416,-21.617 -25.258,-21.617c-28.646,0 -51.563,21.096 -51.563,43.492c0,13.541 11.196,21.612 25.259,21.612" style="fill-rule:nonzero;"/></g><g><path d="M2084.79,497.454c-1.562,5.209 -13.804,10.417 -19.791,10.417c-1.563,-0 -2.867,-0.521 -3.125,-1.3c-0.521,-1.042 -0.784,-6.771 -0.784,-13.021c0,-8.075 0.263,-17.187 0.784,-19.271c0.52,-4.429 12.5,-9.896 19.008,-9.896c1.825,0 3.387,0.521 3.908,1.563c0.521,1.3 1.042,7.812 1.042,14.842c-0,7.033 -0.521,14.325 -1.042,16.666m17.967,-42.446c1.825,-0.783 3.125,-2.866 3.125,-4.429l-0,-18.487c-0,-1.304 -0.779,-2.084 -1.821,-2.084c-0.521,0 -0.783,0 -1.304,0.259c-0,-0 -5.208,2.083 -6.508,2.346c-1.825,-0 -3.646,-1.305 -3.646,-3.388l-0,-31.771c-0,-1.562 -1.563,-2.862 -3.646,-2.862c-2.604,-0 -4.167,1.3 -4.167,2.862l0,33.854c-0.262,2.605 -1.041,5.992 -3.387,7.555c-3.125,1.82 -11.979,5.466 -16.404,6.508c-2.346,-0 -3.125,-3.125 -3.125,-5.208l-0,-31.25c-0,-1.563 -1.825,-2.863 -3.646,-2.863c-2.604,0 -4.167,1.3 -4.167,2.863l0,35.158c0,3.646 -1.562,6.25 -3.125,7.029c-1.562,0.783 -6.771,2.867 -6.771,2.867c-1.825,0.521 -3.125,2.604 -3.125,4.166l0,18.488c0,1.562 0.779,2.346 2.084,2.346c1.041,-0 5.987,-2.346 6.77,-2.867c0.259,0 0.521,-0.258 0.78,-0.258c1.825,-0 3.387,2.604 3.387,4.687l0,25.779c0,2.867 -1.304,5.209 -2.867,5.992c-1.562,0.521 -7.029,2.863 -7.029,2.863c-1.825,0.52 -3.125,2.604 -3.125,4.166l0,18.492c0,1.562 0.779,2.341 2.084,2.341c0.258,0 0.779,-0.258 1.041,-0.258c0,0 3.646,-1.562 5.988,-2.346c0.262,-0.258 0.521,-0.258 0.783,-0.258c1.821,0 3.125,2.863 3.125,4.167l0,32.029c0,1.562 1.563,2.867 3.383,2.867c2.605,-0 4.43,-1.305 4.43,-2.867l-0,-36.196c-0,-3.387 1.3,-5.208 2.604,-5.729l15.883,-6.513c0.263,0 0.783,-0.258 1.042,-0.258c2.083,0 3.387,3.125 3.387,4.688l0,32.55c0,1.562 1.563,2.866 3.384,2.866c2.866,0 4.429,-1.304 4.429,-2.866l-0,-36.98c-0,-2.083 1.041,-5.208 2.862,-5.987c1.825,-0.783 7.292,-2.867 7.292,-2.867c1.825,-0.779 3.125,-2.862 3.125,-4.425l-0,-18.491c-0,-1.3 -0.779,-2.084 -1.821,-2.084c-0.521,0 -0.783,0 -1.304,0.263l-6.771,2.604c-1.562,-0 -3.383,-1.563 -3.383,-4.688l-0,-24.22c-0,-1.821 1.3,-6.771 3.383,-7.55l6.771,-2.605" style="fill-rule:nonzero;"/></g><g><path d="M2147.25,518.288c23.179,-0 51.562,-21.355 51.562,-43.488c0,-13.283 -10.417,-21.617 -25.258,-21.617c-28.646,0 -51.563,21.096 -51.563,43.492c0,13.542 11.196,21.613 25.259,21.613" style="fill-rule:nonzero;"/></g><g><path d="M2318.55,485.996c23.175,-0 51.562,-21.354 51.562,-43.488c0,-13.283 -10.416,-21.616 -25.262,-21.616c-28.646,-0 -51.563,21.096 -51.563,43.491c0,13.542 11.2,21.613 25.263,21.613" style="fill-rule:nonzero;"/></g><g><path d="M2597.18,453.704c23.175,0 51.563,-21.354 51.563,-43.487c-0,-13.284 -10.417,-21.617 -25.263,-21.617c-28.646,0 -51.562,21.096 -51.562,43.492c-0,13.541 11.2,21.612 25.262,21.612" style="fill-rule:nonzero;"/></g><g><path d="M2768.49,421.413c23.179,-0 51.563,-21.355 51.563,-43.488c-0,-13.283 -10.417,-21.617 -25.259,-21.617c-28.646,0 -51.562,21.096 -51.562,43.492c-0,13.542 11.196,21.613 25.258,21.613" style="fill-rule:nonzero;"/></g><g><path d="M2939.79,389.121c23.175,-0 51.563,-21.354 51.563,-43.488c-0,-13.283 -10.417,-21.616 -25.263,-21.616c-28.646,-0 -51.562,21.096 -51.562,43.491c-0,13.542 11.2,21.613 25.262,21.613" style="fill-rule:nonzero;"/></g><g><path d="M3111.09,356.829c23.179,0 51.563,-21.354 51.563,-43.487c-0,-13.284 -10.417,-21.617 -25.259,-21.617c-28.645,0 -51.562,21.096 -51.562,43.492c-0,13.541 11.196,21.612 25.258,21.612" style="fill-rule:nonzero;"/></g><g><path d="M3282.39,324.538c23.175,-0 51.563,-21.355 51.563,-43.488c-0,-13.283 -10.417,-21.617 -25.263,-21.617c-28.645,0 -51.562,21.096 -51.562,43.492c-0,13.542 11.2,21.613 25.262,21.613" style="fill-rule:nonzero;"/></g><g><path d="M3427.74,271.413c-1.562,5.208 -13.8,10.416 -19.791,10.416c-1.563,0 -2.863,-0.521 -3.125,-1.3c-0.521,-1.041 -0.779,-6.771 -0.779,-13.021c-0,-8.075 0.258,-17.187 0.779,-19.27c0.521,-4.43 12.5,-9.896 19.012,-9.896c1.821,-0 3.384,0.521 3.904,1.562c0.521,1.3 1.042,7.813 1.042,14.842c0,7.033 -0.521,14.325 -1.042,16.667m17.971,-42.446c1.821,-0.784 3.125,-2.867 3.125,-4.429l0,-18.488c0,-1.304 -0.783,-2.083 -1.825,-2.083c-0.521,-0 -0.779,-0 -1.3,0.258c0,0 -5.208,2.083 -6.512,2.346c-1.821,-0 -3.646,-1.304 -3.646,-3.388l-0,-31.77c-0,-1.563 -1.563,-2.863 -3.646,-2.863c-2.604,0 -4.167,1.3 -4.167,2.863l0,33.854c-0.258,2.604 -1.041,5.991 -3.383,7.554c-3.125,1.821 -11.979,5.467 -16.408,6.508c-2.342,0 -3.125,-3.125 -3.125,-5.208l-0,-31.25c-0,-1.563 -1.821,-2.863 -3.646,-2.863c-2.604,0 -4.167,1.3 -4.167,2.863l0,35.158c0,3.646 -1.562,6.25 -3.125,7.029c-1.562,0.784 -6.771,2.867 -6.771,2.867c-1.82,0.521 -3.125,2.604 -3.125,4.167l0,18.487c0,1.563 0.784,2.346 2.084,2.346c1.041,0 5.991,-2.346 6.771,-2.867c0.262,0 0.52,-0.258 0.783,-0.258c1.821,0 3.383,2.604 3.383,4.688l0,25.779c0,2.866 -1.3,5.208 -2.862,5.991c-1.563,0.521 -7.034,2.863 -7.034,2.863c-1.82,0.521 -3.125,2.604 -3.125,4.167l0,18.491c0,1.563 0.784,2.342 2.084,2.342c0.262,-0 0.783,-0.258 1.041,-0.258c0,-0 3.646,-1.563 5.992,-2.346c0.258,-0.259 0.521,-0.259 0.779,-0.259c1.825,0 3.125,2.863 3.125,4.167l0,32.029c0,1.563 1.563,2.867 3.388,2.867c2.604,-0 4.425,-1.304 4.425,-2.867l-0,-36.196c-0,-3.387 1.304,-5.208 2.604,-5.729l15.887,-6.512c0.259,-0 0.78,-0.259 1.042,-0.259c2.083,0 3.383,3.125 3.383,4.688l0,32.55c0,1.562 1.563,2.867 3.388,2.867c2.862,-0 4.425,-1.305 4.425,-2.867l-0,-36.979c-0,-2.084 1.042,-5.209 2.867,-5.988c1.82,-0.783 7.291,-2.866 7.291,-2.866c1.821,-0.78 3.125,-2.863 3.125,-4.425l0,-18.492c0,-1.3 -0.783,-2.083 -1.825,-2.083c-0.521,-0 -0.779,-0 -1.3,0.262l-6.771,2.604c-1.562,0 -3.387,-1.562 -3.387,-4.687l-0,-24.221c-0,-1.821 1.304,-6.771 3.387,-7.55l6.771,-2.604" style="fill-rule:nonzero;"/></g><g><path d="M3490.19,292.246c23.175,-0 51.563,-21.354 51.563,-43.488c-0,-13.283 -10.417,-21.616 -25.263,-21.616c-28.645,-0 -51.562,21.096 -51.562,43.491c-0,13.542 11.2,21.613 25.262,21.613" style="fill-rule:nonzero;"/></g><g><path d="M3661.49,259.954c23.18,0 51.563,-21.354 51.563,-43.487c-0,-13.284 -10.417,-21.617 -25.258,-21.617c-28.646,0 -51.563,21.096 -51.563,43.492c0,13.541 11.196,21.612 25.258,21.612" style="fill-rule:nonzero;"/></g><g><path d="M3832.78,227.663c23.175,-0 51.563,-21.355 51.563,-43.488c-0,-13.283 -10.417,-21.617 -25.263,-21.617c-28.646,0 -51.562,21.096 -51.562,43.492c-0,13.542 11.2,21.613 25.262,21.613" style="fill-rule:nonzero;"/></g><g><path d="M4004.08,195.371c23.179,-0 51.562,-21.354 51.562,-43.488c0,-13.283 -10.416,-21.616 -25.258,-21.616c-28.646,-0 -51.563,21.096 -51.563,43.491c0,13.542 11.196,21.613 25.259,21.613" style="fill-rule:nonzero;"/></g><g><path d="M4175.41,163.079c23.175,0 51.563,-21.354 51.563,-43.487c-0,-13.284 -10.417,-21.617 -25.263,-21.617c-28.646,0 -51.562,21.096 -51.562,43.492c-0,13.541 11.2,21.612 25.262,21.612" style="fill-rule:nonzero;"/></g><g><path d="M4346.7,195.371c23.179,-0 51.562,-21.354 51.562,-43.488c0,-13.283 -10.416,-21.616 -25.258,-21.616c-28.646,-0 -51.563,21.096 -51.563,43.491c0,13.542 11.196,21.613 25.259,21.613" style="fill-rule:nonzero;"/></g><g><path d="M4517.99,227.663c23.175,-0 51.563,-21.355 51.563,-43.488c-0,-13.283 -10.417,-21.617 -25.263,-21.617c-28.645,0 -51.562,21.096 -51.562,43.492c-0,13.542 11.2,21.613 25.262,21.613" style="fill-rule:nonzero;"/></g><g><path d="M4796.58,259.954c23.175,0 51.562,-21.354 51.562,-43.487c0,-13.284 -10.416,-21.617 -25.262,-21.617c-28.646,0 -51.563,21.096 -51.563,43.492c0,13.541 11.2,21.612 25.263,21.612" style="fill-rule:nonzero;"/></g><g><path d="M4941.91,271.413c-1.562,5.208 -13.804,10.416 -19.792,10.416c-1.562,0 -2.866,-0.521 -3.125,-1.3c-0.52,-1.041 -0.783,-6.771 -0.783,-13.021c0,-8.075 0.263,-17.187 0.783,-19.27c0.521,-4.43 12.5,-9.896 19.009,-9.896c1.825,-0 3.387,0.521 3.908,1.562c0.521,1.3 1.042,7.813 1.042,14.842c-0,7.033 -0.521,14.325 -1.042,16.667m17.967,-42.446c1.825,-0.784 3.125,-2.867 3.125,-4.429l-0,-18.488c-0,-1.304 -0.779,-2.083 -1.821,-2.083c-0.521,-0 -0.783,-0 -1.304,0.258c-0,0 -5.209,2.083 -6.509,2.346c-1.825,-0 -3.645,-1.304 -3.645,-3.388l-0,-31.77c-0,-1.563 -1.563,-2.863 -3.646,-2.863c-2.604,0 -4.167,1.3 -4.167,2.863l0,33.854c-0.262,2.604 -1.042,5.991 -3.387,7.554c-3.125,1.821 -11.98,5.467 -16.405,6.508c-2.345,0 -3.125,-3.125 -3.125,-5.208l0,-31.25c0,-1.563 -1.825,-2.863 -3.645,-2.863c-2.605,0 -4.167,1.3 -4.167,2.863l-0,35.158c-0,3.646 -1.563,6.25 -3.125,7.029c-1.563,0.784 -6.771,2.867 -6.771,2.867c-1.825,0.521 -3.125,2.604 -3.125,4.167l0,18.487c0,1.563 0.779,2.346 2.083,2.346c1.042,0 5.988,-2.346 6.771,-2.867c0.259,0 0.521,-0.258 0.779,-0.258c1.825,0 3.388,2.604 3.388,4.688l-0,25.779c-0,2.866 -1.304,5.208 -2.867,5.991c-1.562,0.521 -7.029,2.863 -7.029,2.863c-1.825,0.521 -3.125,2.604 -3.125,4.167l0,18.491c0,1.563 0.779,2.342 2.083,2.342c0.259,-0 0.78,-0.258 1.042,-0.258c0,-0 3.646,-1.563 5.988,-2.346c0.262,-0.259 0.52,-0.259 0.783,-0.259c1.821,0 3.125,2.863 3.125,4.167l-0,32.029c-0,1.563 1.562,2.867 3.383,2.867c2.604,-0 4.429,-1.304 4.429,-2.867l0,-36.196c0,-3.387 1.3,-5.208 2.605,-5.729l15.883,-6.512c0.262,-0 0.783,-0.259 1.042,-0.259c2.083,0 3.387,3.125 3.387,4.688l0,32.55c0,1.562 1.563,2.867 3.383,2.867c2.867,-0 4.43,-1.305 4.43,-2.867l-0,-36.979c-0,-2.084 1.041,-5.209 2.862,-5.988c1.825,-0.783 7.292,-2.866 7.292,-2.866c1.825,-0.78 3.125,-2.863 3.125,-4.425l-0,-18.492c-0,-1.3 -0.779,-2.083 -1.821,-2.083c-0.521,-0 -0.783,-0 -1.304,0.262l-6.771,2.604c-1.563,0 -3.383,-1.562 -3.383,-4.687l-0,-24.221c-0,-1.821 1.3,-6.771 3.383,-7.55l6.771,-2.604" style="fill-rule:nonzero;"/></g><g><path d="M5004.37,292.246c23.175,-0 51.563,-21.354 51.563,-43.488c-0,-13.283 -10.417,-21.616 -25.263,-21.616c-28.645,-0 -51.562,21.096 -51.562,43.491c-0,13.542 11.2,21.613 25.262,21.613" style="fill-rule:nonzero;"/></g><g><path d="M5175.66,324.538c23.179,-0 51.563,-21.355 51.563,-43.488c-0,-13.283 -10.417,-21.617 -25.259,-21.617c-28.646,0 -51.562,21.096 -51.562,43.492c-0,13.542 11.196,21.613 25.258,21.613" style="fill-rule:nonzero;"/></g><g><path d="M5346.95,356.829c23.175,0 51.562,-21.354 51.562,-43.487c0,-13.284 -10.416,-21.617 -25.262,-21.617c-28.646,0 -51.563,21.096 -51.563,43.492c0,13.541 11.2,21.612 25.263,21.612" style="fill-rule:nonzero;"/></g><g><path d="M5518.28,389.121c23.179,-0 51.563,-21.354 51.563,-43.488c-0,-13.283 -10.417,-21.616 -25.259,-21.616c-28.646,-0 -51.562,21.096 -51.562,43.491c-0,13.542 11.196,21.613 25.258,21.613" style="fill-rule:nonzero;"/></g><g><path d="M5689.58,421.413c23.175,-0 51.562,-21.355 51.562,-43.488c0,-13.283 -10.416,-21.617 -25.262,-21.617c-28.646,0 -51.563,21.096 -51.563,43.492c0,13.542 11.2,21.613 25.263,21.613" style="fill-rule:nonzero;"/></g><g><path d="M5860.87,453.704c23.18,0 51.563,-21.354 51.563,-43.487c-0,-13.284 -10.417,-21.617 -25.258,-21.617c-28.646,0 -51.563,21.096 -51.563,43.492c0,13.541 11.196,21.612 25.258,21.612" style="fill-rule:nonzero;"/></g><g><path d="M6032.16,485.996c23.175,-0 51.563,-21.354 51.563,-43.488c-0,-13.283 -10.417,-21.616 -25.263,-21.616c-28.646,-0 -51.562,21.096 -51.562,43.491c-0,13.542 11.2,21.613 25.262,21.613" style="fill-rule:nonzero;"/></g><g><path d="M6151.66,497.454c-1.562,5.209 -13.804,10.417 -19.792,10.417c-1.562,-0 -2.866,-0.521 -3.125,-1.3c-0.52,-1.042 -0.783,-6.771 -0.783,-13.021c0,-8.075 0.263,-17.187 0.783,-19.271c0.521,-4.429 12.5,-9.896 19.009,-9.896c1.825,0 3.387,0.521 3.908,1.563c0.521,1.3 1.042,7.812 1.042,14.842c-0,7.033 -0.521,14.325 -1.042,16.666m17.967,-42.446c1.825,-0.783 3.125,-2.866 3.125,-4.429l-0,-18.487c-0,-1.304 -0.779,-2.084 -1.821,-2.084c-0.521,0 -0.783,0 -1.304,0.259c-0,-0 -5.209,2.083 -6.509,2.346c-1.825,-0 -3.645,-1.305 -3.645,-3.388l-0,-31.771c-0,-1.562 -1.563,-2.862 -3.646,-2.862c-2.604,-0 -4.167,1.3 -4.167,2.862l0,33.854c-0.262,2.605 -1.042,5.992 -3.387,7.555c-3.125,1.82 -11.98,5.466 -16.405,6.508c-2.345,-0 -3.125,-3.125 -3.125,-5.208l0,-31.25c0,-1.563 -1.825,-2.863 -3.645,-2.863c-2.605,0 -4.167,1.3 -4.167,2.863l-0,35.158c-0,3.646 -1.563,6.25 -3.125,7.029c-1.563,0.783 -6.771,2.867 -6.771,2.867c-1.825,0.521 -3.125,2.604 -3.125,4.166l0,18.488c0,1.562 0.779,2.346 2.083,2.346c1.042,-0 5.988,-2.346 6.771,-2.867c0.259,0 0.521,-0.258 0.779,-0.258c1.825,-0 3.388,2.604 3.388,4.687l-0,25.779c-0,2.867 -1.304,5.209 -2.867,5.992c-1.562,0.521 -7.029,2.863 -7.029,2.863c-1.825,0.52 -3.125,2.604 -3.125,4.166l0,18.492c0,1.562 0.779,2.341 2.083,2.341c0.259,0 0.78,-0.258 1.042,-0.258c0,0 3.646,-1.562 5.988,-2.346c0.262,-0.258 0.52,-0.258 0.783,-0.258c1.821,0 3.125,2.863 3.125,4.167l-0,32.029c-0,1.562 1.562,2.867 3.383,2.867c2.604,-0 4.429,-1.305 4.429,-2.867l0,-36.196c0,-3.387 1.3,-5.208 2.605,-5.729l15.883,-6.513c0.262,0 0.783,-0.258 1.042,-0.258c2.083,0 3.387,3.125 3.387,4.688l0,32.55c0,1.562 1.563,2.866 3.383,2.866c2.867,0 4.43,-1.304 4.43,-2.866l-0,-36.98c-0,-2.083 1.041,-5.208 2.862,-5.987c1.825,-0.783 7.292,-2.867 7.292,-2.867c1.825,-0.779 3.125,-2.862 3.125,-4.425l-0,-18.491c-0,-1.3 -0.779,-2.084 -1.821,-2.084c-0.521,0 -0.783,0 -1.304,0.263l-6.771,2.604c-1.563,-0 -3.383,-1.563 -3.383,-4.688l-0,-24.22c-0,-1.821 1.3,-6.771 3.383,-7.55l6.771,-2.605" style="fill-rule:nonzero;"/></g><g><path d="M6214.12,518.288c23.18,-0 51.563,-21.355 51.563,-43.488c-0,-13.283 -10.417,-21.617 -25.258,-21.617c-28.646,0 -51.563,21.096 -51.563,43.492c0,13.542 11.196,21.613 25.258,21.613" style="fill-rule:nonzero;"/></g><g><path d="M6385.41,550.579c23.175,0 51.563,-21.354 51.563,-43.487c-0,-13.284 -10.417,-21.617 -25.263,-21.617c-28.646,0 -51.562,21.096 -51.562,43.492c-0,13.541 11.2,21.612 25.262,21.612" style="fill-rule:nonzero;"/></g><g><path d="M6556.74,582.871c23.18,-0 51.563,-21.354 51.563,-43.488c-0,-13.283 -10.417,-21.616 -25.258,-21.616c-28.646,-0 -51.563,21.096 -51.563,43.491c0,13.542 11.196,21.613 25.258,21.613" style="fill-rule:nonzero;"/></g><g><path d="M6728.03,615.163c23.175,-0 51.563,-21.355 51.563,-43.488c-0,-13.283 -10.417,-21.617 -25.263,-21.617c-28.646,0 -51.562,21.096 -51.562,43.492c-0,13.542 11.2,21.613 25.262,21.613" style="fill-rule:nonzero;"/></g><g><path d="M135.714,514.383c0.779,4.946 0.779,4.688 -3.908,6.25c-22.917,7.813 -37.763,28.384 -37.763,50.521c0,23.438 12.242,40.104 29.95,46.092c2.084,0.783 5.209,1.562 7.03,1.562c2.083,0 3.125,-1.3 3.125,-2.862c-0,-1.825 -2.084,-2.604 -3.905,-3.388c-10.937,-4.687 -18.75,-15.883 -18.75,-27.862c0,-14.846 10.155,-26.042 26.042,-30.471c4.167,-1.042 4.688,-0.779 5.208,2.083l13.021,77.605c0.521,2.866 0.259,2.866 -3.646,3.645c-4.166,0.784 -9.375,1.305 -14.583,1.305c-45.575,-0 -75,-25.263 -75,-61.459c0,-15.366 2.604,-35.937 24.217,-60.417c15.625,-17.449 27.604,-27.083 39.846,-36.979c2.604,-2.083 3.125,-1.825 3.645,1.042l5.467,33.333m28.388,-177.345c8.591,-0 15.625,7.033 15.625,21.354c-0,28.908 -24.742,52.346 -45.313,70.312c-1.825,1.563 -2.867,1.304 -3.387,-2.083c-1.042,-6.771 -1.563,-15.625 -1.563,-23.958c0,-40.625 18.75,-65.625 34.638,-65.625m-10.417,218.75c-0.521,-3.125 -0.263,-3.905 2.862,-3.646c21.096,1.825 38.542,19.533 38.542,42.45c0,16.404 -9.896,29.687 -24.479,36.979c-3.125,1.562 -3.646,1.562 -4.167,-1.563l-12.758,-74.221m-14.063,-81.249c-0.52,-3.125 0,-3.384 1.563,-4.946c28.125,-26.304 49.479,-59.375 49.479,-99.221c0,-22.654 -6.25,-45.05 -16.929,-60.675c-3.904,-5.729 -10.675,-13.021 -13.542,-13.021c-3.646,0 -11.716,6.771 -16.925,12.5c-19.271,21.354 -25.521,53.904 -25.521,80.988c0,15.104 1.821,32.033 3.646,42.708c0.521,3.125 0.779,3.646 -2.346,6.25c-37.5,30.992 -77.341,68.229 -77.341,120.833c-0,45.313 30.987,88.284 94.791,88.284c5.988,-0 12.759,-0.521 17.967,-1.563c2.867,-0.521 3.388,-0.783 3.908,2.342c3.125,17.45 7.03,40.104 7.03,52.346c-0,38.541 -26.042,43.229 -41.405,43.229c-14.062,-0 -20.833,-4.167 -20.833,-7.554c0,-1.821 2.342,-2.605 8.333,-4.425c8.071,-2.346 17.446,-9.375 17.446,-24.48c0,-14.325 -9.112,-26.562 -25,-26.562c-17.446,-0 -27.862,13.8 -27.862,29.946c-0,16.929 10.154,42.45 49.479,42.45c17.446,-0 51.3,-7.813 51.3,-52.084c-0,-14.846 -4.688,-39.583 -7.55,-55.729c-0.521,-3.125 -0.263,-2.867 3.383,-4.429c26.304,-10.417 43.75,-32.55 43.75,-61.979c0,-33.334 -24.479,-62.759 -62.758,-62.759c-6.771,0 -6.771,0 -7.554,-4.687l-6.509,-37.762" style="fill-rule:nonzero;"/></g><g><text x="532.877px" y="927.079px" style="font-family:'Bravura';font-size:260.417px;"></text></g><g><text x="1083.28px" y="830.204px" style="font-family:'Bravura';font-size:260.417px;"></text></g><g><text x="1597.18px" y="760.992px" style="font-family:'Bravura';font-size:260.417px;"></text></g><g><text x="2078.08px" y="823.15px" style="font-family:'Bravura';font-size:260.417px;"></text></g><g><text x="2704.72px" y="760.996px" style="font-family:'Bravura';font-size:260.417px;"></text></g><g><text x="3236.89px" y="760.996px" style="font-family:'Bravura';font-size:260.417px;"></text></g><g><text x="3769.03px" y="760.996px" style="font-family:'Bravura';font-size:260.417px;"></text></g><g><text x="4282.95px" y="760.996px" style="font-family:'Bravura';font-size:260.417px;"></text></g><g><text x="4922.33px" y="760.996px" style="font-family:'Bravura';font-size:260.417px;"></text></g><g><text x="5454.49px" y="760.996px" style="font-family:'Bravura';font-size:260.417px;"></text></g><g><text x="5973.74px" y="800.475px" style="font-family:'Bravura';font-size:260.417px;"></text></g><g><text x="6531.37px" y="760.996px" style="font-family:'Bravura';font-size:260.417px;"></text></g><g><path d="M430.764,550.321l0,-32.438l350.263,-32.291l-0,32.437l-350.263,32.292" style="fill-rule:nonzero;"/></g><g><path d="M981.156,485.738l-0,-32.438l350.392,-32.292l-0,32.438l-350.392,32.291" style="fill-rule:nonzero;"/></g><g><path d="M1495.09,421.154l0,-32.866l350.259,-64.58l-0,32.863l-350.263,64.583" style="fill-rule:nonzero;"/></g><g><path d="M1939.88,728.221l-0,-32.588l361.196,-48.437l-0,32.587l-361.2,48.438" style="fill-rule:nonzero;"/></g><g><path d="M2571.91,663.913l0,-32.863l350.392,-64.583l-0,32.862l-350.392,64.584" style="fill-rule:nonzero;"/></g><g><path d="M3085.84,550.438l0,-32.409l386.846,-32.291l0,32.408l-386.846,32.292" style="fill-rule:nonzero;"/></g><g><path d="M3636.24,534.213l0,-32.33l350.388,-16.146l-0,32.33l-350.388,16.145" style="fill-rule:nonzero;"/></g><g><path d="M4150.16,518.171l0,-32.434l350.392,32.292l-0,32.433l-350.392,-32.291" style="fill-rule:nonzero;"/></g><g><path d="M4771.24,518.146l0,-32.408l386.846,32.291l0,32.409l-386.846,-32.292" style="fill-rule:nonzero;"/></g><g><path d="M5321.66,582.754l-0.004,-32.433l350.392,32.292l-0,32.433l-350.392,-32.292" style="fill-rule:nonzero;"/></g><g><path d="M5835.58,647.729l-0,-32.825l361.071,64.583l-0,32.825l-361.071,-64.583" style="fill-rule:nonzero;"/></g><g><path d="M6429.2,340.425l-0,-32.617l350.391,48.438l0,32.617l-350.391,-48.438" style="fill-rule:nonzero;"/></g><g><path d="M340.402,920.267l160.675,-28.242l-0,-10.508l-150.392,26.433l0,-36.121l-10.287,0" style="fill-rule:nonzero;"/></g><g><path d="M786.235,841.204l-144.533,25.313l-0,-10.509l134.246,-24.375l-0,-38.866l10.287,-0" style="fill-rule:nonzero;"/></g><g><path d="M890.789,823.392l160.679,-28.242l0,-10.508l-150.391,26.433l-0,-36.121l-10.288,0" style="fill-rule:nonzero;"/></g><g><path d="M1336.62,744.329l-144.53,25.313l0,-10.509l134.246,-24.375l0,-38.866l10.284,-0" style="fill-rule:nonzero;"/></g><g><path d="M1404.72,713.342l160.158,-0.105l-0,-10.341l-149.871,0.104l0,-38.096l-10.287,0" style="fill-rule:nonzero;"/></g><g><path d="M1850.56,713.029l-144.008,0.104l-0,-10.341l133.72,-0.092l0,-38.108l10.288,-0" style="fill-rule:nonzero;"/></g><g><path d="M6338.83,713.183l160.283,0l0,-10.325l-149.871,0l0,-38.112l-10.416,-0" style="fill-rule:nonzero;"/></g><g><path d="M6784.78,713.183l-144.142,0l0,-10.325l133.725,0l0,-38.112l10.417,-0" style="fill-rule:nonzero;"/></g><g><path d="M9.41,1293.03l1692.84,0" style="fill:none;stroke:#000;stroke-width:8.42px;"/><path d="M9.41,1357.61l1692.84,-0.001" style="fill:none;stroke:#000;stroke-width:8.42px;"/><path d="M9.41,1422.2l1692.84,-0" style="fill:none;stroke:#000;stroke-width:8.42px;"/><path d="M9.41,1486.78l1692.84,0" style="fill:none;stroke:#000;stroke-width:8.42px;"/><path d="M9.41,1551.36l1692.84,-0" style="fill:none;stroke:#000;stroke-width:8.42px;"/></g><g><path d="M1660.84,1288.83l0,266.721" style="fill:none;stroke:#000;stroke-width:10.33px;"/><path d="M1697.04,1288.83l0,266.721" style="fill:none;stroke:#000;stroke-width:10.33px;"/></g><g><path d="M434.539,1292.28l0,215.938" style="fill:none;stroke:#000;stroke-width:7.75px;"/><path d="M583.889,1324.58l0,215.938" style="fill:none;stroke:#000;stroke-width:7.75px;"/><path d="M733.239,1356.87l0,215.937" style="fill:none;stroke:#000;stroke-width:7.75px;"/><path d="M915.268,1405.87l0,199.229" style="fill:none;stroke:#000;stroke-width:7.75px;"/></g><g><path d="M831.548,1615.95l113.408,-0" style="fill:none;stroke:#000;stroke-width:10.33px;"/></g><g><path d="M1064.62,1422.01l0,215.375" style="fill:none;stroke:#000;stroke-width:7.75px;"/></g><g><path d="M965.789,1615.95l128.517,-0" style="fill:none;stroke:#000;stroke-width:10.33px;"/></g><g><path d="M1213.84,1438.16l0,231.521" style="fill:none;stroke:#000;stroke-width:7.75px;"/></g><g><path d="M1115.14,1680.53l128.517,0" style="fill:none;stroke:#000;stroke-width:10.33px;"/><path d="M1115.14,1615.95l128.517,-0" style="fill:none;stroke:#000;stroke-width:10.33px;"/></g><g><path d="M1363.18,1422.2l0,279.775" style="fill:none;stroke:#000;stroke-width:7.75px;"/></g><g><path d="M1264.49,1680.53l128.517,0" style="fill:none;stroke:#000;stroke-width:10.33px;"/><path d="M1264.49,1615.95l128.517,-0" style="fill:none;stroke:#000;stroke-width:10.33px;"/></g><g><path d="M413.939,1205.01l0,-27.866c0,-1.3 -0.262,-2.342 -1.562,-2.342c-1.042,0 -1.825,0.258 -2.604,1.3l-7.813,15.104c-0.521,0.521 -1.304,1.304 -1.304,3.125l-0,10.679l-16.925,0c10.675,-8.854 27.342,-38.283 27.604,-39.845c0,-0.259 0.258,-0.521 0.258,-0.78c0,-1.041 -1.041,-1.825 -1.82,-1.825c-1.305,0 -6.771,0.521 -9.117,0.521c-2.342,0 -3.904,-0.521 -4.946,-0.521c-1.304,0 -3.125,0.521 -3.125,2.605c0,16.666 -13.542,35.679 -16.929,40.366c-0.521,0.521 -1.042,1.3 -1.042,2.083c0,1.301 1.042,2.605 2.604,2.605l23.438,-0l-0,8.071c-0,3.645 -2.083,4.687 -4.167,4.687c-2.341,0 -3.383,1.042 -3.383,2.346c-0,1.3 0.521,2.862 2.862,2.862l22.396,0c1.304,0 2.604,-1.041 2.604,-2.862c0,-1.825 -1.562,-2.604 -2.862,-2.604c-1.304,-0 -4.167,-0.784 -4.167,-4.95l0,-7.55l9.634,-0c1.304,-0 2.083,-1.042 2.083,-2.604c-0,-1.563 -0.521,-2.605 -2.083,-2.605l-9.634,0" style="fill-rule:nonzero;"/></g><g><path d="M563.273,1205.01l-0,-27.866c-0,-1.3 -0.263,-2.342 -1.563,-2.342c-1.042,0 -1.825,0.258 -2.604,1.3l-7.813,15.104c-0.52,0.521 -1.304,1.304 -1.304,3.125l0,10.679l-16.925,0c10.675,-8.854 27.342,-38.283 27.604,-39.845c0,-0.259 0.259,-0.521 0.259,-0.78c-0,-1.041 -1.042,-1.825 -1.821,-1.825c-1.304,0 -6.771,0.521 -9.117,0.521c-2.341,0 -3.904,-0.521 -4.946,-0.521c-1.304,0 -3.125,0.521 -3.125,2.605c0,16.666 -13.541,35.679 -16.929,40.366c-0.521,0.521 -1.041,1.3 -1.041,2.083c-0,1.301 1.041,2.605 2.604,2.605l23.437,-0l0,8.071c0,3.645 -2.083,4.687 -4.166,4.687c-2.342,0 -3.384,1.042 -3.384,2.346c0,1.3 0.521,2.862 2.863,2.862l22.396,0c1.304,0 2.604,-1.041 2.604,-2.862c-0,-1.825 -1.563,-2.604 -2.863,-2.604c-1.304,-0 -4.166,-0.784 -4.166,-4.95l-0,-7.55l9.633,-0c1.304,-0 2.083,-1.042 2.083,-2.604c0,-1.563 -0.521,-2.605 -2.083,-2.605l-9.633,0" style="fill-rule:nonzero;"/></g><g><path d="M724.552,1207.61c-0,-1.825 -0.784,-2.084 -1.563,-2.084c-1.041,0 -1.562,0.779 -1.825,1.563c-1.3,3.645 -4.166,8.333 -8.071,8.333c-0.52,-0 -1.041,-0 -1.562,-0.263l-3.908,-1.3c-2.605,-1.041 -8.855,-3.125 -14.063,-3.125c-1.821,0 -3.383,0.259 -4.946,0.78c2.863,-4.946 16.404,-11.459 19.271,-12.238c9.375,-1.304 17.188,-6.771 17.188,-16.929c-0,-6.25 -2.605,-10.417 -5.992,-13.542c-6.771,-5.466 -16.667,-6.25 -19.529,-6.25c-9.375,0 -16.929,0.521 -23.7,8.334c-1.821,2.083 -2.604,4.166 -2.604,6.25c-0,1.825 0.783,3.908 1.562,6.25c1.563,3.125 4.95,5.47 8.596,5.47c6.508,0 7.292,-6.25 7.292,-9.116c-0,-5.988 -6.513,-6.509 -6.513,-9.113c0,-1.825 2.604,-4.95 10.417,-4.95c12.241,0 16.408,10.159 16.408,13.284c0,4.687 -1.562,9.112 -4.167,12.758c-4.687,5.992 -13.283,8.075 -19.791,12.242c-7.292,4.425 -12.242,11.979 -14.584,20.312c0,1.821 0.78,3.904 2.342,4.688c0.263,0.258 0.783,0.258 1.042,0.258c2.866,-0 4.429,-8.071 12.241,-8.071c5.209,0 7.03,7.029 18.75,7.029c5.467,0 15.625,-0.521 17.709,-20.571" style="fill-rule:nonzero;"/></g><g><path d="M865.777,1192.77c-0,-0 -0.259,1.041 -0.259,1.825c0,1.041 1.042,2.083 2.084,2.083c0.779,-0 1.3,-0.783 1.562,-1.042c0.259,-0.783 3.384,-11.458 4.946,-14.062c0.521,-1.042 1.042,-1.304 1.304,-1.304c0.521,-0 0.779,1.041 0.779,1.825l0,37.237c0,3.125 -2.604,4.95 -5.208,4.95c-1.042,0 -2.342,0.521 -2.342,2.083c0,1.563 1.3,2.084 3.384,2.084l21.875,-0c2.083,-0 2.083,-2.084 2.083,-2.084c0,0 0,-2.083 -2.083,-2.083c-1.821,0 -4.167,-2.346 -4.167,-4.687l0,-54.167c0,-2.083 -0.779,-3.125 -2.604,-3.125c-1.821,-0 -3.383,0.521 -4.946,0.521c-2.604,-0 -3.125,-0 -5.208,-0.521c-1.042,-0 -2.346,1.562 -3.125,2.604l-8.075,27.863" style="fill-rule:nonzero;"/></g><g><path d="M1043.9,1205.01l-0,-27.866c-0,-1.3 -0.259,-2.342 -1.563,-2.342c-1.041,0 -1.821,0.258 -2.604,1.3l-7.812,15.104c-0.521,0.521 -1.3,1.304 -1.3,3.125l-0,10.679l-16.93,0c10.68,-8.854 27.346,-38.283 27.605,-39.845c-0,-0.259 0.262,-0.521 0.262,-0.78c0,-1.041 -1.042,-1.825 -1.825,-1.825c-1.3,0 -6.771,0.521 -9.112,0.521c-2.346,0 -3.909,-0.521 -4.95,-0.521c-1.3,0 -3.125,0.521 -3.125,2.605c-0,16.666 -13.542,35.679 -16.925,40.366c-0.521,0.521 -1.042,1.3 -1.042,2.083c-0,1.301 1.042,2.605 2.604,2.605l23.438,-0l-0,8.071c-0,3.645 -2.084,4.687 -4.167,4.687c-2.346,0 -3.388,1.042 -3.388,2.346c0,1.3 0.521,2.862 2.867,2.862l22.396,0c1.3,0 2.604,-1.041 2.604,-2.862c0,-1.825 -1.562,-2.604 -2.867,-2.604c-1.3,-0 -4.166,-0.784 -4.166,-4.95l-0,-7.55l9.637,-0c1.3,-0 2.084,-1.042 2.084,-2.604c-0,-1.563 -0.521,-2.605 -2.084,-2.605l-9.637,0" style="fill-rule:nonzero;"/></g><g><path d="M1205.18,1207.61c-0,-1.825 -0.779,-2.084 -1.563,-2.084c-1.041,0 -1.562,0.779 -1.821,1.563c-1.304,3.645 -4.166,8.333 -8.075,8.333c-0.52,-0 -1.041,-0 -1.562,-0.263l-3.904,-1.3c-2.604,-1.041 -8.854,-3.125 -14.063,-3.125c-1.825,0 -3.387,0.259 -4.95,0.78c2.867,-4.946 16.409,-11.459 19.271,-12.238c9.375,-1.304 17.188,-6.771 17.188,-16.929c-0,-6.25 -2.605,-10.417 -5.988,-13.542c-6.771,-5.466 -16.667,-6.25 -19.533,-6.25c-9.375,0 -16.925,0.521 -23.696,8.334c-1.825,2.083 -2.604,4.166 -2.604,6.25c-0,1.825 0.779,3.908 1.562,6.25c1.563,3.125 4.946,5.47 8.592,5.47c6.512,0 7.292,-6.25 7.292,-9.116c-0,-5.988 -6.509,-6.509 -6.509,-9.113c0,-1.825 2.604,-4.95 10.417,-4.95c12.237,0 16.404,10.159 16.404,13.284c0,4.687 -1.562,9.112 -4.167,12.758c-4.687,5.992 -13.279,8.075 -19.791,12.242c-7.292,4.425 -12.238,11.979 -14.584,20.312c0,1.821 0.784,3.904 2.346,4.688c0.259,0.258 0.779,0.258 1.042,0.258c2.862,-0 4.425,-8.071 12.237,-8.071c5.209,0 7.034,7.029 18.75,7.029c5.471,0 15.625,-0.521 17.709,-20.571" style="fill-rule:nonzero;"/></g><g><path d="M1313.79,1192.77c0,-0 -0.258,1.041 -0.258,1.825c-0,1.041 1.041,2.083 2.083,2.083c0.779,-0 1.3,-0.783 1.563,-1.042c0.258,-0.783 3.383,-11.458 4.945,-14.062c0.521,-1.042 1.042,-1.304 1.305,-1.304c0.52,-0 0.779,1.041 0.779,1.825l-0,37.237c-0,3.125 -2.604,4.95 -5.209,4.95c-1.041,0 -2.341,0.521 -2.341,2.083c-0,1.563 1.3,2.084 3.383,2.084l21.875,-0c2.083,-0 2.083,-2.084 2.083,-2.084c0,0 0,-2.083 -2.083,-2.083c-1.821,0 -4.167,-2.346 -4.167,-4.687l0,-54.167c0,-2.083 -0.779,-3.125 -2.604,-3.125c-1.821,-0 -3.383,0.521 -4.946,0.521c-2.604,-0 -3.125,-0 -5.208,-0.521c-1.042,-0 -2.346,1.562 -3.125,2.604l-8.075,27.863" style="fill-rule:nonzero;"/></g><g><path d="M386.939,1551.62c23.175,-0 51.563,-21.354 51.563,-43.488c-0,-13.283 -10.417,-21.616 -25.263,-21.616c-28.646,-0 -51.562,21.095 -51.562,43.491c-0,13.542 11.2,21.613 25.262,21.613" style="fill-rule:nonzero;"/></g><g><path d="M536.268,1583.91c23.18,0 51.563,-21.354 51.563,-43.487c-0,-13.283 -10.417,-21.617 -25.258,-21.617c-28.646,0 -51.563,21.096 -51.563,43.492c0,13.542 11.196,21.612 25.258,21.612" style="fill-rule:nonzero;"/></g><g><path d="M685.602,1616.2c23.179,0 51.562,-21.354 51.562,-43.487c0,-13.284 -10.416,-21.617 -25.258,-21.617c-28.646,-0 -51.563,21.096 -51.563,43.492c0,13.541 11.196,21.612 25.259,21.612" style="fill-rule:nonzero;"/></g><g><path d="M805.114,1627.66c-1.562,5.209 -13.804,10.417 -19.791,10.417c-1.563,0 -2.867,-0.521 -3.125,-1.3c-0.521,-1.042 -0.784,-6.771 -0.784,-13.021c0,-8.075 0.263,-17.187 0.784,-19.271c0.52,-4.429 12.5,-9.896 19.008,-9.896c1.825,0 3.387,0.521 3.908,1.563c0.521,1.3 1.042,7.812 1.042,14.842c-0,7.033 -0.521,14.325 -1.042,16.666m17.967,-42.446c1.825,-0.783 3.125,-2.866 3.125,-4.429l-0,-18.487c-0,-1.304 -0.779,-2.084 -1.821,-2.084c-0.521,0 -0.783,0 -1.304,0.259c-0,-0 -5.208,2.083 -6.508,2.346c-1.825,-0 -3.646,-1.304 -3.646,-3.388l-0,-31.771c-0,-1.562 -1.563,-2.862 -3.646,-2.862c-2.604,-0 -4.167,1.3 -4.167,2.862l0,33.854c-0.262,2.605 -1.041,5.992 -3.387,7.555c-3.125,1.82 -11.979,5.466 -16.404,6.508c-2.346,-0 -3.125,-3.125 -3.125,-5.208l-0,-31.25c-0,-1.563 -1.825,-2.863 -3.646,-2.863c-2.604,0 -4.167,1.3 -4.167,2.863l0,35.158c0,3.646 -1.562,6.25 -3.125,7.029c-1.562,0.783 -6.771,2.867 -6.771,2.867c-1.825,0.521 -3.125,2.604 -3.125,4.166l0,18.488c0,1.563 0.779,2.346 2.084,2.346c1.041,-0 5.987,-2.346 6.77,-2.867c0.259,0 0.521,-0.258 0.78,-0.258c1.825,-0 3.387,2.604 3.387,4.687l0,25.78c0,2.866 -1.304,5.208 -2.867,5.991c-1.562,0.521 -7.029,2.863 -7.029,2.863c-1.825,0.521 -3.125,2.604 -3.125,4.166l0,18.492c0,1.563 0.779,2.342 2.084,2.342c0.258,-0 0.779,-0.259 1.041,-0.259c0,0 3.646,-1.562 5.988,-2.345c0.262,-0.259 0.521,-0.259 0.783,-0.259c1.821,0 3.125,2.863 3.125,4.167l0,32.029c0,1.563 1.563,2.867 3.383,2.867c2.605,-0 4.43,-1.304 4.43,-2.867l-0,-36.196c-0,-3.387 1.3,-5.208 2.604,-5.729l15.883,-6.512c0.263,-0 0.783,-0.259 1.042,-0.259c2.083,0 3.387,3.125 3.387,4.688l0,32.55c0,1.562 1.563,2.866 3.384,2.866c2.866,0 4.429,-1.304 4.429,-2.866l-0,-36.979c-0,-2.084 1.041,-5.209 2.862,-5.988c1.825,-0.783 7.292,-2.867 7.292,-2.867c1.825,-0.779 3.125,-2.862 3.125,-4.425l-0,-18.491c-0,-1.3 -0.779,-2.084 -1.821,-2.084c-0.521,0 -0.783,0 -1.304,0.263l-6.771,2.604c-1.562,0 -3.383,-1.563 -3.383,-4.688l-0,-24.22c-0,-1.821 1.3,-6.771 3.383,-7.55l6.771,-2.604" style="fill-rule:nonzero;"/></g><g><path d="M867.573,1648.49c23.179,-0 51.562,-21.354 51.562,-43.488c0,-13.283 -10.417,-21.616 -25.258,-21.616c-28.646,-0 -51.563,21.095 -51.563,43.491c0,13.542 11.196,21.613 25.259,21.613" style="fill-rule:nonzero;"/></g><g><path d="M1016.9,1680.78c23.175,0 51.562,-21.354 51.562,-43.487c0,-13.283 -10.417,-21.617 -25.262,-21.617c-28.646,0 -51.563,21.096 -51.563,43.492c0,13.542 11.2,21.612 25.263,21.612" style="fill-rule:nonzero;"/></g><g><path d="M1166.24,1713.08c23.175,0 51.563,-21.354 51.563,-43.487c-0,-13.284 -10.417,-21.617 -25.263,-21.617c-28.646,-0 -51.562,21.096 -51.562,43.492c-0,13.541 11.2,21.612 25.262,21.612" style="fill-rule:nonzero;"/></g><g><path d="M1309.84,1735.47c-5.466,-0 -8.591,-2.863 -10.416,-5.988c-0.78,-1.562 -1.563,-3.387 -1.563,-5.208c0,-12.762 37.763,-33.333 50,-33.333c4.95,-0 7.813,2.341 9.638,5.466c0.779,1.563 1.562,3.125 1.562,4.95c0,11.196 -36.721,34.113 -49.221,34.113m5.729,9.896c42.971,-0 51.563,-34.896 51.563,-43.488c-0,-13.283 -10.675,-21.616 -25.779,-21.616c-38.804,-0 -51.042,29.95 -51.042,43.491c0,13.8 10.938,21.613 25.258,21.613" style="fill-rule:nonzero;"/></g><g><path d="M135.714,1418.55c0.779,4.946 0.779,4.687 -3.908,6.25c-22.917,7.812 -37.763,28.383 -37.763,50.521c0,23.437 12.242,40.104 29.95,46.091c2.084,0.784 5.209,1.563 7.03,1.563c2.083,-0 3.125,-1.3 3.125,-2.863c-0,-1.825 -2.084,-2.604 -3.905,-3.387c-10.937,-4.688 -18.75,-15.883 -18.75,-27.863c0,-14.845 10.155,-26.041 26.042,-30.47c4.167,-1.042 4.688,-0.78 5.208,2.083l13.021,77.604c0.521,2.867 0.259,2.867 -3.646,3.646c-4.166,0.783 -9.375,1.304 -14.583,1.304c-45.575,0 -75,-25.262 -75,-61.458c0,-15.367 2.604,-35.938 24.217,-60.417c15.625,-17.45 27.604,-27.083 39.846,-36.979c2.604,-2.083 3.125,-1.825 3.645,1.042l5.467,33.333m28.388,-177.346c8.591,0 15.625,7.033 15.625,21.354c-0,28.909 -24.742,52.346 -45.313,70.313c-1.825,1.562 -2.867,1.304 -3.387,-2.084c-1.042,-6.77 -1.563,-15.625 -1.563,-23.958c0,-40.625 18.75,-65.625 34.638,-65.625m-10.417,218.75c-0.521,-3.125 -0.263,-3.904 2.862,-3.646c21.096,1.825 38.542,19.534 38.542,42.45c0,16.404 -9.896,29.688 -24.479,36.979c-3.125,1.563 -3.646,1.563 -4.167,-1.562l-12.758,-74.221m-14.063,-81.25c-0.52,-3.125 0,-3.383 1.563,-4.946c28.125,-26.304 49.479,-59.375 49.479,-99.221c0,-22.654 -6.25,-45.05 -16.929,-60.675c-3.904,-5.729 -10.675,-13.021 -13.542,-13.021c-3.646,0 -11.716,6.771 -16.925,12.5c-19.271,21.355 -25.521,53.905 -25.521,80.988c0,15.104 1.821,32.033 3.646,42.708c0.521,3.125 0.779,3.646 -2.346,6.25c-37.5,30.992 -77.341,68.229 -77.341,120.834c-0,45.312 30.987,88.283 94.791,88.283c5.988,-0 12.759,-0.521 17.967,-1.563c2.867,-0.52 3.388,-0.783 3.908,2.342c3.125,17.45 7.03,40.104 7.03,52.346c-0,38.542 -26.042,43.229 -41.405,43.229c-14.062,0 -20.833,-4.167 -20.833,-7.554c0,-1.821 2.342,-2.604 8.333,-4.425c8.071,-2.346 17.446,-9.375 17.446,-24.479c0,-14.325 -9.112,-26.563 -25,-26.563c-17.446,0 -27.862,13.8 -27.862,29.946c-0,16.929 10.154,42.45 49.479,42.45c17.446,0 51.3,-7.812 51.3,-52.083c-0,-14.846 -4.688,-39.584 -7.55,-55.729c-0.521,-3.125 -0.263,-2.867 3.383,-4.429c26.304,-10.417 43.75,-32.551 43.75,-61.98c0,-33.333 -24.479,-62.758 -62.758,-62.758c-6.771,0 -6.771,0 -7.554,-4.688l-6.509,-37.762" style="fill-rule:nonzero;"/></g><g><text x="510.906px" y="1706.28px" style="font-family:'Bravura';font-size:260.417px;"></text></g><g><text x="991.531px" y="1803.15px" style="font-family:'Bravura';font-size:260.417px;"></text></g><g><path d="M430.764,1309.17l0,-33.037l306.379,64.583l0,33.037l-306.379,-64.583" style="fill-rule:nonzero;"/></g><g><path d="M911.364,1422.2l0,-32.475l306.379,32.291l0,32.476l-306.379,-32.292" style="fill-rule:nonzero;"/></g><g><path d="M340.402,1616.2l138.929,27.734l-0,-10.559l-128.646,-25.662l0,-39.95l-10.287,-0" style="fill-rule:nonzero;"/></g><g><path d="M742.352,1697.39l-122.788,-24.375l0,-10.559l112.371,23.321l0,-36.825l10.417,0" style="fill-rule:nonzero;"/></g><g><path d="M820.998,1713.08l138.933,27.734l-0,-10.559l-128.646,-25.662l0,-39.95l-10.287,-0" style="fill-rule:nonzero;"/></g><g><path d="M1222.95,1794.26l-122.788,-24.375l0,-10.559l112.5,23.321l0,-36.825l10.288,0" style="fill-rule:nonzero;"/></g></g></svg>