<?xml version="1.0" encoding="UTF-8" standalone="no"?><!DOCTYPE svg PUBLIC "-//W3C//DTD SVG 1.1//EN" "http://www.w3.org/Graphics/SVG/1.1/DTD/svg11.dtd"><svg width="100%" height="100%" viewBox="0 0 28724 7273" version="1.1" xmlns="http://www.w3.org/2000/svg" xmlns:xlink="http://www.w3.org/1999/xlink" xml:space="preserve" xmlns:serif="http://www.serif.com/" style="fill-rule:evenodd;clip-rule:evenodd;stroke-miterlimit:2;"><g><g><path d="M39.038,1889.34l28645.8,-0" style="fill:none;stroke:#000;stroke-width:34.92px;"/><path d="M39.038,1620.24l28645.8,-0" style="fill:none;stroke:#000;stroke-width:34.92px;"/><path d="M39.038,2427.53l28645.8,0" style="fill:none;stroke:#000;stroke-width:34.92px;"/><path d="M39.038,2158.44l28645.8,-0.001" style="fill:none;stroke:#000;stroke-width:34.92px;"/><path d="M39.038,2696.63l28645.8,0" style="fill:none;stroke:#000;stroke-width:34.92px;"/></g><g><path d="M14872.4,1602.78l0,1111.32" style="fill:none;stroke:#000;stroke-width:43.04px;"/><path d="M28663.1,1602.78l0,1111.32" style="fill:none;stroke:#000;stroke-width:43.04px;"/></g><g><path d="M1810.41,2225.61l-0,1098.58" style="fill:none;stroke:#000;stroke-width:32.29px;"/></g><g><path d="M1399.16,3234.83l535.483,-0" style="fill:none;stroke:#000;stroke-width:43.04px;"/><path d="M1399.16,2965.73l535.483,0" style="fill:none;stroke:#000;stroke-width:43.04px;"/></g><g><path d="M2651.33,2203.09l-0,986.545" style="fill:none;stroke:#000;stroke-width:32.29px;"/></g><g><path d="M2303.03,3234.83l471.996,-0" style="fill:none;stroke:#000;stroke-width:43.04px;"/><path d="M2240.1,2965.73l534.93,0" style="fill:none;stroke:#000;stroke-width:43.04px;"/></g><g><path d="M3492.27,2180.57l0,874.513" style="fill:none;stroke:#000;stroke-width:32.29px;"/></g><g><path d="M3148.29,2965.73l467.675,0" style="fill:none;stroke:#000;stroke-width:43.04px;"/></g><g><path d="M4322.86,2158.33l-0,896.755" style="fill:none;stroke:#000;stroke-width:32.29px;"/></g><g><path d="M3978.91,2965.73l467.658,0" style="fill:none;stroke:#000;stroke-width:43.04px;"/></g><g><path d="M5188.77,1953.58l0,966.962" style="fill:none;stroke:#000;stroke-width:32.29px;"/></g><g><path d="M4839.94,2965.73l472.533,0" style="fill:none;stroke:#000;stroke-width:43.04px;"/></g><g><path d="M6019.4,1841.44l0,944.55" style="fill:none;stroke:#000;stroke-width:32.29px;"/><path d="M6850.02,1729.29l0,922.154" style="fill:none;stroke:#000;stroke-width:32.29px;"/><path d="M7680.65,1617.2l0,899.688" style="fill:none;stroke:#000;stroke-width:32.29px;"/><path d="M8223.69,2472.72l0,762.588" style="fill:none;stroke:#000;stroke-width:32.29px;"/><path d="M9053.77,2338.18l0,852.271" style="fill:none;stroke:#000;stroke-width:32.29px;"/><path d="M9884.4,2203.63l0,941.996" style="fill:none;stroke:#000;stroke-width:32.29px;"/><path d="M10714.5,2203.63l-0,897.134" style="fill:none;stroke:#000;stroke-width:32.29px;"/><path d="M11544.6,2069.08l0,831.321" style="fill:none;stroke:#000;stroke-width:32.29px;"/><path d="M12375.2,1934.53l0,876.196" style="fill:none;stroke:#000;stroke-width:32.29px;"/><path d="M13205.8,1799.98l0,921.009" style="fill:none;stroke:#000;stroke-width:32.29px;"/><path d="M14036.4,1665.43l0,965.871" style="fill:none;stroke:#000;stroke-width:32.29px;"/><path d="M15314,1530.89l0,898.591" style="fill:none;stroke:#000;stroke-width:32.29px;"/><path d="M16144.7,1396.35l-0,943.838" style="fill:none;stroke:#000;stroke-width:32.29px;"/></g><g><path d="M16083.5,1351.15l472.554,-0" style="fill:none;stroke:#000;stroke-width:43.04px;"/></g><g><path d="M16985,1261.8l0,987.938" style="fill:none;stroke:#000;stroke-width:32.29px;"/></g><g><path d="M16928.6,1351.15l468.196,-0" style="fill:none;stroke:#000;stroke-width:43.04px;"/></g><g><path d="M17815.8,1261.8l0,898.579" style="fill:none;stroke:#000;stroke-width:32.29px;"/></g><g><path d="M17759.3,1351.15l468.213,-0" style="fill:none;stroke:#000;stroke-width:43.04px;"/></g><g><path d="M18681.6,1127.26l0,1031.28" style="fill:none;stroke:#000;stroke-width:32.29px;"/></g><g><path d="M18620.8,1082.05l472.555,0" style="fill:none;stroke:#000;stroke-width:43.04px;"/><path d="M18625.1,1351.15l468.213,-0" style="fill:none;stroke:#000;stroke-width:43.04px;"/></g><g><path d="M19512.3,992.708l0,1143.44" style="fill:none;stroke:#000;stroke-width:32.29px;"/></g><g><path d="M19388.5,1082.05l535.487,0" style="fill:none;stroke:#000;stroke-width:43.04px;"/><path d="M19388.5,1351.15l535.487,-0" style="fill:none;stroke:#000;stroke-width:43.04px;"/></g><g><path d="M20342.9,858.158l-0,1255.58" style="fill:none;stroke:#000;stroke-width:32.29px;"/></g><g><path d="M20219.1,812.95l534.929,0" style="fill:none;stroke:#000;stroke-width:43.04px;"/><path d="M20219.1,1082.05l534.929,0" style="fill:none;stroke:#000;stroke-width:43.04px;"/><path d="M20219.1,1351.15l534.929,-0" style="fill:none;stroke:#000;stroke-width:43.04px;"/></g><g><path d="M21173.4,723.613l0,1367.65" style="fill:none;stroke:#000;stroke-width:32.29px;"/></g><g><path d="M21049.3,812.95l535.484,0" style="fill:none;stroke:#000;stroke-width:43.04px;"/><path d="M21049.3,1082.05l535.484,0" style="fill:none;stroke:#000;stroke-width:43.04px;"/><path d="M21049.3,1351.15l535.484,-0" style="fill:none;stroke:#000;stroke-width:43.04px;"/></g><g><path d="M22003.6,589.063l-0,1502.2" style="fill:none;stroke:#000;stroke-width:32.29px;"/></g><g><path d="M21879.8,543.854l535.488,0" style="fill:none;stroke:#000;stroke-width:43.04px;"/><path d="M21879.8,812.95l535.488,0" style="fill:none;stroke:#000;stroke-width:43.04px;"/><path d="M21879.8,1082.05l535.488,0" style="fill:none;stroke:#000;stroke-width:43.04px;"/><path d="M21879.8,1351.15l535.488,-0" style="fill:none;stroke:#000;stroke-width:43.04px;"/></g><g><path d="M22834.1,723.613l0,1390.12" style="fill:none;stroke:#000;stroke-width:32.29px;"/></g><g><path d="M22710.4,812.95l535.471,0" style="fill:none;stroke:#000;stroke-width:43.04px;"/><path d="M22710.4,1082.05l535.471,0" style="fill:none;stroke:#000;stroke-width:43.04px;"/><path d="M22710.4,1351.15l535.471,-0" style="fill:none;stroke:#000;stroke-width:43.04px;"/></g><g><path d="M23664.7,858.158l-0,1277.99" style="fill:none;stroke:#000;stroke-width:32.29px;"/></g><g><path d="M23541.1,812.95l535.487,0" style="fill:none;stroke:#000;stroke-width:43.04px;"/><path d="M23541.1,1082.05l535.487,0" style="fill:none;stroke:#000;stroke-width:43.04px;"/><path d="M23541.1,1351.15l535.487,-0" style="fill:none;stroke:#000;stroke-width:43.04px;"/></g><g><path d="M24495.4,992.708l0,1165.83" style="fill:none;stroke:#000;stroke-width:32.29px;"/></g><g><path d="M24371.6,1082.05l534.946,0" style="fill:none;stroke:#000;stroke-width:43.04px;"/><path d="M24371.6,1351.15l534.946,-0" style="fill:none;stroke:#000;stroke-width:43.04px;"/></g><g><path d="M25326,1127.26l-0,964.009" style="fill:none;stroke:#000;stroke-width:32.29px;"/></g><g><path d="M25201.7,1082.05l535.471,0" style="fill:none;stroke:#000;stroke-width:43.04px;"/><path d="M25201.7,1351.15l535.471,-0" style="fill:none;stroke:#000;stroke-width:43.04px;"/></g><g><path d="M26156,1261.8l0,851.825" style="fill:none;stroke:#000;stroke-width:32.29px;"/></g><g><path d="M26032.4,1351.15l535.488,-0" style="fill:none;stroke:#000;stroke-width:43.04px;"/></g><g><path d="M26997,1261.8l0,874.446" style="fill:none;stroke:#000;stroke-width:32.29px;"/></g><g><path d="M26940.6,1351.15l468.196,-0" style="fill:none;stroke:#000;stroke-width:43.04px;"/></g><g><path d="M27827.6,1396.35l0,762.188" style="fill:none;stroke:#000;stroke-width:32.29px;"/></g><g><path d="M27703.9,1351.15l534.946,-0" style="fill:none;stroke:#000;stroke-width:43.04px;"/></g><g><path d="M1604.61,1202.48c-0,0 -1.075,4.342 -1.075,7.605c-0,4.337 4.337,8.679 8.679,8.679c3.246,-0 5.417,-3.263 6.513,-4.342c1.075,-3.262 14.095,-47.742 20.604,-58.592c2.171,-4.341 4.341,-5.433 5.437,-5.433c2.167,0 3.246,4.338 3.246,7.604l0,155.154c0,13.021 -10.85,20.625 -21.704,20.625c-4.338,0 -9.754,2.171 -9.754,8.684c-0,6.508 5.416,8.679 14.096,8.679l91.145,-0c8.68,-0 8.68,-8.679 8.68,-8.679c-0,-0 -0,-8.684 -8.68,-8.684c-7.587,0 -17.362,-9.775 -17.362,-19.529l-0,-225.696c-0,-8.679 -3.246,-13.02 -10.85,-13.02c-7.588,-0 -14.096,2.17 -20.608,2.17c-10.85,0 -13.021,0 -21.7,-2.17c-4.342,-0 -9.775,6.512 -13.021,10.85l-33.646,116.095" style="fill-rule:nonzero;"/></g><g><path d="M2615.16,1264.34c0,-7.604 -3.262,-8.684 -6.508,-8.684c-4.342,0 -6.513,3.25 -7.604,6.513c-5.417,15.192 -17.363,34.721 -33.63,34.721c-2.17,-0 -4.341,-0 -6.508,-1.092l-16.287,-5.417c-10.85,-4.341 -36.892,-13.02 -58.592,-13.02c-7.588,-0 -14.1,1.074 -20.608,3.245c11.925,-20.608 68.35,-47.741 80.295,-50.991c39.063,-5.434 71.613,-28.213 71.613,-70.538c-0,-26.041 -10.85,-43.4 -24.963,-56.421c-28.212,-22.779 -69.445,-26.041 -81.375,-26.041c-39.062,-0 -70.537,2.166 -98.75,34.721c-7.583,8.679 -10.85,17.362 -10.85,26.041c0,7.604 3.267,16.284 6.513,26.042c6.508,13.021 20.625,22.796 35.817,22.796c27.116,-0 30.379,-26.042 30.379,-37.988c-0,-24.95 -27.134,-27.116 -27.134,-37.971c0,-7.6 10.85,-20.62 43.4,-20.62c51.009,-0 68.371,42.325 68.371,55.345c0,19.53 -6.512,37.967 -17.362,53.159c-19.529,24.966 -55.346,33.646 -82.467,51.008c-30.379,18.438 -51.004,49.913 -60.762,84.633c-0,7.588 3.245,16.271 9.758,19.534c1.092,1.075 3.262,1.075 4.337,1.075c11.946,-0 18.459,-33.63 51.009,-33.63c21.7,0 29.287,29.292 78.125,29.292c22.779,0 65.104,-2.171 73.783,-85.712" style="fill-rule:nonzero;"/></g><g><path d="M3406.2,1253.49l-0,-116.113c-0,-5.416 -1.075,-9.758 -6.509,-9.758c-4.341,-0 -7.587,1.079 -10.85,5.417l-32.554,62.933c-2.171,2.171 -5.416,5.433 -5.416,13.021l-0,44.496l-70.538,-0c44.496,-36.892 113.942,-159.513 115.017,-166.021c-0,-1.08 1.096,-2.171 1.096,-3.246c-0,-4.342 -4.342,-7.604 -7.605,-7.604c-5.416,-0 -28.212,2.166 -37.97,2.166c-9.775,0 -16.284,-2.166 -20.625,-2.166c-5.417,-0 -13.021,2.166 -13.021,10.85c-0,69.441 -56.421,148.662 -70.521,168.191c-2.171,2.171 -4.338,5.417 -4.338,8.684c0,5.416 4.338,10.85 10.85,10.85l97.655,-0l-0,33.629c-0,15.192 -8.68,19.529 -17.359,19.529c-9.775,0 -14.116,4.342 -14.116,9.775c-0,5.417 2.17,11.929 11.945,11.929l93.317,0c5.417,0 10.85,-4.341 10.85,-11.929c0,-7.604 -6.512,-10.85 -11.946,-10.85c-5.416,0 -17.362,-3.262 -17.362,-20.625l-0,-31.458l40.158,-0c5.417,-0 8.679,-4.342 8.679,-10.85c0,-6.513 -2.171,-10.854 -8.679,-10.854l-40.158,-0" style="fill-rule:nonzero;"/></g><g><path d="M4236.77,1253.49l0,-116.113c0,-5.416 -1.095,-9.758 -6.512,-9.758c-4.338,-0 -7.604,1.079 -10.85,5.417l-32.55,62.933c-2.171,2.171 -5.433,5.433 -5.433,13.021l-0,44.496l-70.521,-0c44.479,-36.892 113.921,-159.513 115.016,-166.021c0,-1.08 1.075,-2.171 1.075,-3.246c0,-4.342 -4.341,-7.604 -7.587,-7.604c-5.433,-0 -28.213,2.166 -37.983,2.166c-9.759,0 -16.271,-2.166 -20.609,-2.166c-5.433,-0 -13.021,2.166 -13.021,10.85c0,69.441 -56.425,148.662 -70.537,168.191c-2.171,2.171 -4.342,5.417 -4.342,8.684c0,5.416 4.342,10.85 10.85,10.85l97.659,-0l-0,33.629c-0,15.192 -8.684,19.529 -17.363,19.529c-9.758,0 -14.096,4.342 -14.096,9.775c0,5.417 2.167,11.929 11.925,11.929l93.317,0c5.433,0 10.85,-4.341 10.85,-11.929c-0,-7.604 -6.508,-10.85 -11.925,-10.85c-5.438,0 -17.363,-3.262 -17.363,-20.625l0,-31.458l40.138,-0c5.433,-0 8.683,-4.342 8.683,-10.85c0,-6.513 -2.171,-10.854 -8.683,-10.854l-40.138,-0" style="fill-rule:nonzero;"/></g><g><path d="M4982.65,1202.48c0,0 -1.075,4.342 -1.075,7.605c0,4.337 4.342,8.679 8.68,8.679c3.245,-0 5.416,-3.263 6.512,-4.342c1.075,-3.262 14.096,-47.742 20.608,-58.592c2.167,-4.341 4.338,-5.433 5.434,-5.433c2.171,0 3.246,4.338 3.246,7.604l-0,155.154c-0,13.021 -10.85,20.625 -21.7,20.625c-4.342,0 -9.759,2.171 -9.759,8.684c0,6.508 5.417,8.679 14.096,8.679l91.146,-0c8.683,-0 8.683,-8.679 8.683,-8.679c0,-0 0,-8.684 -8.683,-8.684c-7.588,0 -17.358,-9.775 -17.358,-19.529l-0,-225.696c-0,-8.679 -3.25,-13.02 -10.855,-13.02c-7.583,-0 -14.095,2.17 -20.604,2.17c-10.854,0 -13.021,0 -21.704,-2.17c-4.337,-0 -9.775,6.512 -13.021,10.85l-33.646,116.095" style="fill-rule:nonzero;"/></g><g><path d="M5983.02,1264.34c0,-7.604 -3.245,-8.684 -6.512,-8.684c-4.338,0 -6.508,3.25 -7.583,6.513c-5.438,15.192 -17.363,34.721 -33.646,34.721c-2.171,-0 -4.342,-0 -6.513,-1.092l-16.266,-5.417c-10.85,-4.341 -36.892,-13.02 -58.596,-13.02c-7.604,-0 -14.113,1.074 -20.625,3.245c11.946,-20.608 68.371,-47.741 80.296,-50.991c39.062,-5.434 71.616,-28.213 71.616,-70.538c0,-26.041 -10.85,-43.4 -24.95,-56.421c-28.212,-22.779 -69.441,-26.041 -81.387,-26.041c-39.063,-0 -70.521,2.166 -98.734,34.721c-7.604,8.679 -10.85,17.362 -10.85,26.041c0,7.604 3.246,16.284 6.509,26.042c6.512,13.021 20.608,22.796 35.8,22.796c27.137,-0 30.383,-26.042 30.383,-37.988c0,-24.95 -27.121,-27.116 -27.121,-37.971c0,-7.6 10.854,-20.62 43.404,-20.62c50.992,-0 68.35,42.325 68.35,55.345c0,19.53 -6.508,37.967 -17.358,53.159c-19.533,24.966 -55.333,33.646 -82.467,51.008c-30.383,18.438 -50.991,49.913 -60.762,84.633c-0,7.588 3.262,16.271 9.771,19.534c1.079,1.075 3.25,1.075 4.341,1.075c11.93,-0 18.438,-33.63 50.992,-33.63c21.7,0 29.304,29.292 78.125,29.292c22.792,0 65.104,-2.171 73.783,-85.712" style="fill-rule:nonzero;"/></g><g><path d="M6763.94,1253.49l0,-116.113c0,-5.416 -1.079,-9.758 -6.512,-9.758c-4.338,-0 -7.588,1.079 -10.85,5.417l-32.55,62.933c-2.171,2.171 -5.417,5.433 -5.417,13.021l-0,44.496l-70.542,-0c44.5,-36.892 113.942,-159.513 115.021,-166.021c0,-1.08 1.092,-2.171 1.092,-3.246c-0,-4.342 -4.342,-7.604 -7.604,-7.604c-5.417,-0 -28.213,2.166 -37.967,2.166c-9.775,0 -16.288,-2.166 -20.625,-2.166c-5.417,-0 -13.021,2.166 -13.021,10.85c0,69.441 -56.425,148.662 -70.521,168.191c-2.171,2.171 -4.341,5.417 -4.341,8.684c-0,5.416 4.341,10.85 10.85,10.85l97.658,-0l-0,33.629c-0,15.192 -8.683,19.529 -17.363,19.529c-9.775,0 -14.116,4.342 -14.116,9.775c-0,5.417 2.171,11.929 11.946,11.929l93.316,0c5.417,0 10.85,-4.341 10.85,-11.929c0,-7.604 -6.508,-10.85 -11.946,-10.85c-5.416,0 -17.358,-3.262 -17.358,-20.625l0,-31.458l40.154,-0c5.417,-0 8.684,-4.342 8.684,-10.85c-0,-6.513 -2.171,-10.854 -8.684,-10.854l-40.154,-0" style="fill-rule:nonzero;"/></g><g><path d="M7594.56,1253.49l0,-116.113c0,-5.416 -1.096,-9.758 -6.512,-9.758c-4.338,-0 -7.605,1.079 -10.85,5.417l-32.55,62.933c-2.171,2.171 -5.438,5.433 -5.438,13.021l0,44.496l-70.521,-0c44.479,-36.892 113.925,-159.513 115.021,-166.021c0,-1.08 1.075,-2.171 1.075,-3.246c0,-4.342 -4.342,-7.604 -7.587,-7.604c-5.434,-0 -28.213,2.166 -37.988,2.166c-9.754,0 -16.267,-2.166 -20.604,-2.166c-5.438,-0 -13.021,2.166 -13.021,10.85c0,69.441 -56.425,148.662 -70.542,168.191c-2.166,2.171 -4.337,5.417 -4.337,8.684c-0,5.416 4.337,10.85 10.85,10.85l97.654,-0l0,33.629c0,15.192 -8.679,19.529 -17.358,19.529c-9.759,0 -14.1,4.342 -14.1,9.775c-0,5.417 2.171,11.929 11.929,11.929l93.317,0c5.433,0 10.85,-4.341 10.85,-11.929c-0,-7.604 -6.513,-10.85 -11.93,-10.85c-5.433,0 -17.358,-3.262 -17.358,-20.625l0,-31.458l40.138,-0c5.433,-0 8.679,-4.342 8.679,-10.85c-0,-6.513 -2.167,-10.854 -8.679,-10.854l-40.138,-0" style="fill-rule:nonzero;"/></g><g><path d="M8305.27,1202.48c0,0 -1.079,4.342 -1.079,7.605c0,4.337 4.342,8.679 8.684,8.679c3.245,-0 5.416,-3.263 6.508,-4.342c1.075,-3.262 14.096,-47.742 20.608,-58.592c2.171,-4.341 4.342,-5.433 5.434,-5.433c2.17,0 3.245,4.338 3.245,7.604l0,155.154c0,13.021 -10.85,20.625 -21.7,20.625c-4.341,0 -9.758,2.171 -9.758,8.684c0,6.508 5.417,8.679 14.1,8.679l91.146,-0c8.679,-0 8.679,-8.679 8.679,-8.679c0,-0 0,-8.684 -8.679,-8.684c-7.588,0 -17.363,-9.775 -17.363,-19.529l0,-225.696c0,-8.679 -3.245,-13.02 -10.85,-13.02c-7.587,-0 -14.1,2.17 -20.608,2.17c-10.85,0 -13.021,0 -21.7,-2.17c-4.342,-0 -9.775,6.512 -13.021,10.85l-33.646,116.095" style="fill-rule:nonzero;"/></g><g><path d="M9305.27,1264.34c0,-7.604 -3.25,-8.684 -6.512,-8.684c-4.342,0 -6.508,3.25 -7.588,6.513c-5.433,15.192 -17.358,34.721 -33.645,34.721c-2.171,-0 -4.338,-0 -6.509,-1.092l-16.266,-5.417c-10.855,-4.341 -36.896,-13.02 -58.596,-13.02c-7.604,-0 -14.113,1.074 -20.625,3.245c11.946,-20.608 68.366,-47.741 80.296,-50.991c39.062,-5.434 71.612,-28.213 71.612,-70.538c0,-26.041 -10.85,-43.4 -24.946,-56.421c-28.212,-22.779 -69.446,-26.041 -81.387,-26.041c-39.063,-0 -70.521,2.166 -98.734,34.721c-7.604,8.679 -10.85,17.362 -10.85,26.041c0,7.604 3.246,16.284 6.509,26.042c6.512,13.021 20.608,22.796 35.8,22.796c27.133,-0 30.379,-26.042 30.379,-37.988c-0,-24.95 -27.117,-27.116 -27.117,-37.971c0,-7.6 10.85,-20.62 43.404,-20.62c50.988,-0 68.35,42.325 68.35,55.345c0,19.53 -6.512,37.967 -17.362,53.159c-19.529,24.966 -55.329,33.646 -82.463,51.008c-30.383,18.438 -50.991,49.913 -60.766,84.633c-0,7.588 3.266,16.271 9.775,19.534c1.075,1.075 3.246,1.075 4.341,1.075c11.925,-0 18.438,-33.63 50.988,-33.63c21.704,0 29.308,29.292 78.125,29.292c22.796,0 65.104,-2.171 73.787,-85.712" style="fill-rule:nonzero;"/></g><g><path d="M10085.9,1253.49l-0,-116.113c-0,-5.416 -1.096,-9.758 -6.513,-9.758c-4.337,-0 -7.604,1.079 -10.85,5.417l-32.55,62.933c-2.171,2.171 -5.433,5.433 -5.433,13.021l-0,44.496l-70.521,-0c44.479,-36.892 113.921,-159.513 115.017,-166.021c-0,-1.08 1.075,-2.171 1.075,-3.246c-0,-4.342 -4.342,-7.604 -7.588,-7.604c-5.433,-0 -28.212,2.166 -37.983,2.166c-9.758,0 -16.271,-2.166 -20.608,-2.166c-5.434,-0 -13.021,2.166 -13.021,10.85c-0,69.441 -56.425,148.662 -70.538,168.191c-2.171,2.171 -4.341,5.417 -4.341,8.684c-0,5.416 4.341,10.85 10.85,10.85l97.658,-0l-0,33.629c-0,15.192 -8.683,19.529 -17.363,19.529c-9.758,0 -14.095,4.342 -14.095,9.775c-0,5.417 2.166,11.929 11.925,11.929l93.316,0c5.434,0 10.85,-4.341 10.85,-11.929c0,-7.604 -6.508,-10.85 -11.925,-10.85c-5.437,0 -17.362,-3.262 -17.362,-20.625l-0,-31.458l40.137,-0c5.434,-0 8.684,-4.342 8.684,-10.85c-0,-6.513 -2.171,-10.854 -8.684,-10.854l-40.137,-0" style="fill-rule:nonzero;"/></g><g><path d="M10916.1,1253.49l-0,-116.113c-0,-5.416 -1.092,-9.758 -6.509,-9.758c-4.341,-0 -7.604,1.079 -10.85,5.417l-32.554,62.933c-2.171,2.171 -5.433,5.433 -5.433,13.021l-0,44.496l-70.521,-0c44.479,-36.892 113.925,-159.513 115.017,-166.021c-0,-1.08 1.075,-2.171 1.075,-3.246c-0,-4.342 -4.338,-7.604 -7.584,-7.604c-5.437,-0 -28.212,2.166 -37.987,2.166c-9.758,0 -16.267,-2.166 -20.608,-2.166c-5.434,-0 -13.021,2.166 -13.021,10.85c-0,69.441 -56.425,148.662 -70.538,168.191c-2.171,2.171 -4.341,5.417 -4.341,8.684c-0,5.416 4.341,10.85 10.85,10.85l97.658,-0l-0,33.629c-0,15.192 -8.679,19.529 -17.363,19.529c-9.754,0 -14.095,4.342 -14.095,9.775c-0,5.417 2.17,11.929 11.925,11.929l93.316,0c5.434,0 10.85,-4.341 10.85,-11.929c0,-7.604 -6.508,-10.85 -11.925,-10.85c-5.433,0 -17.362,-3.262 -17.362,-20.625l-0,-31.458l40.141,-0c5.434,-0 8.68,-4.342 8.68,-10.85c-0,-6.513 -2.171,-10.854 -8.68,-10.854l-40.141,-0" style="fill-rule:nonzero;"/></g><g><path d="M11626,1202.48c-0,0 -1.075,4.342 -1.075,7.605c-0,4.337 4.341,8.679 8.679,8.679c3.246,-0 5.417,-3.263 6.512,-4.342c1.075,-3.262 14.096,-47.742 20.609,-58.592c2.166,-4.341 4.337,-5.433 5.433,-5.433c2.171,0 3.246,4.338 3.246,7.604l-0,155.154c-0,13.021 -10.85,20.625 -21.7,20.625c-4.342,0 -9.758,2.171 -9.758,8.684c-0,6.508 5.416,8.679 14.095,8.679l91.146,-0c8.684,-0 8.684,-8.679 8.684,-8.679c-0,-0 -0,-8.684 -8.684,-8.684c-7.587,0 -17.358,-9.775 -17.358,-19.529l-0,-225.696c-0,-8.679 -3.25,-13.02 -10.854,-13.02c-7.584,-0 -14.096,2.17 -20.604,2.17c-10.855,0 -13.021,0 -21.705,-2.17c-4.337,-0 -9.775,6.512 -13.02,10.85l-33.646,116.095" style="fill-rule:nonzero;"/></g><g><path d="M12626.4,1264.34c0,-7.604 -3.245,-8.684 -6.508,-8.684c-4.342,0 -6.512,3.25 -7.587,6.513c-5.434,15.192 -17.363,34.721 -33.646,34.721c-2.171,-0 -4.342,-0 -6.509,-1.092l-16.27,-5.417c-10.85,-4.341 -36.892,-13.02 -58.592,-13.02c-7.604,-0 -14.117,1.074 -20.625,3.245c11.946,-20.608 68.367,-47.741 80.296,-50.991c39.062,-5.434 71.612,-28.213 71.612,-70.538c0,-26.041 -10.85,-43.4 -24.946,-56.421c-28.212,-22.779 -69.445,-26.041 -81.391,-26.041c-39.063,-0 -70.521,2.166 -98.729,34.721c-7.605,8.679 -10.855,17.362 -10.855,26.041c0,7.604 3.25,16.284 6.513,26.042c6.508,13.021 20.608,22.796 35.8,22.796c27.133,-0 30.379,-26.042 30.379,-37.988c0,-24.95 -27.117,-27.116 -27.117,-37.971c0,-7.6 10.85,-20.62 43.405,-20.62c50.987,-0 68.35,42.325 68.35,55.345c-0,19.53 -6.513,37.967 -17.363,53.159c-19.529,24.966 -55.329,33.646 -82.467,51.008c-30.379,18.438 -50.987,49.913 -60.762,84.633c-0,7.588 3.262,16.271 9.775,19.534c1.075,1.075 3.246,1.075 4.342,1.075c11.925,-0 18.437,-33.63 50.987,-33.63c21.7,0 29.304,29.292 78.125,29.292c22.796,0 65.104,-2.171 73.783,-85.712" style="fill-rule:nonzero;"/></g><g><path d="M13407.3,1253.49l0,-116.113c0,-5.416 -1.079,-9.758 -6.512,-9.758c-4.338,-0 -7.588,1.079 -10.85,5.417l-32.55,62.933c-2.171,2.171 -5.417,5.433 -5.417,13.021l0,44.496l-70.541,-0c44.5,-36.892 113.941,-159.513 115.02,-166.021c0,-1.08 1.092,-2.171 1.092,-3.246c0,-4.342 -4.342,-7.604 -7.604,-7.604c-5.417,-0 -28.213,2.166 -37.967,2.166c-9.775,0 -16.287,-2.166 -20.625,-2.166c-5.416,-0 -13.021,2.166 -13.021,10.85c0,69.441 -56.425,148.662 -70.52,168.191c-2.171,2.171 -4.342,5.417 -4.342,8.684c-0,5.416 4.342,10.85 10.85,10.85l97.658,-0l0,33.629c0,15.192 -8.683,19.529 -17.362,19.529c-9.775,0 -14.117,4.342 -14.117,9.775c0,5.417 2.171,11.929 11.946,11.929l93.317,0c5.416,0 10.85,-4.341 10.85,-11.929c-0,-7.604 -6.509,-10.85 -11.946,-10.85c-5.417,0 -17.359,-3.262 -17.359,-20.625l0,-31.458l40.155,-0c5.416,-0 8.683,-4.342 8.683,-10.85c-0,-6.513 -2.171,-10.854 -8.683,-10.854l-40.155,-0" style="fill-rule:nonzero;"/></g><g><path d="M14238,1253.25l-0,-116.092c-0,-5.433 -1.075,-9.775 -6.509,-9.775c-4.341,0 -7.587,1.092 -10.85,5.433l-32.554,62.934c-2.171,2.171 -5.416,5.417 -5.416,13.021l-0,44.479l-70.538,-0c44.496,-36.892 113.942,-159.496 115.017,-166.004c-0,-1.096 1.096,-2.171 1.096,-3.267c-0,-4.338 -4.342,-7.588 -7.605,-7.588c-5.416,0 -28.212,2.171 -37.97,2.171c-9.775,0 -16.284,-2.171 -20.625,-2.171c-5.417,0 -13.021,2.171 -13.021,10.855c-0,69.441 -56.425,148.645 -70.521,168.175c-2.171,2.17 -4.342,5.433 -4.342,8.679c0,5.437 4.342,10.854 10.854,10.854l97.655,0l-0,33.646c-0,15.187 -8.68,19.529 -17.363,19.529c-9.771,0 -14.112,4.342 -14.112,9.758c-0,5.434 2.17,11.942 11.945,11.942l93.313,0c5.417,0 10.854,-4.338 10.854,-11.942c0,-7.587 -6.512,-10.85 -11.946,-10.85c-5.416,0 -17.362,-3.25 -17.362,-20.608l-0,-31.475l40.158,-0c5.417,-0 8.679,-4.342 8.679,-10.854c0,-6.509 -2.171,-10.85 -8.679,-10.85l-40.158,-0" style="fill-rule:nonzero;"/></g><g><path d="M15396,1066.86c-0,0 -1.092,4.338 -1.092,7.588c0,4.337 4.338,8.679 8.679,8.679c3.263,0 5.434,-3.246 6.509,-4.342c1.095,-3.245 14.116,-47.741 20.625,-58.591c2.17,-4.342 4.341,-5.417 5.416,-5.417c2.171,0 3.267,4.338 3.267,7.588l-0,155.17c-0,13.021 -10.85,20.609 -21.704,20.609c-4.338,-0 -9.771,2.171 -9.771,8.679c-0,6.512 5.433,8.683 14.112,8.683l91.146,0c8.679,0 8.679,-8.683 8.679,-8.683c0,-0 0,-8.679 -8.679,-8.679c-7.604,-0 -17.362,-9.759 -17.362,-19.529l-0,-225.696c-0,-8.679 -3.263,-13.021 -10.85,-13.021c-7.604,-0 -14.113,2.171 -20.625,2.171c-10.85,-0 -13.021,-0 -21.7,-2.171c-4.342,-0 -9.759,6.508 -13.021,10.85l-33.629,116.112" style="fill-rule:nonzero;"/></g><g><path d="M16396,990.763c-0,-7.584 -3.263,-8.68 -6.509,-8.68c-4.341,0 -6.512,3.263 -7.604,6.513c-5.416,15.187 -17.362,34.721 -33.629,34.721c-2.171,-0 -4.342,-0 -6.512,-1.075l-16.284,-5.438c-10.85,-4.337 -36.891,-13.021 -58.596,-13.021c-7.583,0 -14.095,1.096 -20.604,3.267c11.925,-20.625 68.35,-47.746 80.292,-51.008c39.062,-5.417 71.617,-28.213 71.617,-70.521c-0,-26.042 -10.85,-43.404 -24.967,-56.425c-28.213,-22.792 -69.442,-26.042 -81.371,-26.042c-39.062,0 -70.537,2.171 -98.75,34.725c-7.587,8.679 -10.85,17.358 -10.85,26.042c0,7.587 3.263,16.266 6.508,26.041c6.513,13.021 20.625,22.775 35.817,22.775c27.121,0 30.383,-26.041 30.383,-37.966c0,-24.967 -27.137,-27.138 -27.137,-37.988c-0,-7.587 10.854,-20.608 43.404,-20.608c51.008,-0 68.367,42.312 68.367,55.333c-0,19.529 -6.509,37.984 -17.359,53.175c-19.533,24.95 -55.35,33.629 -82.466,50.992c-30.384,18.454 -51.009,49.912 -60.763,84.633c0,7.604 3.246,16.284 9.754,19.534c1.096,1.091 3.267,1.091 4.342,1.091c11.946,0 18.454,-33.646 51.008,-33.646c21.7,0 29.288,29.305 78.125,29.305c22.775,-0 65.105,-2.167 73.784,-85.73" style="fill-rule:nonzero;"/></g><g><path d="M17186.9,849.6l0,-116.092c0,-5.433 -1.075,-9.775 -6.508,-9.775c-4.342,0 -7.588,1.092 -10.85,5.434l-32.554,62.933c-2.171,2.171 -5.417,5.417 -5.417,13.021l-0,44.479l-70.538,0c44.496,-36.892 113.942,-159.496 115.017,-166.004c0,-1.096 1.096,-2.171 1.096,-3.267c-0,-4.337 -4.342,-7.587 -7.604,-7.587c-5.417,-0 -28.213,2.171 -37.971,2.171c-9.775,-0 -16.283,-2.171 -20.625,-2.171c-5.417,-0 -13.021,2.171 -13.021,10.854c0,69.442 -56.421,148.646 -70.521,168.175c-2.171,2.171 -4.337,5.433 -4.337,8.679c-0,5.438 4.337,10.854 10.85,10.854l97.654,0l-0,33.646c-0,15.188 -8.679,19.529 -17.358,19.529c-9.775,0 -14.117,4.342 -14.117,9.759c-0,5.433 2.171,11.941 11.946,11.941l93.316,0c5.417,0 10.85,-4.337 10.85,-11.942c0,-7.587 -6.512,-10.85 -11.945,-10.85c-5.417,0 -17.363,-3.25 -17.363,-20.608l0,-31.475l40.158,0c5.417,0 8.68,-4.341 8.68,-10.854c-0,-6.508 -2.171,-10.85 -8.68,-10.85l-40.158,0" style="fill-rule:nonzero;"/></g><g><path d="M18017.5,849.6l-0,-116.092c-0,-5.433 -1.096,-9.775 -6.513,-9.775c-4.337,0 -7.604,1.092 -10.85,5.434l-32.55,62.933c-2.171,2.171 -5.437,5.417 -5.437,13.021l-0,44.479l-70.521,0c44.479,-36.892 113.925,-159.496 115.021,-166.004c-0,-1.096 1.075,-2.171 1.075,-3.267c-0,-4.337 -4.342,-7.587 -7.588,-7.587c-5.433,-0 -28.212,2.171 -37.987,2.171c-9.754,-0 -16.267,-2.171 -20.604,-2.171c-5.438,-0 -13.021,2.171 -13.021,10.854c-0,69.442 -56.425,148.646 -70.542,168.175c-2.167,2.171 -4.337,5.433 -4.337,8.679c-0,5.438 4.337,10.854 10.85,10.854l97.654,0l-0,33.646c-0,15.188 -8.679,19.529 -17.359,19.529c-9.758,0 -14.1,4.342 -14.1,9.759c0,5.433 2.171,11.941 11.93,11.941l93.316,0c5.434,0 10.85,-4.337 10.85,-11.942c0,-7.587 -6.512,-10.85 -11.929,-10.85c-5.433,0 -17.358,-3.25 -17.358,-20.608l-0,-31.475l40.137,0c5.434,0 8.679,-4.341 8.679,-10.854c0,-6.508 -2.166,-10.85 -8.679,-10.85l-40.137,0" style="fill-rule:nonzero;"/></g><g><path d="M18763.3,663.213c0,-0 -1.079,4.341 -1.079,7.587c-0,4.338 4.342,8.679 8.683,8.679c3.246,0 5.417,-3.246 6.509,-4.341c1.079,-3.246 14.1,-47.742 20.608,-58.592c2.171,-4.342 4.342,-5.417 5.433,-5.417c2.171,0 3.246,4.342 3.246,7.588l0,155.17c0,13.021 -10.85,20.609 -21.7,20.609c-4.342,-0 -9.758,2.171 -9.758,8.683c-0,6.508 5.416,8.679 14.1,8.679l91.146,0c8.679,0 8.679,-8.679 8.679,-8.679c-0,0 -0,-8.683 -8.679,-8.683c-7.588,-0 -17.363,-9.754 -17.363,-19.529l0,-225.696c0,-8.679 -3.246,-13.021 -10.85,-13.021c-7.587,-0 -14.096,2.171 -20.608,2.171c-10.85,-0 -13.021,-0 -21.7,-2.171c-4.342,-0 -9.775,6.512 -13.021,10.85l-33.646,116.112" style="fill-rule:nonzero;"/></g><g><path d="M19763.7,587.117c0,-7.584 -3.262,-8.679 -6.508,-8.679c-4.342,-0 -6.513,3.262 -7.604,6.512c-5.417,15.188 -17.363,34.721 -33.63,34.721c-2.17,-0 -4.341,-0 -6.512,-1.075l-16.283,-5.438c-10.85,-4.337 -36.892,-13.021 -58.596,-13.021c-7.584,0 -14.096,1.096 -20.604,3.267c11.925,-20.625 68.35,-47.746 80.291,-51.008c39.063,-5.417 71.617,-28.213 71.617,-70.521c-0,-26.042 -10.85,-43.404 -24.967,-56.425c-28.212,-22.792 -69.441,-26.042 -81.371,-26.042c-39.062,0 -70.537,2.171 -98.75,34.725c-7.587,8.679 -10.85,17.359 -10.85,26.042c0,7.587 3.263,16.267 6.509,26.042c6.512,13.02 20.625,22.775 35.816,22.775c27.121,-0 30.384,-26.042 30.384,-37.967c-0,-24.967 -27.138,-27.138 -27.138,-37.988c0,-7.587 10.854,-20.608 43.404,-20.608c51.009,0 68.367,42.313 68.367,55.333c0,19.53 -6.508,37.984 -17.358,53.175c-19.534,24.95 -55.35,33.63 -82.467,50.992c-30.383,18.454 -51.008,49.913 -60.762,84.634c-0,7.604 3.245,16.283 9.754,19.533c1.096,1.091 3.266,1.091 4.341,1.091c11.946,0 18.455,-33.645 51.009,-33.645c21.7,-0 29.287,29.304 78.125,29.304c22.775,-0 65.104,-2.167 73.783,-85.729" style="fill-rule:nonzero;"/></g><g><path d="M20475.5,269.321c-59.688,-0 -85.729,40.158 -85.729,62.937c-0,15.188 8.683,33.646 35.816,34.721c20.609,0 30.384,-13.021 30.384,-27.116l-0,-4.342c-1.096,-16.284 -11.946,-17.363 -14.117,-18.454c-2.167,-1.075 -6.508,-5.417 -6.508,-13.021c2.17,-11.929 18.454,-16.267 22.795,-16.267c55.33,0 71.613,29.288 71.613,47.742c-0,50.987 -52.083,55.329 -68.367,56.425c-7.587,-0 -15.191,3.246 -15.191,9.754c-0,6.512 9.775,6.512 14.116,6.512c62.934,0 71.613,32.55 71.613,48.838c-0,62.933 -51.009,65.104 -64.029,65.104c-6.509,0 -17.359,-3.267 -18.438,-8.683l0,-6.509c0,-11.945 3.25,-24.966 4.342,-35.816c-0,-19.529 -13.021,-31.459 -32.55,-31.459l-4.342,0c-7.604,2.171 -15.192,6.513 -20.625,11.93c-7.587,6.508 -9.758,16.283 -9.758,26.041c1.079,34.721 31.458,64.025 85.712,65.104l6.513,0c53.175,0 108.504,-28.212 108.504,-75.958c-0,-10.85 -2.171,-19.529 -5.417,-26.042c-2.171,-6.508 -6.508,-11.925 -10.85,-16.266c-3.262,-4.338 -7.604,-7.604 -11.946,-10.85l-11.925,-6.513l-6.512,-2.166c-2.167,-0 -3.263,-1.096 -5.433,-1.096l-6.509,-2.171c-3.246,-1.075 -4.341,0 -5.416,-2.171c-1.096,-1.075 -1.096,-2.166 -1.096,-3.246c-0,-2.166 1.096,-4.337 3.266,-4.337l17.359,-5.438c7.587,-4.337 15.191,-7.583 20.608,-15.187c8.679,-8.684 11.946,-22.779 11.946,-34.725c-0,-50.988 -67.275,-65.104 -91.146,-67.275l-8.683,-0" style="fill-rule:nonzero;"/></g><g><path d="M21374.9,311.404l0,-116.092c0,-5.433 -1.075,-9.775 -6.508,-9.775c-4.342,0 -7.588,1.096 -10.85,5.434l-32.554,62.937c-2.171,2.167 -5.417,5.413 -5.417,13.017l-0,44.479l-70.538,0c44.496,-36.892 113.942,-159.496 115.017,-166.004c0,-1.096 1.096,-2.171 1.096,-3.267c-0,-4.337 -4.342,-7.583 -7.604,-7.583c-5.417,-0 -28.213,2.171 -37.971,2.171c-9.775,-0 -16.283,-2.171 -20.625,-2.171c-5.417,-0 -13.021,2.171 -13.021,10.85c0,69.446 -56.421,148.646 -70.521,168.175c-2.171,2.171 -4.337,5.438 -4.337,8.683c-0,5.434 4.337,10.85 10.85,10.85l97.654,0l-0,33.646c-0,15.192 -8.679,19.529 -17.358,19.529c-9.775,0 -14.117,4.342 -14.117,9.759c-0,5.433 2.171,11.945 11.946,11.945l93.316,0c5.417,0 10.85,-4.341 10.85,-11.945c0,-7.588 -6.512,-10.85 -11.945,-10.85c-5.417,-0 -17.363,-3.246 -17.363,-20.609l0,-31.475l40.158,0c5.417,0 8.68,-4.341 8.68,-10.85c-0,-6.512 -2.171,-10.854 -8.68,-10.854l-40.158,0" style="fill-rule:nonzero;"/></g><g><path d="M22205.4,176.858l-0,-116.096c-0,-5.433 -1.092,-9.775 -6.509,-9.775c-4.341,0 -7.604,1.096 -10.854,5.438l-32.55,62.933c-2.171,2.171 -5.433,5.417 -5.433,13.021l-0,44.479l-70.521,0c44.479,-36.891 113.921,-159.496 115.017,-166.008c-0,-1.092 1.075,-2.171 1.075,-3.262c-0,-4.342 -4.338,-7.588 -7.588,-7.588c-5.433,0 -28.208,2.171 -37.983,2.171c-9.758,-0 -16.267,-2.171 -20.608,-2.171c-5.434,0 -13.021,2.171 -13.021,10.85c-0,69.446 -56.425,148.646 -70.538,168.179c-2.171,2.167 -4.341,5.434 -4.341,8.679c-0,5.434 4.341,10.85 10.85,10.85l97.658,0l-0,33.646c-0,15.192 -8.683,19.534 -17.363,19.534c-9.758,-0 -14.095,4.337 -14.095,9.754c-0,5.433 2.17,11.945 11.925,11.945l93.316,0c5.434,0 10.85,-4.341 10.85,-11.945c0,-7.588 -6.508,-10.85 -11.925,-10.85c-5.433,-0 -17.362,-3.246 -17.362,-20.609l-0,-31.475l40.137,0c5.438,0 8.684,-4.341 8.684,-10.85c-0,-6.512 -2.171,-10.85 -8.684,-10.85l-40.137,0" style="fill-rule:nonzero;"/></g><g><path d="M23035.9,311.404l0,-116.092c0,-5.433 -1.075,-9.775 -6.508,-9.775c-4.342,0 -7.587,1.096 -10.85,5.434l-32.554,62.937c-2.171,2.167 -5.417,5.413 -5.417,13.017l0,44.479l-70.537,0c44.496,-36.892 113.941,-159.496 115.016,-166.004c0,-1.096 1.096,-2.171 1.096,-3.267c0,-4.337 -4.341,-7.583 -7.604,-7.583c-5.417,-0 -28.212,2.171 -37.971,2.171c-9.775,-0 -16.283,-2.171 -20.625,-2.171c-5.416,-0 -13.021,2.171 -13.021,10.85c0,69.446 -56.42,148.646 -70.52,168.175c-2.171,2.171 -4.338,5.438 -4.338,8.683c0,5.434 4.338,10.85 10.85,10.85l97.654,0l0,33.646c0,15.192 -8.679,19.529 -17.358,19.529c-9.775,0 -14.117,4.342 -14.117,9.759c0,5.433 2.171,11.945 11.946,11.945l93.317,0c5.416,0 10.85,-4.341 10.85,-11.945c-0,-7.588 -6.513,-10.85 -11.946,-10.85c-5.417,-0 -17.363,-3.246 -17.363,-20.609l0,-31.475l40.159,0c5.416,0 8.679,-4.341 8.679,-10.85c-0,-6.512 -2.171,-10.854 -8.679,-10.854l-40.159,0" style="fill-rule:nonzero;"/></g><g><path d="M23797.5,269.321c-59.687,-0 -85.729,40.158 -85.729,62.937c0,15.188 8.679,33.646 35.817,34.721c20.608,0 30.383,-13.021 30.383,-27.116l0,-4.342c-1.096,-16.284 -11.946,-17.363 -14.116,-18.454c-2.171,-1.075 -6.509,-5.417 -6.509,-13.021c2.167,-11.929 18.454,-16.267 22.792,-16.267c55.333,0 71.617,29.288 71.617,47.742c-0,50.987 -52.084,55.329 -68.367,56.425c-7.588,-0 -15.192,3.246 -15.192,9.754c0,6.512 9.775,6.512 14.113,6.512c62.933,0 71.616,32.55 71.616,48.838c0,62.933 -51.008,65.104 -64.029,65.104c-6.508,0 -17.362,-3.267 -18.437,-8.683l-0,-6.509c-0,-11.945 3.246,-24.966 4.341,-35.816c0,-19.529 -13.02,-31.459 -32.554,-31.459l-4.337,0c-7.604,2.171 -15.192,6.513 -20.625,11.93c-7.588,6.508 -9.759,16.283 -9.759,26.041c1.075,34.721 31.459,64.025 85.713,65.104l6.508,0c53.179,0 108.509,-28.212 108.509,-75.958c-0,-10.85 -2.171,-19.529 -5.417,-26.042c-2.171,-6.508 -6.513,-11.925 -10.85,-16.266c-3.267,-4.338 -7.604,-7.604 -11.946,-10.85l-11.925,-6.513l-6.512,-2.166c-2.171,-0 -3.263,-1.096 -5.434,-1.096l-6.512,-2.171c-3.246,-1.075 -4.338,0 -5.417,-2.171c-1.092,-1.075 -1.092,-2.166 -1.092,-3.246c0,-2.166 1.092,-4.337 3.263,-4.337l17.362,-5.438c7.588,-4.337 15.192,-7.583 20.609,-15.187c8.679,-8.684 11.941,-22.779 11.941,-34.725c0,-50.988 -67.27,-65.104 -91.145,-67.275l-8.68,-0" style="fill-rule:nonzero;"/></g><g><path d="M24576.9,528.663c-0,-0 -1.096,4.341 -1.096,7.587c-0,4.342 4.342,8.679 8.683,8.679c3.263,0 5.434,-3.246 6.509,-4.337c1.095,-3.25 14.116,-47.746 20.625,-58.596c2.17,-4.338 4.341,-5.417 5.416,-5.417c2.171,0 3.263,4.342 3.263,7.588l-0,155.175c-0,13.02 -10.85,20.608 -21.7,20.608c-4.342,0 -9.775,2.167 -9.775,8.679c-0,6.509 5.433,8.679 14.116,8.679l91.146,0c8.679,0 8.679,-8.679 8.679,-8.679c0,0 0,-8.679 -8.679,-8.679c-7.604,0 -17.362,-9.758 -17.362,-19.533l-0,-225.696c-0,-8.679 -3.263,-13.021 -10.85,-13.021c-7.604,0 -14.117,2.171 -20.625,2.171c-10.85,-0 -13.021,-0 -21.7,-2.171c-4.342,0 -9.759,6.513 -13.021,10.854l-33.629,116.109" style="fill-rule:nonzero;"/></g><g><path d="M25407.4,663.213c0,-0 -1.075,4.341 -1.075,7.587c0,4.338 4.338,8.679 8.679,8.679c3.246,0 5.417,-3.246 6.513,-4.341c1.075,-3.246 14.096,-47.742 20.604,-58.592c2.171,-4.342 4.342,-5.417 5.437,-5.417c2.167,0 3.246,4.342 3.246,7.588l0,155.17c0,13.021 -10.85,20.609 -21.704,20.609c-4.337,-0 -9.754,2.171 -9.754,8.683c-0,6.508 5.417,8.679 14.096,8.679l91.146,0c8.679,0 8.679,-8.679 8.679,-8.679c-0,0 -0,-8.683 -8.679,-8.683c-7.588,-0 -17.363,-9.754 -17.363,-19.529l0,-225.696c0,-8.679 -3.246,-13.021 -10.85,-13.021c-7.587,-0 -14.096,2.171 -20.608,2.171c-10.85,-0 -13.021,-0 -21.7,-2.171c-4.342,-0 -9.775,6.512 -13.021,10.85l-33.646,116.112" style="fill-rule:nonzero;"/></g><g><path d="M26357.9,849.6l0,-116.092c0,-5.433 -1.092,-9.775 -6.508,-9.775c-4.342,0 -7.604,1.092 -10.854,5.434l-32.55,62.933c-2.171,2.171 -5.434,5.417 -5.434,13.021l0,44.479l-70.521,0c44.48,-36.892 113.921,-159.496 115.017,-166.004c0,-1.096 1.075,-2.171 1.075,-3.267c0,-4.337 -4.337,-7.587 -7.587,-7.587c-5.434,-0 -28.209,2.171 -37.984,2.171c-9.758,-0 -16.266,-2.171 -20.608,-2.171c-5.433,-0 -13.021,2.171 -13.021,10.854c0,69.442 -56.425,148.646 -70.537,168.175c-2.171,2.171 -4.342,5.433 -4.342,8.679c-0,5.438 4.342,10.854 10.85,10.854l97.658,0l0,33.646c0,15.188 -8.683,19.529 -17.362,19.529c-9.759,0 -14.096,4.342 -14.096,9.759c-0,5.433 2.171,11.941 11.925,11.941l93.317,0c5.433,0 10.85,-4.337 10.85,-11.942c-0,-7.587 -6.509,-10.85 -11.925,-10.85c-5.434,0 -17.363,-3.25 -17.363,-20.608l0,-31.475l40.138,0c5.437,0 8.683,-4.341 8.683,-10.854c-0,-6.508 -2.171,-10.85 -8.683,-10.85l-40.138,0" style="fill-rule:nonzero;"/></g><g><path d="M27129.8,672.971c-59.671,-0 -85.712,40.154 -85.712,62.933c-0,15.188 8.683,33.646 35.8,34.721c20.625,0 30.383,-13.021 30.383,-27.117l-0,-4.341c-1.079,-16.284 -11.929,-17.363 -14.1,-18.454c-2.171,-1.076 -6.508,-5.417 -6.508,-13.021c2.17,-11.93 18.437,-16.267 22.775,-16.267c55.35,0 71.616,29.288 71.616,47.742c0,50.991 -52.083,55.329 -68.35,56.425c-7.604,-0 -15.191,3.246 -15.191,9.754c-0,6.512 9.758,6.512 14.095,6.512c62.934,0 71.617,32.55 71.617,48.838c0,62.933 -50.992,65.104 -64.012,65.104c-6.509,0 -17.359,-3.267 -18.455,-8.683l0,-6.509c0,-11.945 3.263,-24.966 4.342,-35.816c0,-19.529 -13.021,-31.459 -32.554,-31.459l-4.338,0c-7.587,2.171 -15.191,6.513 -20.608,11.929c-7.604,6.509 -9.775,16.284 -9.775,26.042c1.092,34.721 31.475,64.025 85.729,65.104l6.509,0c53.162,0 108.508,-28.212 108.508,-75.958c-0,-10.85 -2.171,-19.529 -5.433,-26.042c-2.171,-6.508 -6.513,-11.925 -10.85,-16.266c-3.246,-4.338 -7.588,-7.605 -11.93,-10.85l-11.941,-6.509l-6.513,-2.171c-2.171,0 -3.246,-1.095 -5.416,-1.095l-6.509,-2.171c-3.266,-1.075 -4.341,-0 -5.437,-2.167c-1.075,-1.079 -1.075,-2.171 -1.075,-3.25c-0,-2.166 1.075,-4.337 3.246,-4.337l17.362,-5.434c7.604,-4.341 15.192,-7.587 20.625,-15.191c8.679,-8.684 11.925,-22.779 11.925,-34.725c0,-50.988 -67.271,-65.104 -91.146,-67.271l-8.679,-0" style="fill-rule:nonzero;"/></g><g><path d="M27909.3,932.308c0,0 -1.075,4.342 -1.075,7.588c0,4.342 4.342,8.679 8.679,8.679c3.25,0 5.417,-3.246 6.513,-4.337c1.075,-3.246 14.096,-47.746 20.608,-58.596c2.171,-4.338 4.338,-5.417 5.433,-5.417c2.171,0 3.246,4.342 3.246,7.588l0,155.175c0,13.02 -10.85,20.608 -21.7,20.608c-4.341,-0 -9.758,2.167 -9.758,8.679c-0,6.508 5.417,8.679 14.096,8.679l91.146,0c8.683,0 8.683,-8.679 8.683,-8.679c-0,0 -0,-8.679 -8.683,-8.679c-7.584,-0 -17.359,-9.758 -17.359,-19.533l0,-225.696c0,-8.679 -3.246,-13.021 -10.85,-13.021c-7.587,-0 -14.1,2.171 -20.608,2.171c-10.85,-0 -13.021,-0 -21.704,-2.171c-4.338,-0 -9.771,6.512 -13.021,10.854l-33.646,116.108" style="fill-rule:nonzero;"/></g><g><path d="M1612.06,3505c96.562,0 214.842,-88.975 214.842,-181.196c-0,-55.35 -43.405,-90.071 -105.259,-90.071c-119.358,0 -214.846,87.9 -214.846,181.213c0,56.425 46.667,90.054 105.263,90.054" style="fill-rule:nonzero;"/></g><g><path d="M2086.36,3322.71c0,0 -3.262,-65.104 -3.262,-108.508c-0,-17.358 1.091,-30.379 2.166,-34.721c7.604,-21.7 51.009,-53.158 75.959,-53.158c31.475,-0 44.495,35.796 44.495,62.933c0,58.592 -49.912,117.188 -96.579,146.475c-4.341,2.171 -7.587,3.263 -10.854,3.263c-9.754,-0 -11.925,-10.85 -11.925,-16.284m-37.987,96.58c3.266,4.341 6.512,5.416 9.775,5.416c3.245,0 6.512,-2.171 6.512,-2.171c32.55,-18.437 58.592,-47.741 85.708,-66.179c96.584,-67.275 130.209,-133.471 130.209,-183.383c-0,-61.842 -47.742,-100.904 -97.654,-104.167c-18.438,0 -44.48,8.679 -59.671,18.454c-6.509,5.417 -18.454,15.192 -23.871,15.192c-2.171,-0 -3.263,-0 -5.433,-1.096c-7.588,-3.246 -11.93,-10.85 -11.93,-18.437c1.08,-23.871 7.588,-284.288 7.588,-305.988c-0,-11.946 -9.758,-18.458 -20.608,-18.458c-15.192,-0 -32.55,10.854 -33.646,30.383c-0,0 4.341,619.583 13.021,630.433" style="fill-rule:nonzero;"/></g><g><path d="M2452.87,3370.45c96.563,0 214.846,-88.975 214.846,-181.196c0,-55.346 -43.404,-90.071 -105.262,-90.071c-119.354,0 -214.842,87.9 -214.842,181.217c0,56.425 46.667,90.05 105.258,90.05" style="fill-rule:nonzero;"/></g><g><path d="M2927.18,3188.16c-0,0 -3.246,-65.104 -3.246,-108.504c-0,-17.362 1.075,-30.383 2.167,-34.725c7.587,-21.7 50.991,-53.158 75.958,-53.158c31.458,-0 44.479,35.8 44.479,62.933c0,58.596 -49.917,117.188 -96.562,146.475c-4.342,2.171 -7.605,3.267 -10.855,3.267c-9.77,-0 -11.941,-10.85 -11.941,-16.288m-37.971,96.584c3.246,4.337 6.512,5.416 9.758,5.416c3.263,0 6.509,-2.17 6.509,-2.17c32.554,-18.438 58.595,-47.746 85.729,-66.184c96.562,-67.271 130.208,-133.471 130.208,-183.383c0,-61.842 -47.742,-100.904 -97.654,-104.167c-18.454,0 -44.496,8.679 -59.688,18.454c-6.512,5.417 -18.437,15.192 -23.87,15.192c-2.171,0 -3.246,0 -5.417,-1.096c-7.604,-3.246 -11.946,-10.85 -11.946,-18.437c1.096,-23.871 7.604,-284.288 7.604,-305.988c0,-11.946 -9.775,-18.454 -20.625,-18.454c-15.191,0 -32.55,10.85 -33.629,30.379c0,0 4.342,619.583 13.021,630.438" style="fill-rule:nonzero;"/></g><g><path d="M3293.69,3235.9c96.563,0 214.846,-88.975 214.846,-181.2c-0,-55.346 -43.404,-90.067 -105.263,-90.067c-119.358,0 -214.841,87.896 -214.841,181.213c-0,56.425 46.666,90.054 105.258,90.054" style="fill-rule:nonzero;"/></g><g><path d="M3809.64,3057.95c0,-15.188 66.184,-43.4 92.225,-43.4c6.509,0 9.775,1.092 9.775,5.433l0,111.755c0,19.529 -61.858,44.495 -88.979,44.495c-7.604,0 -13.021,-2.171 -13.021,-6.512l0,-111.771m112.85,-154.079c-2.171,-0 -3.266,1.096 -4.341,1.096c-0,-0 -69.446,24.945 -97.655,24.945c-6.512,0 -10.854,-1.075 -10.854,-5.416l0,-181.213c0,-7.587 -6.508,-13.02 -13.021,-13.02l-14.112,-0c-7.588,-0 -13.021,5.433 -13.021,13.02l0,558.817c0,6.513 3.263,9.758 8.679,9.758c1.096,0 6.513,-1.075 7.604,-2.17c15.192,-6.509 75.955,-32.55 107.413,-32.55c10.854,-0 18.458,3.262 18.458,11.941l0,161.667c0,7.604 5.417,13.021 13.021,13.021l14.096,-0c6.508,-0 13.021,-5.417 13.021,-13.021l-0,-544.704c-0,-5.417 -4.342,-8.679 -8.679,-8.679c-1.08,-0 -3.25,-0 -4.342,1.091l-16.267,5.417" style="fill-rule:nonzero;"/></g><g><path d="M4124.25,3235.9c96.58,0 214.842,-88.975 214.842,-181.2c0,-55.346 -43.404,-90.067 -105.242,-90.067c-119.358,0 -214.845,87.896 -214.845,181.213c-0,56.425 46.65,90.054 105.245,90.054" style="fill-rule:nonzero;"/></g><g><path d="M4729.9,3014.55c-6.512,21.7 -57.516,43.4 -82.466,43.4c-6.509,0 -11.946,-2.167 -13.021,-5.417c-2.171,-4.337 -3.263,-28.208 -3.263,-54.25c0,-33.646 1.092,-71.616 3.263,-80.295c2.171,-18.455 52.083,-41.234 79.2,-41.234c7.604,0 14.117,2.171 16.287,6.509c2.171,5.416 4.338,32.554 4.338,61.841c-0,29.304 -2.167,59.688 -4.338,69.446m74.859,-176.858c7.604,-3.267 13.021,-11.946 13.021,-18.454l-0,-77.034c-0,-5.433 -3.246,-8.679 -7.584,-8.679c-2.171,0 -3.266,0 -5.437,1.075c-0,0 -21.7,8.679 -27.117,9.775c-7.604,0 -15.192,-5.433 -15.192,-14.117l0,-132.375c0,-6.512 -6.508,-11.929 -15.191,-11.929c-10.85,0 -17.359,5.417 -17.359,11.929l0,141.059c-1.095,10.85 -4.341,24.962 -14.116,31.475c-13.021,7.587 -49.913,22.779 -68.35,27.116c-9.775,0 -13.021,-13.02 -13.021,-21.7l-0,-130.208c-0,-6.512 -7.604,-11.929 -15.192,-11.929c-10.85,-0 -17.358,5.417 -17.358,11.929l-0,146.492c-0,15.191 -6.513,26.041 -13.021,29.287c-6.512,3.267 -28.212,11.946 -28.212,11.946c-7.605,2.171 -13.021,10.85 -13.021,17.363l-0,77.029c-0,6.512 3.246,9.775 8.679,9.775c4.342,-0 24.95,-9.775 28.212,-11.946c1.075,-0 2.171,-1.075 3.246,-1.075c7.604,-0 14.117,10.85 14.117,19.533l-0,107.413c-0,11.941 -5.438,21.7 -11.946,24.962c-6.512,2.171 -29.287,11.929 -29.287,11.929c-7.605,2.171 -13.021,10.85 -13.021,17.363l-0,77.046c-0,6.512 3.246,9.758 8.679,9.758c1.075,0 3.246,-1.075 4.342,-1.075c-0,0 15.191,-6.512 24.945,-9.775c1.096,-1.079 2.171,-1.079 3.267,-1.079c7.583,-0 13.021,11.929 13.021,17.362l-0,133.455c-0,6.512 6.508,11.945 14.096,11.945c10.85,0 18.454,-5.433 18.454,-11.945l-0,-150.817c-0,-14.113 5.417,-21.7 10.85,-23.871l66.183,-27.133c1.092,-0 3.263,-1.079 4.338,-1.079c8.683,-0 14.116,13.02 14.116,19.533l0,135.625c0,6.512 6.509,11.946 14.096,11.946c11.946,-0 18.454,-5.434 18.454,-11.946l0,-154.079c0,-8.679 4.342,-21.7 11.93,-24.95c7.604,-3.263 30.379,-11.942 30.379,-11.942c7.604,-3.246 13.021,-11.929 13.021,-18.437l-0,-77.05c-0,-5.417 -3.246,-8.68 -7.584,-8.68c-2.171,0 -3.266,0 -5.437,1.092l-28.209,10.85c-6.512,0 -14.1,-6.508 -14.1,-19.529l0,-100.921c0,-7.587 5.417,-28.212 14.1,-31.458l28.209,-10.85" style="fill-rule:nonzero;"/></g><g><path d="M4990.06,3101.35c96.579,0 214.842,-88.975 214.842,-181.196c-0,-55.35 -43.404,-90.07 -105.242,-90.07c-119.358,-0 -214.846,87.9 -214.846,181.212c0,56.425 46.65,90.054 105.246,90.054" style="fill-rule:nonzero;"/></g><g><path d="M5820.77,2966.8c96.58,0 214.846,-88.975 214.846,-181.196c0,-55.345 -43.404,-90.07 -105.246,-90.07c-119.358,-0 -214.841,87.9 -214.841,181.216c-0,56.425 46.65,90.05 105.241,90.05" style="fill-rule:nonzero;"/></g><g><path d="M6651.44,2832.26c96.563,0 214.842,-88.975 214.842,-181.2c-0,-55.346 -43.404,-90.066 -105.259,-90.066c-119.358,-0 -214.845,87.895 -214.845,181.212c-0,56.425 46.666,90.054 105.262,90.054" style="fill-rule:nonzero;"/></g><g><path d="M7482.11,2697.71c96.562,0 214.846,-88.975 214.846,-181.195c-0,-55.35 -43.405,-90.071 -105.263,-90.071c-119.358,-0 -214.842,87.9 -214.842,181.212c0,56.425 46.667,90.054 105.259,90.054" style="fill-rule:nonzero;"/></g><g><path d="M8312.77,2563.16c96.563,0 214.842,-88.975 214.842,-181.195c0,-55.346 -43.404,-90.071 -105.258,-90.071c-119.359,-0 -214.846,87.9 -214.846,181.216c-0,56.425 46.667,90.05 105.262,90.05" style="fill-rule:nonzero;"/></g><g><path d="M8776.52,2380.87c0,-0 -3.25,-65.104 -3.25,-108.505c0,-17.362 1.08,-30.383 2.171,-34.724c7.588,-21.7 50.992,-53.159 75.954,-53.159c31.459,0 44.48,35.8 44.48,62.934c-0,58.595 -49.913,117.187 -96.563,146.475c-4.337,2.17 -7.604,3.266 -10.85,3.266c-9.775,0 -11.942,-10.85 -11.942,-16.287m-37.97,96.583c3.245,4.338 6.512,5.417 9.758,5.417c3.262,-0 6.508,-2.171 6.508,-2.171c32.554,-18.438 58.596,-47.746 85.729,-66.184c96.563,-67.27 130.209,-133.47 130.209,-183.383c-0,-61.841 -47.742,-100.904 -97.654,-104.167c-18.455,0 -44.496,8.68 -59.688,18.455c-6.512,5.416 -18.437,15.191 -23.871,15.191c-2.171,0 -3.25,0 -5.416,-1.096c-7.605,-3.245 -11.946,-10.85 -11.946,-18.437c1.091,-23.871 7.604,-284.288 7.604,-305.988c-0,-11.945 -9.775,-18.454 -20.625,-18.454c-15.192,0 -32.554,10.85 -33.629,30.379c-0,0 4.341,619.584 13.021,630.438" style="fill-rule:nonzero;"/></g><g><path d="M9143.02,2428.61c96.58,-0 214.842,-88.976 214.842,-181.2c0,-55.346 -43.4,-90.067 -105.242,-90.067c-119.358,-0 -214.845,87.896 -214.845,181.212c-0,56.425 46.65,90.055 105.245,90.055" style="fill-rule:nonzero;"/></g><g><path d="M9606.77,2246.32c0,-0 -3.262,-65.104 -3.262,-108.508c-0,-17.363 1.092,-30.384 2.167,-34.721c7.604,-21.705 51.008,-53.163 75.958,-53.163c31.475,0 44.496,35.8 44.496,62.938c-0,58.591 -49.913,117.187 -96.579,146.475c-4.342,2.17 -7.588,3.262 -10.855,3.262c-9.754,0 -11.925,-10.85 -11.925,-16.283m-37.987,96.579c3.267,4.342 6.512,5.417 9.775,5.417c3.246,-0 6.512,-2.171 6.512,-2.171c32.55,-18.438 58.592,-47.742 85.709,-66.179c96.583,-67.275 130.208,-133.475 130.208,-183.388c0,-61.837 -47.742,-100.9 -97.654,-104.167c-18.438,0 -44.479,8.684 -59.671,18.455c-6.508,5.416 -18.454,15.191 -23.871,15.191c-2.171,0 -3.262,0 -5.433,-1.091c-7.588,-3.246 -11.929,-10.85 -11.929,-18.438c1.079,-23.871 7.587,-284.287 7.587,-305.992c0,-11.941 -9.758,-18.454 -20.608,-18.454c-15.192,0 -32.55,10.85 -33.646,30.384c0,-0 4.342,619.583 13.021,630.433" style="fill-rule:nonzero;"/></g><g><path d="M9973.31,2294.06c96.579,-0 214.842,-88.976 214.842,-181.196c-0,-55.35 -43.404,-90.071 -105.242,-90.071c-119.358,-0 -214.846,87.9 -214.846,181.216c0,56.421 46.65,90.05 105.246,90.05" style="fill-rule:nonzero;"/></g><g><path d="M10488.9,2116.11c0,-15.192 66.196,-43.405 92.238,-43.405c6.512,0 9.758,1.096 9.758,5.434l-0,111.754c-0,19.533 -61.842,44.496 -88.975,44.496c-7.588,-0 -13.021,-2.171 -13.021,-6.509l0,-111.77m112.846,-154.08c-2.171,0 -3.246,1.092 -4.342,1.092c0,0 -69.441,24.95 -97.654,24.95c-6.512,0 -10.85,-1.079 -10.85,-5.417l0,-181.216c0,-7.588 -6.512,-13.021 -13.021,-13.021l-14.1,-0c-7.604,-0 -13.021,5.433 -13.021,13.021l0,558.82c0,6.509 3.246,9.755 8.684,9.755c1.075,-0 6.508,-1.075 7.583,-2.171c15.192,-6.509 75.958,-32.55 107.433,-32.55c10.85,-0 18.438,3.262 18.438,11.946l-0,161.666c-0,7.604 5.433,13.021 13.021,13.021l14.112,0c6.513,0 13.021,-5.417 13.021,-13.021l0,-544.708c0,-5.417 -4.337,-8.679 -8.679,-8.679c-1.096,-0 -3.263,-0 -4.342,1.096l-16.283,5.416" style="fill-rule:nonzero;"/></g><g><path d="M10803.6,2294.06c96.583,-0 214.846,-88.976 214.846,-181.196c-0,-55.35 -43.405,-90.071 -105.242,-90.071c-119.358,-0 -214.846,87.9 -214.846,181.216c0,56.421 46.65,90.05 105.242,90.05" style="fill-rule:nonzero;"/></g><g><path d="M11373.2,2072.71c-6.513,21.7 -57.517,43.405 -82.467,43.405c-6.508,-0.001 -11.946,-2.171 -13.021,-5.417c-2.171,-4.342 -3.262,-28.213 -3.262,-54.254c-0,-33.646 1.091,-71.617 3.262,-80.296c2.171,-18.454 52.084,-41.234 79.2,-41.234c7.604,0 14.117,2.171 16.288,6.513c2.171,5.417 4.337,32.55 4.337,61.837c0,29.309 -2.166,59.688 -4.337,69.446m74.858,-176.858c7.604,-3.263 13.021,-11.942 13.021,-18.454l-0,-77.029c-0,-5.438 -3.246,-8.684 -7.583,-8.684c-2.171,0 -3.267,0 -5.438,1.079c0,0 -21.7,8.68 -27.117,9.771c-7.604,0 -15.191,-5.433 -15.191,-14.112l-0,-132.379c-0,-6.509 -6.509,-11.925 -15.192,-11.925c-10.85,-0 -17.358,5.416 -17.358,11.925l-0,141.058c-1.096,10.85 -4.342,24.967 -14.117,31.475c-13.021,7.587 -49.912,22.779 -68.35,27.121c-9.775,-0 -13.021,-13.021 -13.021,-21.704l0,-130.209c0,-6.508 -7.604,-11.925 -15.191,-11.925c-10.85,0 -17.359,5.417 -17.359,11.925l0,146.496c0,15.192 -6.512,26.042 -13.021,29.288c-6.512,3.262 -28.212,11.945 -28.212,11.945c-7.604,2.167 -13.021,10.85 -13.021,17.359l0,77.033c0,6.508 3.246,9.775 8.679,9.775c4.342,0 24.95,-9.775 28.213,-11.946c1.075,0 2.171,-1.075 3.246,-1.075c7.604,0 14.116,10.85 14.116,19.529l0,107.413c0,11.946 -5.437,21.704 -11.946,24.967c-6.512,2.17 -29.287,11.925 -29.287,11.925c-7.604,2.17 -13.021,10.854 -13.021,17.362l0,77.05c0,6.508 3.246,9.754 8.679,9.754c1.075,0 3.246,-1.075 4.342,-1.075c-0,0 15.192,-6.508 24.946,-9.775c1.096,-1.075 2.171,-1.075 3.266,-1.075c7.584,0 13.021,11.925 13.021,17.363l0,133.454c0,6.508 6.509,11.942 14.096,11.942c10.85,-0 18.454,-5.434 18.454,-11.942l0,-150.817c0,-14.116 5.417,-21.7 10.85,-23.871l66.184,-27.137c1.091,-0 3.262,-1.075 4.337,-1.075c8.683,-0 14.117,13.021 14.117,19.529l-0,135.625c-0,6.513 6.508,11.946 14.096,11.946c11.945,-0 18.454,-5.433 18.454,-11.946l-0,-154.079c-0,-8.679 4.341,-21.7 11.929,-24.946c7.604,-3.267 30.379,-11.946 30.379,-11.946c7.604,-3.246 13.021,-11.925 13.021,-18.437l-0,-77.05c-0,-5.417 -3.246,-8.679 -7.583,-8.679c-2.171,-0 -3.267,-0 -5.438,1.095l-28.208,10.85c-6.513,0 -14.1,-6.512 -14.1,-19.533l-0,-100.921c-0,-7.583 5.416,-28.208 14.1,-31.458l28.208,-10.85" style="fill-rule:nonzero;"/></g><g><path d="M11633.4,2159.51c96.58,-0 214.842,-88.975 214.842,-181.196c0,-55.346 -43.404,-90.071 -105.242,-90.071c-119.358,-0 -214.845,87.9 -214.845,181.217c-0,56.424 46.65,90.05 105.245,90.05" style="fill-rule:nonzero;"/></g><g><path d="M12464.1,2024.97c96.579,-0 214.846,-88.975 214.846,-181.2c-0,-55.346 -43.405,-90.067 -105.246,-90.067c-119.359,0 -214.842,87.896 -214.842,181.213c0,56.425 46.65,90.054 105.242,90.054" style="fill-rule:nonzero;"/></g><g><path d="M13294.8,1890.42c96.563,-0 214.842,-88.975 214.842,-181.196c0,-55.35 -43.404,-90.071 -105.258,-90.071c-119.359,-0 -214.846,87.9 -214.846,181.217c-0,56.42 46.667,90.05 105.262,90.05" style="fill-rule:nonzero;"/></g><g><path d="M14125.4,1755.87c96.563,-0 214.846,-88.975 214.846,-181.196c-0,-55.346 -43.404,-90.071 -105.263,-90.071c-119.358,-0 -214.841,87.9 -214.841,181.217c-0,56.425 46.666,90.05 105.258,90.05" style="fill-rule:nonzero;"/></g><g><path d="M15403.4,1621.32c96.579,-0 214.842,-88.975 214.842,-181.2c-0,-55.346 -43.4,-90.067 -105.242,-90.067c-119.358,0 -214.846,87.896 -214.846,181.213c0,56.425 46.65,90.054 105.246,90.054" style="fill-rule:nonzero;"/></g><g><path d="M15867.1,1439.03c0,0 -3.262,-65.104 -3.262,-108.508c-0,-17.363 1.096,-30.383 2.171,-34.721c7.604,-21.704 51.008,-53.162 75.954,-53.162c31.475,-0 44.496,35.8 44.496,62.933c-0,58.596 -49.913,117.187 -96.579,146.479c-4.342,2.171 -7.588,3.263 -10.85,3.263c-9.759,-0 -11.93,-10.85 -11.93,-16.284m-37.983,96.579c3.263,4.342 6.508,5.417 9.775,5.417c3.246,0 6.508,-2.171 6.508,-2.171c32.555,-18.437 58.596,-47.741 85.713,-66.179c96.579,-67.275 130.208,-133.475 130.208,-183.387c0,-61.838 -47.741,-100.9 -97.658,-104.167c-18.438,-0 -44.479,8.683 -59.667,18.454c-6.512,5.417 -18.458,15.192 -23.875,15.192c-2.166,-0 -3.262,-0 -5.433,-1.092c-7.588,-3.246 -11.925,-10.85 -11.925,-18.437c1.075,-23.871 7.587,-284.288 7.587,-305.992c0,-11.942 -9.758,-18.454 -20.608,-18.454c-15.192,-0 -32.554,10.85 -33.646,30.383c0,0 4.338,619.583 13.021,630.433" style="fill-rule:nonzero;"/></g><g><path d="M16233.6,1486.77c96.563,-0 214.842,-88.975 214.842,-181.2c0,-55.346 -43.4,-90.067 -105.258,-90.067c-119.359,0 -214.846,87.9 -214.846,181.213c-0,56.425 46.667,90.054 105.262,90.054" style="fill-rule:nonzero;"/></g><g><path d="M16707.9,1304.48c0,0 -3.262,-65.104 -3.262,-108.508c-0,-17.358 1.091,-30.379 2.17,-34.721c7.605,-21.7 51.005,-53.158 75.955,-53.158c31.475,-0 44.495,35.795 44.495,62.933c0,58.592 -49.912,117.188 -96.579,146.475c-4.341,2.171 -7.587,3.263 -10.85,3.263c-9.758,-0 -11.929,-10.85 -11.929,-16.284m-37.987,96.579c3.266,4.342 6.512,5.417 9.775,5.417c3.245,0 6.512,-2.171 6.512,-2.171c32.55,-18.437 58.592,-47.741 85.713,-66.179c96.579,-67.275 130.208,-133.471 130.208,-183.383c-0,-61.842 -47.746,-100.904 -97.658,-104.171c-18.438,-0 -44.48,8.683 -59.671,18.458c-6.509,5.417 -18.454,15.188 -23.871,15.188c-2.171,-0 -3.263,-0 -5.433,-1.092c-7.588,-3.246 -11.93,-10.85 -11.93,-18.437c1.08,-23.871 7.588,-284.288 7.588,-305.988c-0,-11.946 -9.754,-18.458 -20.608,-18.458c-15.188,-0 -32.55,10.854 -33.646,30.383c-0,0 4.341,619.583 13.021,630.433" style="fill-rule:nonzero;"/></g><g><path d="M17074.4,1352.22c96.583,-0 214.846,-88.975 214.846,-181.196c-0,-55.346 -43.404,-90.071 -105.242,-90.071c-119.358,0 -214.846,87.9 -214.846,181.217c0,56.421 46.65,90.05 105.242,90.05" style="fill-rule:nonzero;"/></g><g><path d="M17590.4,1174.27c0,-15.192 66.18,-43.404 92.221,-43.404c6.513,-0 9.775,1.096 9.775,5.433l0,111.754c0,19.534 -61.858,44.496 -88.975,44.496c-7.604,0 -13.021,-2.167 -13.021,-6.508l0,-111.771m112.846,-154.079c-2.171,-0 -3.262,1.091 -4.341,1.091c-0,0 -69.442,24.95 -97.655,24.95c-6.512,0 -10.85,-1.075 -10.85,-5.416l0,-181.217c0,-7.587 -6.512,-13.021 -13.02,-13.021l-14.117,0c-7.588,0 -13.021,5.433 -13.021,13.021l0,558.821c0,6.508 3.267,9.758 8.683,9.758c1.092,0 6.509,-1.079 7.605,-2.171c15.187,-6.512 75.954,-32.554 107.412,-32.554c10.85,0 18.454,3.267 18.454,11.946l0,161.667c0,7.604 5.417,13.021 13.021,13.021l14.096,-0c6.512,-0 13.021,-5.417 13.021,-13.021l-0,-544.704c-0,-5.417 -4.338,-8.684 -8.679,-8.684c-1.075,0 -3.246,0 -4.342,1.096l-16.267,5.417" style="fill-rule:nonzero;"/></g><g><path d="M17905,1352.22c96.562,-0 214.841,-88.975 214.841,-181.196c0,-55.346 -43.4,-90.071 -105.258,-90.071c-119.358,0 -214.846,87.9 -214.846,181.217c0,56.421 46.667,90.05 105.263,90.05" style="fill-rule:nonzero;"/></g><g><path d="M18510.6,1130.87c-6.508,21.704 -57.5,43.404 -82.467,43.404c-6.508,-0 -11.925,-2.171 -13.02,-5.417c-2.167,-4.341 -3.246,-28.212 -3.246,-54.254c-0,-33.646 1.079,-71.613 3.246,-80.296c2.17,-18.454 52.083,-41.229 79.22,-41.229c7.588,-0 14.096,2.167 16.267,6.508c2.171,5.417 4.342,32.554 4.342,61.842c-0,29.304 -2.171,59.687 -4.342,69.442m74.879,-176.855c7.588,-3.266 13.021,-11.945 13.021,-18.458l0,-77.029c0,-5.433 -3.262,-8.679 -7.604,-8.679c-2.171,-0 -3.246,-0 -5.417,1.075c0,-0 -21.7,8.679 -27.137,9.775c-7.584,-0 -15.188,-5.434 -15.188,-14.117l0,-132.379c0,-6.508 -6.512,-11.925 -15.191,-11.925c-10.85,-0 -17.363,5.417 -17.363,11.925l0,141.062c-1.075,10.85 -4.342,24.963 -14.096,31.475c-13.021,7.588 -49.912,22.775 -68.371,27.117c-9.754,0 -13.02,-13.021 -13.02,-21.7l-0,-130.208c-0,-6.513 -7.584,-11.929 -15.188,-11.929c-10.854,-0 -17.362,5.416 -17.362,11.929l-0,146.491c-0,15.192 -6.513,26.042 -13.021,29.288c-6.513,3.267 -28.213,11.946 -28.213,11.946c-7.587,2.171 -13.021,10.85 -13.021,17.362l0,77.029c0,6.513 3.263,9.775 8.68,9.775c4.341,0 24.966,-9.775 28.212,-11.945c1.096,-0 2.171,-1.075 3.267,-1.075c7.583,-0 14.096,10.85 14.096,19.529l-0,107.416c-0,11.942 -5.417,21.7 -11.93,24.963c-6.508,2.171 -29.304,11.929 -29.304,11.929c-7.587,2.171 -13.021,10.85 -13.021,17.358l0,77.05c0,6.513 3.263,9.759 8.68,9.759c1.095,-0 3.266,-1.079 4.341,-1.079c0,-0 15.192,-6.509 24.967,-9.771c1.075,-1.079 2.171,-1.079 3.246,-1.079c7.604,-0 13.021,11.929 13.021,17.362l-0,133.454c-0,6.513 6.508,11.946 14.112,11.946c10.854,0 18.438,-5.433 18.438,-11.946l-0,-150.816c-0,-14.113 5.437,-21.7 10.854,-23.871l66.196,-27.134c1.075,0 3.245,-1.079 4.341,-1.079c8.679,0 14.096,13.021 14.096,19.534l0,135.625c0,6.508 6.513,11.941 14.117,11.941c11.925,0 18.437,-5.433 18.437,-11.941l0,-154.08c0,-8.683 4.338,-21.704 11.942,-24.95c7.587,-3.262 30.383,-11.945 30.383,-11.945c7.588,-3.246 13.021,-11.925 13.021,-18.438l0,-77.046c0,-5.416 -3.262,-8.683 -7.604,-8.683c-2.171,-0 -3.246,-0 -5.417,1.096l-28.212,10.85c-6.509,-0 -14.113,-6.509 -14.113,-19.529l0,-100.921c0,-7.588 5.434,-28.213 14.113,-31.459l28.212,-10.85" style="fill-rule:nonzero;"/></g><g><path d="M18770.8,1217.67c96.563,0 214.846,-88.975 214.846,-181.2c0,-55.346 -43.404,-90.071 -105.262,-90.071c-119.354,0 -214.842,87.9 -214.842,181.217c0,56.425 46.667,90.054 105.258,90.054" style="fill-rule:nonzero;"/></g><g><path d="M19601.4,1083.12c96.579,0 214.841,-88.975 214.841,-181.196c0,-55.35 -43.4,-90.071 -105.241,-90.071c-119.359,0 -214.846,87.9 -214.846,181.217c-0,56.421 46.65,90.05 105.246,90.05" style="fill-rule:nonzero;"/></g><g><path d="M20431.9,948.575c96.58,0 214.846,-88.975 214.846,-181.196c0,-55.35 -43.404,-90.071 -105.246,-90.071c-119.358,0 -214.841,87.9 -214.841,181.217c-0,56.421 46.65,90.05 105.241,90.05" style="fill-rule:nonzero;"/></g><g><path d="M21262.3,814.029c96.563,0 214.842,-88.975 214.842,-181.2c0,-55.346 -43.4,-90.067 -105.258,-90.067c-119.359,0 -214.846,87.896 -214.846,181.213c-0,56.425 46.667,90.054 105.262,90.054" style="fill-rule:nonzero;"/></g><g><path d="M22092.9,679.479c96.579,0 214.846,-88.975 214.846,-181.2c-0,-55.346 -43.405,-90.067 -105.246,-90.067c-119.359,0 -214.842,87.901 -214.842,181.213c0,56.425 46.65,90.054 105.242,90.054" style="fill-rule:nonzero;"/></g><g><path d="M22923.4,814.029c96.563,0 214.846,-88.975 214.846,-181.2c0,-55.346 -43.404,-90.067 -105.262,-90.067c-119.354,0 -214.842,87.896 -214.842,181.213c0,56.425 46.667,90.054 105.258,90.054" style="fill-rule:nonzero;"/></g><g><path d="M23753.9,948.575c96.579,0 214.842,-88.975 214.842,-181.196c-0,-55.35 -43.4,-90.071 -105.242,-90.071c-119.358,0 -214.846,87.9 -214.846,181.217c0,56.421 46.65,90.05 105.246,90.05" style="fill-rule:nonzero;"/></g><g><path d="M24584.5,1083.12c96.563,0 214.846,-88.975 214.846,-181.196c0,-55.35 -43.404,-90.071 -105.262,-90.071c-119.359,0 -214.842,87.9 -214.842,181.217c0,56.421 46.667,90.05 105.258,90.05" style="fill-rule:nonzero;"/></g><g><path d="M25414.9,1217.67c96.58,0 214.842,-88.975 214.842,-181.2c0,-55.346 -43.4,-90.071 -105.242,-90.071c-119.358,0 -214.845,87.9 -214.845,181.217c-0,56.425 46.65,90.054 105.245,90.054" style="fill-rule:nonzero;"/></g><g><path d="M26245.4,1352.22c96.563,-0 214.846,-88.975 214.846,-181.196c-0,-55.346 -43.404,-90.071 -105.263,-90.071c-119.358,0 -214.841,87.9 -214.841,181.217c-0,56.421 46.666,90.05 105.258,90.05" style="fill-rule:nonzero;"/></g><g><path d="M26719.7,1304.48c-0,0 -3.246,-65.104 -3.246,-108.508c-0,-17.358 1.079,-30.379 2.171,-34.721c7.587,-21.7 50.991,-53.158 75.954,-53.158c31.458,-0 44.479,35.795 44.479,62.933c0,58.592 -49.912,117.188 -96.562,146.475c-4.338,2.171 -7.605,3.263 -10.85,3.263c-9.775,-0 -11.946,-10.85 -11.946,-16.284m-37.967,96.579c3.246,4.342 6.508,5.417 9.758,5.417c3.263,0 6.509,-2.171 6.509,-2.171c32.554,-18.437 58.596,-47.741 85.729,-66.179c96.562,-67.275 130.208,-133.471 130.208,-183.383c0,-61.842 -47.741,-100.904 -97.654,-104.171c-18.458,-0 -44.5,8.683 -59.687,18.458c-6.513,5.417 -18.438,15.188 -23.875,15.188c-2.167,-0 -3.246,-0 -5.417,-1.092c-7.604,-3.246 -11.942,-10.85 -11.942,-18.437c1.092,-23.871 7.604,-284.288 7.604,-305.988c0,-11.946 -9.775,-18.458 -20.625,-18.458c-15.191,-0 -32.554,10.854 -33.629,30.383c0,0 4.342,619.583 13.021,630.433" style="fill-rule:nonzero;"/></g><g><path d="M27086.2,1352.22c96.562,-0 214.841,-88.975 214.841,-181.196c0,-55.346 -43.4,-90.071 -105.258,-90.071c-119.358,0 -214.846,87.9 -214.846,181.217c0,56.421 46.667,90.05 105.263,90.05" style="fill-rule:nonzero;"/></g><g><path d="M27916.8,1486.77c96.579,-0 214.846,-88.975 214.846,-181.2c-0,-55.346 -43.404,-90.067 -105.246,-90.067c-119.358,0 -214.842,87.9 -214.842,181.213c0,56.425 46.65,90.054 105.242,90.054" style="fill-rule:nonzero;"/></g><g><path d="M565.288,2143.25c3.246,20.608 3.246,19.533 -16.287,26.042c-95.484,32.554 -157.325,118.266 -157.325,210.504c-0,97.658 50.987,167.1 124.775,192.05c8.679,3.262 21.7,6.508 29.304,6.508c8.679,0 13.021,-5.417 13.021,-11.925c-0,-7.604 -8.68,-10.85 -16.284,-14.117c-45.575,-19.529 -78.125,-66.179 -78.125,-116.091c0,-61.859 42.325,-108.509 108.504,-126.963c17.363,-4.341 19.534,-3.246 21.705,8.679l54.254,323.35c2.166,11.946 1.091,11.946 -15.192,15.192c-17.362,3.267 -39.062,5.433 -60.767,5.433c-189.875,0 -312.5,-105.258 -312.5,-256.075c0,-64.029 10.855,-149.737 100.921,-251.737c65.104,-72.708 115.017,-112.846 166.009,-154.079c10.85,-8.679 13.02,-7.604 15.191,4.341l22.796,138.888m118.263,-738.942c35.816,0 65.104,29.309 65.104,88.979c-0,120.45 -103.075,218.105 -188.804,292.967c-7.584,6.513 -11.925,5.433 -14.096,-8.679c-4.342,-28.213 -6.509,-65.104 -6.509,-99.829c0,-169.271 78.125,-273.438 144.305,-273.438m-43.405,911.459c-2.17,-13.021 -1.075,-16.267 11.946,-15.188c87.884,7.604 160.592,81.388 160.592,176.875c-0,68.35 -41.233,123.696 -102,154.079c-13.021,6.509 -15.188,6.509 -17.358,-6.512l-53.18,-309.254m-58.591,-338.542c-2.171,-13.021 -0,-14.096 6.508,-20.604c117.188,-109.604 206.163,-247.396 206.163,-413.421c-0,-94.396 -26.042,-187.708 -70.521,-252.813c-16.284,-23.875 -44.496,-54.254 -56.421,-54.254c-15.192,0 -48.838,28.213 -70.538,52.084c-80.295,88.975 -106.337,224.6 -106.337,337.445c-0,62.938 7.604,133.475 15.192,177.955c2.166,13.02 3.262,15.191 -9.759,26.041c-156.25,129.129 -322.275,284.288 -322.275,503.471c0,188.804 129.134,367.846 394.967,367.846c24.962,-0 53.175,-2.167 74.879,-6.508c11.925,-2.171 14.096,-3.263 16.267,9.758c13.021,72.708 29.304,167.1 29.304,218.104c-0,160.592 -108.508,180.125 -172.533,180.125c-58.596,0 -86.809,-17.362 -86.809,-31.479c0,-7.588 9.775,-10.85 34.725,-18.438c33.646,-9.775 72.709,-39.062 72.709,-101.995c-0,-59.688 -37.988,-110.675 -104.167,-110.675c-72.708,-0 -116.113,57.5 -116.113,124.775c0,70.537 42.325,176.87 206.163,176.87c72.708,0 213.767,-32.55 213.767,-217.012c-0,-61.858 -19.53,-164.929 -31.475,-232.204c-2.171,-13.021 -1.075,-11.946 14.116,-18.454c109.584,-43.405 182.292,-135.625 182.292,-258.246c-0,-138.892 -101.996,-261.496 -261.513,-261.496c-28.212,-0 -28.212,-0 -31.458,-19.529l-27.133,-157.346" style="fill-rule:nonzero;"/></g><g><path d="M1794.68,2292.93l-0,-134.6l2544.48,-67.275l-0,134.6l-2544.48,67.275" style="fill-rule:nonzero;"/></g><g><path d="M1794.68,2494.81l-0,-134.6l2544.48,-67.275l-0,134.6l-2544.48,67.275" style="fill-rule:nonzero;"/></g><g><path d="M5172.48,2022.05l-0,-135.746l2524.41,-336.375l0,135.75l-2524.41,336.371" style="fill-rule:nonzero;"/></g><g><path d="M5172.48,2225.71l-0,-135.746l2524.41,-336.371l0,135.746l-2524.41,336.371" style="fill-rule:nonzero;"/></g><g><path d="M8207.44,3302.59l0,-134.776l2523.33,-134.55l0,134.775l-2523.33,134.55" style="fill-rule:nonzero;"/></g><g><path d="M8207.44,3100.49l0,-134.759l2523.33,-134.55l0,134.758l-2523.33,134.551" style="fill-rule:nonzero;"/></g><g><path d="M11528.3,2967.68l0,-135.296l2524.43,-269.096l-0,135.292l-2524.43,269.1" style="fill-rule:nonzero;"/></g><g><path d="M11528.3,2764.67l0,-135.313l2524.43,-269.096l-0,135.313l-2524.43,269.096" style="fill-rule:nonzero;"/></g><g><path d="M15298.4,2496.75l0,-135.367l2533.65,-269.079l0,135.35l-2533.65,269.096" style="fill-rule:nonzero;"/></g><g><path d="M15298.4,2293.75l0,-135.313l2533.65,-269.095l0,135.312l-2533.65,269.096" style="fill-rule:nonzero;"/></g><g><path d="M18665.9,2225.82l0,-134.6l2523.33,-67.275l0,134.6l-2523.33,67.275" style="fill-rule:nonzero;"/></g><g><path d="M18665.9,2023.94l0,-134.6l2523.33,-67.275l0,134.6l-2523.33,67.275" style="fill-rule:nonzero;"/></g><g><path d="M21987.8,2158.54l0,-134.6l2523.87,67.275l-0,134.6l-2523.87,-67.275" style="fill-rule:nonzero;"/></g><g><path d="M21987.8,1956.67l0,-134.6l2523.87,67.275l-0,134.6l-2523.87,-67.275" style="fill-rule:nonzero;"/></g><g><path d="M25309.7,2158.54l0,-134.6l2534.18,67.275l0,134.6l-2534.18,-67.275" style="fill-rule:nonzero;"/></g><g><path d="M25309.7,1956.67l0,-134.6l2534.18,67.275l0,134.6l-2534.18,-67.275" style="fill-rule:nonzero;"/></g><g><path d="M39.038,5656.71l14775.4,0" style="fill:none;stroke:#000;stroke-width:34.92px;"/><path d="M39.038,5387.62l14775.4,0" style="fill:none;stroke:#000;stroke-width:34.92px;"/><path d="M39.038,6194.92l14775.4,-0" style="fill:none;stroke:#000;stroke-width:34.92px;"/><path d="M39.038,5925.79l14775.4,-0" style="fill:none;stroke:#000;stroke-width:34.92px;"/><path d="M39.038,6464l14775.4,0" style="fill:none;stroke:#000;stroke-width:34.92px;"/></g><g><path d="M12041.5,5370.12l0,1111.34" style="fill:none;stroke:#000;stroke-width:43.04px;"/><path d="M14641.9,5370.12l0,1111.34" style="fill:none;stroke:#000;stroke-width:43.04px;"/><path d="M14792.7,5370.12l0,1111.34" style="fill:none;stroke:#000;stroke-width:43.04px;"/></g><g><path d="M1522.86,5298.25l-0,901.25" style="fill:none;stroke:#000;stroke-width:32.29px;"/><path d="M2061.05,5432.79l-0,856.441" style="fill:none;stroke:#000;stroke-width:32.29px;"/><path d="M2599.8,5567.33l-0,811.579" style="fill:none;stroke:#000;stroke-width:32.29px;"/><path d="M3137.98,5701.88l-0,766.704" style="fill:none;stroke:#000;stroke-width:32.29px;"/><path d="M3896.45,5836.46l-0,830.884" style="fill:none;stroke:#000;stroke-width:32.29px;"/><path d="M4567.56,5971l0,759.65" style="fill:none;stroke:#000;stroke-width:32.29px;"/><path d="M5301.06,5971l0,828.888" style="fill:none;stroke:#000;stroke-width:32.29px;"/><path d="M6035.11,6105.54l-0,763.612" style="fill:none;stroke:#000;stroke-width:32.29px;"/><path d="M6860.86,5383l-0,766.717" style="fill:none;stroke:#000;stroke-width:32.29px;"/><path d="M7399.61,5472.67l-0,811.579" style="fill:none;stroke:#000;stroke-width:32.29px;"/><path d="M7937.77,5562.33l0,856.459" style="fill:none;stroke:#000;stroke-width:32.29px;"/><path d="M8475.98,5652.08l-0,901.267" style="fill:none;stroke:#000;stroke-width:32.29px;"/><path d="M9234.44,5925.67l0,762.221" style="fill:none;stroke:#000;stroke-width:32.29px;"/></g><g><path d="M8886.15,6733.08l472.55,0" style="fill:none;stroke:#000;stroke-width:43.04px;"/></g><g><path d="M10013,5946.96l-0,875.505" style="fill:none;stroke:#000;stroke-width:32.29px;"/></g><g><path d="M9668.48,6733.08l468.212,0" style="fill:none;stroke:#000;stroke-width:43.04px;"/></g><g><path d="M10853.4,5969.96l-0,852.5" style="fill:none;stroke:#000;stroke-width:32.29px;"/></g><g><path d="M10509.4,6733.08l468.213,0" style="fill:none;stroke:#000;stroke-width:43.04px;"/></g><g><path d="M11694.3,5992.96l0,964.046" style="fill:none;stroke:#000;stroke-width:32.29px;"/></g><g><path d="M11345.4,7002.21l472.554,0" style="fill:none;stroke:#000;stroke-width:43.04px;"/><path d="M11283.1,6733.08l534.95,0" style="fill:none;stroke:#000;stroke-width:43.04px;"/><path d="M12359.4,7002.21l673.3,0" style="fill:none;stroke:#000;stroke-width:43.04px;"/><path d="M12359.4,6733.08l673.3,0" style="fill:none;stroke:#000;stroke-width:43.04px;"/></g><g><path d="M1604.61,4834.21c-0,0 -1.075,4.338 -1.075,7.584c-0,4.341 4.337,8.683 8.679,8.683c3.246,0 5.417,-3.246 6.513,-4.342c1.075,-3.245 14.095,-47.741 20.604,-58.596c2.171,-4.337 4.341,-5.412 5.437,-5.412c2.167,0 3.246,4.338 3.246,7.583l0,155.175c0,13.021 -10.85,20.609 -21.704,20.609c-4.338,-0 -9.754,2.17 -9.754,8.679c-0,6.512 5.416,8.683 14.096,8.683l91.145,0c8.68,0 8.68,-8.683 8.68,-8.683c-0,-0 -0,-8.679 -8.68,-8.679c-7.587,-0 -17.362,-9.759 -17.362,-19.534l-0,-225.691c-0,-8.684 -3.246,-13.021 -10.85,-13.021c-7.588,-0 -14.096,2.171 -20.608,2.171c-10.85,-0 -13.021,-0 -21.7,-2.171c-4.342,-0 -9.775,6.508 -13.021,10.85l-33.646,116.112" style="fill-rule:nonzero;"/></g><g><path d="M2262.86,5020.62l-0,-116.092c-0,-5.437 -1.092,-9.775 -6.509,-9.775c-4.341,0 -7.604,1.092 -10.85,5.434l-32.554,62.933c-2.171,2.171 -5.433,5.417 -5.433,13.021l-0,44.479l-70.521,0c44.479,-36.892 113.925,-159.496 115.017,-166.008c-0,-1.092 1.075,-2.167 1.075,-3.263c-0,-4.342 -4.338,-7.587 -7.584,-7.587c-5.437,-0 -28.212,2.171 -37.987,2.171c-9.758,-0.001 -16.267,-2.171 -20.608,-2.171c-5.434,-0 -13.021,2.171 -13.021,10.85c-0,69.445 -56.425,148.645 -70.538,168.179c-2.171,2.171 -4.341,5.433 -4.341,8.679c-0,5.433 4.341,10.85 10.85,10.85l97.658,0l-0,33.646c-0,15.192 -8.679,19.533 -17.363,19.533c-9.754,0 -14.095,4.338 -14.095,9.754c-0,5.438 2.17,11.946 11.925,11.946l93.316,0c5.434,0 10.85,-4.341 10.85,-11.946c0,-7.583 -6.508,-10.85 -11.925,-10.85c-5.433,0 -17.362,-3.245 -17.362,-20.608l-0,-31.475l40.141,0c5.434,0 8.68,-4.337 8.68,-10.85c-0,-6.508 -2.171,-10.85 -8.68,-10.85l-40.141,0" style="fill-rule:nonzero;"/></g><g><path d="M2732.21,4845.08c-59.687,0 -85.729,40.138 -85.729,62.934c-0,15.191 8.679,33.629 35.817,34.72c20.608,0 30.383,-13.02 30.383,-27.133l-0,-4.341c-1.096,-16.267 -11.946,-17.363 -14.117,-18.438c-2.171,-1.096 -6.508,-5.433 -6.508,-13.021c2.167,-11.946 18.454,-16.283 22.792,-16.283c55.333,-0 71.616,29.304 71.616,47.742c0,51.008 -52.083,55.345 -68.366,56.425c-7.588,-0 -15.192,3.262 -15.192,9.77c-0,6.513 9.775,6.513 14.112,6.513c62.934,-0 71.617,32.55 71.617,48.821c0,62.933 -51.008,65.104 -64.029,65.104c-6.508,-0 -17.363,-3.25 -18.438,-8.683l0,-6.509c0,-11.929 3.246,-24.95 4.342,-35.8c0,-19.529 -13.021,-31.475 -32.554,-31.475l-4.338,0c-7.604,2.171 -15.191,6.509 -20.625,11.946c-7.587,6.508 -9.758,16.267 -9.758,26.042c1.075,34.721 31.458,64.008 85.713,65.104l6.508,-0c53.179,-0 108.508,-28.213 108.508,-75.958c0,-10.851 -2.171,-19.53 -5.416,-26.042c-2.171,-6.508 -6.513,-11.942 -10.85,-16.283c-3.267,-4.342 -7.605,-7.588 -11.946,-10.85l-11.925,-6.513l-6.513,-2.167c-2.171,0 -3.262,-1.079 -5.433,-1.079l-6.513,-2.171c-3.245,-1.091 -4.337,0 -5.416,-2.166c-1.092,-1.096 -1.092,-2.171 -1.092,-3.267c0,-2.171 1.092,-4.337 3.263,-4.337l17.362,-5.417c7.588,-4.342 15.192,-7.604 20.608,-15.192c8.68,-8.683 11.942,-22.796 11.942,-34.725c0,-51.004 -67.271,-65.104 -91.146,-67.271l-8.679,0" style="fill-rule:nonzero;"/></g><g><path d="M3219.52,4969.83c0,0 -1.091,4.338 -1.091,7.605c-0,4.337 4.337,8.679 8.679,8.679c3.262,-0 5.433,-3.263 6.512,-4.342c1.092,-3.262 14.113,-47.742 20.625,-58.592c2.167,-4.341 4.338,-5.433 5.417,-5.433c2.167,0 3.263,4.338 3.263,7.6l-0,155.158c-0,13.021 -10.85,20.625 -21.7,20.625c-4.342,0 -9.775,2.171 -9.775,8.68c-0,6.512 5.433,8.683 14.112,8.683l91.146,-0c8.683,-0 8.683,-8.683 8.683,-8.683c0,-0 0,-8.68 -8.683,-8.68c-7.604,0 -17.358,-9.775 -17.358,-19.533l-0,-225.692c-0,-8.683 -3.267,-13.02 -10.855,-13.02c-7.604,-0 -14.112,2.17 -20.625,2.17c-10.85,0 -13.02,0 -21.7,-2.17c-4.341,-0 -9.758,6.508 -13.02,10.85l-33.63,116.091" style="fill-rule:nonzero;"/></g><g><path d="M3978.26,4969.83c-0,0 -1.075,4.338 -1.075,7.605c-0,4.337 4.337,8.679 8.679,8.679c3.246,-0 5.417,-3.263 6.512,-4.342c1.075,-3.262 14.096,-47.742 20.605,-58.592c2.17,-4.341 4.341,-5.433 5.437,-5.433c2.167,0 3.246,4.338 3.246,7.6l-0,155.158c-0,13.021 -10.85,20.625 -21.704,20.625c-4.338,0 -9.754,2.171 -9.754,8.68c-0,6.512 5.416,8.683 14.095,8.683l91.146,-0c8.679,-0 8.679,-8.683 8.679,-8.683c0,-0 0,-8.68 -8.679,-8.68c-7.587,0 -17.362,-9.775 -17.362,-19.533l-0,-225.692c-0,-8.683 -3.246,-13.02 -10.85,-13.02c-7.588,-0 -14.096,2.17 -20.609,2.17c-10.85,0 -13.02,0 -21.7,-2.17c-4.341,-0 -9.775,6.508 -13.02,10.85l-33.646,116.091" style="fill-rule:nonzero;"/></g><g><path d="M4769.15,5020.83l0,-116.108c0,-5.421 -1.079,-9.758 -6.512,-9.758c-4.338,-0 -7.588,1.075 -10.85,5.416l-32.55,62.934c-2.171,2.17 -5.417,5.433 -5.417,13.02l0,44.496l-70.541,0c44.5,-36.891 113.941,-159.512 115.02,-166.025c0,-1.075 1.092,-2.171 1.092,-3.246c0,-4.341 -4.342,-7.604 -7.604,-7.604c-5.417,0 -28.213,2.171 -37.967,2.171c-9.775,0 -16.287,-2.171 -20.625,-2.171c-5.416,0 -13.021,2.171 -13.021,10.85c0,69.446 -56.425,148.663 -70.52,168.196c-2.171,2.171 -4.342,5.417 -4.342,8.679c-0,5.417 4.342,10.85 10.85,10.85l97.658,0l0,33.629c0,15.192 -8.683,19.534 -17.362,19.534c-9.775,-0 -14.117,4.341 -14.117,9.775c0,5.416 2.171,11.925 11.946,11.925l93.317,-0c5.416,-0 10.85,-4.342 10.85,-11.925c-0,-7.604 -6.509,-10.854 -11.946,-10.854c-5.417,-0 -17.359,-3.263 -17.359,-20.621l0,-31.463l40.155,0c5.416,0 8.683,-4.337 8.683,-10.85c-0,-6.508 -2.171,-10.85 -8.683,-10.85l-40.155,0" style="fill-rule:nonzero;"/></g><g><path d="M5433.98,4845.08c-59.671,0 -85.713,40.138 -85.713,62.934c0,15.191 8.684,33.629 35.8,34.72c20.625,0 30.384,-13.02 30.384,-27.133l-0,-4.341c-1.08,-16.267 -11.93,-17.363 -14.1,-18.438c-2.171,-1.096 -6.509,-5.433 -6.509,-13.021c2.171,-11.946 18.438,-16.283 22.775,-16.283c55.35,-0 71.617,29.304 71.617,47.742c-0,51.008 -52.083,55.345 -68.35,56.425c-7.604,-0 -15.192,3.262 -15.192,9.77c0,6.513 9.759,6.513 14.096,6.513c62.933,-0 71.617,32.55 71.617,48.821c-0,62.933 -50.992,65.104 -64.013,65.104c-6.508,-0 -17.358,-3.25 -18.454,-8.683l0,-6.509c0,-11.929 3.263,-24.95 4.342,-35.8c-0,-19.529 -13.021,-31.475 -32.554,-31.475l-4.338,0c-7.587,2.171 -15.192,6.509 -20.608,11.946c-7.604,6.508 -9.775,16.267 -9.775,26.042c1.091,34.721 31.475,64.008 85.729,65.104l6.508,-0c53.163,-0 108.509,-28.213 108.509,-75.958c-0,-10.851 -2.171,-19.53 -5.434,-26.042c-2.171,-6.508 -6.512,-11.942 -10.85,-16.283c-3.246,-4.342 -7.587,-7.588 -11.929,-10.85l-11.942,-6.513l-6.512,-2.167c-2.171,0 -3.246,-1.079 -5.417,-1.079l-6.508,-2.171c-3.267,-1.091 -4.342,0 -5.438,-2.166c-1.075,-1.096 -1.075,-2.171 -1.075,-3.267c0,-2.171 1.075,-4.337 3.246,-4.337l17.363,-5.417c7.604,-4.342 15.191,-7.604 20.625,-15.192c8.679,-8.683 11.925,-22.796 11.925,-34.725c-0,-51.004 -67.271,-65.104 -91.146,-67.271l-8.679,0" style="fill-rule:nonzero;"/></g><g><path d="M6116.65,4969.83c0,0 -1.095,4.338 -1.095,7.605c-0,4.337 4.341,8.679 8.683,8.679c3.262,-0 5.433,-3.263 6.508,-4.342c1.096,-3.262 14.117,-47.742 20.625,-58.592c2.171,-4.341 4.342,-5.433 5.417,-5.433c2.171,0 3.262,4.338 3.262,7.6l0,155.158c0,13.021 -10.85,20.625 -21.7,20.625c-4.341,0 -9.775,2.171 -9.775,8.68c0,6.512 5.434,8.683 14.117,8.683l91.146,-0c8.679,-0 8.679,-8.683 8.679,-8.683c0,-0 0,-8.68 -8.679,-8.68c-7.604,0 -17.363,-9.775 -17.363,-19.533l0,-225.692c0,-8.683 -3.262,-13.02 -10.85,-13.02c-7.604,-0 -14.116,2.17 -20.625,2.17c-10.85,0 -13.02,0 -21.7,-2.17c-4.341,-0 -9.758,6.508 -13.02,10.85l-33.63,116.091" style="fill-rule:nonzero;"/></g><g><path d="M6654.94,4969.83c0,0 -1.075,4.338 -1.075,7.605c0,4.337 4.342,8.679 8.679,8.679c3.25,-0 5.417,-3.263 6.513,-4.342c1.075,-3.262 14.096,-47.742 20.608,-58.592c2.171,-4.341 4.338,-5.433 5.433,-5.433c2.171,0 3.246,4.338 3.246,7.6l0,155.158c0,13.021 -10.85,20.625 -21.7,20.625c-4.341,0 -9.758,2.171 -9.758,8.68c-0,6.512 5.417,8.683 14.096,8.683l91.146,-0c8.683,-0 8.683,-8.683 8.683,-8.683c-0,-0 -0,-8.68 -8.683,-8.68c-7.584,0 -17.359,-9.775 -17.359,-19.533l0,-225.692c0,-8.683 -3.246,-13.02 -10.85,-13.02c-7.587,-0 -14.1,2.17 -20.608,2.17c-10.85,0 -13.021,0 -21.704,-2.17c-4.338,-0 -9.771,6.508 -13.021,10.85l-33.646,116.091" style="fill-rule:nonzero;"/></g><g><path d="M7313.23,5020.83l-0,-116.108c-0,-5.421 -1.096,-9.758 -6.513,-9.758c-4.337,-0 -7.604,1.075 -10.85,5.416l-32.55,62.934c-2.171,2.17 -5.437,5.433 -5.437,13.02l-0,44.496l-70.521,0c44.479,-36.891 113.925,-159.512 115.021,-166.025c-0,-1.075 1.075,-2.171 1.075,-3.246c-0,-4.341 -4.342,-7.604 -7.588,-7.604c-5.433,0 -28.212,2.171 -37.987,2.171c-9.754,0 -16.267,-2.171 -20.604,-2.171c-5.438,0 -13.021,2.171 -13.021,10.85c-0,69.446 -56.425,148.663 -70.542,168.196c-2.167,2.171 -4.337,5.417 -4.337,8.679c-0,5.417 4.337,10.85 10.85,10.85l97.654,0l-0,33.629c-0,15.192 -8.679,19.534 -17.359,19.534c-9.758,-0 -14.1,4.341 -14.1,9.775c0,5.416 2.171,11.925 11.93,11.925l93.316,-0c5.434,-0 10.85,-4.342 10.85,-11.925c0,-7.604 -6.512,-10.854 -11.929,-10.854c-5.433,-0 -17.358,-3.263 -17.358,-20.621l-0,-31.463l40.137,0c5.434,0 8.679,-4.337 8.679,-10.85c0,-6.508 -2.166,-10.85 -8.679,-10.85l-40.137,0" style="fill-rule:nonzero;"/></g><g><path d="M7782.56,4845.08c-59.667,0 -85.708,40.138 -85.708,62.934c-0,15.191 8.679,33.629 35.796,34.72c20.625,0 30.383,-13.02 30.383,-27.133l-0,-4.341c-1.075,-16.267 -11.929,-17.363 -14.096,-18.438c-2.171,-1.096 -6.512,-5.433 -6.512,-13.021c2.17,-11.946 18.437,-16.283 22.779,-16.283c55.346,-0 71.612,29.304 71.612,47.742c0,51.008 -52.083,55.345 -68.35,56.425c-7.604,-0 -15.191,3.262 -15.191,9.77c-0,6.513 9.758,6.513 14.1,6.513c62.933,-0 71.612,32.55 71.612,48.821c0,62.933 -50.987,65.104 -64.008,65.104c-6.513,-0 -17.363,-3.25 -18.459,-8.683l0,-6.509c0,-11.929 3.267,-24.95 4.342,-35.8c0,-19.529 -13.021,-31.475 -32.55,-31.475l-4.342,0c-7.587,2.171 -15.191,6.509 -20.608,11.946c-7.604,6.508 -9.775,16.267 -9.775,26.042c1.096,34.721 31.475,64.008 85.729,65.104l6.513,-0c53.158,-0 108.504,-28.213 108.504,-75.958c-0,-10.851 -2.167,-19.53 -5.433,-26.042c-2.171,-6.508 -6.509,-11.942 -10.85,-16.283c-3.246,-4.342 -7.588,-7.588 -11.925,-10.85l-11.946,-6.513l-6.513,-2.167c-2.166,0 -3.246,-1.079 -5.416,-1.079l-6.509,-2.171c-3.262,-1.091 -4.341,0 -5.433,-2.166c-1.079,-1.096 -1.079,-2.171 -1.079,-3.267c-0,-2.171 1.079,-4.337 3.25,-4.337l17.358,-5.417c7.604,-4.342 15.192,-7.604 20.625,-15.192c8.683,-8.683 11.929,-22.796 11.929,-34.725c0,-51.004 -67.275,-65.104 -91.146,-67.271l-8.683,0" style="fill-rule:nonzero;"/></g><g><path d="M8269.85,4969.83c-0,0 -1.096,4.338 -1.096,7.605c-0,4.337 4.342,8.679 8.679,8.679c3.267,-0 5.438,-3.263 6.513,-4.342c1.091,-3.262 14.112,-47.742 20.625,-58.592c2.17,-4.341 4.341,-5.433 5.416,-5.433c2.171,0 3.263,4.338 3.263,7.6l-0,155.158c-0,13.021 -10.85,20.625 -21.7,20.625c-4.342,0 -9.775,2.171 -9.775,8.68c-0,6.512 5.433,8.683 14.116,8.683l91.146,-0c8.679,-0 8.679,-8.683 8.679,-8.683c0,-0 0,-8.68 -8.679,-8.68c-7.604,0 -17.362,-9.775 -17.362,-19.533l-0,-225.692c-0,-8.683 -3.263,-13.02 -10.85,-13.02c-7.604,-0 -14.117,2.17 -20.625,2.17c-10.85,0 -13.021,0 -21.704,-2.17c-4.338,-0 -9.755,6.508 -13.021,10.85l-33.625,116.091" style="fill-rule:nonzero;"/></g><g><path d="M9028.6,4969.83c-0,0 -1.092,4.338 -1.092,7.605c0,4.337 4.342,8.679 8.679,8.679c3.267,-0 5.434,-3.263 6.513,-4.342c1.091,-3.262 14.112,-47.742 20.625,-58.592c2.171,-4.341 4.337,-5.433 5.416,-5.433c2.171,0 3.263,4.338 3.263,7.6l-0,155.158c-0,13.021 -10.85,20.625 -21.7,20.625c-4.342,0 -9.775,2.171 -9.775,8.68c-0,6.512 5.433,8.683 14.112,8.683l91.146,-0c8.684,-0 8.684,-8.683 8.684,-8.683c-0,-0 -0,-8.68 -8.684,-8.68c-7.604,0 -17.358,-9.775 -17.358,-19.533l-0,-225.692c-0,-8.683 -3.267,-13.02 -10.85,-13.02c-7.604,-0 -14.117,2.17 -20.625,2.17c-10.854,0 -13.021,0 -21.704,-2.17c-4.338,-0 -9.754,6.508 -13.021,10.85l-33.629,116.091" style="fill-rule:nonzero;"/></g><g><path d="M9926.65,5020.83l0,-116.108c0,-5.421 -1.095,-9.758 -6.512,-9.758c-4.338,-0 -7.604,1.075 -10.85,5.416l-32.55,62.934c-2.171,2.17 -5.438,5.433 -5.438,13.02l0,44.496l-70.52,0c44.479,-36.891 113.925,-159.512 115.02,-166.025c0,-1.075 1.075,-2.171 1.075,-3.246c0,-4.341 -4.341,-7.604 -7.587,-7.604c-5.433,0 -28.213,2.171 -37.988,2.171c-9.754,0 -16.266,-2.171 -20.604,-2.171c-5.437,0 -13.021,2.171 -13.021,10.85c0,69.446 -56.425,148.663 -70.541,168.196c-2.167,2.171 -4.338,5.417 -4.338,8.679c0,5.417 4.338,10.85 10.85,10.85l97.654,0l0,33.629c0,15.192 -8.679,19.534 -17.358,19.534c-9.758,-0 -14.1,4.341 -14.1,9.775c0,5.416 2.171,11.925 11.929,11.925l93.317,-0c5.433,-0 10.85,-4.342 10.85,-11.925c-0,-7.604 -6.513,-10.854 -11.929,-10.854c-5.434,-0 -17.359,-3.263 -17.359,-20.621l0,-31.463l40.138,0c5.433,0 8.679,-4.337 8.679,-10.85c0,-6.508 -2.167,-10.85 -8.679,-10.85l-40.138,0" style="fill-rule:nonzero;"/></g><g><path d="M10698.5,4845.08c-59.67,0 -85.712,40.138 -85.712,62.934c-0,15.191 8.679,33.629 35.796,34.72c20.625,0 30.383,-13.02 30.383,-27.133l0,-4.341c-1.075,-16.267 -11.925,-17.363 -14.096,-18.438c-2.171,-1.096 -6.512,-5.433 -6.512,-13.021c2.171,-11.946 18.437,-16.283 22.779,-16.283c55.346,-0 71.612,29.304 71.612,47.742c0,51.008 -52.083,55.345 -68.35,56.425c-7.604,-0 -15.191,3.262 -15.191,9.77c-0,6.513 9.758,6.513 14.1,6.513c62.933,-0 71.612,32.55 71.612,48.821c0,62.933 -50.987,65.104 -64.008,65.104c-6.513,-0 -17.363,-3.25 -18.454,-8.683l-0,-6.509c-0,-11.929 3.262,-24.95 4.337,-35.8c0,-19.529 -13.021,-31.475 -32.55,-31.475l-4.341,0c-7.588,2.171 -15.192,6.509 -20.609,11.946c-7.604,6.508 -9.775,16.267 -9.775,26.042c1.096,34.721 31.479,64.008 85.729,65.104l6.513,-0c53.158,-0 108.508,-28.213 108.508,-75.958c0,-10.851 -2.171,-19.53 -5.437,-26.042c-2.167,-6.508 -6.509,-11.942 -10.85,-16.283c-3.246,-4.342 -7.588,-7.588 -11.925,-10.85l-11.946,-6.513l-6.508,-2.167c-2.171,0 -3.25,-1.079 -5.417,-1.079l-6.513,-2.171c-3.262,-1.091 -4.341,0 -5.433,-2.166c-1.075,-1.096 -1.075,-2.171 -1.075,-3.267c0,-2.171 1.075,-4.337 3.246,-4.337l17.358,-5.417c7.604,-4.342 15.192,-7.604 20.625,-15.192c8.684,-8.683 11.929,-22.796 11.929,-34.725c0,-51.004 -67.275,-65.104 -91.145,-67.271l-8.68,0" style="fill-rule:nonzero;"/></g><g><path d="M11488.4,4969.83c-0,0 -1.075,4.338 -1.075,7.605c-0,4.337 4.337,8.679 8.679,8.679c3.246,-0 5.417,-3.263 6.508,-4.342c1.079,-3.262 14.1,-47.742 20.609,-58.592c2.17,-4.341 4.341,-5.433 5.433,-5.433c2.171,0 3.25,4.338 3.25,7.6l-0,155.158c-0,13.021 -10.854,20.625 -21.704,20.625c-4.338,0 -9.754,2.171 -9.754,8.68c-0,6.512 5.416,8.683 14.095,8.683l91.146,-0c8.679,-0 8.679,-8.683 8.679,-8.683c0,-0 0,-8.68 -8.679,-8.68c-7.587,0 -17.362,-9.775 -17.362,-19.533l-0,-225.692c-0,-8.683 -3.246,-13.02 -10.85,-13.02c-7.588,-0 -14.096,2.17 -20.609,2.17c-10.85,0 -13.02,0 -21.7,-2.17c-4.341,-0 -9.775,6.508 -13.02,10.85l-33.646,116.091" style="fill-rule:nonzero;"/></g><g><path d="M12633.9,4969.83c0,0 -1.075,4.338 -1.075,7.605c0,4.337 4.342,8.679 8.68,8.679c3.245,-0 5.416,-3.263 6.512,-4.342c1.075,-3.262 14.096,-47.742 20.608,-58.592c2.167,-4.341 4.338,-5.433 5.434,-5.433c2.171,0 3.246,4.338 3.246,7.6l-0,155.158c-0,13.021 -10.85,20.625 -21.7,20.625c-4.342,0 -9.759,2.171 -9.759,8.68c0,6.512 5.417,8.683 14.096,8.683l91.146,-0c8.683,-0 8.683,-8.683 8.683,-8.683c0,-0 0,-8.68 -8.683,-8.68c-7.588,0 -17.358,-9.775 -17.358,-19.533l-0,-225.692c-0,-8.683 -3.25,-13.02 -10.855,-13.02c-7.583,-0 -14.095,2.17 -20.604,2.17c-10.854,0 -13.021,0 -21.704,-2.17c-4.337,-0 -9.775,6.508 -13.021,10.85l-33.646,116.091" style="fill-rule:nonzero;"/></g><g><path d="M1612.06,5388.67c96.562,-0 214.842,-88.975 214.842,-181.196c-0,-55.346 -43.405,-90.071 -105.259,-90.071c-119.358,-0 -214.846,87.9 -214.846,181.217c0,56.425 46.667,90.05 105.263,90.05" style="fill-rule:nonzero;"/></g><g><path d="M2150.34,5523.25c96.579,0 214.846,-88.975 214.846,-181.196c-0,-55.35 -43.404,-90.071 -105.246,-90.071c-119.358,0 -214.842,87.9 -214.842,181.217c0,56.421 46.65,90.05 105.242,90.05" style="fill-rule:nonzero;"/></g><g><path d="M2688.64,5657.79c96.579,-0 214.842,-88.975 214.842,-181.2c-0,-55.346 -43.4,-90.067 -105.242,-90.067c-119.358,-0 -214.846,87.896 -214.846,181.212c0,56.425 46.65,90.055 105.246,90.055" style="fill-rule:nonzero;"/></g><g><path d="M3226.93,5792.33c96.583,0 214.846,-88.975 214.846,-181.195c-0,-55.346 -43.404,-90.071 -105.242,-90.071c-119.358,-0 -214.846,87.9 -214.846,181.216c0,56.425 46.65,90.05 105.242,90.05" style="fill-rule:nonzero;"/></g><g><path d="M3725.44,5840.08c-6.508,21.7 -57.516,43.4 -82.466,43.4c-6.509,0 -11.942,-2.166 -13.021,-5.416c-2.167,-4.338 -3.263,-28.209 -3.263,-54.25c0,-33.646 1.096,-71.617 3.263,-80.296c2.171,-18.454 52.083,-41.233 79.204,-41.233c7.604,-0 14.112,2.17 16.283,6.508c2.171,5.417 4.342,32.554 4.342,61.842c-0,29.304 -2.171,59.687 -4.342,69.445m74.863,-176.858c7.604,-3.262 13.021,-11.946 13.021,-18.454l-0,-77.033c-0,-5.434 -3.246,-8.68 -7.588,-8.68c-2.171,0 -3.262,0 -5.433,1.075c-0,0 -21.704,8.684 -27.121,9.775c-7.604,0 -15.188,-5.433 -15.188,-14.112l0,-132.379c0,-6.513 -6.512,-11.929 -15.191,-11.929c-10.85,-0 -17.363,5.416 -17.363,11.929l0,141.058c-1.091,10.85 -4.341,24.967 -14.112,31.475c-13.021,7.588 -49.917,22.779 -68.354,27.117c-9.771,-0 -13.021,-13.021 -13.021,-21.7l-0,-130.209c-0,-6.508 -7.604,-11.925 -15.188,-11.925c-10.854,0 -17.362,5.417 -17.362,11.925l-0,146.492c-0,15.192 -6.513,26.042 -13.021,29.292c-6.513,3.262 -28.213,11.941 -28.213,11.941c-7.604,2.171 -13.02,10.85 -13.02,17.363l-0,77.029c-0,6.513 3.245,9.775 8.679,9.775c4.341,0 24.95,-9.775 28.212,-11.942c1.079,0 2.171,-1.079 3.246,-1.079c7.604,0 14.117,10.85 14.117,19.534l-0,107.412c-0,11.946 -5.434,21.7 -11.946,24.967c-6.508,2.166 -29.288,11.925 -29.288,11.925c-7.604,2.171 -13.02,10.85 -13.02,17.362l-0,77.046c-0,6.513 3.245,9.758 8.679,9.758c1.079,0 3.25,-1.075 4.341,-1.075c0,0 15.192,-6.512 24.95,-9.775c1.092,-1.075 2.167,-1.075 3.263,-1.075c7.587,0 13.021,11.925 13.021,17.359l-0,133.454c-0,6.512 6.508,11.946 14.096,11.946c10.85,-0 18.454,-5.434 18.454,-11.946l-0,-150.813c-0,-14.116 5.416,-21.704 10.854,-23.875l66.179,-27.133c1.092,0 3.263,-1.075 4.342,-1.075c8.679,-0 14.112,13.021 14.112,19.529l0,135.625c0,6.513 6.513,11.946 14.096,11.946c11.946,-0 18.458,-5.433 18.458,-11.946l0,-154.079c0,-8.679 4.338,-21.7 11.925,-24.95c7.605,-3.263 30.384,-11.942 30.384,-11.942c7.604,-3.246 13.021,-11.929 13.021,-18.437l-0,-77.05c-0,-5.417 -3.246,-8.679 -7.588,-8.679c-2.171,-0 -3.262,-0 -5.433,1.091l-28.213,10.85c-6.512,0 -14.096,-6.508 -14.096,-19.529l0,-100.921c0,-7.587 5.417,-28.212 14.096,-31.458l28.213,-10.85" style="fill-rule:nonzero;"/></g><g><path d="M3985.68,5926.88c96.583,0 214.846,-88.975 214.846,-181.196c-0,-55.35 -43.404,-90.071 -105.242,-90.071c-119.358,0 -214.846,87.9 -214.846,181.217c0,56.421 46.65,90.05 105.242,90.05" style="fill-rule:nonzero;"/></g><g><path d="M4342.02,5883.46c0,-15.187 66.2,-43.4 92.242,-43.4c6.508,0 9.754,1.092 9.754,5.434l0,111.754c0,19.529 -61.837,44.496 -88.975,44.496c-7.587,-0 -13.021,-2.171 -13.021,-6.513l0,-111.771m112.85,-154.079c-2.17,0 -3.25,1.096 -4.341,1.096c-0,-0 -69.446,24.946 -97.659,24.946c-6.508,-0 -10.85,-1.075 -10.85,-5.417l0,-181.212c0,-7.588 -6.508,-13.021 -13.02,-13.021l-14.096,-0c-7.604,-0 -13.021,5.433 -13.021,13.021l-0,558.816c-0,6.513 3.246,9.759 8.679,9.759c1.079,-0 6.513,-1.079 7.588,-2.171c15.191,-6.513 75.954,-32.554 107.429,-32.554c10.854,0.004 18.437,3.266 18.437,11.946l0,161.666c0,7.604 5.438,13.021 13.021,13.021l14.117,0c6.508,0 13.021,-5.417 13.021,-13.021l-0,-544.704c-0,-5.417 -4.342,-8.679 -8.68,-8.679c-1.095,-0 -3.266,-0 -4.341,1.091l-16.284,5.417" style="fill-rule:nonzero;"/></g><g><path d="M4656.65,6061.42c96.58,-0 214.842,-88.975 214.842,-181.2c0,-55.346 -43.404,-90.067 -105.242,-90.067c-119.358,0 -214.845,87.896 -214.845,181.212c-0,56.425 46.65,90.055 105.245,90.055" style="fill-rule:nonzero;"/></g><g><path d="M5023.9,6013.67c0,-0 -3.245,-65.105 -3.245,-108.505c-0,-17.362 1.075,-30.383 2.17,-34.725c7.588,-21.699 50.988,-53.158 75.955,-53.158c31.458,0 44.479,35.8 44.479,62.934c-0,58.595 -49.913,117.187 -96.563,146.475c-4.341,2.17 -7.604,3.266 -10.85,3.266c-9.775,0 -11.946,-10.854 -11.946,-16.287m-37.966,96.579c3.246,4.342 6.508,5.421 9.754,5.421c3.267,-0 6.512,-2.171 6.512,-2.171c32.55,-18.438 58.592,-47.746 85.73,-66.183c96.562,-67.275 130.208,-133.471 130.208,-183.384c-0,-61.841 -47.746,-100.904 -97.658,-104.166c-18.455,-0 -44.496,8.679 -59.688,18.454c-6.508,5.416 -18.437,15.191 -23.871,15.191c-2.171,0 -3.246,0 -5.416,-1.095c-7.605,-3.246 -11.946,-10.85 -11.946,-18.438c1.096,-23.871 7.604,-284.287 7.604,-305.987c-0,-11.946 -9.771,-18.455 -20.625,-18.455c-15.188,0 -32.55,10.85 -33.625,30.38c-0,-0 4.337,619.583 13.021,630.433" style="fill-rule:nonzero;"/></g><g><path d="M5390.44,6061.42c96.563,-0 214.842,-88.975 214.842,-181.2c-0,-55.346 -43.4,-90.067 -105.259,-90.067c-119.358,0 -214.845,87.896 -214.845,181.212c-0,56.425 46.666,90.055 105.262,90.055" style="fill-rule:nonzero;"/></g><g><path d="M5757.61,6148.25c-0,0 -3.263,-65.104 -3.263,-108.508c0,-17.359 1.092,-30.379 2.167,-34.721c7.604,-21.7 51.008,-53.159 75.958,-53.159c31.475,0 44.496,35.796 44.496,62.934c0,58.591 -49.912,117.187 -96.579,146.475c-4.342,2.171 -7.588,3.262 -10.854,3.262c-9.754,0 -11.925,-10.85 -11.925,-16.283m-37.988,96.579c3.267,4.342 6.513,5.417 9.775,5.417c3.246,-0 6.513,-2.171 6.513,-2.171c32.55,-18.438 58.591,-47.742 85.708,-66.179c96.583,-67.275 130.208,-133.471 130.208,-183.383c0,-61.842 -47.741,-100.905 -97.654,-104.167c-18.437,-0 -44.479,8.679 -59.671,18.454c-6.508,5.417 -18.454,15.188 -23.87,15.188c-2.171,-0 -3.263,-0 -5.434,-1.092c-7.587,-3.246 -11.929,-10.85 -11.929,-18.438c1.079,-23.87 7.588,-284.287 7.588,-305.991c-0,-11.942 -9.759,-18.454 -20.609,-18.454c-15.191,-0.001 -32.55,10.854 -33.646,30.383c0,-0 4.342,619.583 13.021,630.433" style="fill-rule:nonzero;"/></g><g><path d="M6124.15,6195.96c96.58,0 214.842,-88.975 214.842,-181.196c0,-55.345 -43.404,-90.07 -105.242,-90.07c-119.358,-0 -214.845,87.9 -214.845,181.216c-0,56.425 46.65,90.05 105.245,90.05" style="fill-rule:nonzero;"/></g><g><path d="M6662.4,6330.54c96.58,-0 214.842,-88.975 214.842,-181.196c0,-55.35 -43.4,-90.071 -105.242,-90.071c-119.358,-0 -214.845,87.9 -214.845,181.217c-0,56.42 46.65,90.05 105.245,90.05" style="fill-rule:nonzero;"/></g><g><path d="M7200.69,6465.08c96.583,0 214.846,-88.975 214.846,-181.2c-0,-55.346 -43.404,-90.066 -105.242,-90.066c-119.358,-0 -214.846,87.895 -214.846,181.212c0,56.425 46.65,90.054 105.242,90.054" style="fill-rule:nonzero;"/></g><g><path d="M7739.02,6599.62c96.563,0 214.846,-88.975 214.846,-181.196c0,-55.346 -43.404,-90.071 -105.262,-90.071c-119.359,0 -214.842,87.9 -214.842,181.217c0,56.425 46.667,90.05 105.258,90.05" style="fill-rule:nonzero;"/></g><g><path d="M8277.31,6734.17c96.563,-0 214.842,-88.975 214.842,-181.196c-0,-55.35 -43.4,-90.071 -105.259,-90.071c-119.358,0 -214.845,87.9 -214.845,181.217c-0,56.421 46.666,90.05 105.262,90.05" style="fill-rule:nonzero;"/></g><g><path d="M8775.85,6781.92c-6.513,21.704 -57.517,43.404 -82.467,43.404c-6.508,-0 -11.942,-2.171 -13.021,-5.417c-2.171,-4.341 -3.262,-28.212 -3.262,-54.254c-0,-33.646 1.091,-71.612 3.262,-80.296c2.171,-18.454 52.084,-41.233 79.204,-41.233c7.605,-0 14.113,2.171 16.284,6.512c2.171,5.417 4.341,32.55 4.341,61.842c0,29.304 -2.17,59.688 -4.341,69.442m74.862,-176.859c7.604,-3.262 13.021,-11.941 13.021,-18.454l0,-77.029c0,-5.433 -3.25,-8.683 -7.587,-8.683c-2.171,-0 -3.267,-0 -5.434,1.079c0,-0 -21.704,8.679 -27.121,9.775c-7.604,-0 -15.191,-5.433 -15.191,-14.117l-0,-132.379c-0,-6.508 -6.509,-11.925 -15.188,-11.925c-10.854,0 -17.362,5.417 -17.362,11.925l-0,141.058c-1.096,10.855 -4.342,24.967 -14.117,31.48c-13.021,7.583 -49.912,22.775 -68.35,27.116c-9.775,0 -13.021,-13.021 -13.021,-21.7l0,-130.208c0,-6.513 -7.604,-11.929 -15.191,-11.929c-10.85,-0 -17.359,5.416 -17.359,11.929l0,146.492c0,15.191 -6.512,26.041 -13.021,29.287c-6.512,3.263 -28.212,11.946 -28.212,11.946c-7.604,2.171 -13.021,10.85 -13.021,17.358l0,77.034c0,6.512 3.246,9.775 8.679,9.775c4.342,-0 24.95,-9.775 28.213,-11.946c1.075,-0 2.171,-1.075 3.246,-1.075c7.604,-0 14.116,10.85 14.116,19.529l0,107.417c0,11.941 -5.433,21.7 -11.946,24.962c-6.508,2.171 -29.287,11.929 -29.287,11.929c-7.604,2.171 -13.021,10.85 -13.021,17.359l0,77.05c0,6.512 3.246,9.758 8.679,9.758c1.079,-0 3.246,-1.079 4.342,-1.079c-0,-0 15.192,-6.509 24.946,-9.771c1.096,-1.079 2.171,-1.079 3.266,-1.079c7.588,-0 13.021,11.929 13.021,17.362l0,133.454c0,6.513 6.509,11.946 14.096,11.946c10.85,0 18.454,-5.433 18.454,-11.946l0,-150.816c0,-14.113 5.417,-21.7 10.85,-23.871l66.184,-27.133c1.091,-0.001 3.262,-1.08 4.337,-1.08c8.683,0 14.117,13.021 14.117,19.534l-0,135.625c-0,6.508 6.508,11.941 14.096,11.941c11.945,0 18.454,-5.433 18.454,-11.941l-0,-154.079c-0,-8.684 4.341,-21.705 11.929,-24.95c7.604,-3.263 30.383,-11.946 30.383,-11.946c7.604,-3.246 13.021,-11.925 13.021,-18.438l0,-77.046c0,-5.416 -3.25,-8.683 -7.587,-8.683c-2.171,0 -3.267,0 -5.434,1.096l-28.212,10.85c-6.513,-0 -14.1,-6.513 -14.1,-19.534l-0,-100.916c-0,-7.588 5.416,-28.213 14.1,-31.459l28.212,-10.85" style="fill-rule:nonzero;"/></g><g><path d="M9036.02,6868.71c96.563,0 214.842,-88.975 214.842,-181.2c0,-55.346 -43.4,-90.066 -105.258,-90.066c-119.359,-0 -214.846,87.895 -214.846,181.212c-0,56.425 46.667,90.054 105.262,90.054" style="fill-rule:nonzero;"/></g><g><path d="M9499.52,6825.33c0,-15.191 66.184,-43.404 92.225,-43.404c6.509,0 9.771,1.096 9.771,5.434l0,111.754c0,19.533 -61.854,44.496 -88.975,44.496c-7.604,-0 -13.021,-2.167 -13.021,-6.509l0,-111.771m112.85,-154.079c-2.17,0 -3.266,1.092 -4.341,1.092c-0,-0 -69.446,24.95 -97.659,24.95c-6.508,-0 -10.85,-1.079 -10.85,-5.417l0,-181.216c0,-7.588 -6.508,-13.021 -13.02,-13.021l-14.113,-0c-7.587,-0 -13.021,5.433 -13.021,13.021l0,558.82c0,6.509 3.263,9.755 8.679,9.755c1.096,0.004 6.513,-1.075 7.605,-2.167c15.191,-6.513 75.954,-32.554 107.412,-32.554c10.85,-0 18.454,3.266 18.454,11.946l0,161.666c0,7.604 5.417,13.021 13.021,13.021l14.1,0c6.508,0 13.021,-5.417 13.021,-13.021l-0,-544.704c-0,-5.417 -4.342,-8.683 -8.683,-8.683c-1.075,-0 -3.246,-0 -4.338,1.096l-16.267,5.416" style="fill-rule:nonzero;"/></g><g><path d="M9814.15,7003.25c96.563,0 214.842,-88.975 214.842,-181.196c0,-55.346 -43.404,-90.071 -105.258,-90.071c-119.359,0 -214.846,87.9 -214.846,181.217c-0,56.425 46.667,90.05 105.262,90.05" style="fill-rule:nonzero;"/></g><g><path d="M10288.4,6955.54c0,-0 -3.25,-65.105 -3.25,-108.509c0,-17.358 1.08,-30.379 2.171,-34.721c7.588,-21.699 50.992,-53.158 75.954,-53.158c31.459,0 44.48,35.796 44.48,62.934c-0,58.591 -49.913,117.187 -96.563,146.475c-4.337,2.17 -7.604,3.262 -10.85,3.262c-9.775,0 -11.942,-10.85 -11.942,-16.283m-37.97,96.579c3.245,4.342 6.512,5.417 9.758,5.417c3.262,-0 6.508,-2.171 6.508,-2.171c32.554,-18.438 58.596,-47.742 85.729,-66.179c96.563,-67.275 130.209,-133.471 130.209,-183.384c-0,-61.841 -47.742,-100.904 -97.654,-104.166c-18.455,-0 -44.496,8.679 -59.688,18.454c-6.512,5.416 -18.437,15.187 -23.871,15.187c-2.171,0 -3.25,0 -5.416,-1.091c-7.605,-3.246 -11.946,-10.85 -11.946,-18.438c1.091,-23.871 7.604,-284.287 7.604,-305.992c-0,-11.941 -9.775,-18.454 -20.625,-18.454c-15.192,0 -32.554,10.854 -33.629,30.384c-0,-0 4.341,619.583 13.021,630.433" style="fill-rule:nonzero;"/></g><g><path d="M10654.9,7003.25c96.563,0 214.846,-88.975 214.846,-181.196c-0,-55.346 -43.404,-90.071 -105.263,-90.071c-119.354,0 -214.841,87.9 -214.841,181.217c-0,56.425 46.666,90.05 105.258,90.05" style="fill-rule:nonzero;"/></g><g><path d="M11129.2,7090.08c-0,0 -3.267,-65.104 -3.267,-108.508c0,-17.363 1.096,-30.383 2.171,-34.721c7.604,-21.704 51.008,-53.162 75.954,-53.162c31.475,-0 44.496,35.8 44.496,62.937c-0,58.592 -49.913,117.188 -96.579,146.475c-4.338,2.171 -7.588,3.263 -10.85,3.263c-9.759,-0 -11.925,-10.85 -11.925,-16.284m-37.988,96.579c3.263,4.342 6.509,5.417 9.775,5.417c3.246,0 6.509,-2.171 6.509,-2.171c32.554,-18.437 58.595,-47.741 85.712,-66.179c96.579,-67.275 130.208,-133.475 130.208,-183.387c0,-61.838 -47.741,-100.9 -97.654,-104.167c-18.437,-0 -44.479,8.683 -59.671,18.454c-6.512,5.417 -18.454,15.192 -23.87,15.192c-2.171,-0 -3.267,-0 -5.438,-1.092c-7.583,-3.25 -11.925,-10.85 -11.925,-18.437c1.075,-23.875 7.588,-284.292 7.588,-305.992c-0,-11.942 -9.759,-18.454 -20.609,-18.454c-15.191,-0 -32.554,10.85 -33.646,30.383c0,0 4.342,619.583 13.021,630.433" style="fill-rule:nonzero;"/></g><g><path d="M11495.8,7137.83c96.58,0 214.846,-88.975 214.846,-181.196c0,-55.35 -43.404,-90.07 -105.246,-90.07c-119.354,-0 -214.841,87.9 -214.841,181.216c-0,56.421 46.65,90.05 105.241,90.05" style="fill-rule:nonzero;"/></g><g><path d="M12587.7,7068.38c11.925,-37.967 52.083,-43.4 85.708,-43.4c74.88,0 134.55,80.296 134.55,145.4c0,33.642 -14.095,64.025 -49.912,72.704c-10.85,3.25 -22.779,4.342 -33.629,4.342c-39.063,-0 -79.217,-26.042 -101.996,-56.425c-21.7,-24.963 -37.988,-61.854 -37.988,-96.579c0,-8.679 1.096,-17.359 3.267,-26.042m113.921,-67.271c-144.304,0 -234.375,59.684 -234.375,133.471c-0,72.692 61.858,137.796 223.525,137.796c177.95,-0 234.375,-61.842 234.375,-137.796c-0,-77.05 -122.604,-133.471 -223.525,-133.471" style="fill-rule:nonzero;"/></g><g><path d="M565.288,5910.62c3.246,20.608 3.246,19.529 -16.287,26.042c-95.484,32.55 -157.325,118.262 -157.325,210.504c-0,97.654 50.987,167.1 124.775,192.046c8.679,3.266 21.7,6.512 29.304,6.512c8.679,0 13.021,-5.417 13.021,-11.929c-0,-7.604 -8.68,-10.85 -16.284,-14.113c-45.575,-19.533 -78.125,-66.179 -78.125,-116.095c0,-61.855 42.325,-108.505 108.504,-126.959c17.363,-4.341 19.534,-3.25 21.705,8.68l54.254,323.35c2.166,11.945 1.091,11.945 -15.192,15.191c-17.362,3.263 -39.062,5.434 -60.767,5.434c-189.875,-0.001 -312.5,-105.259 -312.5,-256.076c0,-64.029 10.855,-149.741 100.921,-251.737c65.104,-72.708 115.017,-112.846 166.009,-154.079c10.85,-8.679 13.02,-7.604 15.191,4.341l22.796,138.888m118.263,-738.942c35.816,0 65.104,29.304 65.104,88.975c-0,120.454 -103.075,218.109 -188.804,292.971c-7.584,6.508 -11.925,5.434 -14.096,-8.683c-4.342,-28.209 -6.509,-65.104 -6.509,-99.825c0,-169.271 78.125,-273.438 144.305,-273.438m-43.405,911.459c-2.17,-13.021 -1.075,-16.267 11.946,-15.192c87.884,7.604 160.592,81.392 160.592,176.875c-0,68.35 -41.233,123.7 -102,154.079c-13.021,6.513 -15.188,6.513 -17.358,-6.508l-53.18,-309.254m-58.591,-338.542c-2.171,-13.021 -0,-14.096 6.508,-20.608c117.188,-109.6 206.163,-247.396 206.163,-413.421c-0,-94.392 -26.042,-187.708 -70.521,-252.813c-16.284,-23.87 -44.496,-54.254 -56.421,-54.254c-15.192,0 -48.838,28.213 -70.538,52.084c-80.295,88.979 -106.337,224.604 -106.337,337.45c-0,62.933 7.604,133.47 15.192,177.95c2.166,13.02 3.262,15.191 -9.759,26.041c-156.25,129.134 -322.275,284.288 -322.275,503.475c0,188.8 129.134,367.846 394.967,367.846c24.962,0 53.175,-2.171 74.879,-6.512c11.925,-2.167 14.096,-3.263 16.267,9.758c13.021,72.708 29.304,167.1 29.304,218.108c-0,160.592 -108.508,180.121 -172.533,180.121c-58.596,0 -86.809,-17.362 -86.809,-31.475c0,-7.587 9.775,-10.85 34.725,-18.437c33.646,-9.775 72.709,-39.063 72.709,-101.996c-0,-59.688 -37.988,-110.679 -104.167,-110.679c-72.708,-0 -116.113,57.5 -116.113,124.775c0,70.537 42.325,176.875 206.163,176.875c72.708,-0 213.767,-32.55 213.767,-217.013c-0,-61.858 -19.53,-164.933 -31.475,-232.204c-2.171,-13.021 -1.075,-11.946 14.116,-18.454c109.584,-43.404 182.292,-135.63 182.292,-258.25c-0,-138.888 -101.996,-261.492 -261.513,-261.492c-28.212,0 -28.212,0 -31.458,-19.533l-27.133,-157.342" style="fill-rule:nonzero;"/></g><g><path d="M1506.59,6266.79l0,-136.388l1647.14,269.096l-0,136.388l-1647.14,-269.096" style="fill-rule:nonzero;"/></g><g><path d="M1506.59,6062.17l0,-136.388l1647.14,269.096l-0,136.388l-1647.14,-269.096" style="fill-rule:nonzero;"/></g><g><path d="M3880.16,6734.58l0,-135.137l2171.23,201.821l0,135.141l-2171.23,-201.825" style="fill-rule:nonzero;"/></g><g><path d="M3880.16,6531.88l0,-135.137l2171.23,201.82l0,135.138l-2171.23,-201.821" style="fill-rule:nonzero;"/></g><g><path d="M6845.15,5452.08l0,-136.387l1647.14,269.096l-0,136.387l-1647.14,-269.096" style="fill-rule:nonzero;"/></g><g><path d="M6845.15,5656.71l0,-136.404l1647.14,269.096l-0,136.408l-1647.14,-269.1" style="fill-rule:nonzero;"/></g><g><path d="M9218.69,5993.04l0,-134.617l2491.86,67.275l0,134.617l-2491.86,-67.275" style="fill-rule:nonzero;"/></g><g><path d="M9218.69,6194.92l0,-134.6l2491.86,67.275l0,134.6l-2491.86,-67.275" style="fill-rule:nonzero;"/></g></g></svg>