<?xml version="1.0" encoding="UTF-8" standalone="no"?><!DOCTYPE svg PUBLIC "-//W3C//DTD SVG 1.1//EN" "http://www.w3.org/Graphics/SVG/1.1/DTD/svg11.dtd"><svg width="100%" height="100%" viewBox="0 0 1913 375" version="1.1" xmlns="http://www.w3.org/2000/svg" xmlns:xlink="http://www.w3.org/1999/xlink" xml:space="preserve" xmlns:serif="http://www.serif.com/" style="fill-rule:evenodd;clip-rule:evenodd;stroke-miterlimit:2;"><g><g><path d="M131.25,202.75l1650,0" style="fill:none;stroke:#000;stroke-width:2.02px;"/><path d="M131.25,156.25l1650,0" style="fill:none;stroke:#000;stroke-width:2.02px;"/><path d="M131.25,171.75l1650,0" style="fill:none;stroke:#000;stroke-width:2.02px;"/><path d="M131.25,187.25l1650,0" style="fill:none;stroke:#000;stroke-width:2.02px;"/><path d="M131.25,218.25l1650,0" style="fill:none;stroke:#000;stroke-width:2.02px;"/></g><g><path d="M657.466,155.244l-0,64.012" style="fill:none;stroke:#000;stroke-width:2.48px;"/><path d="M1123.61,155.244l-0,64.012" style="fill:none;stroke:#000;stroke-width:2.48px;"/><path d="M1589.84,155.244l-0,64.012" style="fill:none;stroke:#000;stroke-width:2.48px;"/><path d="M1771.33,155.244l0,64.012" style="fill:none;stroke:#000;stroke-width:2.48px;"/><path d="M1780.01,155.244l0,64.012" style="fill:none;stroke:#000;stroke-width:2.48px;"/></g><g><path d="M233.297,187.197l-0,67.2" style="fill:none;stroke:#000;stroke-width:1.86px;"/></g><g><path d="M209.594,249.25l30.833,0" style="fill:none;stroke:#000;stroke-width:2.48px;"/><path d="M209.594,233.75l30.833,0" style="fill:none;stroke:#000;stroke-width:2.48px;"/></g><g><path d="M288.354,180.738l0,58.159" style="fill:none;stroke:#000;stroke-width:1.86px;"/></g><g><path d="M264.652,233.75l30.832,0" style="fill:none;stroke:#000;stroke-width:2.48px;"/></g><g><path d="M343.381,174.281l0,56.866" style="fill:none;stroke:#000;stroke-width:1.86px;"/></g><g><path d="M323.297,233.75l27.216,0" style="fill:none;stroke:#000;stroke-width:2.48px;"/></g><g><path d="M398.441,167.822l-0,40.075" style="fill:none;stroke:#000;stroke-width:1.86px;"/><path d="M436.925,205.353l0,40.097" style="fill:none;stroke:#000;stroke-width:1.86px;"/><path d="M491.984,189.853l0,47.847" style="fill:none;stroke:#000;stroke-width:1.86px;"/><path d="M547.041,182.103l-0,47.847" style="fill:none;stroke:#000;stroke-width:1.86px;"/><path d="M602.1,158.853l0,63.347" style="fill:none;stroke:#000;stroke-width:1.86px;"/><path d="M682.919,151.103l-0,55.597" style="fill:none;stroke:#000;stroke-width:1.86px;"/><path d="M737.975,135.603l0,63.347" style="fill:none;stroke:#000;stroke-width:1.86px;"/></g><g><path d="M730.847,140.75l30.831,0" style="fill:none;stroke:#000;stroke-width:2.48px;"/></g><g><path d="M793.003,127.853l0,63.35" style="fill:none;stroke:#000;stroke-width:1.86px;"/></g><g><path d="M789.491,125.25l27.215,0" style="fill:none;stroke:#000;stroke-width:2.48px;"/><path d="M789.75,140.75l26.956,0" style="fill:none;stroke:#000;stroke-width:2.48px;"/></g><g><path d="M848.063,104.603l-0,78.847" style="fill:none;stroke:#000;stroke-width:1.86px;"/></g><g><path d="M840.931,109.75l30.835,0" style="fill:none;stroke:#000;stroke-width:2.48px;"/><path d="M840.931,125.25l30.835,0" style="fill:none;stroke:#000;stroke-width:2.48px;"/><path d="M840.931,140.75l30.835,0" style="fill:none;stroke:#000;stroke-width:2.48px;"/></g><g><path d="M903.119,104.603l-0,78.847" style="fill:none;stroke:#000;stroke-width:1.86px;"/></g><g><path d="M895.991,109.75l30.831,0" style="fill:none;stroke:#000;stroke-width:2.48px;"/><path d="M895.991,125.25l30.831,0" style="fill:none;stroke:#000;stroke-width:2.48px;"/><path d="M895.991,140.75l30.831,0" style="fill:none;stroke:#000;stroke-width:2.48px;"/></g><g><path d="M958.178,127.853l0,63.347" style="fill:none;stroke:#000;stroke-width:1.86px;"/></g><g><path d="M951.047,125.25l30.834,0" style="fill:none;stroke:#000;stroke-width:2.48px;"/><path d="M951.047,140.75l30.834,0" style="fill:none;stroke:#000;stroke-width:2.48px;"/></g><g><path d="M1013.23,135.603l0,63.347" style="fill:none;stroke:#000;stroke-width:1.86px;"/></g><g><path d="M1006.11,140.75l30.832,0" style="fill:none;stroke:#000;stroke-width:2.48px;"/></g><g><path d="M1068.29,151.103l-0,55.597" style="fill:none;stroke:#000;stroke-width:1.86px;"/><path d="M1149.06,158.853l-0,63.347" style="fill:none;stroke:#000;stroke-width:1.86px;"/><path d="M1204.12,182.103l-0,47.847" style="fill:none;stroke:#000;stroke-width:1.86px;"/><path d="M1259.18,189.853l0,47.847" style="fill:none;stroke:#000;stroke-width:1.86px;"/><path d="M1314.24,205.353l-0,40.097" style="fill:none;stroke:#000;stroke-width:1.86px;"/><path d="M1385.87,167.822l-0,40.075" style="fill:none;stroke:#000;stroke-width:1.86px;"/><path d="M1440.92,174.281l0,56.866" style="fill:none;stroke:#000;stroke-width:1.86px;"/></g><g><path d="M1420.84,233.75l27.215,0" style="fill:none;stroke:#000;stroke-width:2.48px;"/></g><g><path d="M1495.98,180.738l0,58.159" style="fill:none;stroke:#000;stroke-width:1.86px;"/></g><g><path d="M1472.28,233.75l30.832,0" style="fill:none;stroke:#000;stroke-width:2.48px;"/></g><g><path d="M1551.04,187.197l-0,67.2" style="fill:none;stroke:#000;stroke-width:1.86px;"/></g><g><path d="M1527.34,249.25l30.834,0" style="fill:none;stroke:#000;stroke-width:2.48px;"/><path d="M1527.34,233.75l30.834,0" style="fill:none;stroke:#000;stroke-width:2.48px;"/><path d="M1608.16,249.25l38.766,0" style="fill:none;stroke:#000;stroke-width:2.48px;"/><path d="M1608.16,233.75l38.766,0" style="fill:none;stroke:#000;stroke-width:2.48px;"/></g><g><path d="M221.428,132.188c-0,-0 -0.063,0.25 -0.063,0.437c0,0.25 0.25,0.5 0.5,0.5c0.188,0 0.313,-0.188 0.375,-0.25c0.063,-0.188 0.813,-2.75 1.188,-3.375c0.125,-0.25 0.25,-0.313 0.312,-0.313c0.125,0 0.188,0.25 0.188,0.438l-0,8.938c-0,0.75 -0.625,1.187 -1.25,1.187c-0.25,0 -0.563,0.125 -0.563,0.5c0,0.375 0.313,0.5 0.813,0.5l5.25,0c0.5,0 0.5,-0.5 0.5,-0.5c-0,0 -0,-0.5 -0.5,-0.5c-0.438,0 -1,-0.563 -1,-1.125l-0,-13c-0,-0.5 -0.188,-0.75 -0.625,-0.75c-0.438,0 -0.813,0.125 -1.188,0.125c-0.625,0 -0.75,0 -1.25,-0.125c-0.25,0 -0.562,0.375 -0.75,0.625l-1.937,6.688" style="fill-rule:nonzero;"/></g><g><path d="M283.395,135.125l-0,-6.687c-0,-0.313 -0.063,-0.563 -0.375,-0.563c-0.25,0 -0.438,0.063 -0.625,0.313l-1.875,3.625c-0.125,0.125 -0.313,0.312 -0.313,0.75l0,2.562l-4.062,0c2.562,-2.125 6.562,-9.187 6.625,-9.562c-0,-0.063 0.062,-0.125 0.062,-0.188c0,-0.25 -0.25,-0.437 -0.437,-0.437c-0.313,-0 -1.625,0.125 -2.188,0.125c-0.562,-0 -0.937,-0.125 -1.187,-0.125c-0.313,-0 -0.75,0.125 -0.75,0.625c-0,4 -3.25,8.562 -4.063,9.687c-0.125,0.125 -0.25,0.313 -0.25,0.5c0,0.313 0.25,0.625 0.625,0.625l5.625,0l0,1.938c0,0.875 -0.5,1.125 -1,1.125c-0.562,-0 -0.812,0.25 -0.812,0.562c-0,0.313 0.125,0.688 0.687,0.688l5.375,-0c0.313,-0 0.625,-0.25 0.625,-0.688c0,-0.437 -0.375,-0.625 -0.687,-0.625c-0.313,0 -1,-0.187 -1,-1.187l-0,-1.813l2.312,0c0.313,0 0.5,-0.25 0.5,-0.625c0,-0.375 -0.125,-0.625 -0.5,-0.625l-2.312,0" style="fill-rule:nonzero;"/></g><g><path d="M331.513,132.188c-0,-0 -0.063,0.25 -0.063,0.437c0,0.25 0.25,0.5 0.5,0.5c0.188,0 0.313,-0.188 0.375,-0.25c0.063,-0.188 0.813,-2.75 1.188,-3.375c0.125,-0.25 0.25,-0.313 0.312,-0.313c0.125,0 0.188,0.25 0.188,0.438l-0,8.938c-0,0.75 -0.625,1.187 -1.25,1.187c-0.25,0 -0.563,0.125 -0.563,0.5c0,0.375 0.313,0.5 0.813,0.5l5.25,0c0.5,0 0.5,-0.5 0.5,-0.5c-0,0 -0,-0.5 -0.5,-0.5c-0.438,0 -1,-0.563 -1,-1.125l-0,-13c-0,-0.5 -0.188,-0.75 -0.625,-0.75c-0.438,0 -0.813,0.125 -1.188,0.125c-0.625,0 -0.75,0 -1.25,-0.125c-0.25,0 -0.562,0.375 -0.75,0.625l-1.937,6.688" style="fill-rule:nonzero;"/></g><g><path d="M393.481,135.125l0,-6.687c0,-0.313 -0.062,-0.563 -0.375,-0.563c-0.25,0 -0.437,0.063 -0.625,0.313l-1.875,3.625c-0.125,0.125 -0.312,0.312 -0.312,0.75l-0,2.562l-4.063,0c2.563,-2.125 6.563,-9.187 6.625,-9.562c0,-0.063 0.063,-0.125 0.063,-0.188c-0,-0.25 -0.25,-0.437 -0.438,-0.437c-0.312,-0 -1.625,0.125 -2.187,0.125c-0.563,-0 -0.938,-0.125 -1.188,-0.125c-0.312,-0 -0.75,0.125 -0.75,0.625c0,4 -3.25,8.562 -4.062,9.687c-0.125,0.125 -0.25,0.313 -0.25,0.5c-0,0.313 0.25,0.625 0.625,0.625l5.625,0l-0,1.938c-0,0.875 -0.5,1.125 -1,1.125c-0.563,-0 -0.813,0.25 -0.813,0.562c0,0.313 0.125,0.688 0.688,0.688l5.375,-0c0.312,-0 0.625,-0.25 0.625,-0.688c-0,-0.437 -0.375,-0.625 -0.688,-0.625c-0.312,0 -1,-0.187 -1,-1.187l0,-1.813l2.313,0c0.312,0 0.5,-0.25 0.5,-0.625c-0,-0.375 -0.125,-0.625 -0.5,-0.625l-2.313,0" style="fill-rule:nonzero;"/></g><g><path d="M441.628,132.188c0,-0 -0.062,0.25 -0.062,0.437c-0,0.25 0.25,0.5 0.5,0.5c0.187,0 0.312,-0.188 0.375,-0.25c0.062,-0.188 0.812,-2.75 1.187,-3.375c0.125,-0.25 0.25,-0.313 0.313,-0.313c0.125,0 0.187,0.25 0.187,0.438l0,8.938c0,0.75 -0.625,1.187 -1.25,1.187c-0.25,0 -0.562,0.125 -0.562,0.5c-0,0.375 0.312,0.5 0.812,0.5l5.25,0c0.5,0 0.5,-0.5 0.5,-0.5c0,0 0,-0.5 -0.5,-0.5c-0.437,0 -1,-0.563 -1,-1.125l0,-13c0,-0.5 -0.187,-0.75 -0.625,-0.75c-0.437,0 -0.812,0.125 -1.187,0.125c-0.625,0 -0.75,0 -1.25,-0.125c-0.25,0 -0.563,0.375 -0.75,0.625l-1.938,6.688" style="fill-rule:nonzero;"/></g><g><path d="M503.597,135.125l-0,-6.687c-0,-0.313 -0.063,-0.563 -0.375,-0.563c-0.25,0 -0.438,0.063 -0.625,0.313l-1.875,3.625c-0.125,0.125 -0.313,0.312 -0.313,0.75l0,2.562l-4.062,0c2.562,-2.125 6.562,-9.187 6.625,-9.562c-0,-0.063 0.062,-0.125 0.062,-0.188c0,-0.25 -0.25,-0.437 -0.437,-0.437c-0.313,-0 -1.625,0.125 -2.188,0.125c-0.562,-0 -0.937,-0.125 -1.187,-0.125c-0.313,-0 -0.75,0.125 -0.75,0.625c-0,4 -3.25,8.562 -4.063,9.687c-0.125,0.125 -0.25,0.313 -0.25,0.5c0,0.313 0.25,0.625 0.625,0.625l5.625,0l0,1.938c0,0.875 -0.5,1.125 -1,1.125c-0.562,-0 -0.812,0.25 -0.812,0.562c-0,0.313 0.125,0.688 0.687,0.688l5.375,-0c0.313,-0 0.625,-0.25 0.625,-0.688c0,-0.437 -0.375,-0.625 -0.687,-0.625c-0.313,0 -1,-0.187 -1,-1.187l-0,-1.813l2.312,0c0.313,0 0.5,-0.25 0.5,-0.625c0,-0.375 -0.125,-0.625 -0.5,-0.625l-2.312,0" style="fill-rule:nonzero;"/></g><g><path d="M551.744,132.188c-0,-0 -0.063,0.25 -0.063,0.437c0,0.25 0.25,0.5 0.5,0.5c0.188,0 0.313,-0.188 0.375,-0.25c0.063,-0.188 0.813,-2.75 1.188,-3.375c0.125,-0.25 0.25,-0.313 0.312,-0.313c0.125,0 0.188,0.25 0.188,0.438l-0,8.938c-0,0.75 -0.625,1.187 -1.25,1.187c-0.25,0 -0.563,0.125 -0.563,0.5c0,0.375 0.313,0.5 0.813,0.5l5.25,0c0.5,0 0.5,-0.5 0.5,-0.5c-0,0 -0,-0.5 -0.5,-0.5c-0.438,0 -1,-0.563 -1,-1.125l-0,-13c-0,-0.5 -0.188,-0.75 -0.625,-0.75c-0.438,0 -0.813,0.125 -1.188,0.125c-0.625,0 -0.75,0 -1.25,-0.125c-0.25,0 -0.562,0.375 -0.75,0.625l-1.937,6.688" style="fill-rule:nonzero;"/></g><g><path d="M613.713,135.111l-0,-6.687c-0,-0.313 -0.063,-0.563 -0.375,-0.563c-0.25,0 -0.438,0.063 -0.625,0.313l-1.875,3.625c-0.125,0.125 -0.313,0.312 -0.313,0.75l0,2.562l-4.062,0c2.562,-2.125 6.562,-9.187 6.625,-9.562c-0,-0.063 0.062,-0.125 0.062,-0.188c0,-0.25 -0.25,-0.437 -0.437,-0.437c-0.313,-0 -1.625,0.125 -2.188,0.125c-0.562,-0 -0.937,-0.125 -1.187,-0.125c-0.313,-0 -0.75,0.125 -0.75,0.625c-0,4 -3.25,8.562 -4.063,9.687c-0.125,0.125 -0.25,0.313 -0.25,0.5c0,0.313 0.25,0.625 0.625,0.625l5.625,0l0,1.938c0,0.875 -0.5,1.125 -1,1.125c-0.562,-0 -0.812,0.25 -0.812,0.562c-0,0.313 0.125,0.688 0.687,0.688l5.375,-0c0.313,-0 0.625,-0.25 0.625,-0.688c0,-0.437 -0.375,-0.625 -0.687,-0.625c-0.313,0 -1,-0.187 -1,-1.187l-0,-1.813l2.312,0c0.313,0 0.5,-0.25 0.5,-0.625c0,-0.375 -0.125,-0.625 -0.5,-0.625l-2.312,0" style="fill-rule:nonzero;"/></g><g><path d="M687.622,124.375c-0,0 -0.063,0.25 -0.063,0.438c0,0.25 0.25,0.5 0.5,0.5c0.188,-0 0.313,-0.188 0.375,-0.25c0.063,-0.188 0.813,-2.75 1.188,-3.375c0.125,-0.25 0.25,-0.313 0.312,-0.313c0.125,0 0.188,0.25 0.188,0.438l-0,8.937c-0,0.75 -0.625,1.188 -1.25,1.188c-0.25,-0 -0.563,0.125 -0.563,0.5c0,0.375 0.313,0.5 0.813,0.5l5.25,-0c0.5,-0 0.5,-0.5 0.5,-0.5c-0,-0 -0,-0.5 -0.5,-0.5c-0.438,-0 -1,-0.563 -1,-1.125l-0,-13c-0,-0.5 -0.188,-0.75 -0.625,-0.75c-0.438,-0 -0.813,0.125 -1.188,0.125c-0.625,-0 -0.75,-0 -1.25,-0.125c-0.25,-0 -0.562,0.375 -0.75,0.625l-1.937,6.687" style="fill-rule:nonzero;"/></g><g><path d="M749.588,111.861l-0,-6.687c-0,-0.313 -0.063,-0.563 -0.375,-0.563c-0.25,0 -0.438,0.063 -0.625,0.313l-1.875,3.625c-0.125,0.125 -0.313,0.312 -0.313,0.75l0,2.562l-4.062,0c2.562,-2.125 6.562,-9.187 6.625,-9.562c-0,-0.063 0.062,-0.125 0.062,-0.188c0,-0.25 -0.25,-0.437 -0.437,-0.437c-0.313,-0 -1.625,0.125 -2.188,0.125c-0.562,-0 -0.937,-0.125 -1.187,-0.125c-0.313,-0 -0.75,0.125 -0.75,0.625c-0,4 -3.25,8.562 -4.063,9.687c-0.125,0.125 -0.25,0.313 -0.25,0.5c0,0.313 0.25,0.625 0.625,0.625l5.625,0l0,1.938c0,0.875 -0.5,1.125 -1,1.125c-0.562,-0 -0.812,0.25 -0.812,0.562c-0,0.313 0.125,0.688 0.687,0.688l5.375,-0c0.313,-0 0.625,-0.25 0.625,-0.688c0,-0.437 -0.375,-0.625 -0.687,-0.625c-0.313,0 -1,-0.187 -1,-1.187l-0,-1.813l2.312,0c0.313,0 0.5,-0.25 0.5,-0.625c0,-0.375 -0.125,-0.625 -0.5,-0.625l-2.312,0" style="fill-rule:nonzero;"/></g><g><path d="M797.706,101.125c0,0 -0.062,0.25 -0.062,0.438c-0,0.25 0.25,0.5 0.5,0.5c0.187,-0 0.312,-0.188 0.375,-0.25c0.062,-0.188 0.812,-2.75 1.187,-3.375c0.125,-0.25 0.25,-0.313 0.313,-0.313c0.125,0 0.187,0.25 0.187,0.438l0,8.937c0,0.75 -0.625,1.188 -1.25,1.188c-0.25,-0 -0.562,0.125 -0.562,0.5c-0,0.375 0.312,0.5 0.812,0.5l5.25,-0c0.5,-0 0.5,-0.5 0.5,-0.5c0,-0 0,-0.5 -0.5,-0.5c-0.437,-0 -1,-0.563 -1,-1.125l0,-13c0,-0.5 -0.187,-0.75 -0.625,-0.75c-0.437,-0 -0.812,0.125 -1.187,0.125c-0.625,-0 -0.75,-0 -1.25,-0.125c-0.25,-0 -0.563,0.375 -0.75,0.625l-1.938,6.687" style="fill-rule:nonzero;"/></g><g><path d="M859.675,80.861l0,-6.687c0,-0.313 -0.062,-0.563 -0.375,-0.563c-0.25,0 -0.437,0.063 -0.625,0.313l-1.875,3.625c-0.125,0.125 -0.312,0.312 -0.312,0.75l-0,2.562l-4.063,0c2.563,-2.125 6.563,-9.187 6.625,-9.562c0,-0.063 0.063,-0.125 0.063,-0.188c-0,-0.25 -0.25,-0.437 -0.438,-0.437c-0.312,-0 -1.625,0.125 -2.187,0.125c-0.563,-0 -0.938,-0.125 -1.188,-0.125c-0.312,-0 -0.75,0.125 -0.75,0.625c0,4 -3.25,8.562 -4.062,9.687c-0.125,0.125 -0.25,0.313 -0.25,0.5c-0,0.313 0.25,0.625 0.625,0.625l5.625,0l-0,1.938c-0,0.875 -0.5,1.125 -1,1.125c-0.563,-0 -0.813,0.25 -0.813,0.562c0,0.313 0.125,0.688 0.688,0.688l5.375,-0c0.312,-0 0.625,-0.25 0.625,-0.688c-0,-0.437 -0.375,-0.625 -0.688,-0.625c-0.312,0 -1,-0.187 -1,-1.187l0,-1.813l2.313,0c0.312,0 0.5,-0.25 0.5,-0.625c-0,-0.375 -0.125,-0.625 -0.5,-0.625l-2.313,0" style="fill-rule:nonzero;"/></g><g><path d="M914.731,80.861l0,-6.687c0,-0.313 -0.062,-0.563 -0.375,-0.563c-0.25,0 -0.437,0.063 -0.625,0.313l-1.875,3.625c-0.125,0.125 -0.312,0.312 -0.312,0.75l-0,2.562l-4.063,0c2.563,-2.125 6.563,-9.187 6.625,-9.562c0,-0.063 0.063,-0.125 0.063,-0.188c-0,-0.25 -0.25,-0.437 -0.438,-0.437c-0.312,-0 -1.625,0.125 -2.187,0.125c-0.563,-0 -0.938,-0.125 -1.188,-0.125c-0.312,-0 -0.75,0.125 -0.75,0.625c0,4 -3.25,8.562 -4.062,9.687c-0.125,0.125 -0.25,0.313 -0.25,0.5c-0,0.313 0.25,0.625 0.625,0.625l5.625,0l-0,1.938c-0,0.875 -0.5,1.125 -1,1.125c-0.563,-0 -0.813,0.25 -0.813,0.562c0,0.313 0.125,0.688 0.688,0.688l5.375,-0c0.312,-0 0.625,-0.25 0.625,-0.688c-0,-0.437 -0.375,-0.625 -0.688,-0.625c-0.312,0 -1,-0.187 -1,-1.187l0,-1.813l2.313,0c0.312,0 0.5,-0.25 0.5,-0.625c-0,-0.375 -0.125,-0.625 -0.5,-0.625l-2.313,0" style="fill-rule:nonzero;"/></g><g><path d="M962.881,101.125c0,0 -0.062,0.25 -0.062,0.438c-0,0.25 0.25,0.5 0.5,0.5c0.187,-0 0.312,-0.188 0.375,-0.25c0.062,-0.188 0.812,-2.75 1.187,-3.375c0.125,-0.25 0.25,-0.313 0.313,-0.313c0.125,0 0.187,0.25 0.187,0.438l0,8.937c0,0.75 -0.625,1.188 -1.25,1.188c-0.25,-0 -0.562,0.125 -0.562,0.5c-0,0.375 0.312,0.5 0.812,0.5l5.25,-0c0.5,-0 0.5,-0.5 0.5,-0.5c0,-0 0,-0.5 -0.5,-0.5c-0.437,-0 -1,-0.563 -1,-1.125l0,-13c0,-0.5 -0.187,-0.75 -0.625,-0.75c-0.437,-0 -0.812,0.125 -1.187,0.125c-0.625,-0 -0.75,-0 -1.25,-0.125c-0.25,-0 -0.563,0.375 -0.75,0.625l-1.938,6.687" style="fill-rule:nonzero;"/></g><g><path d="M1024.85,111.861l-0,-6.687c-0,-0.313 -0.063,-0.563 -0.375,-0.563c-0.25,0 -0.438,0.063 -0.625,0.313l-1.875,3.625c-0.125,0.125 -0.313,0.312 -0.313,0.75l0,2.562l-4.062,0c2.562,-2.125 6.562,-9.187 6.625,-9.562c-0,-0.063 0.062,-0.125 0.062,-0.188c0,-0.25 -0.25,-0.437 -0.437,-0.437c-0.313,-0 -1.625,0.125 -2.188,0.125c-0.562,-0 -0.937,-0.125 -1.187,-0.125c-0.313,-0 -0.75,0.125 -0.75,0.625c-0,4 -3.25,8.562 -4.063,9.687c-0.125,0.125 -0.25,0.313 -0.25,0.5c0,0.313 0.25,0.625 0.625,0.625l5.625,0l0,1.938c0,0.875 -0.5,1.125 -1,1.125c-0.562,-0 -0.812,0.25 -0.812,0.562c-0,0.313 0.125,0.688 0.687,0.688l5.375,-0c0.313,-0 0.625,-0.25 0.625,-0.688c0,-0.437 -0.375,-0.625 -0.687,-0.625c-0.313,0 -1,-0.187 -1,-1.187l-0,-1.813l2.312,0c0.313,0 0.5,-0.25 0.5,-0.625c0,-0.375 -0.125,-0.625 -0.5,-0.625l-2.312,0" style="fill-rule:nonzero;"/></g><g><path d="M1073,124.375c-0,0 -0.063,0.25 -0.063,0.438c0,0.25 0.25,0.5 0.5,0.5c0.188,-0 0.313,-0.188 0.375,-0.25c0.063,-0.188 0.813,-2.75 1.188,-3.375c0.125,-0.25 0.25,-0.313 0.312,-0.313c0.125,0 0.188,0.25 0.188,0.438l-0,8.937c-0,0.75 -0.625,1.188 -1.25,1.188c-0.25,-0 -0.563,0.125 -0.563,0.5c0,0.375 0.313,0.5 0.813,0.5l5.25,-0c0.5,-0 0.5,-0.5 0.5,-0.5c-0,-0 -0,-0.5 -0.5,-0.5c-0.438,-0 -1,-0.563 -1,-1.125l-0,-13c-0,-0.5 -0.188,-0.75 -0.625,-0.75c-0.438,-0 -0.813,0.125 -1.188,0.125c-0.625,-0 -0.75,-0 -1.25,-0.125c-0.25,-0 -0.562,0.375 -0.75,0.625l-1.937,6.687" style="fill-rule:nonzero;"/></g><g><path d="M1160.67,135.111l0,-6.687c0,-0.313 -0.062,-0.563 -0.375,-0.563c-0.25,0 -0.437,0.063 -0.625,0.313l-1.875,3.625c-0.125,0.125 -0.312,0.312 -0.312,0.75l-0,2.562l-4.063,0c2.563,-2.125 6.563,-9.187 6.625,-9.562c0,-0.063 0.063,-0.125 0.063,-0.188c-0,-0.25 -0.25,-0.437 -0.438,-0.437c-0.312,-0 -1.625,0.125 -2.187,0.125c-0.563,-0 -0.938,-0.125 -1.188,-0.125c-0.312,-0 -0.75,0.125 -0.75,0.625c0,4 -3.25,8.562 -4.062,9.687c-0.125,0.125 -0.25,0.313 -0.25,0.5c-0,0.313 0.25,0.625 0.625,0.625l5.625,0l-0,1.938c-0,0.875 -0.5,1.125 -1,1.125c-0.563,-0 -0.813,0.25 -0.813,0.562c0,0.313 0.125,0.688 0.688,0.688l5.375,-0c0.312,-0 0.625,-0.25 0.625,-0.688c-0,-0.437 -0.375,-0.625 -0.688,-0.625c-0.312,0 -1,-0.187 -1,-1.187l0,-1.813l2.313,0c0.312,0 0.5,-0.25 0.5,-0.625c-0,-0.375 -0.125,-0.625 -0.5,-0.625l-2.313,0" style="fill-rule:nonzero;"/></g><g><path d="M1208.83,132.188c0,-0 -0.062,0.25 -0.062,0.437c-0,0.25 0.25,0.5 0.5,0.5c0.187,0 0.312,-0.188 0.375,-0.25c0.062,-0.188 0.812,-2.75 1.187,-3.375c0.125,-0.25 0.25,-0.313 0.313,-0.313c0.125,0 0.187,0.25 0.187,0.438l0,8.938c0,0.75 -0.625,1.187 -1.25,1.187c-0.25,0 -0.562,0.125 -0.562,0.5c-0,0.375 0.312,0.5 0.812,0.5l5.25,0c0.5,0 0.5,-0.5 0.5,-0.5c0,0 0,-0.5 -0.5,-0.5c-0.437,0 -1,-0.563 -1,-1.125l0,-13c0,-0.5 -0.187,-0.75 -0.625,-0.75c-0.437,0 -0.812,0.125 -1.187,0.125c-0.625,0 -0.75,0 -1.25,-0.125c-0.25,0 -0.563,0.375 -0.75,0.625l-1.938,6.688" style="fill-rule:nonzero;"/></g><g><path d="M1270.79,135.125l-0,-6.687c-0,-0.313 -0.063,-0.563 -0.375,-0.563c-0.25,0 -0.438,0.063 -0.625,0.313l-1.875,3.625c-0.125,0.125 -0.313,0.312 -0.313,0.75l0,2.562l-4.062,0c2.562,-2.125 6.562,-9.187 6.625,-9.562c-0,-0.063 0.062,-0.125 0.062,-0.188c0,-0.25 -0.25,-0.437 -0.437,-0.437c-0.313,-0 -1.625,0.125 -2.188,0.125c-0.562,-0 -0.937,-0.125 -1.187,-0.125c-0.313,-0 -0.75,0.125 -0.75,0.625c-0,4 -3.25,8.562 -4.063,9.687c-0.125,0.125 -0.25,0.313 -0.25,0.5c0,0.313 0.25,0.625 0.625,0.625l5.625,0l0,1.938c0,0.875 -0.5,1.125 -1,1.125c-0.562,-0 -0.812,0.25 -0.812,0.562c-0,0.313 0.125,0.688 0.687,0.688l5.375,-0c0.313,-0 0.625,-0.25 0.625,-0.688c0,-0.437 -0.375,-0.625 -0.687,-0.625c-0.313,0 -1,-0.187 -1,-1.187l-0,-1.813l2.312,0c0.313,0 0.5,-0.25 0.5,-0.625c0,-0.375 -0.125,-0.625 -0.5,-0.625l-2.312,0" style="fill-rule:nonzero;"/></g><g><path d="M1318.94,132.188c-0,-0 -0.063,0.25 -0.063,0.437c0,0.25 0.25,0.5 0.5,0.5c0.188,0 0.313,-0.188 0.375,-0.25c0.063,-0.188 0.813,-2.75 1.188,-3.375c0.125,-0.25 0.25,-0.313 0.312,-0.313c0.125,0 0.188,0.25 0.188,0.438l-0,8.938c-0,0.75 -0.625,1.187 -1.25,1.187c-0.25,0 -0.563,0.125 -0.563,0.5c0,0.375 0.313,0.5 0.813,0.5l5.25,0c0.5,0 0.5,-0.5 0.5,-0.5c-0,0 -0,-0.5 -0.5,-0.5c-0.438,0 -1,-0.563 -1,-1.125l-0,-13c-0,-0.5 -0.188,-0.75 -0.625,-0.75c-0.438,0 -0.813,0.125 -1.188,0.125c-0.625,0 -0.75,0 -1.25,-0.125c-0.25,0 -0.562,0.375 -0.75,0.625l-1.937,6.688" style="fill-rule:nonzero;"/></g><g><path d="M1380.91,135.125l0,-6.687c0,-0.313 -0.062,-0.563 -0.375,-0.563c-0.25,0 -0.437,0.063 -0.625,0.313l-1.875,3.625c-0.125,0.125 -0.312,0.312 -0.312,0.75l-0,2.562l-4.063,0c2.563,-2.125 6.563,-9.187 6.625,-9.562c0,-0.063 0.063,-0.125 0.063,-0.188c-0,-0.25 -0.25,-0.437 -0.438,-0.437c-0.312,-0 -1.625,0.125 -2.187,0.125c-0.563,-0 -0.938,-0.125 -1.188,-0.125c-0.312,-0 -0.75,0.125 -0.75,0.625c0,4 -3.25,8.562 -4.062,9.687c-0.125,0.125 -0.25,0.313 -0.25,0.5c-0,0.313 0.25,0.625 0.625,0.625l5.625,0l-0,1.938c-0,0.875 -0.5,1.125 -1,1.125c-0.563,-0 -0.813,0.25 -0.813,0.562c0,0.313 0.125,0.688 0.688,0.688l5.375,-0c0.312,-0 0.625,-0.25 0.625,-0.688c-0,-0.437 -0.375,-0.625 -0.688,-0.625c-0.312,0 -1,-0.187 -1,-1.187l0,-1.813l2.313,0c0.312,0 0.5,-0.25 0.5,-0.625c-0,-0.375 -0.125,-0.625 -0.5,-0.625l-2.313,0" style="fill-rule:nonzero;"/></g><g><path d="M1429.06,132.188c0,-0 -0.062,0.25 -0.062,0.437c-0,0.25 0.25,0.5 0.5,0.5c0.187,0 0.312,-0.188 0.375,-0.25c0.062,-0.188 0.812,-2.75 1.187,-3.375c0.125,-0.25 0.25,-0.313 0.313,-0.313c0.125,0 0.187,0.25 0.187,0.438l0,8.938c0,0.75 -0.625,1.187 -1.25,1.187c-0.25,0 -0.562,0.125 -0.562,0.5c-0,0.375 0.312,0.5 0.812,0.5l5.25,0c0.5,0 0.5,-0.5 0.5,-0.5c0,0 0,-0.5 -0.5,-0.5c-0.437,0 -1,-0.563 -1,-1.125l0,-13c0,-0.5 -0.187,-0.75 -0.625,-0.75c-0.437,0 -0.812,0.125 -1.187,0.125c-0.625,0 -0.75,0 -1.25,-0.125c-0.25,0 -0.563,0.375 -0.75,0.625l-1.938,6.688" style="fill-rule:nonzero;"/></g><g><path d="M1491.03,135.125l0,-6.687c0,-0.313 -0.062,-0.563 -0.375,-0.563c-0.25,0 -0.437,0.063 -0.625,0.313l-1.875,3.625c-0.125,0.125 -0.312,0.312 -0.312,0.75l-0,2.562l-4.063,0c2.563,-2.125 6.563,-9.187 6.625,-9.562c0,-0.063 0.063,-0.125 0.063,-0.188c-0,-0.25 -0.25,-0.437 -0.438,-0.437c-0.312,-0 -1.625,0.125 -2.187,0.125c-0.563,-0 -0.938,-0.125 -1.188,-0.125c-0.312,-0 -0.75,0.125 -0.75,0.625c0,4 -3.25,8.562 -4.062,9.687c-0.125,0.125 -0.25,0.313 -0.25,0.5c-0,0.313 0.25,0.625 0.625,0.625l5.625,0l-0,1.938c-0,0.875 -0.5,1.125 -1,1.125c-0.563,-0 -0.813,0.25 -0.813,0.562c0,0.313 0.125,0.688 0.688,0.688l5.375,-0c0.312,-0 0.625,-0.25 0.625,-0.688c-0,-0.437 -0.375,-0.625 -0.688,-0.625c-0.312,0 -1,-0.187 -1,-1.187l0,-1.813l2.313,0c0.312,0 0.5,-0.25 0.5,-0.625c-0,-0.375 -0.125,-0.625 -0.5,-0.625l-2.313,0" style="fill-rule:nonzero;"/></g><g><path d="M1539.17,132.188c-0,-0 -0.063,0.25 -0.063,0.437c0,0.25 0.25,0.5 0.5,0.5c0.188,0 0.313,-0.188 0.375,-0.25c0.063,-0.188 0.813,-2.75 1.188,-3.375c0.125,-0.25 0.25,-0.313 0.312,-0.313c0.125,0 0.188,0.25 0.188,0.438l-0,8.938c-0,0.75 -0.625,1.187 -1.25,1.187c-0.25,0 -0.563,0.125 -0.563,0.5c0,0.375 0.313,0.5 0.813,0.5l5.25,0c0.5,0 0.5,-0.5 0.5,-0.5c-0,0 -0,-0.5 -0.5,-0.5c-0.438,0 -1,-0.563 -1,-1.125l-0,-13c-0,-0.5 -0.188,-0.75 -0.625,-0.75c-0.438,0 -0.813,0.125 -1.188,0.125c-0.625,0 -0.75,0 -1.25,-0.125c-0.25,0 -0.562,0.375 -0.75,0.625l-1.937,6.688" style="fill-rule:nonzero;"/></g><g><path d="M1623.96,132.188c0,-0 -0.062,0.25 -0.062,0.437c-0,0.25 0.25,0.5 0.5,0.5c0.187,0 0.312,-0.188 0.375,-0.25c0.062,-0.188 0.812,-2.75 1.187,-3.375c0.125,-0.25 0.25,-0.313 0.313,-0.313c0.125,0 0.187,0.25 0.187,0.438l0,8.938c0,0.75 -0.625,1.187 -1.25,1.187c-0.25,0 -0.562,0.125 -0.562,0.5c-0,0.375 0.312,0.5 0.812,0.5l5.25,0c0.5,0 0.5,-0.5 0.5,-0.5c0,0 0,-0.5 -0.5,-0.5c-0.437,0 -1,-0.563 -1,-1.125l0,-13c0,-0.5 -0.187,-0.75 -0.625,-0.75c-0.437,0 -0.812,0.125 -1.187,0.125c-0.625,0 -0.75,0 -1.25,-0.125c-0.25,0 -0.563,0.375 -0.75,0.625l-1.938,6.688" style="fill-rule:nonzero;"/></g><g><path d="M225.015,270.667c8.188,-0 14.875,6.625 14.875,14.812c0,8.188 -6.687,14.875 -14.875,14.875c-8.187,0 -14.875,-6.687 -14.875,-14.875c0,-8.187 6.688,-14.812 14.875,-14.812m4.5,19.25c0,2.812 -1.875,4.687 -4.437,4.687c-2.563,0 -4.5,-2 -4.5,-4.812c-0,-2.75 1.875,-4.563 4.625,-4.563c2.625,0 4.312,1.75 4.312,4.688m2.813,-0.188c-0,-4.125 -2.813,-6.937 -6.813,-6.937c-2.187,-0 -3.875,0.875 -5.062,2.5c-0,-5.438 1.75,-8.438 4.937,-8.438c1.938,0 3.25,1.25 3.688,3.375l2.75,0c-0.5,-3.625 -2.875,-5.812 -6.25,-5.812c-5.188,-0 -7.938,4.375 -7.938,12.062c0,6.938 2.375,10.563 7.438,10.563c4.187,-0 7.25,-3 7.25,-7.313m-7.313,12.625c9.313,0 16.875,-7.562 16.875,-16.875c0,-9.312 -7.562,-16.812 -16.875,-16.812c-9.312,-0 -16.875,7.5 -16.875,16.812c0,9.313 7.563,16.875 16.875,16.875" style="fill-rule:nonzero;"/></g><g><path d="M335.1,261.333c8.188,0 14.875,6.625 14.875,14.813c0,8.187 -6.687,14.875 -14.875,14.875c-8.187,-0 -14.875,-6.688 -14.875,-14.875c0,-8.188 6.688,-14.813 14.875,-14.813m7.25,18.813c0,-4.375 -2.937,-7.25 -7.187,-7.25c-1.563,-0 -2.813,0.375 -4.063,1.312l0.875,-5.687l9.188,-0l-0,-2.75l-11.438,-0l-1.625,11.625l2.5,-0c1.313,-1.563 2.375,-2.063 4.063,-2.063c3,0 4.875,1.875 4.875,5.188c-0,3.187 -1.875,5 -4.875,5c-2.375,-0 -3.875,-1.25 -4.5,-3.75l-2.75,-0c0.875,4.437 3.375,6.187 7.312,6.187c4.5,0 7.625,-3.125 7.625,-7.812m-7.25,12.875c9.313,-0 16.875,-7.563 16.875,-16.875c0,-9.313 -7.562,-16.813 -16.875,-16.813c-9.312,0 -16.875,7.5 -16.875,16.813c0,9.312 7.563,16.875 16.875,16.875" style="fill-rule:nonzero;"/></g><g><path d="M439.044,274.521l6.937,-9.687l0,9.687l-6.937,0m6.187,-18.125c8.188,0 14.875,6.625 14.875,14.813c0,8.187 -6.687,14.875 -14.875,14.875c-8.187,-0 -14.875,-6.688 -14.875,-14.875c0,-8.188 6.688,-14.813 14.875,-14.813m6.75,18.125l-3.25,0l0,-14.375l-2.062,0l-10.063,13.938l0,2.937l9.375,0l0,5.313l2.75,-0l0,-5.313l3.25,0l0,-2.5m-6.75,13.563c9.313,-0 16.875,-7.563 16.875,-16.875c0,-9.313 -7.562,-16.813 -16.875,-16.813c-9.312,0 -16.875,7.5 -16.875,16.813c0,9.312 7.563,16.875 16.875,16.875" style="fill-rule:nonzero;"/></g><g><path d="M555.331,240.919c8.188,0 14.875,6.625 14.875,14.813c0,8.187 -6.687,14.875 -14.875,14.875c-8.187,-0 -14.875,-6.688 -14.875,-14.875c0,-8.188 6.688,-14.813 14.875,-14.813m0,31.688c9.313,-0 16.875,-7.563 16.875,-16.875c0,-9.313 -7.562,-16.813 -16.875,-16.813c-9.312,0 -16.875,7.5 -16.875,16.813c0,9.312 7.563,16.875 16.875,16.875m7.438,-12.313c-0,-2.687 -1.125,-4.25 -3.75,-5.187c2.062,-0.813 3.062,-2.25 3.062,-4.438c0,-3.812 -2.5,-6.125 -6.75,-6.125c-4.437,0 -6.812,2.438 -6.937,7.188l2.75,-0c0.062,-3.313 1.437,-4.75 4.25,-4.75c2.437,-0 3.875,1.437 3.875,3.75c-0,2.375 -1,3.375 -5.438,3.375l0,2.312l1.5,0c3.063,0 4.625,1.438 4.625,3.875c0,2.813 -1.75,4.438 -4.625,4.438c-3,-0 -4.437,-1.5 -4.625,-4.688l-2.75,0c0.313,4.938 2.75,7.125 7.313,7.125c4.562,0 7.5,-2.687 7.5,-6.875" style="fill-rule:nonzero;"/></g><g><path d="M691.209,224.104c8.188,0 14.875,6.625 14.875,14.813c0,8.187 -6.687,14.875 -14.875,14.875c-8.187,-0 -14.875,-6.688 -14.875,-14.875c0,-8.188 6.688,-14.813 14.875,-14.813m0,31.688c9.313,-0 16.875,-7.563 16.875,-16.875c0,-9.313 -7.562,-16.813 -16.875,-16.813c-9.312,0 -16.875,7.5 -16.875,16.813c0,9.312 7.563,16.875 16.875,16.875m7.438,-22.375c-0,-3.75 -2.875,-6.5 -7.063,-6.5c-4.562,-0 -7.187,2.312 -7.312,7.687l2.75,0c0.187,-3.687 1.75,-5.25 4.437,-5.25c2.5,0 4.375,1.75 4.375,4.125c0,1.75 -1,3.25 -3,4.375l-2.875,1.625c-4.625,2.625 -5.937,4.75 -6.187,9.625l14.75,0l-0,-2.75l-11.688,0c0.313,-1.812 1.313,-2.937 4,-4.562l3.125,-1.688c3.125,-1.625 4.688,-3.937 4.688,-6.687" style="fill-rule:nonzero;"/></g><g><path d="M801.294,224.104c8.187,0 14.875,6.625 14.875,14.813c-0,8.187 -6.688,14.875 -14.875,14.875c-8.188,-0 -14.875,-6.688 -14.875,-14.875c-0,-8.188 6.687,-14.813 14.875,-14.813m1.875,4.313l-1.813,-0c-0.937,3.437 -1.562,3.875 -5.812,4.437l-0,1.938l4.875,-0l-0,15.812l2.75,0l-0,-22.187m-1.875,27.375c9.312,-0 16.875,-7.563 16.875,-16.875c-0,-9.313 -7.563,-16.813 -16.875,-16.813c-9.313,0 -16.875,7.5 -16.875,16.813c-0,9.312 7.562,16.875 16.875,16.875" style="fill-rule:nonzero;"/></g><g><path d="M1021.52,224.104c8.188,0 14.875,6.625 14.875,14.813c0,8.187 -6.687,14.875 -14.875,14.875c-8.187,-0 -14.875,-6.688 -14.875,-14.875c0,-8.188 6.688,-14.813 14.875,-14.813m0,31.688c9.313,-0 16.875,-7.563 16.875,-16.875c0,-9.313 -7.562,-16.813 -16.875,-16.813c-9.312,0 -16.875,7.5 -16.875,16.813c0,9.312 7.563,16.875 16.875,16.875m7.438,-22.375c-0,-3.75 -2.875,-6.5 -7.063,-6.5c-4.563,-0 -7.188,2.312 -7.313,7.687l2.75,0c0.188,-3.687 1.75,-5.25 4.438,-5.25c2.5,0 4.375,1.75 4.375,4.125c0,1.75 -1,3.25 -3,4.375l-2.875,1.625c-4.625,2.625 -5.937,4.75 -6.187,9.625l14.75,0l-0,-2.75l-11.688,0c0.313,-1.812 1.313,-2.937 4,-4.562l3.125,-1.688c3.125,-1.625 4.688,-3.937 4.688,-6.687" style="fill-rule:nonzero;"/></g><g><path d="M1157.36,235.561c8.188,-0 14.875,6.625 14.875,14.812c0,8.188 -6.687,14.875 -14.875,14.875c-8.187,0 -14.875,-6.687 -14.875,-14.875c0,-8.187 6.688,-14.812 14.875,-14.812m0,31.687c9.313,0 16.875,-7.562 16.875,-16.875c0,-9.312 -7.562,-16.812 -16.875,-16.812c-9.312,-0 -16.875,7.5 -16.875,16.812c0,9.313 7.563,16.875 16.875,16.875m7.438,-12.312c-0,-2.688 -1.125,-4.25 -3.75,-5.188c2.062,-0.812 3.062,-2.25 3.062,-4.437c0,-3.813 -2.5,-6.125 -6.75,-6.125c-4.437,-0 -6.812,2.437 -6.937,7.187l2.75,0c0.062,-3.312 1.437,-4.75 4.25,-4.75c2.437,0 3.875,1.438 3.875,3.75c-0,2.375 -1,3.375 -5.438,3.375l0,2.313l1.5,-0c3.063,-0 4.625,1.437 4.625,3.875c0,2.812 -1.75,4.437 -4.625,4.437c-3,0 -4.437,-1.5 -4.625,-4.687l-2.75,-0c0.313,4.937 2.75,7.125 7.313,7.125c4.562,-0 7.5,-2.688 7.5,-6.875" style="fill-rule:nonzero;"/></g><g><path d="M1261.3,269.013l6.937,-9.687l0,9.687l-6.937,0m6.187,-18.125c8.188,0 14.875,6.625 14.875,14.813c0,8.187 -6.687,14.875 -14.875,14.875c-8.187,-0 -14.875,-6.688 -14.875,-14.875c0,-8.188 6.688,-14.813 14.875,-14.813m6.75,18.125l-3.25,0l0,-14.375l-2.062,0l-10.063,13.938l0,2.937l9.375,0l0,5.313l2.75,-0l0,-5.313l3.25,0l0,-2.5m-6.75,13.563c9.313,-0 16.875,-7.563 16.875,-16.875c0,-9.313 -7.562,-16.813 -16.875,-16.813c-9.312,0 -16.875,7.5 -16.875,16.813c0,9.312 7.563,16.875 16.875,16.875" style="fill-rule:nonzero;"/></g><g><path d="M1377.59,224.167c8.187,-0 14.875,6.625 14.875,14.812c-0,8.188 -6.688,14.875 -14.875,14.875c-8.188,0 -14.875,-6.687 -14.875,-14.875c-0,-8.187 6.687,-14.812 14.875,-14.812m7.25,18.812c-0,-4.375 -2.938,-7.25 -7.188,-7.25c-1.562,0 -2.812,0.375 -4.062,1.313l0.875,-5.688l9.187,0l0,-2.75l-11.437,0l-1.625,11.625l2.5,0c1.312,-1.562 2.375,-2.062 4.062,-2.062c3,-0 4.875,1.875 4.875,5.187c0,3.188 -1.875,5 -4.875,5c-2.375,0 -3.875,-1.25 -4.5,-3.75l-2.75,0c0.875,4.438 3.375,6.188 7.313,6.188c4.5,-0 7.625,-3.125 7.625,-7.813m-7.25,12.875c9.312,0 16.875,-7.562 16.875,-16.875c-0,-9.312 -7.563,-16.812 -16.875,-16.812c-9.313,-0 -16.875,7.5 -16.875,16.812c-0,9.313 7.562,16.875 16.875,16.875" style="fill-rule:nonzero;"/></g><g><path d="M1487.7,255.167c8.188,-0 14.875,6.625 14.875,14.812c0,8.188 -6.687,14.875 -14.875,14.875c-8.187,0 -14.875,-6.687 -14.875,-14.875c0,-8.187 6.688,-14.812 14.875,-14.812m4.5,19.25c0,2.812 -1.875,4.687 -4.437,4.687c-2.563,0 -4.5,-2 -4.5,-4.812c-0,-2.75 1.875,-4.563 4.625,-4.563c2.625,0 4.312,1.75 4.312,4.688m2.813,-0.188c-0,-4.125 -2.813,-6.937 -6.813,-6.937c-2.187,-0 -3.875,0.875 -5.062,2.5c-0,-5.438 1.75,-8.438 4.937,-8.438c1.938,0 3.25,1.25 3.688,3.375l2.75,0c-0.5,-3.625 -2.875,-5.812 -6.25,-5.812c-5.188,-0 -7.938,4.375 -7.938,12.062c0,6.938 2.375,10.563 7.438,10.563c4.187,-0 7.25,-3 7.25,-7.313m-7.313,12.625c9.313,0 16.875,-7.562 16.875,-16.875c0,-9.312 -7.562,-16.812 -16.875,-16.812c-9.312,-0 -16.875,7.5 -16.875,16.812c0,9.313 7.563,16.875 16.875,16.875" style="fill-rule:nonzero;"/></g><g><path d="M221.857,264.813c5.562,-0 12.375,-5.125 12.375,-10.438c-0,-3.187 -2.5,-5.187 -6.063,-5.187c-6.875,-0 -12.375,5.062 -12.375,10.437c0,3.25 2.688,5.188 6.063,5.188" style="fill-rule:nonzero;"/></g><g><path d="M276.914,249.313c5.563,-0 12.375,-5.125 12.375,-10.438c0,-3.187 -2.5,-5.187 -6.062,-5.187c-6.875,-0 -12.375,5.062 -12.375,10.437c-0,3.25 2.687,5.188 6.062,5.188" style="fill-rule:nonzero;"/></g><g><path d="M316.953,236.563c-0.375,1.25 -3.313,2.5 -4.75,2.5c-0.375,-0 -0.688,-0.125 -0.75,-0.313c-0.125,-0.25 -0.188,-1.625 -0.188,-3.125c0,-1.937 0.063,-4.125 0.188,-4.625c0.125,-1.062 3,-2.375 4.562,-2.375c0.438,0 0.813,0.125 0.938,0.375c0.125,0.313 0.25,1.875 0.25,3.563c-0,1.687 -0.125,3.437 -0.25,4m4.312,-10.188c0.438,-0.187 0.75,-0.687 0.75,-1.062l0,-4.438c0,-0.312 -0.187,-0.5 -0.437,-0.5c-0.125,0 -0.188,0 -0.313,0.063c0,-0 -1.25,0.5 -1.562,0.562c-0.438,0 -0.875,-0.312 -0.875,-0.812l-0,-7.625c-0,-0.375 -0.375,-0.688 -0.875,-0.688c-0.625,0 -1,0.313 -1,0.688l-0,8.125c-0.063,0.625 -0.25,1.437 -0.813,1.812c-0.75,0.438 -2.875,1.313 -3.937,1.563c-0.563,-0 -0.75,-0.75 -0.75,-1.25l-0,-7.5c-0,-0.375 -0.438,-0.688 -0.875,-0.688c-0.625,0 -1,0.313 -1,0.688l-0,8.437c-0,0.875 -0.375,1.5 -0.75,1.688c-0.375,0.187 -1.625,0.687 -1.625,0.687c-0.438,0.125 -0.75,0.625 -0.75,1l-0,4.438c-0,0.375 0.187,0.562 0.5,0.562c0.25,0 1.437,-0.562 1.625,-0.687c0.062,-0 0.125,-0.063 0.187,-0.063c0.438,0 0.813,0.625 0.813,1.125l-0,6.188c-0,0.687 -0.313,1.25 -0.688,1.437c-0.375,0.125 -1.687,0.688 -1.687,0.688c-0.438,0.125 -0.75,0.625 -0.75,1l-0,4.437c-0,0.375 0.187,0.563 0.5,0.563c0.062,-0 0.187,-0.063 0.25,-0.063c-0,0 0.875,-0.375 1.437,-0.562c0.063,-0.063 0.125,-0.063 0.188,-0.063c0.437,0 0.75,0.688 0.75,1l-0,7.688c-0,0.375 0.375,0.687 0.812,0.687c0.625,0 1.063,-0.312 1.063,-0.687l-0,-8.688c-0,-0.812 0.312,-1.25 0.625,-1.375l3.812,-1.562c0.063,-0 0.188,-0.063 0.25,-0.063c0.5,0 0.813,0.75 0.813,1.125l-0,7.813c-0,0.375 0.375,0.687 0.812,0.687c0.688,0 1.063,-0.312 1.063,-0.687l-0,-8.875c-0,-0.5 0.25,-1.25 0.687,-1.438c0.438,-0.187 1.75,-0.687 1.75,-0.687c0.438,-0.188 0.75,-0.688 0.75,-1.063l0,-4.437c0,-0.313 -0.187,-0.5 -0.437,-0.5c-0.125,-0 -0.188,-0 -0.313,0.062l-1.625,0.625c-0.375,0 -0.812,-0.375 -0.812,-1.125l-0,-5.812c-0,-0.438 0.312,-1.625 0.812,-1.813l1.625,-0.625" style="fill-rule:nonzero;"/></g><g><path d="M331.941,241.563c5.562,-0 12.375,-5.125 12.375,-10.438c-0,-3.187 -2.5,-5.187 -6.063,-5.187c-6.875,-0 -12.375,5.062 -12.375,10.437c0,3.25 2.688,5.188 6.063,5.188" style="fill-rule:nonzero;"/></g><g><path d="M387,218.313c5.563,-0 12.375,-5.125 12.375,-10.438c0,-3.187 -2.5,-5.187 -6.062,-5.187c-6.875,-0 -12.375,5.062 -12.375,10.437c-0,3.25 2.687,5.188 6.062,5.188" style="fill-rule:nonzero;"/></g><g><path d="M442.056,210.563c5.563,-0 12.375,-5.125 12.375,-10.438c0,-3.188 -2.5,-5.188 -6.062,-5.188c-6.875,0 -12.375,5.063 -12.375,10.438c-0,3.25 2.687,5.188 6.062,5.188" style="fill-rule:nonzero;"/></g><g><path d="M497.116,195.063c5.562,-0 12.375,-5.125 12.375,-10.438c-0,-3.188 -2.5,-5.188 -6.063,-5.188c-6.875,0 -12.375,5.063 -12.375,10.438c0,3.25 2.688,5.188 6.063,5.188" style="fill-rule:nonzero;"/></g><g><path d="M537.184,182.313c-0.375,1.25 -3.312,2.5 -4.75,2.5c-0.375,-0 -0.687,-0.125 -0.75,-0.313c-0.125,-0.25 -0.187,-1.625 -0.187,-3.125c-0,-1.938 0.062,-4.125 0.187,-4.625c0.125,-1.063 3,-2.375 4.563,-2.375c0.437,0 0.812,0.125 0.937,0.375c0.125,0.313 0.25,1.875 0.25,3.563c0,1.687 -0.125,3.437 -0.25,4m4.313,-10.188c0.437,-0.188 0.75,-0.688 0.75,-1.063l-0,-4.437c-0,-0.313 -0.188,-0.5 -0.438,-0.5c-0.125,0 -0.187,0 -0.312,0.063c-0,-0 -1.25,0.5 -1.563,0.562c-0.437,0 -0.875,-0.313 -0.875,-0.813l0,-7.625c0,-0.375 -0.375,-0.687 -0.875,-0.687c-0.625,0 -1,0.313 -1,0.688l0,8.125c-0.062,0.625 -0.25,1.437 -0.812,1.812c-0.75,0.438 -2.875,1.313 -3.938,1.563c-0.562,-0 -0.75,-0.75 -0.75,-1.25l0,-7.5c0,-0.375 -0.437,-0.688 -0.875,-0.688c-0.625,0 -1,0.313 -1,0.688l0,8.437c0,0.875 -0.375,1.5 -0.75,1.688c-0.375,0.187 -1.625,0.687 -1.625,0.687c-0.437,0.125 -0.75,0.625 -0.75,1l0,4.438c0,0.375 0.188,0.562 0.5,0.562c0.25,0 1.438,-0.563 1.625,-0.688c0.063,0 0.125,-0.062 0.188,-0.062c0.437,0 0.812,0.625 0.812,1.125l0,6.188c0,0.687 -0.312,1.25 -0.687,1.437c-0.375,0.125 -1.688,0.688 -1.688,0.688c-0.437,0.125 -0.75,0.625 -0.75,1l0,4.437c0,0.375 0.188,0.563 0.5,0.563c0.063,-0 0.188,-0.063 0.25,-0.063c0,0 0.875,-0.375 1.438,-0.563c0.062,-0.062 0.125,-0.062 0.187,-0.062c0.438,0 0.75,0.688 0.75,1l0,7.688c0,0.375 0.375,0.687 0.813,0.687c0.625,0 1.062,-0.312 1.062,-0.687l0,-8.688c0,-0.812 0.313,-1.25 0.625,-1.375l3.813,-1.562c0.062,-0 0.187,-0.063 0.25,-0.063c0.5,0 0.812,0.75 0.812,1.125l0,7.813c0,0.375 0.375,0.687 0.813,0.687c0.687,0 1.062,-0.312 1.062,-0.687l0,-8.875c0,-0.5 0.25,-1.25 0.688,-1.438c0.437,-0.188 1.75,-0.688 1.75,-0.688c0.437,-0.187 0.75,-0.687 0.75,-1.062l-0,-4.438c-0,-0.312 -0.188,-0.5 -0.438,-0.5c-0.125,0 -0.187,0 -0.312,0.063l-1.625,0.625c-0.375,0 -0.813,-0.375 -0.813,-1.125l0,-5.813c0,-0.437 0.313,-1.625 0.813,-1.812l1.625,-0.625" style="fill-rule:nonzero;"/></g><g><path d="M552.175,187.313c5.563,-0 12.375,-5.125 12.375,-10.438c0,-3.188 -2.5,-5.188 -6.063,-5.188c-6.875,0 -12.375,5.063 -12.375,10.438c0,3.25 2.688,5.188 6.063,5.188" style="fill-rule:nonzero;"/></g><g><path d="M607.231,164.063c5.563,-0 12.375,-5.125 12.375,-10.438c0,-3.188 -2.5,-5.188 -6.062,-5.188c-6.875,0 -12.375,5.063 -12.375,10.438c-0,3.25 2.687,5.188 6.062,5.188" style="fill-rule:nonzero;"/></g><g><path d="M688.05,156.313c5.563,-0 12.375,-5.125 12.375,-10.438c0,-3.188 -2.5,-5.188 -6.062,-5.188c-6.875,0 -12.375,5.063 -12.375,10.438c-0,3.25 2.687,5.188 6.062,5.188" style="fill-rule:nonzero;"/></g><g><path d="M743.109,140.813c5.563,-0 12.375,-5.125 12.375,-10.438c0,-3.187 -2.5,-5.187 -6.062,-5.187c-6.875,-0 -12.375,5.062 -12.375,10.437c-0,3.25 2.687,5.188 6.062,5.188" style="fill-rule:nonzero;"/></g><g><path d="M783.147,128.063c-0.375,1.25 -3.313,2.5 -4.75,2.5c-0.375,-0 -0.688,-0.125 -0.75,-0.313c-0.125,-0.25 -0.188,-1.625 -0.188,-3.125c0,-1.938 0.063,-4.125 0.188,-4.625c0.125,-1.063 3,-2.375 4.562,-2.375c0.438,0 0.813,0.125 0.938,0.375c0.125,0.313 0.25,1.875 0.25,3.563c-0,1.687 -0.125,3.437 -0.25,3.999m4.312,-10.187c0.438,-0.188 0.75,-0.688 0.75,-1.063l0,-4.437c0,-0.313 -0.187,-0.5 -0.437,-0.5c-0.125,-0 -0.188,-0 -0.313,0.062c0,0 -1.25,0.5 -1.562,0.563c-0.438,-0 -0.875,-0.313 -0.875,-0.813l-0,-7.625c-0,-0.375 -0.375,-0.687 -0.875,-0.687c-0.625,-0 -1,0.312 -1,0.687l-0,8.125c-0.063,0.625 -0.25,1.438 -0.813,1.813c-0.75,0.437 -2.875,1.312 -3.937,1.562c-0.563,0 -0.75,-0.75 -0.75,-1.25l-0,-7.5c-0,-0.375 -0.438,-0.687 -0.875,-0.687c-0.625,-0 -1,0.312 -1,0.687l-0,8.438c-0,0.875 -0.375,1.5 -0.75,1.687c-0.375,0.188 -1.625,0.688 -1.625,0.688c-0.438,0.125 -0.75,0.625 -0.75,1l-0,4.437c-0,0.375 0.187,0.563 0.5,0.563c0.25,-0 1.437,-0.563 1.625,-0.688c0.062,0 0.125,-0.062 0.187,-0.062c0.438,-0 0.813,0.625 0.813,1.125l-0,6.187c-0,0.688 -0.313,1.25 -0.688,1.438c-0.375,0.125 -1.687,0.688 -1.687,0.688c-0.438,0.125 -0.75,0.625 -0.75,1l-0,4.437c-0,0.375 0.187,0.563 0.5,0.563c0.062,-0 0.187,-0.063 0.25,-0.063c-0,0 0.875,-0.375 1.437,-0.563c0.063,-0.062 0.125,-0.062 0.188,-0.062c0.437,0 0.75,0.688 0.75,1l-0,7.688c-0,0.375 0.375,0.687 0.812,0.687c0.625,0 1.063,-0.313 1.063,-0.688l-0,-8.687c-0,-0.813 0.312,-1.25 0.625,-1.375l3.812,-1.563c0.063,0 0.188,-0.062 0.25,-0.062c0.5,0 0.813,0.75 0.813,1.125l-0,7.813c-0,0.375 0.375,0.687 0.812,0.687c0.688,0 1.063,-0.313 1.063,-0.688l-0,-8.875c-0,-0.5 0.25,-1.25 0.687,-1.437c0.438,-0.188 1.75,-0.688 1.75,-0.688c0.438,-0.187 0.75,-0.687 0.75,-1.062l0,-4.438c0,-0.312 -0.187,-0.499 -0.437,-0.499c-0.125,-0.001 -0.188,-0.001 -0.313,0.062l-1.625,0.625c-0.375,0 -0.812,-0.375 -0.812,-1.125l-0,-5.813c-0,-0.437 0.312,-1.624 0.812,-1.812l1.625,-0.625" style="fill-rule:nonzero;"/></g><g><path d="M798.138,133.063c5.562,-0 12.375,-5.125 12.375,-10.438c-0,-3.187 -2.5,-5.187 -6.063,-5.187c-6.875,-0 -12.375,5.062 -12.375,10.437c0,3.25 2.688,5.188 6.063,5.188" style="fill-rule:nonzero;"/></g><g><path d="M853.194,109.813c5.562,-0 12.375,-5.125 12.375,-10.438c-0,-3.187 -2.5,-5.187 -6.063,-5.187c-6.875,-0 -12.375,5.062 -12.375,10.437c0,3.25 2.688,5.188 6.063,5.188" style="fill-rule:nonzero;"/></g><g><path d="M908.253,109.813c5.563,-0 12.375,-5.125 12.375,-10.438c0,-3.187 -2.5,-5.187 -6.062,-5.187c-6.875,-0 -12.375,5.062 -12.375,10.437c-0,3.25 2.687,5.188 6.062,5.188" style="fill-rule:nonzero;"/></g><g><path d="M963.309,133.063c5.563,-0 12.375,-5.125 12.375,-10.438c0,-3.187 -2.5,-5.187 -6.062,-5.187c-6.875,-0 -12.375,5.062 -12.375,10.437c-0,3.25 2.687,5.188 6.062,5.188" style="fill-rule:nonzero;"/></g><g><path d="M1018.37,140.813c5.562,-0 12.375,-5.125 12.375,-10.438c-0,-3.187 -2.5,-5.187 -6.063,-5.187c-6.875,-0 -12.375,5.062 -12.375,10.437c0,3.25 2.688,5.188 6.063,5.188" style="fill-rule:nonzero;"/></g><g><path d="M1073.42,156.313c5.563,-0 12.375,-5.125 12.375,-10.438c0,-3.188 -2.5,-5.188 -6.062,-5.188c-6.875,0 -12.375,5.063 -12.375,10.438c-0,3.25 2.687,5.188 6.062,5.188" style="fill-rule:nonzero;"/></g><g><path d="M1154.2,164.063c5.562,-0 12.375,-5.125 12.375,-10.438c-0,-3.188 -2.5,-5.188 -6.063,-5.188c-6.875,0 -12.375,5.063 -12.375,10.438c0,3.25 2.688,5.188 6.063,5.188" style="fill-rule:nonzero;"/></g><g><path d="M1194.27,182.313c-0.375,1.25 -3.313,2.5 -4.75,2.5c-0.375,-0 -0.688,-0.125 -0.75,-0.313c-0.125,-0.25 -0.188,-1.625 -0.188,-3.125c0,-1.938 0.063,-4.125 0.188,-4.625c0.125,-1.063 3,-2.375 4.562,-2.375c0.438,0 0.813,0.125 0.938,0.375c0.125,0.313 0.25,1.875 0.25,3.563c-0,1.687 -0.125,3.437 -0.25,4m4.312,-10.188c0.438,-0.188 0.75,-0.688 0.75,-1.063l0,-4.437c0,-0.313 -0.187,-0.5 -0.437,-0.5c-0.125,0 -0.188,0 -0.313,0.063c0,-0 -1.25,0.5 -1.562,0.562c-0.438,0 -0.875,-0.313 -0.875,-0.813l-0,-7.625c-0,-0.375 -0.375,-0.687 -0.875,-0.687c-0.625,0 -1,0.313 -1,0.688l-0,8.125c-0.063,0.625 -0.25,1.437 -0.813,1.812c-0.75,0.438 -2.875,1.313 -3.937,1.563c-0.563,-0 -0.75,-0.75 -0.75,-1.25l-0,-7.5c-0,-0.375 -0.438,-0.688 -0.875,-0.688c-0.625,0 -1,0.313 -1,0.688l-0,8.437c-0,0.875 -0.375,1.5 -0.75,1.688c-0.375,0.187 -1.625,0.687 -1.625,0.687c-0.438,0.125 -0.75,0.625 -0.75,1l-0,4.438c-0,0.375 0.187,0.562 0.5,0.562c0.25,0 1.437,-0.563 1.625,-0.688c0.062,0 0.125,-0.062 0.187,-0.062c0.438,0 0.813,0.625 0.813,1.125l-0,6.188c-0,0.687 -0.313,1.25 -0.688,1.437c-0.375,0.125 -1.687,0.688 -1.687,0.688c-0.438,0.125 -0.75,0.625 -0.75,1l-0,4.437c-0,0.375 0.187,0.563 0.5,0.563c0.062,-0 0.187,-0.063 0.25,-0.063c-0,0 0.875,-0.375 1.437,-0.563c0.063,-0.062 0.125,-0.062 0.188,-0.062c0.437,0 0.75,0.688 0.75,1l-0,7.688c-0,0.375 0.375,0.687 0.812,0.687c0.625,0 1.063,-0.312 1.063,-0.687l-0,-8.688c-0,-0.812 0.312,-1.25 0.625,-1.375l3.812,-1.562c0.063,-0 0.188,-0.063 0.25,-0.063c0.5,0 0.813,0.75 0.813,1.125l-0,7.813c-0,0.375 0.375,0.687 0.812,0.687c0.688,0 1.063,-0.312 1.063,-0.687l-0,-8.875c-0,-0.5 0.25,-1.25 0.687,-1.438c0.438,-0.188 1.75,-0.688 1.75,-0.688c0.438,-0.187 0.75,-0.687 0.75,-1.062l0,-4.438c0,-0.312 -0.187,-0.5 -0.437,-0.5c-0.125,0 -0.188,0 -0.313,0.063l-1.625,0.625c-0.375,0 -0.812,-0.375 -0.812,-1.125l-0,-5.813c-0,-0.437 0.312,-1.625 0.812,-1.812l1.625,-0.625" style="fill-rule:nonzero;"/></g><g><path d="M1209.25,187.313c5.563,-0 12.375,-5.125 12.375,-10.438c0,-3.188 -2.5,-5.188 -6.062,-5.188c-6.875,0 -12.375,5.063 -12.375,10.438c-0,3.25 2.687,5.188 6.062,5.188" style="fill-rule:nonzero;"/></g><g><path d="M1264.31,195.063c5.562,-0 12.375,-5.125 12.375,-10.438c-0,-3.188 -2.5,-5.188 -6.063,-5.188c-6.875,0 -12.375,5.063 -12.375,10.438c0,3.25 2.688,5.188 6.063,5.188" style="fill-rule:nonzero;"/></g><g><path d="M1319.37,210.563c5.562,-0 12.375,-5.125 12.375,-10.438c-0,-3.188 -2.5,-5.188 -6.063,-5.188c-6.875,0 -12.375,5.063 -12.375,10.438c0,3.25 2.688,5.188 6.063,5.188" style="fill-rule:nonzero;"/></g><g><path d="M1374.43,218.313c5.563,-0 12.375,-5.125 12.375,-10.438c0,-3.187 -2.5,-5.187 -6.062,-5.187c-6.875,-0 -12.375,5.062 -12.375,10.437c-0,3.25 2.687,5.188 6.062,5.188" style="fill-rule:nonzero;"/></g><g><path d="M1414.5,236.563c-0.375,1.25 -3.313,2.5 -4.75,2.5c-0.375,-0 -0.688,-0.125 -0.75,-0.313c-0.125,-0.25 -0.188,-1.625 -0.188,-3.125c0,-1.937 0.063,-4.125 0.188,-4.625c0.125,-1.062 3,-2.375 4.562,-2.375c0.438,0 0.813,0.125 0.938,0.375c0.125,0.313 0.25,1.875 0.25,3.563c-0,1.687 -0.125,3.437 -0.25,4m4.312,-10.188c0.438,-0.187 0.75,-0.687 0.75,-1.062l0,-4.438c0,-0.312 -0.187,-0.5 -0.437,-0.5c-0.125,0 -0.188,0 -0.313,0.063c0,-0 -1.25,0.5 -1.562,0.562c-0.438,0 -0.875,-0.312 -0.875,-0.812l-0,-7.625c-0,-0.375 -0.375,-0.688 -0.875,-0.688c-0.625,0 -1,0.313 -1,0.688l-0,8.125c-0.063,0.625 -0.25,1.437 -0.813,1.812c-0.75,0.438 -2.875,1.313 -3.937,1.563c-0.563,-0 -0.75,-0.75 -0.75,-1.25l-0,-7.5c-0,-0.375 -0.438,-0.688 -0.875,-0.688c-0.625,0 -1,0.313 -1,0.688l-0,8.437c-0,0.875 -0.375,1.5 -0.75,1.688c-0.375,0.187 -1.625,0.687 -1.625,0.687c-0.438,0.125 -0.75,0.625 -0.75,1l-0,4.438c-0,0.375 0.187,0.562 0.5,0.562c0.25,0 1.437,-0.562 1.625,-0.687c0.062,-0 0.125,-0.063 0.187,-0.063c0.438,0 0.813,0.625 0.813,1.125l-0,6.188c-0,0.687 -0.313,1.25 -0.688,1.437c-0.375,0.125 -1.687,0.688 -1.687,0.688c-0.438,0.125 -0.75,0.625 -0.75,1l-0,4.437c-0,0.375 0.187,0.563 0.5,0.563c0.062,-0 0.187,-0.063 0.25,-0.063c-0,0 0.875,-0.375 1.437,-0.562c0.063,-0.063 0.125,-0.063 0.188,-0.063c0.437,0 0.75,0.688 0.75,1l-0,7.688c-0,0.375 0.375,0.687 0.812,0.687c0.625,0 1.063,-0.312 1.063,-0.687l-0,-8.688c-0,-0.812 0.312,-1.25 0.625,-1.375l3.812,-1.562c0.063,-0 0.188,-0.063 0.25,-0.063c0.5,0 0.813,0.75 0.813,1.125l-0,7.813c-0,0.375 0.375,0.687 0.812,0.687c0.688,0 1.063,-0.312 1.063,-0.687l-0,-8.875c-0,-0.5 0.25,-1.25 0.687,-1.438c0.438,-0.187 1.75,-0.687 1.75,-0.687c0.438,-0.188 0.75,-0.688 0.75,-1.063l0,-4.437c0,-0.313 -0.187,-0.5 -0.437,-0.5c-0.125,-0 -0.188,-0 -0.313,0.062l-1.625,0.625c-0.375,0 -0.812,-0.375 -0.812,-1.125l-0,-5.812c-0,-0.438 0.312,-1.625 0.812,-1.813l1.625,-0.625" style="fill-rule:nonzero;"/></g><g><path d="M1429.48,241.563c5.563,-0 12.375,-5.125 12.375,-10.438c0,-3.187 -2.5,-5.187 -6.062,-5.187c-6.875,-0 -12.375,5.062 -12.375,10.437c-0,3.25 2.687,5.188 6.062,5.188" style="fill-rule:nonzero;"/></g><g><path d="M1484.54,249.313c5.562,-0 12.375,-5.125 12.375,-10.438c-0,-3.187 -2.5,-5.187 -6.063,-5.187c-6.875,-0 -12.375,5.062 -12.375,10.437c0,3.25 2.688,5.188 6.063,5.188" style="fill-rule:nonzero;"/></g><g><path d="M1539.6,264.813c5.563,-0 12.375,-5.125 12.375,-10.438c0,-3.187 -2.5,-5.187 -6.062,-5.187c-6.875,-0 -12.375,5.062 -12.375,10.437c-0,3.25 2.687,5.188 6.062,5.188" style="fill-rule:nonzero;"/></g><g><path d="M1621.3,253.063c0.687,-2.188 3,-2.5 4.937,-2.5c4.313,-0 7.75,4.625 7.75,8.375c0,1.937 -0.812,3.687 -2.875,4.187c-0.625,0.188 -1.312,0.25 -1.937,0.25c-2.25,0 -4.563,-1.5 -5.875,-3.25c-1.25,-1.437 -2.188,-3.562 -2.188,-5.562c0,-0.5 0.063,-1 0.188,-1.5m6.562,-3.875c-8.312,-0 -13.5,3.437 -13.5,7.687c0,4.188 3.563,7.938 12.875,7.938c10.25,-0 13.5,-3.563 13.5,-7.938c0,-4.437 -7.062,-7.687 -12.875,-7.687" style="fill-rule:nonzero;"/></g><g><path d="M161.563,186.375c0.187,1.188 0.187,1.125 -0.938,1.5c-5.5,1.875 -9.063,6.813 -9.063,12.125c0,5.625 2.938,9.625 7.188,11.063c0.5,0.187 1.25,0.375 1.687,0.375c0.5,-0 0.75,-0.313 0.75,-0.688c0,-0.437 -0.5,-0.625 -0.937,-0.812c-2.625,-1.125 -4.5,-3.813 -4.5,-6.688c-0,-3.562 2.437,-6.25 6.25,-7.312c1,-0.25 1.125,-0.188 1.25,0.5l3.125,18.625c0.125,0.687 0.062,0.687 -0.875,0.875c-1,0.187 -2.25,0.312 -3.5,0.312c-10.938,0 -18,-6.062 -18,-14.75c-0,-3.687 0.625,-8.625 5.812,-14.5c3.75,-4.187 6.625,-6.5 9.563,-8.875c0.625,-0.5 0.75,-0.437 0.875,0.25l1.312,8m6.813,-42.562c2.062,-0 3.75,1.687 3.75,5.125c-0,6.937 -5.938,12.562 -10.875,16.875c-0.438,0.375 -0.688,0.312 -0.813,-0.5c-0.25,-1.625 -0.375,-3.75 -0.375,-5.75c0,-9.75 4.5,-15.75 8.313,-15.75m-2.5,52.5c-0.125,-0.75 -0.063,-0.938 0.687,-0.875c5.063,0.437 9.25,4.687 9.25,10.187c0,3.938 -2.375,7.125 -5.875,8.875c-0.75,0.375 -0.875,0.375 -1,-0.375l-3.062,-17.812m-3.375,-19.5c-0.125,-0.75 -0,-0.813 0.375,-1.188c6.75,-6.312 11.875,-14.25 11.875,-23.812c-0,-5.438 -1.5,-10.813 -4.063,-14.563c-0.937,-1.375 -2.562,-3.125 -3.25,-3.125c-0.875,0 -2.812,1.625 -4.062,3c-4.625,5.125 -6.125,12.938 -6.125,19.438c-0,3.625 0.437,7.687 0.875,10.25c0.125,0.75 0.187,0.875 -0.563,1.5c-9,7.437 -18.562,16.375 -18.562,29c-0,10.875 7.437,21.187 22.75,21.187c1.437,0 3.062,-0.125 4.312,-0.375c0.688,-0.125 0.813,-0.187 0.938,0.563c0.75,4.187 1.687,9.625 1.687,12.562c0,9.25 -6.25,10.375 -9.937,10.375c-3.375,0 -5,-1 -5,-1.812c-0,-0.438 0.562,-0.625 2,-1.063c1.937,-0.562 4.187,-2.25 4.187,-5.875c0,-3.437 -2.187,-6.375 -6,-6.375c-4.187,0 -6.687,3.313 -6.687,7.188c-0,4.062 2.437,10.187 11.875,10.187c4.187,0 12.312,-1.875 12.312,-12.5c0,-3.562 -1.125,-9.5 -1.812,-13.375c-0.125,-0.75 -0.063,-0.687 0.812,-1.062c6.313,-2.5 10.5,-7.813 10.5,-14.875c0,-8 -5.875,-15.063 -15.062,-15.063c-1.625,0 -1.625,0 -1.813,-1.125l-1.562,-9.062" style="fill-rule:nonzero;"/></g><g><path d="M232.367,191.125l-0,-7.803l167.002,-19.375l-0,7.803l-167.002,19.375" style="fill-rule:nonzero;"/></g><g><path d="M435.994,249.325l-0,-7.825l167.034,-23.25l0,7.825l-167.034,23.25" style="fill-rule:nonzero;"/></g><g><path d="M681.988,210.575l-0,-7.825l167.003,-23.25l-0,7.825l-167.003,23.25" style="fill-rule:nonzero;"/></g><g><path d="M902.191,187.325l-0,-7.825l167.031,23.25l-0,7.825l-167.031,-23.25" style="fill-rule:nonzero;"/></g><g><path d="M1148.13,226.075l0,-7.825l167.035,23.25l-0,7.825l-167.035,-23.25" style="fill-rule:nonzero;"/></g><g><path d="M1384.94,171.75l-0,-7.803l167.034,19.375l-0,7.803l-167.034,-19.375" style="fill-rule:nonzero;"/></g></g></svg>