<?xml version="1.0" encoding="UTF-8" standalone="no"?><!DOCTYPE svg PUBLIC "-//W3C//DTD SVG 1.1//EN" "http://www.w3.org/Graphics/SVG/1.1/DTD/svg11.dtd"><svg width="100%" height="100%" viewBox="0 0 6894 1811" version="1.1" xmlns="http://www.w3.org/2000/svg" xmlns:xlink="http://www.w3.org/1999/xlink" xml:space="preserve" xmlns:serif="http://www.serif.com/" style="fill-rule:evenodd;clip-rule:evenodd;stroke-miterlimit:2;"><g><g><path d="M9.41,614.904l6875,0" style="fill:none;stroke:#000;stroke-width:8.42px;"/><path d="M9.41,356.571l6875,-0" style="fill:none;stroke:#000;stroke-width:8.42px;"/><path d="M9.41,550.321l6875,-0" style="fill:none;stroke:#000;stroke-width:8.42px;"/><path d="M9.41,421.154l6875,0" style="fill:none;stroke:#000;stroke-width:8.42px;"/><path d="M9.41,485.738l6875,-0" style="fill:none;stroke:#000;stroke-width:8.42px;"/></g><g><path d="M2527.12,352.375l0,266.721" style="fill:none;stroke:#000;stroke-width:10.33px;"/><path d="M4726.33,352.375l-0,266.721" style="fill:none;stroke:#000;stroke-width:10.33px;"/><path d="M6879.2,352.375l-0,266.721" style="fill:none;stroke:#000;stroke-width:10.33px;"/></g><g><path d="M434.539,501.779l0,263.734" style="fill:none;stroke:#000;stroke-width:7.75px;"/></g><g><path d="M335.843,744.071l128.517,-0" style="fill:none;stroke:#000;stroke-width:10.33px;"/><path d="M335.843,679.488l128.517,-0" style="fill:none;stroke:#000;stroke-width:10.33px;"/></g><g><path d="M636.364,485.633l0,247.588" style="fill:none;stroke:#000;stroke-width:7.75px;"/></g><g><path d="M552.768,744.071l113.284,-0" style="fill:none;stroke:#000;stroke-width:10.33px;"/><path d="M537.664,679.488l128.388,-0" style="fill:none;stroke:#000;stroke-width:10.33px;"/></g><g><path d="M838.185,469.488l0,231.441" style="fill:none;stroke:#000;stroke-width:7.75px;"/></g><g><path d="M755.635,679.488l112.238,-0" style="fill:none;stroke:#000;stroke-width:10.33px;"/></g><g><path d="M1024.91,485.346l-0,215.583" style="fill:none;stroke:#000;stroke-width:7.75px;"/></g><g><path d="M942.352,679.488l112.241,-0" style="fill:none;stroke:#000;stroke-width:10.33px;"/></g><g><path d="M1232.72,453.054l0,215.584" style="fill:none;stroke:#000;stroke-width:7.75px;"/></g><g><path d="M1148.99,679.488l113.413,-0" style="fill:none;stroke:#000;stroke-width:10.33px;"/></g><g><path d="M1440.53,420.763l-0,215.583" style="fill:none;stroke:#000;stroke-width:7.75px;"/><path d="M1593.53,372.104l-0,199.659" style="fill:none;stroke:#000;stroke-width:7.75px;"/><path d="M1746.65,342.05l-0,197.421" style="fill:none;stroke:#000;stroke-width:7.75px;"/><path d="M1922.56,307.517l0,199.662" style="fill:none;stroke:#000;stroke-width:7.75px;"/><path d="M2029.59,496.583l0,199.05" style="fill:none;stroke:#000;stroke-width:7.75px;"/><path d="M2190.66,496.583l0,199.05" style="fill:none;stroke:#000;stroke-width:7.75px;"/><path d="M2372.82,464.292l-0,231.341" style="fill:none;stroke:#000;stroke-width:7.75px;"/><path d="M2673.6,432l-0,200.154" style="fill:none;stroke:#000;stroke-width:7.75px;"/><path d="M2826.6,367.417l-0,224.375" style="fill:none;stroke:#000;stroke-width:7.75px;"/><path d="M2979.72,335.125l-0,216.3" style="fill:none;stroke:#000;stroke-width:7.75px;"/><path d="M3155.76,302.838l0,199.07" style="fill:none;stroke:#000;stroke-width:7.75px;"/></g><g><path d="M3141.18,291.988l113.412,-0" style="fill:none;stroke:#000;stroke-width:10.33px;"/></g><g><path d="M3357.59,270.546l0,222.975" style="fill:none;stroke:#000;stroke-width:7.75px;"/></g><g><path d="M3344.05,291.988l112.237,-0" style="fill:none;stroke:#000;stroke-width:10.33px;"/></g><g><path d="M3544.31,270.546l-0,215.217" style="fill:none;stroke:#000;stroke-width:7.75px;"/></g><g><path d="M3530.76,291.988l112.371,-0" style="fill:none;stroke:#000;stroke-width:10.33px;"/></g><g><path d="M3752.12,238.254l0,247.509" style="fill:none;stroke:#000;stroke-width:7.75px;"/></g><g><path d="M3737.53,227.404l113.283,0" style="fill:none;stroke:#000;stroke-width:10.33px;"/><path d="M3738.58,291.988l112.241,-0" style="fill:none;stroke:#000;stroke-width:10.33px;"/></g><g><path d="M3959.95,205.963l-0,270.504" style="fill:none;stroke:#000;stroke-width:7.75px;"/></g><g><path d="M3946.37,227.404l112.242,0" style="fill:none;stroke:#000;stroke-width:10.33px;"/><path d="M3930.24,291.988l128.388,-0" style="fill:none;stroke:#000;stroke-width:10.33px;"/></g><g><path d="M4112.91,141.379l0,328.238" style="fill:none;stroke:#000;stroke-width:7.75px;"/></g><g><path d="M4083.24,162.821l128.513,-0" style="fill:none;stroke:#000;stroke-width:10.33px;"/><path d="M4083.24,227.404l128.513,0" style="fill:none;stroke:#000;stroke-width:10.33px;"/><path d="M4083.24,291.988l128.513,-0" style="fill:none;stroke:#000;stroke-width:10.33px;"/></g><g><path d="M4266.03,141.379l0,328.392" style="fill:none;stroke:#000;stroke-width:7.75px;"/></g><g><path d="M4236.24,162.821l128.513,-0" style="fill:none;stroke:#000;stroke-width:10.33px;"/><path d="M4236.24,227.404l128.513,0" style="fill:none;stroke:#000;stroke-width:10.33px;"/><path d="M4236.24,291.988l128.513,-0" style="fill:none;stroke:#000;stroke-width:10.33px;"/></g><g><path d="M4419.03,205.963l-0.004,279.954" style="fill:none;stroke:#000;stroke-width:7.75px;"/></g><g><path d="M4389.37,227.404l128.384,0" style="fill:none;stroke:#000;stroke-width:10.33px;"/><path d="M4389.37,291.988l128.384,-0" style="fill:none;stroke:#000;stroke-width:10.33px;"/></g><g><path d="M4572.03,238.254l0,263.809" style="fill:none;stroke:#000;stroke-width:7.75px;"/></g><g><path d="M4542.37,227.404l128.517,0" style="fill:none;stroke:#000;stroke-width:10.33px;"/><path d="M4542.37,291.988l128.517,-0" style="fill:none;stroke:#000;stroke-width:10.33px;"/></g><g><path d="M4832.33,270.546l-0,215.217" style="fill:none;stroke:#000;stroke-width:7.75px;"/></g><g><path d="M4802.62,291.988l128.517,-0" style="fill:none;stroke:#000;stroke-width:10.33px;"/></g><g><path d="M5034.16,270.546l0,223.287" style="fill:none;stroke:#000;stroke-width:7.75px;"/></g><g><path d="M5020.62,291.988l112.367,-0" style="fill:none;stroke:#000;stroke-width:10.33px;"/></g><g><path d="M5235.95,302.838l-0,199.07" style="fill:none;stroke:#000;stroke-width:7.75px;"/></g><g><path d="M5221.37,291.988l113.284,-0" style="fill:none;stroke:#000;stroke-width:10.33px;"/></g><g><path d="M5388.95,335.125l-0,216.117" style="fill:none;stroke:#000;stroke-width:7.75px;"/><path d="M5542.08,367.417l-0,220.7" style="fill:none;stroke:#000;stroke-width:7.75px;"/><path d="M5723.99,432l0,199.971" style="fill:none;stroke:#000;stroke-width:7.75px;"/><path d="M5906.03,464.292l-0.004,231.341" style="fill:none;stroke:#000;stroke-width:7.75px;"/><path d="M6066.83,496.583l-0,199.05" style="fill:none;stroke:#000;stroke-width:7.75px;"/><path d="M6242.87,496.583l0,199.05" style="fill:none;stroke:#000;stroke-width:7.75px;"/><path d="M6487.91,307.421l0,199.758" style="fill:none;stroke:#000;stroke-width:7.75px;"/><path d="M6640.91,339.708l-0.004,199.763" style="fill:none;stroke:#000;stroke-width:7.75px;"/><path d="M6793.91,372l0,199.763" style="fill:none;stroke:#000;stroke-width:7.75px;"/></g><g><path d="M385.152,256.308c-0,0 -0.263,1.042 -0.263,1.825c0,1.042 1.042,2.084 2.084,2.084c0.783,-0 1.304,-0.784 1.562,-1.042c0.263,-0.783 3.388,-11.458 4.95,-14.063c0.521,-1.041 1.042,-1.304 1.3,-1.304c0.521,0 0.783,1.042 0.783,1.825l0,37.238c0,3.125 -2.604,4.95 -5.208,4.95c-1.042,-0 -2.346,0.521 -2.346,2.083c0,1.563 1.304,2.084 3.388,2.084l21.875,-0c2.083,-0 2.083,-2.084 2.083,-2.084c0,0 0,-2.083 -2.083,-2.083c-1.825,-0 -4.167,-2.346 -4.167,-4.688l0,-54.166c0,-2.084 -0.783,-3.125 -2.604,-3.125c-1.825,-0 -3.388,0.521 -4.95,0.521c-2.604,-0 -3.125,-0 -5.208,-0.521c-1.042,-0 -2.342,1.562 -3.125,2.604l-8.071,27.862" style="fill-rule:nonzero;"/></g><g><path d="M627.685,271.154c0,-1.825 -0.783,-2.083 -1.562,-2.083c-1.042,-0 -1.563,0.779 -1.825,1.562c-1.3,3.646 -4.167,8.334 -8.071,8.334c-0.521,-0 -1.042,-0 -1.563,-0.263l-3.908,-1.3c-2.604,-1.041 -8.854,-3.125 -14.063,-3.125c-1.82,0 -3.383,0.259 -4.945,0.779c2.862,-4.945 16.404,-11.458 19.27,-12.237c9.375,-1.304 17.188,-6.771 17.188,-16.929c-0,-6.25 -2.604,-10.417 -5.992,-13.542c-6.771,-5.467 -16.666,-6.25 -19.529,-6.25c-9.375,0 -16.929,0.521 -23.7,8.333c-1.821,2.084 -2.604,4.167 -2.604,6.25c-0,1.825 0.783,3.909 1.562,6.25c1.563,3.125 4.95,5.471 8.596,5.471c6.509,0 7.292,-6.25 7.292,-9.116c-0,-5.988 -6.513,-6.509 -6.513,-9.113c0,-1.825 2.605,-4.95 10.417,-4.95c12.242,0 16.408,10.158 16.408,13.283c0,4.688 -1.562,9.113 -4.166,12.759c-4.688,5.991 -13.284,8.075 -19.792,12.241c-7.292,4.425 -12.242,11.98 -14.583,20.313c-0,1.821 0.779,3.904 2.341,4.687c0.263,0.259 0.784,0.259 1.042,0.259c2.867,-0 4.429,-8.071 12.242,-8.071c5.208,-0 7.029,7.029 18.75,7.029c5.466,0 15.625,-0.521 17.708,-20.571" style="fill-rule:nonzero;"/></g><g><path d="M817.535,268.55l0,-27.867c0,-1.3 -0.258,-2.341 -1.562,-2.341c-1.042,-0 -1.821,0.258 -2.605,1.3l-7.812,15.104c-0.521,0.521 -1.3,1.304 -1.3,3.125l-0,10.679l-16.929,0c10.679,-8.854 27.346,-38.283 27.604,-39.846c-0,-0.258 0.262,-0.521 0.262,-0.779c0,-1.042 -1.041,-1.825 -1.825,-1.825c-1.3,0 -6.77,0.521 -9.112,0.521c-2.346,-0 -3.908,-0.521 -4.95,-0.521c-1.3,0 -3.125,0.521 -3.125,2.604c-0,16.667 -13.542,35.679 -16.925,40.367c-0.521,0.521 -1.042,1.3 -1.042,2.083c0,1.3 1.042,2.604 2.604,2.604l23.438,0l-0,8.071c-0,3.646 -2.083,4.688 -4.167,4.688c-2.346,-0 -3.387,1.041 -3.387,2.346c-0,1.299 0.521,2.862 2.866,2.862l22.396,-0c1.3,-0 2.604,-1.042 2.604,-2.863c0,-1.825 -1.562,-2.604 -2.866,-2.604c-1.3,0 -4.167,-0.783 -4.167,-4.95l0,-7.55l9.638,0c1.3,0 2.083,-1.041 2.083,-2.604c-0,-1.562 -0.521,-2.604 -2.083,-2.604l-9.638,-0" style="fill-rule:nonzero;"/></g><g><path d="M1004.28,268.55l-0,-27.867c-0,-1.3 -0.263,-2.341 -1.563,-2.341c-1.041,-0 -1.825,0.258 -2.604,1.3l-7.812,15.104c-0.521,0.521 -1.304,1.304 -1.304,3.125l-0,10.679l-16.925,0c10.675,-8.854 27.341,-38.283 27.604,-39.846c-0,-0.258 0.258,-0.521 0.258,-0.779c0,-1.042 -1.042,-1.825 -1.821,-1.825c-1.304,0 -6.771,0.521 -9.116,0.521c-2.342,-0 -3.905,-0.521 -4.946,-0.521c-1.304,0 -3.125,0.521 -3.125,2.604c-0,16.667 -13.542,35.679 -16.929,40.367c-0.521,0.521 -1.042,1.3 -1.042,2.083c-0,1.3 1.042,2.604 2.604,2.604l23.438,0l-0,8.071c-0,3.646 -2.084,4.688 -4.167,4.688c-2.342,-0 -3.383,1.041 -3.383,2.346c-0,1.299 0.52,2.862 2.862,2.862l22.396,-0c1.304,-0 2.604,-1.042 2.604,-2.863c0,-1.825 -1.562,-2.604 -2.862,-2.604c-1.305,0 -4.167,-0.783 -4.167,-4.95l-0,-7.55l9.633,0c1.304,0 2.084,-1.041 2.084,-2.604c-0,-1.562 -0.521,-2.604 -2.084,-2.604l-9.633,-0" style="fill-rule:nonzero;"/></g><g><path d="M1183.29,256.308c0,0 -0.258,1.042 -0.258,1.825c-0,1.042 1.042,2.084 2.083,2.084c0.779,-0 1.3,-0.784 1.563,-1.042c0.258,-0.783 3.383,-11.458 4.946,-14.063c0.52,-1.041 1.041,-1.304 1.304,-1.304c0.521,0 0.779,1.042 0.779,1.825l-0,37.238c-0,3.125 -2.604,4.95 -5.208,4.95c-1.042,-0 -2.342,0.521 -2.342,2.083c-0,1.563 1.3,2.084 3.383,2.084l21.875,-0c2.084,-0 2.084,-2.084 2.084,-2.084c-0,0 -0,-2.083 -2.084,-2.083c-1.821,-0 -4.166,-2.346 -4.166,-4.688l-0,-54.166c-0,-2.084 -0.78,-3.125 -2.605,-3.125c-1.82,-0 -3.383,0.521 -4.945,0.521c-2.605,-0 -3.125,-0 -5.209,-0.521c-1.041,-0 -2.346,1.562 -3.125,2.604l-8.075,27.862" style="fill-rule:nonzero;"/></g><g><path d="M1431.82,271.154c0,-1.825 -0.779,-2.083 -1.562,-2.083c-1.042,-0 -1.563,0.779 -1.821,1.562c-1.304,3.646 -4.167,8.334 -8.075,8.334c-0.521,-0 -1.042,-0 -1.562,-0.263l-3.905,-1.3c-2.604,-1.041 -8.854,-3.125 -14.062,-3.125c-1.825,0 -3.388,0.259 -4.95,0.779c2.867,-4.945 16.408,-11.458 19.271,-12.237c9.375,-1.304 17.187,-6.771 17.187,-16.929c0,-6.25 -2.604,-10.417 -5.987,-13.542c-6.771,-5.467 -16.667,-6.25 -19.534,-6.25c-9.375,0 -16.925,0.521 -23.695,8.333c-1.825,2.084 -2.605,4.167 -2.605,6.25c0,1.825 0.78,3.909 1.563,6.25c1.562,3.125 4.946,5.471 8.592,5.471c6.512,0 7.291,-6.25 7.291,-9.116c0,-5.988 -6.508,-6.509 -6.508,-9.113c-0,-1.825 2.604,-4.95 10.417,-4.95c12.237,0 16.404,10.158 16.404,13.283c-0,4.688 -1.563,9.113 -4.167,12.759c-4.687,5.991 -13.279,8.075 -19.792,12.241c-7.291,4.425 -12.237,11.98 -14.583,20.313c0,1.821 0.783,3.904 2.346,4.687c0.258,0.259 0.779,0.259 1.042,0.259c2.862,-0 4.425,-8.071 12.237,-8.071c5.208,-0 7.033,7.029 18.75,7.029c5.471,0 15.625,-0.521 17.708,-20.571" style="fill-rule:nonzero;"/></g><g><path d="M1572.91,268.55l0,-27.867c0,-1.3 -0.262,-2.341 -1.562,-2.341c-1.042,-0 -1.825,0.258 -2.604,1.3l-7.813,15.104c-0.521,0.521 -1.304,1.304 -1.304,3.125l-0,10.679l-16.925,0c10.675,-8.854 27.342,-38.283 27.604,-39.846c0,-0.258 0.258,-0.521 0.258,-0.779c0,-1.042 -1.041,-1.825 -1.82,-1.825c-1.305,0 -6.771,0.521 -9.117,0.521c-2.342,-0 -3.904,-0.521 -4.946,-0.521c-1.304,0 -3.125,0.521 -3.125,2.604c0,16.667 -13.542,35.679 -16.929,40.367c-0.521,0.521 -1.042,1.3 -1.042,2.083c0,1.3 1.042,2.604 2.604,2.604l23.438,0l-0,8.071c-0,3.646 -2.083,4.688 -4.167,4.688c-2.341,-0 -3.383,1.041 -3.383,2.346c-0,1.299 0.521,2.862 2.862,2.862l22.396,-0c1.304,-0 2.604,-1.042 2.604,-2.863c0,-1.825 -1.562,-2.604 -2.862,-2.604c-1.304,0 -4.167,-0.783 -4.167,-4.95l0,-7.55l9.634,0c1.304,0 2.083,-1.041 2.083,-2.604c-0,-1.562 -0.521,-2.604 -2.083,-2.604l-9.634,-0" style="fill-rule:nonzero;"/></g><g><path d="M1697.17,256.308c-0,0 -0.263,1.042 -0.263,1.825c0,1.042 1.042,2.084 2.083,2.084c0.784,-0 1.305,-0.784 1.563,-1.042c0.262,-0.783 3.387,-11.458 4.95,-14.063c0.521,-1.041 1.042,-1.304 1.3,-1.304c0.521,0 0.783,1.042 0.783,1.825l0,37.238c0,3.125 -2.604,4.95 -5.208,4.95c-1.042,-0 -2.346,0.521 -2.346,2.083c0,1.563 1.304,2.084 3.388,2.084l21.875,-0c2.083,-0 2.083,-2.084 2.083,-2.084c-0,0 -0,-2.083 -2.083,-2.083c-1.825,-0 -4.167,-2.346 -4.167,-4.688l-0,-54.166c-0,-2.084 -0.783,-3.125 -2.604,-3.125c-1.825,-0 -3.388,0.521 -4.95,0.521c-2.604,-0 -3.125,-0 -5.209,-0.521c-1.041,-0 -2.341,1.562 -3.125,2.604l-8.07,27.862" style="fill-rule:nonzero;"/></g><g><path d="M1913.88,238.192c-0,-1.825 -0.784,-2.084 -1.563,-2.084c-1.041,0 -1.562,0.78 -1.825,1.563c-1.3,3.646 -4.166,8.333 -8.071,8.333c-0.52,0 -1.041,0 -1.562,-0.262l-3.908,-1.3c-2.605,-1.042 -8.855,-3.125 -14.063,-3.125c-1.821,-0 -3.383,0.258 -4.946,0.779c2.863,-4.946 16.404,-11.458 19.271,-12.238c9.375,-1.304 17.188,-6.77 17.188,-16.929c-0,-6.25 -2.605,-10.416 -5.992,-13.541c-6.771,-5.467 -16.667,-6.25 -19.529,-6.25c-9.375,-0 -16.929,0.52 -23.7,8.333c-1.821,2.083 -2.604,4.167 -2.604,6.25c-0,1.825 0.783,3.908 1.562,6.25c1.563,3.125 4.95,5.471 8.596,5.471c6.508,-0 7.292,-6.25 7.292,-9.117c-0,-5.987 -6.513,-6.508 -6.513,-9.112c0,-1.825 2.604,-4.95 10.417,-4.95c12.241,-0 16.408,10.158 16.408,13.283c0,4.687 -1.562,9.112 -4.167,12.758c-4.687,5.992 -13.283,8.075 -19.791,12.242c-7.292,4.425 -12.242,11.979 -14.584,20.312c0,1.821 0.78,3.905 2.342,4.688c0.263,0.258 0.783,0.258 1.042,0.258c2.866,0 4.429,-8.071 12.241,-8.071c5.209,0 7.03,7.03 18.75,7.03c5.467,-0 15.625,-0.521 17.709,-20.571" style="fill-rule:nonzero;"/></g><g><path d="M2078.02,268.55l0,-27.867c0,-1.3 -0.262,-2.341 -1.562,-2.341c-1.042,-0 -1.825,0.258 -2.604,1.3l-7.813,15.104c-0.521,0.521 -1.304,1.304 -1.304,3.125l0,10.679l-16.925,0c10.675,-8.854 27.342,-38.283 27.604,-39.846c0,-0.258 0.259,-0.521 0.259,-0.779c-0,-1.042 -1.042,-1.825 -1.821,-1.825c-1.304,0 -6.771,0.521 -9.117,0.521c-2.342,-0 -3.904,-0.521 -4.946,-0.521c-1.304,0 -3.125,0.521 -3.125,2.604c0,16.667 -13.541,35.679 -16.929,40.367c-0.521,0.521 -1.042,1.3 -1.042,2.083c0,1.3 1.042,2.604 2.605,2.604l23.437,0l0,8.071c0,3.646 -2.083,4.688 -4.167,4.688c-2.341,-0 -3.383,1.041 -3.383,2.346c0,1.299 0.521,2.862 2.863,2.862l22.395,-0c1.305,-0 2.605,-1.042 2.605,-2.863c-0,-1.825 -1.563,-2.604 -2.863,-2.604c-1.304,0 -4.167,-0.783 -4.167,-4.95l0,-7.55l9.634,0c1.304,0 2.083,-1.041 2.083,-2.604c0,-1.562 -0.521,-2.604 -2.083,-2.604l-9.634,-0" style="fill-rule:nonzero;"/></g><g><path d="M2239.06,268.55l0,-27.867c0,-1.3 -0.262,-2.341 -1.562,-2.341c-1.042,-0 -1.825,0.258 -2.605,1.3l-7.812,15.104c-0.521,0.521 -1.304,1.304 -1.304,3.125l-0,10.679l-16.925,0c10.675,-8.854 27.341,-38.283 27.604,-39.846c-0,-0.258 0.258,-0.521 0.258,-0.779c0,-1.042 -1.041,-1.825 -1.821,-1.825c-1.304,0 -6.77,0.521 -9.116,0.521c-2.342,-0 -3.904,-0.521 -4.946,-0.521c-1.304,0 -3.125,0.521 -3.125,2.604c-0,16.667 -13.542,35.679 -16.929,40.367c-0.521,0.521 -1.042,1.3 -1.042,2.083c0,1.3 1.042,2.604 2.604,2.604l23.438,0l-0,8.071c-0,3.646 -2.084,4.688 -4.167,4.688c-2.342,-0 -3.383,1.041 -3.383,2.346c-0,1.299 0.521,2.862 2.862,2.862l22.396,-0c1.304,-0 2.604,-1.042 2.604,-2.863c0,-1.825 -1.562,-2.604 -2.862,-2.604c-1.304,0 -4.167,-0.783 -4.167,-4.95l0,-7.55l9.633,0c1.305,0 2.084,-1.041 2.084,-2.604c-0,-1.562 -0.521,-2.604 -2.084,-2.604l-9.633,-0" style="fill-rule:nonzero;"/></g><g><path d="M2392.36,256.308c0,0 -0.258,1.042 -0.258,1.825c-0,1.042 1.042,2.084 2.083,2.084c0.779,-0 1.3,-0.784 1.563,-1.042c0.258,-0.783 3.383,-11.458 4.946,-14.063c0.52,-1.041 1.041,-1.304 1.304,-1.304c0.521,0 0.779,1.042 0.779,1.825l-0,37.238c-0,3.125 -2.604,4.95 -5.208,4.95c-1.042,-0 -2.342,0.521 -2.342,2.083c-0,1.563 1.3,2.084 3.383,2.084l21.875,-0c2.084,-0 2.084,-2.084 2.084,-2.084c-0,0 -0,-2.083 -2.084,-2.083c-1.821,-0 -4.166,-2.346 -4.166,-4.688l-0,-54.166c-0,-2.084 -0.78,-3.125 -2.605,-3.125c-1.82,-0 -3.383,0.521 -4.945,0.521c-2.605,-0 -3.125,-0 -5.209,-0.521c-1.041,-0 -2.346,1.562 -3.125,2.604l-8.075,27.862" style="fill-rule:nonzero;"/></g><g><path d="M2733.93,271.154c-0,-1.825 -0.779,-2.083 -1.563,-2.083c-1.041,-0 -1.562,0.779 -1.821,1.562c-1.304,3.646 -4.166,8.334 -8.075,8.334c-0.52,-0 -1.041,-0 -1.562,-0.263l-3.904,-1.3c-2.604,-1.041 -8.854,-3.125 -14.063,-3.125c-1.825,0 -3.387,0.259 -4.95,0.779c2.867,-4.945 16.409,-11.458 19.271,-12.237c9.375,-1.304 17.188,-6.771 17.188,-16.929c-0,-6.25 -2.605,-10.417 -5.988,-13.542c-6.771,-5.467 -16.667,-6.25 -19.533,-6.25c-9.375,0 -16.925,0.521 -23.696,8.333c-1.825,2.084 -2.604,4.167 -2.604,6.25c-0,1.825 0.779,3.909 1.562,6.25c1.563,3.125 4.946,5.471 8.592,5.471c6.512,0 7.292,-6.25 7.292,-9.116c-0,-5.988 -6.509,-6.509 -6.509,-9.113c0,-1.825 2.604,-4.95 10.417,-4.95c12.237,0 16.404,10.158 16.404,13.283c0,4.688 -1.562,9.113 -4.167,12.759c-4.687,5.991 -13.279,8.075 -19.791,12.241c-7.292,4.425 -12.238,11.98 -14.584,20.313c0,1.821 0.784,3.904 2.346,4.687c0.259,0.259 0.779,0.259 1.042,0.259c2.862,-0 4.425,-8.071 12.237,-8.071c5.209,-0 7.034,7.029 18.75,7.029c5.471,0 15.625,-0.521 17.709,-20.571" style="fill-rule:nonzero;"/></g><g><path d="M2875.02,268.492l-0,-27.867c-0,-1.3 -0.263,-2.342 -1.563,-2.342c-1.042,0 -1.825,0.259 -2.604,1.3l-7.813,15.105c-0.52,0.52 -1.304,1.304 -1.304,3.125l0,10.679l-16.925,-0c10.675,-8.854 27.342,-38.284 27.604,-39.846c0,-0.258 0.259,-0.521 0.259,-0.779c-0,-1.042 -1.042,-1.825 -1.821,-1.825c-1.304,-0 -6.771,0.521 -9.117,0.521c-2.341,-0 -3.904,-0.521 -4.946,-0.521c-1.304,-0 -3.125,0.521 -3.125,2.604c0,16.667 -13.541,35.679 -16.929,40.367c-0.521,0.52 -1.041,1.3 -1.041,2.083c-0,1.3 1.041,2.604 2.604,2.604l23.437,0l0,8.071c0,3.646 -2.083,4.687 -4.166,4.687c-2.342,0 -3.384,1.042 -3.384,2.346c0,1.3 0.521,2.863 2.863,2.863l22.396,-0c1.304,-0 2.604,-1.042 2.604,-2.863c-0,-1.825 -1.563,-2.604 -2.863,-2.604c-1.304,0 -4.166,-0.783 -4.166,-4.95l-0,-7.55l9.633,0c1.304,0 2.083,-1.042 2.083,-2.604c0,-1.563 -0.521,-2.604 -2.083,-2.604l-9.633,-0" style="fill-rule:nonzero;"/></g><g><path d="M2999.28,223.758c-0,0 -0.263,1.042 -0.263,1.821c0,1.042 1.042,2.084 2.084,2.084c0.783,-0 1.304,-0.78 1.562,-1.042c0.263,-0.779 3.388,-11.458 4.95,-14.063c0.521,-1.041 1.042,-1.3 1.3,-1.3c0.521,0 0.784,1.042 0.784,1.821l-0,37.242c-0,3.125 -2.605,4.946 -5.209,4.946c-1.041,-0 -2.346,0.521 -2.346,2.083c0,1.563 1.305,2.083 3.388,2.083l21.875,0c2.083,0 2.083,-2.083 2.083,-2.083c0,0 0,-2.083 -2.083,-2.083c-1.825,-0 -4.167,-2.342 -4.167,-4.688l0,-54.167c0,-2.083 -0.783,-3.125 -2.604,-3.125c-1.825,0 -3.387,0.521 -4.95,0.521c-2.604,0 -3.125,0 -5.208,-0.52c-1.042,-0 -2.342,1.562 -3.125,2.604l-8.071,27.866" style="fill-rule:nonzero;"/></g><g><path d="M3216.11,205.496c0,-1.825 -0.779,-2.083 -1.562,-2.083c-1.042,-0 -1.563,0.779 -1.821,1.562c-1.304,3.646 -4.167,8.333 -8.075,8.333c-0.521,0 -1.042,0 -1.563,-0.262l-3.904,-1.3c-2.604,-1.042 -8.854,-3.125 -14.062,-3.125c-1.825,-0 -3.388,0.258 -4.95,0.779c2.866,-4.946 16.408,-11.458 19.271,-12.237c9.375,-1.305 17.187,-6.771 17.187,-16.93c0,-6.25 -2.604,-10.416 -5.987,-13.541c-6.771,-5.467 -16.667,-6.25 -19.534,-6.25c-9.375,-0 -16.925,0.521 -23.696,8.333c-1.825,2.083 -2.604,4.167 -2.604,6.25c0,1.825 0.779,3.908 1.563,6.25c1.562,3.125 4.946,5.471 8.591,5.471c6.513,-0 7.292,-6.25 7.292,-9.117c0,-5.987 -6.508,-6.508 -6.508,-9.112c-0,-1.825 2.604,-4.95 10.416,-4.95c12.238,-0 16.405,10.158 16.405,13.283c-0,4.688 -1.563,9.113 -4.167,12.758c-4.688,5.992 -13.279,8.075 -19.792,12.242c-7.291,4.425 -12.237,11.979 -14.583,20.313c-0,1.82 0.783,3.904 2.346,4.687c0.258,0.258 0.779,0.258 1.041,0.258c2.863,0 4.425,-8.07 12.238,-8.07c5.208,-0 7.033,7.029 18.75,7.029c5.471,-0 15.625,-0.521 17.708,-20.571" style="fill-rule:nonzero;"/></g><g><path d="M3405.96,171.617l0,-27.867c0,-1.3 -0.262,-2.342 -1.562,-2.342c-1.042,0 -1.825,0.259 -2.605,1.3l-7.812,15.105c-0.521,0.52 -1.304,1.304 -1.304,3.125l-0,10.679l-16.925,-0c10.675,-8.854 27.341,-38.284 27.604,-39.846c-0,-0.258 0.258,-0.521 0.258,-0.779c0,-1.042 -1.041,-1.825 -1.821,-1.825c-1.304,-0 -6.77,0.521 -9.116,0.521c-2.342,-0 -3.904,-0.521 -4.946,-0.521c-1.304,-0 -3.125,0.521 -3.125,2.604c-0,16.667 -13.542,35.679 -16.929,40.367c-0.521,0.52 -1.042,1.3 -1.042,2.083c0,1.3 1.042,2.604 2.604,2.604l23.438,0l-0,8.071c-0,3.646 -2.084,4.687 -4.167,4.687c-2.342,0 -3.383,1.042 -3.383,2.346c-0,1.3 0.521,2.863 2.862,2.863l22.396,-0c1.304,-0 2.604,-1.042 2.604,-2.863c0,-1.825 -1.562,-2.604 -2.862,-2.604c-1.304,0 -4.167,-0.783 -4.167,-4.95l0,-7.55l9.633,0c1.305,0 2.084,-1.042 2.084,-2.604c-0,-1.563 -0.521,-2.604 -2.084,-2.604l-9.633,-0" style="fill-rule:nonzero;"/></g><g><path d="M3592.71,171.617l-0,-27.867c-0,-1.3 -0.263,-2.342 -1.563,-2.342c-1.041,0 -1.825,0.259 -2.604,1.3l-7.812,15.105c-0.521,0.52 -1.304,1.304 -1.304,3.125l-0,10.679l-16.925,-0c10.675,-8.854 27.341,-38.284 27.604,-39.846c-0,-0.258 0.258,-0.521 0.258,-0.779c0,-1.042 -1.042,-1.825 -1.821,-1.825c-1.304,-0 -6.771,0.521 -9.116,0.521c-2.342,-0 -3.905,-0.521 -4.946,-0.521c-1.304,-0 -3.125,0.521 -3.125,2.604c-0,16.667 -13.542,35.679 -16.929,40.367c-0.521,0.52 -1.042,1.3 -1.042,2.083c-0,1.3 1.042,2.604 2.604,2.604l23.438,0l-0,8.071c-0,3.646 -2.084,4.687 -4.167,4.687c-2.342,0 -3.383,1.042 -3.383,2.346c-0,1.3 0.52,2.863 2.862,2.863l22.396,-0c1.304,-0 2.604,-1.042 2.604,-2.863c0,-1.825 -1.562,-2.604 -2.862,-2.604c-1.305,0 -4.167,-0.783 -4.167,-4.95l-0,-7.55l9.633,0c1.304,0 2.084,-1.042 2.084,-2.604c-0,-1.563 -0.521,-2.604 -2.084,-2.604l-9.633,-0" style="fill-rule:nonzero;"/></g><g><path d="M3771.7,126.883c-0,0 -0.259,1.042 -0.259,1.821c0,1.042 1.042,2.084 2.084,2.084c0.779,-0 1.3,-0.78 1.562,-1.042c0.259,-0.779 3.384,-11.458 4.946,-14.063c0.521,-1.041 1.042,-1.3 1.304,-1.3c0.521,0 0.779,1.042 0.779,1.821l0,37.242c0,3.125 -2.604,4.946 -5.208,4.946c-1.042,-0 -2.342,0.521 -2.342,2.083c0,1.563 1.3,2.083 3.384,2.083l21.875,0c2.083,0 2.083,-2.083 2.083,-2.083c0,0 0,-2.083 -2.083,-2.083c-1.821,-0 -4.167,-2.342 -4.167,-4.688l0,-54.166c0,-2.084 -0.779,-3.125 -2.604,-3.125c-1.821,-0 -3.383,0.52 -4.946,0.52c-2.604,0 -3.125,0 -5.208,-0.52c-1.042,-0 -2.346,1.562 -3.125,2.604l-8.075,27.866" style="fill-rule:nonzero;"/></g><g><path d="M4020.24,108.621c0,-1.825 -0.779,-2.083 -1.562,-2.083c-1.042,-0 -1.563,0.779 -1.821,1.562c-1.304,3.646 -4.167,8.333 -8.075,8.333c-0.521,0 -1.042,0 -1.562,-0.262l-3.905,-1.3c-2.604,-1.042 -8.854,-3.125 -14.062,-3.125c-1.825,-0 -3.388,0.258 -4.95,0.779c2.867,-4.946 16.408,-11.458 19.271,-12.237c9.375,-1.305 17.187,-6.771 17.187,-16.93c0,-6.25 -2.604,-10.416 -5.987,-13.541c-6.771,-5.467 -16.667,-6.25 -19.534,-6.25c-9.375,-0 -16.925,0.521 -23.695,8.333c-1.825,2.083 -2.605,4.167 -2.605,6.25c0,1.825 0.78,3.908 1.563,6.25c1.562,3.125 4.946,5.471 8.592,5.471c6.512,-0 7.291,-6.25 7.291,-9.117c0,-5.987 -6.508,-6.508 -6.508,-9.112c-0,-1.825 2.604,-4.95 10.417,-4.95c12.237,-0 16.404,10.158 16.404,13.283c-0,4.688 -1.563,9.113 -4.167,12.758c-4.687,5.992 -13.279,8.075 -19.792,12.242c-7.291,4.425 -12.237,11.979 -14.583,20.313c0,1.82 0.783,3.904 2.346,4.687c0.258,0.258 0.779,0.258 1.042,0.258c2.862,0 4.425,-8.071 12.237,-8.071c5.208,0 7.033,7.03 18.75,7.03c5.471,-0 15.625,-0.521 17.708,-20.571" style="fill-rule:nonzero;"/></g><g><path d="M4161.37,42.45l0,-27.867c0,-1.3 -0.262,-2.341 -1.562,-2.341c-1.042,-0 -1.825,0.258 -2.604,1.3l-7.813,15.104c-0.521,0.521 -1.304,1.304 -1.304,3.125l0,10.679l-16.925,0c10.675,-8.854 27.342,-38.283 27.604,-39.846c0,-0.258 0.259,-0.521 0.259,-0.779c-0,-1.042 -1.042,-1.825 -1.821,-1.825c-1.304,0 -6.771,0.521 -9.117,0.521c-2.342,-0 -3.904,-0.521 -4.946,-0.521c-1.304,0 -3.125,0.521 -3.125,2.604c0,16.667 -13.541,35.679 -16.929,40.367c-0.521,0.521 -1.042,1.3 -1.042,2.083c0,1.3 1.042,2.604 2.605,2.604l23.437,0l0,8.071c0,3.646 -2.083,4.688 -4.167,4.688c-2.341,-0 -3.383,1.041 -3.383,2.346c0,1.3 0.521,2.862 2.863,2.862l22.395,0c1.305,0 2.605,-1.042 2.605,-2.862c-0,-1.825 -1.563,-2.605 -2.863,-2.605c-1.304,0 -4.167,-0.783 -4.167,-4.95l0,-7.55l9.634,0c1.304,0 2.083,-1.041 2.083,-2.604c0,-1.562 -0.521,-2.604 -2.083,-2.604l-9.634,0" style="fill-rule:nonzero;"/></g><g><path d="M4314.37,42.45l0,-27.867c0,-1.3 -0.262,-2.341 -1.562,-2.341c-1.042,-0 -1.825,0.258 -2.604,1.3l-7.813,15.104c-0.521,0.521 -1.304,1.304 -1.304,3.125l0,10.679l-16.925,0c10.675,-8.854 27.342,-38.283 27.604,-39.846c0,-0.258 0.259,-0.521 0.259,-0.779c-0,-1.042 -1.042,-1.825 -1.821,-1.825c-1.304,0 -6.771,0.521 -9.117,0.521c-2.342,-0 -3.904,-0.521 -4.946,-0.521c-1.304,0 -3.125,0.521 -3.125,2.604c0,16.667 -13.541,35.679 -16.929,40.367c-0.521,0.521 -1.042,1.3 -1.042,2.083c0,1.3 1.042,2.604 2.605,2.604l23.437,0l0,8.071c0,3.646 -2.083,4.688 -4.167,4.688c-2.341,-0 -3.383,1.041 -3.383,2.346c0,1.3 0.521,2.862 2.863,2.862l22.395,0c1.305,0 2.605,-1.042 2.605,-2.862c-0,-1.825 -1.563,-2.605 -2.863,-2.605c-1.304,0 -4.167,-0.783 -4.167,-4.95l0,-7.55l9.634,0c1.304,0 2.083,-1.041 2.083,-2.604c0,-1.562 -0.521,-2.604 -2.083,-2.604l-9.634,0" style="fill-rule:nonzero;"/></g><g><path d="M4479.37,108.621c0,-1.825 -0.783,-2.083 -1.562,-2.083c-1.042,-0 -1.563,0.779 -1.825,1.562c-1.3,3.646 -4.167,8.333 -8.071,8.333c-0.521,0 -1.042,0 -1.562,-0.262l-3.909,-1.3c-2.604,-1.042 -8.854,-3.125 -14.062,-3.125c-1.821,-0 -3.384,0.258 -4.946,0.779c2.862,-4.946 16.404,-11.458 19.271,-12.237c9.375,-1.305 17.187,-6.771 17.187,-16.93c0,-6.25 -2.604,-10.416 -5.991,-13.541c-6.771,-5.467 -16.667,-6.25 -19.53,-6.25c-9.375,-0 -16.929,0.521 -23.7,8.333c-1.82,2.083 -2.604,4.167 -2.604,6.25c0,1.825 0.784,3.908 1.563,6.25c1.562,3.125 4.95,5.471 8.596,5.471c6.508,-0 7.291,-6.25 7.291,-9.117c0,-5.987 -6.512,-6.508 -6.512,-9.112c-0,-1.825 2.604,-4.95 10.416,-4.95c12.242,-0 16.409,10.158 16.409,13.283c-0,4.688 -1.563,9.113 -4.167,12.758c-4.687,5.992 -13.283,8.075 -19.792,12.242c-7.291,4.425 -12.241,11.979 -14.583,20.313c0,1.82 0.779,3.904 2.342,4.687c0.262,0.258 0.783,0.258 1.041,0.258c2.867,0 4.43,-8.071 12.242,-8.071c5.208,0 7.029,7.03 18.75,7.03c5.467,-0 15.625,-0.521 17.708,-20.571" style="fill-rule:nonzero;"/></g><g><path d="M4591.7,126.883c-0,0 -0.263,1.042 -0.263,1.821c0,1.042 1.042,2.084 2.084,2.084c0.783,-0 1.304,-0.78 1.562,-1.042c0.263,-0.779 3.388,-11.458 4.95,-14.063c0.521,-1.041 1.042,-1.3 1.3,-1.3c0.521,0 0.783,1.042 0.783,1.821l0,37.242c0,3.125 -2.604,4.946 -5.208,4.946c-1.042,-0 -2.346,0.521 -2.346,2.083c0,1.563 1.304,2.083 3.388,2.083l21.875,0c2.083,0 2.083,-2.083 2.083,-2.083c0,0 0,-2.083 -2.083,-2.083c-1.825,-0 -4.167,-2.342 -4.167,-4.688l0,-54.166c0,-2.084 -0.783,-3.125 -2.604,-3.125c-1.825,-0 -3.388,0.52 -4.95,0.52c-2.604,0 -3.125,0 -5.208,-0.52c-1.042,-0 -2.342,1.562 -3.125,2.604l-8.071,27.866" style="fill-rule:nonzero;"/></g><g><path d="M4880.78,171.617l0,-27.867c0,-1.3 -0.258,-2.342 -1.562,-2.342c-1.042,0 -1.821,0.259 -2.605,1.3l-7.812,15.105c-0.521,0.52 -1.3,1.304 -1.3,3.125l-0,10.679l-16.929,-0c10.679,-8.854 27.346,-38.284 27.604,-39.846c-0,-0.258 0.262,-0.521 0.262,-0.779c0,-1.042 -1.041,-1.825 -1.825,-1.825c-1.3,-0 -6.77,0.521 -9.112,0.521c-2.346,-0 -3.908,-0.521 -4.95,-0.521c-1.3,-0 -3.125,0.521 -3.125,2.604c-0,16.667 -13.542,35.679 -16.925,40.367c-0.521,0.52 -1.042,1.3 -1.042,2.083c0,1.3 1.042,2.604 2.604,2.604l23.438,0l-0,8.071c-0,3.646 -2.083,4.687 -4.167,4.687c-2.346,0 -3.387,1.042 -3.387,2.346c-0,1.3 0.521,2.863 2.866,2.863l22.396,-0c1.3,-0 2.604,-1.042 2.604,-2.863c0,-1.825 -1.562,-2.604 -2.866,-2.604c-1.3,0 -4.167,-0.783 -4.167,-4.95l0,-7.55l9.638,0c1.3,0 2.083,-1.042 2.083,-2.604c-0,-1.563 -0.521,-2.604 -2.083,-2.604l-9.638,-0" style="fill-rule:nonzero;"/></g><g><path d="M5082.58,171.617l-0,-27.867c-0,-1.3 -0.259,-2.342 -1.563,-2.342c-1.041,0 -1.821,0.259 -2.604,1.3l-7.812,15.105c-0.521,0.52 -1.3,1.304 -1.3,3.125l-0,10.679l-16.93,-0c10.68,-8.854 27.346,-38.284 27.605,-39.846c-0,-0.258 0.262,-0.521 0.262,-0.779c0,-1.042 -1.042,-1.825 -1.825,-1.825c-1.3,-0 -6.771,0.521 -9.112,0.521c-2.346,-0 -3.909,-0.521 -4.95,-0.521c-1.3,-0 -3.125,0.521 -3.125,2.604c-0,16.667 -13.542,35.679 -16.925,40.367c-0.521,0.52 -1.042,1.3 -1.042,2.083c-0,1.3 1.042,2.604 2.604,2.604l23.438,0l-0,8.071c-0,3.646 -2.084,4.687 -4.167,4.687c-2.346,0 -3.388,1.042 -3.388,2.346c0,1.3 0.521,2.863 2.867,2.863l22.396,-0c1.3,-0 2.604,-1.042 2.604,-2.863c0,-1.825 -1.562,-2.604 -2.867,-2.604c-1.3,0 -4.166,-0.783 -4.166,-4.95l-0,-7.55l9.637,0c1.3,0 2.084,-1.042 2.084,-2.604c-0,-1.563 -0.521,-2.604 -2.084,-2.604l-9.637,-0" style="fill-rule:nonzero;"/></g><g><path d="M5296.28,205.496c0,-1.825 -0.779,-2.083 -1.562,-2.083c-1.042,-0 -1.563,0.779 -1.821,1.562c-1.304,3.646 -4.167,8.333 -8.075,8.333c-0.521,0 -1.042,0 -1.563,-0.262l-3.904,-1.3c-2.604,-1.042 -8.854,-3.125 -14.062,-3.125c-1.825,-0 -3.388,0.258 -4.95,0.779c2.866,-4.946 16.408,-11.458 19.27,-12.237c9.375,-1.305 17.188,-6.771 17.188,-16.93c-0,-6.25 -2.604,-10.416 -5.988,-13.541c-6.77,-5.467 -16.666,-6.25 -19.533,-6.25c-9.375,-0 -16.925,0.521 -23.696,8.333c-1.825,2.083 -2.604,4.167 -2.604,6.25c0,1.825 0.779,3.908 1.563,6.25c1.562,3.125 4.945,5.471 8.591,5.471c6.513,-0 7.292,-6.25 7.292,-9.117c-0,-5.987 -6.508,-6.508 -6.508,-9.112c-0,-1.825 2.604,-4.95 10.416,-4.95c12.238,-0 16.404,10.158 16.404,13.283c0,4.688 -1.562,9.113 -4.166,12.758c-4.688,5.992 -13.279,8.075 -19.792,12.242c-7.292,4.425 -12.237,11.979 -14.583,20.313c-0,1.82 0.783,3.904 2.346,4.687c0.258,0.258 0.779,0.258 1.041,0.258c2.863,0 4.425,-8.07 12.238,-8.07c5.208,-0 7.033,7.029 18.75,7.029c5.471,-0 15.625,-0.521 17.708,-20.571" style="fill-rule:nonzero;"/></g><g><path d="M5408.62,223.758c0,0 -0.258,1.042 -0.258,1.821c0,1.042 1.042,2.084 2.083,2.084c0.78,-0 1.3,-0.78 1.563,-1.042c0.258,-0.779 3.383,-11.458 4.946,-14.063c0.521,-1.041 1.041,-1.3 1.304,-1.3c0.521,0 0.779,1.042 0.779,1.821l0,37.242c0,3.125 -2.604,4.946 -5.208,4.946c-1.042,-0 -2.342,0.521 -2.342,2.083c0,1.563 1.3,2.083 3.383,2.083l21.875,0c2.084,0 2.084,-2.083 2.084,-2.083c-0,0 -0,-2.083 -2.084,-2.083c-1.82,-0 -4.166,-2.342 -4.166,-4.688l-0,-54.167c-0,-2.083 -0.779,-3.125 -2.604,-3.125c-1.821,0 -3.384,0.521 -4.946,0.521c-2.604,0 -3.125,0 -5.209,-0.52c-1.041,-0 -2.345,1.562 -3.125,2.604l-8.075,27.866" style="fill-rule:nonzero;"/></g><g><path d="M5590.45,268.492l-0,-27.867c-0,-1.3 -0.263,-2.342 -1.563,-2.342c-1.041,0 -1.825,0.259 -2.604,1.3l-7.812,15.105c-0.521,0.52 -1.305,1.304 -1.305,3.125l0,10.679l-16.925,-0c10.675,-8.854 27.342,-38.284 27.605,-39.846c-0,-0.258 0.258,-0.521 0.258,-0.779c-0,-1.042 -1.042,-1.825 -1.821,-1.825c-1.304,-0 -6.771,0.521 -9.117,0.521c-2.341,-0 -3.904,-0.521 -4.945,-0.521c-1.305,-0 -3.125,0.521 -3.125,2.604c-0,16.667 -13.542,35.679 -16.93,40.367c-0.52,0.52 -1.041,1.3 -1.041,2.083c-0,1.3 1.041,2.604 2.604,2.604l23.437,0l0,8.071c0,3.646 -2.083,4.687 -4.166,4.687c-2.342,0 -3.384,1.042 -3.384,2.346c0,1.3 0.521,2.863 2.863,2.863l22.396,-0c1.304,-0 2.604,-1.042 2.604,-2.863c-0,-1.825 -1.563,-2.604 -2.863,-2.604c-1.304,0 -4.166,-0.783 -4.166,-4.95l-0,-7.55l9.633,0c1.304,0 2.083,-1.042 2.083,-2.604c0,-1.563 -0.52,-2.604 -2.083,-2.604l-9.633,-0" style="fill-rule:nonzero;"/></g><g><path d="M5784.37,271.154c0,-1.825 -0.783,-2.083 -1.562,-2.083c-1.042,-0 -1.563,0.779 -1.825,1.562c-1.3,3.646 -4.167,8.334 -8.071,8.334c-0.521,-0 -1.042,-0 -1.562,-0.263l-3.909,-1.3c-2.604,-1.041 -8.854,-3.125 -14.062,-3.125c-1.821,0 -3.384,0.259 -4.946,0.779c2.862,-4.945 16.404,-11.458 19.271,-12.237c9.375,-1.304 17.187,-6.771 17.187,-16.929c0,-6.25 -2.604,-10.417 -5.991,-13.542c-6.771,-5.467 -16.667,-6.25 -19.53,-6.25c-9.375,0 -16.929,0.521 -23.7,8.333c-1.82,2.084 -2.604,4.167 -2.604,6.25c0,1.825 0.784,3.909 1.563,6.25c1.562,3.125 4.95,5.471 8.596,5.471c6.508,0 7.291,-6.25 7.291,-9.116c0,-5.988 -6.512,-6.509 -6.512,-9.113c-0,-1.825 2.604,-4.95 10.416,-4.95c12.242,0 16.409,10.158 16.409,13.283c-0,4.688 -1.563,9.113 -4.167,12.759c-4.687,5.991 -13.283,8.075 -19.792,12.241c-7.291,4.425 -12.241,11.98 -14.583,20.313c0,1.821 0.779,3.904 2.342,4.687c0.262,0.259 0.783,0.259 1.041,0.259c2.867,-0 4.43,-8.071 12.242,-8.071c5.208,-0 7.029,7.029 18.75,7.029c5.467,0 15.625,-0.521 17.708,-20.571" style="fill-rule:nonzero;"/></g><g><path d="M5925.58,256.308c-0,0 -0.259,1.042 -0.259,1.825c0,1.042 1.042,2.084 2.084,2.084c0.779,-0 1.3,-0.784 1.562,-1.042c0.259,-0.783 3.384,-11.458 4.946,-14.063c0.521,-1.041 1.042,-1.304 1.304,-1.304c0.521,0 0.779,1.042 0.779,1.825l0,37.238c0,3.125 -2.604,4.95 -5.208,4.95c-1.042,-0 -2.342,0.521 -2.342,2.083c0,1.563 1.3,2.084 3.384,2.084l21.875,-0c2.083,-0 2.083,-2.084 2.083,-2.084c0,0 0,-2.083 -2.083,-2.083c-1.821,-0 -4.167,-2.346 -4.167,-4.688l0,-54.166c0,-2.084 -0.779,-3.125 -2.604,-3.125c-1.821,-0 -3.383,0.521 -4.946,0.521c-2.604,-0 -3.125,-0 -5.208,-0.521c-1.042,-0 -2.346,1.562 -3.125,2.604l-8.075,27.862" style="fill-rule:nonzero;"/></g><g><path d="M6115.28,268.55l0,-27.867c0,-1.3 -0.258,-2.341 -1.562,-2.341c-1.042,-0 -1.821,0.258 -2.605,1.3l-7.812,15.104c-0.521,0.521 -1.3,1.304 -1.3,3.125l-0,10.679l-16.929,0c10.679,-8.854 27.346,-38.283 27.604,-39.846c-0,-0.258 0.262,-0.521 0.262,-0.779c0,-1.042 -1.041,-1.825 -1.825,-1.825c-1.3,0 -6.77,0.521 -9.112,0.521c-2.346,-0 -3.908,-0.521 -4.95,-0.521c-1.3,0 -3.125,0.521 -3.125,2.604c-0,16.667 -13.542,35.679 -16.925,40.367c-0.521,0.521 -1.042,1.3 -1.042,2.083c0,1.3 1.042,2.604 2.604,2.604l23.438,0l-0,8.071c-0,3.646 -2.083,4.688 -4.167,4.688c-2.346,-0 -3.387,1.041 -3.387,2.346c-0,1.299 0.521,2.862 2.866,2.862l22.396,-0c1.3,-0 2.604,-1.042 2.604,-2.863c0,-1.825 -1.562,-2.604 -2.866,-2.604c-1.3,0 -4.167,-0.783 -4.167,-4.95l0,-7.55l9.638,0c1.3,0 2.083,-1.041 2.083,-2.604c-0,-1.562 -0.521,-2.604 -2.083,-2.604l-9.638,-0" style="fill-rule:nonzero;"/></g><g><path d="M6291.24,268.55l0,-27.867c0,-1.3 -0.262,-2.341 -1.562,-2.341c-1.042,-0 -1.825,0.258 -2.604,1.3l-7.813,15.104c-0.521,0.521 -1.304,1.304 -1.304,3.125l0,10.679l-16.925,0c10.675,-8.854 27.342,-38.283 27.604,-39.846c0,-0.258 0.259,-0.521 0.259,-0.779c-0,-1.042 -1.042,-1.825 -1.821,-1.825c-1.304,0 -6.771,0.521 -9.117,0.521c-2.342,-0 -3.904,-0.521 -4.946,-0.521c-1.304,0 -3.125,0.521 -3.125,2.604c0,16.667 -13.541,35.679 -16.929,40.367c-0.521,0.521 -1.042,1.3 -1.042,2.083c0,1.3 1.042,2.604 2.605,2.604l23.437,0l0,8.071c0,3.646 -2.083,4.688 -4.167,4.688c-2.341,-0 -3.383,1.041 -3.383,2.346c0,1.299 0.521,2.862 2.863,2.862l22.395,-0c1.305,-0 2.605,-1.042 2.605,-2.863c-0,-1.825 -1.563,-2.604 -2.863,-2.604c-1.304,0 -4.167,-0.783 -4.167,-4.95l0,-7.55l9.634,0c1.304,0 2.083,-1.041 2.083,-2.604c0,-1.562 -0.521,-2.604 -2.083,-2.604l-9.634,-0" style="fill-rule:nonzero;"/></g><g><path d="M6479.16,237.338c0,-1.825 -0.783,-2.084 -1.562,-2.084c-1.042,0 -1.563,0.779 -1.825,1.563c-1.3,3.646 -4.167,8.333 -8.071,8.333c-0.521,0 -1.042,0 -1.563,-0.262l-3.908,-1.3c-2.604,-1.042 -8.854,-3.125 -14.063,-3.125c-1.82,-0 -3.383,0.258 -4.945,0.779c2.862,-4.946 16.404,-11.459 19.27,-12.238c9.375,-1.304 17.188,-6.771 17.188,-16.929c-0,-6.25 -2.604,-10.417 -5.992,-13.542c-6.771,-5.466 -16.666,-6.25 -19.529,-6.25c-9.375,0 -16.929,0.521 -23.7,8.334c-1.821,2.083 -2.604,4.166 -2.604,6.25c-0,1.825 0.783,3.908 1.562,6.25c1.563,3.125 4.95,5.471 8.596,5.471c6.509,-0 7.292,-6.25 7.292,-9.117c-0,-5.988 -6.513,-6.508 -6.513,-9.113c0,-1.825 2.605,-4.95 10.417,-4.95c12.242,0 16.408,10.159 16.408,13.284c0,4.687 -1.562,9.112 -4.166,12.758c-4.688,5.992 -13.284,8.075 -19.792,12.242c-7.292,4.425 -12.242,11.979 -14.583,20.312c-0,1.821 0.779,3.904 2.341,4.688c0.263,0.258 0.784,0.258 1.042,0.258c2.867,0 4.429,-8.071 12.242,-8.071c5.208,0 7.029,7.029 18.75,7.029c5.466,0 15.625,-0.52 17.708,-20.57" style="fill-rule:nonzero;"/></g><g><path d="M6591.45,243.696c-0,-0 -0.263,1.042 -0.263,1.825c0,1.042 1.042,2.083 2.084,2.083c0.783,0 1.304,-0.783 1.562,-1.041c0.263,-0.784 3.388,-11.459 4.95,-14.063c0.521,-1.042 1.042,-1.304 1.3,-1.304c0.521,-0 0.783,1.042 0.783,1.825l0,37.237c0,3.125 -2.604,4.95 -5.208,4.95c-1.042,0 -2.346,0.521 -2.346,2.084c0,1.562 1.304,2.083 3.388,2.083l21.875,0c2.083,0 2.083,-2.083 2.083,-2.083c0,-0 0,-2.084 -2.083,-2.084c-1.825,0 -4.167,-2.345 -4.167,-4.687l0,-54.167c0,-2.083 -0.783,-3.125 -2.604,-3.125c-1.825,0 -3.388,0.521 -4.95,0.521c-2.604,0 -3.125,0 -5.208,-0.521c-1.042,0 -2.342,1.563 -3.125,2.604l-8.071,27.863" style="fill-rule:nonzero;"/></g><g><path d="M6773.28,268.55l0,-27.867c0,-1.3 -0.258,-2.341 -1.562,-2.341c-1.042,-0 -1.821,0.258 -2.605,1.3l-7.812,15.104c-0.521,0.521 -1.3,1.304 -1.3,3.125l-0,10.679l-16.929,0c10.679,-8.854 27.346,-38.283 27.604,-39.846c-0,-0.258 0.262,-0.521 0.262,-0.779c0,-1.042 -1.041,-1.825 -1.825,-1.825c-1.3,0 -6.77,0.521 -9.112,0.521c-2.346,-0 -3.908,-0.521 -4.95,-0.521c-1.3,0 -3.125,0.521 -3.125,2.604c-0,16.667 -13.542,35.679 -16.925,40.367c-0.521,0.521 -1.042,1.3 -1.042,2.083c0,1.3 1.042,2.604 2.604,2.604l23.438,0l-0,8.071c-0,3.646 -2.083,4.688 -4.167,4.688c-2.346,-0 -3.387,1.041 -3.387,2.346c-0,1.299 0.521,2.862 2.866,2.862l22.396,-0c1.3,-0 2.604,-1.042 2.604,-2.863c0,-1.825 -1.562,-2.604 -2.866,-2.604c-1.3,0 -4.167,-0.783 -4.167,-4.95l0,-7.55l9.638,0c1.3,0 2.083,-1.041 2.083,-2.604c-0,-1.562 -0.521,-2.604 -2.083,-2.604l-9.638,-0" style="fill-rule:nonzero;"/></g><g><path d="M386.939,808.913c23.175,-0 51.563,-21.355 51.563,-43.488c-0,-13.283 -10.417,-21.617 -25.263,-21.617c-28.646,0 -51.562,21.096 -51.562,43.492c-0,13.542 11.2,21.613 25.262,21.613" style="fill-rule:nonzero;"/></g><g><path d="M500.773,765.163c-0,-0 -0.784,-15.625 -0.784,-26.042c0,-4.167 0.263,-7.292 0.521,-8.333c1.825,-5.209 12.242,-12.759 18.229,-12.759c7.554,0 10.679,8.592 10.679,15.104c0,14.063 -11.979,28.125 -23.179,35.155c-1.041,0.52 -1.821,0.783 -2.604,0.783c-2.342,-0 -2.862,-2.604 -2.862,-3.908m-9.117,23.179c0.783,1.041 1.562,1.3 2.346,1.3c0.779,-0 1.562,-0.521 1.562,-0.521c7.813,-4.425 14.063,-11.458 20.571,-15.883c23.179,-16.146 31.25,-32.034 31.25,-44.013c0,-14.842 -11.458,-24.217 -23.437,-25c-4.425,0 -10.675,2.083 -14.321,4.429c-1.563,1.3 -4.429,3.646 -5.729,3.646c-0.521,0 -0.784,0 -1.305,-0.262c-1.82,-0.78 -2.862,-2.605 -2.862,-4.425c0.258,-5.73 1.821,-68.23 1.821,-73.438c-0,-2.867 -2.342,-4.429 -4.946,-4.429c-3.646,-0 -7.813,2.604 -8.075,7.292c-0,-0 1.042,148.7 3.125,151.304" style="fill-rule:nonzero;"/></g><g><path d="M588.735,776.621c23.175,-0 51.563,-21.354 51.563,-43.488c-0,-13.283 -10.417,-21.616 -25.263,-21.616c-28.646,-0 -51.562,21.096 -51.562,43.491c-0,13.542 11.2,21.613 25.262,21.613" style="fill-rule:nonzero;"/></g><g><path d="M702.568,732.871c0,-0 -0.779,-15.625 -0.779,-26.042c0,-4.166 0.259,-7.291 0.521,-8.333c1.821,-5.208 12.238,-12.758 18.229,-12.758c7.55,-0 10.675,8.591 10.675,15.104c0,14.062 -11.979,28.125 -23.175,35.154c-1.041,0.521 -1.825,0.783 -2.604,0.783c-2.346,0 -2.867,-2.604 -2.867,-3.908m-9.112,23.179c0.779,1.042 1.562,1.3 2.342,1.3c0.783,0 1.562,-0.521 1.562,-0.521c7.813,-4.425 14.063,-11.458 20.575,-15.883c23.175,-16.146 31.25,-32.033 31.25,-44.013c0,-14.841 -11.458,-24.216 -23.437,-25c-4.43,0 -10.68,2.084 -14.325,4.43c-1.563,1.3 -4.425,3.645 -5.73,3.645c-0.52,0 -0.779,0 -1.3,-0.262c-1.825,-0.779 -2.866,-2.604 -2.866,-4.425c0.262,-5.729 1.825,-68.229 1.825,-73.438c-0,-2.866 -2.346,-4.429 -4.95,-4.429c-3.646,0 -7.813,2.604 -8.071,7.292c-0,-0 1.042,148.7 3.125,151.304" style="fill-rule:nonzero;"/></g><g><path d="M790.531,744.329c23.175,0 51.562,-21.354 51.562,-43.487c0,-13.284 -10.416,-21.617 -25.262,-21.617c-28.646,0 -51.563,21.096 -51.563,43.492c0,13.541 11.2,21.612 25.263,21.612" style="fill-rule:nonzero;"/></g><g><path d="M901.768,701.621c0,-3.646 15.884,-10.417 22.134,-10.417c1.562,0 2.346,0.263 2.346,1.304l-0,26.821c-0,4.688 -14.846,10.679 -21.355,10.679c-1.825,0 -3.125,-0.52 -3.125,-1.562l0,-26.825m27.084,-36.979c-0.521,-0 -0.784,0.262 -1.042,0.262c0,0 -16.667,5.988 -23.437,5.988c-1.563,-0 -2.605,-0.259 -2.605,-1.3l0,-43.492c0,-1.821 -1.562,-3.125 -3.125,-3.125l-3.387,0c-1.821,0 -3.125,1.304 -3.125,3.125l-0,134.117c-0,1.562 0.783,2.341 2.083,2.341c0.263,0 1.563,-0.258 1.825,-0.52c3.646,-1.563 18.229,-7.813 25.779,-7.813c2.605,0 4.43,0.783 4.43,2.867l-0,38.8c-0,1.825 1.3,3.125 3.125,3.125l3.383,-0c1.562,-0 3.125,-1.3 3.125,-3.125l-0,-130.729c-0,-1.3 -1.042,-2.084 -2.083,-2.084c-0.259,0 -0.78,0 -1.042,0.263l-3.904,1.3" style="fill-rule:nonzero;"/></g><g><path d="M977.277,744.329c23.175,0 51.562,-21.354 51.562,-43.487c0,-13.284 -10.416,-21.617 -25.262,-21.617c-28.646,0 -51.563,21.096 -51.563,43.492c0,13.541 11.2,21.612 25.263,21.612" style="fill-rule:nonzero;"/></g><g><path d="M1122.61,691.204c-1.562,5.209 -13.804,10.417 -19.791,10.417c-1.563,-0 -2.867,-0.521 -3.125,-1.3c-0.521,-1.042 -0.784,-6.771 -0.784,-13.021c0,-8.075 0.263,-17.188 0.784,-19.271c0.52,-4.429 12.5,-9.896 19.008,-9.896c1.825,0 3.387,0.521 3.908,1.563c0.521,1.3 1.042,7.812 1.042,14.841c-0,7.034 -0.521,14.325 -1.042,16.667m17.967,-42.446c1.825,-0.783 3.125,-2.866 3.125,-4.429l-0,-18.487c-0,-1.305 -0.779,-2.084 -1.821,-2.084c-0.521,0 -0.783,0 -1.304,0.259c-0,-0 -5.208,2.083 -6.508,2.345c-1.825,0 -3.646,-1.304 -3.646,-3.387l-0,-31.771c-0,-1.562 -1.563,-2.862 -3.646,-2.862c-2.604,-0 -4.167,1.3 -4.167,2.862l0,33.854c-0.262,2.604 -1.041,5.992 -3.387,7.554c-3.125,1.821 -11.979,5.467 -16.404,6.509c-2.346,-0 -3.125,-3.125 -3.125,-5.209l-0,-31.25c-0,-1.562 -1.825,-2.862 -3.646,-2.862c-2.604,-0 -4.167,1.3 -4.167,2.862l0,35.159c0,3.646 -1.562,6.25 -3.125,7.029c-1.562,0.783 -6.771,2.867 -6.771,2.867c-1.825,0.52 -3.125,2.604 -3.125,4.166l0,18.488c0,1.562 0.779,2.346 2.084,2.346c1.041,-0 5.987,-2.346 6.77,-2.867c0.259,-0 0.521,-0.258 0.78,-0.258c1.825,-0 3.387,2.604 3.387,4.687l0,25.779c0,2.867 -1.304,5.209 -2.867,5.992c-1.562,0.521 -7.029,2.862 -7.029,2.862c-1.825,0.521 -3.125,2.605 -3.125,4.167l0,18.492c0,1.562 0.779,2.341 2.084,2.341c0.258,0 0.779,-0.258 1.041,-0.258c0,0 3.646,-1.562 5.988,-2.346c0.262,-0.258 0.521,-0.258 0.783,-0.258c1.821,-0 3.125,2.862 3.125,4.167l0,32.029c0,1.562 1.563,2.866 3.383,2.866c2.605,0 4.43,-1.304 4.43,-2.866l-0,-36.196c-0,-3.388 1.3,-5.208 2.604,-5.729l15.883,-6.513c0.263,0 0.783,-0.258 1.042,-0.258c2.083,-0 3.387,3.125 3.387,4.687l0,32.55c0,1.563 1.563,2.867 3.384,2.867c2.866,0 4.429,-1.304 4.429,-2.867l-0,-36.979c-0,-2.083 1.041,-5.208 2.862,-5.987c1.825,-0.784 7.292,-2.867 7.292,-2.867c1.825,-0.779 3.125,-2.862 3.125,-4.425l-0,-18.492c-0,-1.3 -0.779,-2.083 -1.821,-2.083c-0.521,0 -0.783,0 -1.304,0.263l-6.771,2.604c-1.562,-0 -3.383,-1.563 -3.383,-4.688l-0,-24.221c-0,-1.82 1.3,-6.77 3.383,-7.55l6.771,-2.604" style="fill-rule:nonzero;"/></g><g><path d="M1185.07,712.038c23.179,-0 51.562,-21.355 51.562,-43.488c0,-13.283 -10.417,-21.617 -25.258,-21.617c-28.646,0 -51.563,21.096 -51.563,43.492c0,13.542 11.196,21.613 25.259,21.613" style="fill-rule:nonzero;"/></g><g><path d="M1330.41,658.913c-1.562,5.208 -13.804,10.416 -19.791,10.416c-1.563,0 -2.867,-0.521 -3.125,-1.3c-0.521,-1.042 -0.784,-6.771 -0.784,-13.021c0,-8.075 0.263,-17.187 0.784,-19.271c0.52,-4.429 12.5,-9.895 19.008,-9.895c1.825,-0 3.387,0.52 3.908,1.562c0.521,1.3 1.042,7.813 1.042,14.842c-0,7.033 -0.521,14.325 -1.042,16.666m17.967,-42.445c1.825,-0.784 3.125,-2.867 3.125,-4.43l-0,-18.487c-0,-1.304 -0.779,-2.083 -1.821,-2.083c-0.521,-0 -0.783,-0 -1.304,0.258c-0,-0 -5.208,2.083 -6.508,2.346c-1.825,-0 -3.646,-1.304 -3.646,-3.388l-0,-31.771c-0,-1.562 -1.563,-2.862 -3.646,-2.862c-2.604,-0 -4.167,1.3 -4.167,2.862l0,33.855c-0.262,2.604 -1.041,5.991 -3.387,7.554c-3.125,1.821 -11.979,5.466 -16.404,6.508c-2.346,0 -3.125,-3.125 -3.125,-5.208l-0,-31.25c-0,-1.563 -1.825,-2.863 -3.646,-2.863c-2.604,0 -4.167,1.3 -4.167,2.863l0,35.158c0,3.646 -1.562,6.25 -3.125,7.029c-1.562,0.784 -6.771,2.867 -6.771,2.867c-1.825,0.521 -3.125,2.604 -3.125,4.167l0,18.487c0,1.563 0.779,2.346 2.084,2.346c1.041,-0 5.987,-2.346 6.77,-2.867c0.259,0 0.521,-0.258 0.78,-0.258c1.825,-0 3.387,2.604 3.387,4.687l0,25.78c0,2.866 -1.304,5.208 -2.867,5.991c-1.562,0.521 -7.029,2.863 -7.029,2.863c-1.825,0.521 -3.125,2.604 -3.125,4.166l0,18.492c0,1.563 0.779,2.342 2.084,2.342c0.258,-0 0.779,-0.259 1.041,-0.259c0,0 3.646,-1.562 5.988,-2.345c0.262,-0.259 0.521,-0.259 0.783,-0.259c1.821,0 3.125,2.863 3.125,4.167l0,32.029c0,1.563 1.563,2.867 3.383,2.867c2.605,-0 4.43,-1.304 4.43,-2.867l-0,-36.196c-0,-3.387 1.3,-5.208 2.604,-5.729l15.883,-6.512c0.263,-0 0.783,-0.259 1.042,-0.259c2.083,0 3.387,3.125 3.387,4.688l0,32.55c0,1.562 1.563,2.866 3.384,2.866c2.866,0 4.429,-1.304 4.429,-2.866l-0,-36.979c-0,-2.084 1.041,-5.209 2.862,-5.988c1.825,-0.783 7.292,-2.866 7.292,-2.866c1.825,-0.78 3.125,-2.863 3.125,-4.426l-0,-18.491c-0,-1.3 -0.779,-2.083 -1.821,-2.083c-0.521,-0 -0.783,-0 -1.304,0.262l-6.771,2.604c-1.562,0 -3.383,-1.562 -3.383,-4.687l-0,-24.221c-0,-1.821 1.3,-6.771 3.383,-7.55l6.771,-2.604" style="fill-rule:nonzero;"/></g><g><path d="M1392.87,679.746c23.179,-0 51.562,-21.354 51.562,-43.488c0,-13.283 -10.417,-21.616 -25.258,-21.616c-28.646,-0 -51.563,21.096 -51.563,43.491c0,13.542 11.196,21.613 25.259,21.613" style="fill-rule:nonzero;"/></g><g><path d="M1545.92,615.163c23.175,-0 51.562,-21.355 51.562,-43.488c0,-13.283 -10.417,-21.617 -25.262,-21.617c-28.646,0 -51.563,21.096 -51.563,43.492c0,13.542 11.2,21.613 25.263,21.613" style="fill-rule:nonzero;"/></g><g><path d="M1698.96,582.871c23.175,-0 51.562,-21.354 51.562,-43.488c0,-13.283 -10.416,-21.616 -25.262,-21.616c-28.646,-0 -51.563,21.096 -51.563,43.491c0,13.542 11.2,21.613 25.263,21.613" style="fill-rule:nonzero;"/></g><g><path d="M1786.96,539.121c0,-0 -0.783,-15.625 -0.783,-26.042c-0,-4.166 0.262,-7.291 0.521,-8.333c1.825,-5.208 12.241,-12.758 18.229,-12.758c7.554,-0 10.679,8.591 10.679,15.104c0,14.062 -11.979,28.125 -23.179,35.154c-1.042,0.521 -1.825,0.783 -2.604,0.783c-2.346,0 -2.867,-2.604 -2.867,-3.908m-9.112,23.179c0.783,1.042 1.562,1.3 2.345,1.3c0.78,0 1.563,-0.521 1.563,-0.521c7.812,-4.425 14.062,-11.458 20.571,-15.883c23.179,-16.146 31.25,-32.033 31.25,-44.013c-0,-14.841 -11.459,-24.216 -23.438,-25c-4.429,0 -10.679,2.084 -14.325,4.43c-1.562,1.3 -4.425,3.645 -5.729,3.645c-0.521,0 -0.779,0 -1.3,-0.262c-1.825,-0.779 -2.867,-2.604 -2.867,-4.425c0.263,-5.729 1.825,-68.229 1.825,-73.438c0,-2.866 -2.345,-4.429 -4.95,-4.429c-3.645,0 -7.812,2.604 -8.07,7.292c-0,-0 1.041,148.7 3.125,151.304" style="fill-rule:nonzero;"/></g><g><path d="M1874.92,550.579c23.175,0 51.563,-21.354 51.563,-43.487c-0,-13.284 -10.417,-21.617 -25.263,-21.617c-28.645,0 -51.562,21.096 -51.562,43.492c-0,13.541 11.2,21.612 25.262,21.612" style="fill-rule:nonzero;"/></g><g><path d="M1963.06,506.829c-0,0 -0.779,-15.625 -0.779,-26.041c-0,-4.167 0.258,-7.292 0.521,-8.334c1.82,-5.208 12.237,-12.758 18.229,-12.758c7.55,-0 10.675,8.592 10.675,15.104c-0,14.063 -11.979,28.125 -23.175,35.154c-1.042,0.521 -1.825,0.784 -2.604,0.784c-2.346,-0 -2.867,-2.605 -2.867,-3.909m-9.113,23.179c0.78,1.042 1.563,1.3 2.342,1.3c0.783,0 1.563,-0.52 1.563,-0.52c7.812,-4.425 14.062,-11.459 20.575,-15.884c23.175,-16.146 31.25,-32.033 31.25,-44.012c-0,-14.842 -11.459,-24.217 -23.438,-25c-4.429,-0 -10.679,2.083 -14.325,4.429c-1.562,1.3 -4.425,3.646 -5.729,3.646c-0.521,-0 -0.779,-0 -1.3,-0.263c-1.825,-0.779 -2.867,-2.604 -2.867,-4.425c0.263,-5.729 1.825,-68.229 1.825,-73.437c0,-2.867 -2.346,-4.429 -4.95,-4.429c-3.646,-0 -7.812,2.604 -8.071,7.291c0,0 1.042,148.7 3.125,151.304" style="fill-rule:nonzero;"/></g><g><path d="M2051.01,518.288c23.179,-0 51.563,-21.355 51.563,-43.488c-0,-13.283 -10.417,-21.617 -25.259,-21.617c-28.646,0 -51.562,21.096 -51.562,43.492c-0,13.542 11.196,21.613 25.258,21.613" style="fill-rule:nonzero;"/></g><g><path d="M2136.55,475.579c-0,-3.646 15.883,-10.416 22.133,-10.416c1.562,-0 2.346,0.262 2.346,1.304l-0,26.821c-0,4.687 -14.846,10.679 -21.354,10.679c-1.825,-0 -3.125,-0.521 -3.125,-1.563l-0,-26.825m27.083,-36.979c-0.521,0 -0.783,0.263 -1.042,0.263c0,-0 -16.666,5.987 -23.437,5.987c-1.563,0 -2.604,-0.258 -2.604,-1.3l-0,-43.492c-0,-1.82 -1.563,-3.125 -3.125,-3.125l-3.388,0c-1.821,0 -3.125,1.305 -3.125,3.125l0,134.117c0,1.563 0.783,2.342 2.083,2.342c0.263,-0 1.563,-0.259 1.825,-0.521c3.646,-1.563 18.23,-7.813 25.78,-7.813c2.604,0 4.429,0.784 4.429,2.867l-0,38.8c-0,1.825 1.3,3.125 3.125,3.125l3.383,0c1.563,0 3.125,-1.3 3.125,-3.125l0,-130.729c0,-1.3 -1.042,-2.083 -2.083,-2.083c-0.259,-0 -0.779,-0 -1.042,0.262l-3.904,1.3" style="fill-rule:nonzero;"/></g><g><path d="M2212.05,518.288c23.179,-0 51.562,-21.355 51.562,-43.488c0,-13.283 -10.416,-21.617 -25.258,-21.617c-28.646,0 -51.563,21.096 -51.563,43.492c0,13.542 11.196,21.613 25.259,21.613" style="fill-rule:nonzero;"/></g><g><path d="M2331.7,465.163c-1.563,5.208 -13.8,10.416 -19.792,10.416c-1.562,0 -2.862,-0.521 -3.125,-1.3c-0.521,-1.041 -0.779,-6.771 -0.779,-13.021c-0,-8.075 0.258,-17.187 0.779,-19.27c0.521,-4.43 12.5,-9.896 19.013,-9.896c1.82,-0 3.383,0.521 3.904,1.562c0.521,1.3 1.041,7.813 1.041,14.842c0,7.033 -0.52,14.325 -1.041,16.667m17.971,-42.446c1.82,-0.784 3.125,-2.867 3.125,-4.429l-0,-18.488c-0,-1.304 -0.784,-2.083 -1.825,-2.083c-0.521,-0 -0.78,-0 -1.3,0.258c-0,0 -5.209,2.083 -6.513,2.346c-1.821,-0 -3.646,-1.304 -3.646,-3.388l0,-31.77c0,-1.563 -1.562,-2.863 -3.646,-2.863c-2.604,0 -4.166,1.3 -4.166,2.863l-0,33.854c-0.259,2.604 -1.042,5.991 -3.384,7.554c-3.125,1.821 -11.979,5.467 -16.408,6.508c-2.342,0 -3.125,-3.125 -3.125,-5.208l0,-31.25c0,-1.563 -1.821,-2.863 -3.646,-2.863c-2.604,0 -4.166,1.3 -4.166,2.863l-0,35.158c-0,3.646 -1.563,6.25 -3.125,7.029c-1.563,0.784 -6.771,2.867 -6.771,2.867c-1.821,0.521 -3.125,2.604 -3.125,4.167l-0,18.487c-0,1.563 0.783,2.346 2.083,2.346c1.042,0 5.992,-2.346 6.771,-2.867c0.262,0 0.521,-0.258 0.783,-0.258c1.821,0 3.384,2.604 3.384,4.688l-0,25.779c-0,2.866 -1.3,5.208 -2.863,5.991c-1.562,0.521 -7.033,2.863 -7.033,2.863c-1.821,0.521 -3.125,2.604 -3.125,4.167l-0,18.491c-0,1.563 0.783,2.342 2.083,2.342c0.263,-0 0.783,-0.258 1.042,-0.258c-0,-0 3.646,-1.563 5.991,-2.346c0.259,-0.259 0.521,-0.259 0.78,-0.259c1.825,0 3.125,2.863 3.125,4.167l-0,32.029c-0,1.563 1.562,2.867 3.387,2.867c2.604,-0 4.425,-1.304 4.425,-2.867l0,-36.196c0,-3.387 1.304,-5.208 2.604,-5.729l15.888,-6.512c0.258,-0 0.779,-0.259 1.041,-0.259c2.084,0 3.384,3.125 3.384,4.688l-0,32.55c-0,1.562 1.562,2.867 3.387,2.867c2.863,-0 4.425,-1.305 4.425,-2.867l0,-36.979c0,-2.084 1.042,-5.209 2.867,-5.988c1.821,-0.783 7.292,-2.866 7.292,-2.866c1.82,-0.78 3.125,-2.863 3.125,-4.425l-0,-18.492c-0,-1.3 -0.784,-2.083 -1.825,-2.083c-0.521,-0 -0.78,-0 -1.3,0.262l-6.771,2.604c-1.563,0 -3.388,-1.562 -3.388,-4.687l0,-24.221c0,-1.821 1.304,-6.771 3.388,-7.55l6.771,-2.604" style="fill-rule:nonzero;"/></g><g><path d="M2394.15,485.996c23.175,-0 51.562,-21.354 51.562,-43.488c0,-13.283 -10.416,-21.616 -25.262,-21.616c-28.646,-0 -51.563,21.096 -51.563,43.491c0,13.542 11.2,21.613 25.263,21.613" style="fill-rule:nonzero;"/></g><g><path d="M2632.52,432.871c-1.563,5.208 -13.805,10.417 -19.792,10.417c-1.563,-0 -2.867,-0.521 -3.125,-1.3c-0.521,-1.042 -0.783,-6.771 -0.783,-13.021c-0,-8.075 0.262,-17.188 0.783,-19.271c0.521,-4.429 12.5,-9.896 19.008,-9.896c1.825,0 3.388,0.521 3.909,1.563c0.52,1.3 1.041,7.812 1.041,14.841c0,7.034 -0.521,14.325 -1.041,16.667m17.966,-42.446c1.825,-0.783 3.125,-2.867 3.125,-4.429l0,-18.488c0,-1.304 -0.779,-2.083 -1.821,-2.083c-0.52,0 -0.783,0 -1.304,0.258c0,0 -5.208,2.084 -6.508,2.346c-1.825,0 -3.646,-1.304 -3.646,-3.387l0,-31.771c0,-1.563 -1.562,-2.863 -3.646,-2.863c-2.604,0 -4.166,1.3 -4.166,2.863l-0,33.854c-0.263,2.604 -1.042,5.992 -3.388,7.554c-3.125,1.821 -11.979,5.467 -16.404,6.509c-2.346,-0 -3.125,-3.125 -3.125,-5.209l-0,-31.25c-0,-1.562 -1.825,-2.862 -3.646,-2.862c-2.604,-0 -4.167,1.3 -4.167,2.862l0,35.159c0,3.645 -1.562,6.25 -3.125,7.029c-1.562,0.783 -6.77,2.866 -6.77,2.866c-1.825,0.521 -3.125,2.605 -3.125,4.167l-0,18.488c-0,1.562 0.779,2.345 2.083,2.345c1.042,0 5.987,-2.345 6.771,-2.866c0.258,-0 0.521,-0.259 0.779,-0.259c1.825,0 3.387,2.605 3.387,4.688l0,25.779c0,2.867 -1.304,5.208 -2.866,5.992c-1.563,0.521 -7.029,2.862 -7.029,2.862c-1.825,0.521 -3.125,2.604 -3.125,4.167l-0,18.492c-0,1.562 0.779,2.341 2.083,2.341c0.258,0 0.779,-0.258 1.042,-0.258c-0,-0 3.645,-1.563 5.987,-2.346c0.263,-0.258 0.521,-0.258 0.783,-0.258c1.821,-0 3.125,2.862 3.125,4.166l0,32.03c0,1.562 1.563,2.866 3.384,2.866c2.604,0 4.429,-1.304 4.429,-2.866l-0,-36.196c-0,-3.388 1.3,-5.209 2.604,-5.729l15.883,-6.513c0.263,0 0.784,-0.258 1.042,-0.258c2.083,-0 3.388,3.125 3.388,4.687l-0,32.55c-0,1.563 1.562,2.867 3.383,2.867c2.867,-0 4.429,-1.304 4.429,-2.867l0,-36.979c0,-2.083 1.042,-5.208 2.863,-5.987c1.825,-0.784 7.291,-2.867 7.291,-2.867c1.825,-0.779 3.125,-2.863 3.125,-4.425l0,-18.492c0,-1.3 -0.779,-2.083 -1.821,-2.083c-0.52,-0 -0.783,-0 -1.304,0.262l-6.771,2.605c-1.562,-0 -3.383,-1.563 -3.383,-4.688l0,-24.221c0,-1.821 1.3,-6.771 3.383,-7.55l6.771,-2.604" style="fill-rule:nonzero;"/></g><g><path d="M2694.99,453.704c23.175,0 51.563,-21.354 51.563,-43.487c-0,-13.284 -10.417,-21.617 -25.263,-21.617c-28.646,0 -51.562,21.096 -51.562,43.492c-0,13.541 11.2,21.612 25.262,21.612" style="fill-rule:nonzero;"/></g><g><path d="M2848.03,389.121c23.175,-0 51.562,-21.354 51.562,-43.488c0,-13.283 -10.416,-21.616 -25.262,-21.616c-28.646,-0 -51.563,21.096 -51.563,43.491c0,13.542 11.2,21.613 25.263,21.613" style="fill-rule:nonzero;"/></g><g><path d="M3001.06,356.829c23.175,0 51.563,-21.354 51.563,-43.487c-0,-13.284 -10.417,-21.617 -25.263,-21.617c-28.646,0 -51.562,21.096 -51.562,43.492c-0,13.541 11.2,21.612 25.262,21.612" style="fill-rule:nonzero;"/></g><g><path d="M3089.2,313.079c-0,0 -0.779,-15.625 -0.779,-26.041c-0,-4.167 0.258,-7.292 0.52,-8.334c1.821,-5.208 12.238,-12.758 18.23,-12.758c7.55,-0 10.675,8.591 10.675,15.104c-0,14.063 -11.98,28.125 -23.175,35.154c-1.042,0.521 -1.825,0.784 -2.605,0.784c-2.345,-0 -2.866,-2.605 -2.866,-3.909m-9.113,23.179c0.779,1.042 1.563,1.3 2.342,1.3c0.783,0 1.562,-0.521 1.562,-0.521c7.813,-4.424 14.063,-11.458 20.575,-15.883c23.175,-16.146 31.25,-32.033 31.25,-44.012c0,-14.842 -11.458,-24.217 -23.437,-25c-4.429,-0 -10.679,2.083 -14.325,4.429c-1.563,1.3 -4.425,3.646 -5.729,3.646c-0.521,-0 -0.779,-0 -1.3,-0.263c-1.825,-0.779 -2.867,-2.604 -2.867,-4.425c0.263,-5.729 1.825,-68.229 1.825,-73.437c0,-2.867 -2.346,-4.43 -4.95,-4.43c-3.646,0 -7.812,2.605 -8.071,7.292c0,0 1.042,148.7 3.125,151.304" style="fill-rule:nonzero;"/></g><g><path d="M3177.16,324.538c23.179,-0 51.562,-21.355 51.562,-43.488c0,-13.283 -10.416,-21.617 -25.258,-21.617c-28.646,0 -51.562,21.096 -51.562,43.492c-0,13.542 11.195,21.613 25.258,21.613" style="fill-rule:nonzero;"/></g><g><path d="M3291,280.788c-0,-0 -0.78,-15.625 -0.78,-26.042c0,-4.167 0.259,-7.292 0.521,-8.333c1.821,-5.209 12.238,-12.759 18.229,-12.759c7.55,0 10.675,8.592 10.675,15.104c0,14.063 -11.979,28.125 -23.175,35.155c-1.041,0.52 -1.825,0.783 -2.604,0.783c-2.346,-0 -2.866,-2.604 -2.866,-3.909m-9.113,23.18c0.779,1.041 1.563,1.3 2.342,1.3c0.783,-0 1.562,-0.521 1.562,-0.521c7.813,-4.425 14.063,-11.459 20.575,-15.883c23.175,-16.146 31.25,-32.034 31.25,-44.013c0,-14.842 -11.458,-24.217 -23.437,-25c-4.429,-0 -10.679,2.083 -14.325,4.429c-1.563,1.3 -4.425,3.646 -5.729,3.646c-0.521,-0 -0.78,-0 -1.3,-0.263c-1.825,-0.779 -2.867,-2.604 -2.867,-4.425c0.262,-5.729 1.825,-68.229 1.825,-73.437c-0,-2.867 -2.346,-4.429 -4.95,-4.429c-3.646,-0 -7.813,2.604 -8.071,7.292c0,-0 1.042,148.7 3.125,151.304" style="fill-rule:nonzero;"/></g><g><path d="M3378.96,292.246c23.175,-0 51.562,-21.354 51.562,-43.488c0,-13.283 -10.416,-21.616 -25.262,-21.616c-28.646,-0 -51.563,21.096 -51.563,43.491c0,13.542 11.2,21.613 25.263,21.613" style="fill-rule:nonzero;"/></g><g><path d="M3490.19,249.538c0,-3.646 15.884,-10.417 22.134,-10.417c1.562,-0 2.346,0.262 2.346,1.304l-0,26.821c-0,4.687 -14.846,10.679 -21.355,10.679c-1.825,0 -3.125,-0.521 -3.125,-1.563l0,-26.825m27.084,-36.979c-0.521,0 -0.784,0.263 -1.042,0.263c0,-0 -16.667,5.987 -23.437,5.987c-1.563,0 -2.605,-0.258 -2.605,-1.3l0,-43.491c0,-1.821 -1.562,-3.125 -3.125,-3.125l-3.387,-0c-1.821,-0 -3.125,1.304 -3.125,3.125l-0,134.116c-0,1.563 0.783,2.342 2.083,2.342c0.263,0 1.563,-0.258 1.825,-0.521c3.646,-1.562 18.229,-7.812 25.779,-7.812c2.605,-0 4.43,0.783 4.43,2.866l-0,38.8c-0,1.825 1.3,3.125 3.125,3.125l3.383,0c1.562,0 3.125,-1.3 3.125,-3.125l-0,-130.729c-0,-1.3 -1.042,-2.083 -2.083,-2.083c-0.259,-0 -0.78,-0 -1.042,0.262l-3.904,1.3" style="fill-rule:nonzero;"/></g><g><path d="M3565.7,292.246c23.179,-0 51.562,-21.354 51.562,-43.488c0,-13.283 -10.417,-21.616 -25.258,-21.616c-28.646,-0 -51.563,21.096 -51.563,43.491c0,13.542 11.196,21.613 25.259,21.613" style="fill-rule:nonzero;"/></g><g><path d="M3711.03,239.121c-1.562,5.208 -13.804,10.417 -19.792,10.417c-1.562,-0 -2.866,-0.521 -3.125,-1.3c-0.52,-1.042 -0.783,-6.771 -0.783,-13.021c0,-8.075 0.263,-17.188 0.783,-19.271c0.521,-4.429 12.5,-9.896 19.009,-9.896c1.825,0 3.387,0.521 3.908,1.563c0.521,1.3 1.042,7.812 1.042,14.841c-0,7.034 -0.521,14.325 -1.042,16.667m17.967,-42.446c1.825,-0.783 3.125,-2.867 3.125,-4.429l-0,-18.488c-0,-1.304 -0.779,-2.083 -1.821,-2.083c-0.521,0 -0.783,0 -1.304,0.258c-0,0 -5.209,2.084 -6.509,2.346c-1.825,0 -3.645,-1.304 -3.645,-3.387l-0,-31.771c-0,-1.563 -1.563,-2.863 -3.646,-2.863c-2.604,0 -4.167,1.3 -4.167,2.863l0,33.854c-0.262,2.604 -1.042,5.992 -3.387,7.554c-3.125,1.821 -11.98,5.467 -16.405,6.509c-2.345,-0 -3.125,-3.125 -3.125,-5.209l0,-31.25c0,-1.562 -1.825,-2.862 -3.645,-2.862c-2.605,-0 -4.167,1.3 -4.167,2.862l-0,35.159c-0,3.645 -1.563,6.25 -3.125,7.029c-1.563,0.783 -6.771,2.866 -6.771,2.866c-1.825,0.521 -3.125,2.605 -3.125,4.167l0,18.488c0,1.562 0.779,2.345 2.083,2.345c1.042,0 5.988,-2.345 6.771,-2.866c0.259,-0 0.521,-0.259 0.779,-0.259c1.825,0 3.388,2.605 3.388,4.688l-0,25.779c-0,2.867 -1.304,5.208 -2.867,5.992c-1.562,0.521 -7.029,2.862 -7.029,2.862c-1.825,0.521 -3.125,2.604 -3.125,4.167l0,18.492c0,1.562 0.779,2.341 2.083,2.341c0.259,0 0.78,-0.258 1.042,-0.258c0,-0 3.646,-1.563 5.988,-2.346c0.262,-0.258 0.52,-0.258 0.783,-0.258c1.821,-0 3.125,2.862 3.125,4.166l-0,32.03c-0,1.562 1.562,2.866 3.383,2.866c2.604,0 4.429,-1.304 4.429,-2.866l0,-36.196c0,-3.388 1.3,-5.209 2.605,-5.729l15.883,-6.513c0.262,0 0.783,-0.258 1.042,-0.258c2.083,-0 3.387,3.125 3.387,4.687l0,32.55c0,1.563 1.563,2.867 3.383,2.867c2.867,-0 4.43,-1.304 4.43,-2.867l-0,-36.979c-0,-2.083 1.041,-5.208 2.862,-5.988c1.825,-0.783 7.292,-2.866 7.292,-2.866c1.825,-0.779 3.125,-2.863 3.125,-4.425l-0,-18.492c-0,-1.3 -0.779,-2.083 -1.821,-2.083c-0.521,-0 -0.783,-0 -1.304,0.262l-6.771,2.604c-1.563,0 -3.383,-1.562 -3.383,-4.687l-0,-24.221c-0,-1.821 1.3,-6.771 3.383,-7.55l6.771,-2.604" style="fill-rule:nonzero;"/></g><g><path d="M3773.49,259.954c23.18,0 51.563,-21.354 51.563,-43.487c-0,-13.284 -10.417,-21.617 -25.258,-21.617c-28.646,0 -51.563,21.096 -51.563,43.492c0,13.541 11.196,21.612 25.258,21.612" style="fill-rule:nonzero;"/></g><g><path d="M3918.87,206.829c-1.562,5.209 -13.804,10.417 -19.791,10.417c-1.563,-0 -2.867,-0.521 -3.125,-1.3c-0.521,-1.042 -0.784,-6.771 -0.784,-13.021c0,-8.075 0.263,-17.188 0.784,-19.271c0.521,-4.429 12.5,-9.896 19.008,-9.896c1.825,0 3.388,0.521 3.908,1.563c0.521,1.3 1.042,7.812 1.042,14.842c0,7.033 -0.521,14.325 -1.042,16.666m17.967,-42.446c1.825,-0.783 3.125,-2.866 3.125,-4.429l0,-18.487c0,-1.304 -0.779,-2.084 -1.821,-2.084c-0.521,0 -0.783,0 -1.304,0.259c0,-0 -5.208,2.083 -6.508,2.346c-1.825,-0 -3.646,-1.305 -3.646,-3.388l-0,-31.771c-0,-1.562 -1.563,-2.862 -3.646,-2.862c-2.604,-0 -4.167,1.3 -4.167,2.862l0,33.854c-0.262,2.605 -1.041,5.992 -3.387,7.555c-3.125,1.82 -11.979,5.466 -16.404,6.508c-2.346,-0 -3.125,-3.125 -3.125,-5.208l-0,-31.25c-0,-1.563 -1.825,-2.863 -3.646,-2.863c-2.604,0 -4.167,1.3 -4.167,2.863l0,35.158c0,3.646 -1.562,6.25 -3.125,7.029c-1.562,0.783 -6.771,2.867 -6.771,2.867c-1.825,0.521 -3.125,2.604 -3.125,4.166l0,18.488c0,1.562 0.78,2.346 2.084,2.346c1.041,-0 5.987,-2.346 6.771,-2.867c0.258,0 0.52,-0.258 0.779,-0.258c1.825,-0 3.387,2.604 3.387,4.687l0,25.779c0,2.867 -1.304,5.209 -2.866,5.992c-1.563,0.521 -7.03,2.863 -7.03,2.863c-1.825,0.52 -3.125,2.604 -3.125,4.166l0,18.492c0,1.562 0.78,2.342 2.084,2.342c0.258,-0 0.779,-0.259 1.041,-0.259c0,0 3.646,-1.562 5.988,-2.346c0.262,-0.258 0.521,-0.258 0.783,-0.258c1.821,0 3.125,2.863 3.125,4.167l0,32.029c0,1.562 1.563,2.867 3.384,2.867c2.604,-0 4.429,-1.305 4.429,-2.867l-0,-36.196c-0,-3.387 1.3,-5.208 2.604,-5.729l15.883,-6.513c0.263,0 0.784,-0.258 1.042,-0.258c2.083,0 3.387,3.125 3.387,4.688l0,32.55c0,1.562 1.563,2.866 3.384,2.866c2.866,0 4.429,-1.304 4.429,-2.866l-0,-36.98c-0,-2.083 1.042,-5.208 2.862,-5.987c1.825,-0.783 7.292,-2.867 7.292,-2.867c1.825,-0.779 3.125,-2.862 3.125,-4.425l0,-18.491c0,-1.3 -0.779,-2.084 -1.821,-2.084c-0.521,0 -0.783,0 -1.304,0.263l-6.771,2.604c-1.562,-0 -3.383,-1.563 -3.383,-4.688l-0,-24.22c-0,-1.821 1.3,-6.771 3.383,-7.55l6.771,-2.605" style="fill-rule:nonzero;"/></g><g><path d="M3981.29,227.663c23.179,-0 51.563,-21.355 51.563,-43.488c-0,-13.283 -10.417,-21.617 -25.259,-21.617c-28.646,0 -51.562,21.096 -51.562,43.492c-0,13.542 11.196,21.613 25.258,21.613" style="fill-rule:nonzero;"/></g><g><path d="M4134.33,163.079c23.179,0 51.562,-21.354 51.562,-43.487c0,-13.284 -10.416,-21.617 -25.258,-21.617c-28.646,0 -51.563,21.096 -51.563,43.492c0,13.541 11.196,21.612 25.259,21.612" style="fill-rule:nonzero;"/></g><g><path d="M4287.41,163.079c23.175,0 51.563,-21.354 51.563,-43.487c-0,-13.284 -10.417,-21.617 -25.263,-21.617c-28.646,0 -51.562,21.096 -51.562,43.492c-0,13.541 11.2,21.612 25.262,21.612" style="fill-rule:nonzero;"/></g><g><path d="M4440.41,227.663c23.175,-0 51.563,-21.355 51.563,-43.488c-0,-13.283 -10.417,-21.617 -25.263,-21.617c-28.646,0 -51.562,21.096 -51.562,43.492c-0,13.542 11.2,21.613 25.262,21.613" style="fill-rule:nonzero;"/></g><g><path d="M4593.45,259.954c23.179,0 51.562,-21.354 51.562,-43.487c0,-13.284 -10.416,-21.617 -25.258,-21.617c-28.646,0 -51.563,21.096 -51.563,43.492c0,13.541 11.196,21.612 25.259,21.612" style="fill-rule:nonzero;"/></g><g><path d="M4853.74,292.246c23.175,-0 51.563,-21.354 51.563,-43.488c-0,-13.283 -10.417,-21.616 -25.263,-21.616c-28.645,-0 -51.562,21.096 -51.562,43.491c-0,13.542 11.2,21.613 25.262,21.613" style="fill-rule:nonzero;"/></g><g><path d="M4967.62,280.788c0,-0 -0.783,-15.625 -0.783,-26.042c0,-4.167 0.263,-7.292 0.521,-8.333c1.825,-5.209 12.242,-12.759 18.229,-12.759c7.554,0 10.679,8.592 10.679,15.104c0,14.063 -11.979,28.125 -23.179,35.155c-1.042,0.52 -1.821,0.783 -2.604,0.783c-2.342,-0 -2.863,-2.604 -2.863,-3.909m-9.116,23.18c0.783,1.041 1.562,1.3 2.346,1.3c0.779,-0 1.562,-0.521 1.562,-0.521c7.813,-4.425 14.063,-11.459 20.571,-15.883c23.179,-16.146 31.25,-32.034 31.25,-44.013c-0,-14.842 -11.458,-24.217 -23.438,-25c-4.425,-0 -10.675,2.083 -14.32,4.429c-1.563,1.3 -4.43,3.646 -5.73,3.646c-0.52,-0 -0.783,-0 -1.304,-0.263c-1.821,-0.779 -2.862,-2.604 -2.862,-4.425c0.258,-5.729 1.821,-68.229 1.821,-73.437c-0,-2.867 -2.342,-4.429 -4.946,-4.429c-3.646,-0 -7.813,2.604 -8.075,7.292c-0,-0 1.041,148.7 3.125,151.304" style="fill-rule:nonzero;"/></g><g><path d="M5055.58,292.246c23.179,-0 51.562,-21.354 51.562,-43.488c0,-13.283 -10.416,-21.616 -25.258,-21.616c-28.646,-0 -51.563,21.096 -51.563,43.491c0,13.542 11.196,21.613 25.259,21.613" style="fill-rule:nonzero;"/></g><g><path d="M5169.41,313.079c0,0 -0.783,-15.625 -0.783,-26.041c-0,-4.167 0.262,-7.292 0.521,-8.334c1.825,-5.208 12.241,-12.758 18.229,-12.758c7.554,-0 10.679,8.591 10.679,15.104c-0,14.063 -11.979,28.125 -23.179,35.154c-1.042,0.521 -1.821,0.784 -2.604,0.784c-2.342,-0 -2.863,-2.605 -2.863,-3.909m-9.117,23.179c0.784,1.042 1.563,1.3 2.346,1.3c0.779,0 1.563,-0.521 1.563,-0.521c7.812,-4.424 14.062,-11.458 20.571,-15.883c23.179,-16.146 31.25,-32.033 31.25,-44.012c-0,-14.842 -11.459,-24.217 -23.438,-25c-4.425,-0 -10.675,2.083 -14.321,4.429c-1.562,1.3 -4.429,3.646 -5.729,3.646c-0.521,-0 -0.783,-0 -1.304,-0.263c-1.821,-0.779 -2.863,-2.604 -2.863,-4.425c0.259,-5.729 1.821,-68.229 1.821,-73.437c0,-2.867 -2.341,-4.43 -4.946,-4.43c-3.645,0 -7.812,2.605 -8.075,7.292c0,0 1.042,148.7 3.125,151.304" style="fill-rule:nonzero;"/></g><g><path d="M5257.37,324.538c23.18,-0 51.563,-21.355 51.563,-43.488c-0,-13.283 -10.417,-21.617 -25.258,-21.617c-28.646,0 -51.563,21.096 -51.563,43.492c0,13.542 11.196,21.613 25.258,21.613" style="fill-rule:nonzero;"/></g><g><path d="M5410.41,356.829c23.175,0 51.563,-21.354 51.563,-43.487c-0,-13.284 -10.417,-21.617 -25.263,-21.617c-28.646,0 -51.562,21.096 -51.562,43.492c-0,13.541 11.2,21.612 25.262,21.612" style="fill-rule:nonzero;"/></g><g><path d="M5563.45,389.121c23.175,-0 51.562,-21.354 51.562,-43.488c0,-13.283 -10.416,-21.616 -25.262,-21.616c-28.646,-0 -51.563,21.096 -51.563,43.491c0,13.542 11.2,21.613 25.263,21.613" style="fill-rule:nonzero;"/></g><g><path d="M5682.95,432.871c-1.563,5.208 -13.8,10.417 -19.792,10.417c-1.562,-0 -2.862,-0.521 -3.125,-1.3c-0.521,-1.042 -0.779,-6.771 -0.779,-13.021c-0,-8.075 0.258,-17.188 0.779,-19.271c0.521,-4.429 12.5,-9.896 19.013,-9.896c1.82,0 3.383,0.521 3.904,1.563c0.521,1.3 1.041,7.812 1.041,14.841c0,7.034 -0.52,14.325 -1.041,16.667m17.971,-42.446c1.82,-0.783 3.125,-2.867 3.125,-4.429l-0,-18.488c-0,-1.304 -0.784,-2.083 -1.825,-2.083c-0.521,0 -0.78,0 -1.3,0.258c-0,0 -5.209,2.084 -6.513,2.346c-1.821,0 -3.646,-1.304 -3.646,-3.387l0,-31.771c0,-1.563 -1.562,-2.863 -3.646,-2.863c-2.604,0 -4.166,1.3 -4.166,2.863l-0,33.854c-0.259,2.604 -1.042,5.992 -3.384,7.554c-3.125,1.821 -11.979,5.467 -16.408,6.509c-2.342,-0 -3.125,-3.125 -3.125,-5.209l0,-31.25c0,-1.562 -1.821,-2.862 -3.646,-2.862c-2.604,-0 -4.166,1.3 -4.166,2.862l-0,35.159c-0,3.645 -1.563,6.25 -3.125,7.029c-1.563,0.783 -6.771,2.866 -6.771,2.866c-1.821,0.521 -3.125,2.605 -3.125,4.167l-0,18.488c-0,1.562 0.783,2.345 2.083,2.345c1.042,0 5.992,-2.345 6.771,-2.866c0.262,-0 0.521,-0.259 0.783,-0.259c1.821,0 3.384,2.605 3.384,4.688l-0,25.779c-0,2.867 -1.3,5.208 -2.863,5.992c-1.562,0.521 -7.033,2.862 -7.033,2.862c-1.821,0.521 -3.125,2.604 -3.125,4.167l-0,18.492c-0,1.562 0.783,2.341 2.083,2.341c0.263,0 0.783,-0.258 1.042,-0.258c-0,-0 3.646,-1.563 5.991,-2.346c0.259,-0.258 0.521,-0.258 0.78,-0.258c1.825,-0 3.125,2.862 3.125,4.166l-0,32.03c-0,1.562 1.562,2.866 3.387,2.866c2.604,0 4.425,-1.304 4.425,-2.866l0,-36.196c0,-3.388 1.304,-5.209 2.604,-5.729l15.888,-6.513c0.258,0 0.779,-0.258 1.041,-0.258c2.084,-0 3.384,3.125 3.384,4.687l-0,32.55c-0,1.563 1.562,2.867 3.387,2.867c2.863,-0 4.425,-1.304 4.425,-2.867l0,-36.979c0,-2.083 1.042,-5.208 2.867,-5.987c1.821,-0.784 7.292,-2.867 7.292,-2.867c1.82,-0.779 3.125,-2.863 3.125,-4.425l-0,-18.492c-0,-1.3 -0.784,-2.083 -1.825,-2.083c-0.521,-0 -0.78,-0 -1.3,0.262l-6.771,2.605c-1.563,-0 -3.388,-1.563 -3.388,-4.688l0,-24.221c0,-1.821 1.304,-6.771 3.388,-7.55l6.771,-2.604" style="fill-rule:nonzero;"/></g><g><path d="M5745.41,453.704c23.175,0 51.563,-21.354 51.563,-43.487c-0,-13.284 -10.417,-21.617 -25.263,-21.617c-28.646,0 -51.562,21.096 -51.562,43.492c-0,13.541 11.2,21.612 25.262,21.612" style="fill-rule:nonzero;"/></g><g><path d="M5864.91,465.163c-1.562,5.208 -13.804,10.416 -19.792,10.416c-1.562,0 -2.866,-0.521 -3.125,-1.3c-0.52,-1.041 -0.783,-6.771 -0.783,-13.021c0,-8.075 0.263,-17.187 0.783,-19.27c0.521,-4.43 12.5,-9.896 19.009,-9.896c1.825,-0 3.387,0.521 3.908,1.562c0.521,1.3 1.042,7.813 1.042,14.842c-0,7.033 -0.521,14.325 -1.042,16.667m17.967,-42.446c1.825,-0.784 3.125,-2.867 3.125,-4.429l-0,-18.488c-0,-1.304 -0.779,-2.083 -1.821,-2.083c-0.521,-0 -0.783,-0 -1.304,0.258c-0,0 -5.209,2.083 -6.509,2.346c-1.825,-0 -3.645,-1.304 -3.645,-3.388l-0,-31.77c-0,-1.563 -1.563,-2.863 -3.646,-2.863c-2.604,0 -4.167,1.3 -4.167,2.863l0,33.854c-0.262,2.604 -1.042,5.991 -3.387,7.554c-3.125,1.821 -11.98,5.467 -16.405,6.508c-2.345,0 -3.125,-3.125 -3.125,-5.208l0,-31.25c0,-1.563 -1.825,-2.863 -3.645,-2.863c-2.605,0 -4.167,1.3 -4.167,2.863l-0,35.158c-0,3.646 -1.563,6.25 -3.125,7.029c-1.563,0.784 -6.771,2.867 -6.771,2.867c-1.825,0.521 -3.125,2.604 -3.125,4.167l0,18.487c0,1.563 0.779,2.346 2.083,2.346c1.042,0 5.988,-2.346 6.771,-2.867c0.259,0 0.521,-0.258 0.779,-0.258c1.825,0 3.388,2.604 3.388,4.688l-0,25.779c-0,2.866 -1.304,5.208 -2.867,5.991c-1.562,0.521 -7.029,2.863 -7.029,2.863c-1.825,0.521 -3.125,2.604 -3.125,4.167l0,18.491c0,1.563 0.779,2.342 2.083,2.342c0.259,-0 0.78,-0.258 1.042,-0.258c0,-0 3.646,-1.563 5.988,-2.346c0.262,-0.259 0.52,-0.259 0.783,-0.259c1.821,0 3.125,2.863 3.125,4.167l-0,32.029c-0,1.563 1.562,2.867 3.383,2.867c2.604,-0 4.429,-1.304 4.429,-2.867l0,-36.196c0,-3.387 1.3,-5.208 2.605,-5.729l15.883,-6.512c0.262,-0 0.783,-0.259 1.042,-0.259c2.083,0 3.387,3.125 3.387,4.688l0,32.55c0,1.562 1.563,2.867 3.383,2.867c2.867,-0 4.43,-1.305 4.43,-2.867l-0,-36.979c-0,-2.084 1.041,-5.209 2.862,-5.988c1.825,-0.783 7.292,-2.866 7.292,-2.866c1.825,-0.78 3.125,-2.863 3.125,-4.425l-0,-18.492c-0,-1.3 -0.779,-2.083 -1.821,-2.083c-0.521,-0 -0.783,-0 -1.304,0.262l-6.771,2.604c-1.563,0 -3.383,-1.562 -3.383,-4.687l-0,-24.221c-0,-1.821 1.3,-6.771 3.383,-7.55l6.771,-2.604" style="fill-rule:nonzero;"/></g><g><path d="M5927.37,485.996c23.175,-0 51.563,-21.354 51.563,-43.488c-0,-13.283 -10.417,-21.616 -25.263,-21.616c-28.645,-0 -51.562,21.096 -51.562,43.491c-0,13.542 11.2,21.613 25.262,21.613" style="fill-rule:nonzero;"/></g><g><path d="M6012.78,475.579c0,-3.646 15.888,-10.416 22.138,-10.416c1.562,-0 2.341,0.262 2.341,1.304l0,26.821c0,4.687 -14.841,10.679 -21.354,10.679c-1.821,-0 -3.125,-0.521 -3.125,-1.563l0,-26.825m27.083,-36.979c-0.52,0 -0.779,0.263 -1.041,0.263c-0,-0 -16.667,5.987 -23.438,5.987c-1.562,0 -2.604,-0.258 -2.604,-1.3l0,-43.492c0,-1.82 -1.562,-3.125 -3.125,-3.125l-3.383,0c-1.825,0 -3.125,1.305 -3.125,3.125l-0,134.117c-0,1.563 0.779,2.342 2.083,2.342c0.258,-0 1.563,-0.259 1.821,-0.521c3.646,-1.563 18.229,-7.813 25.783,-7.813c2.604,0 4.425,0.784 4.425,2.867l0,38.8c0,1.825 1.304,3.125 3.125,3.125l3.388,0c1.562,0 3.125,-1.3 3.125,-3.125l-0,-130.729c-0,-1.3 -1.042,-2.083 -2.084,-2.083c-0.262,-0 -0.783,-0 -1.041,0.262l-3.909,1.3" style="fill-rule:nonzero;"/></g><g><path d="M6088.28,518.288c23.179,-0 51.563,-21.355 51.563,-43.488c-0,-13.283 -10.417,-21.617 -25.259,-21.617c-28.646,0 -51.562,21.096 -51.562,43.492c-0,13.542 11.196,21.613 25.258,21.613" style="fill-rule:nonzero;"/></g><g><path d="M6176.28,506.829c0,0 -0.779,-15.625 -0.779,-26.041c-0,-4.167 0.258,-7.292 0.521,-8.334c1.821,-5.208 12.237,-12.758 18.229,-12.758c7.55,-0 10.675,8.592 10.675,15.104c-0,14.063 -11.979,28.125 -23.175,35.154c-1.042,0.521 -1.825,0.784 -2.604,0.784c-2.346,-0 -2.867,-2.605 -2.867,-3.909m-9.112,23.179c0.779,1.042 1.562,1.3 2.341,1.3c0.784,0 1.563,-0.52 1.563,-0.52c7.812,-4.425 14.062,-11.459 20.575,-15.884c23.175,-16.146 31.25,-32.033 31.25,-44.012c-0,-14.842 -11.459,-24.217 -23.438,-25c-4.429,-0 -10.679,2.083 -14.325,4.429c-1.562,1.3 -4.425,3.646 -5.729,3.646c-0.521,-0 -0.779,-0 -1.3,-0.263c-1.825,-0.779 -2.867,-2.604 -2.867,-4.425c0.263,-5.729 1.825,-68.229 1.825,-73.437c0,-2.867 -2.345,-4.429 -4.95,-4.429c-3.645,-0 -7.812,2.604 -8.07,7.291c-0,0 1.041,148.7 3.125,151.304" style="fill-rule:nonzero;"/></g><g><path d="M6264.24,518.288c23.18,-0 51.563,-21.355 51.563,-43.488c-0,-13.283 -10.417,-21.617 -25.258,-21.617c-28.646,0 -51.563,21.096 -51.563,43.492c0,13.542 11.196,21.613 25.258,21.613" style="fill-rule:nonzero;"/></g><g><path d="M6352.24,539.121c0,-0 -0.779,-15.625 -0.779,-26.042c0,-4.166 0.259,-7.291 0.521,-8.333c1.821,-5.208 12.238,-12.758 18.229,-12.758c7.55,-0 10.675,8.591 10.675,15.104c0,14.062 -11.979,28.125 -23.175,35.154c-1.041,0.521 -1.825,0.783 -2.604,0.783c-2.346,0 -2.867,-2.604 -2.867,-3.908m-9.112,23.179c0.779,1.042 1.562,1.3 2.342,1.3c0.783,0 1.562,-0.521 1.562,-0.521c7.813,-4.425 14.063,-11.458 20.575,-15.883c23.175,-16.146 31.25,-32.033 31.25,-44.013c0,-14.841 -11.458,-24.216 -23.437,-25c-4.43,0 -10.68,2.084 -14.325,4.43c-1.563,1.3 -4.425,3.645 -5.73,3.645c-0.52,0 -0.779,0 -1.3,-0.262c-1.825,-0.779 -2.866,-2.604 -2.866,-4.425c0.262,-5.729 1.825,-68.229 1.825,-73.438c-0,-2.866 -2.346,-4.429 -4.95,-4.429c-3.646,0 -7.813,2.604 -8.071,7.292c-0,-0 1.042,148.7 3.125,151.304" style="fill-rule:nonzero;"/></g><g><path d="M6440.2,550.579c23.175,0 51.562,-21.354 51.562,-43.487c0,-13.284 -10.416,-21.617 -25.262,-21.617c-28.646,0 -51.563,21.096 -51.563,43.492c0,13.541 11.2,21.612 25.263,21.612" style="fill-rule:nonzero;"/></g><g><path d="M6593.24,582.871c23.175,-0 51.563,-21.354 51.563,-43.488c-0,-13.283 -10.417,-21.616 -25.263,-21.616c-28.645,-0 -51.562,21.096 -51.562,43.491c-0,13.542 11.2,21.613 25.262,21.613" style="fill-rule:nonzero;"/></g><g><path d="M6746.28,615.163c23.179,-0 51.563,-21.355 51.563,-43.488c-0,-13.283 -10.417,-21.617 -25.259,-21.617c-28.646,0 -51.562,21.096 -51.562,43.492c-0,13.542 11.196,21.613 25.258,21.613" style="fill-rule:nonzero;"/></g><g><path d="M135.714,482.092c0.779,4.946 0.779,4.687 -3.908,6.25c-22.917,7.812 -37.763,28.383 -37.763,50.521c0,23.437 12.242,40.104 29.95,46.091c2.084,0.784 5.209,1.563 7.03,1.563c2.083,-0 3.125,-1.3 3.125,-2.863c-0,-1.825 -2.084,-2.604 -3.905,-3.387c-10.937,-4.688 -18.75,-15.884 -18.75,-27.863c0,-14.846 10.155,-26.041 26.042,-30.471c4.167,-1.041 4.688,-0.779 5.208,2.084l13.021,77.604c0.521,2.867 0.259,2.867 -3.646,3.646c-4.166,0.783 -9.375,1.304 -14.583,1.304c-45.575,-0 -75,-25.263 -75,-61.458c0,-15.367 2.604,-35.938 24.217,-60.417c15.625,-17.45 27.604,-27.083 39.846,-36.979c2.604,-2.084 3.125,-1.825 3.645,1.041l5.467,33.334m28.388,-177.346c8.591,-0 15.625,7.033 15.625,21.354c-0,28.908 -24.742,52.346 -45.313,70.313c-1.825,1.562 -2.867,1.304 -3.387,-2.084c-1.042,-6.771 -1.563,-15.625 -1.563,-23.958c0,-40.625 18.75,-65.625 34.638,-65.625m-10.417,218.75c-0.521,-3.125 -0.263,-3.904 2.862,-3.646c21.096,1.825 38.542,19.533 38.542,42.45c0,16.404 -9.896,29.688 -24.479,36.979c-3.125,1.563 -3.646,1.563 -4.167,-1.562l-12.758,-74.221m-14.063,-81.25c-0.52,-3.125 0,-3.384 1.563,-4.946c28.125,-26.304 49.479,-59.375 49.479,-99.221c0,-22.654 -6.25,-45.05 -16.929,-60.675c-3.904,-5.729 -10.675,-13.021 -13.542,-13.021c-3.646,0 -11.716,6.771 -16.925,12.5c-19.271,21.354 -25.521,53.904 -25.521,80.988c0,15.104 1.821,32.033 3.646,42.708c0.521,3.125 0.779,3.646 -2.346,6.25c-37.5,30.992 -77.341,68.229 -77.341,120.834c-0,45.312 30.987,88.283 94.791,88.283c5.988,-0 12.759,-0.521 17.967,-1.563c2.867,-0.521 3.388,-0.783 3.908,2.342c3.125,17.45 7.03,40.104 7.03,52.346c-0,38.541 -26.042,43.229 -41.405,43.229c-14.062,-0 -20.833,-4.167 -20.833,-7.554c0,-1.821 2.342,-2.604 8.333,-4.425c8.071,-2.346 17.446,-9.375 17.446,-24.479c0,-14.325 -9.112,-26.563 -25,-26.563c-17.446,0 -27.862,13.8 -27.862,29.946c-0,16.929 10.154,42.45 49.479,42.45c17.446,-0 51.3,-7.813 51.3,-52.083c-0,-14.846 -4.688,-39.584 -7.55,-55.73c-0.521,-3.125 -0.263,-2.866 3.383,-4.429c26.304,-10.416 43.75,-32.55 43.75,-61.979c0,-33.333 -24.479,-62.758 -62.758,-62.758c-6.771,-0 -6.771,-0 -7.554,-4.688l-6.509,-37.762" style="fill-rule:nonzero;"/></g><g><text x="563.373px" y="893.908px" style="font-family:'Bravura';font-size:260.417px;"></text></g><g><text x="1159.71px" y="834.738px" style="font-family:'Bravura';font-size:260.417px;"></text></g><g><text x="1685.06px" y="728.7px" style="font-family:'Bravura';font-size:260.417px;"></text></g><g><text x="2158.82px" y="809.433px" style="font-family:'Bravura';font-size:260.417px;"></text></g><g><text x="2784.27px" y="731.979px" style="font-family:'Bravura';font-size:260.417px;"></text></g><g><text x="3307.66px" y="728.704px" style="font-family:'Bravura';font-size:260.417px;"></text></g><g><text x="3890.16px" y="728.704px" style="font-family:'Bravura';font-size:260.417px;"></text></g><g><text x="4376.66px" y="728.704px" style="font-family:'Bravura';font-size:260.417px;"></text></g><g><text x="4991.78px" y="728.704px" style="font-family:'Bravura';font-size:260.417px;"></text></g><g><text x="5514.12px" y="730.313px" style="font-family:'Bravura';font-size:260.417px;"></text></g><g><text x="6032.03px" y="809.433px" style="font-family:'Bravura';font-size:260.417px;"></text></g><g><text x="6567.87px" y="728.713px" style="font-family:'Bravura';font-size:260.417px;"></text></g><g><path d="M430.764,518.029l0,-32.396l411.329,-32.291l0,32.396l-411.329,32.291" style="fill-rule:nonzero;"/></g><g><path d="M1021.13,501.883l-0,-32.683l423.304,-64.583l0,32.683l-423.308,64.583" style="fill-rule:nonzero;"/></g><g><path d="M1589.75,388.863l-0,-32.905l336.72,-64.587l0,32.908l-336.72,64.584" style="fill-rule:nonzero;"/></g><g><path d="M2025.82,695.633l0,-32.291l350.78,-0l-0,32.291l-350.784,0" style="fill-rule:nonzero;"/></g><g><path d="M2669.7,648.3l-0,-33.396l313.8,-80.729l-0,33.396l-313.8,80.729" style="fill-rule:nonzero;"/></g><g><path d="M3151.86,518.054l0,-32.316l396.354,-16.146l0,32.316l-396.354,16.146" style="fill-rule:nonzero;"/></g><g><path d="M3748.2,501.908l-0,-32.316l368.616,-16.146l0,32.317l-368.616,16.145" style="fill-rule:nonzero;"/></g><g><path d="M4262.16,485.917l0,-32.471l313.804,32.292l0,32.47l-313.804,-32.291" style="fill-rule:nonzero;"/></g><g><path d="M4828.53,501.908l0,-32.316l411.325,16.146l0,32.316l-411.325,-16.146" style="fill-rule:nonzero;"/></g><g><path d="M5385.2,567.388l-0.004,-33.213l342.708,80.729l-0,33.213l-342.708,-80.73" style="fill-rule:nonzero;"/></g><g><path d="M5902.12,695.633l0,-32.291l344.663,-0l-0,32.291l-344.663,0" style="fill-rule:nonzero;"/></g><g><path d="M6484.03,324.279l0,-33.004l313.804,64.579l0,33.009l-313.804,-64.584" style="fill-rule:nonzero;"/></g><g><path d="M340.402,885.775l191.012,-28.775l0,-10.458l-180.729,27.229l0,-36.434l-10.283,0" style="fill-rule:nonzero;"/></g><g><path d="M847.302,808.913l-175,26.275l-0,-10.455l164.583,-25.483l0,-38.775l10.417,0" style="fill-rule:nonzero;"/></g><g><path d="M930.764,826.4l197.004,-28.879l0,-10.446l-186.716,27.358l-0,-36.47l-10.288,-0" style="fill-rule:nonzero;"/></g><g><path d="M1449.64,749.888l-180.987,26.445l-0,-10.454l170.571,-25.662l-0,-38.767l10.416,0" style="fill-rule:nonzero;"/></g><g><path d="M1499.38,681.05l153.383,-0.104l0,-10.342l-143.095,0.104l-0,-38.096l-10.288,0" style="fill-rule:nonzero;"/></g><g><path d="M1931.68,680.738l-137.371,0.104l-0,-10.342l126.954,-0.104l0,-38.096l10.417,0" style="fill-rule:nonzero;"/></g><g><path d="M6393.66,680.738l141.925,0.104l0,-10.33l-131.637,-0.104l-0,-38.108l-10.288,0" style="fill-rule:nonzero;"/></g><g><path d="M6803.03,681.063l-125.783,-0.105l-0,-10.341l115.366,0.104l0,-38.096l10.417,0" style="fill-rule:nonzero;"/></g><g><path d="M9.41,1519.07l1875.91,-0" style="fill:none;stroke:#000;stroke-width:8.42px;"/><path d="M9.41,1260.74l1875.91,-0.001" style="fill:none;stroke:#000;stroke-width:8.42px;"/><path d="M9.41,1454.49l1875.91,-0.001" style="fill:none;stroke:#000;stroke-width:8.42px;"/><path d="M9.41,1325.32l1875.91,-0" style="fill:none;stroke:#000;stroke-width:8.42px;"/><path d="M9.41,1389.9l1875.91,0" style="fill:none;stroke:#000;stroke-width:8.42px;"/></g><g><path d="M1844.05,1256.54l-0,266.721" style="fill:none;stroke:#000;stroke-width:10.33px;"/><path d="M1880.24,1256.54l0,266.721" style="fill:none;stroke:#000;stroke-width:10.33px;"/></g><g><path d="M475.164,1324.83l0,215.688" style="fill:none;stroke:#000;stroke-width:7.75px;"/><path d="M657.327,1356.71l-0,216.091" style="fill:none;stroke:#000;stroke-width:7.75px;"/></g><g><path d="M573.602,1583.65l113.412,0" style="fill:none;stroke:#000;stroke-width:10.33px;"/></g><g><path d="M844.048,1389.41l-0,215.688" style="fill:none;stroke:#000;stroke-width:7.75px;"/></g><g><path d="M761.364,1583.65l112.371,0" style="fill:none;stroke:#000;stroke-width:10.33px;"/></g><g><path d="M1046,1389.86l-0,215.233" style="fill:none;stroke:#000;stroke-width:7.75px;"/></g><g><path d="M963.318,1583.65l112.367,0" style="fill:none;stroke:#000;stroke-width:10.33px;"/></g><g><path d="M1247.69,1399.15l0,238.242" style="fill:none;stroke:#000;stroke-width:7.75px;"/></g><g><path d="M1164.1,1648.24l113.412,-0.001" style="fill:none;stroke:#000;stroke-width:10.33px;"/><path d="M1148.99,1583.65l128.517,0" style="fill:none;stroke:#000;stroke-width:10.33px;"/></g><g><path d="M1397.04,1406.01l0,263.671" style="fill:none;stroke:#000;stroke-width:7.75px;"/></g><g><path d="M1298.34,1648.24l128.384,-0.001" style="fill:none;stroke:#000;stroke-width:10.33px;"/><path d="M1298.34,1583.65l128.384,0" style="fill:none;stroke:#000;stroke-width:10.33px;"/></g><g><path d="M1546.39,1389.9l0,279.775" style="fill:none;stroke:#000;stroke-width:7.75px;"/></g><g><path d="M1447.69,1648.24l128.384,-0.001" style="fill:none;stroke:#000;stroke-width:10.33px;"/><path d="M1447.69,1583.65l128.384,0" style="fill:none;stroke:#000;stroke-width:10.33px;"/></g><g><path d="M466.464,1175.32c0,-1.825 -0.779,-2.084 -1.562,-2.084c-1.042,0 -1.563,0.78 -1.821,1.563c-1.304,3.646 -4.167,8.333 -8.075,8.333c-0.521,0 -1.042,0 -1.563,-0.262l-3.904,-1.3c-2.604,-1.042 -8.854,-3.125 -14.062,-3.125c-1.825,-0 -3.388,0.258 -4.95,0.779c2.866,-4.946 16.408,-11.459 19.271,-12.238c9.375,-1.304 17.187,-6.771 17.187,-16.929c0,-6.25 -2.604,-10.417 -5.987,-13.542c-6.771,-5.466 -16.667,-6.25 -19.534,-6.25c-9.375,0 -16.925,0.521 -23.696,8.334c-1.825,2.083 -2.604,4.166 -2.604,6.25c0,1.825 0.779,3.908 1.563,6.25c1.562,3.125 4.946,5.471 8.591,5.471c6.513,-0 7.292,-6.25 7.292,-9.117c0,-5.988 -6.508,-6.508 -6.508,-9.113c-0,-1.825 2.604,-4.95 10.416,-4.95c12.238,0 16.405,10.159 16.405,13.284c-0,4.687 -1.563,9.112 -4.167,12.758c-4.688,5.992 -13.279,8.075 -19.792,12.242c-7.291,4.425 -12.237,11.979 -14.583,20.312c-0,1.821 0.783,3.904 2.346,4.688c0.258,0.258 0.779,0.258 1.041,0.258c2.863,0 4.425,-8.071 12.238,-8.071c5.208,0 7.033,7.029 18.75,7.029c5.471,0 15.625,-0.52 17.708,-20.57" style="fill-rule:nonzero;"/></g><g><path d="M607.827,1160.47c-0,-0 -0.259,1.042 -0.259,1.825c0,1.042 1.042,2.083 2.084,2.083c0.779,0 1.3,-0.783 1.562,-1.042c0.259,-0.783 3.384,-11.458 4.946,-14.062c0.521,-1.042 1.042,-1.304 1.304,-1.304c0.521,-0 0.779,1.041 0.779,1.825l0,37.237c0,3.125 -2.604,4.95 -5.208,4.95c-1.042,0 -2.342,0.521 -2.342,2.084c0,1.562 1.3,2.083 3.384,2.083l21.875,-0c2.083,-0 2.083,-2.083 2.083,-2.083c0,-0 0,-2.084 -2.083,-2.084c-1.821,0 -4.167,-2.346 -4.167,-4.687l0,-54.167c0,-2.083 -0.779,-3.125 -2.604,-3.125c-1.821,0 -3.383,0.521 -4.946,0.521c-2.604,-0 -3.125,-0 -5.208,-0.521c-1.042,0 -2.346,1.563 -3.125,2.604l-8.075,27.863" style="fill-rule:nonzero;"/></g><g><path d="M823.356,1172.71l-0,-27.867c-0,-1.3 -0.263,-2.342 -1.563,-2.342c-1.041,0 -1.825,0.259 -2.604,1.3l-7.812,15.104c-0.521,0.521 -1.304,1.305 -1.304,3.125l-0,10.68l-16.925,-0c10.675,-8.855 27.341,-38.284 27.604,-39.846c-0,-0.259 0.258,-0.521 0.258,-0.779c0,-1.042 -1.042,-1.825 -1.821,-1.825c-1.304,-0 -6.771,0.52 -9.116,0.52c-2.342,0 -3.905,-0.52 -4.946,-0.52c-1.304,-0 -3.125,0.52 -3.125,2.604c-0,16.666 -13.542,35.679 -16.929,40.366c-0.521,0.521 -1.042,1.3 -1.042,2.084c-0,1.3 1.042,2.604 2.604,2.604l23.438,-0l-0,8.071c-0,3.646 -2.084,4.687 -4.167,4.687c-2.342,0 -3.383,1.042 -3.383,2.346c-0,1.3 0.52,2.863 2.862,2.863l22.396,-0c1.304,-0 2.604,-1.042 2.604,-2.863c0,-1.825 -1.562,-2.604 -2.862,-2.604c-1.305,-0 -4.167,-0.783 -4.167,-4.95l-0,-7.55l9.633,-0c1.304,-0 2.084,-1.042 2.084,-2.604c-0,-1.563 -0.521,-2.604 -2.084,-2.604l-9.633,-0" style="fill-rule:nonzero;"/></g><g><path d="M1025.28,1172.71l-0,-27.867c-0,-1.3 -0.258,-2.342 -1.563,-2.342c-1.041,0 -1.82,0.259 -2.604,1.3l-7.812,15.104c-0.521,0.521 -1.3,1.305 -1.3,3.125l-0,10.68l-16.929,-0c10.679,-8.855 27.345,-38.284 27.604,-39.846c-0,-0.259 0.262,-0.521 0.262,-0.779c0,-1.042 -1.041,-1.825 -1.825,-1.825c-1.3,-0 -6.771,0.52 -9.112,0.52c-2.346,0 -3.909,-0.52 -4.95,-0.52c-1.3,-0 -3.125,0.52 -3.125,2.604c-0,16.666 -13.542,35.679 -16.925,40.366c-0.521,0.521 -1.042,1.3 -1.042,2.084c0,1.3 1.042,2.604 2.604,2.604l23.438,-0l-0,8.071c-0,3.646 -2.084,4.687 -4.167,4.687c-2.346,0 -3.387,1.042 -3.387,2.346c-0,1.3 0.52,2.863 2.866,2.863l22.396,-0c1.3,-0 2.604,-1.042 2.604,-2.863c0,-1.825 -1.562,-2.604 -2.866,-2.604c-1.3,-0 -4.167,-0.783 -4.167,-4.95l-0,-7.55l9.637,-0c1.3,-0 2.084,-1.042 2.084,-2.604c-0,-1.563 -0.521,-2.604 -2.084,-2.604l-9.637,-0" style="fill-rule:nonzero;"/></g><g><path d="M1239.03,1175.32c-0,-1.825 -0.779,-2.084 -1.563,-2.084c-1.041,0 -1.562,0.78 -1.82,1.563c-1.305,3.646 -4.167,8.333 -8.075,8.333c-0.521,0 -1.042,0 -1.563,-0.262l-3.904,-1.3c-2.604,-1.042 -8.854,-3.125 -14.063,-3.125c-1.825,-0 -3.387,0.258 -4.95,0.779c2.867,-4.946 16.409,-11.459 19.271,-12.238c9.375,-1.304 17.188,-6.771 17.188,-16.929c-0,-6.25 -2.604,-10.417 -5.988,-13.542c-6.771,-5.466 -16.666,-6.25 -19.533,-6.25c-9.375,0 -16.925,0.521 -23.696,8.334c-1.825,2.083 -2.604,4.166 -2.604,6.25c-0,1.825 0.779,3.908 1.562,6.25c1.563,3.125 4.946,5.471 8.592,5.471c6.513,-0 7.292,-6.25 7.292,-9.117c-0,-5.988 -6.509,-6.508 -6.509,-9.113c0,-1.825 2.605,-4.95 10.417,-4.95c12.238,0 16.404,10.159 16.404,13.284c0,4.687 -1.562,9.112 -4.166,12.758c-4.688,5.992 -13.28,8.075 -19.792,12.242c-7.292,4.425 -12.238,11.979 -14.583,20.312c-0,1.821 0.783,3.904 2.345,4.688c0.259,0.258 0.78,0.258 1.042,0.258c2.863,0 4.425,-8.071 12.238,-8.071c5.208,0 7.033,7.029 18.75,7.029c5.47,0 15.625,-0.52 17.708,-20.57" style="fill-rule:nonzero;"/></g><g><path d="M1347.63,1160.47c-0,-0 -0.263,1.042 -0.263,1.825c0,1.042 1.042,2.083 2.084,2.083c0.783,0 1.304,-0.783 1.562,-1.042c0.263,-0.783 3.388,-11.458 4.95,-14.062c0.521,-1.042 1.042,-1.304 1.3,-1.304c0.521,-0 0.783,1.041 0.783,1.825l0,37.237c0,3.125 -2.604,4.95 -5.208,4.95c-1.042,0 -2.346,0.521 -2.346,2.084c0,1.562 1.304,2.083 3.388,2.083l21.875,-0c2.083,-0 2.083,-2.083 2.083,-2.083c0,-0 0,-2.084 -2.083,-2.084c-1.825,0 -4.167,-2.346 -4.167,-4.687l0,-54.167c0,-2.083 -0.783,-3.125 -2.604,-3.125c-1.825,0 -3.388,0.521 -4.95,0.521c-2.604,-0 -3.125,-0 -5.208,-0.521c-1.042,0 -2.342,1.563 -3.125,2.604l-8.071,27.863" style="fill-rule:nonzero;"/></g><g><path d="M1496.96,1160.47c0,-0 -0.262,1.042 -0.262,1.825c-0,1.042 1.041,2.083 2.083,2.083c0.783,0 1.304,-0.783 1.563,-1.042c0.262,-0.783 3.387,-11.458 4.95,-14.062c0.52,-1.042 1.041,-1.304 1.3,-1.304c0.52,-0 0.783,1.041 0.783,1.825l-0,37.237c-0,3.125 -2.604,4.95 -5.208,4.95c-1.042,0 -2.346,0.521 -2.346,2.084c-0,1.562 1.304,2.083 3.387,2.083l21.875,-0c2.084,-0 2.084,-2.083 2.084,-2.083c-0,-0 -0,-2.084 -2.084,-2.084c-1.825,0 -4.166,-2.346 -4.166,-4.687l-0,-54.167c-0,-2.083 -0.784,-3.125 -2.605,-3.125c-1.825,0 -3.387,0.521 -4.95,0.521c-2.604,-0 -3.125,-0 -5.208,-0.521c-1.042,0 -2.342,1.563 -3.125,2.604l-8.071,27.863" style="fill-rule:nonzero;"/></g><g><path d="M365.064,1563.08c-1.562,5.208 -13.804,10.417 -19.791,10.417c-1.563,-0 -2.867,-0.521 -3.125,-1.3c-0.521,-1.042 -0.784,-6.771 -0.784,-13.021c0,-8.075 0.263,-17.188 0.784,-19.271c0.52,-4.429 12.5,-9.896 19.008,-9.896c1.825,0 3.387,0.521 3.908,1.563c0.521,1.3 1.042,7.812 1.042,14.841c-0,7.034 -0.521,14.325 -1.042,16.667m17.967,-42.446c1.825,-0.783 3.125,-2.867 3.125,-4.429l-0,-18.487c-0,-1.305 -0.779,-2.084 -1.821,-2.084c-0.521,0 -0.783,0 -1.304,0.259c-0,-0 -5.208,2.083 -6.508,2.345c-1.825,0 -3.646,-1.304 -3.646,-3.387l-0,-31.771c-0,-1.563 -1.563,-2.862 -3.646,-2.862c-2.604,-0 -4.167,1.3 -4.167,2.862l0,33.854c-0.262,2.604 -1.041,5.992 -3.387,7.554c-3.125,1.821 -11.979,5.467 -16.404,6.509c-2.346,-0 -3.125,-3.125 -3.125,-5.209l-0,-31.25c-0,-1.562 -1.825,-2.862 -3.646,-2.862c-2.604,-0 -4.167,1.3 -4.167,2.862l0,35.159c0,3.645 -1.562,6.25 -3.125,7.029c-1.562,0.783 -6.771,2.866 -6.771,2.866c-1.825,0.521 -3.125,2.605 -3.125,4.167l0,18.488c0,1.562 0.779,2.345 2.084,2.345c1.041,0 5.987,-2.345 6.77,-2.866c0.259,-0 0.521,-0.259 0.78,-0.259c1.825,0 3.387,2.605 3.387,4.688l0,25.779c0,2.867 -1.304,5.208 -2.867,5.992c-1.562,0.521 -7.029,2.862 -7.029,2.862c-1.825,0.521 -3.125,2.604 -3.125,4.167l0,18.492c0,1.562 0.779,2.341 2.084,2.341c0.258,0 0.779,-0.258 1.041,-0.258c0,0 3.646,-1.563 5.988,-2.346c0.262,-0.258 0.521,-0.258 0.783,-0.258c1.821,-0 3.125,2.862 3.125,4.167l0,32.029c0,1.562 1.563,2.866 3.383,2.866c2.605,0 4.43,-1.304 4.43,-2.866l-0,-36.196c-0,-3.388 1.3,-5.208 2.604,-5.729l15.883,-6.513c0.263,0 0.783,-0.258 1.042,-0.258c2.083,-0 3.387,3.125 3.387,4.687l0,32.55c0,1.563 1.563,2.867 3.384,2.867c2.866,0 4.429,-1.304 4.429,-2.867l-0,-36.979c-0,-2.083 1.041,-5.208 2.862,-5.987c1.825,-0.784 7.292,-2.867 7.292,-2.867c1.825,-0.779 3.125,-2.862 3.125,-4.425l-0,-18.492c-0,-1.3 -0.779,-2.083 -1.821,-2.083c-0.521,0 -0.783,0 -1.304,0.263l-6.771,2.604c-1.562,-0 -3.383,-1.563 -3.383,-4.688l-0,-24.221c-0,-1.82 1.3,-6.77 3.383,-7.55l6.771,-2.604" style="fill-rule:nonzero;"/></g><g><path d="M427.518,1583.91c23.175,0 51.563,-21.354 51.563,-43.487c-0,-13.284 -10.417,-21.617 -25.263,-21.617c-28.645,0 -51.562,21.096 -51.562,43.492c-0,13.542 11.2,21.612 25.262,21.612" style="fill-rule:nonzero;"/></g><g><path d="M547.16,1595.37c-1.562,5.208 -13.804,10.416 -19.792,10.416c-1.562,0 -2.866,-0.52 -3.125,-1.3c-0.52,-1.041 -0.783,-6.77 -0.783,-13.02c0,-8.075 0.263,-17.188 0.783,-19.271c0.521,-4.429 12.5,-9.896 19.009,-9.896c1.825,-0 3.387,0.521 3.908,1.562c0.521,1.3 1.042,7.813 1.042,14.842c-0,7.033 -0.521,14.325 -1.042,16.667m17.967,-42.446c1.825,-0.783 3.125,-2.867 3.125,-4.429l-0,-18.488c-0,-1.304 -0.779,-2.083 -1.821,-2.083c-0.521,-0 -0.783,-0 -1.304,0.258c-0,0 -5.209,2.084 -6.509,2.346c-1.825,0 -3.645,-1.304 -3.645,-3.387l-0,-31.771c-0,-1.563 -1.563,-2.863 -3.646,-2.863c-2.604,0 -4.167,1.3 -4.167,2.863l0,33.854c-0.262,2.604 -1.042,5.992 -3.387,7.554c-3.125,1.821 -11.98,5.467 -16.405,6.508c-2.345,0 -3.125,-3.125 -3.125,-5.208l0,-31.25c0,-1.563 -1.825,-2.862 -3.645,-2.862c-2.605,-0 -4.167,1.3 -4.167,2.862l-0,35.158c-0,3.646 -1.563,6.25 -3.125,7.03c-1.563,0.783 -6.771,2.866 -6.771,2.866c-1.825,0.521 -3.125,2.604 -3.125,4.167l0,18.487c0,1.563 0.779,2.346 2.083,2.346c1.042,0 5.988,-2.346 6.771,-2.866c0.259,-0 0.521,-0.259 0.779,-0.259c1.825,0 3.388,2.604 3.388,4.688l-0,25.779c-0,2.867 -1.304,5.208 -2.867,5.992c-1.562,0.52 -7.029,2.862 -7.029,2.862c-1.825,0.521 -3.125,2.604 -3.125,4.167l0,18.491c0,1.563 0.779,2.342 2.083,2.342c0.259,0 0.78,-0.258 1.042,-0.258c0,-0 3.646,-1.563 5.988,-2.346c0.262,-0.258 0.52,-0.258 0.783,-0.258c1.821,-0 3.125,2.862 3.125,4.166l-0,32.029c-0,1.563 1.562,2.867 3.383,2.867c2.604,0 4.429,-1.304 4.429,-2.867l0,-36.195c0,-3.388 1.3,-5.209 2.605,-5.73l15.883,-6.512c0.262,-0 0.783,-0.258 1.042,-0.258c2.083,-0 3.387,3.125 3.387,4.687l0,32.55c0,1.563 1.563,2.867 3.383,2.867c2.867,-0 4.43,-1.304 4.43,-2.867l-0,-36.979c-0,-2.083 1.041,-5.208 2.862,-5.988c1.825,-0.783 7.292,-2.866 7.292,-2.866c1.825,-0.779 3.125,-2.863 3.125,-4.425l-0,-18.492c-0,-1.3 -0.779,-2.083 -1.821,-2.083c-0.521,-0 -0.783,-0 -1.304,0.262l-6.771,2.604c-1.563,0 -3.383,-1.562 -3.383,-4.687l-0,-24.221c-0,-1.821 1.3,-6.771 3.383,-7.55l6.771,-2.604" style="fill-rule:nonzero;"/></g><g><path d="M609.614,1616.2c23.175,0 51.563,-21.354 51.563,-43.487c-0,-13.284 -10.417,-21.617 -25.263,-21.617c-28.646,-0 -51.562,21.096 -51.562,43.492c-0,13.541 11.2,21.612 25.262,21.612" style="fill-rule:nonzero;"/></g><g><path d="M720.843,1605.78c0,-3.645 15.888,-10.416 22.138,-10.416c1.562,-0 2.342,0.262 2.342,1.304l-0,26.821c-0,4.687 -14.842,10.679 -21.355,10.679c-1.82,-0 -3.125,-0.521 -3.125,-1.563l0,-26.825m27.084,-36.979c-0.521,0 -0.779,0.263 -1.042,0.263c0,-0 -16.667,5.987 -23.437,5.987c-1.563,0 -2.605,-0.258 -2.605,-1.3l0,-43.492c0,-1.82 -1.562,-3.125 -3.125,-3.125l-3.383,0c-1.825,0 -3.125,1.305 -3.125,3.125l0,134.117c0,1.563 0.779,2.342 2.083,2.342c0.259,-0 1.563,-0.259 1.821,-0.521c3.646,-1.563 18.229,-7.813 25.784,-7.813c2.604,0.001 4.425,0.784 4.425,2.867l-0,38.8c-0,1.825 1.304,3.125 3.125,3.125l3.387,0c1.563,0 3.125,-1.3 3.125,-3.125l0,-130.729c0,-1.3 -1.042,-2.083 -2.083,-2.083c-0.263,-0 -0.784,-0 -1.042,0.262l-3.908,1.3" style="fill-rule:nonzero;"/></g><g><path d="M796.352,1648.49c23.175,-0 51.562,-21.354 51.562,-43.488c0,-13.283 -10.416,-21.616 -25.262,-21.616c-28.646,-0 -51.563,21.095 -51.563,43.491c0,13.542 11.2,21.613 25.263,21.613" style="fill-rule:nonzero;"/></g><g><path d="M910.323,1637.03c-0,0 -0.784,-15.625 -0.784,-26.041c0,-4.167 0.263,-7.292 0.521,-8.334c1.825,-5.208 12.242,-12.758 18.229,-12.758c7.554,0 10.679,8.592 10.679,15.104c0,14.063 -11.979,28.125 -23.179,35.154c-1.041,0.521 -1.821,0.784 -2.604,0.784c-2.342,-0 -2.862,-2.605 -2.862,-3.909m-9.117,23.179c0.783,1.042 1.562,1.301 2.346,1.301c0.779,-0 1.562,-0.521 1.562,-0.521c7.813,-4.425 14.063,-11.459 20.571,-15.884c23.179,-16.146 31.25,-32.033 31.25,-44.012c0,-14.842 -11.458,-24.217 -23.437,-25c-4.425,-0 -10.675,2.083 -14.321,4.429c-1.563,1.3 -4.429,3.646 -5.729,3.646c-0.521,-0 -0.784,-0 -1.305,-0.263c-1.82,-0.779 -2.862,-2.604 -2.862,-4.425c0.258,-5.729 1.821,-68.229 1.821,-73.437c-0,-2.867 -2.342,-4.429 -4.946,-4.429c-3.646,-0 -7.813,2.604 -8.075,7.291c-0,0 1.042,148.7 3.125,151.304" style="fill-rule:nonzero;"/></g><g><path d="M998.289,1648.49c23.179,-0 51.563,-21.354 51.563,-43.488c-0,-13.283 -10.417,-21.616 -25.259,-21.616c-28.645,-0 -51.562,21.095 -51.562,43.491c-0,13.542 11.196,21.613 25.258,21.613" style="fill-rule:nonzero;"/></g><g><path d="M1112.12,1669.33c0,0 -0.779,-15.625 -0.779,-26.042c0,-4.166 0.259,-7.291 0.521,-8.333c1.821,-5.208 12.238,-12.758 18.229,-12.758c7.55,-0 10.675,8.591 10.675,15.104c0,14.062 -11.979,28.125 -23.175,35.154c-1.041,0.521 -1.825,0.783 -2.604,0.783c-2.346,0 -2.867,-2.604 -2.867,-3.908m-9.112,23.179c0.779,1.042 1.562,1.3 2.342,1.3c0.783,0 1.562,-0.521 1.562,-0.521c7.813,-4.425 14.063,-11.458 20.575,-15.883c23.175,-16.146 31.25,-32.033 31.25,-44.012c0,-14.842 -11.458,-24.217 -23.437,-25c-4.43,-0 -10.68,2.083 -14.325,4.429c-1.563,1.3 -4.425,3.645 -5.73,3.645c-0.52,0 -0.779,0 -1.3,-0.262c-1.825,-0.779 -2.866,-2.604 -2.866,-4.425c0.262,-5.729 1.825,-68.229 1.825,-73.438c-0,-2.866 -2.346,-4.429 -4.95,-4.429c-3.646,0 -7.813,2.604 -8.071,7.292c-0,0 1.042,148.7 3.125,151.304" style="fill-rule:nonzero;"/></g><g><path d="M1200.09,1680.78c23.175,0 51.563,-21.354 51.563,-43.487c-0,-13.283 -10.417,-21.617 -25.263,-21.617c-28.646,0 -51.562,21.096 -51.562,43.492c-0,13.542 11.2,21.612 25.262,21.612" style="fill-rule:nonzero;"/></g><g><path d="M1349.41,1713.08c23.179,0 51.563,-21.354 51.563,-43.487c-0,-13.284 -10.417,-21.617 -25.259,-21.617c-28.646,-0 -51.562,21.096 -51.562,43.492c-0,13.541 11.196,21.612 25.258,21.612" style="fill-rule:nonzero;"/></g><g><path d="M1493.02,1703.18c-5.47,0 -8.595,-2.862 -10.416,-5.987c-0.784,-1.563 -1.563,-3.388 -1.563,-5.209c0,-12.762 37.759,-33.333 50,-33.333c4.946,0 7.813,2.342 9.634,5.467c0.783,1.562 1.562,3.125 1.562,4.95c0,11.196 -36.717,34.112 -49.217,34.112m5.73,9.896c42.966,0 51.562,-34.896 51.562,-43.487c0,-13.284 -10.679,-21.617 -25.783,-21.617c-38.8,-0 -51.042,29.95 -51.042,43.492c0,13.8 10.938,21.612 25.263,21.612" style="fill-rule:nonzero;"/></g><g><path d="M135.714,1386.25c0.779,4.946 0.779,4.688 -3.908,6.25c-22.917,7.813 -37.763,28.383 -37.763,50.521c0,23.438 12.242,40.104 29.95,46.092c2.084,0.783 5.209,1.562 7.03,1.562c2.083,0 3.125,-1.3 3.125,-2.862c-0,-1.825 -2.084,-2.604 -3.905,-3.388c-10.937,-4.687 -18.75,-15.883 -18.75,-27.862c0,-14.846 10.155,-26.042 26.042,-30.471c4.167,-1.042 4.688,-0.779 5.208,2.083l13.021,77.604c0.521,2.867 0.259,2.867 -3.646,3.646c-4.166,0.784 -9.375,1.304 -14.583,1.304c-45.575,0 -75,-25.262 -75,-61.458c0,-15.367 2.604,-35.938 24.217,-60.417c15.625,-17.45 27.604,-27.083 39.846,-36.979c2.604,-2.083 3.125,-1.825 3.645,1.042l5.467,33.333m28.388,-177.346c8.591,0 15.625,7.034 15.625,21.354c-0,28.909 -24.742,52.346 -45.313,70.313c-1.825,1.562 -2.867,1.304 -3.387,-2.083c-1.042,-6.771 -1.563,-15.625 -1.563,-23.959c0,-40.625 18.75,-65.625 34.638,-65.625m-10.417,218.75c-0.521,-3.125 -0.263,-3.904 2.862,-3.646c21.096,1.825 38.542,19.534 38.542,42.45c0,16.405 -9.896,29.688 -24.479,36.98c-3.125,1.562 -3.646,1.562 -4.167,-1.563l-12.758,-74.221m-14.063,-81.25c-0.52,-3.125 0,-3.383 1.563,-4.946c28.125,-26.304 49.479,-59.375 49.479,-99.22c0,-22.655 -6.25,-45.05 -16.929,-60.675c-3.904,-5.73 -10.675,-13.021 -13.542,-13.021c-3.646,-0 -11.716,6.771 -16.925,12.5c-19.271,21.354 -25.521,53.904 -25.521,80.987c0,15.104 1.821,32.034 3.646,42.709c0.521,3.125 0.779,3.645 -2.346,6.25c-37.5,30.991 -77.341,68.229 -77.341,120.833c-0,45.312 30.987,88.283 94.791,88.283c5.988,0 12.759,-0.521 17.967,-1.562c2.867,-0.521 3.388,-0.784 3.908,2.341c3.125,17.45 7.03,40.105 7.03,52.346c-0,38.542 -26.042,43.229 -41.405,43.229c-14.062,0 -20.833,-4.166 -20.833,-7.554c0,-1.821 2.342,-2.604 8.333,-4.425c8.071,-2.346 17.446,-9.375 17.446,-24.479c0,-14.325 -9.112,-26.562 -25,-26.562c-17.446,-0 -27.862,13.8 -27.862,29.945c-0,16.93 10.154,42.45 49.479,42.45c17.446,0 51.3,-7.812 51.3,-52.083c-0,-14.846 -4.688,-39.583 -7.55,-55.729c-0.521,-3.125 -0.263,-2.867 3.383,-4.429c26.304,-10.417 43.75,-32.55 43.75,-61.979c0,-33.334 -24.479,-62.759 -62.758,-62.759c-6.771,0 -6.771,0 -7.554,-4.687l-6.509,-37.763" style="fill-rule:nonzero;"/></g><g><text x="586.573px" y="1767.79px" style="font-family:'Bravura';font-size:260.417px;"></text></g><g><text x="1148.49px" y="1808.38px" style="font-family:'Bravura';font-size:260.417px;"></text></g><g><path d="M471.26,1341.47l0,-32.788l376.692,64.583l-0,32.788l-376.692,-64.583" style="fill-rule:nonzero;"/></g><g><path d="M1042.09,1406.05l0,-32.333l358.855,16.146l-0,32.333l-358.855,-16.146" style="fill-rule:nonzero;"/></g><g><path d="M380.893,1687.75l173.7,22.721l0,-10.429l-163.283,-21.367l0,-39.362l-10.417,-0" style="fill-rule:nonzero;"/></g><g><path d="M853.031,1750.02l-157.421,-20.533l0,-10.434l147.133,19.846l0,-37.317l10.288,0" style="fill-rule:nonzero;"/></g><g><path d="M951.727,1742.17l164.583,12.75l0,-10.367l-154.296,-11.954l0,-38.867l-10.287,0" style="fill-rule:nonzero;"/></g><g><path d="M1406.16,1777.66l-148.438,-11.446l0,-10.375l138.021,11.041l0,-37.658l10.417,-0" style="fill-rule:nonzero;"/></g></g></svg>