<?xml version="1.0" encoding="UTF-8" standalone="no"?><!DOCTYPE svg PUBLIC "-//W3C//DTD SVG 1.1//EN" "http://www.w3.org/Graphics/SVG/1.1/DTD/svg11.dtd"><svg width="100%" height="100%" viewBox="0 0 28724 7522" version="1.1" xmlns="http://www.w3.org/2000/svg" xmlns:xlink="http://www.w3.org/1999/xlink" xml:space="preserve" xmlns:serif="http://www.serif.com/" style="fill-rule:evenodd;clip-rule:evenodd;stroke-miterlimit:2;"><g><g><path d="M39.038,2562.08l28645.8,0" style="fill:none;stroke:#000;stroke-width:34.92px;"/><path d="M39.038,1485.7l28645.8,-0" style="fill:none;stroke:#000;stroke-width:34.92px;"/><path d="M39.038,1754.79l28645.8,-0" style="fill:none;stroke:#000;stroke-width:34.92px;"/><path d="M39.038,2023.89l28645.8,-0" style="fill:none;stroke:#000;stroke-width:34.92px;"/><path d="M39.038,2292.99l28645.8,-0" style="fill:none;stroke:#000;stroke-width:34.92px;"/></g><g><path d="M14873,1468.23l-0,1111.34" style="fill:none;stroke:#000;stroke-width:43.04px;"/><path d="M28663.1,1468.23l0,1111.34" style="fill:none;stroke:#000;stroke-width:43.04px;"/></g><g><path d="M1810.41,2090.9l-0,1098.73" style="fill:none;stroke:#000;stroke-width:32.29px;"/></g><g><path d="M1399.16,3100.28l535.483,0" style="fill:none;stroke:#000;stroke-width:43.04px;"/><path d="M1399.16,2831.18l535.483,0" style="fill:none;stroke:#000;stroke-width:43.04px;"/></g><g><path d="M2843.39,2023.63l0,1031.46" style="fill:none;stroke:#000;stroke-width:32.29px;"/></g><g><path d="M2432.14,3100.28l534.95,0" style="fill:none;stroke:#000;stroke-width:43.04px;"/><path d="M2432.14,2831.18l534.95,0" style="fill:none;stroke:#000;stroke-width:43.04px;"/></g><g><path d="M3876.38,1956.35l-0,964.183" style="fill:none;stroke:#000;stroke-width:32.29px;"/></g><g><path d="M3465.13,2831.18l534.95,0" style="fill:none;stroke:#000;stroke-width:43.04px;"/></g><g><path d="M4908.81,1819.41l0,966.58" style="fill:none;stroke:#000;stroke-width:32.29px;"/></g><g><path d="M4559.98,2831.18l472.533,0" style="fill:none;stroke:#000;stroke-width:43.04px;"/></g><g><path d="M5802.36,1707.33l-0,944.117" style="fill:none;stroke:#000;stroke-width:32.29px;"/><path d="M6695.94,1595.19l0,921.7" style="fill:none;stroke:#000;stroke-width:32.29px;"/><path d="M7589.48,1483.04l-0,899.305" style="fill:none;stroke:#000;stroke-width:32.29px;"/><path d="M8483.02,1417.78l0,830.017" style="fill:none;stroke:#000;stroke-width:32.29px;"/><path d="M9516.02,1316.88l0,796.371" style="fill:none;stroke:#000;stroke-width:32.29px;"/><path d="M10549,1215.97l0,762.725" style="fill:none;stroke:#000;stroke-width:32.29px;"/><path d="M11293.4,1934.55l-0,831.042" style="fill:none;stroke:#000;stroke-width:32.29px;"/><path d="M12186.9,1800l0,875.921" style="fill:none;stroke:#000;stroke-width:32.29px;"/><path d="M13080.5,1665.45l-0,920.729" style="fill:none;stroke:#000;stroke-width:32.29px;"/><path d="M13974,1530.9l0,965.588" style="fill:none;stroke:#000;stroke-width:32.29px;"/><path d="M15314.5,1396.35l0,897.779" style="fill:none;stroke:#000;stroke-width:32.29px;"/><path d="M16347.5,1261.83l0,897.758" style="fill:none;stroke:#000;stroke-width:32.29px;"/></g><g><path d="M16223.9,1216.6l534.934,-0" style="fill:none;stroke:#000;stroke-width:43.04px;"/></g><g><path d="M17380.5,1127.28l0,897.758" style="fill:none;stroke:#000;stroke-width:32.29px;"/></g><g><path d="M17256.4,1216.6l535.471,-0" style="fill:none;stroke:#000;stroke-width:43.04px;"/></g><g><path d="M18412.4,992.725l0,1031.29" style="fill:none;stroke:#000;stroke-width:32.29px;"/></g><g><path d="M18351.7,947.5l472.554,0" style="fill:none;stroke:#000;stroke-width:43.04px;"/><path d="M18356,1216.6l468.213,-0" style="fill:none;stroke:#000;stroke-width:43.04px;"/></g><g><path d="M19306,858.179l0,1143.42" style="fill:none;stroke:#000;stroke-width:32.29px;"/></g><g><path d="M19181.9,947.5l535.488,0" style="fill:none;stroke:#000;stroke-width:43.04px;"/><path d="M19181.9,1216.6l535.488,-0" style="fill:none;stroke:#000;stroke-width:43.04px;"/></g><g><path d="M20199.1,723.629l-0,1255.5" style="fill:none;stroke:#000;stroke-width:32.29px;"/></g><g><path d="M20075.3,678.421l534.946,-0" style="fill:none;stroke:#000;stroke-width:43.04px;"/><path d="M20075.3,947.5l534.946,0" style="fill:none;stroke:#000;stroke-width:43.04px;"/><path d="M20075.3,1216.6l534.946,-0" style="fill:none;stroke:#000;stroke-width:43.04px;"/></g><g><path d="M21092.1,589.079l0,1367.66" style="fill:none;stroke:#000;stroke-width:32.29px;"/></g><g><path d="M20968.4,678.421l535.487,-0" style="fill:none;stroke:#000;stroke-width:43.04px;"/><path d="M20968.4,947.5l535.487,0" style="fill:none;stroke:#000;stroke-width:43.04px;"/><path d="M20968.4,1216.6l535.487,-0" style="fill:none;stroke:#000;stroke-width:43.04px;"/></g><g><path d="M21985.7,589.079l-0,1367.66" style="fill:none;stroke:#000;stroke-width:32.29px;"/></g><g><path d="M21861.9,678.421l535.471,-0" style="fill:none;stroke:#000;stroke-width:43.04px;"/><path d="M21861.9,947.5l535.471,0" style="fill:none;stroke:#000;stroke-width:43.04px;"/><path d="M21861.9,1216.6l535.471,-0" style="fill:none;stroke:#000;stroke-width:43.04px;"/></g><g><path d="M22879.1,723.629l-0,1255.5" style="fill:none;stroke:#000;stroke-width:32.29px;"/></g><g><path d="M22755.5,678.421l534.946,-0" style="fill:none;stroke:#000;stroke-width:43.04px;"/><path d="M22755.5,947.5l534.946,0" style="fill:none;stroke:#000;stroke-width:43.04px;"/><path d="M22755.5,1216.6l534.946,-0" style="fill:none;stroke:#000;stroke-width:43.04px;"/></g><g><path d="M23772.7,858.179l0,1143.42" style="fill:none;stroke:#000;stroke-width:32.29px;"/></g><g><path d="M23648.6,947.5l535.488,0" style="fill:none;stroke:#000;stroke-width:43.04px;"/><path d="M23648.6,1216.6l535.488,-0" style="fill:none;stroke:#000;stroke-width:43.04px;"/></g><g><path d="M24665.8,992.725l0,1031.29" style="fill:none;stroke:#000;stroke-width:32.29px;"/></g><g><path d="M24542,947.5l535.466,0" style="fill:none;stroke:#000;stroke-width:43.04px;"/><path d="M24542,1216.6l535.466,-0" style="fill:none;stroke:#000;stroke-width:43.04px;"/></g><g><path d="M25559.3,1127.28l0,897.758" style="fill:none;stroke:#000;stroke-width:32.29px;"/></g><g><path d="M25435.6,1216.6l534.95,-0" style="fill:none;stroke:#000;stroke-width:43.04px;"/></g><g><path d="M26592.3,1261.83l0,897.758" style="fill:none;stroke:#000;stroke-width:32.29px;"/></g><g><path d="M26468.5,1216.6l534.946,-0" style="fill:none;stroke:#000;stroke-width:43.04px;"/></g><g><path d="M27625.3,1396.35l0,897.779" style="fill:none;stroke:#000;stroke-width:32.29px;"/></g><g><path d="M1604.61,1067.95c-0,0 -1.075,4.342 -1.075,7.588c-0,4.341 4.337,8.679 8.679,8.679c3.246,-0 5.417,-3.246 6.513,-4.338c1.075,-3.246 14.095,-47.746 20.604,-58.596c2.171,-4.337 4.341,-5.416 5.437,-5.416c2.167,-0 3.246,4.341 3.246,7.587l0,155.175c0,13.021 -10.85,20.609 -21.704,20.609c-4.338,-0 -9.754,2.166 -9.754,8.679c-0,6.508 5.416,8.679 14.096,8.679l91.145,-0c8.68,-0 8.68,-8.679 8.68,-8.679c-0,-0 -0,-8.679 -8.68,-8.679c-7.587,-0 -17.362,-9.759 -17.362,-19.534l-0,-225.696c-0,-8.679 -3.246,-13.02 -10.85,-13.02c-7.588,-0 -14.096,2.17 -20.608,2.17c-10.85,0 -13.021,0 -21.7,-2.17c-4.342,-0 -9.775,6.512 -13.021,10.854l-33.646,116.108" style="fill-rule:nonzero;"/></g><g><path d="M2807.21,1129.79c0,-7.588 -3.262,-8.679 -6.508,-8.679c-4.342,-0 -6.513,3.262 -7.604,6.508c-5.417,15.192 -17.363,34.725 -33.63,34.725c-2.17,-0 -4.341,-0 -6.512,-1.079l-16.283,-5.434c-10.85,-4.341 -36.892,-13.02 -58.596,-13.02c-7.584,-0 -14.096,1.095 -20.604,3.262c11.925,-20.625 68.35,-47.742 80.291,-51.004c39.063,-5.417 71.617,-28.213 71.617,-70.521c-0,-26.042 -10.85,-43.404 -24.967,-56.425c-28.212,-22.796 -69.441,-26.042 -81.371,-26.042c-39.062,0 -70.537,2.171 -98.75,34.721c-7.587,8.684 -10.85,17.363 -10.85,26.042c0,7.587 3.263,16.271 6.509,26.042c6.512,13.02 20.625,22.779 35.816,22.779c27.121,-0 30.384,-26.042 30.384,-37.971c-0,-24.963 -27.138,-27.133 -27.138,-37.983c0,-7.588 10.854,-20.609 43.404,-20.609c51.009,0 68.367,42.309 68.367,55.329c0,19.534 -6.508,37.988 -17.358,53.18c-19.534,24.945 -55.35,33.625 -82.467,50.987c-30.383,18.454 -51.008,49.913 -60.762,84.638c-0,7.604 3.245,16.283 9.754,19.529c1.096,1.096 3.266,1.096 4.341,1.096c11.946,-0 18.455,-33.646 51.009,-33.646c21.7,-0 29.287,29.304 78.125,29.304c22.775,-0 65.104,-2.171 73.783,-85.729" style="fill-rule:nonzero;"/></g><g><path d="M3790.32,1118.94l0,-116.096c0,-5.433 -1.075,-9.771 -6.512,-9.771c-4.338,0 -7.583,1.092 -10.85,5.433l-32.55,62.934c-2.171,2.17 -5.417,5.416 -5.417,13.021l0,44.479l-70.537,-0c44.496,-36.892 113.937,-159.496 115.016,-166.009c0,-1.091 1.092,-2.17 1.092,-3.262c0,-4.342 -4.337,-7.588 -7.604,-7.588c-5.417,0 -28.213,2.171 -37.967,2.171c-9.775,0 -16.287,-2.171 -20.625,-2.171c-5.416,0 -13.021,2.171 -13.021,10.85c0,69.446 -56.425,148.646 -70.52,168.18c-2.171,2.166 -4.342,5.433 -4.342,8.679c-0,5.433 4.342,10.85 10.85,10.85l97.658,-0l0,33.646c0,15.191 -8.683,19.533 -17.362,19.533c-9.775,-0 -14.113,4.337 -14.113,9.754c0,5.438 2.167,11.946 11.942,11.946l93.317,-0c5.416,-0 10.85,-4.342 10.85,-11.946c-0,-7.583 -6.509,-10.85 -11.942,-10.85c-5.417,0 -17.363,-3.246 -17.363,-20.608l0,-31.475l40.155,-0c5.416,-0 8.683,-4.342 8.683,-10.85c-0,-6.513 -2.171,-10.85 -8.683,-10.85l-40.155,-0" style="fill-rule:nonzero;"/></g><g><path d="M4702.69,1067.95c0,0 -1.079,4.342 -1.079,7.588c-0,4.341 4.342,8.679 8.683,8.679c3.246,-0 5.417,-3.246 6.509,-4.338c1.079,-3.246 14.1,-47.746 20.608,-58.596c2.171,-4.337 4.342,-5.416 5.433,-5.416c2.171,-0 3.246,4.341 3.246,7.587l0,155.175c0,13.021 -10.85,20.609 -21.7,20.609c-4.342,-0 -9.758,2.166 -9.758,8.679c-0,6.508 5.416,8.679 14.1,8.679l91.146,-0c8.679,-0 8.679,-8.679 8.679,-8.679c-0,-0 -0,-8.679 -8.679,-8.679c-7.588,-0 -17.363,-9.759 -17.363,-19.534l0,-225.696c0,-8.679 -3.246,-13.02 -10.85,-13.02c-7.587,-0 -14.096,2.17 -20.608,2.17c-10.85,0 -13.021,0 -21.7,-2.17c-4.342,-0 -9.775,6.512 -13.021,10.854l-33.646,116.108" style="fill-rule:nonzero;"/></g><g><path d="M5766.02,1129.79c0,-7.588 -3.25,-8.679 -6.512,-8.679c-4.342,-0 -6.508,3.262 -7.588,6.508c-5.433,15.192 -17.358,34.725 -33.645,34.725c-2.171,-0 -4.338,-0 -6.509,-1.079l-16.266,-5.434c-10.855,-4.341 -36.896,-13.02 -58.596,-13.02c-7.604,-0 -14.113,1.095 -20.625,3.262c11.946,-20.625 68.366,-47.742 80.296,-51.004c39.062,-5.417 71.612,-28.213 71.612,-70.521c0,-26.042 -10.85,-43.404 -24.946,-56.425c-28.212,-22.796 -69.446,-26.042 -81.387,-26.042c-39.063,0 -70.521,2.171 -98.734,34.721c-7.604,8.684 -10.85,17.363 -10.85,26.042c0,7.587 3.246,16.271 6.509,26.042c6.512,13.02 20.608,22.779 35.8,22.779c27.133,-0 30.379,-26.042 30.379,-37.971c-0,-24.963 -27.117,-27.133 -27.117,-37.983c0,-7.588 10.85,-20.609 43.404,-20.609c50.988,0 68.35,42.309 68.35,55.329c0,19.534 -6.512,37.988 -17.362,53.18c-19.529,24.945 -55.329,33.625 -82.463,50.987c-30.383,18.454 -50.991,49.913 -60.766,84.638c-0,7.604 3.266,16.283 9.775,19.529c1.075,1.096 3.246,1.096 4.341,1.096c11.925,-0 18.438,-33.646 50.988,-33.646c21.704,-0 29.308,29.304 78.125,29.304c22.796,-0 65.104,-2.171 73.787,-85.729" style="fill-rule:nonzero;"/></g><g><path d="M6609.77,1118.94l0,-116.096c0,-5.433 -1.095,-9.771 -6.512,-9.771c-4.342,0 -7.604,1.092 -10.85,5.433l-32.554,62.934c-2.167,2.17 -5.434,5.416 -5.434,13.021l0,44.479l-70.52,-0c44.479,-36.892 113.925,-159.496 115.016,-166.009c0,-1.091 1.079,-2.17 1.079,-3.262c0,-4.342 -4.341,-7.588 -7.587,-7.588c-5.433,0 -28.213,2.171 -37.988,2.171c-9.754,0 -16.266,-2.171 -20.608,-2.171c-5.433,0 -13.021,2.171 -13.021,10.85c0,69.446 -56.421,148.646 -70.537,168.18c-2.171,2.166 -4.338,5.433 -4.338,8.679c0,5.433 4.338,10.85 10.85,10.85l97.654,-0l0,33.646c0,15.191 -8.679,19.533 -17.358,19.533c-9.758,-0 -14.1,4.337 -14.1,9.754c0,5.438 2.171,11.946 11.929,11.946l93.317,-0c5.433,-0 10.85,-4.342 10.85,-11.946c-0,-7.583 -6.513,-10.85 -11.929,-10.85c-5.434,0 -17.359,-3.246 -17.359,-20.608l0,-31.475l40.138,-0c5.433,-0 8.679,-4.342 8.679,-10.85c0,-6.513 -2.171,-10.85 -8.679,-10.85l-40.138,-0" style="fill-rule:nonzero;"/></g><g><path d="M7503.31,1118.94l0,-116.096c0,-5.433 -1.096,-9.771 -6.512,-9.771c-4.338,0 -7.605,1.092 -10.85,5.433l-32.55,62.934c-2.171,2.17 -5.438,5.416 -5.438,13.021l0,44.479l-70.521,-0c44.479,-36.892 113.925,-159.496 115.021,-166.009c0,-1.091 1.075,-2.17 1.075,-3.262c0,-4.342 -4.342,-7.588 -7.587,-7.588c-5.434,0 -28.213,2.171 -37.988,2.171c-9.754,0 -16.267,-2.171 -20.604,-2.171c-5.438,0 -13.021,2.171 -13.021,10.85c0,69.446 -56.425,148.646 -70.542,168.18c-2.166,2.166 -4.337,5.433 -4.337,8.679c-0,5.433 4.337,10.85 10.85,10.85l97.654,-0l0,33.646c0,15.191 -8.679,19.533 -17.358,19.533c-9.759,-0 -14.1,4.337 -14.1,9.754c-0,5.438 2.171,11.946 11.929,11.946l93.317,-0c5.433,-0 10.85,-4.342 10.85,-11.946c-0,-7.583 -6.513,-10.85 -11.93,-10.85c-5.433,0 -17.358,-3.246 -17.358,-20.608l0,-31.475l40.138,-0c5.433,-0 8.679,-4.342 8.679,-10.85c-0,-6.513 -2.167,-10.85 -8.679,-10.85l-40.138,-0" style="fill-rule:nonzero;"/></g><g><path d="M8276.98,1067.95c-0,0 -1.079,4.342 -1.079,7.588c-0,4.341 4.341,8.679 8.683,8.679c3.246,-0 5.417,-3.246 6.508,-4.338c1.079,-3.246 14.1,-47.746 20.609,-58.596c2.17,-4.337 4.341,-5.416 5.433,-5.416c2.171,-0 3.246,4.341 3.246,7.587l-0,155.175c-0,13.021 -10.85,20.609 -21.7,20.609c-4.342,-0 -9.759,2.166 -9.759,8.679c0,6.508 5.417,8.679 14.1,8.679l91.146,-0c8.679,-0 8.679,-8.679 8.679,-8.679c0,-0 0,-8.679 -8.679,-8.679c-7.587,-0 -17.362,-9.759 -17.362,-19.534l-0,-225.696c-0,-8.679 -3.246,-13.02 -10.85,-13.02c-7.588,-0 -14.096,2.17 -20.609,2.17c-10.85,0 -13.02,0 -21.7,-2.17c-4.341,-0 -9.775,6.512 -13.02,10.854l-33.646,116.108" style="fill-rule:nonzero;"/></g><g><path d="M9479.56,1024.93c0,-7.583 -3.267,-8.679 -6.512,-8.679c-4.342,0 -6.509,3.262 -7.605,6.512c-5.416,15.188 -17.362,34.721 -33.629,34.721c-2.171,0 -4.337,0 -6.508,-1.075l-16.288,-5.437c-10.85,-4.338 -36.891,-13.021 -58.591,-13.021c-7.588,-0 -14.096,1.096 -20.609,3.267c11.93,-20.625 68.35,-47.746 80.296,-51.009c39.063,-5.416 71.613,-28.212 71.613,-70.521c-0,-26.041 -10.85,-43.404 -24.963,-56.425c-28.212,-22.791 -69.446,-26.041 -81.371,-26.041c-39.062,-0 -70.541,2.171 -98.75,34.725c-7.587,8.679 -10.854,17.358 -10.854,26.041c0,7.588 3.267,16.267 6.513,26.042c6.508,13.021 20.625,22.775 35.816,22.775c27.117,0 30.38,-26.042 30.38,-37.967c-0,-24.966 -27.134,-27.137 -27.134,-37.987c0,-7.588 10.85,-20.608 43.404,-20.608c51.005,-0 68.367,42.312 68.367,55.333c0,19.529 -6.512,37.983 -17.362,53.175c-19.53,24.95 -55.346,33.629 -82.463,50.992c-30.383,18.454 -51.008,49.912 -60.767,84.633c0,7.604 3.246,16.283 9.759,19.533c1.091,1.092 3.262,1.092 4.341,1.092c11.942,-0 18.455,-33.646 51.005,-33.646c21.704,0 29.287,29.304 78.125,29.304c22.779,0 65.104,-2.166 73.787,-85.729" style="fill-rule:nonzero;"/></g><g><path d="M10462.6,919.288l0,-116.092c0,-5.433 -1.091,-9.775 -6.508,-9.775c-4.342,-0 -7.604,1.091 -10.854,5.433l-32.55,62.934c-2.171,2.17 -5.433,5.416 -5.433,13.02l-0,44.48l-70.521,-0c44.479,-36.892 113.921,-159.496 115.016,-166.009c0,-1.091 1.075,-2.166 1.075,-3.262c0,-4.342 -4.337,-7.588 -7.587,-7.588c-5.433,0 -28.208,2.171 -37.983,2.171c-9.759,0 -16.267,-2.171 -20.609,-2.171c-5.433,0 -13.021,2.171 -13.021,10.85c0,69.446 -56.425,148.646 -70.537,168.179c-2.171,2.171 -4.342,5.434 -4.342,8.68c0,5.433 4.342,10.85 10.85,10.85l97.659,-0l-0,33.645c-0,15.192 -8.684,19.534 -17.363,19.534c-9.758,-0 -14.096,4.341 -14.096,9.758c0,5.433 2.171,11.942 11.925,11.942l93.317,-0c5.433,-0 10.85,-4.338 10.85,-11.942c-0,-7.587 -6.508,-10.854 -11.925,-10.854c-5.433,-0 -17.363,-3.246 -17.363,-20.604l0,-31.479l40.138,-0c5.437,-0 8.683,-4.338 8.683,-10.85c0,-6.509 -2.171,-10.85 -8.683,-10.85l-40.138,-0" style="fill-rule:nonzero;"/></g><g><path d="M11374.7,1067.95c-0,0 -1.075,4.342 -1.075,7.588c-0,4.341 4.341,8.679 8.679,8.679c3.246,-0 5.417,-3.246 6.512,-4.338c1.075,-3.246 14.096,-47.746 20.609,-58.596c2.166,-4.337 4.337,-5.416 5.433,-5.416c2.171,-0 3.246,4.341 3.246,7.587l-0,155.175c-0,13.021 -10.85,20.609 -21.7,20.609c-4.342,-0 -9.758,2.166 -9.758,8.679c-0,6.508 5.416,8.679 14.095,8.679l91.146,-0c8.684,-0 8.684,-8.679 8.684,-8.679c-0,-0 -0,-8.679 -8.684,-8.679c-7.587,-0 -17.358,-9.759 -17.358,-19.534l-0,-225.696c-0,-8.679 -3.25,-13.02 -10.854,-13.02c-7.584,-0 -14.096,2.17 -20.604,2.17c-10.855,0 -13.021,0 -21.705,-2.17c-4.337,-0 -9.775,6.512 -13.02,10.854l-33.646,116.108" style="fill-rule:nonzero;"/></g><g><path d="M12438.1,1129.79c0,-7.588 -3.246,-8.679 -6.508,-8.679c-4.342,-0 -6.513,3.262 -7.588,6.508c-5.433,15.192 -17.362,34.725 -33.646,34.725c-2.17,-0 -4.341,-0 -6.512,-1.079l-16.267,-5.434c-10.85,-4.341 -36.891,-13.02 -58.591,-13.02c-7.605,-0 -14.117,1.095 -20.625,3.262c11.941,-20.625 68.366,-47.742 80.291,-51.004c39.063,-5.417 71.617,-28.213 71.617,-70.521c-0,-26.042 -10.85,-43.404 -24.95,-56.425c-28.208,-22.796 -69.442,-26.042 -81.388,-26.042c-39.062,0 -70.52,2.171 -98.733,34.721c-7.604,8.684 -10.85,17.363 -10.85,26.042c0,7.587 3.246,16.271 6.513,26.042c6.508,13.02 20.604,22.779 35.795,22.779c27.138,-0 30.384,-26.042 30.384,-37.971c-0,-24.963 -27.117,-27.133 -27.117,-37.983c0,-7.588 10.85,-20.609 43.4,-20.609c50.992,0 68.35,42.309 68.35,55.329c0,19.534 -6.508,37.988 -17.358,53.18c-19.534,24.945 -55.329,33.625 -82.467,50.987c-30.383,18.454 -50.987,49.913 -60.762,84.638c-0,7.604 3.262,16.283 9.775,19.529c1.075,1.096 3.245,1.096 4.337,1.096c11.929,-0 18.438,-33.646 50.992,-33.646c21.7,-0 29.304,29.304 78.125,29.304c22.796,-0 65.104,-2.171 73.783,-85.729" style="fill-rule:nonzero;"/></g><g><path d="M13281.9,1118.94l-0,-116.096c-0,-5.433 -1.079,-9.771 -6.513,-9.771c-4.341,0 -7.587,1.092 -10.85,5.433l-32.554,62.934c-2.167,2.17 -5.417,5.416 -5.417,13.021l0,44.479l-70.537,-0c44.496,-36.892 113.942,-159.496 115.017,-166.009c-0,-1.091 1.095,-2.17 1.095,-3.262c0,-4.342 -4.341,-7.588 -7.604,-7.588c-5.416,0 -28.212,2.171 -37.971,2.171c-9.77,0 -16.283,-2.171 -20.625,-2.171c-5.416,0 -13.02,2.171 -13.02,10.85c-0,69.446 -56.421,148.646 -70.521,168.18c-2.167,2.166 -4.338,5.433 -4.338,8.679c0,5.433 4.338,10.85 10.85,10.85l97.654,-0l0,33.646c0,15.191 -8.679,19.533 -17.358,19.533c-9.775,-0 -14.117,4.337 -14.117,9.754c0,5.438 2.171,11.946 11.946,11.946l93.317,-0c5.417,-0 10.85,-4.342 10.85,-11.946c-0,-7.583 -6.513,-10.85 -11.946,-10.85c-5.417,0 -17.358,-3.246 -17.358,-20.608l-0,-31.475l40.154,-0c5.417,-0 8.679,-4.342 8.679,-10.85c0,-6.513 -2.167,-10.85 -8.679,-10.85l-40.154,-0" style="fill-rule:nonzero;"/></g><g><path d="M14175.4,1118.72l0,-116.113c0,-5.416 -1.095,-9.758 -6.512,-9.758c-4.338,-0 -7.604,1.079 -10.85,5.417l-32.55,62.937c-2.171,2.167 -5.438,5.433 -5.438,13.017l0,44.5l-70.52,-0c44.479,-36.892 113.925,-159.517 115.02,-166.025c0,-1.075 1.075,-2.171 1.075,-3.246c0,-4.342 -4.341,-7.604 -7.587,-7.604c-5.433,-0 -28.213,2.166 -37.988,2.166c-9.754,0 -16.266,-2.166 -20.604,-2.166c-5.437,-0 -13.021,2.166 -13.021,10.85c0,69.441 -56.425,148.662 -70.541,168.196c-2.167,2.166 -4.338,5.412 -4.338,8.679c0,5.416 4.338,10.85 10.85,10.85l97.654,-0l0,33.629c0,15.192 -8.679,19.529 -17.358,19.529c-9.758,0 -14.1,4.342 -14.1,9.775c0,5.417 2.171,11.929 11.929,11.929l93.317,0c5.433,0 10.85,-4.341 10.85,-11.929c-0,-7.604 -6.513,-10.85 -11.929,-10.85c-5.434,0 -17.359,-3.262 -17.359,-20.625l0,-31.458l40.138,-0c5.433,-0 8.679,-4.342 8.679,-10.85c0,-6.513 -2.167,-10.85 -8.679,-10.85l-40.138,-0" style="fill-rule:nonzero;"/></g><g><path d="M15396.3,932.308c0,0 -1.092,4.342 -1.092,7.605c0,4.341 4.342,8.683 8.68,8.683c3.266,-0 5.433,-3.267 6.512,-4.342c1.092,-3.262 14.113,-47.741 20.625,-58.596c2.171,-4.337 4.338,-5.433 5.417,-5.433c2.171,0 3.262,4.342 3.262,7.604l0,155.158c0,13.021 -10.85,20.625 -21.7,20.625c-4.341,0 -9.775,2.171 -9.775,8.68c0,6.512 5.434,8.679 14.113,8.679l91.146,-0c8.683,-0 8.683,-8.679 8.683,-8.679c-0,-0 -0,-8.68 -8.683,-8.68c-7.605,0 -17.359,-9.775 -17.359,-19.533l0,-225.692c0,-8.683 -3.266,-13.02 -10.85,-13.02c-7.604,-0 -14.116,2.166 -20.625,2.166c-10.854,0 -13.021,0 -21.704,-2.166c-4.337,-0 -9.754,6.508 -13.021,10.85l-33.629,116.091" style="fill-rule:nonzero;"/></g><g><path d="M16598.9,856.233c0,-7.604 -3.245,-8.679 -6.508,-8.679c-4.342,0 -6.512,3.246 -7.587,6.509c-5.434,15.191 -17.363,34.72 -33.646,34.72c-2.171,0 -4.342,0 -6.509,-1.091l-16.27,-5.417c-10.85,-4.342 -36.892,-13.021 -58.592,-13.021c-7.604,0 -14.117,1.075 -20.625,3.246c11.946,-20.608 68.367,-47.742 80.296,-50.987c39.062,-5.438 71.612,-28.213 71.612,-70.542c0,-26.042 -10.85,-43.4 -24.946,-56.421c-28.212,-22.779 -69.445,-26.042 -81.391,-26.042c-39.063,0 -70.521,2.167 -98.729,34.721c-7.605,8.679 -10.855,17.363 -10.855,26.042c0,7.604 3.25,16.283 6.513,26.042c6.508,13.02 20.608,22.795 35.8,22.795c27.133,0 30.379,-26.041 30.379,-37.987c0,-24.946 -27.117,-27.117 -27.117,-37.967c0,-7.604 10.85,-20.625 43.405,-20.625c50.987,0 68.35,42.325 68.35,55.346c-0,19.533 -6.513,37.967 -17.363,53.158c-19.529,24.967 -55.329,33.646 -82.467,51.009c-30.379,18.437 -50.987,49.912 -60.762,84.637c-0,7.583 3.262,16.267 9.775,19.529c1.075,1.075 3.246,1.075 4.342,1.075c11.925,0 18.437,-33.625 50.987,-33.625c21.7,0 29.304,29.288 78.125,29.288c22.796,-0 65.104,-2.171 73.783,-85.713" style="fill-rule:nonzero;"/></g><g><path d="M17581.9,715.071l0,-116.113c0,-5.416 -1.075,-9.758 -6.508,-9.758c-4.342,-0 -7.587,1.079 -10.854,5.417l-32.55,62.937c-2.171,2.167 -5.417,5.433 -5.417,13.021l0,44.496l-70.537,-0c44.496,-36.892 113.941,-159.517 115.016,-166.025c0,-1.075 1.092,-2.171 1.092,-3.246c0,-4.342 -4.337,-7.604 -7.604,-7.604c-5.417,-0 -28.208,2.171 -37.967,2.171c-9.775,-0 -16.283,-2.171 -20.625,-2.171c-5.416,-0 -13.021,2.171 -13.021,10.85c0,69.446 -56.425,148.662 -70.52,168.196c-2.171,2.166 -4.342,5.416 -4.342,8.679c-0,5.417 4.342,10.85 10.85,10.85l97.658,-0l0,33.629c0,15.192 -8.679,19.529 -17.362,19.529c-9.775,0 -14.113,4.342 -14.113,9.775c0,5.417 2.171,11.929 11.942,11.929l93.317,0c5.416,0 10.85,-4.341 10.85,-11.929c-0,-7.604 -6.509,-10.85 -11.942,-10.85c-5.417,0 -17.363,-3.262 -17.363,-20.625l0,-31.458l40.159,-0c5.416,-0 8.679,-4.342 8.679,-10.85c-0,-6.513 -2.171,-10.85 -8.679,-10.85l-40.159,-0" style="fill-rule:nonzero;"/></g><g><path d="M18494.4,528.679c0,0 -1.091,4.342 -1.091,7.588c-0,4.341 4.337,8.679 8.679,8.679c3.262,-0 5.433,-3.246 6.508,-4.338c1.096,-3.245 14.117,-47.745 20.625,-58.595c2.171,-4.338 4.342,-5.417 5.417,-5.417c2.171,-0 3.267,4.342 3.267,7.587l-0,155.175c-0,13.021 -10.85,20.609 -21.705,20.609c-4.337,-0 -9.77,2.166 -9.77,8.679c-0,6.512 5.433,8.679 14.112,8.679l91.146,0c8.679,0 8.679,-8.679 8.679,-8.679c0,-0 0,-8.679 -8.679,-8.679c-7.604,-0 -17.363,-9.759 -17.363,-19.534l0,-225.695c0,-8.68 -3.262,-13.021 -10.85,-13.021c-7.604,-0 -14.112,2.171 -20.625,2.171c-10.85,-0 -13.02,-0 -21.7,-2.171c-4.341,-0 -9.758,6.512 -13.02,10.854l-33.63,116.108" style="fill-rule:nonzero;"/></g><g><path d="M19557.2,452.588c-0,-7.605 -3.246,-8.684 -6.509,-8.684c-4.341,0 -6.512,3.25 -7.587,6.513c-5.433,15.191 -17.363,34.721 -33.646,34.721c-2.171,-0 -4.342,-0 -6.508,-1.092l-16.271,-5.417c-10.85,-4.341 -36.892,-13.021 -58.592,-13.021c-7.604,0 -14.116,1.075 -20.625,3.246c11.946,-20.608 68.367,-47.741 80.296,-50.991c39.063,-5.434 71.613,-28.209 71.613,-70.538c-0,-26.042 -10.85,-43.4 -24.946,-56.421c-28.213,-22.779 -69.446,-26.041 -81.392,-26.041c-39.062,-0 -70.521,2.166 -98.729,34.72c-7.604,8.68 -10.854,17.363 -10.854,26.042c-0,7.604 3.25,16.283 6.512,26.042c6.509,13.02 20.609,22.796 35.8,22.796c27.134,-0 30.379,-26.042 30.379,-37.988c0,-24.946 -27.116,-27.117 -27.116,-37.967c-0,-7.604 10.85,-20.625 43.404,-20.625c50.987,0 68.35,42.325 68.35,55.346c-0,19.529 -6.513,37.967 -17.363,53.158c-19.529,24.967 -55.329,33.646 -82.466,51.009c-30.379,18.437 -50.988,49.912 -60.763,84.633c0,7.588 3.263,16.271 9.775,19.533c1.075,1.075 3.246,1.075 4.342,1.075c11.925,0 18.437,-33.629 50.987,-33.629c21.7,0 29.305,29.292 78.125,29.292c22.796,-0 65.105,-2.171 73.784,-85.713" style="fill-rule:nonzero;"/></g><g><path d="M20331.6,134.792c-59.671,-0 -85.712,40.158 -85.712,62.933c-0,15.192 8.679,33.646 35.8,34.721c20.625,-0 30.379,-13.021 30.379,-27.117l-0,-4.337c-1.075,-16.288 -11.925,-17.363 -14.096,-18.459c-2.171,-1.075 -6.513,-5.416 -6.513,-13.021c2.171,-11.925 18.438,-16.266 22.78,-16.266c55.345,-0 71.616,29.287 71.616,47.746c0,50.987 -52.083,55.329 -68.354,56.421c-7.604,-0 -15.187,3.245 -15.187,9.758c-0,6.508 9.754,6.508 14.095,6.508c62.934,0 71.613,32.554 71.613,48.838c-0,62.933 -50.988,65.104 -64.008,65.104c-6.513,-0 -17.363,-3.263 -18.455,-8.679l0,-6.513c0,-11.942 3.263,-24.962 4.338,-35.817c-0,-19.529 -13.021,-31.454 -32.55,-31.454l-4.342,0c-7.587,2.167 -15.191,6.509 -20.608,11.925c-7.604,6.513 -9.771,16.284 -9.771,26.042c1.092,34.721 31.475,64.029 85.729,65.104l6.509,0c53.158,0 108.508,-28.212 108.508,-75.954c-0,-10.85 -2.171,-19.533 -5.433,-26.042c-2.171,-6.512 -6.513,-11.929 -10.855,-16.266c-3.245,-4.342 -7.583,-7.604 -11.925,-10.85l-11.945,-6.513l-6.509,-2.171c-2.171,0 -3.246,-1.091 -5.416,-1.091l-6.513,-2.171c-3.262,-1.075 -4.337,-0 -5.433,-2.171c-1.075,-1.075 -1.075,-2.171 -1.075,-3.246c-0,-2.171 1.075,-4.342 3.246,-4.342l17.362,-5.433c7.604,-4.342 15.188,-7.587 20.625,-15.192c8.679,-8.679 11.925,-22.775 11.925,-34.72c0,-50.992 -67.275,-65.105 -91.146,-67.275l-8.679,-0" style="fill-rule:nonzero;"/></g><g><path d="M21293.9,176.875l0,-116.113c0,-5.416 -1.091,-9.754 -6.508,-9.754c-4.342,0 -7.604,1.075 -10.854,5.417l-32.55,62.933c-2.171,2.171 -5.433,5.434 -5.433,13.021l-0,44.496l-70.521,-0c44.479,-36.892 113.921,-159.513 115.016,-166.025c0,-1.075 1.075,-2.171 1.075,-3.246c0,-4.342 -4.337,-7.604 -7.587,-7.604c-5.433,-0 -28.208,2.171 -37.983,2.171c-9.759,-0 -16.267,-2.171 -20.609,-2.171c-5.433,-0 -13.021,2.171 -13.021,10.85c0,69.446 -56.425,148.663 -70.537,168.196c-2.171,2.171 -4.342,5.416 -4.342,8.679c0,5.417 4.342,10.85 10.85,10.85l97.659,-0l-0,33.629c-0,15.192 -8.684,19.533 -17.363,19.533c-9.758,0 -14.096,4.338 -14.096,9.771c0,5.421 2.171,11.929 11.925,11.929l93.317,0c5.433,0 10.85,-4.341 10.85,-11.929c-0,-7.604 -6.508,-10.85 -11.925,-10.85c-5.433,0 -17.363,-3.262 -17.363,-20.625l0,-31.458l40.138,-0c5.437,-0 8.683,-4.338 8.683,-10.85c0,-6.508 -2.171,-10.85 -8.683,-10.85l-40.138,-0" style="fill-rule:nonzero;"/></g><g><path d="M22187.3,176.875l0,-116.113c0,-5.416 -1.095,-9.754 -6.512,-9.754c-4.338,0 -7.604,1.075 -10.85,5.417l-32.55,62.933c-2.171,2.171 -5.438,5.434 -5.438,13.021l0,44.496l-70.52,-0c44.479,-36.892 113.925,-159.513 115.02,-166.025c0,-1.075 1.075,-2.171 1.075,-3.246c0,-4.342 -4.341,-7.604 -7.587,-7.604c-5.433,-0 -28.213,2.171 -37.988,2.171c-9.754,-0 -16.266,-2.171 -20.604,-2.171c-5.437,-0 -13.021,2.171 -13.021,10.85c0,69.446 -56.425,148.663 -70.541,168.196c-2.167,2.171 -4.338,5.416 -4.338,8.679c0,5.417 4.338,10.85 10.85,10.85l97.654,-0l0,33.629c0,15.192 -8.679,19.533 -17.358,19.533c-9.758,0 -14.1,4.338 -14.1,9.771c0,5.421 2.171,11.929 11.929,11.929l93.317,0c5.433,0 10.85,-4.341 10.85,-11.929c-0,-7.604 -6.513,-10.85 -11.929,-10.85c-5.434,0 -17.359,-3.262 -17.359,-20.625l0,-31.458l40.138,-0c5.433,-0 8.679,-4.338 8.679,-10.85c0,-6.508 -2.167,-10.85 -8.679,-10.85l-40.138,-0" style="fill-rule:nonzero;"/></g><g><path d="M23011.8,134.792c-59.67,-0 -85.712,40.158 -85.712,62.933c-0,15.192 8.679,33.646 35.8,34.721c20.625,-0 30.379,-13.021 30.379,-27.117l0,-4.337c-1.075,-16.288 -11.925,-17.363 -14.096,-18.459c-2.171,-1.075 -6.512,-5.416 -6.512,-13.021c2.171,-11.925 18.437,-16.266 22.779,-16.266c55.346,-0 71.617,29.287 71.617,47.746c-0,50.987 -52.084,55.329 -68.355,56.421c-7.604,-0 -15.187,3.245 -15.187,9.758c-0,6.508 9.754,6.508 14.096,6.508c62.933,0 71.612,32.554 71.612,48.838c0,62.933 -50.987,65.104 -64.008,65.104c-6.513,-0 -17.363,-3.263 -18.454,-8.679l-0,-6.513c-0,-11.942 3.262,-24.962 4.337,-35.817c0,-19.529 -13.021,-31.454 -32.55,-31.454l-4.341,0c-7.588,2.167 -15.192,6.509 -20.609,11.925c-7.604,6.513 -9.771,16.284 -9.771,26.042c1.092,34.721 31.475,64.029 85.73,65.104l6.508,0c53.158,0 108.508,-28.212 108.508,-75.954c0,-10.85 -2.171,-19.533 -5.433,-26.042c-2.171,-6.512 -6.513,-11.929 -10.854,-16.266c-3.246,-4.342 -7.584,-7.604 -11.925,-10.85l-11.946,-6.513l-6.508,-2.171c-2.171,0 -3.246,-1.091 -5.417,-1.091l-6.513,-2.171c-3.262,-1.075 -4.337,-0 -5.433,-2.171c-1.075,-1.075 -1.075,-2.171 -1.075,-3.246c0,-2.171 1.075,-4.342 3.246,-4.342l17.362,-5.433c7.605,-4.342 15.188,-7.587 20.625,-15.192c8.68,-8.679 11.925,-22.775 11.925,-34.72c0,-50.992 -67.275,-65.105 -91.145,-67.275l-8.68,-0" style="fill-rule:nonzero;"/></g><g><path d="M24023.9,452.588c0,-7.605 -3.245,-8.684 -6.508,-8.684c-4.342,0 -6.512,3.25 -7.587,6.513c-5.434,15.191 -17.363,34.721 -33.646,34.721c-2.171,-0 -4.342,-0 -6.509,-1.092l-16.27,-5.417c-10.85,-4.341 -36.892,-13.021 -58.592,-13.021c-7.604,0 -14.117,1.075 -20.625,3.246c11.946,-20.608 68.367,-47.741 80.296,-50.991c39.062,-5.434 71.612,-28.209 71.612,-70.538c0,-26.042 -10.85,-43.4 -24.946,-56.421c-28.212,-22.779 -69.445,-26.041 -81.391,-26.041c-39.063,-0 -70.521,2.166 -98.729,34.72c-7.605,8.68 -10.855,17.363 -10.855,26.042c0,7.604 3.25,16.283 6.513,26.042c6.508,13.02 20.608,22.796 35.8,22.796c27.133,-0 30.379,-26.042 30.379,-37.988c0,-24.946 -27.117,-27.117 -27.117,-37.967c0,-7.604 10.85,-20.625 43.405,-20.625c50.987,0 68.35,42.325 68.35,55.346c-0,19.529 -6.513,37.967 -17.363,53.158c-19.529,24.967 -55.329,33.646 -82.467,51.009c-30.379,18.437 -50.987,49.912 -60.762,84.633c-0,7.588 3.262,16.271 9.775,19.533c1.075,1.075 3.246,1.075 4.342,1.075c11.925,0 18.437,-33.629 50.987,-33.629c21.7,0 29.304,29.292 78.125,29.292c22.796,-0 65.104,-2.171 73.783,-85.713" style="fill-rule:nonzero;"/></g><g><path d="M24747.5,528.679c0,0 -1.091,4.342 -1.091,7.588c-0,4.341 4.337,8.679 8.679,8.679c3.262,-0 5.433,-3.246 6.508,-4.338c1.096,-3.245 14.117,-47.745 20.625,-58.595c2.171,-4.338 4.342,-5.417 5.417,-5.417c2.171,-0 3.267,4.342 3.267,7.587l-0,155.175c-0,13.021 -10.85,20.609 -21.705,20.609c-4.337,-0 -9.77,2.166 -9.77,8.679c-0,6.512 5.433,8.679 14.112,8.679l91.146,0c8.679,0 8.679,-8.679 8.679,-8.679c0,-0 0,-8.679 -8.679,-8.679c-7.604,-0 -17.363,-9.759 -17.363,-19.534l0,-225.695c0,-8.68 -3.262,-13.021 -10.85,-13.021c-7.604,-0 -14.112,2.171 -20.625,2.171c-10.85,-0 -13.02,-0 -21.7,-2.171c-4.341,-0 -9.758,6.512 -13.02,10.854l-33.63,116.108" style="fill-rule:nonzero;"/></g><g><path d="M25760.9,715.071l0,-116.113c0,-5.416 -1.075,-9.758 -6.508,-9.758c-4.342,-0 -7.587,1.079 -10.85,5.417l-32.554,62.937c-2.171,2.167 -5.417,5.433 -5.417,13.021l0,44.496l-70.537,-0c44.496,-36.892 113.941,-159.517 115.016,-166.025c0,-1.075 1.096,-2.171 1.096,-3.246c0,-4.342 -4.341,-7.604 -7.604,-7.604c-5.417,-0 -28.212,2.171 -37.971,2.171c-9.775,-0 -16.283,-2.171 -20.625,-2.171c-5.416,-0 -13.021,2.171 -13.021,10.85c0,69.446 -56.42,148.662 -70.52,168.196c-2.171,2.166 -4.338,5.416 -4.338,8.679c0,5.417 4.338,10.85 10.85,10.85l97.654,-0l0,33.629c0,15.192 -8.679,19.529 -17.358,19.529c-9.775,0 -14.117,4.342 -14.117,9.775c0,5.417 2.171,11.929 11.946,11.929l93.317,0c5.416,0 10.85,-4.341 10.85,-11.929c-0,-7.604 -6.513,-10.85 -11.946,-10.85c-5.417,0 -17.363,-3.262 -17.363,-20.625l0,-31.458l40.159,-0c5.416,-0 8.679,-4.342 8.679,-10.85c-0,-6.513 -2.171,-10.85 -8.679,-10.85l-40.159,-0" style="fill-rule:nonzero;"/></g><g><path d="M26843.5,856.233c0,-7.604 -3.266,-8.679 -6.512,-8.679c-4.338,0 -6.508,3.246 -7.604,6.509c-5.417,15.191 -17.359,34.72 -33.629,34.72c-2.167,0 -4.338,0 -6.509,-1.091l-16.283,-5.417c-10.854,-4.342 -36.896,-13.021 -58.596,-13.021c-7.587,0 -14.096,1.075 -20.608,3.246c11.929,-20.608 68.35,-47.742 80.296,-50.987c39.062,-5.438 71.616,-28.213 71.616,-70.542c0,-26.042 -10.854,-43.4 -24.966,-56.421c-28.213,-22.779 -69.446,-26.042 -81.371,-26.042c-39.063,0 -70.538,2.167 -98.75,34.721c-7.588,8.679 -10.85,17.363 -10.85,26.042c-0,7.604 3.262,16.283 6.508,26.042c6.513,13.02 20.625,22.795 35.817,22.795c27.116,0 30.383,-26.041 30.383,-37.987c0,-24.946 -27.137,-27.117 -27.137,-37.967c-0,-7.604 10.85,-20.625 43.404,-20.625c51.004,0 68.366,42.325 68.366,55.346c0,19.533 -6.508,37.967 -17.362,53.158c-19.529,24.967 -55.346,33.646 -82.463,51.009c-30.383,18.437 -51.008,49.912 -60.766,84.637c-0,7.583 3.25,16.267 9.758,19.529c1.096,1.075 3.263,1.075 4.342,1.075c11.941,0 18.454,-33.625 51.004,-33.625c21.704,0 29.292,29.288 78.125,29.288c22.779,-0 65.104,-2.171 73.787,-85.713" style="fill-rule:nonzero;"/></g><g><path d="M27706.7,932.308c-0,0 -1.075,4.342 -1.075,7.605c-0,4.341 4.341,8.683 8.679,8.683c3.25,-0 5.417,-3.267 6.512,-4.342c1.075,-3.262 14.096,-47.741 20.609,-58.596c2.171,-4.337 4.337,-5.433 5.433,-5.433c2.171,0 3.246,4.342 3.246,7.604l-0,155.158c-0,13.021 -10.85,20.625 -21.7,20.625c-4.342,0 -9.758,2.171 -9.758,8.68c-0,6.512 5.416,8.679 14.095,8.679l91.146,-0c8.684,-0 8.684,-8.679 8.684,-8.679c-0,-0 -0,-8.68 -8.684,-8.68c-7.583,0 -17.358,-9.775 -17.358,-19.533l-0,-225.692c-0,-8.683 -3.246,-13.02 -10.85,-13.02c-7.588,-0 -14.1,2.166 -20.608,2.166c-10.85,0 -13.021,0 -21.705,-2.166c-4.337,-0 -9.77,6.508 -13.02,10.85l-33.646,116.091" style="fill-rule:nonzero;"/></g><g><path d="M1612.06,3370.47c96.562,-0 214.842,-88.979 214.842,-181.217c-0,-55.329 -43.405,-90.054 -105.259,-90.054c-119.358,0 -214.846,87.883 -214.846,181.2c0,56.425 46.667,90.071 105.263,90.071" style="fill-rule:nonzero;"/></g><g><path d="M2644.92,3235.92c96.58,-0 214.846,-88.975 214.846,-181.217c0,-55.329 -43.404,-90.05 -105.246,-90.05c-119.358,0 -214.841,87.879 -214.841,181.196c-0,56.425 46.65,90.071 105.241,90.071" style="fill-rule:nonzero;"/></g><g><path d="M3677.81,3101.37c96.562,-0 214.841,-88.975 214.841,-181.213c0,-55.333 -43.4,-90.054 -105.258,-90.054c-119.358,0 -214.846,87.883 -214.846,181.196c0,56.425 46.667,90.071 105.263,90.071" style="fill-rule:nonzero;"/></g><g><path d="M4449.94,2880.02c-6.508,21.7 -57.517,43.404 -82.462,43.404c-6.513,-0 -11.946,-2.171 -13.021,-5.434c-2.171,-4.341 -3.267,-28.212 -3.267,-54.254c0,-33.629 1.096,-71.616 3.267,-80.295c2.166,-18.438 52.083,-41.234 79.2,-41.234c7.604,0 14.112,2.171 16.283,6.513c2.171,5.433 4.342,32.55 4.342,61.854c-0,29.292 -2.171,59.671 -4.342,69.446m74.863,-176.875c7.604,-3.246 13.02,-11.925 13.02,-18.438l0,-77.05c0,-5.416 -3.245,-8.679 -7.587,-8.679c-2.171,0 -3.263,0 -5.433,1.096c-0,-0 -21.7,8.679 -27.117,9.754c-7.604,0 -15.192,-5.417 -15.192,-14.096l0,-132.379c0,-6.508 -6.512,-11.946 -15.191,-11.946c-10.85,0 -17.363,5.438 -17.363,11.946l0,141.058c-1.092,10.85 -4.337,24.95 -14.112,31.459c-13.021,7.604 -49.913,22.796 -68.35,27.137c-9.775,0 -13.021,-13.021 -13.021,-21.704l-0,-130.208c-0,-6.509 -7.604,-11.942 -15.192,-11.942c-10.85,0 -17.362,5.433 -17.362,11.942l-0,146.479c-0,15.187 -6.509,26.042 -13.021,29.304c-6.509,3.246 -28.213,11.925 -28.213,11.925c-7.604,2.171 -13.021,10.854 -13.021,17.363l0,77.05c0,6.508 3.246,9.754 8.684,9.754c4.337,-0 24.946,-9.754 28.208,-11.925c1.079,-0 2.171,-1.096 3.25,-1.096c7.604,-0 14.113,10.854 14.113,19.533l-0,107.429c-0,11.93 -5.434,21.705 -11.946,24.95c-6.509,2.171 -29.288,11.942 -29.288,11.942c-7.604,2.171 -13.021,10.854 -13.021,17.363l0,77.033c0,6.508 3.246,9.771 8.684,9.771c1.075,-0 3.246,-1.092 4.337,-1.092c0,0 15.192,-6.512 24.95,-9.758c1.092,-1.092 2.171,-1.092 3.263,-1.092c7.587,0 13.021,11.942 13.021,17.358l-0,133.475c-0,6.509 6.512,11.925 14.095,11.925c10.855,0 18.459,-5.416 18.459,-11.925l-0,-150.833c-0,-14.1 5.416,-21.704 10.85,-23.871l66.179,-27.121c1.096,0 3.262,-1.091 4.342,-1.091c8.679,-0 14.112,13.021 14.112,19.529l0,135.642c0,6.512 6.513,11.929 14.1,11.929c11.942,-0 18.454,-5.417 18.454,-11.929l0,-154.08c0,-8.679 4.338,-21.7 11.925,-24.962c7.604,-3.25 30.384,-11.929 30.384,-11.929c7.604,-3.263 13.02,-11.946 13.02,-18.454l0,-77.034c0,-5.433 -3.245,-8.679 -7.587,-8.679c-2.171,0 -3.263,0 -5.433,1.075l-28.213,10.854c-6.508,0 -14.096,-6.512 -14.096,-19.533l0,-100.904c0,-7.604 5.417,-28.209 14.096,-31.475l28.213,-10.85" style="fill-rule:nonzero;"/></g><g><path d="M4710.15,2966.83c96.58,0 214.846,-88.979 214.846,-181.217c0,-55.329 -43.404,-90.054 -105.246,-90.054c-119.358,0 -214.841,87.883 -214.841,181.2c-0,56.425 46.65,90.071 105.241,90.071" style="fill-rule:nonzero;"/></g><g><path d="M5603.69,2832.28c96.579,0 214.846,-88.975 214.846,-181.217c-0,-55.329 -43.404,-90.05 -105.246,-90.05c-119.354,0 -214.842,87.88 -214.842,181.196c0,56.425 46.65,90.071 105.242,90.071" style="fill-rule:nonzero;"/></g><g><path d="M6497.23,2697.72c96.562,0 214.846,-88.975 214.846,-181.213c-0,-55.333 -43.405,-90.054 -105.263,-90.054c-119.354,0 -214.842,87.884 -214.842,181.196c0,56.425 46.667,90.071 105.259,90.071" style="fill-rule:nonzero;"/></g><g><path d="M7390.86,2563.18c96.562,0 214.846,-88.979 214.846,-181.216c-0,-55.33 -43.405,-90.055 -105.263,-90.055c-119.358,0 -214.842,87.884 -214.842,181.2c0,56.425 46.667,90.067 105.259,90.067" style="fill-rule:nonzero;"/></g><g><path d="M8284.4,2428.63c96.58,0 214.846,-88.975 214.846,-181.216c0,-55.33 -43.404,-90.05 -105.246,-90.05c-119.358,-0 -214.841,87.879 -214.841,181.195c-0,56.425 46.65,90.071 105.241,90.071" style="fill-rule:nonzero;"/></g><g><path d="M9317.27,2294.08c96.563,0 214.842,-88.975 214.842,-181.212c0,-55.334 -43.4,-90.055 -105.258,-90.055c-119.359,0 -214.846,87.884 -214.846,181.2c-0,56.421 46.667,90.067 105.262,90.067" style="fill-rule:nonzero;"/></g><g><path d="M10350.1,2159.53c96.563,0 214.846,-88.979 214.846,-181.216c0,-55.329 -43.404,-90.054 -105.262,-90.054c-119.354,-0 -214.842,87.883 -214.842,181.2c0,56.425 46.667,90.07 105.258,90.07" style="fill-rule:nonzero;"/></g><g><path d="M11122,1938.18c-6.513,21.7 -57.517,43.4 -82.467,43.4c-6.508,0 -11.946,-2.171 -13.021,-5.433c-2.171,-4.342 -3.262,-28.213 -3.262,-54.254c-0,-33.63 1.091,-71.613 3.262,-80.296c2.171,-18.438 52.084,-41.229 79.2,-41.229c7.604,-0 14.117,2.166 16.288,6.508c2.171,5.433 4.337,32.554 4.337,61.858c0,29.288 -2.166,59.671 -4.337,69.442m74.858,-176.871c7.604,-3.25 13.021,-11.929 13.021,-18.437l-0,-77.05c-0,-5.417 -3.246,-8.68 -7.583,-8.68c-2.171,0 -3.267,0 -5.438,1.092c0,0 -21.7,8.679 -27.117,9.758c-7.604,0 -15.191,-5.416 -15.191,-14.1l-0,-132.375c-0,-6.512 -6.509,-11.945 -15.192,-11.945c-10.85,-0 -17.358,5.433 -17.358,11.945l-0,141.059c-1.096,10.85 -4.342,24.946 -14.117,31.458c-13.021,7.604 -49.912,22.796 -68.35,27.133c-9.775,0 -13.021,-13.02 -13.021,-21.7l0,-130.208c0,-6.512 -7.604,-11.946 -15.191,-11.946c-10.85,0 -17.359,5.434 -17.359,11.946l0,146.475c0,15.192 -6.512,26.042 -13.021,29.304c-6.512,3.25 -28.212,11.929 -28.212,11.929c-7.604,2.171 -13.021,10.85 -13.021,17.363l0,77.046c0,6.512 3.246,9.758 8.679,9.758c4.342,0 24.95,-9.758 28.213,-11.929c1.075,-0 2.171,-1.092 3.246,-1.092c7.604,0 14.116,10.85 14.116,19.529l0,107.434c0,11.925 -5.437,21.7 -11.946,24.946c-6.512,2.17 -29.287,11.945 -29.287,11.945c-7.604,2.171 -13.021,10.85 -13.021,17.363l0,77.029c0,6.513 3.246,9.775 8.679,9.775c1.075,0 3.246,-1.096 4.342,-1.096c-0,0 15.192,-6.508 24.946,-9.754c1.096,-1.096 2.171,-1.096 3.266,-1.096c7.584,0 13.021,11.946 13.021,17.363l0,133.471c0,6.512 6.509,11.929 14.096,11.929c10.85,-0 18.454,-5.417 18.454,-11.929l0,-150.834c0,-14.096 5.417,-21.7 10.85,-23.871l66.184,-27.116c1.091,-0 3.262,-1.096 4.337,-1.096c8.683,0 14.117,13.021 14.117,19.533l-0,135.642c-0,6.508 6.508,11.925 14.096,11.925c11.945,-0 18.454,-5.417 18.454,-11.925l-0,-154.079c-0,-8.683 4.341,-21.704 11.929,-24.967c7.604,-3.246 30.379,-11.925 30.379,-11.925c7.604,-3.266 13.021,-11.946 13.021,-18.458l-0,-77.029c-0,-5.434 -3.246,-8.679 -7.583,-8.679c-2.171,-0 -3.267,-0 -5.438,1.074l-28.208,10.85c-6.513,0 -14.1,-6.508 -14.1,-19.529l-0,-100.904c-0,-7.604 5.416,-28.212 14.1,-31.475l28.208,-10.85" style="fill-rule:nonzero;"/></g><g><path d="M11382.2,2024.98c96.562,0 214.829,-88.975 214.829,-181.216c-0,-55.329 -43.388,-90.05 -105.246,-90.05c-119.358,-0 -214.842,87.879 -214.842,181.196c0,56.425 46.667,90.07 105.259,90.07" style="fill-rule:nonzero;"/></g><g><path d="M12275.8,1890.43c96.58,0 214.846,-88.975 214.846,-181.212c0,-55.333 -43.404,-90.054 -105.246,-90.054c-119.354,-0 -214.841,87.883 -214.841,181.2c-0,56.421 46.65,90.066 105.241,90.066" style="fill-rule:nonzero;"/></g><g><path d="M13169.3,1755.89c96.563,-0 214.846,-88.98 214.846,-181.217c-0,-55.329 -43.404,-90.054 -105.263,-90.054c-119.354,-0 -214.841,87.883 -214.841,181.2c-0,56.425 46.666,90.071 105.258,90.071" style="fill-rule:nonzero;"/></g><g><path d="M14062.9,1621.34c96.563,-0 214.842,-88.975 214.842,-181.217c0,-55.329 -43.404,-90.05 -105.258,-90.05c-119.359,-0 -214.846,87.879 -214.846,181.196c-0,56.425 46.667,90.071 105.262,90.071" style="fill-rule:nonzero;"/></g><g><path d="M15403.8,1486.79c96.563,-0 214.846,-88.975 214.846,-181.217c0,-55.329 -43.404,-90.05 -105.262,-90.05c-119.359,-0 -214.842,87.883 -214.842,181.2c0,56.421 46.667,90.066 105.258,90.066" style="fill-rule:nonzero;"/></g><g><path d="M16436.6,1352.24c96.562,-0 214.846,-88.979 214.846,-181.217c-0,-55.329 -43.405,-90.054 -105.263,-90.054c-119.358,-0 -214.842,87.883 -214.842,181.2c0,56.421 46.667,90.071 105.259,90.071" style="fill-rule:nonzero;"/></g><g><path d="M17469.4,1217.69c96.58,-0 214.846,-88.975 214.846,-181.217c0,-55.329 -43.404,-90.05 -105.246,-90.05c-119.358,0 -214.841,87.879 -214.841,181.196c-0,56.425 46.65,90.071 105.241,90.071" style="fill-rule:nonzero;"/></g><g><path d="M18241.4,996.338c-6.512,21.7 -57.5,43.4 -82.467,43.4c-6.508,-0 -11.925,-2.167 -13.02,-5.434c-2.171,-4.337 -3.246,-28.208 -3.246,-54.25c-0,-33.629 1.075,-71.616 3.246,-80.296c2.17,-18.437 52.083,-41.233 79.22,-41.233c7.584,-0 14.096,2.171 16.267,6.508c2.171,5.434 4.338,32.554 4.338,61.859c-0,29.287 -2.167,59.67 -4.338,69.445m74.879,-176.875c7.584,-3.245 13.021,-11.929 13.021,-18.437l0,-77.033c0,-5.434 -3.267,-8.68 -7.604,-8.68c-2.171,0 -3.25,0 -5.417,1.075c0,0 -21.704,8.684 -27.137,9.775c-7.588,0 -15.192,-5.433 -15.192,-14.112l0,-132.379c0,-6.513 -6.508,-11.929 -15.192,-11.929c-10.85,-0 -17.358,5.416 -17.358,11.929l0,141.058c-1.079,10.85 -4.342,24.95 -14.1,31.458c-13.021,7.605 -49.912,22.796 -68.367,27.138c-9.758,-0 -13.02,-13.021 -13.02,-21.704l-0,-130.209c-0,-6.508 -7.588,-11.925 -15.192,-11.925c-10.85,0 -17.358,5.417 -17.358,11.925l-0,146.475c-0,15.192 -6.513,26.042 -13.021,29.309c-6.513,3.246 -28.213,11.925 -28.213,11.925c-7.587,2.171 -13.021,10.85 -13.021,17.362l0,77.05c0,6.509 3.263,9.754 8.68,9.754c4.341,0 24.966,-9.754 28.212,-11.925c1.092,0 2.171,-1.095 3.263,-1.095c7.587,-0 14.1,10.85 14.1,19.533l-0,107.429c-0,11.929 -5.417,21.7 -11.93,24.95c-6.508,2.167 -29.304,11.942 -29.304,11.942c-7.587,2.171 -13.021,10.85 -13.021,17.362l0,77.029c0,6.513 3.263,9.775 8.68,9.775c1.095,0 3.262,-1.091 4.341,-1.091c0,-0 15.192,-6.513 24.963,-9.759c1.079,-1.091 2.171,-1.091 3.25,-1.091c7.604,-0 13.021,11.941 13.021,17.358l-0,133.475c-0,6.508 6.508,11.925 14.112,11.925c10.85,0 18.438,-5.417 18.438,-11.925l-0,-150.833c-0,-14.1 5.433,-21.704 10.85,-23.875l66.2,-27.117c1.075,0 3.245,-1.092 4.337,-1.092c8.683,0 14.1,13.021 14.1,19.53l0,135.641c0,6.513 6.508,11.929 14.113,11.929c11.929,0 18.437,-5.416 18.437,-11.929l0,-154.079c0,-8.679 4.342,-21.7 11.946,-24.967c7.587,-3.245 30.383,-11.925 30.383,-11.925c7.584,-3.262 13.021,-11.945 13.021,-18.454l0,-77.033c0,-5.433 -3.267,-8.679 -7.604,-8.679c-2.171,-0 -3.25,-0 -5.417,1.075l-28.212,10.85c-6.513,-0 -14.117,-6.509 -14.117,-19.529l0,-100.905c0,-7.604 5.433,-28.212 14.117,-31.475l28.212,-10.85" style="fill-rule:nonzero;"/></g><g><path d="M18501.9,1083.14c96.562,-0 214.841,-88.975 214.841,-181.217c0,-55.329 -43.4,-90.05 -105.258,-90.05c-119.358,0 -214.846,87.883 -214.846,181.2c0,56.421 46.667,90.067 105.263,90.067" style="fill-rule:nonzero;"/></g><g><path d="M19394.9,948.596c96.579,-0.004 214.846,-88.979 214.846,-181.217c-0,-55.329 -43.404,-90.054 -105.246,-90.054c-119.358,0 -214.842,87.883 -214.842,181.2c0,56.425 46.65,90.071 105.242,90.071" style="fill-rule:nonzero;"/></g><g><path d="M20288,814.046c96.562,-0 214.846,-88.975 214.846,-181.2c-0,-55.346 -43.405,-90.067 -105.263,-90.067c-119.354,0 -214.842,87.9 -214.842,181.213c0,56.408 46.667,90.054 105.259,90.054" style="fill-rule:nonzero;"/></g><g><path d="M21181.4,679.496c96.58,-0 214.846,-88.975 214.846,-181.196c0,-55.35 -43.404,-90.071 -105.246,-90.071c-119.358,0 -214.841,87.9 -214.841,181.217c-0,56.421 46.65,90.05 105.241,90.05" style="fill-rule:nonzero;"/></g><g><path d="M22074.8,679.496c96.563,-0 214.842,-88.975 214.842,-181.196c0,-55.35 -43.4,-90.071 -105.258,-90.071c-119.359,0 -214.846,87.9 -214.846,181.217c-0,56.421 46.667,90.05 105.262,90.05" style="fill-rule:nonzero;"/></g><g><path d="M22968.2,814.046c96.583,-0 214.846,-88.975 214.846,-181.2c-0,-55.346 -43.404,-90.067 -105.242,-90.067c-119.358,0 -214.846,87.9 -214.846,181.213c0,56.408 46.65,90.054 105.242,90.054" style="fill-rule:nonzero;"/></g><g><path d="M23861.6,948.596c96.579,-0.004 214.846,-88.979 214.846,-181.217c-0,-55.329 -43.405,-90.054 -105.246,-90.054c-119.359,0 -214.842,87.883 -214.842,181.2c0,56.425 46.65,90.071 105.242,90.071" style="fill-rule:nonzero;"/></g><g><path d="M24755,1083.14c96.562,-0 214.841,-88.975 214.841,-181.217c0,-55.329 -43.4,-90.05 -105.258,-90.05c-119.358,0 -214.846,87.883 -214.846,181.2c0,56.421 46.667,90.067 105.263,90.067" style="fill-rule:nonzero;"/></g><g><path d="M25648.4,1217.69c96.584,-0 214.846,-88.975 214.846,-181.217c0,-55.329 -43.404,-90.05 -105.241,-90.05c-119.359,0 -214.846,87.879 -214.846,181.196c-0,56.425 46.65,90.071 105.241,90.071" style="fill-rule:nonzero;"/></g><g><path d="M26681.2,1352.24c96.563,-0 214.846,-88.979 214.846,-181.217c-0,-55.329 -43.404,-90.054 -105.263,-90.054c-119.354,-0 -214.841,87.883 -214.841,181.2c-0,56.421 46.666,90.071 105.258,90.071" style="fill-rule:nonzero;"/></g><g><path d="M27714.2,1486.79c96.563,-0 214.846,-88.975 214.846,-181.217c-0,-55.329 -43.404,-90.05 -105.263,-90.05c-119.358,-0 -214.841,87.883 -214.841,181.2c-0,56.421 46.666,90.066 105.258,90.066" style="fill-rule:nonzero;"/></g><g><path d="M565.288,2008.7c3.246,20.625 3.246,19.533 -16.287,26.042c-95.484,32.554 -157.325,118.283 -157.325,210.504c-0,97.658 50.987,167.104 124.775,192.066c8.679,3.246 21.7,6.513 29.304,6.513c8.679,-0 13.021,-5.434 13.021,-11.946c-0,-7.588 -8.68,-10.85 -16.284,-14.096c-45.575,-19.533 -78.125,-66.2 -78.125,-116.112c0,-61.842 42.325,-108.509 108.504,-126.946c17.363,-4.338 19.534,-3.263 21.705,8.683l54.254,323.35c2.166,11.925 1.091,11.925 -15.192,15.192c-17.362,3.246 -39.062,5.416 -60.767,5.416c-189.875,0 -312.5,-105.245 -312.5,-256.079c0,-64.008 10.855,-149.737 100.921,-251.733c65.104,-72.692 115.017,-112.85 166.009,-154.079c10.85,-8.684 13.02,-7.588 15.191,4.337l22.796,138.892m118.263,-738.925c35.816,0 65.104,29.287 65.104,88.975c-0,120.433 -103.075,218.092 -188.804,292.967c-7.584,6.512 -11.925,5.416 -14.096,-8.68c-4.342,-28.212 -6.509,-65.104 -6.509,-99.824c0,-169.271 78.125,-273.438 144.305,-273.438m-43.405,911.458c-2.17,-13.021 -1.075,-16.283 11.946,-15.191c87.884,7.587 160.592,81.37 160.592,176.858c-0,68.367 -41.233,123.696 -102,154.079c-13.021,6.513 -15.188,6.513 -17.358,-6.512l-53.18,-309.234m-58.591,-338.541c-2.171,-13.021 -0,-14.117 6.508,-20.625c117.188,-109.584 206.163,-247.396 206.163,-413.405c-0,-94.408 -26.042,-187.725 -70.521,-252.829c-16.284,-23.871 -44.496,-54.254 -56.421,-54.254c-15.192,0 -48.838,28.213 -70.538,52.083c-80.295,88.975 -106.337,224.621 -106.337,337.467c-0,62.933 7.604,133.454 15.192,177.95c2.166,13.021 3.262,15.192 -9.759,26.042c-156.25,129.116 -322.275,284.287 -322.275,503.471c0,188.804 129.134,367.833 394.967,367.833c24.962,-0 53.175,-2.171 74.879,-6.513c11.925,-2.17 14.096,-3.245 16.267,9.775c13.021,72.692 29.304,167.1 29.304,218.092c-0,160.588 -108.508,180.121 -172.533,180.121c-58.596,-0 -86.809,-17.363 -86.809,-31.458c0,-7.605 9.775,-10.85 34.725,-18.455c33.646,-9.758 72.709,-39.062 72.709,-102c-0,-59.666 -37.988,-110.675 -104.167,-110.675c-72.708,0 -116.113,57.517 -116.113,124.792c0,70.521 42.325,176.859 206.163,176.859c72.708,-0 213.767,-32.555 213.767,-217.017c-0,-61.838 -19.53,-164.929 -31.475,-232.204c-2.171,-13.021 -1.075,-11.925 14.116,-18.438c109.584,-43.4 182.292,-135.641 182.292,-258.246c-0,-138.887 -101.996,-261.508 -261.513,-261.508c-28.212,0 -28.212,0 -31.458,-19.533l-27.133,-157.325" style="fill-rule:nonzero;"/></g><g><path d="M2671.62,3496.19c-14.106,0 -21.701,6.511 -21.701,16.276c-0,9.766 7.595,16.276 21.701,16.276l10.851,0c40.147,0 59.679,23.872 59.679,58.594c-0,47.743 -33.638,113.933 -99.827,113.933c-21.701,-0 -39.062,-8.681 -39.062,-19.532c-0,-6.51 5.425,-8.68 14.105,-13.02c11.936,-5.426 27.127,-18.447 27.127,-46.658c0,-26.042 -18.446,-39.063 -41.232,-39.063c-30.382,0 -53.169,27.127 -53.169,62.934c0,43.403 34.722,83.551 111.762,83.551c92.231,-0 168.186,-55.339 168.186,-141.06c0,-27.126 -14.106,-53.168 -42.317,-67.274c-7.596,-3.255 -11.936,-4.34 -11.936,-9.766c-0,-3.255 4.34,-5.425 13.021,-9.765c45.573,-18.447 82.465,-53.169 82.465,-96.572c0,-56.423 -54.254,-91.146 -120.443,-91.146c-68.359,0 -124.783,35.808 -126.953,94.402c-1.085,28.211 16.276,46.658 41.233,46.658c27.126,-0 48.828,-21.702 48.828,-50.999c-0,-11.935 -4.341,-20.616 -9.766,-27.126c-7.595,-6.511 -13.021,-10.851 -13.021,-14.106c0,-7.596 13.021,-15.191 35.808,-15.191c42.317,-0 56.423,26.041 56.423,49.913c0,57.509 -36.892,98.741 -99.826,98.741l-11.936,0Z" style="fill-rule:nonzero;"/></g><g><path d="M9343.98,2811.66c-14.106,0 -21.701,6.51 -21.701,16.276c-0,9.766 7.595,16.276 21.701,16.276l10.851,0c40.148,0 59.679,23.872 59.679,58.594c-0,47.743 -33.637,113.932 -99.827,113.932c-21.701,0 -39.062,-8.68 -39.062,-19.531c-0,-6.51 5.425,-8.68 14.106,-13.021c11.936,-5.425 27.127,-18.446 27.127,-46.658c-0,-26.041 -18.447,-39.062 -41.233,-39.062c-30.382,-0 -53.169,27.126 -53.169,62.934c0,43.403 34.723,83.55 111.763,83.55c92.231,0 168.186,-55.338 168.186,-141.059c-0,-27.127 -14.106,-53.168 -42.318,-67.274c-7.596,-3.256 -11.936,-4.341 -11.936,-9.766c0,-3.255 4.34,-5.425 13.021,-9.766c45.573,-18.446 82.465,-53.168 82.465,-96.571c0,-56.424 -54.253,-91.146 -120.443,-91.146c-68.359,0 -124.783,35.807 -126.953,94.401c-1.085,28.212 16.276,46.658 41.233,46.658c27.127,0 48.828,-21.701 48.828,-50.998c0,-11.936 -4.34,-20.616 -9.766,-27.127c-7.595,-6.51 -13.02,-10.85 -13.02,-14.106c-0,-7.595 13.02,-15.191 35.807,-15.191c42.318,0 56.424,26.042 56.424,49.914c-0,57.508 -36.893,98.741 -99.827,98.741l-11.936,0Z" style="fill-rule:nonzero;"/></g><g><path d="M16303.4,2811.66c-14.106,0 -21.701,6.51 -21.701,16.276c-0,9.766 7.595,16.276 21.701,16.276l10.851,0c40.148,0 59.679,23.872 59.679,58.594c-0,47.743 -33.637,113.932 -99.827,113.932c-21.701,0 -39.062,-8.68 -39.062,-19.531c-0,-6.51 5.425,-8.68 14.106,-13.021c11.936,-5.425 27.127,-18.446 27.127,-46.658c-0,-26.041 -18.447,-39.062 -41.233,-39.062c-30.382,-0 -53.169,27.126 -53.169,62.934c0,43.403 34.723,83.55 111.763,83.55c92.231,0 168.186,-55.338 168.186,-141.059c-0,-27.127 -14.106,-53.168 -42.318,-67.274c-7.596,-3.256 -11.936,-4.341 -11.936,-9.766c0,-3.255 4.34,-5.425 13.021,-9.766c45.573,-18.446 82.465,-53.168 82.465,-96.571c0,-56.424 -54.253,-91.146 -120.443,-91.146c-68.359,0 -124.783,35.807 -126.953,94.401c-1.085,28.212 16.276,46.658 41.233,46.658c27.127,0 48.828,-21.701 48.828,-50.998c0,-11.936 -4.34,-20.616 -9.766,-27.127c-7.595,-6.51 -13.02,-10.85 -13.02,-14.106c-0,-7.595 13.02,-15.191 35.807,-15.191c42.318,0 56.424,26.042 56.424,49.914c-0,57.508 -36.893,98.741 -99.827,98.741l-11.936,0Z" style="fill-rule:nonzero;"/></g><g><path d="M26547.9,2811.66c-14.106,0 -21.702,6.51 -21.702,16.276c0,9.766 7.596,16.276 21.702,16.276l10.85,0c40.148,0 59.679,23.872 59.679,58.594c0,47.743 -33.637,113.932 -99.826,113.932c-21.702,0 -39.063,-8.68 -39.063,-19.531c0,-6.51 5.426,-8.68 14.106,-13.021c11.936,-5.425 27.127,-18.446 27.127,-46.658c-0,-26.041 -18.446,-39.062 -41.233,-39.062c-30.382,-0 -53.168,27.126 -53.168,62.934c-0,43.403 34.722,83.55 111.762,83.55c92.231,0 168.186,-55.338 168.186,-141.059c0,-27.127 -14.106,-53.168 -42.318,-67.274c-7.595,-3.256 -11.936,-4.341 -11.936,-9.766c0,-3.255 4.341,-5.425 13.021,-9.766c45.573,-18.446 82.466,-53.168 82.466,-96.571c-0,-56.424 -54.254,-91.146 -120.443,-91.146c-68.36,0 -124.783,35.807 -126.953,94.401c-1.086,28.212 16.276,46.658 41.232,46.658c27.127,0 48.828,-21.701 48.828,-50.998c0,-11.936 -4.34,-20.616 -9.765,-27.127c-7.596,-6.51 -13.021,-10.85 -13.021,-14.106c-0,-7.595 13.021,-15.191 35.807,-15.191c42.318,0 56.424,26.042 56.424,49.914c-0,57.508 -36.892,98.741 -99.827,98.741l-11.935,0Z" style="fill-rule:nonzero;"/></g><g><path d="M1794.68,2158.44l-0,-134.809l2097.97,-134.55l0,134.809l-2097.97,134.549" style="fill-rule:nonzero;"/></g><g><path d="M4892.52,1887.78l0,-135.641l2713.21,-336.375l-0,135.641l-2713.21,336.375" style="fill-rule:nonzero;"/></g><g><path d="M4892.52,2091.16l0,-135.571l2713.21,-336.375l-0,135.575l-2713.21,336.371" style="fill-rule:nonzero;"/></g><g><path d="M8466.77,1485.7l0,-135.175l2097.97,-201.825l0,135.175l-2097.97,201.825" style="fill-rule:nonzero;"/></g><g><path d="M11277.1,2832.87l-0,-135.192l2712.68,-269.1l-0,135.192l-2712.68,269.1" style="fill-rule:nonzero;"/></g><g><path d="M11277.1,2630.02l-0,-135.209l2712.68,-269.096l-0,135.209l-2712.68,269.096" style="fill-rule:nonzero;"/></g><g><path d="M15298.4,2361.41l0,-135.695l2097.99,-269.1l-0,135.695l-2097.99,269.096" style="fill-rule:nonzero;"/></g><g><path d="M18396.8,2091.28l0,-134.6l2711.58,-67.275l0,134.605l-2711.58,67.27" style="fill-rule:nonzero;"/></g><g><path d="M18396.8,1889.41l0,-134.616l2711.58,-67.275l0,134.616l-2711.58,67.275" style="fill-rule:nonzero;"/></g><g><path d="M21969.4,2024.01l0,-134.605l2712.68,67.275l0,134.6l-2712.68,-67.271" style="fill-rule:nonzero;"/></g><g><path d="M21969.4,1822.14l0,-134.621l2712.68,67.275l0,134.616l-2712.68,-67.275" style="fill-rule:nonzero;"/></g><g><path d="M25543,2092.31l0,-135.695l2097.97,269.1l0,135.691l-2097.97,-269.096" style="fill-rule:nonzero;"/></g><g><path d="M1418.15,3681.23l987.412,-122.396l0,-43.404l-944.546,117.084l0,-153.109l-42.866,0" style="fill-rule:nonzero;"/></g><g><path d="M3914.35,3370.47l-920.68,113.871l0,-43.405l877.275,-111.162l0,-161.129l43.405,-0" style="fill-rule:nonzero;"/></g><g><path d="M8090.23,2837.05l986.875,0l-0,-43.021l-943.471,0l-0,-158.804l-43.404,0" style="fill-rule:nonzero;"/></g><g><path d="M10586.4,2837.05l-919.583,0l-0,-43.021l876.733,0l0,-158.804l42.85,0" style="fill-rule:nonzero;"/></g><g><path d="M39.038,6329.46l12814.1,0" style="fill:none;stroke:#000;stroke-width:34.92px;"/><path d="M39.038,5253.04l12814.1,-0" style="fill:none;stroke:#000;stroke-width:34.92px;"/><path d="M39.038,5522.17l12814.1,-0" style="fill:none;stroke:#000;stroke-width:34.92px;"/><path d="M39.038,5791.25l12814.1,0" style="fill:none;stroke:#000;stroke-width:34.92px;"/><path d="M39.038,6060.33l12814.1,0" style="fill:none;stroke:#000;stroke-width:34.92px;"/></g><g><path d="M10080.3,5235.58l0,1111.32" style="fill:none;stroke:#000;stroke-width:43.04px;"/><path d="M12680.6,5235.58l-0,1111.32" style="fill:none;stroke:#000;stroke-width:43.04px;"/><path d="M12831.4,5235.58l0,1111.32" style="fill:none;stroke:#000;stroke-width:43.04px;"/></g><g><path d="M1522.86,5298.25l-0,967.5" style="fill:none;stroke:#000;stroke-width:32.29px;"/><path d="M2061.05,5432.79l-0,911.945" style="fill:none;stroke:#000;stroke-width:32.29px;"/><path d="M2599.8,5567.33l-0,856.334" style="fill:none;stroke:#000;stroke-width:32.29px;"/><path d="M3357.72,5701.88l0,832.954" style="fill:none;stroke:#000;stroke-width:32.29px;"/><path d="M4183.98,4982.21l-0,763.838" style="fill:none;stroke:#000;stroke-width:32.29px;"/><path d="M4805.73,5083.12l-0,797.467" style="fill:none;stroke:#000;stroke-width:32.29px;"/><path d="M5428.02,5184.04l0,831.112" style="fill:none;stroke:#000;stroke-width:32.29px;"/><path d="M6050.31,5247.46l0,902.238" style="fill:none;stroke:#000;stroke-width:32.29px;"/><path d="M6588.48,5346.12l-0,938.142" style="fill:none;stroke:#000;stroke-width:32.29px;"/><path d="M7127.23,5444.79l-0,974.012" style="fill:none;stroke:#000;stroke-width:32.29px;"/><path d="M7885.69,5583.83l0,969.513" style="fill:none;stroke:#000;stroke-width:32.29px;"/></g><g><path d="M7536.86,6598.54l472.55,-0" style="fill:none;stroke:#000;stroke-width:43.04px;"/></g><g><path d="M8489.02,5791.04l0,896.858" style="fill:none;stroke:#000;stroke-width:32.29px;"/></g><g><path d="M8077.23,6598.54l535.487,-0" style="fill:none;stroke:#000;stroke-width:43.04px;"/></g><g><path d="M9111.27,5824.67l0,997.779" style="fill:none;stroke:#000;stroke-width:32.29px;"/></g><g><path d="M8699.52,6867.62l535.488,0" style="fill:none;stroke:#000;stroke-width:43.04px;"/><path d="M8699.52,6598.54l535.488,-0" style="fill:none;stroke:#000;stroke-width:43.04px;"/></g><g><path d="M9733.02,5858.33l0,1098.68" style="fill:none;stroke:#000;stroke-width:32.29px;"/></g><g><path d="M9321.81,6867.62l535.471,0" style="fill:none;stroke:#000;stroke-width:43.04px;"/><path d="M9321.81,6598.54l535.471,-0" style="fill:none;stroke:#000;stroke-width:43.04px;"/><path d="M10398.7,6867.62l672.741,0" style="fill:none;stroke:#000;stroke-width:43.04px;"/><path d="M10398.7,6598.54l672.741,-0" style="fill:none;stroke:#000;stroke-width:43.04px;"/></g><g><path d="M1724.56,4886.08l-0,-116.108c-0,-5.417 -1.079,-9.758 -6.513,-9.758c-4.341,-0 -7.587,1.075 -10.85,5.416l-32.554,62.934c-2.166,2.17 -5.416,5.433 -5.416,13.02l-0,44.496l-70.538,0c44.496,-36.891 113.942,-159.512 115.017,-166.021c-0,-1.079 1.096,-2.17 1.096,-3.25c-0,-4.337 -4.342,-7.604 -7.605,-7.604c-5.416,0 -28.212,2.171 -37.97,2.171c-9.771,0 -16.284,-2.171 -20.625,-2.171c-5.417,0 -13.021,2.171 -13.021,10.854c-0,69.442 -56.421,148.663 -70.521,168.192c-2.167,2.171 -4.338,5.417 -4.338,8.683c0,5.417 4.338,10.85 10.85,10.85l97.655,0l-0,33.63c-0,15.187 -8.68,19.529 -17.359,19.529c-9.775,-0 -14.116,4.341 -14.116,9.775c-0,5.416 2.17,11.925 11.945,11.925l93.317,-0c5.417,-0 10.85,-4.338 10.85,-11.925c0,-7.604 -6.512,-10.85 -11.946,-10.85c-5.416,-0 -17.358,-3.267 -17.358,-20.625l-0,-31.459l40.154,0c5.417,0 8.679,-4.341 8.679,-10.85c0,-6.512 -2.166,-10.854 -8.679,-10.854l-40.154,0" style="fill-rule:nonzero;"/></g><g><path d="M2262.86,4886.29l-0,-116.092c-0,-5.433 -1.092,-9.775 -6.509,-9.775c-4.341,-0 -7.604,1.096 -10.85,5.433l-32.554,62.934c-2.171,2.17 -5.433,5.416 -5.433,13.02l-0,44.48l-70.521,-0c44.479,-36.892 113.925,-159.496 115.017,-166.005c-0,-1.095 1.075,-2.17 1.075,-3.266c-0,-4.338 -4.338,-7.584 -7.584,-7.584c-5.437,0 -28.212,2.167 -37.987,2.167c-9.758,0 -16.267,-2.167 -20.608,-2.167c-5.434,0 -13.021,2.167 -13.021,10.85c-0,69.442 -56.425,148.646 -70.538,168.175c-2.171,2.171 -4.341,5.434 -4.341,8.68c-0,5.437 4.341,10.854 10.85,10.854l97.658,-0l-0,33.646c-0,15.187 -8.679,19.529 -17.363,19.529c-9.754,-0 -14.095,4.341 -14.095,9.758c-0,5.433 2.17,11.942 11.925,11.942l93.316,-0c5.434,-0 10.85,-4.338 10.85,-11.942c0,-7.587 -6.508,-10.85 -11.925,-10.85c-5.433,0 -17.362,-3.25 -17.362,-20.608l-0,-31.475l40.141,-0c5.434,-0 8.68,-4.342 8.68,-10.854c-0,-6.509 -2.171,-10.85 -8.68,-10.85l-40.141,-0" style="fill-rule:nonzero;"/></g><g><path d="M2850.93,4897.12c-0,-7.587 -3.246,-8.683 -6.513,-8.683c-4.337,-0 -6.508,3.266 -7.587,6.512c-5.434,15.192 -17.359,34.721 -33.646,34.721c-2.167,0 -4.338,0 -6.508,-1.075l-16.267,-5.433c-10.85,-4.342 -36.892,-13.021 -58.596,-13.021c-7.604,-0 -14.112,1.092 -20.625,3.262c11.946,-20.625 68.371,-47.741 80.296,-51.008c39.062,-5.417 71.617,-28.212 71.617,-70.521c-0,-26.042 -10.855,-43.4 -24.95,-56.421c-28.213,-22.795 -69.446,-26.041 -81.388,-26.041c-39.062,-0 -70.521,2.166 -98.733,34.721c-7.604,8.679 -10.85,17.362 -10.85,26.041c-0,7.588 3.246,16.267 6.508,26.042c6.513,13.021 20.608,22.775 35.8,22.775c27.133,0.004 30.383,-26.038 30.383,-37.967c0,-24.966 -27.12,-27.133 -27.12,-37.987c-0,-7.584 10.85,-20.604 43.404,-20.604c50.987,-0 68.35,42.308 68.35,55.329c-0,19.529 -6.509,37.983 -17.363,53.175c-19.529,24.95 -55.329,33.629 -82.462,50.991c-30.384,18.455 -50.992,49.913 -60.767,84.634c0,7.604 3.267,16.287 9.775,19.533c1.079,1.092 3.246,1.092 4.342,1.092c11.925,-0 18.437,-33.646 50.987,-33.646c21.704,-0 29.309,29.308 78.125,29.308c22.796,0 65.104,-2.171 73.788,-85.729" style="fill-rule:nonzero;"/></g><g><path d="M3439.42,4835.29c0,-0 -1.091,4.341 -1.091,7.587c-0,4.338 4.337,8.679 8.679,8.679c3.262,0 5.433,-3.245 6.512,-4.341c1.092,-3.246 14.113,-47.742 20.625,-58.592c2.167,-4.342 4.338,-5.417 5.417,-5.417c2.167,0 3.262,4.342 3.262,7.588l0,155.171c0,13.021 -10.85,20.608 -21.7,20.608c-4.341,0 -9.775,2.171 -9.775,8.683c0,6.509 5.434,8.68 14.113,8.68l91.146,-0.001c8.683,0.001 8.683,-8.679 8.683,-8.679c0,0 0,-8.683 -8.683,-8.683c-7.604,0 -17.359,-9.754 -17.359,-19.529l0,-225.696c0,-8.679 -3.266,-13.021 -10.854,-13.021c-7.604,0 -14.112,2.171 -20.625,2.171c-10.85,0 -13.021,0 -21.7,-2.171c-4.341,0 -9.758,6.513 -13.021,10.85l-33.629,116.113" style="fill-rule:nonzero;"/></g><g><path d="M4097.61,4683.58l0,-116.096c0,-5.433 -1.075,-9.775 -6.512,-9.775c-4.338,0 -7.584,1.096 -10.85,5.434l-32.55,62.933c-2.171,2.171 -5.417,5.421 -5.417,13.021l-0,44.483l-70.538,0c44.496,-36.896 113.938,-159.5 115.017,-166.008c0,-1.096 1.092,-2.171 1.092,-3.263c-0,-4.341 -4.338,-7.587 -7.604,-7.587c-5.417,-0 -28.213,2.167 -37.967,2.167c-9.775,-0 -16.288,-2.167 -20.625,-2.167c-5.417,-0 -13.021,2.167 -13.021,10.85c0,69.442 -56.425,148.646 -70.521,168.175c-2.171,2.171 -4.341,5.433 -4.341,8.683c-0,5.434 4.341,10.85 10.85,10.85l97.658,0l-0,33.646c-0,15.192 -8.683,19.529 -17.363,19.529c-9.775,0 -14.112,4.342 -14.112,9.759c-0,5.433 2.167,11.945 11.942,11.945l93.316,0c5.417,0 10.85,-4.341 10.85,-11.945c0,-7.588 -6.508,-10.85 -11.941,-10.85c-5.417,-0 -17.363,-3.246 -17.363,-20.609l0,-31.475l40.154,0c5.417,0 8.684,-4.341 8.684,-10.85c-0,-6.512 -2.171,-10.854 -8.684,-10.854l-40.154,0" style="fill-rule:nonzero;"/></g><g><path d="M4769.65,4745.67c0,-7.588 -3.245,-8.68 -6.508,-8.68c-4.342,0.001 -6.512,3.263 -7.587,6.513c-5.434,15.188 -17.363,34.721 -33.646,34.721c-2.171,-0 -4.342,-0 -6.509,-1.079l-16.27,-5.434c-10.85,-4.337 -36.892,-13.02 -58.592,-13.02c-7.604,-0 -14.117,1.095 -20.625,3.266c11.946,-20.625 68.367,-47.746 80.296,-51.008c39.062,-5.417 71.612,-28.213 71.612,-70.521c0,-26.042 -10.85,-43.404 -24.946,-56.425c-28.212,-22.796 -69.445,-26.042 -81.391,-26.042c-39.063,0 -70.521,2.171 -98.729,34.725c-7.605,8.68 -10.855,17.359 -10.855,26.042c0,7.583 3.25,16.267 6.513,26.042c6.508,13.021 20.608,22.775 35.8,22.775c27.133,-0 30.379,-26.042 30.379,-37.967c0,-24.967 -27.117,-27.137 -27.117,-37.987c0,-7.588 10.85,-20.609 43.405,-20.609c50.987,0 68.35,42.309 68.35,55.329c-0,19.534 -6.513,37.988 -17.363,53.18c-19.529,24.945 -55.329,33.629 -82.467,50.987c-30.379,18.458 -50.987,49.917 -60.762,84.638c-0,7.604 3.262,16.283 9.775,19.529c1.075,1.096 3.246,1.096 4.342,1.096c11.925,-0 18.437,-33.646 50.987,-33.646c21.7,-0 29.304,29.304 78.125,29.304c22.796,-0 65.104,-2.171 73.783,-85.729" style="fill-rule:nonzero;"/></g><g><path d="M5222.15,4792.88c0,0 -1.091,4.337 -1.091,7.604c-0,4.338 4.337,8.679 8.679,8.679c3.262,0 5.433,-3.266 6.512,-4.341c1.092,-3.263 14.113,-47.742 20.625,-58.592c2.167,-4.342 4.338,-5.437 5.417,-5.437c2.167,-0 3.263,4.341 3.263,7.604l-0,155.158c-0,13.021 -10.85,20.625 -21.7,20.625c-4.342,0 -9.775,2.171 -9.775,8.679c-0,6.513 5.433,8.684 14.112,8.684l91.146,-0c8.683,-0 8.683,-8.684 8.683,-8.684c0,0 0,-8.679 -8.683,-8.679c-7.604,0 -17.358,-9.775 -17.358,-19.533l-0,-225.692c-0,-8.683 -3.267,-13.021 -10.855,-13.021c-7.604,0 -14.112,2.171 -20.625,2.171c-10.85,0 -13.02,0 -21.7,-2.171c-4.341,0 -9.758,6.508 -13.02,10.85l-33.63,116.092" style="fill-rule:nonzero;"/></g><g><path d="M5964.31,4886.29l0,-116.092c0,-5.433 -1.092,-9.775 -6.508,-9.775c-4.342,-0 -7.604,1.096 -10.85,5.433l-32.554,62.934c-2.171,2.17 -5.434,5.416 -5.434,13.02l0,44.48l-70.521,-0c44.48,-36.892 113.925,-159.496 115.017,-166.005c0,-1.095 1.075,-2.17 1.075,-3.266c0,-4.338 -4.337,-7.584 -7.583,-7.584c-5.438,0 -28.213,2.167 -37.988,2.167c-9.758,0 -16.266,-2.167 -20.608,-2.167c-5.433,0 -13.021,2.167 -13.021,10.85c0,69.442 -56.425,148.646 -70.537,168.175c-2.171,2.171 -4.342,5.434 -4.342,8.68c-0,5.437 4.342,10.854 10.85,10.854l97.658,-0l0,33.646c0,15.187 -8.679,19.529 -17.362,19.529c-9.754,-0 -14.096,4.341 -14.096,9.758c-0,5.433 2.171,11.942 11.925,11.942l93.317,-0c5.433,-0 10.85,-4.338 10.85,-11.942c-0,-7.587 -6.509,-10.85 -11.925,-10.85c-5.434,0 -17.363,-3.25 -17.363,-20.608l0,-31.475l40.142,-0c5.433,-0 8.679,-4.342 8.679,-10.854c-0,-6.509 -2.171,-10.85 -8.679,-10.85l-40.142,-0" style="fill-rule:nonzero;"/></g><g><path d="M6502.61,4886.29l-0,-116.092c-0,-5.433 -1.075,-9.775 -6.513,-9.775c-4.337,-0 -7.583,1.096 -10.85,5.433l-32.55,62.934c-2.171,2.17 -5.416,5.416 -5.416,13.02l-0,44.48l-70.538,-0c44.496,-36.892 113.938,-159.496 115.017,-166.005c-0,-1.095 1.091,-2.17 1.091,-3.266c0,-4.338 -4.337,-7.584 -7.604,-7.584c-5.416,0 -28.212,2.167 -37.966,2.167c-9.775,0 -16.288,-2.167 -20.625,-2.167c-5.417,0 -13.021,2.167 -13.021,10.85c-0,69.442 -56.425,148.646 -70.521,168.175c-2.171,2.171 -4.342,5.434 -4.342,8.68c0,5.437 4.342,10.854 10.85,10.854l97.659,-0l-0,33.646c-0,15.187 -8.684,19.529 -17.363,19.529c-9.775,-0 -14.112,4.341 -14.112,9.758c-0,5.433 2.166,11.942 11.941,11.942l93.317,-0c5.417,-0 10.85,-4.338 10.85,-11.942c-0,-7.587 -6.508,-10.85 -11.942,-10.85c-5.416,0 -17.362,-3.25 -17.362,-20.608l-0,-31.475l40.154,-0c5.417,-0 8.683,-4.342 8.683,-10.854c0,-6.509 -2.171,-10.85 -8.683,-10.85l-40.154,-0" style="fill-rule:nonzero;"/></g><g><path d="M7090.69,4897.12c0,-7.587 -3.262,-8.683 -6.508,-8.683c-4.342,-0 -6.513,3.266 -7.604,6.512c-5.417,15.192 -17.363,34.721 -33.63,34.721c-2.17,0 -4.341,0 -6.512,-1.075l-16.283,-5.433c-10.85,-4.342 -36.892,-13.021 -58.592,-13.021c-7.588,-0 -14.1,1.092 -20.608,3.262c11.925,-20.625 68.35,-47.741 80.295,-51.008c39.063,-5.417 71.613,-28.212 71.613,-70.521c-0,-26.042 -10.85,-43.4 -24.967,-56.421c-28.208,-22.795 -69.441,-26.041 -81.371,-26.041c-39.062,-0 -70.537,2.166 -98.75,34.721c-7.587,8.679 -10.85,17.362 -10.85,26.041c0,7.588 3.263,16.267 6.513,26.042c6.508,13.021 20.625,22.775 35.812,22.775c27.121,0.004 30.384,-26.038 30.384,-37.967c-0,-24.966 -27.134,-27.133 -27.134,-37.987c0,-7.584 10.85,-20.604 43.4,-20.604c51.009,-0 68.371,42.308 68.371,55.329c0,19.529 -6.512,37.983 -17.362,53.175c-19.534,24.95 -55.346,33.629 -82.467,50.991c-30.379,18.455 -51.004,49.913 -60.762,84.634c-0,7.604 3.245,16.287 9.758,19.533c1.092,1.092 3.262,1.092 4.337,1.092c11.946,-0 18.455,-33.646 51.009,-33.646c21.7,-0 29.287,29.308 78.125,29.308c22.779,0 65.104,-2.171 73.783,-85.729" style="fill-rule:nonzero;"/></g><g><path d="M7679.65,4835.29c0,-0 -1.091,4.341 -1.091,7.587c-0,4.338 4.341,8.679 8.679,8.679c3.267,0 5.433,-3.245 6.512,-4.341c1.092,-3.246 14.113,-47.742 20.625,-58.592c2.171,-4.342 4.338,-5.417 5.417,-5.417c2.171,0 3.263,4.342 3.263,7.588l-0,155.171c-0,13.021 -10.85,20.608 -21.7,20.608c-4.342,0 -9.775,2.171 -9.775,8.683c-0,6.509 5.433,8.68 14.112,8.68l91.146,-0.001c8.683,0.001 8.683,-8.679 8.683,-8.679c0,0 0,-8.683 -8.683,-8.683c-7.604,0 -17.358,-9.754 -17.358,-19.529l-0,-225.696c-0,-8.679 -3.267,-13.021 -10.85,-13.021c-7.605,0 -14.117,2.171 -20.625,2.171c-10.855,0 -13.021,0 -21.705,-2.171c-4.337,0 -9.754,6.513 -13.02,10.85l-33.63,116.113" style="fill-rule:nonzero;"/></g><g><path d="M8402.73,4886.29l-0,-116.092c-0,-5.433 -1.092,-9.775 -6.509,-9.775c-4.341,-0 -7.604,1.096 -10.854,5.433l-32.55,62.934c-2.171,2.17 -5.433,5.416 -5.433,13.02l-0,44.48l-70.521,-0c44.479,-36.892 113.921,-159.496 115.017,-166.005c-0,-1.095 1.075,-2.17 1.075,-3.266c-0,-4.338 -4.338,-7.584 -7.588,-7.584c-5.433,0 -28.208,2.167 -37.983,2.167c-9.758,0 -16.267,-2.167 -20.608,-2.167c-5.434,0 -13.021,2.167 -13.021,10.85c-0,69.442 -56.425,148.646 -70.538,168.175c-2.171,2.171 -4.341,5.434 -4.341,8.68c-0,5.437 4.341,10.854 10.85,10.854l97.658,-0l-0,33.646c-0,15.187 -8.683,19.529 -17.363,19.529c-9.758,-0 -14.095,4.341 -14.095,9.758c-0,5.433 2.17,11.942 11.925,11.942l93.316,-0c5.434,-0 10.85,-4.338 10.85,-11.942c0,-7.587 -6.508,-10.85 -11.925,-10.85c-5.433,0 -17.362,-3.25 -17.362,-20.608l-0,-31.475l40.137,-0c5.438,-0 8.684,-4.342 8.684,-10.854c-0,-6.509 -2.171,-10.85 -8.684,-10.85l-40.137,-0" style="fill-rule:nonzero;"/></g><g><path d="M9074.73,4897.12c-0,-7.587 -3.246,-8.683 -6.509,-8.683c-4.341,-0 -6.512,3.266 -7.587,6.512c-5.433,15.192 -17.363,34.721 -33.646,34.721c-2.171,0 -4.342,0 -6.512,-1.075l-16.267,-5.433c-10.85,-4.342 -36.892,-13.021 -58.592,-13.021c-7.604,-0 -14.116,1.092 -20.625,3.262c11.942,-20.625 68.367,-47.741 80.292,-51.008c39.062,-5.417 71.617,-28.212 71.617,-70.521c-0,-26.042 -10.85,-43.4 -24.95,-56.421c-28.209,-22.795 -69.442,-26.041 -81.388,-26.041c-39.062,-0 -70.521,2.166 -98.733,34.721c-7.604,8.679 -10.85,17.362 -10.85,26.041c-0,7.588 3.246,16.267 6.512,26.042c6.509,13.021 20.604,22.775 35.796,22.775c27.138,0.004 30.383,-26.038 30.383,-37.967c0,-24.966 -27.116,-27.133 -27.116,-37.987c-0,-7.584 10.85,-20.604 43.4,-20.604c50.991,-0 68.35,42.308 68.35,55.329c-0,19.529 -6.509,37.983 -17.359,53.175c-19.533,24.95 -55.329,33.629 -82.466,50.991c-30.384,18.455 -50.988,49.913 -60.763,84.634c0,7.604 3.263,16.287 9.775,19.533c1.075,1.092 3.246,1.092 4.338,1.092c11.929,-0 18.437,-33.646 50.991,-33.646c21.7,-0 29.305,29.308 78.125,29.308c22.796,0 65.105,-2.171 73.784,-85.729" style="fill-rule:nonzero;"/></g><g><path d="M9527.19,4835.29c0,-0 -1.096,4.341 -1.096,7.587c0,4.338 4.342,8.679 8.684,8.679c3.262,0 5.433,-3.245 6.508,-4.341c1.096,-3.246 14.117,-47.742 20.625,-58.592c2.171,-4.342 4.342,-5.417 5.417,-5.417c2.17,0 3.266,4.342 3.266,7.588l0,155.171c0,13.021 -10.854,20.608 -21.704,20.608c-4.337,0 -9.775,2.171 -9.775,8.683c0,6.509 5.438,8.68 14.117,8.68l91.146,-0.001c8.679,0.001 8.679,-8.679 8.679,-8.679c-0,0 -0,-8.683 -8.679,-8.683c-7.605,0 -17.363,-9.754 -17.363,-19.529l0,-225.696c0,-8.679 -3.262,-13.021 -10.85,-13.021c-7.604,0 -14.112,2.171 -20.625,2.171c-10.85,0 -13.021,0 -21.7,-2.171c-4.342,0 -9.758,6.513 -13.021,10.85l-33.629,116.113" style="fill-rule:nonzero;"/></g><g><path d="M10672.8,4835.29c0,-0 -1.079,4.341 -1.079,7.587c-0,4.338 4.342,8.679 8.683,8.679c3.246,0 5.417,-3.245 6.509,-4.341c1.079,-3.246 14.1,-47.742 20.608,-58.592c2.171,-4.342 4.342,-5.417 5.433,-5.417c2.171,0 3.246,4.342 3.246,7.588l0,155.171c0,13.021 -10.85,20.608 -21.7,20.608c-4.342,0 -9.758,2.171 -9.758,8.683c-0,6.509 5.416,8.68 14.1,8.68l91.146,-0.001c8.679,0.001 8.679,-8.679 8.679,-8.679c-0,0 -0,-8.683 -8.679,-8.683c-7.588,0 -17.363,-9.754 -17.363,-19.529l0,-225.696c0,-8.679 -3.246,-13.021 -10.85,-13.021c-7.587,0 -14.096,2.171 -20.608,2.171c-10.85,0 -13.021,0 -21.7,-2.171c-4.342,0 -9.775,6.513 -13.021,10.85l-33.646,116.113" style="fill-rule:nonzero;"/></g><g><path d="M1612.06,5388.67c96.562,-0 214.842,-88.975 214.842,-181.213c-0,-55.329 -43.405,-90.054 -105.259,-90.054c-119.358,-0 -214.846,87.883 -214.846,181.2c0,56.421 46.667,90.067 105.263,90.067" style="fill-rule:nonzero;"/></g><g><path d="M2150.34,5523.25c96.579,0 214.846,-88.975 214.846,-181.217c-0,-55.329 -43.404,-90.05 -105.246,-90.05c-119.358,0 -214.842,87.884 -214.842,181.196c0,56.425 46.65,90.071 105.242,90.071" style="fill-rule:nonzero;"/></g><g><path d="M2688.64,5657.79c96.579,-0 214.842,-88.975 214.842,-181.217c-0,-55.329 -43.4,-90.05 -105.242,-90.05c-119.358,-0 -214.846,87.879 -214.846,181.196c0,56.425 46.65,90.071 105.246,90.071" style="fill-rule:nonzero;"/></g><g><path d="M3186.61,5705.54c-6.509,21.7 -57.5,43.404 -82.463,43.404c-6.512,-0 -11.929,-2.171 -13.021,-5.434c-2.17,-4.341 -3.25,-28.212 -3.25,-54.254c0,-33.629 1.08,-71.616 3.25,-80.296c2.167,-18.437 52.084,-41.233 79.217,-41.233c7.588,0 14.096,2.171 16.267,6.513c2.171,5.433 4.341,32.55 4.341,61.854c0,29.292 -2.17,59.671 -4.341,69.446m74.879,-176.875c7.587,-3.246 13.021,-11.925 13.021,-18.438l-0,-77.05c-0,-5.416 -3.263,-8.679 -7.604,-8.679c-2.171,0 -3.246,0 -5.417,1.096c-0,-0 -21.7,8.679 -27.133,9.754c-7.588,0 -15.192,-5.417 -15.192,-14.096l-0,-132.379c-0,-6.508 -6.513,-11.946 -15.192,-11.946c-10.85,0 -17.362,5.438 -17.362,11.946l-0,141.058c-1.075,10.85 -4.338,24.95 -14.096,31.459c-13.021,7.604 -49.913,22.795 -68.367,27.137c-9.758,0 -13.021,-13.021 -13.021,-21.704l0,-130.208c0,-6.509 -7.587,-11.942 -15.191,-11.942c-10.85,-0 -17.363,5.433 -17.363,11.942l0,146.479c0,15.187 -6.508,26.041 -13.021,29.304c-6.508,3.246 -28.212,11.925 -28.212,11.925c-7.588,2.171 -13.021,10.854 -13.021,17.362l0,77.05c0,6.509 3.267,9.755 8.683,9.755c4.338,-0 24.963,-9.755 28.209,-11.925c1.096,-0 2.171,-1.096 3.266,-1.096c7.588,-0 14.096,10.854 14.096,19.533l0,107.429c0,11.929 -5.416,21.704 -11.925,24.95c-6.512,2.171 -29.308,11.942 -29.308,11.942c-7.588,2.171 -13.021,10.854 -13.021,17.362l0,77.034c0,6.508 3.267,9.771 8.683,9.771c1.092,-0 3.263,-1.092 4.338,-1.092c-0,-0 15.192,-6.513 24.967,-9.758c1.075,-1.092 2.17,-1.092 3.245,-1.092c7.605,-0 13.021,11.942 13.021,17.358l0,133.475c0,6.509 6.513,11.925 14.117,11.925c10.85,0 18.437,-5.416 18.437,-11.925l0,-150.833c0,-14.1 5.434,-21.704 10.85,-23.871l66.196,-27.121c1.079,0 3.246,-1.091 4.342,-1.091c8.679,-0 14.096,13.02 14.096,19.529l-0,135.641c-0,6.513 6.512,11.93 14.116,11.93c11.925,-0 18.438,-5.417 18.438,-11.93l-0,-154.079c-0,-8.679 4.337,-21.7 11.942,-24.962c7.587,-3.25 30.383,-11.929 30.383,-11.929c7.587,-3.263 13.021,-11.946 13.021,-18.455l-0,-77.033c-0,-5.433 -3.263,-8.679 -7.604,-8.679c-2.171,-0 -3.246,-0 -5.417,1.075l-28.213,10.854c-6.508,0 -14.112,-6.512 -14.112,-19.533l-0,-100.904c-0,-7.605 5.433,-28.209 14.112,-31.475l28.213,-10.85" style="fill-rule:nonzero;"/></g><g><path d="M3446.85,5792.33c96.562,0 214.841,-88.975 214.841,-181.212c0,-55.329 -43.404,-90.054 -105.258,-90.054c-119.358,-0 -214.846,87.883 -214.846,181.2c0,56.421 46.667,90.066 105.263,90.066" style="fill-rule:nonzero;"/></g><g><path d="M3985.15,5926.88c96.563,0 214.846,-88.975 214.846,-181.217c0,-55.329 -43.404,-90.05 -105.262,-90.05c-119.359,0 -214.842,87.884 -214.842,181.196c0,56.425 46.667,90.071 105.258,90.071" style="fill-rule:nonzero;"/></g><g><path d="M4607.31,6061.42c96.579,-0 214.846,-88.975 214.846,-181.217c-0,-55.329 -43.404,-90.05 -105.246,-90.05c-119.358,0 -214.842,87.879 -214.842,181.196c0,56.425 46.65,90.071 105.242,90.071" style="fill-rule:nonzero;"/></g><g><path d="M5229.56,6195.96c96.579,0 214.842,-88.975 214.842,-181.212c-0,-55.329 -43.404,-90.054 -105.242,-90.054c-119.358,-0 -214.846,87.883 -214.846,181.2c0,56.421 46.65,90.066 105.246,90.066" style="fill-rule:nonzero;"/></g><g><path d="M5851.81,6330.54c96.563,-0 214.846,-88.975 214.846,-181.217c-0,-55.329 -43.404,-90.05 -105.263,-90.05c-119.358,-0 -214.841,87.883 -214.841,181.196c-0,56.425 46.666,90.071 105.258,90.071" style="fill-rule:nonzero;"/></g><g><path d="M6390.11,6465.08c96.562,0 214.841,-88.975 214.841,-181.216c0,-55.329 -43.4,-90.05 -105.258,-90.05c-119.358,-0 -214.846,87.879 -214.846,181.195c0,56.426 46.667,90.071 105.263,90.071" style="fill-rule:nonzero;"/></g><g><path d="M6928.4,6599.62c96.584,0 214.846,-88.975 214.846,-181.212c0,-55.33 -43.404,-90.055 -105.241,-90.055c-119.359,0 -214.846,87.884 -214.846,181.2c-0,56.421 46.65,90.067 105.241,90.067" style="fill-rule:nonzero;"/></g><g><path d="M7426.9,6647.38c-6.512,21.7 -57.516,43.4 -82.466,43.4c-6.509,0 -11.942,-2.167 -13.021,-5.433c-2.171,-4.338 -3.263,-28.213 -3.263,-54.255c0,-33.624 1.092,-71.612 3.263,-80.291c2.171,-18.438 52.083,-41.233 79.204,-41.233c7.604,-0 14.113,2.17 16.283,6.508c2.171,5.433 4.342,32.554 4.342,61.858c0,29.288 -2.171,59.671 -4.342,69.446m74.863,-176.875c7.604,-3.246 13.021,-11.929 13.021,-18.438l-0,-77.05c-0,-5.416 -3.25,-8.679 -7.588,-8.679c-2.171,0 -3.266,0 -5.433,1.092c-0,0 -21.704,8.683 -27.121,9.758c-7.604,0 -15.192,-5.416 -15.192,-14.095l0,-132.38c0,-6.512 -6.508,-11.945 -15.187,-11.945c-10.854,-0 -17.363,5.433 -17.363,11.945l0,141.059c-1.095,10.85 -4.341,24.946 -14.116,31.458c-13.021,7.604 -49.913,22.796 -68.35,27.133c-9.775,0 -13.021,-13.02 -13.021,-21.7l-0,-130.208c-0,-6.508 -7.604,-11.946 -15.192,-11.946c-10.85,0 -17.358,5.438 -17.358,11.946l-0,146.475c-0,15.192 -6.513,26.042 -13.021,29.308c-6.512,3.246 -28.212,11.925 -28.212,11.925c-7.605,2.171 -13.021,10.85 -13.021,17.363l-0,77.046c-0,6.512 3.246,9.758 8.679,9.758c4.342,0 24.95,-9.758 28.212,-11.925c1.075,0 2.171,-1.096 3.246,-1.096c7.604,0 14.117,10.85 14.117,19.534l-0,107.429c-0,11.925 -5.433,21.7 -11.946,24.946c-6.508,2.17 -29.287,11.945 -29.287,11.945c-7.605,2.171 -13.021,10.85 -13.021,17.363l-0,77.029c-0,6.513 3.246,9.775 8.679,9.775c1.079,0 3.246,-1.092 4.342,-1.092c-0,0 15.191,-6.512 24.945,-9.758c1.096,-1.096 2.171,-1.096 3.267,-1.096c7.588,0 13.021,11.946 13.021,17.363l-0,133.47c-0,6.513 6.508,11.93 14.096,11.93c10.85,-0 18.454,-5.417 18.454,-11.93l-0,-150.833c-0,-14.096 5.417,-21.7 10.85,-23.871l66.183,-27.116c1.092,-0 3.263,-1.096 4.338,-1.096c8.683,-0 14.116,13.021 14.116,19.533l0,135.642c0,6.512 6.509,11.929 14.096,11.929c11.946,-0 18.454,-5.417 18.454,-11.929l0,-154.079c0,-8.68 4.342,-21.7 11.93,-24.967c7.604,-3.246 30.383,-11.925 30.383,-11.925c7.604,-3.267 13.021,-11.946 13.021,-18.454l-0,-77.034c-0,-5.433 -3.25,-8.679 -7.588,-8.679c-2.171,0 -3.266,0 -5.433,1.075l-28.213,10.85c-6.512,0 -14.1,-6.508 -14.1,-19.529l0,-100.904c0,-7.604 5.417,-28.213 14.1,-31.475l28.213,-10.85" style="fill-rule:nonzero;"/></g><g><path d="M7687.11,6734.17c96.579,-0 214.846,-88.975 214.846,-181.217c-0,-55.329 -43.405,-90.05 -105.246,-90.05c-119.354,0 -214.842,87.883 -214.842,181.196c0,56.425 46.65,90.071 105.242,90.071" style="fill-rule:nonzero;"/></g><g><path d="M8290.23,6868.71c96.562,0 214.841,-88.975 214.841,-181.216c0,-55.329 -43.4,-90.05 -105.258,-90.05c-119.358,-0 -214.846,87.879 -214.846,181.196c0,56.425 46.667,90.07 105.263,90.07" style="fill-rule:nonzero;"/></g><g><path d="M8912.44,7003.25c96.579,0 214.846,-88.975 214.846,-181.212c-0,-55.33 -43.404,-90.055 -105.246,-90.055c-119.354,0 -214.842,87.884 -214.842,181.2c0,56.421 46.65,90.067 105.242,90.067" style="fill-rule:nonzero;"/></g><g><path d="M9534.69,7137.83c96.563,0 214.842,-88.975 214.842,-181.216c-0,-55.329 -43.4,-90.05 -105.259,-90.05c-119.358,-0 -214.845,87.883 -214.845,181.196c-0,56.425 46.666,90.07 105.262,90.07" style="fill-rule:nonzero;"/></g><g><path d="M10626.6,6933.83c11.929,-37.987 52.083,-43.404 85.712,-43.404c74.879,0 134.55,80.296 134.55,145.4c0,33.629 -14.1,64.009 -49.916,72.692c-10.85,3.262 -22.775,4.337 -33.625,4.337c-39.063,0 -79.221,-26.041 -102,-56.421c-21.7,-24.95 -37.984,-61.841 -37.984,-96.562c0,-8.683 1.092,-17.362 3.263,-26.042m113.925,-67.275c-144.309,0 -234.375,59.671 -234.375,133.454c-0,72.709 61.858,137.813 223.525,137.813c177.95,0 234.375,-61.858 234.375,-137.813c-0,-77.029 -122.604,-133.454 -223.525,-133.454" style="fill-rule:nonzero;"/></g><g><path d="M565.288,5776.04c3.246,20.625 3.246,19.533 -16.287,26.041c-95.484,32.555 -157.325,118.284 -157.325,210.505c-0,97.654 50.987,167.099 124.775,192.066c8.679,3.246 21.7,6.508 29.304,6.508c8.679,0 13.021,-5.433 13.021,-11.941c-0,-7.588 -8.68,-10.854 -16.284,-14.1c-45.575,-19.529 -78.125,-66.196 -78.125,-116.109c0,-61.841 42.325,-108.508 108.504,-126.945c17.363,-4.342 19.534,-3.263 21.705,8.679l54.254,323.35c2.166,11.929 1.091,11.929 -15.192,15.191c-17.362,3.246 -39.062,5.417 -60.767,5.417c-189.875,0 -312.5,-105.242 -312.5,-256.075c0,-64.012 10.855,-149.742 100.921,-251.737c65.104,-72.692 115.017,-112.846 166.009,-154.08c10.85,-8.679 13.02,-7.587 15.191,4.342l22.796,138.888m118.263,-738.925c35.816,-0 65.104,29.291 65.104,88.979c-0,120.433 -103.075,218.087 -188.804,292.966c-7.584,6.513 -11.925,5.417 -14.096,-8.679c-4.342,-28.212 -6.509,-65.104 -6.509,-99.829c0,-169.271 78.125,-273.437 144.305,-273.437m-43.405,911.458c-2.17,-13.021 -1.075,-16.283 11.946,-15.188c87.884,7.584 160.592,81.371 160.592,176.855c-0,68.37 -41.233,123.7 -102,154.083c-13.021,6.508 -15.188,6.508 -17.358,-6.513l-53.18,-309.237m-58.591,-338.542c-2.171,-13.021 -0,-14.112 6.508,-20.625c117.188,-109.583 206.163,-247.396 206.163,-413.4c-0,-94.412 -26.042,-187.725 -70.521,-252.829c-16.284,-23.875 -44.496,-54.254 -56.421,-54.254c-15.192,-0 -48.838,28.212 -70.538,52.083c-80.295,88.975 -106.337,224.617 -106.337,337.463c-0,62.937 7.604,133.458 15.192,177.954c2.166,13.021 3.262,15.192 -9.759,26.042c-156.25,129.112 -322.275,284.287 -322.275,503.47c0,188.805 129.134,367.83 394.967,367.83c24.962,-0 53.175,-2.171 74.879,-6.509c11.925,-2.171 14.096,-3.246 16.267,9.775c13.021,72.688 29.304,167.1 29.304,218.088c-0,160.591 -108.508,180.121 -172.533,180.121c-58.596,-0 -86.809,-17.359 -86.809,-31.459c0,-7.604 9.775,-10.85 34.725,-18.454c33.646,-9.754 72.709,-39.062 72.709,-101.996c-0,-59.671 -37.988,-110.675 -104.167,-110.675c-72.708,0 -116.113,57.517 -116.113,124.792c0,70.521 42.325,176.854 206.163,176.854c72.708,0 213.767,-32.55 213.767,-217.012c-0,-61.842 -19.53,-164.93 -31.475,-232.205c-2.171,-13.02 -1.075,-11.929 14.116,-18.437c109.584,-43.404 182.292,-135.642 182.292,-258.246c-0,-138.892 -101.996,-261.512 -261.513,-261.512c-28.212,-0 -28.212,-0 -31.458,-19.53l-27.133,-157.329" style="fill-rule:nonzero;"/></g><g><path d="M4634.07,6579.02c-14.106,0 -21.702,6.511 -21.702,16.276c0,9.766 7.596,16.276 21.702,16.276l10.85,0c40.148,0 59.679,23.872 59.679,58.594c0,47.743 -33.637,113.933 -99.826,113.933c-21.702,-0 -39.063,-8.681 -39.063,-19.532c0,-6.51 5.426,-8.68 14.106,-13.02c11.936,-5.426 27.127,-18.447 27.127,-46.658c-0,-26.042 -18.446,-39.063 -41.233,-39.063c-30.382,0 -53.168,27.127 -53.168,62.934c-0,43.403 34.722,83.551 111.762,83.551c92.231,-0 168.186,-55.339 168.186,-141.06c0,-27.126 -14.106,-53.168 -42.318,-67.274c-7.595,-3.255 -11.936,-4.34 -11.936,-9.766c0,-3.255 4.341,-5.425 13.021,-9.765c45.573,-18.447 82.466,-53.169 82.466,-96.572c-0,-56.423 -54.254,-91.146 -120.443,-91.146c-68.36,0 -124.783,35.808 -126.953,94.402c-1.086,28.211 16.276,46.658 41.232,46.658c27.127,-0 48.828,-21.702 48.828,-50.999c0,-11.935 -4.34,-20.616 -9.765,-27.126c-7.596,-6.511 -13.021,-10.851 -13.021,-14.106c-0,-7.596 13.021,-15.191 35.807,-15.191c42.318,-0 56.424,26.041 56.424,49.913c-0,57.509 -36.892,98.741 -99.827,98.741l-11.935,0Z" style="fill-rule:nonzero;"/></g><g><path d="M8939.15,7288.52c-14.106,0 -21.701,6.511 -21.701,16.276c-0,9.766 7.595,16.276 21.701,16.276l10.851,0c40.147,0 59.679,23.872 59.679,58.594c-0,47.743 -33.638,113.933 -99.827,113.933c-21.701,-0 -39.062,-8.681 -39.062,-19.532c-0,-6.51 5.425,-8.68 14.105,-13.02c11.936,-5.426 27.127,-18.447 27.127,-46.658c0,-26.042 -18.446,-39.063 -41.232,-39.063c-30.382,0 -53.169,27.127 -53.169,62.934c0,43.403 34.722,83.551 111.762,83.551c92.231,-0 168.186,-55.339 168.186,-141.06c0,-27.126 -14.106,-53.168 -42.317,-67.274c-7.596,-3.255 -11.936,-4.34 -11.936,-9.766c-0,-3.255 4.34,-5.425 13.021,-9.765c45.573,-18.447 82.465,-53.169 82.465,-96.572c0,-56.423 -54.254,-91.146 -120.443,-91.146c-68.359,0 -124.783,35.808 -126.953,94.402c-1.085,28.211 16.276,46.658 41.233,46.658c27.126,-0 48.828,-21.702 48.828,-50.999c-0,-11.935 -4.341,-20.616 -9.766,-27.126c-7.595,-6.511 -13.021,-10.851 -13.021,-14.106c0,-7.596 13.021,-15.191 35.808,-15.191c42.317,-0 56.423,26.041 56.423,49.913c0,57.509 -36.892,98.741 -99.826,98.741l-11.936,0Z" style="fill-rule:nonzero;"/></g><g><path d="M1506.59,6333l0,-135.954l1867.4,269.096l-0,135.954l-1867.4,-269.096" style="fill-rule:nonzero;"/></g><g><path d="M1506.59,6129.08l0,-136.02l1867.4,269.095l-0,136.025l-1867.4,-269.1" style="fill-rule:nonzero;"/></g><g><path d="M4167.73,5051.25l-0,-136.283l1276.58,201.82l-0,136.284l-1276.58,-201.821" style="fill-rule:nonzero;"/></g><g><path d="M6034.02,5317l0,-136.787l1867.95,336.37l0,136.788l-1867.95,-336.371" style="fill-rule:nonzero;"/></g><g><path d="M6034.02,5522.17l0,-136.771l1867.95,336.371l0,136.77l-1867.95,-336.37" style="fill-rule:nonzero;"/></g><g><path d="M8472.73,5858.54l-0,-134.759l1276.58,67.275l-0,134.759l-1276.58,-67.275" style="fill-rule:nonzero;"/></g><g><path d="M3791.19,6604.42l576.183,-0l0,-43.021l-533.316,-0l-0,-158.8l-42.867,-0" style="fill-rule:nonzero;"/></g><g><path d="M5465.98,6604.42l-508.888,-0l0,-43.021l465.488,-0l-0,-158.8l43.4,-0" style="fill-rule:nonzero;"/></g><g><path d="M8096.19,7137.83l578.892,115.559l-0,-43.996l-536.025,-106.942l-0,-166.441l-42.867,-0.001" style="fill-rule:nonzero;"/></g><g><path d="M9771.02,7476.08l-511.616,-101.562l-0,-43.996l468.75,97.171l-0,-153.438l42.866,0" style="fill-rule:nonzero;"/></g></g></svg>