<?xml version="1.0" encoding="UTF-8" standalone="no"?><!DOCTYPE svg PUBLIC "-//W3C//DTD SVG 1.1//EN" "http://www.w3.org/Graphics/SVG/1.1/DTD/svg11.dtd"><svg width="100%" height="100%" viewBox="0 0 6894 1714" version="1.1" xmlns="http://www.w3.org/2000/svg" xmlns:xlink="http://www.w3.org/1999/xlink" xml:space="preserve" xmlns:serif="http://www.serif.com/" style="fill-rule:evenodd;clip-rule:evenodd;stroke-miterlimit:2;"><g><g><path d="M9.364,356.567l6875,-0" style="fill:none;stroke:#000;stroke-width:8.38px;"/><path d="M9.364,421.15l6875,-0" style="fill:none;stroke:#000;stroke-width:8.38px;"/><path d="M9.364,614.9l6875,0" style="fill:none;stroke:#000;stroke-width:8.38px;"/><path d="M9.364,485.733l6875,0" style="fill:none;stroke:#000;stroke-width:8.38px;"/><path d="M9.364,550.317l6875,-0" style="fill:none;stroke:#000;stroke-width:8.38px;"/></g><g><path d="M3569.26,352.375l0,266.721" style="fill:none;stroke:#000;stroke-width:10.33px;"/><path d="M6879.15,352.375l0,266.721" style="fill:none;stroke:#000;stroke-width:10.33px;"/></g><g><path d="M434.497,501.854l-0,263.658" style="fill:none;stroke:#000;stroke-width:7.75px;"/></g><g><path d="M335.797,744.067l128.517,-0" style="fill:none;stroke:#000;stroke-width:10.33px;"/><path d="M335.797,679.483l128.517,0" style="fill:none;stroke:#000;stroke-width:10.33px;"/></g><g><path d="M636.318,496.45l-0,236.771" style="fill:none;stroke:#000;stroke-width:7.75px;"/></g><g><path d="M552.726,744.067l113.279,-0" style="fill:none;stroke:#000;stroke-width:10.33px;"/><path d="M537.622,679.483l128.383,0" style="fill:none;stroke:#000;stroke-width:10.33px;"/></g><g><path d="M838.143,491.046l-0,209.883" style="fill:none;stroke:#000;stroke-width:7.75px;"/></g><g><path d="M755.589,679.483l112.241,0" style="fill:none;stroke:#000;stroke-width:10.33px;"/></g><g><path d="M1037.49,485.708l-0,215.221" style="fill:none;stroke:#000;stroke-width:7.75px;"/></g><g><path d="M954.809,679.483l112.367,0" style="fill:none;stroke:#000;stroke-width:10.33px;"/></g><g><path d="M1245.3,436.567l0,232.071" style="fill:none;stroke:#000;stroke-width:7.75px;"/></g><g><path d="M1161.58,679.483l113.413,0" style="fill:none;stroke:#000;stroke-width:10.33px;"/></g><g><path d="M1444.65,409.654l0,226.692" style="fill:none;stroke:#000;stroke-width:7.75px;"/><path d="M1644,382.742l0,221.312" style="fill:none;stroke:#000;stroke-width:7.75px;"/><path d="M1843.35,355.837l-0,215.926" style="fill:none;stroke:#000;stroke-width:7.75px;"/><path d="M1973.69,561.163l-0,183.02" style="fill:none;stroke:#000;stroke-width:7.75px;"/><path d="M2172.91,528.875l0,204.542" style="fill:none;stroke:#000;stroke-width:7.75px;"/><path d="M2372.13,496.583l0,226.08" style="fill:none;stroke:#000;stroke-width:7.75px;"/><path d="M2571.47,496.583l-0,215.309" style="fill:none;stroke:#000;stroke-width:7.75px;"/><path d="M2770.56,464.292l-0,199.516" style="fill:none;stroke:#000;stroke-width:7.75px;"/><path d="M2969.91,432l0,210.283" style="fill:none;stroke:#000;stroke-width:7.75px;"/><path d="M3169.26,399.708l0,221.038" style="fill:none;stroke:#000;stroke-width:7.75px;"/><path d="M3368.61,367.417l0,231.808" style="fill:none;stroke:#000;stroke-width:7.75px;"/><path d="M3675.36,335.125l-0,215.663" style="fill:none;stroke:#000;stroke-width:7.75px;"/><path d="M3874.61,302.833l-0,226.521" style="fill:none;stroke:#000;stroke-width:7.75px;"/></g><g><path d="M3860.03,291.983l113.413,0" style="fill:none;stroke:#000;stroke-width:10.33px;"/></g><g><path d="M4076.41,270.542l0,237.096" style="fill:none;stroke:#000;stroke-width:7.75px;"/></g><g><path d="M4062.86,291.983l112.237,0" style="fill:none;stroke:#000;stroke-width:10.33px;"/></g><g><path d="M4275.78,270.542l0,215.662" style="fill:none;stroke:#000;stroke-width:7.75px;"/></g><g><path d="M4262.24,291.983l112.241,0" style="fill:none;stroke:#000;stroke-width:10.33px;"/></g><g><path d="M4483.57,238.25l-0,247.513" style="fill:none;stroke:#000;stroke-width:7.75px;"/></g><g><path d="M4468.86,227.4l113.412,0" style="fill:none;stroke:#000;stroke-width:10.33px;"/><path d="M4470.03,291.983l112.242,0" style="fill:none;stroke:#000;stroke-width:10.33px;"/></g><g><path d="M4682.82,205.958l-0,274.425" style="fill:none;stroke:#000;stroke-width:7.75px;"/></g><g><path d="M4653.11,227.4l128.516,0" style="fill:none;stroke:#000;stroke-width:10.33px;"/><path d="M4653.11,291.983l128.516,0" style="fill:none;stroke:#000;stroke-width:10.33px;"/></g><g><path d="M4882.15,173.667l0,301.337" style="fill:none;stroke:#000;stroke-width:7.75px;"/></g><g><path d="M4852.45,162.817l128.512,-0" style="fill:none;stroke:#000;stroke-width:10.33px;"/><path d="M4852.45,227.4l128.512,0" style="fill:none;stroke:#000;stroke-width:10.33px;"/><path d="M4852.45,291.983l128.512,0" style="fill:none;stroke:#000;stroke-width:10.33px;"/></g><g><path d="M5081.49,141.375l-0,328.242" style="fill:none;stroke:#000;stroke-width:7.75px;"/></g><g><path d="M5051.82,162.817l128.387,-0" style="fill:none;stroke:#000;stroke-width:10.33px;"/><path d="M5051.82,227.4l128.387,0" style="fill:none;stroke:#000;stroke-width:10.33px;"/><path d="M5051.82,291.983l128.387,0" style="fill:none;stroke:#000;stroke-width:10.33px;"/></g><g><path d="M5280.86,141.375l-0,328.242" style="fill:none;stroke:#000;stroke-width:7.75px;"/></g><g><path d="M5251.15,162.817l128.388,-0" style="fill:none;stroke:#000;stroke-width:10.33px;"/><path d="M5251.15,227.4l128.388,0" style="fill:none;stroke:#000;stroke-width:10.33px;"/><path d="M5251.15,291.983l128.388,0" style="fill:none;stroke:#000;stroke-width:10.33px;"/></g><g><path d="M5480.07,173.667l-0,301.337" style="fill:none;stroke:#000;stroke-width:7.75px;"/></g><g><path d="M5450.36,162.817l128.512,-0" style="fill:none;stroke:#000;stroke-width:10.33px;"/><path d="M5450.36,227.4l128.512,0" style="fill:none;stroke:#000;stroke-width:10.33px;"/><path d="M5450.36,291.983l128.512,0" style="fill:none;stroke:#000;stroke-width:10.33px;"/></g><g><path d="M5679.4,205.958l0,274.425" style="fill:none;stroke:#000;stroke-width:7.75px;"/></g><g><path d="M5649.74,227.4l128.516,0" style="fill:none;stroke:#000;stroke-width:10.33px;"/><path d="M5649.74,291.983l128.516,0" style="fill:none;stroke:#000;stroke-width:10.33px;"/></g><g><path d="M5878.78,238.25l0,247.513" style="fill:none;stroke:#000;stroke-width:7.75px;"/></g><g><path d="M5849.07,227.4l128.383,0" style="fill:none;stroke:#000;stroke-width:10.33px;"/><path d="M5849.07,291.983l128.383,0" style="fill:none;stroke:#000;stroke-width:10.33px;"/></g><g><path d="M6078.11,270.542l-0,215.662" style="fill:none;stroke:#000;stroke-width:7.75px;"/></g><g><path d="M6048.4,291.983l128.384,0" style="fill:none;stroke:#000;stroke-width:10.33px;"/></g><g><path d="M6279.95,270.542l-0,237.366" style="fill:none;stroke:#000;stroke-width:7.75px;"/></g><g><path d="M6266.28,291.983l112.371,0" style="fill:none;stroke:#000;stroke-width:10.33px;"/></g><g><path d="M6479.15,302.833l0,226.509" style="fill:none;stroke:#000;stroke-width:7.75px;"/></g><g><path d="M6449.49,291.983l128.512,0" style="fill:none;stroke:#000;stroke-width:10.33px;"/></g><g><path d="M6678.49,335.125l-0,215.663" style="fill:none;stroke:#000;stroke-width:7.75px;"/></g><g><path d="M385.105,256.308c0,0 -0.262,1.042 -0.262,1.821c-0,1.042 1.041,2.083 2.083,2.083c0.783,0 1.304,-0.779 1.563,-1.041c0.262,-0.779 3.387,-11.459 4.95,-14.063c0.52,-1.041 1.041,-1.3 1.3,-1.3c0.52,0 0.783,1.042 0.783,1.821l-0,37.242c-0,3.125 -2.604,4.946 -5.208,4.946c-1.042,-0 -2.346,0.52 -2.346,2.083c-0,1.562 1.304,2.083 3.387,2.083l21.875,0c2.084,0 2.084,-2.083 2.084,-2.083c-0,-0 -0,-2.083 -2.084,-2.083c-1.825,-0 -4.166,-2.342 -4.166,-4.688l-0,-54.167c-0,-2.083 -0.784,-3.125 -2.605,-3.125c-1.825,0 -3.387,0.521 -4.95,0.521c-2.604,0 -3.125,0 -5.208,-0.521c-1.042,0 -2.342,1.563 -3.125,2.605l-8.071,27.866" style="fill-rule:nonzero;"/></g><g><path d="M627.639,271.15c-0,-1.821 -0.784,-2.083 -1.563,-2.083c-1.042,-0 -1.562,0.783 -1.825,1.562c-1.3,3.646 -4.167,8.334 -8.071,8.334c-0.521,-0 -1.041,-0 -1.562,-0.259l-3.909,-1.304c-2.604,-1.042 -8.854,-3.125 -14.062,-3.125c-1.821,0 -3.383,0.263 -4.946,0.783c2.863,-4.95 16.404,-11.458 19.271,-12.241c9.375,-1.3 17.187,-6.771 17.187,-16.925c0,-6.25 -2.604,-10.417 -5.991,-13.542c-6.771,-5.471 -16.667,-6.25 -19.529,-6.25c-9.375,0 -16.93,0.521 -23.7,8.333c-1.821,2.084 -2.605,4.167 -2.605,6.25c0,1.821 0.784,3.905 1.563,6.25c1.562,3.125 4.95,5.467 8.596,5.467c6.508,0 7.291,-6.25 7.291,-9.112c0,-5.992 -6.512,-6.513 -6.512,-9.117c-0,-1.821 2.604,-4.946 10.417,-4.946c12.241,-0 16.408,10.154 16.408,13.279c-0,4.688 -1.563,9.117 -4.167,12.763c-4.687,5.987 -13.283,8.07 -19.791,12.237c-7.292,4.429 -12.242,11.979 -14.584,20.313c0,1.825 0.779,3.908 2.342,4.687c0.262,0.263 0.783,0.263 1.042,0.263c2.866,-0 4.429,-8.075 12.241,-8.075c5.209,-0 7.029,7.033 18.75,7.033c5.467,0 15.625,-0.521 17.709,-20.575" style="fill-rule:nonzero;"/></g><g><path d="M817.489,268.546l-0,-27.863c-0,-1.304 -0.259,-2.345 -1.563,-2.345c-1.042,-0 -1.821,0.262 -2.604,1.304l-7.813,15.104c-0.52,0.521 -1.3,1.3 -1.3,3.125l0,10.675l-16.929,-0c10.679,-8.854 27.346,-38.279 27.604,-39.842c0,-0.262 0.263,-0.521 0.263,-0.783c-0,-1.042 -1.042,-1.821 -1.825,-1.821c-1.3,-0 -6.771,0.521 -9.113,0.521c-2.345,-0 -3.908,-0.521 -4.95,-0.521c-1.3,-0 -3.125,0.521 -3.125,2.604c0,16.667 -13.541,35.675 -16.925,40.363c-0.52,0.52 -1.041,1.304 -1.041,2.083c-0,1.304 1.041,2.604 2.604,2.604l23.437,0l0,8.075c0,3.646 -2.083,4.688 -4.166,4.688c-2.346,-0 -3.388,1.041 -3.388,2.341c0,1.305 0.521,2.867 2.867,2.867l22.396,0c1.3,0 2.604,-1.042 2.604,-2.867c-0,-1.82 -1.563,-2.604 -2.867,-2.604c-1.3,0 -4.166,-0.779 -4.166,-4.946l-0,-7.554l9.637,0c1.3,0 2.083,-1.042 2.083,-2.604c0,-1.563 -0.52,-2.604 -2.083,-2.604l-9.637,-0" style="fill-rule:nonzero;"/></g><g><path d="M1016.81,268.546l-0,-27.863c-0,-1.304 -0.263,-2.345 -1.563,-2.345c-1.042,-0 -1.825,0.262 -2.604,1.304l-7.813,15.104c-0.52,0.521 -1.304,1.3 -1.304,3.125l0,10.675l-16.925,-0c10.675,-8.854 27.342,-38.279 27.604,-39.842c0,-0.262 0.259,-0.521 0.259,-0.783c-0,-1.042 -1.042,-1.821 -1.821,-1.821c-1.304,-0 -6.771,0.521 -9.117,0.521c-2.341,-0 -3.904,-0.521 -4.946,-0.521c-1.304,-0 -3.125,0.521 -3.125,2.604c0,16.667 -13.541,35.675 -16.929,40.363c-0.521,0.52 -1.041,1.304 -1.041,2.083c-0,1.304 1.041,2.604 2.604,2.604l23.437,0l0,8.075c0,3.646 -2.083,4.688 -4.166,4.688c-2.342,-0 -3.384,1.041 -3.384,2.341c0,1.305 0.521,2.867 2.863,2.867l22.396,0c1.304,0 2.604,-1.042 2.604,-2.867c-0,-1.82 -1.563,-2.604 -2.863,-2.604c-1.304,0 -4.166,-0.779 -4.166,-4.946l-0,-7.554l9.633,0c1.304,0 2.083,-1.042 2.083,-2.604c0,-1.563 -0.521,-2.604 -2.083,-2.604l-9.633,-0" style="fill-rule:nonzero;"/></g><g><path d="M1195.83,256.308c0,0 -0.258,1.042 -0.258,1.821c0,1.042 1.042,2.083 2.083,2.083c0.78,0 1.3,-0.779 1.563,-1.041c0.258,-0.779 3.383,-11.459 4.946,-14.063c0.521,-1.041 1.041,-1.3 1.304,-1.3c0.521,0 0.779,1.042 0.779,1.821l0,37.242c0,3.125 -2.604,4.946 -5.208,4.946c-1.042,-0 -2.342,0.52 -2.342,2.083c0,1.562 1.3,2.083 3.383,2.083l21.875,0c2.084,0 2.084,-2.083 2.084,-2.083c-0,-0 -0,-2.083 -2.084,-2.083c-1.82,-0 -4.166,-2.342 -4.166,-4.688l-0,-54.167c-0,-2.083 -0.779,-3.125 -2.604,-3.125c-1.821,0 -3.384,0.521 -4.946,0.521c-2.604,0 -3.125,0 -5.209,-0.521c-1.041,0 -2.345,1.563 -3.125,2.605l-8.075,27.866" style="fill-rule:nonzero;"/></g><g><path d="M1435.91,271.15c-0,-1.821 -0.784,-2.083 -1.563,-2.083c-1.042,-0 -1.562,0.783 -1.825,1.562c-1.3,3.646 -4.167,8.334 -8.071,8.334c-0.521,-0 -1.041,-0 -1.562,-0.259l-3.909,-1.304c-2.604,-1.042 -8.854,-3.125 -14.062,-3.125c-1.821,0 -3.383,0.263 -4.946,0.783c2.863,-4.95 16.404,-11.458 19.271,-12.241c9.375,-1.3 17.187,-6.771 17.187,-16.925c0,-6.25 -2.604,-10.417 -5.991,-13.542c-6.771,-5.471 -16.667,-6.25 -19.529,-6.25c-9.375,0 -16.93,0.521 -23.7,8.333c-1.821,2.084 -2.605,4.167 -2.605,6.25c0,1.821 0.784,3.905 1.563,6.25c1.562,3.125 4.95,5.467 8.596,5.467c6.508,0 7.291,-6.25 7.291,-9.112c0,-5.992 -6.512,-6.513 -6.512,-9.117c-0,-1.821 2.604,-4.946 10.417,-4.946c12.241,-0 16.408,10.154 16.408,13.279c-0,4.688 -1.563,9.117 -4.167,12.763c-4.687,5.987 -13.283,8.07 -19.791,12.237c-7.292,4.429 -12.242,11.979 -14.584,20.313c0,1.825 0.779,3.908 2.342,4.687c0.262,0.263 0.783,0.263 1.042,0.263c2.866,-0 4.429,-8.075 12.241,-8.075c5.209,-0 7.029,7.033 18.75,7.033c5.467,0 15.625,-0.521 17.709,-20.575" style="fill-rule:nonzero;"/></g><g><path d="M1623.32,268.546l-0,-27.863c-0,-1.304 -0.263,-2.345 -1.563,-2.345c-1.041,-0 -1.825,0.262 -2.604,1.304l-7.812,15.104c-0.521,0.521 -1.304,1.3 -1.304,3.125l-0,10.675l-16.925,-0c10.675,-8.854 27.341,-38.279 27.604,-39.842c-0,-0.262 0.258,-0.521 0.258,-0.783c0,-1.042 -1.042,-1.821 -1.821,-1.821c-1.304,-0 -6.771,0.521 -9.116,0.521c-2.342,-0 -3.905,-0.521 -4.946,-0.521c-1.304,-0 -3.125,0.521 -3.125,2.604c-0,16.667 -13.542,35.675 -16.929,40.363c-0.521,0.52 -1.042,1.304 -1.042,2.083c-0,1.304 1.042,2.604 2.604,2.604l23.438,0l-0,8.075c-0,3.646 -2.084,4.688 -4.167,4.688c-2.342,-0 -3.383,1.041 -3.383,2.341c-0,1.305 0.52,2.867 2.862,2.867l22.396,0c1.304,0 2.604,-1.042 2.604,-2.867c0,-1.82 -1.562,-2.604 -2.862,-2.604c-1.305,0 -4.167,-0.779 -4.167,-4.946l-0,-7.554l9.633,0c1.304,0 2.084,-1.042 2.084,-2.604c-0,-1.563 -0.521,-2.604 -2.084,-2.604l-9.633,-0" style="fill-rule:nonzero;"/></g><g><path d="M1822.68,268.546l0,-27.863c0,-1.304 -0.262,-2.345 -1.562,-2.345c-1.042,-0 -1.825,0.262 -2.604,1.304l-7.813,15.104c-0.521,0.521 -1.304,1.3 -1.304,3.125l0,10.675l-16.925,-0c10.675,-8.854 27.342,-38.279 27.604,-39.842c0,-0.262 0.259,-0.521 0.259,-0.783c-0,-1.042 -1.042,-1.821 -1.821,-1.821c-1.304,-0 -6.771,0.521 -9.117,0.521c-2.342,-0 -3.904,-0.521 -4.946,-0.521c-1.304,-0 -3.125,0.521 -3.125,2.604c0,16.667 -13.541,35.675 -16.929,40.363c-0.521,0.52 -1.042,1.304 -1.042,2.083c0,1.304 1.042,2.604 2.605,2.604l23.437,0l0,8.075c0,3.646 -2.083,4.688 -4.167,4.688c-2.341,-0 -3.383,1.041 -3.383,2.341c0,1.305 0.521,2.867 2.863,2.867l22.395,0c1.305,0 2.605,-1.042 2.605,-2.867c-0,-1.82 -1.563,-2.604 -2.863,-2.604c-1.304,0 -4.167,-0.779 -4.167,-4.946l0,-7.554l9.634,0c1.304,0 2.083,-1.042 2.083,-2.604c0,-1.563 -0.521,-2.604 -2.083,-2.604l-9.634,-0" style="fill-rule:nonzero;"/></g><g><path d="M1993.24,256.308c-0,0 -0.259,1.042 -0.259,1.821c0,1.042 1.042,2.083 2.084,2.083c0.779,0 1.3,-0.779 1.562,-1.041c0.259,-0.779 3.384,-11.459 4.946,-14.063c0.521,-1.041 1.042,-1.3 1.304,-1.3c0.521,0 0.779,1.042 0.779,1.821l0,37.242c0,3.125 -2.604,4.946 -5.208,4.946c-1.042,-0 -2.342,0.52 -2.342,2.083c0,1.562 1.3,2.083 3.384,2.083l21.875,0c2.083,0 2.083,-2.083 2.083,-2.083c0,-0 0,-2.083 -2.083,-2.083c-1.821,-0 -4.167,-2.342 -4.167,-4.688l0,-54.167c0,-2.083 -0.779,-3.125 -2.604,-3.125c-1.821,0 -3.383,0.521 -4.946,0.521c-2.604,0 -3.125,0 -5.208,-0.521c-1.042,0 -2.346,1.563 -3.125,2.605l-8.075,27.866" style="fill-rule:nonzero;"/></g><g><path d="M2233.24,271.15c-0,-1.821 -0.779,-2.083 -1.563,-2.083c-1.041,-0 -1.562,0.783 -1.821,1.562c-1.304,3.646 -4.166,8.334 -8.075,8.334c-0.52,-0 -1.041,-0 -1.562,-0.259l-3.904,-1.304c-2.604,-1.042 -8.854,-3.125 -14.063,-3.125c-1.825,0 -3.387,0.263 -4.95,0.783c2.867,-4.95 16.409,-11.458 19.271,-12.241c9.375,-1.3 17.188,-6.771 17.188,-16.925c-0,-6.25 -2.605,-10.417 -5.988,-13.542c-6.771,-5.471 -16.667,-6.25 -19.533,-6.25c-9.375,0 -16.925,0.521 -23.696,8.333c-1.825,2.084 -2.604,4.167 -2.604,6.25c-0,1.821 0.779,3.905 1.562,6.25c1.563,3.125 4.946,5.467 8.592,5.467c6.512,0 7.292,-6.25 7.292,-9.112c-0,-5.992 -6.509,-6.513 -6.509,-9.117c0,-1.821 2.604,-4.946 10.417,-4.946c12.237,-0 16.404,10.154 16.404,13.279c0,4.688 -1.562,9.117 -4.167,12.763c-4.687,5.987 -13.279,8.07 -19.791,12.237c-7.292,4.429 -12.238,11.979 -14.584,20.313c0,1.825 0.784,3.908 2.346,4.687c0.259,0.263 0.779,0.263 1.042,0.263c2.862,-0 4.425,-8.075 12.237,-8.075c5.209,-0 7.034,7.033 18.75,7.033c5.471,0 15.625,-0.521 17.709,-20.575" style="fill-rule:nonzero;"/></g><g><path d="M2420.56,268.546l0,-27.863c0,-1.304 -0.258,-2.345 -1.562,-2.345c-1.042,-0 -1.821,0.262 -2.604,1.304l-7.813,15.104c-0.521,0.521 -1.3,1.3 -1.3,3.125l0,10.675l-16.929,-0c10.679,-8.854 27.346,-38.279 27.604,-39.842c0,-0.262 0.263,-0.521 0.263,-0.783c-0,-1.042 -1.042,-1.821 -1.825,-1.821c-1.3,-0 -6.771,0.521 -9.113,0.521c-2.346,-0 -3.908,-0.521 -4.95,-0.521c-1.3,-0 -3.125,0.521 -3.125,2.604c0,16.667 -13.541,35.675 -16.925,40.363c-0.521,0.52 -1.041,1.304 -1.041,2.083c-0,1.304 1.041,2.604 2.604,2.604l23.437,0l0,8.075c0,3.646 -2.083,4.688 -4.166,4.688c-2.346,-0 -3.388,1.041 -3.388,2.341c0,1.305 0.521,2.867 2.867,2.867l22.396,0c1.3,0 2.604,-1.042 2.604,-2.867c-0,-1.82 -1.563,-2.604 -2.867,-2.604c-1.3,0 -4.167,-0.779 -4.167,-4.946l0,-7.554l9.638,0c1.3,0 2.083,-1.042 2.083,-2.604c0,-1.563 -0.521,-2.604 -2.083,-2.604l-9.638,-0" style="fill-rule:nonzero;"/></g><g><path d="M2619.82,268.546l-0,-27.863c-0,-1.304 -0.259,-2.345 -1.563,-2.345c-1.041,-0 -1.821,0.262 -2.604,1.304l-7.812,15.104c-0.521,0.521 -1.3,1.3 -1.3,3.125l-0,10.675l-16.93,-0c10.68,-8.854 27.346,-38.279 27.605,-39.842c-0,-0.262 0.262,-0.521 0.262,-0.783c0,-1.042 -1.042,-1.821 -1.825,-1.821c-1.3,-0 -6.771,0.521 -9.112,0.521c-2.346,-0 -3.909,-0.521 -4.95,-0.521c-1.3,-0 -3.125,0.521 -3.125,2.604c-0,16.667 -13.542,35.675 -16.925,40.363c-0.521,0.52 -1.042,1.304 -1.042,2.083c-0,1.304 1.042,2.604 2.604,2.604l23.438,0l-0,8.075c-0,3.646 -2.084,4.688 -4.167,4.688c-2.346,-0 -3.388,1.041 -3.388,2.341c0,1.305 0.521,2.867 2.867,2.867l22.396,0c1.3,0 2.604,-1.042 2.604,-2.867c0,-1.82 -1.562,-2.604 -2.867,-2.604c-1.3,0 -4.166,-0.779 -4.166,-4.946l-0,-7.554l9.637,0c1.3,0 2.084,-1.042 2.084,-2.604c-0,-1.563 -0.521,-2.604 -2.084,-2.604l-9.637,-0" style="fill-rule:nonzero;"/></g><g><path d="M2790.2,256.308c-0,0 -0.263,1.042 -0.263,1.821c0,1.042 1.042,2.083 2.084,2.083c0.783,0 1.304,-0.779 1.562,-1.041c0.263,-0.779 3.388,-11.459 4.95,-14.063c0.521,-1.041 1.042,-1.3 1.3,-1.3c0.521,0 0.784,1.042 0.784,1.821l-0,37.242c-0,3.125 -2.605,4.946 -5.209,4.946c-1.041,-0 -2.346,0.52 -2.346,2.083c0,1.562 1.305,2.083 3.388,2.083l21.875,0c2.083,0 2.083,-2.083 2.083,-2.083c0,-0 0,-2.083 -2.083,-2.083c-1.825,-0 -4.167,-2.342 -4.167,-4.688l0,-54.167c0,-2.083 -0.783,-3.125 -2.604,-3.125c-1.825,0 -3.387,0.521 -4.95,0.521c-2.604,0 -3.125,0 -5.208,-0.521c-1.042,0 -2.342,1.563 -3.125,2.605l-8.071,27.866" style="fill-rule:nonzero;"/></g><g><path d="M3030.29,271.15c-0,-1.821 -0.784,-2.083 -1.563,-2.083c-1.042,-0 -1.562,0.783 -1.825,1.562c-1.3,3.646 -4.167,8.334 -8.071,8.334c-0.521,-0 -1.041,-0 -1.562,-0.259l-3.909,-1.304c-2.604,-1.042 -8.854,-3.125 -14.062,-3.125c-1.821,0 -3.383,0.263 -4.946,0.783c2.863,-4.95 16.404,-11.458 19.271,-12.241c9.375,-1.3 17.187,-6.771 17.187,-16.925c0,-6.25 -2.604,-10.417 -5.991,-13.542c-6.771,-5.471 -16.667,-6.25 -19.529,-6.25c-9.375,0 -16.93,0.521 -23.7,8.333c-1.821,2.084 -2.605,4.167 -2.605,6.25c0,1.821 0.784,3.905 1.563,6.25c1.562,3.125 4.95,5.467 8.596,5.467c6.508,0 7.291,-6.25 7.291,-9.112c0,-5.992 -6.512,-6.513 -6.512,-9.117c-0,-1.821 2.604,-4.946 10.417,-4.946c12.241,-0 16.408,10.154 16.408,13.279c-0,4.688 -1.563,9.117 -4.167,12.763c-4.687,5.987 -13.283,8.07 -19.791,12.237c-7.292,4.429 -12.242,11.979 -14.584,20.313c0,1.825 0.779,3.908 2.342,4.687c0.262,0.263 0.783,0.263 1.042,0.263c2.866,-0 4.429,-8.075 12.241,-8.075c5.209,-0 7.029,7.033 18.75,7.033c5.467,0 15.625,-0.521 17.709,-20.575" style="fill-rule:nonzero;"/></g><g><path d="M3217.7,268.546l-0,-27.863c-0,-1.304 -0.263,-2.345 -1.563,-2.345c-1.041,-0 -1.825,0.262 -2.604,1.304l-7.812,15.104c-0.521,0.521 -1.304,1.3 -1.304,3.125l-0,10.675l-16.925,-0c10.675,-8.854 27.341,-38.279 27.604,-39.842c-0,-0.262 0.258,-0.521 0.258,-0.783c0,-1.042 -1.042,-1.821 -1.821,-1.821c-1.304,-0 -6.771,0.521 -9.116,0.521c-2.342,-0 -3.905,-0.521 -4.946,-0.521c-1.304,-0 -3.125,0.521 -3.125,2.604c-0,16.667 -13.542,35.675 -16.929,40.363c-0.521,0.52 -1.042,1.304 -1.042,2.083c-0,1.304 1.042,2.604 2.604,2.604l23.438,0l-0,8.075c-0,3.646 -2.084,4.688 -4.167,4.688c-2.342,-0 -3.383,1.041 -3.383,2.341c-0,1.305 0.52,2.867 2.862,2.867l22.396,0c1.304,0 2.604,-1.042 2.604,-2.867c0,-1.82 -1.562,-2.604 -2.862,-2.604c-1.305,0 -4.167,-0.779 -4.167,-4.946l-0,-7.554l9.633,0c1.304,0 2.084,-1.042 2.084,-2.604c-0,-1.563 -0.521,-2.604 -2.084,-2.604l-9.633,-0" style="fill-rule:nonzero;"/></g><g><path d="M3417.05,268.492l-0,-27.867c-0,-1.3 -0.263,-2.342 -1.563,-2.342c-1.041,0 -1.825,0.259 -2.604,1.3l-7.812,15.104c-0.521,0.521 -1.304,1.305 -1.304,3.125l-0,10.68l-16.925,-0c10.675,-8.854 27.341,-38.284 27.604,-39.846c-0,-0.258 0.258,-0.521 0.258,-0.779c0,-1.042 -1.042,-1.825 -1.821,-1.825c-1.304,-0 -6.771,0.52 -9.116,0.52c-2.342,0 -3.905,-0.52 -4.946,-0.52c-1.304,-0 -3.125,0.52 -3.125,2.604c-0,16.666 -13.542,35.679 -16.929,40.367c-0.521,0.52 -1.042,1.299 -1.042,2.083c-0,1.3 1.042,2.604 2.604,2.604l23.438,0l-0,8.071c-0,3.646 -2.084,4.687 -4.167,4.687c-2.342,0 -3.383,1.042 -3.383,2.346c-0,1.3 0.52,2.863 2.862,2.863l22.396,-0c1.304,-0 2.604,-1.042 2.604,-2.863c0,-1.825 -1.562,-2.604 -2.862,-2.604c-1.305,-0 -4.167,-0.783 -4.167,-4.95l-0,-7.55l9.633,-0c1.304,-0 2.084,-1.042 2.084,-2.604c-0,-1.563 -0.521,-2.604 -2.084,-2.604l-9.633,-0" style="fill-rule:nonzero;"/></g><g><path d="M3694.95,223.754c-0,0 -0.258,1.042 -0.258,1.825c-0,1.042 1.041,2.084 2.083,2.084c0.779,-0 1.3,-0.784 1.562,-1.042c0.259,-0.783 3.384,-11.458 4.946,-14.063c0.521,-1.041 1.042,-1.304 1.304,-1.304c0.521,0 0.78,1.042 0.78,1.825l-0,37.238c-0,3.125 -2.605,4.95 -5.209,4.95c-1.041,-0 -2.341,0.521 -2.341,2.083c-0,1.563 1.3,2.083 3.383,2.083l21.875,0c2.083,0 2.083,-2.083 2.083,-2.083c0,0 0,-2.083 -2.083,-2.083c-1.821,-0 -4.167,-2.346 -4.167,-4.688l0,-54.166c0,-2.084 -0.779,-3.125 -2.604,-3.125c-1.821,-0 -3.383,0.52 -4.946,0.52c-2.604,0 -3.125,0 -5.208,-0.52c-1.042,-0 -2.346,1.562 -3.125,2.604l-8.075,27.862" style="fill-rule:nonzero;"/></g><g><path d="M3934.95,205.496c-0,-1.825 -0.779,-2.084 -1.563,-2.084c-1.041,0 -1.562,0.78 -1.82,1.563c-1.305,3.646 -4.167,8.333 -8.075,8.333c-0.521,0 -1.042,0 -1.563,-0.262l-3.904,-1.3c-2.604,-1.042 -8.854,-3.125 -14.063,-3.125c-1.825,-0 -3.387,0.258 -4.95,0.779c2.867,-4.946 16.409,-11.458 19.271,-12.237c9.375,-1.305 17.188,-6.771 17.188,-16.93c-0,-6.25 -2.604,-10.416 -5.988,-13.541c-6.771,-5.467 -16.666,-6.25 -19.533,-6.25c-9.375,-0 -16.925,0.52 -23.696,8.333c-1.825,2.083 -2.604,4.167 -2.604,6.25c-0,1.825 0.779,3.908 1.562,6.25c1.563,3.125 4.946,5.471 8.592,5.471c6.513,-0 7.292,-6.25 7.292,-9.117c-0,-5.987 -6.509,-6.508 -6.509,-9.112c0,-1.825 2.605,-4.95 10.417,-4.95c12.238,-0 16.404,10.158 16.404,13.283c0,4.688 -1.562,9.112 -4.166,12.758c-4.688,5.992 -13.28,8.075 -19.792,12.242c-7.292,4.425 -12.238,11.979 -14.583,20.313c-0,1.82 0.783,3.904 2.345,4.687c0.259,0.258 0.78,0.258 1.042,0.258c2.863,0 4.425,-8.071 12.238,-8.071c5.208,0 7.033,7.03 18.75,7.03c5.47,-0 15.625,-0.521 17.708,-20.571" style="fill-rule:nonzero;"/></g><g><path d="M4124.82,171.617l-0,-27.867c-0,-1.3 -0.263,-2.342 -1.563,-2.342c-1.041,0 -1.825,0.259 -2.604,1.3l-7.812,15.105c-0.521,0.52 -1.304,1.304 -1.304,3.125l-0,10.679l-16.925,-0c10.675,-8.854 27.341,-38.284 27.604,-39.846c-0,-0.258 0.258,-0.521 0.258,-0.779c0,-1.042 -1.042,-1.825 -1.821,-1.825c-1.304,-0 -6.771,0.52 -9.116,0.52c-2.342,0 -3.905,-0.52 -4.946,-0.52c-1.304,-0 -3.125,0.52 -3.125,2.604c-0,16.666 -13.542,35.679 -16.929,40.367c-0.521,0.52 -1.042,1.299 -1.042,2.083c-0,1.3 1.042,2.604 2.604,2.604l23.438,0l-0,8.071c-0,3.646 -2.084,4.687 -4.167,4.687c-2.342,0 -3.383,1.042 -3.383,2.346c-0,1.3 0.52,2.863 2.862,2.863l22.396,-0c1.304,-0 2.604,-1.042 2.604,-2.863c0,-1.825 -1.562,-2.604 -2.862,-2.604c-1.305,0 -4.167,-0.783 -4.167,-4.95l-0,-7.55l9.633,0c1.304,0 2.084,-1.042 2.084,-2.604c-0,-1.563 -0.521,-2.604 -2.084,-2.604l-9.633,-0" style="fill-rule:nonzero;"/></g><g><path d="M4324.11,171.617l-0,-27.867c-0,-1.3 -0.259,-2.342 -1.563,-2.342c-1.042,0 -1.821,0.259 -2.604,1.3l-7.813,15.105c-0.52,0.52 -1.3,1.304 -1.3,3.125l0,10.679l-16.929,-0c10.679,-8.854 27.346,-38.284 27.604,-39.846c0,-0.258 0.263,-0.521 0.263,-0.779c-0,-1.042 -1.042,-1.825 -1.825,-1.825c-1.3,-0 -6.771,0.52 -9.113,0.52c-2.345,0 -3.908,-0.52 -4.95,-0.52c-1.3,-0 -3.125,0.52 -3.125,2.604c0,16.666 -13.541,35.679 -16.925,40.367c-0.52,0.52 -1.041,1.299 -1.041,2.083c-0,1.3 1.041,2.604 2.604,2.604l23.437,0l0,8.071c0,3.646 -2.083,4.687 -4.166,4.687c-2.346,0 -3.388,1.042 -3.388,2.346c0,1.3 0.521,2.863 2.867,2.863l22.396,-0c1.3,-0 2.604,-1.042 2.604,-2.863c-0,-1.825 -1.563,-2.604 -2.867,-2.604c-1.3,0 -4.166,-0.783 -4.166,-4.95l-0,-7.55l9.637,0c1.3,0 2.083,-1.042 2.083,-2.604c0,-1.563 -0.52,-2.604 -2.083,-2.604l-9.637,-0" style="fill-rule:nonzero;"/></g><g><path d="M4503.15,126.879c0,0 -0.262,1.042 -0.262,1.825c-0,1.042 1.041,2.084 2.083,2.084c0.783,-0 1.304,-0.784 1.563,-1.042c0.262,-0.784 3.387,-11.458 4.95,-14.063c0.52,-1.041 1.041,-1.304 1.3,-1.304c0.52,0 0.783,1.042 0.783,1.825l-0,37.238c-0,3.125 -2.604,4.95 -5.208,4.95c-1.042,-0 -2.346,0.521 -2.346,2.083c-0,1.563 1.304,2.083 3.387,2.083l21.875,0c2.084,0 2.084,-2.083 2.084,-2.083c-0,0 -0,-2.083 -2.084,-2.083c-1.825,-0 -4.166,-2.346 -4.166,-4.688l-0,-54.166c-0,-2.084 -0.784,-3.125 -2.605,-3.125c-1.825,-0 -3.387,0.52 -4.95,0.52c-2.604,0 -3.125,0 -5.208,-0.52c-1.042,-0 -2.342,1.562 -3.125,2.604l-8.071,27.862" style="fill-rule:nonzero;"/></g><g><path d="M4743.2,108.621c-0,-1.825 -0.779,-2.083 -1.563,-2.083c-1.041,-0 -1.562,0.779 -1.82,1.562c-1.305,3.646 -4.167,8.333 -8.075,8.333c-0.521,0 -1.042,0 -1.563,-0.262l-3.904,-1.3c-2.604,-1.042 -8.854,-3.125 -14.063,-3.125c-1.825,-0 -3.387,0.258 -4.95,0.779c2.867,-4.946 16.409,-11.458 19.271,-12.237c9.375,-1.305 17.188,-6.771 17.188,-16.93c-0,-6.25 -2.604,-10.416 -5.988,-13.541c-6.771,-5.467 -16.666,-6.25 -19.533,-6.25c-9.375,-0 -16.925,0.52 -23.696,8.333c-1.825,2.083 -2.604,4.167 -2.604,6.25c-0,1.825 0.779,3.908 1.562,6.25c1.563,3.125 4.946,5.471 8.592,5.471c6.513,-0 7.292,-6.25 7.292,-9.117c-0,-5.987 -6.509,-6.508 -6.509,-9.112c0,-1.825 2.605,-4.95 10.417,-4.95c12.238,-0 16.404,10.158 16.404,13.283c0,4.688 -1.562,9.112 -4.166,12.758c-4.688,5.992 -13.28,8.075 -19.792,12.242c-7.292,4.425 -12.238,11.979 -14.583,20.313c-0,1.82 0.783,3.904 2.345,4.687c0.259,0.258 0.78,0.258 1.042,0.258c2.863,0 4.425,-8.071 12.238,-8.071c5.208,0 7.033,7.03 18.75,7.03c5.47,-0 15.625,-0.521 17.708,-20.571" style="fill-rule:nonzero;"/></g><g><path d="M4914.03,32.35c-14.321,0 -20.571,9.633 -20.571,15.104c0,3.646 2.084,8.071 8.592,8.334c4.95,-0 7.292,-3.125 7.292,-6.513l-0,-1.042c-0.259,-3.904 -2.863,-4.166 -3.384,-4.425c-0.52,-0.262 -1.562,-1.304 -1.562,-3.125c0.521,-2.866 4.425,-3.908 5.467,-3.908c13.283,0 17.187,7.033 17.187,11.458c0,12.242 -12.5,13.284 -16.404,13.542c-1.825,0 -3.646,0.783 -3.646,2.346c0,1.562 2.342,1.562 3.383,1.562c15.105,0 17.188,7.813 17.188,11.717c-0,15.104 -12.238,15.625 -15.363,15.625c-1.562,0 -4.166,-0.779 -4.429,-2.083l0,-1.563c0,-2.862 0.784,-5.987 1.042,-8.591c-0,-4.688 -3.125,-7.555 -7.813,-7.555l-1.041,0c-1.821,0.521 -3.646,1.563 -4.946,2.867c-1.825,1.563 -2.346,3.904 -2.346,6.25c0.263,8.333 7.554,15.362 20.575,15.625l1.563,0c12.758,0 26.041,-6.771 26.041,-18.229c0,-2.604 -0.521,-4.688 -1.304,-6.25c-0.521,-1.563 -1.562,-2.867 -2.604,-3.909c-0.779,-1.041 -1.821,-1.82 -2.863,-2.604l-2.866,-1.562l-1.563,-0.521c-0.521,0 -0.779,-0.258 -1.3,-0.258l-1.562,-0.521c-0.784,-0.263 -1.042,-0 -1.304,-0.521c-0.259,-0.263 -0.259,-0.521 -0.259,-0.783c0,-0.521 0.259,-1.042 0.779,-1.042l4.167,-1.3c1.825,-1.042 3.646,-1.825 4.95,-3.646c2.083,-2.083 2.863,-5.471 2.863,-8.333c-0,-12.242 -16.146,-15.625 -21.875,-16.146l-2.084,0" style="fill-rule:nonzero;"/></g><g><path d="M5129.86,42.45l-0,-27.867c-0,-1.3 -0.263,-2.341 -1.563,-2.341c-1.042,-0 -1.825,0.258 -2.604,1.3l-7.813,15.104c-0.52,0.521 -1.304,1.304 -1.304,3.125l0,10.679l-16.925,0c10.675,-8.854 27.342,-38.283 27.604,-39.846c0,-0.258 0.259,-0.521 0.259,-0.779c-0,-1.042 -1.042,-1.825 -1.821,-1.825c-1.304,0 -6.771,0.521 -9.117,0.521c-2.341,-0 -3.904,-0.521 -4.946,-0.521c-1.304,0 -3.125,0.521 -3.125,2.604c0,16.667 -13.541,35.679 -16.929,40.367c-0.521,0.521 -1.041,1.3 -1.041,2.083c-0,1.3 1.041,2.604 2.604,2.604l23.437,0l0,8.071c0,3.646 -2.083,4.688 -4.166,4.688c-2.342,-0 -3.384,1.041 -3.384,2.346c0,1.3 0.521,2.862 2.863,2.862l22.396,0c1.304,0 2.604,-1.042 2.604,-2.862c-0,-1.825 -1.563,-2.605 -2.863,-2.605c-1.304,0 -4.166,-0.783 -4.166,-4.95l-0,-7.55l9.633,0c1.304,0 2.083,-1.041 2.083,-2.604c0,-1.562 -0.521,-2.604 -2.083,-2.604l-9.633,0" style="fill-rule:nonzero;"/></g><g><path d="M5329.2,42.45l-0,-27.867c-0,-1.3 -0.263,-2.341 -1.563,-2.341c-1.041,-0 -1.825,0.258 -2.604,1.3l-7.812,15.104c-0.521,0.521 -1.304,1.304 -1.304,3.125l-0,10.679l-16.925,0c10.675,-8.854 27.341,-38.283 27.604,-39.846c-0,-0.258 0.258,-0.521 0.258,-0.779c0,-1.042 -1.042,-1.825 -1.821,-1.825c-1.304,0 -6.771,0.521 -9.116,0.521c-2.342,-0 -3.905,-0.521 -4.946,-0.521c-1.304,0 -3.125,0.521 -3.125,2.604c-0,16.667 -13.542,35.679 -16.929,40.367c-0.521,0.521 -1.042,1.3 -1.042,2.083c-0,1.3 1.042,2.604 2.604,2.604l23.438,0l-0,8.071c-0,3.646 -2.084,4.688 -4.167,4.688c-2.342,-0 -3.383,1.041 -3.383,2.346c-0,1.3 0.52,2.862 2.862,2.862l22.396,0c1.304,0 2.604,-1.042 2.604,-2.862c0,-1.825 -1.562,-2.605 -2.862,-2.605c-1.305,0 -4.167,-0.783 -4.167,-4.95l-0,-7.55l9.633,0c1.304,0 2.084,-1.041 2.084,-2.604c-0,-1.562 -0.521,-2.604 -2.084,-2.604l-9.633,0" style="fill-rule:nonzero;"/></g><g><path d="M5511.99,32.35c-14.325,0 -20.575,9.633 -20.575,15.104c-0,3.646 2.083,8.071 8.595,8.334c4.946,-0 7.292,-3.125 7.292,-6.513l0,-1.042c-0.262,-3.904 -2.867,-4.166 -3.387,-4.425c-0.521,-0.262 -1.563,-1.304 -1.563,-3.125c0.521,-2.866 4.429,-3.908 5.471,-3.908c13.279,0 17.187,7.033 17.187,11.458c0,12.242 -12.5,13.284 -16.408,13.542c-1.821,0 -3.646,0.783 -3.646,2.346c0,1.562 2.346,1.562 3.388,1.562c15.104,0 17.187,7.813 17.187,11.717c0,15.104 -12.241,15.625 -15.366,15.625c-1.563,0 -4.167,-0.779 -4.425,-2.083l-0,-1.563c-0,-2.862 0.779,-5.987 1.041,-8.591c0,-4.688 -3.125,-7.555 -7.812,-7.555l-1.042,0c-1.825,0.521 -3.646,1.563 -4.95,2.867c-1.821,1.563 -2.342,3.904 -2.342,6.25c0.259,8.333 7.55,15.362 20.571,15.625l1.563,0c12.762,0 26.041,-6.771 26.041,-18.229c0,-2.604 -0.52,-4.688 -1.3,-6.25c-0.52,-1.563 -1.562,-2.867 -2.604,-3.909c-0.783,-1.041 -1.825,-1.82 -2.866,-2.604l-2.863,-1.562l-1.562,-0.521c-0.521,0 -0.784,-0.258 -1.305,-0.258l-1.562,-0.521c-0.779,-0.263 -1.042,-0 -1.3,-0.521c-0.263,-0.263 -0.263,-0.521 -0.263,-0.783c0,-0.521 0.263,-1.042 0.784,-1.042l4.166,-1.3c1.821,-1.042 3.646,-1.825 4.946,-3.646c2.084,-2.083 2.867,-5.471 2.867,-8.333c-0,-12.242 -16.146,-15.625 -21.875,-16.146l-2.083,0" style="fill-rule:nonzero;"/></g><g><path d="M5699.07,94.588c-0,-0.001 -0.263,1.041 -0.263,1.825c0,1.041 1.042,2.083 2.084,2.083c0.783,-0 1.304,-0.784 1.562,-1.042c0.263,-0.783 3.388,-11.458 4.95,-14.062c0.521,-1.042 1.042,-1.305 1.3,-1.305c0.521,0.001 0.784,1.042 0.784,1.826l-0,37.237c-0,3.125 -2.605,4.95 -5.209,4.95c-1.041,0 -2.346,0.521 -2.346,2.083c0,1.563 1.305,2.084 3.388,2.084l21.875,-0c2.083,-0 2.083,-2.084 2.083,-2.084c0,0 0,-2.083 -2.083,-2.083c-1.825,0 -4.167,-2.346 -4.167,-4.688l0,-54.166c0,-2.083 -0.783,-3.125 -2.604,-3.125c-1.825,-0 -3.387,0.521 -4.95,0.521c-2.604,-0 -3.125,-0 -5.208,-0.521c-1.042,-0 -2.342,1.562 -3.125,2.604l-8.071,27.862" style="fill-rule:nonzero;"/></g><g><path d="M5898.36,126.879c-0,0 -0.263,1.042 -0.263,1.825c0,1.042 1.042,2.084 2.083,2.084c0.784,-0 1.305,-0.784 1.563,-1.042c0.262,-0.784 3.387,-11.458 4.95,-14.063c0.521,-1.041 1.042,-1.304 1.3,-1.304c0.521,0 0.783,1.042 0.783,1.825l0,37.238c0,3.125 -2.604,4.95 -5.208,4.95c-1.042,-0 -2.346,0.521 -2.346,2.083c0,1.563 1.304,2.083 3.388,2.083l21.875,0c2.083,0 2.083,-2.083 2.083,-2.083c-0,0 -0,-2.083 -2.083,-2.083c-1.825,-0 -4.167,-2.346 -4.167,-4.688l-0,-54.166c-0,-2.084 -0.783,-3.125 -2.604,-3.125c-1.825,-0 -3.388,0.52 -4.95,0.52c-2.604,0 -3.125,0 -5.209,-0.52c-1.041,-0 -2.341,1.562 -3.125,2.604l-8.07,27.862" style="fill-rule:nonzero;"/></g><g><path d="M6126.49,171.617l-0,-27.867c-0,-1.3 -0.263,-2.342 -1.563,-2.342c-1.042,0 -1.825,0.259 -2.604,1.3l-7.813,15.105c-0.52,0.52 -1.304,1.304 -1.304,3.125l0,10.679l-16.925,-0c10.675,-8.854 27.342,-38.284 27.604,-39.846c0,-0.258 0.259,-0.521 0.259,-0.779c-0,-1.042 -1.042,-1.825 -1.821,-1.825c-1.304,-0 -6.771,0.52 -9.117,0.52c-2.341,0 -3.904,-0.52 -4.946,-0.52c-1.304,-0 -3.125,0.52 -3.125,2.604c0,16.666 -13.541,35.679 -16.929,40.367c-0.521,0.52 -1.041,1.299 -1.041,2.083c-0,1.3 1.041,2.604 2.604,2.604l23.437,0l0,8.071c0,3.646 -2.083,4.687 -4.166,4.687c-2.342,0 -3.384,1.042 -3.384,2.346c0,1.3 0.521,2.863 2.863,2.863l22.396,-0c1.304,-0 2.604,-1.042 2.604,-2.863c-0,-1.825 -1.563,-2.604 -2.863,-2.604c-1.304,0 -4.166,-0.783 -4.166,-4.95l-0,-7.55l9.633,0c1.304,0 2.083,-1.042 2.083,-2.604c0,-1.563 -0.521,-2.604 -2.083,-2.604l-9.633,-0" style="fill-rule:nonzero;"/></g><g><path d="M6311.74,129.225c-14.321,0 -20.571,9.633 -20.571,15.104c-0,3.646 2.083,8.071 8.591,8.334c4.95,-0 7.292,-3.125 7.292,-6.513l0,-1.042c-0.258,-3.904 -2.862,-4.166 -3.383,-4.425c-0.521,-0.262 -1.563,-1.304 -1.563,-3.125c0.521,-2.866 4.425,-3.908 5.467,-3.908c13.283,0 17.187,7.033 17.187,11.458c0,12.242 -12.5,13.284 -16.404,13.542c-1.825,0 -3.646,0.783 -3.646,2.346c0,1.562 2.342,1.562 3.384,1.562c15.104,0 17.187,7.813 17.187,11.717c0,15.104 -12.237,15.625 -15.362,15.625c-1.563,-0 -4.167,-0.779 -4.429,-2.083l-0,-1.563c-0,-2.862 0.783,-5.987 1.041,-8.592c0,-4.687 -3.125,-7.554 -7.812,-7.554l-1.042,0c-1.821,0.521 -3.646,1.563 -4.946,2.867c-1.825,1.563 -2.346,3.904 -2.346,6.25c0.263,8.333 7.555,15.362 20.575,15.625l1.563,-0c12.758,-0 26.042,-6.771 26.042,-18.229c-0,-2.604 -0.521,-4.688 -1.305,-6.25c-0.52,-1.563 -1.562,-2.867 -2.604,-3.909c-0.779,-1.041 -1.821,-1.82 -2.862,-2.604l-2.867,-1.562l-1.562,-0.521c-0.521,-0 -0.78,-0.258 -1.3,-0.258l-1.563,-0.521c-0.783,-0.263 -1.042,-0 -1.304,-0.521c-0.258,-0.263 -0.258,-0.521 -0.258,-0.783c-0,-0.521 0.258,-1.042 0.779,-1.042l4.166,-1.3c1.825,-1.042 3.646,-1.825 4.95,-3.646c2.084,-2.083 2.863,-5.471 2.863,-8.333c-0,-12.242 -16.146,-15.625 -21.875,-16.146l-2.083,-0" style="fill-rule:nonzero;"/></g><g><path d="M6498.78,191.463c0,-0 -0.262,1.041 -0.262,1.825c-0,1.041 1.041,2.083 2.083,2.083c0.783,-0 1.304,-0.783 1.563,-1.042c0.262,-0.783 3.387,-11.458 4.95,-14.062c0.52,-1.042 1.041,-1.304 1.3,-1.304c0.52,-0 0.783,1.041 0.783,1.825l-0,37.237c-0,3.125 -2.604,4.95 -5.208,4.95c-1.042,0 -2.346,0.521 -2.346,2.083c-0,1.563 1.304,2.084 3.387,2.084l21.875,-0c2.084,-0 2.084,-2.084 2.084,-2.084c-0,0 -0,-2.083 -2.084,-2.083c-1.825,0 -4.166,-2.346 -4.166,-4.687l-0,-54.167c-0,-2.083 -0.784,-3.125 -2.605,-3.125c-1.825,-0 -3.387,0.521 -4.95,0.521c-2.604,-0 -3.125,-0 -5.208,-0.521c-1.042,-0 -2.342,1.562 -3.125,2.604l-8.071,27.863" style="fill-rule:nonzero;"/></g><g><path d="M6698.15,223.754c0,0 -0.262,1.042 -0.262,1.825c-0,1.042 1.041,2.084 2.083,2.084c0.783,-0 1.304,-0.784 1.563,-1.042c0.262,-0.783 3.387,-11.458 4.95,-14.063c0.52,-1.041 1.041,-1.304 1.3,-1.304c0.52,0 0.783,1.042 0.783,1.825l-0,37.238c-0,3.125 -2.604,4.95 -5.208,4.95c-1.042,-0 -2.346,0.521 -2.346,2.083c-0,1.563 1.304,2.083 3.387,2.083l21.875,0c2.084,0 2.084,-2.083 2.084,-2.083c-0,0 -0,-2.083 -2.084,-2.083c-1.825,-0 -4.166,-2.346 -4.166,-4.688l-0,-54.166c-0,-2.084 -0.784,-3.125 -2.605,-3.125c-1.825,-0 -3.387,0.52 -4.95,0.52c-2.604,0 -3.125,0 -5.208,-0.52c-1.042,-0 -2.342,1.562 -3.125,2.604l-8.071,27.862" style="fill-rule:nonzero;"/></g><g><path d="M386.893,808.913c23.175,-0 51.562,-21.355 51.562,-43.492c0,-13.279 -10.416,-21.613 -25.262,-21.613c-28.646,0 -51.563,21.092 -51.563,43.488c0,13.541 11.2,21.616 25.263,21.616" style="fill-rule:nonzero;"/></g><g><path d="M500.726,765.163c0,-0 -0.783,-15.625 -0.783,-26.042c-0,-4.167 0.262,-7.292 0.521,-8.333c1.825,-5.209 12.241,-12.763 18.229,-12.763c7.554,0 10.679,8.596 10.679,15.104c-0,14.063 -11.979,28.125 -23.179,35.159c-1.042,0.52 -1.821,0.779 -2.604,0.779c-2.342,-0 -2.863,-2.605 -2.863,-3.904m-9.117,23.174c0.784,1.042 1.563,1.305 2.346,1.305c0.779,-0 1.563,-0.521 1.563,-0.521c7.812,-4.429 14.062,-11.458 20.571,-15.888c23.179,-16.145 31.25,-32.029 31.25,-44.008c-0,-14.846 -11.459,-24.221 -23.438,-25c-4.425,0 -10.675,2.083 -14.321,4.425c-1.562,1.304 -4.429,3.646 -5.729,3.646c-0.521,-0 -0.783,-0 -1.304,-0.258c-1.821,-0.784 -2.863,-2.605 -2.863,-4.43c0.259,-5.729 1.821,-68.229 1.821,-73.437c0,-2.863 -2.341,-4.425 -4.946,-4.425c-3.645,-0 -7.812,2.604 -8.075,7.292c0,-0 1.042,148.695 3.125,151.299" style="fill-rule:nonzero;"/></g><g><path d="M588.689,776.621c23.175,-0 51.562,-21.354 51.562,-43.492c0,-13.279 -10.417,-21.612 -25.262,-21.612c-28.646,-0 -51.563,21.091 -51.563,43.487c0,13.542 11.2,21.617 25.263,21.617" style="fill-rule:nonzero;"/></g><g><path d="M702.522,732.871c-0,-0 -0.779,-15.625 -0.779,-26.042c-0,-4.166 0.258,-7.291 0.521,-8.333c1.82,-5.208 12.237,-12.763 18.229,-12.763c7.55,0 10.675,8.596 10.675,15.105c-0,14.062 -11.979,28.125 -23.175,35.158c-1.042,0.521 -1.825,0.779 -2.604,0.779c-2.346,0 -2.867,-2.604 -2.867,-3.904m-9.113,23.175c0.78,1.042 1.563,1.304 2.342,1.304c0.783,0 1.563,-0.521 1.563,-0.521c7.812,-4.429 14.062,-11.458 20.575,-15.887c23.175,-16.146 31.25,-32.029 31.25,-44.009c-0,-14.846 -11.459,-24.221 -23.438,-25c-4.429,0 -10.679,2.084 -14.325,4.425c-1.562,1.305 -4.425,3.646 -5.729,3.646c-0.521,0 -0.779,0 -1.3,-0.258c-1.825,-0.783 -2.867,-2.604 -2.867,-4.429c0.263,-5.729 1.825,-68.229 1.825,-73.438c0,-2.862 -2.346,-4.425 -4.95,-4.425c-3.646,0 -7.812,2.604 -8.071,7.292c0,-0 1.042,148.696 3.125,151.3" style="fill-rule:nonzero;"/></g><g><path d="M790.484,744.329c23.175,0 51.563,-21.354 51.563,-43.492c-0,-13.279 -10.417,-21.612 -25.263,-21.612c-28.645,-0 -51.562,21.092 -51.562,43.487c-0,13.542 11.2,21.617 25.262,21.617" style="fill-rule:nonzero;"/></g><g><path d="M914.297,701.621c-0,-3.646 15.887,-10.417 22.137,-10.417c1.563,0 2.342,0.259 2.342,1.3l0,26.825c0,4.688 -14.842,10.675 -21.354,10.675c-1.821,0 -3.125,-0.521 -3.125,-1.562l-0,-26.821m27.083,-36.979c-0.521,-0 -0.779,0.258 -1.041,0.258c-0,0 -16.667,5.992 -23.438,5.992c-1.562,-0 -2.604,-0.263 -2.604,-1.304l-0,-43.488c-0,-1.825 -1.563,-3.125 -3.125,-3.125l-3.383,0c-1.825,0 -3.125,1.3 -3.125,3.125l-0,134.112c-0,1.563 0.779,2.346 2.083,2.346c0.258,0 1.562,-0.262 1.821,-0.52c3.646,-1.563 18.229,-7.813 25.783,-7.813c2.604,0 4.425,0.779 4.425,2.862l0,38.805c0,1.821 1.304,3.125 3.125,3.125l3.388,-0c1.562,-0 3.125,-1.304 3.125,-3.125l-0,-130.73c-0,-1.304 -1.042,-2.083 -2.084,-2.083c-0.262,0 -0.783,0 -1.041,0.259l-3.909,1.304" style="fill-rule:nonzero;"/></g><g><path d="M989.818,744.329c23.179,0 51.562,-21.354 51.562,-43.492c0,-13.279 -10.416,-21.612 -25.258,-21.612c-28.646,-0 -51.563,21.092 -51.563,43.487c0,13.542 11.196,21.617 25.259,21.617" style="fill-rule:nonzero;"/></g><g><path d="M1135.16,691.204c-1.562,5.208 -13.804,10.417 -19.791,10.417c-1.563,-0 -2.867,-0.521 -3.125,-1.304c-0.521,-1.042 -0.784,-6.771 -0.784,-13.021c0,-8.071 0.263,-17.188 0.784,-19.271c0.521,-4.425 12.5,-9.896 19.008,-9.896c1.825,0 3.388,0.521 3.908,1.563c0.521,1.304 1.042,7.812 1.042,14.845c0,7.03 -0.521,14.321 -1.042,16.667m17.967,-42.45c1.825,-0.779 3.125,-2.862 3.125,-4.425l0,-18.492c0,-1.3 -0.779,-2.083 -1.821,-2.083c-0.521,0 -0.783,0 -1.304,0.263c0,-0 -5.208,2.083 -6.508,2.341c-1.825,0 -3.646,-1.3 -3.646,-3.383l-0,-31.771c-0,-1.562 -1.563,-2.867 -3.646,-2.867c-2.604,0 -4.167,1.305 -4.167,2.867l0,33.854c-0.262,2.604 -1.041,5.988 -3.387,7.55c-3.125,1.825 -11.979,5.471 -16.404,6.513c-2.346,-0 -3.125,-3.125 -3.125,-5.209l-0,-31.25c-0,-1.562 -1.825,-2.866 -3.646,-2.866c-2.604,-0 -4.167,1.304 -4.167,2.866l0,35.155c0,3.645 -1.562,6.25 -3.125,7.033c-1.562,0.779 -6.771,2.862 -6.771,2.862c-1.825,0.521 -3.125,2.605 -3.125,4.167l0,18.492c0,1.562 0.78,2.341 2.084,2.341c1.041,0 5.987,-2.341 6.771,-2.862c0.258,-0 0.52,-0.263 0.779,-0.263c1.825,0 3.387,2.605 3.387,4.688l0,25.783c0,2.863 -1.304,5.209 -2.866,5.988c-1.563,0.521 -7.03,2.866 -7.03,2.866c-1.825,0.521 -3.125,2.605 -3.125,4.167l0,18.488c0,1.562 0.78,2.345 2.084,2.345c0.258,0 0.779,-0.262 1.041,-0.262c0,-0 3.646,-1.563 5.988,-2.342c0.262,-0.262 0.521,-0.262 0.783,-0.262c1.821,-0 3.125,2.866 3.125,4.166l0,32.034c0,1.562 1.563,2.862 3.384,2.862c2.604,0 4.429,-1.3 4.429,-2.862l-0,-36.2c-0,-3.384 1.3,-5.209 2.604,-5.729l15.883,-6.509c0.263,0 0.784,-0.262 1.042,-0.262c2.083,-0 3.387,3.125 3.387,4.687l0,32.554c0,1.563 1.563,2.863 3.384,2.863c2.866,-0 4.429,-1.3 4.429,-2.863l-0,-36.979c-0,-2.083 1.042,-5.208 2.862,-5.991c1.825,-0.78 7.292,-2.863 7.292,-2.863c1.825,-0.783 3.125,-2.867 3.125,-4.429l0,-18.488c0,-1.304 -0.779,-2.083 -1.821,-2.083c-0.521,0 -0.783,0 -1.304,0.258l-6.771,2.605c-1.562,-0 -3.383,-1.563 -3.383,-4.688l-0,-24.217c-0,-1.825 1.3,-6.77 3.383,-7.554l6.771,-2.604" style="fill-rule:nonzero;"/></g><g><path d="M1197.62,712.038c23.179,-0 51.562,-21.355 51.562,-43.492c0,-13.279 -10.416,-21.613 -25.258,-21.613c-28.646,0 -51.563,21.092 -51.563,43.488c0,13.541 11.196,21.616 25.259,21.616" style="fill-rule:nonzero;"/></g><g><path d="M1396.97,679.746c23.179,-0 51.562,-21.354 51.562,-43.492c0,-13.279 -10.416,-21.612 -25.258,-21.612c-28.646,-0 -51.563,21.091 -51.563,43.487c0,13.542 11.196,21.617 25.259,21.617" style="fill-rule:nonzero;"/></g><g><path d="M1596.33,647.454c23.175,0 51.563,-21.354 51.563,-43.492c-0,-13.279 -10.417,-21.612 -25.263,-21.612c-28.646,-0 -51.562,21.092 -51.562,43.487c-0,13.542 11.2,21.617 25.262,21.617" style="fill-rule:nonzero;"/></g><g><path d="M1795.68,615.162c23.175,0 51.563,-21.354 51.563,-43.491c-0,-13.279 -10.417,-21.613 -25.263,-21.613c-28.646,0 -51.562,21.092 -51.562,43.488c-0,13.541 11.2,21.616 25.262,21.616" style="fill-rule:nonzero;"/></g><g><path d="M1995.04,582.871c23.179,-0 51.562,-21.354 51.562,-43.492c0,-13.279 -10.417,-21.612 -25.258,-21.612c-28.646,-0 -51.563,21.091 -51.563,43.487c0,13.542 11.196,21.617 25.259,21.617" style="fill-rule:nonzero;"/></g><g><path d="M2106.33,539.121c0,-0 -0.783,-15.625 -0.783,-26.042c-0,-4.167 0.262,-7.292 0.521,-8.333c1.825,-5.209 12.241,-12.763 18.229,-12.763c7.554,0 10.679,8.596 10.679,15.105c0,14.062 -11.979,28.125 -23.179,35.158c-1.042,0.521 -1.821,0.779 -2.604,0.779c-2.342,0 -2.863,-2.604 -2.863,-3.904m-9.116,23.175c0.783,1.042 1.562,1.304 2.345,1.304c0.78,0 1.563,-0.521 1.563,-0.521c7.812,-4.429 14.062,-11.458 20.571,-15.887c23.179,-16.146 31.25,-32.03 31.25,-44.009c-0,-14.846 -11.459,-24.221 -23.438,-25c-4.425,0 -10.675,2.084 -14.321,4.425c-1.562,1.304 -4.429,3.646 -5.729,3.646c-0.521,0 -0.783,0 -1.304,-0.258c-1.821,-0.784 -2.862,-2.604 -2.862,-4.429c0.258,-5.73 1.82,-68.23 1.82,-73.438c0,-2.862 -2.341,-4.425 -4.945,-4.425c-3.646,0 -7.813,2.604 -8.075,7.292c-0,-0 1.041,148.696 3.125,151.3" style="fill-rule:nonzero;"/></g><g><path d="M2194.3,550.579c23.179,0 51.562,-21.354 51.562,-43.492c0,-13.279 -10.416,-21.612 -25.258,-21.612c-28.646,-0 -51.562,21.092 -51.562,43.487c-0,13.542 11.195,21.617 25.258,21.617" style="fill-rule:nonzero;"/></g><g><path d="M2305.6,506.829c0,0 -0.783,-15.625 -0.783,-26.042c-0,-4.166 0.262,-7.291 0.521,-8.333c1.825,-5.208 12.241,-12.762 18.229,-12.762c7.554,-0 10.679,8.595 10.679,15.104c-0,14.062 -11.979,28.125 -23.179,35.158c-1.042,0.521 -1.821,0.779 -2.604,0.779c-2.342,0 -2.863,-2.604 -2.863,-3.904m-9.117,23.175c0.784,1.042 1.563,1.304 2.346,1.304c0.779,0 1.563,-0.521 1.563,-0.521c7.812,-4.429 14.062,-11.458 20.571,-15.887c23.179,-16.146 31.25,-32.029 31.25,-44.008c-0,-14.846 -11.459,-24.221 -23.438,-25c-4.425,-0 -10.675,2.083 -14.321,4.425c-1.562,1.304 -4.429,3.645 -5.729,3.645c-0.521,0 -0.783,0 -1.304,-0.258c-1.821,-0.783 -2.863,-2.604 -2.863,-4.429c0.259,-5.729 1.821,-68.229 1.821,-73.438c0,-2.862 -2.341,-4.425 -4.946,-4.425c-3.645,0 -7.812,2.605 -8.075,7.292c0,0 1.042,148.696 3.125,151.3" style="fill-rule:nonzero;"/></g><g><path d="M2393.55,518.287c23.179,0 51.563,-21.354 51.563,-43.491c-0,-13.279 -10.417,-21.613 -25.259,-21.613c-28.645,0 -51.562,21.092 -51.562,43.488c-0,13.541 11.196,21.616 25.258,21.616" style="fill-rule:nonzero;"/></g><g><path d="M2517.3,475.579c0,-3.646 15.888,-10.417 22.138,-10.417c1.562,0 2.341,0.259 2.341,1.3l0,26.825c0,4.688 -14.841,10.675 -21.354,10.675c-1.821,0 -3.125,-0.52 -3.125,-1.562l0,-26.821m27.084,-36.979c-0.521,0 -0.78,0.258 -1.042,0.258c-0,0 -16.667,5.992 -23.438,5.992c-1.562,-0 -2.604,-0.263 -2.604,-1.304l0,-43.488c0,-1.825 -1.562,-3.125 -3.125,-3.125l-3.383,0c-1.825,0 -3.125,1.3 -3.125,3.125l-0,134.113c-0,1.562 0.779,2.346 2.083,2.346c0.259,-0 1.563,-0.263 1.821,-0.521c3.646,-1.563 18.229,-7.813 25.783,-7.813c2.605,0 4.425,0.779 4.425,2.863l0,38.804c0,1.821 1.305,3.125 3.125,3.125l3.388,-0c1.562,-0 3.125,-1.304 3.125,-3.125l-0,-130.729c-0,-1.304 -1.042,-2.084 -2.083,-2.084c-0.263,0 -0.784,0 -1.042,0.259l-3.908,1.304" style="fill-rule:nonzero;"/></g><g><path d="M2592.83,518.287c23.179,0 51.563,-21.354 51.563,-43.491c-0,-13.279 -10.417,-21.613 -25.259,-21.613c-28.646,0 -51.562,21.092 -51.562,43.488c-0,13.541 11.196,21.616 25.258,21.616" style="fill-rule:nonzero;"/></g><g><path d="M2729.52,465.162c-1.563,5.209 -13.8,10.417 -19.792,10.417c-1.562,0 -2.862,-0.521 -3.125,-1.304c-0.521,-1.042 -0.779,-6.771 -0.779,-13.021c-0,-8.071 0.258,-17.187 0.779,-19.271c0.521,-4.425 12.5,-9.896 19.013,-9.896c1.82,0 3.383,0.521 3.904,1.563c0.521,1.304 1.041,7.813 1.041,14.846c0,7.029 -0.52,14.321 -1.041,16.667m17.971,-42.45c1.82,-0.78 3.125,-2.863 3.125,-4.425l-0,-18.492c-0,-1.3 -0.784,-2.083 -1.825,-2.083c-0.521,-0 -0.78,-0 -1.3,0.262c-0,0 -5.209,2.083 -6.513,2.342c-1.821,-0 -3.646,-1.3 -3.646,-3.384l0,-31.77c0,-1.563 -1.562,-2.867 -3.646,-2.867c-2.604,-0 -4.166,1.304 -4.166,2.867l-0,33.854c-0.259,2.604 -1.042,5.987 -3.384,7.55c-3.125,1.825 -11.979,5.471 -16.408,6.512c-2.342,0 -3.125,-3.125 -3.125,-5.208l0,-31.25c0,-1.563 -1.821,-2.867 -3.646,-2.867c-2.604,0 -4.166,1.304 -4.166,2.867l-0,35.154c-0,3.646 -1.563,6.25 -3.125,7.033c-1.563,0.78 -6.771,2.863 -6.771,2.863c-1.821,0.521 -3.125,2.604 -3.125,4.167l-0,18.491c-0,1.563 0.783,2.342 2.083,2.342c1.042,-0 5.992,-2.342 6.771,-2.863c0.262,0 0.521,-0.262 0.783,-0.262c1.821,-0 3.384,2.604 3.384,4.687l-0,25.784c-0,2.862 -1.3,5.208 -2.863,5.987c-1.562,0.521 -7.033,2.867 -7.033,2.867c-1.821,0.521 -3.125,2.604 -3.125,4.167l-0,18.487c-0,1.563 0.783,2.346 2.083,2.346c0.263,-0 0.783,-0.263 1.042,-0.263c-0,0 3.646,-1.562 5.991,-2.341c0.259,-0.263 0.521,-0.263 0.78,-0.263c1.825,0 3.125,2.867 3.125,4.167l-0,32.033c-0,1.563 1.562,2.863 3.387,2.863c2.604,-0 4.425,-1.3 4.425,-2.863l0,-36.2c0,-3.383 1.304,-5.208 2.604,-5.729l15.888,-6.508c0.258,-0 0.779,-0.263 1.041,-0.263c2.084,0 3.384,3.125 3.384,4.688l-0,32.554c-0,1.562 1.562,2.862 3.387,2.862c2.863,0 4.425,-1.3 4.425,-2.862l0,-36.979c0,-2.084 1.042,-5.209 2.867,-5.992c1.821,-0.779 7.292,-2.862 7.292,-2.862c1.82,-0.784 3.125,-2.867 3.125,-4.43l-0,-18.487c-0,-1.304 -0.784,-2.083 -1.825,-2.083c-0.521,-0 -0.78,-0 -1.3,0.258l-6.771,2.604c-1.563,0 -3.388,-1.562 -3.388,-4.687l0,-24.217c0,-1.825 1.304,-6.771 3.388,-7.554l6.771,-2.604" style="fill-rule:nonzero;"/></g><g><path d="M2791.98,485.996c23.175,-0 51.563,-21.354 51.563,-43.492c-0,-13.279 -10.417,-21.612 -25.263,-21.612c-28.646,-0 -51.562,21.091 -51.562,43.487c-0,13.542 11.2,21.617 25.262,21.617" style="fill-rule:nonzero;"/></g><g><path d="M2991.34,453.704c23.175,0 51.562,-21.354 51.562,-43.492c0,-13.279 -10.416,-21.612 -25.262,-21.612c-28.646,0 -51.563,21.092 -51.563,43.488c0,13.541 11.2,21.616 25.263,21.616" style="fill-rule:nonzero;"/></g><g><path d="M3190.69,421.413c23.175,-0 51.562,-21.355 51.562,-43.492c0,-13.279 -10.416,-21.613 -25.262,-21.613c-28.646,0 -51.563,21.092 -51.563,43.488c0,13.541 11.2,21.617 25.263,21.617" style="fill-rule:nonzero;"/></g><g><path d="M3390.04,389.121c23.179,-0 51.562,-21.354 51.562,-43.492c0,-13.279 -10.417,-21.612 -25.258,-21.612c-28.646,-0 -51.563,21.091 -51.563,43.487c0,13.542 11.196,21.617 25.259,21.617" style="fill-rule:nonzero;"/></g><g><path d="M3696.74,356.829c23.175,0 51.562,-21.354 51.562,-43.492c0,-13.279 -10.417,-21.612 -25.262,-21.612c-28.646,0 -51.563,21.092 -51.563,43.488c0,13.541 11.2,21.616 25.263,21.616" style="fill-rule:nonzero;"/></g><g><path d="M3808.03,313.079c0,0 -0.779,-15.625 -0.779,-26.041c0,-4.167 0.258,-7.292 0.521,-8.334c1.821,-5.208 12.237,-12.762 18.229,-12.762c7.55,-0 10.675,8.596 10.675,15.104c0,14.062 -11.979,28.125 -23.175,35.158c-1.042,0.521 -1.825,0.779 -2.604,0.779c-2.346,0 -2.867,-2.604 -2.867,-3.904m-9.112,23.175c0.779,1.042 1.562,1.304 2.341,1.304c0.784,0 1.563,-0.52 1.563,-0.52c7.812,-4.43 14.062,-11.459 20.575,-15.888c23.175,-16.146 31.25,-32.029 31.25,-44.008c-0,-14.846 -11.458,-24.221 -23.438,-25c-4.429,-0 -10.679,2.083 -14.325,4.425c-1.562,1.304 -4.425,3.645 -5.729,3.645c-0.521,0 -0.779,0 -1.3,-0.258c-1.825,-0.783 -2.866,-2.604 -2.866,-4.429c0.262,-5.729 1.825,-68.229 1.825,-73.438c-0,-2.862 -2.346,-4.425 -4.95,-4.425c-3.646,0 -7.813,2.605 -8.071,7.292c-0,0 1.041,148.696 3.125,151.3" style="fill-rule:nonzero;"/></g><g><path d="M3895.99,324.538c23.175,-0 51.558,-21.355 51.558,-43.492c-0,-13.279 -10.417,-21.613 -25.258,-21.613c-28.646,0 -51.563,21.092 -51.563,43.488c0,13.541 11.2,21.617 25.263,21.617" style="fill-rule:nonzero;"/></g><g><path d="M4009.82,280.788c-0,-0 -0.779,-15.625 -0.779,-26.042c-0,-4.167 0.258,-7.292 0.521,-8.333c1.82,-5.209 12.237,-12.763 18.229,-12.763c7.55,0 10.675,8.596 10.675,15.104c-0,14.063 -11.979,28.125 -23.175,35.159c-1.042,0.52 -1.825,0.779 -2.604,0.779c-2.346,-0 -2.867,-2.605 -2.867,-3.904m-9.113,23.174c0.78,1.042 1.563,1.305 2.342,1.305c0.783,-0 1.563,-0.521 1.563,-0.521c7.812,-4.429 14.062,-11.458 20.575,-15.888c23.175,-16.146 31.25,-32.029 31.25,-44.008c-0,-14.846 -11.459,-24.221 -23.438,-25c-4.429,0 -10.679,2.083 -14.325,4.425c-1.562,1.304 -4.425,3.646 -5.729,3.646c-0.521,-0 -0.779,-0 -1.3,-0.258c-1.825,-0.784 -2.867,-2.605 -2.867,-4.43c0.263,-5.729 1.825,-68.229 1.825,-73.437c0,-2.863 -2.346,-4.425 -4.95,-4.425c-3.646,-0 -7.812,2.604 -8.071,7.292c0,-0 1.042,148.695 3.125,151.3" style="fill-rule:nonzero;"/></g><g><path d="M4097.82,292.246c23.175,-0 51.562,-21.354 51.562,-43.492c0,-13.279 -10.416,-21.612 -25.262,-21.612c-28.646,-0 -51.563,21.091 -51.563,43.487c0,13.542 11.2,21.617 25.263,21.617" style="fill-rule:nonzero;"/></g><g><path d="M4221.61,249.538c-0,-3.646 15.887,-10.417 22.137,-10.417c1.563,-0 2.342,0.258 2.342,1.3l-0,26.825c-0,4.687 -14.842,10.675 -21.354,10.675c-1.821,-0 -3.125,-0.521 -3.125,-1.563l-0,-26.821m27.083,-36.979c-0.521,0 -0.779,0.259 -1.042,0.259c0,-0 -16.666,5.991 -23.437,5.991c-1.563,0 -2.604,-0.262 -2.604,-1.304l-0,-43.487c-0,-1.825 -1.563,-3.125 -3.125,-3.125l-3.384,-0c-1.825,-0 -3.125,1.3 -3.125,3.125l0,134.112c0,1.563 0.779,2.346 2.084,2.346c0.258,0 1.562,-0.263 1.82,-0.521c3.646,-1.562 18.23,-7.812 25.784,-7.812c2.604,-0 4.425,0.779 4.425,2.862l-0,38.804c-0,1.821 1.304,3.125 3.125,3.125l3.387,0c1.563,0 3.125,-1.304 3.125,-3.125l0,-130.729c0,-1.304 -1.041,-2.083 -2.083,-2.083c-0.263,-0 -0.783,-0 -1.042,0.258l-3.908,1.304" style="fill-rule:nonzero;"/></g><g><path d="M4297.11,292.246c23.179,-0 51.562,-21.354 51.562,-43.492c0,-13.279 -10.417,-21.612 -25.258,-21.612c-28.646,-0 -51.563,21.091 -51.563,43.487c0,13.542 11.196,21.617 25.259,21.617" style="fill-rule:nonzero;"/></g><g><path d="M4442.49,239.121c-1.563,5.208 -13.805,10.417 -19.792,10.417c-1.563,-0 -2.867,-0.521 -3.125,-1.305c-0.521,-1.041 -0.783,-6.77 -0.783,-13.02c-0,-8.071 0.262,-17.188 0.783,-19.271c0.521,-4.425 12.5,-9.896 19.008,-9.896c1.825,-0 3.388,0.521 3.909,1.562c0.52,1.304 1.041,7.813 1.041,14.846c0,7.029 -0.521,14.321 -1.041,16.667m17.966,-42.45c1.825,-0.779 3.125,-2.863 3.125,-4.425l0,-18.492c0,-1.3 -0.779,-2.083 -1.821,-2.083c-0.52,-0 -0.783,-0 -1.304,0.262c0,0 -5.208,2.084 -6.508,2.342c-1.825,0 -3.646,-1.3 -3.646,-3.383l0,-31.771c0,-1.563 -1.562,-2.867 -3.646,-2.867c-2.604,0 -4.166,1.304 -4.166,2.867l-0,33.854c-0.263,2.604 -1.042,5.988 -3.388,7.55c-3.125,1.825 -11.979,5.471 -16.404,6.513c-2.346,-0 -3.125,-3.125 -3.125,-5.209l-0,-31.25c-0,-1.562 -1.825,-2.866 -3.646,-2.866c-2.604,-0 -4.167,1.304 -4.167,2.866l0,35.154c0,3.646 -1.562,6.25 -3.125,7.034c-1.562,0.779 -6.77,2.862 -6.77,2.862c-1.825,0.521 -3.125,2.604 -3.125,4.167l-0,18.492c-0,1.562 0.779,2.341 2.083,2.341c1.042,0 5.987,-2.341 6.771,-2.862c0.258,-0 0.521,-0.263 0.779,-0.263c1.825,0 3.387,2.604 3.387,4.688l0,25.783c0,2.863 -1.304,5.208 -2.866,5.988c-1.563,0.52 -7.029,2.866 -7.029,2.866c-1.825,0.521 -3.125,2.604 -3.125,4.167l-0,18.487c-0,1.563 0.779,2.346 2.083,2.346c0.258,0 0.779,-0.262 1.042,-0.262c-0,-0 3.645,-1.563 5.987,-2.342c0.263,-0.262 0.521,-0.262 0.783,-0.262c1.821,-0 3.125,2.866 3.125,4.166l0,32.034c0,1.562 1.563,2.862 3.384,2.862c2.604,0 4.429,-1.3 4.429,-2.862l-0,-36.2c-0,-3.384 1.3,-5.209 2.604,-5.73l15.883,-6.508c0.263,0 0.784,-0.262 1.042,-0.262c2.083,-0 3.388,3.125 3.388,4.687l-0,32.554c-0,1.563 1.562,2.863 3.383,2.863c2.867,-0 4.429,-1.3 4.429,-2.863l0,-36.979c0,-2.083 1.042,-5.208 2.863,-5.992c1.825,-0.779 7.291,-2.862 7.291,-2.862c1.825,-0.783 3.125,-2.867 3.125,-4.429l0,-18.488c0,-1.304 -0.779,-2.083 -1.821,-2.083c-0.52,-0 -0.783,-0 -1.304,0.258l-6.771,2.604c-1.562,0 -3.383,-1.562 -3.383,-4.687l0,-24.217c0,-1.825 1.3,-6.771 3.383,-7.554l6.771,-2.604" style="fill-rule:nonzero;"/></g><g><path d="M4504.9,259.954c23.179,0 51.563,-21.354 51.563,-43.492c-0,-13.279 -10.417,-21.612 -25.259,-21.612c-28.645,0 -51.562,21.092 -51.562,43.488c-0,13.541 11.196,21.616 25.258,21.616" style="fill-rule:nonzero;"/></g><g><path d="M4704.24,227.663c23.175,-0.001 51.562,-21.355 51.562,-43.492c0,-13.279 -10.417,-21.613 -25.262,-21.613c-28.646,0 -51.563,21.092 -51.563,43.488c0,13.542 11.2,21.617 25.263,21.617" style="fill-rule:nonzero;"/></g><g><path d="M4903.57,195.371c23.179,-0 51.562,-21.354 51.562,-43.492c0,-13.279 -10.416,-21.612 -25.258,-21.612c-28.646,-0 -51.562,21.091 -51.562,43.487c-0,13.542 11.195,21.617 25.258,21.617" style="fill-rule:nonzero;"/></g><g><path d="M5102.86,163.079c23.179,0 51.562,-21.354 51.562,-43.492c0,-13.279 -10.417,-21.612 -25.258,-21.612c-28.646,0 -51.563,21.092 -51.563,43.488c0,13.541 11.196,21.616 25.259,21.616" style="fill-rule:nonzero;"/></g><g><path d="M5302.2,163.079c23.175,0 51.562,-21.354 51.562,-43.492c0,-13.279 -10.416,-21.612 -25.262,-21.612c-28.646,0 -51.563,21.092 -51.563,43.488c0,13.541 11.2,21.616 25.263,21.616" style="fill-rule:nonzero;"/></g><g><path d="M5501.53,195.371c23.179,-0 51.563,-21.354 51.563,-43.492c-0,-13.279 -10.417,-21.612 -25.259,-21.612c-28.645,-0 -51.562,21.091 -51.562,43.487c-0,13.542 11.196,21.617 25.258,21.617" style="fill-rule:nonzero;"/></g><g><path d="M5700.82,227.663c23.175,-0.001 51.562,-21.355 51.562,-43.492c0,-13.279 -10.416,-21.613 -25.262,-21.613c-28.646,0 -51.563,21.092 -51.563,43.488c0,13.542 11.2,21.617 25.263,21.617" style="fill-rule:nonzero;"/></g><g><path d="M5900.15,259.954c23.179,0 51.563,-21.354 51.563,-43.492c-0,-13.279 -10.417,-21.612 -25.259,-21.612c-28.645,0 -51.562,21.092 -51.562,43.488c-0,13.541 11.196,21.616 25.258,21.616" style="fill-rule:nonzero;"/></g><g><path d="M6099.49,292.246c23.175,-0 51.562,-21.354 51.562,-43.492c0,-13.279 -10.417,-21.612 -25.262,-21.612c-28.646,-0 -51.563,21.091 -51.563,43.487c0,13.542 11.2,21.617 25.263,21.617" style="fill-rule:nonzero;"/></g><g><path d="M6213.28,280.788c0,-0 -0.779,-15.625 -0.779,-26.042c0,-4.167 0.258,-7.292 0.521,-8.333c1.821,-5.209 12.237,-12.763 18.229,-12.763c7.55,0 10.675,8.596 10.675,15.104c0,14.063 -11.979,28.125 -23.175,35.159c-1.042,0.52 -1.825,0.779 -2.604,0.779c-2.346,-0 -2.867,-2.605 -2.867,-3.904m-9.112,23.174c0.779,1.042 1.562,1.305 2.341,1.305c0.784,-0 1.563,-0.521 1.563,-0.521c7.812,-4.429 14.062,-11.458 20.575,-15.888c23.175,-16.146 31.25,-32.029 31.25,-44.008c-0,-14.846 -11.458,-24.221 -23.438,-25c-4.429,0 -10.679,2.083 -14.325,4.425c-1.562,1.304 -4.425,3.646 -5.729,3.646c-0.521,-0 -0.779,-0 -1.3,-0.258c-1.825,-0.784 -2.866,-2.605 -2.866,-4.43c0.262,-5.729 1.825,-68.229 1.825,-73.437c-0,-2.863 -2.346,-4.425 -4.95,-4.425c-3.646,-0 -7.813,2.604 -8.071,7.292c-0,-0 1.041,148.695 3.125,151.3" style="fill-rule:nonzero;"/></g><g><path d="M6301.28,292.246c23.175,-0 51.563,-21.354 51.563,-43.492c-0,-13.279 -10.417,-21.612 -25.263,-21.612c-28.646,-0 -51.562,21.091 -51.562,43.487c-0,13.542 11.2,21.617 25.262,21.617" style="fill-rule:nonzero;"/></g><g><path d="M6500.57,324.538c23.179,-0 51.562,-21.355 51.562,-43.492c0,-13.279 -10.416,-21.613 -25.258,-21.613c-28.646,0 -51.562,21.092 -51.562,43.488c-0,13.541 11.195,21.617 25.258,21.617" style="fill-rule:nonzero;"/></g><g><path d="M6699.95,356.829c23.175,0 51.562,-21.354 51.562,-43.492c0,-13.279 -10.416,-21.612 -25.262,-21.612c-28.646,0 -51.563,21.092 -51.563,43.488c0,13.541 11.2,21.616 25.263,21.616" style="fill-rule:nonzero;"/></g><g><path d="M135.668,482.087c0.779,4.95 0.779,4.688 -3.909,6.25c-22.916,7.813 -37.758,28.388 -37.758,50.521c0,23.438 12.238,40.105 29.946,46.096c2.083,0.779 5.208,1.563 7.033,1.563c2.084,-0 3.125,-1.304 3.125,-2.867c0,-1.821 -2.083,-2.604 -3.908,-3.383c-10.938,-4.688 -18.75,-15.888 -18.75,-27.867c-0,-14.842 10.158,-26.042 26.042,-30.467c4.166,-1.041 4.687,-0.783 5.208,2.084l13.021,77.604c0.521,2.862 0.262,2.862 -3.646,3.646c-4.167,0.779 -9.375,1.3 -14.583,1.3c-45.571,-0 -75,-25.259 -75,-61.459c-0,-15.362 2.604,-35.937 24.22,-60.416c15.625,-17.446 27.605,-27.084 39.842,-36.979c2.604,-2.084 3.125,-1.821 3.646,1.041l5.471,33.334m28.383,-177.342c8.596,-0 15.625,7.029 15.625,21.354c0,28.904 -24.737,52.342 -45.312,70.313c-1.821,1.562 -2.863,1.3 -3.384,-2.084c-1.041,-6.771 -1.562,-15.625 -1.562,-23.958c-0,-40.625 18.75,-65.625 34.633,-65.625m-10.417,218.75c-0.52,-3.125 -0.258,-3.908 2.867,-3.646c21.092,1.821 38.542,19.529 38.542,42.446c-0,16.408 -9.896,29.687 -24.479,36.979c-3.125,1.563 -3.646,1.563 -4.167,-1.562l-12.763,-74.217m-14.062,-81.25c-0.521,-3.125 -0,-3.388 1.562,-4.95c28.125,-26.3 49.48,-59.375 49.48,-99.217c-0,-22.658 -6.25,-45.054 -16.925,-60.679c-3.909,-5.729 -10.68,-13.021 -13.542,-13.021c-3.646,0 -11.721,6.771 -16.929,12.5c-19.271,21.354 -25.521,53.909 -25.521,80.992c-0,15.104 1.825,32.029 3.646,42.708c0.521,3.125 0.783,3.646 -2.342,6.25c-37.5,30.988 -77.346,68.229 -77.346,120.834c0,45.312 30.992,88.279 94.792,88.279c5.992,-0 12.762,-0.521 17.971,-1.563c2.862,-0.521 3.383,-0.779 3.904,2.346c3.125,17.446 7.033,40.104 7.033,52.342c0,38.541 -26.041,43.229 -41.408,43.229c-14.063,-0 -20.833,-4.167 -20.833,-7.55c-0,-1.825 2.345,-2.604 8.333,-4.429c8.075,-2.342 17.45,-9.375 17.45,-24.48c-0,-14.32 -9.117,-26.562 -25,-26.562c-17.45,0 -27.867,13.804 -27.867,29.95c0,16.925 10.159,42.446 49.479,42.446c17.45,-0 51.305,-7.813 51.305,-52.084c-0,-14.841 -4.688,-39.583 -7.555,-55.729c-0.52,-3.125 -0.258,-2.862 3.388,-4.425c26.3,-10.416 43.75,-32.554 43.75,-61.979c-0,-33.333 -24.479,-62.762 -62.763,-62.762c-6.77,-0 -6.77,-0 -7.55,-4.688l-6.512,-37.758" style="fill-rule:nonzero;"/></g><g><path d="M430.718,518.013l-0,-32.305l610.679,-16.146l-0,32.305l-610.679,16.145" style="fill-rule:nonzero;"/></g><g><path d="M430.718,566.463l-0,-32.305l610.679,-16.146l-0,32.305l-610.679,16.145" style="fill-rule:nonzero;"/></g><g><path d="M1241.4,453l-0,-32.579l605.858,-80.729l0,32.579l-605.858,80.729" style="fill-rule:nonzero;"/></g><g><path d="M1241.4,501.879l-0,-32.575l605.858,-80.729l0,32.575l-605.858,80.729" style="fill-rule:nonzero;"/></g><g><path d="M1969.78,760.329l0,-32.342l605.471,-32.291l0,32.341l-605.471,32.292" style="fill-rule:nonzero;"/></g><g><path d="M1969.78,711.829l0,-32.346l605.471,-32.291l0,32.346l-605.471,32.291" style="fill-rule:nonzero;"/></g><g><path d="M2766.78,679.954l0,-32.475l605.73,-64.583l-0,32.475l-605.73,64.583" style="fill-rule:nonzero;"/></g><g><path d="M2766.78,631.229l0,-32.475l605.73,-64.583l-0,32.475l-605.73,64.583" style="fill-rule:nonzero;"/></g><g><path d="M3671.49,566.933l-0,-32.487l608.204,-64.583l-0,32.487l-608.204,64.583" style="fill-rule:nonzero;"/></g><g><path d="M3671.49,518.208l-0,-32.475l608.204,-64.583l-0,32.475l-608.204,64.583" style="fill-rule:nonzero;"/></g><g><path d="M4479.65,501.908l0,-32.304l605.729,-16.146l0,32.304l-605.729,16.146" style="fill-rule:nonzero;"/></g><g><path d="M4479.65,453.458l0,-32.308l605.729,-16.146l0,32.308l-605.729,16.146" style="fill-rule:nonzero;"/></g><g><path d="M5276.95,485.763l-0,-32.305l605.729,16.146l0,32.304l-605.729,-16.146" style="fill-rule:nonzero;"/></g><g><path d="M5276.95,437.313l-0,-32.309l605.729,16.146l0,32.308l-605.729,-16.146" style="fill-rule:nonzero;"/></g><g><path d="M6074.2,502.35l-0,-32.487l608.204,64.583l0,32.487l-608.204,-64.583" style="fill-rule:nonzero;"/></g><g><path d="M6074.2,453.625l-0,-32.475l608.204,64.583l0,32.475l-608.204,-64.583" style="fill-rule:nonzero;"/></g><g><path d="M9.364,1260.73l3561.33,0" style="fill:none;stroke:#000;stroke-width:8.38px;"/><path d="M9.364,1325.32l3561.33,-0" style="fill:none;stroke:#000;stroke-width:8.38px;"/><path d="M9.364,1519.07l3561.33,-0" style="fill:none;stroke:#000;stroke-width:8.38px;"/><path d="M9.364,1389.9l3561.33,0" style="fill:none;stroke:#000;stroke-width:8.38px;"/><path d="M9.364,1454.48l3561.33,0" style="fill:none;stroke:#000;stroke-width:8.38px;"/></g><g><path d="M2905.2,1256.54l-0,266.721" style="fill:none;stroke:#000;stroke-width:10.33px;"/><path d="M3529.41,1256.54l-0,266.721" style="fill:none;stroke:#000;stroke-width:10.33px;"/><path d="M3565.48,1256.54l0,266.721" style="fill:none;stroke:#000;stroke-width:10.33px;"/></g><g><path d="M365.484,1271.58l0,232.204" style="fill:none;stroke:#000;stroke-width:7.75px;"/><path d="M494.651,1303.87l0,218.871" style="fill:none;stroke:#000;stroke-width:7.75px;"/><path d="M623.947,1336.16l-0,205.521" style="fill:none;stroke:#000;stroke-width:7.75px;"/><path d="M805.851,1368.45l0,199.913" style="fill:none;stroke:#000;stroke-width:7.75px;"/><path d="M1035.8,1195.97l-0,183.083" style="fill:none;stroke:#000;stroke-width:7.75px;"/><path d="M1211.97,1207.78l-0,171.275" style="fill:none;stroke:#000;stroke-width:7.75px;"/><path d="M1388.01,1219.59l0,191.758" style="fill:none;stroke:#000;stroke-width:7.75px;"/><path d="M1517.18,1228.26l0,215.375" style="fill:none;stroke:#000;stroke-width:7.75px;"/><path d="M1646.34,1259.39l-0,216.537" style="fill:none;stroke:#000;stroke-width:7.75px;"/><path d="M1775.64,1283.07l-0,225.154" style="fill:none;stroke:#000;stroke-width:7.75px;"/><path d="M1904.81,1306.75l0,233.763" style="fill:none;stroke:#000;stroke-width:7.75px;"/><path d="M2086.84,1340.12l-0,232.683" style="fill:none;stroke:#000;stroke-width:7.75px;"/></g><g><path d="M2003.11,1583.65l113.412,0" style="fill:none;stroke:#000;stroke-width:10.33px;"/></g><g><path d="M2273.55,1389.86l0,215.233" style="fill:none;stroke:#000;stroke-width:7.75px;"/></g><g><path d="M2191.01,1583.65l112.371,0" style="fill:none;stroke:#000;stroke-width:10.33px;"/></g><g><path d="M2475.38,1395.81l0,209.283" style="fill:none;stroke:#000;stroke-width:7.75px;"/></g><g><path d="M2392.83,1583.65l112.242,0" style="fill:none;stroke:#000;stroke-width:10.33px;"/></g><g><path d="M2677.2,1401.75l0,235.638" style="fill:none;stroke:#000;stroke-width:7.75px;"/></g><g><path d="M2593.48,1648.23l113.409,0" style="fill:none;stroke:#000;stroke-width:10.33px;"/><path d="M2578.51,1583.65l128.384,0" style="fill:none;stroke:#000;stroke-width:10.33px;"/></g><g><path d="M2821.99,1406.01l-0,263.671" style="fill:none;stroke:#000;stroke-width:7.75px;"/></g><g><path d="M2723.17,1648.23l128.512,0" style="fill:none;stroke:#000;stroke-width:10.33px;"/><path d="M2723.17,1583.65l128.512,0" style="fill:none;stroke:#000;stroke-width:10.33px;"/><path d="M2981.63,1648.23l161.459,0" style="fill:none;stroke:#000;stroke-width:10.33px;"/><path d="M2981.63,1583.65l161.459,0" style="fill:none;stroke:#000;stroke-width:10.33px;"/></g><g><path d="M413.893,1172.66l-0,-27.866c-0,-1.3 -0.263,-2.342 -1.563,-2.342c-1.041,0 -1.825,0.258 -2.604,1.3l-7.812,15.104c-0.521,0.521 -1.305,1.304 -1.305,3.125l0,10.679l-16.925,0c10.675,-8.854 27.342,-38.283 27.605,-39.846c-0,-0.258 0.258,-0.52 0.258,-0.779c-0,-1.041 -1.042,-1.825 -1.821,-1.825c-1.304,0 -6.771,0.521 -9.117,0.521c-2.341,0 -3.904,-0.521 -4.945,-0.521c-1.305,0 -3.125,0.521 -3.125,2.604c-0,16.667 -13.542,35.68 -16.93,40.367c-0.52,0.521 -1.041,1.3 -1.041,2.083c-0,1.3 1.041,2.605 2.604,2.605l23.437,-0l0,8.07c0,3.646 -2.083,4.688 -4.166,4.688c-2.342,-0 -3.384,1.042 -3.384,2.346c0,1.3 0.521,2.862 2.863,2.862l22.396,0c1.304,0 2.604,-1.041 2.604,-2.862c-0,-1.825 -1.563,-2.604 -2.863,-2.604c-1.304,-0 -4.166,-0.784 -4.166,-4.95l-0,-7.55l9.633,-0c1.304,-0 2.083,-1.042 2.083,-2.605c0,-1.562 -0.52,-2.604 -2.083,-2.604l-9.633,0" style="fill-rule:nonzero;"/></g><g><path d="M526.539,1130.53c-14.321,0 -20.571,9.638 -20.571,15.104c-0,3.646 2.083,8.075 8.591,8.333c4.95,0 7.292,-3.125 7.292,-6.508l0,-1.042c-0.258,-3.908 -2.862,-4.166 -3.383,-4.429c-0.521,-0.258 -1.563,-1.3 -1.563,-3.125c0.521,-2.862 4.425,-3.904 5.467,-3.904c13.283,0 17.187,7.029 17.187,11.458c0,12.238 -12.5,13.28 -16.404,13.542c-1.825,0 -3.646,0.779 -3.646,2.342c0,1.562 2.342,1.562 3.384,1.562c15.104,0 17.187,7.813 17.187,11.721c0,15.104 -12.237,15.625 -15.362,15.625c-1.563,0 -4.167,-0.783 -4.429,-2.083l-0,-1.563c-0,-2.866 0.783,-5.991 1.041,-8.595c0,-4.688 -3.125,-7.55 -7.812,-7.55l-1.042,-0c-1.821,0.52 -3.646,1.562 -4.946,2.862c-1.825,1.563 -2.346,3.908 -2.346,6.25c0.263,8.333 7.555,15.367 20.575,15.625l1.563,0c12.758,0 26.042,-6.771 26.042,-18.229c-0,-2.604 -0.521,-4.688 -1.305,-6.25c-0.52,-1.563 -1.562,-2.863 -2.604,-3.904c-0.779,-1.042 -1.821,-1.825 -2.862,-2.604l-2.867,-1.563l-1.562,-0.521c-0.521,0 -0.78,-0.262 -1.3,-0.262l-1.563,-0.521c-0.783,-0.258 -1.042,-0 -1.304,-0.521c-0.258,-0.258 -0.258,-0.521 -0.258,-0.779c-0,-0.521 0.258,-1.042 0.779,-1.042l4.166,-1.304c1.825,-1.042 3.646,-1.821 4.95,-3.646c2.084,-2.083 2.863,-5.466 2.863,-8.333c-0,-12.238 -16.146,-15.625 -21.875,-16.146l-2.083,0" style="fill-rule:nonzero;"/></g><g><path d="M643.484,1160.48c0,0 -0.258,1.042 -0.258,1.821c0,1.042 1.042,2.083 2.083,2.083c0.78,0 1.3,-0.779 1.563,-1.042c0.258,-0.779 3.383,-11.458 4.946,-14.062c0.521,-1.042 1.041,-1.3 1.304,-1.3c0.521,-0 0.779,1.042 0.779,1.821l0,37.241c0,3.125 -2.604,4.946 -5.208,4.946c-1.042,0 -2.342,0.521 -2.342,2.084c0,1.562 1.3,2.083 3.383,2.083l21.875,-0c2.084,-0 2.084,-2.083 2.084,-2.083c-0,-0 -0,-2.084 -2.084,-2.084c-1.82,0 -4.166,-2.341 -4.166,-4.687l-0,-54.167c-0,-2.083 -0.779,-3.125 -2.604,-3.125c-1.821,0 -3.384,0.521 -4.946,0.521c-2.604,-0 -3.125,-0 -5.209,-0.521c-1.041,0 -2.345,1.563 -3.125,2.604l-8.075,27.867" style="fill-rule:nonzero;"/></g><g><path d="M825.459,1160.48c0,0 -0.262,1.042 -0.262,1.821c-0,1.042 1.042,2.083 2.083,2.083c0.784,0 1.304,-0.779 1.563,-1.042c0.262,-0.779 3.387,-11.458 4.95,-14.062c0.521,-1.042 1.041,-1.3 1.3,-1.3c0.521,-0 0.783,1.042 0.783,1.821l0,37.241c0,3.125 -2.604,4.946 -5.208,4.946c-1.042,0 -2.346,0.521 -2.346,2.084c-0,1.562 1.304,2.083 3.387,2.083l21.875,-0c2.084,-0 2.084,-2.083 2.084,-2.083c-0,-0 -0,-2.084 -2.084,-2.084c-1.825,0 -4.166,-2.341 -4.166,-4.687l-0,-54.167c-0,-2.083 -0.784,-3.125 -2.604,-3.125c-1.825,0 -3.388,0.521 -4.95,0.521c-2.605,-0 -3.125,-0 -5.209,-0.521c-1.041,0 -2.341,1.563 -3.125,2.604l-8.071,27.867" style="fill-rule:nonzero;"/></g><g><path d="M1015.15,1124.3l-0,-27.867c-0,-1.3 -0.263,-2.341 -1.563,-2.341c-1.041,-0 -1.825,0.258 -2.604,1.3l-7.812,15.104c-0.521,0.521 -1.304,1.304 -1.304,3.125l-0,10.679l-16.925,-0c10.675,-8.854 27.341,-38.283 27.604,-39.846c-0,-0.258 0.258,-0.521 0.258,-0.779c0,-1.042 -1.042,-1.825 -1.821,-1.825c-1.304,0 -6.771,0.521 -9.116,0.521c-2.342,-0 -3.905,-0.521 -4.946,-0.521c-1.304,0 -3.125,0.521 -3.125,2.604c-0,16.667 -13.542,35.679 -16.929,40.367c-0.521,0.521 -1.042,1.3 -1.042,2.083c-0,1.3 1.042,2.604 2.604,2.604l23.438,0l-0,8.071c-0,3.646 -2.084,4.688 -4.167,4.688c-2.342,-0 -3.383,1.041 -3.383,2.345c-0,1.3 0.52,2.863 2.862,2.863l22.396,-0c1.304,-0 2.604,-1.042 2.604,-2.863c0,-1.825 -1.562,-2.604 -2.862,-2.604c-1.305,0 -4.167,-0.783 -4.167,-4.95l-0,-7.55l9.633,0c1.304,0 2.084,-1.041 2.084,-2.604c-0,-1.562 -0.521,-2.604 -2.084,-2.604l-9.633,-0" style="fill-rule:nonzero;"/></g><g><path d="M1174.7,1089.39c-14.321,-0 -20.571,9.637 -20.571,15.104c0,3.646 2.084,8.075 8.592,8.333c4.95,0 7.292,-3.125 7.292,-6.508l-0,-1.042c-0.259,-3.908 -2.863,-4.167 -3.384,-4.429c-0.521,-0.259 -1.562,-1.3 -1.562,-3.125c0.521,-2.863 4.425,-3.904 5.466,-3.904c13.284,-0 17.188,7.029 17.188,11.458c-0,12.237 -12.5,13.279 -16.404,13.542c-1.825,-0 -3.646,0.779 -3.646,2.341c-0,1.563 2.342,1.563 3.383,1.563c15.104,-0 17.188,7.812 17.188,11.721c-0,15.104 -12.238,15.625 -15.363,15.625c-1.562,-0 -4.166,-0.784 -4.429,-2.084l0,-1.562c0,-2.867 0.783,-5.992 1.042,-8.596c-0,-4.688 -3.125,-7.55 -7.813,-7.55l-1.041,-0c-1.821,0.521 -3.646,1.562 -4.946,2.862c-1.825,1.563 -2.346,3.909 -2.346,6.25c0.262,8.334 7.554,15.367 20.575,15.625l1.562,0c12.759,0 26.042,-6.77 26.042,-18.229c0,-2.604 -0.521,-4.687 -1.304,-6.25c-0.521,-1.562 -1.563,-2.862 -2.604,-3.904c-0.779,-1.042 -1.821,-1.825 -2.863,-2.604l-2.866,-1.563l-1.563,-0.52c-0.521,-0 -0.779,-0.263 -1.3,-0.263l-1.562,-0.521c-0.784,-0.258 -1.042,0 -1.305,-0.521c-0.258,-0.258 -0.258,-0.52 -0.258,-0.779c0,-0.521 0.258,-1.041 0.779,-1.041l4.167,-1.305c1.825,-1.041 3.646,-1.82 4.95,-3.645c2.083,-2.084 2.862,-5.467 2.862,-8.334c0,-12.237 -16.145,-15.625 -21.875,-16.146l-2.083,0" style="fill-rule:nonzero;"/></g><g><path d="M1338.56,1131.54c0,-0 -0.258,1.041 -0.258,1.825c-0,1.041 1.042,2.083 2.083,2.083c0.779,0 1.3,-0.783 1.563,-1.042c0.258,-0.783 3.383,-11.458 4.946,-14.062c0.52,-1.042 1.041,-1.304 1.304,-1.304c0.521,-0 0.779,1.041 0.779,1.825l-0,37.237c-0,3.125 -2.604,4.95 -5.208,4.95c-1.042,0 -2.342,0.521 -2.342,2.083c-0,1.563 1.3,2.084 3.383,2.084l21.875,-0c2.084,-0 2.084,-2.084 2.084,-2.084c-0,0 -0,-2.083 -2.084,-2.083c-1.821,0 -4.166,-2.346 -4.166,-4.687l-0,-54.167c-0,-2.083 -0.78,-3.125 -2.605,-3.125c-1.82,-0 -3.383,0.521 -4.945,0.521c-2.605,-0 -3.125,-0 -5.209,-0.521c-1.041,-0 -2.346,1.562 -3.125,2.604l-8.075,27.863" style="fill-rule:nonzero;"/></g><g><path d="M1467.73,1140.07c0,-0 -0.258,1.042 -0.258,1.821c0,1.041 1.042,2.083 2.083,2.083c0.78,0 1.3,-0.779 1.563,-1.042c0.258,-0.779 3.383,-11.458 4.946,-14.062c0.521,-1.042 1.041,-1.3 1.304,-1.3c0.521,-0 0.779,1.042 0.779,1.821l0,37.241c0,3.125 -2.604,4.946 -5.208,4.946c-1.042,0 -2.342,0.521 -2.342,2.084c0,1.562 1.3,2.083 3.383,2.083l21.875,-0c2.084,-0 2.084,-2.083 2.084,-2.083c-0,-0 -0,-2.084 -2.084,-2.084c-1.82,0 -4.166,-2.341 -4.166,-4.687l-0,-54.167c-0,-2.083 -0.779,-3.125 -2.604,-3.125c-1.821,0 -3.384,0.521 -4.946,0.521c-2.604,-0 -3.125,-0 -5.209,-0.521c-1.041,0 -2.345,1.563 -3.125,2.604l-8.075,27.867" style="fill-rule:nonzero;"/></g><g><path d="M1625.72,1172.71l-0,-27.863c-0,-1.304 -0.263,-2.346 -1.563,-2.346c-1.041,0 -1.825,0.263 -2.604,1.304l-7.812,15.105c-0.521,0.52 -1.305,1.3 -1.305,3.125l0,10.675l-16.925,-0c10.675,-8.855 27.342,-38.28 27.605,-39.842c-0,-0.263 0.258,-0.521 0.258,-0.783c-0,-1.042 -1.042,-1.821 -1.821,-1.821c-1.304,-0 -6.771,0.521 -9.117,0.521c-2.341,-0 -3.904,-0.521 -4.945,-0.521c-1.305,-0 -3.125,0.521 -3.125,2.604c-0,16.667 -13.542,35.675 -16.93,40.362c-0.52,0.521 -1.041,1.304 -1.041,2.084c-0,1.304 1.041,2.604 2.604,2.604l23.437,-0l0,8.075c0,3.646 -2.083,4.687 -4.166,4.687c-2.342,0 -3.384,1.042 -3.384,2.342c0,1.304 0.521,2.867 2.863,2.867l22.396,-0c1.304,-0 2.604,-1.042 2.604,-2.867c-0,-1.821 -1.563,-2.604 -2.863,-2.604c-1.304,-0 -4.166,-0.779 -4.166,-4.946l-0,-7.554l9.633,-0c1.304,-0 2.083,-1.042 2.083,-2.604c0,-1.563 -0.52,-2.605 -2.083,-2.605l-9.633,0" style="fill-rule:nonzero;"/></g><g><path d="M1738.36,1130.53c-14.32,0 -20.57,9.638 -20.57,15.104c-0,3.646 2.083,8.075 8.591,8.333c4.95,0 7.292,-3.125 7.292,-6.508l-0,-1.042c-0.258,-3.908 -2.863,-4.166 -3.383,-4.429c-0.521,-0.258 -1.563,-1.3 -1.563,-3.125c0.521,-2.862 4.425,-3.904 5.467,-3.904c13.283,0 17.187,7.029 17.187,11.458c0,12.238 -12.5,13.28 -16.404,13.542c-1.825,0 -3.646,0.779 -3.646,2.342c0,1.562 2.342,1.562 3.384,1.562c15.104,0 17.187,7.813 17.187,11.721c0,15.104 -12.237,15.625 -15.362,15.625c-1.563,0 -4.167,-0.783 -4.43,-2.083l0,-1.563c0,-2.866 0.784,-5.991 1.042,-8.595c0,-4.688 -3.125,-7.55 -7.812,-7.55l-1.042,-0c-1.821,0.52 -3.646,1.562 -4.946,2.862c-1.825,1.563 -2.346,3.908 -2.346,6.25c0.263,8.333 7.554,15.367 20.575,15.625l1.563,0c12.758,0 26.041,-6.771 26.041,-18.229c0,-2.604 -0.52,-4.688 -1.304,-6.25c-0.521,-1.563 -1.562,-2.863 -2.604,-3.904c-0.779,-1.042 -1.821,-1.825 -2.862,-2.604l-2.867,-1.563l-1.563,-0.521c-0.52,0 -0.779,-0.262 -1.3,-0.262l-1.562,-0.521c-0.783,-0.258 -1.042,-0 -1.304,-0.521c-0.259,-0.258 -0.259,-0.521 -0.259,-0.779c0,-0.521 0.259,-1.042 0.78,-1.042l4.166,-1.304c1.825,-1.042 3.646,-1.821 4.95,-3.646c2.084,-2.083 2.863,-5.466 2.863,-8.333c-0,-12.238 -16.146,-15.625 -21.875,-16.146l-2.084,0" style="fill-rule:nonzero;"/></g><g><path d="M1855.31,1160.48c-0,0 -0.259,1.042 -0.259,1.821c0,1.042 1.042,2.083 2.084,2.083c0.779,0 1.3,-0.779 1.562,-1.042c0.258,-0.779 3.383,-11.458 4.946,-14.062c0.521,-1.042 1.042,-1.3 1.304,-1.3c0.521,-0 0.779,1.042 0.779,1.821l0,37.241c0,3.125 -2.604,4.946 -5.208,4.946c-1.042,0 -2.342,0.521 -2.342,2.084c0,1.562 1.3,2.083 3.384,2.083l21.875,-0c2.083,-0 2.083,-2.083 2.083,-2.083c-0,-0 -0,-2.084 -2.083,-2.084c-1.821,0 -4.167,-2.341 -4.167,-4.687l-0,-54.167c-0,-2.083 -0.779,-3.125 -2.604,-3.125c-1.821,0 -3.384,0.521 -4.946,0.521c-2.604,-0 -3.125,-0 -5.208,-0.521c-1.042,0 -2.346,1.563 -3.125,2.604l-8.075,27.867" style="fill-rule:nonzero;"/></g><g><path d="M2037.41,1160.48c0,0 -0.258,1.042 -0.258,1.821c0,1.042 1.042,2.083 2.083,2.083c0.78,0 1.3,-0.779 1.563,-1.042c0.258,-0.779 3.383,-11.458 4.946,-14.062c0.521,-1.042 1.041,-1.3 1.304,-1.3c0.521,-0 0.779,1.042 0.779,1.821l0,37.241c0,3.125 -2.604,4.946 -5.208,4.946c-1.042,0 -2.342,0.521 -2.342,2.084c0,1.562 1.3,2.083 3.383,2.083l21.875,-0c2.084,-0 2.084,-2.083 2.084,-2.083c-0,-0 -0,-2.084 -2.084,-2.084c-1.82,0 -4.166,-2.341 -4.166,-4.687l-0,-54.167c-0,-2.083 -0.779,-3.125 -2.604,-3.125c-1.821,0 -3.384,0.521 -4.946,0.521c-2.604,-0 -3.125,-0 -5.209,-0.521c-1.041,0 -2.345,1.563 -3.125,2.604l-8.075,27.867" style="fill-rule:nonzero;"/></g><g><path d="M2252.94,1172.71l-0,-27.863c-0,-1.304 -0.259,-2.346 -1.563,-2.346c-1.041,0 -1.821,0.263 -2.604,1.304l-7.812,15.105c-0.521,0.52 -1.3,1.3 -1.3,3.125l-0,10.675l-16.93,-0c10.68,-8.855 27.346,-38.28 27.605,-39.842c-0,-0.263 0.262,-0.521 0.262,-0.783c0,-1.042 -1.042,-1.821 -1.825,-1.821c-1.3,-0 -6.771,0.521 -9.112,0.521c-2.346,-0 -3.909,-0.521 -4.95,-0.521c-1.3,-0 -3.125,0.521 -3.125,2.604c-0,16.667 -13.542,35.675 -16.925,40.362c-0.521,0.521 -1.042,1.304 -1.042,2.084c-0,1.304 1.042,2.604 2.604,2.604l23.438,-0l-0,8.075c-0,3.646 -2.084,4.687 -4.167,4.687c-2.346,0 -3.388,1.042 -3.388,2.342c0,1.304 0.521,2.867 2.867,2.867l22.396,-0c1.3,-0 2.604,-1.042 2.604,-2.867c0,-1.821 -1.562,-2.604 -2.867,-2.604c-1.3,-0 -4.166,-0.779 -4.166,-4.946l-0,-7.554l9.637,-0c1.3,-0 2.084,-1.042 2.084,-2.604c-0,-1.563 -0.521,-2.605 -2.084,-2.605l-9.637,0" style="fill-rule:nonzero;"/></g><g><path d="M2438.19,1130.53c-14.325,0 -20.575,9.638 -20.575,15.104c-0,3.646 2.083,8.075 8.596,8.333c4.945,0 7.291,-3.125 7.291,-6.508l0,-1.042c-0.262,-3.908 -2.866,-4.166 -3.387,-4.429c-0.521,-0.258 -1.563,-1.3 -1.563,-3.125c0.521,-2.862 4.429,-3.904 5.471,-3.904c13.279,0 17.188,7.029 17.188,11.458c-0,12.238 -12.5,13.28 -16.409,13.542c-1.821,0 -3.646,0.779 -3.646,2.342c0,1.562 2.346,1.562 3.388,1.562c15.104,0 17.187,7.813 17.187,11.721c0,15.104 -12.241,15.625 -15.366,15.625c-1.563,0 -4.167,-0.783 -4.425,-2.083l-0,-1.563c-0,-2.866 0.779,-5.991 1.041,-8.595c0,-4.688 -3.125,-7.55 -7.812,-7.55l-1.042,-0c-1.825,0.52 -3.646,1.562 -4.95,2.862c-1.821,1.563 -2.341,3.908 -2.341,6.25c0.258,8.333 7.55,15.367 20.57,15.625l1.563,0c12.762,0 26.042,-6.771 26.042,-18.229c-0,-2.604 -0.521,-4.688 -1.3,-6.25c-0.521,-1.563 -1.563,-2.863 -2.605,-3.904c-0.783,-1.042 -1.825,-1.825 -2.866,-2.604l-2.863,-1.563l-1.562,-0.521c-0.521,0 -0.784,-0.262 -1.304,-0.262l-1.563,-0.521c-0.779,-0.258 -1.042,-0 -1.3,-0.521c-0.262,-0.258 -0.262,-0.521 -0.262,-0.779c-0,-0.521 0.262,-1.042 0.783,-1.042l4.167,-1.304c1.82,-1.042 3.645,-1.821 4.945,-3.646c2.084,-2.083 2.867,-5.466 2.867,-8.333c0,-12.238 -16.146,-15.625 -21.875,-16.146l-2.083,0" style="fill-rule:nonzero;"/></g><g><path d="M2627.75,1160.48c-0,0 -0.258,1.042 -0.258,1.821c-0,1.042 1.041,2.083 2.083,2.083c0.779,0 1.3,-0.779 1.562,-1.042c0.259,-0.779 3.384,-11.458 4.946,-14.062c0.521,-1.042 1.042,-1.3 1.304,-1.3c0.521,-0 0.78,1.042 0.78,1.821l-0,37.241c-0,3.125 -2.605,4.946 -5.209,4.946c-1.041,0 -2.341,0.521 -2.341,2.084c-0,1.562 1.3,2.083 3.383,2.083l21.875,-0c2.083,-0 2.083,-2.083 2.083,-2.083c0,-0 0,-2.084 -2.083,-2.084c-1.821,0 -4.167,-2.341 -4.167,-4.687l0,-54.167c0,-2.083 -0.779,-3.125 -2.604,-3.125c-1.821,0 -3.383,0.521 -4.946,0.521c-2.604,-0 -3.125,-0 -5.208,-0.521c-1.042,0 -2.346,1.563 -3.125,2.604l-8.075,27.867" style="fill-rule:nonzero;"/></g><g><path d="M2772.49,1160.48c-0,0 -0.263,1.042 -0.263,1.821c0,1.042 1.042,2.083 2.083,2.083c0.784,0 1.305,-0.779 1.563,-1.042c0.262,-0.779 3.387,-11.458 4.95,-14.062c0.521,-1.042 1.042,-1.3 1.3,-1.3c0.521,-0 0.783,1.042 0.783,1.821l0,37.241c0,3.125 -2.604,4.946 -5.208,4.946c-1.042,0 -2.346,0.521 -2.346,2.084c0,1.562 1.304,2.083 3.388,2.083l21.875,-0c2.083,-0 2.083,-2.083 2.083,-2.083c-0,-0 -0,-2.084 -2.083,-2.084c-1.825,0 -4.167,-2.341 -4.167,-4.687l-0,-54.167c-0,-2.083 -0.783,-3.125 -2.604,-3.125c-1.825,0 -3.388,0.521 -4.95,0.521c-2.604,-0 -3.125,-0 -5.209,-0.521c-1.041,0 -2.341,1.563 -3.125,2.604l-8.07,27.867" style="fill-rule:nonzero;"/></g><g><path d="M3047.43,1160.48c0,0 -0.258,1.042 -0.258,1.821c0,1.042 1.042,2.083 2.083,2.083c0.78,0 1.3,-0.779 1.563,-1.042c0.258,-0.779 3.383,-11.458 4.946,-14.062c0.521,-1.042 1.041,-1.3 1.304,-1.3c0.521,-0 0.779,1.042 0.779,1.821l0,37.241c0,3.125 -2.604,4.946 -5.208,4.946c-1.042,0 -2.342,0.521 -2.342,2.084c0,1.562 1.3,2.083 3.383,2.083l21.875,-0c2.084,-0 2.084,-2.083 2.084,-2.083c-0,-0 -0,-2.084 -2.084,-2.084c-1.82,0 -4.166,-2.341 -4.166,-4.687l-0,-54.167c-0,-2.083 -0.779,-3.125 -2.604,-3.125c-1.821,0 -3.384,0.521 -4.946,0.521c-2.604,-0 -3.125,-0 -5.209,-0.521c-1.041,0 -2.345,1.563 -3.125,2.604l-8.075,27.867" style="fill-rule:nonzero;"/></g><g><path d="M386.893,1293.29c23.175,-0 51.562,-21.354 51.562,-43.492c0,-13.279 -10.416,-21.612 -25.262,-21.612c-28.646,-0 -51.563,21.091 -51.563,43.487c0,13.542 11.2,21.617 25.263,21.617" style="fill-rule:nonzero;"/></g><g><path d="M516.08,1325.58c23.179,0 51.563,-21.354 51.563,-43.491c-0,-13.28 -10.417,-21.613 -25.259,-21.613c-28.645,0 -51.562,21.092 -51.562,43.488c-0,13.541 11.196,21.616 25.258,21.616" style="fill-rule:nonzero;"/></g><g><path d="M645.272,1357.88c23.179,0 51.562,-21.354 51.562,-43.492c0,-13.279 -10.416,-21.612 -25.258,-21.612c-28.646,-0 -51.562,21.092 -51.562,43.487c-0,13.542 11.195,21.617 25.258,21.617" style="fill-rule:nonzero;"/></g><g><path d="M764.784,1369.33c-1.562,5.209 -13.8,10.417 -19.791,10.417c-1.563,0 -2.863,-0.521 -3.125,-1.304c-0.521,-1.042 -0.779,-6.771 -0.779,-13.021c-0,-8.071 0.258,-17.187 0.779,-19.271c0.521,-4.425 12.5,-9.896 19.012,-9.896c1.821,0 3.384,0.521 3.904,1.563c0.521,1.304 1.042,7.812 1.042,14.846c0,7.029 -0.521,14.321 -1.042,16.666m17.971,-42.45c1.821,-0.779 3.125,-2.862 3.125,-4.425l0,-18.491c0,-1.3 -0.783,-2.084 -1.825,-2.084c-0.521,0 -0.779,0 -1.3,0.263c0,-0 -5.208,2.083 -6.512,2.342c-1.821,-0 -3.646,-1.301 -3.646,-3.384l-0,-31.771c-0,-1.562 -1.563,-2.866 -3.646,-2.866c-2.604,-0 -4.167,1.304 -4.167,2.866l0,33.854c-0.258,2.605 -1.041,5.988 -3.383,7.551c-3.125,1.824 -11.979,5.47 -16.408,6.512c-2.342,0 -3.125,-3.125 -3.125,-5.208l-0,-31.25c-0,-1.563 -1.821,-2.867 -3.646,-2.867c-2.604,0 -4.167,1.304 -4.167,2.867l0,35.154c0,3.646 -1.562,6.25 -3.125,7.033c-1.562,0.779 -6.771,2.863 -6.771,2.863c-1.82,0.521 -3.125,2.604 -3.125,4.166l0,18.492c0,1.563 0.784,2.342 2.084,2.342c1.041,-0 5.991,-2.342 6.771,-2.863c0.262,0 0.52,-0.262 0.783,-0.262c1.821,-0 3.383,2.604 3.383,4.687l0,25.784c0,2.862 -1.3,5.208 -2.862,5.987c-1.563,0.521 -7.034,2.867 -7.034,2.867c-1.82,0.521 -3.125,2.604 -3.125,4.166l0,18.488c0,1.562 0.784,2.346 2.084,2.346c0.262,-0 0.783,-0.263 1.041,-0.263c0,0 3.646,-1.562 5.992,-2.341c0.258,-0.263 0.521,-0.263 0.779,-0.263c1.825,0 3.125,2.867 3.125,4.167l0,32.033c0,1.563 1.563,2.863 3.388,2.863c2.604,-0 4.425,-1.301 4.425,-2.863l-0,-36.2c-0,-3.383 1.304,-5.208 2.604,-5.729l15.887,-6.508c0.259,-0 0.78,-0.263 1.042,-0.263c2.083,0 3.383,3.125 3.383,4.688l0,32.554c0,1.562 1.563,2.862 3.388,2.862c2.862,0 4.425,-1.3 4.425,-2.862l-0,-36.98c-0,-2.083 1.042,-5.208 2.867,-5.991c1.82,-0.779 7.291,-2.863 7.291,-2.863c1.821,-0.783 3.125,-2.866 3.125,-4.429l0,-18.487c0,-1.304 -0.783,-2.084 -1.825,-2.084c-0.521,0 -0.779,0 -1.3,0.259l-6.771,2.604c-1.562,-0 -3.387,-1.563 -3.387,-4.688l-0,-24.216c-0,-1.825 1.304,-6.771 3.387,-7.554l6.771,-2.605" style="fill-rule:nonzero;"/></g><g><path d="M827.243,1390.17c23.175,-0 51.562,-21.354 51.562,-43.492c0,-13.279 -10.416,-21.612 -25.262,-21.612c-28.646,-0 -51.563,21.091 -51.563,43.487c0,13.542 11.2,21.617 25.263,21.617" style="fill-rule:nonzero;"/></g><g><path d="M912.63,1379.75c0,-3.646 15.888,-10.417 22.138,-10.417c1.562,0 2.341,0.259 2.341,1.3l0,26.825c0,4.688 -14.841,10.675 -21.354,10.675c-1.821,0 -3.125,-0.52 -3.125,-1.562l0,-26.821m27.084,-36.979c-0.521,-0 -0.78,0.258 -1.042,0.258c-0,0 -16.667,5.992 -23.438,5.992c-1.562,-0 -2.604,-0.263 -2.604,-1.304l0,-43.488c0,-1.825 -1.562,-3.125 -3.125,-3.125l-3.383,0c-1.825,0 -3.125,1.3 -3.125,3.125l-0,134.113c-0,1.562 0.779,2.345 2.083,2.345c0.259,0 1.563,-0.262 1.821,-0.52c3.646,-1.563 18.229,-7.813 25.783,-7.813c2.605,0 4.425,0.779 4.425,2.863l0,38.804c0,1.821 1.305,3.125 3.125,3.125l3.388,-0c1.562,-0 3.125,-1.304 3.125,-3.125l-0,-130.729c-0,-1.304 -1.042,-2.084 -2.083,-2.084c-0.263,0 -0.784,0 -1.042,0.259l-3.908,1.304" style="fill-rule:nonzero;"/></g><g><path d="M988.151,1422.46c23.179,0 51.563,-21.354 51.563,-43.491c-0,-13.28 -10.417,-21.613 -25.259,-21.613c-28.646,0 -51.562,21.092 -51.562,43.488c-0,13.541 11.196,21.616 25.258,21.616" style="fill-rule:nonzero;"/></g><g><path d="M1076.28,1411c0,0 -0.779,-15.625 -0.779,-26.042c-0,-4.166 0.258,-7.291 0.521,-8.333c1.821,-5.208 12.237,-12.762 18.229,-12.762c7.55,-0 10.675,8.595 10.675,15.104c-0,14.062 -11.979,28.125 -23.175,35.158c-1.042,0.521 -1.825,0.779 -2.604,0.779c-2.346,0 -2.867,-2.604 -2.867,-3.904m-9.112,23.175c0.779,1.042 1.562,1.304 2.341,1.304c0.784,0 1.563,-0.521 1.563,-0.521c7.812,-4.429 14.062,-11.458 20.575,-15.887c23.175,-16.146 31.25,-32.029 31.25,-44.009c-0,-14.845 -11.459,-24.22 -23.438,-25c-4.429,0 -10.679,2.084 -14.325,4.426c-1.562,1.304 -4.425,3.645 -5.729,3.645c-0.521,0 -0.779,0 -1.3,-0.258c-1.825,-0.783 -2.867,-2.604 -2.867,-4.429c0.263,-5.729 1.825,-68.229 1.825,-73.438c0,-2.862 -2.345,-4.425 -4.95,-4.425c-3.645,0 -7.812,2.605 -8.07,7.292c-0,0 1.041,148.696 3.125,151.3" style="fill-rule:nonzero;"/></g><g><path d="M1164.25,1422.46c23.175,0 51.562,-21.354 51.562,-43.491c0,-13.28 -10.416,-21.613 -25.262,-21.613c-28.646,0 -51.563,21.092 -51.563,43.488c0,13.541 11.2,21.616 25.263,21.616" style="fill-rule:nonzero;"/></g><g><path d="M1252.37,1443.29c-0,-0 -0.783,-15.625 -0.783,-26.042c-0,-4.167 0.262,-7.292 0.52,-8.333c1.825,-5.209 12.242,-12.763 18.23,-12.763c7.554,0 10.679,8.596 10.679,15.104c-0,14.063 -11.979,28.125 -23.179,35.159c-1.042,0.52 -1.821,0.779 -2.605,0.779c-2.341,-0 -2.862,-2.604 -2.862,-3.904m-9.117,23.175c0.784,1.041 1.563,1.304 2.346,1.304c0.779,-0 1.563,-0.521 1.563,-0.521c7.812,-4.429 14.062,-11.458 20.57,-15.888c23.18,-16.145 31.25,-32.029 31.25,-44.008c0,-14.846 -11.458,-24.221 -23.437,-25c-4.425,0 -10.675,2.083 -14.321,4.425c-1.562,1.304 -4.429,3.646 -5.729,3.646c-0.521,-0 -0.783,-0 -1.304,-0.258c-1.821,-0.784 -2.863,-2.605 -2.863,-4.43c0.259,-5.729 1.821,-68.229 1.821,-73.437c0,-2.863 -2.342,-4.425 -4.946,-4.425c-3.646,-0 -7.812,2.604 -8.075,7.292c0,-0 1.042,148.695 3.125,151.3" style="fill-rule:nonzero;"/></g><g><path d="M1340.34,1454.75c23.179,0 51.562,-21.354 51.562,-43.492c0,-13.279 -10.417,-21.612 -25.258,-21.612c-28.646,-0 -51.563,21.092 -51.563,43.487c0,13.542 11.196,21.617 25.259,21.617" style="fill-rule:nonzero;"/></g><g><path d="M1469.53,1487.04c23.175,-0 51.563,-21.355 51.563,-43.492c-0,-13.279 -10.417,-21.613 -25.263,-21.613c-28.645,0 -51.562,21.092 -51.562,43.488c-0,13.542 11.2,21.617 25.262,21.617" style="fill-rule:nonzero;"/></g><g><path d="M1598.71,1519.33c23.175,0 51.562,-21.354 51.562,-43.491c0,-13.28 -10.417,-21.613 -25.262,-21.613c-28.646,0 -51.563,21.092 -51.563,43.488c0,13.541 11.2,21.616 25.263,21.616" style="fill-rule:nonzero;"/></g><g><path d="M1727.9,1551.62c23.175,0 51.563,-21.354 51.563,-43.492c-0,-13.279 -10.417,-21.612 -25.263,-21.612c-28.646,-0 -51.562,21.092 -51.562,43.487c-0,13.542 11.2,21.617 25.262,21.617" style="fill-rule:nonzero;"/></g><g><path d="M1857.1,1583.92c23.179,-0 51.562,-21.355 51.562,-43.492c0,-13.279 -10.416,-21.613 -25.258,-21.613c-28.646,0 -51.562,21.092 -51.562,43.488c-0,13.542 11.195,21.617 25.258,21.617" style="fill-rule:nonzero;"/></g><g><path d="M1976.75,1595.38c-1.563,5.208 -13.804,10.417 -19.792,10.417c-1.562,-0 -2.866,-0.521 -3.125,-1.304c-0.521,-1.042 -0.783,-6.771 -0.783,-13.021c-0,-8.071 0.262,-17.188 0.783,-19.271c0.521,-4.425 12.5,-9.896 19.009,-9.896c1.825,0 3.387,0.521 3.908,1.563c0.521,1.304 1.042,7.812 1.042,14.845c-0,7.03 -0.521,14.321 -1.042,16.667m17.967,-42.45c1.825,-0.779 3.125,-2.862 3.125,-4.425l-0,-18.492c-0,-1.3 -0.78,-2.083 -1.821,-2.083c-0.521,0 -0.784,0 -1.304,0.263c-0,-0 -5.209,2.083 -6.509,2.341c-1.825,0 -3.646,-1.3 -3.646,-3.383l0,-31.771c0,-1.562 -1.562,-2.867 -3.645,-2.867c-2.605,0 -4.167,1.305 -4.167,2.867l-0,33.854c-0.263,2.604 -1.042,5.988 -3.388,7.55c-3.125,1.825 -11.979,5.471 -16.404,6.513c-2.346,-0 -3.125,-3.125 -3.125,-5.209l0,-31.25c0,-1.562 -1.825,-2.866 -3.646,-2.866c-2.604,-0 -4.166,1.304 -4.166,2.866l-0,35.155c-0,3.645 -1.563,6.25 -3.125,7.033c-1.563,0.779 -6.771,2.862 -6.771,2.862c-1.825,0.521 -3.125,2.605 -3.125,4.167l-0,18.492c-0,1.562 0.779,2.341 2.083,2.341c1.042,0 5.988,-2.341 6.771,-2.862c0.258,-0 0.521,-0.263 0.779,-0.263c1.825,0 3.388,2.605 3.388,4.688l-0,25.783c-0,2.863 -1.304,5.209 -2.867,5.988c-1.562,0.521 -7.029,2.866 -7.029,2.866c-1.825,0.521 -3.125,2.605 -3.125,4.167l-0,18.488c-0,1.562 0.779,2.345 2.083,2.345c0.259,0 0.779,-0.262 1.042,-0.262c-0,-0 3.646,-1.563 5.987,-2.342c0.263,-0.262 0.521,-0.262 0.784,-0.262c1.821,-0 3.125,2.866 3.125,4.166l-0,32.034c-0,1.562 1.562,2.862 3.383,2.862c2.604,0 4.429,-1.3 4.429,-2.862l0,-36.2c0,-3.384 1.3,-5.209 2.604,-5.729l15.884,-6.509c0.262,0 0.783,-0.262 1.041,-0.262c2.084,-0 3.388,3.125 3.388,4.687l-0,32.554c-0,1.563 1.562,2.863 3.383,2.863c2.867,-0 4.429,-1.3 4.429,-2.863l0,-36.979c0,-2.083 1.042,-5.208 2.863,-5.991c1.825,-0.78 7.292,-2.863 7.292,-2.863c1.825,-0.783 3.125,-2.867 3.125,-4.429l-0,-18.488c-0,-1.304 -0.78,-2.083 -1.821,-2.083c-0.521,0 -0.784,0 -1.304,0.258l-6.771,2.605c-1.563,-0 -3.384,-1.563 -3.384,-4.688l0,-24.217c0,-1.825 1.3,-6.77 3.384,-7.554l6.771,-2.604" style="fill-rule:nonzero;"/></g><g><path d="M2039.19,1616.21c23.179,0 51.562,-21.354 51.562,-43.491c0,-13.28 -10.416,-21.613 -25.258,-21.613c-28.646,0 -51.563,21.092 -51.563,43.488c0,13.541 11.196,21.616 25.259,21.616" style="fill-rule:nonzero;"/></g><g><path d="M2150.43,1605.79c0,-3.646 15.888,-10.417 22.138,-10.417c1.562,-0 2.341,0.258 2.341,1.3l0,26.825c0,4.687 -14.841,10.675 -21.354,10.675c-1.821,0 -3.125,-0.521 -3.125,-1.563l0,-26.82m27.084,-36.98c-0.521,0 -0.78,0.259 -1.042,0.259c-0,-0 -16.667,5.991 -23.438,5.991c-1.562,0 -2.604,-0.262 -2.604,-1.304l0,-43.487c0,-1.825 -1.562,-3.125 -3.125,-3.125l-3.383,-0c-1.825,-0 -3.125,1.3 -3.125,3.125l-0,134.112c-0,1.563 0.779,2.346 2.083,2.346c0.259,0 1.563,-0.262 1.821,-0.521c3.646,-1.562 18.229,-7.812 25.783,-7.812c2.605,-0 4.425,0.779 4.425,2.862l0,38.804c0,1.821 1.305,3.125 3.125,3.125l3.388,0c1.562,0 3.125,-1.304 3.125,-3.125l-0,-130.729c-0,-1.304 -1.042,-2.083 -2.083,-2.083c-0.263,-0 -0.784,-0 -1.042,0.258l-3.908,1.304" style="fill-rule:nonzero;"/></g><g><path d="M2225.94,1648.5c23.179,0 51.562,-21.354 51.562,-43.492c0,-13.279 -10.417,-21.612 -25.258,-21.612c-28.646,-0 -51.563,21.092 -51.563,43.487c0,13.542 11.196,21.617 25.259,21.617" style="fill-rule:nonzero;"/></g><g><path d="M2339.77,1637.04c-0,-0 -0.784,-15.625 -0.784,-26.042c0,-4.167 0.263,-7.292 0.521,-8.333c1.825,-5.209 12.242,-12.763 18.229,-12.763c7.555,0 10.68,8.596 10.68,15.104c-0,14.063 -11.98,28.125 -23.18,35.159c-1.041,0.52 -1.82,0.779 -2.604,0.779c-2.341,-0 -2.862,-2.604 -2.862,-3.904m-9.117,23.175c0.783,1.041 1.563,1.304 2.346,1.304c0.779,-0 1.562,-0.521 1.562,-0.521c7.813,-4.429 14.063,-11.458 20.571,-15.888c23.179,-16.145 31.25,-32.029 31.25,-44.008c0,-14.846 -11.458,-24.221 -23.437,-25c-4.425,0 -10.675,2.083 -14.321,4.425c-1.563,1.304 -4.429,3.646 -5.729,3.646c-0.521,-0 -0.784,-0 -1.304,-0.258c-1.821,-0.784 -2.863,-2.605 -2.863,-4.43c0.258,-5.729 1.821,-68.229 1.821,-73.437c-0,-2.863 -2.342,-4.425 -4.946,-4.425c-3.646,-0 -7.812,2.604 -8.075,7.292c0,-0 1.042,148.695 3.125,151.3" style="fill-rule:nonzero;"/></g><g><path d="M2427.73,1648.5c23.18,0 51.563,-21.354 51.563,-43.492c-0,-13.279 -10.417,-21.612 -25.258,-21.612c-28.646,-0 -51.563,21.092 -51.563,43.487c0,13.542 11.196,21.617 25.258,21.617" style="fill-rule:nonzero;"/></g><g><path d="M2541.58,1669.33c0,0 -0.779,-15.625 -0.779,-26.041c-0,-4.167 0.258,-7.292 0.521,-8.334c1.821,-5.208 12.237,-12.762 18.229,-12.762c7.55,-0 10.675,8.596 10.675,15.104c-0,14.063 -11.979,28.125 -23.175,35.158c-1.042,0.521 -1.825,0.78 -2.604,0.78c-2.346,-0 -2.867,-2.605 -2.867,-3.905m-9.112,23.175c0.779,1.042 1.562,1.304 2.341,1.304c0.784,0 1.563,-0.52 1.563,-0.52c7.812,-4.429 14.062,-11.459 20.575,-15.888c23.175,-16.146 31.25,-32.029 31.25,-44.008c-0,-14.846 -11.459,-24.221 -23.438,-25c-4.429,-0 -10.679,2.083 -14.325,4.425c-1.562,1.304 -4.425,3.646 -5.729,3.646c-0.521,-0 -0.779,-0 -1.3,-0.259c-1.825,-0.783 -2.867,-2.604 -2.867,-4.429c0.263,-5.729 1.825,-68.229 1.825,-73.437c0,-2.863 -2.345,-4.425 -4.95,-4.425c-3.645,-0 -7.812,2.604 -8.07,7.291c-0,0 1.041,148.696 3.125,151.3" style="fill-rule:nonzero;"/></g><g><path d="M2629.53,1680.79c23.175,-0 51.563,-21.355 51.563,-43.492c-0,-13.279 -10.417,-21.613 -25.263,-21.613c-28.645,0 -51.562,21.092 -51.562,43.488c-0,13.542 11.2,21.617 25.262,21.617" style="fill-rule:nonzero;"/></g><g><path d="M2774.28,1713.08c23.18,0 51.563,-21.354 51.563,-43.491c-0,-13.28 -10.417,-21.613 -25.258,-21.613c-28.646,0 -51.563,21.092 -51.563,43.488c0,13.541 11.196,21.616 25.258,21.616" style="fill-rule:nonzero;"/></g><g><path d="M3036.34,1664.12c2.862,-9.117 12.5,-10.417 20.571,-10.417c17.97,0 32.291,19.271 32.291,34.896c0,8.071 -3.383,15.363 -11.979,17.446c-2.604,0.783 -5.467,1.042 -8.071,1.042c-9.375,-0 -19.012,-6.25 -24.479,-13.542c-5.208,-5.987 -9.117,-14.842 -9.117,-23.175c0,-2.083 0.263,-4.167 0.784,-6.25m27.341,-16.146c-34.633,0 -56.25,14.321 -56.25,32.029c0,17.45 14.846,33.075 53.646,33.075c42.709,0 56.25,-14.845 56.25,-33.075c0,-18.487 -29.425,-32.029 -53.646,-32.029" style="fill-rule:nonzero;"/></g><g><path d="M135.668,1386.26c0.779,4.95 0.779,4.688 -3.909,6.25c-22.916,7.813 -37.758,28.388 -37.758,50.521c0,23.438 12.238,40.104 29.946,46.096c2.083,0.779 5.208,1.563 7.033,1.563c2.084,-0.001 3.125,-1.305 3.125,-2.867c0,-1.821 -2.083,-2.604 -3.908,-3.384c-10.938,-4.687 -18.75,-15.887 -18.75,-27.866c-0,-14.842 10.158,-26.042 26.042,-30.467c4.166,-1.042 4.687,-0.783 5.208,2.083l13.021,77.605c0.521,2.862 0.262,2.862 -3.646,3.645c-4.167,0.78 -9.375,1.301 -14.583,1.301c-45.571,-0 -75,-25.259 -75,-61.459c-0,-15.362 2.604,-35.937 24.22,-60.416c15.625,-17.446 27.605,-27.084 39.842,-36.98c2.604,-2.083 3.125,-1.821 3.646,1.042l5.471,33.333m28.383,-177.341c8.596,-0 15.625,7.029 15.625,21.354c0,28.904 -24.737,52.342 -45.312,70.312c-1.821,1.563 -2.863,1.3 -3.384,-2.083c-1.041,-6.771 -1.562,-15.625 -1.562,-23.958c-0,-40.625 18.75,-65.625 34.633,-65.625m-10.417,218.75c-0.52,-3.125 -0.258,-3.909 2.867,-3.646c21.092,1.821 38.542,19.529 38.542,42.446c-0,16.408 -9.896,29.687 -24.479,36.979c-3.125,1.562 -3.646,1.562 -4.167,-1.563l-12.763,-74.216m-14.062,-81.25c-0.521,-3.125 -0,-3.388 1.562,-4.95c28.125,-26.3 49.48,-59.375 49.48,-99.217c-0,-22.658 -6.25,-45.054 -16.925,-60.679c-3.909,-5.729 -10.68,-13.021 -13.542,-13.021c-3.646,0 -11.721,6.771 -16.929,12.5c-19.271,21.354 -25.521,53.908 -25.521,80.992c-0,15.104 1.825,32.029 3.646,42.708c0.521,3.125 0.783,3.646 -2.342,6.25c-37.5,30.988 -77.346,68.229 -77.346,120.833c0,45.313 30.992,88.28 94.792,88.28c5.992,-0 12.762,-0.521 17.971,-1.563c2.862,-0.521 3.383,-0.779 3.904,2.346c3.125,17.446 7.033,40.104 7.033,52.342c0,38.541 -26.041,43.229 -41.408,43.229c-14.063,-0 -20.833,-4.167 -20.833,-7.55c-0,-1.825 2.345,-2.604 8.333,-4.429c8.075,-2.342 17.45,-9.375 17.45,-24.48c-0,-14.32 -9.117,-26.562 -25,-26.562c-17.45,-0 -27.867,13.804 -27.867,29.95c0,16.925 10.159,42.446 49.479,42.446c17.45,-0 51.305,-7.813 51.305,-52.084c-0,-14.841 -4.688,-39.583 -7.555,-55.729c-0.52,-3.125 -0.258,-2.862 3.388,-4.425c26.3,-10.416 43.75,-32.554 43.75,-61.979c-0,-33.333 -24.479,-62.762 -62.763,-62.762c-6.77,-0 -6.77,-0 -7.55,-4.688l-6.512,-37.758" style="fill-rule:nonzero;"/></g><g><path d="M361.58,1519.93l0,-32.633l448.175,64.583l0,32.634l-448.175,-64.584" style="fill-rule:nonzero;"/></g><g><path d="M361.58,1470.98l0,-32.645l448.175,64.583l0,32.646l-448.175,-64.584" style="fill-rule:nonzero;"/></g><g><path d="M1031.89,1212.19l-0,-32.367l489.195,32.292l0,32.366l-489.195,-32.291" style="fill-rule:nonzero;"/></g><g><path d="M1031.89,1260.73l-0,-32.366l489.195,32.291l0,32.367l-489.195,-32.292" style="fill-rule:nonzero;"/></g><g><path d="M1642.57,1276.08l-0,-32.829l448.175,80.729l-0,32.829l-448.175,-80.729" style="fill-rule:nonzero;"/></g><g><path d="M1642.57,1325.32l-0,-32.825l448.175,80.729l-0,32.825l-448.175,-80.729" style="fill-rule:nonzero;"/></g><g><path d="M2269.78,1406.02l0,-32.304l555.992,16.146l-0,32.304l-555.992,-16.146" style="fill-rule:nonzero;"/></g><g><path d="M2269.78,1454.48l0,-32.304l555.992,16.146l-0,32.304l-555.992,-16.146" style="fill-rule:nonzero;"/></g></g></svg>