<?xml version="1.0" encoding="UTF-8" standalone="no"?><!DOCTYPE svg PUBLIC "-//W3C//DTD SVG 1.1//EN" "http://www.w3.org/Graphics/SVG/1.1/DTD/svg11.dtd"><svg width="100%" height="100%" viewBox="0 0 28725 7522" version="1.1" xmlns="http://www.w3.org/2000/svg" xmlns:xlink="http://www.w3.org/1999/xlink" xml:space="preserve" xmlns:serif="http://www.serif.com/" style="fill-rule:evenodd;clip-rule:evenodd;stroke-miterlimit:2;"><g><g><path d="M39.224,1485.7l28645.8,-0" style="fill:none;stroke:#000;stroke-width:35.08px;"/><path d="M39.224,2292.99l28645.8,-0" style="fill:none;stroke:#000;stroke-width:35.08px;"/><path d="M39.224,1754.79l28645.8,-0" style="fill:none;stroke:#000;stroke-width:35.08px;"/><path d="M39.224,2023.89l28645.8,-0" style="fill:none;stroke:#000;stroke-width:35.08px;"/><path d="M39.224,2562.08l28645.8,0" style="fill:none;stroke:#000;stroke-width:35.08px;"/></g><g><path d="M10285.6,1468.23l-0,1111.32" style="fill:none;stroke:#000;stroke-width:43.04px;"/><path d="M19444.1,1468.23l0,1111.32" style="fill:none;stroke:#000;stroke-width:43.04px;"/><path d="M28663.3,1468.23l0,1111.32" style="fill:none;stroke:#000;stroke-width:43.04px;"/></g><g><path d="M1810.6,2090.57l0,1099.06" style="fill:none;stroke:#000;stroke-width:32.29px;"/></g><g><path d="M1399.36,3100.28l535.487,0" style="fill:none;stroke:#000;stroke-width:43.04px;"/><path d="M1399.36,2831.18l535.487,0" style="fill:none;stroke:#000;stroke-width:43.04px;"/></g><g><path d="M2524.03,2023.3l-0,1031.79" style="fill:none;stroke:#000;stroke-width:32.29px;"/></g><g><path d="M2112.8,3100.28l534.934,0" style="fill:none;stroke:#000;stroke-width:43.04px;"/><path d="M2112.8,2831.18l534.934,0" style="fill:none;stroke:#000;stroke-width:43.04px;"/></g><g><path d="M3237.47,1956.03l0,964.513" style="fill:none;stroke:#000;stroke-width:32.29px;"/></g><g><path d="M2825.68,2831.18l535.487,0" style="fill:none;stroke:#000;stroke-width:43.04px;"/></g><g><path d="M4103.36,1821.48l-0,964.517" style="fill:none;stroke:#000;stroke-width:32.29px;"/></g><g><path d="M3754.5,2831.18l472.55,0" style="fill:none;stroke:#000;stroke-width:43.04px;"/></g><g><path d="M4816.22,1754.2l0,897.242" style="fill:none;stroke:#000;stroke-width:32.29px;"/><path d="M5529.68,1686.93l-0,829.963" style="fill:none;stroke:#000;stroke-width:32.29px;"/><path d="M6243.1,1550.59l0,831.754" style="fill:none;stroke:#000;stroke-width:32.29px;"/><path d="M6955.97,1416.04l0,831.754" style="fill:none;stroke:#000;stroke-width:32.29px;"/><path d="M7669.43,1281.51l-0,831.733" style="fill:none;stroke:#000;stroke-width:32.29px;"/><path d="M8094.77,2069.08l0,763.35" style="fill:none;stroke:#000;stroke-width:32.29px;"/><path d="M8853.81,1934.53l-0,793.888" style="fill:none;stroke:#000;stroke-width:32.29px;"/><path d="M9566.68,1799.98l-0,830.625" style="fill:none;stroke:#000;stroke-width:32.29px;"/><path d="M10727.1,1665.43l0,899.046" style="fill:none;stroke:#000;stroke-width:32.29px;"/><path d="M11440.6,1530.89l0,899.041" style="fill:none;stroke:#000;stroke-width:32.29px;"/><path d="M12154,1396.34l0,899.045" style="fill:none;stroke:#000;stroke-width:32.29px;"/><path d="M12866.9,1261.8l-0,829.846" style="fill:none;stroke:#000;stroke-width:32.29px;"/></g><g><path d="M12743.2,1216.6l535.488,-0" style="fill:none;stroke:#000;stroke-width:43.04px;"/></g><g><path d="M13580.3,1127.26l0,903.63" style="fill:none;stroke:#000;stroke-width:32.29px;"/></g><g><path d="M13456.6,1216.6l534.933,-0" style="fill:none;stroke:#000;stroke-width:43.04px;"/></g><g><path d="M14446.2,992.708l0,964.392" style="fill:none;stroke:#000;stroke-width:32.29px;"/></g><g><path d="M14384.9,947.5l472.533,0" style="fill:none;stroke:#000;stroke-width:43.04px;"/><path d="M14389.8,1216.6l467.654,-0" style="fill:none;stroke:#000;stroke-width:43.04px;"/></g><g><path d="M15159.7,858.158l0,1165.9" style="fill:none;stroke:#000;stroke-width:32.29px;"/></g><g><path d="M15035.4,947.5l535.483,0" style="fill:none;stroke:#000;stroke-width:43.04px;"/><path d="M15035.4,1216.6l535.483,-0" style="fill:none;stroke:#000;stroke-width:43.04px;"/></g><g><path d="M15872.6,723.613l-0,1266.8" style="fill:none;stroke:#000;stroke-width:32.29px;"/></g><g><path d="M15748.8,678.404l535.483,0" style="fill:none;stroke:#000;stroke-width:43.04px;"/><path d="M15748.8,947.5l535.483,0" style="fill:none;stroke:#000;stroke-width:43.04px;"/><path d="M15748.8,1216.6l535.483,-0" style="fill:none;stroke:#000;stroke-width:43.04px;"/></g><g><path d="M16585.9,589.063l-0,1367.73" style="fill:none;stroke:#000;stroke-width:32.29px;"/></g><g><path d="M16462.3,678.404l534.929,0" style="fill:none;stroke:#000;stroke-width:43.04px;"/><path d="M16462.3,947.5l534.929,0" style="fill:none;stroke:#000;stroke-width:43.04px;"/><path d="M16462.3,1216.6l534.929,-0" style="fill:none;stroke:#000;stroke-width:43.04px;"/></g><g><path d="M17298.9,589.063l-0,1368.16" style="fill:none;stroke:#000;stroke-width:32.29px;"/></g><g><path d="M17175.1,678.404l535.488,0" style="fill:none;stroke:#000;stroke-width:43.04px;"/><path d="M17175.1,947.5l535.488,0" style="fill:none;stroke:#000;stroke-width:43.04px;"/><path d="M17175.1,1216.6l535.488,-0" style="fill:none;stroke:#000;stroke-width:43.04px;"/></g><g><path d="M18012.3,723.613l-0,1300.88" style="fill:none;stroke:#000;stroke-width:32.29px;"/></g><g><path d="M17888.7,678.404l535.487,0" style="fill:none;stroke:#000;stroke-width:43.04px;"/><path d="M17888.7,947.5l535.487,0" style="fill:none;stroke:#000;stroke-width:43.04px;"/><path d="M17888.7,1216.6l535.487,-0" style="fill:none;stroke:#000;stroke-width:43.04px;"/></g><g><path d="M18725.7,858.158l-0,1233.61" style="fill:none;stroke:#000;stroke-width:32.29px;"/></g><g><path d="M18602.1,947.5l534.933,0" style="fill:none;stroke:#000;stroke-width:43.04px;"/><path d="M18602.1,1216.6l534.933,-0" style="fill:none;stroke:#000;stroke-width:43.04px;"/></g><g><path d="M20054.3,992.708l-0,964.513" style="fill:none;stroke:#000;stroke-width:32.29px;"/></g><g><path d="M19993.1,947.5l472.55,0" style="fill:none;stroke:#000;stroke-width:43.04px;"/><path d="M19998.1,1216.6l467.675,-0" style="fill:none;stroke:#000;stroke-width:43.04px;"/></g><g><path d="M20767.3,1127.26l0,897.238" style="fill:none;stroke:#000;stroke-width:32.29px;"/></g><g><path d="M20643.6,1216.6l535.466,-0" style="fill:none;stroke:#000;stroke-width:43.04px;"/></g><g><path d="M21480.7,1261.8l0,829.967" style="fill:none;stroke:#000;stroke-width:32.29px;"/></g><g><path d="M21357.1,1216.6l535.484,-0" style="fill:none;stroke:#000;stroke-width:43.04px;"/></g><g><path d="M22194.3,1396.34l0,899.045" style="fill:none;stroke:#000;stroke-width:32.29px;"/><path d="M22907.1,1530.89l0,899.041" style="fill:none;stroke:#000;stroke-width:32.29px;"/><path d="M23620.5,1665.43l0,899.046" style="fill:none;stroke:#000;stroke-width:32.29px;"/><path d="M24333.8,1799.98l0,830.625" style="fill:none;stroke:#000;stroke-width:32.29px;"/><path d="M25091.8,1934.53l-0,800.084" style="fill:none;stroke:#000;stroke-width:32.29px;"/><path d="M25805.3,2069.08l0,763.35" style="fill:none;stroke:#000;stroke-width:32.29px;"/><path d="M26806.2,1281.51l0,831.733" style="fill:none;stroke:#000;stroke-width:32.29px;"/><path d="M27519.1,1416.04l0,831.754" style="fill:none;stroke:#000;stroke-width:32.29px;"/><path d="M28232.6,1550.59l-0.017,831.754" style="fill:none;stroke:#000;stroke-width:32.29px;"/></g><g><path d="M1604.82,1067.95c0,0 -1.096,4.342 -1.096,7.588c0,4.341 4.342,8.679 8.684,8.679c3.262,-0 5.433,-3.246 6.508,-4.338c1.096,-3.246 14.117,-47.746 20.625,-58.596c2.171,-4.337 4.342,-5.416 5.417,-5.416c2.17,-0 3.262,4.341 3.262,7.587l0,155.175c0,13.021 -10.85,20.609 -21.7,20.609c-4.342,-0 -9.775,2.166 -9.775,8.679c0,6.508 5.433,8.679 14.117,8.679l91.146,-0c8.679,-0 8.679,-8.679 8.679,-8.679c-0,-0 -0,-8.679 -8.679,-8.679c-7.605,-0 -17.363,-9.759 -17.363,-19.534l0,-225.696c0,-8.679 -3.262,-13.02 -10.85,-13.02c-7.604,-0 -14.117,2.17 -20.625,2.17c-10.85,0 -13.021,0 -21.7,-2.17c-4.342,-0 -9.758,6.512 -13.021,10.854l-33.629,116.108" style="fill-rule:nonzero;"/></g><g><path d="M2487.78,1129.79c-0,-7.588 -3.263,-8.679 -6.509,-8.679c-4.341,-0 -6.512,3.262 -7.604,6.508c-5.416,15.192 -17.362,34.725 -33.629,34.725c-2.171,-0 -4.342,-0 -6.512,-1.079l-16.284,-5.434c-10.85,-4.341 -36.891,-13.02 -58.591,-13.02c-7.588,-0 -14.1,1.095 -20.609,3.262c11.925,-20.625 68.35,-47.742 80.296,-51.004c39.063,-5.417 71.613,-28.213 71.613,-70.521c-0,-26.042 -10.85,-43.404 -24.967,-56.425c-28.208,-22.796 -69.442,-26.042 -81.371,-26.042c-39.062,0 -70.537,2.171 -98.75,34.721c-7.587,8.684 -10.85,17.363 -10.85,26.042c0,7.587 3.263,16.271 6.513,26.042c6.508,13.02 20.625,22.779 35.812,22.779c27.121,-0 30.383,-26.042 30.383,-37.967c0,-24.967 -27.133,-27.137 -27.133,-37.987c0,-7.588 10.85,-20.609 43.4,-20.609c51.008,0 68.371,42.309 68.371,55.329c-0,19.534 -6.513,37.988 -17.363,53.18c-19.533,24.945 -55.345,33.625 -82.466,50.987c-30.379,18.454 -51.004,49.913 -60.763,84.638c0,7.604 3.246,16.283 9.759,19.529c1.091,1.096 3.262,1.096 4.337,1.096c11.946,-0 18.454,-33.646 51.008,-33.646c21.7,-0 29.288,29.304 78.125,29.304c22.78,-0 65.105,-2.171 73.784,-85.729" style="fill-rule:nonzero;"/></g><g><path d="M3151.26,1118.94l-0,-116.096c-0,-5.433 -1.096,-9.771 -6.513,-9.771c-4.341,0 -7.604,1.092 -10.85,5.433l-32.554,62.934c-2.167,2.17 -5.433,5.416 -5.433,13.021l-0,44.479l-70.521,-0c44.479,-36.892 113.925,-159.496 115.017,-166.009c-0,-1.091 1.079,-2.17 1.079,-3.262c-0,-4.342 -4.342,-7.588 -7.588,-7.588c-5.433,0 -28.212,2.171 -37.987,2.171c-9.754,0 -16.267,-2.171 -20.609,-2.171c-5.433,0 -13.02,2.171 -13.02,10.85c-0,69.446 -56.421,148.646 -70.538,168.18c-2.171,2.166 -4.337,5.433 -4.337,8.679c-0,5.433 4.337,10.85 10.85,10.85l97.654,-0l-0,33.646c-0,15.191 -8.679,19.533 -17.359,19.533c-9.758,-0 -14.1,4.337 -14.1,9.754c0,5.438 2.171,11.946 11.93,11.946l93.316,-0c5.434,-0 10.85,-4.342 10.85,-11.946c0,-7.583 -6.512,-10.85 -11.929,-10.85c-5.433,0 -17.358,-3.246 -17.358,-20.608l-0,-31.475l40.137,-0c5.434,-0 8.679,-4.342 8.679,-10.85c0,-6.513 -2.17,-10.85 -8.679,-10.85l-40.137,-0" style="fill-rule:nonzero;"/></g><g><path d="M3897.14,1067.95c0,0 -1.092,4.342 -1.092,7.588c0,4.341 4.338,8.679 8.68,8.679c3.262,-0 5.433,-3.246 6.508,-4.338c1.096,-3.246 14.117,-47.746 20.625,-58.596c2.171,-4.337 4.342,-5.416 5.417,-5.416c2.17,-0 3.266,4.341 3.266,7.587l0,155.175c0,13.021 -10.85,20.609 -21.704,20.609c-4.337,-0 -9.771,2.166 -9.771,8.679c0,6.508 5.434,8.679 14.113,8.679l91.146,-0c8.679,-0 8.679,-8.679 8.679,-8.679c-0,-0 -0,-8.679 -8.679,-8.679c-7.605,-0 -17.363,-9.759 -17.363,-19.534l0,-225.696c0,-8.679 -3.262,-13.02 -10.85,-13.02c-7.604,-0 -14.112,2.17 -20.625,2.17c-10.85,0 -13.021,0 -21.7,-2.17c-4.342,-0 -9.758,6.512 -13.021,10.854l-33.629,116.108" style="fill-rule:nonzero;"/></g><g><path d="M4780.1,1129.79c0,-7.588 -3.25,-8.679 -6.512,-8.679c-4.342,-0 -6.508,3.262 -7.588,6.508c-5.433,15.192 -17.358,34.725 -33.645,34.725c-2.171,-0 -4.338,-0 -6.509,-1.079l-16.266,-5.434c-10.855,-4.341 -36.896,-13.02 -58.596,-13.02c-7.604,-0 -14.113,1.095 -20.625,3.262c11.946,-20.625 68.366,-47.742 80.296,-51.004c39.062,-5.417 71.612,-28.213 71.612,-70.521c0,-26.042 -10.85,-43.404 -24.946,-56.425c-28.212,-22.796 -69.446,-26.042 -81.387,-26.042c-39.063,0 -70.521,2.171 -98.734,34.721c-7.604,8.684 -10.85,17.363 -10.85,26.042c0,7.587 3.246,16.271 6.509,26.042c6.512,13.02 20.608,22.779 35.8,22.779c27.133,-0 30.379,-26.042 30.379,-37.967c-0,-24.967 -27.117,-27.137 -27.117,-37.987c0,-7.588 10.85,-20.609 43.404,-20.609c50.988,0 68.35,42.309 68.35,55.329c0,19.534 -6.512,37.988 -17.362,53.18c-19.529,24.945 -55.329,33.625 -82.463,50.987c-30.383,18.454 -50.991,49.913 -60.766,84.638c-0,7.604 3.266,16.283 9.775,19.529c1.075,1.096 3.246,1.096 4.341,1.096c11.925,-0 18.438,-33.646 50.988,-33.646c21.704,-0 29.308,29.304 78.125,29.304c22.796,-0 65.104,-2.171 73.787,-85.729" style="fill-rule:nonzero;"/></g><g><path d="M5443.6,1118.94l0,-116.096c0,-5.433 -1.095,-9.771 -6.512,-9.771c-4.338,0 -7.604,1.092 -10.85,5.433l-32.55,62.934c-2.171,2.17 -5.433,5.416 -5.433,13.021l-0,44.479l-70.521,-0c44.479,-36.892 113.921,-159.496 115.016,-166.009c0,-1.091 1.075,-2.17 1.075,-3.262c0,-4.342 -4.341,-7.588 -7.587,-7.588c-5.433,0 -28.213,2.171 -37.983,2.171c-9.759,0 -16.271,-2.171 -20.609,-2.171c-5.433,0 -13.021,2.171 -13.021,10.85c0,69.446 -56.425,148.646 -70.537,168.18c-2.171,2.166 -4.342,5.433 -4.342,8.679c0,5.433 4.342,10.85 10.85,10.85l97.659,-0l-0,33.646c-0,15.191 -8.684,19.533 -17.363,19.533c-9.758,-0 -14.096,4.337 -14.096,9.754c0,5.438 2.167,11.946 11.925,11.946l93.317,-0c5.433,-0 10.85,-4.342 10.85,-11.946c-0,-7.583 -6.508,-10.85 -11.925,-10.85c-5.438,0 -17.363,-3.246 -17.363,-20.608l0,-31.475l40.138,-0c5.433,-0 8.683,-4.342 8.683,-10.85c0,-6.513 -2.171,-10.85 -8.683,-10.85l-40.138,-0" style="fill-rule:nonzero;"/></g><g><path d="M6156.81,1118.94l-0,-116.096c-0,-5.433 -1.096,-9.771 -6.513,-9.771c-4.337,0 -7.604,1.092 -10.85,5.433l-32.55,62.934c-2.171,2.17 -5.437,5.416 -5.437,13.021l-0,44.479l-70.521,-0c44.479,-36.892 113.925,-159.496 115.021,-166.009c-0,-1.091 1.075,-2.17 1.075,-3.262c-0,-4.342 -4.342,-7.588 -7.588,-7.588c-5.433,0 -28.212,2.171 -37.987,2.171c-9.754,0 -16.267,-2.171 -20.604,-2.171c-5.438,0 -13.021,2.171 -13.021,10.85c-0,69.446 -56.425,148.646 -70.542,168.18c-2.167,2.166 -4.337,5.433 -4.337,8.679c-0,5.433 4.337,10.85 10.85,10.85l97.654,-0l-0,33.646c-0,15.191 -8.679,19.533 -17.359,19.533c-9.758,-0 -14.1,4.337 -14.1,9.754c0,5.438 2.171,11.946 11.93,11.946l93.316,-0c5.434,-0 10.85,-4.342 10.85,-11.946c0,-7.583 -6.512,-10.85 -11.929,-10.85c-5.433,0 -17.358,-3.246 -17.358,-20.608l-0,-31.475l40.137,-0c5.434,-0 8.679,-4.342 8.679,-10.85c0,-6.513 -2.166,-10.85 -8.679,-10.85l-40.137,-0" style="fill-rule:nonzero;"/></g><g><path d="M6750.1,1067.95c0,0 -1.095,4.342 -1.095,7.588c-0,4.341 4.341,8.679 8.679,8.679c3.266,-0 5.437,-3.246 6.512,-4.338c1.092,-3.246 14.113,-47.746 20.625,-58.596c2.171,-4.337 4.342,-5.416 5.417,-5.416c2.171,-0 3.262,4.341 3.262,7.587l0,155.175c0,13.021 -10.85,20.609 -21.7,20.609c-4.341,-0 -9.775,2.166 -9.775,8.679c0,6.508 5.434,8.679 14.117,8.679l91.146,-0c8.679,-0 8.679,-8.679 8.679,-8.679c0,-0 0,-8.679 -8.679,-8.679c-7.604,-0 -17.363,-9.759 -17.363,-19.534l0,-225.696c0,-8.679 -3.262,-13.02 -10.85,-13.02c-7.604,-0 -14.116,2.17 -20.625,2.17c-10.85,0 -13.02,0 -21.704,-2.17c-4.337,-0 -9.754,6.512 -13.021,10.854l-33.625,116.108" style="fill-rule:nonzero;"/></g><g><path d="M7633.06,992.604c-0,-7.587 -3.246,-8.679 -6.509,-8.679c-4.341,0 -6.512,3.262 -7.587,6.508c-5.433,15.192 -17.363,34.721 -33.646,34.721c-2.171,0 -4.342,0 -6.512,-1.075l-16.267,-5.433c-10.85,-4.342 -36.892,-13.021 -58.592,-13.021c-7.604,0 -14.116,1.096 -20.625,3.263c11.942,-20.625 68.367,-47.742 80.292,-51.005c39.062,-5.416 71.617,-28.212 71.617,-70.521c-0,-26.041 -10.85,-43.404 -24.95,-56.425c-28.209,-22.795 -69.442,-26.041 -81.388,-26.041c-39.062,-0 -70.521,2.171 -98.733,34.721c-7.604,8.683 -10.85,17.362 -10.85,26.041c-0,7.588 3.246,16.271 6.512,26.042c6.509,13.021 20.604,22.779 35.796,22.779c27.138,0 30.383,-26.042 30.383,-37.967c0,-24.966 -27.116,-27.137 -27.116,-37.987c-0,-7.588 10.85,-20.608 43.4,-20.608c50.991,-0 68.35,42.308 68.35,55.329c-0,19.533 -6.509,37.987 -17.359,53.179c-19.533,24.946 -55.329,33.625 -82.466,50.987c-30.384,18.455 -50.988,49.913 -60.763,84.638c0,7.604 3.263,16.283 9.775,19.529c1.075,1.096 3.246,1.096 4.338,1.096c11.929,-0 18.437,-33.646 50.991,-33.646c21.7,0 29.305,29.304 78.125,29.304c22.796,0 65.105,-2.171 73.784,-85.729" style="fill-rule:nonzero;"/></g><g><path d="M8296.56,1118.94l-0,-116.096c-0,-5.433 -1.092,-9.771 -6.509,-9.771c-4.341,0 -7.604,1.092 -10.85,5.433l-32.554,62.934c-2.171,2.17 -5.433,5.416 -5.433,13.021l-0,44.479l-70.521,-0c44.479,-36.892 113.925,-159.496 115.017,-166.009c-0,-1.091 1.079,-2.17 1.079,-3.262c-0,-4.342 -4.342,-7.588 -7.588,-7.588c-5.433,0 -28.212,2.171 -37.987,2.171c-9.758,0 -16.267,-2.171 -20.608,-2.171c-5.434,0 -13.021,2.171 -13.021,10.85c-0,69.446 -56.421,148.646 -70.538,168.18c-2.171,2.166 -4.341,5.433 -4.341,8.679c-0,5.433 4.341,10.85 10.854,10.85l97.654,-0l-0,33.646c-0,15.191 -8.679,19.533 -17.363,19.533c-9.754,-0 -14.095,4.337 -14.095,9.754c-0,5.438 2.17,11.946 11.929,11.946l93.312,-0c5.438,-0 10.854,-4.342 10.854,-11.946c0,-7.583 -6.512,-10.85 -11.929,-10.85c-5.433,0 -17.362,-3.246 -17.362,-20.608l-0,-31.475l40.141,-0c5.434,-0 8.68,-4.342 8.68,-10.85c-0,-6.513 -2.171,-10.85 -8.68,-10.85l-40.141,-0" style="fill-rule:nonzero;"/></g><g><path d="M8935.35,1067.95c0,0 -1.095,4.342 -1.095,7.588c-0,4.341 4.341,8.679 8.683,8.679c3.262,-0 5.433,-3.246 6.508,-4.338c1.096,-3.246 14.117,-47.746 20.625,-58.596c2.171,-4.337 4.342,-5.416 5.417,-5.416c2.171,-0 3.262,4.341 3.262,7.587l0,155.175c0,13.021 -10.85,20.609 -21.7,20.609c-4.341,-0 -9.775,2.166 -9.775,8.679c0,6.508 5.434,8.679 14.117,8.679l91.146,-0c8.679,-0 8.679,-8.679 8.679,-8.679c0,-0 0,-8.679 -8.679,-8.679c-7.604,-0 -17.363,-9.759 -17.363,-19.534l0,-225.696c0,-8.679 -3.262,-13.02 -10.85,-13.02c-7.604,-0 -14.116,2.17 -20.625,2.17c-10.85,0 -13.02,0 -21.7,-2.17c-4.341,-0 -9.758,6.512 -13.02,10.854l-33.63,116.108" style="fill-rule:nonzero;"/></g><g><path d="M9818.31,1129.79c-0,-7.588 -3.246,-8.679 -6.509,-8.679c-4.341,-0 -6.512,3.262 -7.587,6.508c-5.433,15.192 -17.363,34.725 -33.646,34.725c-2.171,-0 -4.342,-0 -6.512,-1.079l-16.267,-5.434c-10.85,-4.341 -36.892,-13.02 -58.592,-13.02c-7.604,-0 -14.116,1.095 -20.625,3.262c11.942,-20.625 68.367,-47.742 80.296,-51.004c39.063,-5.417 71.613,-28.213 71.613,-70.521c-0,-26.042 -10.85,-43.404 -24.946,-56.425c-28.213,-22.796 -69.446,-26.042 -81.392,-26.042c-39.062,0 -70.521,2.171 -98.733,34.721c-7.604,8.684 -10.85,17.363 -10.85,26.042c-0,7.587 3.246,16.271 6.512,26.042c6.509,13.02 20.609,22.779 35.796,22.779c27.138,-0 30.383,-26.042 30.383,-37.967c0,-24.967 -27.116,-27.137 -27.116,-37.987c-0,-7.588 10.85,-20.609 43.4,-20.609c50.991,0 68.354,42.309 68.354,55.329c-0,19.534 -6.513,37.988 -17.363,53.18c-19.533,24.945 -55.329,33.625 -82.466,50.987c-30.379,18.454 -50.988,49.913 -60.763,84.638c0,7.604 3.263,16.283 9.775,19.529c1.075,1.096 3.246,1.096 4.338,1.096c11.929,-0 18.437,-33.646 50.991,-33.646c21.7,-0 29.305,29.304 78.125,29.304c22.796,-0 65.105,-2.171 73.784,-85.729" style="fill-rule:nonzero;"/></g><g><path d="M10929,1118.94l0,-116.096c0,-5.433 -1.079,-9.771 -6.512,-9.771c-4.338,0 -7.588,1.092 -10.85,5.433l-32.55,62.934c-2.171,2.17 -5.417,5.416 -5.417,13.021l0,44.479l-70.541,-0c44.5,-36.892 113.941,-159.496 115.02,-166.009c0,-1.091 1.092,-2.17 1.092,-3.262c0,-4.342 -4.342,-7.588 -7.604,-7.588c-5.417,0 -28.213,2.171 -37.967,2.171c-9.775,0 -16.287,-2.171 -20.625,-2.171c-5.416,0 -13.021,2.171 -13.021,10.85c0,69.446 -56.425,148.646 -70.52,168.18c-2.171,2.166 -4.342,5.433 -4.342,8.679c-0,5.433 4.342,10.85 10.85,10.85l97.658,-0l0,33.646c0,15.191 -8.683,19.533 -17.362,19.533c-9.775,-0 -14.117,4.337 -14.117,9.754c0,5.438 2.171,11.946 11.946,11.946l93.317,-0c5.416,-0 10.85,-4.342 10.85,-11.946c-0,-7.583 -6.509,-10.85 -11.946,-10.85c-5.417,0 -17.359,-3.246 -17.359,-20.608l0,-31.475l40.155,-0c5.416,-0 8.683,-4.342 8.683,-10.85c-0,-6.513 -2.171,-10.85 -8.683,-10.85l-40.155,-0" style="fill-rule:nonzero;"/></g><g><path d="M11642.3,1118.7l0,-116.096c0,-5.433 -1.075,-9.775 -6.508,-9.775c-4.342,0 -7.588,1.096 -10.854,5.433l-32.55,62.938c-2.171,2.167 -5.417,5.417 -5.417,13.021l-0,44.479l-70.538,0c44.496,-36.896 113.942,-159.5 115.017,-166.008c0,-1.096 1.092,-2.171 1.092,-3.263c-0,-4.341 -4.338,-7.587 -7.604,-7.587c-5.417,-0 -28.209,2.166 -37.967,2.166c-9.775,0 -16.283,-2.166 -20.625,-2.166c-5.417,-0 -13.021,2.166 -13.021,10.85c0,69.441 -56.425,148.646 -70.521,168.175c-2.171,2.171 -4.341,5.433 -4.341,8.683c-0,5.433 4.341,10.85 10.85,10.85l97.658,0l-0,33.646c-0,15.192 -8.679,19.529 -17.363,19.529c-9.775,0 -14.112,4.342 -14.112,9.758c-0,5.434 2.171,11.946 11.942,11.946l93.316,0c5.417,0 10.85,-4.341 10.85,-11.946c0,-7.587 -6.508,-10.85 -11.941,-10.85c-5.417,0 -17.363,-3.245 -17.363,-20.608l0,-31.475l40.158,0c5.417,0 8.68,-4.342 8.68,-10.85c-0,-6.512 -2.171,-10.85 -8.68,-10.85l-40.158,0" style="fill-rule:nonzero;"/></g><g><path d="M12235.5,932.308c0,0 -1.075,4.342 -1.075,7.605c0,4.341 4.342,8.683 8.679,8.683c3.25,-0 5.417,-3.267 6.513,-4.342c1.075,-3.262 14.096,-47.741 20.608,-58.596c2.171,-4.337 4.338,-5.433 5.433,-5.433c2.171,0 3.246,4.342 3.246,7.604l0,155.158c0,13.021 -10.85,20.625 -21.7,20.625c-4.341,0 -9.758,2.171 -9.758,8.68c-0,6.512 5.417,8.679 14.096,8.679l91.146,-0c8.683,-0 8.683,-8.679 8.683,-8.679c-0,-0 -0,-8.68 -8.683,-8.68c-7.584,0 -17.359,-9.775 -17.359,-19.533l0,-225.692c0,-8.683 -3.246,-13.02 -10.85,-13.02c-7.587,-0 -14.1,2.166 -20.608,2.166c-10.85,0 -13.021,0 -21.704,-2.166c-4.338,-0 -9.771,6.508 -13.021,10.85l-33.646,116.091" style="fill-rule:nonzero;"/></g><g><path d="M13118.5,856.217c0,-7.588 -3.262,-8.684 -6.508,-8.684c-4.342,0 -6.512,3.267 -7.604,6.513c-5.417,15.191 -17.363,34.721 -33.629,34.721c-2.171,-0 -4.342,-0 -6.513,-1.075l-16.283,-5.434c-10.85,-4.341 -36.892,-13.021 -58.596,-13.021c-7.583,0 -14.096,1.092 -20.604,3.263c11.925,-20.625 68.35,-47.742 80.292,-51.008c39.062,-5.417 71.616,-28.209 71.616,-70.521c0,-26.042 -10.85,-43.4 -24.966,-56.421c-28.213,-22.796 -69.442,-26.042 -81.371,-26.042c-39.063,0 -70.538,2.171 -98.75,34.721c-7.588,8.679 -10.85,17.363 -10.85,26.042c-0,7.587 3.262,16.266 6.508,26.041c6.513,13.021 20.625,22.78 35.817,22.78c27.121,-0 30.383,-26.042 30.383,-37.971c0,-24.963 -27.137,-27.134 -27.137,-37.984c-0,-7.587 10.854,-20.608 43.404,-20.608c51.008,0 68.366,42.308 68.366,55.329c0,19.529 -6.508,37.988 -17.358,53.175c-19.533,24.95 -55.35,33.629 -82.467,50.992c-30.383,18.454 -51.008,49.913 -60.762,84.633c-0,7.604 3.246,16.288 9.754,19.534c1.096,1.091 3.267,1.091 4.342,1.091c11.946,0 18.454,-33.645 51.008,-33.645c21.7,-0 29.288,29.308 78.125,29.308c22.775,-0 65.104,-2.171 73.783,-85.729" style="fill-rule:nonzero;"/></g><g><path d="M13781.9,715.054l-0,-116.096c-0,-5.433 -1.075,-9.775 -6.509,-9.775c-4.341,0 -7.587,1.096 -10.85,5.434l-32.554,62.937c-2.171,2.167 -5.416,5.417 -5.416,13.021l-0,44.479l-70.538,0c44.496,-36.896 113.942,-159.5 115.017,-166.008c-0,-1.096 1.096,-2.171 1.096,-3.263c-0,-4.341 -4.342,-7.587 -7.605,-7.587c-5.416,-0 -28.212,2.167 -37.97,2.167c-9.775,-0 -16.284,-2.167 -20.625,-2.167c-5.417,-0 -13.021,2.167 -13.021,10.85c-0,69.442 -56.425,148.646 -70.521,168.175c-2.171,2.171 -4.342,5.433 -4.342,8.683c0,5.434 4.342,10.85 10.854,10.85l97.655,0l-0,33.646c-0,15.192 -8.68,19.529 -17.363,19.529c-9.771,0 -14.112,4.342 -14.112,9.759c-0,5.433 2.17,11.945 11.945,11.945l93.313,0c5.417,0 10.854,-4.341 10.854,-11.945c0,-7.588 -6.512,-10.85 -11.946,-10.85c-5.416,-0 -17.362,-3.246 -17.362,-20.609l-0,-31.475l40.158,0c5.417,0 8.679,-4.341 8.679,-10.85c0,-6.512 -2.171,-10.854 -8.679,-10.854l-40.158,0" style="fill-rule:nonzero;"/></g><g><path d="M14527.8,528.663c0,-0 -1.095,4.341 -1.095,7.604c-0,4.341 4.341,8.679 8.683,8.679c3.262,-0 5.433,-3.263 6.508,-4.338c1.096,-3.266 14.117,-47.745 20.625,-58.596c2.171,-4.337 4.342,-5.433 5.417,-5.433c2.171,0 3.262,4.342 3.262,7.604l0,155.159c0,13.02 -10.85,20.625 -21.7,20.625c-4.341,-0 -9.775,2.166 -9.775,8.679c0,6.512 5.434,8.679 14.117,8.679l91.146,0c8.679,0 8.679,-8.679 8.679,-8.679c0,-0 0,-8.679 -8.679,-8.679c-7.604,-0 -17.363,-9.775 -17.363,-19.534l0,-225.696c0,-8.679 -3.262,-13.02 -10.85,-13.02c-7.604,-0 -14.116,2.17 -20.625,2.17c-10.85,0 -13.02,0 -21.7,-2.17c-4.341,-0 -9.758,6.512 -13.02,10.854l-33.63,116.091" style="fill-rule:nonzero;"/></g><g><path d="M15410.8,452.571c0,-7.588 -3.246,-8.683 -6.512,-8.683c-4.338,-0 -6.509,3.266 -7.588,6.512c-5.433,15.192 -17.358,34.721 -33.646,34.721c-2.166,-0 -4.337,-0 -6.508,-1.075l-16.267,-5.433c-10.85,-4.342 -36.891,-13.021 -58.596,-13.021c-7.604,-0 -14.112,1.091 -20.625,3.262c11.946,-20.625 68.371,-47.741 80.296,-51.008c39.063,-5.417 71.617,-28.209 71.617,-70.521c-0,-26.042 -10.854,-43.4 -24.95,-56.421c-28.213,-22.796 -69.446,-26.041 -81.388,-26.041c-39.062,-0 -70.52,2.17 -98.733,34.72c-7.604,8.679 -10.85,17.363 -10.85,26.042c0,7.587 3.246,16.267 6.508,26.042c6.513,13.02 20.609,22.779 35.8,22.779c27.134,-0 30.384,-26.042 30.384,-37.971c-0,-24.963 -27.121,-27.133 -27.121,-37.983c-0,-7.588 10.85,-20.609 43.404,-20.609c50.988,0 68.35,42.309 68.35,55.329c0,19.53 -6.508,37.988 -17.362,53.175c-19.53,24.95 -55.33,33.63 -82.463,50.992c-30.383,18.454 -50.992,49.913 -60.767,84.633c0,7.605 3.267,16.288 9.775,19.534c1.08,1.091 3.246,1.091 4.342,1.091c11.925,0 18.438,-33.645 50.988,-33.645c21.704,-0 29.308,29.308 78.125,29.308c22.795,-0 65.104,-2.171 73.787,-85.729" style="fill-rule:nonzero;"/></g><g><path d="M16005.3,134.792c-59.67,-0 -85.712,40.137 -85.712,62.933c-0,15.192 8.683,33.629 35.8,34.725c20.625,0 30.383,-13.021 30.383,-27.137l0,-4.342c-1.079,-16.267 -11.929,-17.358 -14.1,-18.438c-2.171,-1.091 -6.508,-5.433 -6.508,-13.02c2.171,-11.942 18.437,-16.284 22.775,-16.284c55.35,0 71.617,29.304 71.617,47.742c-0,51.008 -52.084,55.35 -68.35,56.425c-7.605,-0 -15.192,3.262 -15.192,9.775c-0,6.508 9.758,6.508 14.096,6.508c62.933,0 71.616,32.554 71.616,48.821c0,62.933 -50.991,65.104 -64.012,65.104c-6.508,0 -17.358,-3.246 -18.454,-8.679l-0,-6.513c-0,-11.925 3.262,-24.945 4.341,-35.795c0,-19.534 -13.02,-31.479 -32.554,-31.479l-4.337,-0c-7.588,2.17 -15.192,6.512 -20.609,11.945c-7.604,6.513 -9.775,16.267 -9.775,26.042c1.092,34.721 31.475,64.008 85.73,65.104l6.508,0c53.162,0 108.508,-28.212 108.508,-75.954c0,-10.85 -2.171,-19.533 -5.433,-26.042c-2.171,-6.512 -6.513,-11.945 -10.85,-16.287c-3.246,-4.338 -7.588,-7.583 -11.929,-10.85l-11.942,-6.508l-6.512,-2.171c-2.171,-0 -3.246,-1.075 -5.417,-1.075l-6.508,-2.171c-3.267,-1.096 -4.342,-0 -5.438,-2.171c-1.075,-1.096 -1.075,-2.171 -1.075,-3.262c0,-2.171 1.075,-4.342 3.246,-4.342l17.362,-5.417c7.605,-4.341 15.192,-7.604 20.625,-15.191c8.68,-8.68 11.925,-22.796 11.925,-34.721c0,-51.009 -67.27,-65.104 -91.145,-67.275l-8.68,-0" style="fill-rule:nonzero;"/></g><g><path d="M16787.5,176.858l0,-116.096c0,-5.433 -1.075,-9.775 -6.508,-9.775c-4.342,0 -7.587,1.096 -10.85,5.438l-32.554,62.933c-2.171,2.171 -5.417,5.417 -5.417,13.021l0,44.479l-70.537,0c44.496,-36.891 113.941,-159.496 115.016,-166.008c0,-1.092 1.096,-2.171 1.096,-3.262c0,-4.342 -4.341,-7.588 -7.604,-7.588c-5.417,0 -28.212,2.171 -37.971,2.171c-9.775,-0 -16.283,-2.171 -20.625,-2.171c-5.416,0 -13.021,2.171 -13.021,10.85c0,69.446 -56.42,148.646 -70.52,168.179c-2.171,2.167 -4.338,5.434 -4.338,8.679c0,5.434 4.338,10.85 10.85,10.85l97.654,0l0,33.646c0,15.192 -8.679,19.534 -17.358,19.534c-9.775,-0 -14.117,4.337 -14.117,9.754c0,5.433 2.171,11.945 11.946,11.945l93.317,0c5.416,0 10.85,-4.341 10.85,-11.945c-0,-7.588 -6.513,-10.85 -11.946,-10.85c-5.417,-0 -17.363,-3.246 -17.363,-20.609l0,-31.475l40.159,0c5.416,0 8.679,-4.341 8.679,-10.85c-0,-6.512 -2.171,-10.85 -8.679,-10.85l-40.159,0" style="fill-rule:nonzero;"/></g><g><path d="M17500.7,176.858l-0,-116.096c-0,-5.433 -1.075,-9.775 -6.509,-9.775c-4.341,0 -7.587,1.096 -10.854,5.438l-32.55,62.933c-2.171,2.171 -5.416,5.417 -5.416,13.021l-0,44.479l-70.538,0c44.496,-36.891 113.942,-159.496 115.017,-166.008c-0,-1.092 1.091,-2.171 1.091,-3.262c0,-4.342 -4.337,-7.588 -7.604,-7.588c-5.416,0 -28.208,2.171 -37.966,2.171c-9.775,-0 -16.284,-2.171 -20.625,-2.171c-5.417,0 -13.021,2.171 -13.021,10.85c-0,69.446 -56.425,148.646 -70.521,168.179c-2.171,2.167 -4.342,5.434 -4.342,8.679c0,5.434 4.342,10.85 10.85,10.85l97.659,0l-0,33.646c-0,15.192 -8.68,19.534 -17.363,19.534c-9.775,-0 -14.112,4.337 -14.112,9.754c-0,5.433 2.17,11.945 11.941,11.945l93.317,0c5.417,0 10.85,-4.341 10.85,-11.945c-0,-7.588 -6.508,-10.85 -11.942,-10.85c-5.416,-0 -17.362,-3.246 -17.362,-20.609l-0,-31.475l40.158,0c5.417,0 8.679,-4.341 8.679,-10.85c0,-6.512 -2.171,-10.85 -8.679,-10.85l-40.158,0" style="fill-rule:nonzero;"/></g><g><path d="M18145.1,134.792c-59.687,-0 -85.729,40.137 -85.729,62.933c-0,15.192 8.679,33.629 35.817,34.725c20.604,0 30.379,-13.021 30.379,-27.137l-0,-4.342c-1.092,-16.267 -11.942,-17.358 -14.113,-18.438c-2.171,-1.091 -6.512,-5.433 -6.512,-13.02c2.171,-11.942 18.454,-16.284 22.796,-16.284c55.329,0 71.616,29.304 71.616,47.742c0,51.008 -52.083,55.35 -68.371,56.425c-7.587,-0 -15.191,3.262 -15.191,9.775c-0,6.508 9.775,6.508 14.116,6.508c62.934,0 71.613,32.554 71.613,48.821c-0,62.933 -51.004,65.104 -64.025,65.104c-6.513,0 -17.363,-3.246 -18.438,-8.679l0,-6.513c0,-11.925 3.246,-24.945 4.338,-35.795c-0,-19.534 -13.021,-31.479 -32.55,-31.479l-4.342,-0c-7.604,2.17 -15.191,6.512 -20.625,11.945c-7.587,6.513 -9.754,16.267 -9.754,26.042c1.075,34.721 31.458,64.008 85.708,65.104l6.513,0c53.175,0 108.508,-28.212 108.508,-75.954c0,-10.85 -2.171,-19.533 -5.416,-26.042c-2.171,-6.512 -6.513,-11.945 -10.855,-16.287c-3.262,-4.338 -7.604,-7.583 -11.941,-10.85l-11.929,-6.508l-6.509,-2.171c-2.171,-0 -3.266,-1.075 -5.433,-1.075l-6.513,-2.171c-3.245,-1.096 -4.341,-0 -5.416,-2.171c-1.092,-1.096 -1.092,-2.171 -1.092,-3.262c0,-2.171 1.092,-4.342 3.263,-4.342l17.362,-5.417c7.583,-4.341 15.188,-7.604 20.604,-15.191c8.684,-8.68 11.946,-22.796 11.946,-34.721c0,-51.009 -67.275,-65.104 -91.146,-67.275l-8.679,-0" style="fill-rule:nonzero;"/></g><g><path d="M18977.1,452.571c-0,-7.588 -3.263,-8.683 -6.509,-8.683c-4.341,-0 -6.512,3.266 -7.604,6.512c-5.416,15.192 -17.362,34.721 -33.629,34.721c-2.171,-0 -4.342,-0 -6.508,-1.075l-16.288,-5.433c-10.85,-4.342 -36.891,-13.021 -58.591,-13.021c-7.588,-0 -14.1,1.091 -20.609,3.262c11.925,-20.625 68.35,-47.741 80.296,-51.008c39.063,-5.417 71.613,-28.209 71.613,-70.521c-0,-26.042 -10.85,-43.4 -24.963,-56.421c-28.212,-22.796 -69.446,-26.041 -81.375,-26.041c-39.062,-0 -70.537,2.17 -98.75,34.72c-7.583,8.679 -10.85,17.363 -10.85,26.042c0,7.587 3.267,16.267 6.513,26.042c6.508,13.02 20.625,22.779 35.816,22.779c27.117,-0 30.379,-26.042 30.379,-37.971c0,-24.963 -27.133,-27.133 -27.133,-37.983c0,-7.588 10.85,-20.609 43.4,-20.609c51.008,0 68.371,42.309 68.371,55.329c-0,19.53 -6.513,37.988 -17.363,53.175c-19.529,24.95 -55.345,33.63 -82.466,50.992c-30.379,18.454 -51.004,49.913 -60.763,84.633c0,7.605 3.246,16.288 9.759,19.534c1.091,1.091 3.262,1.091 4.337,1.091c11.946,0 18.458,-33.645 51.008,-33.645c21.7,-0 29.288,29.308 78.125,29.308c22.78,-0 65.105,-2.171 73.784,-85.729" style="fill-rule:nonzero;"/></g><g><path d="M20135.9,528.663c-0,-0 -1.092,4.341 -1.092,7.604c0,4.341 4.342,8.679 8.679,8.679c3.267,-0 5.434,-3.263 6.513,-4.338c1.091,-3.266 14.112,-47.745 20.625,-58.596c2.171,-4.337 4.337,-5.433 5.416,-5.433c2.171,0 3.263,4.342 3.263,7.604l-0,155.159c-0,13.02 -10.85,20.625 -21.7,20.625c-4.342,-0 -9.775,2.166 -9.775,8.679c-0,6.512 5.433,8.679 14.112,8.679l91.146,0c8.684,0 8.684,-8.679 8.684,-8.679c-0,-0 -0,-8.679 -8.684,-8.679c-7.604,-0 -17.358,-9.775 -17.358,-19.534l-0,-225.696c-0,-8.679 -3.267,-13.02 -10.85,-13.02c-7.604,-0 -14.117,2.17 -20.625,2.17c-10.854,0 -13.021,0 -21.704,-2.17c-4.338,-0 -9.754,6.512 -13.021,10.854l-33.629,116.091" style="fill-rule:nonzero;"/></g><g><path d="M20969.1,715.054l0,-116.096c0,-5.433 -1.095,-9.775 -6.512,-9.775c-4.338,0 -7.604,1.096 -10.85,5.434l-32.55,62.937c-2.171,2.167 -5.438,5.417 -5.438,13.021l0,44.479l-70.52,0c44.479,-36.896 113.925,-159.5 115.02,-166.008c0,-1.096 1.075,-2.171 1.075,-3.263c0,-4.341 -4.341,-7.587 -7.587,-7.587c-5.433,-0 -28.213,2.167 -37.988,2.167c-9.754,-0 -16.266,-2.167 -20.604,-2.167c-5.437,-0 -13.021,2.167 -13.021,10.85c0,69.442 -56.425,148.646 -70.541,168.175c-2.167,2.171 -4.338,5.433 -4.338,8.683c0,5.434 4.338,10.85 10.85,10.85l97.654,0l0,33.646c0,15.192 -8.679,19.529 -17.358,19.529c-9.758,0 -14.1,4.342 -14.1,9.759c0,5.433 2.171,11.945 11.929,11.945l93.317,0c5.433,0 10.85,-4.341 10.85,-11.945c-0,-7.588 -6.513,-10.85 -11.929,-10.85c-5.434,-0 -17.359,-3.246 -17.359,-20.609l0,-31.475l40.138,0c5.433,0 8.679,-4.341 8.679,-10.85c0,-6.512 -2.167,-10.854 -8.679,-10.854l-40.138,0" style="fill-rule:nonzero;"/></g><g><path d="M21732.1,856.217c0,-7.588 -3.266,-8.684 -6.512,-8.684c-4.338,0 -6.508,3.267 -7.604,6.513c-5.417,15.191 -17.359,34.721 -33.629,34.721c-2.167,-0 -4.338,-0 -6.509,-1.075l-16.283,-5.434c-10.854,-4.341 -36.896,-13.021 -58.596,-13.021c-7.587,0 -14.096,1.092 -20.608,3.263c11.929,-20.625 68.35,-47.742 80.296,-51.008c39.062,-5.417 71.616,-28.209 71.616,-70.521c0,-26.042 -10.854,-43.4 -24.966,-56.421c-28.213,-22.796 -69.446,-26.042 -81.371,-26.042c-39.063,0 -70.538,2.171 -98.75,34.721c-7.588,8.679 -10.85,17.363 -10.85,26.042c-0,7.587 3.262,16.266 6.508,26.041c6.513,13.021 20.625,22.78 35.817,22.78c27.116,-0 30.383,-26.042 30.383,-37.971c0,-24.963 -27.137,-27.134 -27.137,-37.984c-0,-7.587 10.85,-20.608 43.404,-20.608c51.004,0 68.366,42.308 68.366,55.329c0,19.529 -6.508,37.988 -17.362,53.175c-19.529,24.95 -55.346,33.629 -82.463,50.992c-30.383,18.454 -51.008,49.913 -60.766,84.633c-0,7.604 3.25,16.288 9.758,19.534c1.096,1.091 3.263,1.091 4.342,1.091c11.941,0 18.454,-33.645 51.004,-33.645c21.704,-0 29.292,29.308 78.125,29.308c22.779,-0 65.104,-2.171 73.787,-85.729" style="fill-rule:nonzero;"/></g><g><path d="M22275.7,932.308c-0,0 -1.092,4.342 -1.092,7.605c0,4.341 4.338,8.683 8.679,8.683c3.263,-0 5.434,-3.267 6.509,-4.342c1.095,-3.262 14.116,-47.741 20.625,-58.596c2.17,-4.337 4.341,-5.433 5.416,-5.433c2.171,0 3.267,4.342 3.267,7.604l-0,155.158c-0,13.021 -10.85,20.625 -21.704,20.625c-4.338,0 -9.771,2.171 -9.771,8.68c-0,6.512 5.433,8.679 14.112,8.679l91.146,-0c8.679,-0 8.679,-8.679 8.679,-8.679c0,-0 0,-8.68 -8.679,-8.68c-7.604,0 -17.362,-9.775 -17.362,-19.533l-0,-225.692c-0,-8.683 -3.263,-13.02 -10.85,-13.02c-7.604,-0 -14.113,2.166 -20.625,2.166c-10.85,0 -13.021,0 -21.7,-2.166c-4.342,-0 -9.759,6.508 -13.021,10.85l-33.629,116.091" style="fill-rule:nonzero;"/></g><g><path d="M23108.8,1118.7l0,-116.096c0,-5.433 -1.091,-9.775 -6.508,-9.775c-4.342,0 -7.604,1.096 -10.85,5.433l-32.554,62.938c-2.171,2.167 -5.433,5.417 -5.433,13.021l-0,44.479l-70.521,0c44.479,-36.896 113.925,-159.5 115.016,-166.008c0,-1.096 1.08,-2.171 1.08,-3.263c-0,-4.341 -4.342,-7.587 -7.588,-7.587c-5.433,-0 -28.212,2.166 -37.987,2.166c-9.759,0 -16.267,-2.166 -20.609,-2.166c-5.433,-0 -13.021,2.166 -13.021,10.85c0,69.441 -56.42,148.646 -70.537,168.175c-2.171,2.171 -4.342,5.433 -4.342,8.683c0,5.433 4.342,10.85 10.854,10.85l97.655,0l-0,33.646c-0,15.192 -8.68,19.529 -17.363,19.529c-9.754,0 -14.096,4.342 -14.096,9.758c0,5.434 2.171,11.946 11.929,11.946l93.313,0c5.437,0 10.854,-4.341 10.854,-11.946c0,-7.587 -6.512,-10.85 -11.929,-10.85c-5.433,0 -17.363,-3.245 -17.363,-20.608l0,-31.475l40.142,0c5.433,0 8.679,-4.342 8.679,-10.85c0,-6.512 -2.171,-10.85 -8.679,-10.85l-40.142,0" style="fill-rule:nonzero;"/></g><g><path d="M23822,1118.94l0,-116.096c0,-5.433 -1.092,-9.771 -6.508,-9.771c-4.342,0 -7.604,1.092 -10.854,5.433l-32.55,62.934c-2.171,2.17 -5.434,5.416 -5.434,13.021l0,44.479l-70.521,-0c44.48,-36.892 113.921,-159.496 115.017,-166.009c0,-1.091 1.075,-2.17 1.075,-3.262c0,-4.342 -4.337,-7.588 -7.587,-7.588c-5.434,0 -28.209,2.171 -37.984,2.171c-9.758,0 -16.266,-2.171 -20.608,-2.171c-5.433,0 -13.021,2.171 -13.021,10.85c0,69.446 -56.425,148.646 -70.537,168.18c-2.171,2.166 -4.342,5.433 -4.342,8.679c-0,5.433 4.342,10.85 10.85,10.85l97.658,-0l0,33.646c0,15.191 -8.683,19.533 -17.362,19.533c-9.759,-0 -14.096,4.337 -14.096,9.754c-0,5.438 2.171,11.946 11.925,11.946l93.317,-0c5.433,-0 10.85,-4.342 10.85,-11.946c-0,-7.583 -6.509,-10.85 -11.925,-10.85c-5.434,0 -17.363,-3.246 -17.363,-20.608l0,-31.475l40.138,-0c5.437,-0 8.683,-4.342 8.683,-10.85c-0,-6.513 -2.171,-10.85 -8.683,-10.85l-40.138,-0" style="fill-rule:nonzero;"/></g><g><path d="M24585.1,1129.79c-0,-7.588 -3.263,-8.679 -6.509,-8.679c-4.341,-0 -6.512,3.262 -7.604,6.508c-5.416,15.192 -17.362,34.725 -33.629,34.725c-2.171,-0 -4.342,-0 -6.512,-1.079l-16.284,-5.434c-10.85,-4.341 -36.891,-13.02 -58.596,-13.02c-7.583,-0 -14.095,1.095 -20.604,3.262c11.925,-20.625 68.35,-47.742 80.292,-51.004c39.062,-5.417 71.617,-28.213 71.617,-70.521c-0,-26.042 -10.85,-43.404 -24.967,-56.425c-28.213,-22.796 -69.442,-26.042 -81.371,-26.042c-39.062,0 -70.537,2.171 -98.75,34.721c-7.587,8.684 -10.85,17.363 -10.85,26.042c0,7.587 3.263,16.271 6.508,26.042c6.513,13.02 20.625,22.779 35.817,22.779c27.121,-0 30.383,-26.042 30.383,-37.967c0,-24.967 -27.137,-27.137 -27.137,-37.987c-0,-7.588 10.854,-20.609 43.404,-20.609c51.008,0 68.367,42.309 68.367,55.329c-0,19.534 -6.509,37.988 -17.359,53.18c-19.533,24.945 -55.35,33.625 -82.466,50.987c-30.384,18.454 -51.009,49.913 -60.763,84.638c0,7.604 3.246,16.283 9.754,19.529c1.096,1.096 3.267,1.096 4.342,1.096c11.946,-0 18.454,-33.646 51.008,-33.646c21.7,-0 29.288,29.304 78.125,29.304c22.775,-0 65.105,-2.171 73.784,-85.729" style="fill-rule:nonzero;"/></g><g><path d="M25173.6,1067.95c0,0 -1.091,4.342 -1.091,7.588c-0,4.341 4.337,8.679 8.679,8.679c3.262,-0 5.433,-3.246 6.508,-4.338c1.096,-3.246 14.117,-47.746 20.625,-58.596c2.171,-4.337 4.342,-5.416 5.417,-5.416c2.171,-0 3.267,4.341 3.267,7.587l-0,155.175c-0,13.021 -10.85,20.609 -21.705,20.609c-4.337,-0 -9.77,2.166 -9.77,8.679c-0,6.508 5.433,8.679 14.112,8.679l91.146,-0c8.679,-0 8.679,-8.679 8.679,-8.679c0,-0 0,-8.679 -8.679,-8.679c-7.604,-0 -17.363,-9.759 -17.363,-19.534l0,-225.696c0,-8.679 -3.262,-13.02 -10.85,-13.02c-7.604,-0 -14.112,2.17 -20.625,2.17c-10.85,0 -13.02,0 -21.7,-2.17c-4.341,-0 -9.758,6.512 -13.02,10.854l-33.63,116.108" style="fill-rule:nonzero;"/></g><g><path d="M26006.8,1118.94l0,-116.096c0,-5.433 -1.075,-9.771 -6.508,-9.771c-4.342,0 -7.588,1.092 -10.85,5.433l-32.554,62.934c-2.171,2.17 -5.417,5.416 -5.417,13.021l-0,44.479l-70.538,-0c44.496,-36.892 113.942,-159.496 115.017,-166.009c0,-1.091 1.096,-2.17 1.096,-3.262c-0,-4.342 -4.342,-7.588 -7.604,-7.588c-5.417,0 -28.213,2.171 -37.971,2.171c-9.775,0 -16.283,-2.171 -20.625,-2.171c-5.417,0 -13.021,2.171 -13.021,10.85c0,69.446 -56.421,148.646 -70.521,168.18c-2.171,2.166 -4.337,5.433 -4.337,8.679c-0,5.433 4.337,10.85 10.85,10.85l97.654,-0l-0,33.646c-0,15.191 -8.679,19.533 -17.358,19.533c-9.775,-0 -14.117,4.337 -14.117,9.754c-0,5.438 2.171,11.946 11.946,11.946l93.316,-0c5.417,-0 10.85,-4.342 10.85,-11.946c0,-7.583 -6.512,-10.85 -11.945,-10.85c-5.417,0 -17.363,-3.246 -17.363,-20.608l0,-31.475l40.158,-0c5.417,-0 8.68,-4.342 8.68,-10.85c-0,-6.513 -2.171,-10.85 -8.68,-10.85l-40.158,-0" style="fill-rule:nonzero;"/></g><g><path d="M26769.8,989.479c0,-7.587 -3.246,-8.679 -6.508,-8.679c-4.342,0 -6.513,3.262 -7.588,6.508c-5.433,15.192 -17.362,34.725 -33.646,34.725c-2.17,0 -4.341,0 -6.508,-1.079l-16.271,-5.433c-10.85,-4.342 -36.891,-13.021 -58.591,-13.021c-7.605,-0 -14.117,1.096 -20.625,3.262c11.945,-20.625 68.366,-47.741 80.295,-51.004c39.063,-5.416 71.613,-28.212 71.613,-70.521c-0,-26.041 -10.85,-43.404 -24.946,-56.425c-28.212,-22.795 -69.446,-26.041 -81.392,-26.041c-39.062,-0 -70.52,2.171 -98.729,34.721c-7.604,8.683 -10.854,17.362 -10.854,26.041c0,7.588 3.25,16.271 6.513,26.042c6.508,13.021 20.608,22.779 35.8,22.779c27.133,0 30.379,-26.042 30.379,-37.967c-0,-24.966 -27.117,-27.137 -27.117,-37.987c0,-7.588 10.85,-20.608 43.404,-20.608c50.988,-0 68.35,42.308 68.35,55.329c0,19.533 -6.512,37.987 -17.362,53.179c-19.529,24.946 -55.329,33.629 -82.467,50.987c-30.379,18.455 -50.987,49.913 -60.762,84.638c-0,7.604 3.262,16.283 9.775,19.529c1.075,1.096 3.245,1.096 4.341,1.096c11.925,-0 18.438,-33.646 50.988,-33.646c21.7,0 29.304,29.304 78.125,29.304c22.796,0 65.104,-2.171 73.783,-85.729" style="fill-rule:nonzero;"/></g><g><path d="M27313.3,1021.16c0,-0 -1.095,4.341 -1.095,7.604c-0,4.341 4.341,8.679 8.683,8.679c3.262,-0 5.433,-3.263 6.508,-4.338c1.096,-3.266 14.117,-47.746 20.625,-58.596c2.171,-4.337 4.342,-5.433 5.417,-5.433c2.171,0 3.262,4.342 3.262,7.604l0,155.159c0,13.02 -10.85,20.625 -21.7,20.625c-4.341,-0 -9.775,2.166 -9.775,8.679c0,6.508 5.434,8.679 14.117,8.679l91.146,0c8.679,0 8.679,-8.679 8.679,-8.679c0,-0 0,-8.679 -8.679,-8.679c-7.604,-0 -17.363,-9.775 -17.363,-19.534l0,-225.695c0,-8.68 -3.262,-13.021 -10.85,-13.021c-7.604,-0 -14.116,2.17 -20.625,2.17c-10.85,0 -13.02,0 -21.7,-2.166c-4.341,-0 -9.758,6.508 -13.02,10.85l-33.63,116.092" style="fill-rule:nonzero;"/></g><g><path d="M28146.5,1118.94l0,-116.096c0,-5.433 -1.075,-9.771 -6.508,-9.771c-4.342,0 -7.588,1.092 -10.854,5.433l-32.55,62.934c-2.171,2.17 -5.417,5.416 -5.417,13.021l-0,44.479l-70.538,-0c44.496,-36.892 113.942,-159.496 115.017,-166.009c0,-1.091 1.092,-2.17 1.092,-3.262c-0,-4.342 -4.338,-7.588 -7.604,-7.588c-5.417,0 -28.209,2.171 -37.967,2.171c-9.775,0 -16.283,-2.171 -20.625,-2.171c-5.417,0 -13.021,2.171 -13.021,10.85c0,69.446 -56.425,148.646 -70.521,168.18c-2.171,2.166 -4.341,5.433 -4.341,8.679c-0,5.433 4.341,10.85 10.85,10.85l97.658,-0l-0,33.646c-0,15.191 -8.679,19.533 -17.363,19.533c-9.775,-0 -14.112,4.337 -14.112,9.754c-0,5.438 2.171,11.946 11.942,11.946l93.316,-0c5.417,-0 10.85,-4.342 10.85,-11.946c0,-7.583 -6.508,-10.85 -11.941,-10.85c-5.417,0 -17.363,-3.246 -17.363,-20.608l0,-31.475l40.158,-0c5.417,-0 8.68,-4.342 8.68,-10.85c-0,-6.513 -2.171,-10.85 -8.68,-10.85l-40.158,-0" style="fill-rule:nonzero;"/></g><g><path d="M1612.26,3370.47c96.562,-0 214.846,-88.979 214.846,-181.217c-0,-55.329 -43.404,-90.054 -105.263,-90.054c-119.358,0 -214.841,87.883 -214.841,181.2c-0,56.425 46.666,90.067 105.258,90.067" style="fill-rule:nonzero;"/></g><g><path d="M2325.49,3235.92c96.579,-0 214.846,-88.975 214.846,-181.217c-0,-55.329 -43.404,-90.05 -105.246,-90.05c-119.354,0 -214.842,87.879 -214.842,181.196c0,56.425 46.65,90.071 105.242,90.071" style="fill-rule:nonzero;"/></g><g><path d="M3038.74,3101.37c96.562,-0 214.846,-88.975 214.846,-181.213c-0,-55.333 -43.404,-90.054 -105.263,-90.054c-119.354,0 -214.841,87.883 -214.841,181.196c-0,56.425 46.666,90.071 105.258,90.071" style="fill-rule:nonzero;"/></g><g><path d="M3644.31,2880.02c-6.513,21.7 -57.5,43.404 -82.467,43.404c-6.508,-0 -11.925,-2.171 -13.021,-5.434c-2.17,-4.341 -3.245,-28.212 -3.245,-54.254c-0,-33.629 1.075,-71.616 3.245,-80.295c2.171,-18.438 52.084,-41.234 79.221,-41.234c7.588,0 14.096,2.171 16.267,6.513c2.171,5.433 4.342,32.55 4.342,61.854c-0,29.292 -2.171,59.671 -4.342,69.446m74.879,-176.875c7.588,-3.246 13.021,-11.925 13.021,-18.438l-0,-77.05c-0,-5.416 -3.267,-8.679 -7.604,-8.679c-2.171,0 -3.246,0 -5.417,1.096c0,-0 -21.704,8.679 -27.137,9.754c-7.588,0 -15.192,-5.417 -15.192,-14.096l-0,-132.379c-0,-6.508 -6.508,-11.946 -15.188,-11.946c-10.854,0 -17.362,5.438 -17.362,11.946l-0,141.058c-1.075,10.85 -4.342,24.95 -14.096,31.459c-13.021,7.604 -49.917,22.796 -68.371,27.137c-9.754,0 -13.021,-13.021 -13.021,-21.704l0,-130.208c0,-6.509 -7.587,-11.942 -15.191,-11.942c-10.85,0 -17.359,5.433 -17.359,11.942l0,146.479c0,15.187 -6.512,26.042 -13.02,29.304c-6.513,3.246 -28.213,11.925 -28.213,11.925c-7.587,2.171 -13.021,10.854 -13.021,17.363l0,77.05c0,6.508 3.263,9.754 8.679,9.754c4.342,-0 24.967,-9.754 28.213,-11.925c1.096,-0 2.171,-1.096 3.262,-1.096c7.588,-0 14.1,10.854 14.1,19.533l0,107.429c0,11.93 -5.416,21.705 -11.929,24.95c-6.508,2.171 -29.304,11.942 -29.304,11.942c-7.587,2.171 -13.021,10.854 -13.021,17.363l0,77.033c0,6.508 3.263,9.771 8.679,9.771c1.096,-0 3.267,-1.092 4.342,-1.092c0,0 15.192,-6.512 24.967,-9.758c1.075,-1.092 2.166,-1.092 3.246,-1.092c7.604,0 13.02,11.942 13.02,17.358l0,133.475c0,6.509 6.509,11.925 14.113,11.925c10.85,0 18.437,-5.416 18.437,-11.925l0,-150.833c0,-14.1 5.434,-21.704 10.85,-23.871l66.2,-27.121c1.075,0 3.246,-1.091 4.342,-1.091c8.679,-0 14.096,13.021 14.096,19.529l-0,135.642c-0,6.512 6.508,11.929 14.112,11.929c11.93,-0 18.438,-5.417 18.438,-11.929l-0,-154.08c-0,-8.679 4.342,-21.7 11.946,-24.962c7.587,-3.25 30.383,-11.929 30.383,-11.929c7.588,-3.263 13.021,-11.946 13.021,-18.454l-0,-77.034c-0,-5.433 -3.267,-8.679 -7.604,-8.679c-2.171,0 -3.246,0 -5.417,1.075l-28.212,10.854c-6.513,0 -14.117,-6.512 -14.117,-19.533l-0,-100.904c-0,-7.604 5.437,-28.209 14.117,-31.475l28.212,-10.85" style="fill-rule:nonzero;"/></g><g><path d="M3904.57,2966.83c96.563,0 214.846,-88.979 214.846,-181.217c0,-55.329 -43.404,-90.054 -105.262,-90.054c-119.355,0 -214.842,87.883 -214.842,181.2c-0,56.425 46.667,90.067 105.258,90.067" style="fill-rule:nonzero;"/></g><g><path d="M4617.85,2832.28c96.58,0 214.842,-88.975 214.842,-181.217c0,-55.329 -43.4,-90.05 -105.242,-90.05c-119.358,0 -214.845,87.88 -214.845,181.196c-0,56.425 46.65,90.071 105.245,90.071" style="fill-rule:nonzero;"/></g><g><path d="M5331.06,2697.72c96.579,0 214.841,-88.975 214.841,-181.213c0,-55.333 -43.404,-90.054 -105.241,-90.054c-119.359,0 -214.846,87.884 -214.846,181.196c-0,56.425 46.65,90.071 105.246,90.071" style="fill-rule:nonzero;"/></g><g><path d="M6044.27,2563.18c96.563,0 214.842,-88.979 214.842,-181.216c-0,-55.33 -43.404,-90.055 -105.259,-90.055c-119.358,0 -214.845,87.884 -214.845,181.2c-0,56.425 46.666,90.067 105.262,90.067" style="fill-rule:nonzero;"/></g><g><path d="M6757.56,2428.63c96.579,0 214.841,-88.975 214.841,-181.216c0,-55.33 -43.4,-90.05 -105.241,-90.05c-119.359,-0 -214.842,87.879 -214.842,181.195c0,56.425 46.646,90.071 105.242,90.071" style="fill-rule:nonzero;"/></g><g><path d="M7470.77,2294.08c96.579,0 214.842,-88.975 214.842,-181.212c-0,-55.334 -43.4,-90.055 -105.242,-90.055c-119.358,0 -214.846,87.884 -214.846,181.2c0,56.421 46.65,90.067 105.246,90.067" style="fill-rule:nonzero;"/></g><g><path d="M8184.02,2159.53c96.563,0 214.846,-88.979 214.846,-181.216c-0,-55.329 -43.404,-90.054 -105.263,-90.054c-119.358,-0 -214.841,87.883 -214.841,181.2c-0,56.425 46.666,90.07 105.258,90.07" style="fill-rule:nonzero;"/></g><g><path d="M8682.52,1938.18c-6.512,21.7 -57.5,43.4 -82.467,43.4c-6.512,0 -11.929,-2.171 -13.02,-5.433c-2.171,-4.342 -3.246,-28.213 -3.246,-54.254c-0,-33.63 1.075,-71.613 3.246,-80.296c2.17,-18.438 52.083,-41.229 79.216,-41.229c7.588,-0 14.1,2.166 16.271,6.508c2.167,5.433 4.338,32.554 4.338,61.858c-0,29.288 -2.171,59.671 -4.338,69.442m74.875,-176.871c7.588,-3.25 13.021,-11.929 13.021,-18.437l-0,-77.05c-0,-5.417 -3.263,-8.68 -7.604,-8.68c-2.167,0 -3.246,0 -5.417,1.092c0,0 -21.7,8.679 -27.133,9.758c-7.588,0 -15.192,-5.416 -15.192,-14.1l0,-132.375c0,-6.512 -6.508,-11.945 -15.192,-11.945c-10.85,-0 -17.358,5.433 -17.358,11.945l0,141.059c-1.079,10.85 -4.342,24.946 -14.1,31.458c-13.021,7.604 -49.912,22.796 -68.367,27.133c-9.758,0 -13.02,-13.02 -13.02,-21.7l-0,-130.208c-0,-6.512 -7.588,-11.946 -15.192,-11.946c-10.85,0 -17.363,5.434 -17.363,11.946l0,146.475c0,15.192 -6.508,26.042 -13.02,29.304c-6.509,3.25 -28.209,11.929 -28.209,11.929c-7.587,2.171 -13.021,10.85 -13.021,17.363l0,77.046c0,6.512 3.263,9.758 8.68,9.758c4.341,0 24.966,-9.758 28.212,-11.929c1.092,-0 2.171,-1.092 3.263,-1.092c7.587,0 14.095,10.85 14.095,19.529l0,107.434c0,11.925 -5.416,21.7 -11.925,24.946c-6.512,2.17 -29.304,11.945 -29.304,11.945c-7.587,2.171 -13.021,10.85 -13.021,17.363l0,77.029c0,6.513 3.263,9.775 8.68,9.775c1.091,0 3.262,-1.096 4.341,-1.096c0,0 15.188,-6.508 24.963,-9.754c1.079,-1.096 2.171,-1.096 3.246,-1.096c7.604,0 13.02,11.946 13.02,17.363l0,133.471c0,6.512 6.513,11.929 14.117,11.929c10.85,-0 18.438,-5.417 18.438,-11.929l-0,-150.834c-0,-14.096 5.433,-21.7 10.85,-23.871l66.2,-27.116c1.075,-0 3.245,-1.096 4.337,-1.096c8.683,0 14.1,13.021 14.1,19.533l0,135.642c0,6.508 6.508,11.925 14.113,11.925c11.929,-0 18.437,-5.417 18.437,-11.925l0,-154.079c0,-8.683 4.342,-21.704 11.946,-24.967c7.587,-3.246 30.379,-11.925 30.379,-11.925c7.588,-3.266 13.021,-11.946 13.021,-18.458l-0,-77.029c-0,-5.434 -3.263,-8.679 -7.604,-8.679c-2.167,-0 -3.246,-0 -5.417,1.074l-28.208,10.85c-6.513,0 -14.117,-6.508 -14.117,-19.529l0,-100.904c0,-7.604 5.433,-28.212 14.117,-31.475l28.208,-10.85" style="fill-rule:nonzero;"/></g><g><path d="M8942.77,2024.98c96.563,0 214.846,-88.975 214.846,-181.216c-0,-55.329 -43.404,-90.05 -105.263,-90.05c-119.358,-0 -214.841,87.879 -214.841,181.196c-0,56.425 46.666,90.07 105.258,90.07" style="fill-rule:nonzero;"/></g><g><path d="M9655.97,1890.43c96.58,0 214.842,-88.975 214.842,-181.212c0,-55.333 -43.4,-90.054 -105.242,-90.054c-119.358,-0 -214.841,87.883 -214.841,181.2c-0,56.421 46.646,90.066 105.241,90.066" style="fill-rule:nonzero;"/></g><g><path d="M10816.5,1755.89c96.563,-0 214.846,-88.98 214.846,-181.217c-0,-55.329 -43.404,-90.054 -105.263,-90.054c-119.358,-0 -214.841,87.883 -214.841,181.2c-0,56.425 46.666,90.071 105.258,90.071" style="fill-rule:nonzero;"/></g><g><path d="M11529.7,1621.34c96.58,-0 214.842,-88.975 214.842,-181.217c0,-55.329 -43.4,-90.05 -105.242,-90.05c-119.358,-0 -214.841,87.879 -214.841,181.196c-0,56.425 46.646,90.071 105.241,90.071" style="fill-rule:nonzero;"/></g><g><path d="M12242.9,1486.79c96.579,-0 214.841,-88.975 214.841,-181.217c0,-55.329 -43.4,-90.05 -105.241,-90.05c-119.359,-0 -214.846,87.883 -214.846,181.2c-0,56.421 46.65,90.066 105.246,90.066" style="fill-rule:nonzero;"/></g><g><path d="M12956.2,1352.24c96.563,-0 214.846,-88.979 214.846,-181.217c0,-55.329 -43.404,-90.054 -105.262,-90.054c-119.359,-0 -214.842,87.883 -214.842,181.2c0,56.421 46.667,90.071 105.258,90.071" style="fill-rule:nonzero;"/></g><g><path d="M13669.4,1217.69c96.579,-0 214.846,-88.975 214.846,-181.217c-0,-55.329 -43.405,-90.05 -105.246,-90.05c-119.359,0 -214.842,87.879 -214.842,181.196c0,56.425 46.65,90.071 105.242,90.071" style="fill-rule:nonzero;"/></g><g><path d="M14275.1,996.338c-6.509,21.7 -57.5,43.404 -82.467,43.404c-6.508,-0 -11.925,-2.171 -13.021,-5.438c-2.166,-4.337 -3.246,-28.208 -3.246,-54.25c0,-33.629 1.08,-71.616 3.246,-80.296c2.171,-18.437 52.084,-41.233 79.221,-41.233c7.588,0 14.096,2.171 16.267,6.508c2.171,5.438 4.341,32.555 4.341,61.859c0,29.287 -2.17,59.671 -4.341,69.446m74.879,-176.875c7.587,-3.246 13.021,-11.93 13.021,-18.438l-0,-77.05c-0,-5.417 -3.263,-8.679 -7.604,-8.679c-2.171,-0 -3.246,-0 -5.417,1.091c-0,0 -21.7,8.684 -27.138,9.759c-7.583,-0 -15.187,-5.417 -15.187,-14.096l-0,-132.379c-0,-6.513 -6.513,-11.946 -15.192,-11.946c-10.85,0 -17.362,5.433 -17.362,11.946l-0,141.058c-1.075,10.85 -4.342,24.95 -14.096,31.458c-13.021,7.605 -49.913,22.796 -68.371,27.138c-9.754,-0 -13.021,-13.021 -13.021,-21.704l0,-130.209c0,-6.508 -7.583,-11.941 -15.187,-11.941c-10.854,-0 -17.363,5.433 -17.363,11.941l0,146.475c0,15.192 -6.512,26.042 -13.021,29.309c-6.512,3.246 -28.212,11.925 -28.212,11.925c-7.588,2.171 -13.021,10.85 -13.021,17.362l0,77.05c0,6.509 3.263,9.755 8.679,9.755c4.342,-0 24.967,-9.755 28.213,-11.925c1.096,-0 2.171,-1.096 3.266,-1.096c7.584,-0 14.096,10.85 14.096,19.533l0,107.429c0,11.929 -5.416,21.7 -11.929,24.95c-6.508,2.167 -29.304,11.942 -29.304,11.942c-7.588,2.171 -13.021,10.85 -13.021,17.362l0,77.029c0,6.513 3.263,9.775 8.679,9.775c1.096,0 3.267,-1.091 4.342,-1.091c-0,-0 15.192,-6.513 24.967,-9.759c1.075,-1.091 2.17,-1.091 3.245,-1.091c7.605,-0 13.021,11.941 13.021,17.358l0,133.475c0,6.508 6.509,11.925 14.113,11.925c10.854,0 18.437,-5.417 18.437,-11.925l0,-150.833c0,-14.1 5.438,-21.704 10.854,-23.875l66.196,-27.117c1.075,0 3.246,-1.092 4.342,-1.092c8.679,0 14.096,13.021 14.096,19.53l-0,135.641c-0,6.513 6.512,11.929 14.116,11.929c11.925,0 18.438,-5.416 18.438,-11.929l-0,-154.079c-0,-8.679 4.337,-21.7 11.942,-24.967c7.587,-3.245 30.383,-11.925 30.383,-11.925c7.587,-3.262 13.021,-11.945 13.021,-18.454l-0,-77.033c-0,-5.433 -3.263,-8.679 -7.604,-8.679c-2.171,-0 -3.246,-0 -5.417,1.075l-28.213,10.85c-6.508,-0 -14.112,-6.509 -14.112,-19.529l-0,-100.905c-0,-7.604 5.433,-28.212 14.112,-31.475l28.213,-10.85" style="fill-rule:nonzero;"/></g><g><path d="M14535.3,1083.14c96.563,-0 214.846,-88.975 214.846,-181.217c-0,-55.329 -43.404,-90.05 -105.263,-90.05c-119.358,0 -214.841,87.883 -214.841,181.2c-0,56.421 46.666,90.067 105.258,90.067" style="fill-rule:nonzero;"/></g><g><path d="M15248.6,948.596c96.58,-0 214.846,-88.979 214.846,-181.217c0,-55.329 -43.404,-90.054 -105.246,-90.054c-119.358,0 -214.841,87.883 -214.841,181.2c-0,56.425 46.65,90.071 105.241,90.071" style="fill-rule:nonzero;"/></g><g><path d="M15961.8,814.046c96.562,-0 214.841,-88.975 214.841,-181.217c0,-55.329 -43.4,-90.05 -105.258,-90.05c-119.358,0 -214.846,87.879 -214.846,181.196c0,56.425 46.667,90.071 105.263,90.071" style="fill-rule:nonzero;"/></g><g><path d="M16675,679.496c96.563,-0 214.846,-88.975 214.846,-181.217c0,-55.329 -43.404,-90.05 -105.262,-90.05c-119.354,0 -214.842,87.884 -214.842,181.2c0,56.421 46.667,90.067 105.258,90.067" style="fill-rule:nonzero;"/></g><g><path d="M17388.2,679.496c96.579,-0 214.846,-88.975 214.846,-181.217c-0,-55.329 -43.405,-90.05 -105.246,-90.05c-119.359,0 -214.842,87.884 -214.842,181.2c0,56.421 46.65,90.067 105.242,90.067" style="fill-rule:nonzero;"/></g><g><path d="M18101.6,814.046c96.562,-0 214.846,-88.975 214.846,-181.217c-0,-55.329 -43.405,-90.05 -105.263,-90.05c-119.354,0 -214.842,87.879 -214.842,181.196c0,56.425 46.667,90.071 105.259,90.071" style="fill-rule:nonzero;"/></g><g><path d="M18814.7,948.596c96.563,-0 214.846,-88.979 214.846,-181.217c0,-55.329 -43.404,-90.054 -105.262,-90.054c-119.359,0 -214.842,87.883 -214.842,181.2c0,56.425 46.667,90.071 105.258,90.071" style="fill-rule:nonzero;"/></g><g><path d="M19883.1,996.338c-6.512,21.7 -57.517,43.404 -82.467,43.404c-6.508,-0 -11.945,-2.171 -13.02,-5.438c-2.171,-4.337 -3.263,-28.208 -3.263,-54.25c0,-33.629 1.092,-71.616 3.263,-80.296c2.17,-18.437 52.083,-41.233 79.2,-41.233c7.604,0 14.116,2.171 16.287,6.508c2.171,5.438 4.338,32.555 4.338,61.859c-0,29.287 -2.167,59.671 -4.338,69.446m74.858,-176.875c7.605,-3.246 13.021,-11.93 13.021,-18.438l0,-77.05c0,-5.417 -3.246,-8.679 -7.583,-8.679c-2.171,-0 -3.267,-0 -5.438,1.091c0,0 -21.7,8.684 -27.116,9.759c-7.604,-0 -15.192,-5.417 -15.192,-14.096l0,-132.379c0,-6.513 -6.508,-11.946 -15.192,-11.946c-10.85,0 -17.358,5.433 -17.358,11.946l0,141.058c-1.096,10.85 -4.342,24.95 -14.117,31.458c-13.02,7.605 -49.912,22.796 -68.35,27.138c-9.775,-0 -13.02,-13.021 -13.02,-21.704l-0,-130.209c-0,-6.508 -7.605,-11.941 -15.192,-11.941c-10.85,-0 -17.358,5.433 -17.358,11.941l-0,146.475c-0,15.192 -6.513,26.042 -13.021,29.309c-6.513,3.246 -28.213,11.925 -28.213,11.925c-7.604,2.171 -13.021,10.85 -13.021,17.362l0,77.05c0,6.509 3.246,9.755 8.68,9.755c4.341,-0 24.95,-9.755 28.212,-11.925c1.075,-0 2.171,-1.096 3.246,-1.096c7.604,-0 14.117,10.85 14.117,19.533l-0,107.429c-0,11.929 -5.438,21.7 -11.946,24.95c-6.513,2.167 -29.288,11.942 -29.288,11.942c-7.604,2.171 -13.021,10.85 -13.021,17.362l0,77.029c0,6.513 3.246,9.775 8.68,9.775c1.075,0 3.245,-1.091 4.341,-1.091c0,-0 15.192,-6.513 24.946,-9.759c1.096,-1.091 2.171,-1.091 3.267,-1.091c7.583,-0 13.021,11.941 13.021,17.358l-0,133.475c-0,6.508 6.508,11.925 14.095,11.925c10.85,0 18.455,-5.417 18.455,-11.925l-0,-150.833c-0,-14.1 5.416,-21.704 10.85,-23.875l66.183,-27.117c1.092,0 3.262,-1.092 4.337,-1.092c8.684,0 14.117,13.021 14.117,19.53l0,135.641c0,6.513 6.508,11.929 14.096,11.929c11.946,0 18.454,-5.416 18.454,-11.929l0,-154.079c0,-8.679 4.342,-21.7 11.929,-24.967c7.604,-3.245 30.379,-11.925 30.379,-11.925c7.605,-3.262 13.021,-11.945 13.021,-18.454l0,-77.033c0,-5.433 -3.246,-8.679 -7.583,-8.679c-2.171,-0 -3.267,-0 -5.438,1.075l-28.208,10.85c-6.512,-0 -14.1,-6.509 -14.1,-19.529l0,-100.905c0,-7.604 5.417,-28.212 14.1,-31.475l28.208,-10.85" style="fill-rule:nonzero;"/></g><g><path d="M20143.4,1083.14c96.579,-0 214.846,-88.975 214.846,-181.217c-0,-55.329 -43.404,-90.05 -105.246,-90.05c-119.358,0 -214.842,87.883 -214.842,181.2c0,56.421 46.65,90.067 105.242,90.067" style="fill-rule:nonzero;"/></g><g><path d="M20856.6,1217.69c96.58,-0 214.842,-88.975 214.842,-181.217c0,-55.329 -43.4,-90.05 -105.242,-90.05c-119.358,0 -214.845,87.879 -214.845,181.196c-0,56.425 46.65,90.071 105.245,90.071" style="fill-rule:nonzero;"/></g><g><path d="M21569.9,1352.24c96.562,-0 214.846,-88.979 214.846,-181.217c-0,-55.329 -43.405,-90.054 -105.263,-90.054c-119.358,-0 -214.842,87.883 -214.842,181.2c0,56.421 46.667,90.071 105.259,90.071" style="fill-rule:nonzero;"/></g><g><path d="M22283.1,1486.79c96.579,-0 214.842,-88.975 214.842,-181.217c-0,-55.329 -43.4,-90.05 -105.242,-90.05c-119.358,-0 -214.846,87.883 -214.846,181.2c0,56.421 46.65,90.066 105.246,90.066" style="fill-rule:nonzero;"/></g><g><path d="M22996.3,1621.34c96.584,-0 214.846,-88.975 214.846,-181.217c0,-55.329 -43.404,-90.05 -105.241,-90.05c-119.359,-0 -214.846,87.879 -214.846,181.196c-0,56.425 46.65,90.071 105.241,90.071" style="fill-rule:nonzero;"/></g><g><path d="M23709.5,1755.89c96.563,-0 214.846,-88.98 214.846,-181.217c-0,-55.329 -43.404,-90.054 -105.263,-90.054c-119.358,-0 -214.841,87.883 -214.841,181.2c-0,56.425 46.666,90.071 105.258,90.071" style="fill-rule:nonzero;"/></g><g><path d="M24422.9,1890.43c96.563,0 214.846,-88.975 214.846,-181.212c-0,-55.333 -43.404,-90.054 -105.263,-90.054c-119.354,-0 -214.841,87.883 -214.841,181.2c-0,56.421 46.666,90.066 105.258,90.066" style="fill-rule:nonzero;"/></g><g><path d="M24920.8,1938.18c-6.509,21.7 -57.5,43.4 -82.463,43.4c-6.512,0 -11.929,-2.171 -13.021,-5.433c-2.17,-4.342 -3.245,-28.213 -3.245,-54.254c-0,-33.63 1.075,-71.613 3.245,-80.296c2.171,-18.438 52.084,-41.229 79.217,-41.229c7.588,-0 14.1,2.166 16.267,6.508c2.171,5.433 4.341,32.554 4.341,61.858c0,29.288 -2.17,59.671 -4.341,69.442m74.879,-176.871c7.587,-3.25 13.021,-11.929 13.021,-18.437l-0,-77.05c-0,-5.417 -3.263,-8.68 -7.604,-8.68c-2.171,0 -3.246,0 -5.417,1.092c-0,0 -21.7,8.679 -27.133,9.758c-7.588,0 -15.192,-5.416 -15.192,-14.1l-0,-132.375c-0,-6.512 -6.513,-11.945 -15.192,-11.945c-10.85,-0 -17.362,5.433 -17.362,11.945l-0,141.059c-1.075,10.85 -4.338,24.946 -14.096,31.458c-13.021,7.604 -49.913,22.796 -68.367,27.133c-9.758,0 -13.021,-13.02 -13.021,-21.7l0,-130.208c0,-6.512 -7.587,-11.946 -15.191,-11.946c-10.85,0 -17.363,5.434 -17.363,11.946l0,146.475c0,15.192 -6.508,26.042 -13.021,29.304c-6.508,3.25 -28.212,11.929 -28.212,11.929c-7.583,2.171 -13.021,10.85 -13.021,17.363l0,77.046c0,6.512 3.267,9.758 8.683,9.758c4.338,0 24.963,-9.758 28.213,-11.929c1.092,-0 2.167,-1.092 3.262,-1.092c7.588,0 14.096,10.85 14.096,19.529l0,107.434c0,11.925 -5.416,21.7 -11.925,24.946c-6.512,2.17 -29.308,11.945 -29.308,11.945c-7.583,2.171 -13.021,10.85 -13.021,17.363l0,77.029c0,6.513 3.267,9.775 8.683,9.775c1.092,0 3.263,-1.096 4.338,-1.096c-0,0 15.192,-6.508 24.967,-9.754c1.075,-1.096 2.17,-1.096 3.245,-1.096c7.605,0 13.021,11.946 13.021,17.363l0,133.471c0,6.512 6.513,11.929 14.117,11.929c10.85,-0 18.437,-5.417 18.437,-11.929l0,-150.834c0,-14.096 5.434,-21.7 10.85,-23.871l66.196,-27.116c1.079,-0 3.25,-1.096 4.342,-1.096c8.679,0 14.096,13.021 14.096,19.533l-0,135.642c-0,6.508 6.512,11.925 14.116,11.925c11.925,-0 18.438,-5.417 18.438,-11.925l-0,-154.079c-0,-8.683 4.342,-21.704 11.946,-24.967c7.583,-3.246 30.379,-11.925 30.379,-11.925c7.587,-3.266 13.021,-11.946 13.021,-18.458l-0,-77.029c-0,-5.434 -3.263,-8.679 -7.604,-8.679c-2.171,-0 -3.246,-0 -5.417,1.074l-28.213,10.85c-6.508,0 -14.112,-6.508 -14.112,-19.529l-0,-100.904c-0,-7.604 5.433,-28.212 14.112,-31.475l28.213,-10.85" style="fill-rule:nonzero;"/></g><g><path d="M25181.1,2024.98c96.562,0 214.841,-88.975 214.841,-181.216c0,-55.329 -43.4,-90.05 -105.258,-90.05c-119.358,-0 -214.846,87.879 -214.846,181.196c0,56.425 46.667,90.07 105.263,90.07" style="fill-rule:nonzero;"/></g><g><path d="M25894.3,2159.53c96.583,0 214.846,-88.979 214.846,-181.216c-0,-55.329 -43.404,-90.054 -105.242,-90.054c-119.358,-0 -214.846,87.883 -214.846,181.2c0,56.425 46.65,90.07 105.242,90.07" style="fill-rule:nonzero;"/></g><g><path d="M26607.4,2294.08c96.579,0 214.846,-88.975 214.846,-181.212c-0,-55.334 -43.405,-90.055 -105.246,-90.055c-119.359,0 -214.842,87.884 -214.842,181.2c0,56.421 46.65,90.067 105.242,90.067" style="fill-rule:nonzero;"/></g><g><path d="M27320.8,2428.63c96.562,0 214.846,-88.975 214.846,-181.216c-0,-55.33 -43.405,-90.05 -105.263,-90.05c-119.354,-0 -214.842,87.879 -214.842,181.195c0,56.425 46.667,90.071 105.259,90.071" style="fill-rule:nonzero;"/></g><g><path d="M28034,2563.18c96.579,0 214.846,-88.979 214.846,-181.216c-0,-55.33 -43.404,-90.055 -105.246,-90.055c-119.358,0 -214.842,87.884 -214.842,181.2c0,56.425 46.65,90.067 105.242,90.067" style="fill-rule:nonzero;"/></g><g><path d="M565.491,2008.7c3.246,20.625 3.246,19.529 -16.283,26.042c-95.488,32.55 -157.346,118.279 -157.346,210.5c-0,97.658 51.008,167.104 124.792,192.066c8.683,3.246 21.704,6.513 29.291,6.513c8.679,-0 13.021,-5.433 13.021,-11.946c0,-7.587 -8.683,-10.85 -16.271,-14.096c-45.571,-19.533 -78.125,-66.2 -78.125,-116.112c0,-61.842 42.313,-108.509 108.509,-126.946c17.362,-4.338 19.533,-3.263 21.7,8.683l54.254,323.35c2.171,11.925 1.079,11.925 -15.192,15.192c-17.358,3.246 -39.062,5.417 -60.762,5.417c-189.896,-0 -312.5,-105.246 -312.5,-256.08c-0,-64.008 10.85,-149.737 100.904,-251.733c65.104,-72.692 115.016,-112.85 166.025,-154.079c10.85,-8.684 13.021,-7.588 15.187,4.337l22.779,138.892m118.284,-738.925c35.796,0 65.104,29.287 65.104,88.975c-0,120.433 -103.092,218.092 -188.804,292.971c-7.604,6.508 -11.946,5.417 -14.113,-8.684c-4.341,-28.212 -6.512,-65.104 -6.512,-99.824c-0,-169.271 78.125,-273.438 144.325,-273.438m-43.404,911.458c-2.171,-13.021 -1.096,-16.283 11.925,-15.191c87.9,7.587 160.591,81.37 160.591,176.858c0,68.367 -41.233,123.696 -101.996,154.079c-13.02,6.513 -15.191,6.513 -17.362,-6.508l-53.158,-309.238m-58.596,-338.541c-2.167,-13.021 -0,-14.117 6.512,-20.625c117.188,-109.584 206.163,-247.396 206.163,-413.405c-0,-94.408 -26.042,-187.725 -70.538,-252.829c-16.266,-23.871 -44.479,-54.254 -56.425,-54.254c-15.191,0 -48.816,28.213 -70.521,52.083c-80.295,88.975 -106.337,224.621 -106.337,337.467c-0,62.933 7.587,133.454 15.192,177.95c2.17,13.021 3.245,15.192 -9.775,26.042c-156.25,129.116 -322.255,284.287 -322.255,503.475c0,188.8 129.113,367.829 394.963,367.829c24.95,-0 53.162,-2.171 74.862,-6.513c11.946,-2.17 14.117,-3.245 16.284,9.775c13.021,72.692 29.291,167.1 29.291,218.092c0,160.588 -108.508,180.121 -172.52,180.121c-58.592,-0 -86.805,-17.363 -86.805,-31.458c0,-7.605 9.759,-10.85 34.721,-18.455c33.629,-9.758 72.692,-39.062 72.692,-102c-0,-59.666 -37.967,-110.675 -104.167,-110.675c-72.691,0 -116.091,57.517 -116.091,124.792c-0,70.521 42.308,176.858 206.162,176.858c72.692,0 213.75,-32.554 213.75,-217.016c0,-61.838 -19.533,-164.929 -31.458,-232.204c-2.171,-13.021 -1.096,-11.925 14.096,-18.438c109.6,-43.4 182.291,-135.642 182.291,-258.246c0,-138.887 -101.996,-261.508 -261.491,-261.508c-28.213,-0 -28.213,-0 -31.475,-19.533l-27.121,-157.325" style="fill-rule:nonzero;"/></g><g><path d="M2352.2,3503.67c-14.106,-0 -21.702,6.51 -21.702,16.276c0,9.765 7.596,16.276 21.702,16.276l10.85,-0c40.148,-0 59.679,23.871 59.679,58.594c0,47.743 -33.637,113.932 -99.826,113.932c-21.702,0 -39.063,-8.681 -39.063,-19.531c0,-6.511 5.426,-8.681 14.106,-13.021c11.936,-5.425 27.127,-18.446 27.127,-46.658c-0,-26.042 -18.446,-39.063 -41.233,-39.063c-30.382,0 -53.168,27.127 -53.168,62.934c-0,43.403 34.722,83.551 111.762,83.551c92.231,-0 168.186,-55.339 168.186,-141.059c0,-27.127 -14.106,-53.169 -42.318,-67.275c-7.595,-3.255 -11.936,-4.34 -11.936,-9.765c0,-3.256 4.341,-5.426 13.021,-9.766c45.573,-18.446 82.466,-53.168 82.466,-96.571c-0,-56.424 -54.254,-91.146 -120.443,-91.146c-68.36,-0 -124.783,35.807 -126.953,94.401c-1.086,28.212 16.276,46.658 41.232,46.658c27.127,-0 48.828,-21.701 48.828,-50.998c0,-11.936 -4.34,-20.617 -9.765,-27.127c-7.596,-6.511 -13.021,-10.851 -13.021,-14.106c-0,-7.596 13.021,-15.191 35.807,-15.191c42.318,-0 56.424,26.042 56.424,49.913c-0,57.509 -36.892,98.742 -99.827,98.742l-11.935,-0Z" style="fill-rule:nonzero;"/></g><g><path d="M4644.52,3100.03c-14.106,-0 -21.702,6.51 -21.702,16.276c0,9.766 7.596,16.276 21.702,16.276l10.85,-0c40.148,-0 59.679,23.872 59.679,58.594c0,47.743 -33.637,113.932 -99.826,113.932c-21.702,0 -39.063,-8.68 -39.063,-19.531c0,-6.51 5.426,-8.681 14.106,-13.021c11.936,-5.425 27.127,-18.446 27.127,-46.658c-0,-26.042 -18.446,-39.062 -41.233,-39.062c-30.382,-0 -53.168,27.126 -53.168,62.934c-0,43.402 34.722,83.55 111.762,83.55c92.231,0 168.186,-55.339 168.186,-141.059c0,-27.127 -14.106,-53.169 -42.318,-67.275c-7.595,-3.255 -11.936,-4.34 -11.936,-9.765c0,-3.255 4.341,-5.426 13.021,-9.766c45.573,-18.446 82.466,-53.168 82.466,-96.571c-0,-56.424 -54.254,-91.146 -120.443,-91.146c-68.36,-0 -124.783,35.807 -126.953,94.401c-1.086,28.212 16.276,46.658 41.232,46.658c27.127,0 48.828,-21.701 48.828,-50.998c0,-11.936 -4.34,-20.617 -9.765,-27.127c-7.596,-6.51 -13.021,-10.851 -13.021,-14.106c-0,-7.595 13.021,-15.191 35.807,-15.191c42.318,0 56.424,26.042 56.424,49.913c-0,57.509 -36.892,98.742 -99.827,98.742l-11.935,-0Z" style="fill-rule:nonzero;"/></g><g><path d="M6784.23,2811.62c-14.106,-0 -21.701,6.51 -21.701,16.276c-0,9.765 7.595,16.276 21.701,16.276l10.851,-0c40.147,-0 59.679,23.871 59.679,58.594c-0,47.743 -33.638,113.932 -99.827,113.932c-21.701,0 -39.062,-8.681 -39.062,-19.531c-0,-6.511 5.425,-8.681 14.105,-13.021c11.936,-5.425 27.127,-18.446 27.127,-46.658c0,-26.042 -18.446,-39.063 -41.232,-39.063c-30.382,0 -53.169,27.127 -53.169,62.934c0,43.403 34.722,83.551 111.762,83.551c92.231,-0 168.186,-55.339 168.186,-141.059c0,-27.127 -14.106,-53.169 -42.317,-67.275c-7.596,-3.255 -11.936,-4.34 -11.936,-9.765c-0,-3.256 4.34,-5.426 13.021,-9.766c45.573,-18.446 82.465,-53.168 82.465,-96.571c0,-56.424 -54.254,-91.146 -120.443,-91.146c-68.359,-0 -124.783,35.807 -126.953,94.401c-1.085,28.212 16.276,46.658 41.233,46.658c27.126,-0 48.828,-21.701 48.828,-50.998c-0,-11.936 -4.341,-20.617 -9.766,-27.127c-7.595,-6.511 -13.021,-10.851 -13.021,-14.106c0,-7.596 13.021,-15.191 35.808,-15.191c42.317,-0 56.423,26.042 56.423,49.913c0,57.509 -36.892,98.742 -99.826,98.742l-11.936,-0Z" style="fill-rule:nonzero;"/></g><g><path d="M8786.73,3070.63c-14.106,0 -21.701,6.51 -21.701,16.276c-0,9.766 7.595,16.276 21.701,16.276l10.851,0c40.147,0 59.679,23.872 59.679,58.594c-0,47.743 -33.638,113.932 -99.827,113.932c-21.701,0 -39.062,-8.68 -39.062,-19.531c-0,-6.51 5.425,-8.68 14.105,-13.021c11.936,-5.425 27.127,-18.446 27.127,-46.658c0,-26.041 -18.446,-39.062 -41.232,-39.062c-30.382,-0 -53.169,27.126 -53.169,62.934c0,43.403 34.722,83.55 111.762,83.55c92.231,0 168.186,-55.338 168.186,-141.059c0,-27.127 -14.106,-53.168 -42.317,-67.274c-7.596,-3.256 -11.936,-4.341 -11.936,-9.766c-0,-3.255 4.34,-5.425 13.021,-9.766c45.573,-18.446 82.465,-53.168 82.465,-96.571c0,-56.424 -54.254,-91.146 -120.443,-91.146c-68.359,0 -124.783,35.807 -126.953,94.401c-1.085,28.212 16.276,46.658 41.233,46.658c27.126,0 48.828,-21.701 48.828,-50.998c-0,-11.936 -4.341,-20.616 -9.766,-27.127c-7.595,-6.51 -13.021,-10.85 -13.021,-14.106c0,-7.595 13.021,-15.191 35.808,-15.191c42.317,0 56.423,26.042 56.423,49.914c0,57.508 -36.892,98.741 -99.826,98.741l-11.936,0Z" style="fill-rule:nonzero;"/></g><g><path d="M11396.4,2811.66c-14.106,0 -21.701,6.51 -21.701,16.276c-0,9.766 7.595,16.276 21.701,16.276l10.851,0c40.148,0 59.679,23.872 59.679,58.594c-0,47.743 -33.637,113.932 -99.827,113.932c-21.701,0 -39.062,-8.68 -39.062,-19.531c-0,-6.51 5.425,-8.68 14.106,-13.021c11.936,-5.425 27.127,-18.446 27.127,-46.658c-0,-26.041 -18.447,-39.062 -41.233,-39.062c-30.382,-0 -53.169,27.126 -53.169,62.934c0,43.403 34.723,83.55 111.763,83.55c92.231,0 168.186,-55.338 168.186,-141.059c-0,-27.127 -14.106,-53.168 -42.318,-67.274c-7.596,-3.256 -11.936,-4.341 -11.936,-9.766c0,-3.255 4.34,-5.425 13.021,-9.766c45.573,-18.446 82.465,-53.168 82.465,-96.571c0,-56.424 -54.253,-91.146 -120.442,-91.146c-68.36,0 -124.784,35.807 -126.954,94.401c-1.085,28.212 16.276,46.658 41.233,46.658c27.127,0 48.828,-21.701 48.828,-50.998c0,-11.936 -4.34,-20.616 -9.766,-27.127c-7.595,-6.51 -13.02,-10.85 -13.02,-14.106c-0,-7.595 13.02,-15.191 35.807,-15.191c42.318,0 56.424,26.042 56.424,49.914c-0,57.508 -36.893,98.741 -99.827,98.741l-11.936,0Z" style="fill-rule:nonzero;"/></g><g><path d="M13612.5,2811.66c-14.106,0 -21.701,6.51 -21.701,16.276c-0,9.766 7.595,16.276 21.701,16.276l10.851,0c40.147,0 59.679,23.872 59.679,58.594c-0,47.743 -33.638,113.932 -99.827,113.932c-21.701,0 -39.062,-8.68 -39.062,-19.531c-0,-6.51 5.425,-8.68 14.105,-13.021c11.936,-5.425 27.127,-18.446 27.127,-46.658c0,-26.041 -18.446,-39.062 -41.232,-39.062c-30.382,-0 -53.169,27.126 -53.169,62.934c0,43.403 34.722,83.55 111.762,83.55c92.231,0 168.186,-55.338 168.186,-141.059c0,-27.127 -14.106,-53.168 -42.317,-67.274c-7.596,-3.256 -11.936,-4.341 -11.936,-9.766c-0,-3.255 4.34,-5.425 13.021,-9.766c45.573,-18.446 82.465,-53.168 82.465,-96.571c0,-56.424 -54.254,-91.146 -120.443,-91.146c-68.359,0 -124.783,35.807 -126.953,94.401c-1.085,28.212 16.276,46.658 41.233,46.658c27.126,0 48.828,-21.701 48.828,-50.998c-0,-11.936 -4.341,-20.616 -9.766,-27.127c-7.595,-6.51 -13.021,-10.85 -13.021,-14.106c0,-7.595 13.021,-15.191 35.808,-15.191c42.317,0 56.423,26.042 56.423,49.914c0,57.508 -36.892,98.741 -99.826,98.741l-11.936,0Z" style="fill-rule:nonzero;"/></g><g><path d="M15828.4,2811.66c-14.106,0 -21.701,6.51 -21.701,16.276c-0,9.766 7.595,16.276 21.701,16.276l10.851,0c40.147,0 59.679,23.872 59.679,58.594c-0,47.743 -33.638,113.932 -99.827,113.932c-21.701,0 -39.062,-8.68 -39.062,-19.531c-0,-6.51 5.425,-8.68 14.105,-13.021c11.936,-5.425 27.127,-18.446 27.127,-46.658c0,-26.041 -18.446,-39.062 -41.232,-39.062c-30.382,-0 -53.169,27.126 -53.169,62.934c0,43.403 34.722,83.55 111.762,83.55c92.231,0 168.186,-55.338 168.186,-141.059c0,-27.127 -14.106,-53.168 -42.317,-67.274c-7.596,-3.256 -11.936,-4.341 -11.936,-9.766c-0,-3.255 4.34,-5.425 13.021,-9.766c45.573,-18.446 82.465,-53.168 82.465,-96.571c0,-56.424 -54.254,-91.146 -120.443,-91.146c-68.359,0 -124.783,35.807 -126.953,94.401c-1.085,28.212 16.276,46.658 41.233,46.658c27.126,0 48.828,-21.701 48.828,-50.998c-0,-11.936 -4.341,-20.616 -9.766,-27.127c-7.595,-6.51 -13.021,-10.85 -13.021,-14.106c0,-7.595 13.021,-15.191 35.808,-15.191c42.317,0 56.423,26.042 56.423,49.914c0,57.508 -36.892,98.741 -99.826,98.741l-11.936,0Z" style="fill-rule:nonzero;"/></g><g><path d="M17968.1,2811.66c-14.106,0 -21.702,6.51 -21.702,16.276c0,9.766 7.596,16.276 21.702,16.276l10.85,0c40.148,0 59.679,23.872 59.679,58.594c0,47.743 -33.637,113.932 -99.826,113.932c-21.702,0 -39.063,-8.68 -39.063,-19.531c0,-6.51 5.426,-8.68 14.106,-13.021c11.936,-5.425 27.127,-18.446 27.127,-46.658c-0,-26.041 -18.446,-39.062 -41.233,-39.062c-30.382,-0 -53.168,27.126 -53.168,62.934c-0,43.403 34.722,83.55 111.762,83.55c92.231,0 168.186,-55.338 168.186,-141.059c0,-27.127 -14.106,-53.168 -42.318,-67.274c-7.595,-3.256 -11.936,-4.341 -11.936,-9.766c0,-3.255 4.341,-5.425 13.021,-9.766c45.573,-18.446 82.466,-53.168 82.466,-96.571c-0,-56.424 -54.254,-91.146 -120.443,-91.146c-68.36,0 -124.783,35.807 -126.953,94.401c-1.086,28.212 16.276,46.658 41.232,46.658c27.127,0 48.828,-21.701 48.828,-50.998c0,-11.936 -4.34,-20.616 -9.765,-27.127c-7.596,-6.51 -13.021,-10.85 -13.021,-14.106c-0,-7.595 13.021,-15.191 35.807,-15.191c42.318,0 56.424,26.042 56.424,49.914c-0,57.508 -36.892,98.741 -99.827,98.741l-11.935,0Z" style="fill-rule:nonzero;"/></g><g><path d="M20723.4,2811.66c-14.106,0 -21.701,6.51 -21.701,16.276c-0,9.766 7.595,16.276 21.701,16.276l10.851,0c40.147,0 59.679,23.872 59.679,58.594c-0,47.743 -33.638,113.932 -99.827,113.932c-21.701,0 -39.062,-8.68 -39.062,-19.531c-0,-6.51 5.425,-8.68 14.105,-13.021c11.936,-5.425 27.127,-18.446 27.127,-46.658c0,-26.041 -18.446,-39.062 -41.232,-39.062c-30.382,-0 -53.169,27.126 -53.169,62.934c0,43.403 34.722,83.55 111.762,83.55c92.231,0 168.186,-55.338 168.186,-141.059c0,-27.127 -14.106,-53.168 -42.317,-67.274c-7.596,-3.256 -11.936,-4.341 -11.936,-9.766c-0,-3.255 4.34,-5.425 13.021,-9.766c45.573,-18.446 82.465,-53.168 82.465,-96.571c0,-56.424 -54.254,-91.146 -120.443,-91.146c-68.359,0 -124.783,35.807 -126.953,94.401c-1.085,28.212 16.276,46.658 41.233,46.658c27.126,0 48.828,-21.701 48.828,-50.998c-0,-11.936 -4.341,-20.616 -9.766,-27.127c-7.595,-6.51 -13.021,-10.85 -13.021,-14.106c0,-7.595 13.021,-15.191 35.808,-15.191c42.317,0 56.423,26.042 56.423,49.914c0,57.508 -36.892,98.741 -99.826,98.741l-11.936,0Z" style="fill-rule:nonzero;"/></g><g><path d="M22863.1,2811.66c-14.106,0 -21.701,6.51 -21.701,16.276c-0,9.766 7.595,16.276 21.701,16.276l10.851,0c40.147,0 59.679,23.872 59.679,58.594c-0,47.743 -33.638,113.932 -99.827,113.932c-21.701,0 -39.062,-8.68 -39.062,-19.531c-0,-6.51 5.425,-8.68 14.105,-13.021c11.936,-5.425 27.127,-18.446 27.127,-46.658c0,-26.041 -18.446,-39.062 -41.232,-39.062c-30.382,-0 -53.169,27.126 -53.169,62.934c0,43.403 34.722,83.55 111.762,83.55c92.231,0 168.186,-55.338 168.186,-141.059c0,-27.127 -14.106,-53.168 -42.317,-67.274c-7.596,-3.256 -11.936,-4.341 -11.936,-9.766c-0,-3.255 4.34,-5.425 13.021,-9.766c45.573,-18.446 82.465,-53.168 82.465,-96.571c0,-56.424 -54.254,-91.146 -120.443,-91.146c-68.359,0 -124.783,35.807 -126.953,94.401c-1.085,28.212 16.276,46.658 41.233,46.658c27.126,0 48.828,-21.701 48.828,-50.998c-0,-11.936 -4.341,-20.616 -9.766,-27.127c-7.595,-6.51 -13.021,-10.85 -13.021,-14.106c0,-7.595 13.021,-15.191 35.808,-15.191c42.317,0 56.423,26.042 56.423,49.914c0,57.508 -36.892,98.741 -99.826,98.741l-11.936,0Z" style="fill-rule:nonzero;"/></g><g><path d="M25025.2,3069.14c-14.106,0 -21.701,6.511 -21.701,16.276c-0,9.766 7.595,16.276 21.701,16.276l10.851,0c40.147,0 59.679,23.872 59.679,58.594c-0,47.743 -33.638,113.933 -99.827,113.933c-21.701,-0 -39.062,-8.681 -39.062,-19.532c-0,-6.51 5.425,-8.68 14.105,-13.02c11.936,-5.426 27.127,-18.447 27.127,-46.658c0,-26.042 -18.446,-39.063 -41.232,-39.063c-30.382,0 -53.169,27.127 -53.169,62.934c0,43.403 34.722,83.551 111.762,83.551c92.231,-0 168.186,-55.339 168.186,-141.06c0,-27.126 -14.106,-53.168 -42.317,-67.274c-7.596,-3.255 -11.936,-4.34 -11.936,-9.766c-0,-3.255 4.34,-5.425 13.021,-9.765c45.573,-18.447 82.465,-53.169 82.465,-96.572c0,-56.423 -54.254,-91.146 -120.443,-91.146c-68.359,0 -124.783,35.808 -126.953,94.402c-1.085,28.211 16.276,46.658 41.233,46.658c27.126,-0 48.828,-21.702 48.828,-50.999c-0,-11.935 -4.341,-20.616 -9.766,-27.126c-7.595,-6.511 -13.021,-10.851 -13.021,-14.106c0,-7.596 13.021,-15.191 35.808,-15.191c42.317,-0 56.423,26.041 56.423,49.913c0,57.509 -36.892,98.741 -99.826,98.741l-11.936,0Z" style="fill-rule:nonzero;"/></g><g><path d="M27347.5,2811.67c-14.106,-0 -21.701,6.51 -21.701,16.276c-0,9.765 7.595,16.276 21.701,16.276l10.851,-0c40.147,-0 59.679,23.871 59.679,58.594c-0,47.743 -33.638,113.932 -99.827,113.932c-21.701,0 -39.062,-8.681 -39.062,-19.531c-0,-6.511 5.425,-8.681 14.105,-13.021c11.936,-5.425 27.127,-18.446 27.127,-46.658c0,-26.042 -18.446,-39.063 -41.232,-39.063c-30.382,0 -53.169,27.127 -53.169,62.934c0,43.403 34.722,83.551 111.762,83.551c92.231,-0 168.186,-55.339 168.186,-141.059c0,-27.127 -14.106,-53.169 -42.317,-67.275c-7.596,-3.255 -11.936,-4.34 -11.936,-9.765c-0,-3.256 4.34,-5.426 13.021,-9.766c45.573,-18.446 82.465,-53.168 82.465,-96.571c0,-56.424 -54.254,-91.146 -120.443,-91.146c-68.359,-0 -124.783,35.807 -126.953,94.401c-1.085,28.212 16.276,46.658 41.233,46.658c27.126,-0 48.828,-21.701 48.828,-50.998c-0,-11.936 -4.341,-20.617 -9.766,-27.127c-7.595,-6.511 -13.021,-10.851 -13.021,-14.106c0,-7.596 13.021,-15.191 35.808,-15.191c42.317,-0 56.423,26.042 56.423,49.913c0,57.509 -36.892,98.742 -99.826,98.742l-11.936,-0Z" style="fill-rule:nonzero;"/></g><g><path d="M1794.87,2158.44l0,-135.138l1458.87,-134.55l-0,135.137l-1458.87,134.55" style="fill-rule:nonzero;"/></g><g><path d="M4087.07,1889.34l0,-135.142l1458.89,-134.546l-0,135.138l-1458.89,134.55" style="fill-rule:nonzero;"/></g><g><path d="M6226.81,1620.24l-0,-136.925l1458.87,-269.08l-0,136.909l-1458.87,269.096" style="fill-rule:nonzero;"/></g><g><path d="M8078.52,2899.7l0,-135.796l1504.45,-201.825l-0,135.8l-1504.46,201.821" style="fill-rule:nonzero;"/></g><g><path d="M10711.4,2631.75l-0,-136.946l1458.33,-269.095l0,136.945l-1458.33,269.096" style="fill-rule:nonzero;"/></g><g><path d="M12851.2,2158.93l-0,-135.037l1611.32,-134.546l-0,135.033l-1611.32,134.55" style="fill-rule:nonzero;"/></g><g><path d="M15143.4,2091.34l0,-134.721l1458.87,-67.275l-0,134.72l-1458.87,67.275" style="fill-rule:nonzero;"/></g><g><path d="M17283.1,2024.5l0,-135.154l1458.87,134.546l-0,135.158l-1458.87,-134.55" style="fill-rule:nonzero;"/></g><g><path d="M20038.2,2024.5l-0,-135.154l1458.87,134.546l-0,135.158l-1458.87,-134.55" style="fill-rule:nonzero;"/></g><g><path d="M22177.9,2362.66l-0,-136.945l1458.87,269.095l-0,136.946l-1458.87,-269.096" style="fill-rule:nonzero;"/></g><g><path d="M24317.7,2697.88l-0,-135.8l1503.91,201.825l0,135.796l-1503.91,-201.821" style="fill-rule:nonzero;"/></g><g><path d="M26789.9,1351.15l-0,-136.909l1458.87,269.08l-0,136.925l-1458.87,-269.096" style="fill-rule:nonzero;"/></g><g><path d="M1418.36,3699.9l668.941,-117.621l0,-43.783l-626.095,110.066l-0,-150.483l-42.846,0" style="fill-rule:nonzero;"/></g><g><path d="M3274.9,3370.47l-601.667,105.417l-0,-43.788l558.8,-101.508l-0,-161.946l42.867,-0" style="fill-rule:nonzero;"/></g><g><path d="M3710.56,3296.25l668.942,-117.621l-0,-43.783l-626.096,110.067l-0,-150.484l-42.846,0" style="fill-rule:nonzero;"/></g><g><path d="M5567.1,2966.83l-601.666,105.417l-0,-43.788l558.816,-101.508l0,-161.946l42.85,0" style="fill-rule:nonzero;"/></g><g><path d="M5850.31,2837.69l666.771,-0.434l-0,-43.075l-623.909,0.434l0,-158.75l-42.862,-0" style="fill-rule:nonzero;"/></g><g><path d="M7706.85,2836.39l-599.495,0.438l-0,-43.075l556.633,-0.383l-0,-158.8l42.862,-0" style="fill-rule:nonzero;"/></g><g><path d="M26413.5,2836.39l667.329,0.488l0,-43.071l-624.462,-0.437l-0,-158.8l-42.867,-0" style="fill-rule:nonzero;"/></g><g><path d="M28270.6,2837.69l-600.037,-0.384l-0,-43.07l556.633,0.379l-0,-158.75l43.404,-0" style="fill-rule:nonzero;"/></g><g><path d="M39.224,5253.04l7053.5,-0" style="fill:none;stroke:#000;stroke-width:35.08px;"/><path d="M39.224,6060.33l7053.5,0" style="fill:none;stroke:#000;stroke-width:35.08px;"/><path d="M39.224,5522.17l7053.5,-0" style="fill:none;stroke:#000;stroke-width:35.08px;"/><path d="M39.224,5791.25l7053.5,0" style="fill:none;stroke:#000;stroke-width:35.08px;"/><path d="M39.224,6329.46l7053.5,0" style="fill:none;stroke:#000;stroke-width:35.08px;"/></g><g><path d="M6920.18,5235.58l-0,1111.32" style="fill:none;stroke:#000;stroke-width:43.04px;"/><path d="M7071.02,5235.58l0,1111.32" style="fill:none;stroke:#000;stroke-width:43.04px;"/></g><g><path d="M1810.6,5454.25l0,830.017" style="fill:none;stroke:#000;stroke-width:32.29px;"/><path d="M2432.89,5514.88l-0,903.925" style="fill:none;stroke:#000;stroke-width:32.29px;"/><path d="M3191.36,5588.79l-0,964.566" style="fill:none;stroke:#000;stroke-width:32.29px;"/></g><g><path d="M2842.51,6598.54l472.55,-0" style="fill:none;stroke:#000;stroke-width:43.04px;"/></g><g><path d="M3813.63,5791.04l-0,896.858" style="fill:none;stroke:#000;stroke-width:32.29px;"/></g><g><path d="M3401.86,6598.54l535.471,-0" style="fill:none;stroke:#000;stroke-width:43.04px;"/></g><g><path d="M4435.93,5824.67l-0,997.779" style="fill:none;stroke:#000;stroke-width:32.29px;"/></g><g><path d="M4024.14,6867.62l535.487,0" style="fill:none;stroke:#000;stroke-width:43.04px;"/><path d="M4024.14,6598.54l535.487,-0" style="fill:none;stroke:#000;stroke-width:43.04px;"/></g><g><path d="M5057.68,5858.33l-0,1098.68" style="fill:none;stroke:#000;stroke-width:32.29px;"/></g><g><path d="M4646.43,6867.62l535.487,0" style="fill:none;stroke:#000;stroke-width:43.04px;"/><path d="M4646.43,6598.54l535.487,-0" style="fill:none;stroke:#000;stroke-width:43.04px;"/></g><g><path d="M5679.93,5791.25l-0,1165.75" style="fill:none;stroke:#000;stroke-width:32.29px;"/></g><g><path d="M5268.72,6867.62l535.488,0" style="fill:none;stroke:#000;stroke-width:43.04px;"/><path d="M5268.72,6598.54l535.488,-0" style="fill:none;stroke:#000;stroke-width:43.04px;"/></g><g><path d="M1724.76,4886.29l-0,-116.096c-0,-5.434 -1.092,-9.775 -6.508,-9.775c-4.342,-0 -7.605,1.096 -10.85,5.433l-32.555,62.938c-2.17,2.166 -5.433,5.416 -5.433,13.021l0,44.479l-70.521,-0c44.479,-36.896 113.925,-159.5 115.017,-166.009c-0,-1.096 1.075,-2.171 1.075,-3.262c-0,-4.342 -4.338,-7.588 -7.583,-7.588c-5.438,0 -28.213,2.171 -37.988,2.171c-9.758,0 -16.267,-2.171 -20.608,-2.171c-5.434,0 -13.021,2.171 -13.021,10.85c-0,69.446 -56.425,148.646 -70.538,168.175c-2.17,2.171 -4.341,5.434 -4.341,8.684c-0,5.433 4.341,10.85 10.85,10.85l97.658,-0l0,33.645c0,15.192 -8.679,19.53 -17.362,19.53c-9.755,-0 -14.096,4.341 -14.096,9.758c-0,5.433 2.171,11.946 11.925,11.946l93.316,-0c5.434,-0 10.85,-4.342 10.85,-11.946c0,-7.587 -6.508,-10.85 -11.925,-10.85c-5.433,0 -17.362,-3.246 -17.362,-20.608l-0,-31.475l40.142,-0c5.433,-0 8.679,-4.342 8.679,-10.85c-0,-6.513 -2.171,-10.854 -8.679,-10.854l-40.142,-0" style="fill-rule:nonzero;"/></g><g><path d="M2396.76,4897.17c-0,-7.588 -3.246,-8.684 -6.509,-8.684c-4.341,0 -6.512,3.267 -7.587,6.513c-5.433,15.191 -17.363,34.721 -33.646,34.721c-2.171,-0 -4.342,-0 -6.508,-1.075l-16.271,-5.434c-10.85,-4.341 -36.892,-13.021 -58.592,-13.021c-7.604,0 -14.116,1.092 -20.625,3.263c11.946,-20.625 68.367,-47.742 80.296,-51.008c39.063,-5.417 71.613,-28.209 71.613,-70.521c-0,-26.042 -10.85,-43.4 -24.946,-56.421c-28.213,-22.796 -69.446,-26.042 -81.392,-26.042c-39.062,0 -70.521,2.171 -98.729,34.721c-7.604,8.679 -10.854,17.363 -10.854,26.042c-0,7.587 3.25,16.266 6.512,26.042c6.509,13.02 20.609,22.779 35.8,22.779c27.134,-0 30.379,-26.042 30.379,-37.971c0,-24.967 -27.116,-27.134 -27.116,-37.988c-0,-7.583 10.85,-20.604 43.404,-20.604c50.987,0 68.35,42.309 68.35,55.329c-0,19.529 -6.513,37.984 -17.363,53.175c-19.529,24.95 -55.329,33.629 -82.466,50.992c-30.379,18.454 -50.988,49.913 -60.763,84.633c0,7.604 3.263,16.288 9.775,19.534c1.075,1.091 3.246,1.091 4.342,1.091c11.925,0 18.437,-33.646 50.987,-33.646c21.7,0 29.305,29.309 78.125,29.309c22.796,-0 65.105,-2.171 73.784,-85.729" style="fill-rule:nonzero;"/></g><g><path d="M2985.22,4835.33c0,0 -1.079,4.342 -1.079,7.588c-0,4.341 4.342,8.679 8.683,8.679c3.246,0 5.417,-3.246 6.509,-4.342c1.075,-3.245 14.095,-47.741 20.608,-58.591c2.171,-4.342 4.342,-5.417 5.433,-5.417c2.171,0 3.246,4.342 3.246,7.588l0,155.17c0,13.021 -10.85,20.609 -21.7,20.609c-4.342,-0 -9.758,2.171 -9.758,8.683c-0,6.508 5.416,8.679 14.1,8.679l91.146,0c8.679,0 8.679,-8.679 8.679,-8.679c-0,0 -0,-8.683 -8.679,-8.683c-7.588,-0 -17.363,-9.754 -17.363,-19.529l0,-225.696c0,-8.679 -3.246,-13.021 -10.85,-13.021c-7.587,-0 -14.1,2.171 -20.608,2.171c-10.85,-0 -13.021,-0 -21.7,-2.171c-4.342,-0 -9.775,6.512 -13.021,10.85l-33.646,116.112" style="fill-rule:nonzero;"/></g><g><path d="M3727.38,4886.29l-0,-116.096c-0,-5.434 -1.092,-9.775 -6.509,-9.775c-4.341,-0 -7.604,1.096 -10.85,5.433l-32.554,62.938c-2.171,2.166 -5.433,5.416 -5.433,13.021l-0,44.479l-70.521,-0c44.479,-36.896 113.925,-159.5 115.017,-166.009c-0,-1.096 1.079,-2.171 1.079,-3.262c-0,-4.342 -4.342,-7.588 -7.588,-7.588c-5.433,0 -28.212,2.171 -37.987,2.171c-9.758,0 -16.267,-2.171 -20.608,-2.171c-5.434,0 -13.021,2.171 -13.021,10.85c-0,69.446 -56.421,148.646 -70.538,168.175c-2.171,2.171 -4.341,5.434 -4.341,8.684c-0,5.433 4.341,10.85 10.854,10.85l97.654,-0l-0,33.645c-0,15.192 -8.679,19.53 -17.363,19.53c-9.754,-0 -14.095,4.341 -14.095,9.758c-0,5.433 2.17,11.946 11.929,11.946l93.312,-0c5.438,-0 10.854,-4.342 10.854,-11.946c0,-7.587 -6.512,-10.85 -11.929,-10.85c-5.433,0 -17.362,-3.246 -17.362,-20.608l-0,-31.475l40.141,-0c5.434,-0 8.68,-4.342 8.68,-10.85c-0,-6.513 -2.171,-10.854 -8.68,-10.854l-40.141,-0" style="fill-rule:nonzero;"/></g><g><path d="M4399.43,4897.17c-0,-7.588 -3.263,-8.684 -6.513,-8.684c-4.337,0 -6.508,3.267 -7.604,6.513c-5.417,15.191 -17.358,34.721 -33.625,34.721c-2.171,-0 -4.342,-0 -6.512,-1.075l-16.284,-5.434c-10.85,-4.341 -36.891,-13.021 -58.596,-13.021c-7.587,0 -14.095,1.092 -20.608,3.263c11.929,-20.625 68.354,-47.742 80.296,-51.008c39.062,-5.417 71.617,-28.209 71.617,-70.521c-0,-26.042 -10.85,-43.4 -24.967,-56.421c-28.213,-22.796 -69.446,-26.042 -81.371,-26.042c-39.062,0 -70.537,2.171 -98.75,34.721c-7.587,8.679 -10.85,17.363 -10.85,26.042c0,7.587 3.263,16.266 6.508,26.042c6.513,13.02 20.625,22.779 35.817,22.779c27.117,-0 30.383,-26.042 30.383,-37.971c0,-24.967 -27.137,-27.134 -27.137,-37.988c-0,-7.583 10.85,-20.604 43.404,-20.604c51.008,0 68.367,42.309 68.367,55.329c-0,19.529 -6.509,37.984 -17.359,53.175c-19.533,24.95 -55.35,33.629 -82.466,50.992c-30.384,18.454 -51.009,49.913 -60.763,84.633c0,7.604 3.246,16.288 9.754,19.534c1.096,1.091 3.267,1.091 4.342,1.091c11.946,0 18.454,-33.646 51.008,-33.646c21.7,0 29.288,29.309 78.125,29.309c22.775,-0 65.105,-2.171 73.784,-85.729" style="fill-rule:nonzero;"/></g><g><path d="M4851.89,4835.33c0,0 -1.079,4.342 -1.079,7.588c-0,4.341 4.342,8.679 8.683,8.679c3.246,0 5.417,-3.246 6.509,-4.342c1.075,-3.245 14.095,-47.741 20.608,-58.591c2.171,-4.342 4.342,-5.417 5.433,-5.417c2.171,0 3.246,4.342 3.246,7.588l0,155.17c0,13.021 -10.85,20.609 -21.7,20.609c-4.342,-0 -9.758,2.171 -9.758,8.683c-0,6.508 5.416,8.679 14.1,8.679l91.146,0c8.679,0 8.679,-8.679 8.679,-8.679c-0,0 -0,-8.683 -8.679,-8.683c-7.588,-0 -17.363,-9.754 -17.363,-19.529l0,-225.696c0,-8.679 -3.246,-13.021 -10.85,-13.021c-7.587,-0 -14.1,2.171 -20.608,2.171c-10.85,-0 -13.021,-0 -21.7,-2.171c-4.342,-0 -9.775,6.512 -13.021,10.85l-33.646,116.112" style="fill-rule:nonzero;"/></g><g><path d="M5474.14,4835.33c0,0 -1.075,4.342 -1.075,7.588c0,4.341 4.338,8.679 8.679,8.679c3.246,0 5.417,-3.246 6.513,-4.342c1.075,-3.245 14.096,-47.741 20.604,-58.591c2.171,-4.342 4.342,-5.417 5.437,-5.417c2.167,0 3.246,4.342 3.246,7.588l0,155.17c0,13.021 -10.85,20.609 -21.704,20.609c-4.337,-0 -9.754,2.171 -9.754,8.683c-0,6.508 5.417,8.679 14.096,8.679l91.146,0c8.679,0 8.679,-8.679 8.679,-8.679c-0,0 -0,-8.683 -8.679,-8.683c-7.588,-0 -17.363,-9.754 -17.363,-19.529l0,-225.696c0,-8.679 -3.246,-13.021 -10.85,-13.021c-7.587,-0 -14.096,2.171 -20.608,2.171c-10.85,-0 -13.021,-0 -21.7,-2.171c-4.342,-0 -9.775,6.512 -13.021,10.85l-33.646,116.112" style="fill-rule:nonzero;"/></g><g><path d="M1612.26,6465.08c96.562,0 214.846,-88.975 214.846,-181.216c-0,-55.329 -43.404,-90.05 -105.263,-90.05c-119.358,-0 -214.841,87.879 -214.841,181.195c-0,56.426 46.666,90.071 105.258,90.071" style="fill-rule:nonzero;"/></g><g><path d="M2234.47,6599.62c96.583,0 214.846,-88.979 214.846,-181.217c-0,-55.329 -43.404,-90.054 -105.242,-90.054c-119.358,0 -214.846,87.884 -214.846,181.2c0,56.425 46.65,90.071 105.242,90.071" style="fill-rule:nonzero;"/></g><g><path d="M2732.44,6647.38c-6.513,21.7 -57.5,43.404 -82.467,43.404c-6.508,0 -11.925,-2.171 -13.021,-5.437c-2.17,-4.338 -3.245,-28.209 -3.245,-54.25c-0,-33.63 1.075,-71.617 3.245,-80.296c2.171,-18.438 52.084,-41.234 79.221,-41.234c7.588,0.001 14.096,2.171 16.267,6.509c2.171,5.437 4.342,32.554 4.342,61.858c-0,29.288 -2.171,59.671 -4.342,69.446m74.879,-176.875c7.588,-3.246 13.021,-11.929 13.021,-18.438l-0,-77.05c-0,-5.416 -3.267,-8.679 -7.604,-8.679c-2.171,0 -3.246,0 -5.417,1.092c0,-0 -21.704,8.683 -27.137,9.758c-7.588,0 -15.192,-5.416 -15.192,-14.096l-0,-132.379c-0,-6.512 -6.508,-11.946 -15.188,-11.946c-10.854,0 -17.362,5.434 -17.362,11.946l-0,141.059c-1.075,10.85 -4.342,24.95 -14.096,31.458c-13.021,7.604 -49.917,22.796 -68.371,27.137c-9.754,0 -13.021,-13.02 -13.021,-21.704l0,-130.208c0,-6.508 -7.587,-11.942 -15.191,-11.942c-10.85,0 -17.359,5.434 -17.359,11.942l0,146.475c0,15.192 -6.512,26.042 -13.02,29.308c-6.513,3.246 -28.213,11.925 -28.213,11.925c-7.587,2.171 -13.021,10.85 -13.021,17.363l0,77.05c0,6.508 3.263,9.754 8.679,9.754c4.342,-0 24.967,-9.754 28.213,-11.925c1.096,-0 2.171,-1.096 3.262,-1.096c7.588,0 14.1,10.85 14.1,19.533l0,107.43c0,11.929 -5.416,21.7 -11.929,24.95c-6.508,2.166 -29.304,11.941 -29.304,11.941c-7.587,2.171 -13.021,10.85 -13.021,17.363l0,77.029c0,6.512 3.263,9.775 8.679,9.775c1.096,-0 3.267,-1.092 4.342,-1.092c0,0 15.192,-6.512 24.967,-9.758c1.075,-1.092 2.166,-1.092 3.246,-1.092c7.604,0 13.02,11.942 13.02,17.359l0,133.475c0,6.508 6.509,11.925 14.113,11.925c10.85,-0 18.437,-5.417 18.437,-11.925l0,-150.834c0,-14.1 5.434,-21.704 10.85,-23.875l66.2,-27.116c1.075,-0 3.246,-1.092 4.342,-1.092c8.679,-0 14.096,13.021 14.096,19.529l-0,135.642c-0,6.512 6.508,11.929 14.112,11.929c11.93,-0 18.438,-5.417 18.438,-11.929l-0,-154.079c-0,-8.68 4.342,-21.7 11.946,-24.967c7.587,-3.246 30.383,-11.925 30.383,-11.925c7.588,-3.263 13.021,-11.946 13.021,-18.454l-0,-77.034c-0,-5.433 -3.267,-8.679 -7.604,-8.679c-2.171,0 -3.246,0 -5.417,1.075l-28.212,10.85c-6.513,0 -14.117,-6.508 -14.117,-19.529l-0,-100.904c-0,-7.604 5.437,-28.213 14.117,-31.475l28.212,-10.85" style="fill-rule:nonzero;"/></g><g><path d="M2992.66,6734.17c96.579,-0 214.846,-88.975 214.846,-181.213c-0,-55.333 -43.404,-90.054 -105.246,-90.054c-119.358,0 -214.842,87.883 -214.842,181.2c0,56.421 46.65,90.067 105.242,90.067" style="fill-rule:nonzero;"/></g><g><path d="M3614.9,6868.75c96.579,0 214.841,-88.975 214.841,-181.217c0,-55.329 -43.404,-90.05 -105.241,-90.05c-119.359,0 -214.846,87.88 -214.846,181.196c-0,56.425 46.65,90.071 105.246,90.071" style="fill-rule:nonzero;"/></g><g><path d="M4237.1,7003.29c96.563,-0 214.842,-88.98 214.842,-181.217c0,-55.329 -43.404,-90.054 -105.258,-90.054c-119.359,-0 -214.846,87.883 -214.846,181.2c-0,56.425 46.667,90.071 105.262,90.071" style="fill-rule:nonzero;"/></g><g><path d="M4859.35,7137.83c96.563,0 214.846,-88.975 214.846,-181.212c0,-55.333 -43.404,-90.054 -105.262,-90.054c-119.359,-0 -214.842,87.883 -214.842,181.2c0,56.421 46.667,90.066 105.258,90.066" style="fill-rule:nonzero;"/></g><g><path d="M5457.68,7096.58c-22.775,0 -35.796,-11.941 -43.4,-24.962c-3.25,-6.513 -6.513,-14.1 -6.513,-21.704c0,-53.159 157.346,-138.888 208.334,-138.888c20.625,0 32.554,9.775 40.158,22.796c3.246,6.508 6.508,13.021 6.508,20.608c0,46.667 -153.004,142.15 -205.087,142.15m23.871,41.234c179.045,-0 214.845,-145.4 214.845,-181.213c0,-55.333 -44.479,-90.054 -107.412,-90.054c-161.683,-0 -212.675,124.775 -212.675,181.2c-0,57.517 45.575,90.067 105.242,90.067" style="fill-rule:nonzero;"/></g><g><path d="M565.491,5776.04c3.246,20.625 3.246,19.533 -16.283,26.041c-95.488,32.555 -157.346,118.284 -157.346,210.505c-0,97.658 51.008,167.099 124.792,192.066c8.683,3.246 21.704,6.508 29.291,6.508c8.679,0 13.021,-5.433 13.021,-11.941c0,-7.588 -8.683,-10.85 -16.271,-14.1c-45.571,-19.529 -78.125,-66.196 -78.125,-116.109c0,-61.841 42.313,-108.508 108.509,-126.945c17.362,-4.342 19.533,-3.263 21.7,8.679l54.254,323.354c2.171,11.925 1.079,11.925 -15.192,15.187c-17.358,3.25 -39.062,5.417 -60.762,5.417c-189.896,0 -312.5,-105.242 -312.5,-256.075c-0,-64.008 10.85,-149.737 100.904,-251.737c65.104,-72.688 115.016,-112.846 166.025,-154.08c10.85,-8.679 13.021,-7.587 15.187,4.342l22.779,138.888m118.284,-738.921c35.796,-0 65.104,29.287 65.104,88.975c-0,120.433 -103.092,218.087 -188.804,292.966c-7.604,6.513 -11.946,5.417 -14.113,-8.679c-4.341,-28.212 -6.512,-65.104 -6.512,-99.825c-0,-169.271 78.125,-273.437 144.325,-273.437m-43.404,911.458c-2.171,-13.021 -1.096,-16.287 11.925,-15.192c87.9,7.588 160.591,81.371 160.591,176.859c0,68.366 -41.233,123.696 -101.996,154.079c-13.02,6.508 -15.191,6.508 -17.362,-6.513l-53.158,-309.233m-58.596,-338.542c-2.167,-13.02 -0,-14.116 6.512,-20.625c117.188,-109.583 206.163,-247.395 206.163,-413.404c-0,-94.408 -26.042,-187.725 -70.538,-252.829c-16.266,-23.871 -44.479,-54.254 -56.425,-54.254c-15.191,-0 -48.816,28.212 -70.521,52.083c-80.295,88.975 -106.337,224.617 -106.337,337.467c-0,62.933 7.587,133.454 15.192,177.95c2.17,13.021 3.245,15.192 -9.775,26.042c-156.25,129.112 -322.255,284.287 -322.255,503.47c0,188.805 129.113,367.83 394.963,367.83c24.95,-0 53.162,-2.167 74.862,-6.509c11.946,-2.171 14.117,-3.246 16.284,9.775c13.021,72.692 29.291,167.1 29.291,218.088c0,160.591 -108.508,180.125 -172.52,180.125c-58.592,-0 -86.805,-17.363 -86.805,-31.459c0,-7.604 9.759,-10.854 34.721,-18.458c33.629,-9.754 72.692,-39.062 72.692,-101.996c-0,-59.671 -37.967,-110.675 -104.167,-110.675c-72.691,0 -116.091,57.517 -116.091,124.792c-0,70.521 42.308,176.858 206.162,176.858c72.692,0 213.75,-32.554 213.75,-217.016c0,-61.838 -19.533,-164.93 -31.458,-232.205c-2.171,-13.02 -1.096,-11.925 14.096,-18.437c109.6,-43.404 182.291,-135.642 182.291,-258.246c0,-138.887 -101.996,-261.512 -261.491,-261.512c-28.213,-0 -28.213,-0 -31.475,-19.53l-27.121,-157.325" style="fill-rule:nonzero;"/></g><g><path d="M2329.16,7225.35c-14.106,-0 -21.701,6.51 -21.701,16.276c-0,9.765 7.595,16.276 21.701,16.276l10.851,-0c40.147,-0 59.679,23.871 59.679,58.594c-0,47.743 -33.637,113.932 -99.827,113.932c-21.701,0 -39.062,-8.681 -39.062,-19.531c-0,-6.511 5.425,-8.681 14.106,-13.021c11.935,-5.425 27.126,-18.446 27.126,-46.658c0,-26.042 -18.446,-39.063 -41.232,-39.063c-30.382,0 -53.169,27.127 -53.169,62.934c0,43.403 34.723,83.551 111.763,83.551c92.231,-0 168.186,-55.339 168.186,-141.059c-0,-27.127 -14.106,-53.169 -42.318,-67.275c-7.596,-3.255 -11.936,-4.34 -11.936,-9.765c-0,-3.256 4.34,-5.426 13.021,-9.766c45.573,-18.446 82.465,-53.168 82.465,-96.571c0,-56.424 -54.253,-91.146 -120.443,-91.146c-68.359,-0 -124.783,35.807 -126.953,94.401c-1.085,28.212 16.276,46.658 41.233,46.658c27.127,-0 48.828,-21.701 48.828,-50.998c-0,-11.936 -4.34,-20.617 -9.766,-27.127c-7.595,-6.511 -13.021,-10.851 -13.021,-14.106c0,-7.596 13.021,-15.191 35.808,-15.191c42.318,-0 56.423,26.042 56.423,49.913c0,57.509 -36.892,98.742 -99.826,98.742l-11.936,-0Z" style="fill-rule:nonzero;"/></g><g><path d="M4263.77,7288.52c-14.106,0 -21.702,6.511 -21.702,16.276c0,9.766 7.596,16.276 21.702,16.276l10.851,0c40.147,0 59.678,23.872 59.678,58.594c0,47.743 -33.637,113.933 -99.826,113.933c-21.701,-0 -39.063,-8.681 -39.063,-19.532c0,-6.51 5.426,-8.68 14.106,-13.02c11.936,-5.426 27.127,-18.447 27.127,-46.658c0,-26.042 -18.446,-39.063 -41.233,-39.063c-30.382,0 -53.168,27.127 -53.168,62.934c-0,43.403 34.722,83.551 111.762,83.551c92.231,-0 168.186,-55.339 168.186,-141.06c0,-27.126 -14.106,-53.168 -42.318,-67.274c-7.595,-3.255 -11.935,-4.34 -11.935,-9.766c-0,-3.255 4.34,-5.425 13.02,-9.765c45.573,-18.447 82.466,-53.169 82.466,-96.572c-0,-56.423 -54.254,-91.146 -120.443,-91.146c-68.359,0 -124.783,35.808 -126.953,94.402c-1.085,28.211 16.276,46.658 41.232,46.658c27.127,-0 48.829,-21.702 48.829,-50.999c-0,-11.935 -4.341,-20.616 -9.766,-27.126c-7.596,-6.511 -13.021,-10.851 -13.021,-14.106c0,-7.596 13.021,-15.191 35.807,-15.191c42.318,-0 56.424,26.041 56.424,49.913c0,57.509 -36.892,98.741 -99.826,98.741l-11.936,0Z" style="fill-rule:nonzero;"/></g><g><path d="M1794.87,5522.17l0,-135.192l1412.76,134.55l-0,135.187l-1412.76,-134.545" style="fill-rule:nonzero;"/></g><g><path d="M3797.37,5858.54l0,-134.759l1276.58,67.275l0,134.759l-1276.58,-67.275" style="fill-rule:nonzero;"/></g><g><path d="M1418.36,7250.71l643.975,0l-0,-43.02l-601.129,-0l-0,-158.8l-42.846,-0" style="fill-rule:nonzero;"/></g><g><path d="M3228.79,7250.71l-576.721,0l0,-43.02l533.854,-0l0,-158.8l42.867,-0" style="fill-rule:nonzero;"/></g><g><path d="M3420.84,7137.83l578.888,115.559l-0,-43.996l-536.025,-106.942l-0,-166.441l-42.863,-0.001" style="fill-rule:nonzero;"/></g><g><path d="M5095.64,7476.08l-511.617,-101.562l0,-43.996l468.75,97.171l0,-153.438l42.867,0" style="fill-rule:nonzero;"/></g></g></svg>