<?xml version="1.0" encoding="UTF-8" standalone="no"?><!DOCTYPE svg PUBLIC "-//W3C//DTD SVG 1.1//EN" "http://www.w3.org/Graphics/SVG/1.1/DTD/svg11.dtd"><svg width="100%" height="100%" viewBox="0 0 28724 7138" version="1.1" xmlns="http://www.w3.org/2000/svg" xmlns:xlink="http://www.w3.org/1999/xlink" xml:space="preserve" xmlns:serif="http://www.serif.com/" style="fill-rule:evenodd;clip-rule:evenodd;stroke-miterlimit:2;"><g><g><path d="M39.038,1485.7l28645.8,-0" style="fill:none;stroke:#000;stroke-width:34.92px;"/><path d="M39.038,1754.79l28645.8,-0" style="fill:none;stroke:#000;stroke-width:34.92px;"/><path d="M39.038,2562.08l28645.8,0" style="fill:none;stroke:#000;stroke-width:34.92px;"/><path d="M39.038,2023.89l28645.8,-0" style="fill:none;stroke:#000;stroke-width:34.92px;"/><path d="M39.038,2292.99l28645.8,-0" style="fill:none;stroke:#000;stroke-width:34.92px;"/></g><g><path d="M14871.9,1468.23l0,1111.34" style="fill:none;stroke:#000;stroke-width:43.04px;"/><path d="M28663.1,1468.23l0,1111.34" style="fill:none;stroke:#000;stroke-width:43.04px;"/></g><g><path d="M1810.43,2091.06l-0,1098.58" style="fill:none;stroke:#000;stroke-width:32.29px;"/></g><g><path d="M1399.18,3100.28l535.487,0" style="fill:none;stroke:#000;stroke-width:43.04px;"/><path d="M1399.18,2831.18l535.487,0" style="fill:none;stroke:#000;stroke-width:43.04px;"/></g><g><path d="M2651.35,2068.54l0,986.546" style="fill:none;stroke:#000;stroke-width:32.29px;"/></g><g><path d="M2303.05,3100.28l471.996,0" style="fill:none;stroke:#000;stroke-width:43.04px;"/><path d="M2240.11,2831.18l534.929,0" style="fill:none;stroke:#000;stroke-width:43.04px;"/></g><g><path d="M3492.28,2046.03l-0,874.512" style="fill:none;stroke:#000;stroke-width:32.29px;"/></g><g><path d="M3148.31,2831.18l467.671,0" style="fill:none;stroke:#000;stroke-width:43.04px;"/></g><g><path d="M4322.9,2023.78l0,896.755" style="fill:none;stroke:#000;stroke-width:32.29px;"/></g><g><path d="M3978.39,2831.18l468.196,0" style="fill:none;stroke:#000;stroke-width:43.04px;"/></g><g><path d="M5188.77,1819.03l0,966.963" style="fill:none;stroke:#000;stroke-width:32.29px;"/></g><g><path d="M4839.94,2831.18l472.554,0" style="fill:none;stroke:#000;stroke-width:43.04px;"/></g><g><path d="M6019.4,1706.89l0,944.55" style="fill:none;stroke:#000;stroke-width:32.29px;"/><path d="M6850.02,1594.76l0,922.134" style="fill:none;stroke:#000;stroke-width:32.29px;"/><path d="M7680.65,1482.65l0,899.692" style="fill:none;stroke:#000;stroke-width:32.29px;"/><path d="M8223.73,2338.18l-0,762.584" style="fill:none;stroke:#000;stroke-width:32.29px;"/><path d="M9053.81,2203.65l0,852.258" style="fill:none;stroke:#000;stroke-width:32.29px;"/><path d="M9883.9,2069.1l0,942" style="fill:none;stroke:#000;stroke-width:32.29px;"/><path d="M10714.5,2069.1l-0,897.121" style="fill:none;stroke:#000;stroke-width:32.29px;"/><path d="M11544,1934.55l0,831.317" style="fill:none;stroke:#000;stroke-width:32.29px;"/><path d="M12374.6,1800l0,876.179" style="fill:none;stroke:#000;stroke-width:32.29px;"/><path d="M13205.3,1665.45l0,920.992" style="fill:none;stroke:#000;stroke-width:32.29px;"/><path d="M14035.9,1530.9l0,965.867" style="fill:none;stroke:#000;stroke-width:32.29px;"/><path d="M15314,1396.35l0,898.596" style="fill:none;stroke:#000;stroke-width:32.29px;"/><path d="M16144.2,1261.8l-0,943.838" style="fill:none;stroke:#000;stroke-width:32.29px;"/></g><g><path d="M16083.5,1216.6l472.554,-0" style="fill:none;stroke:#000;stroke-width:43.04px;"/></g><g><path d="M16985.1,1127.26l0,987.9" style="fill:none;stroke:#000;stroke-width:32.29px;"/></g><g><path d="M16928.6,1216.6l467.654,-0" style="fill:none;stroke:#000;stroke-width:43.04px;"/></g><g><path d="M17815.8,1127.26l0,898.592" style="fill:none;stroke:#000;stroke-width:32.29px;"/></g><g><path d="M17759.4,1216.6l467.671,-0" style="fill:none;stroke:#000;stroke-width:43.04px;"/></g><g><path d="M18681.6,992.708l0,1031.31" style="fill:none;stroke:#000;stroke-width:32.29px;"/></g><g><path d="M18620.3,947.5l472.55,0" style="fill:none;stroke:#000;stroke-width:43.04px;"/><path d="M18625.1,1216.6l467.675,-0" style="fill:none;stroke:#000;stroke-width:43.04px;"/></g><g><path d="M19511.8,858.158l0,1143.44" style="fill:none;stroke:#000;stroke-width:32.29px;"/></g><g><path d="M19388,947.5l535.483,0" style="fill:none;stroke:#000;stroke-width:43.04px;"/><path d="M19388,1216.6l535.483,-0" style="fill:none;stroke:#000;stroke-width:43.04px;"/></g><g><path d="M20342.3,723.613l0,1255.57" style="fill:none;stroke:#000;stroke-width:32.29px;"/></g><g><path d="M20218.6,678.404l535.467,0" style="fill:none;stroke:#000;stroke-width:43.04px;"/><path d="M20218.6,947.5l535.467,0" style="fill:none;stroke:#000;stroke-width:43.04px;"/><path d="M20218.6,1216.6l535.467,-0" style="fill:none;stroke:#000;stroke-width:43.04px;"/></g><g><path d="M21172.9,589.063l0,1367.67" style="fill:none;stroke:#000;stroke-width:32.29px;"/></g><g><path d="M21049.3,678.404l534.946,0" style="fill:none;stroke:#000;stroke-width:43.04px;"/><path d="M21049.3,947.5l534.946,0" style="fill:none;stroke:#000;stroke-width:43.04px;"/><path d="M21049.3,1216.6l534.946,-0" style="fill:none;stroke:#000;stroke-width:43.04px;"/></g><g><path d="M22003.6,589.063l-0,1367.67" style="fill:none;stroke:#000;stroke-width:32.29px;"/></g><g><path d="M21879.8,678.404l534.95,0" style="fill:none;stroke:#000;stroke-width:43.04px;"/><path d="M21879.8,947.5l534.95,0" style="fill:none;stroke:#000;stroke-width:43.04px;"/><path d="M21879.8,1216.6l534.95,-0" style="fill:none;stroke:#000;stroke-width:43.04px;"/></g><g><path d="M22833.6,723.613l0,1255.57" style="fill:none;stroke:#000;stroke-width:32.29px;"/></g><g><path d="M22709.9,678.404l535.466,0" style="fill:none;stroke:#000;stroke-width:43.04px;"/><path d="M22709.9,947.5l535.466,0" style="fill:none;stroke:#000;stroke-width:43.04px;"/><path d="M22709.9,1216.6l535.466,-0" style="fill:none;stroke:#000;stroke-width:43.04px;"/></g><g><path d="M23664.2,858.158l0,1143.44" style="fill:none;stroke:#000;stroke-width:32.29px;"/></g><g><path d="M23540.6,947.5l535.483,0" style="fill:none;stroke:#000;stroke-width:43.04px;"/><path d="M23540.6,1216.6l535.483,-0" style="fill:none;stroke:#000;stroke-width:43.04px;"/></g><g><path d="M24494.9,992.708l0,1031.31" style="fill:none;stroke:#000;stroke-width:32.29px;"/></g><g><path d="M24371.1,947.5l534.93,0" style="fill:none;stroke:#000;stroke-width:43.04px;"/><path d="M24371.1,1216.6l534.93,-0" style="fill:none;stroke:#000;stroke-width:43.04px;"/></g><g><path d="M25325.5,1127.26l-0,898.592" style="fill:none;stroke:#000;stroke-width:32.29px;"/></g><g><path d="M25201.7,1216.6l534.933,-0" style="fill:none;stroke:#000;stroke-width:43.04px;"/></g><g><path d="M26166.5,1127.26l-0,989.025" style="fill:none;stroke:#000;stroke-width:32.29px;"/></g><g><path d="M26109.5,1216.6l468.213,-0" style="fill:none;stroke:#000;stroke-width:43.04px;"/></g><g><path d="M26996.5,1261.8l-0,943.788" style="fill:none;stroke:#000;stroke-width:32.29px;"/></g><g><path d="M26872.9,1216.6l535.467,-0" style="fill:none;stroke:#000;stroke-width:43.04px;"/></g><g><path d="M27827.1,1396.35l0,898.596" style="fill:none;stroke:#000;stroke-width:32.29px;"/></g><g><path d="M1604.63,1067.95c-0,0 -1.092,4.342 -1.092,7.588c-0,4.341 4.337,8.679 8.679,8.679c3.263,-0 5.433,-3.246 6.513,-4.338c1.091,-3.246 14.112,-47.746 20.625,-58.596c2.166,-4.337 4.337,-5.416 5.416,-5.416c2.167,-0 3.263,4.341 3.263,7.587l-0,155.175c-0,13.021 -10.85,20.609 -21.7,20.609c-4.342,-0 -9.775,2.166 -9.775,8.679c-0,6.508 5.433,8.679 14.112,8.679l91.146,-0c8.683,-0 8.683,-8.679 8.683,-8.679c0,-0 0,-8.679 -8.683,-8.679c-7.604,-0 -17.358,-9.759 -17.358,-19.534l-0,-225.696c-0,-8.679 -3.267,-13.02 -10.854,-13.02c-7.605,-0 -14.113,2.17 -20.625,2.17c-10.85,0 -13.021,0 -21.7,-2.17c-4.342,-0 -9.759,6.512 -13.021,10.854l-33.629,116.108" style="fill-rule:nonzero;"/></g><g><path d="M2615.18,1129.79c-0,-7.588 -3.267,-8.679 -6.513,-8.679c-4.341,-0 -6.508,3.262 -7.604,6.508c-5.416,15.192 -17.362,34.725 -33.629,34.725c-2.171,-0 -4.337,-0 -6.508,-1.079l-16.288,-5.434c-10.85,-4.341 -36.891,-13.02 -58.591,-13.02c-7.588,-0 -14.096,1.095 -20.609,3.262c11.929,-20.625 68.35,-47.742 80.296,-51.004c39.063,-5.417 71.613,-28.213 71.613,-70.521c-0,-26.042 -10.85,-43.404 -24.963,-56.425c-28.212,-22.796 -69.446,-26.042 -81.371,-26.042c-39.062,0 -70.541,2.171 -98.75,34.721c-7.587,8.684 -10.854,17.363 -10.854,26.042c0,7.587 3.267,16.271 6.513,26.042c6.508,13.02 20.625,22.779 35.816,22.779c27.117,-0 30.379,-26.042 30.379,-37.967c0,-24.967 -27.133,-27.137 -27.133,-37.987c0,-7.588 10.85,-20.609 43.404,-20.609c51.004,0 68.367,42.309 68.367,55.329c-0,19.534 -6.513,37.988 -17.363,53.18c-19.529,24.945 -55.345,33.625 -82.462,50.987c-30.383,18.454 -51.008,49.913 -60.767,84.638c0,7.604 3.246,16.283 9.759,19.529c1.091,1.096 3.262,1.096 4.341,1.096c11.942,-0 18.454,-33.646 51.004,-33.646c21.705,-0 29.288,29.304 78.125,29.304c22.78,-0 65.105,-2.171 73.788,-85.729" style="fill-rule:nonzero;"/></g><g><path d="M3406.23,1118.94l-0,-116.096c-0,-5.433 -1.08,-9.771 -6.513,-9.771c-4.342,0 -7.587,1.092 -10.85,5.433l-32.554,62.934c-2.167,2.17 -5.417,5.416 -5.417,13.021l0,44.479l-70.537,-0c44.496,-36.892 113.941,-159.496 115.016,-166.009c0,-1.091 1.096,-2.17 1.096,-3.262c0,-4.342 -4.341,-7.588 -7.604,-7.588c-5.417,0 -28.212,2.171 -37.971,2.171c-9.771,0 -16.283,-2.171 -20.625,-2.171c-5.416,0 -13.021,2.171 -13.021,10.85c0,69.446 -56.42,148.646 -70.52,168.18c-2.167,2.166 -4.338,5.433 -4.338,8.679c0,5.433 4.338,10.85 10.85,10.85l97.654,-0l0,33.646c0,15.191 -8.679,19.533 -17.358,19.533c-9.775,-0 -14.117,4.337 -14.117,9.754c0,5.438 2.171,11.946 11.946,11.946l93.317,-0c5.416,-0 10.85,-4.342 10.85,-11.946c-0,-7.583 -6.513,-10.85 -11.946,-10.85c-5.417,0 -17.358,-3.246 -17.358,-20.608l-0,-31.475l40.154,-0c5.416,-0 8.679,-4.342 8.679,-10.85c-0,-6.513 -2.167,-10.85 -8.679,-10.85l-40.154,-0" style="fill-rule:nonzero;"/></g><g><path d="M4236.73,1118.94l-0,-116.096c-0,-5.433 -1.096,-9.771 -6.513,-9.771c-4.341,0 -7.604,1.092 -10.85,5.433l-32.554,62.934c-2.167,2.17 -5.433,5.416 -5.433,13.021l-0,44.479l-70.521,-0c44.479,-36.892 113.925,-159.496 115.017,-166.009c-0,-1.091 1.079,-2.17 1.079,-3.262c-0,-4.342 -4.342,-7.588 -7.588,-7.588c-5.433,0 -28.212,2.171 -37.987,2.171c-9.754,0 -16.267,-2.171 -20.609,-2.171c-5.433,0 -13.02,2.171 -13.02,10.85c-0,69.446 -56.421,148.646 -70.538,168.18c-2.171,2.166 -4.337,5.433 -4.337,8.679c-0,5.433 4.337,10.85 10.85,10.85l97.654,-0l-0,33.646c-0,15.191 -8.679,19.533 -17.359,19.533c-9.758,-0 -14.1,4.337 -14.1,9.754c0,5.438 2.171,11.946 11.93,11.946l93.316,-0c5.434,-0 10.85,-4.342 10.85,-11.946c0,-7.583 -6.512,-10.85 -11.929,-10.85c-5.433,0 -17.358,-3.246 -17.358,-20.608l-0,-31.475l40.137,-0c5.434,-0 8.679,-4.342 8.679,-10.85c0,-6.513 -2.17,-10.85 -8.679,-10.85l-40.137,-0" style="fill-rule:nonzero;"/></g><g><path d="M4982.65,1067.95c0,0 -1.075,4.342 -1.075,7.588c0,4.341 4.342,8.679 8.68,8.679c3.25,-0 5.416,-3.246 6.512,-4.338c1.075,-3.246 14.096,-47.746 20.608,-58.596c2.171,-4.337 4.338,-5.416 5.434,-5.416c2.171,-0 3.246,4.341 3.246,7.587l-0,155.175c-0,13.021 -10.85,20.609 -21.7,20.609c-4.342,-0 -9.759,2.166 -9.759,8.679c0,6.508 5.417,8.679 14.096,8.679l91.146,-0c8.683,-0 8.683,-8.679 8.683,-8.679c0,-0 0,-8.679 -8.683,-8.679c-7.583,-0 -17.358,-9.759 -17.358,-19.534l-0,-225.696c-0,-8.679 -3.246,-13.02 -10.85,-13.02c-7.588,-0 -14.1,2.17 -20.609,2.17c-10.85,0 -13.021,0 -21.704,-2.17c-4.337,-0 -9.771,6.512 -13.021,10.854l-33.646,116.108" style="fill-rule:nonzero;"/></g><g><path d="M5982.98,1129.79c-0,-7.588 -3.267,-8.679 -6.513,-8.679c-4.341,-0 -6.508,3.262 -7.604,6.508c-5.417,15.192 -17.362,34.725 -33.629,34.725c-2.171,-0 -4.338,-0 -6.508,-1.079l-16.288,-5.434c-10.85,-4.341 -36.892,-13.02 -58.592,-13.02c-7.587,-0 -14.095,1.095 -20.608,3.262c11.929,-20.625 68.35,-47.742 80.296,-51.004c39.062,-5.417 71.612,-28.213 71.612,-70.521c0,-26.042 -10.85,-43.404 -24.962,-56.425c-28.213,-22.796 -69.446,-26.042 -81.371,-26.042c-39.062,0 -70.542,2.171 -98.75,34.721c-7.587,8.684 -10.854,17.363 -10.854,26.042c-0,7.587 3.267,16.271 6.512,26.042c6.509,13.02 20.625,22.779 35.817,22.779c27.117,-0 30.379,-26.042 30.379,-37.967c0,-24.967 -27.133,-27.137 -27.133,-37.987c-0,-7.588 10.85,-20.609 43.404,-20.609c51.004,0 68.367,42.309 68.367,55.329c-0,19.534 -6.513,37.988 -17.363,53.18c-19.529,24.945 -55.346,33.625 -82.462,50.987c-30.384,18.454 -51.009,49.913 -60.767,84.638c0,7.604 3.246,16.283 9.758,19.529c1.092,1.096 3.263,1.096 4.342,1.096c11.942,-0 18.454,-33.646 51.004,-33.646c21.704,-0 29.288,29.304 78.125,29.304c22.779,-0 65.104,-2.171 73.788,-85.729" style="fill-rule:nonzero;"/></g><g><path d="M6763.86,1118.94l-0,-116.096c-0,-5.433 -1.096,-9.771 -6.513,-9.771c-4.337,0 -7.604,1.092 -10.85,5.433l-32.55,62.934c-2.171,2.17 -5.433,5.416 -5.433,13.021l-0,44.479l-70.521,-0c44.479,-36.892 113.921,-159.496 115.017,-166.009c-0,-1.091 1.075,-2.17 1.075,-3.262c-0,-4.342 -4.342,-7.588 -7.588,-7.588c-5.433,0 -28.212,2.171 -37.983,2.171c-9.758,0 -16.271,-2.171 -20.608,-2.171c-5.434,0 -13.021,2.171 -13.021,10.85c-0,69.446 -56.425,148.646 -70.538,168.18c-2.171,2.166 -4.341,5.433 -4.341,8.679c-0,5.433 4.341,10.85 10.85,10.85l97.658,-0l-0,33.646c-0,15.191 -8.683,19.533 -17.363,19.533c-9.758,-0 -14.095,4.337 -14.095,9.754c-0,5.438 2.166,11.946 11.925,11.946l93.316,-0c5.434,-0 10.85,-4.342 10.85,-11.946c0,-7.583 -6.508,-10.85 -11.925,-10.85c-5.437,0 -17.362,-3.246 -17.362,-20.608l-0,-31.475l40.137,-0c5.434,-0 8.684,-4.342 8.684,-10.85c-0,-6.513 -2.171,-10.85 -8.684,-10.85l-40.137,-0" style="fill-rule:nonzero;"/></g><g><path d="M7594.52,1118.94l0,-116.096c0,-5.433 -1.091,-9.771 -6.508,-9.771c-4.342,0 -7.604,1.092 -10.85,5.433l-32.554,62.934c-2.171,2.17 -5.433,5.416 -5.433,13.021l-0,44.479l-70.521,-0c44.479,-36.892 113.925,-159.496 115.016,-166.009c0,-1.091 1.08,-2.17 1.08,-3.262c-0,-4.342 -4.342,-7.588 -7.588,-7.588c-5.433,0 -28.212,2.171 -37.987,2.171c-9.759,0 -16.267,-2.171 -20.609,-2.171c-5.433,0 -13.021,2.171 -13.021,10.85c0,69.446 -56.42,148.646 -70.537,168.18c-2.171,2.166 -4.342,5.433 -4.342,8.679c0,5.433 4.342,10.85 10.854,10.85l97.655,-0l-0,33.646c-0,15.191 -8.68,19.533 -17.363,19.533c-9.754,-0 -14.096,4.337 -14.096,9.754c0,5.438 2.171,11.946 11.929,11.946l93.313,-0c5.437,-0 10.854,-4.342 10.854,-11.946c0,-7.583 -6.512,-10.85 -11.929,-10.85c-5.433,0 -17.363,-3.246 -17.363,-20.608l0,-31.475l40.142,-0c5.433,-0 8.679,-4.342 8.679,-10.85c0,-6.513 -2.171,-10.85 -8.679,-10.85l-40.142,-0" style="fill-rule:nonzero;"/></g><g><path d="M8305.19,1067.95c0,0 -1.079,4.342 -1.079,7.588c-0,4.341 4.342,8.679 8.683,8.679c3.246,-0 5.417,-3.246 6.509,-4.338c1.079,-3.246 14.1,-47.746 20.608,-58.596c2.171,-4.337 4.342,-5.416 5.433,-5.416c2.171,-0 3.246,4.341 3.246,7.587l0,155.175c0,13.021 -10.85,20.609 -21.7,20.609c-4.342,-0 -9.758,2.166 -9.758,8.679c-0,6.508 5.416,8.679 14.1,8.679l91.146,-0c8.679,-0 8.679,-8.679 8.679,-8.679c-0,-0 -0,-8.679 -8.679,-8.679c-7.588,-0 -17.363,-9.759 -17.363,-19.534l0,-225.696c0,-8.679 -3.246,-13.02 -10.85,-13.02c-7.587,-0 -14.096,2.17 -20.608,2.17c-10.85,0 -13.021,0 -21.7,-2.17c-4.342,-0 -9.775,6.512 -13.021,10.854l-33.646,116.108" style="fill-rule:nonzero;"/></g><g><path d="M9305.19,1129.79c0,-7.588 -3.246,-8.679 -6.512,-8.679c-4.338,-0 -6.509,3.262 -7.588,6.508c-5.433,15.192 -17.358,34.725 -33.646,34.725c-2.166,-0 -4.337,-0 -6.508,-1.079l-16.267,-5.434c-10.85,-4.341 -36.891,-13.02 -58.596,-13.02c-7.604,-0 -14.112,1.095 -20.625,3.262c11.946,-20.625 68.371,-47.742 80.296,-51.004c39.063,-5.417 71.617,-28.213 71.617,-70.521c-0,-26.042 -10.854,-43.404 -24.95,-56.425c-28.213,-22.796 -69.446,-26.042 -81.388,-26.042c-39.062,0 -70.52,2.171 -98.733,34.721c-7.604,8.684 -10.85,17.363 -10.85,26.042c0,7.587 3.246,16.271 6.508,26.042c6.513,13.02 20.609,22.779 35.8,22.779c27.134,-0 30.384,-26.042 30.384,-37.967c-0,-24.967 -27.121,-27.137 -27.121,-37.987c-0,-7.588 10.85,-20.609 43.404,-20.609c50.988,0 68.35,42.309 68.35,55.329c0,19.534 -6.508,37.988 -17.362,53.18c-19.53,24.945 -55.33,33.625 -82.463,50.987c-30.383,18.454 -50.992,49.913 -60.767,84.638c0,7.604 3.267,16.283 9.775,19.529c1.08,1.096 3.246,1.096 4.342,1.096c11.925,-0 18.438,-33.646 50.988,-33.646c21.704,-0 29.308,29.304 78.125,29.304c22.795,-0 65.104,-2.171 73.787,-85.729" style="fill-rule:nonzero;"/></g><g><path d="M10085.7,1118.94l0,-116.096c0,-5.433 -1.075,-9.771 -6.508,-9.771c-4.342,0 -7.588,1.092 -10.85,5.433l-32.554,62.934c-2.171,2.17 -5.417,5.416 -5.417,13.021l-0,44.479l-70.538,-0c44.496,-36.892 113.942,-159.496 115.017,-166.009c0,-1.091 1.096,-2.17 1.096,-3.262c-0,-4.342 -4.342,-7.588 -7.604,-7.588c-5.417,0 -28.213,2.171 -37.971,2.171c-9.775,0 -16.283,-2.171 -20.625,-2.171c-5.417,0 -13.021,2.171 -13.021,10.85c0,69.446 -56.421,148.646 -70.521,168.18c-2.171,2.166 -4.337,5.433 -4.337,8.679c-0,5.433 4.337,10.85 10.85,10.85l97.654,-0l-0,33.646c-0,15.191 -8.679,19.533 -17.358,19.533c-9.775,-0 -14.117,4.337 -14.117,9.754c-0,5.438 2.171,11.946 11.946,11.946l93.316,-0c5.417,-0 10.85,-4.342 10.85,-11.946c0,-7.583 -6.512,-10.85 -11.945,-10.85c-5.417,0 -17.363,-3.246 -17.363,-20.608l0,-31.475l40.158,-0c5.417,-0 8.68,-4.342 8.68,-10.85c-0,-6.513 -2.171,-10.85 -8.68,-10.85l-40.158,-0" style="fill-rule:nonzero;"/></g><g><path d="M10915.9,1118.94l0,-116.096c0,-5.433 -1.079,-9.771 -6.512,-9.771c-4.338,0 -7.588,1.092 -10.85,5.433l-32.55,62.934c-2.171,2.17 -5.417,5.416 -5.417,13.021l-0,44.479l-70.542,-0c44.5,-36.892 113.942,-159.496 115.021,-166.009c0,-1.091 1.092,-2.17 1.092,-3.262c-0,-4.342 -4.342,-7.588 -7.604,-7.588c-5.417,0 -28.213,2.171 -37.967,2.171c-9.775,0 -16.288,-2.171 -20.625,-2.171c-5.417,0 -13.021,2.171 -13.021,10.85c0,69.446 -56.425,148.646 -70.521,168.18c-2.171,2.166 -4.341,5.433 -4.341,8.679c-0,5.433 4.341,10.85 10.85,10.85l97.658,-0l-0,33.646c-0,15.191 -8.683,19.533 -17.363,19.533c-9.775,-0 -14.116,4.337 -14.116,9.754c-0,5.438 2.171,11.946 11.946,11.946l93.316,-0c5.417,-0 10.85,-4.342 10.85,-11.946c0,-7.583 -6.508,-10.85 -11.946,-10.85c-5.416,0 -17.358,-3.246 -17.358,-20.608l0,-31.475l40.154,-0c5.417,-0 8.684,-4.342 8.684,-10.85c-0,-6.513 -2.171,-10.85 -8.684,-10.85l-40.154,-0" style="fill-rule:nonzero;"/></g><g><path d="M11625.9,1067.95c-0,0 -1.096,4.342 -1.096,7.588c-0,4.341 4.342,8.679 8.683,8.679c3.263,-0 5.434,-3.246 6.509,-4.338c1.095,-3.246 14.116,-47.746 20.625,-58.596c2.17,-4.337 4.341,-5.416 5.416,-5.416c2.171,-0 3.267,4.341 3.267,7.587l-0,155.175c-0,13.021 -10.854,20.609 -21.704,20.609c-4.338,-0 -9.775,2.166 -9.775,8.679c-0,6.508 5.437,8.679 14.116,8.679l91.146,-0c8.679,-0 8.679,-8.679 8.679,-8.679c0,-0 0,-8.679 -8.679,-8.679c-7.604,-0 -17.362,-9.759 -17.362,-19.534l-0,-225.696c-0,-8.679 -3.263,-13.02 -10.85,-13.02c-7.604,-0 -14.113,2.17 -20.625,2.17c-10.85,0 -13.021,0 -21.7,-2.17c-4.342,-0 -9.759,6.512 -13.021,10.854l-33.629,116.108" style="fill-rule:nonzero;"/></g><g><path d="M12626.2,1129.79c-0,-7.588 -3.267,-8.679 -6.513,-8.679c-4.341,-0 -6.508,3.262 -7.604,6.508c-5.417,15.192 -17.362,34.725 -33.629,34.725c-2.171,-0 -4.338,-0 -6.508,-1.079l-16.288,-5.434c-10.85,-4.341 -36.892,-13.02 -58.592,-13.02c-7.587,-0 -14.095,1.095 -20.608,3.262c11.929,-20.625 68.35,-47.742 80.296,-51.004c39.062,-5.417 71.612,-28.213 71.612,-70.521c0,-26.042 -10.85,-43.404 -24.962,-56.425c-28.213,-22.796 -69.446,-26.042 -81.371,-26.042c-39.062,0 -70.542,2.171 -98.75,34.721c-7.587,8.684 -10.854,17.363 -10.854,26.042c-0,7.587 3.267,16.271 6.512,26.042c6.509,13.02 20.625,22.779 35.817,22.779c27.117,-0 30.379,-26.042 30.379,-37.967c0,-24.967 -27.133,-27.137 -27.133,-37.987c-0,-7.588 10.85,-20.609 43.404,-20.609c51.004,0 68.367,42.309 68.367,55.329c-0,19.534 -6.513,37.988 -17.363,53.18c-19.529,24.945 -55.346,33.625 -82.462,50.987c-30.384,18.454 -51.009,49.913 -60.767,84.638c0,7.604 3.246,16.283 9.758,19.529c1.092,1.096 3.263,1.096 4.342,1.096c11.942,-0 18.454,-33.646 51.004,-33.646c21.704,-0 29.288,29.304 78.125,29.304c22.779,-0 65.104,-2.171 73.788,-85.729" style="fill-rule:nonzero;"/></g><g><path d="M13407.1,1118.94l-0,-116.096c-0,-5.433 -1.096,-9.771 -6.513,-9.771c-4.337,0 -7.604,1.092 -10.85,5.433l-32.55,62.934c-2.171,2.17 -5.433,5.416 -5.433,13.021l-0,44.479l-70.521,-0c44.479,-36.892 113.921,-159.496 115.017,-166.009c-0,-1.091 1.075,-2.17 1.075,-3.262c-0,-4.342 -4.342,-7.588 -7.588,-7.588c-5.433,0 -28.212,2.171 -37.983,2.171c-9.758,0 -16.271,-2.171 -20.608,-2.171c-5.434,0 -13.021,2.171 -13.021,10.85c-0,69.446 -56.425,148.646 -70.538,168.18c-2.171,2.166 -4.341,5.433 -4.341,8.679c-0,5.433 4.341,10.85 10.85,10.85l97.658,-0l-0,33.646c-0,15.191 -8.683,19.533 -17.363,19.533c-9.758,-0 -14.095,4.337 -14.095,9.754c-0,5.438 2.166,11.946 11.925,11.946l93.316,-0c5.434,-0 10.85,-4.342 10.85,-11.946c0,-7.583 -6.508,-10.85 -11.925,-10.85c-5.437,0 -17.362,-3.246 -17.362,-20.608l-0,-31.475l40.137,-0c5.434,-0 8.684,-4.342 8.684,-10.85c-0,-6.513 -2.171,-10.85 -8.684,-10.85l-40.137,-0" style="fill-rule:nonzero;"/></g><g><path d="M14237.7,1118.72l-0,-116.113c-0,-5.416 -1.096,-9.758 -6.513,-9.758c-4.337,-0 -7.604,1.079 -10.85,5.417l-32.55,62.933c-2.171,2.171 -5.433,5.437 -5.433,13.021l-0,44.5l-70.521,-0c44.479,-36.892 113.921,-159.517 115.017,-166.025c-0,-1.075 1.075,-2.171 1.075,-3.246c-0,-4.342 -4.342,-7.604 -7.588,-7.604c-5.433,-0 -28.212,2.166 -37.983,2.166c-9.758,0 -16.271,-2.166 -20.608,-2.166c-5.434,-0 -13.021,2.166 -13.021,10.85c-0,69.441 -56.425,148.662 -70.538,168.196c-2.171,2.166 -4.341,5.412 -4.341,8.679c-0,5.416 4.341,10.85 10.85,10.85l97.658,-0l-0,33.629c-0,15.192 -8.683,19.529 -17.363,19.529c-9.758,0 -14.095,4.342 -14.095,9.775c-0,5.417 2.166,11.929 11.925,11.929l93.316,0c5.434,0 10.85,-4.341 10.85,-11.929c0,-7.604 -6.508,-10.85 -11.925,-10.85c-5.437,0 -17.362,-3.262 -17.362,-20.625l-0,-31.458l40.137,-0c5.434,-0 8.684,-4.342 8.684,-10.85c-0,-6.513 -2.171,-10.85 -8.684,-10.85l-40.137,-0" style="fill-rule:nonzero;"/></g><g><path d="M15395.6,932.308c0,0 -1.075,4.342 -1.075,7.605c0,4.341 4.338,8.683 8.68,8.683c3.245,-0 5.416,-3.267 6.508,-4.342c1.079,-3.262 14.1,-47.741 20.608,-58.596c2.171,-4.337 4.342,-5.433 5.434,-5.433c2.17,0 3.25,4.342 3.25,7.604l-0,155.158c-0,13.021 -10.855,20.625 -21.705,20.625c-4.337,0 -9.754,2.171 -9.754,8.68c0,6.512 5.417,8.679 14.096,8.679l91.146,-0c8.679,-0 8.679,-8.679 8.679,-8.679c0,-0 0,-8.68 -8.679,-8.68c-7.588,0 -17.363,-9.775 -17.363,-19.533l0,-225.692c0,-8.683 -3.245,-13.02 -10.85,-13.02c-7.587,-0 -14.095,2.166 -20.608,2.166c-10.85,0 -13.021,0 -21.7,-2.166c-4.342,-0 -9.775,6.508 -13.021,10.85l-33.646,116.091" style="fill-rule:nonzero;"/></g><g><path d="M16395.6,856.233c0,-7.604 -3.245,-8.683 -6.512,-8.683c-4.338,0 -6.508,3.25 -7.583,6.512c-5.438,15.192 -17.363,34.721 -33.646,34.721c-2.171,0 -4.342,0 -6.513,-1.091l-16.266,-5.417c-10.85,-4.342 -36.892,-13.021 -58.596,-13.021c-7.604,0 -14.113,1.075 -20.625,3.246c11.946,-20.608 68.371,-47.742 80.296,-50.988c39.062,-5.437 71.616,-28.212 71.616,-70.541c0,-26.042 -10.85,-43.4 -24.95,-56.421c-28.212,-22.779 -69.441,-26.042 -81.387,-26.042c-39.063,0 -70.521,2.167 -98.734,34.721c-7.604,8.679 -10.85,17.363 -10.85,26.042c0,7.604 3.246,16.283 6.509,26.041c6.512,13.021 20.608,22.796 35.8,22.796c27.137,0 30.383,-26.041 30.383,-37.987c0,-24.946 -27.121,-27.117 -27.121,-37.967c0,-7.604 10.854,-20.625 43.404,-20.625c50.992,0 68.35,42.325 68.35,55.346c0,19.533 -6.508,37.967 -17.358,53.158c-19.533,24.967 -55.333,33.646 -82.467,51.009c-30.383,18.437 -50.991,49.912 -60.762,84.637c-0,7.583 3.262,16.267 9.771,19.529c1.079,1.075 3.25,1.075 4.341,1.075c11.93,0 18.438,-33.629 50.992,-33.629c21.7,0 29.304,29.292 78.125,29.292c22.792,-0 65.104,-2.171 73.783,-85.713" style="fill-rule:nonzero;"/></g><g><path d="M17186.8,715.071l0,-116.113c0,-5.416 -1.095,-9.758 -6.512,-9.758c-4.338,-0 -7.604,1.079 -10.85,5.417l-32.55,62.937c-2.171,2.167 -5.433,5.433 -5.433,13.021l-0,44.496l-70.521,-0c44.479,-36.892 113.921,-159.517 115.016,-166.025c0,-1.075 1.075,-2.171 1.075,-3.246c0,-4.342 -4.341,-7.604 -7.587,-7.604c-5.433,-0 -28.213,2.167 -37.983,2.167c-9.759,-0 -16.271,-2.167 -20.609,-2.167c-5.433,-0 -13.021,2.167 -13.021,10.85c0,69.442 -56.425,148.662 -70.537,168.196c-2.171,2.166 -4.342,5.412 -4.342,8.679c0,5.417 4.342,10.85 10.85,10.85l97.659,-0l-0,33.629c-0,15.192 -8.684,19.529 -17.363,19.529c-9.758,0 -14.096,4.342 -14.096,9.775c0,5.417 2.167,11.929 11.925,11.929l93.317,0c5.433,0 10.85,-4.341 10.85,-11.929c-0,-7.604 -6.508,-10.85 -11.925,-10.85c-5.438,0 -17.363,-3.262 -17.363,-20.625l0,-31.458l40.138,-0c5.433,-0 8.683,-4.342 8.683,-10.85c0,-6.513 -2.171,-10.85 -8.683,-10.85l-40.138,-0" style="fill-rule:nonzero;"/></g><g><path d="M18017.1,715.071l0,-116.113c0,-5.416 -1.079,-9.758 -6.512,-9.758c-4.342,-0 -7.588,1.079 -10.85,5.417l-32.554,62.937c-2.167,2.167 -5.417,5.433 -5.417,13.021l0,44.496l-70.537,-0c44.495,-36.892 113.941,-159.517 115.016,-166.025c0,-1.075 1.096,-2.171 1.096,-3.246c0,-4.342 -4.342,-7.604 -7.604,-7.604c-5.417,-0 -28.213,2.167 -37.971,2.167c-9.771,-0 -16.283,-2.167 -20.625,-2.167c-5.417,-0 -13.021,2.167 -13.021,10.85c0,69.442 -56.421,148.662 -70.521,168.196c-2.166,2.166 -4.337,5.412 -4.337,8.679c-0,5.417 4.337,10.85 10.85,10.85l97.654,-0l0,33.629c0,15.192 -8.679,19.529 -17.358,19.529c-9.775,0 -14.117,4.342 -14.117,9.775c0,5.417 2.171,11.929 11.946,11.929l93.317,0c5.416,0 10.85,-4.341 10.85,-11.929c-0,-7.604 -6.513,-10.85 -11.946,-10.85c-5.417,0 -17.359,-3.262 -17.359,-20.625l0,-31.458l40.155,-0c5.416,-0 8.679,-4.342 8.679,-10.85c-0,-6.513 -2.167,-10.85 -8.679,-10.85l-40.155,-0" style="fill-rule:nonzero;"/></g><g><path d="M18763.1,528.663c0,-0 -1.091,4.341 -1.091,7.604c-0,4.341 4.337,8.683 8.679,8.683c3.262,0 5.433,-3.267 6.512,-4.342c1.092,-3.266 14.113,-47.741 20.625,-58.596c2.167,-4.337 4.338,-5.433 5.417,-5.433c2.167,0 3.263,4.342 3.263,7.604l-0,155.159c-0,13.02 -10.85,20.625 -21.7,20.625c-4.342,-0 -9.775,2.17 -9.775,8.679c-0,6.512 5.433,8.679 14.112,8.679l91.146,0c8.683,0 8.683,-8.679 8.683,-8.679c0,-0 0,-8.679 -8.683,-8.679c-7.604,-0 -17.358,-9.775 -17.358,-19.534l-0,-225.691c-0,-8.684 -3.267,-13.021 -10.855,-13.021c-7.604,-0 -14.112,2.166 -20.625,2.166c-10.85,0 -13.02,0 -21.7,-2.166c-4.341,-0 -9.758,6.508 -13.02,10.85l-33.63,116.091" style="fill-rule:nonzero;"/></g><g><path d="M19763.4,452.588c-0,-7.605 -3.246,-8.68 -6.513,-8.68c-4.337,0 -6.508,3.246 -7.583,6.509c-5.438,15.191 -17.363,34.72 -33.646,34.72c-2.171,0 -4.342,0 -6.512,-1.091l-16.267,-5.417c-10.85,-4.342 -36.892,-13.021 -58.596,-13.021c-7.604,0 -14.112,1.075 -20.625,3.246c11.946,-20.608 68.371,-47.742 80.296,-50.987c39.062,-5.438 71.617,-28.213 71.617,-70.542c-0,-26.042 -10.85,-43.4 -24.95,-56.421c-28.213,-22.779 -69.442,-26.041 -81.388,-26.041c-39.062,-0 -70.521,2.166 -98.733,34.72c-7.604,8.679 -10.85,17.363 -10.85,26.042c-0,7.604 3.246,16.283 6.508,26.042c6.513,13.02 20.608,22.795 35.8,22.795c27.138,0 30.383,-26.041 30.383,-37.987c0,-24.946 -27.12,-27.117 -27.12,-37.967c-0,-7.604 10.854,-20.625 43.404,-20.625c50.991,0 68.35,42.325 68.35,55.346c-0,19.533 -6.509,37.967 -17.359,53.158c-19.533,24.967 -55.333,33.646 -82.466,51.009c-30.384,18.437 -50.992,49.912 -60.763,84.637c0,7.584 3.263,16.267 9.771,19.529c1.079,1.076 3.25,1.076 4.342,1.076c11.929,-0 18.437,-33.63 50.991,-33.63c21.7,0 29.305,29.292 78.125,29.292c22.792,0 65.105,-2.171 73.784,-85.712" style="fill-rule:nonzero;"/></g><g><path d="M20475.1,134.792c-59.67,-0 -85.712,40.137 -85.712,62.933c-0,15.192 8.683,33.629 35.8,34.725c20.625,-0 30.383,-13.021 30.383,-27.138l0,-4.341c-1.079,-16.267 -11.929,-17.359 -14.1,-18.438c-2.166,-1.091 -6.508,-5.433 -6.508,-13.02c2.171,-11.942 18.437,-16.284 22.779,-16.284c55.346,0 71.613,29.304 71.613,47.742c-0,51.008 -52.084,55.35 -68.35,56.425c-7.605,-0 -15.192,3.262 -15.192,9.775c-0,6.508 9.758,6.508 14.096,6.508c62.937,0 71.616,32.554 71.616,48.821c0,62.933 -50.991,65.104 -64.012,65.104c-6.508,0 -17.358,-3.246 -18.454,-8.679l-0,-6.513c-0,-11.925 3.266,-24.945 4.341,-35.795c0,-19.534 -13.02,-31.479 -32.554,-31.479l-4.337,-0c-7.588,2.17 -15.192,6.512 -20.609,11.945c-7.604,6.513 -9.775,16.267 -9.775,26.042c1.096,34.721 31.475,64.008 85.73,65.104l6.512,0c53.158,0 108.504,-28.212 108.504,-75.954c0,-10.85 -2.171,-19.533 -5.433,-26.042c-2.171,-6.512 -6.508,-11.945 -10.85,-16.287c-3.246,-4.338 -7.588,-7.583 -11.929,-10.85l-11.942,-6.508l-6.512,-2.171c-2.171,-0 -3.246,-1.075 -5.417,-1.075l-6.508,-2.171c-3.267,-1.096 -4.342,-0 -5.434,-2.171c-1.079,-1.096 -1.079,-2.171 -1.079,-3.262c0,-2.171 1.079,-4.342 3.246,-4.342l17.362,-5.417c7.605,-4.341 15.192,-7.604 20.625,-15.191c8.68,-8.68 11.93,-22.796 11.93,-34.721c-0,-51.009 -67.275,-65.104 -91.146,-67.275l-8.684,-0" style="fill-rule:nonzero;"/></g><g><path d="M21374.4,176.875l0,-116.113c0,-5.416 -1.096,-9.754 -6.512,-9.754c-4.342,0 -7.605,1.075 -10.85,5.417l-32.555,62.933c-2.166,2.171 -5.433,5.434 -5.433,13.021l0,44.496l-70.521,-0c44.479,-36.892 113.925,-159.513 115.017,-166.025c-0,-1.075 1.079,-2.171 1.079,-3.246c0,-4.342 -4.342,-7.604 -7.587,-7.604c-5.434,-0 -28.213,2.171 -37.988,2.171c-9.754,-0 -16.267,-2.171 -20.608,-2.171c-5.434,-0 -13.021,2.171 -13.021,10.85c-0,69.446 -56.421,148.663 -70.538,168.196c-2.17,2.171 -4.337,5.416 -4.337,8.679c-0,5.417 4.337,10.85 10.85,10.85l97.654,-0l0,33.629c0,15.192 -8.679,19.533 -17.358,19.533c-9.759,0 -14.1,4.338 -14.1,9.776c-0,5.416 2.171,11.924 11.929,11.924l93.317,0c5.433,0 10.85,-4.341 10.85,-11.925c-0,-7.604 -6.513,-10.854 -11.93,-10.854c-5.433,0 -17.358,-3.262 -17.358,-20.625l0,-31.458l40.138,0c5.433,0 8.679,-4.337 8.679,-10.85c-0,-6.508 -2.171,-10.85 -8.679,-10.85l-40.138,0" style="fill-rule:nonzero;"/></g><g><path d="M22205,176.875l0,-116.113c0,-5.416 -1.095,-9.754 -6.512,-9.754c-4.338,0 -7.604,1.075 -10.85,5.417l-32.55,62.933c-2.171,2.171 -5.433,5.434 -5.433,13.021l-0,44.496l-70.521,-0c44.479,-36.892 113.921,-159.513 115.016,-166.025c0,-1.075 1.075,-2.171 1.075,-3.246c0,-4.342 -4.341,-7.604 -7.587,-7.604c-5.433,-0 -28.213,2.171 -37.983,2.171c-9.759,-0 -16.271,-2.171 -20.609,-2.171c-5.433,-0 -13.021,2.171 -13.021,10.85c0,69.446 -56.425,148.663 -70.537,168.196c-2.171,2.171 -4.342,5.416 -4.342,8.679c0,5.417 4.342,10.85 10.85,10.85l97.659,-0l-0,33.629c-0,15.192 -8.684,19.533 -17.363,19.533c-9.758,0 -14.096,4.338 -14.096,9.776c0,5.416 2.167,11.924 11.925,11.924l93.317,0c5.433,0 10.85,-4.341 10.85,-11.925c-0,-7.604 -6.508,-10.854 -11.925,-10.854c-5.438,0 -17.363,-3.262 -17.363,-20.625l0,-31.458l40.138,0c5.433,0 8.683,-4.337 8.683,-10.85c0,-6.508 -2.171,-10.85 -8.683,-10.85l-40.138,0" style="fill-rule:nonzero;"/></g><g><path d="M22966.6,134.792c-59.687,-0 -85.729,40.137 -85.729,62.933c0,15.192 8.679,33.629 35.813,34.725c20.608,-0 30.383,-13.021 30.383,-27.138l0,-4.341c-1.092,-16.267 -11.946,-17.359 -14.112,-18.438c-2.171,-1.091 -6.513,-5.433 -6.513,-13.02c2.171,-11.942 18.454,-16.284 22.796,-16.284c55.329,0 71.612,29.304 71.612,47.742c0,51.008 -52.083,55.35 -68.366,56.425c-7.588,-0 -15.192,3.262 -15.192,9.775c0,6.508 9.775,6.508 14.117,6.508c62.933,0 71.612,32.554 71.612,48.821c0,62.933 -51.004,65.104 -64.025,65.104c-6.512,0 -17.362,-3.246 -18.437,-8.679l-0,-6.513c-0,-11.925 3.246,-24.945 4.337,-35.795c0,-19.534 -13.021,-31.479 -32.55,-31.479l-4.341,-0c-7.605,2.17 -15.192,6.512 -20.625,11.945c-7.588,6.513 -9.759,16.267 -9.759,26.042c1.079,34.721 31.459,64.008 85.713,65.104l6.512,0c53.175,0 108.504,-28.212 108.504,-75.954c0,-10.85 -2.166,-19.533 -5.416,-26.042c-2.167,-6.512 -6.509,-11.945 -10.85,-16.287c-3.263,-4.338 -7.604,-7.583 -11.942,-10.85l-11.929,-6.508l-6.508,-2.171c-2.171,-0 -3.267,-1.075 -5.438,-1.075l-6.508,-2.171c-3.246,-1.096 -4.342,-0 -5.417,-2.171c-1.096,-1.096 -1.096,-2.171 -1.096,-3.262c0,-2.171 1.096,-4.342 3.267,-4.342l17.358,-5.417c7.588,-4.341 15.192,-7.604 20.609,-15.191c8.683,-8.68 11.945,-22.796 11.945,-34.721c0,-51.009 -67.275,-65.104 -91.145,-67.275l-8.68,-0" style="fill-rule:nonzero;"/></g><g><path d="M23746.1,394.117c0,-0.005 -1.095,4.337 -1.095,7.604c-0,4.337 4.341,8.679 8.683,8.679c3.262,0 5.433,-3.267 6.508,-4.342c1.096,-3.262 14.117,-47.741 20.625,-58.591c2.171,-4.342 4.342,-5.438 5.417,-5.438c2.171,0.004 3.267,4.342 3.267,7.608l-0,155.155c-0,13.02 -10.855,20.625 -21.705,20.625c-4.337,-0 -9.775,2.17 -9.775,8.679c0,6.512 5.438,8.683 14.117,8.683l91.146,0c8.679,0 8.679,-8.683 8.679,-8.683c0,-0 0,-8.679 -8.679,-8.679c-7.604,-0 -17.363,-9.775 -17.363,-19.534l0,-225.691c0,-8.68 -3.262,-13.021 -10.85,-13.021c-7.604,-0 -14.112,2.171 -20.625,2.171c-10.85,-0 -13.02,-0 -21.7,-2.171c-4.341,-0 -9.758,6.508 -13.02,10.85l-33.63,116.091" style="fill-rule:nonzero;"/></g><g><path d="M24576.5,528.663c0,-0 -1.095,4.341 -1.095,7.604c-0,4.341 4.341,8.683 8.679,8.683c3.266,0 5.437,-3.267 6.512,-4.342c1.092,-3.266 14.113,-47.741 20.625,-58.596c2.171,-4.337 4.342,-5.433 5.417,-5.433c2.171,0 3.262,4.342 3.262,7.604l0,155.159c0,13.02 -10.85,20.625 -21.7,20.625c-4.341,-0 -9.775,2.17 -9.775,8.679c0,6.512 5.434,8.679 14.117,8.679l91.146,0c8.679,0 8.679,-8.679 8.679,-8.679c0,-0 0,-8.679 -8.679,-8.679c-7.604,-0 -17.363,-9.775 -17.363,-19.534l0,-225.691c0,-8.684 -3.262,-13.021 -10.85,-13.021c-7.604,-0 -14.116,2.166 -20.625,2.166c-10.85,0 -13.02,0 -21.704,-2.166c-4.337,-0 -9.754,6.508 -13.021,10.85l-33.625,116.091" style="fill-rule:nonzero;"/></g><g><path d="M25527.1,715.071l0,-116.113c0,-5.416 -1.096,-9.758 -6.512,-9.758c-4.342,-0 -7.605,1.079 -10.85,5.417l-32.555,62.937c-2.166,2.167 -5.433,5.433 -5.433,13.021l0,44.496l-70.521,-0c44.479,-36.892 113.925,-159.517 115.017,-166.025c-0,-1.075 1.079,-2.171 1.079,-3.246c0,-4.342 -4.342,-7.604 -7.587,-7.604c-5.434,-0 -28.213,2.167 -37.988,2.167c-9.754,-0 -16.267,-2.167 -20.608,-2.167c-5.434,-0 -13.021,2.167 -13.021,10.85c-0,69.442 -56.421,148.662 -70.538,168.196c-2.17,2.166 -4.337,5.412 -4.337,8.679c-0,5.417 4.337,10.85 10.85,10.85l97.654,-0l0,33.629c0,15.192 -8.679,19.529 -17.358,19.529c-9.759,0 -14.1,4.342 -14.1,9.775c-0,5.417 2.171,11.929 11.929,11.929l93.317,0c5.433,0 10.85,-4.341 10.85,-11.929c-0,-7.604 -6.513,-10.85 -11.93,-10.85c-5.433,0 -17.358,-3.262 -17.358,-20.625l0,-31.458l40.138,-0c5.433,-0 8.679,-4.342 8.679,-10.85c-0,-6.513 -2.171,-10.85 -8.679,-10.85l-40.138,-0" style="fill-rule:nonzero;"/></g><g><path d="M26298.9,538.438c-59.671,-0 -85.712,40.137 -85.712,62.933c-0,15.192 8.679,33.629 35.795,34.725c20.625,-0 30.384,-13.021 30.384,-27.138l-0,-4.341c-1.075,-16.267 -11.925,-17.359 -14.096,-18.438c-2.171,-1.091 -6.513,-5.433 -6.513,-13.021c2.171,-11.941 18.438,-16.283 22.78,-16.283c55.345,0 71.612,29.304 71.612,47.742c0,51.008 -52.083,55.35 -68.35,56.425c-7.604,-0 -15.192,3.262 -15.192,9.775c0,6.508 9.759,6.508 14.1,6.508c62.934,0 71.613,32.554 71.613,48.821c-0,62.933 -50.988,65.104 -64.008,65.104c-6.513,0 -17.363,-3.246 -18.455,-8.679l0,-6.513c0,-11.925 3.263,-24.945 4.338,-35.8c-0,-19.529 -13.021,-31.475 -32.55,-31.475l-4.342,0c-7.587,2.171 -15.191,6.513 -20.608,11.946c-7.604,6.513 -9.775,16.267 -9.775,26.042c1.096,34.721 31.479,64.008 85.729,65.104l6.513,0c53.158,0 108.508,-28.212 108.508,-75.954c-0,-10.85 -2.171,-19.533 -5.438,-26.042c-2.166,-6.512 -6.508,-11.946 -10.85,-16.287c-3.245,-4.338 -7.587,-7.584 -11.925,-10.85l-11.945,-6.509l-6.509,-2.17c-2.171,-0 -3.25,-1.075 -5.416,-1.075l-6.513,-2.171c-3.262,-1.096 -4.342,-0 -5.433,-2.171c-1.075,-1.096 -1.075,-2.171 -1.075,-3.263c-0,-2.17 1.075,-4.341 3.246,-4.341l17.358,-5.417c7.604,-4.342 15.192,-7.604 20.625,-15.192c8.683,-8.679 11.929,-22.795 11.929,-34.72c0,-51.009 -67.275,-65.105 -91.146,-67.275l-8.679,-0" style="fill-rule:nonzero;"/></g><g><path d="M27078.3,797.763c0,-0 -1.091,4.337 -1.091,7.604c-0,4.337 4.337,8.679 8.679,8.679c3.262,-0 5.433,-3.263 6.512,-4.342c1.092,-3.262 14.113,-47.742 20.625,-58.592c2.167,-4.341 4.338,-5.433 5.417,-5.433c2.167,0 3.263,4.338 3.263,7.604l-0,155.154c-0,13.021 -10.85,20.625 -21.7,20.625c-4.342,0 -9.775,2.171 -9.775,8.68c-0,6.512 5.433,8.683 14.112,8.683l91.146,-0c8.683,-0 8.683,-8.683 8.683,-8.683c0,-0 0,-8.68 -8.683,-8.68c-7.604,0 -17.358,-9.775 -17.358,-19.529l-0,-225.696c-0,-8.679 -3.267,-13.02 -10.855,-13.02c-7.604,-0 -14.112,2.17 -20.625,2.17c-10.85,0 -13.02,0 -21.7,-2.17c-4.341,-0 -9.758,6.508 -13.02,10.85l-33.63,116.095" style="fill-rule:nonzero;"/></g><g><path d="M27909,932.308c-0,0 -1.092,4.342 -1.092,7.605c0,4.341 4.338,8.683 8.679,8.683c3.263,-0 5.434,-3.267 6.513,-4.342c1.091,-3.262 14.112,-47.741 20.625,-58.596c2.166,-4.337 4.337,-5.433 5.416,-5.433c2.167,0 3.263,4.342 3.263,7.604l-0,155.158c-0,13.021 -10.85,20.625 -21.7,20.625c-4.342,0 -9.775,2.171 -9.775,8.68c-0,6.512 5.433,8.679 14.112,8.679l91.146,-0c8.684,-0 8.684,-8.679 8.684,-8.679c-0,-0 -0,-8.68 -8.684,-8.68c-7.604,0 -17.358,-9.775 -17.358,-19.533l-0,-225.692c-0,-8.683 -3.267,-13.02 -10.854,-13.02c-7.604,-0 -14.113,2.166 -20.625,2.166c-10.85,0 -13.021,0 -21.7,-2.166c-4.342,-0 -9.759,6.508 -13.021,10.85l-33.629,116.091" style="fill-rule:nonzero;"/></g><g><path d="M1612.08,3370.47c96.562,-0 214.841,-88.979 214.841,-181.217c0,-55.329 -43.4,-90.054 -105.258,-90.054c-119.358,0 -214.846,87.883 -214.846,181.2c0,56.421 46.667,90.067 105.263,90.067" style="fill-rule:nonzero;"/></g><g><path d="M2086.38,3188.18c-0,0 -3.263,-65.104 -3.263,-108.508c0,-17.363 1.092,-30.384 2.171,-34.721c7.604,-21.704 51.004,-53.179 75.954,-53.179c31.475,-0 44.496,35.816 44.496,62.933c0,58.596 -49.912,117.188 -96.579,146.496c-4.342,2.167 -7.588,3.246 -10.85,3.246c-9.758,-0 -11.929,-10.854 -11.929,-16.267m-37.988,96.558c3.267,4.342 6.513,5.438 9.775,5.438c3.246,-0 6.513,-2.171 6.513,-2.171c32.55,-18.454 58.591,-47.742 85.712,-66.2c96.579,-67.271 130.209,-133.454 130.209,-183.367c-0,-61.858 -47.746,-100.92 -97.659,-104.166c-18.437,-0 -44.479,8.679 -59.671,18.437c-6.508,5.434 -18.454,15.192 -23.87,15.192c-2.171,-0 -3.263,-0 -5.434,-1.075c-7.587,-3.267 -11.929,-10.854 -11.929,-18.458c1.079,-23.871 7.588,-284.288 7.588,-305.988c-0,-11.929 -9.755,-18.437 -20.609,-18.437c-15.187,-0 -32.55,10.85 -33.646,30.383c0,-0 4.342,619.562 13.021,630.412" style="fill-rule:nonzero;"/></g><g><path d="M2452.89,3235.92c96.563,-0 214.842,-88.975 214.842,-181.217c-0,-55.329 -43.404,-90.05 -105.258,-90.05c-119.359,0 -214.846,87.879 -214.846,181.196c-0,56.425 46.666,90.071 105.262,90.071" style="fill-rule:nonzero;"/></g><g><path d="M2927.2,3053.63c0,0 -3.245,-65.104 -3.245,-108.508c-0,-17.359 1.075,-30.379 2.17,-34.721c7.584,-21.7 50.988,-53.179 75.955,-53.179c31.458,-0 44.479,35.816 44.479,62.937c-0,58.592 -49.913,117.188 -96.563,146.492c-4.341,2.171 -7.604,3.246 -10.85,3.246c-9.775,-0 -11.946,-10.85 -11.946,-16.267m-37.97,96.563c3.25,4.341 6.512,5.433 9.758,5.433c3.262,-0 6.512,-2.171 6.512,-2.171c32.55,-18.454 58.592,-47.742 85.73,-66.196c96.562,-67.275 130.208,-133.454 130.208,-183.371c-0,-61.858 -47.746,-100.92 -97.658,-104.166c-18.455,-0 -44.496,8.683 -59.688,18.437c-6.508,5.438 -18.437,15.192 -23.871,15.192c-2.171,-0 -3.246,-0 -5.416,-1.075c-7.605,-3.263 -11.946,-10.85 -11.946,-18.454c1.096,-23.871 7.604,-284.288 7.604,-305.992c-0,-11.925 -9.775,-18.437 -20.625,-18.437c-15.192,-0 -32.55,10.85 -33.629,30.383c-0,0 4.341,619.567 13.021,630.417" style="fill-rule:nonzero;"/></g><g><path d="M3293.7,3101.37c96.562,-0 214.846,-88.975 214.846,-181.217c-0,-55.329 -43.405,-90.05 -105.263,-90.05c-119.354,0 -214.842,87.884 -214.842,181.196c0,56.425 46.667,90.071 105.259,90.071" style="fill-rule:nonzero;"/></g><g><path d="M3809.59,2923.42c0,-15.192 66.196,-43.404 92.238,-43.404c6.512,-0 9.758,1.079 9.758,5.416l0,111.771c0,19.533 -61.842,44.479 -88.975,44.479c-7.587,0 -13.021,-2.171 -13.021,-6.508l0,-111.754m112.846,-154.079c-2.171,-0 -3.246,1.075 -4.337,1.075c-0,-0 -69.446,24.966 -97.659,24.966c-6.508,0 -10.85,-1.096 -10.85,-5.433l0,-181.2c0,-7.604 -6.512,-13.021 -13.021,-13.021l-14.095,0c-7.605,0 -13.021,5.417 -13.021,13.021l-0,558.8c-0,6.512 3.246,9.775 8.679,9.775c1.075,-0 6.508,-1.092 7.587,-2.167c15.192,-6.512 75.955,-32.554 107.43,-32.554c10.85,0 18.437,3.246 18.437,11.925l0,161.688c0,7.587 5.433,13.02 13.021,13.02l14.117,0c6.508,0 13.02,-5.433 13.02,-13.02l0,-544.709c0,-5.433 -4.341,-8.679 -8.683,-8.679c-1.092,0 -3.262,0 -4.337,1.079l-16.288,5.434" style="fill-rule:nonzero;"/></g><g><path d="M4124.26,3101.37c96.579,-0 214.842,-88.975 214.842,-181.217c-0,-55.329 -43.4,-90.05 -105.242,-90.05c-119.358,0 -214.846,87.884 -214.846,181.196c0,56.425 46.65,90.071 105.246,90.071" style="fill-rule:nonzero;"/></g><g><path d="M4729.86,2880.02c-6.509,21.7 -57.517,43.404 -82.463,43.404c-6.512,-0 -11.946,-2.171 -13.021,-5.434c-2.17,-4.341 -3.266,-28.212 -3.266,-54.254c-0,-33.629 1.096,-71.616 3.266,-80.295c2.171,-18.438 52.084,-41.234 79.2,-41.234c7.605,0 14.117,2.171 16.284,6.513c2.171,5.433 4.341,32.55 4.341,61.854c0,29.292 -2.17,59.671 -4.341,69.446m74.862,-176.875c7.604,-3.246 13.021,-11.925 13.021,-18.438l0,-77.05c0,-5.416 -3.246,-8.679 -7.587,-8.679c-2.171,0 -3.263,0 -5.434,1.096c0,-0 -21.7,8.679 -27.116,9.754c-7.605,0 -15.192,-5.417 -15.192,-14.096l-0,-132.379c-0,-6.508 -6.513,-11.946 -15.192,-11.946c-10.85,0 -17.362,5.438 -17.362,11.946l-0,141.058c-1.092,10.85 -4.338,24.95 -14.113,31.459c-13.021,7.604 -49.912,22.796 -68.35,27.137c-9.775,0 -13.021,-13.021 -13.021,-21.704l0,-130.208c0,-6.509 -7.604,-11.942 -15.191,-11.942c-10.85,0 -17.363,5.433 -17.363,11.942l0,146.479c0,15.187 -6.508,26.042 -13.021,29.304c-6.508,3.246 -28.212,11.925 -28.212,11.925c-7.604,2.171 -13.021,10.854 -13.021,17.363l0,77.05c0,6.508 3.25,9.754 8.683,9.754c4.338,-0 24.946,-9.754 28.213,-11.925c1.075,-0 2.167,-1.096 3.246,-1.096c7.604,-0 14.112,10.854 14.112,19.533l0,107.429c0,11.93 -5.433,21.705 -11.941,24.95c-6.513,2.171 -29.292,11.942 -29.292,11.942c-7.604,2.171 -13.021,10.854 -13.021,17.363l0,77.033c0,6.508 3.25,9.771 8.683,9.771c1.075,-0 3.246,-1.092 4.338,-1.092c-0,0 15.192,-6.512 24.95,-9.758c1.092,-1.092 2.171,-1.092 3.262,-1.092c7.588,0 13.021,11.942 13.021,17.358l0,133.475c0,6.509 6.513,11.925 14.1,11.925c10.85,0 18.454,-5.416 18.454,-11.925l0,-150.833c0,-14.1 5.417,-21.704 10.85,-23.871l66.18,-27.121c1.095,0 3.266,-1.091 4.341,-1.091c8.679,-0 14.113,13.021 14.113,19.529l-0,135.642c-0,6.512 6.512,11.929 14.1,11.929c11.941,-0 18.454,-5.417 18.454,-11.929l-0,-154.08c-0,-8.679 4.342,-21.7 11.925,-24.962c7.604,-3.25 30.383,-11.929 30.383,-11.929c7.604,-3.263 13.021,-11.946 13.021,-18.454l0,-77.034c0,-5.433 -3.246,-8.679 -7.587,-8.679c-2.171,0 -3.263,0 -5.434,1.075l-28.212,10.854c-6.509,0 -14.096,-6.512 -14.096,-19.533l-0,-100.904c-0,-7.604 5.417,-28.209 14.096,-31.475l28.212,-10.85" style="fill-rule:nonzero;"/></g><g><path d="M4990.11,2966.83c96.579,0 214.841,-88.979 214.841,-181.217c0,-55.329 -43.4,-90.054 -105.241,-90.054c-119.359,0 -214.846,87.883 -214.846,181.2c-0,56.421 46.65,90.067 105.246,90.067" style="fill-rule:nonzero;"/></g><g><path d="M5820.73,2832.28c96.579,0 214.841,-88.975 214.841,-181.217c0,-55.329 -43.4,-90.05 -105.241,-90.05c-119.359,0 -214.846,87.88 -214.846,181.196c-0,56.425 46.65,90.071 105.246,90.071" style="fill-rule:nonzero;"/></g><g><path d="M6651.4,2697.72c96.563,0 214.846,-88.975 214.846,-181.217c0,-55.329 -43.404,-90.05 -105.262,-90.05c-119.359,0 -214.842,87.884 -214.842,181.196c0,56.425 46.667,90.071 105.258,90.071" style="fill-rule:nonzero;"/></g><g><path d="M7482.02,2563.18c96.563,0 214.846,-88.975 214.846,-181.212c0,-55.33 -43.404,-90.055 -105.262,-90.055c-119.359,0 -214.842,87.884 -214.842,181.2c0,56.421 46.667,90.067 105.258,90.067" style="fill-rule:nonzero;"/></g><g><path d="M8312.69,2428.63c96.579,0 214.842,-88.975 214.842,-181.216c-0,-55.33 -43.404,-90.05 -105.242,-90.05c-119.358,-0 -214.846,87.879 -214.846,181.195c0,56.425 46.65,90.071 105.246,90.071" style="fill-rule:nonzero;"/></g><g><path d="M8776.4,2246.34c0,-0.001 -3.262,-65.105 -3.262,-108.509c-0,-17.362 1.092,-30.383 2.171,-34.721c7.604,-21.704 51.004,-53.179 75.954,-53.179c31.475,0 44.496,35.817 44.496,62.938c-0,58.591 -49.913,117.187 -96.579,146.491c-4.342,2.171 -7.588,3.246 -10.85,3.246c-9.759,0 -11.93,-10.85 -11.93,-16.267m-37.983,96.563c3.263,4.342 6.508,5.433 9.771,5.433c3.25,0 6.512,-2.171 6.512,-2.171c32.55,-18.454 58.592,-47.741 85.713,-66.195c96.579,-67.275 130.208,-133.459 130.208,-183.371c0,-61.859 -47.746,-100.921 -97.658,-104.167c-18.438,0 -44.479,8.683 -59.671,18.438c-6.508,5.433 -18.454,15.191 -23.871,15.191c-2.171,0 -3.262,0 -5.433,-1.075c-7.588,-3.266 -11.925,-10.85 -11.925,-18.454c1.075,-23.875 7.583,-284.292 7.583,-305.992c0,-11.925 -9.754,-18.437 -20.604,-18.437c-15.192,-0 -32.554,10.85 -33.646,30.383c0,0 4.338,619.567 13.021,630.417" style="fill-rule:nonzero;"/></g><g><path d="M9142.94,2294.08c96.579,0 214.842,-88.975 214.842,-181.217c-0,-55.329 -43.4,-90.05 -105.242,-90.05c-119.358,0 -214.842,87.884 -214.842,181.196c0,56.425 46.646,90.071 105.242,90.071" style="fill-rule:nonzero;"/></g><g><path d="M9606.69,2111.79c0,-0 -3.262,-65.105 -3.262,-108.509c-0,-17.358 1.091,-30.379 2.17,-34.721c7.605,-21.7 51.005,-53.175 75.955,-53.175c31.475,0 44.495,35.813 44.495,62.934c0,58.591 -49.912,117.187 -96.579,146.491c-4.341,2.171 -7.587,3.246 -10.85,3.246c-9.758,0 -11.929,-10.85 -11.929,-16.266m-37.987,96.562c3.266,4.342 6.512,5.433 9.775,5.433c3.245,0 6.512,-2.17 6.512,-2.17c32.55,-18.455 58.592,-47.742 85.713,-66.196c96.579,-67.275 130.208,-133.454 130.208,-183.367c-0,-61.858 -47.746,-100.921 -97.658,-104.167c-18.438,0 -44.48,8.68 -59.671,18.438c-6.509,5.433 -18.454,15.187 -23.871,15.187c-2.171,0 -3.263,0 -5.433,-1.075c-7.588,-3.262 -11.93,-10.85 -11.93,-18.454c1.08,-23.871 7.588,-284.287 7.588,-305.991c-0,-11.925 -9.754,-18.438 -20.608,-18.438c-15.188,0 -32.55,10.854 -33.646,30.383c-0,0 4.341,619.567 13.021,630.417" style="fill-rule:nonzero;"/></g><g><path d="M9973.15,2159.53c96.58,0 214.846,-88.975 214.846,-181.212c0,-55.329 -43.404,-90.054 -105.246,-90.054c-119.354,-0 -214.841,87.883 -214.841,181.2c-0,56.42 46.65,90.066 105.241,90.066" style="fill-rule:nonzero;"/></g><g><path d="M10488.8,1981.58c0,-15.191 66.2,-43.404 92.242,-43.404c6.508,0 9.754,1.079 9.754,5.417l0,111.771c0,19.533 -61.837,44.479 -88.975,44.479c-7.587,-0 -13.021,-2.167 -13.021,-6.509l0,-111.754m112.85,-154.079c-2.17,0 -3.25,1.075 -4.341,1.075c-0,0 -69.446,24.967 -97.659,24.967c-6.508,-0 -10.85,-1.096 -10.85,-5.434l0,-181.2c0,-7.604 -6.508,-13.02 -13.02,-13.02l-14.096,-0c-7.604,-0 -13.021,5.416 -13.021,13.02l-0,558.805c-0,6.508 3.246,9.775 8.679,9.775c1.079,-0 6.513,-1.096 7.588,-2.171c15.191,-6.513 75.954,-32.554 107.429,-32.554c10.854,-0 18.437,3.245 18.437,11.929l0,161.683c0,7.588 5.438,13.021 13.021,13.021l14.117,-0c6.508,-0 13.021,-5.433 13.021,-13.021l-0,-544.704c-0,-5.433 -4.342,-8.683 -8.68,-8.683c-1.095,-0 -3.266,-0 -4.341,1.079l-16.284,5.433" style="fill-rule:nonzero;"/></g><g><path d="M10803.5,2159.53c96.579,0 214.846,-88.975 214.846,-181.212c-0,-55.329 -43.405,-90.054 -105.246,-90.054c-119.359,-0 -214.842,87.883 -214.842,181.2c0,56.42 46.65,90.066 105.242,90.066" style="fill-rule:nonzero;"/></g><g><path d="M11373,1938.17c-6.512,21.704 -57.5,43.404 -82.466,43.404c-6.509,0 -11.925,-2.171 -13.021,-5.433c-2.171,-4.342 -3.246,-28.213 -3.246,-54.254c0,-33.63 1.075,-71.613 3.246,-80.296c2.171,-18.438 52.083,-41.234 79.221,-41.234c7.583,0 14.096,2.171 16.266,6.513c2.171,5.433 4.338,32.554 4.338,61.858c-0,29.288 -2.167,59.671 -4.338,69.446m74.88,-176.875c7.583,-3.25 13.02,-11.929 13.02,-18.437l0,-77.05c0,-5.417 -3.266,-8.68 -7.604,-8.68c-2.171,0 -3.25,0 -5.416,1.092c-0,0 -21.705,8.679 -27.138,9.758c-7.587,0 -15.192,-5.416 -15.192,-14.1l0,-132.375c0,-6.512 -6.508,-11.945 -15.191,-11.945c-10.85,-0 -17.359,5.433 -17.359,11.945l0,141.059c-1.079,10.85 -4.341,24.946 -14.1,31.458c-13.02,7.604 -49.912,22.796 -68.366,27.133c-9.759,0 -13.021,-13.02 -13.021,-21.7l-0,-130.208c-0,-6.512 -7.588,-11.946 -15.192,-11.946c-10.85,0 -17.358,5.434 -17.358,11.946l-0,146.475c-0,15.192 -6.513,26.042 -13.021,29.304c-6.512,3.25 -28.212,11.929 -28.212,11.929c-7.588,2.171 -13.021,10.85 -13.021,17.363l-0,77.046c-0,6.512 3.262,9.758 8.679,9.758c4.342,0 24.967,-9.758 28.212,-11.929c1.092,-0 2.171,-1.092 3.263,-1.092c7.587,0 14.1,10.85 14.1,19.529l-0,107.434c-0,11.925 -5.417,21.7 -11.929,24.946c-6.509,2.17 -29.304,11.945 -29.304,11.945c-7.588,2.171 -13.021,10.85 -13.021,17.363l-0,77.029c-0,6.513 3.262,9.775 8.679,9.775c1.096,0 3.262,-1.096 4.342,-1.096c-0,0 15.191,-6.508 24.962,-9.754c1.079,-1.096 2.171,-1.096 3.25,-1.096c7.604,0 13.021,11.946 13.021,17.363l-0,133.471c-0,6.512 6.508,11.929 14.112,11.929c10.85,-0 18.438,-5.417 18.438,-11.929l-0,-150.834c-0,-14.096 5.433,-21.7 10.85,-23.871l66.2,-27.116c1.075,-0 3.246,-1.096 4.337,-1.096c8.684,-0 14.1,13.021 14.1,19.533l0,135.642c0,6.508 6.509,11.925 14.113,11.925c11.929,-0 18.437,-5.417 18.437,-11.925l0,-154.079c0,-8.684 4.342,-21.704 11.946,-24.967c7.588,-3.246 30.384,-11.925 30.384,-11.925c7.583,-3.267 13.02,-11.946 13.02,-18.458l0,-77.029c0,-5.434 -3.266,-8.68 -7.604,-8.68c-2.171,0 -3.25,0 -5.416,1.075l-28.213,10.85c-6.512,0 -14.117,-6.508 -14.117,-19.529l0,-100.904c0,-7.604 5.434,-28.212 14.117,-31.475l28.213,-10.85" style="fill-rule:nonzero;"/></g><g><path d="M11633.3,2024.98c96.563,0 214.846,-88.975 214.846,-181.216c0,-55.329 -43.404,-90.05 -105.262,-90.05c-119.359,-0 -214.842,87.879 -214.842,181.196c0,56.425 46.667,90.07 105.258,90.07" style="fill-rule:nonzero;"/></g><g><path d="M12463.9,1890.43c96.563,0 214.842,-88.975 214.842,-181.216c-0,-55.33 -43.4,-90.05 -105.259,-90.05c-119.358,-0 -214.845,87.883 -214.845,181.2c-0,56.42 46.666,90.066 105.262,90.066" style="fill-rule:nonzero;"/></g><g><path d="M13294.6,1755.89c96.563,-0 214.842,-88.98 214.842,-181.217c-0,-55.329 -43.4,-90.054 -105.259,-90.054c-119.358,-0 -214.845,87.883 -214.845,181.2c-0,56.421 46.666,90.071 105.262,90.071" style="fill-rule:nonzero;"/></g><g><path d="M14125.2,1621.34c96.579,-0 214.842,-88.975 214.842,-181.217c-0,-55.329 -43.404,-90.05 -105.242,-90.05c-119.358,-0 -214.846,87.879 -214.846,181.196c0,56.425 46.65,90.071 105.246,90.071" style="fill-rule:nonzero;"/></g><g><path d="M15403.1,1486.79c96.562,-0 214.841,-88.975 214.841,-181.217c0,-55.329 -43.404,-90.05 -105.258,-90.05c-119.358,-0 -214.846,87.883 -214.846,181.2c0,56.421 46.667,90.066 105.263,90.066" style="fill-rule:nonzero;"/></g><g><path d="M15866.8,1304.5c0,-0 -3.246,-65.104 -3.246,-108.504c0,-17.363 1.075,-30.384 2.171,-34.725c7.588,-21.7 50.988,-53.175 75.954,-53.175c31.459,-0 44.479,35.816 44.479,62.933c0,58.592 -49.912,117.187 -96.562,146.492c-4.342,2.17 -7.604,3.245 -10.85,3.245c-9.775,0 -11.946,-10.85 -11.946,-16.266m-37.967,96.562c3.246,4.342 6.509,5.434 9.755,5.434c3.266,-0 6.512,-2.167 6.512,-2.167c32.55,-18.458 58.592,-47.746 85.729,-66.2c96.563,-67.275 130.209,-133.454 130.209,-183.367c-0,-61.858 -47.742,-100.92 -97.659,-104.166c-18.454,-0 -44.496,8.679 -59.687,18.437c-6.509,5.434 -18.438,15.188 -23.871,15.188c-2.171,-0 -3.246,-0 -5.417,-1.075c-7.604,-3.263 -11.941,-10.85 -11.941,-18.454c1.091,-23.871 7.604,-284.288 7.604,-305.992c-0,-11.925 -9.775,-18.438 -20.625,-18.438c-15.192,0 -32.554,10.855 -33.629,30.384c-0,-0 4.337,619.566 13.02,630.416" style="fill-rule:nonzero;"/></g><g><path d="M16233.3,1352.24c96.563,-0 214.825,-88.979 214.825,-181.217c0,-55.329 -43.404,-90.054 -105.242,-90.054c-119.358,-0 -214.845,87.883 -214.845,181.2c-0,56.421 46.666,90.071 105.262,90.071" style="fill-rule:nonzero;"/></g><g><path d="M16707.6,1169.95c-0,0 -3.246,-65.104 -3.246,-108.508c-0,-17.363 1.075,-30.384 2.171,-34.721c7.583,-21.704 50.987,-53.179 75.954,-53.179c31.458,-0 44.479,35.816 44.479,62.933c0,58.596 -49.912,117.188 -96.562,146.496c-4.342,2.166 -7.605,3.246 -10.85,3.246c-9.775,-0 -11.946,-10.855 -11.946,-16.267m-37.971,96.558c3.25,4.342 6.512,5.438 9.758,5.438c3.263,-0 6.513,-2.171 6.513,-2.171c32.55,-18.454 58.591,-47.742 85.729,-66.2c96.562,-67.275 130.208,-133.454 130.208,-183.367c0,-61.858 -47.746,-100.921 -97.658,-104.166c-18.454,-0 -44.496,8.679 -59.688,18.437c-6.508,5.433 -18.437,15.192 -23.87,15.192c-2.171,-0 -3.246,-0 -5.417,-1.075c-7.604,-3.267 -11.946,-10.854 -11.946,-18.459c1.096,-23.87 7.604,-284.287 7.604,-305.987c0,-11.929 -9.775,-18.438 -20.625,-18.438c-15.191,0 -32.55,10.85 -33.629,30.384c0,-0 4.342,619.562 13.021,630.416" style="fill-rule:nonzero;"/></g><g><path d="M17074.3,1217.69c96.563,-0 214.842,-88.975 214.842,-181.217c0,-55.329 -43.4,-90.05 -105.258,-90.05c-119.359,0 -214.846,87.879 -214.846,181.196c-0,56.425 46.667,90.071 105.262,90.071" style="fill-rule:nonzero;"/></g><g><path d="M17590.1,1039.74c0,-15.192 66.196,-43.404 92.238,-43.404c6.512,-0 9.758,1.075 9.758,5.416l-0,111.771c-0,19.529 -61.842,44.479 -88.975,44.479c-7.588,0 -13.021,-2.171 -13.021,-6.512l0,-111.754m112.846,-154.08c-2.171,0 -3.246,1.079 -4.342,1.079c0,0 -69.441,24.963 -97.654,24.963c-6.512,0 -10.85,-1.092 -10.85,-5.433l0,-181.196c0,-7.604 -6.512,-13.021 -13.021,-13.021l-14.1,0c-7.604,0 -13.021,5.417 -13.021,13.021l0,558.8c0,6.512 3.246,9.775 8.684,9.775c1.075,-0 6.508,-1.096 7.583,-2.171c15.192,-6.508 75.958,-32.55 107.433,-32.55c10.85,0 18.438,3.246 18.438,11.925l-0,161.683c-0,7.588 5.433,13.021 13.021,13.021l14.112,0c6.513,0 13.021,-5.433 13.021,-13.021l0,-544.704c0,-5.433 -4.337,-8.679 -8.679,-8.679c-1.096,-0 -3.263,-0 -4.342,1.075l-16.283,5.433" style="fill-rule:nonzero;"/></g><g><path d="M17904.6,1217.69c96.58,-0 214.842,-88.975 214.842,-181.217c0,-55.329 -43.404,-90.05 -105.242,-90.05c-119.358,0 -214.845,87.879 -214.845,181.196c-0,56.425 46.65,90.071 105.245,90.071" style="fill-rule:nonzero;"/></g><g><path d="M18510.4,996.338c-6.512,21.7 -57.52,43.404 -82.466,43.404c-6.513,-0 -11.946,-2.171 -13.021,-5.438c-2.171,-4.337 -3.263,-28.208 -3.263,-54.25c0,-33.629 1.092,-71.616 3.263,-80.296c2.171,-18.437 52.083,-41.233 79.2,-41.233c7.604,0 14.117,2.171 16.287,6.508c2.167,5.434 4.338,32.555 4.338,61.859c-0,29.287 -2.171,59.671 -4.338,69.446m74.859,-176.875c7.604,-3.246 13.021,-11.93 13.021,-18.438l-0,-77.05c-0,-5.417 -3.246,-8.679 -7.588,-8.679c-2.167,-0 -3.262,-0 -5.433,1.091c-0,0 -21.7,8.684 -27.117,9.759c-7.604,-0 -15.192,-5.417 -15.192,-14.096l0,-132.379c0,-6.513 -6.508,-11.946 -15.191,-11.946c-10.85,0 -17.359,5.433 -17.359,11.946l0,141.058c-1.095,10.85 -4.341,24.95 -14.116,31.458c-13.021,7.605 -49.913,22.796 -68.35,27.138c-9.775,-0 -13.021,-13.021 -13.021,-21.704l-0,-130.209c-0,-6.508 -7.604,-11.941 -15.192,-11.941c-10.85,-0 -17.362,5.433 -17.362,11.941l-0,146.475c-0,15.192 -6.509,26.042 -13.021,29.309c-6.508,3.246 -28.208,11.925 -28.208,11.925c-7.605,2.171 -13.021,10.85 -13.021,17.362l-0,77.05c-0,6.509 3.246,9.755 8.679,9.755c4.342,-0 24.946,-9.755 28.212,-11.925c1.075,-0 2.171,-1.096 3.246,-1.096c7.604,-0 14.113,10.85 14.113,19.533l-0,107.429c-0,11.929 -5.434,21.7 -11.942,24.95c-6.512,2.167 -29.287,11.942 -29.287,11.942c-7.605,2.171 -13.021,10.85 -13.021,17.362l-0,77.029c-0,6.513 3.246,9.775 8.679,9.775c1.075,0 3.246,-1.091 4.342,-1.091c-0,-0 15.187,-6.513 24.945,-9.759c1.096,-1.091 2.171,-1.091 3.263,-1.091c7.587,-0 13.021,11.941 13.021,17.358l-0,133.475c-0,6.508 6.512,11.925 14.1,11.925c10.85,0 18.454,-5.417 18.454,-11.925l-0,-150.833c-0,-14.1 5.417,-21.704 10.85,-23.875l66.179,-27.117c1.096,0 3.267,-1.092 4.342,-1.092c8.679,0 14.116,13.021 14.116,19.53l0,135.641c0,6.513 6.509,11.929 14.096,11.929c11.946,0 18.454,-5.416 18.454,-11.929l0,-154.079c0,-8.679 4.342,-21.7 11.93,-24.967c7.604,-3.245 30.379,-11.925 30.379,-11.925c7.604,-3.262 13.021,-11.945 13.021,-18.454l-0,-77.033c-0,-5.433 -3.246,-8.679 -7.588,-8.679c-2.167,-0 -3.262,-0 -5.433,1.075l-28.213,10.85c-6.508,-0 -14.096,-6.509 -14.096,-19.529l0,-100.905c0,-7.604 5.417,-28.212 14.096,-31.475l28.213,-10.85" style="fill-rule:nonzero;"/></g><g><path d="M18770.4,1083.14c96.579,-0 214.846,-88.975 214.846,-181.217c-0,-55.329 -43.404,-90.05 -105.246,-90.05c-119.354,0 -214.842,87.883 -214.842,181.2c0,56.421 46.65,90.067 105.242,90.067" style="fill-rule:nonzero;"/></g><g><path d="M19601,948.596c96.563,-0.004 214.842,-88.979 214.842,-181.217c0,-55.329 -43.404,-90.054 -105.258,-90.054c-119.359,0 -214.846,87.883 -214.846,181.2c-0,56.425 46.667,90.071 105.262,90.071" style="fill-rule:nonzero;"/></g><g><path d="M20431.6,814.046c96.579,-0 214.842,-88.975 214.842,-181.217c-0,-55.329 -43.4,-90.05 -105.242,-90.05c-119.358,0 -214.842,87.879 -214.842,181.196c0,56.425 46.646,90.071 105.242,90.071" style="fill-rule:nonzero;"/></g><g><path d="M21261.9,679.496c96.579,-0 214.842,-88.975 214.842,-181.217c-0,-55.329 -43.404,-90.05 -105.242,-90.05c-119.358,0 -214.846,87.884 -214.846,181.2c0,56.421 46.65,90.067 105.246,90.067" style="fill-rule:nonzero;"/></g><g><path d="M22092.5,679.496c96.563,-0 214.842,-88.975 214.842,-181.217c0,-55.329 -43.4,-90.05 -105.258,-90.05c-119.359,0 -214.846,87.884 -214.846,181.2c-0,56.421 46.667,90.067 105.262,90.067" style="fill-rule:nonzero;"/></g><g><path d="M22923.1,814.046c96.579,-0 214.846,-88.975 214.846,-181.217c-0,-55.329 -43.404,-90.05 -105.246,-90.05c-119.354,0 -214.842,87.879 -214.842,181.196c0,56.425 46.65,90.071 105.242,90.071" style="fill-rule:nonzero;"/></g><g><path d="M23753.4,948.596c96.563,-0.004 214.842,-88.979 214.842,-181.217c-0,-55.329 -43.4,-90.054 -105.259,-90.054c-119.358,0 -214.845,87.883 -214.845,181.2c-0,56.425 46.666,90.071 105.262,90.071" style="fill-rule:nonzero;"/></g><g><path d="M24584,1083.14c96.579,-0 214.846,-88.975 214.846,-181.217c-0,-55.329 -43.405,-90.05 -105.246,-90.05c-119.354,0 -214.842,87.883 -214.842,181.2c0,56.421 46.65,90.067 105.242,90.067" style="fill-rule:nonzero;"/></g><g><path d="M25414.6,1217.69c96.563,-0 214.842,-88.975 214.842,-181.217c-0,-55.329 -43.404,-90.05 -105.259,-90.05c-119.358,0 -214.845,87.879 -214.845,181.196c-0,56.425 46.666,90.071 105.262,90.071" style="fill-rule:nonzero;"/></g><g><path d="M25888.7,1169.95c0,0 -3.246,-65.104 -3.246,-108.508c0,-17.363 1.075,-30.384 2.171,-34.721c7.588,-21.704 50.988,-53.179 75.954,-53.179c31.459,-0 44.479,35.816 44.479,62.933c0,58.596 -49.912,117.188 -96.562,146.496c-4.342,2.166 -7.604,3.246 -10.85,3.246c-9.775,-0 -11.946,-10.855 -11.946,-16.267m-37.967,96.558c3.246,4.342 6.509,5.438 9.755,5.438c3.266,-0 6.512,-2.171 6.512,-2.171c32.55,-18.454 58.592,-47.742 85.729,-66.2c96.563,-67.275 130.209,-133.454 130.209,-183.367c-0,-61.858 -47.742,-100.921 -97.659,-104.166c-18.454,-0 -44.496,8.679 -59.687,18.437c-6.509,5.433 -18.438,15.192 -23.871,15.192c-2.171,-0 -3.246,-0 -5.417,-1.075c-7.604,-3.267 -11.941,-10.854 -11.941,-18.459c1.091,-23.87 7.604,-284.287 7.604,-305.987c-0,-11.929 -9.775,-18.438 -20.625,-18.438c-15.192,0 -32.554,10.85 -33.629,30.384c-0,-0 4.337,619.562 13.02,630.416" style="fill-rule:nonzero;"/></g><g><path d="M26255.4,1217.69c96.562,-0 214.846,-88.975 214.846,-181.217c-0,-55.329 -43.405,-90.05 -105.263,-90.05c-119.358,0 -214.842,87.879 -214.842,181.196c0,56.425 46.667,90.071 105.259,90.071" style="fill-rule:nonzero;"/></g><g><path d="M27085.7,1352.24c96.579,-0 214.841,-88.979 214.841,-181.217c0,-55.329 -43.4,-90.054 -105.241,-90.054c-119.359,-0 -214.842,87.883 -214.842,181.2c0,56.421 46.646,90.071 105.242,90.071" style="fill-rule:nonzero;"/></g><g><path d="M27916.5,1486.79c96.562,-0 214.841,-88.975 214.841,-181.217c0,-55.329 -43.4,-90.05 -105.258,-90.05c-119.358,-0 -214.846,87.883 -214.846,181.2c0,56.421 46.667,90.066 105.263,90.066" style="fill-rule:nonzero;"/></g><g><path d="M565.305,2008.7c3.246,20.625 3.246,19.533 -16.288,26.042c-95.483,32.554 -157.325,118.283 -157.325,210.504c0,97.658 50.992,167.104 124.775,192.066c8.679,3.246 21.7,6.513 29.304,6.513c8.684,-0 13.021,-5.434 13.021,-11.946c0,-7.588 -8.679,-10.85 -16.283,-14.096c-45.575,-19.533 -78.125,-66.2 -78.125,-116.112c-0,-61.842 42.325,-108.509 108.508,-126.946c17.359,-4.338 19.529,-3.263 21.7,8.683l54.254,323.35c2.171,11.925 1.092,11.925 -15.191,15.192c-17.363,3.246 -39.063,5.416 -60.763,5.416c-189.879,0 -312.5,-105.245 -312.5,-256.079c0,-64.008 10.85,-149.737 100.917,-251.733c65.104,-72.692 115.021,-112.85 166.008,-154.079c10.85,-8.684 13.021,-7.588 15.192,4.337l22.796,138.892m118.262,-738.925c35.817,0 65.104,29.287 65.104,88.975c0,120.433 -103.07,218.092 -188.8,292.971c-7.587,6.508 -11.929,5.417 -14.1,-8.684c-4.337,-28.212 -6.508,-65.104 -6.508,-99.824c0,-169.271 78.125,-273.438 144.304,-273.438m-43.404,911.458c-2.167,-13.021 -1.075,-16.283 11.946,-15.191c87.883,7.587 160.592,81.37 160.592,176.858c-0,68.367 -41.234,123.696 -101.996,154.079c-13.021,6.513 -15.192,6.513 -17.363,-6.508l-53.179,-309.238m-58.592,-338.541c-2.17,-13.021 0,-14.117 6.509,-20.625c117.187,-109.584 206.166,-247.396 206.166,-413.405c0,-94.408 -26.041,-187.725 -70.52,-252.829c-16.288,-23.871 -44.5,-54.254 -56.425,-54.254c-15.192,0 -48.838,28.213 -70.538,52.083c-80.296,88.975 -106.337,224.621 -106.337,337.467c-0,62.933 7.604,133.454 15.191,177.95c2.171,13.021 3.263,15.192 -9.758,26.042c-156.25,129.116 -322.275,284.287 -322.275,503.475c-0,188.8 129.133,367.829 394.967,367.829c24.966,-0 53.175,-2.171 74.879,-6.513c11.925,-2.17 14.096,-3.245 16.266,9.775c13.021,72.692 29.305,167.1 29.305,218.092c-0,160.588 -108.505,180.121 -172.534,180.121c-58.596,-0 -86.804,-17.363 -86.804,-31.458c0,-7.605 9.771,-10.85 34.721,-18.455c33.646,-9.758 72.708,-39.062 72.708,-102c0,-59.666 -37.987,-110.675 -104.166,-110.675c-72.709,0 -116.113,57.517 -116.113,124.792c0,70.521 42.329,176.858 206.163,176.858c72.708,0 213.77,-32.554 213.77,-217.016c0,-61.838 -19.533,-164.929 -31.479,-232.204c-2.166,-13.021 -1.075,-11.925 14.117,-18.438c109.583,-43.4 182.292,-135.642 182.292,-258.246c-0,-138.887 -101.996,-261.508 -261.513,-261.508c-28.208,-0 -28.208,-0 -31.458,-19.533l-27.134,-157.325" style="fill-rule:nonzero;"/></g><g><path d="M1794.68,2158.39l-0,-134.605l2544.5,-67.275l-0,134.605l-2544.5,67.27" style="fill-rule:nonzero;"/></g><g><path d="M1794.68,2360.26l-0,-134.605l2544.5,-67.275l-0,134.605l-2544.5,67.27" style="fill-rule:nonzero;"/></g><g><path d="M5172.52,1887.5l0,-135.746l2524.41,-336.371l-0,135.746l-2524.41,336.371" style="fill-rule:nonzero;"/></g><g><path d="M5172.52,2091.16l0,-135.73l2524.41,-336.37l-0,135.729l-2524.41,336.371" style="fill-rule:nonzero;"/></g><g><path d="M8207.44,3168.04l0,-134.759l2522.8,-134.546l-0,134.754l-2522.8,134.55" style="fill-rule:nonzero;"/></g><g><path d="M8207.44,2965.95l0,-134.775l2522.8,-134.546l-0,134.775l-2522.8,134.546" style="fill-rule:nonzero;"/></g><g><path d="M11528.3,2833.14l0,-135.313l2523.88,-269.096l0,135.313l-2523.88,269.096" style="fill-rule:nonzero;"/></g><g><path d="M11528.3,2630.12l0,-135.313l2523.88,-269.095l0,135.312l-2523.88,269.096" style="fill-rule:nonzero;"/></g><g><path d="M15297.9,2362.22l0,-135.363l2534.18,-269.095l-0,135.362l-2534.18,269.096" style="fill-rule:nonzero;"/></g><g><path d="M15297.9,2159.2l0,-135.313l2534.18,-269.095l-0,135.312l-2534.18,269.096" style="fill-rule:nonzero;"/></g><g><path d="M18665.2,2091.28l-0,-134.6l2523.87,-67.275l-0,134.6l-2523.87,67.275" style="fill-rule:nonzero;"/></g><g><path d="M18665.2,1889.41l-0,-134.616l2523.87,-67.275l-0,134.616l-2523.87,67.275" style="fill-rule:nonzero;"/></g><g><path d="M21987.3,2024.01l0,-134.605l2523.87,67.275l-0,134.6l-2523.87,-67.275" style="fill-rule:nonzero;"/></g><g><path d="M21987.3,1822.14l0,-134.621l2523.87,67.275l-0,134.616l-2523.87,-67.275" style="fill-rule:nonzero;"/></g><g><path d="M25309.2,2093.12l0,-135.362l2534.18,269.095l0,135.363l-2534.18,-269.096" style="fill-rule:nonzero;"/></g><g><path d="M25309.2,1890.1l0,-135.312l2534.18,269.095l0,135.313l-2534.18,-269.096" style="fill-rule:nonzero;"/></g><g><path d="M39.038,5253.04l14838.9,-0" style="fill:none;stroke:#000;stroke-width:34.92px;"/><path d="M39.038,5522.17l14838.9,-0" style="fill:none;stroke:#000;stroke-width:34.92px;"/><path d="M39.038,6329.46l14838.9,0" style="fill:none;stroke:#000;stroke-width:34.92px;"/><path d="M39.038,5791.25l14838.9,0" style="fill:none;stroke:#000;stroke-width:34.92px;"/><path d="M39.038,6060.33l14838.9,0" style="fill:none;stroke:#000;stroke-width:34.92px;"/></g><g><path d="M12105,5235.58l0,1111.34" style="fill:none;stroke:#000;stroke-width:43.04px;"/><path d="M14705.9,5235.58l0,1111.34" style="fill:none;stroke:#000;stroke-width:43.04px;"/><path d="M14856.2,5235.58l0,1111.34" style="fill:none;stroke:#000;stroke-width:43.04px;"/></g><g><path d="M1522.87,5298.25l0,967.517" style="fill:none;stroke:#000;stroke-width:32.29px;"/><path d="M2061.07,5432.79l0,911.962" style="fill:none;stroke:#000;stroke-width:32.29px;"/><path d="M2599.8,5567.33l-0,856.338" style="fill:none;stroke:#000;stroke-width:32.29px;"/><path d="M3357.73,5701.88l-0,832.971" style="fill:none;stroke:#000;stroke-width:32.29px;"/><path d="M4315.86,4983.21l-0,762.846" style="fill:none;stroke:#000;stroke-width:32.29px;"/><path d="M5049.9,5032.42l0,713.646" style="fill:none;stroke:#000;stroke-width:32.29px;"/><path d="M5783.4,5081.62l0,798.992" style="fill:none;stroke:#000;stroke-width:32.29px;"/><path d="M6321.61,5117.75l-0,897.396" style="fill:none;stroke:#000;stroke-width:32.29px;"/><path d="M6859.77,5247.46l0,902.238" style="fill:none;stroke:#000;stroke-width:32.29px;"/><path d="M7398.52,5346.12l0,938.142" style="fill:none;stroke:#000;stroke-width:32.29px;"/><path d="M7936.73,5444.79l-0,974.012" style="fill:none;stroke:#000;stroke-width:32.29px;"/><path d="M8695.19,5583.83l0,969.513" style="fill:none;stroke:#000;stroke-width:32.29px;"/></g><g><path d="M8346.31,6598.54l472.55,-0" style="fill:none;stroke:#000;stroke-width:43.04px;"/></g><g><path d="M9473.15,5791.08l0,896.804" style="fill:none;stroke:#000;stroke-width:32.29px;"/></g><g><path d="M9129.23,6598.54l468.212,-0" style="fill:none;stroke:#000;stroke-width:43.04px;"/></g><g><path d="M10314.1,5815.88l-0,872.012" style="fill:none;stroke:#000;stroke-width:32.29px;"/></g><g><path d="M9970.15,6598.54l467.675,-0" style="fill:none;stroke:#000;stroke-width:43.04px;"/></g><g><path d="M11155,5840.62l0,981.825" style="fill:none;stroke:#000;stroke-width:32.29px;"/></g><g><path d="M10806.2,6867.62l472.538,0" style="fill:none;stroke:#000;stroke-width:43.04px;"/><path d="M10743.8,6598.54l534.933,-0" style="fill:none;stroke:#000;stroke-width:43.04px;"/></g><g><path d="M11758.3,5858.38l0,1098.63" style="fill:none;stroke:#000;stroke-width:32.29px;"/></g><g><path d="M11346.6,6867.62l535.467,0" style="fill:none;stroke:#000;stroke-width:43.04px;"/><path d="M11346.6,6598.54l535.467,-0" style="fill:none;stroke:#000;stroke-width:43.04px;"/><path d="M12423.5,6867.62l672.746,0" style="fill:none;stroke:#000;stroke-width:43.04px;"/><path d="M12423.5,6598.54l672.746,-0" style="fill:none;stroke:#000;stroke-width:43.04px;"/></g><g><path d="M1724.58,4886.08l-0,-116.108c-0,-5.417 -1.096,-9.758 -6.513,-9.758c-4.337,-0 -7.604,1.075 -10.85,5.416l-32.55,62.934c-2.171,2.17 -5.437,5.433 -5.437,13.02l-0,44.496l-70.521,0c44.479,-36.891 113.925,-159.512 115.021,-166.025c-0,-1.075 1.075,-2.166 1.075,-3.246c-0,-4.337 -4.342,-7.604 -7.588,-7.604c-5.433,0 -28.212,2.171 -37.987,2.171c-9.755,0 -16.267,-2.171 -20.605,-2.171c-5.437,0 -13.02,2.171 -13.02,10.85c-0,69.446 -56.425,148.667 -70.542,168.196c-2.167,2.171 -4.338,5.417 -4.338,8.679c0,5.417 4.338,10.854 10.85,10.854l97.655,0l-0,33.625c-0,15.192 -8.68,19.534 -17.359,19.534c-9.758,-0 -14.1,4.341 -14.1,9.775c0,5.416 2.171,11.925 11.929,11.925l93.317,-0c5.433,-0 10.85,-4.338 10.85,-11.925c0,-7.604 -6.512,-10.85 -11.929,-10.85c-5.433,-0 -17.358,-3.267 -17.358,-20.625l-0,-31.458l40.137,-0.001c5.433,0.001 8.679,-4.341 8.679,-10.854c0,-6.508 -2.166,-10.85 -8.679,-10.85l-40.137,0" style="fill-rule:nonzero;"/></g><g><path d="M2193.93,4710.54c-59.671,-0 -85.713,40.158 -85.713,62.933c0,15.192 8.68,33.646 35.796,34.721c20.625,-0 30.384,-13.021 30.384,-27.117l-0,-4.341c-1.075,-16.284 -11.925,-17.359 -14.096,-18.455c-2.171,-1.075 -6.513,-5.416 -6.513,-13.02c2.171,-11.925 18.438,-16.267 22.779,-16.267c55.346,-0 71.613,29.287 71.613,47.742c-0,50.991 -52.083,55.333 -68.35,56.425c-7.604,-0 -15.192,3.245 -15.192,9.758c0,6.508 9.759,6.508 14.1,6.508c62.934,0 71.613,32.554 71.613,48.838c-0,62.933 -50.988,65.104 -64.009,65.104c-6.512,-0 -17.362,-3.263 -18.454,-8.679l0,-6.513c0,-11.941 3.263,-24.962 4.338,-35.812c-0,-19.534 -13.021,-31.459 -32.55,-31.459l-4.342,0c-7.587,2.167 -15.192,6.509 -20.608,11.925c-7.604,6.513 -9.775,16.284 -9.775,26.042c1.096,34.721 31.479,64.029 85.729,65.104l6.512,0c53.159,0 108.509,-28.212 108.509,-75.954c-0,-10.85 -2.171,-19.533 -5.438,-26.042c-2.166,-6.512 -6.508,-11.929 -10.85,-16.266c-3.246,-4.342 -7.587,-7.605 -11.925,-10.85l-11.946,-6.513l-6.508,-2.171c-2.171,0 -3.25,-1.091 -5.417,-1.091l-6.512,-2.171c-3.263,-1.075 -4.342,-0 -5.433,-2.171c-1.075,-1.075 -1.075,-2.171 -1.075,-3.246c-0,-2.171 1.075,-4.341 3.245,-4.341l17.359,-5.434c7.604,-4.341 15.191,-7.587 20.625,-15.191c8.683,-8.68 11.929,-22.775 11.929,-34.721c-0,-50.992 -67.275,-65.104 -91.146,-67.275l-8.679,-0" style="fill-rule:nonzero;"/></g><g><path d="M2681.2,4835.33c-0,0 -1.075,4.342 -1.075,7.588c-0,4.341 4.341,8.679 8.679,8.679c3.25,0 5.417,-3.246 6.512,-4.342c1.075,-3.245 14.096,-47.741 20.609,-58.591c2.171,-4.342 4.337,-5.417 5.433,-5.417c2.171,0 3.246,4.342 3.246,7.588l-0,155.17c-0,13.021 -10.85,20.609 -21.7,20.609c-4.342,-0 -9.758,2.171 -9.758,8.683c-0,6.508 5.416,8.679 14.095,8.679l91.146,0c8.684,0 8.684,-8.679 8.684,-8.679c-0,0 -0,-8.683 -8.684,-8.683c-7.583,-0 -17.358,-9.754 -17.358,-19.529l-0,-225.696c-0,-8.679 -3.246,-13.021 -10.85,-13.021c-7.588,-0 -14.1,2.171 -20.608,2.171c-10.85,-0 -13.021,-0 -21.705,-2.171c-4.337,-0 -9.77,6.512 -13.02,10.85l-33.646,116.112" style="fill-rule:nonzero;"/></g><g><path d="M3439.43,4835.33c-0,0 -1.092,4.342 -1.092,7.588c0,4.341 4.342,8.679 8.679,8.679c3.267,0 5.434,-3.246 6.513,-4.342c1.092,-3.245 14.112,-47.741 20.625,-58.591c2.171,-4.342 4.337,-5.417 5.417,-5.417c2.17,0 3.262,4.342 3.262,7.588l0,155.17c0,13.021 -10.85,20.609 -21.7,20.609c-4.342,-0 -9.775,2.171 -9.775,8.683c0,6.508 5.433,8.679 14.113,8.679l91.145,0c8.684,0 8.684,-8.679 8.684,-8.679c-0,0 -0,-8.683 -8.684,-8.683c-7.604,-0 -17.358,-9.754 -17.358,-19.529l0,-225.696c0,-8.679 -3.267,-13.021 -10.85,-13.021c-7.604,-0 -14.117,2.171 -20.625,2.171c-10.854,-0 -13.021,-0 -21.704,-2.171c-4.338,-0 -9.754,6.512 -13.021,10.85l-33.629,116.112" style="fill-rule:nonzero;"/></g><g><path d="M4229.81,4684.58l0,-116.112c0,-5.417 -1.096,-9.754 -6.512,-9.754c-4.338,-0 -7.605,1.075 -10.85,5.416l-32.55,62.934c-2.171,2.17 -5.434,5.433 -5.434,13.02l0,44.496l-70.521,0c44.48,-36.891 113.921,-159.512 115.017,-166.025c0,-1.075 1.075,-2.171 1.075,-3.246c0,-4.341 -4.342,-7.604 -7.587,-7.604c-5.434,0 -28.213,2.171 -37.984,2.171c-9.758,0 -16.271,-2.171 -20.608,-2.171c-5.433,0 -13.021,2.171 -13.021,10.85c0,69.446 -56.425,148.663 -70.537,168.196c-2.171,2.171 -4.342,5.417 -4.342,8.679c-0,5.417 4.342,10.85 10.85,10.85l97.658,0l0,33.629c0,15.192 -8.683,19.534 -17.362,19.534c-9.759,-0 -14.096,4.337 -14.096,9.771c-0,5.416 2.167,11.929 11.925,11.929l93.317,-0c5.433,-0 10.85,-4.342 10.85,-11.929c-0,-7.605 -6.509,-10.85 -11.925,-10.85c-5.438,-0 -17.363,-3.263 -17.363,-20.625l0,-31.459l40.138,0c5.433,0 8.683,-4.337 8.683,-10.85c-0,-6.508 -2.171,-10.85 -8.683,-10.85l-40.138,0" style="fill-rule:nonzero;"/></g><g><path d="M4894.61,4539.12c-59.671,0 -85.713,40.154 -85.713,62.933c0,15.192 8.684,33.646 35.8,34.721c20.625,0 30.384,-13.021 30.384,-27.116l-0,-4.342c-1.08,-16.283 -11.93,-17.363 -14.1,-18.454c-2.171,-1.079 -6.509,-5.417 -6.509,-13.021c2.171,-11.929 18.438,-16.267 22.775,-16.267c55.35,0 71.617,29.288 71.617,47.742c-0,50.987 -52.083,55.329 -68.35,56.425c-7.604,-0 -15.192,3.246 -15.192,9.754c0,6.512 9.759,6.512 14.096,6.512c62.933,0 71.617,32.55 71.617,48.838c-0,62.933 -50.992,65.104 -64.013,65.104c-6.508,0 -17.358,-3.267 -18.454,-8.683l0,-6.508c0,-11.946 3.263,-24.967 4.342,-35.817c-0,-19.534 -13.021,-31.459 -32.554,-31.459l-4.338,0c-7.587,2.171 -15.192,6.509 -20.608,11.926c-7.604,6.512 -9.775,16.287 -9.775,26.041c1.091,34.725 31.475,64.029 85.729,65.104l6.508,0c53.163,0 108.509,-28.208 108.509,-75.954c-0,-10.85 -2.171,-19.529 -5.434,-26.042c-2.171,-6.508 -6.512,-11.925 -10.85,-16.266c-3.246,-4.342 -7.587,-7.604 -11.929,-10.85l-11.942,-6.513l-6.512,-2.166c-2.171,-0 -3.246,-1.096 -5.417,-1.096l-6.508,-2.171c-3.267,-1.075 -4.342,-0 -5.438,-2.171c-1.075,-1.075 -1.075,-2.167 -1.075,-3.246c0,-2.171 1.075,-4.337 3.246,-4.337l17.363,-5.438c7.604,-4.337 15.191,-7.583 20.625,-15.187c8.679,-8.684 11.925,-22.779 11.925,-34.725c-0,-50.988 -67.271,-65.104 -91.146,-67.275l-8.679,-0" style="fill-rule:nonzero;"/></g><g><path d="M5577.36,4714.75c-0,0 -1.075,4.337 -1.075,7.604c-0,4.338 4.341,8.679 8.679,8.679c3.246,0 5.417,-3.262 6.512,-4.341c1.075,-3.263 14.096,-47.742 20.609,-58.592c2.166,-4.342 4.337,-5.433 5.433,-5.433c2.171,-0 3.246,4.337 3.246,7.604l-0,155.154c-0,13.021 -10.85,20.625 -21.7,20.625c-4.342,0 -9.758,2.171 -9.758,8.679c-0,6.513 5.416,8.684 14.095,8.684l91.146,-0c8.684,-0 8.684,-8.684 8.684,-8.684c-0,0 -0,-8.679 -8.684,-8.679c-7.587,0 -17.358,-9.775 -17.358,-19.529l-0,-225.696c-0,-8.679 -3.25,-13.021 -10.854,-13.021c-7.584,0 -14.096,2.171 -20.604,2.171c-10.855,0 -13.021,0 -21.705,-2.171c-4.337,0 -9.775,6.509 -13.02,10.85l-33.646,116.096" style="fill-rule:nonzero;"/></g><g><path d="M6115.56,4750.29c0,-0 -1.075,4.341 -1.075,7.587c0,4.338 4.342,8.679 8.679,8.679c3.25,0 5.417,-3.246 6.513,-4.341c1.075,-3.246 14.096,-47.742 20.608,-58.592c2.171,-4.342 4.338,-5.417 5.433,-5.417c2.171,0 3.246,4.342 3.246,7.588l0,155.171c0,13.02 -10.85,20.608 -21.7,20.608c-4.341,-0 -9.758,2.171 -9.758,8.683c-0,6.509 5.417,8.68 14.096,8.68l91.146,-0.001c8.683,0.001 8.683,-8.679 8.683,-8.679c-0,0 -0,-8.683 -8.683,-8.683c-7.584,-0 -17.359,-9.754 -17.359,-19.529l0,-225.696c0,-8.679 -3.246,-13.021 -10.85,-13.021c-7.587,0 -14.1,2.171 -20.608,2.171c-10.85,0 -13.021,0 -21.704,-2.171c-4.338,0 -9.771,6.513 -13.021,10.85l-33.646,116.113" style="fill-rule:nonzero;"/></g><g><path d="M6773.86,4886.29l-0,-116.096c-0,-5.434 -1.096,-9.775 -6.513,-9.775c-4.337,-0 -7.604,1.096 -10.85,5.433l-32.55,62.938c-2.171,2.166 -5.437,5.416 -5.437,13.021l-0,44.479l-70.521,-0c44.479,-36.896 113.925,-159.5 115.021,-166.009c-0,-1.096 1.075,-2.171 1.075,-3.262c-0,-4.342 -4.342,-7.588 -7.588,-7.588c-5.433,0 -28.212,2.171 -37.987,2.171c-9.754,0 -16.267,-2.171 -20.604,-2.171c-5.438,0 -13.021,2.171 -13.021,10.85c-0,69.446 -56.425,148.646 -70.542,168.175c-2.167,2.171 -4.337,5.434 -4.337,8.684c-0,5.433 4.337,10.85 10.85,10.85l97.654,-0l-0,33.645c-0,15.192 -8.679,19.53 -17.359,19.53c-9.758,-0 -14.1,4.341 -14.1,9.758c0,5.433 2.171,11.946 11.93,11.946l93.316,-0c5.434,-0 10.85,-4.342 10.85,-11.946c0,-7.587 -6.512,-10.85 -11.929,-10.85c-5.433,0 -17.358,-3.246 -17.358,-20.608l-0,-31.475l40.137,-0c5.434,-0 8.679,-4.342 8.679,-10.85c0,-6.513 -2.166,-10.854 -8.679,-10.854l-40.137,-0" style="fill-rule:nonzero;"/></g><g><path d="M7243.19,4710.54c-59.667,-0 -85.708,40.158 -85.708,62.933c-0,15.192 8.679,33.646 35.796,34.721c20.625,-0 30.383,-13.021 30.383,-27.117l-0,-4.341c-1.075,-16.284 -11.929,-17.359 -14.096,-18.455c-2.171,-1.075 -6.512,-5.416 -6.512,-13.02c2.17,-11.925 18.437,-16.267 22.779,-16.267c55.346,-0 71.612,29.287 71.612,47.742c0,50.991 -52.083,55.333 -68.35,56.425c-7.604,-0 -15.191,3.245 -15.191,9.758c-0,6.508 9.758,6.508 14.1,6.508c62.933,0 71.612,32.554 71.612,48.838c0,62.933 -50.987,65.104 -64.008,65.104c-6.513,-0 -17.363,-3.263 -18.459,-8.679l0,-6.513c0,-11.941 3.267,-24.962 4.342,-35.812c0,-19.534 -13.021,-31.459 -32.55,-31.459l-4.342,0c-7.587,2.167 -15.191,6.509 -20.608,11.925c-7.604,6.513 -9.775,16.284 -9.775,26.042c1.096,34.721 31.475,64.029 85.729,65.104l6.513,0c53.158,0 108.504,-28.212 108.504,-75.954c-0,-10.85 -2.167,-19.533 -5.433,-26.042c-2.171,-6.512 -6.509,-11.929 -10.85,-16.266c-3.246,-4.342 -7.588,-7.605 -11.925,-10.85l-11.946,-6.513l-6.513,-2.171c-2.166,0 -3.246,-1.091 -5.416,-1.091l-6.509,-2.171c-3.262,-1.075 -4.341,-0 -5.433,-2.171c-1.079,-1.075 -1.079,-2.171 -1.079,-3.246c-0,-2.171 1.079,-4.341 3.25,-4.341l17.358,-5.434c7.604,-4.341 15.192,-7.587 20.625,-15.191c8.683,-8.68 11.929,-22.775 11.929,-34.721c0,-50.992 -67.275,-65.104 -91.146,-67.275l-8.683,-0" style="fill-rule:nonzero;"/></g><g><path d="M7730.48,4835.33c-0,0 -1.079,4.342 -1.079,7.588c-0,4.341 4.341,8.679 8.683,8.679c3.246,0 5.417,-3.246 6.508,-4.342c1.075,-3.245 14.096,-47.741 20.609,-58.591c2.17,-4.342 4.341,-5.417 5.433,-5.417c2.171,0 3.246,4.342 3.246,7.588l-0,155.17c-0,13.021 -10.85,20.609 -21.7,20.609c-4.342,-0 -9.759,2.171 -9.759,8.683c0,6.508 5.417,8.679 14.1,8.679l91.146,0c8.679,0 8.679,-8.679 8.679,-8.679c0,0 0,-8.683 -8.679,-8.683c-7.587,-0 -17.362,-9.754 -17.362,-19.529l-0,-225.696c-0,-8.679 -3.246,-13.021 -10.85,-13.021c-7.588,-0 -14.1,2.171 -20.609,2.171c-10.85,-0 -13.02,-0 -21.7,-2.171c-4.341,-0 -9.775,6.512 -13.02,10.85l-33.646,116.112" style="fill-rule:nonzero;"/></g><g><path d="M8489.23,4835.33c-0,0 -1.075,4.342 -1.075,7.588c-0,4.341 4.341,8.679 8.679,8.679c3.25,0 5.417,-3.246 6.512,-4.342c1.075,-3.245 14.096,-47.741 20.609,-58.591c2.171,-4.342 4.337,-5.417 5.433,-5.417c2.171,0 3.246,4.342 3.246,7.588l-0,155.17c-0,13.021 -10.85,20.609 -21.7,20.609c-4.342,-0 -9.758,2.171 -9.758,8.683c-0,6.508 5.416,8.679 14.095,8.679l91.146,0c8.684,0 8.684,-8.679 8.684,-8.679c-0,0 -0,-8.683 -8.684,-8.683c-7.583,-0 -17.358,-9.754 -17.358,-19.529l-0,-225.696c-0,-8.679 -3.246,-13.021 -10.85,-13.021c-7.588,-0 -14.1,2.171 -20.608,2.171c-10.85,-0 -13.021,-0 -21.705,-2.171c-4.337,-0 -9.77,6.512 -13.02,10.85l-33.646,116.112" style="fill-rule:nonzero;"/></g><g><path d="M9387.27,4886.29l0,-116.096c0,-5.434 -1.079,-9.775 -6.512,-9.775c-4.338,-0 -7.588,1.096 -10.85,5.433l-32.55,62.938c-2.171,2.166 -5.417,5.416 -5.417,13.021l0,44.479l-70.541,-0c44.5,-36.896 113.941,-159.5 115.02,-166.009c0,-1.096 1.092,-2.171 1.092,-3.262c0,-4.342 -4.342,-7.588 -7.604,-7.588c-5.417,0 -28.213,2.171 -37.967,2.171c-9.775,0 -16.287,-2.171 -20.625,-2.171c-5.416,0 -13.021,2.171 -13.021,10.85c0,69.446 -56.425,148.646 -70.52,168.175c-2.171,2.171 -4.342,5.434 -4.342,8.684c-0,5.433 4.342,10.85 10.85,10.85l97.658,-0l0,33.645c0,15.192 -8.683,19.53 -17.362,19.53c-9.775,-0 -14.117,4.341 -14.117,9.758c0,5.433 2.171,11.946 11.946,11.946l93.317,-0c5.416,-0 10.85,-4.342 10.85,-11.946c-0,-7.587 -6.509,-10.85 -11.946,-10.85c-5.417,0 -17.359,-3.246 -17.359,-20.608l0,-31.475l40.155,-0c5.416,-0 8.683,-4.342 8.683,-10.85c-0,-6.513 -2.171,-10.854 -8.683,-10.854l-40.155,-0" style="fill-rule:nonzero;"/></g><g><path d="M10159.1,4710.54c-59.687,-0 -85.729,40.158 -85.729,62.933c0,15.192 8.679,33.646 35.817,34.721c20.604,-0 30.379,-13.021 30.379,-27.117l0,-4.341c-1.092,-16.284 -11.942,-17.359 -14.112,-18.455c-2.171,-1.075 -6.513,-5.416 -6.513,-13.02c2.171,-11.925 18.454,-16.267 22.796,-16.267c55.329,-0 71.617,29.287 71.617,47.742c-0,50.991 -52.084,55.333 -68.371,56.425c-7.588,-0 -15.192,3.245 -15.192,9.758c0,6.508 9.775,6.508 14.117,6.508c62.933,0 71.612,32.554 71.612,48.838c0,62.933 -51.004,65.104 -64.025,65.104c-6.512,-0 -17.362,-3.263 -18.437,-8.679l-0,-6.513c-0,-11.941 3.246,-24.962 4.337,-35.812c0,-19.534 -13.021,-31.459 -32.55,-31.459l-4.341,0c-7.605,2.167 -15.192,6.509 -20.625,11.925c-7.588,6.513 -9.755,16.284 -9.755,26.042c1.075,34.721 31.459,64.029 85.709,65.104l6.512,0c53.175,0 108.509,-28.212 108.509,-75.954c-0,-10.85 -2.171,-19.533 -5.417,-26.042c-2.171,-6.512 -6.513,-11.929 -10.854,-16.266c-3.263,-4.342 -7.604,-7.605 -11.942,-10.85l-11.929,-6.513l-6.508,-2.171c-2.171,0 -3.267,-1.091 -5.434,-1.091l-6.512,-2.171c-3.246,-1.075 -4.342,-0 -5.417,-2.171c-1.092,-1.075 -1.092,-2.171 -1.092,-3.246c0,-2.171 1.092,-4.341 3.263,-4.341l17.362,-5.434c7.584,-4.341 15.188,-7.587 20.605,-15.191c8.683,-8.68 11.945,-22.775 11.945,-34.721c0,-50.992 -67.275,-65.104 -91.145,-67.275l-8.68,-0" style="fill-rule:nonzero;"/></g><g><path d="M10949,4835.33c-0,0 -1.075,4.342 -1.075,7.588c-0,4.341 4.337,8.679 8.679,8.679c3.246,0 5.417,-3.246 6.508,-4.342c1.079,-3.245 14.1,-47.741 20.609,-58.591c2.17,-4.342 4.341,-5.417 5.433,-5.417c2.171,0 3.25,4.342 3.25,7.588l-0,155.17c-0,13.021 -10.854,20.609 -21.704,20.609c-4.338,-0 -9.754,2.171 -9.754,8.683c-0,6.508 5.416,8.679 14.095,8.679l91.146,0c8.679,0 8.679,-8.679 8.679,-8.679c0,0 0,-8.683 -8.679,-8.683c-7.587,-0 -17.362,-9.754 -17.362,-19.529l-0,-225.696c-0,-8.679 -3.246,-13.021 -10.85,-13.021c-7.588,-0 -14.096,2.171 -20.609,2.171c-10.85,-0 -13.02,-0 -21.7,-2.171c-4.341,-0 -9.775,6.512 -13.02,10.85l-33.646,116.112" style="fill-rule:nonzero;"/></g><g><path d="M11552.1,4835.33c0,0 -1.096,4.342 -1.096,7.588c0,4.341 4.342,8.679 8.679,8.679c3.267,0 5.438,-3.246 6.513,-4.342c1.092,-3.245 14.112,-47.741 20.625,-58.591c2.171,-4.342 4.342,-5.417 5.417,-5.417c2.17,0 3.262,4.342 3.262,7.588l0,155.17c0,13.021 -10.85,20.609 -21.7,20.609c-4.342,-0 -9.775,2.171 -9.775,8.683c0,6.508 5.433,8.679 14.117,8.679l91.146,0c8.679,0 8.679,-8.679 8.679,-8.679c-0,0 -0,-8.683 -8.679,-8.683c-7.605,-0 -17.363,-9.754 -17.363,-19.529l0,-225.696c0,-8.679 -3.262,-13.021 -10.85,-13.021c-7.604,-0 -14.117,2.171 -20.625,2.171c-10.85,-0 -13.021,-0 -21.704,-2.171c-4.338,-0 -9.754,6.512 -13.021,10.85l-33.625,116.112" style="fill-rule:nonzero;"/></g><g><path d="M12697.6,4835.33c0,0 -1.075,4.342 -1.075,7.588c0,4.341 4.342,8.679 8.68,8.679c3.25,0 5.416,-3.246 6.512,-4.342c1.075,-3.245 14.096,-47.741 20.608,-58.591c2.171,-4.342 4.338,-5.417 5.434,-5.417c2.171,0 3.246,4.342 3.246,7.588l-0,155.17c-0,13.021 -10.85,20.609 -21.7,20.609c-4.342,-0 -9.759,2.171 -9.759,8.683c0,6.508 5.417,8.679 14.096,8.679l91.146,0c8.683,0 8.683,-8.679 8.683,-8.679c0,0 0,-8.683 -8.683,-8.683c-7.583,-0 -17.358,-9.754 -17.358,-19.529l-0,-225.696c-0,-8.679 -3.246,-13.021 -10.85,-13.021c-7.588,-0 -14.1,2.171 -20.609,2.171c-10.85,-0 -13.021,-0 -21.704,-2.171c-4.337,-0 -9.771,6.512 -13.021,10.85l-33.646,116.112" style="fill-rule:nonzero;"/></g><g><path d="M1612.08,5388.71c96.562,0 214.841,-88.975 214.841,-181.216c0,-55.329 -43.4,-90.05 -105.258,-90.05c-119.358,-0 -214.846,87.879 -214.846,181.196c0,56.425 46.667,90.07 105.263,90.07" style="fill-rule:nonzero;"/></g><g><path d="M2150.36,5523.25c96.579,0 214.846,-88.975 214.846,-181.212c-0,-55.334 -43.405,-90.055 -105.246,-90.055c-119.354,0 -214.842,87.884 -214.842,181.2c0,56.421 46.65,90.067 105.242,90.067" style="fill-rule:nonzero;"/></g><g><path d="M2688.66,5657.83c96.579,0 214.841,-88.975 214.841,-181.216c0,-55.329 -43.4,-90.05 -105.241,-90.05c-119.359,-0 -214.842,87.883 -214.842,181.196c0,56.425 46.646,90.07 105.242,90.07" style="fill-rule:nonzero;"/></g><g><path d="M3186.62,5705.54c-6.508,21.704 -57.5,43.404 -82.462,43.404c-6.513,-0 -11.929,-2.171 -13.021,-5.434c-2.171,-4.341 -3.246,-28.212 -3.246,-54.254c0,-33.629 1.075,-71.612 3.246,-80.296c2.171,-18.437 52.083,-41.233 79.217,-41.233c7.587,0 14.1,2.171 16.266,6.513c2.171,5.433 4.342,32.55 4.342,61.858c0,29.288 -2.171,59.671 -4.342,69.442m74.88,-176.875c7.587,-3.246 13.02,-11.925 13.02,-18.438l0,-77.046c0,-5.416 -3.262,-8.683 -7.604,-8.683c-2.171,0 -3.246,0 -5.416,1.096c-0,-0 -21.7,8.679 -27.134,9.758c-7.587,0 -15.191,-5.421 -15.191,-14.1l-0,-132.379c-0,-6.508 -6.513,-11.942 -15.192,-11.942c-10.85,0 -17.363,5.434 -17.363,11.942l0,141.058c-1.075,10.855 -4.337,24.95 -14.095,31.463c-13.021,7.6 -49.913,22.792 -68.367,27.133c-9.758,0 -13.021,-13.021 -13.021,-21.7l0,-130.208c0,-6.513 -7.587,-11.946 -15.192,-11.946c-10.85,0 -17.362,5.433 -17.362,11.946l-0,146.475c-0,15.191 -6.508,26.042 -13.021,29.304c-6.508,3.246 -28.212,11.929 -28.212,11.929c-7.584,2.171 -13.021,10.85 -13.021,17.358l-0,77.05c-0,6.513 3.266,9.759 8.683,9.759c4.338,-0 24.963,-9.759 28.213,-11.929c1.091,-0 2.166,-1.092 3.262,-1.092c7.588,-0 14.096,10.85 14.096,19.529l-0,107.433c-0,11.925 -5.417,21.7 -11.925,24.946c-6.513,2.171 -29.308,11.946 -29.308,11.946c-7.584,2.171 -13.021,10.85 -13.021,17.358l-0,77.034c-0,6.508 3.266,9.775 8.683,9.775c1.092,-0 3.263,-1.096 4.338,-1.096c-0,-0 15.191,-6.508 24.966,-9.754c1.075,-1.096 2.171,-1.096 3.246,-1.096c7.604,-0 13.021,11.946 13.021,17.362l-0,133.471c-0,6.513 6.512,11.929 14.117,11.929c10.85,0 18.437,-5.42 18.437,-11.929l0,-150.833c0,-14.096 5.433,-21.7 10.85,-23.871l66.196,-27.117c1.079,0 3.25,-1.095 4.342,-1.095c8.679,-0 14.095,13.02 14.095,19.533l0,135.642c0,6.508 6.513,11.925 14.117,11.925c11.925,-0 18.438,-5.417 18.438,-11.925l-0,-154.084c-0,-8.679 4.341,-21.7 11.945,-24.962c7.584,-3.246 30.38,-11.929 30.38,-11.929c7.587,-3.263 13.02,-11.942 13.02,-18.455l0,-77.029c0,-5.433 -3.262,-8.683 -7.604,-8.683c-2.171,-0 -3.246,-0 -5.416,1.079l-28.213,10.85c-6.508,0 -14.112,-6.512 -14.112,-19.533l-0,-100.9c-0,-7.604 5.433,-28.213 14.112,-31.475l28.213,-10.854" style="fill-rule:nonzero;"/></g><g><path d="M3446.87,5792.38c96.563,0 214.842,-88.975 214.842,-181.217c-0,-55.329 -43.4,-90.05 -105.258,-90.05c-119.359,0 -214.846,87.88 -214.846,181.196c-0,56.425 46.666,90.071 105.262,90.071" style="fill-rule:nonzero;"/></g><g><path d="M3802.65,5748.96c0,-15.191 66.2,-43.404 92.242,-43.404c6.508,0 9.754,1.079 9.754,5.417l0,111.771c0,19.533 -61.837,44.479 -88.975,44.479c-7.587,-0 -13.021,-2.167 -13.021,-6.508l0,-111.755m112.85,-154.079c-2.17,0 -3.25,1.075 -4.341,1.075c-0,0 -69.446,24.967 -97.659,24.967c-6.508,-0 -10.85,-1.096 -10.85,-5.433l0,-181.2c0,-7.605 -6.508,-13.021 -13.02,-13.021l-14.096,-0c-7.604,-0 -13.021,5.416 -13.021,13.02l-0,558.805c-0,6.508 3.246,9.77 8.679,9.77c1.079,0 6.513,-1.091 7.588,-2.166c15.191,-6.513 75.954,-32.554 107.429,-32.554c10.854,-0 18.437,3.245 18.437,11.929l0,161.683c0,7.588 5.438,13.021 13.021,13.021l14.117,0c6.508,0 13.021,-5.433 13.021,-13.021l-0,-544.704c-0,-5.433 -4.342,-8.683 -8.68,-8.683c-1.095,-0 -3.266,-0 -4.341,1.079l-16.284,5.433" style="fill-rule:nonzero;"/></g><g><path d="M4117.32,5926.92c96.579,-0 214.846,-88.975 214.846,-181.213c0,-55.333 -43.404,-90.054 -105.246,-90.054c-119.358,0 -214.841,87.883 -214.841,181.2c-0,56.421 46.65,90.067 105.241,90.067" style="fill-rule:nonzero;"/></g><g><path d="M4484.52,5879.17c0,-0 -3.245,-65.105 -3.245,-108.509c-0,-17.358 1.075,-30.379 2.17,-34.721c7.588,-21.699 50.988,-53.174 75.955,-53.174c31.458,-0 44.479,35.812 44.479,62.933c-0,58.592 -49.913,117.187 -96.563,146.492c-4.341,2.17 -7.604,3.245 -10.85,3.245c-9.775,0 -11.946,-10.85 -11.946,-16.266m-37.966,96.562c3.246,4.342 6.508,5.434 9.754,5.434c3.267,-0.001 6.512,-2.171 6.512,-2.171c32.55,-18.454 58.592,-47.742 85.73,-66.196c96.562,-67.275 130.208,-133.454 130.208,-183.371c-0,-61.854 -47.746,-100.917 -97.658,-104.167c-18.455,0 -44.496,8.684 -59.688,18.442c-6.508,5.433 -18.437,15.188 -23.871,15.188c-2.171,-0 -3.246,-0 -5.416,-1.075c-7.605,-3.263 -11.946,-10.85 -11.946,-18.455c1.096,-23.87 7.604,-284.287 7.604,-305.991c-0,-11.925 -9.771,-18.438 -20.625,-18.438c-15.188,0 -32.55,10.854 -33.625,30.383c-0,0 4.337,619.567 13.021,630.417" style="fill-rule:nonzero;"/></g><g><path d="M4851.06,5926.92c96.563,-0 214.842,-88.975 214.842,-181.213c-0,-55.333 -43.4,-90.054 -105.259,-90.054c-119.358,0 -214.845,87.883 -214.845,181.2c-0,56.421 46.666,90.067 105.262,90.067" style="fill-rule:nonzero;"/></g><g><path d="M5218.23,6013.71c-0,0 -3.263,-65.104 -3.263,-108.508c0,-17.363 1.092,-30.383 2.167,-34.721c7.604,-21.704 51.008,-53.179 75.958,-53.179c31.475,-0 44.496,35.817 44.496,62.933c0,58.596 -49.912,117.188 -96.579,146.496c-4.342,2.167 -7.588,3.246 -10.854,3.246c-9.754,0 -11.925,-10.85 -11.925,-16.267m-37.988,96.563c3.267,4.337 6.513,5.433 9.775,5.433c3.246,0 6.513,-2.171 6.513,-2.171c32.55,-18.454 58.591,-47.741 85.708,-66.2c96.583,-67.27 130.208,-133.454 130.208,-183.366c0,-61.859 -47.741,-100.921 -97.654,-104.167c-18.437,0 -44.479,8.679 -59.671,18.438c-6.508,5.433 -18.454,15.191 -23.87,15.191c-2.171,0 -3.263,0 -5.434,-1.075c-7.587,-3.267 -11.929,-10.854 -11.929,-18.458c1.079,-23.871 7.588,-284.288 7.588,-305.988c-0,-11.929 -9.759,-18.437 -20.609,-18.437c-15.191,-0 -32.55,10.85 -33.646,30.383c0,0 4.342,619.563 13.021,630.417" style="fill-rule:nonzero;"/></g><g><path d="M5584.77,6061.46c96.58,0 214.842,-88.975 214.842,-181.216c0,-55.329 -43.404,-90.05 -105.242,-90.05c-119.358,-0 -214.845,87.883 -214.845,181.196c-0,56.425 46.65,90.07 105.245,90.07" style="fill-rule:nonzero;"/></g><g><path d="M6123.06,6196c96.563,0 214.846,-88.979 214.846,-181.217c-0,-55.329 -43.404,-90.054 -105.263,-90.054c-119.354,0 -214.841,87.883 -214.841,181.2c-0,56.425 46.666,90.071 105.258,90.071" style="fill-rule:nonzero;"/></g><g><path d="M6661.31,6330.54c96.563,-0 214.842,-88.975 214.842,-181.213c-0,-55.333 -43.404,-90.054 -105.259,-90.054c-119.358,-0 -214.845,87.883 -214.845,181.2c-0,56.421 46.666,90.067 105.262,90.067" style="fill-rule:nonzero;"/></g><g><path d="M7199.61,6465.08c96.562,0 214.846,-88.975 214.846,-181.216c-0,-55.329 -43.405,-90.05 -105.263,-90.05c-119.358,-0 -214.842,87.883 -214.842,181.195c0,56.426 46.667,90.071 105.259,90.071" style="fill-rule:nonzero;"/></g><g><path d="M7737.94,6599.67c96.579,-0 214.842,-88.979 214.842,-181.217c-0,-55.329 -43.4,-90.054 -105.242,-90.054c-119.358,-0 -214.842,87.883 -214.842,181.2c0,56.425 46.646,90.071 105.242,90.071" style="fill-rule:nonzero;"/></g><g><path d="M8236.48,6647.42c-6.513,21.7 -57.517,43.404 -82.467,43.404c-6.508,-0 -11.942,-2.171 -13.021,-5.434c-2.171,-4.341 -3.262,-28.212 -3.262,-54.254c-0,-33.629 1.091,-71.616 3.262,-80.296c2.171,-18.437 52.084,-41.233 79.204,-41.233c7.605,0 14.113,2.171 16.284,6.513c2.171,5.433 4.341,32.55 4.341,61.854c0,29.292 -2.17,59.671 -4.341,69.446m74.862,-176.875c7.604,-3.246 13.021,-11.925 13.021,-18.438l0,-77.05c0,-5.416 -3.25,-8.679 -7.587,-8.679c-2.171,0 -3.267,0 -5.434,1.096c0,-0 -21.704,8.679 -27.121,9.754c-7.604,0 -15.191,-5.417 -15.191,-14.096l-0,-132.379c-0,-6.508 -6.509,-11.946 -15.188,-11.946c-10.854,0 -17.362,5.438 -17.362,11.946l-0,141.058c-1.096,10.85 -4.342,24.95 -14.117,31.459c-13.021,7.604 -49.912,22.796 -68.35,27.137c-9.775,0 -13.021,-13.021 -13.021,-21.704l0,-130.208c0,-6.509 -7.604,-11.942 -15.191,-11.942c-10.85,-0 -17.359,5.433 -17.359,11.942l0,146.479c0,15.187 -6.512,26.041 -13.021,29.304c-6.512,3.246 -28.212,11.925 -28.212,11.925c-7.604,2.171 -13.021,10.854 -13.021,17.362l0,77.05c0,6.509 3.246,9.755 8.679,9.755c4.342,-0 24.95,-9.755 28.213,-11.925c1.075,-0 2.171,-1.096 3.246,-1.096c7.604,-0 14.116,10.854 14.116,19.533l0,107.429c0,11.929 -5.433,21.704 -11.946,24.95c-6.508,2.171 -29.287,11.942 -29.287,11.942c-7.604,2.171 -13.021,10.854 -13.021,17.362l0,77.034c0,6.508 3.246,9.771 8.679,9.771c1.079,-0 3.246,-1.092 4.342,-1.092c-0,-0 15.192,-6.513 24.946,-9.758c1.096,-1.092 2.171,-1.092 3.266,-1.092c7.588,-0 13.021,11.942 13.021,17.358l0,133.475c0,6.509 6.509,11.925 14.096,11.925c10.85,0 18.454,-5.416 18.454,-11.925l0,-150.833c0,-14.1 5.417,-21.704 10.85,-23.871l66.184,-27.121c1.091,0 3.262,-1.091 4.337,-1.091c8.683,-0 14.117,13.02 14.117,19.529l-0,135.641c-0,6.513 6.508,11.93 14.096,11.93c11.945,-0 18.454,-5.417 18.454,-11.93l-0,-154.079c-0,-8.679 4.341,-21.7 11.929,-24.962c7.604,-3.25 30.383,-11.929 30.383,-11.929c7.604,-3.263 13.021,-11.946 13.021,-18.455l0,-77.033c0,-5.433 -3.25,-8.679 -7.587,-8.679c-2.171,-0 -3.267,-0 -5.434,1.075l-28.212,10.854c-6.513,0 -14.1,-6.512 -14.1,-19.533l-0,-100.904c-0,-7.605 5.416,-28.209 14.1,-31.475l28.212,-10.85" style="fill-rule:nonzero;"/></g><g><path d="M8496.65,6734.21c96.58,0 214.842,-88.975 214.842,-181.212c0,-55.333 -43.4,-90.054 -105.242,-90.054c-119.358,-0 -214.845,87.883 -214.845,181.2c-0,56.421 46.65,90.066 105.245,90.066" style="fill-rule:nonzero;"/></g><g><path d="M8960.15,6690.79c0,-15.192 66.2,-43.404 92.242,-43.404c6.508,-0 9.754,1.075 9.754,5.416l0,111.771c0,19.529 -61.837,44.479 -88.975,44.479c-7.587,0 -13.021,-2.171 -13.021,-6.512l0,-111.75m112.85,-154.084c-2.17,0 -3.25,1.079 -4.341,1.079c-0,0.001 -69.446,24.963 -97.659,24.963c-6.508,0 -10.85,-1.092 -10.85,-5.433l0,-181.196c0,-7.604 -6.508,-13.021 -13.02,-13.021l-14.096,-0c-7.604,-0 -13.021,5.417 -13.021,13.021l-0,558.8c-0,6.512 3.246,9.775 8.679,9.775c1.079,-0 6.513,-1.092 7.588,-2.171c15.191,-6.508 75.954,-32.55 107.429,-32.55c10.854,0 18.437,3.246 18.437,11.925l0,161.683c0,7.588 5.438,13.021 13.021,13.021l14.117,0c6.508,0 13.021,-5.433 13.021,-13.021l-0,-544.704c-0,-5.433 -4.342,-8.679 -8.68,-8.679c-1.095,0 -3.266,0 -4.341,1.075l-16.284,5.433" style="fill-rule:nonzero;"/></g><g><path d="M9274.77,6868.75c96.58,0 214.842,-88.975 214.842,-181.217c0,-55.329 -43.404,-90.05 -105.242,-90.05c-119.358,0 -214.845,87.884 -214.845,181.196c-0,56.425 46.65,90.071 105.245,90.071" style="fill-rule:nonzero;"/></g><g><path d="M9749.06,6821c0,0 -3.267,-65.104 -3.267,-108.508c0,-17.363 1.096,-30.384 2.171,-34.721c7.604,-21.704 51.009,-53.179 75.954,-53.179c31.48,-0 44.5,35.816 44.5,62.933c0,58.596 -49.916,117.188 -96.583,146.496c-4.337,2.167 -7.583,3.246 -10.85,3.246c-9.754,-0 -11.925,-10.85 -11.925,-16.267m-37.987,96.563c3.262,4.337 6.512,5.433 9.775,5.433c3.245,-0 6.508,-2.171 6.508,-2.171c32.554,-18.454 58.596,-47.742 85.712,-66.2c96.58,-67.271 130.209,-133.454 130.209,-183.367c-0,-61.858 -47.742,-100.92 -97.654,-104.166c-18.438,-0 -44.48,8.679 -59.671,18.437c-6.513,5.434 -18.454,15.192 -23.871,15.192c-2.171,-0 -3.267,-0 -5.433,-1.075c-7.588,-3.267 -11.93,-10.854 -11.93,-18.458c1.075,-23.871 7.588,-284.288 7.588,-305.988c-0,-11.929 -9.758,-18.437 -20.608,-18.437c-15.192,-0 -32.55,10.85 -33.646,30.383c-0,-0 4.341,619.562 13.021,630.417" style="fill-rule:nonzero;"/></g><g><path d="M10115.6,6868.75c96.583,0 214.846,-88.975 214.846,-181.217c-0,-55.329 -43.404,-90.05 -105.242,-90.05c-119.358,0 -214.846,87.884 -214.846,181.196c0,56.425 46.65,90.071 105.242,90.071" style="fill-rule:nonzero;"/></g><g><path d="M10589.9,6955.54c0,-0 -3.246,-65.105 -3.246,-108.505c0,-17.362 1.075,-30.383 2.171,-34.725c7.588,-21.699 50.988,-53.174 75.954,-53.174c31.459,-0 44.479,35.816 44.479,62.933c0,58.596 -49.912,117.187 -96.562,146.492c-4.342,2.17 -7.604,3.249 -10.85,3.249c-9.775,0.001 -11.946,-10.854 -11.946,-16.27m-37.967,96.562c3.246,4.342 6.509,5.434 9.755,5.434c3.266,-0 6.512,-2.167 6.512,-2.167c32.55,-18.454 58.592,-47.746 85.729,-66.2c96.563,-67.275 130.209,-133.454 130.209,-183.367c-0,-61.858 -47.746,-100.921 -97.659,-104.166c-18.454,-0 -44.496,8.679 -59.687,18.437c-6.509,5.433 -18.438,15.192 -23.871,15.192c-2.171,-0 -3.246,-0 -5.417,-1.079c-7.604,-3.263 -11.946,-10.85 -11.946,-18.455c1.096,-23.87 7.605,-284.287 7.605,-305.987c-0,-11.929 -9.771,-18.438 -20.625,-18.438c-15.188,0 -32.55,10.85 -33.625,30.38c-0,-0 4.337,619.566 13.02,630.416" style="fill-rule:nonzero;"/></g><g><path d="M10956.4,7003.29c96.563,-0 214.846,-88.98 214.846,-181.217c0,-55.329 -43.404,-90.054 -105.262,-90.054c-119.354,-0 -214.842,87.883 -214.842,181.2c0,56.425 46.667,90.071 105.258,90.071" style="fill-rule:nonzero;"/></g><g><path d="M11559.5,7137.83c96.584,0 214.846,-88.975 214.846,-181.212c0,-55.333 -43.404,-90.054 -105.241,-90.054c-119.359,-0 -214.846,87.883 -214.846,181.2c-0,56.421 46.65,90.066 105.241,90.066" style="fill-rule:nonzero;"/></g><g><path d="M12651.4,6933.83c11.925,-37.987 52.083,-43.404 85.713,-43.404c74.875,0 134.545,80.296 134.545,145.4c0,33.629 -14.095,64.013 -49.912,72.692c-10.85,3.262 -22.779,4.341 -33.629,4.341c-39.063,0 -79.217,-26.041 -101.996,-56.425c-21.7,-24.945 -37.988,-61.841 -37.988,-96.562c0,-8.679 1.096,-17.362 3.267,-26.042m113.921,-67.275c-144.304,0 -234.375,59.671 -234.375,133.454c-0,72.709 61.858,137.813 223.525,137.813c177.954,0 234.375,-61.854 234.375,-137.813c-0,-77.029 -122.604,-133.454 -223.525,-133.454" style="fill-rule:nonzero;"/></g><g><path d="M565.305,5776.08c3.246,20.625 3.246,19.534 -16.288,26.042c-95.483,32.554 -157.325,118.283 -157.325,210.504c0,97.658 50.992,167.1 124.775,192.067c8.679,3.246 21.7,6.512 29.304,6.512c8.684,-0.004 13.021,-5.437 13.021,-11.945c0,-7.588 -8.679,-10.851 -16.283,-14.101c-45.575,-19.529 -78.125,-66.195 -78.125,-116.108c-0,-61.842 42.325,-108.508 108.508,-126.946c17.359,-4.341 19.529,-3.262 21.7,8.679l54.254,323.355c2.171,11.925 1.092,11.925 -15.191,15.187c-17.363,3.25 -39.063,5.421 -60.763,5.421c-189.879,-0 -312.5,-105.246 -312.5,-256.079c0,-64.009 10.85,-149.738 100.917,-251.734c65.104,-72.691 115.021,-112.85 166.008,-154.083c10.85,-8.679 13.021,-7.587 15.192,4.342l22.796,138.887m118.262,-738.921c35.817,0 65.104,29.288 65.104,88.975c0,120.434 -103.07,218.092 -188.8,292.967c-7.587,6.513 -11.929,5.417 -14.1,-8.679c-4.337,-28.213 -6.508,-65.104 -6.508,-99.825c0,-169.271 78.125,-273.438 144.304,-273.438m-43.404,911.459c-2.167,-13.021 -1.075,-16.288 11.946,-15.192c87.883,7.588 160.592,81.371 160.592,176.858c-0,68.367 -41.234,123.696 -101.996,154.08c-13.021,6.508 -15.192,6.508 -17.363,-6.513l-53.179,-309.233m-58.592,-338.542c-2.17,-13.021 0,-14.117 6.509,-20.625c117.187,-109.583 206.166,-247.396 206.166,-413.404c0,-94.408 -26.041,-187.725 -70.52,-252.829c-16.288,-23.871 -44.5,-54.254 -56.425,-54.254c-15.192,-0 -48.838,28.212 -70.538,52.083c-80.296,88.975 -106.337,224.617 -106.337,337.467c-0,62.933 7.604,133.454 15.191,177.95c2.171,13.02 3.263,15.191 -9.758,26.041c-156.25,129.117 -322.275,284.288 -322.275,503.471c-0,188.804 129.133,367.833 394.967,367.833c24.966,0 53.175,-2.17 74.879,-6.512c11.925,-2.171 14.096,-3.246 16.266,9.775c13.021,72.692 29.305,167.1 29.305,218.092c-0,160.587 -108.505,180.12 -172.534,180.12c-58.596,0 -86.804,-17.362 -86.804,-31.458c0,-7.604 9.771,-10.85 34.721,-18.454c33.646,-9.758 72.708,-39.063 72.708,-102c0,-59.667 -37.987,-110.675 -104.166,-110.675c-72.709,-0 -116.113,57.517 -116.113,124.792c0,70.52 42.329,176.858 206.163,176.858c72.708,-0 213.77,-32.554 213.77,-217.017c0,-61.837 -19.533,-164.929 -31.479,-232.204c-2.166,-13.021 -1.075,-11.925 14.117,-18.437c109.583,-43.4 182.292,-135.642 182.292,-258.246c-0,-138.888 -101.996,-261.509 -261.513,-261.509c-28.208,0 -28.208,0 -31.458,-19.533l-27.134,-157.325" style="fill-rule:nonzero;"/></g><g><path d="M1506.61,6333.04l-0,-135.971l1867.4,269.096l-0,135.975l-1867.4,-269.1" style="fill-rule:nonzero;"/></g><g><path d="M1506.61,6129.08l-0,-136.02l1867.4,269.095l-0,136.025l-1867.4,-269.1" style="fill-rule:nonzero;"/></g><g><path d="M4299.56,5050.79l0,-134.863l2038.31,134.55l-0,134.859l-2038.31,-134.546" style="fill-rule:nonzero;"/></g><g><path d="M4299.56,5253.04l0,-134.859l2038.31,134.546l-0,134.863l-2038.31,-134.55" style="fill-rule:nonzero;"/></g><g><path d="M6844.06,5317l0,-136.787l1867.4,336.37l-0,136.788l-1867.4,-336.371" style="fill-rule:nonzero;"/></g><g><path d="M6844.06,5522.17l0,-136.771l1867.4,336.371l-0,136.77l-1867.4,-336.37" style="fill-rule:nonzero;"/></g><g><path d="M9457.44,5858.42l0,-134.6l2316.63,67.275l0,134.6l-2316.63,-67.275" style="fill-rule:nonzero;"/></g><g><path d="M9457.44,6060.33l0,-134.6l2316.63,67.275l0,134.6l-2316.63,-67.275" style="fill-rule:nonzero;"/></g></g></svg>