<?xml version="1.0" encoding="UTF-8" standalone="no"?><!DOCTYPE svg PUBLIC "-//W3C//DTD SVG 1.1//EN" "http://www.w3.org/Graphics/SVG/1.1/DTD/svg11.dtd"><svg width="100%" height="100%" viewBox="0 0 1913 563" version="1.1" xmlns="http://www.w3.org/2000/svg" xmlns:xlink="http://www.w3.org/1999/xlink" xml:space="preserve" xmlns:serif="http://www.serif.com/" style="fill-rule:evenodd;clip-rule:evenodd;stroke-miterlimit:2;"><g><g><path d="M131.25,110.417l1650,-0" style="fill:none;stroke:#000;stroke-width:2.02px;"/><path d="M131.25,125.917l1650,-0" style="fill:none;stroke:#000;stroke-width:2.02px;"/><path d="M131.25,141.417l1650,-0" style="fill:none;stroke:#000;stroke-width:2.02px;"/><path d="M131.25,156.917l1650,-0" style="fill:none;stroke:#000;stroke-width:2.02px;"/><path d="M131.25,172.417l1650,-0" style="fill:none;stroke:#000;stroke-width:2.02px;"/></g><g><path d="M721.719,109.41l-0,64.013" style="fill:none;stroke:#000;stroke-width:2.48px;"/><path d="M1249.59,109.41l-0,64.013" style="fill:none;stroke:#000;stroke-width:2.48px;"/><path d="M1780,109.41l0,64.013" style="fill:none;stroke:#000;stroke-width:2.48px;"/></g><g><path d="M233.281,145.257l0,63.306" style="fill:none;stroke:#000;stroke-width:1.86px;"/></g><g><path d="M209.594,203.417l30.844,-0" style="fill:none;stroke:#000;stroke-width:2.48px;"/><path d="M209.594,187.917l30.844,-0" style="fill:none;stroke:#000;stroke-width:2.48px;"/></g><g><path d="M274.406,141.382l0,59.431" style="fill:none;stroke:#000;stroke-width:1.86px;"/></g><g><path d="M250.719,203.417l30.812,-0" style="fill:none;stroke:#000;stroke-width:2.48px;"/><path d="M250.719,187.917l30.812,-0" style="fill:none;stroke:#000;stroke-width:2.48px;"/></g><g><path d="M315.531,137.507l0,55.556" style="fill:none;stroke:#000;stroke-width:1.86px;"/></g><g><path d="M291.813,187.917l30.843,-0" style="fill:none;stroke:#000;stroke-width:2.48px;"/></g><g><path d="M365.406,129.757l0,55.556" style="fill:none;stroke:#000;stroke-width:1.86px;"/></g><g><path d="M345.313,187.917l27.218,-0" style="fill:none;stroke:#000;stroke-width:2.48px;"/></g><g><path d="M406.5,125.882l0,51.681" style="fill:none;stroke:#000;stroke-width:1.86px;"/><path d="M447.625,122.007l0,47.806" style="fill:none;stroke:#000;stroke-width:1.86px;"/><path d="M488.719,114.154l-0,47.909" style="fill:none;stroke:#000;stroke-width:1.86px;"/><path d="M529.844,106.404l-0,47.909" style="fill:none;stroke:#000;stroke-width:1.86px;"/><path d="M570.969,98.655l-0,47.908" style="fill:none;stroke:#000;stroke-width:1.86px;"/><path d="M595.5,144.02l0,43.968" style="fill:none;stroke:#000;stroke-width:1.86px;"/><path d="M639.188,136.27l-0,45.728" style="fill:none;stroke:#000;stroke-width:1.86px;"/><path d="M680.313,128.52l-0,47.843" style="fill:none;stroke:#000;stroke-width:1.86px;"/><path d="M747.188,120.77l-0,51.784" style="fill:none;stroke:#000;stroke-width:1.86px;"/><path d="M788.281,113.02l0,51.784" style="fill:none;stroke:#000;stroke-width:1.86px;"/><path d="M829.406,105.27l0,51.784" style="fill:none;stroke:#000;stroke-width:1.86px;"/><path d="M870.531,97.521l0,47.799" style="fill:none;stroke:#000;stroke-width:1.86px;"/></g><g><path d="M863.406,94.917l30.813,-0" style="fill:none;stroke:#000;stroke-width:2.48px;"/></g><g><path d="M911.625,89.771l0,52.046" style="fill:none;stroke:#000;stroke-width:1.86px;"/></g><g><path d="M904.5,94.917l30.844,-0" style="fill:none;stroke:#000;stroke-width:2.48px;"/></g><g><path d="M961.5,82.021l0,55.549" style="fill:none;stroke:#000;stroke-width:1.86px;"/></g><g><path d="M958,79.417l27.219,-0" style="fill:none;stroke:#000;stroke-width:2.48px;"/><path d="M958.25,94.917l26.969,-0" style="fill:none;stroke:#000;stroke-width:2.48px;"/></g><g><path d="M1002.62,74.271l0,67.155" style="fill:none;stroke:#000;stroke-width:1.86px;"/></g><g><path d="M995.5,79.417l30.813,-0" style="fill:none;stroke:#000;stroke-width:2.48px;"/><path d="M995.5,94.917l30.813,-0" style="fill:none;stroke:#000;stroke-width:2.48px;"/></g><g><path d="M1043.72,66.521l-0,72.967" style="fill:none;stroke:#000;stroke-width:1.86px;"/></g><g><path d="M1036.59,63.917l30.843,-0" style="fill:none;stroke:#000;stroke-width:2.48px;"/><path d="M1036.59,79.417l30.843,-0" style="fill:none;stroke:#000;stroke-width:2.48px;"/><path d="M1036.59,94.917l30.843,-0" style="fill:none;stroke:#000;stroke-width:2.48px;"/></g><g><path d="M1084.84,58.771l-0,78.78" style="fill:none;stroke:#000;stroke-width:1.86px;"/></g><g><path d="M1077.72,63.917l30.812,-0" style="fill:none;stroke:#000;stroke-width:2.48px;"/><path d="M1077.72,79.417l30.812,-0" style="fill:none;stroke:#000;stroke-width:2.48px;"/><path d="M1077.72,94.917l30.812,-0" style="fill:none;stroke:#000;stroke-width:2.48px;"/></g><g><path d="M1125.97,51.021l-0,86.555" style="fill:none;stroke:#000;stroke-width:1.86px;"/></g><g><path d="M1118.81,48.417l30.843,-0" style="fill:none;stroke:#000;stroke-width:2.48px;"/><path d="M1118.81,63.917l30.843,-0" style="fill:none;stroke:#000;stroke-width:2.48px;"/><path d="M1118.81,79.417l30.843,-0" style="fill:none;stroke:#000;stroke-width:2.48px;"/><path d="M1118.81,94.917l30.843,-0" style="fill:none;stroke:#000;stroke-width:2.48px;"/></g><g><path d="M1167.06,58.771l-0,82.68" style="fill:none;stroke:#000;stroke-width:1.86px;"/></g><g><path d="M1159.94,63.917l30.843,-0" style="fill:none;stroke:#000;stroke-width:2.48px;"/><path d="M1159.94,79.417l30.843,-0" style="fill:none;stroke:#000;stroke-width:2.48px;"/><path d="M1159.94,94.917l30.843,-0" style="fill:none;stroke:#000;stroke-width:2.48px;"/></g><g><path d="M1208.19,66.521l-0,78.805" style="fill:none;stroke:#000;stroke-width:1.86px;"/></g><g><path d="M1201.06,63.917l30.812,-0" style="fill:none;stroke:#000;stroke-width:2.48px;"/><path d="M1201.06,79.417l30.812,-0" style="fill:none;stroke:#000;stroke-width:2.48px;"/><path d="M1201.06,94.917l30.812,-0" style="fill:none;stroke:#000;stroke-width:2.48px;"/></g><g><path d="M1275.03,74.271l0,63.299" style="fill:none;stroke:#000;stroke-width:1.86px;"/></g><g><path d="M1267.91,79.417l30.844,-0" style="fill:none;stroke:#000;stroke-width:2.48px;"/><path d="M1267.91,94.917l30.844,-0" style="fill:none;stroke:#000;stroke-width:2.48px;"/></g><g><path d="M1324.91,82.021l0,59.796" style="fill:none;stroke:#000;stroke-width:1.86px;"/></g><g><path d="M1321.41,79.417l27.188,-0" style="fill:none;stroke:#000;stroke-width:2.48px;"/><path d="M1321.66,94.917l26.938,-0" style="fill:none;stroke:#000;stroke-width:2.48px;"/></g><g><path d="M1366.03,89.771l0,55.549" style="fill:none;stroke:#000;stroke-width:1.86px;"/></g><g><path d="M1358.88,94.917l30.844,-0" style="fill:none;stroke:#000;stroke-width:2.48px;"/></g><g><path d="M1407.12,97.521l0,55.555" style="fill:none;stroke:#000;stroke-width:1.86px;"/></g><g><path d="M1400,94.917l30.844,-0" style="fill:none;stroke:#000;stroke-width:2.48px;"/></g><g><path d="M1448.25,105.27l0,51.681" style="fill:none;stroke:#000;stroke-width:1.86px;"/><path d="M1489.34,113.02l-0,47.806" style="fill:none;stroke:#000;stroke-width:1.86px;"/><path d="M1530.47,120.77l-0,47.9" style="fill:none;stroke:#000;stroke-width:1.86px;"/><path d="M1571.59,128.52l-0,47.665" style="fill:none;stroke:#000;stroke-width:1.86px;"/><path d="M1615.25,136.27l0,47.9" style="fill:none;stroke:#000;stroke-width:1.86px;"/><path d="M1672.94,94.839l-0,43.974" style="fill:none;stroke:#000;stroke-width:1.86px;"/><path d="M1714.06,100.652l-0.001,45.911" style="fill:none;stroke:#000;stroke-width:1.86px;"/><path d="M1755.16,106.463l0,47.85" style="fill:none;stroke:#000;stroke-width:1.86px;"/></g><g><path d="M221.428,86.354c-0,0 -0.063,0.25 -0.063,0.438c0,0.25 0.25,0.5 0.5,0.5c0.188,-0 0.313,-0.188 0.375,-0.25c0.063,-0.188 0.813,-2.75 1.188,-3.375c0.125,-0.25 0.25,-0.313 0.312,-0.313c0.125,0 0.188,0.25 0.188,0.438l-0,8.937c-0,0.75 -0.625,1.188 -1.25,1.188c-0.25,-0 -0.563,0.125 -0.563,0.5c0,0.375 0.313,0.5 0.813,0.5l5.25,-0c0.5,-0 0.5,-0.5 0.5,-0.5c-0,-0 -0,-0.5 -0.5,-0.5c-0.438,-0 -1,-0.563 -1,-1.125l-0,-13c-0,-0.5 -0.188,-0.75 -0.625,-0.75c-0.438,-0 -0.813,0.125 -1.188,0.125c-0.625,-0 -0.75,-0 -1.25,-0.125c-0.25,-0 -0.562,0.375 -0.75,0.625l-1.937,6.687" style="fill-rule:nonzero;"/></g><g><path d="M272.317,89.917c-0,-0.438 -0.188,-0.5 -0.375,-0.5c-0.25,-0 -0.375,0.187 -0.438,0.375c-0.312,0.875 -1,2 -1.937,2c-0.125,-0 -0.25,-0 -0.375,-0.063l-0.938,-0.312c-0.625,-0.25 -2.125,-0.75 -3.375,-0.75c-0.437,-0 -0.812,0.062 -1.187,0.187c0.687,-1.187 3.937,-2.75 4.625,-2.937c2.25,-0.313 4.125,-1.625 4.125,-4.063c-0,-1.5 -0.625,-2.5 -1.438,-3.25c-1.625,-1.312 -4,-1.5 -4.687,-1.5c-2.25,0 -4.063,0.125 -5.688,2c-0.437,0.5 -0.625,1 -0.625,1.5c0,0.438 0.188,0.938 0.375,1.5c0.375,0.75 1.188,1.313 2.063,1.313c1.562,-0 1.75,-1.5 1.75,-2.188c-0,-1.437 -1.563,-1.562 -1.563,-2.187c0,-0.438 0.625,-1.188 2.5,-1.188c2.938,0 3.938,2.438 3.938,3.188c-0,1.125 -0.375,2.187 -1,3.062c-1.125,1.438 -3.188,1.938 -4.75,2.938c-1.75,1.062 -2.938,2.875 -3.5,4.875c-0,0.437 0.187,0.937 0.562,1.125c0.063,0.062 0.188,0.062 0.25,0.062c0.688,0 1.063,-1.937 2.938,-1.937c1.25,-0 1.687,1.687 4.5,1.687c1.312,0 3.75,-0.125 4.25,-4.937" style="fill-rule:nonzero;"/></g><g><path d="M310.562,89.292l-0,-6.688c-0,-0.312 -0.063,-0.562 -0.375,-0.562c-0.25,-0 -0.438,0.062 -0.625,0.312l-1.875,3.625c-0.125,0.125 -0.313,0.313 -0.313,0.75l0,2.563l-4.062,-0c2.562,-2.125 6.562,-9.188 6.625,-9.563c-0,-0.062 0.062,-0.125 0.062,-0.187c0,-0.25 -0.25,-0.438 -0.437,-0.438c-0.313,0 -1.625,0.125 -2.188,0.125c-0.562,0 -0.937,-0.125 -1.187,-0.125c-0.313,0 -0.75,0.125 -0.75,0.625c-0,4 -3.25,8.563 -4.063,9.688c-0.125,0.125 -0.25,0.312 -0.25,0.5c0,0.312 0.25,0.625 0.625,0.625l5.625,-0l0,1.937c0,0.875 -0.5,1.125 -1,1.125c-0.562,0 -0.812,0.25 -0.812,0.563c-0,0.312 0.125,0.687 0.687,0.687l5.375,0c0.313,0 0.625,-0.25 0.625,-0.687c0,-0.438 -0.375,-0.625 -0.687,-0.625c-0.313,-0 -1,-0.188 -1,-1.188l-0,-1.812l2.312,-0c0.313,-0 0.5,-0.25 0.5,-0.625c0,-0.375 -0.125,-0.625 -0.5,-0.625l-2.312,-0" style="fill-rule:nonzero;"/></g><g><path d="M353.525,86.354c0,0 -0.063,0.25 -0.063,0.438c0,0.25 0.25,0.5 0.5,0.5c0.188,-0 0.313,-0.188 0.375,-0.25c0.063,-0.188 0.813,-2.75 1.188,-3.375c0.125,-0.25 0.25,-0.313 0.313,-0.313c0.125,0 0.187,0.25 0.187,0.438l0,8.937c0,0.75 -0.625,1.188 -1.25,1.188c-0.25,-0 -0.563,0.125 -0.563,0.5c0,0.375 0.313,0.5 0.813,0.5l5.25,-0c0.5,-0 0.5,-0.5 0.5,-0.5c0,-0 0,-0.5 -0.5,-0.5c-0.438,-0 -1,-0.563 -1,-1.125l0,-13c0,-0.5 -0.188,-0.75 -0.625,-0.75c-0.438,-0 -0.813,0.125 -1.188,0.125c-0.625,-0 -0.75,-0 -1.25,-0.125c-0.25,-0 -0.562,0.375 -0.75,0.625l-1.937,6.687" style="fill-rule:nonzero;"/></g><g><path d="M404.413,89.917c-0,-0.438 -0.188,-0.5 -0.375,-0.5c-0.25,-0 -0.375,0.187 -0.438,0.375c-0.312,0.875 -1,2 -1.937,2c-0.125,-0 -0.25,-0 -0.375,-0.063l-0.938,-0.312c-0.625,-0.25 -2.125,-0.75 -3.375,-0.75c-0.437,-0 -0.812,0.062 -1.187,0.187c0.687,-1.187 3.937,-2.75 4.625,-2.937c2.25,-0.313 4.125,-1.625 4.125,-4.063c-0,-1.5 -0.625,-2.5 -1.438,-3.25c-1.625,-1.312 -4,-1.5 -4.687,-1.5c-2.25,0 -4.063,0.125 -5.688,2c-0.437,0.5 -0.625,1 -0.625,1.5c0,0.438 0.188,0.938 0.375,1.5c0.375,0.75 1.188,1.313 2.063,1.313c1.562,-0 1.75,-1.5 1.75,-2.188c-0,-1.437 -1.563,-1.562 -1.563,-2.187c0,-0.438 0.625,-1.188 2.5,-1.188c2.938,0 3.938,2.438 3.938,3.188c-0,1.125 -0.375,2.187 -1,3.062c-1.125,1.438 -3.188,1.938 -4.75,2.938c-1.75,1.062 -2.938,2.875 -3.5,4.875c-0,0.437 0.187,0.937 0.562,1.125c0.063,0.062 0.188,0.062 0.25,0.062c0.688,0 1.063,-1.937 2.938,-1.937c1.25,-0 1.687,1.687 4.5,1.687c1.312,0 3.75,-0.125 4.25,-4.937" style="fill-rule:nonzero;"/></g><g><path d="M442.659,89.292l0,-6.688c0,-0.312 -0.062,-0.562 -0.375,-0.562c-0.25,-0 -0.437,0.062 -0.625,0.312l-1.875,3.625c-0.125,0.125 -0.312,0.313 -0.312,0.75l-0,2.563l-4.063,-0c2.563,-2.125 6.563,-9.188 6.625,-9.563c0,-0.062 0.063,-0.125 0.063,-0.187c-0,-0.25 -0.25,-0.438 -0.438,-0.438c-0.312,0 -1.625,0.125 -2.187,0.125c-0.563,0 -0.938,-0.125 -1.188,-0.125c-0.312,0 -0.75,0.125 -0.75,0.625c0,4 -3.25,8.563 -4.062,9.688c-0.125,0.125 -0.25,0.312 -0.25,0.5c-0,0.312 0.25,0.625 0.625,0.625l5.625,-0l-0,1.937c-0,0.875 -0.5,1.125 -1,1.125c-0.563,0 -0.813,0.25 -0.813,0.563c0,0.312 0.125,0.687 0.688,0.687l5.375,0c0.312,0 0.625,-0.25 0.625,-0.687c-0,-0.438 -0.375,-0.625 -0.688,-0.625c-0.312,-0 -1,-0.188 -1,-1.188l0,-1.812l2.313,-0c0.312,-0 0.5,-0.25 0.5,-0.625c-0,-0.375 -0.125,-0.625 -0.5,-0.625l-2.313,-0" style="fill-rule:nonzero;"/></g><g><path d="M483.772,89.292l-0,-6.688c-0,-0.312 -0.063,-0.562 -0.375,-0.562c-0.25,-0 -0.438,0.062 -0.625,0.312l-1.875,3.625c-0.125,0.125 -0.313,0.313 -0.313,0.75l0,2.563l-4.062,-0c2.562,-2.125 6.562,-9.188 6.625,-9.563c-0,-0.062 0.062,-0.125 0.062,-0.187c0,-0.25 -0.25,-0.438 -0.437,-0.438c-0.313,0 -1.625,0.125 -2.188,0.125c-0.562,0 -0.937,-0.125 -1.187,-0.125c-0.313,0 -0.75,0.125 -0.75,0.625c-0,4 -3.25,8.563 -4.063,9.688c-0.125,0.125 -0.25,0.312 -0.25,0.5c0,0.312 0.25,0.625 0.625,0.625l5.625,-0l0,1.937c0,0.875 -0.5,1.125 -1,1.125c-0.562,0 -0.812,0.25 -0.812,0.563c-0,0.312 0.125,0.687 0.687,0.687l5.375,0c0.313,0 0.625,-0.25 0.625,-0.687c0,-0.438 -0.375,-0.625 -0.687,-0.625c-0.313,-0 -1,-0.188 -1,-1.188l-0,-1.812l2.312,-0c0.313,-0 0.5,-0.25 0.5,-0.625c0,-0.375 -0.125,-0.625 -0.5,-0.625l-2.312,-0" style="fill-rule:nonzero;"/></g><g><path d="M517.975,86.354c0,0 -0.063,0.25 -0.063,0.438c0,0.25 0.25,0.5 0.5,0.5c0.188,-0 0.313,-0.188 0.375,-0.25c0.063,-0.188 0.813,-2.75 1.188,-3.375c0.125,-0.25 0.25,-0.313 0.313,-0.313c0.125,0 0.187,0.25 0.187,0.438l0,8.937c0,0.75 -0.625,1.188 -1.25,1.188c-0.25,-0 -0.563,0.125 -0.563,0.5c0,0.375 0.313,0.5 0.813,0.5l5.25,-0c0.5,-0 0.5,-0.5 0.5,-0.5c0,-0 0,-0.5 -0.5,-0.5c-0.438,-0 -1,-0.563 -1,-1.125l0,-13c0,-0.5 -0.188,-0.75 -0.625,-0.75c-0.438,-0 -0.813,0.125 -1.188,0.125c-0.625,-0 -0.75,-0 -1.25,-0.125c-0.25,-0 -0.562,0.375 -0.75,0.625l-1.937,6.687" style="fill-rule:nonzero;"/></g><g><path d="M568.863,82.01c-0,-0.437 -0.188,-0.5 -0.375,-0.5c-0.25,0 -0.375,0.188 -0.438,0.375c-0.313,0.875 -1,2 -1.938,2c-0.125,0 -0.25,0 -0.375,-0.062l-0.937,-0.313c-0.625,-0.25 -2.125,-0.75 -3.375,-0.75c-0.438,0 -0.813,0.063 -1.188,0.188c0.688,-1.188 3.938,-2.75 4.625,-2.938c2.25,-0.312 4.125,-1.625 4.125,-4.062c0,-1.5 -0.625,-2.5 -1.437,-3.25c-1.625,-1.313 -4,-1.5 -4.688,-1.5c-2.25,-0 -4.062,0.125 -5.687,2c-0.438,0.5 -0.625,1 -0.625,1.5c0,0.437 0.188,0.937 0.375,1.5c0.375,0.75 1.188,1.312 2.063,1.312c1.562,0 1.75,-1.5 1.75,-2.187c-0,-1.438 -1.563,-1.563 -1.563,-2.188c0,-0.437 0.625,-1.187 2.5,-1.187c2.938,-0 3.938,2.437 3.938,3.187c-0,1.125 -0.375,2.188 -1,3.063c-1.125,1.437 -3.188,1.937 -4.75,2.937c-1.75,1.063 -2.938,2.875 -3.5,4.875c-0,0.438 0.187,0.938 0.562,1.125c0.063,0.063 0.188,0.063 0.25,0.063c0.688,-0 1.063,-1.938 2.938,-1.938c1.25,0 1.687,1.688 4.5,1.688c1.312,-0 3.75,-0.125 4.25,-4.938" style="fill-rule:nonzero;"/></g><g><path d="M607.109,89.292l0,-6.688c0,-0.312 -0.062,-0.562 -0.375,-0.562c-0.25,-0 -0.437,0.062 -0.625,0.312l-1.875,3.625c-0.125,0.125 -0.312,0.313 -0.312,0.75l-0,2.563l-4.063,-0c2.563,-2.125 6.563,-9.188 6.625,-9.563c0,-0.062 0.063,-0.125 0.063,-0.187c-0,-0.25 -0.25,-0.438 -0.438,-0.438c-0.312,0 -1.625,0.125 -2.187,0.125c-0.563,0 -0.938,-0.125 -1.188,-0.125c-0.312,0 -0.75,0.125 -0.75,0.625c0,4 -3.25,8.563 -4.062,9.688c-0.125,0.125 -0.25,0.312 -0.25,0.5c-0,0.312 0.25,0.625 0.625,0.625l5.625,-0l-0,1.937c-0,0.875 -0.5,1.125 -1,1.125c-0.563,0 -0.813,0.25 -0.813,0.563c0,0.312 0.125,0.687 0.688,0.687l5.375,0c0.312,0 0.625,-0.25 0.625,-0.687c-0,-0.438 -0.375,-0.625 -0.688,-0.625c-0.312,-0 -1,-0.188 -1,-1.188l0,-1.812l2.313,-0c0.312,-0 0.5,-0.25 0.5,-0.625c-0,-0.375 -0.125,-0.625 -0.5,-0.625l-2.313,-0" style="fill-rule:nonzero;"/></g><g><path d="M643.903,86.354c0,0 -0.062,0.25 -0.062,0.438c-0,0.25 0.25,0.5 0.5,0.5c0.187,-0 0.312,-0.188 0.375,-0.25c0.062,-0.188 0.812,-2.75 1.187,-3.375c0.125,-0.25 0.25,-0.313 0.313,-0.313c0.125,0 0.187,0.25 0.187,0.438l0,8.937c0,0.75 -0.625,1.188 -1.25,1.188c-0.25,-0 -0.562,0.125 -0.562,0.5c-0,0.375 0.312,0.5 0.812,0.5l5.25,-0c0.5,-0 0.5,-0.5 0.5,-0.5c0,-0 0,-0.5 -0.5,-0.5c-0.437,-0 -1,-0.563 -1,-1.125l0,-13c0,-0.5 -0.187,-0.75 -0.625,-0.75c-0.437,-0 -0.812,0.125 -1.187,0.125c-0.625,-0 -0.75,-0 -1.25,-0.125c-0.25,-0 -0.563,0.375 -0.75,0.625l-1.938,6.687" style="fill-rule:nonzero;"/></g><g><path d="M694.791,89.917c-0,-0.438 -0.188,-0.5 -0.375,-0.5c-0.25,-0 -0.375,0.187 -0.438,0.375c-0.312,0.875 -1,2 -1.937,2c-0.125,-0 -0.25,-0 -0.375,-0.063l-0.938,-0.312c-0.625,-0.25 -2.125,-0.75 -3.375,-0.75c-0.437,-0 -0.812,0.062 -1.187,0.187c0.687,-1.187 3.937,-2.75 4.625,-2.937c2.25,-0.313 4.125,-1.625 4.125,-4.063c-0,-1.5 -0.625,-2.5 -1.438,-3.25c-1.625,-1.312 -4,-1.5 -4.687,-1.5c-2.25,0 -4.063,0.125 -5.688,2c-0.437,0.5 -0.625,1 -0.625,1.5c0,0.438 0.188,0.938 0.375,1.5c0.375,0.75 1.188,1.313 2.063,1.313c1.562,-0 1.75,-1.5 1.75,-2.188c-0,-1.437 -1.563,-1.562 -1.563,-2.187c0,-0.438 0.625,-1.188 2.5,-1.188c2.938,0 3.938,2.438 3.938,3.188c-0,1.125 -0.375,2.187 -1,3.062c-1.125,1.438 -3.188,1.938 -4.75,2.938c-1.75,1.062 -2.938,2.875 -3.5,4.875c-0,0.437 0.187,0.937 0.562,1.125c0.063,0.062 0.188,0.062 0.25,0.062c0.688,0 1.063,-1.937 2.938,-1.937c1.25,-0 1.687,1.687 4.5,1.687c1.312,0 3.75,-0.125 4.25,-4.937" style="fill-rule:nonzero;"/></g><g><path d="M758.797,89.292l-0,-6.688c-0,-0.312 -0.063,-0.562 -0.375,-0.562c-0.25,-0 -0.438,0.062 -0.625,0.312l-1.875,3.625c-0.125,0.125 -0.313,0.313 -0.313,0.75l0,2.563l-4.062,-0c2.562,-2.125 6.562,-9.188 6.625,-9.563c-0,-0.062 0.062,-0.125 0.062,-0.187c0,-0.25 -0.25,-0.438 -0.437,-0.438c-0.313,0 -1.625,0.125 -2.188,0.125c-0.562,0 -0.937,-0.125 -1.187,-0.125c-0.313,0 -0.75,0.125 -0.75,0.625c-0,4 -3.25,8.563 -4.063,9.688c-0.125,0.125 -0.25,0.312 -0.25,0.5c0,0.312 0.25,0.625 0.625,0.625l5.625,-0l0,1.937c0,0.875 -0.5,1.125 -1,1.125c-0.562,0 -0.812,0.25 -0.812,0.563c-0,0.312 0.125,0.687 0.687,0.687l5.375,0c0.313,0 0.625,-0.25 0.625,-0.687c0,-0.438 -0.375,-0.625 -0.687,-0.625c-0.313,-0 -1,-0.188 -1,-1.188l-0,-1.812l2.312,-0c0.313,-0 0.5,-0.25 0.5,-0.625c0,-0.375 -0.125,-0.625 -0.5,-0.625l-2.312,-0" style="fill-rule:nonzero;"/></g><g><path d="M799.909,89.278l0,-6.688c0,-0.312 -0.062,-0.562 -0.375,-0.562c-0.25,-0 -0.437,0.062 -0.625,0.312l-1.875,3.625c-0.125,0.125 -0.312,0.313 -0.312,0.75l-0,2.563l-4.063,-0c2.563,-2.125 6.563,-9.188 6.625,-9.563c0,-0.062 0.063,-0.125 0.063,-0.187c-0,-0.25 -0.25,-0.438 -0.438,-0.438c-0.312,0 -1.625,0.125 -2.187,0.125c-0.563,0 -0.938,-0.125 -1.188,-0.125c-0.312,0 -0.75,0.125 -0.75,0.625c0,4 -3.25,8.563 -4.062,9.688c-0.125,0.125 -0.25,0.312 -0.25,0.5c-0,0.312 0.25,0.625 0.625,0.625l5.625,-0l-0,1.937c-0,0.875 -0.5,1.125 -1,1.125c-0.563,0 -0.813,0.25 -0.813,0.563c0,0.312 0.125,0.687 0.688,0.687l5.375,0c0.312,0 0.625,-0.25 0.625,-0.687c-0,-0.438 -0.375,-0.625 -0.688,-0.625c-0.312,-0 -1,-0.188 -1,-1.188l0,-1.812l2.313,-0c0.312,-0 0.5,-0.25 0.5,-0.625c-0,-0.375 -0.125,-0.625 -0.5,-0.625l-2.313,-0" style="fill-rule:nonzero;"/></g><g><path d="M834.113,78.542c-0,-0 -0.063,0.25 -0.063,0.437c0,0.25 0.25,0.5 0.5,0.5c0.188,0 0.313,-0.187 0.375,-0.25c0.063,-0.187 0.813,-2.75 1.188,-3.375c0.125,-0.25 0.25,-0.312 0.312,-0.312c0.125,-0 0.188,0.25 0.188,0.437l-0,8.938c-0,0.75 -0.625,1.187 -1.25,1.187c-0.25,0 -0.563,0.125 -0.563,0.5c0,0.375 0.313,0.5 0.813,0.5l5.25,0c0.5,0 0.5,-0.5 0.5,-0.5c-0,0 -0,-0.5 -0.5,-0.5c-0.438,0 -1,-0.562 -1,-1.125l-0,-13c-0,-0.5 -0.188,-0.75 -0.625,-0.75c-0.438,0 -0.813,0.125 -1.188,0.125c-0.625,0 -0.75,0 -1.25,-0.125c-0.25,0 -0.563,0.375 -0.75,0.625l-1.938,6.688" style="fill-rule:nonzero;"/></g><g><path d="M885.003,74.159c0,-0.438 -0.187,-0.5 -0.375,-0.5c-0.25,-0 -0.375,0.187 -0.437,0.375c-0.313,0.875 -1,2 -1.938,2c-0.125,-0 -0.25,-0 -0.375,-0.063l-0.937,-0.312c-0.625,-0.25 -2.125,-0.75 -3.375,-0.75c-0.438,-0 -0.813,0.062 -1.188,0.187c0.688,-1.187 3.938,-2.75 4.625,-2.937c2.25,-0.313 4.125,-1.625 4.125,-4.063c0,-1.5 -0.625,-2.5 -1.437,-3.25c-1.625,-1.312 -4,-1.5 -4.688,-1.5c-2.25,0 -4.062,0.125 -5.687,2c-0.438,0.5 -0.625,1 -0.625,1.5c-0,0.438 0.187,0.938 0.375,1.5c0.375,0.75 1.187,1.313 2.062,1.313c1.563,-0 1.75,-1.5 1.75,-2.188c0,-1.437 -1.562,-1.562 -1.562,-2.187c-0,-0.438 0.625,-1.188 2.5,-1.188c2.937,0 3.937,2.438 3.937,3.188c0,1.125 -0.375,2.187 -1,3.062c-1.125,1.438 -3.187,1.938 -4.75,2.938c-1.75,1.062 -2.937,2.875 -3.5,4.875c0,0.437 0.188,0.937 0.563,1.125c0.062,0.062 0.187,0.062 0.25,0.062c0.687,0 1.062,-1.937 2.937,-1.937c1.25,-0 1.688,1.687 4.5,1.687c1.313,0 3.75,-0.125 4.25,-4.937" style="fill-rule:nonzero;"/></g><g><path d="M923.247,66.028l-0,-6.688c-0,-0.312 -0.063,-0.562 -0.375,-0.562c-0.25,-0 -0.438,0.062 -0.625,0.312l-1.875,3.625c-0.125,0.125 -0.313,0.313 -0.313,0.75l0,2.563l-4.062,-0c2.562,-2.125 6.562,-9.188 6.625,-9.563c-0,-0.062 0.062,-0.125 0.062,-0.187c0,-0.25 -0.25,-0.438 -0.437,-0.438c-0.313,0 -1.625,0.125 -2.188,0.125c-0.562,0 -0.937,-0.125 -1.187,-0.125c-0.313,0 -0.75,0.125 -0.75,0.625c-0,4 -3.25,8.563 -4.063,9.688c-0.125,0.125 -0.25,0.312 -0.25,0.5c0,0.312 0.25,0.625 0.625,0.625l5.625,-0l0,1.937c0,0.875 -0.5,1.125 -1,1.125c-0.562,0 -0.812,0.25 -0.812,0.563c-0,0.312 0.125,0.687 0.687,0.687l5.375,0c0.313,0 0.625,-0.25 0.625,-0.687c0,-0.438 -0.375,-0.625 -0.687,-0.625c-0.313,-0 -1,-0.188 -1,-1.188l-0,-1.812l2.312,-0c0.313,-0 0.5,-0.25 0.5,-0.625c0,-0.375 -0.125,-0.625 -0.5,-0.625l-2.312,-0" style="fill-rule:nonzero;"/></g><g><path d="M966.209,55.292c0,-0 -0.062,0.25 -0.062,0.437c-0,0.25 0.25,0.5 0.5,0.5c0.187,0 0.312,-0.187 0.375,-0.25c0.062,-0.187 0.812,-2.75 1.187,-3.375c0.125,-0.25 0.25,-0.312 0.313,-0.312c0.125,-0 0.187,0.25 0.187,0.437l0,8.938c0,0.75 -0.625,1.187 -1.25,1.187c-0.25,0 -0.562,0.125 -0.562,0.5c-0,0.375 0.312,0.5 0.812,0.5l5.25,0c0.5,0 0.5,-0.5 0.5,-0.5c0,0 0,-0.5 -0.5,-0.5c-0.437,0 -1,-0.562 -1,-1.125l0,-13c0,-0.5 -0.187,-0.75 -0.625,-0.75c-0.437,0 -0.812,0.125 -1.187,0.125c-0.625,0 -0.75,0 -1.25,-0.125c-0.25,0 -0.563,0.375 -0.75,0.625l-1.938,6.688" style="fill-rule:nonzero;"/></g><g><path d="M1017.1,50.909c-0,-0.438 -0.188,-0.5 -0.375,-0.5c-0.25,-0 -0.375,0.187 -0.438,0.375c-0.312,0.875 -1,2 -1.937,2c-0.125,-0 -0.25,-0 -0.375,-0.063l-0.938,-0.312c-0.625,-0.25 -2.125,-0.75 -3.375,-0.75c-0.437,-0 -0.812,0.062 -1.187,0.187c0.687,-1.187 3.937,-2.75 4.625,-2.937c2.25,-0.313 4.125,-1.625 4.125,-4.063c-0,-1.5 -0.625,-2.5 -1.438,-3.25c-1.625,-1.312 -4,-1.5 -4.687,-1.5c-2.25,0 -4.063,0.125 -5.688,2c-0.437,0.5 -0.625,1 -0.625,1.5c0,0.438 0.188,0.938 0.375,1.5c0.375,0.75 1.188,1.313 2.063,1.313c1.562,-0 1.75,-1.5 1.75,-2.188c-0,-1.437 -1.563,-1.562 -1.563,-2.187c0,-0.438 0.625,-1.188 2.5,-1.188c2.938,0 3.938,2.438 3.938,3.188c-0,1.125 -0.375,2.187 -1,3.062c-1.125,1.438 -3.188,1.938 -4.75,2.938c-1.75,1.062 -2.938,2.875 -3.5,4.875c-0,0.437 0.187,0.937 0.562,1.125c0.063,0.062 0.188,0.062 0.25,0.062c0.688,0 1.063,-1.937 2.938,-1.937c1.25,-0 1.687,1.687 4.5,1.687c1.312,0 3.75,-0.125 4.25,-4.937" style="fill-rule:nonzero;"/></g><g><path d="M1051.37,32.604c-3.438,0 -4.938,2.313 -4.938,3.625c0,0.875 0.5,1.938 2.063,2c1.187,0 1.75,-0.75 1.75,-1.562l-0,-0.25c-0.063,-0.938 -0.688,-1 -0.813,-1.063c-0.125,-0.062 -0.375,-0.312 -0.375,-0.75c0.125,-0.687 1.063,-0.937 1.313,-0.937c3.187,-0 4.125,1.687 4.125,2.75c-0,2.937 -3,3.187 -3.938,3.25c-0.437,-0 -0.875,0.187 -0.875,0.562c0,0.375 0.563,0.375 0.813,0.375c3.625,0 4.125,1.875 4.125,2.813c-0,3.625 -2.938,3.75 -3.688,3.75c-0.375,-0 -1,-0.188 -1.062,-0.5l-0,-0.375c-0,-0.688 0.187,-1.438 0.25,-2.063c-0,-1.125 -0.75,-1.812 -1.875,-1.812l-0.25,-0c-0.438,0.125 -0.875,0.375 -1.188,0.687c-0.437,0.375 -0.562,0.938 -0.562,1.5c0.062,2 1.812,3.688 4.937,3.75l0.375,0c3.063,0 6.25,-1.625 6.25,-4.375c0,-0.625 -0.125,-1.125 -0.312,-1.5c-0.125,-0.375 -0.375,-0.687 -0.625,-0.937c-0.188,-0.25 -0.438,-0.438 -0.688,-0.625l-0.687,-0.375l-0.375,-0.125c-0.125,-0 -0.188,-0.063 -0.313,-0.063l-0.375,-0.125c-0.187,-0.062 -0.25,0 -0.312,-0.125c-0.063,-0.062 -0.063,-0.125 -0.063,-0.187c0,-0.125 0.063,-0.25 0.188,-0.25l1,-0.313c0.437,-0.25 0.875,-0.437 1.187,-0.875c0.5,-0.5 0.688,-1.312 0.688,-2c-0,-2.937 -3.875,-3.75 -5.25,-3.875l-0.5,0" style="fill-rule:nonzero;"/></g><g><path d="M1096.46,35.028l0,-6.688c0,-0.312 -0.062,-0.562 -0.375,-0.562c-0.25,-0 -0.437,0.062 -0.625,0.312l-1.875,3.625c-0.125,0.125 -0.312,0.313 -0.312,0.75l-0,2.563l-4.063,-0c2.563,-2.125 6.563,-9.188 6.625,-9.563c0,-0.062 0.063,-0.125 0.063,-0.187c-0,-0.25 -0.25,-0.438 -0.438,-0.438c-0.312,0 -1.625,0.125 -2.187,0.125c-0.563,0 -0.938,-0.125 -1.188,-0.125c-0.312,0 -0.75,0.125 -0.75,0.625c0,4 -3.25,8.563 -4.062,9.688c-0.125,0.125 -0.25,0.312 -0.25,0.5c-0,0.312 0.25,0.625 0.625,0.625l5.625,-0l-0,1.937c-0,0.875 -0.5,1.125 -1,1.125c-0.563,0 -0.813,0.25 -0.813,0.563c0,0.312 0.125,0.687 0.688,0.687l5.375,0c0.312,0 0.625,-0.25 0.625,-0.687c-0,-0.438 -0.375,-0.625 -0.688,-0.625c-0.312,-0 -1,-0.188 -1,-1.188l0,-1.812l2.313,-0c0.312,-0 0.5,-0.25 0.5,-0.625c-0,-0.375 -0.125,-0.625 -0.5,-0.625l-2.313,-0" style="fill-rule:nonzero;"/></g><g><path d="M1137.57,27.278l-0,-6.688c-0,-0.312 -0.063,-0.562 -0.375,-0.562c-0.25,-0 -0.438,0.062 -0.625,0.312l-1.875,3.625c-0.125,0.125 -0.313,0.313 -0.313,0.75l0,2.563l-4.062,-0c2.562,-2.125 6.562,-9.188 6.625,-9.563c-0,-0.062 0.062,-0.125 0.062,-0.187c0,-0.25 -0.25,-0.438 -0.437,-0.438c-0.313,0 -1.625,0.125 -2.188,0.125c-0.562,0 -0.937,-0.125 -1.187,-0.125c-0.313,0 -0.75,0.125 -0.75,0.625c-0,4 -3.25,8.563 -4.063,9.688c-0.125,0.125 -0.25,0.312 -0.25,0.5c0,0.312 0.25,0.625 0.625,0.625l5.625,-0l0,1.937c0,0.875 -0.5,1.125 -1,1.125c-0.562,0 -0.812,0.25 -0.812,0.563c-0,0.312 0.125,0.687 0.687,0.687l5.375,0c0.313,0 0.625,-0.25 0.625,-0.687c0,-0.438 -0.375,-0.625 -0.687,-0.625c-0.313,-0 -1,-0.188 -1,-1.188l-0,-1.812l2.312,-0c0.313,-0 0.5,-0.25 0.5,-0.625c0,-0.375 -0.125,-0.625 -0.5,-0.625l-2.312,-0" style="fill-rule:nonzero;"/></g><g><path d="M1178.68,35.028l0,-6.688c0,-0.312 -0.062,-0.562 -0.375,-0.562c-0.25,-0 -0.437,0.062 -0.625,0.312l-1.875,3.625c-0.125,0.125 -0.312,0.313 -0.312,0.75l-0,2.563l-4.063,-0c2.563,-2.125 6.563,-9.188 6.625,-9.563c0,-0.062 0.063,-0.125 0.063,-0.187c-0,-0.25 -0.25,-0.438 -0.438,-0.438c-0.312,0 -1.625,0.125 -2.187,0.125c-0.563,0 -0.938,-0.125 -1.188,-0.125c-0.312,0 -0.75,0.125 -0.75,0.625c0,4 -3.25,8.563 -4.062,9.688c-0.125,0.125 -0.25,0.312 -0.25,0.5c-0,0.312 0.25,0.625 0.625,0.625l5.625,-0l-0,1.937c-0,0.875 -0.5,1.125 -1,1.125c-0.563,0 -0.813,0.25 -0.813,0.563c0,0.312 0.125,0.687 0.688,0.687l5.375,0c0.312,0 0.625,-0.25 0.625,-0.687c-0,-0.438 -0.375,-0.625 -0.688,-0.625c-0.312,-0 -1,-0.188 -1,-1.188l0,-1.812l2.313,-0c0.312,-0 0.5,-0.25 0.5,-0.625c-0,-0.375 -0.125,-0.625 -0.5,-0.625l-2.313,-0" style="fill-rule:nonzero;"/></g><g><path d="M1215.82,32.604c-3.438,0 -4.938,2.313 -4.938,3.625c0,0.875 0.5,1.938 2.063,2c1.187,0 1.75,-0.75 1.75,-1.562l-0,-0.25c-0.063,-0.938 -0.688,-1 -0.813,-1.063c-0.125,-0.062 -0.375,-0.312 -0.375,-0.75c0.125,-0.687 1.063,-0.937 1.313,-0.937c3.187,-0 4.125,1.687 4.125,2.75c-0,2.937 -3,3.187 -3.938,3.25c-0.437,-0 -0.875,0.187 -0.875,0.562c0,0.375 0.563,0.375 0.813,0.375c3.625,0 4.125,1.875 4.125,2.813c-0,3.625 -2.938,3.75 -3.688,3.75c-0.375,-0 -1,-0.188 -1.062,-0.5l-0,-0.375c-0,-0.688 0.187,-1.438 0.25,-2.063c-0,-1.125 -0.75,-1.812 -1.875,-1.812l-0.25,-0c-0.438,0.125 -0.875,0.375 -1.188,0.687c-0.437,0.375 -0.562,0.938 -0.562,1.5c0.062,2 1.812,3.688 4.937,3.75l0.375,0c3.063,0 6.25,-1.625 6.25,-4.375c0,-0.625 -0.125,-1.125 -0.312,-1.5c-0.125,-0.375 -0.375,-0.687 -0.625,-0.937c-0.188,-0.25 -0.438,-0.438 -0.688,-0.625l-0.687,-0.375l-0.375,-0.125c-0.125,-0 -0.188,-0.063 -0.313,-0.063l-0.375,-0.125c-0.187,-0.062 -0.25,0 -0.312,-0.125c-0.063,-0.062 -0.063,-0.125 -0.063,-0.187c0,-0.125 0.063,-0.25 0.188,-0.25l1,-0.313c0.437,-0.25 0.875,-0.437 1.187,-0.875c0.5,-0.5 0.688,-1.312 0.688,-2c-0,-2.937 -3.875,-3.75 -5.25,-3.875l-0.5,0" style="fill-rule:nonzero;"/></g><g><path d="M1289.51,50.909c-0,-0.438 -0.188,-0.5 -0.375,-0.5c-0.25,-0 -0.375,0.187 -0.438,0.375c-0.312,0.875 -1,2 -1.937,2c-0.125,-0 -0.25,-0 -0.375,-0.063l-0.938,-0.312c-0.625,-0.25 -2.125,-0.75 -3.375,-0.75c-0.437,-0 -0.812,0.062 -1.187,0.187c0.687,-1.187 3.937,-2.75 4.625,-2.937c2.25,-0.313 4.125,-1.625 4.125,-4.063c-0,-1.5 -0.625,-2.5 -1.438,-3.25c-1.625,-1.312 -4,-1.5 -4.687,-1.5c-2.25,0 -4.063,0.125 -5.688,2c-0.437,0.5 -0.625,1 -0.625,1.5c0,0.438 0.188,0.938 0.375,1.5c0.375,0.75 1.188,1.313 2.063,1.313c1.562,-0 1.75,-1.5 1.75,-2.188c-0,-1.437 -1.563,-1.562 -1.563,-2.187c0,-0.438 0.625,-1.188 2.5,-1.188c2.938,0 3.938,2.438 3.938,3.188c-0,1.125 -0.375,2.187 -1,3.062c-1.125,1.438 -3.188,1.938 -4.75,2.938c-1.75,1.062 -2.938,2.875 -3.5,4.875c-0,0.437 0.187,0.937 0.562,1.125c0.063,0.062 0.188,0.062 0.25,0.062c0.688,0 1.063,-1.937 2.938,-1.937c1.25,-0 1.687,1.687 4.5,1.687c1.312,0 3.75,-0.125 4.25,-4.937" style="fill-rule:nonzero;"/></g><g><path d="M1329.61,55.292c0,-0 -0.062,0.25 -0.062,0.437c-0,0.25 0.25,0.5 0.5,0.5c0.187,0 0.312,-0.187 0.375,-0.25c0.062,-0.187 0.812,-2.75 1.187,-3.375c0.125,-0.25 0.25,-0.312 0.313,-0.312c0.125,-0 0.187,0.25 0.187,0.437l0,8.938c0,0.75 -0.625,1.187 -1.25,1.187c-0.25,0 -0.562,0.125 -0.562,0.5c-0,0.375 0.312,0.5 0.812,0.5l5.25,0c0.5,0 0.5,-0.5 0.5,-0.5c0,0 0,-0.5 -0.5,-0.5c-0.437,0 -1,-0.562 -1,-1.125l0,-13c0,-0.5 -0.187,-0.75 -0.625,-0.75c-0.437,0 -0.812,0.125 -1.187,0.125c-0.625,0 -0.75,0 -1.25,-0.125c-0.25,0 -0.563,0.375 -0.75,0.625l-1.938,6.688" style="fill-rule:nonzero;"/></g><g><path d="M1377.63,66.028l0,-6.688c0,-0.312 -0.062,-0.562 -0.375,-0.562c-0.25,-0 -0.437,0.062 -0.625,0.312l-1.875,3.625c-0.125,0.125 -0.312,0.313 -0.312,0.75l-0,2.563l-4.063,-0c2.563,-2.125 6.563,-9.188 6.625,-9.563c0,-0.062 0.063,-0.125 0.063,-0.187c-0,-0.25 -0.25,-0.438 -0.438,-0.438c-0.312,0 -1.625,0.125 -2.187,0.125c-0.563,0 -0.938,-0.125 -1.188,-0.125c-0.312,0 -0.75,0.125 -0.75,0.625c0,4 -3.25,8.563 -4.062,9.688c-0.125,0.125 -0.25,0.312 -0.25,0.5c-0,0.312 0.25,0.625 0.625,0.625l5.625,-0l-0,1.937c-0,0.875 -0.5,1.125 -1,1.125c-0.563,0 -0.813,0.25 -0.813,0.563c0,0.312 0.125,0.687 0.688,0.687l5.375,0c0.312,0 0.625,-0.25 0.625,-0.687c-0,-0.438 -0.375,-0.625 -0.688,-0.625c-0.312,-0 -1,-0.188 -1,-1.188l0,-1.812l2.313,-0c0.312,-0 0.5,-0.25 0.5,-0.625c-0,-0.375 -0.125,-0.625 -0.5,-0.625l-2.313,-0" style="fill-rule:nonzero;"/></g><g><path d="M1421.61,74.159c0,-0.438 -0.187,-0.5 -0.375,-0.5c-0.25,-0 -0.375,0.187 -0.437,0.375c-0.313,0.875 -1,2 -1.938,2c-0.125,-0 -0.25,-0 -0.375,-0.063l-0.937,-0.312c-0.625,-0.25 -2.125,-0.75 -3.375,-0.75c-0.438,-0 -0.813,0.062 -1.188,0.187c0.688,-1.187 3.938,-2.75 4.625,-2.937c2.25,-0.313 4.125,-1.625 4.125,-4.063c0,-1.5 -0.625,-2.5 -1.437,-3.25c-1.625,-1.312 -4,-1.5 -4.688,-1.5c-2.25,0 -4.062,0.125 -5.687,2c-0.438,0.5 -0.625,1 -0.625,1.5c-0,0.438 0.187,0.938 0.375,1.5c0.375,0.75 1.187,1.313 2.062,1.313c1.563,-0 1.75,-1.5 1.75,-2.188c0,-1.437 -1.562,-1.562 -1.562,-2.187c-0,-0.438 0.625,-1.188 2.5,-1.188c2.937,0 3.937,2.438 3.937,3.188c0,1.125 -0.375,2.187 -1,3.062c-1.125,1.438 -3.187,1.938 -4.75,2.938c-1.75,1.062 -2.937,2.875 -3.5,4.875c0,0.437 0.188,0.937 0.563,1.125c0.062,0.062 0.187,0.062 0.25,0.062c0.687,0 1.062,-1.937 2.937,-1.937c1.25,-0 1.688,1.687 4.5,1.687c1.313,0 3.75,-0.125 4.25,-4.937" style="fill-rule:nonzero;"/></g><g><path d="M1452.94,78.542c-0,-0 -0.063,0.25 -0.063,0.437c0,0.25 0.25,0.5 0.5,0.5c0.188,0 0.313,-0.187 0.375,-0.25c0.063,-0.187 0.813,-2.75 1.188,-3.375c0.125,-0.25 0.25,-0.312 0.312,-0.312c0.125,-0 0.188,0.25 0.188,0.437l-0,8.938c-0,0.75 -0.625,1.187 -1.25,1.187c-0.25,0 -0.563,0.125 -0.563,0.5c0,0.375 0.313,0.5 0.813,0.5l5.25,0c0.5,0 0.5,-0.5 0.5,-0.5c-0,0 -0,-0.5 -0.5,-0.5c-0.438,0 -1,-0.562 -1,-1.125l-0,-13c-0,-0.5 -0.188,-0.75 -0.625,-0.75c-0.438,0 -0.813,0.125 -1.188,0.125c-0.625,0 -0.75,0 -1.25,-0.125c-0.25,0 -0.562,0.375 -0.75,0.625l-1.937,6.688" style="fill-rule:nonzero;"/></g><g><path d="M1500.97,89.278l-0,-6.688c-0,-0.312 -0.063,-0.562 -0.375,-0.562c-0.25,-0 -0.438,0.062 -0.625,0.312l-1.875,3.625c-0.125,0.125 -0.313,0.313 -0.313,0.75l0,2.563l-4.062,-0c2.562,-2.125 6.562,-9.188 6.625,-9.563c-0,-0.062 0.062,-0.125 0.062,-0.187c0,-0.25 -0.25,-0.438 -0.437,-0.438c-0.313,0 -1.625,0.125 -2.188,0.125c-0.562,0 -0.937,-0.125 -1.187,-0.125c-0.313,0 -0.75,0.125 -0.75,0.625c-0,4 -3.25,8.563 -4.063,9.688c-0.125,0.125 -0.25,0.312 -0.25,0.5c0,0.312 0.25,0.625 0.625,0.625l5.625,-0l0,1.937c0,0.875 -0.5,1.125 -1,1.125c-0.562,0 -0.812,0.25 -0.812,0.563c-0,0.312 0.125,0.687 0.687,0.687l5.375,0c0.313,0 0.625,-0.25 0.625,-0.687c0,-0.438 -0.375,-0.625 -0.687,-0.625c-0.313,-0 -1,-0.188 -1,-1.188l-0,-1.812l2.312,-0c0.313,-0 0.5,-0.25 0.5,-0.625c0,-0.375 -0.125,-0.625 -0.5,-0.625l-2.312,-0" style="fill-rule:nonzero;"/></g><g><path d="M1542.08,89.292l0,-6.688c0,-0.312 -0.062,-0.562 -0.375,-0.562c-0.25,-0 -0.437,0.062 -0.625,0.312l-1.875,3.625c-0.125,0.125 -0.312,0.313 -0.312,0.75l-0,2.563l-4.063,-0c2.563,-2.125 6.563,-9.188 6.625,-9.563c0,-0.062 0.063,-0.125 0.063,-0.187c-0,-0.25 -0.25,-0.438 -0.438,-0.438c-0.312,0 -1.625,0.125 -2.187,0.125c-0.563,0 -0.938,-0.125 -1.188,-0.125c-0.312,0 -0.75,0.125 -0.75,0.625c0,4 -3.25,8.563 -4.062,9.688c-0.125,0.125 -0.25,0.312 -0.25,0.5c-0,0.312 0.25,0.625 0.625,0.625l5.625,-0l-0,1.937c-0,0.875 -0.5,1.125 -1,1.125c-0.563,0 -0.813,0.25 -0.813,0.563c0,0.312 0.125,0.687 0.688,0.687l5.375,0c0.312,0 0.625,-0.25 0.625,-0.687c-0,-0.438 -0.375,-0.625 -0.688,-0.625c-0.312,-0 -1,-0.188 -1,-1.188l0,-1.812l2.313,-0c0.312,-0 0.5,-0.25 0.5,-0.625c-0,-0.375 -0.125,-0.625 -0.5,-0.625l-2.313,-0" style="fill-rule:nonzero;"/></g><g><path d="M1586.06,89.917c0,-0.438 -0.187,-0.5 -0.375,-0.5c-0.25,-0 -0.375,0.187 -0.437,0.375c-0.313,0.875 -1,2 -1.938,2c-0.125,-0 -0.25,-0 -0.375,-0.063l-0.937,-0.312c-0.625,-0.25 -2.125,-0.75 -3.375,-0.75c-0.438,-0 -0.813,0.062 -1.188,0.187c0.688,-1.187 3.938,-2.75 4.625,-2.937c2.25,-0.313 4.125,-1.625 4.125,-4.063c0,-1.5 -0.625,-2.5 -1.437,-3.25c-1.625,-1.312 -4,-1.5 -4.688,-1.5c-2.25,0 -4.062,0.125 -5.687,2c-0.438,0.5 -0.625,1 -0.625,1.5c-0,0.438 0.187,0.938 0.375,1.5c0.375,0.75 1.187,1.313 2.062,1.313c1.563,-0 1.75,-1.5 1.75,-2.188c0,-1.437 -1.562,-1.562 -1.562,-2.187c-0,-0.438 0.625,-1.188 2.5,-1.188c2.937,0 3.937,2.438 3.937,3.188c0,1.125 -0.375,2.187 -1,3.062c-1.125,1.438 -3.187,1.938 -4.75,2.938c-1.75,1.062 -2.937,2.875 -3.5,4.875c0,0.437 0.188,0.937 0.563,1.125c0.062,0.062 0.187,0.062 0.25,0.062c0.687,0 1.062,-1.937 2.937,-1.937c1.25,-0 1.688,1.687 4.5,1.687c1.313,0 3.75,-0.125 4.25,-4.937" style="fill-rule:nonzero;"/></g><g><path d="M1619.95,86.354c0,0 -0.062,0.25 -0.062,0.438c-0,0.25 0.25,0.5 0.5,0.5c0.187,-0 0.312,-0.188 0.375,-0.25c0.062,-0.188 0.812,-2.75 1.187,-3.375c0.125,-0.25 0.25,-0.313 0.313,-0.313c0.125,0 0.187,0.25 0.187,0.438l0,8.937c0,0.75 -0.625,1.188 -1.25,1.188c-0.25,-0 -0.562,0.125 -0.562,0.5c-0,0.375 0.312,0.5 0.812,0.5l5.25,-0c0.5,-0 0.5,-0.5 0.5,-0.5c0,-0 0,-0.5 -0.5,-0.5c-0.437,-0 -1,-0.563 -1,-1.125l0,-13c0,-0.5 -0.187,-0.75 -0.625,-0.75c-0.437,-0 -0.812,0.125 -1.187,0.125c-0.625,-0 -0.75,-0 -1.25,-0.125c-0.25,-0 -0.563,0.375 -0.75,0.625l-1.938,6.687" style="fill-rule:nonzero;"/></g><g><path d="M1667.98,77.638l0,-6.687c0,-0.313 -0.062,-0.563 -0.375,-0.563c-0.25,0 -0.437,0.063 -0.625,0.313l-1.875,3.625c-0.125,0.125 -0.312,0.312 -0.312,0.75l-0,2.562l-4.063,0c2.563,-2.125 6.563,-9.187 6.625,-9.562c0,-0.063 0.063,-0.125 0.063,-0.188c-0,-0.25 -0.25,-0.437 -0.438,-0.437c-0.312,-0 -1.625,0.125 -2.187,0.125c-0.563,-0 -0.938,-0.125 -1.188,-0.125c-0.312,-0 -0.75,0.125 -0.75,0.625c0,4 -3.25,8.562 -4.062,9.687c-0.125,0.125 -0.25,0.313 -0.25,0.5c-0,0.313 0.25,0.625 0.625,0.625l5.625,0l-0,1.938c-0,0.875 -0.5,1.125 -1,1.125c-0.563,-0 -0.813,0.25 -0.813,0.562c0,0.313 0.125,0.688 0.688,0.688l5.375,-0c0.312,-0 0.625,-0.25 0.625,-0.688c-0,-0.437 -0.375,-0.625 -0.688,-0.625c-0.312,0 -1,-0.187 -1,-1.187l0,-1.813l2.313,0c0.312,0 0.5,-0.25 0.5,-0.625c-0,-0.375 -0.125,-0.625 -0.5,-0.625l-2.313,0" style="fill-rule:nonzero;"/></g><g><path d="M1711.96,81.547c0,-0.438 -0.187,-0.5 -0.375,-0.5c-0.25,-0 -0.375,0.187 -0.437,0.375c-0.313,0.875 -1,2 -1.938,2c-0.125,-0 -0.25,-0 -0.375,-0.063l-0.937,-0.312c-0.625,-0.25 -2.125,-0.75 -3.375,-0.75c-0.438,-0 -0.813,0.062 -1.188,0.187c0.688,-1.187 3.938,-2.75 4.625,-2.937c2.25,-0.313 4.125,-1.625 4.125,-4.063c0,-1.5 -0.625,-2.5 -1.437,-3.25c-1.625,-1.312 -4,-1.5 -4.688,-1.5c-2.25,0 -4.062,0.125 -5.687,2c-0.438,0.5 -0.625,1 -0.625,1.5c-0,0.438 0.187,0.938 0.375,1.5c0.375,0.75 1.187,1.313 2.062,1.313c1.563,-0 1.75,-1.5 1.75,-2.188c0,-1.437 -1.562,-1.562 -1.562,-2.187c-0,-0.438 0.625,-1.188 2.5,-1.188c2.937,0 3.937,2.438 3.937,3.188c0,1.125 -0.375,2.187 -1,3.062c-1.125,1.438 -3.187,1.938 -4.75,2.938c-1.75,1.062 -2.937,2.875 -3.5,4.875c0,0.437 0.188,0.937 0.563,1.125c0.062,0.062 0.187,0.062 0.25,0.062c0.687,0 1.062,-1.937 2.937,-1.937c1.25,-0 1.688,1.687 4.5,1.687c1.313,0 3.75,-0.125 4.25,-4.937" style="fill-rule:nonzero;"/></g><g><path d="M1743.29,84.232c-0,-0 -0.063,0.25 -0.063,0.437c0,0.25 0.25,0.5 0.5,0.5c0.188,0 0.313,-0.187 0.375,-0.25c0.063,-0.187 0.813,-2.75 1.188,-3.375c0.125,-0.25 0.25,-0.312 0.312,-0.312c0.125,-0 0.188,0.25 0.188,0.437l-0,8.938c-0,0.75 -0.625,1.187 -1.25,1.187c-0.25,0 -0.563,0.125 -0.563,0.5c0,0.375 0.313,0.5 0.813,0.5l5.25,0c0.5,0 0.5,-0.5 0.5,-0.5c-0,0 -0,-0.5 -0.5,-0.5c-0.438,0 -1,-0.562 -1,-1.125l-0,-13c-0,-0.5 -0.188,-0.75 -0.625,-0.75c-0.438,0 -0.813,0.125 -1.188,0.125c-0.625,0 -0.75,0 -1.25,-0.125c-0.25,0 -0.562,0.375 -0.75,0.625l-1.937,6.688" style="fill-rule:nonzero;"/></g><g><path d="M221.857,218.979c5.562,0 12.375,-5.125 12.375,-10.437c-0,-3.188 -2.5,-5.188 -6.063,-5.188c-6.875,0 -12.375,5.063 -12.375,10.438c0,3.25 2.688,5.187 6.063,5.187" style="fill-rule:nonzero;"/></g><g><path d="M262.969,211.229c5.562,0 12.375,-5.125 12.375,-10.437c-0,-3.188 -2.5,-5.188 -6.063,-5.188c-6.875,0 -12.375,5.063 -12.375,10.438c0,3.25 2.688,5.187 6.063,5.187" style="fill-rule:nonzero;"/></g><g><path d="M304.081,203.479c5.563,0 12.375,-5.125 12.375,-10.437c0,-3.188 -2.5,-5.188 -6.062,-5.188c-6.875,0 -12.375,5.063 -12.375,10.438c-0,3.25 2.687,5.187 6.062,5.187" style="fill-rule:nonzero;"/></g><g><path d="M338.963,190.729c-0.375,1.25 -3.313,2.5 -4.75,2.5c-0.375,0 -0.688,-0.125 -0.75,-0.312c-0.125,-0.25 -0.188,-1.625 -0.188,-3.125c0,-1.938 0.063,-4.125 0.188,-4.625c0.125,-1.063 3,-2.375 4.562,-2.375c0.438,-0 0.813,0.125 0.938,0.375c0.125,0.312 0.25,1.875 0.25,3.562c-0,1.688 -0.125,3.438 -0.25,4m4.312,-10.187c0.438,-0.188 0.75,-0.688 0.75,-1.063l0,-4.437c0,-0.313 -0.187,-0.5 -0.437,-0.5c-0.125,-0 -0.188,-0 -0.313,0.062c0,0 -1.25,0.5 -1.562,0.563c-0.438,-0 -0.875,-0.313 -0.875,-0.813l-0,-7.625c-0,-0.375 -0.375,-0.687 -0.875,-0.687c-0.625,-0 -1,0.312 -1,0.687l-0,8.125c-0.063,0.625 -0.25,1.438 -0.813,1.813c-0.75,0.437 -2.875,1.312 -3.937,1.562c-0.563,0 -0.75,-0.75 -0.75,-1.25l-0,-7.5c-0,-0.375 -0.438,-0.687 -0.875,-0.687c-0.625,-0 -1,0.312 -1,0.687l-0,8.438c-0,0.875 -0.375,1.5 -0.75,1.687c-0.375,0.188 -1.625,0.688 -1.625,0.688c-0.438,0.125 -0.75,0.625 -0.75,1l-0,4.437c-0,0.375 0.187,0.563 0.5,0.563c0.25,-0 1.437,-0.563 1.625,-0.688c0.062,0 0.125,-0.062 0.187,-0.062c0.438,-0 0.813,0.625 0.813,1.125l-0,6.187c-0,0.688 -0.313,1.25 -0.688,1.438c-0.375,0.125 -1.687,0.687 -1.687,0.687c-0.438,0.125 -0.75,0.625 -0.75,1l-0,4.438c-0,0.375 0.187,0.562 0.5,0.562c0.062,0 0.187,-0.062 0.25,-0.062c-0,-0 0.875,-0.375 1.437,-0.563c0.063,-0.062 0.125,-0.062 0.188,-0.062c0.437,-0 0.75,0.687 0.75,1l-0,7.687c-0,0.375 0.375,0.688 0.812,0.688c0.625,-0 1.063,-0.313 1.063,-0.688l-0,-8.687c-0,-0.813 0.312,-1.25 0.625,-1.375l3.812,-1.563c0.063,0 0.188,-0.062 0.25,-0.062c0.5,-0 0.813,0.75 0.813,1.125l-0,7.812c-0,0.375 0.375,0.688 0.812,0.688c0.688,-0 1.063,-0.313 1.063,-0.688l-0,-8.875c-0,-0.5 0.25,-1.25 0.687,-1.437c0.438,-0.188 1.75,-0.688 1.75,-0.688c0.438,-0.187 0.75,-0.687 0.75,-1.062l0,-4.438c0,-0.312 -0.187,-0.5 -0.437,-0.5c-0.125,0 -0.188,0 -0.313,0.063l-1.625,0.625c-0.375,-0 -0.812,-0.375 -0.812,-1.125l-0,-5.813c-0,-0.437 0.312,-1.625 0.812,-1.812l1.625,-0.625" style="fill-rule:nonzero;"/></g><g><path d="M353.953,195.729c5.563,0 12.375,-5.125 12.375,-10.437c0,-3.188 -2.5,-5.188 -6.062,-5.188c-6.875,0 -12.375,5.063 -12.375,10.438c-0,3.25 2.687,5.187 6.062,5.187" style="fill-rule:nonzero;"/></g><g><path d="M395.066,187.979c5.562,0 12.375,-5.125 12.375,-10.437c-0,-3.188 -2.5,-5.188 -6.063,-5.188c-6.875,0 -12.375,5.063 -12.375,10.438c0,3.25 2.688,5.187 6.063,5.187" style="fill-rule:nonzero;"/></g><g><path d="M436.178,180.229c5.563,0 12.375,-5.125 12.375,-10.437c0,-3.188 -2.5,-5.188 -6.062,-5.188c-6.875,0 -12.375,5.063 -12.375,10.438c-0,3.25 2.687,5.187 6.062,5.187" style="fill-rule:nonzero;"/></g><g><path d="M477.291,172.479c5.562,0 12.375,-5.125 12.375,-10.437c-0,-3.188 -2.5,-5.188 -6.063,-5.188c-6.875,0 -12.375,5.063 -12.375,10.438c0,3.25 2.688,5.187 6.063,5.187" style="fill-rule:nonzero;"/></g><g><path d="M518.403,164.729c5.563,0 12.375,-5.125 12.375,-10.437c0,-3.188 -2.5,-5.188 -6.062,-5.188c-6.875,0 -12.375,5.063 -12.375,10.438c-0,3.25 2.687,5.187 6.062,5.187" style="fill-rule:nonzero;"/></g><g><path d="M559.516,156.979c5.562,0 12.375,-5.125 12.375,-10.437c-0,-3.188 -2.5,-5.188 -6.063,-5.188c-6.875,0 -12.375,5.063 -12.375,10.438c0,3.25 2.688,5.187 6.063,5.187" style="fill-rule:nonzero;"/></g><g><path d="M600.628,149.229c5.563,0 12.375,-5.125 12.375,-10.437c0,-3.188 -2.5,-5.188 -6.062,-5.188c-6.875,0 -12.375,5.063 -12.375,10.438c-0,3.25 2.687,5.187 6.062,5.187" style="fill-rule:nonzero;"/></g><g><path d="M629.341,136.479c-0.375,1.25 -3.313,2.5 -4.75,2.5c-0.375,0 -0.688,-0.125 -0.75,-0.312c-0.125,-0.25 -0.188,-1.625 -0.188,-3.125c0,-1.938 0.063,-4.125 0.188,-4.625c0.125,-1.063 3,-2.375 4.562,-2.375c0.438,-0 0.813,0.125 0.938,0.375c0.125,0.312 0.25,1.875 0.25,3.562c-0,1.688 -0.125,3.438 -0.25,4m4.312,-10.187c0.438,-0.188 0.75,-0.688 0.75,-1.063l0,-4.437c0,-0.313 -0.187,-0.5 -0.437,-0.5c-0.125,-0 -0.188,-0 -0.313,0.062c0,0 -1.25,0.5 -1.562,0.563c-0.438,-0 -0.875,-0.313 -0.875,-0.813l-0,-7.625c-0,-0.375 -0.375,-0.687 -0.875,-0.687c-0.625,-0 -1,0.312 -1,0.687l-0,8.125c-0.063,0.625 -0.25,1.438 -0.813,1.813c-0.75,0.437 -2.875,1.312 -3.937,1.562c-0.563,0 -0.75,-0.75 -0.75,-1.25l-0,-7.5c-0,-0.375 -0.438,-0.687 -0.875,-0.687c-0.625,-0 -1,0.312 -1,0.687l-0,8.438c-0,0.875 -0.375,1.5 -0.75,1.687c-0.375,0.188 -1.625,0.688 -1.625,0.688c-0.438,0.125 -0.75,0.625 -0.75,1l-0,4.437c-0,0.375 0.187,0.563 0.5,0.563c0.25,-0 1.437,-0.563 1.625,-0.688c0.062,0 0.125,-0.062 0.187,-0.062c0.438,-0 0.813,0.625 0.813,1.125l-0,6.187c-0,0.688 -0.313,1.25 -0.688,1.438c-0.375,0.125 -1.687,0.687 -1.687,0.687c-0.438,0.125 -0.75,0.625 -0.75,1l-0,4.438c-0,0.375 0.187,0.562 0.5,0.562c0.062,0 0.187,-0.062 0.25,-0.062c-0,-0 0.875,-0.375 1.437,-0.563c0.063,-0.062 0.125,-0.062 0.188,-0.062c0.437,-0 0.75,0.687 0.75,1l-0,7.687c-0,0.375 0.375,0.688 0.812,0.688c0.625,-0 1.063,-0.313 1.063,-0.688l-0,-8.687c-0,-0.813 0.312,-1.25 0.625,-1.375l3.812,-1.563c0.063,0 0.188,-0.062 0.25,-0.062c0.5,-0 0.813,0.75 0.813,1.125l-0,7.812c-0,0.375 0.375,0.688 0.812,0.688c0.688,-0 1.063,-0.313 1.063,-0.688l-0,-8.875c-0,-0.5 0.25,-1.25 0.687,-1.437c0.438,-0.188 1.75,-0.688 1.75,-0.688c0.438,-0.187 0.75,-0.687 0.75,-1.062l0,-4.438c0,-0.312 -0.187,-0.5 -0.437,-0.5c-0.125,0 -0.188,0 -0.313,0.063l-1.625,0.625c-0.375,-0 -0.812,-0.375 -0.812,-1.125l-0,-5.813c-0,-0.437 0.312,-1.625 0.812,-1.812l1.625,-0.625" style="fill-rule:nonzero;"/></g><g><path d="M644.331,141.479c5.563,0 12.375,-5.125 12.375,-10.437c0,-3.188 -2.5,-5.188 -6.062,-5.188c-6.875,0 -12.375,5.063 -12.375,10.438c-0,3.25 2.687,5.187 6.062,5.187" style="fill-rule:nonzero;"/></g><g><path d="M685.444,133.729c5.562,0 12.375,-5.125 12.375,-10.437c-0,-3.188 -2.5,-5.188 -6.063,-5.188c-6.875,0 -12.375,5.063 -12.375,10.438c0,3.25 2.688,5.187 6.063,5.187" style="fill-rule:nonzero;"/></g><g><path d="M752.316,125.979c5.562,0 12.375,-5.125 12.375,-10.437c-0,-3.188 -2.5,-5.188 -6.063,-5.188c-6.875,0 -12.375,5.063 -12.375,10.438c0,3.25 2.688,5.187 6.063,5.187" style="fill-rule:nonzero;"/></g><g><path d="M793.428,118.229c5.563,0 12.375,-5.125 12.375,-10.437c0,-3.188 -2.5,-5.188 -6.062,-5.188c-6.875,0 -12.375,5.063 -12.375,10.438c-0,3.25 2.687,5.187 6.062,5.187" style="fill-rule:nonzero;"/></g><g><path d="M834.541,110.479c5.562,0 12.375,-5.125 12.375,-10.437c-0,-3.188 -2.5,-5.188 -6.063,-5.188c-6.875,0 -12.375,5.063 -12.375,10.438c0,3.25 2.688,5.187 6.063,5.187" style="fill-rule:nonzero;"/></g><g><path d="M875.653,102.729c5.563,0 12.375,-5.125 12.375,-10.437c0,-3.188 -2.5,-5.188 -6.062,-5.188c-6.875,0 -12.375,5.063 -12.375,10.438c-0,3.25 2.687,5.187 6.062,5.187" style="fill-rule:nonzero;"/></g><g><path d="M916.766,94.979c5.562,0 12.375,-5.125 12.375,-10.437c-0,-3.188 -2.5,-5.188 -6.063,-5.188c-6.875,0 -12.375,5.063 -12.375,10.438c0,3.25 2.688,5.187 6.063,5.187" style="fill-rule:nonzero;"/></g><g><path d="M951.65,82.229c-0.375,1.25 -3.312,2.5 -4.75,2.5c-0.375,0 -0.687,-0.125 -0.75,-0.312c-0.125,-0.25 -0.187,-1.625 -0.187,-3.125c-0,-1.938 0.062,-4.125 0.187,-4.625c0.125,-1.063 3,-2.375 4.563,-2.375c0.437,-0 0.812,0.125 0.937,0.375c0.125,0.312 0.25,1.875 0.25,3.562c0,1.688 -0.125,3.438 -0.25,4m4.313,-10.187c0.437,-0.188 0.75,-0.688 0.75,-1.063l-0,-4.437c-0,-0.313 -0.188,-0.5 -0.438,-0.5c-0.125,-0 -0.187,-0 -0.312,0.062c-0,0 -1.25,0.5 -1.563,0.563c-0.437,-0 -0.875,-0.313 -0.875,-0.813l0,-7.625c0,-0.375 -0.375,-0.687 -0.875,-0.687c-0.625,-0 -1,0.312 -1,0.687l0,8.125c-0.062,0.625 -0.25,1.438 -0.812,1.813c-0.75,0.437 -2.875,1.312 -3.938,1.562c-0.562,0 -0.75,-0.75 -0.75,-1.25l0,-7.5c0,-0.375 -0.437,-0.687 -0.875,-0.687c-0.625,-0 -1,0.312 -1,0.687l0,8.438c0,0.875 -0.375,1.5 -0.75,1.687c-0.375,0.188 -1.625,0.688 -1.625,0.688c-0.437,0.125 -0.75,0.625 -0.75,1l0,4.437c0,0.375 0.188,0.563 0.5,0.563c0.25,-0 1.438,-0.563 1.625,-0.688c0.063,0 0.125,-0.062 0.188,-0.062c0.437,-0 0.812,0.625 0.812,1.125l0,6.187c0,0.688 -0.312,1.25 -0.687,1.438c-0.375,0.125 -1.688,0.687 -1.688,0.687c-0.437,0.125 -0.75,0.625 -0.75,1l0,4.438c0,0.375 0.188,0.562 0.5,0.562c0.063,0 0.188,-0.062 0.25,-0.062c0,-0 0.875,-0.375 1.438,-0.563c0.062,-0.062 0.125,-0.062 0.187,-0.062c0.438,-0 0.75,0.687 0.75,1l0,7.687c0,0.375 0.375,0.688 0.813,0.688c0.625,-0 1.062,-0.313 1.062,-0.688l0,-8.687c0,-0.813 0.313,-1.25 0.625,-1.375l3.813,-1.563c0.062,0 0.187,-0.062 0.25,-0.062c0.5,-0 0.812,0.75 0.812,1.125l0,7.812c0,0.375 0.375,0.688 0.813,0.688c0.687,-0 1.062,-0.313 1.062,-0.688l0,-8.875c0,-0.5 0.25,-1.25 0.688,-1.437c0.437,-0.188 1.75,-0.688 1.75,-0.688c0.437,-0.187 0.75,-0.687 0.75,-1.062l-0,-4.438c-0,-0.312 -0.188,-0.5 -0.438,-0.5c-0.125,0 -0.187,0 -0.312,0.063l-1.625,0.625c-0.375,-0 -0.813,-0.375 -0.813,-1.125l0,-5.813c0,-0.437 0.313,-1.625 0.813,-1.812l1.625,-0.625" style="fill-rule:nonzero;"/></g><g><path d="M966.638,87.229c5.562,0 12.375,-5.125 12.375,-10.437c-0,-3.188 -2.5,-5.188 -6.063,-5.188c-6.875,0 -12.375,5.063 -12.375,10.438c0,3.25 2.688,5.187 6.063,5.187" style="fill-rule:nonzero;"/></g><g><path d="M1007.75,79.479c5.563,0 12.375,-5.125 12.375,-10.437c0,-3.188 -2.5,-5.188 -6.062,-5.188c-6.875,0 -12.375,5.063 -12.375,10.438c-0,3.25 2.687,5.187 6.062,5.187" style="fill-rule:nonzero;"/></g><g><path d="M1048.86,71.729c5.562,0 12.375,-5.125 12.375,-10.437c-0,-3.188 -2.5,-5.188 -6.063,-5.188c-6.875,0 -12.375,5.063 -12.375,10.438c0,3.25 2.688,5.187 6.063,5.187" style="fill-rule:nonzero;"/></g><g><path d="M1089.97,63.979c5.563,0 12.375,-5.125 12.375,-10.437c0,-3.188 -2.5,-5.188 -6.062,-5.188c-6.875,0 -12.375,5.063 -12.375,10.438c-0,3.25 2.687,5.187 6.062,5.187" style="fill-rule:nonzero;"/></g><g><path d="M1131.09,56.229c5.562,0 12.375,-5.125 12.375,-10.437c-0,-3.188 -2.5,-5.188 -6.063,-5.188c-6.875,0 -12.375,5.063 -12.375,10.438c0,3.25 2.688,5.187 6.063,5.187" style="fill-rule:nonzero;"/></g><g><path d="M1172.2,63.979c5.563,0 12.375,-5.125 12.375,-10.437c0,-3.188 -2.5,-5.188 -6.062,-5.188c-6.875,0 -12.375,5.063 -12.375,10.438c-0,3.25 2.687,5.187 6.062,5.187" style="fill-rule:nonzero;"/></g><g><path d="M1213.31,71.729c5.562,0 12.375,-5.125 12.375,-10.437c-0,-3.188 -2.5,-5.188 -6.063,-5.188c-6.875,0 -12.375,5.063 -12.375,10.438c0,3.25 2.688,5.187 6.063,5.187" style="fill-rule:nonzero;"/></g><g><path d="M1280.17,79.479c5.562,0 12.375,-5.125 12.375,-10.437c-0,-3.188 -2.5,-5.188 -6.063,-5.188c-6.875,0 -12.375,5.063 -12.375,10.438c0,3.25 2.688,5.187 6.063,5.187" style="fill-rule:nonzero;"/></g><g><path d="M1315.05,82.229c-0.375,1.25 -3.313,2.5 -4.75,2.5c-0.375,0 -0.688,-0.125 -0.75,-0.312c-0.125,-0.25 -0.188,-1.625 -0.188,-3.125c0,-1.938 0.063,-4.125 0.188,-4.625c0.125,-1.063 3,-2.375 4.562,-2.375c0.438,-0 0.813,0.125 0.938,0.375c0.125,0.312 0.25,1.875 0.25,3.562c-0,1.688 -0.125,3.438 -0.25,4m4.312,-10.187c0.438,-0.188 0.75,-0.688 0.75,-1.063l0,-4.437c0,-0.313 -0.187,-0.5 -0.437,-0.5c-0.125,-0 -0.188,-0 -0.313,0.062c0,0 -1.25,0.5 -1.562,0.563c-0.438,-0 -0.875,-0.313 -0.875,-0.813l-0,-7.625c-0,-0.375 -0.375,-0.687 -0.875,-0.687c-0.625,-0 -1,0.312 -1,0.687l-0,8.125c-0.063,0.625 -0.25,1.438 -0.813,1.813c-0.75,0.437 -2.875,1.312 -3.937,1.562c-0.563,0 -0.75,-0.75 -0.75,-1.25l-0,-7.5c-0,-0.375 -0.438,-0.687 -0.875,-0.687c-0.625,-0 -1,0.312 -1,0.687l-0,8.438c-0,0.875 -0.375,1.5 -0.75,1.687c-0.375,0.188 -1.625,0.688 -1.625,0.688c-0.438,0.125 -0.75,0.625 -0.75,1l-0,4.437c-0,0.375 0.187,0.563 0.5,0.563c0.25,-0 1.437,-0.563 1.625,-0.688c0.062,0 0.125,-0.062 0.187,-0.062c0.438,-0 0.813,0.625 0.813,1.125l-0,6.187c-0,0.688 -0.313,1.25 -0.688,1.438c-0.375,0.125 -1.687,0.687 -1.687,0.687c-0.438,0.125 -0.75,0.625 -0.75,1l-0,4.438c-0,0.375 0.187,0.562 0.5,0.562c0.062,0 0.187,-0.062 0.25,-0.062c-0,-0 0.875,-0.375 1.437,-0.563c0.063,-0.062 0.125,-0.062 0.188,-0.062c0.437,-0 0.75,0.687 0.75,1l-0,7.687c-0,0.375 0.375,0.688 0.812,0.688c0.625,-0 1.063,-0.313 1.063,-0.688l-0,-8.687c-0,-0.813 0.312,-1.25 0.625,-1.375l3.812,-1.563c0.063,0 0.188,-0.062 0.25,-0.062c0.5,-0 0.813,0.75 0.813,1.125l-0,7.812c-0,0.375 0.375,0.688 0.812,0.688c0.688,-0 1.063,-0.313 1.063,-0.688l-0,-8.875c-0,-0.5 0.25,-1.25 0.687,-1.437c0.438,-0.188 1.75,-0.688 1.75,-0.688c0.438,-0.187 0.75,-0.687 0.75,-1.062l0,-4.438c0,-0.312 -0.187,-0.5 -0.437,-0.5c-0.125,0 -0.188,0 -0.313,0.063l-1.625,0.625c-0.375,-0 -0.812,-0.375 -0.812,-1.125l-0,-5.813c-0,-0.437 0.312,-1.625 0.812,-1.812l1.625,-0.625" style="fill-rule:nonzero;"/></g><g><path d="M1330.04,87.229c5.562,0 12.375,-5.125 12.375,-10.437c-0,-3.188 -2.5,-5.188 -6.063,-5.188c-6.875,0 -12.375,5.063 -12.375,10.438c0,3.25 2.688,5.187 6.063,5.187" style="fill-rule:nonzero;"/></g><g><path d="M1371.15,94.979c5.563,0 12.375,-5.125 12.375,-10.437c0,-3.188 -2.5,-5.188 -6.062,-5.188c-6.875,0 -12.375,5.063 -12.375,10.438c-0,3.25 2.687,5.187 6.062,5.187" style="fill-rule:nonzero;"/></g><g><path d="M1412.26,102.729c5.562,0 12.375,-5.125 12.375,-10.437c-0,-3.188 -2.5,-5.188 -6.063,-5.188c-6.875,0 -12.375,5.063 -12.375,10.438c0,3.25 2.688,5.187 6.063,5.187" style="fill-rule:nonzero;"/></g><g><path d="M1453.38,110.479c5.563,0 12.375,-5.125 12.375,-10.437c0,-3.188 -2.5,-5.188 -6.062,-5.188c-6.875,0 -12.375,5.063 -12.375,10.438c-0,3.25 2.687,5.187 6.062,5.187" style="fill-rule:nonzero;"/></g><g><path d="M1494.49,118.229c5.562,0 12.375,-5.125 12.375,-10.437c-0,-3.188 -2.5,-5.188 -6.063,-5.188c-6.875,0 -12.375,5.063 -12.375,10.438c0,3.25 2.688,5.187 6.063,5.187" style="fill-rule:nonzero;"/></g><g><path d="M1535.6,125.979c5.563,0 12.375,-5.125 12.375,-10.437c0,-3.188 -2.5,-5.188 -6.062,-5.188c-6.875,0 -12.375,5.063 -12.375,10.438c-0,3.25 2.687,5.187 6.062,5.187" style="fill-rule:nonzero;"/></g><g><path d="M1576.71,133.729c5.562,0 12.375,-5.125 12.375,-10.437c-0,-3.188 -2.5,-5.188 -6.063,-5.188c-6.875,0 -12.375,5.063 -12.375,10.438c0,3.25 2.688,5.187 6.063,5.187" style="fill-rule:nonzero;"/></g><g><path d="M1605.39,136.479c-0.375,1.25 -3.313,2.5 -4.75,2.5c-0.375,0 -0.688,-0.125 -0.75,-0.312c-0.125,-0.25 -0.188,-1.625 -0.188,-3.125c0,-1.938 0.063,-4.125 0.188,-4.625c0.125,-1.063 3,-2.375 4.562,-2.375c0.438,-0 0.813,0.125 0.938,0.375c0.125,0.312 0.25,1.875 0.25,3.562c-0,1.688 -0.125,3.438 -0.25,4m4.312,-10.187c0.438,-0.188 0.75,-0.688 0.75,-1.063l0,-4.437c0,-0.313 -0.187,-0.5 -0.437,-0.5c-0.125,-0 -0.188,-0 -0.313,0.062c0,0 -1.25,0.5 -1.562,0.563c-0.438,-0 -0.875,-0.313 -0.875,-0.813l-0,-7.625c-0,-0.375 -0.375,-0.687 -0.875,-0.687c-0.625,-0 -1,0.312 -1,0.687l-0,8.125c-0.063,0.625 -0.25,1.438 -0.813,1.813c-0.75,0.437 -2.875,1.312 -3.937,1.562c-0.563,0 -0.75,-0.75 -0.75,-1.25l-0,-7.5c-0,-0.375 -0.438,-0.687 -0.875,-0.687c-0.625,-0 -1,0.312 -1,0.687l-0,8.438c-0,0.875 -0.375,1.5 -0.75,1.687c-0.375,0.188 -1.625,0.688 -1.625,0.688c-0.438,0.125 -0.75,0.625 -0.75,1l-0,4.437c-0,0.375 0.187,0.563 0.5,0.563c0.25,-0 1.437,-0.563 1.625,-0.688c0.062,0 0.125,-0.062 0.187,-0.062c0.438,-0 0.813,0.625 0.813,1.125l-0,6.187c-0,0.688 -0.313,1.25 -0.688,1.438c-0.375,0.125 -1.687,0.687 -1.687,0.687c-0.438,0.125 -0.75,0.625 -0.75,1l-0,4.438c-0,0.375 0.187,0.562 0.5,0.562c0.062,0 0.187,-0.062 0.25,-0.062c-0,-0 0.875,-0.375 1.437,-0.563c0.063,-0.062 0.125,-0.062 0.188,-0.062c0.437,-0 0.75,0.687 0.75,1l-0,7.687c-0,0.375 0.375,0.688 0.812,0.688c0.625,-0 1.063,-0.313 1.063,-0.688l-0,-8.687c-0,-0.813 0.312,-1.25 0.625,-1.375l3.812,-1.563c0.063,0 0.188,-0.062 0.25,-0.062c0.5,-0 0.813,0.75 0.813,1.125l-0,7.812c-0,0.375 0.375,0.688 0.812,0.688c0.688,-0 1.063,-0.313 1.063,-0.688l-0,-8.875c-0,-0.5 0.25,-1.25 0.687,-1.437c0.438,-0.188 1.75,-0.688 1.75,-0.688c0.438,-0.187 0.75,-0.687 0.75,-1.062l0,-4.438c0,-0.312 -0.187,-0.5 -0.437,-0.5c-0.125,0 -0.188,0 -0.313,0.063l-1.625,0.625c-0.375,-0 -0.812,-0.375 -0.812,-1.125l-0,-5.813c-0,-0.437 0.312,-1.625 0.812,-1.812l1.625,-0.625" style="fill-rule:nonzero;"/></g><g><path d="M1620.38,141.479c5.563,0 12.375,-5.125 12.375,-10.437c0,-3.188 -2.5,-5.188 -6.062,-5.188c-6.875,0 -12.375,5.063 -12.375,10.438c-0,3.25 2.687,5.187 6.062,5.187" style="fill-rule:nonzero;"/></g><g><path d="M1661.49,149.229c5.562,0 12.375,-5.125 12.375,-10.437c-0,-3.188 -2.5,-5.188 -6.063,-5.188c-6.875,0 -12.375,5.063 -12.375,10.438c0,3.25 2.688,5.187 6.063,5.187" style="fill-rule:nonzero;"/></g><g><path d="M1702.61,156.979c5.563,0 12.375,-5.125 12.375,-10.437c0,-3.188 -2.5,-5.188 -6.062,-5.188c-6.875,0 -12.375,5.063 -12.375,10.438c-0,3.25 2.687,5.187 6.062,5.187" style="fill-rule:nonzero;"/></g><g><path d="M1743.72,164.729c5.562,0 12.375,-5.125 12.375,-10.437c-0,-3.188 -2.5,-5.188 -6.063,-5.188c-6.875,0 -12.375,5.063 -12.375,10.438c0,3.25 2.688,5.187 6.063,5.187" style="fill-rule:nonzero;"/></g><g><path d="M161.563,140.542c0.187,1.187 0.187,1.125 -0.938,1.5c-5.5,1.875 -9.063,6.812 -9.063,12.125c0,5.625 2.938,9.625 7.188,11.062c0.5,0.188 1.25,0.375 1.687,0.375c0.5,0 0.75,-0.312 0.75,-0.687c0,-0.438 -0.5,-0.625 -0.937,-0.813c-2.625,-1.125 -4.5,-3.812 -4.5,-6.687c-0,-3.563 2.437,-6.25 6.25,-7.313c1,-0.25 1.125,-0.187 1.25,0.5l3.125,18.625c0.125,0.688 0.062,0.688 -0.875,0.875c-1,0.188 -2.25,0.313 -3.5,0.313c-10.938,-0 -18,-6.063 -18,-14.75c-0,-3.688 0.625,-8.625 5.812,-14.5c3.75,-4.188 6.625,-6.5 9.563,-8.875c0.625,-0.5 0.75,-0.438 0.875,0.25l1.312,8m6.813,-42.563c2.062,0 3.75,1.688 3.75,5.125c-0,6.938 -5.938,12.563 -10.875,16.875c-0.438,0.375 -0.688,0.313 -0.813,-0.5c-0.25,-1.625 -0.375,-3.75 -0.375,-5.75c0,-9.75 4.5,-15.75 8.313,-15.75m-2.5,52.5c-0.125,-0.75 -0.063,-0.937 0.687,-0.875c5.063,0.438 9.25,4.688 9.25,10.188c0,3.937 -2.375,7.125 -5.875,8.875c-0.75,0.375 -0.875,0.375 -1,-0.375l-3.062,-17.813m-3.375,-19.5c-0.125,-0.75 -0,-0.812 0.375,-1.187c6.75,-6.313 11.875,-14.25 11.875,-23.813c-0,-5.437 -1.5,-10.812 -4.063,-14.562c-0.937,-1.375 -2.562,-3.125 -3.25,-3.125c-0.875,-0 -2.812,1.625 -4.062,3c-4.625,5.125 -6.125,12.937 -6.125,19.437c-0,3.625 0.437,7.688 0.875,10.25c0.125,0.75 0.187,0.875 -0.563,1.5c-9,7.438 -18.562,16.375 -18.562,29c-0,10.875 7.437,21.188 22.75,21.188c1.437,-0 3.062,-0.125 4.312,-0.375c0.688,-0.125 0.813,-0.188 0.938,0.562c0.75,4.188 1.687,9.625 1.687,12.563c0,9.25 -6.25,10.375 -9.937,10.375c-3.375,-0 -5,-1 -5,-1.813c-0,-0.437 0.562,-0.625 2,-1.062c1.937,-0.563 4.187,-2.25 4.187,-5.875c0,-3.438 -2.187,-6.375 -6,-6.375c-4.187,-0 -6.687,3.312 -6.687,7.187c-0,4.063 2.437,10.188 11.875,10.188c4.187,-0 12.312,-1.875 12.312,-12.5c0,-3.563 -1.125,-9.5 -1.812,-13.375c-0.125,-0.75 -0.063,-0.688 0.812,-1.063c6.313,-2.5 10.5,-7.812 10.5,-14.875c0,-8 -5.875,-15.062 -15.062,-15.062c-1.625,-0 -1.625,-0 -1.813,-1.125l-1.562,-9.063" style="fill-rule:nonzero;"/></g><g><text x="256.882px" y="239.589px" style="font-family:'Bravura';font-size:62.5px;"></text></g><g><text x="388.978px" y="216.339px" style="font-family:'Bravura';font-size:62.5px;"></text></g><g><text x="512.316px" y="199.728px" style="font-family:'Bravura';font-size:62.5px;"></text></g><g><text x="627.731px" y="214.646px" style="font-family:'Bravura';font-size:62.5px;"></text></g><g><text x="778.125px" y="199.729px" style="font-family:'Bravura';font-size:62.5px;"></text></g><g><text x="905.844px" y="199.729px" style="font-family:'Bravura';font-size:62.5px;"></text></g><g><text x="1033.56px" y="199.729px" style="font-family:'Bravura';font-size:62.5px;"></text></g><g><text x="1156.9px" y="199.729px" style="font-family:'Bravura';font-size:62.5px;"></text></g><g><text x="1310.35px" y="199.729px" style="font-family:'Bravura';font-size:62.5px;"></text></g><g><text x="1438.07px" y="199.729px" style="font-family:'Bravura';font-size:62.5px;"></text></g><g><text x="1562.69px" y="209.204px" style="font-family:'Bravura';font-size:62.5px;"></text></g><g><text x="1696.52px" y="199.729px" style="font-family:'Bravura';font-size:62.5px;"></text></g><g><path d="M232.375,149.167l0,-7.785l84.063,-7.75l-0,7.785l-84.063,7.75" style="fill-rule:nonzero;"/></g><g><path d="M364.469,133.667l-0,-7.785l84.094,-7.75l-0,7.785l-84.094,7.75" style="fill-rule:nonzero;"/></g><g><path d="M487.813,118.167l-0,-7.888l84.062,-15.499l0,7.887l-84.063,15.5" style="fill-rule:nonzero;"/></g><g><path d="M594.563,191.863l-0,-7.821l86.687,-11.625l0,7.821l-86.688,11.625" style="fill-rule:nonzero;"/></g><g><path d="M746.25,176.429l0,-7.887l84.094,-15.5l-0,7.887l-84.094,15.5" style="fill-rule:nonzero;"/></g><g><path d="M869.594,149.195l-0,-7.778l92.843,-7.75l0,7.778l-92.843,7.75" style="fill-rule:nonzero;"/></g><g><path d="M1001.69,145.301l-0,-7.759l84.093,-3.875l0,7.759l-84.093,3.875" style="fill-rule:nonzero;"/></g><g><path d="M1125.03,141.451l0,-7.784l84.094,7.75l0,7.784l-84.094,-7.75" style="fill-rule:nonzero;"/></g><g><path d="M1274.09,141.445l-0,-7.778l92.843,7.75l0,7.778l-92.843,-7.75" style="fill-rule:nonzero;"/></g><g><path d="M1406.19,156.951l-0.001,-7.784l84.094,7.75l0,7.784l-84.094,-7.75" style="fill-rule:nonzero;"/></g><g><path d="M1529.53,172.545l0,-7.878l86.657,15.5l-0,7.878l-86.657,-15.5" style="fill-rule:nonzero;"/></g><g><path d="M1672,98.792l0,-7.828l84.094,11.625l-0,7.828l-84.094,-11.625" style="fill-rule:nonzero;"/></g><g><path d="M210.688,237.954l38.562,-6.778l0,-2.522l-36.094,6.344l0,-8.669l-2.469,0" style="fill-rule:nonzero;"/></g><g><path d="M317.688,218.979l-34.688,6.075l0,-2.522l32.219,-5.85l-0,-9.328l2.469,0" style="fill-rule:nonzero;"/></g><g><path d="M342.781,214.704l38.563,-6.778l-0,-2.522l-36.094,6.344l0,-8.669l-2.469,0" style="fill-rule:nonzero;"/></g><g><path d="M449.781,195.729l-34.687,6.075l-0,-2.522l32.219,-5.85l-0,-9.328l2.468,0" style="fill-rule:nonzero;"/></g><g><path d="M466.125,188.292l38.438,-0.025l-0,-2.482l-35.969,0.025l-0,-9.143l-2.469,-0" style="fill-rule:nonzero;"/></g><g><path d="M573.125,188.217l-34.562,0.025l-0,-2.482l32.093,-0.022l0,-9.146l2.469,-0" style="fill-rule:nonzero;"/></g><g><path d="M1650.31,188.254l38.468,0l0,-2.478l-35.969,-0l0,-9.147l-2.5,0" style="fill-rule:nonzero;"/></g><g><path d="M1757.34,188.254l-34.594,0l0,-2.478l32.094,-0l-0,-9.147l2.5,0" style="fill-rule:nonzero;"/></g><g><path d="M131.25,327.417l406.281,-0" style="fill:none;stroke:#000;stroke-width:2.02px;"/><path d="M131.25,342.917l406.281,-0" style="fill:none;stroke:#000;stroke-width:2.02px;"/><path d="M131.25,358.417l406.281,-0" style="fill:none;stroke:#000;stroke-width:2.02px;"/><path d="M131.25,373.917l406.281,-0" style="fill:none;stroke:#000;stroke-width:2.02px;"/><path d="M131.25,389.417l406.281,-0" style="fill:none;stroke:#000;stroke-width:2.02px;"/></g><g><path d="M527.594,326.41l-0,64.013" style="fill:none;stroke:#000;stroke-width:2.48px;"/><path d="M536.281,326.41l0,64.013" style="fill:none;stroke:#000;stroke-width:2.48px;"/></g><g><path d="M233.281,327.238l0,51.825" style="fill:none;stroke:#000;stroke-width:1.86px;"/><path d="M269.125,334.988l0,51.825" style="fill:none;stroke:#000;stroke-width:1.86px;"/><path d="M304.969,342.738l-0,51.825" style="fill:none;stroke:#000;stroke-width:1.86px;"/><path d="M348.656,354.498l0,47.815" style="fill:none;stroke:#000;stroke-width:1.86px;"/></g><g><path d="M328.563,404.917l27.218,-0" style="fill:none;stroke:#000;stroke-width:2.48px;"/></g><g><path d="M384.5,358.373l0,51.69" style="fill:none;stroke:#000;stroke-width:1.86px;"/></g><g><path d="M360.781,404.917l30.844,-0" style="fill:none;stroke:#000;stroke-width:2.48px;"/></g><g><path d="M420.313,362.248l-0,55.565" style="fill:none;stroke:#000;stroke-width:1.86px;"/></g><g><path d="M396.625,420.417l30.844,-0" style="fill:none;stroke:#000;stroke-width:2.48px;"/><path d="M396.625,404.917l30.844,-0" style="fill:none;stroke:#000;stroke-width:2.48px;"/></g><g><path d="M456.156,358.417l0,67.146" style="fill:none;stroke:#000;stroke-width:1.86px;"/></g><g><path d="M432.469,420.417l30.844,-0" style="fill:none;stroke:#000;stroke-width:2.48px;"/><path d="M432.469,404.917l30.844,-0" style="fill:none;stroke:#000;stroke-width:2.48px;"/></g><g><path d="M228.337,306.292l-0,-6.688c-0,-0.312 -0.063,-0.562 -0.375,-0.562c-0.25,-0 -0.438,0.062 -0.625,0.312l-1.875,3.625c-0.125,0.125 -0.313,0.313 -0.313,0.75l0,2.563l-4.062,-0c2.562,-2.125 6.562,-9.188 6.625,-9.563c-0,-0.062 0.062,-0.125 0.062,-0.187c0,-0.25 -0.25,-0.438 -0.437,-0.438c-0.313,0 -1.625,0.125 -2.188,0.125c-0.562,0 -0.937,-0.125 -1.187,-0.125c-0.313,0 -0.75,0.125 -0.75,0.625c-0,4 -3.25,8.563 -4.063,9.688c-0.125,0.125 -0.25,0.312 -0.25,0.5c0,0.312 0.25,0.625 0.625,0.625l5.625,-0l0,1.937c0,0.875 -0.5,1.125 -1,1.125c-0.562,0 -0.812,0.25 -0.812,0.563c-0,0.312 0.125,0.687 0.687,0.687l5.375,0c0.313,0 0.625,-0.25 0.625,-0.687c0,-0.438 -0.375,-0.625 -0.687,-0.625c-0.313,-0 -1,-0.188 -1,-1.188l-0,-1.812l2.312,-0c0.313,-0 0.5,-0.25 0.5,-0.625c0,-0.375 -0.125,-0.625 -0.5,-0.625l-2.312,-0" style="fill-rule:nonzero;"/></g><g><path d="M264.177,306.292l-0,-6.688c-0,-0.312 -0.063,-0.562 -0.375,-0.562c-0.25,-0 -0.438,0.062 -0.625,0.312l-1.875,3.625c-0.125,0.125 -0.313,0.313 -0.313,0.75l0,2.563l-4.062,-0c2.562,-2.125 6.562,-9.188 6.625,-9.563c-0,-0.062 0.062,-0.125 0.062,-0.187c0,-0.25 -0.25,-0.438 -0.437,-0.438c-0.313,0 -1.625,0.125 -2.188,0.125c-0.562,0 -0.937,-0.125 -1.187,-0.125c-0.313,0 -0.75,0.125 -0.75,0.625c-0,4 -3.25,8.563 -4.063,9.688c-0.125,0.125 -0.25,0.312 -0.25,0.5c0,0.312 0.25,0.625 0.625,0.625l5.625,-0l0,1.937c0,0.875 -0.5,1.125 -1,1.125c-0.562,0 -0.812,0.25 -0.812,0.563c-0,0.312 0.125,0.687 0.687,0.687l5.375,0c0.313,0 0.625,-0.25 0.625,-0.687c0,-0.438 -0.375,-0.625 -0.687,-0.625c-0.313,-0 -1,-0.188 -1,-1.188l-0,-1.812l2.312,-0c0.313,-0 0.5,-0.25 0.5,-0.625c0,-0.375 -0.125,-0.625 -0.5,-0.625l-2.312,-0" style="fill-rule:nonzero;"/></g><g><path d="M302.884,306.917c-0,-0.438 -0.188,-0.5 -0.375,-0.5c-0.25,-0 -0.375,0.187 -0.438,0.375c-0.312,0.875 -1,2 -1.937,2c-0.125,-0 -0.25,-0 -0.375,-0.063l-0.938,-0.312c-0.625,-0.25 -2.125,-0.75 -3.375,-0.75c-0.437,-0 -0.812,0.062 -1.187,0.187c0.687,-1.187 3.937,-2.75 4.625,-2.937c2.25,-0.313 4.125,-1.625 4.125,-4.063c-0,-1.5 -0.625,-2.5 -1.438,-3.25c-1.625,-1.312 -4,-1.5 -4.687,-1.5c-2.25,0 -4.063,0.125 -5.688,2c-0.437,0.5 -0.625,1 -0.625,1.5c0,0.438 0.188,0.938 0.375,1.5c0.375,0.75 1.188,1.313 2.063,1.313c1.562,-0 1.75,-1.5 1.75,-2.188c-0,-1.437 -1.563,-1.562 -1.563,-2.187c0,-0.438 0.625,-1.188 2.5,-1.188c2.938,0 3.938,2.438 3.938,3.188c-0,1.125 -0.375,2.187 -1,3.062c-1.125,1.438 -3.188,1.938 -4.75,2.938c-1.75,1.062 -2.938,2.875 -3.5,4.875c-0,0.437 0.187,0.937 0.562,1.125c0.063,0.062 0.188,0.062 0.25,0.062c0.688,0 1.063,-1.937 2.938,-1.937c1.25,-0 1.687,1.687 4.5,1.687c1.312,0 3.75,-0.125 4.25,-4.937" style="fill-rule:nonzero;"/></g><g><path d="M336.778,303.354c0,0 -0.062,0.25 -0.062,0.438c-0,0.25 0.25,0.5 0.5,0.5c0.187,-0 0.312,-0.188 0.375,-0.25c0.062,-0.188 0.812,-2.75 1.187,-3.375c0.125,-0.25 0.25,-0.313 0.313,-0.313c0.125,0 0.187,0.25 0.187,0.438l0,8.937c0,0.75 -0.625,1.188 -1.25,1.188c-0.25,-0 -0.562,0.125 -0.562,0.5c-0,0.375 0.312,0.5 0.812,0.5l5.25,-0c0.5,-0 0.5,-0.5 0.5,-0.5c0,-0 0,-0.5 -0.5,-0.5c-0.437,-0 -1,-0.563 -1,-1.125l0,-13c0,-0.5 -0.187,-0.75 -0.625,-0.75c-0.437,-0 -0.812,0.125 -1.187,0.125c-0.625,-0 -0.75,-0 -1.25,-0.125c-0.25,-0 -0.563,0.375 -0.75,0.625l-1.938,6.687" style="fill-rule:nonzero;"/></g><g><path d="M379.528,306.292l0,-6.688c0,-0.312 -0.062,-0.562 -0.375,-0.562c-0.25,-0 -0.437,0.062 -0.625,0.312l-1.875,3.625c-0.125,0.125 -0.312,0.313 -0.312,0.75l-0,2.563l-4.063,-0c2.563,-2.125 6.563,-9.188 6.625,-9.563c0,-0.062 0.063,-0.125 0.063,-0.187c-0,-0.25 -0.25,-0.438 -0.438,-0.438c-0.312,0 -1.625,0.125 -2.187,0.125c-0.563,0 -0.938,-0.125 -1.188,-0.125c-0.312,0 -0.75,0.125 -0.75,0.625c0,4 -3.25,8.563 -4.062,9.688c-0.125,0.125 -0.25,0.312 -0.25,0.5c-0,0.312 0.25,0.625 0.625,0.625l5.625,-0l-0,1.937c-0,0.875 -0.5,1.125 -1,1.125c-0.563,0 -0.813,0.25 -0.813,0.563c0,0.312 0.125,0.687 0.688,0.687l5.375,0c0.312,0 0.625,-0.25 0.625,-0.687c-0,-0.438 -0.375,-0.625 -0.688,-0.625c-0.312,-0 -1,-0.188 -1,-1.188l0,-1.812l2.313,-0c0.312,-0 0.5,-0.25 0.5,-0.625c-0,-0.375 -0.125,-0.625 -0.5,-0.625l-2.313,-0" style="fill-rule:nonzero;"/></g><g><path d="M418.234,306.917c0,-0.438 -0.187,-0.5 -0.375,-0.5c-0.25,-0 -0.375,0.187 -0.437,0.375c-0.313,0.875 -1,2 -1.938,2c-0.125,-0 -0.25,-0 -0.375,-0.063l-0.937,-0.312c-0.625,-0.25 -2.125,-0.75 -3.375,-0.75c-0.438,-0 -0.813,0.062 -1.188,0.187c0.688,-1.187 3.938,-2.75 4.625,-2.937c2.25,-0.313 4.125,-1.625 4.125,-4.063c0,-1.5 -0.625,-2.5 -1.437,-3.25c-1.625,-1.312 -4,-1.5 -4.688,-1.5c-2.25,0 -4.062,0.125 -5.687,2c-0.438,0.5 -0.625,1 -0.625,1.5c-0,0.438 0.187,0.938 0.375,1.5c0.375,0.75 1.187,1.313 2.062,1.313c1.563,-0 1.75,-1.5 1.75,-2.188c0,-1.437 -1.562,-1.562 -1.562,-2.187c-0,-0.438 0.625,-1.188 2.5,-1.188c2.937,0 3.937,2.438 3.937,3.188c0,1.125 -0.375,2.187 -1,3.062c-1.125,1.438 -3.187,1.938 -4.75,2.938c-1.75,1.062 -2.937,2.875 -3.5,4.875c0,0.437 0.188,0.937 0.563,1.125c0.062,0.062 0.187,0.062 0.25,0.062c0.687,0 1.062,-1.937 2.937,-1.937c1.25,-0 1.688,1.687 4.5,1.687c1.313,0 3.75,-0.125 4.25,-4.937" style="fill-rule:nonzero;"/></g><g><path d="M444.3,303.354c0,0 -0.062,0.25 -0.062,0.438c-0,0.25 0.25,0.5 0.5,0.5c0.187,-0 0.312,-0.188 0.375,-0.25c0.062,-0.188 0.812,-2.75 1.187,-3.375c0.125,-0.25 0.25,-0.313 0.313,-0.313c0.125,0 0.187,0.25 0.187,0.438l0,8.937c0,0.75 -0.625,1.188 -1.25,1.188c-0.25,-0 -0.562,0.125 -0.562,0.5c-0,0.375 0.312,0.5 0.812,0.5l5.25,-0c0.5,-0 0.5,-0.5 0.5,-0.5c0,-0 0,-0.5 -0.5,-0.5c-0.437,-0 -1,-0.563 -1,-1.125l0,-13c0,-0.5 -0.187,-0.75 -0.625,-0.75c-0.437,-0 -0.812,0.125 -1.187,0.125c-0.625,-0 -0.75,-0 -1.25,-0.125c-0.25,-0 -0.563,0.375 -0.75,0.625l-1.938,6.687" style="fill-rule:nonzero;"/></g><g><path d="M221.857,389.478c5.562,0 12.375,-5.125 12.375,-10.437c-0,-3.188 -2.5,-5.188 -6.063,-5.188c-6.875,0 -12.375,5.063 -12.375,10.438c0,3.25 2.688,5.187 6.063,5.187" style="fill-rule:nonzero;"/></g><g><path d="M257.696,397.228c5.563,0 12.375,-5.125 12.375,-10.437c0,-3.188 -2.5,-5.188 -6.062,-5.188c-6.875,0 -12.375,5.063 -12.375,10.438c-0,3.25 2.687,5.187 6.062,5.187" style="fill-rule:nonzero;"/></g><g><path d="M293.536,404.978c5.563,0 12.375,-5.125 12.375,-10.437c0,-3.188 -2.5,-5.188 -6.062,-5.188c-6.875,0 -12.375,5.063 -12.375,10.438c-0,3.25 2.687,5.187 6.062,5.187" style="fill-rule:nonzero;"/></g><g><path d="M322.219,407.728c-0.375,1.25 -3.313,2.5 -4.75,2.5c-0.375,0 -0.688,-0.125 -0.75,-0.312c-0.125,-0.25 -0.188,-1.625 -0.188,-3.125c0,-1.938 0.063,-4.125 0.188,-4.625c0.125,-1.063 3,-2.375 4.562,-2.375c0.438,-0 0.813,0.125 0.938,0.375c0.125,0.312 0.25,1.875 0.25,3.562c-0,1.688 -0.125,3.438 -0.25,4m4.312,-10.187c0.438,-0.188 0.75,-0.688 0.75,-1.063l0,-4.437c0,-0.313 -0.187,-0.5 -0.437,-0.5c-0.125,-0 -0.188,-0 -0.313,0.062c0,0 -1.25,0.5 -1.562,0.563c-0.438,-0 -0.875,-0.313 -0.875,-0.813l-0,-7.625c-0,-0.375 -0.375,-0.687 -0.875,-0.687c-0.625,-0 -1,0.312 -1,0.687l-0,8.125c-0.063,0.625 -0.25,1.438 -0.813,1.813c-0.75,0.437 -2.875,1.312 -3.937,1.562c-0.563,0 -0.75,-0.75 -0.75,-1.25l-0,-7.5c-0,-0.375 -0.438,-0.687 -0.875,-0.687c-0.625,-0 -1,0.312 -1,0.687l-0,8.438c-0,0.875 -0.375,1.5 -0.75,1.687c-0.375,0.188 -1.625,0.688 -1.625,0.688c-0.438,0.125 -0.75,0.625 -0.75,1l-0,4.437c-0,0.375 0.187,0.563 0.5,0.563c0.25,-0 1.437,-0.563 1.625,-0.688c0.062,0 0.125,-0.062 0.187,-0.062c0.438,-0 0.813,0.625 0.813,1.125l-0,6.187c-0,0.688 -0.313,1.25 -0.688,1.438c-0.375,0.125 -1.687,0.687 -1.687,0.687c-0.438,0.125 -0.75,0.625 -0.75,1l-0,4.438c-0,0.375 0.187,0.562 0.5,0.562c0.062,0 0.187,-0.062 0.25,-0.062c-0,-0 0.875,-0.375 1.437,-0.563c0.063,-0.062 0.125,-0.062 0.188,-0.062c0.437,-0 0.75,0.687 0.75,1l-0,7.687c-0,0.375 0.375,0.688 0.812,0.688c0.625,-0 1.063,-0.313 1.063,-0.688l-0,-8.687c-0,-0.813 0.312,-1.25 0.625,-1.375l3.812,-1.563c0.063,0 0.188,-0.062 0.25,-0.062c0.5,-0 0.813,0.75 0.813,1.125l-0,7.812c-0,0.375 0.375,0.688 0.812,0.688c0.688,-0 1.063,-0.313 1.063,-0.688l-0,-8.875c-0,-0.5 0.25,-1.25 0.687,-1.437c0.438,-0.188 1.75,-0.688 1.75,-0.688c0.438,-0.187 0.75,-0.687 0.75,-1.062l0,-4.438c0,-0.312 -0.187,-0.5 -0.437,-0.5c-0.125,0 -0.188,0 -0.313,0.063l-1.625,0.625c-0.375,-0 -0.812,-0.375 -0.812,-1.125l-0,-5.813c-0,-0.437 0.312,-1.625 0.812,-1.812l1.625,-0.625" style="fill-rule:nonzero;"/></g><g><path d="M337.209,412.728c5.563,0 12.375,-5.125 12.375,-10.437c0,-3.188 -2.5,-5.188 -6.062,-5.188c-6.875,0 -12.375,5.063 -12.375,10.438c-0,3.25 2.687,5.187 6.062,5.187" style="fill-rule:nonzero;"/></g><g><path d="M373.047,420.478c5.562,0 12.375,-5.125 12.375,-10.437c-0,-3.188 -2.5,-5.188 -6.063,-5.188c-6.875,0 -12.375,5.063 -12.375,10.438c0,3.25 2.688,5.187 6.063,5.187" style="fill-rule:nonzero;"/></g><g><path d="M408.888,428.228c5.562,0 12.375,-5.125 12.375,-10.437c-0,-3.188 -2.5,-5.188 -6.063,-5.188c-6.875,0 -12.375,5.063 -12.375,10.438c0,3.25 2.688,5.187 6.063,5.187" style="fill-rule:nonzero;"/></g><g><path d="M443.353,433.603c-1.312,0 -2.062,-0.687 -2.5,-1.437c-0.187,-0.375 -0.375,-0.813 -0.375,-1.25c0,-3.063 9.063,-8 12,-8c1.188,-0 1.875,0.562 2.313,1.312c0.187,0.375 0.375,0.75 0.375,1.188c-0,2.687 -8.813,8.187 -11.813,8.187m1.375,2.375c10.313,0 12.375,-8.375 12.375,-10.437c0,-3.188 -2.562,-5.188 -6.187,-5.188c-9.313,0 -12.25,7.188 -12.25,10.438c-0,3.312 2.625,5.187 6.062,5.187" style="fill-rule:nonzero;"/></g><g><path d="M161.563,357.541c0.187,1.187 0.187,1.125 -0.938,1.5c-5.5,1.875 -9.063,6.812 -9.063,12.125c0,5.625 2.938,9.625 7.188,11.062c0.5,0.188 1.25,0.375 1.687,0.375c0.5,0 0.75,-0.312 0.75,-0.687c0,-0.438 -0.5,-0.625 -0.937,-0.813c-2.625,-1.125 -4.5,-3.812 -4.5,-6.687c-0,-3.563 2.437,-6.25 6.25,-7.313c1,-0.25 1.125,-0.187 1.25,0.5l3.125,18.625c0.125,0.688 0.062,0.688 -0.875,0.875c-1,0.188 -2.25,0.313 -3.5,0.313c-10.938,-0 -18,-6.063 -18,-14.75c-0,-3.688 0.625,-8.625 5.812,-14.5c3.75,-4.188 6.625,-6.5 9.563,-8.875c0.625,-0.5 0.75,-0.438 0.875,0.25l1.312,8m6.813,-42.563c2.062,0 3.75,1.688 3.75,5.125c-0,6.938 -5.938,12.563 -10.875,16.875c-0.438,0.375 -0.688,0.313 -0.813,-0.5c-0.25,-1.625 -0.375,-3.75 -0.375,-5.75c0,-9.75 4.5,-15.75 8.313,-15.75m-2.5,52.5c-0.125,-0.75 -0.063,-0.937 0.687,-0.875c5.063,0.438 9.25,4.688 9.25,10.188c0,3.937 -2.375,7.125 -5.875,8.875c-0.75,0.375 -0.875,0.375 -1,-0.375l-3.062,-17.813m-3.375,-19.5c-0.125,-0.75 -0,-0.812 0.375,-1.187c6.75,-6.313 11.875,-14.25 11.875,-23.813c-0,-5.437 -1.5,-10.812 -4.063,-14.562c-0.937,-1.375 -2.562,-3.125 -3.25,-3.125c-0.875,-0 -2.812,1.625 -4.062,3c-4.625,5.125 -6.125,12.937 -6.125,19.437c-0,3.625 0.437,7.688 0.875,10.25c0.125,0.75 0.187,0.875 -0.563,1.5c-9,7.438 -18.562,16.375 -18.562,29c-0,10.875 7.437,21.188 22.75,21.188c1.437,-0 3.062,-0.125 4.312,-0.375c0.688,-0.125 0.813,-0.188 0.938,0.562c0.75,4.188 1.687,9.625 1.687,12.563c0,9.25 -6.25,10.375 -9.937,10.375c-3.375,-0 -5,-1 -5,-1.813c-0,-0.437 0.562,-0.625 2,-1.062c1.937,-0.563 4.187,-2.25 4.187,-5.875c0,-3.438 -2.187,-6.375 -6,-6.375c-4.187,-0 -6.687,3.312 -6.687,7.187c-0,4.063 2.437,10.188 11.875,10.188c4.187,-0 12.312,-1.875 12.312,-12.5c0,-3.563 -1.125,-9.5 -1.812,-13.375c-0.125,-0.75 -0.063,-0.688 0.812,-1.063c6.313,-2.5 10.5,-7.812 10.5,-14.875c0,-8 -5.875,-15.062 -15.062,-15.062c-1.625,-0 -1.625,-0 -1.813,-1.125l-1.562,-9.063" style="fill-rule:nonzero;"/></g><g><text x="251.609px" y="426.597px" style="font-family:'Bravura';font-size:62.5px;"></text></g><g><text x="366.959px" y="449.847px" style="font-family:'Bravura';font-size:62.5px;"></text></g><g><path d="M232.375,331.292l0,-7.929l73.531,15.5l0,7.929l-73.531,-15.5" style="fill-rule:nonzero;"/></g><g><path d="M347.719,358.417l-0,-7.794l73.531,7.75l0,7.794l-73.531,-7.75" style="fill-rule:nonzero;"/></g><g><path d="M210.688,404.979l33.343,6.656l0,-2.534l-30.875,-6.159l0,-9.588l-2.469,0" style="fill-rule:nonzero;"/></g><g><path d="M307.156,424.463l-29.469,-5.85l0,-2.534l26.969,5.597l0,-8.838l2.5,0" style="fill-rule:nonzero;"/></g><g><path d="M326.031,428.229l33.344,6.656l0,-2.534l-30.875,-6.159l0,-9.588l-2.469,0" style="fill-rule:nonzero;"/></g><g><path d="M422.5,447.713l-29.469,-5.85l0,-2.534l27,5.597l0,-8.838l2.469,0" style="fill-rule:nonzero;"/></g></g></svg>