<?xml version="1.0" encoding="UTF-8" standalone="no"?><!DOCTYPE svg PUBLIC "-//W3C//DTD SVG 1.1//EN" "http://www.w3.org/Graphics/SVG/1.1/DTD/svg11.dtd"><svg width="100%" height="100%" viewBox="0 0 28724 7522" version="1.1" xmlns="http://www.w3.org/2000/svg" xmlns:xlink="http://www.w3.org/1999/xlink" xml:space="preserve" xmlns:serif="http://www.serif.com/" style="fill-rule:evenodd;clip-rule:evenodd;stroke-miterlimit:2;"><g><g><path d="M39.038,1485.7l28645.8,-0" style="fill:none;stroke:#000;stroke-width:34.92px;"/><path d="M39.038,1754.79l28645.8,-0" style="fill:none;stroke:#000;stroke-width:34.92px;"/><path d="M39.038,2023.89l28645.8,-0" style="fill:none;stroke:#000;stroke-width:34.92px;"/><path d="M39.038,2292.99l28645.8,-0" style="fill:none;stroke:#000;stroke-width:34.92px;"/><path d="M39.038,2562.08l28645.8,0" style="fill:none;stroke:#000;stroke-width:34.92px;"/></g><g><path d="M14871.4,1468.23l0,1111.32" style="fill:none;stroke:#000;stroke-width:43.04px;"/><path d="M28663.1,1468.23l0,1111.32" style="fill:none;stroke:#000;stroke-width:43.04px;"/></g><g><path d="M1810.41,2091.06l-0,1098.58" style="fill:none;stroke:#000;stroke-width:32.29px;"/></g><g><path d="M1399.16,3100.28l535.483,0" style="fill:none;stroke:#000;stroke-width:43.04px;"/><path d="M1399.16,2831.18l535.483,0" style="fill:none;stroke:#000;stroke-width:43.04px;"/></g><g><path d="M2703.97,2068.65l0,986.441" style="fill:none;stroke:#000;stroke-width:32.29px;"/></g><g><path d="M2355.65,3100.28l472.554,0" style="fill:none;stroke:#000;stroke-width:43.04px;"/><path d="M2292.72,2831.18l535.488,0" style="fill:none;stroke:#000;stroke-width:43.04px;"/></g><g><path d="M3597.51,2046.18l-0,874.359" style="fill:none;stroke:#000;stroke-width:32.29px;"/></g><g><path d="M3253.55,2831.18l468.195,0" style="fill:none;stroke:#000;stroke-width:43.04px;"/></g><g><path d="M4491.06,2023.78l0,896.755" style="fill:none;stroke:#000;stroke-width:32.29px;"/></g><g><path d="M4147.09,2831.18l468.213,0" style="fill:none;stroke:#000;stroke-width:43.04px;"/></g><g><path d="M5384.65,1820.28l0,965.713" style="fill:none;stroke:#000;stroke-width:32.29px;"/></g><g><path d="M5035.77,2831.18l472.555,0" style="fill:none;stroke:#000;stroke-width:43.04px;"/></g><g><path d="M6417.06,1652.14l0,999.304" style="fill:none;stroke:#000;stroke-width:32.29px;"/><path d="M7450.06,1483.91l0,898.438" style="fill:none;stroke:#000;stroke-width:32.29px;"/><path d="M8194.94,2338.18l0,762.534" style="fill:none;stroke:#000;stroke-width:32.29px;"/><path d="M9088.48,2203.63l-0,852.204" style="fill:none;stroke:#000;stroke-width:32.29px;"/><path d="M9982.06,2069.08l0,941.892" style="fill:none;stroke:#000;stroke-width:32.29px;"/><path d="M10875.1,2069.08l0,897.084" style="fill:none;stroke:#000;stroke-width:32.29px;"/><path d="M11768.1,1934.53l0,830.5" style="fill:none;stroke:#000;stroke-width:32.29px;"/><path d="M12800,1799.98l-0,830.571" style="fill:none;stroke:#000;stroke-width:32.29px;"/><path d="M13833,1530.89l-0,965.05" style="fill:none;stroke:#000;stroke-width:32.29px;"/><path d="M15313.5,1396.34l-0,898.333" style="fill:none;stroke:#000;stroke-width:32.29px;"/><path d="M16206.6,1261.8l0,943.179" style="fill:none;stroke:#000;stroke-width:32.29px;"/></g><g><path d="M16145.8,1216.6l472,-0" style="fill:none;stroke:#000;stroke-width:43.04px;"/></g><g><path d="M17100.1,1127.26l0,988.038" style="fill:none;stroke:#000;stroke-width:32.29px;"/></g><g><path d="M17043.7,1216.6l467.658,-0" style="fill:none;stroke:#000;stroke-width:43.04px;"/></g><g><path d="M17993.7,1127.26l0,898.317" style="fill:none;stroke:#000;stroke-width:32.29px;"/></g><g><path d="M17937.3,1216.6l467.671,-0" style="fill:none;stroke:#000;stroke-width:43.04px;"/></g><g><path d="M18886.8,992.708l0,1031.23" style="fill:none;stroke:#000;stroke-width:32.29px;"/></g><g><path d="M18826,947.5l472.554,0" style="fill:none;stroke:#000;stroke-width:43.04px;"/><path d="M18830.1,1216.6l468.213,-0" style="fill:none;stroke:#000;stroke-width:43.04px;"/></g><g><path d="M19919.1,858.158l0,1132.15" style="fill:none;stroke:#000;stroke-width:32.29px;"/></g><g><path d="M19862.6,947.5l468.196,0" style="fill:none;stroke:#000;stroke-width:43.04px;"/><path d="M19795.4,1216.6l535.471,-0" style="fill:none;stroke:#000;stroke-width:43.04px;"/></g><g><path d="M20952,589.063l0,1367.6" style="fill:none;stroke:#000;stroke-width:32.29px;"/></g><g><path d="M20828.4,678.404l535.483,0" style="fill:none;stroke:#000;stroke-width:43.04px;"/><path d="M20828.4,947.5l535.483,0" style="fill:none;stroke:#000;stroke-width:43.04px;"/><path d="M20828.4,1216.6l535.483,-0" style="fill:none;stroke:#000;stroke-width:43.04px;"/></g><g><path d="M21985,589.063l0,1367.66" style="fill:none;stroke:#000;stroke-width:32.29px;"/></g><g><path d="M21861.4,678.404l535.488,0" style="fill:none;stroke:#000;stroke-width:43.04px;"/><path d="M21861.4,947.5l535.488,0" style="fill:none;stroke:#000;stroke-width:43.04px;"/><path d="M21861.4,1216.6l535.488,-0" style="fill:none;stroke:#000;stroke-width:43.04px;"/></g><g><path d="M22878.6,723.613l-0,1255.52" style="fill:none;stroke:#000;stroke-width:32.29px;"/></g><g><path d="M22755,678.404l534.946,0" style="fill:none;stroke:#000;stroke-width:43.04px;"/><path d="M22755,947.5l534.946,0" style="fill:none;stroke:#000;stroke-width:43.04px;"/><path d="M22755,1216.6l534.946,-0" style="fill:none;stroke:#000;stroke-width:43.04px;"/></g><g><path d="M23772.2,858.158l0,1143.44" style="fill:none;stroke:#000;stroke-width:32.29px;"/></g><g><path d="M23715.8,947.5l467.659,0" style="fill:none;stroke:#000;stroke-width:43.04px;"/><path d="M23648.6,1216.6l534.929,-0" style="fill:none;stroke:#000;stroke-width:43.04px;"/></g><g><path d="M24665.8,992.708l0,1031.28" style="fill:none;stroke:#000;stroke-width:32.29px;"/></g><g><path d="M24542,947.5l534.929,0" style="fill:none;stroke:#000;stroke-width:43.04px;"/><path d="M24542,1216.6l534.929,-0" style="fill:none;stroke:#000;stroke-width:43.04px;"/></g><g><path d="M25559.3,1127.26l0,897.775" style="fill:none;stroke:#000;stroke-width:32.29px;"/></g><g><path d="M25435.6,1216.6l534.95,-0" style="fill:none;stroke:#000;stroke-width:43.04px;"/></g><g><path d="M26591.8,1261.8l0,897.763" style="fill:none;stroke:#000;stroke-width:32.29px;"/></g><g><path d="M26531,1216.6l472.55,-0" style="fill:none;stroke:#000;stroke-width:43.04px;"/></g><g><path d="M27624.8,1396.34l0,897.779" style="fill:none;stroke:#000;stroke-width:32.29px;"/></g><g><path d="M1604.61,1067.93c-0,0 -1.075,4.342 -1.075,7.604c-0,4.342 4.337,8.684 8.679,8.684c3.246,-0 5.417,-3.267 6.513,-4.342c1.075,-3.266 14.095,-47.746 20.604,-58.596c2.171,-4.337 4.341,-5.433 5.437,-5.433c2.167,0 3.246,4.342 3.246,7.604l0,155.159c0,13.02 -10.85,20.625 -21.704,20.625c-4.338,-0 -9.754,2.166 -9.754,8.679c-0,6.508 5.416,8.679 14.096,8.679l91.145,-0c8.68,-0 8.68,-8.679 8.68,-8.679c-0,-0 -0,-8.679 -8.68,-8.679c-7.587,-0 -17.362,-9.775 -17.362,-19.534l-0,-225.696c-0,-8.679 -3.246,-13.02 -10.85,-13.02c-7.588,-0 -14.096,2.17 -20.608,2.17c-10.85,0 -13.021,0 -21.7,-2.17c-4.342,-0 -9.775,6.512 -13.021,10.854l-33.646,116.091" style="fill-rule:nonzero;"/></g><g><path d="M2667.87,1129.79c0,-7.604 -3.245,-8.679 -6.508,-8.679c-4.342,-0 -6.512,3.245 -7.587,6.508c-5.434,15.192 -17.363,34.725 -33.646,34.725c-2.171,-0 -4.342,-0 -6.509,-1.096l-16.27,-5.417c-10.85,-4.341 -36.892,-13.02 -58.592,-13.02c-7.604,-0 -14.117,1.074 -20.625,3.245c11.946,-20.608 68.367,-47.741 80.296,-50.987c39.062,-5.433 71.612,-28.213 71.612,-70.538c0,-26.041 -10.85,-43.404 -24.946,-56.425c-28.212,-22.779 -69.445,-26.041 -81.391,-26.041c-39.063,-0 -70.521,2.171 -98.729,34.721c-7.605,8.683 -10.855,17.362 -10.855,26.041c0,7.604 3.25,16.288 6.513,26.042c6.508,13.021 20.608,22.796 35.8,22.796c27.133,-0 30.379,-26.042 30.379,-37.988c0,-24.946 -27.117,-27.116 -27.117,-37.966c0,-7.605 10.85,-20.625 43.405,-20.625c50.987,-0 68.35,42.325 68.35,55.345c-0,19.534 -6.513,37.971 -17.363,53.163c-19.529,24.962 -55.329,33.646 -82.467,51.004c-30.379,18.438 -50.987,49.913 -60.762,84.638c-0,7.587 3.262,16.266 9.775,19.529c1.075,1.079 3.246,1.079 4.342,1.079c11.925,-0 18.437,-33.629 50.987,-33.629c21.7,-0 29.304,29.287 78.125,29.287c22.796,0 65.104,-2.171 73.783,-85.712" style="fill-rule:nonzero;"/></g><g><path d="M3511.62,1118.94l0,-116.113c0,-5.416 -1.091,-9.754 -6.508,-9.754c-4.342,0 -7.604,1.075 -10.85,5.413l-32.554,62.937c-2.171,2.171 -5.433,5.433 -5.433,13.021l-0,44.496l-70.521,-0c44.479,-36.892 113.925,-159.513 115.016,-166.025c0,-1.075 1.08,-2.171 1.08,-3.246c-0,-4.342 -4.342,-7.604 -7.588,-7.604c-5.433,-0 -28.212,2.17 -37.987,2.17c-9.759,0 -16.267,-2.17 -20.609,-2.17c-5.433,-0 -13.021,2.17 -13.021,10.85c0,69.445 -56.42,148.662 -70.537,168.195c-2.171,2.171 -4.342,5.417 -4.342,8.68c0,5.416 4.342,10.85 10.854,10.85l97.655,-0l-0,33.629c-0,15.192 -8.68,19.533 -17.363,19.533c-9.754,0 -14.096,4.338 -14.096,9.771c0,5.417 2.171,11.929 11.929,11.929l93.313,0c5.437,0 10.854,-4.341 10.854,-11.929c0,-7.604 -6.512,-10.85 -11.929,-10.85c-5.433,0 -17.363,-3.262 -17.363,-20.625l0,-31.458l40.142,-0c5.433,-0 8.679,-4.338 8.679,-10.85c0,-6.513 -2.171,-10.85 -8.679,-10.85l-40.142,-0" style="fill-rule:nonzero;"/></g><g><path d="M4405.19,1118.94l0,-116.113c0,-5.416 -1.096,-9.754 -6.512,-9.754c-4.342,0 -7.605,1.075 -10.85,5.413l-32.555,62.937c-2.166,2.171 -5.433,5.433 -5.433,13.021l0,44.496l-70.521,-0c44.479,-36.892 113.925,-159.513 115.017,-166.025c-0,-1.075 1.079,-2.171 1.079,-3.246c0,-4.342 -4.342,-7.604 -7.587,-7.604c-5.434,-0 -28.213,2.17 -37.988,2.17c-9.754,0 -16.267,-2.17 -20.608,-2.17c-5.434,-0 -13.021,2.17 -13.021,10.85c-0,69.445 -56.421,148.662 -70.538,168.195c-2.17,2.171 -4.337,5.417 -4.337,8.68c-0,5.416 4.337,10.85 10.85,10.85l97.654,-0l0,33.629c0,15.192 -8.679,19.533 -17.358,19.533c-9.759,0 -14.1,4.338 -14.1,9.771c-0,5.417 2.171,11.929 11.929,11.929l93.317,0c5.433,0 10.85,-4.341 10.85,-11.929c-0,-7.604 -6.513,-10.85 -11.93,-10.85c-5.433,0 -17.358,-3.262 -17.358,-20.625l0,-31.458l40.138,-0c5.433,-0 8.679,-4.338 8.679,-10.85c-0,-6.513 -2.171,-10.85 -8.679,-10.85l-40.138,-0" style="fill-rule:nonzero;"/></g><g><path d="M5178.36,1067.93c-0,0 -1.075,4.342 -1.075,7.604c-0,4.342 4.337,8.684 8.679,8.684c3.246,-0 5.417,-3.267 6.508,-4.342c1.079,-3.266 14.1,-47.746 20.609,-58.596c2.17,-4.337 4.341,-5.433 5.433,-5.433c2.171,0 3.25,4.342 3.25,7.604l-0,155.159c-0,13.02 -10.854,20.625 -21.704,20.625c-4.338,-0 -9.754,2.166 -9.754,8.679c-0,6.508 5.416,8.679 14.095,8.679l91.146,-0c8.679,-0 8.679,-8.679 8.679,-8.679c0,-0 0,-8.679 -8.679,-8.679c-7.587,-0 -17.362,-9.775 -17.362,-19.534l-0,-225.696c-0,-8.679 -3.246,-13.02 -10.85,-13.02c-7.588,-0 -14.096,2.17 -20.609,2.17c-10.85,0 -13.02,0 -21.7,-2.17c-4.341,-0 -9.775,6.512 -13.02,10.854l-33.646,116.091" style="fill-rule:nonzero;"/></g><g><path d="M6380.48,1129.79c-0,-7.604 -3.267,-8.679 -6.513,-8.679c-4.341,-0 -6.508,3.245 -7.604,6.508c-5.417,15.192 -17.362,34.725 -33.629,34.725c-2.171,-0 -4.338,-0 -6.508,-1.096l-16.288,-5.417c-10.85,-4.341 -36.892,-13.02 -58.592,-13.02c-7.587,-0 -14.095,1.074 -20.608,3.245c11.929,-20.608 68.35,-47.741 80.296,-50.987c39.062,-5.433 71.612,-28.213 71.612,-70.538c0,-26.041 -10.85,-43.404 -24.962,-56.425c-28.213,-22.779 -69.446,-26.041 -81.371,-26.041c-39.062,-0 -70.542,2.171 -98.75,34.721c-7.587,8.683 -10.854,17.362 -10.854,26.041c-0,7.604 3.267,16.288 6.512,26.042c6.509,13.021 20.625,22.796 35.817,22.796c27.117,-0 30.379,-26.042 30.379,-37.988c0,-24.946 -27.133,-27.116 -27.133,-37.966c-0,-7.605 10.85,-20.625 43.404,-20.625c51.004,-0 68.367,42.325 68.367,55.345c-0,19.534 -6.513,37.971 -17.363,53.163c-19.529,24.962 -55.346,33.646 -82.462,51.004c-30.384,18.438 -51.009,49.913 -60.767,84.638c0,7.587 3.246,16.266 9.758,19.529c1.092,1.079 3.263,1.079 4.342,1.079c11.942,-0 18.454,-33.629 51.004,-33.629c21.704,-0 29.288,29.287 78.125,29.287c22.779,0 65.104,-2.171 73.788,-85.712" style="fill-rule:nonzero;"/></g><g><path d="M7363.73,1118.94l-0,-116.113c-0,-5.416 -1.079,-9.754 -6.513,-9.754c-4.341,0 -7.587,1.075 -10.85,5.413l-32.554,62.937c-2.167,2.171 -5.417,5.433 -5.417,13.021l0,44.496l-70.537,-0c44.496,-36.892 113.942,-159.513 115.017,-166.025c-0,-1.075 1.095,-2.171 1.095,-3.246c0,-4.342 -4.341,-7.604 -7.604,-7.604c-5.416,-0 -28.212,2.17 -37.971,2.17c-9.77,0 -16.283,-2.17 -20.625,-2.17c-5.416,-0 -13.02,2.17 -13.02,10.85c-0,69.445 -56.421,148.662 -70.521,168.195c-2.167,2.171 -4.338,5.417 -4.338,8.68c0,5.416 4.338,10.85 10.85,10.85l97.654,-0l0,33.629c0,15.192 -8.679,19.533 -17.358,19.533c-9.775,0 -14.117,4.338 -14.117,9.771c0,5.417 2.171,11.929 11.946,11.929l93.317,0c5.417,0 10.85,-4.341 10.85,-11.929c-0,-7.604 -6.513,-10.85 -11.946,-10.85c-5.417,0 -17.358,-3.262 -17.358,-20.625l-0,-31.458l40.154,-0c5.417,-0 8.679,-4.338 8.679,-10.85c0,-6.513 -2.167,-10.85 -8.679,-10.85l-40.154,-0" style="fill-rule:nonzero;"/></g><g><path d="M8276.69,1067.93c0,0 -1.092,4.342 -1.092,7.604c0,4.342 4.338,8.684 8.68,8.684c3.262,-0 5.433,-3.267 6.512,-4.342c1.092,-3.266 14.113,-47.746 20.625,-58.596c2.167,-4.337 4.338,-5.433 5.417,-5.433c2.166,0 3.262,4.342 3.262,7.604l0,155.159c0,13.02 -10.85,20.625 -21.7,20.625c-4.341,-0 -9.775,2.166 -9.775,8.679c0,6.508 5.434,8.679 14.113,8.679l91.146,-0c8.683,-0 8.683,-8.679 8.683,-8.679c-0,-0 -0,-8.679 -8.683,-8.679c-7.605,-0 -17.359,-9.775 -17.359,-19.534l0,-225.696c0,-8.679 -3.266,-13.02 -10.854,-13.02c-7.604,-0 -14.112,2.17 -20.625,2.17c-10.85,0 -13.021,0 -21.7,-2.17c-4.342,-0 -9.758,6.512 -13.021,10.854l-33.629,116.091" style="fill-rule:nonzero;"/></g><g><path d="M9340.02,1129.79c0,-7.604 -3.245,-8.679 -6.512,-8.679c-4.338,-0 -6.508,3.245 -7.583,6.508c-5.438,15.192 -17.363,34.725 -33.646,34.725c-2.171,-0 -4.342,-0 -6.513,-1.096l-16.266,-5.417c-10.85,-4.341 -36.892,-13.02 -58.596,-13.02c-7.604,-0 -14.113,1.074 -20.625,3.245c11.946,-20.608 68.371,-47.741 80.296,-50.987c39.062,-5.433 71.616,-28.213 71.616,-70.538c0,-26.041 -10.85,-43.404 -24.95,-56.425c-28.212,-22.779 -69.441,-26.041 -81.387,-26.041c-39.063,-0 -70.521,2.171 -98.734,34.721c-7.604,8.683 -10.85,17.362 -10.85,26.041c0,7.604 3.246,16.288 6.509,26.042c6.512,13.021 20.608,22.796 35.8,22.796c27.137,-0 30.383,-26.042 30.383,-37.988c0,-24.946 -27.121,-27.116 -27.121,-37.966c0,-7.605 10.854,-20.625 43.404,-20.625c50.992,-0 68.35,42.325 68.35,55.345c0,19.534 -6.508,37.971 -17.358,53.163c-19.533,24.962 -55.333,33.646 -82.467,51.004c-30.383,18.438 -50.991,49.913 -60.762,84.638c-0,7.587 3.262,16.266 9.771,19.529c1.079,1.079 3.25,1.079 4.341,1.079c11.93,-0 18.438,-33.629 50.992,-33.629c21.7,-0 29.304,29.287 78.125,29.287c22.792,0 65.104,-2.171 73.783,-85.712" style="fill-rule:nonzero;"/></g><g><path d="M10183.5,1118.94l-0,-116.113c-0,-5.416 -1.092,-9.754 -6.509,-9.754c-4.341,0 -7.604,1.075 -10.85,5.413l-32.554,62.937c-2.171,2.171 -5.433,5.433 -5.433,13.021l-0,44.496l-70.521,-0c44.479,-36.892 113.925,-159.513 115.017,-166.025c-0,-1.075 1.079,-2.171 1.079,-3.246c-0,-4.342 -4.342,-7.604 -7.588,-7.604c-5.433,-0 -28.212,2.17 -37.987,2.17c-9.758,0 -16.267,-2.17 -20.608,-2.17c-5.434,-0 -13.021,2.17 -13.021,10.85c-0,69.445 -56.421,148.662 -70.538,168.195c-2.171,2.171 -4.341,5.417 -4.341,8.68c-0,5.416 4.341,10.85 10.854,10.85l97.654,-0l-0,33.629c-0,15.192 -8.679,19.533 -17.363,19.533c-9.754,0 -14.095,4.338 -14.095,9.771c-0,5.417 2.17,11.929 11.929,11.929l93.312,0c5.438,0 10.854,-4.341 10.854,-11.929c0,-7.604 -6.512,-10.85 -11.929,-10.85c-5.433,0 -17.362,-3.262 -17.362,-20.625l-0,-31.458l40.141,-0c5.434,-0 8.68,-4.338 8.68,-10.85c-0,-6.513 -2.171,-10.85 -8.68,-10.85l-40.141,-0" style="fill-rule:nonzero;"/></g><g><path d="M11076.7,1118.94l-0,-116.113c-0,-5.416 -1.092,-9.754 -6.509,-9.754c-4.341,0 -7.604,1.075 -10.85,5.413l-32.554,62.937c-2.171,2.171 -5.433,5.433 -5.433,13.021l-0,44.496l-70.521,-0c44.479,-36.892 113.925,-159.513 115.017,-166.025c-0,-1.075 1.079,-2.171 1.079,-3.246c-0,-4.342 -4.342,-7.604 -7.588,-7.604c-5.433,-0 -28.212,2.17 -37.987,2.17c-9.758,0 -16.267,-2.17 -20.608,-2.17c-5.434,-0 -13.021,2.17 -13.021,10.85c-0,69.445 -56.421,148.662 -70.538,168.195c-2.171,2.171 -4.341,5.417 -4.341,8.68c-0,5.416 4.341,10.85 10.854,10.85l97.654,-0l-0,33.629c-0,15.192 -8.679,19.533 -17.363,19.533c-9.754,0 -14.095,4.338 -14.095,9.771c-0,5.417 2.17,11.929 11.929,11.929l93.312,0c5.438,0 10.854,-4.341 10.854,-11.929c0,-7.604 -6.512,-10.85 -11.929,-10.85c-5.433,0 -17.362,-3.262 -17.362,-20.625l-0,-31.458l40.141,-0c5.434,-0 8.68,-4.338 8.68,-10.85c-0,-6.513 -2.171,-10.85 -8.68,-10.85l-40.141,-0" style="fill-rule:nonzero;"/></g><g><path d="M11849.6,1067.93c-0,0 -1.075,4.342 -1.075,7.604c-0,4.342 4.337,8.684 8.679,8.684c3.246,-0 5.417,-3.267 6.512,-4.342c1.075,-3.266 14.096,-47.746 20.605,-58.596c2.17,-4.337 4.341,-5.433 5.437,-5.433c2.167,0 3.246,4.342 3.246,7.604l-0,155.159c-0,13.02 -10.85,20.625 -21.704,20.625c-4.338,-0 -9.754,2.166 -9.754,8.679c-0,6.508 5.416,8.679 14.095,8.679l91.146,-0c8.679,-0 8.679,-8.679 8.679,-8.679c0,-0 0,-8.679 -8.679,-8.679c-7.587,-0 -17.362,-9.775 -17.362,-19.534l-0,-225.696c-0,-8.679 -3.246,-13.02 -10.85,-13.02c-7.588,-0 -14.096,2.17 -20.609,2.17c-10.85,0 -13.02,0 -21.7,-2.17c-4.341,-0 -9.775,6.512 -13.02,10.854l-33.646,116.091" style="fill-rule:nonzero;"/></g><g><path d="M13051.5,1129.79c-0,-7.604 -3.246,-8.679 -6.509,-8.679c-4.341,-0 -6.512,3.245 -7.587,6.508c-5.433,15.192 -17.363,34.725 -33.646,34.725c-2.171,-0 -4.342,-0 -6.512,-1.096l-16.267,-5.417c-10.85,-4.341 -36.892,-13.02 -58.592,-13.02c-7.604,-0 -14.116,1.074 -20.625,3.245c11.942,-20.608 68.367,-47.741 80.292,-50.987c39.062,-5.433 71.617,-28.213 71.617,-70.538c-0,-26.041 -10.85,-43.404 -24.95,-56.425c-28.209,-22.779 -69.442,-26.041 -81.388,-26.041c-39.062,-0 -70.521,2.171 -98.733,34.721c-7.604,8.683 -10.85,17.362 -10.85,26.041c-0,7.604 3.246,16.288 6.512,26.042c6.509,13.021 20.604,22.796 35.796,22.796c27.138,-0 30.383,-26.042 30.383,-37.988c0,-24.946 -27.116,-27.116 -27.116,-37.966c-0,-7.605 10.85,-20.625 43.4,-20.625c50.991,-0 68.35,42.325 68.35,55.345c-0,19.534 -6.509,37.971 -17.359,53.163c-19.533,24.962 -55.329,33.646 -82.466,51.004c-30.384,18.438 -50.988,49.913 -60.763,84.638c0,7.587 3.263,16.266 9.775,19.529c1.075,1.079 3.246,1.079 4.338,1.079c11.929,-0 18.437,-33.629 50.991,-33.629c21.7,-0 29.305,29.287 78.125,29.287c22.796,0 65.105,-2.171 73.784,-85.712" style="fill-rule:nonzero;"/></g><g><path d="M14034.7,1118.7l0,-116.096c0,-5.433 -1.096,-9.775 -6.512,-9.775c-4.338,0 -7.605,1.096 -10.85,5.433l-32.55,62.938c-2.171,2.167 -5.438,5.417 -5.438,13.021l0,44.479l-70.521,0c44.479,-36.896 113.925,-159.5 115.021,-166.008c0,-1.096 1.075,-2.171 1.075,-3.263c0,-4.341 -4.342,-7.587 -7.587,-7.587c-5.434,-0 -28.213,2.171 -37.988,2.171c-9.754,-0 -16.267,-2.171 -20.604,-2.171c-5.438,-0 -13.021,2.171 -13.021,10.85c0,69.446 -56.425,148.646 -70.542,168.175c-2.166,2.171 -4.337,5.437 -4.337,8.683c-0,5.433 4.337,10.85 10.85,10.85l97.654,0l0,33.646c0,15.192 -8.679,19.529 -17.358,19.529c-9.759,0 -14.1,4.342 -14.1,9.758c-0,5.434 2.171,11.946 11.929,11.946l93.317,0c5.433,0 10.85,-4.341 10.85,-11.946c-0,-7.587 -6.513,-10.85 -11.93,-10.85c-5.433,0 -17.358,-3.245 -17.358,-20.608l0,-31.475l40.138,0c5.433,0 8.679,-4.342 8.679,-10.85c-0,-6.512 -2.167,-10.85 -8.679,-10.85l-40.138,0" style="fill-rule:nonzero;"/></g><g><path d="M15394.9,932.308c0,0 -1.092,4.342 -1.092,7.588c0,4.342 4.338,8.679 8.68,8.679c3.262,0 5.433,-3.246 6.508,-4.337c1.096,-3.246 14.117,-47.746 20.625,-58.596c2.171,-4.342 4.342,-5.417 5.417,-5.417c2.17,0 3.266,4.342 3.266,7.588l0,155.175c0,13.02 -10.85,20.608 -21.704,20.608c-4.337,-0 -9.771,2.167 -9.771,8.679c0,6.508 5.434,8.679 14.113,8.679l91.146,0c8.679,0 8.679,-8.679 8.679,-8.679c-0,0 -0,-8.679 -8.679,-8.679c-7.605,-0 -17.363,-9.758 -17.363,-19.533l0,-225.696c0,-8.679 -3.262,-13.021 -10.85,-13.021c-7.604,-0 -14.112,2.171 -20.625,2.171c-10.85,-0 -13.021,-0 -21.7,-2.171c-4.342,-0 -9.758,6.512 -13.021,10.85l-33.629,116.112" style="fill-rule:nonzero;"/></g><g><path d="M16457.9,856.217c0,-7.588 -3.262,-8.684 -6.508,-8.684c-4.342,0 -6.513,3.267 -7.604,6.513c-5.417,15.191 -17.363,34.721 -33.63,34.721c-2.17,-0 -4.341,-0 -6.512,-1.075l-16.283,-5.434c-10.85,-4.341 -36.892,-13.021 -58.596,-13.021c-7.584,0 -14.096,1.092 -20.604,3.263c11.925,-20.625 68.35,-47.742 80.291,-51.008c39.063,-5.417 71.617,-28.209 71.617,-70.521c-0,-26.042 -10.85,-43.4 -24.967,-56.421c-28.212,-22.796 -69.441,-26.042 -81.371,-26.042c-39.062,0 -70.537,2.171 -98.75,34.721c-7.587,8.679 -10.85,17.363 -10.85,26.042c0,7.587 3.263,16.266 6.509,26.041c6.512,13.021 20.625,22.78 35.816,22.78c27.121,-0 30.384,-26.042 30.384,-37.971c-0,-24.963 -27.138,-27.134 -27.138,-37.984c0,-7.587 10.854,-20.608 43.404,-20.608c51.009,0 68.367,42.308 68.367,55.329c0,19.529 -6.508,37.988 -17.358,53.175c-19.534,24.95 -55.35,33.629 -82.467,50.992c-30.383,18.454 -51.008,49.913 -60.762,84.633c-0,7.604 3.245,16.288 9.754,19.534c1.096,1.091 3.266,1.091 4.341,1.091c11.946,0 18.455,-33.645 51.009,-33.645c21.7,-0 29.287,29.308 78.125,29.308c22.775,-0 65.104,-2.171 73.783,-85.729" style="fill-rule:nonzero;"/></g><g><path d="M17301.7,715.054l0,-116.096c0,-5.433 -1.092,-9.775 -6.508,-9.775c-4.342,0 -7.604,1.096 -10.854,5.434l-32.55,62.937c-2.171,2.167 -5.434,5.417 -5.434,13.021l0,44.479l-70.521,0c44.48,-36.896 113.921,-159.5 115.017,-166.008c0,-1.096 1.075,-2.171 1.075,-3.267c0,-4.337 -4.337,-7.583 -7.587,-7.583c-5.434,-0 -28.209,2.171 -37.984,2.171c-9.758,-0 -16.266,-2.171 -20.608,-2.171c-5.433,-0 -13.021,2.171 -13.021,10.85c0,69.446 -56.425,148.646 -70.537,168.175c-2.171,2.171 -4.342,5.437 -4.342,8.683c-0,5.434 4.342,10.85 10.85,10.85l97.658,0l0,33.646c0,15.192 -8.683,19.529 -17.362,19.529c-9.759,0 -14.096,4.342 -14.096,9.759c-0,5.433 2.171,11.945 11.925,11.945l93.317,0c5.433,0 10.85,-4.341 10.85,-11.945c-0,-7.588 -6.509,-10.85 -11.925,-10.85c-5.434,-0 -17.363,-3.246 -17.363,-20.609l0,-31.475l40.138,0c5.437,0 8.683,-4.341 8.683,-10.85c-0,-6.512 -2.171,-10.854 -8.683,-10.854l-40.138,0" style="fill-rule:nonzero;"/></g><g><path d="M18195.3,715.054l0,-116.096c0,-5.433 -1.075,-9.775 -6.508,-9.775c-4.342,0 -7.587,1.096 -10.85,5.434l-32.554,62.937c-2.171,2.167 -5.417,5.417 -5.417,13.021l0,44.479l-70.537,0c44.496,-36.896 113.941,-159.5 115.016,-166.008c0,-1.096 1.096,-2.171 1.096,-3.267c0,-4.337 -4.341,-7.583 -7.604,-7.583c-5.417,-0 -28.212,2.171 -37.971,2.171c-9.775,-0 -16.283,-2.171 -20.625,-2.171c-5.416,-0 -13.021,2.171 -13.021,10.85c0,69.446 -56.42,148.646 -70.52,168.175c-2.171,2.171 -4.338,5.437 -4.338,8.683c0,5.434 4.338,10.85 10.85,10.85l97.654,0l0,33.646c0,15.192 -8.679,19.529 -17.358,19.529c-9.775,0 -14.117,4.342 -14.117,9.759c0,5.433 2.171,11.945 11.946,11.945l93.317,0c5.416,0 10.85,-4.341 10.85,-11.945c-0,-7.588 -6.513,-10.85 -11.946,-10.85c-5.417,-0 -17.363,-3.246 -17.363,-20.609l0,-31.475l40.159,0c5.416,0 8.679,-4.341 8.679,-10.85c-0,-6.512 -2.171,-10.854 -8.679,-10.854l-40.159,0" style="fill-rule:nonzero;"/></g><g><path d="M18968.4,528.663c-0,-0 -1.092,4.341 -1.092,7.587c0,4.342 4.338,8.679 8.679,8.679c3.263,0 5.434,-3.246 6.509,-4.337c1.095,-3.246 14.116,-47.746 20.625,-58.596c2.17,-4.342 4.341,-5.417 5.416,-5.417c2.171,0 3.267,4.342 3.267,7.588l-0,155.175c-0,13.02 -10.85,20.604 -21.704,20.604c-4.338,-0 -9.771,2.171 -9.771,8.683c-0,6.509 5.433,8.679 14.112,8.679l91.146,0c8.679,0 8.679,-8.679 8.679,-8.679c0,0 0,-8.683 -8.679,-8.683c-7.604,-0 -17.362,-9.754 -17.362,-19.529l-0,-225.696c-0,-8.679 -3.263,-13.021 -10.85,-13.021c-7.604,-0 -14.113,2.171 -20.625,2.171c-10.85,-0 -13.021,-0 -21.7,-2.171c-4.342,-0 -9.759,6.512 -13.021,10.854l-33.629,116.108" style="fill-rule:nonzero;"/></g><g><path d="M20170.6,452.571c-0,-7.588 -3.267,-8.683 -6.513,-8.683c-4.337,-0 -6.508,3.266 -7.604,6.512c-5.417,15.192 -17.358,34.721 -33.629,34.721c-2.167,-0 -4.338,-0 -6.508,-1.075l-16.284,-5.433c-10.854,-4.342 -36.896,-13.021 -58.596,-13.021c-7.587,-0 -14.095,1.091 -20.608,3.262c11.929,-20.625 68.35,-47.741 80.296,-51.008c39.062,-5.417 71.617,-28.209 71.617,-70.521c-0,-26.042 -10.855,-43.4 -24.967,-56.421c-28.213,-22.796 -69.446,-26.041 -81.371,-26.041c-39.062,-0 -70.537,2.17 -98.75,34.72c-7.587,8.679 -10.85,17.363 -10.85,26.042c0,7.587 3.263,16.267 6.508,26.042c6.513,13.02 20.625,22.779 35.817,22.779c27.117,-0 30.383,-26.042 30.383,-37.971c0,-24.963 -27.137,-27.133 -27.137,-37.983c-0,-7.588 10.85,-20.609 43.404,-20.609c51.004,0 68.367,42.309 68.367,55.329c-0,19.53 -6.509,37.988 -17.363,53.175c-19.529,24.95 -55.346,33.63 -82.462,50.992c-30.384,18.454 -51.009,49.913 -60.767,84.633c0,7.605 3.25,16.288 9.758,19.534c1.096,1.091 3.263,1.091 4.342,1.091c11.942,0 18.454,-33.645 51.004,-33.645c21.704,-0 29.292,29.308 78.125,29.308c22.779,-0 65.104,-2.171 73.788,-85.729" style="fill-rule:nonzero;"/></g><g><path d="M21153.8,176.858l0,-116.096c0,-5.433 -1.091,-9.77 -6.508,-9.77c-4.342,-0 -7.604,1.091 -10.854,5.433l-32.55,62.933c-2.171,2.171 -5.433,5.417 -5.433,13.021l-0,44.479l-70.521,0c44.479,-36.891 113.921,-159.496 115.016,-166.008c0,-1.092 1.075,-2.171 1.075,-3.262c0,-4.342 -4.337,-7.588 -7.587,-7.588c-5.433,0 -28.208,2.171 -37.983,2.171c-9.759,-0 -16.267,-2.171 -20.609,-2.171c-5.433,0 -13.021,2.171 -13.021,10.85c0,69.446 -56.425,148.646 -70.537,168.179c-2.171,2.171 -4.342,5.434 -4.342,8.679c0,5.434 4.342,10.85 10.85,10.85l97.659,0l-0,33.646c-0,15.192 -8.684,19.534 -17.363,19.534c-9.758,-0 -14.096,4.337 -14.096,9.754c0,5.433 2.171,11.945 11.925,11.945l93.317,0c5.433,0 10.85,-4.341 10.85,-11.945c-0,-7.588 -6.508,-10.85 -11.925,-10.85c-5.433,-0 -17.363,-3.246 -17.363,-20.609l0,-31.475l40.138,0c5.437,0 8.683,-4.337 8.683,-10.85c0,-6.508 -2.171,-10.85 -8.683,-10.85l-40.138,0" style="fill-rule:nonzero;"/></g><g><path d="M22186.8,176.858l0,-116.096c0,-5.433 -1.095,-9.77 -6.512,-9.77c-4.338,-0 -7.604,1.091 -10.85,5.433l-32.55,62.933c-2.171,2.171 -5.438,5.417 -5.438,13.021l0,44.479l-70.52,0c44.479,-36.891 113.925,-159.496 115.02,-166.008c0,-1.092 1.075,-2.171 1.075,-3.262c0,-4.342 -4.341,-7.588 -7.587,-7.588c-5.433,0 -28.213,2.171 -37.988,2.171c-9.754,-0 -16.266,-2.171 -20.604,-2.171c-5.437,0 -13.021,2.171 -13.021,10.85c0,69.446 -56.425,148.646 -70.541,168.179c-2.167,2.171 -4.338,5.434 -4.338,8.679c0,5.434 4.338,10.85 10.85,10.85l97.654,0l0,33.646c0,15.192 -8.679,19.534 -17.358,19.534c-9.758,-0 -14.1,4.337 -14.1,9.754c0,5.433 2.171,11.945 11.929,11.945l93.317,0c5.433,0 10.85,-4.341 10.85,-11.945c-0,-7.588 -6.513,-10.85 -11.929,-10.85c-5.434,-0 -17.359,-3.246 -17.359,-20.609l0,-31.475l40.138,0c5.433,0 8.679,-4.337 8.679,-10.85c0,-6.508 -2.167,-10.85 -8.679,-10.85l-40.138,0" style="fill-rule:nonzero;"/></g><g><path d="M23011.2,134.775c-59.671,0 -85.713,40.154 -85.713,62.933c0,15.192 8.679,33.646 35.8,34.721c20.625,0 30.379,-13.021 30.379,-27.117l0,-4.341c-1.075,-16.284 -11.925,-17.359 -14.095,-18.454c-2.171,-1.075 -6.513,-5.417 -6.513,-13.021c2.171,-11.925 18.438,-16.267 22.779,-16.267c55.346,0 71.617,29.288 71.617,47.742c-0,50.991 -52.083,55.333 -68.354,56.425c-7.604,-0 -15.188,3.246 -15.188,9.758c0,6.508 9.754,6.508 14.096,6.508c62.933,0 71.613,32.555 71.613,48.838c-0,62.933 -50.988,65.104 -64.009,65.104c-6.512,0 -17.362,-3.262 -18.454,-8.679l0,-6.513c0,-11.945 3.263,-24.966 4.338,-35.816c-0,-19.529 -13.021,-31.459 -32.55,-31.459l-4.342,0c-7.588,2.171 -15.192,6.513 -20.608,11.93c-7.605,6.508 -9.771,16.283 -9.771,26.041c1.091,34.721 31.475,64.029 85.729,65.104l6.508,0c53.159,0 108.509,-28.212 108.509,-75.954c-0,-10.854 -2.171,-19.533 -5.434,-26.041c-2.171,-6.513 -6.512,-11.93 -10.854,-16.267c-3.246,-4.342 -7.583,-7.608 -11.925,-10.854l-11.946,-6.509l-6.508,-2.17c-2.171,-0 -3.246,-1.092 -5.417,-1.092l-6.512,-2.171c-3.263,-1.079 -4.338,0 -5.434,-2.171c-1.075,-1.075 -1.075,-2.171 -1.075,-3.246c0,-2.17 1.075,-4.341 3.246,-4.341l17.363,-5.434c7.604,-4.341 15.187,-7.587 20.625,-15.191c8.679,-8.679 11.925,-22.779 11.925,-34.721c-0,-50.992 -67.275,-65.104 -91.146,-67.275l-8.679,-0" style="fill-rule:nonzero;"/></g><g><path d="M23853.8,394.117c0,-0 -1.091,4.337 -1.091,7.583c-0,4.342 4.337,8.683 8.679,8.683c3.262,0 5.433,-3.246 6.508,-4.341c1.096,-3.246 14.117,-47.742 20.625,-58.596c2.171,-4.338 4.342,-5.413 5.417,-5.413c2.171,0 3.267,4.338 3.267,7.584l-0,155.175c-0,13.02 -10.85,20.608 -21.705,20.608c-4.337,0 -9.77,2.171 -9.77,8.679c-0,6.513 5.433,8.683 14.112,8.683l91.146,0c8.679,0 8.679,-8.683 8.679,-8.683c0,0 0,-8.679 -8.679,-8.679c-7.604,0 -17.363,-9.758 -17.363,-19.533l0,-225.692c0,-8.683 -3.262,-13.021 -10.85,-13.021c-7.604,0 -14.112,2.171 -20.625,2.171c-10.85,0 -13.02,0 -21.7,-2.171c-4.341,0 -9.758,6.508 -13.02,10.85l-33.63,116.113" style="fill-rule:nonzero;"/></g><g><path d="M24747.4,528.663c-0,-0 -1.075,4.341 -1.075,7.587c-0,4.342 4.341,8.679 8.679,8.679c3.25,0 5.417,-3.246 6.512,-4.337c1.075,-3.246 14.096,-47.746 20.609,-58.596c2.171,-4.342 4.337,-5.417 5.433,-5.417c2.171,0 3.246,4.342 3.246,7.588l-0,155.175c-0,13.02 -10.85,20.604 -21.7,20.604c-4.342,-0 -9.758,2.171 -9.758,8.683c-0,6.509 5.416,8.679 14.095,8.679l91.146,0c8.684,0 8.684,-8.679 8.684,-8.679c-0,0 -0,-8.683 -8.684,-8.683c-7.583,-0 -17.358,-9.754 -17.358,-19.529l-0,-225.696c-0,-8.679 -3.246,-13.021 -10.85,-13.021c-7.588,-0 -14.1,2.171 -20.608,2.171c-10.85,-0 -13.021,-0 -21.705,-2.171c-4.337,-0 -9.77,6.512 -13.02,10.854l-33.646,116.108" style="fill-rule:nonzero;"/></g><g><path d="M25760.7,715.054l-0,-116.096c-0,-5.433 -1.079,-9.775 -6.513,-9.775c-4.337,0 -7.587,1.096 -10.85,5.434l-32.55,62.937c-2.171,2.167 -5.416,5.417 -5.416,13.021l-0,44.479l-70.542,0c44.5,-36.896 113.942,-159.5 115.021,-166.008c-0,-1.096 1.091,-2.171 1.091,-3.267c0,-4.337 -4.341,-7.583 -7.604,-7.583c-5.416,-0 -28.212,2.171 -37.966,2.171c-9.775,-0 -16.288,-2.171 -20.625,-2.171c-5.417,-0 -13.021,2.171 -13.021,10.85c-0,69.446 -56.425,148.646 -70.521,168.175c-2.171,2.171 -4.342,5.437 -4.342,8.683c0,5.434 4.342,10.85 10.85,10.85l97.659,0l-0,33.646c-0,15.192 -8.684,19.529 -17.363,19.529c-9.775,0 -14.117,4.342 -14.117,9.759c0,5.433 2.171,11.945 11.946,11.945l93.317,0c5.417,0 10.85,-4.341 10.85,-11.945c-0,-7.588 -6.508,-10.85 -11.946,-10.85c-5.417,-0 -17.358,-3.246 -17.358,-20.609l-0,-31.475l40.154,0c5.417,0 8.683,-4.341 8.683,-10.85c0,-6.512 -2.171,-10.854 -8.683,-10.854l-40.154,0" style="fill-rule:nonzero;"/></g><g><path d="M26843.4,856.217c-0,-7.588 -3.246,-8.684 -6.509,-8.684c-4.341,0 -6.512,3.267 -7.587,6.513c-5.433,15.191 -17.363,34.721 -33.646,34.721c-2.171,-0 -4.342,-0 -6.512,-1.075l-16.267,-5.434c-10.85,-4.341 -36.892,-13.021 -58.592,-13.021c-7.604,0 -14.116,1.092 -20.625,3.263c11.942,-20.625 68.367,-47.742 80.292,-51.008c39.062,-5.417 71.617,-28.209 71.617,-70.521c-0,-26.042 -10.85,-43.4 -24.95,-56.421c-28.209,-22.796 -69.442,-26.042 -81.388,-26.042c-39.062,0 -70.521,2.171 -98.733,34.721c-7.604,8.679 -10.85,17.363 -10.85,26.042c-0,7.587 3.246,16.266 6.512,26.041c6.509,13.021 20.604,22.78 35.796,22.78c27.138,-0 30.383,-26.042 30.383,-37.971c0,-24.963 -27.116,-27.134 -27.116,-37.984c-0,-7.587 10.85,-20.608 43.4,-20.608c50.991,0 68.35,42.308 68.35,55.329c-0,19.529 -6.509,37.988 -17.359,53.175c-19.533,24.95 -55.329,33.629 -82.466,50.992c-30.384,18.454 -50.988,49.913 -60.763,84.633c0,7.604 3.263,16.288 9.775,19.534c1.075,1.091 3.246,1.091 4.338,1.091c11.929,0 18.437,-33.645 50.991,-33.645c21.7,-0 29.305,29.308 78.125,29.308c22.796,-0 65.105,-2.171 73.784,-85.729" style="fill-rule:nonzero;"/></g><g><path d="M27706.6,932.308c0,0 -1.079,4.342 -1.079,7.588c-0,4.342 4.342,8.679 8.683,8.679c3.246,0 5.417,-3.246 6.509,-4.337c1.079,-3.246 14.1,-47.746 20.608,-58.596c2.171,-4.342 4.342,-5.417 5.433,-5.417c2.171,0 3.246,4.342 3.246,7.588l0,155.175c0,13.02 -10.85,20.608 -21.7,20.608c-4.342,-0 -9.758,2.167 -9.758,8.679c-0,6.508 5.416,8.679 14.1,8.679l91.146,0c8.679,0 8.679,-8.679 8.679,-8.679c-0,0 -0,-8.679 -8.679,-8.679c-7.588,-0 -17.363,-9.758 -17.363,-19.533l0,-225.696c0,-8.679 -3.246,-13.021 -10.85,-13.021c-7.587,-0 -14.096,2.171 -20.608,2.171c-10.85,-0 -13.021,-0 -21.7,-2.171c-4.342,-0 -9.775,6.512 -13.021,10.85l-33.646,116.112" style="fill-rule:nonzero;"/></g><g><path d="M1612.06,3370.45c96.562,0 214.842,-88.975 214.842,-181.196c-0,-55.35 -43.405,-90.071 -105.259,-90.071c-119.358,0 -214.846,87.9 -214.846,181.217c0,56.425 46.667,90.05 105.263,90.05" style="fill-rule:nonzero;"/></g><g><path d="M2139.07,3188.16c0,0 -3.245,-65.104 -3.245,-108.504c-0,-17.362 1.075,-30.383 2.17,-34.725c7.584,-21.7 50.988,-53.158 75.955,-53.158c31.458,-0 44.479,35.8 44.479,62.933c-0,58.596 -49.913,117.188 -96.563,146.475c-4.341,2.171 -7.604,3.267 -10.85,3.267c-9.775,-0 -11.946,-10.85 -11.946,-16.288m-37.97,96.584c3.25,4.337 6.512,5.416 9.758,5.416c3.262,0 6.512,-2.17 6.512,-2.17c32.55,-18.438 58.592,-47.746 85.73,-66.184c96.562,-67.271 130.208,-133.471 130.208,-183.383c-0,-61.842 -47.746,-100.904 -97.658,-104.167c-18.455,0 -44.496,8.679 -59.688,18.454c-6.508,5.417 -18.437,15.192 -23.871,15.192c-2.171,0 -3.246,0 -5.416,-1.096c-7.605,-3.246 -11.946,-10.85 -11.946,-18.437c1.096,-23.871 7.604,-284.288 7.604,-305.988c-0,-11.946 -9.775,-18.454 -20.625,-18.454c-15.192,0 -32.55,10.85 -33.629,30.379c-0,0 4.341,619.583 13.021,630.438" style="fill-rule:nonzero;"/></g><g><path d="M2505.6,3235.9c96.562,0 214.841,-88.975 214.841,-181.2c0,-55.346 -43.404,-90.067 -105.258,-90.067c-119.358,0 -214.846,87.896 -214.846,181.213c0,56.425 46.667,90.054 105.263,90.054" style="fill-rule:nonzero;"/></g><g><path d="M3032.61,3053.61c0,-0.001 -3.246,-65.105 -3.246,-108.509c0,-17.362 1.075,-30.383 2.171,-34.721c7.583,-21.704 50.988,-53.162 75.954,-53.162c31.459,-0 44.479,35.8 44.479,62.937c0,58.592 -49.912,117.188 -96.562,146.475c-4.342,2.171 -7.604,3.263 -10.85,3.263c-9.775,-0 -11.946,-10.85 -11.946,-16.284m-37.971,96.58c3.25,4.341 6.513,5.416 9.759,5.416c3.262,0 6.512,-2.171 6.512,-2.171c32.55,-18.437 58.592,-47.741 85.729,-66.179c96.563,-67.275 130.209,-133.475 130.209,-183.387c-0,-61.838 -47.746,-100.9 -97.659,-104.167c-18.454,0 -44.496,8.683 -59.687,18.454c-6.509,5.417 -18.438,15.192 -23.871,15.192c-2.171,-0 -3.246,-0 -5.417,-1.092c-7.604,-3.246 -11.946,-10.85 -11.946,-18.437c1.096,-23.871 7.605,-284.288 7.605,-305.992c-0,-11.942 -9.775,-18.454 -20.625,-18.454c-15.192,0 -32.55,10.85 -33.63,30.383c0,0 4.342,619.584 13.021,630.434" style="fill-rule:nonzero;"/></g><g><path d="M3399.16,3101.35c96.562,0 214.842,-88.975 214.842,-181.196c-0,-55.35 -43.4,-90.07 -105.259,-90.07c-119.358,-0 -214.846,87.9 -214.846,181.212c0,56.425 46.667,90.054 105.263,90.054" style="fill-rule:nonzero;"/></g><g><path d="M3978.05,2923.4c0,-15.191 66.18,-43.404 92.221,-43.404c6.513,0 9.775,1.096 9.775,5.433l0,111.755c0,19.533 -61.858,44.495 -88.975,44.495c-7.604,0 -13.021,-2.171 -13.021,-6.508l0,-111.771m112.846,-154.079c-2.166,-0 -3.262,1.092 -4.337,1.092c-0,-0 -69.446,24.95 -97.659,24.95c-6.508,-0 -10.85,-1.08 -10.85,-5.417l0,-181.217c0,-7.587 -6.508,-13.021 -13.02,-13.021l-14.113,0.001c-7.587,-0.001 -13.021,5.433 -13.021,13.02l0,558.821c0,6.508 3.263,9.754 8.679,9.754c1.092,0 6.509,-1.075 7.605,-2.17c15.191,-6.509 75.954,-32.55 107.412,-32.55c10.85,-0 18.454,3.262 18.454,11.945l0,161.667c0,7.604 5.417,13.021 13.021,13.021l14.1,-0c6.508,-0 13.021,-5.417 13.021,-13.021l-0,-544.708c-0,-5.417 -4.342,-8.679 -8.683,-8.679c-1.075,-0 -3.246,-0 -4.338,1.095l-16.271,5.417" style="fill-rule:nonzero;"/></g><g><path d="M4292.65,3101.35c96.58,0 214.846,-88.975 214.846,-181.196c0,-55.35 -43.404,-90.07 -105.246,-90.07c-119.354,-0 -214.841,87.9 -214.841,181.212c-0,56.425 46.65,90.054 105.241,90.054" style="fill-rule:nonzero;"/></g><g><path d="M4925.56,2880c-6.508,21.7 -57.517,43.404 -82.462,43.404c-6.513,0 -11.946,-2.171 -13.021,-5.416c-2.171,-4.342 -3.267,-28.213 -3.267,-54.255c0,-33.645 1.096,-71.616 3.267,-80.295c2.171,-18.455 52.083,-41.234 79.2,-41.234c7.604,0 14.116,2.171 16.283,6.513c2.171,5.416 4.342,32.55 4.342,61.837c-0,29.309 -2.171,59.688 -4.342,69.446m74.863,-176.858c7.604,-3.263 13.02,-11.946 13.02,-18.454l0,-77.034c0,-5.433 -3.245,-8.679 -7.587,-8.679c-2.171,0 -3.263,0 -5.433,1.075c-0,0 -21.7,8.683 -27.117,9.775c-7.604,0 -15.192,-5.433 -15.192,-14.112l0,-132.38c0,-6.512 -6.512,-11.929 -15.191,-11.929c-10.85,0 -17.363,5.417 -17.363,11.929l0,141.059c-1.092,10.85 -4.337,24.966 -14.112,31.475c-13.021,7.587 -49.913,22.779 -68.35,27.121c-9.775,-0 -13.021,-13.021 -13.021,-21.705l-0,-130.208c-0,-6.508 -7.604,-11.925 -15.192,-11.925c-10.85,0 -17.362,5.417 -17.362,11.925l-0,146.496c-0,15.187 -6.509,26.042 -13.021,29.287c-6.509,3.263 -28.213,11.942 -28.213,11.942c-7.604,2.171 -13.021,10.854 -13.021,17.363l0,77.033c0,6.508 3.25,9.771 8.684,9.771c4.337,-0 24.946,-9.771 28.212,-11.942c1.075,0 2.167,-1.079 3.246,-1.079c7.604,-0 14.113,10.854 14.113,19.533l-0,107.413c-0,11.946 -5.434,21.7 -11.942,24.966c-6.513,2.171 -29.292,11.925 -29.292,11.925c-7.604,2.171 -13.021,10.85 -13.021,17.363l0,77.05c0,6.508 3.25,9.754 8.684,9.754c1.075,0 3.246,-1.075 4.337,-1.075c0,0 15.192,-6.512 24.95,-9.775c1.092,-1.075 2.171,-1.075 3.263,-1.075c7.587,0 13.021,11.925 13.021,17.358l-0,133.459c-0,6.508 6.512,11.941 14.1,11.941c10.85,0 18.454,-5.433 18.454,-11.941l-0,-150.817c-0,-14.117 5.416,-21.704 10.85,-23.871l66.179,-27.137c1.096,-0 3.267,-1.075 4.342,-1.075c8.679,-0 14.112,13.021 14.112,19.529l0,135.625c0,6.512 6.513,11.946 14.1,11.946c11.942,-0 18.454,-5.434 18.454,-11.946l0,-154.079c0,-8.679 4.342,-21.7 11.925,-24.946c7.604,-3.267 30.384,-11.946 30.384,-11.946c7.604,-3.246 13.02,-11.929 13.02,-18.437l0,-77.05c0,-5.417 -3.245,-8.68 -7.587,-8.68c-2.171,0 -3.263,0 -5.433,1.092l-28.213,10.854c-6.508,0 -14.096,-6.512 -14.096,-19.533l0,-100.921c0,-7.587 5.417,-28.212 14.096,-31.458l28.213,-10.85" style="fill-rule:nonzero;"/></g><g><path d="M5185.77,2966.8c96.58,0 214.846,-88.975 214.846,-181.196c0,-55.35 -43.404,-90.07 -105.246,-90.07c-119.354,-0 -214.841,87.9 -214.841,181.216c-0,56.425 46.65,90.05 105.241,90.05" style="fill-rule:nonzero;"/></g><g><path d="M5958.02,2745.45c-6.512,21.704 -57.5,43.404 -82.466,43.404c-6.509,0 -11.925,-2.171 -13.021,-5.416c-2.171,-4.342 -3.246,-28.213 -3.246,-54.255c0,-33.645 1.075,-71.612 3.246,-80.295c2.171,-18.455 52.083,-41.234 79.221,-41.234c7.583,0 14.096,2.171 16.266,6.513c2.171,5.416 4.338,32.55 4.338,61.841c-0,29.305 -2.167,59.688 -4.338,69.442m74.88,-176.858c7.583,-3.263 13.02,-11.942 13.02,-18.454l0,-77.03c0,-5.433 -3.266,-8.683 -7.604,-8.683c-2.171,0 -3.25,0 -5.416,1.079c-0,0 -21.705,8.679 -27.138,9.775c-7.587,0 -15.192,-5.437 -15.192,-14.116l0,-132.38c0,-6.508 -6.508,-11.925 -15.191,-11.925c-10.85,0 -17.359,5.417 -17.359,11.925l0,141.059c-1.079,10.854 -4.341,24.966 -14.1,31.479c-13.02,7.583 -49.912,22.775 -68.366,27.117c-9.759,-0 -13.021,-13.021 -13.021,-21.7l-0,-130.209c-0,-6.512 -7.588,-11.929 -15.192,-11.929c-10.85,0 -17.358,5.417 -17.358,11.929l-0,146.492c-0,15.192 -6.513,26.042 -13.021,29.287c-6.512,3.263 -28.212,11.946 -28.212,11.946c-7.588,2.171 -13.021,10.85 -13.021,17.359l-0,77.033c-0,6.508 3.262,9.775 8.679,9.775c4.342,-0 24.967,-9.775 28.212,-11.946c1.092,0 2.171,-1.075 3.263,-1.075c7.587,0 14.1,10.85 14.1,19.529l-0,107.413c-0,11.946 -5.417,21.704 -11.929,24.966c-6.509,2.171 -29.304,11.93 -29.304,11.93c-7.588,2.166 -13.021,10.85 -13.021,17.358l-0,77.05c-0,6.508 3.262,9.758 8.679,9.758c1.096,0 3.262,-1.079 4.342,-1.079c-0,0 15.191,-6.508 24.962,-9.775c1.079,-1.075 2.171,-1.075 3.25,-1.075c7.604,0 13.021,11.929 13.021,17.363l-0,133.454c-0,6.508 6.508,11.946 14.112,11.946c10.85,-0 18.438,-5.438 18.438,-11.946l-0,-150.817c-0,-14.112 5.433,-21.7 10.85,-23.871l66.2,-27.137c1.075,-0 3.246,-1.075 4.337,-1.075c8.684,-0 14.1,13.021 14.1,19.533l0,135.625c0,6.508 6.509,11.942 14.113,11.942c11.929,-0 18.437,-5.434 18.437,-11.942l0,-154.083c0,-8.679 4.342,-21.7 11.946,-24.946c7.588,-3.263 30.384,-11.946 30.384,-11.946c7.583,-3.246 13.02,-11.925 13.02,-18.437l0,-77.046c0,-5.417 -3.266,-8.684 -7.604,-8.684c-2.171,0 -3.25,0 -5.416,1.096l-28.213,10.85c-6.512,0 -14.117,-6.512 -14.117,-19.533l0,-100.917c0,-7.587 5.434,-28.212 14.117,-31.458l28.213,-10.854" style="fill-rule:nonzero;"/></g><g><path d="M6218.23,2832.26c96.562,0 214.841,-88.975 214.841,-181.2c0,-55.346 -43.4,-90.066 -105.258,-90.066c-119.358,-0 -214.846,87.895 -214.846,181.212c0,56.425 46.667,90.054 105.263,90.054" style="fill-rule:nonzero;"/></g><g><path d="M7251.19,2563.16c96.563,0 214.846,-88.975 214.846,-181.195c-0,-55.35 -43.404,-90.071 -105.263,-90.071c-119.354,-0 -214.841,87.9 -214.841,181.216c-0,56.425 46.666,90.05 105.258,90.05" style="fill-rule:nonzero;"/></g><g><path d="M8284.19,2428.61c96.563,-0 214.846,-88.976 214.846,-181.2c-0,-55.346 -43.404,-90.067 -105.263,-90.067c-119.358,-0 -214.841,87.896 -214.841,181.212c-0,56.425 46.666,90.055 105.258,90.055" style="fill-rule:nonzero;"/></g><g><path d="M8811.19,2246.32c0,-0 -3.246,-65.104 -3.246,-108.508c0,-17.363 1.079,-30.384 2.171,-34.721c7.588,-21.705 50.992,-53.163 75.954,-53.163c31.459,0 44.479,35.8 44.479,62.938c0,58.591 -49.912,117.187 -96.562,146.475c-4.338,2.17 -7.604,3.262 -10.85,3.262c-9.775,0 -11.946,-10.85 -11.946,-16.283m-37.967,96.579c3.246,4.342 6.509,5.417 9.759,5.417c3.262,-0 6.508,-2.171 6.508,-2.171c32.554,-18.438 58.596,-47.742 85.729,-66.179c96.563,-67.275 130.192,-133.475 130.192,-183.388c-0,-61.837 -47.742,-100.9 -97.638,-104.167c-18.458,0 -44.5,8.684 -59.687,18.455c-6.513,5.416 -18.438,15.191 -23.875,15.191c-2.167,0 -3.246,0 -5.417,-1.091c-7.604,-3.246 -11.941,-10.85 -11.941,-18.438c1.091,-23.871 7.604,-284.287 7.604,-305.992c-0,-11.941 -9.775,-18.454 -20.625,-18.454c-15.192,0 -32.554,10.85 -33.629,30.384c-0,-0 4.341,619.583 13.02,630.433" style="fill-rule:nonzero;"/></g><g><path d="M9177.73,2294.06c96.579,-0 214.846,-88.976 214.846,-181.2c-0,-55.346 -43.405,-90.067 -105.246,-90.067c-119.359,-0 -214.842,87.9 -214.842,181.217c0,56.42 46.65,90.05 105.242,90.05" style="fill-rule:nonzero;"/></g><g><path d="M9704.48,2111.77c-0,-0 -3.246,-65.104 -3.246,-108.508c-0,-17.359 1.075,-30.38 2.171,-34.721c7.583,-21.7 50.987,-53.159 75.954,-53.159c31.458,0 44.479,35.796 44.479,62.934c0,58.591 -49.912,117.187 -96.562,146.475c-4.342,2.171 -7.605,3.262 -10.85,3.262c-9.775,0 -11.946,-10.85 -11.946,-16.283m-37.971,96.579c3.25,4.342 6.512,5.417 9.758,5.417c3.263,-0 6.513,-2.171 6.513,-2.171c32.55,-18.438 58.591,-47.742 85.729,-66.179c96.562,-67.275 130.208,-133.471 130.208,-183.384c0,-61.841 -47.746,-100.904 -97.658,-104.166c-18.454,-0 -44.496,8.679 -59.688,18.454c-6.508,5.416 -18.437,15.191 -23.87,15.191c-2.171,0 -3.246,0 -5.417,-1.095c-7.604,-3.246 -11.946,-10.85 -11.946,-18.438c1.096,-23.871 7.604,-284.287 7.604,-305.987c0,-11.946 -9.775,-18.459 -20.625,-18.459c-15.191,0 -32.55,10.854 -33.629,30.384c0,-0 4.342,619.583 13.021,630.433" style="fill-rule:nonzero;"/></g><g><path d="M10071,2159.51c96.579,-0 214.846,-88.975 214.846,-181.196c-0,-55.346 -43.405,-90.071 -105.246,-90.071c-119.359,-0 -214.842,87.9 -214.842,181.217c0,56.424 46.65,90.05 105.242,90.05" style="fill-rule:nonzero;"/></g><g><path d="M10649.6,1981.56c-0,-15.192 66.179,-43.405 92.221,-43.405c6.512,0 9.775,1.096 9.775,5.438l-0,111.75c-0,19.533 -61.859,44.5 -88.975,44.5c-7.605,-0 -13.021,-2.171 -13.021,-6.513l-0,-111.771m112.846,-154.079c-2.171,0 -3.263,1.092 -4.338,1.092c0,-0 -69.446,24.95 -97.658,24.95c-6.509,-0 -10.85,-1.079 -10.85,-5.417l-0,-181.216c-0,-7.588 -6.513,-13.021 -13.021,-13.021l-14.117,-0c-7.583,-0 -13.021,5.433 -13.021,13.021l0,558.82c0,6.509 3.267,9.755 8.684,9.755c1.091,-0 6.508,-1.075 7.604,-2.167c15.192,-6.513 75.954,-32.554 107.412,-32.554c10.85,-0 18.455,3.266 18.455,11.946l-0,161.666c-0,7.604 5.416,13.021 13.02,13.021l14.096,0c6.513,0 13.021,-5.417 13.021,-13.021l0,-544.704c0,-5.417 -4.337,-8.683 -8.679,-8.683c-1.075,-0 -3.246,-0 -4.342,1.096l-16.266,5.416" style="fill-rule:nonzero;"/></g><g><path d="M10964.3,2159.51c96.563,-0 214.842,-88.975 214.842,-181.196c0,-55.346 -43.4,-90.071 -105.258,-90.071c-119.359,-0 -214.846,87.9 -214.846,181.217c-0,56.424 46.667,90.05 105.262,90.05" style="fill-rule:nonzero;"/></g><g><path d="M11596.9,1938.16c-6.513,21.705 -57.5,43.404 -82.467,43.404c-6.512,0 -11.929,-2.17 -13.021,-5.416c-2.171,-4.342 -3.246,-28.213 -3.246,-54.254c0,-33.646 1.075,-71.613 3.246,-80.296c2.171,-18.454 52.084,-41.229 79.217,-41.229c7.587,-0 14.1,2.166 16.271,6.508c2.166,5.417 4.337,32.554 4.337,61.842c0,29.304 -2.171,59.687 -4.337,69.441m74.875,-176.854c7.587,-3.267 13.021,-11.946 13.021,-18.458l-0,-77.029c-0,-5.434 -3.263,-8.68 -7.605,-8.68c-2.166,0 -3.245,0 -5.416,1.075c-0,0 -21.7,8.68 -27.134,9.775c-7.587,0 -15.191,-5.433 -15.191,-14.116l-0,-132.379c-0,-6.509 -6.509,-11.925 -15.192,-11.925c-10.85,-0 -17.358,5.416 -17.358,11.925l-0,141.062c-1.079,10.85 -4.342,24.963 -14.1,31.475c-13.021,7.588 -49.913,22.775 -68.367,27.117c-9.758,-0 -13.021,-13.021 -13.021,-21.7l0,-130.209c0,-6.512 -7.587,-11.929 -15.191,-11.929c-10.85,0 -17.363,5.417 -17.363,11.929l0,146.492c0,15.192 -6.508,26.042 -13.021,29.288c-6.508,3.266 -28.208,11.945 -28.208,11.945c-7.588,2.171 -13.021,10.85 -13.021,17.363l0,77.029c0,6.513 3.263,9.775 8.679,9.775c4.342,0 24.967,-9.775 28.213,-11.946c1.091,0 2.171,-1.075 3.262,-1.075c7.588,0 14.096,10.85 14.096,19.529l0,107.417c0,11.942 -5.417,21.7 -11.925,24.963c-6.512,2.17 -29.304,11.929 -29.304,11.929c-7.588,2.171 -13.021,10.85 -13.021,17.358l0,77.05c0,6.513 3.263,9.758 8.679,9.758c1.092,0 3.263,-1.079 4.342,-1.079c-0,0 15.187,-6.508 24.962,-9.771c1.08,-1.079 2.171,-1.079 3.246,-1.079c7.604,0 13.021,11.93 13.021,17.363l0,133.454c0,6.512 6.513,11.946 14.117,11.946c10.85,-0 18.437,-5.434 18.437,-11.946l0,-150.817c0,-14.112 5.434,-21.7 10.85,-23.87l66.2,-27.134c1.075,0 3.246,-1.079 4.338,-1.079c8.683,0 14.1,13.021 14.1,19.533l-0,135.625c-0,6.509 6.508,11.942 14.112,11.942c11.929,-0 18.438,-5.433 18.438,-11.942l-0,-154.079c-0,-8.683 4.341,-21.704 11.946,-24.95c7.587,-3.262 30.379,-11.946 30.379,-11.946c7.587,-3.246 13.021,-11.925 13.021,-18.437l-0,-77.046c-0,-5.417 -3.263,-8.683 -7.605,-8.683c-2.166,-0 -3.245,-0 -5.416,1.095l-28.209,10.85c-6.512,0 -14.116,-6.508 -14.116,-19.529l-0,-100.921c-0,-7.587 5.433,-28.212 14.116,-31.458l28.209,-10.85" style="fill-rule:nonzero;"/></g><g><path d="M11857,2024.97c96.584,-0 214.846,-88.975 214.846,-181.2c0,-55.346 -43.404,-90.067 -105.241,-90.067c-119.359,0 -214.846,87.896 -214.846,181.213c-0,56.425 46.65,90.054 105.241,90.054" style="fill-rule:nonzero;"/></g><g><path d="M12629,1803.61c-6.513,21.7 -57.517,43.4 -82.467,43.4c-6.508,-0 -11.942,-2.167 -13.021,-5.417c-2.171,-4.338 -3.262,-28.208 -3.262,-54.25c-0,-33.646 1.091,-71.617 3.262,-80.296c2.171,-18.454 52.084,-41.233 79.204,-41.233c7.605,-0 14.113,2.17 16.284,6.508c2.171,5.417 4.341,32.554 4.341,61.842c0,29.304 -2.17,59.687 -4.341,69.445m74.862,-176.858c7.604,-3.262 13.021,-11.946 13.021,-18.454l0,-77.033c0,-5.434 -3.25,-8.68 -7.587,-8.68c-2.171,0 -3.267,0 -5.434,1.075c0,0 -21.704,8.684 -27.121,9.775c-7.604,0 -15.191,-5.433 -15.191,-14.112l-0,-132.379c-0,-6.513 -6.509,-11.929 -15.188,-11.929c-10.854,-0 -17.362,5.416 -17.362,11.929l-0,141.058c-1.096,10.85 -4.342,24.967 -14.117,31.475c-13.021,7.588 -49.912,22.779 -68.35,27.117c-9.775,-0 -13.021,-13.021 -13.021,-21.7l0,-130.209c0,-6.508 -7.604,-11.925 -15.191,-11.925c-10.85,0 -17.359,5.417 -17.359,11.925l0,146.492c0,15.192 -6.512,26.042 -13.021,29.292c-6.512,3.262 -28.212,11.941 -28.212,11.941c-7.604,2.171 -13.021,10.85 -13.021,17.363l0,77.029c0,6.513 3.246,9.775 8.679,9.775c4.342,0 24.95,-9.775 28.213,-11.942c1.075,0 2.171,-1.079 3.246,-1.079c7.604,0 14.116,10.85 14.116,19.534l0,107.412c0,11.946 -5.433,21.7 -11.946,24.967c-6.508,2.166 -29.287,11.925 -29.287,11.925c-7.604,2.171 -13.021,10.85 -13.021,17.362l0,77.046c0,6.513 3.246,9.758 8.679,9.758c1.079,0 3.246,-1.075 4.342,-1.075c-0,0 15.192,-6.512 24.946,-9.775c1.096,-1.075 2.171,-1.075 3.266,-1.075c7.588,0 13.021,11.925 13.021,17.359l0,133.454c0,6.512 6.509,11.946 14.096,11.946c10.85,-0 18.454,-5.434 18.454,-11.946l0,-150.813c0,-14.116 5.417,-21.704 10.85,-23.875l66.184,-27.133c1.091,0 3.262,-1.075 4.337,-1.075c8.683,0 14.117,13.021 14.117,19.529l-0,135.625c-0,6.513 6.508,11.946 14.096,11.946c11.945,0 18.454,-5.433 18.454,-11.946l-0,-154.079c-0,-8.679 4.341,-21.7 11.929,-24.95c7.604,-3.262 30.383,-11.942 30.383,-11.942c7.604,-3.245 13.021,-11.929 13.021,-18.437l0,-77.05c0,-5.417 -3.25,-8.679 -7.587,-8.679c-2.171,-0 -3.267,-0 -5.434,1.091l-28.212,10.85c-6.513,0 -14.1,-6.508 -14.1,-19.529l-0,-100.921c-0,-7.587 5.416,-28.212 14.1,-31.458l28.212,-10.85" style="fill-rule:nonzero;"/></g><g><path d="M12889.2,1890.42c96.562,-0 214.846,-88.975 214.846,-181.196c-0,-55.35 -43.405,-90.071 -105.263,-90.071c-119.354,-0 -214.842,87.9 -214.842,181.217c0,56.42 46.667,90.05 105.259,90.05" style="fill-rule:nonzero;"/></g><g><path d="M13922.2,1621.32c96.562,-0 214.846,-88.975 214.846,-181.2c-0,-55.346 -43.405,-90.071 -105.263,-90.071c-119.358,0 -214.842,87.9 -214.842,181.217c0,56.425 46.667,90.054 105.259,90.054" style="fill-rule:nonzero;"/></g><g><path d="M15402.4,1486.77c96.563,-0 214.842,-88.975 214.842,-181.196c0,-55.35 -43.4,-90.071 -105.258,-90.071c-119.359,0 -214.846,87.9 -214.846,181.217c-0,56.421 46.667,90.05 105.262,90.05" style="fill-rule:nonzero;"/></g><g><path d="M15929.1,1304.48c-0,0 -3.246,-65.104 -3.246,-108.508c-0,-17.358 1.079,-30.379 2.171,-34.721c7.587,-21.7 50.991,-53.158 75.954,-53.158c31.458,-0 44.479,35.795 44.479,62.933c0,58.592 -49.912,117.188 -96.562,146.475c-4.338,2.171 -7.605,3.263 -10.85,3.263c-9.775,-0 -11.946,-10.85 -11.946,-16.284m-37.967,96.579c3.246,4.342 6.508,5.417 9.758,5.417c3.263,0 6.509,-2.171 6.509,-2.171c32.554,-18.437 58.596,-47.741 85.729,-66.179c96.562,-67.275 130.208,-133.471 130.208,-183.383c0,-61.842 -47.741,-100.904 -97.654,-104.167c-18.458,0 -44.5,8.679 -59.687,18.454c-6.513,5.417 -18.438,15.192 -23.875,15.192c-2.167,-0 -3.246,-0 -5.417,-1.096c-7.604,-3.246 -11.942,-10.85 -11.942,-18.437c1.092,-23.871 7.604,-284.288 7.604,-305.992c0,-11.942 -9.775,-18.454 -20.625,-18.454c-15.191,-0 -32.554,10.85 -33.629,30.383c0,0 4.342,619.583 13.021,630.433" style="fill-rule:nonzero;"/></g><g><path d="M16295.6,1352.22c96.562,-0 214.841,-88.975 214.841,-181.196c0,-55.346 -43.4,-90.071 -105.258,-90.071c-119.358,0 -214.846,87.9 -214.846,181.217c0,56.425 46.667,90.05 105.263,90.05" style="fill-rule:nonzero;"/></g><g><path d="M16822.7,1169.93c0,0 -3.246,-65.104 -3.246,-108.504c0,-17.362 1.075,-30.383 2.167,-34.725c7.587,-21.7 50.992,-53.158 75.958,-53.158c31.459,-0 44.479,35.8 44.479,62.933c0,58.596 -49.916,117.187 -96.562,146.475c-4.342,2.171 -7.604,3.267 -10.854,3.267c-9.771,-0 -11.942,-10.85 -11.942,-16.288m-37.971,96.583c3.246,4.338 6.513,5.417 9.759,5.417c3.262,0 6.508,-2.171 6.508,-2.171c32.554,-18.437 58.596,-47.746 85.729,-66.183c96.563,-67.271 130.208,-133.471 130.208,-183.383c0,-61.842 -47.741,-100.905 -97.654,-104.167c-18.454,-0 -44.496,8.679 -59.687,18.454c-6.513,5.417 -18.438,15.192 -23.871,15.192c-2.171,-0 -3.246,-0 -5.417,-1.096c-7.604,-3.246 -11.946,-10.85 -11.946,-18.438c1.096,-23.87 7.605,-284.287 7.605,-305.987c-0,-11.946 -9.775,-18.454 -20.625,-18.454c-15.192,-0 -32.55,10.85 -33.63,30.379c0,-0 4.342,619.583 13.021,630.437" style="fill-rule:nonzero;"/></g><g><path d="M17189.2,1217.67c96.563,0 214.846,-88.975 214.846,-181.2c-0,-55.346 -43.404,-90.071 -105.263,-90.071c-119.358,0 -214.841,87.9 -214.841,181.217c-0,56.425 46.666,90.054 105.258,90.054" style="fill-rule:nonzero;"/></g><g><path d="M17768.2,1039.72c0,-15.188 66.2,-43.4 92.242,-43.4c6.508,-0 9.758,1.091 9.758,5.433l0,111.754c0,19.53 -61.842,44.496 -88.979,44.496c-7.583,0 -13.021,-2.171 -13.021,-6.512l0,-111.771m112.85,-154.079c-2.171,-0 -3.246,1.095 -4.342,1.095c0,0 -69.445,24.946 -97.654,24.946c-6.512,0 -10.854,-1.075 -10.854,-5.416l0,-181.217c0,-7.583 -6.508,-13.021 -13.021,-13.021l-14.096,0c-7.604,0 -13.02,5.438 -13.02,13.021l-0,558.821c-0,6.512 3.245,9.758 8.679,9.758c1.079,0 6.512,-1.075 7.587,-2.171c15.192,-6.508 75.954,-32.55 107.434,-32.55c10.85,0 18.437,3.263 18.437,11.942l0,161.667c0,7.604 5.433,13.02 13.021,13.02l14.112,0c6.513,0 13.021,-5.416 13.021,-13.02l0,-544.705c0,-5.416 -4.341,-8.679 -8.679,-8.679c-1.096,0 -3.267,0 -4.342,1.092l-16.283,5.417" style="fill-rule:nonzero;"/></g><g><path d="M18082.8,1217.67c96.584,0 214.846,-88.975 214.846,-181.2c0,-55.346 -43.404,-90.071 -105.241,-90.071c-119.359,0 -214.846,87.9 -214.846,181.217c-0,56.425 46.65,90.054 105.241,90.054" style="fill-rule:nonzero;"/></g><g><path d="M18715.6,996.321c-6.508,21.7 -57.5,43.4 -82.462,43.4c-6.513,-0 -11.93,-2.167 -13.021,-5.417c-2.171,-4.337 -3.246,-28.208 -3.246,-54.25c-0,-33.65 1.075,-71.617 3.246,-80.296c2.171,-18.458 52.083,-41.233 79.216,-41.233c7.588,-0 14.1,2.171 16.267,6.508c2.171,5.417 4.342,32.554 4.342,61.842c-0,29.304 -2.171,59.687 -4.342,69.446m74.879,-176.859c7.588,-3.266 13.021,-11.945 13.021,-18.454l0,-77.033c0,-5.433 -3.262,-8.679 -7.604,-8.679c-2.171,-0 -3.246,-0 -5.417,1.075c0,-0 -21.7,8.679 -27.133,9.775c-7.588,-0 -15.192,-5.434 -15.192,-14.117l0,-132.375c0,-6.512 -6.512,-11.929 -15.191,-11.929c-10.85,-0 -17.363,5.417 -17.363,11.929l0,141.058c-1.075,10.85 -4.337,24.967 -14.096,31.475c-13.021,7.588 -49.912,22.78 -68.366,27.117c-9.759,0 -13.021,-13.021 -13.021,-21.7l-0,-130.208c-0,-6.513 -7.588,-11.925 -15.192,-11.925c-10.85,-0 -17.362,5.412 -17.362,11.925l-0,146.491c-0,15.192 -6.509,26.042 -13.021,29.288c-6.509,3.267 -28.213,11.946 -28.213,11.946c-7.583,2.171 -13.021,10.85 -13.021,17.362l0,77.029c0,6.513 3.267,9.775 8.684,9.775c4.337,0 24.962,-9.775 28.212,-11.945c1.092,-0 2.167,-1.075 3.263,-1.075c7.587,-0 14.096,10.85 14.096,19.533l-0,107.412c-0,11.946 -5.417,21.7 -11.925,24.967c-6.513,2.167 -29.309,11.925 -29.309,11.925c-7.583,2.171 -13.021,10.85 -13.021,17.363l0,77.045c0,6.513 3.267,9.759 8.684,9.759c1.091,-0 3.262,-1.075 4.337,-1.075c0,-0 15.192,-6.513 24.967,-9.775c1.075,-1.075 2.171,-1.075 3.246,-1.075c7.604,-0 13.021,11.925 13.021,17.358l-0,133.454c-0,6.513 6.512,11.946 14.116,11.946c10.85,0 18.438,-5.433 18.438,-11.946l-0,-150.812c-0,-14.117 5.433,-21.704 10.85,-23.875l66.196,-27.134c1.079,0 3.25,-1.075 4.341,-1.075c8.679,0 14.096,13.021 14.096,19.53l0,135.625c0,6.512 6.513,11.946 14.117,11.946c11.925,-0 18.437,-5.434 18.437,-11.946l0,-154.08c0,-8.679 4.342,-21.7 11.946,-24.95c7.583,-3.262 30.379,-11.941 30.379,-11.941c7.588,-3.246 13.021,-11.929 13.021,-18.438l0,-77.05c0,-5.416 -3.262,-8.679 -7.604,-8.679c-2.171,0 -3.246,0 -5.417,1.092l-28.212,10.85c-6.509,-0 -14.113,-6.509 -14.113,-19.529l0,-100.921c0,-7.588 5.434,-28.213 14.113,-31.458l28.212,-10.851" style="fill-rule:nonzero;"/></g><g><path d="M18975.8,1083.12c96.563,0 214.842,-88.975 214.842,-181.196c-0,-55.35 -43.4,-90.071 -105.259,-90.071c-119.358,0 -214.845,87.9 -214.845,181.217c-0,56.421 46.666,90.05 105.262,90.05" style="fill-rule:nonzero;"/></g><g><path d="M19748.1,861.771c-6.508,21.7 -57.5,43.404 -82.467,43.404c-6.508,0 -11.925,-2.171 -13.02,-5.417c-2.167,-4.341 -3.246,-28.212 -3.246,-54.254c-0,-33.646 1.079,-71.616 3.246,-80.296c2.17,-18.454 52.083,-41.233 79.22,-41.233c7.588,0 14.096,2.171 16.267,6.512c2.171,5.417 4.342,32.551 4.342,61.838c-0,29.308 -2.171,59.688 -4.342,69.446m74.879,-176.858c7.588,-3.263 13.021,-11.942 13.021,-18.455l0,-77.029c0,-5.437 -3.262,-8.683 -7.604,-8.683c-2.171,-0 -3.246,-0 -5.417,1.079c0,0 -21.7,8.679 -27.137,9.771c-7.584,-0 -15.188,-5.433 -15.188,-14.113l0,-132.379c0,-6.508 -6.512,-11.925 -15.191,-11.925c-10.85,0 -17.363,5.417 -17.363,11.925l0,141.059c-1.075,10.85 -4.342,24.966 -14.096,31.475c-13.021,7.587 -49.912,22.779 -68.371,27.12c-9.754,0 -13.02,-13.02 -13.02,-21.704l-0,-130.208c-0,-6.508 -7.584,-11.925 -15.188,-11.925c-10.854,-0 -17.362,5.417 -17.362,11.925l-0,146.496c-0,15.191 -6.513,26.041 -13.021,29.287c-6.513,3.263 -28.213,11.946 -28.213,11.946c-7.587,2.167 -13.021,10.85 -13.021,17.358l0,77.034c0,6.508 3.263,9.775 8.68,9.775c4.341,-0 24.966,-9.775 28.212,-11.946c1.096,-0 2.171,-1.075 3.267,-1.075c7.583,-0 14.096,10.85 14.096,19.529l-0,107.413c-0,11.945 -5.417,21.704 -11.93,24.966c-6.508,2.171 -29.304,11.925 -29.304,11.925c-7.587,2.171 -13.021,10.854 -13.021,17.363l0,77.05c0,6.508 3.263,9.754 8.68,9.754c1.095,-0 3.266,-1.075 4.341,-1.075c0,-0 15.192,-6.508 24.967,-9.775c1.075,-1.075 2.171,-1.075 3.246,-1.075c7.604,-0 13.021,11.925 13.021,17.362l-0,133.455c-0,6.508 6.508,11.941 14.112,11.941c10.854,0 18.438,-5.433 18.438,-11.941l-0,-150.817c-0,-14.117 5.437,-21.7 10.854,-23.871l66.196,-27.137c1.075,-0 3.245,-1.075 4.341,-1.075c8.679,-0 14.096,13.02 14.096,19.529l0,135.625c0,6.512 6.513,11.946 14.117,11.946c11.925,-0 18.437,-5.434 18.437,-11.946l0,-154.079c0,-8.68 4.338,-21.7 11.942,-24.946c7.587,-3.267 30.383,-11.946 30.383,-11.946c7.588,-3.246 13.021,-11.925 13.021,-18.438l0,-77.05c0,-5.416 -3.262,-8.679 -7.604,-8.679c-2.171,0 -3.246,0 -5.417,1.096l-28.212,10.85c-6.509,0 -14.113,-6.512 -14.113,-19.533l0,-100.921c0,-7.583 5.434,-28.208 14.113,-31.458l28.212,-10.85" style="fill-rule:nonzero;"/></g><g><path d="M20008.3,948.575c96.563,0 214.846,-88.975 214.846,-181.196c0,-55.35 -43.404,-90.071 -105.262,-90.071c-119.354,0 -214.842,87.9 -214.842,181.217c0,56.421 46.667,90.05 105.258,90.05" style="fill-rule:nonzero;"/></g><g><path d="M21041.3,679.479c96.563,0 214.846,-88.975 214.846,-181.196c0,-55.35 -43.404,-90.071 -105.262,-90.071c-119.359,0 -214.842,87.901 -214.842,181.217c0,56.421 46.667,90.05 105.258,90.05" style="fill-rule:nonzero;"/></g><g><path d="M22074.3,679.479c96.58,0 214.842,-88.975 214.842,-181.196c0,-55.35 -43.4,-90.071 -105.242,-90.071c-119.358,0 -214.845,87.901 -214.845,181.217c-0,56.421 46.65,90.05 105.245,90.05" style="fill-rule:nonzero;"/></g><g><path d="M22967.6,814.029c96.584,0 214.846,-88.979 214.846,-181.2c0,-55.346 -43.404,-90.071 -105.241,-90.071c-119.359,0 -214.846,87.9 -214.846,181.217c-0,56.425 46.65,90.054 105.241,90.054" style="fill-rule:nonzero;"/></g><g><path d="M23546.6,770.625c0,-15.192 66.18,-43.404 92.221,-43.404c6.513,-0 9.775,1.096 9.775,5.437l0,111.75c0,19.534 -61.858,44.5 -88.975,44.5c-7.604,0 -13.021,-2.17 -13.021,-6.512l0,-111.771m112.846,-154.079c-2.171,-0 -3.262,1.091 -4.341,1.091c-0,0 -69.442,24.951 -97.655,24.951c-6.512,-0 -10.85,-1.08 -10.85,-5.417l0,-181.217c0,-7.587 -6.512,-13.021 -13.02,-13.021l-14.117,0c-7.588,0 -13.021,5.434 -13.021,13.021l0,558.821c0,6.508 3.267,9.754 8.683,9.754c1.092,0 6.509,-1.075 7.605,-2.166c15.187,-6.513 75.954,-32.555 107.412,-32.555c10.85,0 18.454,3.263 18.454,11.946l0,161.667c0,7.604 5.417,13.021 13.021,13.021l14.096,-0c6.512,-0 13.021,-5.417 13.021,-13.021l-0,-544.704c-0,-5.417 -4.338,-8.684 -8.679,-8.684c-1.075,0 -3.246,0 -4.342,1.096l-16.267,5.417" style="fill-rule:nonzero;"/></g><g><path d="M23861.2,948.575c96.562,0 214.841,-88.975 214.841,-181.196c0,-55.35 -43.4,-90.071 -105.258,-90.071c-119.358,0 -214.846,87.9 -214.846,181.217c0,56.421 46.667,90.05 105.263,90.05" style="fill-rule:nonzero;"/></g><g><path d="M24754.6,1083.12c96.584,0 214.846,-88.975 214.846,-181.196c0,-55.35 -43.404,-90.071 -105.241,-90.071c-119.359,0 -214.846,87.9 -214.846,181.217c-0,56.421 46.65,90.05 105.241,90.05" style="fill-rule:nonzero;"/></g><g><path d="M25648.2,1217.67c96.562,0 214.841,-88.975 214.841,-181.2c0,-55.346 -43.4,-90.071 -105.258,-90.071c-119.358,0 -214.846,87.9 -214.846,181.217c0,56.425 46.667,90.054 105.263,90.054" style="fill-rule:nonzero;"/></g><g><path d="M26366.4,1174.27c0,-15.192 66.179,-43.404 92.221,-43.404c6.512,-0 9.775,1.096 9.775,5.437l-0,111.75c-0,19.534 -61.858,44.5 -88.975,44.5c-7.604,0 -13.021,-2.171 -13.021,-6.512l0,-111.771m112.846,-154.079c-2.171,-0 -3.263,1.091 -4.342,1.091c0,0 -69.441,24.95 -97.654,24.95c-6.512,0 -10.85,-1.079 -10.85,-5.416l0,-181.217c0,-7.587 -6.512,-13.021 -13.021,-13.021l-14.116,0c-7.588,0 -13.021,5.434 -13.021,13.021l-0,558.821c-0,6.508 3.266,9.754 8.683,9.754c1.092,0 6.508,-1.075 7.604,-2.167c15.188,-6.512 75.954,-32.554 107.413,-32.554c10.85,0 18.454,3.263 18.454,11.946l-0,161.667c-0,7.604 5.417,13.021 13.021,13.021l14.096,-0c6.512,-0 13.02,-5.417 13.02,-13.021l0,-544.704c0,-5.417 -4.337,-8.684 -8.679,-8.684c-1.075,0 -3.246,0 -4.341,1.096l-16.267,5.417" style="fill-rule:nonzero;"/></g><g><path d="M26681,1352.22c96.58,-0 214.842,-88.975 214.842,-181.196c0,-55.346 -43.4,-90.071 -105.242,-90.071c-119.358,0 -214.845,87.9 -214.845,181.217c-0,56.425 46.65,90.05 105.245,90.05" style="fill-rule:nonzero;"/></g><g><path d="M27714,1486.77c96.584,-0 214.846,-88.975 214.846,-181.196c0,-55.35 -43.404,-90.071 -105.241,-90.071c-119.359,0 -214.846,87.9 -214.846,181.217c-0,56.421 46.65,90.05 105.241,90.05" style="fill-rule:nonzero;"/></g><g><path d="M565.288,2008.7c3.246,20.604 3.246,19.529 -16.287,26.042c-95.484,32.55 -157.325,118.262 -157.325,210.5c-0,97.658 50.987,167.104 124.775,192.05c8.679,3.262 21.7,6.512 29.304,6.512c8.679,0 13.021,-5.416 13.021,-11.929c-0,-7.604 -8.68,-10.85 -16.284,-14.113c-45.575,-19.533 -78.125,-66.183 -78.125,-116.095c0,-61.859 42.325,-108.509 108.504,-126.963c17.363,-4.342 19.534,-3.246 21.705,8.679l54.254,323.354c2.166,11.942 1.091,11.942 -15.192,15.188c-17.362,3.267 -39.062,5.437 -60.767,5.437c-189.875,0 -312.5,-105.262 -312.5,-256.079c0,-64.025 10.855,-149.737 100.921,-251.733c65.104,-72.708 115.017,-112.85 166.009,-154.079c10.85,-8.684 13.02,-7.604 15.191,4.337l22.796,138.892m118.263,-738.942c35.816,0 65.104,29.304 65.104,88.975c-0,120.45 -103.075,218.109 -188.804,292.967c-7.584,6.512 -11.925,5.437 -14.096,-8.679c-4.342,-28.213 -6.509,-65.104 -6.509,-99.825c0,-169.271 78.125,-273.438 144.305,-273.438m-43.405,911.459c-2.17,-13.021 -1.075,-16.267 11.946,-15.192c87.884,7.604 160.592,81.387 160.592,176.875c-0,68.35 -41.233,123.696 -102,154.079c-13.021,6.513 -15.188,6.513 -17.358,-6.512l-53.18,-309.25m-58.591,-338.542c-2.171,-13.021 -0,-14.1 6.508,-20.608c117.188,-109.6 206.163,-247.396 206.163,-413.421c-0,-94.392 -26.042,-187.709 -70.521,-252.813c-16.284,-23.871 -44.496,-54.254 -56.421,-54.254c-15.192,0 -48.838,28.213 -70.538,52.083c-80.295,88.975 -106.337,224.6 -106.337,337.45c-0,62.934 7.604,133.471 15.192,177.95c2.166,13.021 3.262,15.192 -9.759,26.042c-156.25,129.133 -322.275,284.288 -322.275,503.471c0,188.804 129.134,367.85 394.967,367.85c24.962,-0 53.175,-2.171 74.879,-6.513c11.925,-2.17 14.096,-3.262 16.267,9.759c13.021,72.708 29.304,167.1 29.304,218.108c-0,160.588 -108.508,180.121 -172.533,180.121c-58.596,-0 -86.809,-17.363 -86.809,-31.475c0,-7.588 9.775,-10.854 34.725,-18.438c33.646,-9.775 72.709,-39.062 72.709,-102c-0,-59.687 -37.988,-110.675 -104.167,-110.675c-72.708,0 -116.113,57.5 -116.113,124.775c0,70.538 42.325,176.876 206.163,176.876c72.708,-0.001 213.767,-32.555 213.767,-217.017c-0,-61.854 -19.53,-164.929 -31.475,-232.204c-2.171,-13.021 -1.075,-11.942 14.116,-18.455c109.584,-43.404 182.292,-135.624 182.292,-258.245c-0,-138.888 -101.996,-261.492 -261.513,-261.492c-28.212,-0 -28.212,-0 -31.458,-19.533l-27.133,-157.342" style="fill-rule:nonzero;"/></g><g><path d="M6245.19,3210.51c-14.106,0 -21.702,6.511 -21.702,16.276c0,9.766 7.596,16.276 21.702,16.276l10.85,0c40.148,0 59.679,23.872 59.679,58.594c0,47.743 -33.637,113.933 -99.826,113.933c-21.702,-0 -39.063,-8.681 -39.063,-19.532c0,-6.51 5.426,-8.68 14.106,-13.021c11.936,-5.425 27.127,-18.446 27.127,-46.658c-0,-26.041 -18.446,-39.062 -41.233,-39.062c-30.382,-0 -53.168,27.127 -53.168,62.934c-0,43.403 34.722,83.55 111.762,83.55c92.231,0 168.186,-55.338 168.186,-141.059c0,-27.127 -14.106,-53.168 -42.318,-67.274c-7.595,-3.255 -11.936,-4.34 -11.936,-9.766c0,-3.255 4.341,-5.425 13.021,-9.765c45.573,-18.447 82.466,-53.169 82.466,-96.572c-0,-56.423 -54.254,-91.146 -120.443,-91.146c-68.36,0 -124.783,35.808 -126.953,94.401c-1.086,28.212 16.276,46.658 41.232,46.658c27.127,0 48.828,-21.701 48.828,-50.998c0,-11.936 -4.34,-20.616 -9.765,-27.127c-7.596,-6.51 -13.021,-10.85 -13.021,-14.106c-0,-7.595 13.021,-15.191 35.807,-15.191c42.318,0 56.424,26.042 56.424,49.914c-0,57.508 -36.892,98.741 -99.827,98.741l-11.935,0Z" style="fill-rule:nonzero;"/></g><g><path d="M12756.3,2968.6c-14.106,-0 -21.701,6.51 -21.701,16.276c-0,9.766 7.595,16.276 21.701,16.276l10.851,-0c40.147,-0 59.679,23.872 59.679,58.594c-0,47.743 -33.638,113.932 -99.827,113.932c-21.701,0 -39.062,-8.68 -39.062,-19.531c-0,-6.51 5.425,-8.681 14.105,-13.021c11.936,-5.425 27.127,-18.446 27.127,-46.658c0,-26.042 -18.446,-39.062 -41.232,-39.062c-30.382,-0 -53.169,27.126 -53.169,62.934c0,43.402 34.722,83.55 111.762,83.55c92.231,0 168.186,-55.339 168.186,-141.059c0,-27.127 -14.106,-53.169 -42.317,-67.275c-7.596,-3.255 -11.936,-4.34 -11.936,-9.765c-0,-3.255 4.34,-5.426 13.021,-9.766c45.573,-18.446 82.465,-53.168 82.465,-96.571c0,-56.424 -54.254,-91.146 -120.443,-91.146c-68.359,-0 -124.783,35.807 -126.953,94.401c-1.085,28.212 16.276,46.658 41.233,46.658c27.126,0 48.828,-21.701 48.828,-50.998c-0,-11.936 -4.341,-20.617 -9.766,-27.127c-7.595,-6.51 -13.021,-10.851 -13.021,-14.106c0,-7.595 13.021,-15.191 35.808,-15.191c42.317,0 56.423,26.042 56.423,49.913c0,57.509 -36.892,98.742 -99.826,98.742l-11.936,-0Z" style="fill-rule:nonzero;"/></g><g><path d="M19875.2,2811.64c-14.106,0 -21.701,6.511 -21.701,16.276c-0,9.766 7.595,16.276 21.701,16.276l10.851,0c40.148,0 59.679,23.872 59.679,58.594c-0,47.743 -33.637,113.933 -99.827,113.933c-21.701,-0 -39.062,-8.681 -39.062,-19.532c-0,-6.51 5.425,-8.68 14.106,-13.02c11.936,-5.426 27.127,-18.447 27.127,-46.658c-0,-26.042 -18.447,-39.063 -41.233,-39.063c-30.382,0 -53.169,27.127 -53.169,62.934c0,43.403 34.723,83.551 111.763,83.551c92.231,-0 168.186,-55.339 168.186,-141.06c-0,-27.126 -14.106,-53.168 -42.318,-67.274c-7.596,-3.255 -11.936,-4.34 -11.936,-9.766c0,-3.255 4.34,-5.425 13.021,-9.765c45.573,-18.447 82.465,-53.169 82.465,-96.572c0,-56.423 -54.253,-91.146 -120.443,-91.146c-68.359,0 -124.783,35.808 -126.953,94.402c-1.085,28.211 16.276,46.658 41.233,46.658c27.127,-0 48.828,-21.702 48.828,-50.999c0,-11.935 -4.34,-20.616 -9.766,-27.126c-7.595,-6.511 -13.02,-10.851 -13.02,-14.106c-0,-7.596 13.02,-15.191 35.807,-15.191c42.318,-0 56.424,26.041 56.424,49.913c-0,57.509 -36.893,98.741 -99.827,98.741l-11.936,0Z" style="fill-rule:nonzero;"/></g><g><path d="M26547.8,2811.64c-14.106,0 -21.701,6.511 -21.701,16.276c-0,9.766 7.595,16.276 21.701,16.276l10.851,0c40.147,0 59.679,23.872 59.679,58.594c-0,47.743 -33.638,113.933 -99.827,113.933c-21.701,-0 -39.062,-8.681 -39.062,-19.532c-0,-6.51 5.425,-8.68 14.105,-13.02c11.936,-5.426 27.127,-18.447 27.127,-46.658c0,-26.042 -18.446,-39.063 -41.232,-39.063c-30.382,0 -53.169,27.127 -53.169,62.934c0,43.403 34.722,83.551 111.762,83.551c92.231,-0 168.186,-55.339 168.186,-141.06c0,-27.126 -14.106,-53.168 -42.317,-67.274c-7.596,-3.255 -11.936,-4.34 -11.936,-9.766c-0,-3.255 4.34,-5.425 13.021,-9.765c45.573,-18.447 82.465,-53.169 82.465,-96.572c0,-56.423 -54.254,-91.146 -120.443,-91.146c-68.359,0 -124.783,35.808 -126.953,94.402c-1.085,28.211 16.276,46.658 41.233,46.658c27.126,-0 48.828,-21.702 48.828,-50.999c-0,-11.935 -4.341,-20.616 -9.766,-27.126c-7.595,-6.511 -13.021,-10.851 -13.021,-14.106c0,-7.596 13.021,-15.191 35.808,-15.191c42.317,-0 56.423,26.041 56.423,49.913c0,57.509 -36.892,98.741 -99.826,98.741l-11.936,0Z" style="fill-rule:nonzero;"/></g><g><path d="M1794.68,2158.39l-0,-134.605l2712.65,-67.27l-0,134.6l-2712.65,67.27" style="fill-rule:nonzero;"/></g><g><path d="M1794.68,2360.26l-0,-134.605l2712.65,-67.27l-0,134.6l-2712.65,67.274" style="fill-rule:nonzero;"/></g><g><path d="M5368.36,1889.34l-0,-136.338l2097.45,-336.371l-0,136.338l-2097.45,336.371" style="fill-rule:nonzero;"/></g><g><path d="M8178.69,3167.99l0,-134.726l2712.68,-134.545l0,134.72l-2712.68,134.551" style="fill-rule:nonzero;"/></g><g><path d="M8178.69,2965.89l0,-134.709l2712.68,-134.546l0,134.704l-2712.68,134.55" style="fill-rule:nonzero;"/></g><g><path d="M11751.8,2832.31l0,-135.675l2097.45,-269.1l0,135.68l-2097.45,269.095" style="fill-rule:nonzero;"/></g><g><path d="M15297.2,2361.95l0,-135.209l2712.67,-269.1l-0,135.209l-2712.67,269.1" style="fill-rule:nonzero;"/></g><g><path d="M15297.2,2159.08l0,-135.192l2712.67,-269.095l-0,135.191l-2712.67,269.096" style="fill-rule:nonzero;"/></g><g><path d="M18870.4,2091.22l0,-134.6l2097.99,-67.275l-0,134.6l-2097.99,67.275" style="fill-rule:nonzero;"/></g><g><path d="M21968.9,2023.99l0,-134.6l2713.21,67.275l-0,134.6l-2713.21,-67.275" style="fill-rule:nonzero;"/></g><g><path d="M21968.9,1822.12l0,-134.6l2713.21,67.275l-0,134.6l-2713.21,-67.275" style="fill-rule:nonzero;"/></g><g><path d="M25543,2092.29l0,-135.679l2097.97,269.1l0,135.675l-2097.97,-269.096" style="fill-rule:nonzero;"/></g><g><path d="M4991.81,3235.9l986.321,0l-0,-43.075l-943.471,0l0,-158.75l-42.85,0" style="fill-rule:nonzero;"/></g><g><path d="M7487.48,3235.9l-919.063,0l0,-43.075l876.196,0l0,-158.75l42.867,0" style="fill-rule:nonzero;"/></g><g><path d="M39.038,5253.04l12814.1,-0" style="fill:none;stroke:#000;stroke-width:34.92px;"/><path d="M39.038,5522.17l12814.1,-0" style="fill:none;stroke:#000;stroke-width:34.92px;"/><path d="M39.038,5791.25l12814.1,0" style="fill:none;stroke:#000;stroke-width:34.92px;"/><path d="M39.038,6060.33l12814.1,0" style="fill:none;stroke:#000;stroke-width:34.92px;"/><path d="M39.038,6329.46l12814.1,0" style="fill:none;stroke:#000;stroke-width:34.92px;"/></g><g><path d="M10080.3,5235.58l0,1111.34" style="fill:none;stroke:#000;stroke-width:43.04px;"/><path d="M12680.6,5235.58l-0,1111.34" style="fill:none;stroke:#000;stroke-width:43.04px;"/><path d="M12831.4,5235.58l0,1111.34" style="fill:none;stroke:#000;stroke-width:43.04px;"/></g><g><path d="M1522.86,5298.25l-0,967.5" style="fill:none;stroke:#000;stroke-width:32.29px;"/><path d="M2061.05,5432.79l-0,911.945" style="fill:none;stroke:#000;stroke-width:32.29px;"/><path d="M2599.8,5567.33l-0,856.334" style="fill:none;stroke:#000;stroke-width:32.29px;"/><path d="M3357.72,5701.88l0,832.954" style="fill:none;stroke:#000;stroke-width:32.29px;"/><path d="M4183.98,4982.21l-0,763.838" style="fill:none;stroke:#000;stroke-width:32.29px;"/><path d="M4805.73,5083.12l-0,797.483" style="fill:none;stroke:#000;stroke-width:32.29px;"/><path d="M5428.02,5184.04l0,831.112" style="fill:none;stroke:#000;stroke-width:32.29px;"/><path d="M6050.31,5247.46l0,902.238" style="fill:none;stroke:#000;stroke-width:32.29px;"/><path d="M6588.48,5346.08l-0,938.159" style="fill:none;stroke:#000;stroke-width:32.29px;"/><path d="M7127.23,5444.79l-0,974.025" style="fill:none;stroke:#000;stroke-width:32.29px;"/><path d="M7885.69,5583.83l0,969.513" style="fill:none;stroke:#000;stroke-width:32.29px;"/></g><g><path d="M7536.86,6598.54l472.55,-0" style="fill:none;stroke:#000;stroke-width:43.04px;"/></g><g><path d="M8489.02,5791.04l0,896.875" style="fill:none;stroke:#000;stroke-width:32.29px;"/></g><g><path d="M8077.23,6598.54l535.487,-0" style="fill:none;stroke:#000;stroke-width:43.04px;"/></g><g><path d="M9111.27,5824.67l0,997.779" style="fill:none;stroke:#000;stroke-width:32.29px;"/></g><g><path d="M8699.52,6867.62l535.488,0" style="fill:none;stroke:#000;stroke-width:43.04px;"/><path d="M8699.52,6598.54l535.488,-0" style="fill:none;stroke:#000;stroke-width:43.04px;"/></g><g><path d="M9733.02,5858.29l0,1098.7" style="fill:none;stroke:#000;stroke-width:32.29px;"/></g><g><path d="M9321.81,6867.62l535.471,0" style="fill:none;stroke:#000;stroke-width:43.04px;"/><path d="M9321.81,6598.54l535.471,-0" style="fill:none;stroke:#000;stroke-width:43.04px;"/><path d="M10398.7,6867.62l672.741,0" style="fill:none;stroke:#000;stroke-width:43.04px;"/><path d="M10398.7,6598.54l672.741,-0" style="fill:none;stroke:#000;stroke-width:43.04px;"/></g><g><path d="M1724.56,4886.08l-0,-116.091c-0,-5.434 -1.079,-9.775 -6.513,-9.775c-4.341,-0 -7.587,1.095 -10.85,5.433l-32.554,62.933c-2.166,2.171 -5.416,5.417 -5.416,13.021l-0,44.479l-70.538,0c44.496,-36.891 113.942,-159.496 115.017,-166.004c-0,-1.096 1.096,-2.171 1.096,-3.266c-0,-4.338 -4.342,-7.588 -7.605,-7.588c-5.416,0 -28.212,2.171 -37.97,2.171c-9.771,-0 -16.284,-2.171 -20.625,-2.171c-5.417,0 -13.021,2.171 -13.021,10.854c-0,69.442 -56.421,148.646 -70.521,168.175c-2.167,2.171 -4.338,5.434 -4.338,8.679c0,5.438 4.338,10.855 10.85,10.855l97.655,-0l-0,33.645c-0,15.188 -8.68,19.529 -17.359,19.529c-9.775,0 -14.116,4.342 -14.116,9.759c-0,5.433 2.17,11.941 11.945,11.941l93.317,0.001c5.417,-0.001 10.85,-4.338 10.85,-11.942c0,-7.588 -6.512,-10.85 -11.946,-10.85c-5.416,-0 -17.358,-3.25 -17.358,-20.608l-0,-31.475l40.154,-0c5.417,-0 8.679,-4.342 8.679,-10.855c0,-6.508 -2.166,-10.85 -8.679,-10.85l-40.154,0" style="fill-rule:nonzero;"/></g><g><path d="M2193.91,4710.54c-59.667,-0 -85.708,40.137 -85.708,62.933c-0,15.192 8.679,33.629 35.796,34.721c20.625,-0 30.383,-13.021 30.383,-27.133l-0,-4.342c-1.075,-16.267 -11.929,-17.358 -14.096,-18.438c-2.171,-1.091 -6.512,-5.433 -6.512,-13.02c2.17,-11.942 18.437,-16.284 22.779,-16.284c55.346,0 71.612,29.304 71.612,47.742c0,51.008 -52.083,55.35 -68.35,56.425c-7.604,-0 -15.191,3.262 -15.191,9.775c-0,6.508 9.758,6.508 14.1,6.508c62.933,0 71.612,32.554 71.612,48.821c0,62.933 -50.987,65.104 -64.008,65.104c-6.513,0 -17.363,-3.246 -18.459,-8.679l0,-6.512c0,-11.925 3.267,-24.946 4.342,-35.8c0,-19.53 -13.021,-31.475 -32.55,-31.475l-4.342,-0c-7.587,2.17 -15.191,6.512 -20.608,11.945c-7.604,6.513 -9.775,16.267 -9.775,26.042c1.096,34.721 31.475,64.008 85.729,65.104l6.513,0c53.158,0 108.504,-28.212 108.504,-75.954c-0,-10.85 -2.167,-19.533 -5.433,-26.042c-2.171,-6.512 -6.509,-11.945 -10.85,-16.287c-3.246,-4.338 -7.588,-7.583 -11.925,-10.85l-11.946,-6.508l-6.513,-2.171c-2.166,-0 -3.246,-1.075 -5.416,-1.075l-6.509,-2.171c-3.262,-1.096 -4.341,-0 -5.433,-2.171c-1.079,-1.096 -1.079,-2.171 -1.079,-3.262c-0,-2.171 1.079,-4.342 3.25,-4.342l17.358,-5.417c7.604,-4.341 15.192,-7.604 20.625,-15.191c8.683,-8.68 11.929,-22.796 11.929,-34.721c0,-51.009 -67.275,-65.104 -91.146,-67.275l-8.683,-0" style="fill-rule:nonzero;"/></g><g><path d="M2681.2,4835.29c-0,-0 -1.092,4.341 -1.092,7.604c0,4.341 4.342,8.679 8.679,8.679c3.267,0 5.434,-3.262 6.513,-4.342c1.091,-3.262 14.112,-47.741 20.625,-58.591c2.171,-4.342 4.337,-5.434 5.416,-5.434c2.171,0 3.263,4.338 3.263,7.605l-0,155.154c-0,13.021 -10.85,20.625 -21.7,20.625c-4.342,-0 -9.775,2.171 -9.775,8.683c-0,6.508 5.433,8.679 14.112,8.679l91.146,0c8.684,0 8.684,-8.679 8.684,-8.679c-0,0 -0,-8.683 -8.684,-8.683c-7.604,-0 -17.358,-9.775 -17.358,-19.529l-0,-225.696c-0,-8.679 -3.267,-13.021 -10.85,-13.021c-7.604,-0 -14.117,2.171 -20.625,2.171c-10.854,-0 -13.021,-0 -21.704,-2.171c-4.338,-0 -9.754,6.512 -13.021,10.85l-33.629,116.096" style="fill-rule:nonzero;"/></g><g><path d="M3439.42,4835.29c0,-0 -1.091,4.341 -1.091,7.604c-0,4.341 4.337,8.679 8.679,8.679c3.262,0 5.433,-3.262 6.512,-4.342c1.092,-3.262 14.113,-47.741 20.625,-58.591c2.167,-4.342 4.338,-5.434 5.417,-5.434c2.167,0 3.262,4.338 3.262,7.605l0,155.154c0,13.021 -10.85,20.625 -21.7,20.625c-4.341,-0 -9.775,2.171 -9.775,8.683c0,6.508 5.434,8.679 14.113,8.679l91.146,0c8.683,0 8.683,-8.679 8.683,-8.679c0,0 0,-8.683 -8.683,-8.683c-7.604,-0 -17.359,-9.775 -17.359,-19.529l0,-225.696c0,-8.679 -3.266,-13.021 -10.854,-13.021c-7.604,-0 -14.112,2.171 -20.625,2.171c-10.85,-0 -13.021,-0 -21.7,-2.171c-4.341,-0 -9.758,6.512 -13.021,10.85l-33.629,116.096" style="fill-rule:nonzero;"/></g><g><path d="M4097.61,4683.54l0,-116.113c0,-5.416 -1.075,-9.754 -6.512,-9.754c-4.338,0 -7.584,1.075 -10.85,5.417l-32.55,62.933c-2.171,2.171 -5.417,5.433 -5.417,13.021l-0,44.496l-70.538,-0c44.496,-36.892 113.938,-159.513 115.017,-166.025c0,-1.075 1.092,-2.171 1.092,-3.246c-0,-4.342 -4.338,-7.604 -7.604,-7.604c-5.417,-0 -28.213,2.171 -37.967,2.171c-9.775,-0.001 -16.288,-2.171 -20.625,-2.171c-5.417,-0 -13.021,2.171 -13.021,10.85c0,69.445 -56.425,148.662 -70.521,168.195c-2.171,2.171 -4.341,5.417 -4.341,8.68c-0,5.416 4.341,10.85 10.85,10.85l97.658,-0l-0,33.629c-0,15.191 -8.683,19.533 -17.363,19.533c-9.775,0 -14.112,4.338 -14.112,9.775c-0,5.417 2.167,11.925 11.942,11.925l93.316,0c5.417,0 10.85,-4.341 10.85,-11.925c0,-7.604 -6.508,-10.854 -11.941,-10.854c-5.417,0 -17.363,-3.262 -17.363,-20.625l0,-31.458l40.154,-0c5.417,-0 8.684,-4.338 8.684,-10.85c-0,-6.509 -2.171,-10.85 -8.684,-10.85l-40.154,-0" style="fill-rule:nonzero;"/></g><g><path d="M4769.65,4745.67c0,-7.6 -3.245,-8.68 -6.508,-8.68c-4.342,0.001 -6.512,3.246 -7.587,6.513c-5.434,15.188 -17.363,34.721 -33.646,34.721c-2.171,-0 -4.342,-0 -6.509,-1.096l-16.27,-5.417c-10.85,-4.337 -36.892,-13.02 -58.592,-13.02c-7.604,-0 -14.117,1.079 -20.625,3.25c11.946,-20.609 68.367,-47.746 80.296,-50.992c39.062,-5.433 71.612,-28.213 71.612,-70.538c0,-26.041 -10.85,-43.404 -24.946,-56.425c-28.212,-22.775 -69.445,-26.041 -81.391,-26.041c-39.063,-0 -70.521,2.171 -98.729,34.725c-7.605,8.679 -10.855,17.358 -10.855,26.041c0,7.605 3.25,16.284 6.513,26.042c6.508,13.021 20.608,22.792 35.8,22.792c27.133,-0 30.379,-26.042 30.379,-37.984c0,-24.95 -27.117,-27.12 -27.117,-37.97c0,-7.605 10.85,-20.625 43.405,-20.625c50.987,-0 68.35,42.329 68.35,55.35c-0,19.529 -6.513,37.966 -17.363,53.158c-19.529,24.967 -55.329,33.646 -82.467,51.008c-30.379,18.438 -50.987,49.913 -60.762,84.634c-0,7.587 3.262,16.266 9.775,19.533c1.075,1.075 3.246,1.075 4.342,1.075c11.925,-0 18.437,-33.629 50.987,-33.629c21.7,-0 29.304,29.287 78.125,29.287c22.796,0 65.104,-2.171 73.783,-85.712" style="fill-rule:nonzero;"/></g><g><path d="M5222.15,4792.88c0,0 -1.091,4.337 -1.091,7.587c-0,4.338 4.337,8.68 8.679,8.68c3.262,-0 5.433,-3.246 6.512,-4.342c1.092,-3.246 14.113,-47.742 20.625,-58.592c2.167,-4.341 4.338,-5.416 5.417,-5.416c2.167,-0 3.263,4.337 3.263,7.587l-0,155.171c-0,13.021 -10.85,20.608 -21.7,20.608c-4.342,0 -9.775,2.171 -9.775,8.679c-0,6.513 5.433,8.684 14.112,8.684l91.146,-0c8.683,-0 8.683,-8.684 8.683,-8.684c0,0 0,-8.679 -8.683,-8.679c-7.604,0 -17.358,-9.758 -17.358,-19.529l-0,-225.696c-0,-8.679 -3.267,-13.021 -10.855,-13.021c-7.604,0 -14.112,2.171 -20.625,2.171c-10.85,0 -13.02,0 -21.7,-2.171c-4.341,0 -9.758,6.509 -13.02,10.85l-33.63,116.113" style="fill-rule:nonzero;"/></g><g><path d="M5964.31,4886.29l0,-116.113c0,-5.416 -1.092,-9.758 -6.508,-9.758c-4.342,-0 -7.604,1.079 -10.85,5.416l-32.554,62.934c-2.171,2.171 -5.434,5.437 -5.434,13.021l0,44.5l-70.521,-0c44.48,-36.896 113.925,-159.517 115.017,-166.025c0,-1.08 1.075,-2.171 1.075,-3.246c0,-4.342 -4.337,-7.604 -7.583,-7.604c-5.438,-0 -28.213,2.166 -37.988,2.166c-9.758,0 -16.266,-2.166 -20.608,-2.166c-5.433,-0 -13.021,2.166 -13.021,10.85c0,69.441 -56.425,148.662 -70.537,168.191c-2.171,2.171 -4.342,5.417 -4.342,8.684c-0,5.416 4.342,10.85 10.85,10.85l97.658,-0l0,33.629c0,15.191 -8.679,19.529 -17.362,19.529c-9.754,-0 -14.096,4.342 -14.096,9.775c-0,5.417 2.171,11.929 11.925,11.929l93.317,0c5.433,0 10.85,-4.342 10.85,-11.929c-0,-7.604 -6.509,-10.85 -11.925,-10.85c-5.434,-0 -17.363,-3.263 -17.363,-20.625l0,-31.458l40.142,-0c5.433,-0 8.679,-4.342 8.679,-10.85c-0,-6.513 -2.171,-10.85 -8.679,-10.85l-40.142,-0" style="fill-rule:nonzero;"/></g><g><path d="M6433.65,4710.54c-59.67,-0 -85.712,40.137 -85.712,62.933c-0,15.192 8.679,33.629 35.8,34.721c20.625,-0 30.379,-13.021 30.379,-27.133l0,-4.342c-1.075,-16.267 -11.925,-17.358 -14.096,-18.438c-2.171,-1.091 -6.508,-5.433 -6.508,-13.02c2.167,-11.942 18.437,-16.284 22.775,-16.284c55.35,0 71.617,29.304 71.617,47.742c-0,51.008 -52.084,55.35 -68.35,56.425c-7.605,-0 -15.192,3.262 -15.192,9.775c-0,6.508 9.754,6.508 14.096,6.508c62.933,0 71.616,32.554 71.616,48.821c0,62.933 -50.991,65.104 -64.012,65.104c-6.508,0 -17.363,-3.246 -18.454,-8.679l-0,-6.512c-0,-11.925 3.262,-24.946 4.341,-35.8c0,-19.53 -13.02,-31.475 -32.554,-31.475l-4.341,-0c-7.584,2.17 -15.188,6.512 -20.605,11.945c-7.604,6.513 -9.775,16.267 -9.775,26.042c1.092,34.721 31.475,64.008 85.73,65.104l6.508,0c53.162,0 108.508,-28.212 108.508,-75.954c0,-10.85 -2.171,-19.533 -5.433,-26.042c-2.171,-6.512 -6.513,-11.945 -10.85,-16.287c-3.25,-4.338 -7.588,-7.583 -11.929,-10.85l-11.946,-6.508l-6.508,-2.171c-2.171,-0 -3.246,-1.075 -5.417,-1.075l-6.513,-2.171c-3.262,-1.096 -4.337,-0 -5.433,-2.171c-1.075,-1.096 -1.075,-2.171 -1.075,-3.262c0,-2.171 1.075,-4.342 3.246,-4.342l17.362,-5.417c7.605,-4.341 15.192,-7.604 20.625,-15.191c8.68,-8.68 11.925,-22.796 11.925,-34.721c0,-51.009 -67.275,-65.104 -91.145,-67.275l-8.68,-0" style="fill-rule:nonzero;"/></g><g><path d="M6920.9,4835.29c0,-0 -1.095,4.341 -1.095,7.604c-0,4.341 4.341,8.679 8.679,8.679c3.266,0 5.437,-3.262 6.512,-4.342c1.092,-3.262 14.113,-47.741 20.625,-58.591c2.171,-4.342 4.342,-5.434 5.417,-5.434c2.171,0 3.262,4.338 3.262,7.605l0,155.154c0,13.021 -10.85,20.625 -21.7,20.625c-4.341,-0 -9.775,2.171 -9.775,8.683c0,6.508 5.434,8.679 14.117,8.679l91.146,0c8.679,0 8.679,-8.679 8.679,-8.679c0,0 0,-8.683 -8.679,-8.683c-7.604,-0 -17.363,-9.775 -17.363,-19.529l0,-225.696c0,-8.679 -3.262,-13.021 -10.85,-13.021c-7.604,-0 -14.116,2.171 -20.625,2.171c-10.85,-0 -13.02,-0 -21.704,-2.171c-4.337,-0 -9.754,6.512 -13.021,10.85l-33.625,116.096" style="fill-rule:nonzero;"/></g><g><path d="M7679.69,4835.29c0,-0 -1.075,4.341 -1.075,7.604c0,4.341 4.338,8.679 8.679,8.679c3.246,0 5.417,-3.262 6.509,-4.342c1.079,-3.262 14.1,-47.741 20.608,-58.591c2.171,-4.342 4.342,-5.434 5.433,-5.434c2.171,0 3.25,4.338 3.25,7.605l0,155.154c0,13.021 -10.854,20.625 -21.704,20.625c-4.337,-0 -9.754,2.171 -9.754,8.683c-0,6.508 5.417,8.679 14.096,8.679l91.146,0c8.679,0 8.679,-8.679 8.679,-8.679c-0,0 -0,-8.683 -8.679,-8.683c-7.588,-0 -17.363,-9.775 -17.363,-19.529l0,-225.696c0,-8.679 -3.246,-13.021 -10.85,-13.021c-7.587,-0 -14.096,2.171 -20.608,2.171c-10.85,-0 -13.021,-0 -21.7,-2.171c-4.342,-0 -9.775,6.512 -13.021,10.85l-33.646,116.096" style="fill-rule:nonzero;"/></g><g><path d="M8402.73,4886.29l-0,-116.113c-0,-5.416 -1.092,-9.758 -6.509,-9.758c-4.341,-0 -7.604,1.079 -10.854,5.416l-32.55,62.934c-2.171,2.171 -5.433,5.437 -5.433,13.021l-0,44.5l-70.521,-0c44.479,-36.896 113.921,-159.517 115.017,-166.025c-0,-1.08 1.075,-2.171 1.075,-3.246c-0,-4.342 -4.338,-7.604 -7.588,-7.604c-5.433,-0 -28.208,2.166 -37.983,2.166c-9.758,0 -16.267,-2.166 -20.608,-2.166c-5.434,-0 -13.021,2.166 -13.021,10.85c-0,69.441 -56.425,148.662 -70.538,168.191c-2.171,2.171 -4.341,5.417 -4.341,8.684c-0,5.416 4.341,10.85 10.85,10.85l97.658,-0l-0,33.629c-0,15.191 -8.683,19.529 -17.363,19.529c-9.758,-0 -14.095,4.342 -14.095,9.775c-0,5.417 2.17,11.929 11.925,11.929l93.316,0c5.434,0 10.85,-4.342 10.85,-11.929c0,-7.604 -6.508,-10.85 -11.925,-10.85c-5.433,-0 -17.362,-3.263 -17.362,-20.625l-0,-31.458l40.137,-0c5.438,-0 8.684,-4.342 8.684,-10.85c-0,-6.513 -2.171,-10.85 -8.684,-10.85l-40.137,-0" style="fill-rule:nonzero;"/></g><g><path d="M9074.73,4897.17c-0,-7.605 -3.246,-8.684 -6.509,-8.684c-4.341,0 -6.512,3.25 -7.587,6.513c-5.433,15.191 -17.363,34.721 -33.646,34.721c-2.171,-0 -4.342,-0 -6.512,-1.092l-16.267,-5.417c-10.85,-4.341 -36.892,-13.02 -58.592,-13.02c-7.604,-0 -14.116,1.075 -20.625,3.245c11.942,-20.608 68.367,-47.745 80.292,-50.991c39.062,-5.434 71.617,-28.213 71.617,-70.538c-0,-26.042 -10.85,-43.404 -24.95,-56.425c-28.209,-22.775 -69.442,-26.041 -81.388,-26.041c-39.062,-0 -70.521,2.17 -98.733,34.725c-7.604,8.679 -10.85,17.358 -10.85,26.041c-0,7.604 3.246,16.283 6.512,26.042c6.509,13.021 20.604,22.796 35.796,22.796c27.138,-0 30.383,-26.042 30.383,-37.988c0,-24.95 -27.116,-27.117 -27.116,-37.971c-0,-7.604 10.85,-20.625 43.4,-20.625c50.991,0 68.35,42.33 68.35,55.35c-0,19.529 -6.509,37.967 -17.359,53.159c-19.533,24.966 -55.329,33.646 -82.466,51.008c-30.384,18.438 -50.988,49.913 -60.763,84.633c0,7.588 3.263,16.267 9.775,19.534c1.075,1.075 3.246,1.075 4.338,1.075c11.929,-0 18.437,-33.629 50.991,-33.629c21.7,-0 29.305,29.287 78.125,29.287c22.796,0 65.105,-2.167 73.784,-85.708" style="fill-rule:nonzero;"/></g><g><path d="M9527.19,4835.29c0,-0 -1.096,4.341 -1.096,7.604c0,4.341 4.342,8.679 8.684,8.679c3.262,0 5.433,-3.262 6.508,-4.342c1.096,-3.262 14.117,-47.741 20.625,-58.591c2.171,-4.342 4.342,-5.434 5.417,-5.434c2.17,0 3.266,4.338 3.266,7.605l0,155.154c0,13.021 -10.854,20.625 -21.704,20.625c-4.337,-0 -9.775,2.171 -9.775,8.683c0,6.508 5.438,8.679 14.117,8.679l91.146,0c8.679,0 8.679,-8.679 8.679,-8.679c-0,0 -0,-8.683 -8.679,-8.683c-7.605,-0 -17.363,-9.775 -17.363,-19.529l0,-225.696c0,-8.679 -3.262,-13.021 -10.85,-13.021c-7.604,-0 -14.112,2.171 -20.625,2.171c-10.85,-0 -13.021,-0 -21.7,-2.171c-4.342,-0 -9.758,6.512 -13.021,10.85l-33.629,116.096" style="fill-rule:nonzero;"/></g><g><path d="M10672.8,4835.29c0,-0 -1.079,4.341 -1.079,7.604c-0,4.341 4.342,8.679 8.683,8.679c3.246,0 5.417,-3.262 6.509,-4.342c1.079,-3.262 14.1,-47.741 20.608,-58.591c2.171,-4.342 4.342,-5.434 5.433,-5.434c2.171,0 3.246,4.338 3.246,7.605l0,155.154c0,13.021 -10.85,20.625 -21.7,20.625c-4.342,-0 -9.758,2.171 -9.758,8.683c-0,6.508 5.416,8.679 14.1,8.679l91.146,0c8.679,0 8.679,-8.679 8.679,-8.679c-0,0 -0,-8.683 -8.679,-8.683c-7.588,-0 -17.363,-9.775 -17.363,-19.529l0,-225.696c0,-8.679 -3.246,-13.021 -10.85,-13.021c-7.587,-0 -14.096,2.171 -20.608,2.171c-10.85,-0 -13.021,-0 -21.7,-2.171c-4.342,-0 -9.775,6.512 -13.021,10.85l-33.646,116.096" style="fill-rule:nonzero;"/></g><g><path d="M1612.06,5388.67c96.562,-0 214.842,-88.975 214.842,-181.196c-0,-55.35 -43.405,-90.071 -105.259,-90.071c-119.358,-0 -214.846,87.9 -214.846,181.217c0,56.425 46.667,90.05 105.263,90.05" style="fill-rule:nonzero;"/></g><g><path d="M2150.34,5523.25c96.579,0 214.846,-88.975 214.846,-181.196c-0,-55.35 -43.404,-90.071 -105.246,-90.071c-119.358,0 -214.842,87.9 -214.842,181.217c0,56.421 46.65,90.05 105.242,90.05" style="fill-rule:nonzero;"/></g><g><path d="M2688.64,5657.79c96.579,-0 214.842,-88.975 214.842,-181.2c-0,-55.346 -43.4,-90.067 -105.242,-90.067c-119.358,-0 -214.846,87.896 -214.846,181.212c0,56.425 46.65,90.055 105.246,90.055" style="fill-rule:nonzero;"/></g><g><path d="M3186.61,5705.54c-6.509,21.7 -57.5,43.404 -82.463,43.404c-6.512,-0 -11.929,-2.171 -13.021,-5.417c-2.17,-4.342 -3.25,-28.212 -3.25,-54.254c0,-33.646 1.08,-71.617 3.25,-80.296c2.167,-18.454 52.084,-41.233 79.217,-41.233c7.588,-0 14.096,2.171 16.267,6.512c2.171,5.417 4.341,32.55 4.341,61.838c0,29.308 -2.17,59.687 -4.341,69.446m74.879,-176.859c7.587,-3.262 13.021,-11.945 13.021,-18.454l-0,-77.029c-0,-5.437 -3.263,-8.683 -7.604,-8.683c-2.171,-0 -3.246,-0 -5.417,1.079c-0,-0 -21.7,8.679 -27.133,9.771c-7.588,-0 -15.192,-5.434 -15.192,-14.113l-0,-132.379c-0,-6.512 -6.513,-11.925 -15.192,-11.925c-10.85,0 -17.362,5.417 -17.362,11.925l-0,141.058c-1.075,10.85 -4.338,24.967 -14.096,31.475c-13.021,7.588 -49.913,22.78 -68.367,27.121c-9.758,0 -13.021,-13.021 -13.021,-21.704l0,-130.208c0,-6.509 -7.587,-11.925 -15.191,-11.925c-10.85,-0 -17.363,5.416 -17.363,11.925l0,146.496c0,15.187 -6.508,26.041 -13.021,29.287c-6.508,3.263 -28.212,11.942 -28.212,11.942c-7.588,2.171 -13.021,10.854 -13.021,17.362l0,77.034c0,6.508 3.267,9.77 8.683,9.77c4.338,0 24.963,-9.77 28.209,-11.941c1.096,-0 2.171,-1.079 3.266,-1.079c7.588,-0 14.096,10.854 14.096,19.533l0,107.412c0,11.946 -5.416,21.7 -11.925,24.967c-6.512,2.171 -29.308,11.925 -29.308,11.925c-7.588,2.171 -13.021,10.85 -13.021,17.363l0,77.05c0,6.508 3.267,9.754 8.683,9.754c1.092,-0 3.263,-1.075 4.338,-1.075c-0,-0 15.192,-6.513 24.967,-9.775c1.075,-1.075 2.17,-1.075 3.245,-1.075c7.605,-0 13.021,11.925 13.021,17.362l0,133.454c0,6.509 6.513,11.942 14.117,11.942c10.85,-0 18.437,-5.433 18.437,-11.942l0,-150.816c0,-14.117 5.434,-21.7 10.85,-23.871l66.196,-27.138c1.079,0 3.246,-1.075 4.342,-1.075c8.679,0 14.096,13.021 14.096,19.529l-0,135.625c-0,6.513 6.512,11.946 14.116,11.946c11.925,0 18.438,-5.433 18.438,-11.946l-0,-154.079c-0,-8.679 4.337,-21.7 11.942,-24.946c7.587,-3.266 30.383,-11.945 30.383,-11.945c7.587,-3.246 13.021,-11.925 13.021,-18.438l-0,-77.05c-0,-5.417 -3.263,-8.679 -7.604,-8.679c-2.171,-0 -3.246,-0 -5.417,1.096l-28.213,10.85c-6.508,-0 -14.112,-6.513 -14.112,-19.534l-0,-100.92c-0,-7.584 5.433,-28.209 14.112,-31.459l28.213,-10.85" style="fill-rule:nonzero;"/></g><g><path d="M3446.85,5792.33c96.562,0 214.841,-88.975 214.841,-181.195c0,-55.351 -43.404,-90.071 -105.258,-90.071c-119.358,-0 -214.846,87.9 -214.846,181.216c0,56.425 46.667,90.05 105.263,90.05" style="fill-rule:nonzero;"/></g><g><path d="M3985.15,5926.88c96.563,0 214.846,-88.975 214.846,-181.196c0,-55.35 -43.404,-90.071 -105.262,-90.071c-119.359,0 -214.842,87.9 -214.842,181.217c0,56.421 46.667,90.05 105.258,90.05" style="fill-rule:nonzero;"/></g><g><path d="M4607.31,6061.42c96.579,-0 214.846,-88.975 214.846,-181.2c-0,-55.346 -43.404,-90.067 -105.246,-90.067c-119.358,0 -214.842,87.896 -214.842,181.212c0,56.425 46.65,90.055 105.242,90.055" style="fill-rule:nonzero;"/></g><g><path d="M5229.56,6195.96c96.579,0 214.842,-88.975 214.842,-181.196c-0,-55.35 -43.404,-90.07 -105.242,-90.07c-119.358,-0 -214.846,87.9 -214.846,181.216c0,56.425 46.65,90.05 105.246,90.05" style="fill-rule:nonzero;"/></g><g><path d="M5851.81,6330.54c96.563,-0 214.846,-88.975 214.846,-181.196c-0,-55.35 -43.404,-90.071 -105.263,-90.071c-119.358,-0 -214.841,87.9 -214.841,181.217c-0,56.42 46.666,90.05 105.258,90.05" style="fill-rule:nonzero;"/></g><g><path d="M6390.11,6465.08c96.562,0 214.841,-88.975 214.841,-181.2c0,-55.346 -43.4,-90.066 -105.258,-90.066c-119.358,-0 -214.846,87.895 -214.846,181.212c0,56.425 46.667,90.054 105.263,90.054" style="fill-rule:nonzero;"/></g><g><path d="M6928.4,6599.62c96.584,0 214.846,-88.975 214.846,-181.196c0,-55.35 -43.404,-90.071 -105.241,-90.071c-119.359,0 -214.846,87.9 -214.846,181.217c-0,56.425 46.65,90.05 105.241,90.05" style="fill-rule:nonzero;"/></g><g><path d="M7426.9,6647.38c-6.512,21.7 -57.516,43.4 -82.466,43.4c-6.509,0 -11.942,-2.167 -13.021,-5.417c-2.171,-4.337 -3.263,-28.208 -3.263,-54.25c0,-33.645 1.092,-71.616 3.263,-80.295c2.171,-18.455 52.083,-41.234 79.204,-41.234c7.604,0 14.113,2.171 16.283,6.509c2.171,5.416 4.342,32.554 4.342,61.841c0,29.304 -2.171,59.688 -4.342,69.446m74.863,-176.858c7.604,-3.267 13.021,-11.946 13.021,-18.454l-0,-77.034c-0,-5.433 -3.25,-8.679 -7.588,-8.679c-2.171,0 -3.266,0 -5.433,1.075c-0,0 -21.704,8.683 -27.121,9.775c-7.604,0 -15.192,-5.433 -15.192,-14.112l0,-132.38c0,-6.512 -6.508,-11.929 -15.187,-11.929c-10.854,0 -17.363,5.417 -17.363,11.929l0,141.059c-1.095,10.85 -4.341,24.966 -14.116,31.475c-13.021,7.587 -49.913,22.779 -68.35,27.116c-9.775,0 -13.021,-13.02 -13.021,-21.7l-0,-130.208c-0,-6.512 -7.604,-11.925 -15.192,-11.925c-10.85,0 -17.358,5.417 -17.358,11.925l-0,146.492c-0,15.191 -6.513,26.041 -13.021,29.291c-6.512,3.263 -28.212,11.942 -28.212,11.942c-7.605,2.171 -13.021,10.85 -13.021,17.362l-0,77.03c-0,6.512 3.246,9.775 8.679,9.775c4.342,-0 24.95,-9.775 28.212,-11.942c1.075,0 2.171,-1.079 3.246,-1.079c7.604,-0 14.117,10.85 14.117,19.533l-0,107.413c-0,11.945 -5.433,21.7 -11.946,24.966c-6.508,2.167 -29.287,11.925 -29.287,11.925c-7.605,2.171 -13.021,10.85 -13.021,17.363l-0,77.046c-0,6.512 3.246,9.758 8.679,9.758c1.079,0 3.246,-1.075 4.342,-1.075c-0,-0 15.191,-6.513 24.945,-9.775c1.096,-1.075 2.171,-1.075 3.267,-1.075c7.588,-0 13.021,11.925 13.021,17.358l-0,133.454c-0,6.513 6.508,11.946 14.096,11.946c10.85,0 18.454,-5.433 18.454,-11.946l-0,-150.812c-0,-14.117 5.417,-21.704 10.85,-23.875l66.183,-27.133c1.092,-0 3.263,-1.075 4.338,-1.075c8.683,-0 14.116,13.02 14.116,19.529l0,135.625c0,6.512 6.509,11.946 14.096,11.946c11.946,-0 18.454,-5.434 18.454,-11.946l0,-154.079c0,-8.68 4.342,-21.7 11.93,-24.95c7.604,-3.263 30.383,-11.942 30.383,-11.942c7.604,-3.246 13.021,-11.929 13.021,-18.438l-0,-77.05c-0,-5.416 -3.25,-8.679 -7.588,-8.679c-2.171,0 -3.266,0 -5.433,1.092l-28.213,10.85c-6.512,-0 -14.1,-6.508 -14.1,-19.529l0,-100.921c0,-7.588 5.417,-28.213 14.1,-31.458l28.213,-10.85" style="fill-rule:nonzero;"/></g><g><path d="M7687.11,6734.17c96.579,-0 214.846,-88.975 214.846,-181.196c-0,-55.35 -43.405,-90.071 -105.246,-90.071c-119.354,0 -214.842,87.9 -214.842,181.217c0,56.421 46.65,90.05 105.242,90.05" style="fill-rule:nonzero;"/></g><g><path d="M8290.23,6868.71c96.562,0 214.841,-88.975 214.841,-181.2c0,-55.346 -43.4,-90.066 -105.258,-90.066c-119.358,-0 -214.846,87.895 -214.846,181.212c0,56.425 46.667,90.054 105.263,90.054" style="fill-rule:nonzero;"/></g><g><path d="M8912.44,7003.25c96.579,0 214.846,-88.975 214.846,-181.196c-0,-55.35 -43.404,-90.071 -105.246,-90.071c-119.354,0 -214.842,87.9 -214.842,181.217c0,56.425 46.65,90.05 105.242,90.05" style="fill-rule:nonzero;"/></g><g><path d="M9534.69,7137.83c96.563,0 214.842,-88.975 214.842,-181.196c-0,-55.35 -43.4,-90.07 -105.259,-90.07c-119.358,-0 -214.845,87.9 -214.845,181.216c-0,56.421 46.666,90.05 105.262,90.05" style="fill-rule:nonzero;"/></g><g><path d="M10626.6,6933.83c11.929,-37.971 52.083,-43.404 85.712,-43.404c74.879,0 134.55,80.296 134.55,145.4c0,33.646 -14.1,64.029 -49.916,72.709c-10.85,3.245 -22.775,4.341 -33.625,4.341c-39.063,0 -79.221,-26.042 -102,-56.425c-21.7,-24.966 -37.984,-61.858 -37.984,-96.579c0,-8.683 1.092,-17.362 3.263,-26.042m113.925,-67.275c-144.309,0 -234.375,59.688 -234.375,133.471c-0,72.692 61.858,137.796 223.525,137.796c177.95,-0 234.375,-61.842 234.375,-137.796c-0,-77.046 -122.604,-133.471 -223.525,-133.471" style="fill-rule:nonzero;"/></g><g><path d="M565.288,5776.04c3.246,20.608 3.246,19.533 -16.287,26.041c-95.484,32.555 -157.325,118.263 -157.325,210.505c-0,97.658 50.987,167.099 124.775,192.05c8.679,3.262 21.7,6.508 29.304,6.508c8.679,-0 13.021,-5.417 13.021,-11.925c-0,-7.604 -8.68,-10.85 -16.284,-14.117c-45.575,-19.529 -78.125,-66.179 -78.125,-116.092c0,-61.858 42.325,-108.508 108.504,-126.962c17.363,-4.342 19.534,-3.246 21.705,8.679l54.254,323.35c2.166,11.946 1.091,11.946 -15.192,15.192c-17.362,3.266 -39.062,5.433 -60.767,5.433c-189.875,0 -312.5,-105.258 -312.5,-256.075c0,-64.029 10.855,-149.742 100.921,-251.737c65.104,-72.709 115.017,-112.846 166.009,-154.08c10.85,-8.679 13.02,-7.604 15.191,4.342l22.796,138.888m118.263,-738.942c35.816,0 65.104,29.308 65.104,88.975c-0,120.454 -103.075,218.108 -188.804,292.971c-7.584,6.508 -11.925,5.433 -14.096,-8.679c-4.342,-28.213 -6.509,-65.104 -6.509,-99.829c0,-169.271 78.125,-273.438 144.305,-273.438m-43.405,911.458c-2.17,-13.02 -1.075,-16.266 11.946,-15.191c87.884,7.604 160.592,81.391 160.592,176.875c-0,68.354 -41.233,123.7 -102,154.083c-13.021,6.508 -15.188,6.508 -17.358,-6.512l-53.18,-309.255m-58.591,-338.541c-2.171,-13.021 -0,-14.096 6.508,-20.609c117.188,-109.6 206.163,-247.395 206.163,-413.416c-0,-94.396 -26.042,-187.709 -70.521,-252.813c-16.284,-23.875 -44.496,-54.254 -56.421,-54.254c-15.192,0 -48.838,28.213 -70.538,52.083c-80.295,88.975 -106.337,224.6 -106.337,337.446c-0,62.934 7.604,133.475 15.192,177.954c2.166,13.021 3.262,15.188 -9.759,26.042c-156.25,129.129 -322.275,284.288 -322.275,503.471c0,188.8 129.134,367.846 394.967,367.846c24.962,-0 53.175,-2.171 74.879,-6.509c11.925,-2.17 14.096,-3.266 16.267,9.755c13.021,72.708 29.304,167.104 29.304,218.108c-0,160.592 -108.508,180.121 -172.533,180.121c-58.596,-0 -86.809,-17.359 -86.809,-31.475c0,-7.588 9.775,-10.85 34.725,-18.438c33.646,-9.775 72.709,-39.062 72.709,-101.996c-0,-59.687 -37.988,-110.675 -104.167,-110.675c-72.708,0 -116.113,57.5 -116.113,124.771c0,70.542 42.325,176.875 206.163,176.875c72.708,0 213.767,-32.55 213.767,-217.012c-0,-61.859 -19.53,-164.929 -31.475,-232.204c-2.171,-13.021 -1.075,-11.946 14.116,-18.455c109.584,-43.404 182.292,-135.625 182.292,-258.245c-0,-138.892 -101.996,-261.496 -261.513,-261.496c-28.212,-0 -28.212,-0 -31.458,-19.529l-27.133,-157.346" style="fill-rule:nonzero;"/></g><g><path d="M4634.07,6579.02c-14.106,0 -21.702,6.511 -21.702,16.276c0,9.766 7.596,16.276 21.702,16.276l10.85,0c40.148,0 59.679,23.872 59.679,58.594c0,47.743 -33.637,113.933 -99.826,113.933c-21.702,-0 -39.063,-8.681 -39.063,-19.532c0,-6.51 5.426,-8.68 14.106,-13.02c11.936,-5.426 27.127,-18.447 27.127,-46.658c-0,-26.042 -18.446,-39.063 -41.233,-39.063c-30.382,0 -53.168,27.127 -53.168,62.934c-0,43.403 34.722,83.551 111.762,83.551c92.231,-0 168.186,-55.339 168.186,-141.06c0,-27.126 -14.106,-53.168 -42.318,-67.274c-7.595,-3.255 -11.936,-4.34 -11.936,-9.766c0,-3.255 4.341,-5.425 13.021,-9.765c45.573,-18.447 82.466,-53.169 82.466,-96.572c-0,-56.423 -54.254,-91.146 -120.443,-91.146c-68.36,0 -124.783,35.808 -126.953,94.402c-1.086,28.211 16.276,46.658 41.232,46.658c27.127,-0 48.828,-21.702 48.828,-50.999c0,-11.935 -4.34,-20.616 -9.765,-27.126c-7.596,-6.511 -13.021,-10.851 -13.021,-14.106c-0,-7.596 13.021,-15.191 35.807,-15.191c42.318,-0 56.424,26.041 56.424,49.913c-0,57.509 -36.892,98.741 -99.827,98.741l-11.935,0Z" style="fill-rule:nonzero;"/></g><g><path d="M8939.15,7288.52c-14.106,0 -21.701,6.511 -21.701,16.276c-0,9.766 7.595,16.276 21.701,16.276l10.851,0c40.147,0 59.679,23.872 59.679,58.594c-0,47.743 -33.638,113.933 -99.827,113.933c-21.701,-0 -39.062,-8.681 -39.062,-19.532c-0,-6.51 5.425,-8.68 14.105,-13.02c11.936,-5.426 27.127,-18.447 27.127,-46.658c0,-26.042 -18.446,-39.063 -41.232,-39.063c-30.382,0 -53.169,27.127 -53.169,62.934c0,43.403 34.722,83.551 111.762,83.551c92.231,-0 168.186,-55.339 168.186,-141.06c0,-27.126 -14.106,-53.168 -42.317,-67.274c-7.596,-3.255 -11.936,-4.34 -11.936,-9.766c-0,-3.255 4.34,-5.425 13.021,-9.765c45.573,-18.447 82.465,-53.169 82.465,-96.572c0,-56.423 -54.254,-91.146 -120.443,-91.146c-68.359,0 -124.783,35.808 -126.953,94.402c-1.085,28.211 16.276,46.658 41.233,46.658c27.126,-0 48.828,-21.702 48.828,-50.999c-0,-11.935 -4.341,-20.616 -9.766,-27.126c-7.595,-6.511 -13.021,-10.851 -13.021,-14.106c0,-7.596 13.021,-15.191 35.808,-15.191c42.317,-0 56.423,26.041 56.423,49.913c0,57.509 -36.892,98.741 -99.826,98.741l-11.936,0Z" style="fill-rule:nonzero;"/></g><g><path d="M1506.59,6333l0,-135.954l1867.4,269.096l-0,135.954l-1867.4,-269.096" style="fill-rule:nonzero;"/></g><g><path d="M1506.59,6129.08l0,-136.004l1867.4,269.096l-0,136.004l-1867.4,-269.096" style="fill-rule:nonzero;"/></g><g><path d="M4167.73,5051.25l-0,-136.288l1276.58,201.826l-0,136.283l-1276.58,-201.821" style="fill-rule:nonzero;"/></g><g><path d="M6034.02,5316.96l0,-136.771l1867.95,336.371l0,136.771l-1867.95,-336.371" style="fill-rule:nonzero;"/></g><g><path d="M6034.02,5522.17l0,-136.771l1867.95,336.371l0,136.77l-1867.95,-336.37" style="fill-rule:nonzero;"/></g><g><path d="M8472.73,5858.54l-0,-134.775l1276.58,67.275l-0,134.775l-1276.58,-67.275" style="fill-rule:nonzero;"/></g><g><path d="M3791.19,6604.38l576.183,0l0,-43.021l-533.316,0l-0,-158.8l-42.867,0" style="fill-rule:nonzero;"/></g><g><path d="M5465.98,6604.38l-508.888,0l0,-43.021l465.488,0l-0,-158.8l43.4,0" style="fill-rule:nonzero;"/></g><g><path d="M8096.19,7137.83l578.892,115.554l-0,-43.991l-536.025,-106.925l-0,-166.459l-42.867,0" style="fill-rule:nonzero;"/></g><g><path d="M9771.02,7476.08l-511.616,-101.566l-0,-44.009l468.75,97.171l-0,-153.421l42.866,0" style="fill-rule:nonzero;"/></g></g></svg>