<?xml version="1.0" encoding="UTF-8" standalone="no"?><!DOCTYPE svg PUBLIC "-//W3C//DTD SVG 1.1//EN" "http://www.w3.org/Graphics/SVG/1.1/DTD/svg11.dtd"><svg width="100%" height="100%" viewBox="0 0 6894 1806" version="1.1" xmlns="http://www.w3.org/2000/svg" xmlns:xlink="http://www.w3.org/1999/xlink" xml:space="preserve" xmlns:serif="http://www.serif.com/" style="fill-rule:evenodd;clip-rule:evenodd;stroke-miterlimit:2;"><g><g><path d="M9.41,356.567l6875,-0" style="fill:none;stroke:#000;stroke-width:8.42px;"/><path d="M9.41,550.317l6875,-0" style="fill:none;stroke:#000;stroke-width:8.42px;"/><path d="M9.41,421.15l6875,0" style="fill:none;stroke:#000;stroke-width:8.42px;"/><path d="M9.41,485.733l6875,0" style="fill:none;stroke:#000;stroke-width:8.42px;"/><path d="M9.41,614.9l6875,0" style="fill:none;stroke:#000;stroke-width:8.42px;"/></g><g><path d="M2468.53,352.375l-0,266.717" style="fill:none;stroke:#000;stroke-width:10.33px;"/><path d="M4666.58,352.375l-0,266.717" style="fill:none;stroke:#000;stroke-width:10.33px;"/><path d="M6879.2,352.375l-0,266.717" style="fill:none;stroke:#000;stroke-width:10.33px;"/></g><g><path d="M434.539,501.738l0,263.775" style="fill:none;stroke:#000;stroke-width:7.75px;"/></g><g><path d="M335.843,744.067l128.517,-0" style="fill:none;stroke:#000;stroke-width:10.33px;"/><path d="M335.843,679.483l128.517,0" style="fill:none;stroke:#000;stroke-width:10.33px;"/></g><g><path d="M605.764,485.592l0,247.629" style="fill:none;stroke:#000;stroke-width:7.75px;"/></g><g><path d="M507.068,744.067l128.384,-0" style="fill:none;stroke:#000;stroke-width:10.33px;"/><path d="M507.068,679.483l128.384,0" style="fill:none;stroke:#000;stroke-width:10.33px;"/></g><g><path d="M776.989,469.446l0,231.483" style="fill:none;stroke:#000;stroke-width:7.75px;"/></g><g><path d="M678.16,679.483l128.517,0" style="fill:none;stroke:#000;stroke-width:10.33px;"/></g><g><path d="M984.802,437.154l-0,231.484" style="fill:none;stroke:#000;stroke-width:7.75px;"/></g><g><path d="M901.077,679.483l113.412,0" style="fill:none;stroke:#000;stroke-width:10.33px;"/></g><g><path d="M1155.89,421.008l0,215.338" style="fill:none;stroke:#000;stroke-width:7.75px;"/><path d="M1327.12,404.863l0,199.191" style="fill:none;stroke:#000;stroke-width:7.75px;"/><path d="M1498.34,372.142l0,199.621" style="fill:none;stroke:#000;stroke-width:7.75px;"/><path d="M1669.43,339.85l0,199.621" style="fill:none;stroke:#000;stroke-width:7.75px;"/><path d="M1840.66,307.563l0,199.616" style="fill:none;stroke:#000;stroke-width:7.75px;"/><path d="M1942.74,496.579l0,183.204" style="fill:none;stroke:#000;stroke-width:7.75px;"/><path d="M2124.91,464.288l-0,190.533" style="fill:none;stroke:#000;stroke-width:7.75px;"/><path d="M2296,431.996l-0,199.35" style="fill:none;stroke:#000;stroke-width:7.75px;"/><path d="M2574.51,399.704l0,215.771" style="fill:none;stroke:#000;stroke-width:7.75px;"/><path d="M2745.74,367.413l0,215.77" style="fill:none;stroke:#000;stroke-width:7.75px;"/><path d="M2916.96,335.121l0,215.771" style="fill:none;stroke:#000;stroke-width:7.75px;"/><path d="M3088.06,302.833l-0,199.163" style="fill:none;stroke:#000;stroke-width:7.75px;"/></g><g><path d="M3058.37,291.983l128.517,0" style="fill:none;stroke:#000;stroke-width:10.33px;"/></g><g><path d="M3259.28,270.542l-0,216.871" style="fill:none;stroke:#000;stroke-width:7.75px;"/></g><g><path d="M3229.59,291.983l128.384,0" style="fill:none;stroke:#000;stroke-width:10.33px;"/></g><g><path d="M3467.09,238.25l0,231.454" style="fill:none;stroke:#000;stroke-width:7.75px;"/></g><g><path d="M3452.38,227.4l113.408,0" style="fill:none;stroke:#000;stroke-width:10.33px;"/><path d="M3453.55,291.983l112.237,0" style="fill:none;stroke:#000;stroke-width:10.33px;"/></g><g><path d="M3638.33,205.958l-0,279.817" style="fill:none;stroke:#000;stroke-width:7.75px;"/></g><g><path d="M3608.5,227.4l128.516,0" style="fill:none;stroke:#000;stroke-width:10.33px;"/><path d="M3608.5,291.983l128.516,0" style="fill:none;stroke:#000;stroke-width:10.33px;"/></g><g><path d="M3809.41,173.667l0,304.033" style="fill:none;stroke:#000;stroke-width:7.75px;"/></g><g><path d="M3779.7,162.817l128.516,-0" style="fill:none;stroke:#000;stroke-width:10.33px;"/><path d="M3779.7,227.4l128.516,0" style="fill:none;stroke:#000;stroke-width:10.33px;"/><path d="M3779.7,291.983l128.516,0" style="fill:none;stroke:#000;stroke-width:10.33px;"/></g><g><path d="M3980.62,141.375l0,328.254" style="fill:none;stroke:#000;stroke-width:7.75px;"/></g><g><path d="M3950.95,162.817l128.383,-0" style="fill:none;stroke:#000;stroke-width:10.33px;"/><path d="M3950.95,227.4l128.383,0" style="fill:none;stroke:#000;stroke-width:10.33px;"/><path d="M3950.95,291.983l128.383,0" style="fill:none;stroke:#000;stroke-width:10.33px;"/></g><g><path d="M4151.74,141.375l0,328.358" style="fill:none;stroke:#000;stroke-width:7.75px;"/></g><g><path d="M4122.03,162.817l128.517,-0" style="fill:none;stroke:#000;stroke-width:10.33px;"/><path d="M4122.03,227.4l128.517,0" style="fill:none;stroke:#000;stroke-width:10.33px;"/><path d="M4122.03,291.983l128.517,0" style="fill:none;stroke:#000;stroke-width:10.33px;"/></g><g><path d="M4322.95,173.667l-0,312.212" style="fill:none;stroke:#000;stroke-width:7.75px;"/></g><g><path d="M4293.28,162.817l128.517,-0" style="fill:none;stroke:#000;stroke-width:10.33px;"/><path d="M4293.28,227.4l128.517,0" style="fill:none;stroke:#000;stroke-width:10.33px;"/><path d="M4293.28,291.983l128.517,0" style="fill:none;stroke:#000;stroke-width:10.33px;"/></g><g><path d="M4494.16,205.958l0,296.067" style="fill:none;stroke:#000;stroke-width:7.75px;"/></g><g><path d="M4464.49,227.4l128.384,0" style="fill:none;stroke:#000;stroke-width:10.33px;"/><path d="M4464.49,291.983l128.384,0" style="fill:none;stroke:#000;stroke-width:10.33px;"/></g><g><path d="M4813.03,238.25l0,231.483" style="fill:none;stroke:#000;stroke-width:7.75px;"/></g><g><path d="M4798.33,227.4l113.412,0" style="fill:none;stroke:#000;stroke-width:10.33px;"/><path d="M4799.53,291.983l112.242,0" style="fill:none;stroke:#000;stroke-width:10.33px;"/></g><g><path d="M4984.16,270.542l0,215.337" style="fill:none;stroke:#000;stroke-width:7.75px;"/></g><g><path d="M4954.45,291.983l128.512,0" style="fill:none;stroke:#000;stroke-width:10.33px;"/></g><g><path d="M5155.37,302.833l0,199.192" style="fill:none;stroke:#000;stroke-width:7.75px;"/></g><g><path d="M5125.7,291.983l128.516,0" style="fill:none;stroke:#000;stroke-width:10.33px;"/></g><g><path d="M5326.62,335.121l0,215.771" style="fill:none;stroke:#000;stroke-width:7.75px;"/><path d="M5497.7,367.413l-0,215.77" style="fill:none;stroke:#000;stroke-width:7.75px;"/><path d="M5668.91,399.704l0,215.771" style="fill:none;stroke:#000;stroke-width:7.75px;"/><path d="M5840.12,431.996l0,199.35" style="fill:none;stroke:#000;stroke-width:7.75px;"/><path d="M6022.03,464.288l0,192.02" style="fill:none;stroke:#000;stroke-width:7.75px;"/><path d="M6193.28,496.579l0,183.204" style="fill:none;stroke:#000;stroke-width:7.75px;"/><path d="M6433.49,307.563l0,199.616" style="fill:none;stroke:#000;stroke-width:7.75px;"/><path d="M6604.58,339.85l-0,199.621" style="fill:none;stroke:#000;stroke-width:7.75px;"/><path d="M6775.83,372.142l-0.004,199.621" style="fill:none;stroke:#000;stroke-width:7.75px;"/></g><g><path d="M385.152,256.308c-0,0 -0.263,1.042 -0.263,1.821c0,1.042 1.042,2.083 2.084,2.083c0.783,0 1.304,-0.779 1.562,-1.041c0.263,-0.779 3.388,-11.459 4.95,-14.063c0.521,-1.041 1.042,-1.3 1.3,-1.3c0.521,0 0.783,1.042 0.783,1.821l0,37.242c0,3.125 -2.604,4.946 -5.208,4.946c-1.042,-0 -2.346,0.52 -2.346,2.083c0,1.562 1.304,2.083 3.388,2.083l21.875,0c2.083,0 2.083,-2.083 2.083,-2.083c0,-0 0,-2.083 -2.083,-2.083c-1.825,-0 -4.167,-2.342 -4.167,-4.688l0,-54.167c0,-2.083 -0.783,-3.125 -2.604,-3.125c-1.825,0 -3.388,0.521 -4.95,0.521c-2.604,0 -3.125,0 -5.208,-0.521c-1.042,0 -2.342,1.563 -3.125,2.605l-8.071,27.866" style="fill-rule:nonzero;"/></g><g><path d="M597.064,271.15c0,-1.821 -0.783,-2.083 -1.562,-2.083c-1.042,-0 -1.563,0.783 -1.825,1.562c-1.3,3.646 -4.167,8.334 -8.071,8.334c-0.521,-0 -1.042,-0 -1.563,-0.259l-3.908,-1.304c-2.604,-1.042 -8.854,-3.125 -14.062,-3.125c-1.821,0 -3.384,0.263 -4.946,0.783c2.862,-4.95 16.404,-11.458 19.271,-12.241c9.375,-1.3 17.187,-6.771 17.187,-16.925c0,-6.25 -2.604,-10.417 -5.992,-13.542c-6.77,-5.471 -16.666,-6.25 -19.529,-6.25c-9.375,0 -16.929,0.521 -23.7,8.333c-1.821,2.084 -2.604,4.167 -2.604,6.25c0,1.821 0.783,3.905 1.563,6.25c1.562,3.125 4.95,5.467 8.595,5.467c6.509,0 7.292,-6.25 7.292,-9.112c0,-5.992 -6.512,-6.513 -6.512,-9.117c-0,-1.821 2.604,-4.946 10.416,-4.946c12.242,0 16.409,10.154 16.409,13.279c-0,4.688 -1.563,9.117 -4.167,12.763c-4.688,5.987 -13.283,8.07 -19.792,12.237c-7.291,4.429 -12.241,11.979 -14.583,20.313c-0,1.825 0.779,3.908 2.342,4.687c0.262,0.263 0.783,0.263 1.041,0.263c2.867,-0 4.429,-8.075 12.242,-8.075c5.208,-0 7.029,7.033 18.75,7.033c5.467,0 15.625,-0.521 17.708,-20.575" style="fill-rule:nonzero;"/></g><g><path d="M756.298,268.546l-0,-27.863c-0,-1.304 -0.263,-2.345 -1.563,-2.345c-1.042,-0 -1.825,0.262 -2.604,1.304l-7.813,15.104c-0.52,0.521 -1.304,1.3 -1.304,3.125l0,10.675l-16.925,-0c10.675,-8.854 27.342,-38.279 27.604,-39.842c0,-0.262 0.259,-0.521 0.259,-0.783c-0,-1.042 -1.042,-1.821 -1.821,-1.821c-1.304,0 -6.771,0.521 -9.117,0.521c-2.341,-0 -3.904,-0.521 -4.946,-0.521c-1.304,0 -3.125,0.521 -3.125,2.604c0,16.667 -13.541,35.675 -16.929,40.363c-0.521,0.52 -1.041,1.304 -1.041,2.083c-0,1.304 1.041,2.604 2.604,2.604l23.437,0l0,8.075c0,3.646 -2.083,4.688 -4.166,4.688c-2.342,-0 -3.384,1.041 -3.384,2.341c0,1.305 0.521,2.867 2.863,2.867l22.396,0c1.304,0 2.604,-1.042 2.604,-2.867c-0,-1.82 -1.563,-2.604 -2.863,-2.604c-1.304,0 -4.166,-0.779 -4.166,-4.946l-0,-7.554l9.633,0c1.304,0 2.083,-1.042 2.083,-2.604c0,-1.563 -0.521,-2.604 -2.083,-2.604l-9.633,-0" style="fill-rule:nonzero;"/></g><g><path d="M935.31,256.308c0,0 -0.262,1.042 -0.262,1.821c-0,1.042 1.041,2.083 2.083,2.083c0.783,0 1.304,-0.779 1.562,-1.041c0.263,-0.779 3.388,-11.459 4.95,-14.063c0.521,-1.041 1.042,-1.3 1.3,-1.3c0.521,0 0.784,1.042 0.784,1.821l-0,37.242c-0,3.125 -2.604,4.946 -5.209,4.946c-1.041,-0 -2.345,0.52 -2.345,2.083c-0,1.562 1.304,2.083 3.387,2.083l21.875,0c2.083,0 2.083,-2.083 2.083,-2.083c0,-0 0,-2.083 -2.083,-2.083c-1.825,-0 -4.167,-2.342 -4.167,-4.688l0,-54.167c0,-2.083 -0.783,-3.125 -2.604,-3.125c-1.825,0 -3.387,0.521 -4.95,0.521c-2.604,0 -3.125,0 -5.208,-0.521c-1.042,0 -2.342,1.563 -3.125,2.605l-8.071,27.866" style="fill-rule:nonzero;"/></g><g><path d="M1147.22,271.15c-0,-1.821 -0.78,-2.083 -1.563,-2.083c-1.042,-0 -1.562,0.783 -1.821,1.562c-1.304,3.646 -4.166,8.334 -8.075,8.334c-0.521,-0 -1.041,-0 -1.562,-0.259l-3.904,-1.304c-2.605,-1.042 -8.855,-3.125 -14.063,-3.125c-1.825,0 -3.387,0.263 -4.95,0.783c2.867,-4.95 16.408,-11.458 19.271,-12.241c9.375,-1.3 17.187,-6.771 17.187,-16.925c0,-6.25 -2.604,-10.417 -5.987,-13.542c-6.771,-5.471 -16.667,-6.25 -19.533,-6.25c-9.375,0 -16.925,0.521 -23.696,8.333c-1.825,2.084 -2.604,4.167 -2.604,6.25c-0,1.821 0.779,3.905 1.562,6.25c1.563,3.125 4.946,5.467 8.592,5.467c6.512,0 7.291,-6.25 7.291,-9.112c0,-5.992 -6.508,-6.513 -6.508,-9.117c0,-1.821 2.604,-4.946 10.417,-4.946c12.237,0 16.404,10.154 16.404,13.279c-0,4.688 -1.563,9.117 -4.167,12.763c-4.687,5.987 -13.279,8.07 -19.791,12.237c-7.292,4.429 -12.238,11.979 -14.584,20.313c0,1.825 0.784,3.908 2.346,4.687c0.258,0.263 0.779,0.263 1.042,0.263c2.862,-0 4.425,-8.075 12.237,-8.075c5.209,-0 7.034,7.033 18.75,7.033c5.471,0 15.625,-0.521 17.709,-20.575" style="fill-rule:nonzero;"/></g><g><path d="M1306.46,268.546l-0,-27.863c-0,-1.304 -0.263,-2.345 -1.563,-2.345c-1.041,-0 -1.825,0.262 -2.604,1.304l-7.812,15.104c-0.521,0.521 -1.304,1.3 -1.304,3.125l-0,10.675l-16.925,-0c10.675,-8.854 27.341,-38.279 27.604,-39.842c-0,-0.262 0.258,-0.521 0.258,-0.783c0,-1.042 -1.042,-1.821 -1.821,-1.821c-1.304,0 -6.771,0.521 -9.116,0.521c-2.342,-0 -3.905,-0.521 -4.946,-0.521c-1.304,0 -3.125,0.521 -3.125,2.604c-0,16.667 -13.542,35.675 -16.929,40.363c-0.521,0.52 -1.042,1.304 -1.042,2.083c-0,1.304 1.042,2.604 2.604,2.604l23.438,0l-0,8.075c-0,3.646 -2.084,4.688 -4.167,4.688c-2.342,-0 -3.383,1.041 -3.383,2.341c-0,1.305 0.52,2.867 2.862,2.867l22.396,0c1.304,0 2.604,-1.042 2.604,-2.867c0,-1.82 -1.562,-2.604 -2.862,-2.604c-1.305,0 -4.167,-0.779 -4.167,-4.946l-0,-7.554l9.633,0c1.304,0 2.084,-1.042 2.084,-2.604c-0,-1.563 -0.521,-2.604 -2.084,-2.604l-9.633,-0" style="fill-rule:nonzero;"/></g><g><path d="M1477.63,268.546l-0,-27.863c-0,-1.304 -0.263,-2.345 -1.563,-2.345c-1.041,-0 -1.825,0.262 -2.604,1.304l-7.812,15.104c-0.521,0.521 -1.305,1.3 -1.305,3.125l0,10.675l-16.925,-0c10.675,-8.854 27.342,-38.279 27.605,-39.842c-0,-0.262 0.258,-0.521 0.258,-0.783c-0,-1.042 -1.042,-1.821 -1.821,-1.821c-1.304,0 -6.771,0.521 -9.117,0.521c-2.341,-0 -3.904,-0.521 -4.945,-0.521c-1.305,0 -3.125,0.521 -3.125,2.604c-0,16.667 -13.542,35.675 -16.93,40.363c-0.52,0.52 -1.041,1.304 -1.041,2.083c-0,1.304 1.041,2.604 2.604,2.604l23.437,0l0,8.075c0,3.646 -2.083,4.688 -4.166,4.688c-2.342,-0 -3.384,1.041 -3.384,2.341c0,1.305 0.521,2.867 2.863,2.867l22.396,0c1.304,0 2.604,-1.042 2.604,-2.867c-0,-1.82 -1.563,-2.604 -2.863,-2.604c-1.304,0 -4.166,-0.779 -4.166,-4.946l-0,-7.554l9.633,0c1.304,0 2.083,-1.042 2.083,-2.604c0,-1.563 -0.52,-2.604 -2.083,-2.604l-9.633,-0" style="fill-rule:nonzero;"/></g><g><path d="M1620.02,256.308c-0,0 -0.263,1.042 -0.263,1.821c0,1.042 1.042,2.083 2.083,2.083c0.784,0 1.305,-0.779 1.563,-1.041c0.262,-0.779 3.387,-11.459 4.95,-14.063c0.521,-1.041 1.042,-1.3 1.3,-1.3c0.521,0 0.783,1.042 0.783,1.821l0,37.242c0,3.125 -2.604,4.946 -5.208,4.946c-1.042,-0 -2.346,0.52 -2.346,2.083c0,1.562 1.304,2.083 3.388,2.083l21.875,0c2.083,0 2.083,-2.083 2.083,-2.083c-0,-0 -0,-2.083 -2.083,-2.083c-1.825,-0 -4.167,-2.342 -4.167,-4.688l-0,-54.167c-0,-2.083 -0.783,-3.125 -2.604,-3.125c-1.825,0 -3.388,0.521 -4.95,0.521c-2.604,0 -3.125,0 -5.209,-0.521c-1.041,0 -2.341,1.563 -3.125,2.605l-8.07,27.866" style="fill-rule:nonzero;"/></g><g><path d="M1831.93,238.225c0,-1.821 -0.779,-2.083 -1.562,-2.083c-1.042,-0 -1.563,0.783 -1.821,1.562c-1.304,3.646 -4.167,8.333 -8.075,8.333c-0.521,0 -1.042,0 -1.563,-0.258l-3.904,-1.304c-2.604,-1.042 -8.854,-3.125 -14.062,-3.125c-1.825,0 -3.388,0.263 -4.95,0.783c2.866,-4.95 16.408,-11.458 19.27,-12.241c9.375,-1.3 17.188,-6.771 17.188,-16.925c-0,-6.25 -2.604,-10.417 -5.988,-13.542c-6.77,-5.471 -16.666,-6.25 -19.533,-6.25c-9.375,0 -16.925,0.521 -23.696,8.333c-1.825,2.084 -2.604,4.167 -2.604,6.25c0,1.821 0.779,3.905 1.563,6.25c1.562,3.125 4.945,5.467 8.591,5.467c6.513,0 7.292,-6.25 7.292,-9.112c-0,-5.992 -6.508,-6.513 -6.508,-9.117c-0,-1.821 2.604,-4.946 10.416,-4.946c12.238,0 16.404,10.154 16.404,13.279c0,4.688 -1.562,9.117 -4.166,12.763c-4.688,5.987 -13.279,8.07 -19.792,12.237c-7.292,4.429 -12.237,11.979 -14.583,20.313c-0,1.825 0.783,3.908 2.346,4.687c0.258,0.263 0.779,0.263 1.041,0.263c2.863,-0 4.425,-8.075 12.238,-8.075c5.208,-0 7.033,7.033 18.75,7.033c5.471,0 15.625,-0.521 17.708,-20.575" style="fill-rule:nonzero;"/></g><g><path d="M1991.17,268.546l0,-27.863c0,-1.304 -0.262,-2.345 -1.562,-2.345c-1.042,-0 -1.825,0.262 -2.604,1.304l-7.813,15.104c-0.521,0.521 -1.304,1.3 -1.304,3.125l0,10.675l-16.925,-0c10.675,-8.854 27.342,-38.279 27.604,-39.842c0,-0.262 0.259,-0.521 0.259,-0.783c-0,-1.042 -1.042,-1.821 -1.821,-1.821c-1.304,0 -6.771,0.521 -9.117,0.521c-2.342,-0 -3.904,-0.521 -4.946,-0.521c-1.304,0 -3.125,0.521 -3.125,2.604c0,16.667 -13.541,35.675 -16.929,40.363c-0.521,0.52 -1.042,1.304 -1.042,2.083c0,1.304 1.042,2.604 2.605,2.604l23.437,0l0,8.075c0,3.646 -2.083,4.688 -4.167,4.688c-2.341,-0 -3.383,1.041 -3.383,2.341c0,1.305 0.521,2.867 2.863,2.867l22.395,0c1.305,0 2.605,-1.042 2.605,-2.867c-0,-1.82 -1.563,-2.604 -2.863,-2.604c-1.304,0 -4.167,-0.779 -4.167,-4.946l0,-7.554l9.634,0c1.304,0 2.083,-1.042 2.083,-2.604c0,-1.563 -0.521,-2.604 -2.083,-2.604l-9.634,-0" style="fill-rule:nonzero;"/></g><g><path d="M2144.48,256.308c-0,0 -0.263,1.042 -0.263,1.821c0,1.042 1.042,2.083 2.084,2.083c0.783,0 1.304,-0.779 1.562,-1.041c0.263,-0.779 3.388,-11.459 4.95,-14.063c0.521,-1.041 1.042,-1.3 1.3,-1.3c0.521,0 0.783,1.042 0.783,1.821l0,37.242c0,3.125 -2.604,4.946 -5.208,4.946c-1.042,-0 -2.346,0.52 -2.346,2.083c0,1.562 1.304,2.083 3.388,2.083l21.875,0c2.083,0 2.083,-2.083 2.083,-2.083c0,-0 0,-2.083 -2.083,-2.083c-1.825,-0 -4.167,-2.342 -4.167,-4.688l0,-54.167c0,-2.083 -0.783,-3.125 -2.604,-3.125c-1.825,0 -3.388,0.521 -4.95,0.521c-2.604,0 -3.125,0 -5.208,-0.521c-1.042,0 -2.342,1.563 -3.125,2.605l-8.071,27.866" style="fill-rule:nonzero;"/></g><g><path d="M2356.39,271.15c0,-1.821 -0.779,-2.083 -1.562,-2.083c-1.042,-0 -1.563,0.783 -1.821,1.562c-1.304,3.646 -4.167,8.334 -8.075,8.334c-0.521,-0 -1.042,-0 -1.563,-0.259l-3.904,-1.304c-2.604,-1.042 -8.854,-3.125 -14.062,-3.125c-1.825,0 -3.388,0.263 -4.95,0.783c2.866,-4.95 16.408,-11.458 19.271,-12.241c9.375,-1.3 17.187,-6.771 17.187,-16.925c0,-6.25 -2.604,-10.417 -5.987,-13.542c-6.771,-5.471 -16.667,-6.25 -19.534,-6.25c-9.375,0 -16.925,0.521 -23.696,8.333c-1.825,2.084 -2.604,4.167 -2.604,6.25c0,1.821 0.779,3.905 1.563,6.25c1.562,3.125 4.946,5.467 8.591,5.467c6.513,0 7.292,-6.25 7.292,-9.112c0,-5.992 -6.508,-6.513 -6.508,-9.117c-0,-1.821 2.604,-4.946 10.416,-4.946c12.238,0 16.405,10.154 16.405,13.279c-0,4.688 -1.563,9.117 -4.167,12.763c-4.688,5.987 -13.279,8.07 -19.792,12.237c-7.291,4.429 -12.237,11.979 -14.583,20.313c-0,1.825 0.783,3.908 2.346,4.687c0.258,0.263 0.779,0.263 1.041,0.263c2.863,-0 4.425,-8.075 12.238,-8.075c5.208,-0 7.033,7.033 18.75,7.033c5.471,0 15.625,-0.521 17.708,-20.575" style="fill-rule:nonzero;"/></g><g><path d="M2622.95,268.546l-0,-27.863c-0,-1.304 -0.259,-2.345 -1.563,-2.345c-1.041,-0 -1.821,0.262 -2.604,1.304l-7.812,15.104c-0.521,0.521 -1.3,1.3 -1.3,3.125l-0,10.675l-16.93,-0c10.68,-8.854 27.346,-38.279 27.605,-39.842c-0,-0.262 0.262,-0.521 0.262,-0.783c0,-1.042 -1.042,-1.821 -1.825,-1.821c-1.3,0 -6.771,0.521 -9.112,0.521c-2.346,-0 -3.909,-0.521 -4.95,-0.521c-1.3,0 -3.125,0.521 -3.125,2.604c-0,16.667 -13.542,35.675 -16.925,40.363c-0.521,0.52 -1.042,1.304 -1.042,2.083c-0,1.304 1.042,2.604 2.604,2.604l23.438,0l-0,8.075c-0,3.646 -2.084,4.688 -4.167,4.688c-2.346,-0 -3.388,1.041 -3.388,2.341c0,1.305 0.521,2.867 2.867,2.867l22.396,0c1.3,0 2.604,-1.042 2.604,-2.867c0,-1.82 -1.562,-2.604 -2.867,-2.604c-1.3,0 -4.166,-0.779 -4.166,-4.946l-0,-7.554l9.637,0c1.3,0 2.084,-1.042 2.084,-2.604c-0,-1.563 -0.521,-2.604 -2.084,-2.604l-9.637,-0" style="fill-rule:nonzero;"/></g><g><path d="M2794.14,268.488l0,-27.863c0,-1.304 -0.258,-2.346 -1.562,-2.346c-1.042,0 -1.821,0.263 -2.605,1.304l-7.812,15.105c-0.521,0.52 -1.3,1.3 -1.3,3.125l-0,10.675l-16.929,-0c10.679,-8.855 27.346,-38.28 27.604,-39.842c-0,-0.263 0.262,-0.521 0.262,-0.783c0,-1.042 -1.041,-1.821 -1.825,-1.821c-1.3,-0 -6.77,0.52 -9.112,0.52c-2.346,0 -3.908,-0.52 -4.95,-0.52c-1.3,-0 -3.125,0.52 -3.125,2.604c-0,16.666 -13.542,35.675 -16.925,40.362c-0.521,0.521 -1.042,1.304 -1.042,2.084c0,1.304 1.042,2.604 2.604,2.604l23.438,-0l-0,8.075c-0,3.646 -2.083,4.687 -4.167,4.687c-2.346,0 -3.387,1.042 -3.387,2.342c-0,1.304 0.521,2.867 2.866,2.867l22.396,-0c1.3,-0 2.604,-1.042 2.604,-2.867c0,-1.821 -1.562,-2.604 -2.866,-2.604c-1.3,-0 -4.167,-0.779 -4.167,-4.946l0,-7.554l9.638,-0c1.3,-0 2.083,-1.042 2.083,-2.604c-0,-1.563 -0.521,-2.604 -2.083,-2.604l-9.638,-0" style="fill-rule:nonzero;"/></g><g><path d="M2936.52,223.754c0,0 -0.258,1.042 -0.258,1.825c0,1.042 1.042,2.084 2.083,2.084c0.78,-0 1.3,-0.784 1.563,-1.042c0.258,-0.783 3.383,-11.458 4.946,-14.063c0.521,-1.041 1.041,-1.304 1.304,-1.304c0.521,0 0.779,1.042 0.779,1.825l0,37.238c0,3.125 -2.604,4.95 -5.208,4.95c-1.042,-0 -2.342,0.521 -2.342,2.083c0,1.563 1.3,2.083 3.383,2.083l21.875,0c2.084,0 2.084,-2.083 2.084,-2.083c-0,0 -0,-2.083 -2.084,-2.083c-1.82,-0 -4.166,-2.346 -4.166,-4.688l-0,-54.166c-0,-2.084 -0.779,-3.125 -2.604,-3.125c-1.821,-0 -3.384,0.52 -4.946,0.52c-2.604,0 -3.125,0 -5.209,-0.52c-1.041,-0 -2.345,1.562 -3.125,2.604l-8.075,27.862" style="fill-rule:nonzero;"/></g><g><path d="M3148.43,205.492c0,-1.821 -0.783,-2.084 -1.562,-2.084c-1.042,0 -1.563,0.784 -1.825,1.563c-1.3,3.646 -4.167,8.333 -8.071,8.333c-0.521,0 -1.042,0 -1.563,-0.258l-3.908,-1.304c-2.604,-1.042 -8.854,-3.125 -14.063,-3.125c-1.82,-0 -3.383,0.262 -4.945,0.783c2.862,-4.95 16.404,-11.458 19.27,-12.242c9.375,-1.3 17.188,-6.77 17.188,-16.925c-0,-6.25 -2.604,-10.416 -5.992,-13.541c-6.771,-5.471 -16.666,-6.25 -19.529,-6.25c-9.375,-0 -16.929,0.521 -23.7,8.333c-1.821,2.083 -2.604,4.167 -2.604,6.25c-0,1.821 0.783,3.904 1.562,6.25c1.563,3.125 4.95,5.467 8.596,5.467c6.509,-0 7.292,-6.25 7.292,-9.113c-0,-5.991 -6.513,-6.512 -6.513,-9.116c0,-1.821 2.605,-4.946 10.417,-4.946c12.242,-0 16.408,10.154 16.408,13.279c0,4.687 -1.562,9.117 -4.166,12.762c-4.688,5.988 -13.284,8.071 -19.792,12.238c-7.292,4.429 -12.242,11.979 -14.583,20.312c-0,1.825 0.779,3.909 2.341,4.688c0.263,0.262 0.784,0.262 1.042,0.262c2.867,0 4.429,-8.075 12.242,-8.075c5.208,0 7.029,7.034 18.75,7.034c5.466,-0 15.625,-0.521 17.708,-20.575" style="fill-rule:nonzero;"/></g><g><path d="M3307.66,171.613l0,-27.863c0,-1.304 -0.258,-2.346 -1.562,-2.346c-1.042,0 -1.821,0.263 -2.604,1.304l-7.813,15.105c-0.521,0.52 -1.3,1.3 -1.3,3.125l0,10.675l-16.929,-0c10.679,-8.855 27.346,-38.28 27.604,-39.842c0,-0.263 0.263,-0.521 0.263,-0.783c-0,-1.042 -1.042,-1.821 -1.825,-1.821c-1.3,-0 -6.771,0.52 -9.113,0.52c-2.346,0 -3.908,-0.52 -4.95,-0.52c-1.3,-0 -3.125,0.52 -3.125,2.604c0,16.666 -13.542,35.675 -16.925,40.362c-0.521,0.521 -1.042,1.304 -1.042,2.084c0,1.304 1.042,2.604 2.605,2.604l23.437,-0l0,8.075c0,3.646 -2.083,4.687 -4.167,4.687c-2.345,0 -3.387,1.042 -3.387,2.342c-0,1.304 0.521,2.867 2.867,2.867l22.395,-0c1.3,-0 2.605,-1.042 2.605,-2.867c-0,-1.821 -1.563,-2.604 -2.867,-2.604c-1.3,-0 -4.167,-0.779 -4.167,-4.946l0,-7.554l9.638,-0c1.3,-0 2.083,-1.042 2.083,-2.604c0,-1.563 -0.521,-2.605 -2.083,-2.605l-9.638,0" style="fill-rule:nonzero;"/></g><g><path d="M3486.68,126.879c-0,0 -0.263,1.042 -0.263,1.825c0,1.042 1.042,2.083 2.084,2.083c0.783,0 1.304,-0.783 1.562,-1.041c0.263,-0.784 3.388,-11.459 4.95,-14.063c0.521,-1.041 1.042,-1.304 1.3,-1.304c0.521,0 0.783,1.042 0.783,1.825l0,37.238c0,3.125 -2.604,4.95 -5.208,4.95c-1.042,-0 -2.346,0.52 -2.346,2.083c0,1.563 1.304,2.083 3.388,2.083l21.875,0c2.083,0 2.083,-2.083 2.083,-2.083c0,0 0,-2.083 -2.083,-2.083c-1.825,-0 -4.167,-2.346 -4.167,-4.688l0,-54.167c0,-2.083 -0.783,-3.125 -2.604,-3.125c-1.825,0 -3.388,0.521 -4.95,0.521c-2.604,0 -3.125,0 -5.208,-0.521c-1.042,0 -2.342,1.563 -3.125,2.605l-8.071,27.862" style="fill-rule:nonzero;"/></g><g><path d="M3698.58,108.617c-0,-1.821 -0.779,-2.084 -1.563,-2.084c-1.041,0 -1.562,0.784 -1.821,1.563c-1.304,3.646 -4.166,8.333 -8.075,8.333c-0.52,0 -1.041,0 -1.562,-0.258l-3.904,-1.304c-2.604,-1.042 -8.854,-3.125 -14.063,-3.125c-1.825,-0 -3.387,0.262 -4.95,0.783c2.867,-4.95 16.409,-11.458 19.271,-12.242c9.375,-1.3 17.188,-6.77 17.188,-16.925c-0,-6.25 -2.605,-10.416 -5.988,-13.541c-6.771,-5.471 -16.667,-6.25 -19.533,-6.25c-9.375,-0 -16.925,0.521 -23.696,8.333c-1.825,2.083 -2.604,4.167 -2.604,6.25c-0,1.821 0.779,3.904 1.562,6.25c1.563,3.125 4.946,5.467 8.592,5.467c6.512,-0 7.292,-6.25 7.292,-9.113c-0,-5.991 -6.509,-6.512 -6.509,-9.116c0,-1.821 2.604,-4.946 10.417,-4.946c12.237,-0 16.404,10.154 16.404,13.279c0,4.687 -1.562,9.117 -4.167,12.762c-4.687,5.988 -13.279,8.071 -19.791,12.238c-7.292,4.429 -12.238,11.979 -14.584,20.312c0,1.825 0.784,3.909 2.346,4.688c0.259,0.262 0.779,0.262 1.042,0.262c2.862,0 4.425,-8.075 12.237,-8.075c5.209,0 7.034,7.034 18.75,7.034c5.471,-0 15.625,-0.521 17.709,-20.575" style="fill-rule:nonzero;"/></g><g><path d="M3841.28,32.35c-14.321,0 -20.571,9.633 -20.571,15.104c0,3.646 2.084,8.071 8.592,8.334c4.95,-0 7.292,-3.125 7.292,-6.513l-0,-1.042c-0.259,-3.904 -2.863,-4.166 -3.384,-4.425c-0.521,-0.262 -1.562,-1.304 -1.562,-3.125c0.521,-2.866 4.425,-3.908 5.466,-3.908c13.284,0 17.188,7.033 17.188,11.458c-0,12.242 -12.5,13.284 -16.404,13.542c-1.825,0 -3.646,0.783 -3.646,2.346c-0,1.562 2.342,1.562 3.383,1.562c15.104,0 17.188,7.813 17.188,11.717c-0,15.104 -12.238,15.625 -15.363,15.625c-1.562,0 -4.166,-0.779 -4.429,-2.083l0,-1.563c0,-2.862 0.783,-5.987 1.042,-8.591c-0,-4.688 -3.125,-7.555 -7.813,-7.555l-1.041,0c-1.821,0.521 -3.646,1.563 -4.946,2.867c-1.825,1.563 -2.346,3.904 -2.346,6.25c0.262,8.333 7.554,15.362 20.575,15.625l1.562,-0c12.759,-0 26.042,-6.771 26.042,-18.229c0,-2.604 -0.521,-4.688 -1.304,-6.25c-0.521,-1.563 -1.563,-2.867 -2.604,-3.909c-0.779,-1.041 -1.821,-1.82 -2.863,-2.604l-2.866,-1.562l-1.563,-0.521c-0.521,0 -0.779,-0.258 -1.3,-0.258l-1.562,-0.521c-0.784,-0.263 -1.042,-0 -1.305,-0.521c-0.258,-0.263 -0.258,-0.521 -0.258,-0.783c0,-0.521 0.258,-1.042 0.779,-1.042l4.167,-1.3c1.825,-1.042 3.646,-1.825 4.95,-3.646c2.083,-2.083 2.862,-5.471 2.862,-8.333c0,-12.242 -16.145,-15.625 -21.875,-16.146l-2.083,0" style="fill-rule:nonzero;"/></g><g><path d="M4028.99,42.446l0,-27.863c0,-1.304 -0.258,-2.346 -1.562,-2.346c-1.042,0 -1.821,0.263 -2.604,1.305l-7.813,15.104c-0.521,0.521 -1.3,1.3 -1.3,3.125l0,10.675l-16.929,-0c10.679,-8.854 27.346,-38.279 27.604,-39.842c0,-0.262 0.263,-0.521 0.263,-0.783c-0,-1.042 -1.042,-1.821 -1.825,-1.821c-1.3,0 -6.771,0.521 -9.113,0.521c-2.346,-0 -3.908,-0.521 -4.95,-0.521c-1.3,0 -3.125,0.521 -3.125,2.604c0,16.667 -13.541,35.675 -16.925,40.363c-0.521,0.52 -1.041,1.304 -1.041,2.083c-0,1.304 1.041,2.604 2.604,2.604l23.437,0l0,8.075c0,3.646 -2.083,4.688 -4.166,4.688c-2.346,-0 -3.388,1.041 -3.388,2.341c0,1.304 0.521,2.867 2.867,2.867l22.396,0c1.3,0 2.604,-1.042 2.604,-2.867c-0,-1.821 -1.563,-2.604 -2.867,-2.604c-1.3,0 -4.167,-0.779 -4.167,-4.946l0,-7.554l9.638,0c1.3,0 2.083,-1.042 2.083,-2.604c0,-1.563 -0.521,-2.604 -2.083,-2.604l-9.638,-0" style="fill-rule:nonzero;"/></g><g><path d="M4200.16,42.446l0,-27.863c0,-1.304 -0.258,-2.346 -1.562,-2.346c-1.042,0 -1.821,0.263 -2.605,1.305l-7.812,15.104c-0.521,0.521 -1.3,1.3 -1.3,3.125l-0,10.675l-16.929,-0c10.679,-8.854 27.346,-38.279 27.604,-39.842c-0,-0.262 0.262,-0.521 0.262,-0.783c0,-1.042 -1.041,-1.821 -1.825,-1.821c-1.3,0 -6.77,0.521 -9.112,0.521c-2.346,-0 -3.908,-0.521 -4.95,-0.521c-1.3,0 -3.125,0.521 -3.125,2.604c-0,16.667 -13.542,35.675 -16.925,40.363c-0.521,0.52 -1.042,1.304 -1.042,2.083c0,1.304 1.042,2.604 2.604,2.604l23.438,0l-0,8.075c-0,3.646 -2.083,4.688 -4.167,4.688c-2.346,-0 -3.387,1.041 -3.387,2.341c-0,1.304 0.521,2.867 2.866,2.867l22.396,0c1.3,0 2.604,-1.042 2.604,-2.867c0,-1.821 -1.562,-2.604 -2.866,-2.604c-1.3,0 -4.167,-0.779 -4.167,-4.946l0,-7.554l9.638,0c1.3,0 2.083,-1.042 2.083,-2.604c-0,-1.563 -0.521,-2.604 -2.083,-2.604l-9.638,-0" style="fill-rule:nonzero;"/></g><g><path d="M4354.83,32.35c-14.325,0 -20.575,9.633 -20.575,15.104c-0,3.646 2.083,8.071 8.596,8.334c4.945,-0 7.291,-3.125 7.291,-6.513l0,-1.042c-0.262,-3.904 -2.866,-4.166 -3.387,-4.425c-0.521,-0.262 -1.563,-1.304 -1.563,-3.125c0.521,-2.866 4.429,-3.908 5.471,-3.908c13.279,0 17.188,7.033 17.188,11.458c-0,12.242 -12.5,13.284 -16.409,13.542c-1.821,0 -3.646,0.783 -3.646,2.346c0,1.562 2.346,1.562 3.388,1.562c15.104,0 17.187,7.813 17.187,11.717c0,15.104 -12.241,15.625 -15.366,15.625c-1.563,0 -4.167,-0.779 -4.425,-2.083l-0,-1.563c-0,-2.862 0.779,-5.987 1.041,-8.591c0,-4.688 -3.125,-7.555 -7.812,-7.555l-1.042,0c-1.825,0.521 -3.646,1.563 -4.95,2.867c-1.821,1.563 -2.341,3.904 -2.341,6.25c0.258,8.333 7.55,15.362 20.57,15.625l1.563,-0c12.762,-0 26.042,-6.771 26.042,-18.229c-0,-2.604 -0.521,-4.688 -1.3,-6.25c-0.521,-1.563 -1.563,-2.867 -2.605,-3.909c-0.783,-1.041 -1.825,-1.82 -2.866,-2.604l-2.863,-1.562l-1.562,-0.521c-0.521,0 -0.784,-0.258 -1.304,-0.258l-1.563,-0.521c-0.779,-0.263 -1.042,-0 -1.3,-0.521c-0.262,-0.263 -0.262,-0.521 -0.262,-0.783c-0,-0.521 0.262,-1.042 0.783,-1.042l4.167,-1.3c1.82,-1.042 3.645,-1.825 4.945,-3.646c2.084,-2.083 2.867,-5.471 2.867,-8.333c0,-12.242 -16.146,-15.625 -21.875,-16.146l-2.083,0" style="fill-rule:nonzero;"/></g><g><path d="M4554.49,108.617c0,-1.821 -0.783,-2.084 -1.562,-2.084c-1.042,0 -1.563,0.784 -1.825,1.563c-1.3,3.646 -4.167,8.333 -8.071,8.333c-0.521,0 -1.042,0 -1.562,-0.258l-3.909,-1.304c-2.604,-1.042 -8.854,-3.125 -14.062,-3.125c-1.821,-0 -3.384,0.262 -4.946,0.783c2.862,-4.95 16.404,-11.458 19.271,-12.242c9.375,-1.3 17.187,-6.77 17.187,-16.925c0,-6.25 -2.604,-10.416 -5.991,-13.541c-6.771,-5.471 -16.667,-6.25 -19.53,-6.25c-9.375,-0 -16.929,0.521 -23.7,8.333c-1.82,2.083 -2.604,4.167 -2.604,6.25c0,1.821 0.784,3.904 1.563,6.25c1.562,3.125 4.95,5.467 8.596,5.467c6.508,-0 7.291,-6.25 7.291,-9.113c0,-5.991 -6.512,-6.512 -6.512,-9.116c-0,-1.821 2.604,-4.946 10.416,-4.946c12.242,-0 16.409,10.154 16.409,13.279c-0,4.687 -1.563,9.117 -4.167,12.762c-4.687,5.988 -13.283,8.071 -19.792,12.238c-7.291,4.429 -12.241,11.979 -14.583,20.312c0,1.825 0.779,3.909 2.342,4.688c0.262,0.262 0.783,0.262 1.041,0.262c2.867,0 4.43,-8.075 12.242,-8.075c5.208,0 7.029,7.034 18.75,7.034c5.467,-0 15.625,-0.521 17.708,-20.575" style="fill-rule:nonzero;"/></g><g><path d="M4832.62,126.879c0,0 -0.262,1.042 -0.262,1.825c-0,1.042 1.042,2.083 2.083,2.083c0.784,0 1.304,-0.783 1.563,-1.041c0.262,-0.784 3.387,-11.459 4.95,-14.063c0.521,-1.041 1.041,-1.304 1.3,-1.304c0.521,0 0.783,1.042 0.783,1.825l0,37.238c0,3.125 -2.604,4.95 -5.208,4.95c-1.042,-0 -2.346,0.52 -2.346,2.083c-0,1.563 1.304,2.083 3.387,2.083l21.875,0c2.084,0 2.084,-2.083 2.084,-2.083c-0,0 -0,-2.083 -2.084,-2.083c-1.825,-0 -4.166,-2.346 -4.166,-4.688l-0,-54.167c-0,-2.083 -0.784,-3.125 -2.604,-3.125c-1.825,0 -3.388,0.521 -4.95,0.521c-2.605,0 -3.125,0 -5.209,-0.521c-1.041,0 -2.341,1.563 -3.125,2.605l-8.071,27.862" style="fill-rule:nonzero;"/></g><g><path d="M5032.58,171.613l-0,-27.863c-0,-1.304 -0.263,-2.346 -1.563,-2.346c-1.041,0 -1.825,0.263 -2.604,1.304l-7.812,15.105c-0.521,0.52 -1.305,1.3 -1.305,3.125l0,10.675l-16.925,-0c10.675,-8.855 27.342,-38.28 27.605,-39.842c-0,-0.263 0.258,-0.521 0.258,-0.783c-0,-1.042 -1.042,-1.821 -1.821,-1.821c-1.304,-0 -6.771,0.52 -9.117,0.52c-2.341,0 -3.904,-0.52 -4.945,-0.52c-1.305,-0 -3.125,0.52 -3.125,2.604c-0,16.666 -13.542,35.675 -16.93,40.362c-0.52,0.521 -1.041,1.304 -1.041,2.084c-0,1.304 1.041,2.604 2.604,2.604l23.437,-0l0,8.075c0,3.646 -2.083,4.687 -4.166,4.687c-2.342,0 -3.384,1.042 -3.384,2.342c0,1.304 0.521,2.867 2.863,2.867l22.396,-0c1.304,-0 2.604,-1.042 2.604,-2.867c-0,-1.821 -1.563,-2.604 -2.863,-2.604c-1.304,-0 -4.166,-0.779 -4.166,-4.946l-0,-7.554l9.633,-0c1.304,-0 2.083,-1.042 2.083,-2.604c0,-1.563 -0.52,-2.605 -2.083,-2.605l-9.633,0" style="fill-rule:nonzero;"/></g><g><path d="M5215.7,205.492c-0,-1.821 -0.784,-2.084 -1.563,-2.084c-1.041,0 -1.562,0.784 -1.825,1.563c-1.3,3.646 -4.166,8.333 -8.071,8.333c-0.52,0 -1.041,0 -1.562,-0.258l-3.908,-1.304c-2.605,-1.042 -8.855,-3.125 -14.063,-3.125c-1.821,-0 -3.383,0.262 -4.946,0.783c2.863,-4.95 16.404,-11.458 19.271,-12.242c9.375,-1.3 17.188,-6.77 17.188,-16.925c-0,-6.25 -2.605,-10.416 -5.992,-13.541c-6.771,-5.471 -16.667,-6.25 -19.529,-6.25c-9.375,-0 -16.929,0.521 -23.7,8.333c-1.821,2.083 -2.604,4.167 -2.604,6.25c-0,1.821 0.783,3.904 1.562,6.25c1.563,3.125 4.95,5.467 8.596,5.467c6.508,-0 7.292,-6.25 7.292,-9.113c-0,-5.991 -6.513,-6.512 -6.513,-9.116c0,-1.821 2.604,-4.946 10.417,-4.946c12.241,-0 16.408,10.154 16.408,13.279c0,4.687 -1.562,9.117 -4.167,12.762c-4.687,5.988 -13.283,8.071 -19.791,12.238c-7.292,4.429 -12.242,11.979 -14.584,20.312c0,1.825 0.78,3.909 2.342,4.688c0.263,0.262 0.783,0.262 1.042,0.262c2.866,0 4.429,-8.075 12.241,-8.075c5.209,0 7.03,7.034 18.75,7.034c5.467,-0 15.625,-0.521 17.709,-20.575" style="fill-rule:nonzero;"/></g><g><path d="M5346.16,223.754c0,0 -0.262,1.042 -0.262,1.825c-0,1.042 1.041,2.084 2.083,2.084c0.783,-0 1.304,-0.784 1.562,-1.042c0.263,-0.783 3.388,-11.458 4.95,-14.063c0.521,-1.041 1.042,-1.304 1.3,-1.304c0.521,0 0.784,1.042 0.784,1.825l-0,37.238c-0,3.125 -2.604,4.95 -5.209,4.95c-1.041,-0 -2.345,0.521 -2.345,2.083c-0,1.563 1.304,2.083 3.387,2.083l21.875,0c2.083,0 2.083,-2.083 2.083,-2.083c0,0 0,-2.083 -2.083,-2.083c-1.825,-0 -4.167,-2.346 -4.167,-4.688l0,-54.166c0,-2.084 -0.783,-3.125 -2.604,-3.125c-1.825,-0 -3.387,0.52 -4.95,0.52c-2.604,0 -3.125,0 -5.208,-0.52c-1.042,-0 -2.342,1.562 -3.125,2.604l-8.071,27.862" style="fill-rule:nonzero;"/></g><g><path d="M5546.12,268.488l0,-27.863c0,-1.304 -0.262,-2.346 -1.562,-2.346c-1.042,0 -1.825,0.263 -2.604,1.304l-7.813,15.105c-0.521,0.52 -1.304,1.3 -1.304,3.125l0,10.675l-16.925,-0c10.675,-8.855 27.342,-38.28 27.604,-39.842c0,-0.263 0.259,-0.521 0.259,-0.783c-0,-1.042 -1.042,-1.821 -1.821,-1.821c-1.304,-0 -6.771,0.52 -9.117,0.52c-2.342,0 -3.904,-0.52 -4.946,-0.52c-1.304,-0 -3.125,0.52 -3.125,2.604c0,16.666 -13.541,35.675 -16.929,40.362c-0.521,0.521 -1.042,1.304 -1.042,2.084c0,1.304 1.042,2.604 2.605,2.604l23.437,-0l0,8.075c0,3.646 -2.083,4.687 -4.167,4.687c-2.341,0 -3.383,1.042 -3.383,2.342c0,1.304 0.521,2.867 2.863,2.867l22.395,-0c1.305,-0 2.605,-1.042 2.605,-2.867c-0,-1.821 -1.563,-2.604 -2.863,-2.604c-1.304,-0 -4.167,-0.779 -4.167,-4.946l0,-7.554l9.634,-0c1.304,-0 2.083,-1.042 2.083,-2.604c0,-1.563 -0.521,-2.604 -2.083,-2.604l-9.634,-0" style="fill-rule:nonzero;"/></g><g><path d="M5717.28,268.546l0,-27.863c0,-1.304 -0.262,-2.345 -1.562,-2.345c-1.042,-0 -1.825,0.262 -2.605,1.304l-7.812,15.104c-0.521,0.521 -1.304,1.3 -1.304,3.125l-0,10.675l-16.925,-0c10.675,-8.854 27.341,-38.279 27.604,-39.842c-0,-0.262 0.258,-0.521 0.258,-0.783c0,-1.042 -1.041,-1.821 -1.821,-1.821c-1.304,0 -6.77,0.521 -9.116,0.521c-2.342,-0 -3.904,-0.521 -4.946,-0.521c-1.304,0 -3.125,0.521 -3.125,2.604c-0,16.667 -13.542,35.675 -16.929,40.363c-0.521,0.52 -1.042,1.304 -1.042,2.083c0,1.304 1.042,2.604 2.604,2.604l23.438,0l-0,8.075c-0,3.646 -2.084,4.688 -4.167,4.688c-2.342,-0 -3.383,1.041 -3.383,2.341c-0,1.305 0.521,2.867 2.862,2.867l22.396,0c1.304,0 2.604,-1.042 2.604,-2.867c0,-1.82 -1.562,-2.604 -2.862,-2.604c-1.304,0 -4.167,-0.779 -4.167,-4.946l0,-7.554l9.633,0c1.305,0 2.084,-1.042 2.084,-2.604c-0,-1.563 -0.521,-2.604 -2.084,-2.604l-9.633,-0" style="fill-rule:nonzero;"/></g><g><path d="M5900.41,271.15c0,-1.821 -0.783,-2.083 -1.562,-2.083c-1.042,-0 -1.563,0.783 -1.825,1.562c-1.3,3.646 -4.167,8.334 -8.071,8.334c-0.521,-0 -1.042,-0 -1.563,-0.259l-3.908,-1.304c-2.604,-1.042 -8.854,-3.125 -14.063,-3.125c-1.82,0 -3.383,0.263 -4.945,0.783c2.862,-4.95 16.404,-11.458 19.27,-12.241c9.375,-1.3 17.188,-6.771 17.188,-16.925c-0,-6.25 -2.604,-10.417 -5.992,-13.542c-6.771,-5.471 -16.666,-6.25 -19.529,-6.25c-9.375,0 -16.929,0.521 -23.7,8.333c-1.821,2.084 -2.604,4.167 -2.604,6.25c-0,1.821 0.783,3.905 1.562,6.25c1.563,3.125 4.95,5.467 8.596,5.467c6.509,0 7.292,-6.25 7.292,-9.112c-0,-5.992 -6.513,-6.513 -6.513,-9.117c0,-1.821 2.605,-4.946 10.417,-4.946c12.242,0 16.408,10.154 16.408,13.279c0,4.688 -1.562,9.117 -4.166,12.763c-4.688,5.987 -13.284,8.07 -19.792,12.237c-7.292,4.429 -12.242,11.979 -14.583,20.313c-0,1.825 0.779,3.908 2.341,4.687c0.263,0.263 0.784,0.263 1.042,0.263c2.867,-0 4.429,-8.075 12.242,-8.075c5.208,-0 7.029,7.033 18.75,7.033c5.466,0 15.625,-0.521 17.708,-20.575" style="fill-rule:nonzero;"/></g><g><path d="M6041.66,256.308c0,0 -0.262,1.042 -0.262,1.821c-0,1.042 1.041,2.083 2.083,2.083c0.783,0 1.304,-0.779 1.562,-1.041c0.263,-0.779 3.388,-11.459 4.95,-14.063c0.521,-1.041 1.042,-1.3 1.3,-1.3c0.521,0 0.784,1.042 0.784,1.821l-0,37.242c-0,3.125 -2.604,4.946 -5.209,4.946c-1.041,-0 -2.345,0.52 -2.345,2.083c-0,1.562 1.304,2.083 3.387,2.083l21.875,0c2.083,0 2.083,-2.083 2.083,-2.083c0,-0 0,-2.083 -2.083,-2.083c-1.825,-0 -4.167,-2.342 -4.167,-4.688l0,-54.167c0,-2.083 -0.783,-3.125 -2.604,-3.125c-1.825,0 -3.387,0.521 -4.95,0.521c-2.604,0 -3.125,0 -5.208,-0.521c-1.042,0 -2.342,1.563 -3.125,2.605l-8.071,27.866" style="fill-rule:nonzero;"/></g><g><path d="M6241.62,268.546l0,-27.863c0,-1.304 -0.258,-2.345 -1.562,-2.345c-1.042,-0 -1.821,0.262 -2.604,1.304l-7.813,15.104c-0.521,0.521 -1.3,1.3 -1.3,3.125l0,10.675l-16.929,-0c10.679,-8.854 27.346,-38.279 27.604,-39.842c0,-0.262 0.263,-0.521 0.263,-0.783c-0,-1.042 -1.042,-1.821 -1.825,-1.821c-1.3,0 -6.771,0.521 -9.113,0.521c-2.346,-0 -3.908,-0.521 -4.95,-0.521c-1.3,0 -3.125,0.521 -3.125,2.604c0,16.667 -13.541,35.675 -16.925,40.363c-0.521,0.52 -1.041,1.304 -1.041,2.083c-0,1.304 1.041,2.604 2.604,2.604l23.437,0l0,8.075c0,3.646 -2.083,4.688 -4.166,4.688c-2.346,-0 -3.388,1.041 -3.388,2.341c0,1.305 0.521,2.867 2.867,2.867l22.396,0c1.3,0 2.604,-1.042 2.604,-2.867c-0,-1.82 -1.563,-2.604 -2.867,-2.604c-1.3,0 -4.167,-0.779 -4.167,-4.946l0,-7.554l9.638,0c1.3,0 2.083,-1.042 2.083,-2.604c0,-1.563 -0.521,-2.604 -2.083,-2.604l-9.638,-0" style="fill-rule:nonzero;"/></g><g><path d="M6424.74,237.475c0,-1.821 -0.779,-2.083 -1.562,-2.083c-1.042,-0 -1.563,0.783 -1.821,1.562c-1.304,3.646 -4.167,8.334 -8.075,8.334c-0.521,-0 -1.042,-0 -1.562,-0.259l-3.905,-1.304c-2.604,-1.042 -8.854,-3.125 -14.062,-3.125c-1.825,0 -3.388,0.263 -4.95,0.783c2.867,-4.95 16.408,-11.458 19.271,-12.241c9.375,-1.3 17.187,-6.771 17.187,-16.925c0,-6.25 -2.604,-10.417 -5.987,-13.542c-6.771,-5.471 -16.667,-6.25 -19.534,-6.25c-9.375,0 -16.925,0.521 -23.695,8.333c-1.825,2.084 -2.605,4.167 -2.605,6.25c0,1.821 0.78,3.905 1.563,6.25c1.562,3.125 4.946,5.467 8.592,5.467c6.512,0 7.291,-6.25 7.291,-9.112c0,-5.992 -6.508,-6.513 -6.508,-9.117c-0,-1.821 2.604,-4.946 10.417,-4.946c12.237,0 16.404,10.154 16.404,13.279c-0,4.688 -1.563,9.117 -4.167,12.763c-4.687,5.987 -13.279,8.071 -19.792,12.237c-7.291,4.429 -12.237,11.979 -14.583,20.313c0,1.825 0.783,3.908 2.346,4.687c0.258,0.263 0.779,0.263 1.042,0.263c2.862,-0 4.425,-8.075 12.237,-8.075c5.208,-0 7.033,7.033 18.75,7.033c5.471,0 15.625,-0.521 17.708,-20.575" style="fill-rule:nonzero;"/></g><g><path d="M6555.2,245.079c-0,0 -0.263,1.042 -0.263,1.825c0,1.042 1.042,2.083 2.084,2.083c0.783,0 1.304,-0.783 1.562,-1.041c0.263,-0.784 3.388,-11.459 4.95,-14.063c0.521,-1.041 1.042,-1.304 1.3,-1.304c0.521,0 0.783,1.042 0.783,1.825l0,37.238c0,3.125 -2.604,4.95 -5.208,4.95c-1.042,-0 -2.346,0.52 -2.346,2.083c0,1.562 1.304,2.083 3.388,2.083l21.875,0c2.083,0 2.083,-2.083 2.083,-2.083c0,-0 0,-2.083 -2.083,-2.083c-1.825,-0 -4.167,-2.346 -4.167,-4.688l0,-54.167c0,-2.083 -0.783,-3.125 -2.604,-3.125c-1.825,0 -3.388,0.521 -4.95,0.521c-2.604,0 -3.125,0 -5.208,-0.52c-1.042,-0 -2.342,1.562 -3.125,2.604l-8.071,27.862" style="fill-rule:nonzero;"/></g><g><path d="M6755.16,268.546l0,-27.863c0,-1.304 -0.258,-2.345 -1.562,-2.345c-1.042,-0 -1.821,0.262 -2.605,1.304l-7.812,15.104c-0.521,0.521 -1.3,1.3 -1.3,3.125l-0,10.675l-16.929,-0c10.679,-8.854 27.346,-38.279 27.604,-39.842c-0,-0.262 0.262,-0.521 0.262,-0.783c0,-1.042 -1.041,-1.821 -1.825,-1.821c-1.3,0 -6.77,0.521 -9.112,0.521c-2.346,-0 -3.908,-0.521 -4.95,-0.521c-1.3,0 -3.125,0.521 -3.125,2.604c-0,16.667 -13.542,35.675 -16.925,40.363c-0.521,0.52 -1.042,1.304 -1.042,2.083c0,1.304 1.042,2.604 2.604,2.604l23.438,0l-0,8.075c-0,3.646 -2.083,4.688 -4.167,4.688c-2.346,-0 -3.387,1.041 -3.387,2.341c-0,1.305 0.521,2.867 2.866,2.867l22.396,0c1.3,0 2.604,-1.042 2.604,-2.867c0,-1.82 -1.562,-2.604 -2.866,-2.604c-1.3,0 -4.167,-0.779 -4.167,-4.946l0,-7.554l9.638,0c1.3,0 2.083,-1.042 2.083,-2.604c-0,-1.563 -0.521,-2.604 -2.083,-2.604l-9.638,-0" style="fill-rule:nonzero;"/></g><g><path d="M386.939,808.913c23.175,-0 51.563,-21.355 51.563,-43.492c-0,-13.279 -10.417,-21.613 -25.263,-21.613c-28.646,0 -51.562,21.092 -51.562,43.488c-0,13.542 11.2,21.616 25.262,21.616" style="fill-rule:nonzero;"/></g><g><path d="M558.114,776.621c23.179,-0 51.563,-21.354 51.563,-43.492c-0,-13.279 -10.417,-21.612 -25.259,-21.612c-28.645,-0 -51.562,21.091 -51.562,43.487c-0,13.542 11.196,21.617 25.258,21.617" style="fill-rule:nonzero;"/></g><g><path d="M729.293,744.329c23.175,0 51.563,-21.354 51.563,-43.491c-0,-13.28 -10.417,-21.613 -25.263,-21.613c-28.645,-0 -51.562,21.092 -51.562,43.487c-0,13.542 11.2,21.617 25.262,21.617" style="fill-rule:nonzero;"/></g><g><path d="M874.631,691.204c-1.563,5.208 -13.8,10.417 -19.792,10.417c-1.562,-0 -2.862,-0.521 -3.125,-1.304c-0.521,-1.042 -0.779,-6.771 -0.779,-13.021c0,-8.071 0.258,-17.188 0.779,-19.271c0.521,-4.425 12.5,-9.896 19.013,-9.896c1.821,0 3.383,0.521 3.904,1.563c0.521,1.304 1.042,7.812 1.042,14.845c-0,7.03 -0.521,14.321 -1.042,16.667m17.971,-42.45c1.821,-0.779 3.125,-2.862 3.125,-4.425l-0,-18.492c-0,-1.3 -0.784,-2.083 -1.825,-2.083c-0.521,0 -0.779,0 -1.3,0.263c-0,-0 -5.209,2.083 -6.513,2.341c-1.821,0 -3.646,-1.3 -3.646,-3.383l0,-31.771c0,-1.562 -1.562,-2.867 -3.645,-2.867c-2.605,0 -4.167,1.305 -4.167,2.867l-0,33.854c-0.258,2.604 -1.042,5.988 -3.383,7.55c-3.125,1.825 -11.98,5.471 -16.409,6.513c-2.341,-0 -3.125,-3.125 -3.125,-5.209l0,-31.25c0,-1.562 -1.821,-2.866 -3.646,-2.866c-2.604,-0 -4.166,1.304 -4.166,2.866l-0,35.155c-0,3.645 -1.563,6.25 -3.125,7.033c-1.563,0.779 -6.771,2.862 -6.771,2.862c-1.821,0.521 -3.125,2.605 -3.125,4.167l-0,18.492c-0,1.562 0.783,2.341 2.083,2.341c1.042,0 5.992,-2.341 6.771,-2.862c0.263,-0 0.521,-0.263 0.783,-0.263c1.821,0 3.384,2.605 3.384,4.688l-0,25.783c-0,2.863 -1.3,5.209 -2.863,5.988c-1.562,0.521 -7.033,2.866 -7.033,2.866c-1.821,0.521 -3.125,2.605 -3.125,4.167l-0,18.488c-0,1.562 0.783,2.345 2.083,2.345c0.263,0 0.784,-0.262 1.042,-0.262c-0,-0 3.646,-1.563 5.992,-2.342c0.258,-0.262 0.52,-0.262 0.779,-0.262c1.825,-0 3.125,2.866 3.125,4.166l-0,32.034c-0,1.562 1.562,2.862 3.387,2.862c2.604,0 4.425,-1.3 4.425,-2.862l0,-36.2c0,-3.384 1.304,-5.209 2.604,-5.729l15.888,-6.509c0.258,0 0.779,-0.262 1.042,-0.262c2.083,-0 3.383,3.125 3.383,4.687l-0,32.554c-0,1.563 1.562,2.863 3.387,2.863c2.863,-0 4.425,-1.3 4.425,-2.863l0,-36.979c0,-2.083 1.042,-5.208 2.867,-5.991c1.821,-0.78 7.292,-2.863 7.292,-2.863c1.821,-0.783 3.125,-2.867 3.125,-4.429l-0,-18.488c-0,-1.304 -0.784,-2.083 -1.825,-2.083c-0.521,0 -0.779,0 -1.3,0.258l-6.771,2.605c-1.563,-0 -3.388,-1.563 -3.388,-4.688l0,-24.217c0,-1.825 1.305,-6.77 3.388,-7.554l6.771,-2.604" style="fill-rule:nonzero;"/></g><g><path d="M937.093,712.038c23.175,-0 51.563,-21.355 51.563,-43.492c-0,-13.279 -10.417,-21.613 -25.263,-21.613c-28.645,0 -51.562,21.092 -51.562,43.488c-0,13.542 11.2,21.616 25.262,21.616" style="fill-rule:nonzero;"/></g><g><path d="M1108.28,679.746c23.179,-0 51.562,-21.354 51.562,-43.492c0,-13.279 -10.416,-21.612 -25.258,-21.612c-28.646,-0 -51.563,21.091 -51.563,43.487c0,13.542 11.196,21.617 25.259,21.617" style="fill-rule:nonzero;"/></g><g><path d="M1279.45,647.454c23.179,0 51.562,-21.354 51.562,-43.491c0,-13.28 -10.417,-21.613 -25.258,-21.613c-28.646,-0 -51.563,21.092 -51.563,43.487c0,13.542 11.196,21.617 25.259,21.617" style="fill-rule:nonzero;"/></g><g><path d="M1450.62,615.163c23.175,-0 51.562,-21.355 51.562,-43.492c0,-13.279 -10.417,-21.613 -25.262,-21.613c-28.646,0 -51.563,21.092 -51.563,43.488c0,13.542 11.2,21.616 25.263,21.616" style="fill-rule:nonzero;"/></g><g><path d="M1621.81,582.871c23.179,-0 51.562,-21.354 51.562,-43.492c0,-13.279 -10.416,-21.612 -25.258,-21.612c-28.646,-0 -51.562,21.091 -51.562,43.487c-0,13.542 11.195,21.617 25.258,21.617" style="fill-rule:nonzero;"/></g><g><path d="M1792.98,550.579c23.179,0 51.562,-21.354 51.562,-43.491c0,-13.28 -10.416,-21.613 -25.258,-21.613c-28.646,-0 -51.563,21.092 -51.563,43.488c0,13.541 11.196,21.616 25.259,21.616" style="fill-rule:nonzero;"/></g><g><path d="M1964.16,518.288c23.175,-0 51.563,-21.355 51.563,-43.492c-0,-13.279 -10.417,-21.613 -25.263,-21.613c-28.646,0 -51.562,21.092 -51.562,43.488c-0,13.542 11.2,21.617 25.262,21.617" style="fill-rule:nonzero;"/></g><g><path d="M2083.8,465.163c-1.563,5.208 -13.8,10.416 -19.792,10.416c-1.563,0 -2.863,-0.521 -3.125,-1.304c-0.521,-1.042 -0.779,-6.771 -0.779,-13.021c-0,-8.071 0.258,-17.187 0.779,-19.271c0.521,-4.425 12.5,-9.895 19.012,-9.895c1.821,-0 3.384,0.52 3.905,1.562c0.52,1.304 1.041,7.813 1.041,14.846c0,7.029 -0.521,14.321 -1.041,16.666m17.97,-42.449c1.821,-0.78 3.125,-2.863 3.125,-4.425l0,-18.492c0,-1.3 -0.783,-2.083 -1.825,-2.083c-0.52,-0 -0.779,-0 -1.3,0.262c0,0 -5.208,2.083 -6.512,2.342c-1.821,-0 -3.646,-1.3 -3.646,-3.384l0,-31.77c0,-1.563 -1.562,-2.867 -3.646,-2.867c-2.604,-0 -4.166,1.304 -4.166,2.867l-0,33.854c-0.259,2.604 -1.042,5.987 -3.384,7.55c-3.125,1.825 -11.979,5.471 -16.408,6.512c-2.342,0 -3.125,-3.125 -3.125,-5.208l-0,-31.25c-0,-1.563 -1.821,-2.867 -3.646,-2.867c-2.604,0 -4.167,1.304 -4.167,2.867l0,35.154c0,3.646 -1.562,6.25 -3.125,7.033c-1.562,0.78 -6.77,2.863 -6.77,2.863c-1.821,0.521 -3.125,2.604 -3.125,4.167l-0,18.491c-0,1.563 0.783,2.342 2.083,2.342c1.042,-0 5.992,-2.342 6.771,-2.863c0.262,0 0.521,-0.262 0.783,-0.262c1.821,-0 3.383,2.604 3.383,4.687l0,25.784c0,2.862 -1.3,5.208 -2.862,5.987c-1.563,0.521 -7.033,2.867 -7.033,2.867c-1.821,0.521 -3.125,2.604 -3.125,4.167l-0,18.487c-0,1.563 0.783,2.346 2.083,2.346c0.262,-0 0.783,-0.263 1.042,-0.263c-0,0 3.645,-1.562 5.991,-2.341c0.259,-0.263 0.521,-0.263 0.779,-0.263c1.825,0 3.125,2.867 3.125,4.167l0,32.033c0,1.563 1.563,2.863 3.388,2.863c2.604,-0 4.425,-1.3 4.425,-2.863l-0,-36.2c-0,-3.383 1.304,-5.208 2.604,-5.729l15.888,-6.508c0.258,-0 0.779,-0.263 1.041,-0.263c2.084,0 3.384,3.125 3.384,4.688l-0,32.554c-0,1.562 1.562,2.862 3.387,2.862c2.863,0 4.425,-1.3 4.425,-2.862l0,-36.979c0,-2.084 1.042,-5.209 2.867,-5.992c1.821,-0.779 7.291,-2.862 7.291,-2.862c1.821,-0.784 3.125,-2.867 3.125,-4.43l0,-18.487c0,-1.304 -0.783,-2.083 -1.825,-2.083c-0.52,-0 -0.779,-0 -1.3,0.258l-6.77,2.604c-1.563,0 -3.388,-1.562 -3.388,-4.687l0,-24.217c0,-1.825 1.304,-6.771 3.388,-7.554l6.77,-2.604" style="fill-rule:nonzero;"/></g><g><path d="M2146.26,485.996c23.175,-0 51.563,-21.354 51.563,-43.492c-0,-13.279 -10.417,-21.612 -25.263,-21.612c-28.646,-0 -51.562,21.091 -51.562,43.487c-0,13.542 11.2,21.617 25.262,21.617" style="fill-rule:nonzero;"/></g><g><path d="M2317.43,453.704c23.179,0 51.562,-21.354 51.562,-43.491c0,-13.28 -10.416,-21.613 -25.258,-21.613c-28.646,0 -51.562,21.092 -51.562,43.488c-0,13.541 11.195,21.616 25.258,21.616" style="fill-rule:nonzero;"/></g><g><path d="M2595.96,421.413c23.175,-0 51.563,-21.355 51.563,-43.492c-0,-13.279 -10.417,-21.613 -25.263,-21.613c-28.646,0 -51.562,21.092 -51.562,43.488c-0,13.542 11.2,21.617 25.262,21.617" style="fill-rule:nonzero;"/></g><g><path d="M2767.13,389.121c23.179,-0 51.562,-21.354 51.562,-43.492c0,-13.279 -10.416,-21.612 -25.258,-21.612c-28.646,-0 -51.562,21.091 -51.562,43.487c-0,13.542 11.195,21.617 25.258,21.617" style="fill-rule:nonzero;"/></g><g><path d="M2938.3,356.829c23.179,0 51.562,-21.354 51.562,-43.492c0,-13.279 -10.416,-21.612 -25.258,-21.612c-28.646,0 -51.563,21.092 -51.563,43.488c0,13.541 11.196,21.616 25.259,21.616" style="fill-rule:nonzero;"/></g><g><path d="M3109.49,324.538c23.175,-0 51.563,-21.355 51.563,-43.492c-0,-13.279 -10.417,-21.613 -25.263,-21.613c-28.646,0 -51.562,21.092 -51.562,43.488c-0,13.541 11.2,21.617 25.262,21.617" style="fill-rule:nonzero;"/></g><g><path d="M3280.66,292.246c23.179,-0 51.563,-21.354 51.563,-43.492c-0,-13.279 -10.417,-21.612 -25.259,-21.612c-28.646,-0 -51.562,21.091 -51.562,43.487c-0,13.542 11.196,21.617 25.258,21.617" style="fill-rule:nonzero;"/></g><g><path d="M3426.01,239.121c-1.562,5.208 -13.8,10.417 -19.792,10.417c-1.562,-0 -2.862,-0.521 -3.125,-1.305c-0.52,-1.041 -0.779,-6.77 -0.779,-13.02c0,-8.071 0.259,-17.188 0.779,-19.271c0.521,-4.425 12.5,-9.896 19.013,-9.896c1.821,-0 3.383,0.521 3.904,1.562c0.521,1.305 1.042,7.813 1.042,14.846c-0,7.029 -0.521,14.321 -1.042,16.667m17.971,-42.45c1.821,-0.779 3.125,-2.863 3.125,-4.425l-0,-18.492c-0,-1.3 -0.783,-2.083 -1.825,-2.083c-0.521,-0 -0.779,-0 -1.3,0.262c-0,0 -5.208,2.084 -6.513,2.342c-1.82,0 -3.645,-1.3 -3.645,-3.383l-0,-31.771c-0,-1.563 -1.563,-2.867 -3.646,-2.867c-2.604,0 -4.167,1.304 -4.167,2.867l0,33.854c-0.258,2.604 -1.042,5.988 -3.383,7.55c-3.125,1.825 -11.979,5.471 -16.409,6.513c-2.341,-0 -3.125,-3.125 -3.125,-5.209l0,-31.25c0,-1.562 -1.82,-2.866 -3.645,-2.866c-2.605,-0 -4.167,1.304 -4.167,2.866l-0,35.154c-0,3.646 -1.563,6.25 -3.125,7.034c-1.563,0.779 -6.771,2.862 -6.771,2.862c-1.821,0.521 -3.125,2.604 -3.125,4.167l0,18.492c0,1.562 0.783,2.341 2.083,2.341c1.042,0 5.992,-2.341 6.771,-2.862c0.263,-0 0.521,-0.263 0.784,-0.263c1.82,0 3.383,2.604 3.383,4.688l-0,25.783c-0,2.863 -1.3,5.208 -2.863,5.988c-1.562,0.52 -7.033,2.866 -7.033,2.866c-1.821,0.521 -3.125,2.604 -3.125,4.167l0,18.487c0,1.563 0.783,2.346 2.083,2.346c0.263,0 0.784,-0.262 1.042,-0.262c0,-0 3.646,-1.563 5.992,-2.342c0.258,-0.262 0.521,-0.262 0.779,-0.262c1.825,-0 3.125,2.866 3.125,4.166l-0,32.034c-0,1.562 1.562,2.862 3.387,2.862c2.605,0 4.425,-1.3 4.425,-2.862l0,-36.2c0,-3.384 1.305,-5.209 2.605,-5.73l15.887,-6.508c0.258,0 0.779,-0.262 1.042,-0.262c2.083,-0 3.383,3.125 3.383,4.687l0,32.554c0,1.563 1.563,2.863 3.388,2.863c2.862,-0 4.425,-1.3 4.425,-2.863l-0,-36.979c-0,-2.083 1.041,-5.208 2.866,-5.992c1.821,-0.779 7.292,-2.862 7.292,-2.862c1.821,-0.783 3.125,-2.867 3.125,-4.429l-0,-18.488c-0,-1.304 -0.783,-2.083 -1.825,-2.083c-0.521,-0 -0.779,-0 -1.3,0.258l-6.771,2.604c-1.562,0 -3.387,-1.562 -3.387,-4.687l-0,-24.217c-0,-1.825 1.304,-6.771 3.387,-7.554l6.771,-2.604" style="fill-rule:nonzero;"/></g><g><path d="M3488.46,259.954c23.175,0 51.563,-21.354 51.563,-43.492c-0,-13.279 -10.417,-21.612 -25.263,-21.612c-28.646,0 -51.562,21.092 -51.562,43.488c-0,13.541 11.2,21.616 25.262,21.616" style="fill-rule:nonzero;"/></g><g><path d="M3659.66,227.663c23.179,-0 51.563,-21.355 51.563,-43.492c-0,-13.279 -10.417,-21.613 -25.259,-21.613c-28.646,0 -51.562,21.092 -51.562,43.488c-0,13.542 11.196,21.617 25.258,21.617" style="fill-rule:nonzero;"/></g><g><path d="M3830.83,195.371c23.175,-0 51.562,-21.354 51.562,-43.492c0,-13.279 -10.416,-21.612 -25.262,-21.612c-28.646,-0 -51.563,21.091 -51.563,43.487c0,13.542 11.2,21.617 25.263,21.617" style="fill-rule:nonzero;"/></g><g><path d="M4001.99,163.079c23.175,0 51.563,-21.354 51.563,-43.492c-0,-13.279 -10.417,-21.612 -25.263,-21.612c-28.645,0 -51.562,21.092 -51.562,43.488c-0,13.541 11.2,21.616 25.262,21.616" style="fill-rule:nonzero;"/></g><g><path d="M4173.16,163.079c23.179,0 51.563,-21.354 51.563,-43.492c-0,-13.279 -10.417,-21.612 -25.259,-21.612c-28.646,0 -51.562,21.092 -51.562,43.488c-0,13.541 11.196,21.616 25.258,21.616" style="fill-rule:nonzero;"/></g><g><path d="M4344.37,195.371c23.175,-0 51.563,-21.354 51.563,-43.492c-0,-13.279 -10.417,-21.612 -25.263,-21.612c-28.645,-0 -51.562,21.091 -51.562,43.487c-0,13.542 11.2,21.617 25.262,21.617" style="fill-rule:nonzero;"/></g><g><path d="M4515.53,227.663c23.175,-0 51.563,-21.355 51.563,-43.492c-0,-13.279 -10.417,-21.613 -25.263,-21.613c-28.646,0 -51.562,21.092 -51.562,43.488c-0,13.542 11.2,21.617 25.262,21.617" style="fill-rule:nonzero;"/></g><g><path d="M4771.95,239.121c-1.563,5.208 -13.804,10.417 -19.792,10.417c-1.562,-0 -2.867,-0.521 -3.125,-1.305c-0.521,-1.041 -0.783,-6.77 -0.783,-13.02c-0,-8.071 0.262,-17.188 0.783,-19.271c0.521,-4.425 12.5,-9.896 19.008,-9.896c1.825,-0 3.388,0.521 3.909,1.562c0.521,1.305 1.041,7.813 1.041,14.846c0,7.029 -0.52,14.321 -1.041,16.667m17.966,-42.45c1.825,-0.779 3.125,-2.863 3.125,-4.425l0,-18.492c0,-1.3 -0.779,-2.083 -1.82,-2.083c-0.521,-0 -0.784,-0 -1.305,0.262c0,0 -5.208,2.084 -6.508,2.342c-1.825,0 -3.646,-1.3 -3.646,-3.383l0,-31.771c0,-1.563 -1.562,-2.867 -3.646,-2.867c-2.604,0 -4.166,1.304 -4.166,2.867l-0,33.854c-0.263,2.604 -1.042,5.988 -3.388,7.55c-3.125,1.825 -11.979,5.471 -16.404,6.513c-2.346,-0 -3.125,-3.125 -3.125,-5.209l0,-31.25c0,-1.562 -1.825,-2.866 -3.646,-2.866c-2.604,-0 -4.166,1.304 -4.166,2.866l-0,35.154c-0,3.646 -1.563,6.25 -3.125,7.034c-1.563,0.779 -6.771,2.862 -6.771,2.862c-1.825,0.521 -3.125,2.604 -3.125,4.167l-0,18.492c-0,1.562 0.779,2.341 2.083,2.341c1.042,0 5.988,-2.341 6.771,-2.862c0.258,-0 0.521,-0.263 0.779,-0.263c1.825,0 3.388,2.604 3.388,4.688l-0,25.783c-0,2.863 -1.305,5.208 -2.867,5.988c-1.563,0.52 -7.029,2.866 -7.029,2.866c-1.825,0.521 -3.125,2.604 -3.125,4.167l-0,18.487c-0,1.563 0.779,2.346 2.083,2.346c0.258,0 0.779,-0.262 1.042,-0.262c-0,-0 3.646,-1.563 5.987,-2.342c0.263,-0.262 0.521,-0.262 0.784,-0.262c1.82,-0 3.125,2.866 3.125,4.166l-0,32.034c-0,1.562 1.562,2.862 3.383,2.862c2.604,0 4.429,-1.3 4.429,-2.862l0,-36.2c0,-3.384 1.3,-5.209 2.604,-5.73l15.884,-6.508c0.262,0 0.783,-0.262 1.041,-0.262c2.084,-0 3.388,3.125 3.388,4.687l-0,32.554c-0,1.563 1.562,2.863 3.383,2.863c2.867,-0 4.429,-1.3 4.429,-2.863l0,-36.979c0,-2.083 1.042,-5.208 2.863,-5.992c1.825,-0.779 7.291,-2.862 7.291,-2.862c1.825,-0.783 3.125,-2.867 3.125,-4.429l0,-18.488c0,-1.304 -0.779,-2.083 -1.82,-2.083c-0.521,-0 -0.784,-0 -1.305,0.258l-6.77,2.604c-1.563,0 -3.384,-1.562 -3.384,-4.687l0,-24.217c0,-1.825 1.3,-6.771 3.384,-7.554l6.77,-2.604" style="fill-rule:nonzero;"/></g><g><path d="M4834.41,259.954c23.179,0 51.563,-21.354 51.563,-43.492c-0,-13.279 -10.417,-21.612 -25.259,-21.612c-28.646,0 -51.562,21.092 -51.562,43.488c-0,13.541 11.196,21.616 25.258,21.616" style="fill-rule:nonzero;"/></g><g><path d="M5005.58,292.246c23.179,-0 51.562,-21.354 51.562,-43.492c0,-13.279 -10.416,-21.612 -25.258,-21.612c-28.646,-0 -51.563,21.091 -51.563,43.487c0,13.542 11.196,21.617 25.259,21.617" style="fill-rule:nonzero;"/></g><g><path d="M5176.78,324.538c23.175,-0 51.563,-21.355 51.563,-43.492c-0,-13.279 -10.417,-21.613 -25.263,-21.613c-28.646,0 -51.562,21.092 -51.562,43.488c-0,13.541 11.2,21.617 25.262,21.617" style="fill-rule:nonzero;"/></g><g><path d="M5347.95,356.829c23.179,0 51.562,-21.354 51.562,-43.492c0,-13.279 -10.416,-21.612 -25.258,-21.612c-28.646,0 -51.563,21.092 -51.563,43.488c0,13.541 11.196,21.616 25.259,21.616" style="fill-rule:nonzero;"/></g><g><path d="M5519.12,389.121c23.18,-0 51.563,-21.354 51.563,-43.492c-0,-13.279 -10.417,-21.612 -25.258,-21.612c-28.646,-0 -51.563,21.091 -51.563,43.487c0,13.542 11.196,21.617 25.258,21.617" style="fill-rule:nonzero;"/></g><g><path d="M5690.28,421.413c23.175,-0 51.563,-21.355 51.563,-43.492c-0,-13.279 -10.417,-21.613 -25.263,-21.613c-28.646,0 -51.562,21.092 -51.562,43.488c-0,13.542 11.2,21.617 25.262,21.617" style="fill-rule:nonzero;"/></g><g><path d="M5861.49,453.704c23.175,0 51.563,-21.354 51.563,-43.491c-0,-13.28 -10.417,-21.613 -25.263,-21.613c-28.645,0 -51.562,21.092 -51.562,43.488c-0,13.541 11.2,21.616 25.262,21.616" style="fill-rule:nonzero;"/></g><g><path d="M5980.99,465.163c-1.562,5.208 -13.8,10.416 -19.791,10.416c-1.563,0 -2.863,-0.521 -3.125,-1.304c-0.521,-1.042 -0.779,-6.771 -0.779,-13.021c-0,-8.071 0.258,-17.187 0.779,-19.271c0.521,-4.425 12.5,-9.895 19.012,-9.895c1.821,-0 3.384,0.52 3.904,1.562c0.521,1.304 1.042,7.813 1.042,14.846c0,7.029 -0.521,14.321 -1.042,16.666m17.971,-42.449c1.821,-0.78 3.125,-2.863 3.125,-4.425l0,-18.492c0,-1.3 -0.783,-2.083 -1.825,-2.083c-0.521,-0 -0.779,-0 -1.3,0.262c0,0 -5.208,2.083 -6.512,2.342c-1.821,-0 -3.646,-1.3 -3.646,-3.384l-0,-31.77c-0,-1.563 -1.563,-2.867 -3.646,-2.867c-2.604,-0 -4.167,1.304 -4.167,2.867l0,33.854c-0.258,2.604 -1.041,5.987 -3.383,7.55c-3.125,1.825 -11.979,5.471 -16.408,6.512c-2.342,0 -3.125,-3.125 -3.125,-5.208l-0,-31.25c-0,-1.563 -1.821,-2.867 -3.646,-2.867c-2.604,0 -4.167,1.304 -4.167,2.867l0,35.154c0,3.646 -1.562,6.25 -3.125,7.033c-1.562,0.78 -6.771,2.863 -6.771,2.863c-1.82,0.521 -3.125,2.604 -3.125,4.167l0,18.491c0,1.563 0.784,2.342 2.084,2.342c1.041,-0 5.991,-2.342 6.771,-2.863c0.262,0 0.52,-0.262 0.783,-0.262c1.821,-0 3.383,2.604 3.383,4.687l0,25.784c0,2.862 -1.3,5.208 -2.862,5.987c-1.563,0.521 -7.034,2.867 -7.034,2.867c-1.82,0.521 -3.125,2.604 -3.125,4.167l0,18.487c0,1.563 0.784,2.346 2.084,2.346c0.262,-0 0.783,-0.263 1.041,-0.263c0,0 3.646,-1.562 5.992,-2.341c0.258,-0.263 0.521,-0.263 0.779,-0.263c1.825,0 3.125,2.867 3.125,4.167l0,32.033c0,1.563 1.563,2.863 3.388,2.863c2.604,-0 4.425,-1.3 4.425,-2.863l-0,-36.2c-0,-3.383 1.304,-5.208 2.604,-5.729l15.887,-6.508c0.259,-0 0.78,-0.263 1.042,-0.263c2.083,0 3.383,3.125 3.383,4.688l0,32.554c0,1.562 1.563,2.862 3.388,2.862c2.862,0 4.425,-1.3 4.425,-2.862l-0,-36.979c-0,-2.084 1.042,-5.209 2.867,-5.992c1.82,-0.779 7.291,-2.862 7.291,-2.862c1.821,-0.784 3.125,-2.867 3.125,-4.43l0,-18.487c0,-1.304 -0.783,-2.083 -1.825,-2.083c-0.521,-0 -0.779,-0 -1.3,0.258l-6.771,2.604c-1.562,0 -3.387,-1.562 -3.387,-4.687l-0,-24.217c-0,-1.825 1.304,-6.771 3.387,-7.554l6.771,-2.604" style="fill-rule:nonzero;"/></g><g><path d="M6043.45,485.996c23.175,-0 51.562,-21.354 51.562,-43.492c0,-13.279 -10.416,-21.612 -25.262,-21.612c-28.646,-0 -51.563,21.091 -51.563,43.487c0,13.542 11.2,21.617 25.263,21.617" style="fill-rule:nonzero;"/></g><g><path d="M6214.62,518.288c23.18,-0 51.563,-21.355 51.563,-43.492c-0,-13.279 -10.417,-21.613 -25.258,-21.613c-28.646,0 -51.563,21.092 -51.563,43.488c0,13.542 11.196,21.617 25.258,21.617" style="fill-rule:nonzero;"/></g><g><path d="M6385.78,550.579c23.179,0 51.563,-21.354 51.563,-43.491c-0,-13.28 -10.417,-21.613 -25.259,-21.613c-28.646,-0 -51.562,21.092 -51.562,43.488c-0,13.541 11.196,21.616 25.258,21.616" style="fill-rule:nonzero;"/></g><g><path d="M6556.99,582.871c23.175,-0 51.563,-21.354 51.563,-43.492c-0,-13.279 -10.417,-21.612 -25.263,-21.612c-28.645,-0 -51.562,21.091 -51.562,43.487c-0,13.542 11.2,21.617 25.262,21.617" style="fill-rule:nonzero;"/></g><g><path d="M6728.16,615.163c23.179,-0 51.563,-21.355 51.563,-43.492c-0,-13.279 -10.417,-21.613 -25.259,-21.613c-28.646,0 -51.562,21.092 -51.562,43.488c-0,13.542 11.196,21.616 25.258,21.616" style="fill-rule:nonzero;"/></g><g><path d="M135.714,482.088c0.779,4.95 0.779,4.687 -3.908,6.25c-22.917,7.812 -37.763,28.387 -37.763,50.52c0,23.438 12.242,40.105 29.95,46.096c2.084,0.779 5.209,1.563 7.03,1.563c2.083,-0 3.125,-1.304 3.125,-2.867c-0,-1.821 -2.084,-2.604 -3.905,-3.383c-10.937,-4.688 -18.75,-15.888 -18.75,-27.867c0,-14.842 10.155,-26.042 26.042,-30.467c4.167,-1.041 4.688,-0.783 5.208,2.084l13.021,77.604c0.521,2.862 0.259,2.862 -3.646,3.646c-4.166,0.779 -9.375,1.3 -14.583,1.3c-45.575,-0 -75,-25.259 -75,-61.459c0,-15.362 2.604,-35.937 24.217,-60.416c15.625,-17.446 27.604,-27.084 39.846,-36.979c2.604,-2.084 3.125,-1.821 3.645,1.041l5.467,33.334m28.388,-177.342c8.591,-0 15.625,7.029 15.625,21.354c-0,28.904 -24.742,52.342 -45.313,70.313c-1.825,1.562 -2.867,1.3 -3.387,-2.084c-1.042,-6.771 -1.563,-15.625 -1.563,-23.958c0,-40.625 18.75,-65.625 34.638,-65.625m-10.417,218.75c-0.521,-3.125 -0.263,-3.908 2.862,-3.646c21.096,1.821 38.542,19.529 38.542,42.446c0,16.408 -9.896,29.687 -24.479,36.979c-3.125,1.563 -3.646,1.563 -4.167,-1.562l-12.758,-74.217m-14.063,-81.25c-0.52,-3.125 0,-3.388 1.563,-4.95c28.125,-26.3 49.479,-59.375 49.479,-99.217c0,-22.658 -6.25,-45.054 -16.929,-60.679c-3.904,-5.729 -10.675,-13.021 -13.542,-13.021c-3.646,0 -11.716,6.771 -16.925,12.5c-19.271,21.354 -25.521,53.909 -25.521,80.992c0,15.104 1.821,32.029 3.646,42.708c0.521,3.125 0.779,3.646 -2.346,6.25c-37.5,30.988 -77.341,68.229 -77.341,120.834c-0,45.312 30.987,88.279 94.791,88.279c5.988,-0 12.759,-0.521 17.967,-1.563c2.867,-0.521 3.388,-0.779 3.908,2.346c3.125,17.446 7.03,40.104 7.03,52.342c-0,38.541 -26.042,43.229 -41.405,43.229c-14.062,-0 -20.833,-4.167 -20.833,-7.55c0,-1.825 2.342,-2.604 8.333,-4.429c8.071,-2.342 17.446,-9.375 17.446,-24.48c0,-14.32 -9.112,-26.562 -25,-26.562c-17.446,0 -27.862,13.804 -27.862,29.95c-0,16.925 10.154,42.446 49.479,42.446c17.446,-0 51.3,-7.813 51.3,-52.084c-0,-14.841 -4.688,-39.583 -7.55,-55.729c-0.521,-3.125 -0.263,-2.862 3.383,-4.425c26.304,-10.416 43.75,-32.554 43.75,-61.979c0,-33.333 -24.479,-62.762 -62.758,-62.762c-6.771,-0 -6.771,-0 -7.554,-4.688l-6.509,-37.758" style="fill-rule:nonzero;"/></g><g><text x="532.752px" y="894.788px" style="font-family:'Bravura';font-size:260.417px;"></text></g><g><text x="1082.91px" y="797.913px" style="font-family:'Bravura';font-size:260.417px;"></text></g><g><text x="1596.44px" y="728.696px" style="font-family:'Bravura';font-size:260.417px;"></text></g><g><text x="2077.04px" y="790.858px" style="font-family:'Bravura';font-size:260.417px;"></text></g><g><text x="2703.37px" y="728.704px" style="font-family:'Bravura';font-size:260.417px;"></text></g><g><text x="3235.22px" y="728.704px" style="font-family:'Bravura';font-size:260.417px;"></text></g><g><text x="3767.03px" y="728.704px" style="font-family:'Bravura';font-size:260.417px;"></text></g><g><text x="4280.58px" y="728.704px" style="font-family:'Bravura';font-size:260.417px;"></text></g><g><text x="4941.83px" y="728.704px" style="font-family:'Bravura';font-size:260.417px;"></text></g><g><text x="5455.37px" y="728.704px" style="font-family:'Bravura';font-size:260.417px;"></text></g><g><text x="5974.28px" y="790.5px" style="font-family:'Bravura';font-size:260.417px;"></text></g><g><text x="6531.62px" y="728.708px" style="font-family:'Bravura';font-size:260.417px;"></text></g><g><path d="M430.764,518.025l0,-32.433l350.129,-32.292l0,32.433l-350.129,32.292" style="fill-rule:nonzero;"/></g><g><path d="M980.893,453.442l0,-32.434l350.134,-32.291l-0,32.433l-350.134,32.292" style="fill-rule:nonzero;"/></g><g><path d="M1494.43,388.858l0,-32.862l350.129,-64.579l0,32.858l-350.129,64.583" style="fill-rule:nonzero;"/></g><g><path d="M1938.84,695.929l0,-32.591l361.067,-48.438l-0,32.592l-361.071,48.437" style="fill-rule:nonzero;"/></g><g><path d="M2570.74,631.621l0,-32.867l350,-64.583l0,32.867l-350,64.583" style="fill-rule:nonzero;"/></g><g><path d="M3084.28,518.142l-0,-32.409l386.717,-32.291l-0,32.408l-386.717,32.292" style="fill-rule:nonzero;"/></g><g><path d="M3634.41,501.921l0,-32.333l350.129,-16.146l0,32.333l-350.129,16.146" style="fill-rule:nonzero;"/></g><g><path d="M4147.95,485.879l-0,-32.437l350.129,32.291l-0,32.438l-350.129,-32.292" style="fill-rule:nonzero;"/></g><g><path d="M4809.16,485.879l0,-32.437l350.129,32.291l0,32.438l-350.129,-32.292" style="fill-rule:nonzero;"/></g><g><path d="M5322.7,567.038l-0,-32.867l350.129,64.583l-0,32.867l-350.129,-64.583" style="fill-rule:nonzero;"/></g><g><path d="M5836.24,647.492l0,-32.592l360.938,48.438l-0,32.591l-360.938,-48.437" style="fill-rule:nonzero;"/></g><g><path d="M6429.58,324.275l-0,-32.858l350.129,64.579l-0,32.862l-350.129,-64.583" style="fill-rule:nonzero;"/></g><g><path d="M340.402,887.975l160.546,-28.229l-0,-10.508l-150.263,26.416l0,-36.116l-10.283,-0" style="fill-rule:nonzero;"/></g><g><path d="M785.973,808.913l-144.4,25.3l-0,-10.509l134.112,-24.362l0,-38.867l10.288,0" style="fill-rule:nonzero;"/></g><g><path d="M890.531,791.1l160.546,-28.229l-0,-10.508l-150.263,26.416l0,-36.116l-10.283,-0" style="fill-rule:nonzero;"/></g><g><path d="M1336.1,712.038l-144.4,25.3l-0,-10.509l134.116,-24.362l0,-38.867l10.284,0" style="fill-rule:nonzero;"/></g><g><path d="M1404.07,681.046l160.025,-0.104l-0,-10.338l-149.738,0.104l0,-38.1l-10.287,0" style="fill-rule:nonzero;"/></g><g><path d="M1849.64,680.733l-143.879,0.105l0,-10.338l133.592,-0.092l-0,-38.112l10.287,-0" style="fill-rule:nonzero;"/></g><g><path d="M6339.24,680.733l160.159,0.117l-0,-10.337l-149.871,-0.105l-0,-38.112l-10.288,-0" style="fill-rule:nonzero;"/></g><g><path d="M6784.95,681.046l-144.009,-0.092l0,-10.337l133.592,0.091l0,-38.1l10.417,0" style="fill-rule:nonzero;"/></g><g><path d="M9.41,1260.73l1692.84,0" style="fill:none;stroke:#000;stroke-width:8.42px;"/><path d="M9.41,1454.48l1692.84,0" style="fill:none;stroke:#000;stroke-width:8.42px;"/><path d="M9.41,1325.32l1692.84,-0" style="fill:none;stroke:#000;stroke-width:8.42px;"/><path d="M9.41,1389.9l1692.84,0" style="fill:none;stroke:#000;stroke-width:8.42px;"/><path d="M9.41,1519.07l1692.84,-0" style="fill:none;stroke:#000;stroke-width:8.42px;"/></g><g><path d="M1660.84,1256.54l0,266.716" style="fill:none;stroke:#000;stroke-width:10.33px;"/><path d="M1697.04,1256.54l0,266.716" style="fill:none;stroke:#000;stroke-width:10.33px;"/></g><g><path d="M434.539,1309.02l0,199.204" style="fill:none;stroke:#000;stroke-width:7.75px;"/><path d="M583.889,1323.57l0,216.942" style="fill:none;stroke:#000;stroke-width:7.75px;"/><path d="M765.923,1341.31l-0,231.496" style="fill:none;stroke:#000;stroke-width:7.75px;"/></g><g><path d="M682.198,1583.65l113.412,0" style="fill:none;stroke:#000;stroke-width:10.33px;"/></g><g><path d="M915.268,1389.85l0,215.246" style="fill:none;stroke:#000;stroke-width:7.75px;"/></g><g><path d="M816.443,1583.65l128.513,0" style="fill:none;stroke:#000;stroke-width:10.33px;"/></g><g><path d="M1064.62,1397.92l0,239.467" style="fill:none;stroke:#000;stroke-width:7.75px;"/></g><g><path d="M965.789,1648.23l128.517,0" style="fill:none;stroke:#000;stroke-width:10.33px;"/><path d="M965.789,1583.65l128.517,0" style="fill:none;stroke:#000;stroke-width:10.33px;"/></g><g><path d="M1213.84,1406l0,263.683" style="fill:none;stroke:#000;stroke-width:7.75px;"/></g><g><path d="M1115.14,1648.23l128.517,0" style="fill:none;stroke:#000;stroke-width:10.33px;"/><path d="M1115.14,1583.65l128.517,0" style="fill:none;stroke:#000;stroke-width:10.33px;"/></g><g><path d="M1363.18,1389.9l0,279.779" style="fill:none;stroke:#000;stroke-width:7.75px;"/></g><g><path d="M1264.49,1648.23l128.517,0" style="fill:none;stroke:#000;stroke-width:10.33px;"/><path d="M1264.49,1583.65l128.517,0" style="fill:none;stroke:#000;stroke-width:10.33px;"/></g><g><path d="M413.939,1172.71l0,-27.863c0,-1.304 -0.262,-2.346 -1.562,-2.346c-1.042,0 -1.825,0.263 -2.604,1.304l-7.813,15.105c-0.521,0.52 -1.304,1.3 -1.304,3.125l-0,10.675l-16.925,-0c10.675,-8.855 27.342,-38.28 27.604,-39.842c0,-0.263 0.258,-0.521 0.258,-0.783c0,-1.042 -1.041,-1.821 -1.82,-1.821c-1.305,-0 -6.771,0.521 -9.117,0.521c-2.342,-0 -3.904,-0.521 -4.946,-0.521c-1.304,-0 -3.125,0.521 -3.125,2.604c0,16.667 -13.542,35.675 -16.929,40.362c-0.521,0.521 -1.042,1.304 -1.042,2.084c0,1.304 1.042,2.604 2.604,2.604l23.438,-0l-0,8.075c-0,3.646 -2.083,4.687 -4.167,4.687c-2.341,0 -3.383,1.042 -3.383,2.342c-0,1.304 0.521,2.867 2.862,2.867l22.396,-0c1.304,-0 2.604,-1.042 2.604,-2.867c0,-1.821 -1.562,-2.604 -2.862,-2.604c-1.304,-0 -4.167,-0.779 -4.167,-4.946l0,-7.554l9.634,-0c1.304,-0 2.083,-1.042 2.083,-2.604c-0,-1.563 -0.521,-2.605 -2.083,-2.605l-9.634,0" style="fill-rule:nonzero;"/></g><g><path d="M575.218,1175.32c0,-1.821 -0.779,-2.084 -1.562,-2.084c-1.042,0 -1.563,0.784 -1.821,1.563c-1.304,3.646 -4.167,8.333 -8.075,8.333c-0.521,0 -1.042,0 -1.562,-0.258l-3.905,-1.304c-2.604,-1.042 -8.854,-3.125 -14.062,-3.125c-1.825,-0 -3.388,0.262 -4.95,0.783c2.867,-4.95 16.408,-11.458 19.271,-12.242c9.375,-1.3 17.187,-6.77 17.187,-16.925c0,-6.25 -2.604,-10.416 -5.987,-13.541c-6.771,-5.471 -16.667,-6.25 -19.534,-6.25c-9.375,-0 -16.925,0.521 -23.695,8.333c-1.825,2.083 -2.605,4.167 -2.605,6.25c0,1.821 0.78,3.904 1.563,6.25c1.562,3.125 4.946,5.467 8.592,5.467c6.512,-0 7.291,-6.25 7.291,-9.113c0,-5.992 -6.508,-6.512 -6.508,-9.117c-0,-1.82 2.604,-4.945 10.417,-4.945c12.237,-0 16.404,10.154 16.404,13.279c-0,4.687 -1.563,9.116 -4.167,12.762c-4.687,5.988 -13.279,8.071 -19.792,12.238c-7.291,4.429 -12.237,11.979 -14.583,20.312c0,1.825 0.783,3.909 2.346,4.688c0.258,0.262 0.779,0.262 1.042,0.262c2.862,0 4.425,-8.075 12.237,-8.075c5.208,0 7.033,7.034 18.75,7.034c5.471,-0 15.625,-0.521 17.708,-20.575" style="fill-rule:nonzero;"/></g><g><path d="M716.448,1160.48c-0,0 -0.259,1.042 -0.259,1.821c0,1.042 1.042,2.083 2.084,2.083c0.779,0 1.3,-0.779 1.562,-1.042c0.258,-0.779 3.383,-11.458 4.946,-14.062c0.521,-1.042 1.042,-1.3 1.304,-1.3c0.521,-0 0.779,1.042 0.779,1.821l0,37.241c0,3.125 -2.604,4.946 -5.208,4.946c-1.042,0 -2.342,0.521 -2.342,2.084c0,1.562 1.3,2.083 3.384,2.083l21.875,-0c2.083,-0 2.083,-2.083 2.083,-2.083c-0,-0 -0,-2.084 -2.083,-2.084c-1.821,0 -4.167,-2.341 -4.167,-4.687l-0,-54.167c-0,-2.083 -0.779,-3.125 -2.604,-3.125c-1.821,0 -3.384,0.521 -4.946,0.521c-2.604,-0 -3.125,-0 -5.208,-0.521c-1.042,0 -2.346,1.563 -3.125,2.604l-8.075,27.867" style="fill-rule:nonzero;"/></g><g><path d="M894.568,1172.71l0,-27.863c0,-1.304 -0.262,-2.346 -1.562,-2.346c-1.042,0 -1.825,0.263 -2.604,1.304l-7.813,15.105c-0.521,0.52 -1.304,1.3 -1.304,3.125l0,10.675l-16.925,-0c10.675,-8.855 27.342,-38.28 27.604,-39.842c0,-0.263 0.259,-0.521 0.259,-0.783c-0,-1.042 -1.042,-1.821 -1.821,-1.821c-1.304,-0 -6.771,0.521 -9.117,0.521c-2.342,-0 -3.904,-0.521 -4.946,-0.521c-1.304,-0 -3.125,0.521 -3.125,2.604c0,16.667 -13.541,35.675 -16.929,40.362c-0.521,0.521 -1.042,1.304 -1.042,2.084c0,1.304 1.042,2.604 2.605,2.604l23.437,-0l0,8.075c0,3.646 -2.083,4.687 -4.167,4.687c-2.341,0 -3.383,1.042 -3.383,2.342c0,1.304 0.521,2.867 2.863,2.867l22.395,-0c1.305,-0 2.605,-1.042 2.605,-2.867c-0,-1.821 -1.563,-2.604 -2.863,-2.604c-1.304,-0 -4.167,-0.779 -4.167,-4.946l0,-7.554l9.634,-0c1.304,-0 2.083,-1.042 2.083,-2.604c0,-1.563 -0.521,-2.605 -2.083,-2.605l-9.634,0" style="fill-rule:nonzero;"/></g><g><path d="M1055.86,1175.32c-0,-1.821 -0.783,-2.084 -1.563,-2.084c-1.041,0 -1.562,0.784 -1.825,1.563c-1.3,3.646 -4.166,8.333 -8.07,8.333c-0.521,0 -1.042,0 -1.563,-0.258l-3.908,-1.304c-2.604,-1.042 -8.854,-3.125 -14.063,-3.125c-1.821,-0 -3.383,0.262 -4.946,0.783c2.863,-4.95 16.405,-11.458 19.271,-12.242c9.375,-1.3 17.188,-6.77 17.188,-16.925c-0,-6.25 -2.604,-10.416 -5.992,-13.541c-6.771,-5.471 -16.667,-6.25 -19.529,-6.25c-9.375,-0 -16.929,0.521 -23.7,8.333c-1.821,2.083 -2.604,4.167 -2.604,6.25c-0,1.821 0.783,3.904 1.562,6.25c1.563,3.125 4.95,5.467 8.596,5.467c6.508,-0 7.292,-6.25 7.292,-9.113c-0,-5.992 -6.513,-6.512 -6.513,-9.117c0,-1.82 2.604,-4.945 10.417,-4.945c12.242,-0 16.408,10.154 16.408,13.279c0,4.687 -1.562,9.116 -4.166,12.762c-4.688,5.988 -13.284,8.071 -19.792,12.238c-7.292,4.429 -12.242,11.979 -14.583,20.312c-0,1.825 0.779,3.909 2.341,4.688c0.263,0.262 0.784,0.262 1.042,0.262c2.867,0 4.429,-8.075 12.242,-8.075c5.208,0 7.029,7.034 18.75,7.034c5.466,-0 15.625,-0.521 17.708,-20.575" style="fill-rule:nonzero;"/></g><g><path d="M1164.45,1160.48c-0,0 -0.259,1.042 -0.259,1.821c0,1.042 1.042,2.083 2.084,2.083c0.779,0 1.3,-0.779 1.562,-1.042c0.258,-0.779 3.383,-11.458 4.946,-14.062c0.521,-1.042 1.042,-1.3 1.304,-1.3c0.521,-0 0.779,1.042 0.779,1.821l0,37.241c0,3.125 -2.604,4.946 -5.208,4.946c-1.042,0 -2.342,0.521 -2.342,2.084c0,1.562 1.3,2.083 3.384,2.083l21.875,-0c2.083,-0 2.083,-2.083 2.083,-2.083c-0,-0 -0,-2.084 -2.083,-2.084c-1.821,0 -4.167,-2.341 -4.167,-4.687l-0,-54.167c-0,-2.083 -0.779,-3.125 -2.604,-3.125c-1.821,0 -3.384,0.521 -4.946,0.521c-2.604,-0 -3.125,-0 -5.208,-0.521c-1.042,0 -2.346,1.563 -3.125,2.604l-8.075,27.867" style="fill-rule:nonzero;"/></g><g><path d="M1313.79,1160.48c0,0 -0.258,1.042 -0.258,1.821c-0,1.042 1.041,2.083 2.083,2.083c0.779,0 1.3,-0.779 1.563,-1.042c0.258,-0.779 3.383,-11.458 4.945,-14.062c0.521,-1.042 1.042,-1.3 1.305,-1.3c0.52,-0 0.779,1.042 0.779,1.821l-0,37.241c-0,3.125 -2.604,4.946 -5.209,4.946c-1.041,0 -2.341,0.521 -2.341,2.084c-0,1.562 1.3,2.083 3.383,2.083l21.875,-0c2.083,-0 2.083,-2.083 2.083,-2.083c0,-0 0,-2.084 -2.083,-2.084c-1.821,0 -4.167,-2.341 -4.167,-4.687l0,-54.167c0,-2.083 -0.779,-3.125 -2.604,-3.125c-1.821,0 -3.383,0.521 -4.946,0.521c-2.604,-0 -3.125,-0 -5.208,-0.521c-1.042,0 -2.346,1.563 -3.125,2.604l-8.075,27.867" style="fill-rule:nonzero;"/></g><g><path d="M386.939,1551.62c23.175,-0 51.563,-21.354 51.563,-43.492c-0,-13.279 -10.417,-21.612 -25.263,-21.612c-28.646,-0 -51.562,21.091 -51.562,43.487c-0,13.542 11.2,21.617 25.262,21.617" style="fill-rule:nonzero;"/></g><g><path d="M536.268,1583.91c23.18,-0 51.563,-21.355 51.563,-43.492c-0,-13.279 -10.417,-21.613 -25.258,-21.613c-28.646,0 -51.563,21.092 -51.563,43.488c0,13.542 11.196,21.617 25.258,21.617" style="fill-rule:nonzero;"/></g><g><path d="M655.781,1595.37c-1.563,5.208 -13.8,10.417 -19.792,10.417c-1.562,-0 -2.862,-0.521 -3.125,-1.305c-0.521,-1.041 -0.779,-6.77 -0.779,-13.02c0,-8.071 0.258,-17.188 0.779,-19.271c0.521,-4.425 12.5,-9.896 19.013,-9.896c1.821,-0 3.383,0.521 3.904,1.562c0.521,1.305 1.042,7.813 1.042,14.846c-0,7.029 -0.521,14.321 -1.042,16.667m17.971,-42.45c1.821,-0.779 3.125,-2.863 3.125,-4.425l-0,-18.492c-0,-1.3 -0.784,-2.083 -1.825,-2.083c-0.521,-0 -0.779,-0 -1.3,0.262c-0,0 -5.209,2.084 -6.513,2.342c-1.821,0 -3.646,-1.3 -3.646,-3.383l0,-31.771c0,-1.563 -1.562,-2.867 -3.645,-2.867c-2.605,0 -4.167,1.304 -4.167,2.867l-0,33.854c-0.258,2.604 -1.042,5.988 -3.383,7.55c-3.125,1.825 -11.98,5.471 -16.409,6.513c-2.341,-0 -3.125,-3.125 -3.125,-5.209l0,-31.25c0,-1.562 -1.821,-2.866 -3.646,-2.866c-2.604,-0 -4.166,1.304 -4.166,2.866l-0,35.154c-0,3.646 -1.563,6.25 -3.125,7.034c-1.563,0.779 -6.771,2.862 -6.771,2.862c-1.821,0.521 -3.125,2.604 -3.125,4.167l-0,18.492c-0,1.562 0.783,2.341 2.083,2.341c1.042,0 5.992,-2.341 6.771,-2.862c0.263,-0 0.521,-0.263 0.783,-0.263c1.821,0 3.384,2.604 3.384,4.688l-0,25.783c-0,2.863 -1.3,5.208 -2.863,5.988c-1.562,0.52 -7.033,2.866 -7.033,2.866c-1.821,0.521 -3.125,2.604 -3.125,4.167l-0,18.487c-0,1.563 0.783,2.346 2.083,2.346c0.263,0 0.784,-0.262 1.042,-0.262c-0,-0 3.646,-1.563 5.992,-2.342c0.258,-0.262 0.52,-0.262 0.779,-0.262c1.825,-0 3.125,2.866 3.125,4.166l-0,32.034c-0,1.562 1.562,2.862 3.387,2.862c2.604,0 4.425,-1.3 4.425,-2.862l0,-36.2c0,-3.384 1.304,-5.209 2.604,-5.73l15.888,-6.508c0.258,0 0.779,-0.262 1.042,-0.262c2.083,-0 3.383,3.125 3.383,4.687l-0,32.554c-0,1.563 1.562,2.863 3.387,2.863c2.863,-0 4.425,-1.3 4.425,-2.863l0,-36.979c0,-2.083 1.042,-5.208 2.867,-5.992c1.821,-0.779 7.292,-2.862 7.292,-2.862c1.821,-0.783 3.125,-2.867 3.125,-4.429l-0,-18.488c-0,-1.304 -0.784,-2.083 -1.825,-2.083c-0.521,-0 -0.779,-0 -1.3,0.258l-6.771,2.604c-1.563,0 -3.388,-1.562 -3.388,-4.687l0,-24.217c0,-1.825 1.305,-6.771 3.388,-7.554l6.771,-2.604" style="fill-rule:nonzero;"/></g><g><path d="M718.235,1616.2c23.179,0 51.563,-21.354 51.563,-43.491c-0,-13.28 -10.417,-21.613 -25.259,-21.613c-28.646,0 -51.562,21.092 -51.562,43.488c-0,13.541 11.196,21.616 25.258,21.616" style="fill-rule:nonzero;"/></g><g><path d="M867.573,1648.5c23.179,-0 51.562,-21.354 51.562,-43.492c0,-13.279 -10.417,-21.612 -25.258,-21.612c-28.646,-0 -51.563,21.091 -51.563,43.487c0,13.542 11.196,21.617 25.259,21.617" style="fill-rule:nonzero;"/></g><g><path d="M1016.9,1680.79c23.175,-0 51.562,-21.355 51.562,-43.492c0,-13.279 -10.417,-21.613 -25.262,-21.613c-28.646,0 -51.563,21.092 -51.563,43.488c0,13.542 11.2,21.617 25.263,21.617" style="fill-rule:nonzero;"/></g><g><path d="M1166.24,1713.08c23.175,0 51.563,-21.354 51.563,-43.491c-0,-13.28 -10.417,-21.613 -25.263,-21.613c-28.646,0 -51.562,21.092 -51.562,43.488c-0,13.541 11.2,21.616 25.262,21.616" style="fill-rule:nonzero;"/></g><g><path d="M1309.84,1703.18c-5.466,0 -8.591,-2.866 -10.416,-5.991c-0.78,-1.563 -1.563,-3.384 -1.563,-5.209c0,-12.758 37.763,-33.333 50,-33.333c4.95,0 7.813,2.346 9.638,5.471c0.779,1.562 1.562,3.125 1.562,4.946c0,11.2 -36.721,34.116 -49.221,34.116m5.729,9.896c42.971,0 51.563,-34.896 51.563,-43.491c-0,-13.28 -10.675,-21.613 -25.779,-21.613c-38.804,0 -51.042,29.946 -51.042,43.488c0,13.804 10.938,21.616 25.258,21.616" style="fill-rule:nonzero;"/></g><g><path d="M135.714,1386.25c0.779,4.95 0.779,4.688 -3.908,6.25c-22.917,7.813 -37.763,28.388 -37.763,50.521c0,23.438 12.242,40.104 29.95,46.096c2.084,0.779 5.209,1.562 7.03,1.562c2.083,0 3.125,-1.304 3.125,-2.866c-0,-1.821 -2.084,-2.604 -3.905,-3.384c-10.937,-4.687 -18.75,-15.887 -18.75,-27.866c0,-14.842 10.155,-26.042 26.042,-30.467c4.167,-1.042 4.688,-0.783 5.208,2.083l13.021,77.605c0.521,2.862 0.259,2.862 -3.646,3.645c-4.166,0.78 -9.375,1.3 -14.583,1.3c-45.575,0 -75,-25.258 -75,-61.458c0,-15.362 2.604,-35.937 24.217,-60.417c15.625,-17.445 27.604,-27.083 39.846,-36.979c2.604,-2.083 3.125,-1.821 3.645,1.042l5.467,33.333m28.388,-177.341c8.591,-0 15.625,7.029 15.625,21.354c-0,28.904 -24.742,52.341 -45.313,70.312c-1.825,1.563 -2.867,1.3 -3.387,-2.083c-1.042,-6.771 -1.563,-15.625 -1.563,-23.958c0,-40.625 18.75,-65.625 34.638,-65.625m-10.417,218.75c-0.521,-3.125 -0.263,-3.909 2.862,-3.646c21.096,1.821 38.542,19.529 38.542,42.446c0,16.408 -9.896,29.687 -24.479,36.979c-3.125,1.562 -3.646,1.562 -4.167,-1.563l-12.758,-74.216m-14.063,-81.25c-0.52,-3.125 0,-3.388 1.563,-4.95c28.125,-26.3 49.479,-59.375 49.479,-99.217c0,-22.658 -6.25,-45.054 -16.929,-60.679c-3.904,-5.729 -10.675,-13.021 -13.542,-13.021c-3.646,-0 -11.716,6.771 -16.925,12.5c-19.271,21.354 -25.521,53.908 -25.521,80.992c0,15.104 1.821,32.029 3.646,42.708c0.521,3.125 0.779,3.646 -2.346,6.25c-37.5,30.987 -77.341,68.229 -77.341,120.833c-0,45.313 30.987,88.279 94.791,88.279c5.988,0 12.759,-0.52 17.967,-1.562c2.867,-0.521 3.388,-0.779 3.908,2.346c3.125,17.446 7.03,40.104 7.03,52.341c-0,38.542 -26.042,43.23 -41.405,43.23c-14.062,-0 -20.833,-4.167 -20.833,-7.55c0,-1.825 2.342,-2.605 8.333,-4.43c8.071,-2.341 17.446,-9.375 17.446,-24.479c0,-14.321 -9.112,-26.562 -25,-26.562c-17.446,-0 -27.862,13.804 -27.862,29.95c-0,16.925 10.154,42.446 49.479,42.446c17.446,-0 51.3,-7.813 51.3,-52.084c-0,-14.841 -4.688,-39.583 -7.55,-55.729c-0.521,-3.125 -0.263,-2.862 3.383,-4.425c26.304,-10.417 43.75,-32.554 43.75,-61.979c0,-33.333 -24.479,-62.763 -62.758,-62.763c-6.771,0 -6.771,0 -7.554,-4.687l-6.509,-37.758" style="fill-rule:nonzero;"/></g><g><text x="527.223px" y="1787.99px" style="font-family:'Bravura';font-size:260.417px;"></text></g><g><text x="991.531px" y="1803.15px" style="font-family:'Bravura';font-size:260.417px;"></text></g><g><path d="M430.764,1325.32l0,-32.446l339.063,32.292l-0,32.445l-339.063,-32.291" style="fill-rule:nonzero;"/></g><g><path d="M911.364,1406.05l0,-32.342l306.379,16.146l0,32.342l-306.379,-16.146" style="fill-rule:nonzero;"/></g><g><path d="M340.402,1740.17l154.554,0l-0,-10.325l-144.271,0l0,-38.112l-10.283,-0" style="fill-rule:nonzero;"/></g><g><path d="M774.906,1740.17l-138.413,0l0,-10.325l128.125,0l0,-38.112l10.288,-0" style="fill-rule:nonzero;"/></g><g><path d="M820.998,1713.08l138.933,27.734l-0,-10.559l-128.646,-25.666l0,-39.946l-10.287,-0" style="fill-rule:nonzero;"/></g><g><path d="M1222.95,1794.26l-122.788,-24.375l0,-10.559l112.5,23.321l0,-36.825l10.288,0" style="fill-rule:nonzero;"/></g></g></svg>