<?xml version="1.0" encoding="UTF-8" standalone="no"?><!DOCTYPE svg PUBLIC "-//W3C//DTD SVG 1.1//EN" "http://www.w3.org/Graphics/SVG/1.1/DTD/svg11.dtd"><svg width="100%" height="100%" viewBox="0 0 6894 966" version="1.1" xmlns="http://www.w3.org/2000/svg" xmlns:xlink="http://www.w3.org/1999/xlink" xml:space="preserve" xmlns:serif="http://www.serif.com/" style="fill-rule:evenodd;clip-rule:evenodd;stroke-miterlimit:2;"><g><g><path d="M9.41,550.317l6875,-0" style="fill:none;stroke:#000;stroke-width:8.42px;"/><path d="M9.41,356.567l6875,-0" style="fill:none;stroke:#000;stroke-width:8.42px;"/><path d="M9.41,421.15l6875,-0" style="fill:none;stroke:#000;stroke-width:8.42px;"/><path d="M9.41,485.733l6875,0" style="fill:none;stroke:#000;stroke-width:8.42px;"/><path d="M9.41,614.9l6875,0" style="fill:none;stroke:#000;stroke-width:8.42px;"/></g><g><path d="M2201.98,352.375l-0,266.717" style="fill:none;stroke:#000;stroke-width:10.33px;"/><path d="M4144.24,352.375l0,266.717" style="fill:none;stroke:#000;stroke-width:10.33px;"/><path d="M6086.87,352.375l0,266.717" style="fill:none;stroke:#000;stroke-width:10.33px;"/><path d="M6843.08,352.375l-0,266.717" style="fill:none;stroke:#000;stroke-width:10.33px;"/><path d="M6879.24,352.375l0,266.717" style="fill:none;stroke:#000;stroke-width:10.33px;"/></g><g><path d="M434.606,485.513l-0,279.999" style="fill:none;stroke:#000;stroke-width:7.75px;"/></g><g><path d="M335.843,744.067l128.471,-0" style="fill:none;stroke:#000;stroke-width:10.33px;"/><path d="M335.843,679.483l128.471,0" style="fill:none;stroke:#000;stroke-width:10.33px;"/></g><g><path d="M664.01,458.6l0,242.329" style="fill:none;stroke:#000;stroke-width:7.75px;"/></g><g><path d="M565.252,679.483l128.466,0" style="fill:none;stroke:#000;stroke-width:10.33px;"/></g><g><path d="M893.289,431.696l0,236.942" style="fill:none;stroke:#000;stroke-width:7.75px;"/></g><g><path d="M809.606,679.483l113.4,0" style="fill:none;stroke:#000;stroke-width:10.33px;"/></g><g><path d="M1122.71,404.783l-0,166.98" style="fill:none;stroke:#000;stroke-width:7.75px;"/><path d="M1283.06,561.163l-0,167.07" style="fill:none;stroke:#000;stroke-width:7.75px;"/><path d="M1512.47,496.579l0,199.363" style="fill:none;stroke:#000;stroke-width:7.75px;"/><path d="M1741.87,464.288l-0,199.362" style="fill:none;stroke:#000;stroke-width:7.75px;"/><path d="M1971.29,367.413l0,263.945" style="fill:none;stroke:#000;stroke-width:7.75px;"/><path d="M2308.03,335.121l-0,231.654" style="fill:none;stroke:#000;stroke-width:7.75px;"/><path d="M2537.43,270.538l-0,263.945" style="fill:none;stroke:#000;stroke-width:7.75px;"/></g><g><path d="M2507.73,291.983l128.462,0" style="fill:none;stroke:#000;stroke-width:10.33px;"/></g><g><path d="M2766.71,238.246l0,263.958" style="fill:none;stroke:#000;stroke-width:7.75px;"/></g><g><path d="M2752.08,227.4l113.396,-0" style="fill:none;stroke:#000;stroke-width:10.33px;"/><path d="M2753.16,291.983l112.317,0" style="fill:none;stroke:#000;stroke-width:10.33px;"/></g><g><path d="M2996.13,141.371l-0,328.529" style="fill:none;stroke:#000;stroke-width:7.75px;"/></g><g><path d="M2966.41,162.817l128.479,-0" style="fill:none;stroke:#000;stroke-width:10.33px;"/><path d="M2966.41,227.4l128.479,-0" style="fill:none;stroke:#000;stroke-width:10.33px;"/><path d="M2966.41,291.983l128.479,0" style="fill:none;stroke:#000;stroke-width:10.33px;"/></g><g><path d="M3225.53,141.371l-0,328.529" style="fill:none;stroke:#000;stroke-width:7.75px;"/></g><g><path d="M3195.83,162.817l128.462,-0" style="fill:none;stroke:#000;stroke-width:10.33px;"/><path d="M3195.83,227.4l128.462,-0" style="fill:none;stroke:#000;stroke-width:10.33px;"/><path d="M3195.83,291.983l128.462,0" style="fill:none;stroke:#000;stroke-width:10.33px;"/></g><g><path d="M3454.94,238.246l0,263.946" style="fill:none;stroke:#000;stroke-width:7.75px;"/></g><g><path d="M3425.23,227.4l128.475,-0" style="fill:none;stroke:#000;stroke-width:10.33px;"/><path d="M3425.23,291.983l128.475,0" style="fill:none;stroke:#000;stroke-width:10.33px;"/></g><g><path d="M3684.33,270.538l-0,263.945" style="fill:none;stroke:#000;stroke-width:7.75px;"/></g><g><path d="M3654.66,291.983l128.467,0" style="fill:none;stroke:#000;stroke-width:10.33px;"/></g><g><path d="M3913.74,335.121l0,231.654" style="fill:none;stroke:#000;stroke-width:7.75px;"/><path d="M4250.28,367.413l0,263.945" style="fill:none;stroke:#000;stroke-width:7.75px;"/><path d="M4479.7,464.288l-0,199.362" style="fill:none;stroke:#000;stroke-width:7.75px;"/><path d="M4709.12,496.579l0,199.363" style="fill:none;stroke:#000;stroke-width:7.75px;"/><path d="M4938.53,561.163l0,167.07" style="fill:none;stroke:#000;stroke-width:7.75px;"/><path d="M5236.99,404.783l0,166.98" style="fill:none;stroke:#000;stroke-width:7.75px;"/><path d="M5466.37,431.696l0,236.942" style="fill:none;stroke:#000;stroke-width:7.75px;"/></g><g><path d="M5382.7,679.483l113.396,0" style="fill:none;stroke:#000;stroke-width:10.33px;"/></g><g><path d="M5695.78,458.6l0,242.329" style="fill:none;stroke:#000;stroke-width:7.75px;"/></g><g><path d="M5597.03,679.483l128.467,0" style="fill:none;stroke:#000;stroke-width:10.33px;"/></g><g><path d="M5925.2,485.513l-0,279.999" style="fill:none;stroke:#000;stroke-width:7.75px;"/></g><g><path d="M5826.45,744.067l128.475,-0" style="fill:none;stroke:#000;stroke-width:10.33px;"/><path d="M5826.45,679.483l128.475,0" style="fill:none;stroke:#000;stroke-width:10.33px;"/><path d="M6163.2,744.067l161.525,-0" style="fill:none;stroke:#000;stroke-width:10.33px;"/><path d="M6163.2,679.483l161.525,0" style="fill:none;stroke:#000;stroke-width:10.33px;"/></g><g><path d="M385.152,256.308c-0,0 -0.263,1.042 -0.263,1.821c0,1.042 1.042,2.083 2.084,2.083c0.783,0 1.304,-0.783 1.562,-1.041c0.263,-0.784 3.388,-11.459 4.95,-14.063c0.521,-1.041 1.042,-1.304 1.3,-1.304c0.521,0 0.783,1.042 0.783,1.825l0,37.242c0,3.125 -2.604,4.946 -5.208,4.946c-1.042,-0 -2.346,0.52 -2.346,2.083c0,1.562 1.304,2.083 3.388,2.083l21.875,0c2.083,0 2.083,-2.083 2.083,-2.083c0,-0 0,-2.083 -2.083,-2.083c-1.825,-0 -4.167,-2.346 -4.167,-4.688l0,-54.167c0,-2.083 -0.783,-3.125 -2.604,-3.125c-1.825,0 -3.388,0.521 -4.95,0.521c-2.604,0 -3.125,0 -5.208,-0.521c-1.042,0 -2.342,1.563 -3.125,2.605l-8.071,27.866" style="fill-rule:nonzero;"/></g><g><path d="M643.348,268.546l-0,-27.863c-0,-1.304 -0.263,-2.346 -1.563,-2.346c-1.042,0 -1.825,0.263 -2.604,1.305l-7.813,15.104c-0.52,0.521 -1.304,1.3 -1.304,3.125l0,10.675l-16.925,-0c10.675,-8.854 27.342,-38.279 27.604,-39.842c0,-0.262 0.259,-0.521 0.259,-0.783c-0,-1.042 -1.042,-1.821 -1.821,-1.821c-1.304,0 -6.771,0.521 -9.117,0.521c-2.341,-0 -3.904,-0.521 -4.946,-0.521c-1.304,0 -3.125,0.521 -3.125,2.604c0,16.667 -13.541,35.675 -16.929,40.363c-0.521,0.52 -1.041,1.304 -1.041,2.083c-0,1.304 1.041,2.604 2.604,2.604l23.437,0l0,8.075c0,3.646 -2.083,4.688 -4.166,4.688c-2.342,-0 -3.384,1.041 -3.384,2.341c0,1.305 0.521,2.867 2.863,2.867l22.396,0c1.304,0 2.604,-1.042 2.604,-2.867c-0,-1.82 -1.563,-2.604 -2.863,-2.604c-1.304,0 -4.166,-0.779 -4.166,-4.946l-0,-7.554l9.633,0c1.304,0 2.083,-1.042 2.083,-2.604c0,-1.563 -0.521,-2.604 -2.083,-2.604l-9.633,-0" style="fill-rule:nonzero;"/></g><g><path d="M843.839,256.308c0,0 -0.262,1.042 -0.262,1.821c-0,1.042 1.041,2.083 2.083,2.083c0.783,0 1.304,-0.783 1.563,-1.041c0.262,-0.784 3.387,-11.459 4.95,-14.063c0.52,-1.041 1.041,-1.304 1.3,-1.304c0.52,0 0.783,1.042 0.783,1.825l-0,37.242c-0,3.125 -2.604,4.946 -5.208,4.946c-1.042,-0 -2.346,0.52 -2.346,2.083c-0,1.562 1.304,2.083 3.387,2.083l21.875,0c2.084,0 2.084,-2.083 2.084,-2.083c-0,-0 -0,-2.083 -2.084,-2.083c-1.825,-0 -4.166,-2.346 -4.166,-4.688l-0,-54.167c-0,-2.083 -0.784,-3.125 -2.605,-3.125c-1.825,0 -3.387,0.521 -4.95,0.521c-2.604,0 -3.125,0 -5.208,-0.521c-1.042,0 -2.342,1.563 -3.125,2.605l-8.071,27.866" style="fill-rule:nonzero;"/></g><g><path d="M1102.04,268.546l0,-27.863c0,-1.304 -0.258,-2.346 -1.562,-2.346c-1.042,0 -1.821,0.263 -2.604,1.305l-7.813,15.104c-0.521,0.521 -1.3,1.3 -1.3,3.125l0,10.675l-16.929,-0c10.679,-8.854 27.346,-38.279 27.604,-39.842c0,-0.262 0.263,-0.521 0.263,-0.783c-0,-1.042 -1.042,-1.821 -1.825,-1.821c-1.3,0 -6.771,0.521 -9.113,0.521c-2.346,-0 -3.908,-0.521 -4.95,-0.521c-1.3,0 -3.125,0.521 -3.125,2.604c0,16.667 -13.542,35.675 -16.925,40.363c-0.521,0.52 -1.042,1.304 -1.042,2.083c0,1.304 1.042,2.604 2.605,2.604l23.437,0l0,8.075c0,3.646 -2.083,4.688 -4.167,4.688c-2.345,-0 -3.387,1.041 -3.387,2.341c-0,1.305 0.521,2.867 2.867,2.867l22.395,0c1.3,0 2.605,-1.042 2.605,-2.867c-0,-1.82 -1.563,-2.604 -2.867,-2.604c-1.3,0 -4.167,-0.779 -4.167,-4.946l0,-7.554l9.638,0c1.3,0 2.083,-1.042 2.083,-2.604c0,-1.563 -0.521,-2.604 -2.083,-2.604l-9.638,-0" style="fill-rule:nonzero;"/></g><g><path d="M1302.65,256.308c-0,0 -0.259,1.042 -0.259,1.821c0,1.042 1.042,2.083 2.084,2.083c0.779,0 1.3,-0.783 1.562,-1.041c0.259,-0.784 3.384,-11.459 4.946,-14.063c0.521,-1.041 1.042,-1.304 1.304,-1.304c0.521,0 0.779,1.042 0.779,1.825l0,37.242c0,3.125 -2.604,4.946 -5.208,4.946c-1.042,-0 -2.342,0.52 -2.342,2.083c0,1.562 1.3,2.083 3.384,2.083l21.875,0c2.083,0 2.083,-2.083 2.083,-2.083c0,-0 0,-2.083 -2.083,-2.083c-1.821,-0 -4.167,-2.346 -4.167,-4.688l0,-54.167c0,-2.083 -0.779,-3.125 -2.604,-3.125c-1.821,0 -3.383,0.521 -4.946,0.521c-2.604,0 -3.125,0 -5.208,-0.521c-1.042,0 -2.346,1.563 -3.125,2.605l-8.075,27.866" style="fill-rule:nonzero;"/></g><g><path d="M1560.86,268.546l-0,-27.863c-0,-1.304 -0.263,-2.346 -1.563,-2.346c-1.041,0 -1.825,0.263 -2.604,1.305l-7.812,15.104c-0.521,0.521 -1.304,1.3 -1.304,3.125l-0,10.675l-16.925,-0c10.675,-8.854 27.341,-38.279 27.604,-39.842c-0,-0.262 0.258,-0.521 0.258,-0.783c0,-1.042 -1.042,-1.821 -1.821,-1.821c-1.304,0 -6.771,0.521 -9.116,0.521c-2.342,-0 -3.905,-0.521 -4.946,-0.521c-1.304,0 -3.125,0.521 -3.125,2.604c-0,16.667 -13.542,35.675 -16.929,40.363c-0.521,0.52 -1.042,1.304 -1.042,2.083c-0,1.304 1.042,2.604 2.604,2.604l23.438,0l-0,8.075c-0,3.646 -2.084,4.688 -4.167,4.688c-2.342,-0 -3.383,1.041 -3.383,2.341c-0,1.305 0.52,2.867 2.862,2.867l22.396,0c1.304,0 2.604,-1.042 2.604,-2.867c0,-1.82 -1.562,-2.604 -2.862,-2.604c-1.305,0 -4.167,-0.779 -4.167,-4.946l-0,-7.554l9.633,0c1.304,0 2.084,-1.042 2.084,-2.604c-0,-1.563 -0.521,-2.604 -2.084,-2.604l-9.633,-0" style="fill-rule:nonzero;"/></g><g><path d="M1761.47,256.308c0,0 -0.262,1.042 -0.262,1.821c-0,1.042 1.042,2.083 2.083,2.083c0.784,0 1.304,-0.783 1.563,-1.041c0.262,-0.784 3.387,-11.459 4.95,-14.063c0.521,-1.041 1.041,-1.304 1.3,-1.304c0.521,0 0.783,1.042 0.783,1.825l0,37.242c0,3.125 -2.604,4.946 -5.208,4.946c-1.042,-0 -2.346,0.52 -2.346,2.083c-0,1.562 1.304,2.083 3.387,2.083l21.875,0c2.084,0 2.084,-2.083 2.084,-2.083c-0,-0 -0,-2.083 -2.084,-2.083c-1.825,-0 -4.166,-2.346 -4.166,-4.688l-0,-54.167c-0,-2.083 -0.784,-3.125 -2.604,-3.125c-1.825,0 -3.388,0.521 -4.95,0.521c-2.605,0 -3.125,0 -5.209,-0.521c-1.041,0 -2.341,1.563 -3.125,2.605l-8.071,27.866" style="fill-rule:nonzero;"/></g><g><path d="M2019.67,268.487l-0,-27.862c-0,-1.304 -0.263,-2.346 -1.563,-2.346c-1.042,0 -1.825,0.263 -2.604,1.304l-7.813,15.104c-0.52,0.521 -1.304,1.3 -1.304,3.125l0,10.675l-16.925,0c10.675,-8.854 27.342,-38.279 27.604,-39.841c0,-0.263 0.259,-0.521 0.259,-0.784c-0,-1.041 -1.042,-1.82 -1.821,-1.82c-1.304,-0 -6.771,0.52 -9.117,0.52c-2.341,0 -3.904,-0.52 -4.946,-0.52c-1.304,-0 -3.125,0.52 -3.125,2.604c0,16.666 -13.541,35.675 -16.929,40.362c-0.521,0.521 -1.041,1.304 -1.041,2.084c-0,1.304 1.041,2.604 2.604,2.604l23.437,-0l0,8.075c0,3.646 -2.083,4.687 -4.166,4.687c-2.342,0 -3.384,1.042 -3.384,2.342c0,1.304 0.521,2.867 2.863,2.867l22.396,-0c1.304,-0 2.604,-1.042 2.604,-2.867c-0,-1.821 -1.563,-2.604 -2.863,-2.604c-1.304,-0 -4.166,-0.779 -4.166,-4.946l-0,-7.554l9.633,-0c1.304,-0 2.083,-1.042 2.083,-2.604c0,-1.563 -0.521,-2.605 -2.083,-2.605l-9.633,0" style="fill-rule:nonzero;"/></g><g><path d="M2327.63,223.754c-0,0 -0.263,1.042 -0.263,1.825c0,1.042 1.042,2.084 2.084,2.084c0.783,-0 1.304,-0.784 1.562,-1.042c0.263,-0.784 3.388,-11.458 4.95,-14.063c0.521,-1.041 1.042,-1.304 1.3,-1.304c0.521,0 0.783,1.042 0.783,1.825l0,37.238c0,3.125 -2.604,4.95 -5.208,4.95c-1.042,-0 -2.346,0.521 -2.346,2.083c0,1.563 1.304,2.083 3.388,2.083l21.875,0c2.083,0 2.083,-2.083 2.083,-2.083c0,0 0,-2.083 -2.083,-2.083c-1.825,-0 -4.167,-2.346 -4.167,-4.688l0,-54.167c0,-2.083 -0.783,-3.125 -2.604,-3.125c-1.825,0 -3.388,0.521 -4.95,0.521c-2.604,0 -3.125,0 -5.208,-0.52c-1.042,-0 -2.342,1.562 -3.125,2.604l-8.071,27.862" style="fill-rule:nonzero;"/></g><g><path d="M2585.82,171.613l0,-27.863c0,-1.304 -0.262,-2.346 -1.562,-2.346c-1.042,0 -1.825,0.263 -2.604,1.304l-7.813,15.105c-0.521,0.52 -1.304,1.3 -1.304,3.125l0,10.675l-16.925,-0c10.675,-8.855 27.342,-38.28 27.604,-39.842c0,-0.263 0.259,-0.521 0.259,-0.784c-0,-1.041 -1.042,-1.82 -1.821,-1.82c-1.304,-0 -6.771,0.521 -9.117,0.521c-2.342,-0 -3.904,-0.521 -4.946,-0.521c-1.304,-0 -3.125,0.521 -3.125,2.604c0,16.667 -13.541,35.675 -16.929,40.362c-0.521,0.521 -1.042,1.305 -1.042,2.084c0,1.304 1.042,2.604 2.605,2.604l23.437,-0l0,8.075c0,3.646 -2.083,4.687 -4.167,4.687c-2.341,0 -3.383,1.042 -3.383,2.342c0,1.304 0.521,2.867 2.863,2.867l22.395,-0c1.305,-0 2.605,-1.042 2.605,-2.867c-0,-1.821 -1.563,-2.604 -2.863,-2.604c-1.304,-0 -4.167,-0.779 -4.167,-4.946l0,-7.554l9.634,-0c1.304,-0 2.083,-1.042 2.083,-2.604c0,-1.563 -0.521,-2.605 -2.083,-2.605l-9.634,0" style="fill-rule:nonzero;"/></g><g><path d="M2786.31,126.879c0,0 -0.258,1.042 -0.258,1.825c-0,1.042 1.041,2.084 2.083,2.084c0.779,-0 1.3,-0.784 1.563,-1.042c0.258,-0.783 3.383,-11.458 4.945,-14.063c0.521,-1.041 1.042,-1.304 1.305,-1.304c0.52,0 0.779,1.042 0.779,1.825l-0,37.238c-0,3.125 -2.604,4.95 -5.209,4.95c-1.041,-0 -2.341,0.521 -2.341,2.083c-0,1.563 1.3,2.083 3.383,2.083l21.875,0c2.083,0 2.083,-2.083 2.083,-2.083c0,0 0,-2.083 -2.083,-2.083c-1.821,-0 -4.167,-2.346 -4.167,-4.688l0,-54.166c0,-2.084 -0.779,-3.125 -2.604,-3.125c-1.821,-0 -3.383,0.52 -4.946,0.52c-2.604,0 -3.125,0 -5.208,-0.52c-1.042,-0 -2.346,1.562 -3.125,2.604l-8.075,27.862" style="fill-rule:nonzero;"/></g><g><path d="M3044.51,42.446l0,-27.863c0,-1.304 -0.258,-2.345 -1.562,-2.345c-1.042,-0 -1.821,0.262 -2.604,1.304l-7.813,15.104c-0.521,0.521 -1.3,1.3 -1.3,3.125l0,10.675l-16.929,-0c10.679,-8.854 27.346,-38.279 27.604,-39.842c0,-0.262 0.263,-0.521 0.263,-0.783c-0,-1.042 -1.042,-1.821 -1.825,-1.821c-1.3,0 -6.771,0.521 -9.113,0.521c-2.346,-0 -3.908,-0.521 -4.95,-0.521c-1.3,0 -3.125,0.521 -3.125,2.604c0,16.667 -13.542,35.675 -16.925,40.363c-0.521,0.521 -1.042,1.304 -1.042,2.083c0,1.304 1.042,2.604 2.605,2.604l23.437,0l0,8.075c0,3.646 -2.083,4.688 -4.167,4.688c-2.345,-0 -3.387,1.041 -3.387,2.341c-0,1.305 0.521,2.867 2.867,2.867l22.395,0c1.3,0 2.605,-1.042 2.605,-2.867c-0,-1.82 -1.563,-2.604 -2.867,-2.604c-1.3,0 -4.167,-0.779 -4.167,-4.946l0,-7.554l9.638,0c1.3,0 2.083,-1.041 2.083,-2.604c0,-1.562 -0.521,-2.604 -2.083,-2.604l-9.638,-0" style="fill-rule:nonzero;"/></g><g><path d="M3273.91,42.446l0,-27.863c0,-1.304 -0.258,-2.345 -1.562,-2.345c-1.042,-0 -1.821,0.262 -2.604,1.304l-7.813,15.104c-0.521,0.521 -1.3,1.3 -1.3,3.125l0,10.675l-16.929,-0c10.679,-8.854 27.346,-38.279 27.604,-39.842c0,-0.262 0.263,-0.521 0.263,-0.783c-0,-1.042 -1.042,-1.821 -1.825,-1.821c-1.3,0 -6.771,0.521 -9.113,0.521c-2.346,-0 -3.908,-0.521 -4.95,-0.521c-1.3,0 -3.125,0.521 -3.125,2.604c0,16.667 -13.542,35.675 -16.925,40.363c-0.521,0.521 -1.042,1.304 -1.042,2.083c0,1.304 1.042,2.604 2.605,2.604l23.437,0l0,8.075c0,3.646 -2.083,4.688 -4.167,4.688c-2.345,-0 -3.387,1.041 -3.387,2.341c-0,1.305 0.521,2.867 2.867,2.867l22.395,0c1.3,0 2.605,-1.042 2.605,-2.867c-0,-1.82 -1.563,-2.604 -2.867,-2.604c-1.3,0 -4.167,-0.779 -4.167,-4.946l0,-7.554l9.638,0c1.3,0 2.083,-1.041 2.083,-2.604c0,-1.562 -0.521,-2.604 -2.083,-2.604l-9.638,-0" style="fill-rule:nonzero;"/></g><g><path d="M3474.54,126.879c0,0 -0.258,1.042 -0.258,1.825c-0,1.042 1.042,2.084 2.083,2.084c0.779,-0 1.3,-0.784 1.563,-1.042c0.258,-0.783 3.383,-11.458 4.946,-14.063c0.52,-1.041 1.041,-1.304 1.304,-1.304c0.521,0 0.779,1.042 0.779,1.825l-0,37.238c-0,3.125 -2.604,4.95 -5.208,4.95c-1.042,-0 -2.342,0.521 -2.342,2.083c-0,1.563 1.3,2.083 3.383,2.083l21.875,0c2.084,0 2.084,-2.083 2.084,-2.083c-0,0 -0,-2.083 -2.084,-2.083c-1.821,-0 -4.166,-2.346 -4.166,-4.688l-0,-54.166c-0,-2.084 -0.78,-3.125 -2.605,-3.125c-1.82,-0 -3.383,0.52 -4.945,0.52c-2.605,0 -3.125,0 -5.209,-0.52c-1.041,-0 -2.346,1.562 -3.125,2.604l-8.075,27.862" style="fill-rule:nonzero;"/></g><g><path d="M3732.74,171.613l0,-27.863c0,-1.304 -0.262,-2.346 -1.562,-2.346c-1.042,0 -1.825,0.263 -2.604,1.304l-7.813,15.105c-0.521,0.52 -1.304,1.3 -1.304,3.125l0,10.675l-16.925,-0c10.675,-8.855 27.342,-38.28 27.604,-39.842c0,-0.263 0.259,-0.521 0.259,-0.784c-0,-1.041 -1.042,-1.82 -1.821,-1.82c-1.304,-0 -6.771,0.521 -9.117,0.521c-2.342,-0 -3.904,-0.521 -4.946,-0.521c-1.304,-0 -3.125,0.521 -3.125,2.604c0,16.667 -13.541,35.675 -16.929,40.362c-0.521,0.521 -1.042,1.305 -1.042,2.084c0,1.304 1.042,2.604 2.605,2.604l23.437,-0l0,8.075c0,3.646 -2.083,4.687 -4.167,4.687c-2.341,0 -3.383,1.042 -3.383,2.342c0,1.304 0.521,2.867 2.863,2.867l22.395,-0c1.305,-0 2.605,-1.042 2.605,-2.867c-0,-1.821 -1.563,-2.604 -2.863,-2.604c-1.304,-0 -4.167,-0.779 -4.167,-4.946l0,-7.554l9.634,-0c1.304,-0 2.083,-1.042 2.083,-2.604c0,-1.563 -0.521,-2.605 -2.083,-2.605l-9.634,0" style="fill-rule:nonzero;"/></g><g><path d="M3933.37,223.754c0,0 -0.262,1.042 -0.262,1.825c-0,1.042 1.042,2.084 2.083,2.084c0.784,-0 1.304,-0.784 1.563,-1.042c0.262,-0.784 3.387,-11.458 4.95,-14.063c0.521,-1.041 1.041,-1.304 1.3,-1.304c0.521,0 0.783,1.042 0.783,1.825l0,37.238c0,3.125 -2.604,4.95 -5.208,4.95c-1.042,-0 -2.346,0.521 -2.346,2.083c-0,1.563 1.304,2.083 3.387,2.083l21.875,0c2.084,0 2.084,-2.083 2.084,-2.083c-0,0 -0,-2.083 -2.084,-2.083c-1.825,-0 -4.166,-2.346 -4.166,-4.688l-0,-54.167c-0,-2.083 -0.784,-3.125 -2.604,-3.125c-1.825,0 -3.388,0.521 -4.95,0.521c-2.605,0 -3.125,0 -5.209,-0.52c-1.041,-0 -2.341,1.562 -3.125,2.604l-8.071,27.862" style="fill-rule:nonzero;"/></g><g><path d="M4298.66,268.487l0,-27.862c0,-1.304 -0.258,-2.346 -1.562,-2.346c-1.042,0 -1.821,0.263 -2.605,1.304l-7.812,15.104c-0.521,0.521 -1.3,1.3 -1.3,3.125l-0,10.675l-16.929,0c10.679,-8.854 27.346,-38.279 27.604,-39.841c-0,-0.263 0.262,-0.521 0.262,-0.784c0,-1.041 -1.041,-1.82 -1.825,-1.82c-1.3,-0 -6.77,0.52 -9.112,0.52c-2.346,0 -3.908,-0.52 -4.95,-0.52c-1.3,-0 -3.125,0.52 -3.125,2.604c-0,16.666 -13.542,35.675 -16.925,40.362c-0.521,0.521 -1.042,1.304 -1.042,2.084c0,1.304 1.042,2.604 2.604,2.604l23.438,-0l-0,8.075c-0,3.646 -2.083,4.687 -4.167,4.687c-2.346,0 -3.387,1.042 -3.387,2.342c-0,1.304 0.521,2.867 2.866,2.867l22.396,-0c1.3,-0 2.604,-1.042 2.604,-2.867c0,-1.821 -1.562,-2.604 -2.866,-2.604c-1.3,-0 -4.167,-0.779 -4.167,-4.946l0,-7.554l9.638,-0c1.3,-0 2.083,-1.042 2.083,-2.604c-0,-1.563 -0.521,-2.605 -2.083,-2.605l-9.638,0" style="fill-rule:nonzero;"/></g><g><path d="M4499.33,256.308c-0,0 -0.259,1.042 -0.259,1.821c0,1.042 1.042,2.083 2.084,2.083c0.779,0 1.3,-0.783 1.562,-1.041c0.259,-0.784 3.384,-11.459 4.946,-14.063c0.521,-1.041 1.042,-1.304 1.304,-1.304c0.521,0 0.779,1.042 0.779,1.825l0,37.242c0,3.125 -2.604,4.946 -5.208,4.946c-1.042,-0 -2.342,0.52 -2.342,2.083c0,1.562 1.3,2.083 3.384,2.083l21.875,0c2.083,0 2.083,-2.083 2.083,-2.083c0,-0 0,-2.083 -2.083,-2.083c-1.821,-0 -4.167,-2.346 -4.167,-4.688l0,-54.167c0,-2.083 -0.779,-3.125 -2.604,-3.125c-1.821,0 -3.383,0.521 -4.946,0.521c-2.604,0 -3.125,0 -5.208,-0.521c-1.042,0 -2.346,1.563 -3.125,2.605l-8.075,27.866" style="fill-rule:nonzero;"/></g><g><path d="M4757.49,268.546l0,-27.863c0,-1.304 -0.262,-2.346 -1.562,-2.346c-1.042,0 -1.825,0.263 -2.604,1.305l-7.813,15.104c-0.521,0.521 -1.304,1.3 -1.304,3.125l0,10.675l-16.925,-0c10.675,-8.854 27.342,-38.279 27.604,-39.842c0,-0.262 0.259,-0.521 0.259,-0.783c-0,-1.042 -1.042,-1.821 -1.821,-1.821c-1.304,0 -6.771,0.521 -9.117,0.521c-2.342,-0 -3.904,-0.521 -4.946,-0.521c-1.304,0 -3.125,0.521 -3.125,2.604c0,16.667 -13.541,35.675 -16.929,40.363c-0.521,0.52 -1.042,1.304 -1.042,2.083c0,1.304 1.042,2.604 2.605,2.604l23.437,0l0,8.075c0,3.646 -2.083,4.688 -4.167,4.688c-2.341,-0 -3.383,1.041 -3.383,2.341c0,1.305 0.521,2.867 2.863,2.867l22.395,0c1.305,0 2.605,-1.042 2.605,-2.867c-0,-1.82 -1.563,-2.604 -2.863,-2.604c-1.304,0 -4.167,-0.779 -4.167,-4.946l0,-7.554l9.634,0c1.304,0 2.083,-1.042 2.083,-2.604c0,-1.563 -0.521,-2.604 -2.083,-2.604l-9.634,-0" style="fill-rule:nonzero;"/></g><g><path d="M4958.12,256.308c0,0 -0.262,1.042 -0.262,1.821c-0,1.042 1.042,2.083 2.083,2.083c0.784,0 1.304,-0.783 1.563,-1.041c0.262,-0.784 3.387,-11.459 4.95,-14.063c0.521,-1.041 1.041,-1.304 1.3,-1.304c0.521,0 0.783,1.042 0.783,1.825l0,37.242c0,3.125 -2.604,4.946 -5.208,4.946c-1.042,-0 -2.346,0.52 -2.346,2.083c-0,1.562 1.304,2.083 3.387,2.083l21.875,0c2.084,0 2.084,-2.083 2.084,-2.083c-0,-0 -0,-2.083 -2.084,-2.083c-1.825,-0 -4.166,-2.346 -4.166,-4.688l-0,-54.167c-0,-2.083 -0.784,-3.125 -2.604,-3.125c-1.825,0 -3.388,0.521 -4.95,0.521c-2.605,0 -3.125,0 -5.209,-0.521c-1.041,0 -2.341,1.563 -3.125,2.605l-8.071,27.866" style="fill-rule:nonzero;"/></g><g><path d="M5216.33,268.546l-0,-27.863c-0,-1.304 -0.259,-2.346 -1.563,-2.346c-1.041,0 -1.821,0.263 -2.604,1.305l-7.812,15.104c-0.521,0.521 -1.3,1.3 -1.3,3.125l-0,10.675l-16.93,-0c10.68,-8.854 27.346,-38.279 27.605,-39.842c-0,-0.262 0.262,-0.521 0.262,-0.783c0,-1.042 -1.042,-1.821 -1.825,-1.821c-1.3,0 -6.771,0.521 -9.112,0.521c-2.346,-0 -3.909,-0.521 -4.95,-0.521c-1.3,0 -3.125,0.521 -3.125,2.604c-0,16.667 -13.542,35.675 -16.925,40.363c-0.521,0.52 -1.042,1.304 -1.042,2.083c-0,1.304 1.042,2.604 2.604,2.604l23.438,0l-0,8.075c-0,3.646 -2.084,4.688 -4.167,4.688c-2.346,-0 -3.388,1.041 -3.388,2.341c0,1.305 0.521,2.867 2.867,2.867l22.396,0c1.3,0 2.604,-1.042 2.604,-2.867c0,-1.82 -1.562,-2.604 -2.867,-2.604c-1.3,0 -4.166,-0.779 -4.166,-4.946l-0,-7.554l9.637,0c1.3,0 2.084,-1.042 2.084,-2.604c-0,-1.563 -0.521,-2.604 -2.084,-2.604l-9.637,-0" style="fill-rule:nonzero;"/></g><g><path d="M5416.95,256.308c-0,0 -0.259,1.042 -0.259,1.821c0,1.042 1.042,2.083 2.084,2.083c0.779,0 1.3,-0.783 1.562,-1.041c0.259,-0.784 3.384,-11.459 4.946,-14.063c0.521,-1.041 1.042,-1.304 1.304,-1.304c0.521,0 0.779,1.042 0.779,1.825l0,37.242c0,3.125 -2.604,4.946 -5.208,4.946c-1.042,-0 -2.342,0.52 -2.342,2.083c0,1.562 1.3,2.083 3.384,2.083l21.875,0c2.083,0 2.083,-2.083 2.083,-2.083c0,-0 0,-2.083 -2.083,-2.083c-1.821,-0 -4.167,-2.346 -4.167,-4.688l0,-54.167c0,-2.083 -0.779,-3.125 -2.604,-3.125c-1.821,0 -3.383,0.521 -4.946,0.521c-2.604,0 -3.125,0 -5.208,-0.521c-1.042,0 -2.346,1.563 -3.125,2.605l-8.075,27.866" style="fill-rule:nonzero;"/></g><g><path d="M5675.16,268.546l0,-27.863c0,-1.304 -0.258,-2.346 -1.562,-2.346c-1.042,0 -1.821,0.263 -2.605,1.305l-7.812,15.104c-0.521,0.521 -1.3,1.3 -1.3,3.125l-0,10.675l-16.929,-0c10.679,-8.854 27.346,-38.279 27.604,-39.842c-0,-0.262 0.262,-0.521 0.262,-0.783c0,-1.042 -1.041,-1.821 -1.825,-1.821c-1.3,0 -6.77,0.521 -9.112,0.521c-2.346,-0 -3.908,-0.521 -4.95,-0.521c-1.3,0 -3.125,0.521 -3.125,2.604c-0,16.667 -13.542,35.675 -16.925,40.363c-0.521,0.52 -1.042,1.304 -1.042,2.083c0,1.304 1.042,2.604 2.604,2.604l23.438,0l-0,8.075c-0,3.646 -2.083,4.688 -4.167,4.688c-2.346,-0 -3.387,1.041 -3.387,2.341c-0,1.305 0.521,2.867 2.866,2.867l22.396,0c1.3,0 2.604,-1.042 2.604,-2.867c0,-1.82 -1.562,-2.604 -2.866,-2.604c-1.3,0 -4.167,-0.779 -4.167,-4.946l0,-7.554l9.638,0c1.3,0 2.083,-1.042 2.083,-2.604c-0,-1.563 -0.521,-2.604 -2.083,-2.604l-9.638,-0" style="fill-rule:nonzero;"/></g><g><path d="M5875.74,256.308c0,0 -0.262,1.042 -0.262,1.821c-0,1.042 1.042,2.083 2.083,2.083c0.784,0 1.304,-0.783 1.563,-1.041c0.262,-0.784 3.387,-11.459 4.95,-14.063c0.521,-1.041 1.041,-1.304 1.3,-1.304c0.521,0 0.783,1.042 0.783,1.825l0,37.242c0,3.125 -2.604,4.946 -5.208,4.946c-1.042,-0 -2.346,0.52 -2.346,2.083c-0,1.562 1.304,2.083 3.387,2.083l21.875,0c2.084,0 2.084,-2.083 2.084,-2.083c-0,-0 -0,-2.083 -2.084,-2.083c-1.825,-0 -4.166,-2.346 -4.166,-4.688l-0,-54.167c-0,-2.083 -0.784,-3.125 -2.604,-3.125c-1.825,0 -3.388,0.521 -4.95,0.521c-2.605,0 -3.125,0 -5.209,-0.521c-1.041,0 -2.341,1.563 -3.125,2.605l-8.071,27.866" style="fill-rule:nonzero;"/></g><g><path d="M6229.03,256.308c0,0 -0.258,1.042 -0.258,1.821c-0,1.042 1.041,2.083 2.083,2.083c0.779,0 1.3,-0.783 1.563,-1.041c0.258,-0.784 3.383,-11.459 4.945,-14.063c0.521,-1.041 1.042,-1.304 1.305,-1.304c0.52,0 0.779,1.042 0.779,1.825l-0,37.242c-0,3.125 -2.604,4.946 -5.209,4.946c-1.041,-0 -2.341,0.52 -2.341,2.083c-0,1.562 1.3,2.083 3.383,2.083l21.875,0c2.083,0 2.083,-2.083 2.083,-2.083c0,-0 0,-2.083 -2.083,-2.083c-1.821,-0 -4.167,-2.346 -4.167,-4.688l0,-54.167c0,-2.083 -0.779,-3.125 -2.604,-3.125c-1.821,0 -3.383,0.521 -4.946,0.521c-2.604,0 -3.125,0 -5.208,-0.521c-1.042,0 -2.346,1.563 -3.125,2.605l-8.075,27.866" style="fill-rule:nonzero;"/></g><g><path d="M400.098,833.304c34.116,0 61.979,27.604 61.979,61.717c-0,34.116 -27.863,61.979 -61.979,61.979c-34.113,0 -61.98,-27.863 -61.98,-61.979c0,-34.113 27.867,-61.717 61.98,-61.717m18.75,80.208c-0,11.717 -7.813,19.53 -18.488,19.53c-10.679,-0 -18.75,-8.334 -18.75,-20.05c0,-11.459 7.813,-19.013 19.271,-19.013c10.937,0 17.967,7.292 17.967,19.534m11.72,-0.784c0,-17.187 -11.72,-28.904 -28.387,-28.904c-9.113,0 -16.146,3.646 -21.092,10.417c0,-22.659 7.292,-35.159 20.571,-35.159c8.075,0 13.542,5.209 15.367,14.063l11.458,-0c-2.083,-15.104 -11.979,-24.217 -26.042,-24.217c-21.616,0 -33.075,18.229 -33.075,50.258c0,28.909 9.896,44.013 30.992,44.013c17.446,-0 30.208,-12.5 30.208,-30.471m-30.47,52.604c38.804,0 70.312,-31.508 70.312,-70.312c0,-38.8 -31.508,-70.05 -70.312,-70.05c-38.8,-0 -70.313,31.25 -70.313,70.05c0,38.804 31.513,70.312 70.313,70.312" style="fill-rule:nonzero;"/></g><g><path d="M858.785,794.413c34.117,-0 61.979,27.604 61.979,61.72c0,34.113 -27.862,61.98 -61.979,61.98c-34.112,-0 -61.979,-27.867 -61.979,-61.98c-0,-34.116 27.867,-61.72 61.979,-61.72m30.208,78.387c0,-18.229 -12.237,-30.208 -29.945,-30.208c-6.513,-0 -11.721,1.562 -16.93,5.466l3.646,-23.695l38.284,-0l-0,-11.459l-47.659,0l-6.771,48.438l10.417,-0c5.471,-6.513 9.896,-8.596 16.929,-8.596c12.5,-0 20.313,7.812 20.313,21.617c-0,13.279 -7.813,20.833 -20.313,20.833c-9.896,-0 -16.146,-5.208 -18.75,-15.625l-11.458,-0c3.646,18.487 14.062,25.779 30.467,25.779c18.75,0 31.77,-13.021 31.77,-32.55m-30.208,53.646c38.804,-0 70.313,-31.513 70.313,-70.313c-0,-38.804 -31.509,-70.054 -70.313,-70.054c-38.8,0 -70.312,31.25 -70.312,70.054c-0,38.8 31.512,70.313 70.312,70.313" style="fill-rule:nonzero;"/></g><g><path d="M1291.88,849.363l28.904,-40.363l0,40.363l-28.904,-0m25.779,-75.521c34.117,-0 61.979,27.604 61.979,61.721c0,34.112 -27.862,61.979 -61.979,61.979c-34.112,-0 -61.979,-27.867 -61.979,-61.98c0,-34.116 27.867,-61.72 61.979,-61.72m28.125,75.52l-13.541,0l-0,-59.895l-8.592,-0l-41.929,58.075l-0,12.237l39.062,0l0,22.138l11.459,-0l-0,-22.138l13.541,0l0,-10.417m-28.125,56.513c38.804,0 70.313,-31.513 70.313,-70.313c-0,-38.804 -31.509,-70.054 -70.313,-70.054c-38.8,0 -70.312,31.25 -70.312,70.054c-0,38.8 31.512,70.313 70.312,70.313" style="fill-rule:nonzero;"/></g><g><path d="M1776.41,709.354c34.117,0 61.979,27.604 61.979,61.721c0,34.112 -27.862,61.979 -61.979,61.979c-34.112,0 -61.979,-27.867 -61.979,-61.979c0,-34.117 27.867,-61.721 61.979,-61.721m0,132.033c38.804,0 70.313,-31.512 70.313,-70.312c-0,-38.804 -31.509,-70.054 -70.313,-70.054c-38.8,-0 -70.312,31.25 -70.312,70.054c-0,38.8 31.512,70.312 70.312,70.312m30.992,-51.304c-0,-11.196 -4.688,-17.708 -15.625,-21.612c8.592,-3.388 12.758,-9.375 12.758,-18.492c0,-15.883 -10.416,-25.521 -28.125,-25.521c-18.487,0 -28.383,10.159 -28.904,29.95l11.458,0c0.259,-13.804 5.988,-19.791 17.709,-19.791c10.154,-0 16.146,5.987 16.146,15.625c-0,9.895 -4.167,14.062 -22.659,14.062l0,9.633l6.25,0c12.763,0 19.271,5.992 19.271,16.146c0,11.721 -7.292,18.492 -19.271,18.492c-12.5,-0 -18.487,-6.25 -19.271,-19.533l-11.458,-0c1.304,20.575 11.458,29.687 30.471,29.687c19.008,0 31.25,-11.196 31.25,-28.646" style="fill-rule:nonzero;"/></g><g><path d="M2342.57,639.292c34.116,-0 61.979,27.604 61.979,61.721c-0,34.112 -27.863,61.979 -61.979,61.979c-34.113,-0 -61.98,-27.867 -61.98,-61.98c0,-34.116 27.867,-61.72 61.98,-61.72m-0,132.033c38.804,0 70.312,-31.512 70.312,-70.313c0,-38.804 -31.508,-70.054 -70.312,-70.054c-38.8,0 -70.313,31.25 -70.313,70.054c0,38.801 31.513,70.313 70.313,70.313m30.991,-93.229c0,-15.625 -11.979,-27.083 -29.429,-27.083c-19.008,-0 -29.946,9.633 -30.467,32.029l11.459,-0c0.779,-15.363 7.291,-21.875 18.487,-21.875c10.417,-0 18.229,7.291 18.229,17.187c0,7.292 -4.166,13.542 -12.5,18.229l-11.979,6.771c-19.271,10.938 -24.737,19.792 -25.779,40.104l61.458,0l0,-11.458l-48.7,0c1.305,-7.55 5.471,-12.238 16.667,-19.008l13.021,-7.034c13.021,-6.77 19.533,-16.404 19.533,-27.862" style="fill-rule:nonzero;"/></g><g><path d="M2801.26,639.292c34.113,-0 61.979,27.604 61.979,61.721c0,34.112 -27.866,61.979 -61.979,61.979c-34.117,-0 -61.979,-27.867 -61.979,-61.98c-0,-34.116 27.862,-61.72 61.979,-61.72m7.813,17.971l-7.555,-0c-3.904,14.32 -6.508,16.145 -24.216,18.487l-0,8.075l20.312,0l0,65.883l11.459,0l-0,-92.446m-7.813,114.063c38.8,0 70.313,-31.512 70.313,-70.313c-0,-38.804 -31.513,-70.054 -70.313,-70.054c-38.804,0 -70.312,31.25 -70.312,70.054c-0,38.801 31.508,70.313 70.312,70.313" style="fill-rule:nonzero;"/></g><g><path d="M3718.87,639.292c34.117,-0 61.98,27.604 61.98,61.721c-0,34.112 -27.863,61.979 -61.98,61.979c-34.112,-0 -61.979,-27.867 -61.979,-61.98c0,-34.116 27.867,-61.72 61.979,-61.72m0,132.033c38.805,0 70.313,-31.512 70.313,-70.313c-0,-38.804 -31.508,-70.054 -70.313,-70.054c-38.8,0 -70.312,31.25 -70.312,70.054c-0,38.801 31.512,70.313 70.312,70.313m30.992,-93.229c0,-15.625 -11.979,-27.083 -29.429,-27.083c-19.013,-0 -29.95,9.633 -30.471,32.029l11.458,-0c0.784,-15.363 7.292,-21.875 18.492,-21.875c10.417,-0 18.229,7.291 18.229,17.187c0,7.292 -4.166,13.542 -12.5,18.229l-11.979,6.771c-19.271,10.938 -24.737,19.792 -25.779,40.104l61.458,0l0,-11.458l-48.7,0c1.304,-7.55 5.471,-12.238 16.667,-19.008l13.021,-7.034c13.021,-6.77 19.533,-16.404 19.533,-27.862" style="fill-rule:nonzero;"/></g><g><path d="M4284.87,687.029c34.117,0 61.98,27.604 61.98,61.717c-0,34.117 -27.863,61.979 -61.98,61.979c-34.112,0 -61.979,-27.862 -61.979,-61.979c0,-34.113 27.867,-61.717 61.979,-61.717m0,132.029c38.805,0 70.313,-31.508 70.313,-70.312c-0,-38.8 -31.508,-70.05 -70.313,-70.05c-38.8,-0 -70.312,31.25 -70.312,70.05c-0,38.804 31.512,70.312 70.312,70.312m30.992,-51.3c0,-11.2 -4.687,-17.708 -15.625,-21.616c8.592,-3.384 12.758,-9.375 12.758,-18.488c0,-15.887 -10.416,-25.521 -28.125,-25.521c-18.487,0 -28.383,10.155 -28.904,29.946l11.459,0c0.258,-13.8 5.987,-19.791 17.708,-19.791c10.154,-0 16.146,5.991 16.146,15.625c-0,9.895 -4.167,14.062 -22.659,14.062l0,9.638l6.25,-0c12.763,-0 19.271,5.987 19.271,16.145c0,11.717 -7.291,18.488 -19.271,18.488c-12.5,-0 -18.487,-6.25 -19.27,-19.529l-11.459,-0c1.304,20.571 11.459,29.687 30.471,29.687c19.008,0 31.25,-11.2 31.25,-28.646" style="fill-rule:nonzero;"/></g><g><path d="M4717.95,826.413l28.904,-40.363l-0,40.363l-28.904,-0m25.779,-75.521c34.117,-0 61.979,27.604 61.979,61.72c0,34.113 -27.862,61.98 -61.979,61.98c-34.113,-0 -61.979,-27.867 -61.979,-61.98c-0,-34.116 27.866,-61.72 61.979,-61.72m28.125,75.52l-13.542,0l0,-59.895l-8.591,-0l-41.93,58.075l0,12.237l39.063,0l-0,22.138l11.458,-0l0,-22.138l13.542,0l-0,-10.417m-28.125,56.513c38.804,-0 70.312,-31.513 70.312,-70.313c0,-38.804 -31.508,-70.054 -70.312,-70.054c-38.8,0 -70.313,31.25 -70.313,70.054c0,38.8 31.513,70.313 70.313,70.313" style="fill-rule:nonzero;"/></g><g><path d="M5202.49,639.554c34.113,0 61.98,27.604 61.98,61.717c-0,34.117 -27.867,61.979 -61.98,61.979c-34.116,0 -61.979,-27.862 -61.979,-61.979c0,-34.113 27.863,-61.717 61.979,-61.717m30.209,78.384c-0,-18.23 -12.242,-30.209 -29.95,-30.209c-6.509,0 -11.717,1.563 -16.925,5.471l3.646,-23.7l38.279,0l-0,-11.458l-47.654,-0l-6.771,48.437l10.416,0c5.467,-6.508 9.896,-8.591 16.925,-8.591c12.5,-0 20.313,7.812 20.313,21.612c-0,13.283 -7.813,20.833 -20.313,20.833c-9.895,0 -16.145,-5.208 -18.75,-15.625l-11.458,0c3.646,18.492 14.063,25.784 30.471,25.784c18.75,-0 31.771,-13.021 31.771,-32.554m-30.209,53.645c38.8,0 70.313,-31.508 70.313,-70.312c-0,-38.8 -31.513,-70.05 -70.313,-70.05c-38.804,-0 -70.312,31.25 -70.312,70.05c-0,38.804 31.508,70.312 70.312,70.312" style="fill-rule:nonzero;"/></g><g><path d="M5661.28,768.721c34.117,-0 61.979,27.604 61.979,61.716c0,34.117 -27.862,61.98 -61.979,61.98c-34.112,-0 -61.979,-27.863 -61.979,-61.98c-0,-34.112 27.867,-61.716 61.979,-61.716m18.75,80.208c0,11.717 -7.812,19.529 -18.487,19.529c-10.68,0 -18.75,-8.333 -18.75,-20.05c-0,-11.458 7.812,-19.012 19.27,-19.012c10.938,-0 17.967,7.291 17.967,19.533m11.721,-0.783c-0,-17.188 -11.721,-28.904 -28.388,-28.904c-9.112,-0 -16.145,3.645 -21.091,10.416c-0,-22.658 7.291,-35.158 20.571,-35.158c8.075,-0 13.541,5.208 15.366,14.062l11.459,0c-2.084,-15.104 -11.98,-24.216 -26.042,-24.216c-21.617,-0 -33.075,18.229 -33.075,50.258c-0,28.908 9.896,44.013 30.992,44.013c17.445,-0 30.208,-12.5 30.208,-30.471m-30.471,52.604c38.804,-0 70.313,-31.508 70.313,-70.313c-0,-38.8 -31.509,-70.05 -70.313,-70.05c-38.8,0 -70.312,31.25 -70.312,70.05c-0,38.805 31.512,70.313 70.312,70.313" style="fill-rule:nonzero;"/></g><g><path d="M386.939,808.913c23.175,-0 51.563,-21.355 51.563,-43.492c-0,-13.279 -10.417,-21.613 -25.263,-21.613c-28.646,0 -51.562,21.092 -51.562,43.488c-0,13.541 11.2,21.616 25.262,21.616" style="fill-rule:nonzero;"/></g><g><path d="M616.343,744.329c23.18,0 51.563,-21.354 51.563,-43.491c-0,-13.28 -10.417,-21.613 -25.258,-21.613c-28.646,-0 -51.563,21.092 -51.563,43.487c0,13.542 11.196,21.617 25.258,21.617" style="fill-rule:nonzero;"/></g><g><path d="M783.173,691.204c-1.563,5.208 -13.805,10.417 -19.792,10.417c-1.563,-0 -2.867,-0.521 -3.125,-1.304c-0.521,-1.042 -0.783,-6.771 -0.783,-13.021c-0,-8.071 0.262,-17.188 0.783,-19.271c0.521,-4.425 12.5,-9.896 19.008,-9.896c1.825,0 3.388,0.521 3.909,1.563c0.52,1.304 1.041,7.812 1.041,14.845c0,7.03 -0.521,14.321 -1.041,16.667m17.966,-42.45c1.825,-0.779 3.125,-2.862 3.125,-4.425l0,-18.492c0,-1.3 -0.779,-2.083 -1.821,-2.083c-0.52,0 -0.783,0 -1.304,0.263c0,-0 -5.208,2.083 -6.508,2.341c-1.825,0 -3.646,-1.3 -3.646,-3.383l0,-31.771c0,-1.562 -1.562,-2.867 -3.646,-2.867c-2.604,0 -4.166,1.305 -4.166,2.867l-0,33.854c-0.263,2.604 -1.042,5.988 -3.388,7.55c-3.125,1.825 -11.979,5.471 -16.404,6.513c-2.346,-0 -3.125,-3.125 -3.125,-5.209l-0,-31.25c-0,-1.562 -1.825,-2.866 -3.646,-2.866c-2.604,-0 -4.167,1.304 -4.167,2.866l0,35.155c0,3.645 -1.562,6.25 -3.125,7.033c-1.562,0.779 -6.77,2.862 -6.77,2.862c-1.825,0.521 -3.125,2.605 -3.125,4.167l-0,18.492c-0,1.562 0.779,2.341 2.083,2.341c1.042,0 5.987,-2.341 6.771,-2.862c0.258,-0 0.521,-0.263 0.779,-0.263c1.825,0 3.387,2.605 3.387,4.688l0,25.783c0,2.863 -1.304,5.209 -2.866,5.988c-1.563,0.521 -7.029,2.866 -7.029,2.866c-1.825,0.521 -3.125,2.605 -3.125,4.167l-0,18.488c-0,1.562 0.779,2.345 2.083,2.345c0.258,0 0.779,-0.262 1.042,-0.262c-0,-0 3.645,-1.563 5.987,-2.342c0.263,-0.262 0.521,-0.262 0.783,-0.262c1.821,-0 3.125,2.866 3.125,4.166l0,32.034c0,1.562 1.563,2.862 3.384,2.862c2.604,0 4.429,-1.3 4.429,-2.862l-0,-36.2c-0,-3.384 1.3,-5.209 2.604,-5.729l15.883,-6.509c0.263,0 0.784,-0.262 1.042,-0.262c2.083,-0 3.388,3.125 3.388,4.687l-0,32.554c-0,1.563 1.562,2.863 3.383,2.863c2.867,-0 4.429,-1.3 4.429,-2.863l0,-36.979c0,-2.083 1.042,-5.208 2.863,-5.991c1.825,-0.78 7.291,-2.863 7.291,-2.863c1.825,-0.783 3.125,-2.867 3.125,-4.429l0,-18.488c0,-1.304 -0.779,-2.083 -1.821,-2.083c-0.52,0 -0.783,0 -1.304,0.258l-6.771,2.605c-1.562,-0 -3.383,-1.563 -3.383,-4.688l0,-24.217c0,-1.825 1.3,-6.77 3.383,-7.554l6.771,-2.604" style="fill-rule:nonzero;"/></g><g><path d="M845.623,712.038c23.175,-0 51.562,-21.355 51.562,-43.492c0,-13.279 -10.417,-21.613 -25.262,-21.613c-28.646,0 -51.563,21.092 -51.563,43.488c0,13.542 11.2,21.616 25.263,21.616" style="fill-rule:nonzero;"/></g><g><path d="M1075.04,615.163c23.179,-0 51.563,-21.355 51.563,-43.492c-0,-13.279 -10.417,-21.613 -25.259,-21.613c-28.646,0 -51.562,21.092 -51.562,43.488c-0,13.542 11.196,21.616 25.258,21.616" style="fill-rule:nonzero;"/></g><g><path d="M1304.43,582.871c23.179,-0 51.563,-21.354 51.563,-43.492c-0,-13.283 -10.417,-21.616 -25.259,-21.616c-28.646,-0 -51.562,21.095 -51.562,43.491c-0,13.542 11.196,21.617 25.258,21.617" style="fill-rule:nonzero;"/></g><g><path d="M1533.85,518.288c23.175,-0 51.562,-21.355 51.562,-43.492c0,-13.283 -10.416,-21.617 -25.262,-21.617c-28.646,0 -51.563,21.096 -51.563,43.492c0,13.542 11.2,21.617 25.263,21.617" style="fill-rule:nonzero;"/></g><g><path d="M1700.8,465.163c-1.563,5.208 -13.8,10.416 -19.792,10.416c-1.562,0 -2.862,-0.521 -3.125,-1.304c-0.521,-1.042 -0.779,-6.771 -0.779,-13.021c-0,-8.075 0.258,-17.187 0.779,-19.271c0.521,-4.429 12.5,-9.896 19.013,-9.896c1.82,0 3.383,0.521 3.904,1.563c0.521,1.304 1.041,7.813 1.041,14.846c0,7.029 -0.52,14.321 -1.041,16.667m17.971,-42.451c1.82,-0.783 3.125,-2.866 3.125,-4.429l-0,-18.487c-0,-1.304 -0.784,-2.084 -1.825,-2.084c-0.521,0 -0.78,0 -1.3,0.263c-0,0 -5.209,2.083 -6.513,2.342c-1.821,-0 -3.646,-1.304 -3.646,-3.388l0,-31.771c0,-1.562 -1.562,-2.862 -3.646,-2.862c-2.604,-0 -4.166,1.304 -4.166,2.867l-0,33.854c-0.259,2.604 -1.042,5.987 -3.384,7.55c-3.125,1.825 -11.979,5.471 -16.408,6.512c-2.342,0 -3.125,-3.125 -3.125,-5.208l0,-31.25c0,-1.563 -1.821,-2.867 -3.646,-2.867c-2.604,0 -4.166,1.304 -4.166,2.867l-0,35.154c-0,3.646 -1.563,6.25 -3.125,7.033c-1.563,0.78 -6.771,2.863 -6.771,2.863c-1.821,0.521 -3.125,2.604 -3.125,4.167l-0,18.491c-0,1.563 0.783,2.342 2.083,2.342c1.042,-0 5.992,-2.346 6.771,-2.867c0.262,0 0.521,-0.258 0.783,-0.258c1.821,-0 3.384,2.604 3.384,4.687l-0,25.784c-0,2.862 -1.3,5.208 -2.863,5.987c-1.562,0.521 -7.033,2.867 -7.033,2.867c-1.821,0.521 -3.125,2.604 -3.125,4.167l-0,18.487c-0,1.563 0.783,2.346 2.083,2.346c0.263,-0 0.783,-0.263 1.042,-0.263c-0,0 3.646,-1.562 5.991,-2.345c0.259,-0.259 0.521,-0.259 0.78,-0.259c1.825,0 3.125,2.867 3.125,4.167l-0,32.033c-0,1.563 1.562,2.863 3.387,2.863c2.604,-0 4.425,-1.3 4.425,-2.863l0,-36.2c0,-3.383 1.304,-5.208 2.604,-5.729l15.888,-6.508c0.258,-0 0.779,-0.263 1.041,-0.263c2.084,0 3.384,3.125 3.384,4.688l-0,32.554c-0,1.562 1.562,2.862 3.387,2.862c2.863,0 4.425,-1.3 4.425,-2.862l0,-36.979c0,-2.084 1.042,-5.209 2.867,-5.992c1.821,-0.783 7.292,-2.867 7.292,-2.867c1.82,-0.779 3.125,-2.862 3.125,-4.425l-0,-18.491c-0,-1.3 -0.784,-2.084 -1.825,-2.084c-0.521,0 -0.78,0 -1.3,0.263l-6.771,2.604c-1.563,0 -3.388,-1.562 -3.388,-4.687l0,-24.221c0,-1.821 1.304,-6.771 3.388,-7.55l6.771,-2.604" style="fill-rule:nonzero;"/></g><g><path d="M1763.26,485.996c23.179,-0 51.563,-21.354 51.563,-43.492c-0,-13.283 -10.417,-21.616 -25.263,-21.616c-28.646,-0 -51.562,21.095 -51.562,43.491c-0,13.542 11.2,21.617 25.262,21.617" style="fill-rule:nonzero;"/></g><g><path d="M1992.66,389.121c23.179,-0 51.563,-21.354 51.563,-43.492c-0,-13.283 -10.417,-21.616 -25.259,-21.616c-28.645,-0 -51.562,21.095 -51.562,43.491c-0,13.542 11.196,21.617 25.258,21.617" style="fill-rule:nonzero;"/></g><g><path d="M2329.41,356.829c23.179,0 51.563,-21.354 51.563,-43.492c-0,-13.283 -10.417,-21.616 -25.259,-21.616c-28.646,-0 -51.562,21.096 -51.562,43.491c-0,13.542 11.196,21.617 25.258,21.617" style="fill-rule:nonzero;"/></g><g><path d="M2558.82,292.246c23.179,-0 51.562,-21.354 51.562,-43.492c0,-13.279 -10.417,-21.612 -25.258,-21.612c-28.646,-0 -51.563,21.091 -51.563,43.487c0,13.542 11.196,21.617 25.259,21.617" style="fill-rule:nonzero;"/></g><g><path d="M2725.65,239.121c-1.563,5.208 -13.805,10.417 -19.792,10.417c-1.563,-0 -2.867,-0.521 -3.125,-1.305c-0.521,-1.041 -0.783,-6.771 -0.783,-13.021c-0,-8.074 0.262,-17.187 0.783,-19.27c0.521,-4.429 12.5,-9.896 19.008,-9.896c1.825,-0 3.388,0.521 3.909,1.562c0.52,1.305 1.041,7.813 1.041,14.846c0,7.029 -0.521,14.321 -1.041,16.663m17.966,-42.446c1.825,-0.783 3.125,-2.867 3.125,-4.429l0,-18.488c0,-1.304 -0.779,-2.083 -1.821,-2.083c-0.52,-0 -0.783,-0 -1.304,0.258c0,0 -5.208,2.084 -6.508,2.346c-1.825,0 -3.646,-1.304 -3.646,-3.387l0,-31.771c0,-1.563 -1.562,-2.863 -3.646,-2.863c-2.604,0 -4.166,1.3 -4.166,2.863l-0,33.854c-0.263,2.604 -1.042,5.992 -3.388,7.554c-3.125,1.821 -11.979,5.467 -16.404,6.508c-2.346,0 -3.125,-3.125 -3.125,-5.208l-0,-31.25c-0,-1.562 -1.825,-2.862 -3.646,-2.862c-2.604,-0 -4.167,1.3 -4.167,2.862l0,35.158c0,3.646 -1.562,6.25 -3.125,7.03c-1.562,0.783 -6.77,2.866 -6.77,2.866c-1.825,0.521 -3.125,2.604 -3.125,4.167l-0,18.487c-0,1.563 0.779,2.346 2.083,2.346c1.042,0 5.987,-2.346 6.771,-2.866c0.258,-0 0.521,-0.259 0.779,-0.259c1.825,0 3.387,2.604 3.387,4.688l0,25.779c0,2.866 -1.304,5.208 -2.866,5.991c-1.563,0.521 -7.029,2.867 -7.029,2.867c-1.825,0.521 -3.125,2.604 -3.125,4.167l-0,18.487c-0,1.563 0.779,2.346 2.083,2.346c0.258,0 0.779,-0.262 1.042,-0.262c-0,-0 3.645,-1.563 5.987,-2.346c0.263,-0.259 0.521,-0.259 0.783,-0.259c1.821,0 3.125,2.867 3.125,4.167l0,32.034c0,1.562 1.563,2.862 3.384,2.862c2.604,0 4.429,-1.304 4.429,-2.867l-0,-36.195c-0,-3.388 1.3,-5.209 2.604,-5.73l15.883,-6.512c0.263,-0 0.784,-0.258 1.042,-0.258c2.083,-0 3.388,3.125 3.388,4.687l-0,32.554c-0,1.563 1.562,2.863 3.383,2.863c2.867,-0 4.429,-1.304 4.429,-2.867l0,-36.979c0,-2.083 1.042,-5.208 2.863,-5.988c1.825,-0.783 7.291,-2.866 7.291,-2.866c1.825,-0.779 3.125,-2.863 3.125,-4.425l0,-18.492c0,-1.3 -0.779,-2.079 -1.821,-2.079c-0.52,-0.004 -0.783,-0.004 -1.304,0.258l-6.771,2.604c-1.562,0 -3.383,-1.562 -3.383,-4.687l0,-24.221c0,-1.821 1.3,-6.767 3.383,-7.55l6.771,-2.604" style="fill-rule:nonzero;"/></g><g><path d="M2788.11,259.954c23.175,0 51.563,-21.354 51.563,-43.492c-0,-13.279 -10.417,-21.612 -25.263,-21.612c-28.646,-0 -51.562,21.092 -51.562,43.487c-0,13.542 11.2,21.617 25.262,21.617" style="fill-rule:nonzero;"/></g><g><path d="M3017.51,163.079c23.175,0 51.563,-21.354 51.563,-43.491c-0,-13.28 -10.417,-21.613 -25.263,-21.613c-28.646,0 -51.562,21.092 -51.562,43.488c-0,13.541 11.2,21.616 25.262,21.616" style="fill-rule:nonzero;"/></g><g><path d="M3246.92,163.079c23.179,0 51.562,-21.354 51.562,-43.491c0,-13.28 -10.417,-21.613 -25.258,-21.613c-28.646,0 -51.563,21.092 -51.563,43.488c0,13.541 11.196,21.616 25.259,21.616" style="fill-rule:nonzero;"/></g><g><path d="M3476.32,259.954c23.179,0 51.562,-21.354 51.562,-43.492c0,-13.279 -10.417,-21.612 -25.258,-21.612c-28.646,-0 -51.563,21.092 -51.563,43.487c0,13.542 11.196,21.617 25.259,21.617" style="fill-rule:nonzero;"/></g><g><path d="M3705.74,292.246c23.175,-0 51.563,-21.354 51.563,-43.492c-0,-13.279 -10.417,-21.612 -25.263,-21.612c-28.645,-0 -51.562,21.091 -51.562,43.487c-0,13.542 11.2,21.617 25.262,21.617" style="fill-rule:nonzero;"/></g><g><path d="M3935.12,356.829c23.18,0 51.563,-21.354 51.563,-43.492c-0,-13.283 -10.417,-21.616 -25.258,-21.616c-28.646,-0 -51.563,21.096 -51.563,43.491c0,13.542 11.196,21.617 25.258,21.617" style="fill-rule:nonzero;"/></g><g><path d="M4271.7,389.121c23.175,-0 51.562,-21.354 51.562,-43.492c0,-13.283 -10.416,-21.616 -25.262,-21.616c-28.646,-0 -51.563,21.095 -51.563,43.491c0,13.542 11.2,21.617 25.263,21.617" style="fill-rule:nonzero;"/></g><g><path d="M4438.66,465.163c-1.562,5.208 -13.804,10.416 -19.792,10.416c-1.562,0 -2.866,-0.521 -3.125,-1.304c-0.52,-1.042 -0.783,-6.771 -0.783,-13.021c0,-8.075 0.263,-17.187 0.783,-19.271c0.521,-4.429 12.5,-9.896 19.009,-9.896c1.825,0 3.387,0.521 3.908,1.563c0.521,1.304 1.042,7.813 1.042,14.846c-0,7.029 -0.521,14.321 -1.042,16.667m17.967,-42.451c1.825,-0.783 3.125,-2.866 3.125,-4.429l-0,-18.487c-0,-1.304 -0.779,-2.084 -1.821,-2.084c-0.521,0 -0.783,0 -1.304,0.263c-0,0 -5.209,2.083 -6.509,2.342c-1.825,-0 -3.645,-1.304 -3.645,-3.388l-0,-31.771c-0,-1.562 -1.563,-2.862 -3.646,-2.862c-2.604,-0 -4.167,1.304 -4.167,2.867l0,33.854c-0.262,2.604 -1.042,5.987 -3.387,7.55c-3.125,1.825 -11.98,5.471 -16.405,6.512c-2.345,0 -3.125,-3.125 -3.125,-5.208l0,-31.25c0,-1.563 -1.825,-2.867 -3.645,-2.867c-2.605,0 -4.167,1.304 -4.167,2.867l-0,35.154c-0,3.646 -1.563,6.25 -3.125,7.033c-1.563,0.78 -6.771,2.863 -6.771,2.863c-1.825,0.521 -3.125,2.604 -3.125,4.167l0,18.491c0,1.563 0.779,2.342 2.083,2.342c1.042,-0 5.988,-2.346 6.771,-2.867c0.259,0 0.521,-0.258 0.779,-0.258c1.825,-0 3.388,2.604 3.388,4.687l-0,25.784c-0,2.862 -1.304,5.208 -2.867,5.987c-1.562,0.521 -7.029,2.867 -7.029,2.867c-1.825,0.521 -3.125,2.604 -3.125,4.167l0,18.487c0,1.563 0.779,2.346 2.083,2.346c0.259,-0 0.78,-0.263 1.042,-0.263c0,0 3.646,-1.562 5.988,-2.345c0.262,-0.259 0.52,-0.259 0.783,-0.259c1.821,0 3.125,2.867 3.125,4.167l-0,32.033c-0,1.563 1.562,2.863 3.383,2.863c2.604,-0 4.429,-1.3 4.429,-2.863l0,-36.2c0,-3.383 1.3,-5.208 2.605,-5.729l15.883,-6.508c0.262,-0 0.783,-0.263 1.042,-0.263c2.083,0 3.387,3.125 3.387,4.688l0,32.554c0,1.562 1.563,2.862 3.383,2.862c2.867,0 4.43,-1.3 4.43,-2.862l-0,-36.979c-0,-2.084 1.041,-5.209 2.862,-5.992c1.825,-0.783 7.292,-2.867 7.292,-2.867c1.825,-0.779 3.125,-2.862 3.125,-4.425l-0,-18.491c-0,-1.3 -0.779,-2.084 -1.821,-2.084c-0.521,0 -0.783,0 -1.304,0.263l-6.771,2.604c-1.563,0 -3.383,-1.562 -3.383,-4.687l-0,-24.221c-0,-1.821 1.3,-6.771 3.383,-7.55l6.771,-2.604" style="fill-rule:nonzero;"/></g><g><path d="M4501.08,485.996c23.179,-0 51.562,-21.354 51.562,-43.492c0,-13.283 -10.416,-21.616 -25.258,-21.616c-28.646,-0 -51.563,21.095 -51.563,43.491c0,13.542 11.196,21.617 25.259,21.617" style="fill-rule:nonzero;"/></g><g><path d="M4730.49,518.288c23.175,-0 51.563,-21.355 51.563,-43.492c-0,-13.283 -10.417,-21.617 -25.263,-21.617c-28.645,0 -51.562,21.096 -51.562,43.492c-0,13.542 11.2,21.617 25.262,21.617" style="fill-rule:nonzero;"/></g><g><path d="M4959.91,582.871c23.175,-0 51.563,-21.354 51.563,-43.492c-0,-13.283 -10.417,-21.616 -25.263,-21.616c-28.646,-0 -51.562,21.095 -51.562,43.491c-0,13.542 11.2,21.617 25.262,21.617" style="fill-rule:nonzero;"/></g><g><path d="M5189.33,615.163c23.179,-0 51.562,-21.355 51.562,-43.492c0,-13.279 -10.416,-21.613 -25.258,-21.613c-28.646,0 -51.563,21.092 -51.563,43.488c0,13.542 11.196,21.616 25.259,21.616" style="fill-rule:nonzero;"/></g><g><path d="M5356.28,691.204c-1.562,5.208 -13.804,10.417 -19.792,10.417c-1.562,-0 -2.866,-0.521 -3.125,-1.304c-0.52,-1.042 -0.783,-6.771 -0.783,-13.021c0,-8.071 0.263,-17.188 0.783,-19.271c0.521,-4.425 12.5,-9.896 19.009,-9.896c1.825,0 3.387,0.521 3.908,1.563c0.521,1.304 1.042,7.812 1.042,14.845c-0,7.03 -0.521,14.321 -1.042,16.667m17.967,-42.45c1.825,-0.779 3.125,-2.862 3.125,-4.425l-0,-18.492c-0,-1.3 -0.779,-2.083 -1.821,-2.083c-0.521,0 -0.783,0 -1.304,0.263c-0,-0 -5.209,2.083 -6.509,2.341c-1.825,0 -3.645,-1.3 -3.645,-3.383l-0,-31.771c-0,-1.562 -1.563,-2.867 -3.646,-2.867c-2.604,0 -4.167,1.305 -4.167,2.867l0,33.854c-0.262,2.604 -1.042,5.988 -3.387,7.55c-3.125,1.825 -11.98,5.471 -16.405,6.513c-2.345,-0 -3.125,-3.125 -3.125,-5.209l0,-31.25c0,-1.562 -1.825,-2.866 -3.645,-2.866c-2.605,-0 -4.167,1.304 -4.167,2.866l-0,35.155c-0,3.645 -1.563,6.25 -3.125,7.033c-1.563,0.779 -6.771,2.862 -6.771,2.862c-1.825,0.521 -3.125,2.605 -3.125,4.167l0,18.492c0,1.562 0.779,2.341 2.083,2.341c1.042,0 5.988,-2.341 6.771,-2.862c0.259,-0 0.521,-0.263 0.779,-0.263c1.825,0 3.388,2.605 3.388,4.688l-0,25.783c-0,2.863 -1.304,5.209 -2.867,5.988c-1.562,0.521 -7.029,2.866 -7.029,2.866c-1.825,0.521 -3.125,2.605 -3.125,4.167l0,18.488c0,1.562 0.779,2.345 2.083,2.345c0.259,0 0.78,-0.262 1.042,-0.262c0,-0 3.646,-1.563 5.988,-2.342c0.262,-0.262 0.52,-0.262 0.783,-0.262c1.821,-0 3.125,2.866 3.125,4.166l-0,32.034c-0,1.562 1.562,2.862 3.383,2.862c2.604,0 4.429,-1.3 4.429,-2.862l0,-36.2c0,-3.384 1.3,-5.209 2.605,-5.729l15.883,-6.509c0.262,0 0.783,-0.262 1.042,-0.262c2.083,-0 3.387,3.125 3.387,4.687l0,32.554c0,1.563 1.563,2.863 3.383,2.863c2.867,-0 4.43,-1.3 4.43,-2.863l-0,-36.979c-0,-2.083 1.041,-5.208 2.862,-5.991c1.825,-0.78 7.292,-2.863 7.292,-2.863c1.825,-0.783 3.125,-2.867 3.125,-4.429l-0,-18.488c-0,-1.304 -0.779,-2.083 -1.821,-2.083c-0.521,0 -0.783,0 -1.304,0.258l-6.771,2.605c-1.563,-0 -3.383,-1.563 -3.383,-4.688l-0,-24.217c-0,-1.825 1.3,-6.77 3.383,-7.554l6.771,-2.604" style="fill-rule:nonzero;"/></g><g><path d="M5418.7,712.038c23.179,-0 51.562,-21.355 51.562,-43.492c0,-13.279 -10.416,-21.613 -25.258,-21.613c-28.646,0 -51.563,21.092 -51.563,43.488c0,13.542 11.196,21.616 25.259,21.616" style="fill-rule:nonzero;"/></g><g><path d="M5648.12,744.329c23.175,0 51.563,-21.354 51.563,-43.491c-0,-13.28 -10.417,-21.613 -25.263,-21.613c-28.645,-0 -51.562,21.092 -51.562,43.487c-0,13.542 11.2,21.617 25.262,21.617" style="fill-rule:nonzero;"/></g><g><path d="M5877.53,808.913c23.179,-0 51.563,-21.355 51.563,-43.492c-0,-13.279 -10.417,-21.613 -25.259,-21.613c-28.646,0 -51.562,21.092 -51.562,43.488c-0,13.541 11.196,21.616 25.258,21.616" style="fill-rule:nonzero;"/></g><g><path d="M6217.95,759.954c2.862,-9.117 12.5,-10.417 20.571,-10.417c17.97,0 32.291,19.271 32.291,34.896c0,8.071 -3.383,15.363 -11.979,17.446c-2.604,0.784 -5.467,1.042 -8.071,1.042c-9.375,-0 -19.012,-6.25 -24.479,-13.542c-5.208,-5.987 -9.117,-14.841 -9.117,-23.175c0,-2.083 0.263,-4.167 0.784,-6.25m27.341,-16.146c-34.633,0 -56.25,14.321 -56.25,32.029c0,17.45 14.846,33.075 53.646,33.075c42.709,0 56.25,-14.845 56.25,-33.075c0,-18.487 -29.425,-32.029 -53.646,-32.029" style="fill-rule:nonzero;"/></g><g><path d="M135.714,482.087c0.779,4.951 0.779,4.688 -3.908,6.25c-22.917,7.813 -37.763,28.388 -37.763,50.521c0,23.438 12.242,40.105 29.95,46.096c2.084,0.779 5.209,1.563 7.03,1.563c2.083,-0 3.125,-1.304 3.125,-2.867c-0,-1.821 -2.084,-2.604 -3.905,-3.383c-10.937,-4.688 -18.75,-15.888 -18.75,-27.867c0,-14.842 10.155,-26.042 26.042,-30.467c4.167,-1.041 4.688,-0.783 5.208,2.084l13.021,77.604c0.521,2.862 0.259,2.862 -3.646,3.646c-4.166,0.779 -9.375,1.3 -14.583,1.3c-45.575,-0 -75,-25.259 -75,-61.459c0,-15.362 2.604,-35.937 24.217,-60.416c15.625,-17.446 27.604,-27.084 39.846,-36.979c2.604,-2.084 3.125,-1.821 3.645,1.041l5.467,33.334m28.388,-177.342c8.591,-0 15.625,7.029 15.625,21.354c-0,28.904 -24.742,52.342 -45.313,70.313c-1.825,1.562 -2.867,1.3 -3.387,-2.084c-1.042,-6.771 -1.563,-15.625 -1.563,-23.958c0,-40.625 18.75,-65.625 34.638,-65.625m-10.417,218.75c-0.521,-3.125 -0.263,-3.908 2.862,-3.646c21.096,1.821 38.542,19.529 38.542,42.446c0,16.408 -9.896,29.687 -24.479,36.979c-3.125,1.563 -3.646,1.563 -4.167,-1.562l-12.758,-74.217m-14.063,-81.25c-0.52,-3.125 0,-3.388 1.563,-4.95c28.125,-26.3 49.479,-59.375 49.479,-99.217c0,-22.658 -6.25,-45.054 -16.929,-60.679c-3.904,-5.729 -10.675,-13.021 -13.542,-13.021c-3.646,0 -11.716,6.771 -16.925,12.5c-19.271,21.354 -25.521,53.909 -25.521,80.992c0,15.104 1.821,32.029 3.646,42.708c0.521,3.125 0.779,3.646 -2.346,6.25c-37.5,30.988 -77.341,68.229 -77.341,120.834c-0,45.312 30.987,88.279 94.791,88.279c5.988,-0 12.759,-0.521 17.967,-1.563c2.867,-0.521 3.388,-0.779 3.908,2.346c3.125,17.446 7.03,40.104 7.03,52.342c-0,38.541 -26.042,43.229 -41.405,43.229c-14.062,-0 -20.833,-4.167 -20.833,-7.55c0,-1.825 2.342,-2.604 8.333,-4.429c8.071,-2.342 17.446,-9.375 17.446,-24.48c0,-14.32 -9.112,-26.562 -25,-26.562c-17.446,0 -27.862,13.804 -27.862,29.95c-0,16.925 10.154,42.446 49.479,42.446c17.446,-0 51.3,-7.813 51.3,-52.084c-0,-14.841 -4.688,-39.583 -7.55,-55.729c-0.521,-3.125 -0.263,-2.862 3.383,-4.425c26.304,-10.416 43.75,-32.554 43.75,-61.979c0,-33.333 -24.479,-62.762 -62.758,-62.762c-6.771,-0 -6.771,-0 -7.554,-4.688l-6.509,-37.758" style="fill-rule:nonzero;"/></g><g><path d="M430.731,501.879l-0,-32.512l695.842,-80.729l-0,32.512l-695.842,80.729" style="fill-rule:nonzero;"/></g><g><path d="M1279.18,744.379l-0,-32.604l695.975,-96.875l-0,32.604l-695.975,96.875" style="fill-rule:nonzero;"/></g><g><path d="M2304.15,582.921l-0,-32.604l695.846,-96.875l-0,32.604l-695.846,96.875" style="fill-rule:nonzero;"/></g><g><path d="M3221.66,486.046l0,-32.604l695.963,96.875l-0,32.604l-695.963,-96.875" style="fill-rule:nonzero;"/></g><g><path d="M4246.41,647.504l0,-32.604l695.979,96.875l0,32.604l-695.979,-96.875" style="fill-rule:nonzero;"/></g><g><path d="M5233.12,421.15l0,-32.512l695.975,80.729l0,32.512l-695.975,-80.729" style="fill-rule:nonzero;"/></g></g></svg>