<?xml version="1.0" encoding="UTF-8" standalone="no"?><!DOCTYPE svg PUBLIC "-//W3C//DTD SVG 1.1//EN" "http://www.w3.org/Graphics/SVG/1.1/DTD/svg11.dtd"><svg width="100%" height="100%" viewBox="0 0 6894 1746" version="1.1" xmlns="http://www.w3.org/2000/svg" xmlns:xlink="http://www.w3.org/1999/xlink" xml:space="preserve" xmlns:serif="http://www.serif.com/" style="fill-rule:evenodd;clip-rule:evenodd;stroke-miterlimit:2;"><g><g><path d="M9.364,453.442l6875,-0" style="fill:none;stroke:#000;stroke-width:8.38px;"/><path d="M9.364,388.858l6875,0" style="fill:none;stroke:#000;stroke-width:8.38px;"/><path d="M9.364,582.608l6875,0" style="fill:none;stroke:#000;stroke-width:8.38px;"/><path d="M9.364,518.025l6875,0" style="fill:none;stroke:#000;stroke-width:8.38px;"/><path d="M9.364,647.192l6875,-0" style="fill:none;stroke:#000;stroke-width:8.38px;"/></g><g><path d="M3569.38,384.667l0,266.716" style="fill:none;stroke:#000;stroke-width:10.33px;"/><path d="M6879.15,384.667l0,266.716" style="fill:none;stroke:#000;stroke-width:10.33px;"/></g><g><path d="M434.493,534.146l-0,263.658" style="fill:none;stroke:#000;stroke-width:7.75px;"/></g><g><path d="M335.793,776.358l128.516,0" style="fill:none;stroke:#000;stroke-width:10.33px;"/><path d="M335.793,711.775l128.516,0" style="fill:none;stroke:#000;stroke-width:10.33px;"/></g><g><path d="M636.314,528.742l-0,236.771" style="fill:none;stroke:#000;stroke-width:7.75px;"/></g><g><path d="M552.722,776.358l113.279,0" style="fill:none;stroke:#000;stroke-width:10.33px;"/><path d="M537.618,711.775l128.383,0" style="fill:none;stroke:#000;stroke-width:10.33px;"/></g><g><path d="M838.139,523.338l-0,209.883" style="fill:none;stroke:#000;stroke-width:7.75px;"/></g><g><path d="M755.584,711.775l112.242,0" style="fill:none;stroke:#000;stroke-width:10.33px;"/></g><g><path d="M1037.48,518l0,215.221" style="fill:none;stroke:#000;stroke-width:7.75px;"/></g><g><path d="M954.934,711.775l112.238,0" style="fill:none;stroke:#000;stroke-width:10.33px;"/></g><g><path d="M1245.3,468.858l-0,232.071" style="fill:none;stroke:#000;stroke-width:7.75px;"/></g><g><path d="M1161.58,711.775l113.408,0" style="fill:none;stroke:#000;stroke-width:10.33px;"/></g><g><path d="M1444.65,441.946l-0,226.692" style="fill:none;stroke:#000;stroke-width:7.75px;"/><path d="M1644,415.029l-0,221.317" style="fill:none;stroke:#000;stroke-width:7.75px;"/><path d="M1843.35,388.129l-0,215.925" style="fill:none;stroke:#000;stroke-width:7.75px;"/><path d="M1973.68,593.454l0,183.021" style="fill:none;stroke:#000;stroke-width:7.75px;"/><path d="M2172.9,561.163l0,204.545" style="fill:none;stroke:#000;stroke-width:7.75px;"/><path d="M2372.25,528.871l0,226.079" style="fill:none;stroke:#000;stroke-width:7.75px;"/><path d="M2571.47,528.871l-0,215.312" style="fill:none;stroke:#000;stroke-width:7.75px;"/><path d="M2770.69,496.579l-0,199.517" style="fill:none;stroke:#000;stroke-width:7.75px;"/><path d="M2970.04,464.288l-0,210.287" style="fill:none;stroke:#000;stroke-width:7.75px;"/><path d="M3169.38,431.996l0,221.042" style="fill:none;stroke:#000;stroke-width:7.75px;"/><path d="M3368.73,399.704l0,231.809" style="fill:none;stroke:#000;stroke-width:7.75px;"/><path d="M3675.36,367.413l0,215.662" style="fill:none;stroke:#000;stroke-width:7.75px;"/><path d="M3874.73,335.125l0,226.521" style="fill:none;stroke:#000;stroke-width:7.75px;"/></g><g><path d="M3860.03,324.275l113.413,-0" style="fill:none;stroke:#000;stroke-width:10.33px;"/></g><g><path d="M4076.4,302.833l0,237.105" style="fill:none;stroke:#000;stroke-width:7.75px;"/></g><g><path d="M4062.86,324.275l112.367,-0" style="fill:none;stroke:#000;stroke-width:10.33px;"/></g><g><path d="M4275.78,302.833l0,215.659" style="fill:none;stroke:#000;stroke-width:7.75px;"/></g><g><path d="M4262.23,324.275l112.371,-0" style="fill:none;stroke:#000;stroke-width:10.33px;"/></g><g><path d="M4483.57,270.542l-0,247.508" style="fill:none;stroke:#000;stroke-width:7.75px;"/></g><g><path d="M4468.98,259.692l113.413,-0" style="fill:none;stroke:#000;stroke-width:10.33px;"/><path d="M4470.03,324.275l112.371,-0" style="fill:none;stroke:#000;stroke-width:10.33px;"/></g><g><path d="M4682.94,238.25l-0,274.425" style="fill:none;stroke:#000;stroke-width:7.75px;"/></g><g><path d="M4653.23,259.692l128.517,-0" style="fill:none;stroke:#000;stroke-width:10.33px;"/><path d="M4653.23,324.275l128.517,-0" style="fill:none;stroke:#000;stroke-width:10.33px;"/></g><g><path d="M4882.28,205.958l0,301.338" style="fill:none;stroke:#000;stroke-width:7.75px;"/></g><g><path d="M4852.57,195.108l128.383,0" style="fill:none;stroke:#000;stroke-width:10.33px;"/><path d="M4852.57,259.692l128.383,-0" style="fill:none;stroke:#000;stroke-width:10.33px;"/><path d="M4852.57,324.275l128.383,-0" style="fill:none;stroke:#000;stroke-width:10.33px;"/></g><g><path d="M5081.61,173.667l0,328.237" style="fill:none;stroke:#000;stroke-width:7.75px;"/></g><g><path d="M5051.82,195.108l128.516,0" style="fill:none;stroke:#000;stroke-width:10.33px;"/><path d="M5051.82,259.692l128.516,-0" style="fill:none;stroke:#000;stroke-width:10.33px;"/><path d="M5051.82,324.275l128.516,-0" style="fill:none;stroke:#000;stroke-width:10.33px;"/></g><g><path d="M5280.86,141.375l0,360.529" style="fill:none;stroke:#000;stroke-width:7.75px;"/></g><g><path d="M5251.15,130.525l128.517,0" style="fill:none;stroke:#000;stroke-width:10.33px;"/><path d="M5251.15,195.108l128.517,0" style="fill:none;stroke:#000;stroke-width:10.33px;"/><path d="M5251.15,259.692l128.517,-0" style="fill:none;stroke:#000;stroke-width:10.33px;"/><path d="M5251.15,324.275l128.517,-0" style="fill:none;stroke:#000;stroke-width:10.33px;"/></g><g><path d="M5480.19,173.667l-0,333.629" style="fill:none;stroke:#000;stroke-width:7.75px;"/></g><g><path d="M5450.48,195.108l128.513,0" style="fill:none;stroke:#000;stroke-width:10.33px;"/><path d="M5450.48,259.692l128.513,-0" style="fill:none;stroke:#000;stroke-width:10.33px;"/><path d="M5450.48,324.275l128.513,-0" style="fill:none;stroke:#000;stroke-width:10.33px;"/></g><g><path d="M5679.53,205.958l0,306.717" style="fill:none;stroke:#000;stroke-width:7.75px;"/></g><g><path d="M5649.86,195.108l128.517,0" style="fill:none;stroke:#000;stroke-width:10.33px;"/><path d="M5649.86,259.692l128.517,-0" style="fill:none;stroke:#000;stroke-width:10.33px;"/><path d="M5649.86,324.275l128.517,-0" style="fill:none;stroke:#000;stroke-width:10.33px;"/></g><g><path d="M5878.9,238.25l0,279.8" style="fill:none;stroke:#000;stroke-width:7.75px;"/></g><g><path d="M5849.19,259.692l128.387,-0" style="fill:none;stroke:#000;stroke-width:10.33px;"/><path d="M5849.19,324.275l128.387,-0" style="fill:none;stroke:#000;stroke-width:10.33px;"/></g><g><path d="M6078.23,270.542l0,231.362" style="fill:none;stroke:#000;stroke-width:7.75px;"/></g><g><path d="M6048.4,259.692l128.513,-0" style="fill:none;stroke:#000;stroke-width:10.33px;"/><path d="M6048.4,324.275l128.513,-0" style="fill:none;stroke:#000;stroke-width:10.33px;"/></g><g><path d="M6277.44,302.833l-0,204.438" style="fill:none;stroke:#000;stroke-width:7.75px;"/></g><g><path d="M6247.78,324.275l128.517,-0" style="fill:none;stroke:#000;stroke-width:10.33px;"/></g><g><path d="M6479.28,302.833l0,209.867" style="fill:none;stroke:#000;stroke-width:7.75px;"/></g><g><path d="M6465.73,324.275l112.367,-0" style="fill:none;stroke:#000;stroke-width:10.33px;"/></g><g><path d="M6678.61,335.125l0,182.925" style="fill:none;stroke:#000;stroke-width:7.75px;"/></g><g><path d="M6648.94,324.275l128.387,-0" style="fill:none;stroke:#000;stroke-width:10.33px;"/></g><g><path d="M385.101,288.596c0,-0 -0.258,1.042 -0.258,1.825c-0,1.041 1.041,2.083 2.083,2.083c0.779,0 1.3,-0.783 1.563,-1.042c0.258,-0.783 3.383,-11.458 4.945,-14.062c0.521,-1.042 1.042,-1.304 1.305,-1.304c0.52,-0 0.779,1.041 0.779,1.825l-0,37.237c-0,3.125 -2.604,4.95 -5.209,4.95c-1.041,0 -2.341,0.521 -2.341,2.084c-0,1.562 1.3,2.083 3.383,2.083l21.875,-0c2.083,-0 2.083,-2.083 2.083,-2.083c0,-0 0,-2.084 -2.083,-2.084c-1.821,0 -4.167,-2.346 -4.167,-4.687l0,-54.167c0,-2.083 -0.779,-3.125 -2.604,-3.125c-1.821,0 -3.383,0.521 -4.946,0.521c-2.604,-0 -3.125,-0 -5.208,-0.521c-1.042,0 -2.346,1.563 -3.125,2.604l-8.075,27.863" style="fill-rule:nonzero;"/></g><g><path d="M627.634,303.442c0,-1.825 -0.783,-2.084 -1.562,-2.084c-1.042,0 -1.563,0.78 -1.825,1.563c-1.3,3.646 -4.167,8.333 -8.071,8.333c-0.521,0 -1.042,0 -1.562,-0.262l-3.909,-1.3c-2.604,-1.042 -8.854,-3.125 -14.062,-3.125c-1.821,-0 -3.384,0.258 -4.946,0.779c2.862,-4.946 16.404,-11.458 19.271,-12.238c9.375,-1.304 17.187,-6.771 17.187,-16.929c0,-6.25 -2.604,-10.416 -5.991,-13.541c-6.771,-5.467 -16.667,-6.25 -19.53,-6.25c-9.375,-0 -16.929,0.52 -23.7,8.333c-1.82,2.083 -2.604,4.167 -2.604,6.25c0,1.825 0.784,3.908 1.563,6.25c1.562,3.125 4.95,5.471 8.596,5.471c6.508,-0 7.291,-6.25 7.291,-9.117c0,-5.988 -6.512,-6.508 -6.512,-9.113c-0,-1.824 2.604,-4.949 10.416,-4.949c12.242,-0 16.409,10.158 16.409,13.283c-0,4.687 -1.563,9.112 -4.167,12.758c-4.687,5.992 -13.283,8.075 -19.792,12.242c-7.291,4.425 -12.241,11.979 -14.583,20.312c0,1.821 0.779,3.905 2.342,4.688c0.262,0.258 0.783,0.258 1.041,0.258c2.867,0 4.43,-8.071 12.242,-8.071c5.208,0 7.029,7.03 18.75,7.03c5.467,-0 15.625,-0.521 17.708,-20.571" style="fill-rule:nonzero;"/></g><g><path d="M817.484,300.838l0,-27.867c0,-1.3 -0.258,-2.342 -1.562,-2.342c-1.042,0 -1.821,0.259 -2.604,1.3l-7.813,15.104c-0.521,0.521 -1.3,1.304 -1.3,3.125l0,10.679l-16.929,0c10.679,-8.854 27.346,-38.283 27.604,-39.845c0,-0.259 0.263,-0.521 0.263,-0.779c-0,-1.042 -1.042,-1.825 -1.825,-1.825c-1.3,-0 -6.771,0.52 -9.113,0.52c-2.346,0 -3.908,-0.52 -4.95,-0.52c-1.3,-0 -3.125,0.52 -3.125,2.604c0,16.666 -13.541,35.679 -16.925,40.366c-0.521,0.521 -1.041,1.3 -1.041,2.084c-0,1.3 1.041,2.604 2.604,2.604l23.437,-0l0,8.071c0,3.646 -2.083,4.687 -4.166,4.687c-2.346,0 -3.388,1.042 -3.388,2.346c0,1.3 0.521,2.863 2.867,2.863l22.396,-0c1.3,-0 2.604,-1.042 2.604,-2.863c-0,-1.825 -1.563,-2.604 -2.867,-2.604c-1.3,-0 -4.167,-0.783 -4.167,-4.95l0,-7.55l9.638,-0c1.3,-0 2.083,-1.042 2.083,-2.604c0,-1.563 -0.521,-2.605 -2.083,-2.605l-9.638,0" style="fill-rule:nonzero;"/></g><g><path d="M1016.82,300.838l-0,-27.867c-0,-1.3 -0.263,-2.342 -1.563,-2.342c-1.041,0 -1.825,0.259 -2.604,1.3l-7.812,15.104c-0.521,0.521 -1.304,1.304 -1.304,3.125l-0,10.679l-16.925,0c10.675,-8.854 27.341,-38.283 27.604,-39.845c-0,-0.259 0.258,-0.521 0.258,-0.779c0,-1.042 -1.042,-1.825 -1.821,-1.825c-1.304,-0 -6.771,0.52 -9.116,0.52c-2.342,0 -3.905,-0.52 -4.946,-0.52c-1.304,-0 -3.125,0.52 -3.125,2.604c-0,16.666 -13.542,35.679 -16.929,40.366c-0.521,0.521 -1.042,1.3 -1.042,2.084c-0,1.3 1.042,2.604 2.604,2.604l23.438,-0l-0,8.071c-0,3.646 -2.084,4.687 -4.167,4.687c-2.342,0 -3.383,1.042 -3.383,2.346c-0,1.3 0.52,2.863 2.862,2.863l22.396,-0c1.304,-0 2.604,-1.042 2.604,-2.863c0,-1.825 -1.562,-2.604 -2.862,-2.604c-1.305,-0 -4.167,-0.783 -4.167,-4.95l-0,-7.55l9.633,-0c1.304,-0 2.084,-1.042 2.084,-2.604c-0,-1.563 -0.521,-2.605 -2.084,-2.605l-9.633,0" style="fill-rule:nonzero;"/></g><g><path d="M1195.83,288.596c0,-0 -0.258,1.042 -0.258,1.825c-0,1.041 1.042,2.083 2.083,2.083c0.779,0 1.3,-0.783 1.563,-1.042c0.258,-0.783 3.383,-11.458 4.946,-14.062c0.52,-1.042 1.041,-1.304 1.304,-1.304c0.521,-0 0.779,1.041 0.779,1.825l-0,37.237c-0,3.125 -2.604,4.95 -5.208,4.95c-1.042,0 -2.342,0.521 -2.342,2.084c-0,1.562 1.3,2.083 3.383,2.083l21.875,-0c2.084,-0 2.084,-2.083 2.084,-2.083c-0,-0 -0,-2.084 -2.084,-2.084c-1.821,0 -4.166,-2.346 -4.166,-4.687l-0,-54.167c-0,-2.083 -0.78,-3.125 -2.605,-3.125c-1.82,0 -3.383,0.521 -4.945,0.521c-2.605,-0 -3.125,-0 -5.209,-0.521c-1.041,0 -2.346,1.563 -3.125,2.604l-8.075,27.863" style="fill-rule:nonzero;"/></g><g><path d="M1435.92,303.442c-0,-1.825 -0.779,-2.084 -1.563,-2.084c-1.041,0 -1.562,0.78 -1.82,1.563c-1.305,3.646 -4.167,8.333 -8.075,8.333c-0.521,0 -1.042,0 -1.563,-0.262l-3.904,-1.3c-2.604,-1.042 -8.854,-3.125 -14.063,-3.125c-1.825,-0 -3.387,0.258 -4.95,0.779c2.867,-4.946 16.409,-11.458 19.271,-12.238c9.375,-1.304 17.188,-6.771 17.188,-16.929c-0,-6.25 -2.604,-10.416 -5.988,-13.541c-6.771,-5.467 -16.666,-6.25 -19.533,-6.25c-9.375,-0 -16.925,0.52 -23.696,8.333c-1.825,2.083 -2.604,4.167 -2.604,6.25c-0,1.825 0.779,3.908 1.562,6.25c1.563,3.125 4.946,5.471 8.592,5.471c6.513,-0 7.292,-6.25 7.292,-9.117c-0,-5.988 -6.509,-6.508 -6.509,-9.113c0,-1.824 2.605,-4.949 10.417,-4.949c12.238,-0 16.404,10.158 16.404,13.283c0,4.687 -1.562,9.112 -4.166,12.758c-4.688,5.992 -13.28,8.075 -19.792,12.242c-7.292,4.425 -12.238,11.979 -14.583,20.312c-0,1.821 0.783,3.905 2.345,4.688c0.259,0.258 0.78,0.258 1.042,0.258c2.863,0 4.425,-8.071 12.238,-8.071c5.208,0 7.033,7.03 18.75,7.03c5.47,-0 15.625,-0.521 17.708,-20.571" style="fill-rule:nonzero;"/></g><g><path d="M1623.34,300.838l-0,-27.867c-0,-1.3 -0.259,-2.342 -1.563,-2.342c-1.041,0 -1.821,0.259 -2.604,1.3l-7.812,15.104c-0.521,0.521 -1.3,1.304 -1.3,3.125l-0,10.679l-16.93,0c10.68,-8.854 27.346,-38.283 27.605,-39.845c-0,-0.259 0.262,-0.521 0.262,-0.779c0,-1.042 -1.042,-1.825 -1.825,-1.825c-1.3,-0 -6.771,0.52 -9.112,0.52c-2.346,0 -3.909,-0.52 -4.95,-0.52c-1.3,-0 -3.125,0.52 -3.125,2.604c-0,16.666 -13.542,35.679 -16.925,40.366c-0.521,0.521 -1.042,1.3 -1.042,2.084c-0,1.3 1.042,2.604 2.604,2.604l23.438,-0l-0,8.071c-0,3.646 -2.084,4.687 -4.167,4.687c-2.346,0 -3.388,1.042 -3.388,2.346c0,1.3 0.521,2.863 2.867,2.863l22.396,-0c1.3,-0 2.604,-1.042 2.604,-2.863c0,-1.825 -1.562,-2.604 -2.867,-2.604c-1.3,-0 -4.166,-0.783 -4.166,-4.95l-0,-7.55l9.637,-0c1.3,-0 2.084,-1.042 2.084,-2.604c-0,-1.563 -0.521,-2.605 -2.084,-2.605l-9.637,0" style="fill-rule:nonzero;"/></g><g><path d="M1822.69,300.838l-0,-27.867c-0,-1.3 -0.263,-2.342 -1.563,-2.342c-1.041,0 -1.825,0.259 -2.604,1.3l-7.812,15.104c-0.521,0.521 -1.305,1.304 -1.305,3.125l0,10.679l-16.925,0c10.675,-8.854 27.342,-38.283 27.605,-39.845c-0,-0.259 0.258,-0.521 0.258,-0.779c-0,-1.042 -1.042,-1.825 -1.821,-1.825c-1.304,-0 -6.771,0.52 -9.117,0.52c-2.341,0 -3.904,-0.52 -4.945,-0.52c-1.305,-0 -3.125,0.52 -3.125,2.604c-0,16.666 -13.542,35.679 -16.93,40.366c-0.52,0.521 -1.041,1.3 -1.041,2.084c-0,1.3 1.041,2.604 2.604,2.604l23.437,-0l0,8.071c0,3.646 -2.083,4.687 -4.166,4.687c-2.342,0 -3.384,1.042 -3.384,2.346c0,1.3 0.521,2.863 2.863,2.863l22.396,-0c1.304,-0 2.604,-1.042 2.604,-2.863c-0,-1.825 -1.563,-2.604 -2.863,-2.604c-1.304,-0 -4.166,-0.783 -4.166,-4.95l-0,-7.55l9.633,-0c1.304,-0 2.083,-1.042 2.083,-2.604c0,-1.563 -0.52,-2.605 -2.083,-2.605l-9.633,0" style="fill-rule:nonzero;"/></g><g><path d="M1993.26,288.596c-0,-0 -0.259,1.042 -0.259,1.825c0,1.041 1.042,2.083 2.084,2.083c0.779,0 1.3,-0.783 1.562,-1.042c0.258,-0.783 3.383,-11.458 4.946,-14.062c0.521,-1.042 1.042,-1.304 1.304,-1.304c0.521,-0 0.779,1.041 0.779,1.825l0,37.237c0,3.125 -2.604,4.95 -5.208,4.95c-1.042,0 -2.342,0.521 -2.342,2.084c0,1.562 1.3,2.083 3.384,2.083l21.875,-0c2.083,-0 2.083,-2.083 2.083,-2.083c-0,-0 -0,-2.084 -2.083,-2.084c-1.821,0 -4.167,-2.346 -4.167,-4.687l-0,-54.167c-0,-2.083 -0.779,-3.125 -2.604,-3.125c-1.821,0 -3.384,0.521 -4.946,0.521c-2.604,-0 -3.125,-0 -5.208,-0.521c-1.042,0 -2.346,1.563 -3.125,2.604l-8.075,27.863" style="fill-rule:nonzero;"/></g><g><path d="M2233.26,303.442c-0,-1.825 -0.78,-2.084 -1.563,-2.084c-1.042,0 -1.562,0.78 -1.821,1.563c-1.304,3.646 -4.166,8.333 -8.075,8.333c-0.521,0 -1.041,0 -1.562,-0.262l-3.904,-1.3c-2.605,-1.042 -8.855,-3.125 -14.063,-3.125c-1.825,-0 -3.387,0.258 -4.95,0.779c2.867,-4.946 16.408,-11.458 19.271,-12.238c9.375,-1.304 17.187,-6.771 17.187,-16.929c0,-6.25 -2.604,-10.416 -5.987,-13.541c-6.771,-5.467 -16.667,-6.25 -19.533,-6.25c-9.375,-0 -16.925,0.52 -23.696,8.333c-1.825,2.083 -2.604,4.167 -2.604,6.25c-0,1.825 0.779,3.908 1.562,6.25c1.563,3.125 4.946,5.471 8.592,5.471c6.512,-0 7.291,-6.25 7.291,-9.117c0,-5.988 -6.508,-6.508 -6.508,-9.113c0,-1.824 2.604,-4.949 10.417,-4.949c12.237,-0 16.404,10.158 16.404,13.283c-0,4.687 -1.563,9.112 -4.167,12.758c-4.687,5.992 -13.279,8.075 -19.791,12.242c-7.292,4.425 -12.238,11.979 -14.584,20.312c0,1.821 0.784,3.905 2.346,4.688c0.258,0.258 0.779,0.258 1.042,0.258c2.862,0 4.425,-8.071 12.237,-8.071c5.209,0 7.034,7.03 18.75,7.03c5.471,-0 15.625,-0.521 17.709,-20.571" style="fill-rule:nonzero;"/></g><g><path d="M2420.6,300.838l-0,-27.867c-0,-1.3 -0.263,-2.342 -1.563,-2.342c-1.041,0 -1.825,0.259 -2.604,1.3l-7.812,15.104c-0.521,0.521 -1.304,1.304 -1.304,3.125l-0,10.679l-16.925,0c10.675,-8.854 27.341,-38.283 27.604,-39.845c-0,-0.259 0.258,-0.521 0.258,-0.779c0,-1.042 -1.042,-1.825 -1.821,-1.825c-1.304,-0 -6.771,0.52 -9.116,0.52c-2.342,0 -3.905,-0.52 -4.946,-0.52c-1.304,-0 -3.125,0.52 -3.125,2.604c-0,16.666 -13.542,35.679 -16.929,40.366c-0.521,0.521 -1.042,1.3 -1.042,2.084c-0,1.3 1.042,2.604 2.604,2.604l23.438,-0l-0,8.071c-0,3.646 -2.084,4.687 -4.167,4.687c-2.342,0 -3.383,1.042 -3.383,2.346c-0,1.3 0.52,2.863 2.862,2.863l22.396,-0c1.304,-0 2.604,-1.042 2.604,-2.863c0,-1.825 -1.562,-2.604 -2.862,-2.604c-1.305,-0 -4.167,-0.783 -4.167,-4.95l-0,-7.55l9.633,-0c1.304,-0 2.084,-1.042 2.084,-2.604c-0,-1.563 -0.521,-2.605 -2.084,-2.605l-9.633,0" style="fill-rule:nonzero;"/></g><g><path d="M2619.86,300.838l0,-27.867c0,-1.3 -0.262,-2.342 -1.562,-2.342c-1.042,0 -1.825,0.259 -2.604,1.3l-7.813,15.104c-0.521,0.521 -1.304,1.304 -1.304,3.125l-0,10.679l-16.925,0c10.675,-8.854 27.342,-38.283 27.604,-39.845c0,-0.259 0.258,-0.521 0.258,-0.779c0,-1.042 -1.041,-1.825 -1.82,-1.825c-1.305,-0 -6.771,0.52 -9.117,0.52c-2.342,0 -3.904,-0.52 -4.946,-0.52c-1.304,-0 -3.125,0.52 -3.125,2.604c0,16.666 -13.542,35.679 -16.929,40.366c-0.521,0.521 -1.042,1.3 -1.042,2.084c0,1.3 1.042,2.604 2.604,2.604l23.438,-0l-0,8.071c-0,3.646 -2.083,4.687 -4.167,4.687c-2.341,0 -3.383,1.042 -3.383,2.346c-0,1.3 0.521,2.863 2.862,2.863l22.396,-0c1.304,-0 2.604,-1.042 2.604,-2.863c0,-1.825 -1.562,-2.604 -2.862,-2.604c-1.304,-0 -4.167,-0.783 -4.167,-4.95l0,-7.55l9.634,-0c1.304,-0 2.083,-1.042 2.083,-2.604c-0,-1.563 -0.521,-2.605 -2.083,-2.605l-9.634,0" style="fill-rule:nonzero;"/></g><g><path d="M2790.23,288.596c0,-0 -0.258,1.042 -0.258,1.825c-0,1.041 1.042,2.083 2.083,2.083c0.779,0 1.3,-0.783 1.563,-1.042c0.258,-0.783 3.383,-11.458 4.946,-14.062c0.52,-1.042 1.041,-1.304 1.304,-1.304c0.521,-0 0.779,1.041 0.779,1.825l-0,37.237c-0,3.125 -2.604,4.95 -5.208,4.95c-1.042,0 -2.342,0.521 -2.342,2.084c-0,1.562 1.3,2.083 3.383,2.083l21.875,-0c2.084,-0 2.084,-2.083 2.084,-2.083c-0,-0 -0,-2.084 -2.084,-2.084c-1.821,0 -4.166,-2.346 -4.166,-4.687l-0,-54.167c-0,-2.083 -0.78,-3.125 -2.605,-3.125c-1.82,0 -3.383,0.521 -4.945,0.521c-2.605,-0 -3.125,-0 -5.209,-0.521c-1.041,0 -2.346,1.563 -3.125,2.604l-8.075,27.863" style="fill-rule:nonzero;"/></g><g><path d="M3030.33,303.442c0,-1.825 -0.779,-2.084 -1.562,-2.084c-1.042,0 -1.563,0.78 -1.821,1.563c-1.304,3.646 -4.167,8.333 -8.075,8.333c-0.521,0 -1.042,0 -1.562,-0.262l-3.905,-1.3c-2.604,-1.042 -8.854,-3.125 -14.062,-3.125c-1.825,-0 -3.388,0.258 -4.95,0.779c2.867,-4.946 16.408,-11.458 19.271,-12.238c9.375,-1.304 17.187,-6.771 17.187,-16.929c0,-6.25 -2.604,-10.416 -5.987,-13.541c-6.771,-5.467 -16.667,-6.25 -19.534,-6.25c-9.375,-0 -16.925,0.52 -23.695,8.333c-1.825,2.083 -2.605,4.167 -2.605,6.25c0,1.825 0.78,3.908 1.563,6.25c1.562,3.125 4.946,5.471 8.592,5.471c6.512,-0 7.291,-6.25 7.291,-9.117c0,-5.988 -6.508,-6.508 -6.508,-9.113c-0,-1.824 2.604,-4.949 10.417,-4.949c12.237,-0 16.404,10.158 16.404,13.283c-0,4.687 -1.563,9.112 -4.167,12.758c-4.687,5.992 -13.279,8.075 -19.792,12.242c-7.291,4.425 -12.237,11.979 -14.583,20.312c0,1.821 0.783,3.905 2.346,4.688c0.258,0.258 0.779,0.258 1.042,0.258c2.862,0 4.425,-8.071 12.237,-8.071c5.208,0 7.033,7.03 18.75,7.03c5.471,-0 15.625,-0.521 17.708,-20.571" style="fill-rule:nonzero;"/></g><g><path d="M3217.74,300.838l-0,-27.867c-0,-1.3 -0.259,-2.342 -1.563,-2.342c-1.041,0 -1.821,0.259 -2.604,1.3l-7.812,15.104c-0.521,0.521 -1.3,1.304 -1.3,3.125l-0,10.679l-16.93,0c10.68,-8.854 27.346,-38.283 27.605,-39.845c-0,-0.259 0.262,-0.521 0.262,-0.779c0,-1.042 -1.042,-1.825 -1.825,-1.825c-1.3,-0 -6.771,0.52 -9.112,0.52c-2.346,0 -3.909,-0.52 -4.95,-0.52c-1.3,-0 -3.125,0.52 -3.125,2.604c-0,16.666 -13.542,35.679 -16.925,40.366c-0.521,0.521 -1.042,1.3 -1.042,2.084c-0,1.3 1.042,2.604 2.604,2.604l23.438,-0l-0,8.071c-0,3.646 -2.084,4.687 -4.167,4.687c-2.346,0 -3.388,1.042 -3.388,2.346c0,1.3 0.521,2.863 2.867,2.863l22.396,-0c1.3,-0 2.604,-1.042 2.604,-2.863c0,-1.825 -1.562,-2.604 -2.867,-2.604c-1.3,-0 -4.166,-0.783 -4.166,-4.95l-0,-7.55l9.637,-0c1.3,-0 2.084,-1.042 2.084,-2.604c-0,-1.563 -0.521,-2.605 -2.084,-2.605l-9.637,0" style="fill-rule:nonzero;"/></g><g><path d="M3417.11,300.779l0,-27.862c0,-1.304 -0.258,-2.346 -1.562,-2.346c-1.042,-0 -1.821,0.262 -2.604,1.304l-7.813,15.104c-0.521,0.521 -1.3,1.3 -1.3,3.125l0,10.675l-16.929,0c10.679,-8.854 27.346,-38.279 27.604,-39.841c0,-0.263 0.263,-0.521 0.263,-0.784c-0,-1.041 -1.042,-1.821 -1.825,-1.821c-1.3,0 -6.771,0.521 -9.113,0.521c-2.346,0 -3.908,-0.521 -4.95,-0.521c-1.3,0 -3.125,0.521 -3.125,2.605c0,16.666 -13.542,35.675 -16.925,40.362c-0.521,0.521 -1.042,1.304 -1.042,2.083c0,1.305 1.042,2.605 2.605,2.605l23.437,-0l0,8.075c0,3.645 -2.083,4.687 -4.167,4.687c-2.345,0 -3.387,1.042 -3.387,2.342c-0,1.304 0.521,2.866 2.867,2.866l22.395,0c1.3,0 2.605,-1.041 2.605,-2.866c-0,-1.821 -1.563,-2.604 -2.867,-2.604c-1.3,-0 -4.167,-0.78 -4.167,-4.946l0,-7.554l9.638,-0c1.3,-0 2.083,-1.042 2.083,-2.605c0,-1.562 -0.521,-2.604 -2.083,-2.604l-9.638,0" style="fill-rule:nonzero;"/></g><g><path d="M3695.03,256.046c0,-0 -0.262,1.041 -0.262,1.821c-0,1.041 1.041,2.083 2.083,2.083c0.783,0 1.304,-0.779 1.562,-1.042c0.263,-0.779 3.388,-11.458 4.95,-14.062c0.521,-1.042 1.042,-1.3 1.3,-1.3c0.521,-0 0.784,1.041 0.784,1.821l-0,37.241c-0,3.125 -2.604,4.946 -5.209,4.946c-1.041,0 -2.345,0.521 -2.345,2.083c-0,1.563 1.304,2.084 3.387,2.084l21.875,-0c2.083,-0 2.083,-2.084 2.083,-2.084c0,0 0,-2.083 -2.083,-2.083c-1.825,0 -4.167,-2.342 -4.167,-4.687l0,-54.167c0,-2.083 -0.783,-3.125 -2.604,-3.125c-1.825,-0 -3.387,0.521 -4.95,0.521c-2.604,-0 -3.125,-0 -5.208,-0.521c-1.042,-0 -2.342,1.562 -3.125,2.604l-8.071,27.867" style="fill-rule:nonzero;"/></g><g><path d="M3935.03,237.783c0,-1.82 -0.783,-2.083 -1.562,-2.083c-1.042,0 -1.563,0.783 -1.825,1.563c-1.3,3.645 -4.167,8.333 -8.071,8.333c-0.521,-0 -1.042,-0 -1.563,-0.258l-3.908,-1.305c-2.604,-1.041 -8.854,-3.125 -14.063,-3.125c-1.82,0 -3.383,0.263 -4.945,0.784c2.862,-4.95 16.404,-11.459 19.27,-12.242c9.375,-1.3 17.188,-6.771 17.188,-16.925c-0,-6.25 -2.604,-10.417 -5.992,-13.542c-6.771,-5.47 -16.666,-6.25 -19.529,-6.25c-9.375,0 -16.929,0.521 -23.7,8.334c-1.821,2.083 -2.604,4.166 -2.604,6.25c-0,1.821 0.783,3.904 1.562,6.25c1.563,3.125 4.95,5.466 8.596,5.466c6.509,0 7.292,-6.25 7.292,-9.112c-0,-5.992 -6.513,-6.513 -6.513,-9.117c0,-1.821 2.605,-4.946 10.417,-4.946c12.242,0 16.408,10.155 16.408,13.28c0,4.687 -1.562,9.116 -4.166,12.762c-4.688,5.988 -13.284,8.071 -19.792,12.238c-7.292,4.429 -12.242,11.979 -14.583,20.312c-0,1.825 0.779,3.908 2.341,4.688c0.263,0.262 0.784,0.262 1.042,0.262c2.867,0 4.429,-8.075 12.242,-8.075c5.208,-0 7.029,7.033 18.75,7.033c5.466,0 15.625,-0.52 17.708,-20.575" style="fill-rule:nonzero;"/></g><g><path d="M4124.86,203.904l0,-27.862c0,-1.304 -0.258,-2.346 -1.562,-2.346c-1.042,-0 -1.821,0.262 -2.604,1.304l-7.813,15.104c-0.521,0.521 -1.3,1.3 -1.3,3.125l0,10.675l-16.929,0c10.679,-8.854 27.346,-38.279 27.604,-39.841c0,-0.263 0.263,-0.521 0.263,-0.784c-0,-1.041 -1.042,-1.821 -1.825,-1.821c-1.3,0 -6.771,0.521 -9.113,0.521c-2.346,0 -3.908,-0.521 -4.95,-0.521c-1.3,0 -3.125,0.521 -3.125,2.605c0,16.666 -13.541,35.675 -16.925,40.362c-0.521,0.521 -1.041,1.304 -1.041,2.083c-0,1.305 1.041,2.605 2.604,2.605l23.437,-0l0,8.075c0,3.645 -2.083,4.687 -4.166,4.687c-2.346,0 -3.388,1.042 -3.388,2.342c0,1.304 0.521,2.866 2.867,2.866l22.396,0c1.3,0 2.604,-1.041 2.604,-2.866c-0,-1.821 -1.563,-2.604 -2.867,-2.604c-1.3,-0 -4.167,-0.78 -4.167,-4.946l0,-7.554l9.638,-0c1.3,-0 2.083,-1.042 2.083,-2.605c0,-1.562 -0.521,-2.604 -2.083,-2.604l-9.638,0" style="fill-rule:nonzero;"/></g><g><path d="M4324.19,203.904l-0,-27.862c-0,-1.304 -0.263,-2.346 -1.563,-2.346c-1.041,-0 -1.825,0.262 -2.604,1.304l-7.812,15.104c-0.521,0.521 -1.305,1.3 -1.305,3.125l0,10.675l-16.925,0c10.675,-8.854 27.342,-38.279 27.605,-39.841c-0,-0.263 0.258,-0.521 0.258,-0.784c-0,-1.041 -1.042,-1.821 -1.821,-1.821c-1.304,0 -6.771,0.521 -9.117,0.521c-2.341,0 -3.904,-0.521 -4.945,-0.521c-1.305,0 -3.125,0.521 -3.125,2.605c-0,16.666 -13.542,35.675 -16.93,40.362c-0.52,0.521 -1.041,1.304 -1.041,2.083c-0,1.305 1.041,2.605 2.604,2.605l23.437,-0l0,8.075c0,3.645 -2.083,4.687 -4.166,4.687c-2.342,0 -3.384,1.042 -3.384,2.342c0,1.304 0.521,2.866 2.863,2.866l22.396,0c1.304,0 2.604,-1.041 2.604,-2.866c-0,-1.821 -1.563,-2.604 -2.863,-2.604c-1.304,-0 -4.166,-0.78 -4.166,-4.946l-0,-7.554l9.633,-0c1.304,-0 2.083,-1.042 2.083,-2.605c0,-1.562 -0.52,-2.604 -2.083,-2.604l-9.633,0" style="fill-rule:nonzero;"/></g><g><path d="M4503.19,159.171c-0,-0 -0.259,1.042 -0.259,1.821c0,1.041 1.042,2.083 2.084,2.083c0.779,0 1.3,-0.779 1.562,-1.042c0.259,-0.779 3.384,-11.458 4.946,-14.062c0.521,-1.042 1.042,-1.3 1.304,-1.3c0.521,-0 0.779,1.042 0.779,1.821l0,37.241c0,3.125 -2.604,4.946 -5.208,4.946c-1.042,0 -2.342,0.521 -2.342,2.084c0,1.562 1.3,2.083 3.384,2.083l21.875,-0c2.083,-0 2.083,-2.083 2.083,-2.083c0,-0 0,-2.084 -2.083,-2.084c-1.821,0 -4.167,-2.341 -4.167,-4.687l0,-54.167c0,-2.083 -0.779,-3.125 -2.604,-3.125c-1.821,0 -3.383,0.521 -4.946,0.521c-2.604,-0 -3.125,-0 -5.208,-0.521c-1.042,0 -2.346,1.563 -3.125,2.604l-8.075,27.867" style="fill-rule:nonzero;"/></g><g><path d="M4743.28,140.908c0,-1.82 -0.783,-2.083 -1.562,-2.083c-1.042,0 -1.563,0.783 -1.825,1.563c-1.3,3.645 -4.167,8.333 -8.071,8.333c-0.521,-0 -1.042,-0 -1.563,-0.258l-3.908,-1.305c-2.604,-1.041 -8.854,-3.125 -14.063,-3.125c-1.82,0 -3.383,0.263 -4.945,0.784c2.862,-4.95 16.404,-11.459 19.27,-12.242c9.375,-1.3 17.188,-6.771 17.188,-16.925c-0,-6.25 -2.604,-10.417 -5.992,-13.542c-6.771,-5.47 -16.666,-6.25 -19.529,-6.25c-9.375,0 -16.929,0.521 -23.7,8.334c-1.821,2.083 -2.604,4.166 -2.604,6.25c-0,1.821 0.783,3.904 1.562,6.25c1.563,3.125 4.95,5.466 8.596,5.466c6.509,0 7.292,-6.25 7.292,-9.112c-0,-5.992 -6.513,-6.513 -6.513,-9.117c0,-1.821 2.605,-4.946 10.417,-4.946c12.242,0 16.408,10.155 16.408,13.28c0,4.687 -1.562,9.116 -4.166,12.762c-4.688,5.988 -13.284,8.071 -19.792,12.238c-7.292,4.429 -12.242,11.979 -14.583,20.312c-0,1.825 0.779,3.908 2.341,4.688c0.263,0.262 0.784,0.262 1.042,0.262c2.867,0 4.429,-8.075 12.242,-8.075c5.208,0 7.029,7.033 18.75,7.033c5.466,0 15.625,-0.52 17.708,-20.575" style="fill-rule:nonzero;"/></g><g><path d="M4914.11,64.637c-14.325,0 -20.575,9.638 -20.575,15.105c0,3.645 2.084,8.075 8.596,8.333c4.946,-0 7.292,-3.125 7.292,-6.508l-0,-1.042c-0.263,-3.908 -2.867,-4.167 -3.388,-4.429c-0.52,-0.258 -1.562,-1.3 -1.562,-3.125c0.521,-2.863 4.429,-3.904 5.471,-3.904c13.279,-0 17.187,7.029 17.187,11.458c0,12.237 -12.5,13.279 -16.408,13.542c-1.821,-0 -3.646,0.779 -3.646,2.341c0,1.563 2.346,1.563 3.388,1.563c15.104,-0 17.187,7.812 17.187,11.721c0,15.104 -12.242,15.625 -15.367,15.625c-1.562,-0 -4.166,-0.784 -4.425,-2.084l0,-1.562c0,-2.867 0.78,-5.992 1.042,-8.596c0,-4.687 -3.125,-7.55 -7.812,-7.55l-1.042,0c-1.825,0.521 -3.646,1.563 -4.95,2.863c-1.821,1.562 -2.342,3.908 -2.342,6.25c0.259,8.333 7.55,15.366 20.571,15.625l1.563,-0c12.762,-0 26.041,-6.771 26.041,-18.23c0,-2.604 -0.521,-4.687 -1.3,-6.25c-0.521,-1.562 -1.562,-2.862 -2.604,-3.904c-0.783,-1.041 -1.825,-1.825 -2.867,-2.604l-2.862,-1.563l-1.563,-0.52c-0.52,-0 -0.783,-0.263 -1.304,-0.263l-1.562,-0.521c-0.779,-0.258 -1.042,0 -1.3,-0.521c-0.263,-0.258 -0.263,-0.52 -0.263,-0.779c0,-0.52 0.263,-1.041 0.784,-1.041l4.166,-1.305c1.821,-1.041 3.646,-1.82 4.946,-3.645c2.083,-2.084 2.867,-5.467 2.867,-8.334c-0,-12.237 -16.146,-15.625 -21.875,-16.146l-2.084,0" style="fill-rule:nonzero;"/></g><g><path d="M5129.98,74.737l0,-27.862c0,-1.304 -0.258,-2.346 -1.562,-2.346c-1.042,0 -1.821,0.263 -2.604,1.304l-7.813,15.105c-0.521,0.52 -1.3,1.299 -1.3,3.124l0,10.675l-16.929,0c10.679,-8.854 27.346,-38.279 27.604,-39.841c0,-0.263 0.263,-0.521 0.263,-0.784c-0,-1.041 -1.042,-1.82 -1.825,-1.82c-1.3,-0 -6.771,0.521 -9.113,0.521c-2.346,-0 -3.908,-0.521 -4.95,-0.521c-1.3,-0 -3.125,0.521 -3.125,2.604c0,16.667 -13.541,35.675 -16.925,40.362c-0.521,0.521 -1.041,1.305 -1.041,2.084c-0,1.304 1.041,2.604 2.604,2.604l23.437,-0l0,8.075c0,3.646 -2.083,4.687 -4.166,4.687c-2.346,0 -3.388,1.042 -3.388,2.342c0,1.304 0.521,2.867 2.867,2.867l22.396,-0c1.3,-0 2.604,-1.042 2.604,-2.867c-0,-1.821 -1.563,-2.604 -2.867,-2.604c-1.3,-0 -4.167,-0.779 -4.167,-4.946l0,-7.554l9.638,-0c1.3,-0 2.083,-1.042 2.083,-2.604c0,-1.563 -0.521,-2.605 -2.083,-2.605l-9.638,0" style="fill-rule:nonzero;"/></g><g><path d="M5329.28,42.446l0,-27.863c0,-1.304 -0.262,-2.346 -1.562,-2.346c-1.042,0 -1.825,0.263 -2.605,1.305l-7.812,15.104c-0.521,0.521 -1.304,1.3 -1.304,3.125l-0,10.675l-16.925,-0c10.675,-8.854 27.341,-38.279 27.604,-39.842c-0,-0.262 0.258,-0.521 0.258,-0.783c0,-1.042 -1.041,-1.821 -1.821,-1.821c-1.304,0 -6.77,0.521 -9.116,0.521c-2.342,-0 -3.904,-0.521 -4.946,-0.521c-1.304,0 -3.125,0.521 -3.125,2.604c-0,16.667 -13.542,35.675 -16.929,40.363c-0.521,0.52 -1.042,1.304 -1.042,2.083c0,1.304 1.042,2.604 2.604,2.604l23.438,0l-0,8.075c-0,3.646 -2.084,4.688 -4.167,4.688c-2.342,-0 -3.383,1.041 -3.383,2.341c-0,1.304 0.521,2.867 2.862,2.867l22.396,0c1.304,0 2.604,-1.042 2.604,-2.867c0,-1.821 -1.562,-2.604 -2.862,-2.604c-1.304,0 -4.167,-0.779 -4.167,-4.946l0,-7.554l9.633,0c1.305,0 2.084,-1.042 2.084,-2.604c-0,-1.563 -0.521,-2.604 -2.084,-2.604l-9.633,-0" style="fill-rule:nonzero;"/></g><g><path d="M5528.61,74.737l0,-27.862c0,-1.304 -0.258,-2.346 -1.562,-2.346c-1.042,0 -1.821,0.263 -2.604,1.304l-7.813,15.105c-0.521,0.52 -1.3,1.299 -1.3,3.124l0,10.675l-16.929,0c10.679,-8.854 27.346,-38.279 27.604,-39.841c0,-0.263 0.263,-0.521 0.263,-0.784c-0,-1.041 -1.042,-1.82 -1.825,-1.82c-1.3,-0 -6.771,0.521 -9.113,0.521c-2.346,-0 -3.908,-0.521 -4.95,-0.521c-1.3,-0 -3.125,0.521 -3.125,2.604c0,16.667 -13.541,35.675 -16.925,40.362c-0.521,0.521 -1.041,1.305 -1.041,2.084c-0,1.304 1.041,2.604 2.604,2.604l23.437,-0l0,8.075c0,3.646 -2.083,4.687 -4.166,4.687c-2.346,0 -3.388,1.042 -3.388,2.342c0,1.304 0.521,2.867 2.867,2.867l22.396,-0c1.3,-0 2.604,-1.042 2.604,-2.867c-0,-1.821 -1.563,-2.604 -2.867,-2.604c-1.3,-0 -4.167,-0.779 -4.167,-4.946l0,-7.554l9.638,-0c1.3,-0 2.083,-1.042 2.083,-2.604c0,-1.563 -0.521,-2.605 -2.083,-2.605l-9.638,0" style="fill-rule:nonzero;"/></g><g><path d="M5711.4,64.637c-14.325,0 -20.575,9.638 -20.575,15.105c0,3.645 2.083,8.075 8.596,8.333c4.946,-0 7.292,-3.125 7.292,-6.508l-0,-1.042c-0.263,-3.908 -2.867,-4.167 -3.388,-4.429c-0.521,-0.258 -1.562,-1.3 -1.562,-3.125c0.52,-2.863 4.429,-3.904 5.47,-3.904c13.28,-0 17.188,7.029 17.188,11.458c-0,12.237 -12.5,13.279 -16.408,13.542c-1.821,-0 -3.646,0.779 -3.646,2.341c-0,1.563 2.346,1.563 3.387,1.563c15.104,-0 17.188,7.812 17.188,11.721c-0,15.104 -12.242,15.625 -15.367,15.625c-1.562,-0 -4.167,-0.784 -4.425,-2.084l0,-1.562c0,-2.867 0.779,-5.992 1.042,-8.596c-0,-4.687 -3.125,-7.55 -7.813,-7.55l-1.041,0c-1.825,0.521 -3.646,1.563 -4.95,2.863c-1.821,1.562 -2.342,3.908 -2.342,6.25c0.258,8.333 7.55,15.366 20.571,15.625l1.562,-0c12.763,-0 26.042,-6.771 26.042,-18.23c-0,-2.604 -0.521,-4.687 -1.3,-6.25c-0.521,-1.562 -1.563,-2.862 -2.604,-3.904c-0.784,-1.041 -1.825,-1.825 -2.867,-2.604l-2.862,-1.563l-1.563,-0.52c-0.521,-0 -0.783,-0.263 -1.304,-0.263l-1.563,-0.521c-0.779,-0.258 -1.041,0 -1.3,-0.521c-0.262,-0.258 -0.262,-0.52 -0.262,-0.779c-0,-0.52 0.262,-1.041 0.783,-1.041l4.167,-1.305c1.821,-1.041 3.646,-1.82 4.946,-3.645c2.083,-2.084 2.866,-5.467 2.866,-8.334c0,-12.237 -16.145,-15.625 -21.875,-16.146l-2.083,0" style="fill-rule:nonzero;"/></g><g><path d="M5898.44,126.879c-0,0 -0.263,1.042 -0.263,1.821c0,1.042 1.042,2.083 2.084,2.083c0.783,0 1.304,-0.779 1.562,-1.041c0.263,-0.78 3.388,-11.459 4.95,-14.063c0.521,-1.041 1.042,-1.3 1.3,-1.3c0.521,0 0.783,1.042 0.783,1.821l0,37.242c0,3.125 -2.604,4.946 -5.208,4.946c-1.042,-0 -2.346,0.52 -2.346,2.083c0,1.562 1.304,2.083 3.388,2.083l21.875,0c2.083,0 2.083,-2.083 2.083,-2.083c0,-0 0,-2.083 -2.083,-2.083c-1.825,-0 -4.167,-2.342 -4.167,-4.688l0,-54.167c0,-2.083 -0.783,-3.125 -2.604,-3.125c-1.825,0 -3.388,0.521 -4.95,0.521c-2.604,0 -3.125,0 -5.208,-0.521c-1.042,0 -2.342,1.563 -3.125,2.605l-8.071,27.866" style="fill-rule:nonzero;"/></g><g><path d="M6097.78,159.171c0,-0 -0.258,1.042 -0.258,1.821c-0,1.041 1.041,2.083 2.083,2.083c0.779,0 1.3,-0.779 1.563,-1.042c0.258,-0.779 3.383,-11.458 4.945,-14.062c0.521,-1.042 1.042,-1.3 1.305,-1.3c0.52,-0 0.779,1.042 0.779,1.821l-0,37.241c-0,3.125 -2.604,4.946 -5.209,4.946c-1.041,0 -2.341,0.521 -2.341,2.084c-0,1.562 1.3,2.083 3.383,2.083l21.875,-0c2.083,-0 2.083,-2.083 2.083,-2.083c0,-0 0,-2.084 -2.083,-2.084c-1.821,0 -4.167,-2.341 -4.167,-4.687l0,-54.167c0,-2.083 -0.779,-3.125 -2.604,-3.125c-1.821,0 -3.383,0.521 -4.946,0.521c-2.604,-0 -3.125,-0 -5.208,-0.521c-1.042,0 -2.346,1.563 -3.125,2.604l-8.075,27.867" style="fill-rule:nonzero;"/></g><g><path d="M6325.9,203.904l0,-27.862c0,-1.304 -0.262,-2.346 -1.562,-2.346c-1.042,-0 -1.825,0.262 -2.605,1.304l-7.812,15.104c-0.521,0.521 -1.304,1.3 -1.304,3.125l-0,10.675l-16.925,0c10.675,-8.854 27.341,-38.279 27.604,-39.841c-0,-0.263 0.258,-0.521 0.258,-0.784c0,-1.041 -1.041,-1.821 -1.821,-1.821c-1.304,0 -6.77,0.521 -9.116,0.521c-2.342,0 -3.904,-0.521 -4.946,-0.521c-1.304,0 -3.125,0.521 -3.125,2.605c-0,16.666 -13.542,35.675 -16.929,40.362c-0.521,0.521 -1.042,1.304 -1.042,2.083c0,1.305 1.042,2.605 2.604,2.605l23.438,-0l-0,8.075c-0,3.645 -2.084,4.687 -4.167,4.687c-2.342,0 -3.383,1.042 -3.383,2.342c-0,1.304 0.521,2.866 2.862,2.866l22.396,0c1.304,0 2.604,-1.041 2.604,-2.866c0,-1.821 -1.562,-2.604 -2.862,-2.604c-1.304,-0 -4.167,-0.78 -4.167,-4.946l0,-7.554l9.633,-0c1.305,-0 2.084,-1.042 2.084,-2.605c-0,-1.562 -0.521,-2.604 -2.084,-2.604l-9.633,0" style="fill-rule:nonzero;"/></g><g><path d="M6511.15,161.513c-14.321,-0 -20.571,9.637 -20.571,15.104c0,3.645 2.084,8.075 8.592,8.333c4.95,0 7.292,-3.125 7.292,-6.508l-0,-1.042c-0.259,-3.908 -2.863,-4.167 -3.384,-4.429c-0.521,-0.258 -1.562,-1.3 -1.562,-3.125c0.521,-2.863 4.425,-3.904 5.466,-3.904c13.284,-0 17.188,7.029 17.188,11.458c-0,12.238 -12.5,13.279 -16.404,13.542c-1.825,-0 -3.646,0.779 -3.646,2.341c-0,1.563 2.342,1.563 3.383,1.563c15.104,-0 17.188,7.812 17.188,11.721c-0,15.104 -12.238,15.625 -15.363,15.625c-1.562,-0 -4.166,-0.784 -4.429,-2.084l0,-1.562c0,-2.867 0.783,-5.992 1.042,-8.596c-0,-4.687 -3.125,-7.55 -7.813,-7.55l-1.041,0c-1.821,0.521 -3.646,1.563 -4.946,2.863c-1.825,1.562 -2.346,3.908 -2.346,6.25c0.262,8.333 7.554,15.366 20.575,15.625l1.562,-0c12.759,-0 26.042,-6.771 26.042,-18.23c0,-2.604 -0.521,-4.687 -1.304,-6.25c-0.521,-1.562 -1.563,-2.862 -2.604,-3.904c-0.779,-1.041 -1.821,-1.825 -2.863,-2.604l-2.866,-1.562l-1.563,-0.521c-0.521,-0 -0.779,-0.263 -1.3,-0.263l-1.562,-0.521c-0.784,-0.258 -1.042,0 -1.305,-0.52c-0.258,-0.259 -0.258,-0.521 -0.258,-0.78c0,-0.52 0.258,-1.041 0.779,-1.041l4.167,-1.304c1.825,-1.042 3.646,-1.821 4.95,-3.646c2.083,-2.084 2.862,-5.467 2.862,-8.334c0,-12.237 -16.145,-15.625 -21.875,-16.145l-2.083,-0" style="fill-rule:nonzero;"/></g><g><path d="M6698.23,223.754c0,0 -0.258,1.042 -0.258,1.821c0,1.042 1.042,2.083 2.083,2.083c0.78,0 1.3,-0.779 1.563,-1.041c0.258,-0.779 3.383,-11.459 4.946,-14.063c0.521,-1.041 1.041,-1.3 1.304,-1.3c0.521,0 0.779,1.042 0.779,1.821l0,37.242c0,3.125 -2.604,4.946 -5.208,4.946c-1.042,-0 -2.342,0.52 -2.342,2.083c0,1.562 1.3,2.083 3.383,2.083l21.875,0c2.084,0 2.084,-2.083 2.084,-2.083c-0,-0 -0,-2.083 -2.084,-2.083c-1.82,-0 -4.166,-2.342 -4.166,-4.688l-0,-54.167c-0,-2.083 -0.779,-3.125 -2.604,-3.125c-1.821,0 -3.384,0.521 -4.946,0.521c-2.604,0 -3.125,0 -5.209,-0.521c-1.041,0 -2.345,1.563 -3.125,2.605l-8.075,27.866" style="fill-rule:nonzero;"/></g><g><path d="M386.889,841.2c23.175,0 51.562,-21.354 51.562,-43.487c0,-13.284 -10.417,-21.617 -25.262,-21.617c-28.646,-0 -51.563,21.096 -51.563,43.491c0,13.542 11.2,21.613 25.263,21.613" style="fill-rule:nonzero;"/></g><g><path d="M500.722,797.45c-0,0 -0.783,-15.625 -0.783,-26.042c-0,-4.166 0.262,-7.291 0.52,-8.333c1.825,-5.208 12.242,-12.758 18.23,-12.758c7.554,-0 10.679,8.591 10.679,15.104c-0,14.062 -11.979,28.125 -23.179,35.154c-1.042,0.521 -1.821,0.783 -2.605,0.783c-2.341,0 -2.862,-2.604 -2.862,-3.908m-9.117,23.179c0.784,1.042 1.563,1.3 2.346,1.3c0.779,0 1.563,-0.521 1.563,-0.521c7.812,-4.425 14.062,-11.458 20.57,-15.883c23.18,-16.146 31.25,-32.033 31.25,-44.012c0,-14.842 -11.458,-24.217 -23.437,-25c-4.425,-0 -10.675,2.083 -14.321,4.429c-1.562,1.3 -4.429,3.646 -5.729,3.646c-0.521,-0 -0.783,-0 -1.304,-0.263c-1.821,-0.779 -2.863,-2.604 -2.863,-4.425c0.259,-5.729 1.821,-68.229 1.821,-73.437c0,-2.867 -2.342,-4.43 -4.946,-4.43c-3.646,0 -7.812,2.605 -8.075,7.292c0,0 1.042,148.7 3.125,151.304" style="fill-rule:nonzero;"/></g><g><path d="M588.684,808.908c23.175,0 51.563,-21.354 51.563,-43.487c-0,-13.283 -10.417,-21.617 -25.263,-21.617c-28.645,0 -51.562,21.096 -51.562,43.492c-0,13.542 11.2,21.612 25.262,21.612" style="fill-rule:nonzero;"/></g><g><path d="M702.518,765.158c-0,0 -0.779,-15.625 -0.779,-26.041c-0,-4.167 0.258,-7.292 0.52,-8.334c1.821,-5.208 12.238,-12.758 18.23,-12.758c7.55,0 10.675,8.592 10.675,15.104c-0,14.063 -11.98,28.125 -23.175,35.154c-1.042,0.521 -1.825,0.784 -2.605,0.784c-2.345,-0 -2.866,-2.604 -2.866,-3.909m-9.113,23.18c0.779,1.041 1.563,1.3 2.342,1.3c0.783,-0 1.562,-0.521 1.562,-0.521c7.813,-4.425 14.063,-11.459 20.575,-15.884c23.175,-16.145 31.25,-32.033 31.25,-44.012c0,-14.842 -11.458,-24.217 -23.437,-25c-4.429,-0 -10.679,2.083 -14.325,4.429c-1.563,1.3 -4.425,3.646 -5.729,3.646c-0.521,-0 -0.779,-0 -1.3,-0.263c-1.825,-0.779 -2.867,-2.604 -2.867,-4.425c0.263,-5.729 1.825,-68.229 1.825,-73.437c0,-2.867 -2.346,-4.429 -4.95,-4.429c-3.646,-0 -7.812,2.604 -8.071,7.291c0,0 1.042,148.7 3.125,151.305" style="fill-rule:nonzero;"/></g><g><path d="M790.48,776.617c23.175,-0 51.563,-21.354 51.563,-43.488c-0,-13.283 -10.417,-21.616 -25.263,-21.616c-28.646,-0 -51.562,21.095 -51.562,43.491c-0,13.542 11.2,21.613 25.262,21.613" style="fill-rule:nonzero;"/></g><g><path d="M914.309,733.908c0,-3.645 15.884,-10.416 22.134,-10.416c1.562,-0 2.346,0.262 2.346,1.304l-0,26.821c-0,4.687 -14.846,10.679 -21.355,10.679c-1.825,-0 -3.125,-0.521 -3.125,-1.563l0,-26.825m27.084,-36.979c-0.521,0 -0.784,0.263 -1.042,0.263c0,-0 -16.667,5.987 -23.437,5.987c-1.563,0 -2.605,-0.258 -2.605,-1.3l0,-43.491c0,-1.821 -1.562,-3.125 -3.125,-3.125l-3.387,-0c-1.821,-0 -3.125,1.304 -3.125,3.125l-0,134.116c-0,1.563 0.783,2.342 2.083,2.342c0.263,-0 1.563,-0.258 1.825,-0.521c3.646,-1.562 18.229,-7.812 25.779,-7.812c2.605,-0 4.43,0.783 4.43,2.866l-0,38.8c-0,1.825 1.3,3.125 3.125,3.125l3.383,0c1.562,0 3.125,-1.3 3.125,-3.125l-0,-130.729c-0,-1.3 -1.042,-2.083 -2.083,-2.083c-0.259,-0 -0.78,-0 -1.042,0.262l-3.904,1.3" style="fill-rule:nonzero;"/></g><g><path d="M989.814,776.617c23.179,-0 51.562,-21.354 51.562,-43.488c0,-13.283 -10.417,-21.616 -25.258,-21.616c-28.646,-0 -51.563,21.095 -51.563,43.491c0,13.542 11.196,21.613 25.259,21.613" style="fill-rule:nonzero;"/></g><g><path d="M1135.17,723.492c-1.563,5.208 -13.804,10.416 -19.792,10.416c-1.562,0 -2.867,-0.52 -3.125,-1.3c-0.521,-1.041 -0.783,-6.77 -0.783,-13.02c-0,-8.075 0.262,-17.188 0.783,-19.271c0.521,-4.429 12.5,-9.896 19.008,-9.896c1.825,-0 3.388,0.521 3.909,1.562c0.521,1.3 1.041,7.813 1.041,14.842c0,7.033 -0.52,14.325 -1.041,16.667m17.966,-42.446c1.825,-0.784 3.125,-2.867 3.125,-4.429l0,-18.488c0,-1.304 -0.779,-2.083 -1.82,-2.083c-0.521,-0 -0.784,-0 -1.305,0.258c0,0 -5.208,2.083 -6.508,2.346c-1.825,-0 -3.646,-1.304 -3.646,-3.388l0,-31.77c0,-1.563 -1.562,-2.863 -3.646,-2.863c-2.604,0 -4.166,1.3 -4.166,2.863l-0,33.854c-0.263,2.604 -1.042,5.991 -3.388,7.554c-3.125,1.821 -11.979,5.467 -16.404,6.508c-2.346,0 -3.125,-3.125 -3.125,-5.208l0,-31.25c0,-1.563 -1.825,-2.863 -3.646,-2.863c-2.604,0 -4.166,1.3 -4.166,2.863l-0,35.158c-0,3.646 -1.563,6.25 -3.125,7.029c-1.563,0.784 -6.771,2.867 -6.771,2.867c-1.825,0.521 -3.125,2.604 -3.125,4.167l-0,18.487c-0,1.563 0.779,2.346 2.083,2.346c1.042,0 5.988,-2.346 6.771,-2.867c0.258,0 0.521,-0.258 0.779,-0.258c1.825,0 3.388,2.604 3.388,4.688l-0,25.779c-0,2.866 -1.305,5.208 -2.867,5.991c-1.563,0.521 -7.029,2.863 -7.029,2.863c-1.825,0.521 -3.125,2.604 -3.125,4.167l-0,18.491c-0,1.563 0.779,2.342 2.083,2.342c0.258,-0 0.779,-0.258 1.042,-0.258c-0,-0 3.646,-1.563 5.987,-2.346c0.263,-0.259 0.521,-0.259 0.784,-0.259c1.82,0 3.125,2.863 3.125,4.167l-0,32.029c-0,1.563 1.562,2.867 3.383,2.867c2.604,-0 4.429,-1.304 4.429,-2.867l0,-36.196c0,-3.387 1.3,-5.208 2.604,-5.729l15.884,-6.512c0.262,-0 0.783,-0.259 1.041,-0.259c2.084,0 3.388,3.125 3.388,4.688l-0,32.55c-0,1.563 1.562,2.867 3.383,2.867c2.867,-0 4.429,-1.304 4.429,-2.867l0,-36.979c0,-2.083 1.042,-5.208 2.863,-5.988c1.825,-0.783 7.291,-2.866 7.291,-2.866c1.825,-0.779 3.125,-2.863 3.125,-4.425l0,-18.492c0,-1.3 -0.779,-2.083 -1.82,-2.083c-0.521,-0 -0.784,-0 -1.305,0.262l-6.77,2.604c-1.563,0 -3.384,-1.562 -3.384,-4.687l0,-24.221c0,-1.821 1.3,-6.771 3.384,-7.55l6.77,-2.604" style="fill-rule:nonzero;"/></g><g><path d="M1197.61,744.325c23.179,0 51.562,-21.354 51.562,-43.487c0,-13.284 -10.417,-21.617 -25.258,-21.617c-28.646,-0 -51.563,21.096 -51.563,43.491c0,13.542 11.196,21.613 25.259,21.613" style="fill-rule:nonzero;"/></g><g><path d="M1396.98,712.033c23.179,0 51.563,-21.354 51.563,-43.487c-0,-13.283 -10.417,-21.617 -25.259,-21.617c-28.646,0 -51.562,21.096 -51.562,43.492c-0,13.542 11.196,21.612 25.258,21.612" style="fill-rule:nonzero;"/></g><g><path d="M1596.34,679.742c23.175,-0 51.562,-21.354 51.562,-43.488c0,-13.283 -10.417,-21.616 -25.262,-21.616c-28.646,-0 -51.563,21.095 -51.563,43.491c0,13.542 11.2,21.613 25.263,21.613" style="fill-rule:nonzero;"/></g><g><path d="M1795.7,647.45c23.175,0 51.563,-21.354 51.563,-43.487c-0,-13.284 -10.417,-21.617 -25.263,-21.617c-28.646,-0 -51.562,21.096 -51.562,43.491c-0,13.542 11.2,21.613 25.262,21.613" style="fill-rule:nonzero;"/></g><g><path d="M1995.06,615.158c23.175,0 51.562,-21.354 51.562,-43.487c0,-13.283 -10.417,-21.617 -25.262,-21.617c-28.646,0 -51.563,21.096 -51.563,43.492c0,13.542 11.2,21.612 25.263,21.612" style="fill-rule:nonzero;"/></g><g><path d="M2106.36,571.408c-0,0 -0.78,-15.625 -0.78,-26.041c0,-4.167 0.259,-7.292 0.521,-8.334c1.821,-5.208 12.238,-12.758 18.229,-12.758c7.55,0 10.675,8.592 10.675,15.104c0,14.063 -11.979,28.125 -23.175,35.154c-1.041,0.521 -1.825,0.784 -2.604,0.784c-2.346,-0 -2.866,-2.604 -2.866,-3.909m-9.113,23.18c0.779,1.041 1.563,1.3 2.342,1.3c0.783,-0 1.562,-0.521 1.562,-0.521c7.813,-4.425 14.063,-11.459 20.575,-15.884c23.175,-16.145 31.25,-32.033 31.25,-44.012c0,-14.842 -11.458,-24.217 -23.437,-25c-4.429,-0 -10.679,2.083 -14.325,4.429c-1.563,1.3 -4.425,3.646 -5.729,3.646c-0.521,-0 -0.78,-0 -1.3,-0.263c-1.825,-0.779 -2.867,-2.604 -2.867,-4.425c0.262,-5.729 1.825,-68.229 1.825,-73.437c-0,-2.867 -2.346,-4.429 -4.95,-4.429c-3.646,-0 -7.813,2.604 -8.071,7.291c0,0 1.042,148.7 3.125,151.305" style="fill-rule:nonzero;"/></g><g><path d="M2194.32,582.867c23.179,-0 51.562,-21.354 51.562,-43.488c0,-13.283 -10.416,-21.616 -25.258,-21.616c-28.646,-0 -51.563,21.095 -51.563,43.491c0,13.542 11.196,21.613 25.259,21.613" style="fill-rule:nonzero;"/></g><g><path d="M2305.62,539.117c-0,-0 -0.783,-15.625 -0.783,-26.042c-0,-4.167 0.262,-7.292 0.52,-8.333c1.825,-5.209 12.242,-12.759 18.23,-12.759c7.554,0 10.679,8.592 10.679,15.105c-0,14.062 -11.979,28.125 -23.179,35.154c-1.042,0.521 -1.821,0.783 -2.605,0.783c-2.341,0 -2.862,-2.604 -2.862,-3.908m-9.117,23.179c0.784,1.042 1.563,1.3 2.346,1.3c0.779,-0 1.563,-0.521 1.563,-0.521c7.812,-4.425 14.062,-11.458 20.57,-15.883c23.18,-16.146 31.25,-32.034 31.25,-44.013c0,-14.841 -11.458,-24.216 -23.437,-25c-4.425,0 -10.675,2.084 -14.321,4.429c-1.562,1.3 -4.429,3.646 -5.729,3.646c-0.521,0 -0.783,0 -1.304,-0.262c-1.821,-0.779 -2.863,-2.604 -2.863,-4.425c0.259,-5.729 1.821,-68.229 1.821,-73.438c0,-2.866 -2.342,-4.429 -4.946,-4.429c-3.646,0 -7.812,2.604 -8.075,7.292c0,-0 1.042,148.7 3.125,151.304" style="fill-rule:nonzero;"/></g><g><path d="M2393.59,550.575c23.179,0 51.562,-21.354 51.562,-43.487c0,-13.284 -10.417,-21.617 -25.258,-21.617c-28.646,-0 -51.563,21.096 -51.563,43.492c0,13.541 11.196,21.612 25.259,21.612" style="fill-rule:nonzero;"/></g><g><path d="M2517.34,507.867c-0,-3.646 15.887,-10.417 22.137,-10.417c1.563,0 2.342,0.263 2.342,1.304l-0,26.821c-0,4.688 -14.842,10.679 -21.354,10.679c-1.821,0 -3.125,-0.521 -3.125,-1.562l-0,-26.825m27.083,-36.979c-0.521,-0 -0.779,0.262 -1.042,0.262c0,0 -16.666,5.988 -23.437,5.988c-1.563,-0 -2.604,-0.259 -2.604,-1.3l-0,-43.492c-0,-1.821 -1.563,-3.125 -3.125,-3.125l-3.384,-0c-1.825,-0 -3.125,1.304 -3.125,3.125l0,134.117c0,1.562 0.779,2.341 2.084,2.341c0.258,0 1.562,-0.258 1.82,-0.521c3.646,-1.562 18.23,-7.812 25.784,-7.812c2.604,-0 4.425,0.783 4.425,2.867l-0,38.8c-0,1.825 1.304,3.125 3.125,3.125l3.387,-0c1.563,-0 3.125,-1.3 3.125,-3.125l0,-130.73c0,-1.3 -1.041,-2.083 -2.083,-2.083c-0.263,0 -0.783,0 -1.042,0.263l-3.908,1.3" style="fill-rule:nonzero;"/></g><g><path d="M2592.86,550.575c23.18,0 51.563,-21.354 51.563,-43.487c-0,-13.284 -10.417,-21.617 -25.258,-21.617c-28.646,-0 -51.563,21.096 -51.563,43.492c0,13.541 11.196,21.612 25.258,21.612" style="fill-rule:nonzero;"/></g><g><path d="M2729.57,497.45c-1.563,5.208 -13.804,10.417 -19.792,10.417c-1.562,-0 -2.867,-0.521 -3.125,-1.3c-0.521,-1.042 -0.783,-6.771 -0.783,-13.021c-0,-8.075 0.262,-17.188 0.783,-19.271c0.521,-4.429 12.5,-9.896 19.008,-9.896c1.825,0 3.388,0.521 3.909,1.563c0.521,1.3 1.041,7.812 1.041,14.841c0,7.034 -0.52,14.325 -1.041,16.667m17.966,-42.446c1.825,-0.783 3.125,-2.866 3.125,-4.429l0,-18.487c0,-1.305 -0.779,-2.084 -1.82,-2.084c-0.521,0 -0.784,0 -1.305,0.259c0,-0 -5.208,2.083 -6.508,2.345c-1.825,0 -3.646,-1.304 -3.646,-3.387l0,-31.771c0,-1.562 -1.562,-2.862 -3.646,-2.862c-2.604,-0 -4.166,1.3 -4.166,2.862l-0,33.854c-0.263,2.604 -1.042,5.992 -3.388,7.554c-3.125,1.821 -11.979,5.467 -16.404,6.509c-2.346,-0 -3.125,-3.125 -3.125,-5.209l0,-31.25c0,-1.562 -1.825,-2.862 -3.646,-2.862c-2.604,-0 -4.166,1.3 -4.166,2.862l-0,35.159c-0,3.646 -1.563,6.25 -3.125,7.029c-1.563,0.783 -6.771,2.867 -6.771,2.867c-1.825,0.52 -3.125,2.604 -3.125,4.166l-0,18.488c-0,1.562 0.779,2.346 2.083,2.346c1.042,-0 5.988,-2.346 6.771,-2.867c0.258,-0 0.521,-0.258 0.779,-0.258c1.825,-0 3.388,2.604 3.388,4.687l-0,25.779c-0,2.867 -1.305,5.209 -2.867,5.992c-1.563,0.521 -7.029,2.862 -7.029,2.862c-1.825,0.521 -3.125,2.605 -3.125,4.167l-0,18.492c-0,1.562 0.779,2.341 2.083,2.341c0.258,0 0.779,-0.258 1.042,-0.258c-0,0 3.646,-1.562 5.987,-2.346c0.263,-0.258 0.521,-0.258 0.784,-0.258c1.82,-0 3.125,2.862 3.125,4.167l-0,32.029c-0,1.562 1.562,2.866 3.383,2.866c2.604,0 4.429,-1.304 4.429,-2.866l0,-36.196c0,-3.388 1.3,-5.208 2.604,-5.729l15.884,-6.513c0.262,0 0.783,-0.258 1.041,-0.258c2.084,-0 3.388,3.125 3.388,4.687l-0,32.55c-0,1.563 1.562,2.867 3.383,2.867c2.867,0 4.429,-1.304 4.429,-2.867l0,-36.979c0,-2.083 1.042,-5.208 2.863,-5.987c1.825,-0.784 7.291,-2.867 7.291,-2.867c1.825,-0.779 3.125,-2.862 3.125,-4.425l0,-18.492c0,-1.3 -0.779,-2.083 -1.82,-2.083c-0.521,0 -0.784,0 -1.305,0.263l-6.77,2.604c-1.563,-0 -3.384,-1.563 -3.384,-4.688l0,-24.221c0,-1.82 1.3,-6.77 3.384,-7.55l6.77,-2.604" style="fill-rule:nonzero;"/></g><g><path d="M2792.01,518.283c23.179,0 51.562,-21.354 51.562,-43.487c0,-13.283 -10.417,-21.617 -25.258,-21.617c-28.646,0 -51.563,21.096 -51.563,43.492c0,13.542 11.196,21.612 25.259,21.612" style="fill-rule:nonzero;"/></g><g><path d="M2991.38,485.992c23.179,-0 51.563,-21.354 51.563,-43.488c-0,-13.283 -10.417,-21.616 -25.259,-21.616c-28.646,-0 -51.562,21.095 -51.562,43.491c-0,13.542 11.196,21.613 25.258,21.613" style="fill-rule:nonzero;"/></g><g><path d="M3190.74,453.7c23.175,0 51.562,-21.354 51.562,-43.487c0,-13.284 -10.417,-21.617 -25.262,-21.617c-28.646,-0 -51.563,21.096 -51.563,43.492c0,13.541 11.2,21.612 25.263,21.612" style="fill-rule:nonzero;"/></g><g><path d="M3390.1,421.408c23.175,0 51.563,-21.354 51.563,-43.487c-0,-13.283 -10.417,-21.617 -25.263,-21.617c-28.646,0 -51.562,21.096 -51.562,43.492c-0,13.542 11.2,21.612 25.262,21.612" style="fill-rule:nonzero;"/></g><g><path d="M3696.82,389.117c23.179,-0 51.562,-21.354 51.562,-43.488c0,-13.283 -10.416,-21.616 -25.258,-21.616c-28.646,-0 -51.563,21.095 -51.563,43.491c0,13.542 11.196,21.613 25.259,21.613" style="fill-rule:nonzero;"/></g><g><path d="M3808.11,345.367c0,-0 -0.783,-15.625 -0.783,-26.042c0,-4.167 0.263,-7.292 0.521,-8.333c1.825,-5.209 12.242,-12.759 18.229,-12.759c7.554,0 10.679,8.592 10.679,15.104c0,14.063 -11.979,28.125 -23.179,35.155c-1.042,0.521 -1.821,0.783 -2.604,0.783c-2.342,0 -2.863,-2.604 -2.863,-3.908m-9.116,23.179c0.783,1.042 1.562,1.3 2.346,1.3c0.779,-0 1.562,-0.521 1.562,-0.521c7.813,-4.425 14.063,-11.458 20.571,-15.883c23.179,-16.146 31.25,-32.034 31.25,-44.013c-0,-14.841 -11.458,-24.216 -23.438,-25c-4.425,0 -10.675,2.084 -14.32,4.429c-1.563,1.3 -4.43,3.646 -5.73,3.646c-0.52,0 -0.783,0 -1.304,-0.262c-1.821,-0.779 -2.862,-2.604 -2.862,-4.425c0.258,-5.729 1.821,-68.229 1.821,-73.438c-0,-2.866 -2.342,-4.429 -4.946,-4.429c-3.646,0 -7.813,2.604 -8.075,7.292c-0,-0 1.041,148.7 3.125,151.304" style="fill-rule:nonzero;"/></g><g><path d="M3896.07,356.825c23.175,0 51.562,-21.354 51.562,-43.488c0,-13.283 -10.416,-21.616 -25.262,-21.616c-28.646,-0 -51.563,21.096 -51.563,43.491c0,13.542 11.2,21.613 25.263,21.613" style="fill-rule:nonzero;"/></g><g><path d="M4009.9,313.075c0,0 -0.783,-15.625 -0.783,-26.042c-0,-4.166 0.262,-7.291 0.521,-8.333c1.825,-5.208 12.241,-12.758 18.229,-12.758c7.554,-0 10.679,8.591 10.679,15.104c-0,14.062 -11.979,28.125 -23.179,35.154c-1.042,0.521 -1.821,0.783 -2.604,0.783c-2.342,0 -2.863,-2.604 -2.863,-3.908m-9.117,23.179c0.784,1.042 1.563,1.3 2.346,1.3c0.779,0 1.563,-0.521 1.563,-0.521c7.812,-4.425 14.062,-11.458 20.571,-15.883c23.179,-16.146 31.25,-32.033 31.25,-44.012c-0,-14.842 -11.459,-24.217 -23.438,-25.001c-4.425,0 -10.675,2.084 -14.321,4.43c-1.562,1.3 -4.429,3.645 -5.729,3.645c-0.521,0 -0.783,0 -1.304,-0.262c-1.821,-0.779 -2.863,-2.604 -2.863,-4.425c0.259,-5.729 1.821,-68.229 1.821,-73.437c0,-2.867 -2.341,-4.43 -4.946,-4.43c-3.645,0 -7.812,2.605 -8.075,7.292c0,0 1.042,148.7 3.125,151.304" style="fill-rule:nonzero;"/></g><g><path d="M4097.86,324.533c23.18,0 51.563,-21.354 51.563,-43.487c-0,-13.283 -10.417,-21.617 -25.258,-21.617c-28.646,0 -51.563,21.096 -51.563,43.492c0,13.541 11.196,21.612 25.258,21.612" style="fill-rule:nonzero;"/></g><g><path d="M4221.69,281.825c-0,-3.646 15.883,-10.417 22.133,-10.417c1.563,0 2.346,0.263 2.346,1.304l-0,26.821c-0,4.688 -14.846,10.679 -21.354,10.679c-1.825,0 -3.125,-0.52 -3.125,-1.562l-0,-26.825m27.083,-36.979c-0.521,-0 -0.783,0.262 -1.042,0.262c0,0 -16.666,5.988 -23.437,5.988c-1.563,-0 -2.604,-0.258 -2.604,-1.3l-0,-43.492c-0,-1.821 -1.563,-3.125 -3.125,-3.125l-3.388,0c-1.821,0 -3.125,1.304 -3.125,3.125l0,134.117c0,1.562 0.784,2.342 2.084,2.342c0.262,-0 1.562,-0.259 1.825,-0.521c3.645,-1.563 18.229,-7.813 25.779,-7.813c2.604,0 4.429,0.784 4.429,2.867l-0,38.8c-0,1.825 1.3,3.125 3.125,3.125l3.383,-0c1.563,-0 3.125,-1.3 3.125,-3.125l0,-130.729c0,-1.3 -1.041,-2.084 -2.083,-2.084c-0.258,0 -0.779,0 -1.042,0.263l-3.904,1.3" style="fill-rule:nonzero;"/></g><g><path d="M4297.19,324.533c23.175,0 51.562,-21.354 51.562,-43.487c0,-13.283 -10.416,-21.617 -25.262,-21.617c-28.646,0 -51.563,21.096 -51.563,43.492c0,13.541 11.2,21.612 25.263,21.612" style="fill-rule:nonzero;"/></g><g><path d="M4442.53,271.408c-1.562,5.209 -13.8,10.417 -19.792,10.417c-1.562,0 -2.862,-0.521 -3.125,-1.3c-0.52,-1.042 -0.779,-6.771 -0.779,-13.021c0,-8.075 0.259,-17.187 0.779,-19.271c0.521,-4.429 12.5,-9.895 19.013,-9.895c1.821,-0 3.383,0.52 3.904,1.562c0.521,1.3 1.042,7.813 1.042,14.842c-0,7.033 -0.521,14.325 -1.042,16.666m17.971,-42.445c1.821,-0.784 3.125,-2.867 3.125,-4.43l-0,-18.487c-0,-1.304 -0.783,-2.083 -1.825,-2.083c-0.521,-0 -0.779,-0 -1.3,0.258c-0,-0 -5.208,2.083 -6.513,2.346c-1.82,-0 -3.645,-1.304 -3.645,-3.388l-0,-31.771c-0,-1.562 -1.563,-2.862 -3.646,-2.862c-2.604,-0 -4.167,1.3 -4.167,2.862l0,33.855c-0.258,2.604 -1.042,5.991 -3.383,7.554c-3.125,1.821 -11.979,5.466 -16.409,6.508c-2.341,0 -3.125,-3.125 -3.125,-5.208l0,-31.25c0,-1.563 -1.82,-2.863 -3.645,-2.863c-2.605,0 -4.167,1.3 -4.167,2.863l-0,35.158c-0,3.646 -1.563,6.25 -3.125,7.029c-1.563,0.784 -6.771,2.867 -6.771,2.867c-1.821,0.521 -3.125,2.604 -3.125,4.167l0,18.487c0,1.563 0.783,2.346 2.083,2.346c1.042,-0 5.992,-2.346 6.771,-2.867c0.263,0 0.521,-0.258 0.784,-0.258c1.82,-0 3.383,2.604 3.383,4.687l-0,25.78c-0,2.866 -1.3,5.208 -2.863,5.991c-1.562,0.521 -7.033,2.863 -7.033,2.863c-1.821,0.521 -3.125,2.604 -3.125,4.166l0,18.492c0,1.563 0.783,2.342 2.083,2.342c0.263,-0 0.784,-0.259 1.042,-0.259c0,0 3.646,-1.562 5.992,-2.345c0.258,-0.259 0.521,-0.259 0.779,-0.259c1.825,0 3.125,2.863 3.125,4.167l-0,32.029c-0,1.563 1.562,2.867 3.387,2.867c2.605,-0 4.425,-1.304 4.425,-2.867l0,-36.196c0,-3.387 1.305,-5.208 2.605,-5.729l15.887,-6.512c0.258,-0 0.779,-0.259 1.042,-0.259c2.083,0 3.383,3.125 3.383,4.688l0,32.55c0,1.562 1.563,2.866 3.388,2.866c2.862,0 4.425,-1.304 4.425,-2.866l-0,-36.979c-0,-2.084 1.041,-5.209 2.866,-5.988c1.821,-0.783 7.292,-2.867 7.292,-2.867c1.821,-0.779 3.125,-2.862 3.125,-4.425l-0,-18.491c-0,-1.3 -0.783,-2.084 -1.825,-2.084c-0.521,0 -0.779,0 -1.3,0.263l-6.771,2.604c-1.562,0 -3.387,-1.562 -3.387,-4.687l-0,-24.221c-0,-1.821 1.304,-6.771 3.387,-7.55l6.771,-2.604" style="fill-rule:nonzero;"/></g><g><path d="M4504.98,292.242c23.175,-0 51.563,-21.354 51.563,-43.488c-0,-13.283 -10.417,-21.617 -25.263,-21.617c-28.645,0 -51.562,21.096 -51.562,43.492c-0,13.542 11.2,21.613 25.262,21.613" style="fill-rule:nonzero;"/></g><g><path d="M4704.32,259.95c23.179,0 51.562,-21.354 51.562,-43.487c0,-13.284 -10.416,-21.617 -25.258,-21.617c-28.646,-0 -51.563,21.096 -51.563,43.492c0,13.541 11.196,21.612 25.259,21.612" style="fill-rule:nonzero;"/></g><g><path d="M4903.65,227.658c23.179,0 51.563,-21.354 51.563,-43.487c-0,-13.284 -10.417,-21.617 -25.259,-21.617c-28.646,0 -51.562,21.096 -51.562,43.492c-0,13.541 11.196,21.612 25.258,21.612" style="fill-rule:nonzero;"/></g><g><path d="M5102.94,195.367c23.175,-0 51.562,-21.354 51.562,-43.488c0,-13.283 -10.416,-21.616 -25.262,-21.616c-28.646,-0 -51.563,21.095 -51.563,43.491c0,13.542 11.2,21.613 25.263,21.613" style="fill-rule:nonzero;"/></g><g><path d="M5302.28,163.075c23.179,0 51.563,-21.354 51.563,-43.488c-0,-13.283 -10.417,-21.616 -25.259,-21.616c-28.646,-0 -51.562,21.096 -51.562,43.491c-0,13.542 11.196,21.613 25.258,21.613" style="fill-rule:nonzero;"/></g><g><path d="M5501.61,195.367c23.175,-0 51.563,-21.354 51.563,-43.488c-0,-13.283 -10.417,-21.616 -25.263,-21.616c-28.645,-0 -51.562,21.095 -51.562,43.491c-0,13.542 11.2,21.613 25.262,21.613" style="fill-rule:nonzero;"/></g><g><path d="M5700.94,227.658c23.179,0 51.562,-21.354 51.562,-43.487c0,-13.284 -10.416,-21.617 -25.258,-21.617c-28.646,0 -51.563,21.096 -51.563,43.492c0,13.541 11.196,21.612 25.259,21.612" style="fill-rule:nonzero;"/></g><g><path d="M5900.28,259.95c23.175,0 51.563,-21.354 51.563,-43.487c-0,-13.284 -10.417,-21.617 -25.263,-21.617c-28.646,-0 -51.562,21.096 -51.562,43.492c-0,13.541 11.2,21.612 25.262,21.612" style="fill-rule:nonzero;"/></g><g><path d="M6099.57,292.242c23.179,-0 51.562,-21.354 51.562,-43.488c0,-13.283 -10.416,-21.617 -25.258,-21.617c-28.646,0 -51.563,21.096 -51.563,43.492c0,13.542 11.196,21.613 25.259,21.613" style="fill-rule:nonzero;"/></g><g><path d="M6298.9,324.533c23.175,0 51.563,-21.354 51.563,-43.487c-0,-13.283 -10.417,-21.617 -25.263,-21.617c-28.646,0 -51.562,21.096 -51.562,43.492c-0,13.541 11.2,21.612 25.262,21.612" style="fill-rule:nonzero;"/></g><g><path d="M6412.73,313.075c0,0 -0.779,-15.625 -0.779,-26.042c0,-4.166 0.259,-7.291 0.521,-8.333c1.821,-5.208 12.238,-12.758 18.229,-12.758c7.55,-0 10.675,8.591 10.675,15.104c0,14.062 -11.979,28.125 -23.175,35.154c-1.041,0.521 -1.825,0.783 -2.604,0.783c-2.346,0 -2.867,-2.604 -2.867,-3.908m-9.112,23.179c0.779,1.042 1.562,1.3 2.342,1.3c0.783,0 1.562,-0.521 1.562,-0.521c7.813,-4.425 14.063,-11.458 20.575,-15.883c23.175,-16.146 31.25,-32.033 31.25,-44.012c0,-14.842 -11.458,-24.217 -23.437,-25.001c-4.43,0 -10.68,2.084 -14.325,4.43c-1.563,1.3 -4.425,3.645 -5.73,3.645c-0.52,0 -0.779,0 -1.3,-0.262c-1.825,-0.779 -2.866,-2.604 -2.866,-4.425c0.262,-5.729 1.825,-68.229 1.825,-73.437c-0,-2.867 -2.346,-4.43 -4.95,-4.43c-3.646,0 -7.813,2.605 -8.071,7.292c-0,0 1.042,148.7 3.125,151.304" style="fill-rule:nonzero;"/></g><g><path d="M6500.69,324.533c23.175,0 51.562,-21.354 51.562,-43.487c0,-13.283 -10.416,-21.617 -25.262,-21.617c-28.646,0 -51.563,21.096 -51.563,43.492c0,13.541 11.2,21.612 25.263,21.612" style="fill-rule:nonzero;"/></g><g><path d="M6700.03,356.825c23.179,0 51.563,-21.354 51.563,-43.488c-0,-13.283 -10.417,-21.616 -25.259,-21.616c-28.646,-0 -51.562,21.096 -51.562,43.491c-0,13.542 11.196,21.613 25.258,21.613" style="fill-rule:nonzero;"/></g><g><path d="M135.664,514.379c0.779,4.946 0.779,4.688 -3.909,6.25c-22.916,7.813 -37.758,28.384 -37.758,50.521c-0,23.438 12.237,40.104 29.946,46.092c2.083,0.783 5.208,1.562 7.033,1.562c2.083,0 3.125,-1.3 3.125,-2.862c0,-1.825 -2.083,-2.604 -3.908,-3.388c-10.938,-4.687 -18.75,-15.883 -18.75,-27.862c-0,-14.846 10.158,-26.042 26.041,-30.471c4.167,-1.042 4.688,-0.779 5.209,2.083l13.021,77.604c0.52,2.867 0.262,2.867 -3.646,3.646c-4.167,0.784 -9.375,1.304 -14.584,1.304c-45.57,0 -75,-25.262 -75,-61.458c0,-15.367 2.605,-35.937 24.221,-60.417c15.625,-17.45 27.604,-27.083 39.842,-36.979c2.604,-2.083 3.125,-1.825 3.646,1.042l5.471,33.333m28.383,-177.346c8.596,0 15.625,7.034 15.625,21.355c-0,28.908 -24.738,52.345 -45.313,70.312c-1.82,1.563 -2.862,1.304 -3.383,-2.083c-1.042,-6.771 -1.562,-15.625 -1.562,-23.959c-0,-40.625 18.75,-65.625 34.633,-65.625m-10.417,218.75c-0.521,-3.125 -0.258,-3.904 2.867,-3.645c21.092,1.825 38.542,19.533 38.542,42.45c-0,16.404 -9.896,29.687 -24.48,36.979c-3.125,1.562 -3.645,1.562 -4.166,-1.563l-12.763,-74.221m-14.062,-81.25c-0.521,-3.125 -0,-3.383 1.562,-4.945c28.125,-26.305 49.479,-59.375 49.479,-99.221c0,-22.655 -6.25,-45.05 -16.925,-60.675c-3.908,-5.73 -10.679,-13.021 -13.541,-13.021c-3.646,-0 -11.721,6.771 -16.929,12.5c-19.271,21.354 -25.521,53.904 -25.521,80.987c-0,15.105 1.825,32.034 3.646,42.709c0.52,3.125 0.783,3.646 -2.342,6.25c-37.5,30.991 -77.346,68.229 -77.346,120.833c0,45.313 30.992,88.283 94.792,88.283c5.991,0 12.762,-0.52 17.971,-1.562c2.862,-0.521 3.383,-0.783 3.904,2.342c3.125,17.45 7.033,40.104 7.033,52.345c0,38.542 -26.042,43.23 -41.408,43.23c-14.063,-0 -20.834,-4.167 -20.834,-7.555c0,-1.821 2.346,-2.604 8.334,-4.425c8.075,-2.346 17.45,-9.375 17.45,-24.479c-0,-14.325 -9.117,-26.562 -25,-26.562c-17.45,-0 -27.867,13.8 -27.867,29.946c0,16.929 10.158,42.449 49.479,42.449c17.45,0 51.304,-7.812 51.304,-52.083c0,-14.846 -4.687,-39.583 -7.554,-55.729c-0.521,-3.125 -0.258,-2.867 3.388,-4.429c26.3,-10.417 43.75,-32.55 43.75,-61.979c-0,-33.334 -24.479,-62.759 -62.763,-62.759c-6.771,0 -6.771,0 -7.55,-4.687l-6.512,-37.763" style="fill-rule:nonzero;"/></g><g><path d="M430.718,550.304l-0,-32.304l610.675,-16.146l-0,32.304l-610.675,16.146" style="fill-rule:nonzero;"/></g><g><path d="M430.718,598.754l-0,-32.304l610.675,-16.146l-0,32.304l-610.675,16.146" style="fill-rule:nonzero;"/></g><g><path d="M1241.39,485.292l-0,-32.579l605.858,-80.73l0,32.58l-605.858,80.729" style="fill-rule:nonzero;"/></g><g><path d="M1241.39,534.171l-0,-32.579l605.858,-80.729l0,32.579l-605.858,80.729" style="fill-rule:nonzero;"/></g><g><path d="M1969.78,792.621l0,-32.346l605.6,-32.292l0,32.346l-605.6,32.292" style="fill-rule:nonzero;"/></g><g><path d="M1969.78,744.117l0,-32.342l605.6,-32.292l0,32.342l-605.6,32.292" style="fill-rule:nonzero;"/></g><g><path d="M2766.78,712.242l0,-32.471l605.863,-64.583l-0,32.47l-605.863,64.584" style="fill-rule:nonzero;"/></g><g><path d="M2766.78,663.521l0,-32.475l605.863,-64.583l-0,32.475l-605.863,64.583" style="fill-rule:nonzero;"/></g><g><path d="M3671.61,599.221l0,-32.488l608.075,-64.579l0,32.484l-608.075,64.583" style="fill-rule:nonzero;"/></g><g><path d="M3671.61,550.5l0,-32.475l608.075,-64.583l0,32.475l-608.075,64.583" style="fill-rule:nonzero;"/></g><g><path d="M4479.82,534.196l-0,-32.304l605.6,-16.146l-0,32.304l-605.6,16.146" style="fill-rule:nonzero;"/></g><g><path d="M4479.82,485.746l-0,-32.304l605.6,-16.146l-0,32.304l-605.6,16.146" style="fill-rule:nonzero;"/></g><g><path d="M5277.07,518.05l-0,-32.304l605.729,16.146l-0,32.304l-605.729,-16.146" style="fill-rule:nonzero;"/></g><g><path d="M5277.07,469.6l-0,-32.304l605.729,16.146l-0,32.304l-605.729,-16.146" style="fill-rule:nonzero;"/></g><g><path d="M6074.32,518.05l-0,-32.304l608.204,16.146l-0,32.304l-608.204,-16.146" style="fill-rule:nonzero;"/></g><g><path d="M6074.32,469.6l-0,-32.304l608.204,16.146l-0,32.304l-608.204,-16.146" style="fill-rule:nonzero;"/></g><g><path d="M9.364,1357.61l3546.09,0" style="fill:none;stroke:#000;stroke-width:8.38px;"/><path d="M9.364,1293.03l3546.09,0" style="fill:none;stroke:#000;stroke-width:8.38px;"/><path d="M9.364,1486.78l3546.09,0" style="fill:none;stroke:#000;stroke-width:8.38px;"/><path d="M9.364,1422.19l3546.09,-0" style="fill:none;stroke:#000;stroke-width:8.38px;"/><path d="M9.364,1551.36l3546.09,0" style="fill:none;stroke:#000;stroke-width:8.38px;"/></g><g><path d="M2889.96,1288.83l0,266.721" style="fill:none;stroke:#000;stroke-width:10.33px;"/><path d="M3514.05,1288.83l-0,266.721" style="fill:none;stroke:#000;stroke-width:10.33px;"/><path d="M3550.24,1288.83l-0,266.721" style="fill:none;stroke:#000;stroke-width:10.33px;"/></g><g><path d="M365.48,1271.58l0,216.3" style="fill:none;stroke:#000;stroke-width:7.75px;"/><path d="M494.647,1303.87l-0,205.546" style="fill:none;stroke:#000;stroke-width:7.75px;"/><path d="M623.947,1336.16l-0,194.779" style="fill:none;stroke:#000;stroke-width:7.75px;"/><path d="M753.109,1368.45l0,184.009" style="fill:none;stroke:#000;stroke-width:7.75px;"/><path d="M935.143,1400.75l-0,199.412" style="fill:none;stroke:#000;stroke-width:7.75px;"/><path d="M1096.21,1433.04l0,182.316" style="fill:none;stroke:#000;stroke-width:7.75px;"/><path d="M1272.25,1433.04l0,198.933" style="fill:none;stroke:#000;stroke-width:7.75px;"/><path d="M1448.42,1465.33l-0,183.267" style="fill:none;stroke:#000;stroke-width:7.75px;"/><path d="M1646.6,1291.92l0,184.012" style="fill:none;stroke:#000;stroke-width:7.75px;"/><path d="M1775.9,1313.44l-0,194.779" style="fill:none;stroke:#000;stroke-width:7.75px;"/><path d="M1905.06,1334.96l-0,205.55" style="fill:none;stroke:#000;stroke-width:7.75px;"/><path d="M2034.23,1356.5l0,216.304" style="fill:none;stroke:#000;stroke-width:7.75px;"/><path d="M2216.26,1422.16l0,182.933" style="fill:none;stroke:#000;stroke-width:7.75px;"/></g><g><path d="M2132.67,1615.94l113.412,-0" style="fill:none;stroke:#000;stroke-width:10.33px;"/></g><g><path d="M2403.11,1427.27l0,210.121" style="fill:none;stroke:#000;stroke-width:7.75px;"/></g><g><path d="M2320.43,1615.94l112.371,-0" style="fill:none;stroke:#000;stroke-width:10.33px;"/></g><g><path d="M2604.8,1432.79l0,204.6" style="fill:none;stroke:#000;stroke-width:7.75px;"/></g><g><path d="M2522.25,1615.94l112.371,-0" style="fill:none;stroke:#000;stroke-width:10.33px;"/></g><g><path d="M2806.63,1438.31l0,231.371" style="fill:none;stroke:#000;stroke-width:7.75px;"/></g><g><path d="M2722.9,1680.53l113.413,0" style="fill:none;stroke:#000;stroke-width:10.33px;"/><path d="M2707.93,1615.94l128.388,-0" style="fill:none;stroke:#000;stroke-width:10.33px;"/><path d="M2966.26,1680.53l161.592,0" style="fill:none;stroke:#000;stroke-width:10.33px;"/><path d="M2966.26,1615.94l161.592,-0" style="fill:none;stroke:#000;stroke-width:10.33px;"/></g><g><path d="M385.101,1160.21c0,-0 -0.258,1.041 -0.258,1.82c-0,1.042 1.041,2.084 2.083,2.084c0.779,-0 1.3,-0.779 1.563,-1.042c0.258,-0.779 3.383,-11.458 4.945,-14.063c0.521,-1.041 1.042,-1.299 1.305,-1.299c0.52,-0 0.779,1.041 0.779,1.82l-0,37.242c-0,3.125 -2.604,4.946 -5.209,4.946c-1.041,-0 -2.341,0.521 -2.341,2.083c-0,1.563 1.3,2.084 3.383,2.084l21.875,-0c2.083,-0 2.083,-2.084 2.083,-2.084c0,0 0,-2.083 -2.083,-2.083c-1.821,-0 -4.167,-2.342 -4.167,-4.688l0,-54.166c0,-2.084 -0.779,-3.125 -2.604,-3.125c-1.821,-0 -3.383,0.521 -4.946,0.521c-2.604,-0 -3.125,-0 -5.208,-0.521c-1.042,-0 -2.346,1.562 -3.125,2.604l-8.075,27.867" style="fill-rule:nonzero;"/></g><g><path d="M543.08,1204.95l0,-27.862c0,-1.305 -0.262,-2.346 -1.562,-2.346c-1.042,-0 -1.825,0.262 -2.604,1.304l-7.813,15.104c-0.521,0.521 -1.304,1.3 -1.304,3.125l-0,10.675l-16.925,0c10.675,-8.854 27.342,-38.279 27.604,-39.842c0,-0.262 0.258,-0.52 0.258,-0.783c0,-1.042 -1.041,-1.821 -1.82,-1.821c-1.305,0 -6.771,0.521 -9.117,0.521c-2.342,0 -3.904,-0.521 -4.946,-0.521c-1.304,0 -3.125,0.521 -3.125,2.604c0,16.667 -13.542,35.675 -16.929,40.363c-0.521,0.521 -1.042,1.304 -1.042,2.083c0,1.304 1.042,2.604 2.604,2.604l23.438,0l-0,8.075c-0,3.646 -2.083,4.688 -4.167,4.688c-2.341,-0 -3.383,1.041 -3.383,2.341c-0,1.305 0.521,2.867 2.862,2.867l22.396,0c1.304,0 2.604,-1.042 2.604,-2.867c0,-1.82 -1.562,-2.604 -2.862,-2.604c-1.304,0 -4.167,-0.779 -4.167,-4.946l0,-7.554l9.634,0c1.304,0 2.083,-1.041 2.083,-2.604c-0,-1.562 -0.521,-2.604 -2.083,-2.604l-9.634,0" style="fill-rule:nonzero;"/></g><g><path d="M655.726,1162.82c-14.325,-0 -20.575,9.633 -20.575,15.104c0,3.646 2.083,8.071 8.596,8.333c4.946,0 7.292,-3.125 7.292,-6.512l-0,-1.042c-0.263,-3.904 -2.867,-4.167 -3.388,-4.425c-0.521,-0.263 -1.562,-1.304 -1.562,-3.125c0.52,-2.867 4.429,-3.908 5.47,-3.908c13.28,-0 17.188,7.033 17.188,11.458c-0,12.242 -12.5,13.283 -16.408,13.542c-1.821,-0 -3.646,0.783 -3.646,2.345c-0,1.563 2.346,1.563 3.387,1.563c15.104,-0 17.188,7.812 17.188,11.717c-0,15.104 -12.242,15.625 -15.367,15.625c-1.562,-0 -4.167,-0.78 -4.425,-2.084l0,-1.562c0,-2.863 0.779,-5.988 1.042,-8.592c-0,-4.687 -3.125,-7.554 -7.813,-7.554l-1.041,-0c-1.825,0.521 -3.646,1.562 -4.95,2.867c-1.821,1.562 -2.342,3.904 -2.342,6.25c0.258,8.333 7.55,15.362 20.571,15.625l1.562,-0c12.763,-0 26.042,-6.771 26.042,-18.23c-0,-2.604 -0.521,-4.687 -1.3,-6.25c-0.521,-1.562 -1.563,-2.866 -2.604,-3.908c-0.784,-1.042 -1.825,-1.821 -2.867,-2.604l-2.862,-1.563l-1.563,-0.52c-0.521,-0 -0.783,-0.259 -1.304,-0.259l-1.563,-0.521c-0.779,-0.262 -1.041,0 -1.3,-0.52c-0.262,-0.263 -0.262,-0.521 -0.262,-0.784c-0,-0.521 0.262,-1.041 0.783,-1.041l4.167,-1.3c1.821,-1.042 3.646,-1.825 4.946,-3.646c2.083,-2.084 2.866,-5.471 2.866,-8.334c0,-12.241 -16.145,-15.625 -21.875,-16.145l-2.083,-0" style="fill-rule:nonzero;"/></g><g><path d="M772.68,1192.76c0,-0 -0.262,1.041 -0.262,1.825c-0,1.041 1.041,2.083 2.083,2.083c0.783,-0 1.304,-0.783 1.563,-1.042c0.262,-0.783 3.387,-11.458 4.95,-14.062c0.52,-1.042 1.041,-1.304 1.3,-1.304c0.52,-0 0.783,1.041 0.783,1.824l-0,37.238c-0,3.125 -2.604,4.95 -5.208,4.95c-1.042,-0 -2.346,0.521 -2.346,2.083c-0,1.563 1.304,2.084 3.387,2.084l21.875,-0c2.084,-0 2.084,-2.084 2.084,-2.084c-0,0 -0,-2.083 -2.084,-2.083c-1.825,-0 -4.166,-2.346 -4.166,-4.688l-0,-54.166c-0,-2.084 -0.784,-3.125 -2.605,-3.125c-1.825,-0 -3.387,0.521 -4.95,0.521c-2.604,-0 -3.125,-0 -5.208,-0.521c-1.042,-0 -2.342,1.562 -3.125,2.604l-8.071,27.862" style="fill-rule:nonzero;"/></g><g><path d="M954.776,1192.76c0,-0 -0.258,1.041 -0.258,1.825c-0,1.041 1.041,2.083 2.083,2.083c0.779,-0 1.3,-0.783 1.563,-1.042c0.258,-0.783 3.383,-11.458 4.945,-14.062c0.521,-1.042 1.042,-1.304 1.305,-1.304c0.52,-0 0.779,1.041 0.779,1.824l-0,37.238c-0,3.125 -2.604,4.95 -5.209,4.95c-1.041,-0 -2.341,0.521 -2.341,2.083c-0,1.563 1.3,2.084 3.383,2.084l21.875,-0c2.083,-0 2.083,-2.084 2.083,-2.084c0,0 0,-2.083 -2.083,-2.083c-1.821,-0 -4.167,-2.346 -4.167,-4.688l0,-54.166c0,-2.084 -0.779,-3.125 -2.604,-3.125c-1.821,-0 -3.383,0.521 -4.946,0.521c-2.604,-0 -3.125,-0 -5.208,-0.521c-1.042,-0 -2.346,1.562 -3.125,2.604l-8.075,27.862" style="fill-rule:nonzero;"/></g><g><path d="M1144.59,1205l-0,-27.866c-0,-1.301 -0.259,-2.342 -1.563,-2.342c-1.041,-0 -1.821,0.258 -2.604,1.3l-7.812,15.104c-0.521,0.521 -1.3,1.304 -1.3,3.125l-0,10.679l-16.93,0c10.68,-8.854 27.346,-38.283 27.605,-39.846c-0,-0.258 0.262,-0.521 0.262,-0.779c0,-1.042 -1.042,-1.825 -1.825,-1.825c-1.3,0 -6.771,0.521 -9.112,0.521c-2.346,0 -3.909,-0.521 -4.95,-0.521c-1.3,0 -3.125,0.521 -3.125,2.604c-0,16.667 -13.542,35.679 -16.925,40.367c-0.521,0.521 -1.042,1.3 -1.042,2.083c-0,1.3 1.042,2.604 2.604,2.604l23.438,0l-0,8.071c-0,3.646 -2.084,4.688 -4.167,4.688c-2.346,-0 -3.388,1.042 -3.388,2.346c0,1.3 0.521,2.862 2.867,2.862l22.396,0c1.3,0 2.604,-1.042 2.604,-2.862c0,-1.825 -1.562,-2.605 -2.867,-2.605c-1.3,0 -4.166,-0.783 -4.166,-4.949l-0,-7.551l9.637,0c1.3,0 2.084,-1.041 2.084,-2.604c-0,-1.562 -0.521,-2.604 -2.084,-2.604l-9.637,0" style="fill-rule:nonzero;"/></g><g><path d="M1304.15,1162.82c-14.321,-0 -20.571,9.633 -20.571,15.104c0,3.646 2.084,8.071 8.592,8.333c4.95,0 7.292,-3.125 7.292,-6.512l-0,-1.042c-0.259,-3.904 -2.863,-4.167 -3.384,-4.425c-0.521,-0.263 -1.562,-1.304 -1.562,-3.125c0.521,-2.867 4.425,-3.908 5.466,-3.908c13.284,-0 17.188,7.033 17.188,11.458c-0,12.242 -12.5,13.283 -16.404,13.542c-1.825,-0 -3.646,0.783 -3.646,2.345c-0,1.563 2.342,1.563 3.383,1.563c15.104,-0 17.188,7.812 17.188,11.717c-0,15.104 -12.238,15.625 -15.363,15.625c-1.562,-0 -4.166,-0.78 -4.429,-2.084l0,-1.562c0,-2.863 0.783,-5.988 1.042,-8.592c-0,-4.687 -3.125,-7.554 -7.813,-7.554l-1.041,-0c-1.821,0.521 -3.646,1.562 -4.946,2.867c-1.825,1.562 -2.346,3.904 -2.346,6.25c0.262,8.333 7.554,15.362 20.575,15.625l1.562,-0c12.759,-0 26.042,-6.771 26.042,-18.23c0,-2.604 -0.521,-4.687 -1.304,-6.25c-0.521,-1.562 -1.563,-2.866 -2.604,-3.908c-0.779,-1.042 -1.821,-1.821 -2.863,-2.604l-2.866,-1.563l-1.563,-0.52c-0.521,-0 -0.779,-0.259 -1.3,-0.259l-1.562,-0.521c-0.784,-0.262 -1.042,0 -1.305,-0.52c-0.258,-0.263 -0.258,-0.521 -0.258,-0.784c0,-0.521 0.258,-1.041 0.779,-1.041l4.167,-1.3c1.825,-1.042 3.646,-1.825 4.95,-3.646c2.083,-2.084 2.862,-5.471 2.862,-8.334c0,-12.241 -16.145,-15.625 -21.875,-16.145l-2.083,-0" style="fill-rule:nonzero;"/></g><g><path d="M1467.99,1192.76c-0,-0 -0.263,1.041 -0.263,1.825c0,1.041 1.042,2.083 2.084,2.083c0.783,-0 1.304,-0.783 1.562,-1.042c0.263,-0.783 3.388,-11.458 4.95,-14.062c0.521,-1.042 1.042,-1.304 1.3,-1.304c0.521,-0 0.783,1.041 0.783,1.824l0,37.238c0,3.125 -2.604,4.95 -5.208,4.95c-1.042,-0 -2.346,0.521 -2.346,2.083c0,1.563 1.304,2.084 3.388,2.084l21.875,-0c2.083,-0 2.083,-2.084 2.083,-2.084c0,0 0,-2.083 -2.083,-2.083c-1.825,-0 -4.167,-2.346 -4.167,-4.688l0,-54.166c0,-2.084 -0.783,-3.125 -2.604,-3.125c-1.825,-0 -3.388,0.521 -4.95,0.521c-2.604,-0 -3.125,-0 -5.208,-0.521c-1.042,-0 -2.342,1.562 -3.125,2.604l-8.071,27.862" style="fill-rule:nonzero;"/></g><g><path d="M1597.18,1192.76c0,-0 -0.258,1.041 -0.258,1.825c0,1.041 1.042,2.083 2.083,2.083c0.78,-0 1.3,-0.783 1.563,-1.042c0.258,-0.783 3.383,-11.458 4.946,-14.062c0.521,-1.042 1.041,-1.304 1.304,-1.304c0.521,-0 0.779,1.041 0.779,1.824l0,37.238c0,3.125 -2.604,4.95 -5.208,4.95c-1.042,-0 -2.342,0.521 -2.342,2.083c0,1.563 1.3,2.084 3.383,2.084l21.875,-0c2.084,-0 2.084,-2.084 2.084,-2.084c-0,0 -0,-2.083 -2.084,-2.083c-1.82,-0 -4.166,-2.346 -4.166,-4.688l-0,-54.166c-0,-2.084 -0.779,-3.125 -2.604,-3.125c-1.821,-0 -3.384,0.521 -4.946,0.521c-2.604,-0 -3.125,-0 -5.209,-0.521c-1.041,-0 -2.345,1.562 -3.125,2.604l-8.075,27.862" style="fill-rule:nonzero;"/></g><g><path d="M1755.17,1205l-0,-27.866c-0,-1.301 -0.263,-2.342 -1.563,-2.342c-1.041,-0 -1.825,0.258 -2.604,1.3l-7.812,15.104c-0.521,0.521 -1.305,1.304 -1.305,3.125l0,10.679l-16.925,0c10.675,-8.854 27.342,-38.283 27.605,-39.846c-0,-0.258 0.258,-0.521 0.258,-0.779c-0,-1.042 -1.042,-1.825 -1.821,-1.825c-1.304,0 -6.771,0.521 -9.117,0.521c-2.341,0 -3.904,-0.521 -4.945,-0.521c-1.305,0 -3.125,0.521 -3.125,2.604c-0,16.667 -13.542,35.679 -16.93,40.367c-0.52,0.521 -1.041,1.3 -1.041,2.083c-0,1.3 1.041,2.604 2.604,2.604l23.437,0l0,8.071c0,3.646 -2.083,4.688 -4.166,4.688c-2.342,-0 -3.384,1.042 -3.384,2.346c0,1.3 0.521,2.862 2.863,2.862l22.396,0c1.304,0 2.604,-1.042 2.604,-2.862c-0,-1.825 -1.563,-2.605 -2.863,-2.605c-1.304,0 -4.166,-0.783 -4.166,-4.949l-0,-7.551l9.633,0c1.304,0 2.083,-1.041 2.083,-2.604c0,-1.562 -0.52,-2.604 -2.083,-2.604l-9.633,0" style="fill-rule:nonzero;"/></g><g><path d="M1867.81,1162.82c-14.32,-0 -20.57,9.633 -20.57,15.104c-0,3.646 2.083,8.071 8.591,8.333c4.95,0 7.292,-3.125 7.292,-6.512l-0,-1.042c-0.258,-3.904 -2.863,-4.167 -3.383,-4.425c-0.521,-0.263 -1.563,-1.304 -1.563,-3.125c0.521,-2.867 4.425,-3.908 5.467,-3.908c13.283,-0 17.187,7.033 17.187,11.458c0,12.242 -12.5,13.283 -16.404,13.542c-1.825,-0 -3.646,0.783 -3.646,2.345c0,1.563 2.342,1.563 3.384,1.563c15.104,-0 17.187,7.812 17.187,11.717c0,15.104 -12.237,15.625 -15.362,15.625c-1.563,-0 -4.167,-0.78 -4.43,-2.084l0,-1.562c0,-2.863 0.784,-5.988 1.042,-8.592c0,-4.687 -3.125,-7.554 -7.812,-7.554l-1.042,-0c-1.821,0.521 -3.646,1.562 -4.946,2.867c-1.825,1.562 -2.346,3.904 -2.346,6.25c0.263,8.333 7.554,15.362 20.575,15.625l1.563,-0c12.758,-0 26.041,-6.771 26.041,-18.23c0,-2.604 -0.52,-4.687 -1.304,-6.25c-0.521,-1.562 -1.562,-2.866 -2.604,-3.908c-0.779,-1.042 -1.821,-1.821 -2.862,-2.604l-2.867,-1.563l-1.563,-0.52c-0.52,-0 -0.779,-0.259 -1.3,-0.259l-1.562,-0.521c-0.783,-0.262 -1.042,0 -1.304,-0.52c-0.259,-0.263 -0.259,-0.521 -0.259,-0.784c0,-0.521 0.259,-1.041 0.78,-1.041l4.166,-1.3c1.825,-1.042 3.646,-1.825 4.95,-3.646c2.084,-2.084 2.863,-5.471 2.863,-8.334c-0,-12.241 -16.146,-15.625 -21.875,-16.145l-2.084,-0" style="fill-rule:nonzero;"/></g><g><path d="M1984.76,1192.76c-0,-0 -0.263,1.041 -0.263,1.825c0,1.041 1.042,2.083 2.083,2.083c0.784,-0 1.305,-0.783 1.563,-1.042c0.262,-0.783 3.387,-11.458 4.95,-14.062c0.521,-1.042 1.042,-1.304 1.3,-1.304c0.521,-0 0.783,1.041 0.783,1.824l0,37.238c0,3.125 -2.604,4.95 -5.208,4.95c-1.042,-0 -2.346,0.521 -2.346,2.083c0,1.563 1.304,2.084 3.388,2.084l21.875,-0c2.083,-0 2.083,-2.084 2.083,-2.084c-0,0 -0,-2.083 -2.083,-2.083c-1.825,-0 -4.167,-2.346 -4.167,-4.688l-0,-54.166c-0,-2.084 -0.783,-3.125 -2.604,-3.125c-1.825,-0 -3.388,0.521 -4.95,0.521c-2.604,-0 -3.125,-0 -5.209,-0.521c-1.041,-0 -2.341,1.562 -3.125,2.604l-8.07,27.862" style="fill-rule:nonzero;"/></g><g><path d="M2166.86,1192.76c0,-0 -0.262,1.041 -0.262,1.825c-0,1.041 1.042,2.083 2.083,2.083c0.784,-0 1.304,-0.783 1.563,-1.042c0.262,-0.783 3.387,-11.458 4.95,-14.062c0.521,-1.042 1.041,-1.304 1.3,-1.304c0.521,-0 0.783,1.041 0.783,1.824l0,37.238c0,3.125 -2.604,4.95 -5.208,4.95c-1.042,-0 -2.346,0.521 -2.346,2.083c-0,1.563 1.304,2.084 3.387,2.084l21.875,-0c2.084,-0 2.084,-2.084 2.084,-2.084c-0,0 -0,-2.083 -2.084,-2.083c-1.825,-0 -4.166,-2.346 -4.166,-4.688l-0,-54.166c-0,-2.084 -0.784,-3.125 -2.604,-3.125c-1.825,-0 -3.388,0.521 -4.95,0.521c-2.605,-0 -3.125,-0 -5.209,-0.521c-1.041,-0 -2.341,1.562 -3.125,2.604l-8.071,27.862" style="fill-rule:nonzero;"/></g><g><path d="M2382.39,1205l-0,-27.866c-0,-1.301 -0.263,-2.342 -1.563,-2.342c-1.041,-0 -1.825,0.258 -2.604,1.3l-7.812,15.104c-0.521,0.521 -1.305,1.304 -1.305,3.125l0,10.679l-16.925,0c10.675,-8.854 27.342,-38.283 27.605,-39.846c-0,-0.258 0.258,-0.521 0.258,-0.779c-0,-1.042 -1.042,-1.825 -1.821,-1.825c-1.304,0 -6.771,0.521 -9.117,0.521c-2.341,0 -3.904,-0.521 -4.945,-0.521c-1.305,0 -3.125,0.521 -3.125,2.604c-0,16.667 -13.542,35.679 -16.93,40.367c-0.52,0.521 -1.041,1.3 -1.041,2.083c-0,1.3 1.041,2.604 2.604,2.604l23.437,0l0,8.071c0,3.646 -2.083,4.688 -4.166,4.688c-2.342,-0 -3.384,1.042 -3.384,2.346c0,1.3 0.521,2.862 2.863,2.862l22.396,0c1.304,0 2.604,-1.042 2.604,-2.862c-0,-1.825 -1.563,-2.605 -2.863,-2.605c-1.304,0 -4.166,-0.783 -4.166,-4.949l-0,-7.551l9.633,0c1.304,0 2.083,-1.041 2.083,-2.604c0,-1.562 -0.52,-2.604 -2.083,-2.604l-9.633,0" style="fill-rule:nonzero;"/></g><g><path d="M2567.64,1162.82c-14.321,-0 -20.571,9.633 -20.571,15.104c-0,3.646 2.083,8.071 8.591,8.333c4.95,0 7.292,-3.125 7.292,-6.512l0,-1.042c-0.258,-3.904 -2.862,-4.167 -3.383,-4.425c-0.521,-0.263 -1.563,-1.304 -1.563,-3.125c0.521,-2.867 4.425,-3.908 5.467,-3.908c13.283,-0 17.187,7.033 17.187,11.458c0,12.242 -12.5,13.283 -16.404,13.542c-1.825,-0 -3.646,0.783 -3.646,2.345c0,1.563 2.342,1.563 3.384,1.563c15.104,-0 17.187,7.812 17.187,11.717c0,15.104 -12.237,15.625 -15.362,15.625c-1.563,-0 -4.167,-0.78 -4.429,-2.084l-0,-1.562c-0,-2.863 0.783,-5.988 1.041,-8.592c0,-4.687 -3.125,-7.554 -7.812,-7.554l-1.042,-0c-1.821,0.521 -3.646,1.562 -4.946,2.867c-1.825,1.562 -2.346,3.904 -2.346,6.25c0.263,8.333 7.555,15.362 20.575,15.625l1.563,-0c12.758,-0 26.042,-6.771 26.042,-18.23c-0,-2.604 -0.521,-4.687 -1.305,-6.25c-0.52,-1.562 -1.562,-2.866 -2.604,-3.908c-0.779,-1.042 -1.821,-1.821 -2.862,-2.604l-2.867,-1.563l-1.562,-0.52c-0.521,-0 -0.78,-0.259 -1.3,-0.259l-1.563,-0.521c-0.783,-0.262 -1.042,0 -1.304,-0.52c-0.258,-0.263 -0.258,-0.521 -0.258,-0.784c-0,-0.521 0.258,-1.041 0.779,-1.041l4.166,-1.3c1.825,-1.042 3.646,-1.825 4.95,-3.646c2.084,-2.084 2.863,-5.471 2.863,-8.334c-0,-12.241 -16.146,-15.625 -21.875,-16.145l-2.083,-0" style="fill-rule:nonzero;"/></g><g><path d="M2757.2,1192.76c-0,-0 -0.258,1.041 -0.258,1.825c-0,1.041 1.041,2.083 2.083,2.083c0.779,-0 1.3,-0.783 1.562,-1.042c0.259,-0.783 3.384,-11.458 4.946,-14.062c0.521,-1.042 1.042,-1.304 1.304,-1.304c0.521,-0 0.78,1.041 0.78,1.824l-0,37.238c-0,3.125 -2.605,4.95 -5.209,4.95c-1.041,-0 -2.341,0.521 -2.341,2.083c-0,1.563 1.3,2.084 3.383,2.084l21.875,-0c2.083,-0 2.083,-2.084 2.083,-2.084c0,0 0,-2.083 -2.083,-2.083c-1.821,-0 -4.167,-2.346 -4.167,-4.688l0,-54.166c0,-2.084 -0.779,-3.125 -2.604,-3.125c-1.821,-0 -3.383,0.521 -4.946,0.521c-2.604,-0 -3.125,-0 -5.208,-0.521c-1.042,-0 -2.346,1.562 -3.125,2.604l-8.075,27.862" style="fill-rule:nonzero;"/></g><g><path d="M3032.13,1192.76c0,-0 -0.258,1.041 -0.258,1.825c-0,1.041 1.042,2.083 2.083,2.083c0.779,-0 1.3,-0.783 1.563,-1.042c0.258,-0.783 3.383,-11.458 4.946,-14.062c0.52,-1.042 1.041,-1.304 1.304,-1.304c0.521,-0 0.779,1.041 0.779,1.824l-0,37.238c-0,3.125 -2.604,4.95 -5.208,4.95c-1.042,-0 -2.342,0.521 -2.342,2.083c-0,1.563 1.3,2.084 3.383,2.084l21.875,-0c2.084,-0 2.084,-2.084 2.084,-2.084c-0,0 -0,-2.083 -2.084,-2.083c-1.821,-0 -4.166,-2.346 -4.166,-4.688l-0,-54.166c-0,-2.084 -0.78,-3.125 -2.605,-3.125c-1.82,-0 -3.383,0.521 -4.945,0.521c-2.605,-0 -3.125,-0 -5.209,-0.521c-1.041,-0 -2.346,1.562 -3.125,2.604l-8.075,27.862" style="fill-rule:nonzero;"/></g><g><path d="M386.889,1293.28c23.175,0 51.562,-21.354 51.562,-43.487c0,-13.283 -10.417,-21.617 -25.262,-21.617c-28.646,0 -51.563,21.096 -51.563,43.492c0,13.542 11.2,21.612 25.263,21.612" style="fill-rule:nonzero;"/></g><g><path d="M516.076,1325.58c23.179,0 51.563,-21.354 51.563,-43.487c-0,-13.284 -10.417,-21.617 -25.259,-21.617c-28.646,-0 -51.562,21.096 -51.562,43.492c-0,13.541 11.196,21.612 25.258,21.612" style="fill-rule:nonzero;"/></g><g><path d="M645.268,1357.87c23.179,-0 51.562,-21.354 51.562,-43.488c0,-13.283 -10.416,-21.616 -25.258,-21.616c-28.646,-0 -51.563,21.095 -51.563,43.491c0,13.542 11.196,21.613 25.259,21.613" style="fill-rule:nonzero;"/></g><g><path d="M774.459,1390.16c23.18,0 51.563,-21.354 51.563,-43.487c-0,-13.283 -10.417,-21.617 -25.258,-21.617c-28.646,0 -51.563,21.096 -51.563,43.492c0,13.542 11.196,21.612 25.258,21.612" style="fill-rule:nonzero;"/></g><g><path d="M894.101,1401.62c-1.562,5.208 -13.804,10.416 -19.792,10.416c-1.562,0 -2.866,-0.52 -3.125,-1.3c-0.52,-1.041 -0.783,-6.77 -0.783,-13.02c0,-8.075 0.263,-17.188 0.783,-19.271c0.521,-4.429 12.5,-9.896 19.009,-9.896c1.825,-0 3.387,0.521 3.908,1.562c0.521,1.3 1.042,7.813 1.042,14.842c-0,7.033 -0.521,14.325 -1.042,16.667m17.967,-42.446c1.825,-0.783 3.125,-2.867 3.125,-4.429l-0,-18.488c-0,-1.304 -0.779,-2.083 -1.821,-2.083c-0.521,-0 -0.783,-0 -1.304,0.258c-0,0 -5.209,2.084 -6.509,2.346c-1.825,0 -3.645,-1.304 -3.645,-3.387l-0,-31.771c-0,-1.563 -1.563,-2.863 -3.646,-2.863c-2.604,0 -4.167,1.3 -4.167,2.863l0,33.854c-0.262,2.604 -1.042,5.992 -3.387,7.554c-3.125,1.821 -11.98,5.467 -16.405,6.508c-2.345,0 -3.125,-3.125 -3.125,-5.208l0,-31.25c0,-1.562 -1.825,-2.862 -3.645,-2.862c-2.605,-0 -4.167,1.3 -4.167,2.862l-0,35.158c-0,3.646 -1.563,6.25 -3.125,7.03c-1.563,0.783 -6.771,2.866 -6.771,2.866c-1.825,0.521 -3.125,2.604 -3.125,4.167l0,18.487c0,1.563 0.779,2.346 2.083,2.346c1.042,0 5.988,-2.346 6.771,-2.866c0.259,-0 0.521,-0.259 0.779,-0.259c1.825,0 3.388,2.604 3.388,4.688l-0,25.779c-0,2.867 -1.304,5.208 -2.867,5.992c-1.562,0.52 -7.029,2.862 -7.029,2.862c-1.825,0.521 -3.125,2.604 -3.125,4.167l0,18.491c0,1.563 0.779,2.342 2.083,2.342c0.259,0 0.78,-0.258 1.042,-0.258c0,-0 3.646,-1.563 5.988,-2.346c0.262,-0.258 0.52,-0.258 0.783,-0.258c1.821,-0 3.125,2.862 3.125,4.166l-0,32.029c-0,1.563 1.562,2.867 3.383,2.867c2.604,0 4.429,-1.304 4.429,-2.867l0,-36.195c0,-3.388 1.3,-5.209 2.605,-5.73l15.883,-6.512c0.262,-0 0.783,-0.258 1.042,-0.258c2.083,-0 3.387,3.125 3.387,4.687l0,32.55c0,1.563 1.563,2.867 3.383,2.867c2.867,-0 4.43,-1.304 4.43,-2.867l-0,-36.979c-0,-2.083 1.041,-5.208 2.862,-5.988c1.825,-0.783 7.292,-2.866 7.292,-2.866c1.825,-0.779 3.125,-2.863 3.125,-4.425l-0,-18.492c-0,-1.3 -0.779,-2.083 -1.821,-2.083c-0.521,-0 -0.783,-0 -1.304,0.262l-6.771,2.604c-1.563,0 -3.383,-1.562 -3.383,-4.687l-0,-24.221c-0,-1.821 1.3,-6.771 3.383,-7.55l6.771,-2.604" style="fill-rule:nonzero;"/></g><g><path d="M956.559,1422.45c23.18,0 51.563,-21.354 51.563,-43.487c-0,-13.284 -10.417,-21.617 -25.258,-21.617c-28.646,-0 -51.563,21.096 -51.563,43.492c0,13.541 11.196,21.612 25.258,21.612" style="fill-rule:nonzero;"/></g><g><path d="M1042.08,1412.03c0,-3.645 15.888,-10.416 22.138,-10.416c1.562,-0 2.341,0.262 2.341,1.304l0,26.821c0,4.687 -14.841,10.679 -21.354,10.679c-1.821,-0 -3.125,-0.521 -3.125,-1.563l0,-26.825m27.084,-36.979c-0.521,0 -0.78,0.263 -1.042,0.263c-0,-0 -16.667,5.987 -23.438,5.987c-1.562,0 -2.604,-0.258 -2.604,-1.3l0,-43.491c0,-1.821 -1.562,-3.125 -3.125,-3.125l-3.383,-0c-1.825,-0 -3.125,1.304 -3.125,3.125l-0,134.116c-0,1.563 0.779,2.342 2.083,2.342c0.259,-0 1.563,-0.259 1.821,-0.521c3.646,-1.563 18.229,-7.813 25.783,-7.813c2.605,0.001 4.425,0.784 4.425,2.867l0,38.8c0,1.825 1.305,3.125 3.125,3.125l3.388,0c1.562,0 3.125,-1.3 3.125,-3.125l-0,-130.729c-0,-1.3 -1.042,-2.083 -2.083,-2.083c-0.263,-0 -0.784,-0 -1.042,0.262l-3.908,1.3" style="fill-rule:nonzero;"/></g><g><path d="M1117.59,1454.74c23.179,-0 51.562,-21.354 51.562,-43.488c0,-13.283 -10.417,-21.616 -25.258,-21.616c-28.646,-0 -51.563,21.095 -51.563,43.491c0,13.542 11.196,21.613 25.259,21.613" style="fill-rule:nonzero;"/></g><g><path d="M1205.73,1443.28c0,0 -0.779,-15.625 -0.779,-26.041c-0,-4.167 0.258,-7.292 0.521,-8.334c1.821,-5.208 12.237,-12.758 18.229,-12.758c7.55,0 10.675,8.592 10.675,15.104c-0,14.063 -11.979,28.125 -23.175,35.154c-1.042,0.521 -1.825,0.784 -2.604,0.784c-2.346,-0 -2.867,-2.605 -2.867,-3.909m-9.112,23.179c0.779,1.042 1.562,1.301 2.341,1.301c0.784,-0 1.563,-0.521 1.563,-0.521c7.812,-4.425 14.062,-11.459 20.575,-15.884c23.175,-16.146 31.25,-32.033 31.25,-44.012c-0,-14.842 -11.459,-24.217 -23.438,-25c-4.429,-0 -10.679,2.083 -14.325,4.429c-1.562,1.3 -4.425,3.646 -5.729,3.646c-0.521,-0 -0.779,-0 -1.3,-0.263c-1.825,-0.779 -2.867,-2.604 -2.867,-4.425c0.263,-5.729 1.825,-68.229 1.825,-73.437c0,-2.867 -2.345,-4.429 -4.95,-4.429c-3.645,-0 -7.812,2.604 -8.07,7.291c-0,0 1.041,148.7 3.125,151.304" style="fill-rule:nonzero;"/></g><g><path d="M1293.7,1454.74c23.175,-0 51.562,-21.354 51.562,-43.488c0,-13.283 -10.416,-21.616 -25.262,-21.616c-28.646,-0 -51.563,21.095 -51.563,43.491c0,13.542 11.2,21.613 25.263,21.613" style="fill-rule:nonzero;"/></g><g><path d="M1381.82,1475.58c-0,0 -0.783,-15.625 -0.783,-26.042c-0,-4.166 0.262,-7.291 0.52,-8.333c1.825,-5.208 12.242,-12.758 18.23,-12.758c7.554,-0 10.679,8.591 10.679,15.104c-0,14.062 -11.979,28.125 -23.179,35.154c-1.042,0.521 -1.821,0.783 -2.605,0.783c-2.341,0 -2.862,-2.604 -2.862,-3.908m-9.117,23.179c0.784,1.042 1.563,1.3 2.346,1.3c0.779,0 1.563,-0.521 1.563,-0.521c7.812,-4.425 14.062,-11.458 20.57,-15.883c23.18,-16.146 31.25,-32.033 31.25,-44.012c0,-14.842 -11.458,-24.217 -23.437,-25c-4.425,-0 -10.675,2.083 -14.321,4.429c-1.562,1.3 -4.429,3.645 -5.729,3.645c-0.521,0 -0.783,0 -1.304,-0.262c-1.821,-0.779 -2.863,-2.604 -2.863,-4.425c0.259,-5.729 1.821,-68.229 1.821,-73.438c0,-2.866 -2.342,-4.429 -4.946,-4.429c-3.646,0 -7.812,2.605 -8.075,7.292c0,0 1.042,148.7 3.125,151.304" style="fill-rule:nonzero;"/></g><g><path d="M1469.79,1487.03c23.179,0 51.562,-21.354 51.562,-43.487c0,-13.283 -10.417,-21.617 -25.258,-21.617c-28.646,0 -51.563,21.096 -51.563,43.492c0,13.542 11.196,21.612 25.259,21.612" style="fill-rule:nonzero;"/></g><g><path d="M1598.97,1519.33c23.179,0 51.562,-21.354 51.562,-43.487c0,-13.284 -10.416,-21.617 -25.258,-21.617c-28.646,-0 -51.563,21.096 -51.563,43.492c0,13.541 11.196,21.612 25.259,21.612" style="fill-rule:nonzero;"/></g><g><path d="M1728.16,1551.62c23.18,-0 51.563,-21.354 51.563,-43.488c-0,-13.283 -10.417,-21.616 -25.258,-21.616c-28.646,-0 -51.563,21.095 -51.563,43.491c0,13.542 11.196,21.613 25.258,21.613" style="fill-rule:nonzero;"/></g><g><path d="M1857.36,1583.91c23.175,0 51.563,-21.354 51.563,-43.487c-0,-13.283 -10.417,-21.617 -25.263,-21.617c-28.646,0 -51.562,21.096 -51.562,43.492c-0,13.542 11.2,21.612 25.262,21.612" style="fill-rule:nonzero;"/></g><g><path d="M1986.55,1616.2c23.175,0 51.562,-21.354 51.562,-43.487c0,-13.284 -10.416,-21.617 -25.262,-21.617c-28.646,-0 -51.563,21.096 -51.563,43.492c0,13.541 11.2,21.612 25.263,21.612" style="fill-rule:nonzero;"/></g><g><path d="M2106.2,1627.66c-1.563,5.209 -13.804,10.417 -19.792,10.417c-1.562,0 -2.866,-0.521 -3.125,-1.3c-0.521,-1.042 -0.783,-6.771 -0.783,-13.021c-0,-8.075 0.262,-17.187 0.783,-19.271c0.521,-4.429 12.5,-9.896 19.009,-9.896c1.825,0 3.387,0.521 3.908,1.563c0.521,1.3 1.042,7.812 1.042,14.842c-0,7.033 -0.521,14.325 -1.042,16.666m17.967,-42.446c1.825,-0.783 3.125,-2.866 3.125,-4.429l-0,-18.487c-0,-1.304 -0.78,-2.084 -1.821,-2.084c-0.521,0 -0.784,0 -1.304,0.259c-0,-0 -5.209,2.083 -6.509,2.346c-1.825,-0 -3.646,-1.304 -3.646,-3.388l0,-31.771c0,-1.562 -1.562,-2.862 -3.645,-2.862c-2.605,-0 -4.167,1.3 -4.167,2.862l-0,33.854c-0.263,2.605 -1.042,5.992 -3.388,7.555c-3.125,1.82 -11.979,5.466 -16.404,6.508c-2.346,-0 -3.125,-3.125 -3.125,-5.208l0,-31.25c0,-1.563 -1.825,-2.863 -3.646,-2.863c-2.604,0 -4.166,1.3 -4.166,2.863l-0,35.158c-0,3.646 -1.563,6.25 -3.125,7.029c-1.563,0.783 -6.771,2.867 -6.771,2.867c-1.825,0.521 -3.125,2.604 -3.125,4.166l-0,18.488c-0,1.563 0.779,2.346 2.083,2.346c1.042,-0 5.988,-2.346 6.771,-2.867c0.258,0 0.521,-0.258 0.779,-0.258c1.825,-0 3.388,2.604 3.388,4.687l-0,25.78c-0,2.866 -1.304,5.208 -2.867,5.991c-1.562,0.521 -7.029,2.863 -7.029,2.863c-1.825,0.521 -3.125,2.604 -3.125,4.166l-0,18.492c-0,1.563 0.779,2.342 2.083,2.342c0.259,-0 0.779,-0.259 1.042,-0.259c-0,0 3.646,-1.562 5.987,-2.345c0.263,-0.259 0.521,-0.259 0.784,-0.259c1.821,0 3.125,2.863 3.125,4.167l-0,32.029c-0,1.563 1.562,2.867 3.383,2.867c2.604,-0 4.429,-1.304 4.429,-2.867l0,-36.196c0,-3.387 1.3,-5.208 2.604,-5.729l15.884,-6.512c0.262,-0 0.783,-0.259 1.041,-0.259c2.084,0 3.388,3.125 3.388,4.688l-0,32.55c-0,1.562 1.562,2.866 3.383,2.866c2.867,0 4.429,-1.304 4.429,-2.866l0,-36.979c0,-2.084 1.042,-5.209 2.863,-5.988c1.825,-0.783 7.292,-2.867 7.292,-2.867c1.825,-0.779 3.125,-2.862 3.125,-4.425l-0,-18.491c-0,-1.3 -0.78,-2.084 -1.821,-2.084c-0.521,0 -0.784,0 -1.304,0.263l-6.771,2.604c-1.563,0 -3.384,-1.563 -3.384,-4.688l0,-24.22c0,-1.821 1.3,-6.771 3.384,-7.55l6.771,-2.604" style="fill-rule:nonzero;"/></g><g><path d="M2168.64,1648.49c23.175,-0 51.562,-21.354 51.562,-43.488c0,-13.283 -10.416,-21.616 -25.262,-21.616c-28.646,-0 -51.563,21.095 -51.563,43.491c0,13.542 11.2,21.613 25.263,21.613" style="fill-rule:nonzero;"/></g><g><path d="M2279.88,1638.08c0,-3.646 15.884,-10.417 22.134,-10.417c1.562,0 2.345,0.263 2.345,1.304l0,26.821c0,4.688 -14.845,10.679 -21.354,10.679c-1.825,0 -3.125,-0.52 -3.125,-1.562l0,-26.825m27.084,-36.979c-0.521,-0 -0.784,0.262 -1.042,0.262c-0,0 -16.667,5.988 -23.438,5.988c-1.562,-0 -2.604,-0.259 -2.604,-1.3l0,-43.492c0,-1.821 -1.562,-3.125 -3.125,-3.125l-3.387,0c-1.821,0 -3.125,1.304 -3.125,3.125l-0,134.117c-0,1.562 0.783,2.341 2.083,2.341c0.263,0.001 1.563,-0.258 1.825,-0.52c3.646,-1.563 18.229,-7.813 25.779,-7.813c2.604,0 4.429,0.784 4.429,2.867l0,38.8c0,1.825 1.3,3.125 3.125,3.125l3.384,-0c1.562,-0 3.125,-1.3 3.125,-3.125l-0,-130.729c-0,-1.3 -1.042,-2.084 -2.084,-2.084c-0.258,0 -0.779,0 -1.041,0.263l-3.904,1.3" style="fill-rule:nonzero;"/></g><g><path d="M2355.39,1680.78c23.175,0 51.562,-21.354 51.562,-43.487c0,-13.283 -10.417,-21.617 -25.262,-21.617c-28.646,0 -51.563,21.096 -51.563,43.492c0,13.542 11.2,21.612 25.263,21.612" style="fill-rule:nonzero;"/></g><g><path d="M2469.21,1669.33c-0,0 -0.78,-15.625 -0.78,-26.042c0,-4.166 0.259,-7.291 0.521,-8.333c1.821,-5.208 12.238,-12.758 18.229,-12.758c7.55,-0 10.675,8.591 10.675,15.104c0,14.062 -11.979,28.125 -23.175,35.154c-1.041,0.521 -1.825,0.783 -2.604,0.783c-2.346,0 -2.866,-2.604 -2.866,-3.908m-9.113,23.179c0.779,1.042 1.563,1.3 2.342,1.3c0.783,0 1.562,-0.521 1.562,-0.521c7.813,-4.425 14.063,-11.458 20.575,-15.883c23.175,-16.146 31.25,-32.033 31.25,-44.012c0,-14.842 -11.458,-24.217 -23.437,-25c-4.429,-0 -10.679,2.083 -14.325,4.429c-1.563,1.3 -4.425,3.645 -5.729,3.645c-0.521,0 -0.78,0 -1.3,-0.262c-1.825,-0.779 -2.867,-2.604 -2.867,-4.425c0.262,-5.729 1.825,-68.229 1.825,-73.438c-0,-2.866 -2.346,-4.429 -4.95,-4.429c-3.646,0 -7.813,2.605 -8.071,7.292c0,0 1.042,148.7 3.125,151.304" style="fill-rule:nonzero;"/></g><g><path d="M2557.18,1680.78c23.175,0 51.563,-21.354 51.563,-43.487c-0,-13.283 -10.417,-21.617 -25.263,-21.617c-28.645,0 -51.562,21.096 -51.562,43.492c-0,13.542 11.2,21.612 25.262,21.612" style="fill-rule:nonzero;"/></g><g><path d="M2671.01,1701.62c-0,-0 -0.784,-15.625 -0.784,-26.042c0,-4.167 0.263,-7.292 0.521,-8.333c1.825,-5.209 12.242,-12.759 18.229,-12.759c7.554,0 10.679,8.592 10.679,15.105c0,14.062 -11.979,28.125 -23.179,35.154c-1.041,0.521 -1.821,0.783 -2.604,0.783c-2.342,0 -2.862,-2.604 -2.862,-3.908m-9.117,23.179c0.783,1.042 1.562,1.3 2.346,1.3c0.779,-0 1.562,-0.521 1.562,-0.521c7.813,-4.425 14.063,-11.458 20.571,-15.883c23.179,-16.146 31.25,-32.034 31.25,-44.013c0,-14.841 -11.458,-24.216 -23.437,-25c-4.425,0 -10.675,2.084 -14.321,4.429c-1.563,1.3 -4.429,3.646 -5.729,3.646c-0.521,0 -0.784,0 -1.305,-0.262c-1.82,-0.78 -2.862,-2.604 -2.862,-4.425c0.258,-5.73 1.821,-68.23 1.821,-73.438c-0,-2.866 -2.342,-4.429 -4.946,-4.429c-3.646,0 -7.813,2.604 -8.075,7.292c-0,-0 1.042,148.7 3.125,151.304" style="fill-rule:nonzero;"/></g><g><path d="M2758.98,1713.08c23.179,0 51.563,-21.354 51.563,-43.487c-0,-13.284 -10.417,-21.617 -25.259,-21.617c-28.645,-0 -51.562,21.096 -51.562,43.492c-0,13.541 11.196,21.612 25.258,21.612" style="fill-rule:nonzero;"/></g><g><path d="M3021.04,1696.41c2.862,-9.112 12.5,-10.416 20.57,-10.416c17.971,-0 32.292,19.271 32.292,34.896c0,8.074 -3.383,15.366 -11.979,17.449c-2.604,0.78 -5.467,1.042 -8.071,1.042c-9.375,0 -19.012,-6.25 -24.479,-13.542c-5.208,-5.991 -9.117,-14.845 -9.117,-23.179c0,-2.083 0.263,-4.166 0.784,-6.25m27.341,-16.145c-34.633,-0 -56.25,14.324 -56.25,32.033c0,17.446 14.846,33.071 53.646,33.071c42.708,-0 56.25,-14.842 56.25,-33.071c0,-18.492 -29.425,-32.033 -53.646,-32.033" style="fill-rule:nonzero;"/></g><g><path d="M135.664,1418.55c0.779,4.946 0.779,4.687 -3.909,6.25c-22.916,7.812 -37.758,28.383 -37.758,50.521c-0,23.437 12.237,40.104 29.946,46.091c2.083,0.784 5.208,1.563 7.033,1.563c2.083,-0 3.125,-1.3 3.125,-2.863c0,-1.825 -2.083,-2.604 -3.908,-3.387c-10.938,-4.688 -18.75,-15.883 -18.75,-27.863c-0,-14.845 10.158,-26.041 26.041,-30.47c4.167,-1.042 4.688,-0.78 5.209,2.083l13.021,77.604c0.52,2.867 0.262,2.867 -3.646,3.646c-4.167,0.783 -9.375,1.304 -14.584,1.304c-45.57,0 -75,-25.262 -75,-61.458c0,-15.367 2.605,-35.938 24.221,-60.417c15.625,-17.45 27.604,-27.083 39.842,-36.979c2.604,-2.083 3.125,-1.825 3.646,1.042l5.471,33.333m28.383,-177.346c8.596,0 15.625,7.033 15.625,21.354c-0,28.909 -24.738,52.346 -45.313,70.313c-1.82,1.562 -2.862,1.304 -3.383,-2.084c-1.042,-6.77 -1.562,-15.625 -1.562,-23.958c-0,-40.625 18.75,-65.625 34.633,-65.625m-10.417,218.75c-0.521,-3.125 -0.258,-3.904 2.867,-3.646c21.092,1.825 38.542,19.534 38.542,42.45c-0,16.404 -9.896,29.688 -24.48,36.979c-3.125,1.563 -3.645,1.563 -4.166,-1.562l-12.763,-74.221m-14.062,-81.25c-0.521,-3.125 -0,-3.383 1.562,-4.946c28.125,-26.304 49.479,-59.375 49.479,-99.221c0,-22.654 -6.25,-45.05 -16.925,-60.675c-3.908,-5.729 -10.679,-13.021 -13.541,-13.021c-3.646,0 -11.721,6.771 -16.929,12.5c-19.271,21.355 -25.521,53.905 -25.521,80.988c-0,15.104 1.825,32.033 3.646,42.708c0.52,3.125 0.783,3.646 -2.342,6.25c-37.5,30.992 -77.346,68.229 -77.346,120.834c0,45.312 30.992,88.283 94.792,88.283c5.991,-0 12.762,-0.521 17.971,-1.563c2.862,-0.52 3.383,-0.783 3.904,2.342c3.125,17.45 7.033,40.104 7.033,52.346c0,38.542 -26.042,43.229 -41.408,43.229c-14.063,0 -20.834,-4.167 -20.834,-7.554c0,-1.821 2.346,-2.604 8.334,-4.425c8.075,-2.346 17.45,-9.375 17.45,-24.479c-0,-14.325 -9.117,-26.563 -25,-26.563c-17.45,0 -27.867,13.8 -27.867,29.946c0,16.929 10.158,42.45 49.479,42.45c17.45,0 51.304,-7.812 51.304,-52.083c0,-14.846 -4.687,-39.584 -7.554,-55.729c-0.521,-3.125 -0.258,-2.867 3.388,-4.429c26.3,-10.417 43.75,-32.551 43.75,-61.98c-0,-33.333 -24.479,-62.758 -62.763,-62.758c-6.771,0 -6.771,0 -7.55,-4.688l-6.512,-37.762" style="fill-rule:nonzero;"/></g><g><path d="M361.576,1504.03l0,-32.733l395.313,64.583l-0,32.733l-395.313,-64.583" style="fill-rule:nonzero;"/></g><g><path d="M361.576,1454.92l0,-32.733l395.313,64.583l-0,32.733l-395.313,-64.583" style="fill-rule:nonzero;"/></g><g><path d="M931.234,1616.3l0,-32.433l521.096,48.437l0,32.434l-521.096,-48.438" style="fill-rule:nonzero;"/></g><g><path d="M931.234,1567.65l0,-32.433l521.096,48.437l0,32.433l-521.096,-48.437" style="fill-rule:nonzero;"/></g><g><path d="M1642.83,1308.5l0,-32.733l395.313,64.583l-0,32.733l-395.313,-64.583" style="fill-rule:nonzero;"/></g><g><path d="M1642.83,1357.61l0,-32.737l395.313,64.583l-0,32.738l-395.313,-64.584" style="fill-rule:nonzero;"/></g><g><path d="M2212.48,1438.33l0,-32.308l598.046,16.146l0,32.308l-598.046,-16.146" style="fill-rule:nonzero;"/></g><g><path d="M2212.48,1486.78l0,-32.304l598.046,16.146l0,32.304l-598.046,-16.146" style="fill-rule:nonzero;"/></g></g></svg>