<?xml version="1.0" encoding="UTF-8" standalone="no"?><!DOCTYPE svg PUBLIC "-//W3C//DTD SVG 1.1//EN" "http://www.w3.org/Graphics/SVG/1.1/DTD/svg11.dtd"><svg width="100%" height="100%" viewBox="0 0 1913 519" version="1.1" xmlns="http://www.w3.org/2000/svg" xmlns:xlink="http://www.w3.org/1999/xlink" xml:space="preserve" xmlns:serif="http://www.serif.com/" style="fill-rule:evenodd;clip-rule:evenodd;stroke-miterlimit:2;"><g><g><path d="M131.251,131.25l1650,-0" style="fill:none;stroke:#000;stroke-width:2.01px;"/><path d="M131.251,146.75l1650,-0" style="fill:none;stroke:#000;stroke-width:2.01px;"/><path d="M131.251,162.25l1650,-0" style="fill:none;stroke:#000;stroke-width:2.01px;"/><path d="M131.251,177.75l1650,-0" style="fill:none;stroke:#000;stroke-width:2.01px;"/><path d="M131.251,193.25l1650,-0" style="fill:none;stroke:#000;stroke-width:2.01px;"/></g><g><path d="M985.594,130.244l-0,64.012" style="fill:none;stroke:#000;stroke-width:2.48px;"/><path d="M1780,130.244l0,64.012" style="fill:none;stroke:#000;stroke-width:2.48px;"/></g><g><path d="M233.282,166.119l-0,63.278" style="fill:none;stroke:#000;stroke-width:1.86px;"/></g><g><path d="M209.594,224.25l30.844,-0" style="fill:none;stroke:#000;stroke-width:2.48px;"/><path d="M209.594,208.75l30.844,-0" style="fill:none;stroke:#000;stroke-width:2.48px;"/></g><g><path d="M284.751,164.828l-0,56.819" style="fill:none;stroke:#000;stroke-width:1.86px;"/></g><g><path d="M264.688,224.25l27.219,-0" style="fill:none;stroke:#000;stroke-width:2.48px;"/><path d="M261.063,208.75l30.844,-0" style="fill:none;stroke:#000;stroke-width:2.48px;"/></g><g><path d="M336.219,163.534l0,50.363" style="fill:none;stroke:#000;stroke-width:1.86px;"/></g><g><path d="M316.407,208.75l26.968,-0" style="fill:none;stroke:#000;stroke-width:2.48px;"/></g><g><path d="M387.688,162.244l-0,51.653" style="fill:none;stroke:#000;stroke-width:1.86px;"/></g><g><path d="M367.875,208.75l26.969,-0" style="fill:none;stroke:#000;stroke-width:2.48px;"/></g><g><path d="M439.157,150.522l-0,55.625" style="fill:none;stroke:#000;stroke-width:1.86px;"/></g><g><path d="M419.063,208.75l27.219,-0" style="fill:none;stroke:#000;stroke-width:2.48px;"/></g><g><path d="M498.625,140.837l0,57.56" style="fill:none;stroke:#000;stroke-width:1.86px;"/><path d="M558.125,131.147l0,51.75" style="fill:none;stroke:#000;stroke-width:1.86px;"/><path d="M601.032,180.353l-0,43.922" style="fill:none;stroke:#000;stroke-width:1.86px;"/><path d="M652.5,172.603l0,49.087" style="fill:none;stroke:#000;stroke-width:1.86px;"/><path d="M703.969,164.853l-0,54.253" style="fill:none;stroke:#000;stroke-width:1.86px;"/><path d="M755.406,164.853l0,51.672" style="fill:none;stroke:#000;stroke-width:1.86px;"/><path d="M806.844,157.103l-0,47.837" style="fill:none;stroke:#000;stroke-width:1.86px;"/><path d="M866.281,149.353l0,47.841" style="fill:none;stroke:#000;stroke-width:1.86px;"/><path d="M925.781,133.853l0,55.587" style="fill:none;stroke:#000;stroke-width:1.86px;"/><path d="M1011.06,126.103l0,51.744" style="fill:none;stroke:#000;stroke-width:1.86px;"/><path d="M1062.5,118.354l-0,54.327" style="fill:none;stroke:#000;stroke-width:1.86px;"/></g><g><path d="M1059,115.75l27.187,-0" style="fill:none;stroke:#000;stroke-width:2.48px;"/></g><g><path d="M1113.97,110.604l-0,56.911" style="fill:none;stroke:#000;stroke-width:1.86px;"/></g><g><path d="M1110.72,115.75l26.937,-0" style="fill:none;stroke:#000;stroke-width:2.48px;"/></g><g><path d="M1165.44,110.604l0,51.743" style="fill:none;stroke:#000;stroke-width:1.86px;"/></g><g><path d="M1162.19,115.75l26.938,-0" style="fill:none;stroke:#000;stroke-width:2.48px;"/></g><g><path d="M1216.88,102.854l-0,59.399" style="fill:none;stroke:#000;stroke-width:1.86px;"/></g><g><path d="M1213.38,100.25l27.219,-0" style="fill:none;stroke:#000;stroke-width:2.48px;"/><path d="M1213.62,115.75l26.969,-0" style="fill:none;stroke:#000;stroke-width:2.48px;"/></g><g><path d="M1276.34,95.104l-0,65.212" style="fill:none;stroke:#000;stroke-width:1.86px;"/></g><g><path d="M1273.09,100.25l26.968,-0" style="fill:none;stroke:#000;stroke-width:2.48px;"/><path d="M1269.22,115.75l30.843,-0" style="fill:none;stroke:#000;stroke-width:2.48px;"/></g><g><path d="M1335.84,79.604l0,78.774" style="fill:none;stroke:#000;stroke-width:1.86px;"/></g><g><path d="M1328.72,84.75l30.844,-0" style="fill:none;stroke:#000;stroke-width:2.48px;"/><path d="M1328.72,100.25l30.844,-0" style="fill:none;stroke:#000;stroke-width:2.48px;"/><path d="M1328.72,115.75l30.844,-0" style="fill:none;stroke:#000;stroke-width:2.48px;"/></g><g><path d="M1395.34,79.604l0,78.777" style="fill:none;stroke:#000;stroke-width:1.86px;"/></g><g><path d="M1388.22,84.75l30.844,-0" style="fill:none;stroke:#000;stroke-width:2.48px;"/><path d="M1388.22,100.25l30.844,-0" style="fill:none;stroke:#000;stroke-width:2.48px;"/><path d="M1388.22,115.75l30.844,-0" style="fill:none;stroke:#000;stroke-width:2.48px;"/></g><g><path d="M1446.81,87.354l0,72.318" style="fill:none;stroke:#000;stroke-width:1.86px;"/></g><g><path d="M1439.69,84.75l30.813,-0" style="fill:none;stroke:#000;stroke-width:2.48px;"/><path d="M1439.69,100.25l30.813,-0" style="fill:none;stroke:#000;stroke-width:2.48px;"/><path d="M1439.69,115.75l30.813,-0" style="fill:none;stroke:#000;stroke-width:2.48px;"/></g><g><path d="M1498.28,95.104l-0,65.862" style="fill:none;stroke:#000;stroke-width:1.86px;"/></g><g><path d="M1495.03,100.25l26.937,-0" style="fill:none;stroke:#000;stroke-width:2.48px;"/><path d="M1491.16,115.75l30.812,-0" style="fill:none;stroke:#000;stroke-width:2.48px;"/></g><g><path d="M1549.75,102.854l-0,59.402" style="fill:none;stroke:#000;stroke-width:1.86px;"/></g><g><path d="M1542.62,100.25l30.812,-0" style="fill:none;stroke:#000;stroke-width:2.48px;"/><path d="M1542.62,115.75l30.812,-0" style="fill:none;stroke:#000;stroke-width:2.48px;"/></g><g><path d="M1601.22,110.604l0,51.712" style="fill:none;stroke:#000;stroke-width:1.86px;"/></g><g><path d="M1594.09,115.75l30.813,-0" style="fill:none;stroke:#000;stroke-width:2.48px;"/></g><g><path d="M1660.69,118.354l-0,51.711" style="fill:none;stroke:#000;stroke-width:1.86px;"/></g><g><path d="M1657.19,115.75l27.219,-0" style="fill:none;stroke:#000;stroke-width:2.48px;"/></g><g><path d="M1720.19,126.103l-0,51.712" style="fill:none;stroke:#000;stroke-width:1.86px;"/></g><g><path d="M221.428,107.187c0,0 -0.062,0.25 -0.062,0.438c-0,0.25 0.25,0.5 0.5,0.5c0.187,-0 0.312,-0.188 0.375,-0.25c0.062,-0.188 0.812,-2.75 1.187,-3.375c0.125,-0.25 0.25,-0.313 0.313,-0.313c0.125,0 0.187,0.25 0.187,0.438l0,8.937c0,0.75 -0.625,1.188 -1.25,1.188c-0.25,-0 -0.562,0.125 -0.562,0.5c-0,0.375 0.312,0.5 0.812,0.5l5.25,-0c0.5,-0 0.5,-0.5 0.5,-0.5c0,-0 0,-0.5 -0.5,-0.5c-0.437,-0 -1,-0.563 -1,-1.125l0,-13c0,-0.5 -0.187,-0.75 -0.625,-0.75c-0.437,-0 -0.812,0.125 -1.187,0.125c-0.625,-0 -0.75,-0 -1.25,-0.125c-0.25,-0 -0.563,0.375 -0.75,0.625l-1.938,6.687" style="fill-rule:nonzero;"/></g><g><path d="M282.672,110.75c0,-0.438 -0.187,-0.5 -0.375,-0.5c-0.25,-0 -0.375,0.187 -0.437,0.375c-0.313,0.875 -1,2 -1.938,2c-0.125,-0 -0.25,-0 -0.375,-0.063l-0.937,-0.312c-0.625,-0.25 -2.125,-0.75 -3.375,-0.75c-0.438,-0 -0.813,0.062 -1.188,0.187c0.688,-1.187 3.938,-2.75 4.625,-2.937c2.25,-0.313 4.125,-1.625 4.125,-4.063c0,-1.5 -0.625,-2.5 -1.437,-3.25c-1.625,-1.312 -4,-1.5 -4.688,-1.5c-2.25,0 -4.062,0.125 -5.687,2c-0.438,0.5 -0.625,1 -0.625,1.5c-0,0.438 0.187,0.938 0.375,1.5c0.375,0.75 1.187,1.313 2.062,1.313c1.563,-0 1.75,-1.5 1.75,-2.188c0,-1.437 -1.562,-1.562 -1.562,-2.187c-0,-0.438 0.625,-1.188 2.5,-1.188c2.937,0 3.937,2.438 3.937,3.188c0,1.125 -0.375,2.187 -1,3.062c-1.125,1.438 -3.187,1.938 -4.75,2.938c-1.75,1.062 -2.937,2.875 -3.5,4.875c0,0.437 0.188,0.937 0.563,1.125c0.062,0.062 0.187,0.062 0.25,0.062c0.687,0 1.062,-1.937 2.937,-1.937c1.25,-0 1.688,1.687 4.5,1.687c1.313,0 3.75,-0.125 4.25,-4.937" style="fill-rule:nonzero;"/></g><g><path d="M331.272,110.125l-0,-6.688c-0,-0.312 -0.063,-0.562 -0.375,-0.562c-0.25,-0 -0.438,0.062 -0.625,0.312l-1.875,3.625c-0.125,0.125 -0.313,0.313 -0.313,0.75l0,2.563l-4.062,-0c2.562,-2.125 6.562,-9.188 6.625,-9.563c-0,-0.062 0.062,-0.125 0.062,-0.187c0,-0.25 -0.25,-0.438 -0.437,-0.438c-0.313,0 -1.625,0.125 -2.188,0.125c-0.562,0 -0.937,-0.125 -1.187,-0.125c-0.313,0 -0.75,0.125 -0.75,0.625c-0,4 -3.25,8.563 -4.063,9.688c-0.125,0.125 -0.25,0.312 -0.25,0.5c0,0.312 0.25,0.625 0.625,0.625l5.625,-0l0,1.937c0,0.875 -0.5,1.125 -1,1.125c-0.562,0 -0.812,0.25 -0.812,0.563c-0,0.312 0.125,0.687 0.687,0.687l5.375,0c0.313,0 0.625,-0.25 0.625,-0.687c0,-0.438 -0.375,-0.625 -0.687,-0.625c-0.313,-0 -1,-0.188 -1,-1.188l-0,-1.812l2.312,-0c0.313,-0 0.5,-0.25 0.5,-0.625c0,-0.375 -0.125,-0.625 -0.5,-0.625l-2.312,-0" style="fill-rule:nonzero;"/></g><g><path d="M382.741,110.125l-0,-6.688c-0,-0.312 -0.063,-0.562 -0.375,-0.562c-0.25,-0 -0.438,0.062 -0.625,0.312l-1.875,3.625c-0.125,0.125 -0.313,0.313 -0.313,0.75l0,2.563l-4.062,-0c2.562,-2.125 6.562,-9.188 6.625,-9.563c-0,-0.062 0.062,-0.125 0.062,-0.187c0,-0.25 -0.25,-0.438 -0.437,-0.438c-0.313,0 -1.625,0.125 -2.188,0.125c-0.562,0 -0.937,-0.125 -1.187,-0.125c-0.313,0 -0.75,0.125 -0.75,0.625c-0,4 -3.25,8.563 -4.063,9.688c-0.125,0.125 -0.25,0.312 -0.25,0.5c0,0.312 0.25,0.625 0.625,0.625l5.625,-0l0,1.937c0,0.875 -0.5,1.125 -1,1.125c-0.562,0 -0.812,0.25 -0.812,0.563c-0,0.312 0.125,0.687 0.687,0.687l5.375,0c0.313,0 0.625,-0.25 0.625,-0.687c0,-0.438 -0.375,-0.625 -0.687,-0.625c-0.313,-0 -1,-0.188 -1,-1.188l-0,-1.812l2.312,-0c0.313,-0 0.5,-0.25 0.5,-0.625c0,-0.375 -0.125,-0.625 -0.5,-0.625l-2.312,-0" style="fill-rule:nonzero;"/></g><g><path d="M427.275,107.187c0,0 -0.062,0.25 -0.062,0.438c-0,0.25 0.25,0.5 0.5,0.5c0.187,-0 0.312,-0.188 0.375,-0.25c0.062,-0.188 0.812,-2.75 1.187,-3.375c0.125,-0.25 0.25,-0.313 0.313,-0.313c0.125,0 0.187,0.25 0.187,0.438l0,8.937c0,0.75 -0.625,1.188 -1.25,1.188c-0.25,-0 -0.562,0.125 -0.562,0.5c-0,0.375 0.312,0.5 0.812,0.5l5.25,-0c0.5,-0 0.5,-0.5 0.5,-0.5c0,-0 0,-0.5 -0.5,-0.5c-0.437,-0 -1,-0.563 -1,-1.125l0,-13c0,-0.5 -0.187,-0.75 -0.625,-0.75c-0.437,-0 -0.812,0.125 -1.187,0.125c-0.625,-0 -0.75,-0 -1.25,-0.125c-0.25,-0 -0.563,0.375 -0.75,0.625l-1.938,6.687" style="fill-rule:nonzero;"/></g><g><path d="M496.519,110.75c-0,-0.438 -0.188,-0.5 -0.375,-0.5c-0.25,-0 -0.375,0.187 -0.438,0.375c-0.312,0.875 -1,2 -1.937,2c-0.125,-0 -0.25,-0 -0.375,-0.063l-0.938,-0.312c-0.625,-0.25 -2.125,-0.75 -3.375,-0.75c-0.437,-0 -0.812,0.062 -1.187,0.187c0.687,-1.187 3.937,-2.75 4.625,-2.937c2.25,-0.313 4.125,-1.625 4.125,-4.063c-0,-1.5 -0.625,-2.5 -1.438,-3.25c-1.625,-1.312 -4,-1.5 -4.687,-1.5c-2.25,0 -4.063,0.125 -5.688,2c-0.437,0.5 -0.625,1 -0.625,1.5c0,0.438 0.188,0.938 0.375,1.5c0.375,0.75 1.188,1.313 2.063,1.313c1.562,-0 1.75,-1.5 1.75,-2.188c-0,-1.437 -1.563,-1.562 -1.563,-2.187c0,-0.438 0.625,-1.188 2.5,-1.188c2.938,0 3.938,2.438 3.938,3.188c-0,1.125 -0.375,2.187 -1,3.062c-1.125,1.438 -3.188,1.938 -4.75,2.938c-1.75,1.062 -2.938,2.875 -3.5,4.875c-0,0.437 0.187,0.937 0.562,1.125c0.063,0.062 0.188,0.062 0.25,0.062c0.688,0 1.063,-1.937 2.938,-1.937c1.25,-0 1.687,1.687 4.5,1.687c1.312,0 3.75,-0.125 4.25,-4.937" style="fill-rule:nonzero;"/></g><g><path d="M553.153,110.125l0,-6.688c0,-0.312 -0.062,-0.562 -0.375,-0.562c-0.25,-0 -0.437,0.062 -0.625,0.312l-1.875,3.625c-0.125,0.125 -0.312,0.313 -0.312,0.75l-0,2.563l-4.063,-0c2.563,-2.125 6.563,-9.188 6.625,-9.563c0,-0.062 0.063,-0.125 0.063,-0.187c-0,-0.25 -0.25,-0.438 -0.438,-0.438c-0.312,0 -1.625,0.125 -2.187,0.125c-0.563,0 -0.938,-0.125 -1.188,-0.125c-0.312,0 -0.75,0.125 -0.75,0.625c0,4 -3.25,8.563 -4.062,9.688c-0.125,0.125 -0.25,0.312 -0.25,0.5c-0,0.312 0.25,0.625 0.625,0.625l5.625,-0l-0,1.937c-0,0.875 -0.5,1.125 -1,1.125c-0.563,0 -0.813,0.25 -0.813,0.563c0,0.312 0.125,0.687 0.688,0.687l5.375,0c0.312,0 0.625,-0.25 0.625,-0.687c-0,-0.438 -0.375,-0.625 -0.688,-0.625c-0.312,-0 -1,-0.188 -1,-1.188l0,-1.812l2.313,-0c0.312,-0 0.5,-0.25 0.5,-0.625c-0,-0.375 -0.125,-0.625 -0.5,-0.625l-2.313,-0" style="fill-rule:nonzero;"/></g><g><path d="M605.741,107.187c-0,0 -0.063,0.25 -0.063,0.438c0,0.25 0.25,0.5 0.5,0.5c0.188,-0 0.313,-0.188 0.375,-0.25c0.063,-0.188 0.813,-2.75 1.188,-3.375c0.125,-0.25 0.25,-0.313 0.312,-0.313c0.125,0 0.188,0.25 0.188,0.438l-0,8.937c-0,0.75 -0.625,1.188 -1.25,1.188c-0.25,-0 -0.563,0.125 -0.563,0.5c0,0.375 0.313,0.5 0.813,0.5l5.25,-0c0.5,-0 0.5,-0.5 0.5,-0.5c-0,-0 -0,-0.5 -0.5,-0.5c-0.438,-0 -1,-0.563 -1,-1.125l-0,-13c-0,-0.5 -0.188,-0.75 -0.625,-0.75c-0.438,-0 -0.813,0.125 -1.188,0.125c-0.625,-0 -0.75,-0 -1.25,-0.125c-0.25,-0 -0.562,0.375 -0.75,0.625l-1.937,6.687" style="fill-rule:nonzero;"/></g><g><path d="M666.987,110.75c0,-0.438 -0.187,-0.5 -0.375,-0.5c-0.25,-0 -0.375,0.187 -0.437,0.375c-0.313,0.875 -1,2 -1.938,2c-0.125,-0 -0.25,-0 -0.375,-0.063l-0.937,-0.312c-0.625,-0.25 -2.125,-0.75 -3.375,-0.75c-0.438,-0 -0.813,0.062 -1.188,0.187c0.688,-1.187 3.938,-2.75 4.625,-2.937c2.25,-0.313 4.125,-1.625 4.125,-4.063c0,-1.5 -0.625,-2.5 -1.437,-3.25c-1.625,-1.312 -4,-1.5 -4.688,-1.5c-2.25,0 -4.062,0.125 -5.687,2c-0.438,0.5 -0.625,1 -0.625,1.5c-0,0.438 0.187,0.938 0.375,1.5c0.375,0.75 1.187,1.313 2.062,1.313c1.563,-0 1.75,-1.5 1.75,-2.188c0,-1.437 -1.562,-1.562 -1.562,-2.187c-0,-0.438 0.625,-1.188 2.5,-1.188c2.937,0 3.937,2.438 3.937,3.188c0,1.125 -0.375,2.187 -1,3.062c-1.125,1.438 -3.187,1.938 -4.75,2.938c-1.75,1.062 -2.937,2.875 -3.5,4.875c0,0.437 0.188,0.937 0.563,1.125c0.062,0.062 0.187,0.062 0.25,0.062c0.687,0 1.062,-1.937 2.937,-1.937c1.25,-0 1.688,1.687 4.5,1.687c1.313,0 3.75,-0.125 4.25,-4.937" style="fill-rule:nonzero;"/></g><g><path d="M715.572,110.125l-0,-6.688c-0,-0.312 -0.063,-0.562 -0.375,-0.562c-0.25,-0 -0.438,0.062 -0.625,0.312l-1.875,3.625c-0.125,0.125 -0.313,0.313 -0.313,0.75l0,2.563l-4.062,-0c2.562,-2.125 6.562,-9.188 6.625,-9.563c-0,-0.062 0.062,-0.125 0.062,-0.187c0,-0.25 -0.25,-0.438 -0.437,-0.438c-0.313,0 -1.625,0.125 -2.188,0.125c-0.562,0 -0.937,-0.125 -1.187,-0.125c-0.313,0 -0.75,0.125 -0.75,0.625c-0,4 -3.25,8.563 -4.063,9.688c-0.125,0.125 -0.25,0.312 -0.25,0.5c0,0.312 0.25,0.625 0.625,0.625l5.625,-0l0,1.937c0,0.875 -0.5,1.125 -1,1.125c-0.562,0 -0.812,0.25 -0.812,0.563c-0,0.312 0.125,0.687 0.687,0.687l5.375,0c0.313,0 0.625,-0.25 0.625,-0.687c0,-0.438 -0.375,-0.625 -0.687,-0.625c-0.313,-0 -1,-0.188 -1,-1.188l-0,-1.812l2.312,-0c0.313,-0 0.5,-0.25 0.5,-0.625c0,-0.375 -0.125,-0.625 -0.5,-0.625l-2.312,-0" style="fill-rule:nonzero;"/></g><g><path d="M767.022,110.125l-0,-6.688c-0,-0.312 -0.063,-0.562 -0.375,-0.562c-0.25,-0 -0.438,0.062 -0.625,0.312l-1.875,3.625c-0.125,0.125 -0.313,0.313 -0.313,0.75l0,2.563l-4.062,-0c2.562,-2.125 6.562,-9.188 6.625,-9.563c-0,-0.062 0.062,-0.125 0.062,-0.187c0,-0.25 -0.25,-0.438 -0.437,-0.438c-0.313,0 -1.625,0.125 -2.188,0.125c-0.562,0 -0.937,-0.125 -1.187,-0.125c-0.313,0 -0.75,0.125 -0.75,0.625c-0,4 -3.25,8.563 -4.063,9.688c-0.125,0.125 -0.25,0.312 -0.25,0.5c0,0.312 0.25,0.625 0.625,0.625l5.625,-0l0,1.937c0,0.875 -0.5,1.125 -1,1.125c-0.562,0 -0.812,0.25 -0.812,0.563c-0,0.312 0.125,0.687 0.687,0.687l5.375,0c0.313,0 0.625,-0.25 0.625,-0.687c0,-0.438 -0.375,-0.625 -0.687,-0.625c-0.313,-0 -1,-0.188 -1,-1.188l-0,-1.812l2.312,-0c0.313,-0 0.5,-0.25 0.5,-0.625c0,-0.375 -0.125,-0.625 -0.5,-0.625l-2.312,-0" style="fill-rule:nonzero;"/></g><g><path d="M811.54,107.187c0,0 -0.062,0.25 -0.062,0.438c-0,0.25 0.25,0.5 0.5,0.5c0.187,-0 0.312,-0.188 0.375,-0.25c0.062,-0.188 0.812,-2.75 1.187,-3.375c0.125,-0.25 0.25,-0.313 0.313,-0.313c0.125,0 0.187,0.25 0.187,0.438l0,8.937c0,0.75 -0.625,1.188 -1.25,1.188c-0.25,-0 -0.562,0.125 -0.562,0.5c-0,0.375 0.312,0.5 0.812,0.5l5.25,-0c0.5,-0 0.5,-0.5 0.5,-0.5c0,-0 0,-0.5 -0.5,-0.5c-0.437,-0 -1,-0.563 -1,-1.125l0,-13c0,-0.5 -0.187,-0.75 -0.625,-0.75c-0.437,-0 -0.812,0.125 -1.187,0.125c-0.625,-0 -0.75,-0 -1.25,-0.125c-0.25,-0 -0.563,0.375 -0.75,0.625l-1.938,6.687" style="fill-rule:nonzero;"/></g><g><path d="M880.768,110.75c0,-0.438 -0.187,-0.5 -0.375,-0.5c-0.25,-0 -0.375,0.187 -0.437,0.375c-0.313,0.875 -1,2 -1.938,2c-0.125,-0 -0.25,-0 -0.375,-0.063l-0.937,-0.312c-0.625,-0.25 -2.125,-0.75 -3.375,-0.75c-0.438,-0 -0.813,0.062 -1.188,0.187c0.688,-1.187 3.938,-2.75 4.625,-2.937c2.25,-0.313 4.125,-1.625 4.125,-4.063c0,-1.5 -0.625,-2.5 -1.437,-3.25c-1.625,-1.312 -4,-1.5 -4.688,-1.5c-2.25,0 -4.062,0.125 -5.687,2c-0.438,0.5 -0.625,1 -0.625,1.5c-0,0.438 0.187,0.938 0.375,1.5c0.375,0.75 1.187,1.313 2.062,1.313c1.563,-0 1.75,-1.5 1.75,-2.188c0,-1.437 -1.562,-1.562 -1.562,-2.187c-0,-0.438 0.625,-1.188 2.5,-1.188c2.937,0 3.937,2.438 3.937,3.188c0,1.125 -0.375,2.187 -1,3.062c-1.125,1.438 -3.187,1.938 -4.75,2.938c-1.75,1.062 -2.937,2.875 -3.5,4.875c0,0.437 0.188,0.937 0.563,1.125c0.062,0.062 0.187,0.062 0.25,0.062c0.687,0 1.062,-1.937 2.937,-1.937c1.25,-0 1.688,1.687 4.5,1.687c1.313,0 3.75,-0.125 4.25,-4.937" style="fill-rule:nonzero;"/></g><g><path d="M937.4,110.111l-0,-6.687c-0,-0.313 -0.063,-0.563 -0.375,-0.563c-0.25,0 -0.438,0.063 -0.625,0.313l-1.875,3.625c-0.125,0.125 -0.313,0.312 -0.313,0.75l0,2.562l-4.062,0c2.562,-2.125 6.562,-9.187 6.625,-9.562c-0,-0.063 0.062,-0.125 0.062,-0.188c0,-0.25 -0.25,-0.437 -0.437,-0.437c-0.313,-0 -1.625,0.125 -2.188,0.125c-0.562,-0 -0.937,-0.125 -1.187,-0.125c-0.313,-0 -0.75,0.125 -0.75,0.625c-0,4 -3.25,8.562 -4.063,9.687c-0.125,0.125 -0.25,0.313 -0.25,0.5c0,0.313 0.25,0.625 0.625,0.625l5.625,0l0,1.938c0,0.875 -0.5,1.125 -1,1.125c-0.562,-0 -0.812,0.25 -0.812,0.562c-0,0.313 0.125,0.688 0.687,0.688l5.375,-0c0.313,-0 0.625,-0.25 0.625,-0.688c0,-0.437 -0.375,-0.625 -0.687,-0.625c-0.313,0 -1,-0.187 -1,-1.187l-0,-1.813l2.312,0c0.313,0 0.5,-0.25 0.5,-0.625c0,-0.375 -0.125,-0.625 -0.5,-0.625l-2.312,0" style="fill-rule:nonzero;"/></g><g><path d="M1015.75,99.375c-0,-0 -0.063,0.25 -0.063,0.437c0,0.25 0.25,0.5 0.5,0.5c0.188,0 0.313,-0.187 0.375,-0.25c0.063,-0.187 0.813,-2.75 1.188,-3.375c0.125,-0.25 0.25,-0.312 0.312,-0.312c0.125,-0 0.188,0.25 0.188,0.437l-0,8.938c-0,0.75 -0.625,1.187 -1.25,1.187c-0.25,0 -0.563,0.125 -0.563,0.5c0,0.375 0.313,0.5 0.813,0.5l5.25,0c0.5,0 0.5,-0.5 0.5,-0.5c-0,0 -0,-0.5 -0.5,-0.5c-0.438,0 -1,-0.562 -1,-1.125l-0,-13c-0,-0.5 -0.188,-0.75 -0.625,-0.75c-0.438,0 -0.813,0.125 -1.188,0.125c-0.625,0 -0.75,0 -1.25,-0.125c-0.25,0 -0.562,0.375 -0.75,0.625l-1.937,6.688" style="fill-rule:nonzero;"/></g><g><path d="M1076.98,94.992c-0,-0.437 -0.188,-0.5 -0.375,-0.5c-0.25,0 -0.375,0.188 -0.438,0.375c-0.312,0.875 -1,2 -1.937,2c-0.125,0 -0.25,0 -0.375,-0.062l-0.938,-0.313c-0.625,-0.25 -2.125,-0.75 -3.375,-0.75c-0.437,0 -0.812,0.063 -1.187,0.188c0.687,-1.188 3.937,-2.75 4.625,-2.938c2.25,-0.312 4.125,-1.625 4.125,-4.062c-0,-1.5 -0.625,-2.5 -1.438,-3.25c-1.625,-1.313 -4,-1.5 -4.687,-1.5c-2.25,-0 -4.063,0.125 -5.688,2c-0.437,0.5 -0.625,1 -0.625,1.5c0,0.437 0.188,0.937 0.375,1.5c0.375,0.75 1.188,1.312 2.063,1.312c1.562,0 1.75,-1.5 1.75,-2.187c-0,-1.438 -1.563,-1.563 -1.563,-2.188c0,-0.437 0.625,-1.187 2.5,-1.187c2.938,-0 3.938,2.437 3.938,3.187c-0,1.125 -0.375,2.188 -1,3.063c-1.125,1.437 -3.188,1.937 -4.75,2.937c-1.75,1.063 -2.938,2.875 -3.5,4.875c-0,0.438 0.187,0.938 0.562,1.125c0.063,0.063 0.188,0.063 0.25,0.063c0.688,-0 1.063,-1.938 2.938,-1.938c1.25,0 1.687,1.688 4.5,1.688c1.312,-0 3.75,-0.125 4.25,-4.938" style="fill-rule:nonzero;"/></g><g><path d="M1125.58,86.861l-0,-6.687c-0,-0.313 -0.063,-0.563 -0.375,-0.563c-0.25,0 -0.438,0.063 -0.625,0.313l-1.875,3.625c-0.125,0.125 -0.313,0.312 -0.313,0.75l0,2.562l-4.062,0c2.562,-2.125 6.562,-9.187 6.625,-9.562c-0,-0.063 0.062,-0.125 0.062,-0.188c0,-0.25 -0.25,-0.437 -0.437,-0.437c-0.313,-0 -1.625,0.125 -2.188,0.125c-0.562,-0 -0.937,-0.125 -1.187,-0.125c-0.313,-0 -0.75,0.125 -0.75,0.625c-0,4 -3.25,8.562 -4.063,9.687c-0.125,0.125 -0.25,0.313 -0.25,0.5c0,0.313 0.25,0.625 0.625,0.625l5.625,0l0,1.938c0,0.875 -0.5,1.125 -1,1.125c-0.562,-0 -0.812,0.25 -0.812,0.562c-0,0.313 0.125,0.688 0.687,0.688l5.375,-0c0.313,-0 0.625,-0.25 0.625,-0.688c0,-0.437 -0.375,-0.625 -0.687,-0.625c-0.313,0 -1,-0.187 -1,-1.187l-0,-1.813l2.312,0c0.313,0 0.5,-0.25 0.5,-0.625c0,-0.375 -0.125,-0.625 -0.5,-0.625l-2.312,0" style="fill-rule:nonzero;"/></g><g><path d="M1177.05,86.861l0,-6.687c0,-0.313 -0.062,-0.563 -0.375,-0.563c-0.25,0 -0.437,0.063 -0.625,0.313l-1.875,3.625c-0.125,0.125 -0.312,0.312 -0.312,0.75l-0,2.562l-4.063,0c2.563,-2.125 6.563,-9.187 6.625,-9.562c0,-0.063 0.063,-0.125 0.063,-0.188c-0,-0.25 -0.25,-0.437 -0.438,-0.437c-0.312,-0 -1.625,0.125 -2.187,0.125c-0.563,-0 -0.938,-0.125 -1.188,-0.125c-0.312,-0 -0.75,0.125 -0.75,0.625c0,4 -3.25,8.562 -4.062,9.687c-0.125,0.125 -0.25,0.313 -0.25,0.5c-0,0.313 0.25,0.625 0.625,0.625l5.625,0l-0,1.938c-0,0.875 -0.5,1.125 -1,1.125c-0.563,-0 -0.813,0.25 -0.813,0.562c0,0.313 0.125,0.688 0.688,0.688l5.375,-0c0.312,-0 0.625,-0.25 0.625,-0.688c-0,-0.437 -0.375,-0.625 -0.688,-0.625c-0.312,0 -1,-0.187 -1,-1.187l0,-1.813l2.313,0c0.312,0 0.5,-0.25 0.5,-0.625c-0,-0.375 -0.125,-0.625 -0.5,-0.625l-2.313,0" style="fill-rule:nonzero;"/></g><g><path d="M1221.58,76.125c-0,-0 -0.063,0.25 -0.063,0.437c0,0.25 0.25,0.5 0.5,0.5c0.188,0 0.313,-0.187 0.375,-0.25c0.063,-0.187 0.813,-2.75 1.188,-3.375c0.125,-0.25 0.25,-0.312 0.312,-0.312c0.125,-0 0.188,0.25 0.188,0.437l-0,8.938c-0,0.75 -0.625,1.187 -1.25,1.187c-0.25,0 -0.563,0.125 -0.563,0.5c0,0.375 0.313,0.5 0.813,0.5l5.25,0c0.5,0 0.5,-0.5 0.5,-0.5c-0,0 -0,-0.5 -0.5,-0.5c-0.438,0 -1,-0.562 -1,-1.125l-0,-13c-0,-0.5 -0.188,-0.75 -0.625,-0.75c-0.438,0 -0.813,0.125 -1.188,0.125c-0.625,0 -0.75,0 -1.25,-0.125c-0.25,0 -0.562,0.375 -0.75,0.625l-1.937,6.688" style="fill-rule:nonzero;"/></g><g><path d="M1290.83,71.742c-0,-0.437 -0.188,-0.5 -0.375,-0.5c-0.25,0 -0.375,0.188 -0.438,0.375c-0.312,0.875 -1,2 -1.937,2c-0.125,0 -0.25,0 -0.375,-0.062l-0.938,-0.313c-0.625,-0.25 -2.125,-0.75 -3.375,-0.75c-0.437,0 -0.812,0.063 -1.187,0.188c0.687,-1.188 3.937,-2.75 4.625,-2.938c2.25,-0.312 4.125,-1.625 4.125,-4.062c-0,-1.5 -0.625,-2.5 -1.438,-3.25c-1.625,-1.313 -4,-1.5 -4.687,-1.5c-2.25,-0 -4.063,0.125 -5.688,2c-0.437,0.5 -0.625,1 -0.625,1.5c0,0.437 0.188,0.937 0.375,1.5c0.375,0.75 1.188,1.312 2.063,1.312c1.562,0 1.75,-1.5 1.75,-2.187c-0,-1.438 -1.563,-1.563 -1.563,-2.188c0,-0.437 0.625,-1.187 2.5,-1.187c2.938,-0 3.938,2.437 3.938,3.187c-0,1.125 -0.375,2.188 -1,3.063c-1.125,1.437 -3.188,1.937 -4.75,2.937c-1.75,1.063 -2.938,2.875 -3.5,4.875c-0,0.438 0.187,0.938 0.562,1.125c0.063,0.063 0.188,0.063 0.25,0.063c0.688,-0 1.063,-1.938 2.938,-1.938c1.25,0 1.687,1.688 4.5,1.688c1.312,-0 3.75,-0.125 4.25,-4.938" style="fill-rule:nonzero;"/></g><g><path d="M1347.46,55.861l-0,-6.687c-0,-0.313 -0.063,-0.563 -0.375,-0.563c-0.25,0 -0.438,0.063 -0.625,0.313l-1.875,3.625c-0.125,0.125 -0.313,0.312 -0.313,0.75l0,2.562l-4.062,0c2.562,-2.125 6.562,-9.187 6.625,-9.562c-0,-0.063 0.062,-0.125 0.062,-0.188c0,-0.25 -0.25,-0.437 -0.437,-0.437c-0.313,-0 -1.625,0.125 -2.188,0.125c-0.562,-0 -0.937,-0.125 -1.187,-0.125c-0.313,-0 -0.75,0.125 -0.75,0.625c-0,4 -3.25,8.562 -4.063,9.687c-0.125,0.125 -0.25,0.313 -0.25,0.5c0,0.313 0.25,0.625 0.625,0.625l5.625,0l0,1.938c0,0.875 -0.5,1.125 -1,1.125c-0.562,-0 -0.812,0.25 -0.812,0.562c-0,0.313 0.125,0.688 0.687,0.688l5.375,-0c0.313,-0 0.625,-0.25 0.625,-0.688c0,-0.437 -0.375,-0.625 -0.687,-0.625c-0.313,0 -1,-0.187 -1,-1.187l-0,-1.813l2.312,0c0.313,0 0.5,-0.25 0.5,-0.625c0,-0.375 -0.125,-0.625 -0.5,-0.625l-2.312,0" style="fill-rule:nonzero;"/></g><g><path d="M1406.96,55.861l-0,-6.687c-0,-0.313 -0.063,-0.563 -0.375,-0.563c-0.25,0 -0.438,0.063 -0.625,0.313l-1.875,3.625c-0.125,0.125 -0.313,0.312 -0.313,0.75l0,2.562l-4.062,0c2.562,-2.125 6.562,-9.187 6.625,-9.562c-0,-0.063 0.062,-0.125 0.062,-0.188c0,-0.25 -0.25,-0.437 -0.437,-0.437c-0.313,-0 -1.625,0.125 -2.188,0.125c-0.562,-0 -0.937,-0.125 -1.187,-0.125c-0.313,-0 -0.75,0.125 -0.75,0.625c-0,4 -3.25,8.562 -4.063,9.687c-0.125,0.125 -0.25,0.313 -0.25,0.5c0,0.313 0.25,0.625 0.625,0.625l5.625,0l0,1.938c0,0.875 -0.5,1.125 -1,1.125c-0.562,-0 -0.812,0.25 -0.812,0.562c-0,0.313 0.125,0.688 0.687,0.688l5.375,-0c0.313,-0 0.625,-0.25 0.625,-0.688c0,-0.437 -0.375,-0.625 -0.687,-0.625c-0.313,0 -1,-0.187 -1,-1.187l-0,-1.813l2.312,0c0.313,0 0.5,-0.25 0.5,-0.625c0,-0.375 -0.125,-0.625 -0.5,-0.625l-2.312,0" style="fill-rule:nonzero;"/></g><g><path d="M1454.45,53.437c-3.437,0 -4.937,2.313 -4.937,3.625c-0,0.875 0.5,1.938 2.062,2c1.188,0 1.75,-0.75 1.75,-1.562l0,-0.25c-0.062,-0.938 -0.687,-1 -0.812,-1.063c-0.125,-0.062 -0.375,-0.312 -0.375,-0.75c0.125,-0.687 1.062,-0.937 1.312,-0.937c3.188,-0 4.125,1.687 4.125,2.75c0,2.937 -3,3.187 -3.937,3.25c-0.438,-0 -0.875,0.187 -0.875,0.562c-0,0.375 0.562,0.375 0.812,0.375c3.625,0 4.125,1.875 4.125,2.813c0,3.625 -2.937,3.75 -3.687,3.75c-0.375,-0 -1,-0.188 -1.063,-0.5l0,-0.375c0,-0.688 0.188,-1.438 0.25,-2.063c0,-1.125 -0.75,-1.812 -1.875,-1.812l-0.25,-0c-0.437,0.125 -0.875,0.375 -1.187,0.687c-0.438,0.375 -0.563,0.938 -0.563,1.5c0.063,2 1.813,3.688 4.938,3.75l0.375,0c3.062,0 6.25,-1.625 6.25,-4.375c-0,-0.625 -0.125,-1.125 -0.313,-1.5c-0.125,-0.375 -0.375,-0.687 -0.625,-0.937c-0.187,-0.25 -0.437,-0.438 -0.687,-0.625l-0.688,-0.375l-0.375,-0.125c-0.125,-0 -0.187,-0.063 -0.312,-0.063l-0.375,-0.125c-0.188,-0.062 -0.25,0 -0.313,-0.125c-0.062,-0.062 -0.062,-0.125 -0.062,-0.187c-0,-0.125 0.062,-0.25 0.187,-0.25l1,-0.313c0.438,-0.25 0.875,-0.437 1.188,-0.875c0.5,-0.5 0.687,-1.312 0.687,-2c0,-2.937 -3.875,-3.75 -5.25,-3.875l-0.5,0" style="fill-rule:nonzero;"/></g><g><path d="M1502.98,68.375c-0,-0 -0.063,0.25 -0.063,0.437c0,0.25 0.25,0.5 0.5,0.5c0.188,0 0.313,-0.187 0.375,-0.25c0.063,-0.187 0.813,-2.75 1.188,-3.375c0.125,-0.25 0.25,-0.312 0.312,-0.312c0.125,-0 0.188,0.25 0.188,0.437l-0,8.938c-0,0.75 -0.625,1.187 -1.25,1.187c-0.25,0 -0.563,0.125 -0.563,0.5c0,0.375 0.313,0.5 0.813,0.5l5.25,0c0.5,0 0.5,-0.5 0.5,-0.5c-0,0 -0,-0.5 -0.5,-0.5c-0.438,0 -1,-0.562 -1,-1.125l-0,-13c-0,-0.5 -0.188,-0.75 -0.625,-0.75c-0.438,0 -0.813,0.125 -1.188,0.125c-0.625,0 -0.75,0 -1.25,-0.125c-0.25,0 -0.562,0.375 -0.75,0.625l-1.937,6.688" style="fill-rule:nonzero;"/></g><g><path d="M1554.45,76.125c0,-0 -0.062,0.25 -0.062,0.437c-0,0.25 0.25,0.5 0.5,0.5c0.187,0 0.312,-0.187 0.375,-0.25c0.062,-0.187 0.812,-2.75 1.187,-3.375c0.125,-0.25 0.25,-0.312 0.313,-0.312c0.125,-0 0.187,0.25 0.187,0.437l0,8.938c0,0.75 -0.625,1.187 -1.25,1.187c-0.25,0 -0.562,0.125 -0.562,0.5c-0,0.375 0.312,0.5 0.812,0.5l5.25,0c0.5,0 0.5,-0.5 0.5,-0.5c0,0 0,-0.5 -0.5,-0.5c-0.437,0 -1,-0.562 -1,-1.125l0,-13c0,-0.5 -0.187,-0.75 -0.625,-0.75c-0.437,0 -0.812,0.125 -1.187,0.125c-0.625,0 -0.75,0 -1.25,-0.125c-0.25,0 -0.563,0.375 -0.75,0.625l-1.938,6.688" style="fill-rule:nonzero;"/></g><g><path d="M1612.82,86.861l0,-6.687c0,-0.313 -0.062,-0.563 -0.375,-0.563c-0.25,0 -0.437,0.063 -0.625,0.313l-1.875,3.625c-0.125,0.125 -0.312,0.312 -0.312,0.75l-0,2.562l-4.063,0c2.563,-2.125 6.563,-9.187 6.625,-9.562c0,-0.063 0.063,-0.125 0.063,-0.188c-0,-0.25 -0.25,-0.437 -0.438,-0.437c-0.312,-0 -1.625,0.125 -2.187,0.125c-0.563,-0 -0.938,-0.125 -1.188,-0.125c-0.312,-0 -0.75,0.125 -0.75,0.625c0,4 -3.25,8.562 -4.062,9.687c-0.125,0.125 -0.25,0.313 -0.25,0.5c-0,0.313 0.25,0.625 0.625,0.625l5.625,0l-0,1.938c-0,0.875 -0.5,1.125 -1,1.125c-0.563,-0 -0.813,0.25 -0.813,0.562c0,0.313 0.125,0.688 0.688,0.688l5.375,-0c0.312,-0 0.625,-0.25 0.625,-0.688c-0,-0.437 -0.375,-0.625 -0.688,-0.625c-0.312,0 -1,-0.187 -1,-1.187l0,-1.813l2.313,0c0.312,0 0.5,-0.25 0.5,-0.625c-0,-0.375 -0.125,-0.625 -0.5,-0.625l-2.313,0" style="fill-rule:nonzero;"/></g><g><path d="M1675.18,94.992c0,-0.437 -0.187,-0.5 -0.375,-0.5c-0.25,0 -0.375,0.188 -0.437,0.375c-0.313,0.875 -1,2 -1.938,2c-0.125,0 -0.25,0 -0.375,-0.062l-0.937,-0.313c-0.625,-0.25 -2.125,-0.75 -3.375,-0.75c-0.438,0 -0.813,0.063 -1.188,0.188c0.688,-1.188 3.938,-2.75 4.625,-2.938c2.25,-0.312 4.125,-1.625 4.125,-4.062c0,-1.5 -0.625,-2.5 -1.437,-3.25c-1.625,-1.313 -4,-1.5 -4.688,-1.5c-2.25,-0 -4.062,0.125 -5.687,2c-0.438,0.5 -0.625,1 -0.625,1.5c-0,0.437 0.187,0.937 0.375,1.5c0.375,0.75 1.187,1.312 2.062,1.312c1.563,0 1.75,-1.5 1.75,-2.187c0,-1.438 -1.562,-1.563 -1.562,-2.188c-0,-0.437 0.625,-1.187 2.5,-1.187c2.937,-0 3.937,2.437 3.937,3.187c0,1.125 -0.375,2.188 -1,3.063c-1.125,1.437 -3.187,1.937 -4.75,2.937c-1.75,1.063 -2.937,2.875 -3.5,4.875c0,0.438 0.188,0.938 0.563,1.125c0.062,0.063 0.187,0.063 0.25,0.063c0.687,-0 1.062,-1.938 2.937,-1.938c1.25,0 1.688,1.688 4.5,1.688c1.313,-0 3.75,-0.125 4.25,-4.938" style="fill-rule:nonzero;"/></g><g><path d="M1724.9,99.375c0,-0 -0.062,0.25 -0.062,0.437c-0,0.25 0.25,0.5 0.5,0.5c0.187,0 0.312,-0.187 0.375,-0.25c0.062,-0.187 0.812,-2.75 1.187,-3.375c0.125,-0.25 0.25,-0.312 0.313,-0.312c0.125,-0 0.187,0.25 0.187,0.437l0,8.938c0,0.75 -0.625,1.187 -1.25,1.187c-0.25,0 -0.562,0.125 -0.562,0.5c-0,0.375 0.312,0.5 0.812,0.5l5.25,0c0.5,0 0.5,-0.5 0.5,-0.5c0,0 0,-0.5 -0.5,-0.5c-0.437,0 -1,-0.562 -1,-1.125l0,-13c0,-0.5 -0.187,-0.75 -0.625,-0.75c-0.437,0 -0.812,0.125 -1.187,0.125c-0.625,0 -0.75,0 -1.25,-0.125c-0.25,0 -0.563,0.375 -0.75,0.625l-1.938,6.688" style="fill-rule:nonzero;"/></g><g><path d="M221.857,239.812c5.562,0 12.375,-5.125 12.375,-10.437c-0,-3.188 -2.5,-5.188 -6.063,-5.188c-6.875,0 -12.375,5.063 -12.375,10.438c0,3.25 2.688,5.187 6.063,5.187" style="fill-rule:nonzero;"/></g><g><path d="M252.213,229.312c0,0 -0.187,-3.75 -0.187,-6.25c-0,-1 0.062,-1.75 0.125,-2c0.437,-1.25 2.937,-3.062 4.375,-3.062c1.812,-0 2.562,2.062 2.562,3.625c0,3.375 -2.875,6.75 -5.562,8.437c-0.25,0.125 -0.438,0.188 -0.625,0.188c-0.563,-0 -0.688,-0.625 -0.688,-0.938m-2.187,5.563c0.187,0.25 0.375,0.312 0.562,0.312c0.188,0 0.375,-0.125 0.375,-0.125c1.875,-1.062 3.375,-2.75 4.938,-3.812c5.562,-3.875 7.5,-7.688 7.5,-10.563c-0,-3.562 -2.75,-5.812 -5.625,-6c-1.063,0 -2.563,0.5 -3.438,1.063c-0.375,0.312 -1.062,0.875 -1.375,0.875c-0.125,-0 -0.187,-0 -0.312,-0.063c-0.438,-0.187 -0.688,-0.625 -0.688,-1.062c0.063,-1.375 0.438,-16.375 0.438,-17.625c-0,-0.688 -0.563,-1.063 -1.188,-1.063c-0.875,0 -1.875,0.625 -1.937,1.75c-0,0 0.25,35.688 0.75,36.313" style="fill-rule:nonzero;"/></g><g><path d="M273.325,232.062c5.562,0 12.375,-5.125 12.375,-10.437c-0,-3.188 -2.5,-5.188 -6.063,-5.188c-6.875,0 -12.375,5.063 -12.375,10.438c0,3.25 2.688,5.187 6.063,5.187" style="fill-rule:nonzero;"/></g><g><path d="M303.681,221.562c0,0 -0.187,-3.75 -0.187,-6.25c-0,-1 0.062,-1.75 0.125,-2c0.437,-1.25 2.937,-3.062 4.375,-3.062c1.812,-0 2.562,2.062 2.562,3.625c0,3.375 -2.875,6.75 -5.562,8.437c-0.25,0.125 -0.438,0.188 -0.625,0.188c-0.563,-0 -0.688,-0.625 -0.688,-0.938m-2.187,5.563c0.187,0.25 0.375,0.312 0.562,0.312c0.188,0 0.375,-0.125 0.375,-0.125c1.875,-1.062 3.375,-2.75 4.938,-3.812c5.562,-3.875 7.5,-7.688 7.5,-10.563c-0,-3.562 -2.75,-5.812 -5.625,-6c-1.063,0 -2.563,0.5 -3.438,1.063c-0.375,0.312 -1.062,0.875 -1.375,0.875c-0.125,-0 -0.187,-0 -0.312,-0.063c-0.438,-0.187 -0.688,-0.625 -0.688,-1.062c0.063,-1.375 0.438,-16.375 0.438,-17.625c-0,-0.688 -0.563,-1.063 -1.188,-1.063c-0.875,0 -1.875,0.625 -1.937,1.75c-0,0 0.25,35.688 0.75,36.313" style="fill-rule:nonzero;"/></g><g><path d="M324.794,224.312c5.562,0 12.375,-5.125 12.375,-10.437c-0,-3.188 -2.5,-5.188 -6.063,-5.188c-6.875,0 -12.375,5.063 -12.375,10.438c0,3.25 2.688,5.187 6.063,5.187" style="fill-rule:nonzero;"/></g><g><path d="M358.138,214.062c-0,-0.875 3.812,-2.5 5.312,-2.5c0.375,0 0.563,0.063 0.563,0.313l-0,6.437c-0,1.125 -3.563,2.563 -5.125,2.563c-0.438,-0 -0.75,-0.125 -0.75,-0.375l-0,-6.438m6.5,-8.875c-0.125,0 -0.188,0.063 -0.25,0.063c-0,-0 -4,1.437 -5.625,1.437c-0.375,0 -0.625,-0.062 -0.625,-0.312l-0,-10.438c-0,-0.437 -0.375,-0.75 -0.75,-0.75l-0.813,0c-0.437,0 -0.75,0.313 -0.75,0.75l0,32.188c0,0.375 0.188,0.562 0.5,0.562c0.063,0 0.375,-0.062 0.438,-0.125c0.875,-0.375 4.375,-1.875 6.187,-1.875c0.625,0 1.063,0.188 1.063,0.688l-0,9.312c-0,0.438 0.312,0.75 0.75,0.75l0.812,0c0.375,0 0.75,-0.312 0.75,-0.75l0,-31.375c0,-0.312 -0.25,-0.5 -0.5,-0.5c-0.062,0 -0.187,0 -0.25,0.063l-0.937,0.312" style="fill-rule:nonzero;"/></g><g><path d="M376.259,224.312c5.563,0 12.375,-5.125 12.375,-10.437c0,-3.188 -2.5,-5.188 -6.062,-5.188c-6.875,0 -12.375,5.063 -12.375,10.438c-0,3.25 2.687,5.187 6.062,5.187" style="fill-rule:nonzero;"/></g><g><path d="M412.716,211.562c-0.375,1.25 -3.313,2.5 -4.75,2.5c-0.375,0 -0.688,-0.125 -0.75,-0.312c-0.125,-0.25 -0.188,-1.625 -0.188,-3.125c0,-1.938 0.063,-4.125 0.188,-4.625c0.125,-1.063 3,-2.375 4.562,-2.375c0.438,-0 0.813,0.125 0.938,0.375c0.125,0.312 0.25,1.875 0.25,3.562c-0,1.688 -0.125,3.438 -0.25,4m4.312,-10.187c0.438,-0.188 0.75,-0.688 0.75,-1.063l0,-4.437c0,-0.313 -0.187,-0.5 -0.437,-0.5c-0.125,-0 -0.188,-0 -0.313,0.062c0,0 -1.25,0.5 -1.562,0.563c-0.438,-0 -0.875,-0.313 -0.875,-0.813l-0,-7.625c-0,-0.375 -0.375,-0.687 -0.875,-0.687c-0.625,-0 -1,0.312 -1,0.687l-0,8.125c-0.063,0.625 -0.25,1.438 -0.813,1.813c-0.75,0.437 -2.875,1.312 -3.937,1.562c-0.563,0 -0.75,-0.75 -0.75,-1.25l-0,-7.5c-0,-0.375 -0.438,-0.687 -0.875,-0.687c-0.625,-0 -1,0.312 -1,0.687l-0,8.438c-0,0.875 -0.375,1.5 -0.75,1.687c-0.375,0.188 -1.625,0.688 -1.625,0.688c-0.438,0.125 -0.75,0.625 -0.75,1l-0,4.437c-0,0.375 0.187,0.563 0.5,0.563c0.25,-0 1.437,-0.563 1.625,-0.688c0.062,0 0.125,-0.062 0.187,-0.062c0.438,-0 0.813,0.625 0.813,1.125l-0,6.187c-0,0.688 -0.313,1.25 -0.688,1.438c-0.375,0.125 -1.687,0.687 -1.687,0.687c-0.438,0.125 -0.75,0.625 -0.75,1l-0,4.438c-0,0.375 0.187,0.562 0.5,0.562c0.062,0 0.187,-0.062 0.25,-0.062c-0,-0 0.875,-0.375 1.437,-0.563c0.063,-0.062 0.125,-0.062 0.188,-0.062c0.437,-0 0.75,0.687 0.75,1l-0,7.687c-0,0.375 0.375,0.688 0.812,0.688c0.625,-0 1.063,-0.313 1.063,-0.688l-0,-8.687c-0,-0.813 0.312,-1.25 0.625,-1.375l3.812,-1.563c0.063,0 0.188,-0.062 0.25,-0.062c0.5,-0 0.813,0.75 0.813,1.125l-0,7.812c-0,0.375 0.375,0.688 0.812,0.688c0.688,-0 1.063,-0.313 1.063,-0.688l-0,-8.875c-0,-0.5 0.25,-1.25 0.687,-1.437c0.438,-0.188 1.75,-0.688 1.75,-0.688c0.438,-0.187 0.75,-0.687 0.75,-1.062l0,-4.438c0,-0.312 -0.187,-0.5 -0.437,-0.5c-0.125,0 -0.188,0 -0.313,0.063l-1.625,0.625c-0.375,-0 -0.812,-0.375 -0.812,-1.125l-0,-5.813c-0,-0.437 0.312,-1.625 0.812,-1.812l1.625,-0.625" style="fill-rule:nonzero;"/></g><g><path d="M427.703,216.562c5.563,0 12.375,-5.125 12.375,-10.437c0,-3.188 -2.5,-5.188 -6.062,-5.188c-6.875,0 -12.375,5.063 -12.375,10.438c-0,3.25 2.687,5.187 6.062,5.187" style="fill-rule:nonzero;"/></g><g><path d="M472.184,203.812c-0.375,1.25 -3.312,2.5 -4.75,2.5c-0.375,0 -0.687,-0.125 -0.75,-0.312c-0.125,-0.25 -0.187,-1.625 -0.187,-3.125c-0,-1.938 0.062,-4.125 0.187,-4.625c0.125,-1.063 3,-2.375 4.563,-2.375c0.437,-0 0.812,0.125 0.937,0.375c0.125,0.312 0.25,1.875 0.25,3.562c0,1.688 -0.125,3.438 -0.25,4m4.313,-10.187c0.437,-0.188 0.75,-0.688 0.75,-1.063l-0,-4.437c-0,-0.313 -0.188,-0.5 -0.438,-0.5c-0.125,-0 -0.187,-0 -0.312,0.062c-0,0 -1.25,0.5 -1.563,0.563c-0.437,-0 -0.875,-0.313 -0.875,-0.813l0,-7.625c0,-0.375 -0.375,-0.687 -0.875,-0.687c-0.625,-0 -1,0.312 -1,0.687l0,8.125c-0.062,0.625 -0.25,1.438 -0.812,1.813c-0.75,0.437 -2.875,1.312 -3.938,1.562c-0.562,0 -0.75,-0.75 -0.75,-1.25l0,-7.5c0,-0.375 -0.437,-0.687 -0.875,-0.687c-0.625,-0 -1,0.312 -1,0.687l0,8.438c0,0.875 -0.375,1.5 -0.75,1.687c-0.375,0.188 -1.625,0.688 -1.625,0.688c-0.437,0.125 -0.75,0.625 -0.75,1l0,4.437c0,0.375 0.188,0.563 0.5,0.563c0.25,-0 1.438,-0.563 1.625,-0.688c0.063,0 0.125,-0.062 0.188,-0.062c0.437,-0 0.812,0.625 0.812,1.125l0,6.187c0,0.688 -0.312,1.25 -0.687,1.438c-0.375,0.125 -1.688,0.687 -1.688,0.687c-0.437,0.125 -0.75,0.625 -0.75,1l0,4.438c0,0.375 0.188,0.562 0.5,0.562c0.063,0 0.188,-0.062 0.25,-0.062c0,-0 0.875,-0.375 1.438,-0.563c0.062,-0.062 0.125,-0.062 0.187,-0.062c0.438,-0 0.75,0.687 0.75,1l0,7.687c0,0.375 0.375,0.688 0.813,0.688c0.625,-0 1.062,-0.313 1.062,-0.688l0,-8.687c0,-0.813 0.313,-1.25 0.625,-1.375l3.813,-1.563c0.062,0 0.187,-0.062 0.25,-0.062c0.5,-0 0.812,0.75 0.812,1.125l0,7.812c0,0.375 0.375,0.688 0.813,0.688c0.687,-0 1.062,-0.313 1.062,-0.688l0,-8.875c0,-0.5 0.25,-1.25 0.688,-1.437c0.437,-0.188 1.75,-0.688 1.75,-0.688c0.437,-0.187 0.75,-0.687 0.75,-1.062l-0,-4.438c-0,-0.312 -0.188,-0.5 -0.438,-0.5c-0.125,0 -0.187,0 -0.312,0.063l-1.625,0.625c-0.375,-0 -0.813,-0.375 -0.813,-1.125l0,-5.813c0,-0.437 0.313,-1.625 0.813,-1.812l1.625,-0.625" style="fill-rule:nonzero;"/></g><g><path d="M487.172,208.812c5.562,0 12.375,-5.125 12.375,-10.437c-0,-3.188 -2.5,-5.188 -6.063,-5.188c-6.875,0 -12.375,5.063 -12.375,10.438c0,3.25 2.688,5.187 6.063,5.187" style="fill-rule:nonzero;"/></g><g><path d="M546.672,193.312c5.562,0 12.375,-5.125 12.375,-10.437c-0,-3.188 -2.5,-5.188 -6.063,-5.188c-6.875,0 -12.375,5.063 -12.375,10.438c0,3.25 2.688,5.187 6.063,5.187" style="fill-rule:nonzero;"/></g><g><path d="M606.172,185.562c5.562,0 12.375,-5.125 12.375,-10.437c-0,-3.188 -2.5,-5.188 -6.063,-5.188c-6.875,0 -12.375,5.063 -12.375,10.438c0,3.25 2.688,5.187 6.063,5.187" style="fill-rule:nonzero;"/></g><g><path d="M636.528,175.062c0,0 -0.187,-3.75 -0.187,-6.25c-0,-1 0.062,-1.75 0.125,-2c0.437,-1.25 2.937,-3.062 4.375,-3.062c1.812,-0 2.562,2.062 2.562,3.625c-0,3.375 -2.875,6.75 -5.562,8.437c-0.25,0.125 -0.438,0.188 -0.625,0.188c-0.563,-0 -0.688,-0.625 -0.688,-0.938m-2.187,5.563c0.187,0.25 0.375,0.312 0.562,0.312c0.188,0 0.375,-0.125 0.375,-0.125c1.875,-1.062 3.375,-2.75 4.938,-3.812c5.562,-3.875 7.499,-7.688 7.499,-10.563c0,-3.562 -2.75,-5.812 -5.624,-6c-1.063,0 -2.563,0.5 -3.438,1.063c-0.375,0.312 -1.062,0.875 -1.375,0.875c-0.125,-0 -0.187,-0 -0.312,-0.063c-0.438,-0.187 -0.688,-0.625 -0.688,-1.062c0.063,-1.375 0.438,-16.375 0.438,-17.625c-0,-0.688 -0.563,-1.063 -1.188,-1.063c-0.875,0 -1.875,0.625 -1.937,1.75c-0,0 0.25,35.688 0.75,36.313" style="fill-rule:nonzero;"/></g><g><path d="M657.64,177.812c5.563,0 12.375,-5.125 12.375,-10.437c0,-3.188 -2.5,-5.188 -6.062,-5.188c-6.875,0 -12.375,5.063 -12.375,10.438c-0,3.25 2.687,5.187 6.062,5.187" style="fill-rule:nonzero;"/></g><g><path d="M687.981,167.312c0,0 -0.187,-3.75 -0.187,-6.25c-0,-1 0.062,-1.75 0.125,-2c0.437,-1.25 2.937,-3.062 4.375,-3.062c1.812,-0 2.562,2.062 2.562,3.625c0,3.375 -2.875,6.75 -5.562,8.437c-0.25,0.125 -0.438,0.188 -0.625,0.188c-0.563,-0 -0.688,-0.625 -0.688,-0.938m-2.187,5.563c0.187,0.25 0.375,0.312 0.562,0.312c0.188,0 0.375,-0.125 0.375,-0.125c1.875,-1.062 3.375,-2.75 4.938,-3.812c5.562,-3.875 7.5,-7.688 7.5,-10.563c-0,-3.562 -2.75,-5.812 -5.625,-6c-1.063,0 -2.563,0.5 -3.438,1.063c-0.375,0.312 -1.062,0.875 -1.375,0.875c-0.125,-0 -0.187,-0 -0.312,-0.063c-0.438,-0.187 -0.688,-0.625 -0.688,-1.062c0.063,-1.375 0.438,-16.375 0.438,-17.625c-0,-0.688 -0.563,-1.063 -1.188,-1.063c-0.875,0 -1.875,0.625 -1.937,1.75c-0,0 0.25,35.688 0.75,36.313" style="fill-rule:nonzero;"/></g><g><path d="M709.09,170.062c5.563,0 12.375,-5.125 12.375,-10.437c0,-3.188 -2.5,-5.188 -6.062,-5.188c-6.875,0 -12.375,5.063 -12.375,10.438c-0,3.25 2.687,5.187 6.062,5.187" style="fill-rule:nonzero;"/></g><g><path d="M742.419,159.812c-0,-0.875 3.812,-2.5 5.312,-2.5c0.375,0 0.563,0.063 0.563,0.313l-0,6.437c-0,1.125 -3.563,2.563 -5.125,2.563c-0.438,-0 -0.75,-0.125 -0.75,-0.375l-0,-6.438m6.5,-8.875c-0.125,0 -0.188,0.063 -0.25,0.063c-0,-0 -4,1.437 -5.625,1.437c-0.375,0 -0.625,-0.062 -0.625,-0.312l-0,-10.438c-0,-0.437 -0.375,-0.75 -0.75,-0.75l-0.813,0c-0.437,0 -0.75,0.313 -0.75,0.75l0,32.188c0,0.375 0.188,0.562 0.5,0.562c0.063,0 0.375,-0.062 0.438,-0.125c0.875,-0.375 4.375,-1.875 6.187,-1.875c0.625,0 1.063,0.188 1.063,0.688l-0,9.312c-0,0.438 0.312,0.75 0.75,0.75l0.812,0c0.375,0 0.75,-0.312 0.75,-0.75l0,-31.375c0,-0.312 -0.25,-0.5 -0.5,-0.5c-0.062,0 -0.187,0 -0.25,0.063l-0.937,0.312" style="fill-rule:nonzero;"/></g><g><path d="M760.544,170.062c5.562,0 12.375,-5.125 12.375,-10.437c-0,-3.188 -2.5,-5.188 -6.063,-5.188c-6.875,0 -12.375,5.063 -12.375,10.438c0,3.25 2.688,5.187 6.063,5.187" style="fill-rule:nonzero;"/></g><g><path d="M796.981,157.312c-0.375,1.25 -3.312,2.5 -4.75,2.5c-0.375,0 -0.687,-0.125 -0.75,-0.312c-0.125,-0.25 -0.187,-1.625 -0.187,-3.125c-0,-1.938 0.062,-4.125 0.187,-4.625c0.125,-1.063 3,-2.375 4.563,-2.375c0.437,-0 0.812,0.125 0.937,0.375c0.125,0.312 0.25,1.875 0.25,3.562c0,1.688 -0.125,3.438 -0.25,4m4.313,-10.187c0.437,-0.188 0.75,-0.688 0.75,-1.063l-0,-4.437c-0,-0.313 -0.188,-0.5 -0.438,-0.5c-0.125,-0 -0.187,-0 -0.312,0.062c-0,0 -1.25,0.5 -1.563,0.563c-0.437,-0 -0.875,-0.313 -0.875,-0.813l0,-7.625c0,-0.375 -0.375,-0.687 -0.875,-0.687c-0.625,-0 -1,0.312 -1,0.687l0,8.125c-0.062,0.625 -0.25,1.438 -0.812,1.813c-0.75,0.437 -2.875,1.312 -3.938,1.562c-0.562,0 -0.75,-0.75 -0.75,-1.25l0,-7.5c0,-0.375 -0.437,-0.687 -0.875,-0.687c-0.625,-0 -1,0.312 -1,0.687l0,8.438c0,0.875 -0.375,1.5 -0.75,1.687c-0.375,0.188 -1.625,0.688 -1.625,0.688c-0.437,0.125 -0.75,0.625 -0.75,1l0,4.437c0,0.375 0.188,0.563 0.5,0.563c0.25,-0 1.438,-0.563 1.625,-0.688c0.063,0 0.125,-0.062 0.188,-0.062c0.437,-0 0.812,0.625 0.812,1.125l0,6.187c0,0.688 -0.312,1.25 -0.687,1.438c-0.375,0.125 -1.688,0.687 -1.688,0.687c-0.437,0.125 -0.75,0.625 -0.75,1l0,4.438c0,0.375 0.188,0.562 0.5,0.562c0.063,0 0.188,-0.062 0.25,-0.062c0,-0 0.875,-0.375 1.438,-0.563c0.062,-0.062 0.125,-0.062 0.187,-0.062c0.438,-0 0.75,0.687 0.75,1l0,7.687c0,0.375 0.375,0.688 0.813,0.688c0.625,-0 1.062,-0.313 1.062,-0.688l0,-8.687c0,-0.813 0.313,-1.25 0.625,-1.375l3.813,-1.563c0.062,0 0.187,-0.062 0.25,-0.062c0.5,-0 0.812,0.75 0.812,1.125l0,7.812c0,0.375 0.375,0.688 0.813,0.688c0.687,-0 1.062,-0.313 1.062,-0.688l0,-8.875c0,-0.5 0.25,-1.25 0.688,-1.437c0.437,-0.188 1.75,-0.688 1.75,-0.688c0.437,-0.187 0.75,-0.687 0.75,-1.062l-0,-4.438c-0,-0.312 -0.188,-0.5 -0.438,-0.5c-0.125,0 -0.187,0 -0.312,0.063l-1.625,0.625c-0.375,-0 -0.813,-0.375 -0.813,-1.125l0,-5.813c0,-0.437 0.313,-1.625 0.813,-1.812l1.625,-0.625" style="fill-rule:nonzero;"/></g><g><path d="M811.968,162.312c5.563,0 12.375,-5.125 12.375,-10.437c0,-3.188 -2.5,-5.188 -6.062,-5.188c-6.875,0 -12.375,5.063 -12.375,10.438c0,3.25 2.687,5.187 6.062,5.187" style="fill-rule:nonzero;"/></g><g><path d="M856.431,149.562c-0.375,1.25 -3.313,2.5 -4.75,2.5c-0.375,0 -0.688,-0.125 -0.75,-0.312c-0.125,-0.25 -0.188,-1.625 -0.188,-3.125c0,-1.938 0.063,-4.125 0.188,-4.625c0.125,-1.063 3,-2.375 4.562,-2.375c0.438,-0 0.813,0.125 0.938,0.375c0.125,0.312 0.25,1.875 0.25,3.562c-0,1.688 -0.125,3.438 -0.25,4m4.312,-10.187c0.438,-0.188 0.75,-0.688 0.75,-1.063l0,-4.437c0,-0.313 -0.187,-0.5 -0.437,-0.5c-0.125,-0 -0.188,-0 -0.313,0.062c0,0 -1.25,0.5 -1.562,0.563c-0.438,-0 -0.875,-0.313 -0.875,-0.813l-0,-7.625c-0,-0.375 -0.375,-0.687 -0.875,-0.687c-0.625,-0 -1,0.312 -1,0.687l-0,8.125c-0.063,0.625 -0.25,1.438 -0.813,1.813c-0.75,0.437 -2.875,1.312 -3.937,1.562c-0.563,0 -0.75,-0.75 -0.75,-1.25l-0,-7.5c-0,-0.375 -0.438,-0.687 -0.875,-0.687c-0.625,-0 -1,0.312 -1,0.687l-0,8.438c-0,0.875 -0.375,1.5 -0.75,1.687c-0.375,0.188 -1.625,0.688 -1.625,0.688c-0.438,0.125 -0.75,0.625 -0.75,1l-0,4.437c-0,0.375 0.187,0.563 0.5,0.563c0.25,-0 1.437,-0.563 1.625,-0.688c0.062,0 0.125,-0.062 0.187,-0.062c0.438,-0 0.813,0.625 0.813,1.125l-0,6.187c-0,0.688 -0.313,1.25 -0.688,1.438c-0.375,0.125 -1.687,0.687 -1.687,0.687c-0.438,0.125 -0.75,0.625 -0.75,1l-0,4.438c-0,0.375 0.187,0.562 0.5,0.562c0.062,0 0.187,-0.062 0.25,-0.062c-0,-0 0.875,-0.375 1.437,-0.563c0.063,-0.062 0.125,-0.062 0.188,-0.062c0.437,-0 0.75,0.687 0.75,1l-0,7.687c-0,0.375 0.375,0.688 0.812,0.688c0.625,-0 1.063,-0.313 1.063,-0.688l-0,-8.687c-0,-0.813 0.312,-1.25 0.625,-1.375l3.812,-1.563c0.063,0 0.188,-0.062 0.25,-0.062c0.5,-0 0.813,0.75 0.813,1.125l-0,7.812c-0,0.375 0.375,0.688 0.812,0.688c0.688,-0 1.063,-0.313 1.063,-0.688l-0,-8.875c-0,-0.5 0.25,-1.25 0.687,-1.437c0.438,-0.188 1.75,-0.688 1.75,-0.688c0.438,-0.187 0.75,-0.687 0.75,-1.062l0,-4.438c0,-0.312 -0.187,-0.5 -0.437,-0.5c-0.125,0 -0.188,0 -0.313,0.063l-1.625,0.625c-0.375,-0 -0.812,-0.375 -0.812,-1.125l-0,-5.813c-0,-0.437 0.312,-1.625 0.812,-1.812l1.625,-0.625" style="fill-rule:nonzero;"/></g><g><path d="M871.422,154.562c5.562,0 12.375,-5.125 12.375,-10.437c-0,-3.188 -2.5,-5.188 -6.063,-5.188c-6.875,0 -12.375,5.063 -12.375,10.438c0,3.25 2.688,5.187 6.063,5.187" style="fill-rule:nonzero;"/></g><g><path d="M930.922,139.062c5.562,0 12.375,-5.125 12.375,-10.437c-0,-3.188 -2.5,-5.188 -6.063,-5.188c-6.875,0 -12.375,5.063 -12.375,10.438c0,3.25 2.688,5.187 6.063,5.187" style="fill-rule:nonzero;"/></g><g><path d="M1016.18,131.312c5.562,0 12.375,-5.125 12.375,-10.437c-0,-3.188 -2.5,-5.188 -6.063,-5.188c-6.875,0 -12.375,5.063 -12.375,10.438c0,3.25 2.688,5.187 6.063,5.187" style="fill-rule:nonzero;"/></g><g><path d="M1046.52,120.812c0,0 -0.187,-3.75 -0.187,-6.25c-0,-1 0.062,-1.75 0.125,-2c0.437,-1.25 2.937,-3.062 4.375,-3.062c1.812,-0 2.562,2.062 2.562,3.625c0,3.375 -2.875,6.75 -5.562,8.437c-0.25,0.125 -0.438,0.188 -0.625,0.188c-0.563,-0 -0.688,-0.625 -0.688,-0.938m-2.187,5.563c0.187,0.25 0.375,0.312 0.562,0.312c0.188,0 0.375,-0.125 0.375,-0.125c1.875,-1.062 3.375,-2.75 4.938,-3.812c5.562,-3.875 7.5,-7.688 7.5,-10.563c-0,-3.562 -2.75,-5.812 -5.625,-6c-1.063,0 -2.563,0.5 -3.438,1.063c-0.375,0.312 -1.062,0.875 -1.375,0.875c-0.125,-0 -0.187,-0 -0.312,-0.063c-0.438,-0.187 -0.688,-0.625 -0.688,-1.062c0.063,-1.375 0.438,-16.375 0.438,-17.625c-0,-0.688 -0.563,-1.063 -1.188,-1.063c-0.875,0 -1.875,0.625 -1.937,1.75c-0,0 0.25,35.688 0.75,36.313" style="fill-rule:nonzero;"/></g><g><path d="M1067.63,123.562c5.562,0 12.375,-5.125 12.375,-10.437c-0,-3.188 -2.5,-5.188 -6.063,-5.188c-6.875,0 -12.375,5.063 -12.375,10.438c0,3.25 2.688,5.187 6.063,5.187" style="fill-rule:nonzero;"/></g><g><path d="M1097.99,113.062c0,0 -0.187,-3.75 -0.187,-6.25c-0,-1 0.062,-1.75 0.125,-2c0.437,-1.25 2.937,-3.062 4.375,-3.062c1.812,-0 2.562,2.062 2.562,3.625c0,3.375 -2.875,6.75 -5.562,8.437c-0.25,0.125 -0.438,0.188 -0.625,0.188c-0.563,-0 -0.688,-0.625 -0.688,-0.938m-2.187,5.563c0.187,0.25 0.375,0.312 0.562,0.312c0.188,0 0.375,-0.125 0.375,-0.125c1.875,-1.062 3.375,-2.75 4.938,-3.812c5.562,-3.875 7.5,-7.688 7.5,-10.563c-0,-3.562 -2.75,-5.812 -5.625,-6c-1.063,0 -2.563,0.5 -3.438,1.063c-0.375,0.312 -1.062,0.875 -1.375,0.875c-0.125,-0 -0.187,-0 -0.312,-0.063c-0.438,-0.187 -0.688,-0.625 -0.688,-1.062c0.063,-1.375 0.438,-16.375 0.438,-17.625c-0,-0.688 -0.563,-1.063 -1.188,-1.063c-0.875,0 -1.875,0.625 -1.937,1.75c-0,0 0.25,35.688 0.75,36.313" style="fill-rule:nonzero;"/></g><g><path d="M1119.1,115.812c5.562,0 12.375,-5.125 12.375,-10.437c-0,-3.188 -2.5,-5.188 -6.063,-5.188c-6.875,0 -12.375,5.063 -12.375,10.438c0,3.25 2.688,5.187 6.063,5.187" style="fill-rule:nonzero;"/></g><g><path d="M1152.45,105.562c0,-0.875 3.813,-2.5 5.313,-2.5c0.375,0 0.562,0.063 0.562,0.313l0,6.437c0,1.125 -3.562,2.563 -5.125,2.563c-0.437,-0 -0.75,-0.125 -0.75,-0.375l0,-6.438m6.5,-8.875c-0.125,0 -0.187,0.063 -0.25,0.063c0,-0 -4,1.437 -5.625,1.437c-0.375,0 -0.625,-0.062 -0.625,-0.312l0,-10.438c0,-0.437 -0.375,-0.75 -0.75,-0.75l-0.812,0c-0.438,0 -0.75,0.313 -0.75,0.75l-0,32.188c-0,0.375 0.187,0.562 0.5,0.562c0.062,0 0.375,-0.062 0.437,-0.125c0.875,-0.375 4.375,-1.875 6.188,-1.875c0.625,0 1.062,0.188 1.062,0.688l0,9.312c0,0.438 0.313,0.75 0.75,0.75l0.813,0c0.375,0 0.75,-0.312 0.75,-0.75l-0,-31.375c-0,-0.312 -0.25,-0.5 -0.5,-0.5c-0.063,0 -0.188,0 -0.25,0.063l-0.938,0.312" style="fill-rule:nonzero;"/></g><g><path d="M1170.57,115.812c5.563,0 12.375,-5.125 12.375,-10.437c0,-3.188 -2.5,-5.188 -6.062,-5.188c-6.875,0 -12.375,5.063 -12.375,10.438c-0,3.25 2.687,5.187 6.062,5.187" style="fill-rule:nonzero;"/></g><g><path d="M1207.02,103.062c-0.375,1.25 -3.312,2.5 -4.75,2.5c-0.375,0 -0.687,-0.125 -0.75,-0.312c-0.125,-0.25 -0.187,-1.625 -0.187,-3.125c-0,-1.938 0.062,-4.125 0.187,-4.625c0.125,-1.063 3,-2.375 4.563,-2.375c0.437,-0 0.812,0.125 0.937,0.375c0.125,0.312 0.25,1.875 0.25,3.562c0,1.688 -0.125,3.438 -0.25,4m4.313,-10.187c0.437,-0.188 0.75,-0.688 0.75,-1.063l-0,-4.437c-0,-0.313 -0.188,-0.5 -0.438,-0.5c-0.125,-0 -0.187,-0 -0.312,0.062c-0,0 -1.25,0.5 -1.563,0.563c-0.437,-0 -0.875,-0.313 -0.875,-0.813l0,-7.625c0,-0.375 -0.375,-0.687 -0.875,-0.687c-0.625,-0 -1,0.312 -1,0.687l0,8.125c-0.062,0.625 -0.25,1.438 -0.812,1.813c-0.75,0.437 -2.875,1.312 -3.938,1.562c-0.562,0 -0.75,-0.75 -0.75,-1.25l0,-7.5c0,-0.375 -0.437,-0.687 -0.875,-0.687c-0.625,-0 -1,0.312 -1,0.687l0,8.438c0,0.875 -0.375,1.5 -0.75,1.687c-0.375,0.188 -1.625,0.688 -1.625,0.688c-0.437,0.125 -0.75,0.625 -0.75,1l0,4.437c0,0.375 0.188,0.563 0.5,0.563c0.25,-0 1.438,-0.563 1.625,-0.688c0.063,0 0.125,-0.062 0.188,-0.062c0.437,-0 0.812,0.625 0.812,1.125l0,6.187c0,0.688 -0.312,1.25 -0.687,1.438c-0.375,0.125 -1.688,0.687 -1.688,0.687c-0.437,0.125 -0.75,0.625 -0.75,1l0,4.438c0,0.375 0.188,0.562 0.5,0.562c0.063,0 0.188,-0.062 0.25,-0.062c0,-0 0.875,-0.375 1.438,-0.563c0.062,-0.062 0.125,-0.062 0.187,-0.062c0.438,-0 0.75,0.687 0.75,1l0,7.687c0,0.375 0.375,0.688 0.813,0.688c0.625,-0 1.062,-0.313 1.062,-0.688l0,-8.687c0,-0.813 0.313,-1.25 0.625,-1.375l3.813,-1.563c0.062,0 0.187,-0.062 0.25,-0.062c0.5,-0 0.812,0.75 0.812,1.125l0,7.812c0,0.375 0.375,0.688 0.813,0.688c0.687,-0 1.062,-0.313 1.062,-0.688l0,-8.875c0,-0.5 0.25,-1.25 0.688,-1.437c0.437,-0.188 1.75,-0.688 1.75,-0.688c0.437,-0.187 0.75,-0.687 0.75,-1.062l-0,-4.438c-0,-0.312 -0.188,-0.5 -0.438,-0.5c-0.125,0 -0.187,0 -0.312,0.063l-1.625,0.625c-0.375,-0 -0.813,-0.375 -0.813,-1.125l0,-5.813c0,-0.437 0.313,-1.625 0.813,-1.812l1.625,-0.625" style="fill-rule:nonzero;"/></g><g><path d="M1222.01,108.062c5.562,0 12.375,-5.125 12.375,-10.437c-0,-3.188 -2.5,-5.188 -6.063,-5.188c-6.875,0 -12.375,5.063 -12.375,10.438c0,3.25 2.688,5.187 6.063,5.187" style="fill-rule:nonzero;"/></g><g><path d="M1266.49,95.312c-0.375,1.25 -3.312,2.5 -4.75,2.5c-0.375,0 -0.687,-0.125 -0.75,-0.312c-0.125,-0.25 -0.187,-1.625 -0.187,-3.125c-0,-1.938 0.062,-4.125 0.187,-4.625c0.125,-1.063 3,-2.375 4.563,-2.375c0.437,-0 0.812,0.125 0.937,0.375c0.125,0.312 0.25,1.875 0.25,3.562c0,1.688 -0.125,3.438 -0.25,4m4.313,-10.187c0.437,-0.188 0.75,-0.688 0.75,-1.063l-0,-4.437c-0,-0.313 -0.188,-0.5 -0.438,-0.5c-0.125,-0 -0.187,-0 -0.312,0.062c-0,0 -1.25,0.5 -1.563,0.563c-0.437,-0 -0.875,-0.313 -0.875,-0.813l0,-7.625c0,-0.375 -0.375,-0.687 -0.875,-0.687c-0.625,-0 -1,0.312 -1,0.687l0,8.125c-0.062,0.625 -0.25,1.438 -0.812,1.813c-0.75,0.437 -2.875,1.312 -3.938,1.562c-0.562,0 -0.75,-0.75 -0.75,-1.25l0,-7.5c0,-0.375 -0.437,-0.687 -0.875,-0.687c-0.625,-0 -1,0.312 -1,0.687l0,8.438c0,0.875 -0.375,1.5 -0.75,1.687c-0.375,0.188 -1.625,0.688 -1.625,0.688c-0.437,0.125 -0.75,0.625 -0.75,1l0,4.437c0,0.375 0.188,0.563 0.5,0.563c0.25,-0 1.438,-0.563 1.625,-0.688c0.063,0 0.125,-0.062 0.188,-0.062c0.437,-0 0.812,0.625 0.812,1.125l0,6.187c0,0.688 -0.312,1.25 -0.687,1.438c-0.375,0.125 -1.688,0.687 -1.688,0.687c-0.437,0.125 -0.75,0.625 -0.75,1l0,4.438c0,0.375 0.188,0.562 0.5,0.562c0.063,0 0.188,-0.062 0.25,-0.062c0,-0 0.875,-0.375 1.438,-0.563c0.062,-0.062 0.125,-0.062 0.187,-0.062c0.438,-0 0.75,0.687 0.75,1l0,7.687c0,0.375 0.375,0.688 0.813,0.688c0.625,-0 1.062,-0.313 1.062,-0.688l0,-8.687c0,-0.813 0.313,-1.25 0.625,-1.375l3.813,-1.563c0.062,0 0.187,-0.062 0.25,-0.062c0.5,-0 0.812,0.75 0.812,1.125l0,7.812c0,0.375 0.375,0.688 0.813,0.688c0.687,-0 1.062,-0.313 1.062,-0.688l0,-8.875c0,-0.5 0.25,-1.25 0.688,-1.437c0.437,-0.188 1.75,-0.688 1.75,-0.688c0.437,-0.187 0.75,-0.687 0.75,-1.062l-0,-4.438c-0,-0.312 -0.188,-0.5 -0.438,-0.5c-0.125,0 -0.187,0 -0.312,0.063l-1.625,0.625c-0.375,-0 -0.813,-0.375 -0.813,-1.125l0,-5.813c0,-0.437 0.313,-1.625 0.813,-1.812l1.625,-0.625" style="fill-rule:nonzero;"/></g><g><path d="M1281.48,100.312c5.562,0 12.375,-5.125 12.375,-10.437c-0,-3.188 -2.5,-5.188 -6.063,-5.188c-6.875,0 -12.375,5.063 -12.375,10.438c0,3.25 2.688,5.187 6.063,5.187" style="fill-rule:nonzero;"/></g><g><path d="M1340.98,84.812c5.562,0 12.375,-5.125 12.375,-10.437c-0,-3.188 -2.5,-5.188 -6.063,-5.188c-6.875,0 -12.375,5.063 -12.375,10.438c0,3.25 2.688,5.187 6.063,5.187" style="fill-rule:nonzero;"/></g><g><path d="M1400.48,84.812c5.563,0 12.375,-5.125 12.375,-10.437c0,-3.188 -2.5,-5.188 -6.062,-5.188c-6.875,0 -12.375,5.063 -12.375,10.438c-0,3.25 2.687,5.187 6.062,5.187" style="fill-rule:nonzero;"/></g><g><path d="M1451.94,92.562c5.563,0 12.375,-5.125 12.375,-10.437c0,-3.188 -2.5,-5.188 -6.062,-5.188c-6.875,0 -12.375,5.063 -12.375,10.438c-0,3.25 2.687,5.187 6.062,5.187" style="fill-rule:nonzero;"/></g><g><path d="M1485.29,90.062c-0,-0.875 3.812,-2.5 5.312,-2.5c0.375,0 0.563,0.063 0.563,0.313l-0,6.437c-0,1.125 -3.563,2.563 -5.125,2.563c-0.438,-0 -0.75,-0.125 -0.75,-0.375l-0,-6.438m6.5,-8.875c-0.125,0 -0.188,0.063 -0.25,0.063c-0,-0 -4,1.437 -5.625,1.437c-0.375,0 -0.625,-0.062 -0.625,-0.312l-0,-10.438c-0,-0.437 -0.375,-0.75 -0.75,-0.75l-0.813,0c-0.437,0 -0.75,0.313 -0.75,0.75l0,32.188c0,0.375 0.188,0.562 0.5,0.562c0.063,0 0.375,-0.062 0.438,-0.125c0.875,-0.375 4.375,-1.875 6.187,-1.875c0.625,0 1.063,0.188 1.063,0.688l-0,9.312c-0,0.438 0.312,0.75 0.75,0.75l0.812,0c0.375,0 0.75,-0.312 0.75,-0.75l0,-31.375c0,-0.312 -0.25,-0.5 -0.5,-0.5c-0.062,0 -0.187,0 -0.25,0.063l-0.937,0.312" style="fill-rule:nonzero;"/></g><g><path d="M1503.41,100.312c5.562,0 12.375,-5.125 12.375,-10.437c-0,-3.188 -2.5,-5.188 -6.063,-5.188c-6.875,0 -12.375,5.063 -12.375,10.438c0,3.25 2.688,5.187 6.063,5.187" style="fill-rule:nonzero;"/></g><g><path d="M1554.87,108.062c5.563,0 12.375,-5.125 12.375,-10.437c0,-3.188 -2.5,-5.188 -6.062,-5.188c-6.875,0 -12.375,5.063 -12.375,10.438c-0,3.25 2.687,5.187 6.062,5.187" style="fill-rule:nonzero;"/></g><g><path d="M1606.34,115.812c5.562,0 12.375,-5.125 12.375,-10.437c-0,-3.188 -2.5,-5.188 -6.063,-5.188c-6.875,0 -12.375,5.063 -12.375,10.438c0,3.25 2.688,5.187 6.063,5.187" style="fill-rule:nonzero;"/></g><g><path d="M1647.71,113.312c-0,-0.875 3.812,-2.5 5.312,-2.5c0.375,0 0.563,0.063 0.563,0.313l-0,6.437c-0,1.125 -3.563,2.563 -5.125,2.563c-0.438,-0 -0.75,-0.125 -0.75,-0.375l-0,-6.438m6.5,-8.875c-0.125,0 -0.188,0.063 -0.25,0.063c-0,-0 -4,1.437 -5.625,1.437c-0.375,0 -0.625,-0.062 -0.625,-0.312l-0,-10.438c-0,-0.437 -0.375,-0.75 -0.75,-0.75l-0.813,0c-0.437,0 -0.75,0.313 -0.75,0.75l0,32.188c0,0.375 0.188,0.562 0.5,0.562c0.063,0 0.375,-0.062 0.438,-0.125c0.875,-0.375 4.375,-1.875 6.187,-1.875c0.625,0 1.063,0.188 1.063,0.688l-0,9.312c-0,0.438 0.312,0.75 0.75,0.75l0.812,0c0.375,0 0.75,-0.312 0.75,-0.75l0,-31.375c0,-0.312 -0.25,-0.5 -0.5,-0.5c-0.062,0 -0.187,0 -0.25,0.063l-0.937,0.312" style="fill-rule:nonzero;"/></g><g><path d="M1665.83,123.562c5.563,0 12.375,-5.125 12.375,-10.437c0,-3.188 -2.5,-5.188 -6.062,-5.188c-6.875,0 -12.375,5.063 -12.375,10.438c-0,3.25 2.687,5.187 6.062,5.187" style="fill-rule:nonzero;"/></g><g><path d="M1725.33,131.312c5.563,0 12.375,-5.125 12.375,-10.437c0,-3.188 -2.5,-5.188 -6.062,-5.188c-6.875,0 -12.375,5.063 -12.375,10.438c-0,3.25 2.687,5.187 6.062,5.187" style="fill-rule:nonzero;"/></g><g><path d="M161.563,161.375c0.187,1.187 0.187,1.125 -0.938,1.5c-5.5,1.875 -9.062,6.812 -9.062,12.125c-0,5.625 2.937,9.625 7.187,11.062c0.5,0.188 1.25,0.375 1.688,0.375c0.5,0 0.75,-0.312 0.75,-0.687c-0,-0.438 -0.5,-0.625 -0.938,-0.813c-2.625,-1.125 -4.5,-3.812 -4.5,-6.687c0,-3.563 2.438,-6.25 6.25,-7.313c1,-0.25 1.125,-0.187 1.25,0.5l3.125,18.625c0.125,0.688 0.063,0.688 -0.875,0.875c-1,0.188 -2.25,0.313 -3.5,0.313c-10.937,-0 -18,-6.063 -18,-14.75c0,-3.688 0.625,-8.625 5.813,-14.5c3.75,-4.188 6.625,-6.5 9.562,-8.875c0.625,-0.5 0.75,-0.438 0.875,0.25l1.313,8m6.812,-42.563c2.063,0 3.75,1.688 3.75,5.125c0,6.938 -5.937,12.563 -10.875,16.875c-0.437,0.375 -0.687,0.313 -0.812,-0.5c-0.25,-1.625 -0.375,-3.75 -0.375,-5.75c-0,-9.75 4.5,-15.75 8.312,-15.75m-2.5,52.5c-0.125,-0.75 -0.062,-0.937 0.688,-0.875c5.062,0.438 9.25,4.688 9.25,10.188c-0,3.937 -2.375,7.125 -5.875,8.875c-0.75,0.375 -0.875,0.375 -1,-0.375l-3.063,-17.813m-3.375,-19.5c-0.125,-0.75 0,-0.812 0.375,-1.187c6.75,-6.313 11.875,-14.25 11.875,-23.813c0,-5.437 -1.5,-10.812 -4.062,-14.562c-0.938,-1.375 -2.563,-3.125 -3.25,-3.125c-0.875,-0 -2.813,1.625 -4.063,3c-4.625,5.125 -6.125,12.937 -6.125,19.437c0,3.625 0.438,7.688 0.875,10.25c0.125,0.75 0.188,0.875 -0.562,1.5c-9,7.438 -18.563,16.375 -18.563,29c0,10.875 7.438,21.188 22.75,21.188c1.438,-0 3.063,-0.125 4.313,-0.375c0.687,-0.125 0.812,-0.188 0.937,0.562c0.75,4.188 1.688,9.625 1.688,12.563c-0,9.25 -6.25,10.375 -9.938,10.375c-3.375,-0 -5,-1 -5,-1.813c0,-0.437 0.563,-0.625 2,-1.062c1.938,-0.563 4.188,-2.25 4.188,-5.875c-0,-3.438 -2.188,-6.375 -6,-6.375c-4.188,-0 -6.688,3.312 -6.688,7.187c0,4.063 2.438,10.188 11.875,10.188c4.188,-0 12.313,-1.875 12.313,-12.5c-0,-3.563 -1.125,-9.5 -1.813,-13.375c-0.125,-0.75 -0.062,-0.688 0.813,-1.063c6.312,-2.5 10.5,-7.812 10.5,-14.875c-0,-8 -5.875,-15.062 -15.063,-15.062c-1.625,-0 -1.625,-0 -1.812,-1.125l-1.563,-9.063" style="fill-rule:nonzero;"/></g><g><text x="481.1px" y="243.537px" style="font-family:'Bravura';font-size:62.5px;"></text></g><g><text x="856.14px" y="229.603px" style="font-family:'Bravura';font-size:62.5px;"></text></g><g><text x="1266.19px" y="220.562px" style="font-family:'Bravura';font-size:62.5px;"></text></g><g><text x="1650.53px" y="220.562px" style="font-family:'Bravura';font-size:62.5px;"></text></g><g><path d="M232.376,169.997l-0,-7.753l156.249,-3.875l0,7.753l-156.249,3.875" style="fill-rule:nonzero;"/></g><g><path d="M232.376,181.625l-0,-7.753l156.249,-3.875l0,7.753l-156.249,3.875" style="fill-rule:nonzero;"/></g><g><path d="M438.219,154.5l0,-7.853l120.813,-19.375l-0,7.853l-120.813,19.375" style="fill-rule:nonzero;"/></g><g><path d="M600.094,228.15l0,-7.76l156.25,-7.75l-0,7.76l-156.25,7.75" style="fill-rule:nonzero;"/></g><g><path d="M600.094,216.509l0,-7.759l156.25,-7.75l-0,7.759l-156.25,7.75" style="fill-rule:nonzero;"/></g><g><path d="M805.906,208.815l0,-7.815l120.813,-15.5l-0,7.815l-120.813,15.5" style="fill-rule:nonzero;"/></g><g><path d="M1010.12,181.722l-0,-7.788l156.25,-15.5l-0,7.788l-156.25,15.5" style="fill-rule:nonzero;"/></g><g><path d="M1010.12,170.037l-0,-7.787l156.25,-15.5l-0,7.787l-156.25,15.5" style="fill-rule:nonzero;"/></g><g><path d="M1215.94,166.128l0,-7.753l120.844,-3.875l-0,7.753l-120.844,3.875" style="fill-rule:nonzero;"/></g><g><path d="M1394.41,162.256l-0,-7.753l156.281,3.875l0,7.753l-156.281,-3.875" style="fill-rule:nonzero;"/></g><g><path d="M1394.41,150.628l-0,-7.753l156.281,3.875l0,7.753l-156.281,-3.875" style="fill-rule:nonzero;"/></g><g><path d="M1600.28,166.19l-0,-7.815l120.843,15.5l0,7.815l-120.843,-15.5" style="fill-rule:nonzero;"/></g><g><path d="M416.532,232.062l56.812,0l0,-2.481l-54.344,0l0,-9.144l-2.468,0" style="fill-rule:nonzero;"/></g><g><path d="M560.282,232.062l-52.938,0l0,-2.481l50.469,0l-0,-9.144l2.469,0" style="fill-rule:nonzero;"/></g><g><path d="M131.251,348.25l738.093,-0" style="fill:none;stroke:#000;stroke-width:2.01px;"/><path d="M131.251,363.75l738.093,-0" style="fill:none;stroke:#000;stroke-width:2.01px;"/><path d="M131.251,379.25l738.093,-0" style="fill:none;stroke:#000;stroke-width:2.01px;"/><path d="M131.251,394.75l738.093,-0" style="fill:none;stroke:#000;stroke-width:2.01px;"/><path d="M131.251,410.25l738.093,-0" style="fill:none;stroke:#000;stroke-width:2.01px;"/></g><g><path d="M709.625,347.243l0,64.013" style="fill:none;stroke:#000;stroke-width:2.48px;"/><path d="M859.406,347.243l0,64.013" style="fill:none;stroke:#000;stroke-width:2.48px;"/><path d="M868.094,347.243l-0,64.013" style="fill:none;stroke:#000;stroke-width:2.48px;"/></g><g><path d="M216.719,350.853l0,55.728" style="fill:none;stroke:#000;stroke-width:1.86px;"/><path d="M247.719,358.603l0,52.528" style="fill:none;stroke:#000;stroke-width:1.86px;"/><path d="M278.751,366.353l-0,49.325" style="fill:none;stroke:#000;stroke-width:1.86px;"/><path d="M322.407,374.103l-0,47.978" style="fill:none;stroke:#000;stroke-width:1.86px;"/><path d="M370,332.65l0,43.997" style="fill:none;stroke:#000;stroke-width:1.86px;"/><path d="M405.813,338.462l-0,45.935" style="fill:none;stroke:#000;stroke-width:1.86px;"/><path d="M441.657,344.275l-0,47.872" style="fill:none;stroke:#000;stroke-width:1.86px;"/><path d="M477.5,347.928l0,51.969" style="fill:none;stroke:#000;stroke-width:1.86px;"/><path d="M508.5,353.609l0,54.038" style="fill:none;stroke:#000;stroke-width:1.86px;"/><path d="M539.532,359.293l-0,56.104" style="fill:none;stroke:#000;stroke-width:1.86px;"/><path d="M583.219,367.303l0,55.844" style="fill:none;stroke:#000;stroke-width:1.86px;"/></g><g><path d="M563.125,425.75l27.219,-0" style="fill:none;stroke:#000;stroke-width:2.48px;"/></g><g><path d="M617.969,379.237l0,51.66" style="fill:none;stroke:#000;stroke-width:1.86px;"/></g><g><path d="M594.25,425.75l30.844,-0" style="fill:none;stroke:#000;stroke-width:2.48px;"/></g><g><path d="M653.813,381.175l-0,57.472" style="fill:none;stroke:#000;stroke-width:1.86px;"/></g><g><path d="M630.094,441.25l30.844,-0" style="fill:none;stroke:#000;stroke-width:2.48px;"/><path d="M630.094,425.75l30.844,-0" style="fill:none;stroke:#000;stroke-width:2.48px;"/></g><g><path d="M689.625,383.112l0,63.285" style="fill:none;stroke:#000;stroke-width:1.86px;"/></g><g><path d="M665.938,441.25l30.843,-0" style="fill:none;stroke:#000;stroke-width:2.48px;"/><path d="M665.938,425.75l30.843,-0" style="fill:none;stroke:#000;stroke-width:2.48px;"/><path d="M727.969,441.25l38.75,-0" style="fill:none;stroke:#000;stroke-width:2.48px;"/><path d="M727.969,425.75l38.75,-0" style="fill:none;stroke:#000;stroke-width:2.48px;"/></g><g><path d="M228.337,327.112l0,-6.687c0,-0.313 -0.062,-0.563 -0.375,-0.563c-0.25,0 -0.437,0.063 -0.625,0.313l-1.875,3.625c-0.125,0.125 -0.312,0.312 -0.312,0.75l-0,2.562l-4.063,0c2.563,-2.125 6.563,-9.187 6.625,-9.562c0,-0.063 0.063,-0.125 0.063,-0.188c-0,-0.25 -0.25,-0.437 -0.438,-0.437c-0.312,-0 -1.625,0.125 -2.187,0.125c-0.563,-0 -0.938,-0.125 -1.188,-0.125c-0.312,-0 -0.75,0.125 -0.75,0.625c0,4 -3.25,8.562 -4.062,9.687c-0.125,0.125 -0.25,0.313 -0.25,0.5c-0,0.313 0.25,0.625 0.625,0.625l5.625,0l-0,1.938c-0,0.875 -0.5,1.125 -1,1.125c-0.563,-0 -0.813,0.25 -0.813,0.562c0,0.313 0.125,0.688 0.688,0.688l5.375,-0c0.312,-0 0.625,-0.25 0.625,-0.688c-0,-0.437 -0.375,-0.625 -0.688,-0.625c-0.312,0 -1,-0.187 -1,-1.187l0,-1.813l2.313,0c0.312,0 0.5,-0.25 0.5,-0.625c-0,-0.375 -0.125,-0.625 -0.5,-0.625l-2.313,0" style="fill-rule:nonzero;"/></g><g><path d="M255.372,317c-3.437,-0 -4.937,2.312 -4.937,3.625c-0,0.875 0.5,1.937 2.062,2c1.188,-0 1.75,-0.75 1.75,-1.563l0,-0.25c-0.062,-0.937 -0.687,-1 -0.812,-1.062c-0.125,-0.063 -0.375,-0.313 -0.375,-0.75c0.125,-0.688 1.062,-0.938 1.312,-0.938c3.188,0 4.125,1.688 4.125,2.75c0,2.938 -3,3.188 -3.937,3.25c-0.438,0 -0.875,0.188 -0.875,0.563c-0,0.375 0.562,0.375 0.812,0.375c3.625,-0 4.125,1.875 4.125,2.812c0,3.625 -2.937,3.75 -3.687,3.75c-0.375,0 -1,-0.187 -1.063,-0.5l0,-0.375c0,-0.687 0.188,-1.437 0.25,-2.062c0,-1.125 -0.75,-1.813 -1.875,-1.813l-0.25,0c-0.437,0.125 -0.875,0.375 -1.187,0.688c-0.438,0.375 -0.563,0.937 -0.563,1.5c0.063,2 1.813,3.687 4.938,3.75l0.375,-0c3.062,-0 6.25,-1.625 6.25,-4.375c-0,-0.625 -0.125,-1.125 -0.313,-1.5c-0.125,-0.375 -0.375,-0.688 -0.625,-0.938c-0.187,-0.25 -0.437,-0.437 -0.687,-0.625l-0.688,-0.375l-0.375,-0.125c-0.125,0 -0.187,-0.062 -0.312,-0.062l-0.375,-0.125c-0.188,-0.063 -0.25,-0 -0.313,-0.125c-0.062,-0.063 -0.062,-0.125 -0.062,-0.188c-0,-0.125 0.062,-0.25 0.187,-0.25l1,-0.312c0.438,-0.25 0.875,-0.438 1.188,-0.875c0.5,-0.5 0.687,-1.313 0.687,-2c0,-2.938 -3.875,-3.75 -5.25,-3.875l-0.5,-0" style="fill-rule:nonzero;"/></g><g><path d="M283.44,324.187c-0,0 -0.063,0.25 -0.063,0.438c0,0.25 0.25,0.5 0.5,0.5c0.188,-0 0.313,-0.188 0.375,-0.25c0.063,-0.188 0.813,-2.75 1.188,-3.375c0.125,-0.25 0.25,-0.313 0.312,-0.313c0.125,0 0.188,0.25 0.188,0.438l-0,8.937c-0,0.75 -0.625,1.188 -1.25,1.188c-0.25,-0 -0.563,0.125 -0.563,0.5c0,0.375 0.313,0.5 0.813,0.5l5.25,-0c0.5,-0 0.5,-0.5 0.5,-0.5c-0,-0 -0,-0.5 -0.5,-0.5c-0.438,-0 -1,-0.563 -1,-1.125l-0,-13c-0,-0.5 -0.188,-0.75 -0.625,-0.75c-0.438,-0 -0.813,0.125 -1.188,0.125c-0.625,-0 -0.75,-0 -1.25,-0.125c-0.25,-0 -0.562,0.375 -0.75,0.625l-1.937,6.687" style="fill-rule:nonzero;"/></g><g><path d="M327.113,324.187c-0,0 -0.063,0.25 -0.063,0.438c0,0.25 0.25,0.5 0.5,0.5c0.188,-0 0.313,-0.188 0.375,-0.25c0.063,-0.188 0.813,-2.75 1.188,-3.375c0.125,-0.25 0.25,-0.313 0.312,-0.313c0.125,0 0.188,0.25 0.188,0.438l-0,8.937c-0,0.75 -0.625,1.188 -1.25,1.188c-0.25,-0 -0.563,0.125 -0.563,0.5c0,0.375 0.313,0.5 0.813,0.5l5.25,-0c0.5,-0 0.5,-0.5 0.5,-0.5c-0,-0 -0,-0.5 -0.5,-0.5c-0.438,-0 -1,-0.563 -1,-1.125l-0,-13c-0,-0.5 -0.188,-0.75 -0.625,-0.75c-0.438,-0 -0.813,0.125 -1.188,0.125c-0.625,-0 -0.75,-0 -1.25,-0.125c-0.25,-0 -0.562,0.375 -0.75,0.625l-1.937,6.687" style="fill-rule:nonzero;"/></g><g><path d="M365.025,315.447l0,-6.688c0,-0.312 -0.062,-0.562 -0.375,-0.562c-0.25,-0 -0.437,0.062 -0.625,0.312l-1.875,3.625c-0.125,0.125 -0.312,0.313 -0.312,0.75l-0,2.563l-4.063,-0c2.563,-2.125 6.563,-9.188 6.625,-9.563c0,-0.062 0.063,-0.125 0.063,-0.187c-0,-0.25 -0.25,-0.438 -0.438,-0.438c-0.312,0 -1.625,0.125 -2.187,0.125c-0.563,0 -0.938,-0.125 -1.188,-0.125c-0.312,0 -0.75,0.125 -0.75,0.625c0,4 -3.25,8.563 -4.062,9.688c-0.125,0.125 -0.25,0.312 -0.25,0.5c-0,0.312 0.25,0.625 0.625,0.625l5.625,-0l-0,1.937c-0,0.875 -0.5,1.125 -1,1.125c-0.563,0 -0.813,0.25 -0.813,0.563c0,0.312 0.125,0.687 0.688,0.687l5.375,0c0.312,0 0.625,-0.25 0.625,-0.687c-0,-0.438 -0.375,-0.625 -0.688,-0.625c-0.312,-0 -1,-0.188 -1,-1.188l0,-1.812l2.313,-0c0.312,-0 0.5,-0.25 0.5,-0.625c-0,-0.375 -0.125,-0.625 -0.5,-0.625l-2.313,-0" style="fill-rule:nonzero;"/></g><g><path d="M403.734,319.025c0,-0.438 -0.187,-0.5 -0.375,-0.5c-0.25,-0 -0.375,0.187 -0.437,0.375c-0.313,0.875 -1,2 -1.938,2c-0.125,-0 -0.25,-0 -0.375,-0.063l-0.937,-0.312c-0.625,-0.25 -2.125,-0.75 -3.375,-0.75c-0.438,-0 -0.813,0.062 -1.188,0.187c0.688,-1.187 3.938,-2.75 4.625,-2.937c2.25,-0.313 4.125,-1.625 4.125,-4.063c0,-1.5 -0.625,-2.5 -1.437,-3.25c-1.625,-1.312 -4,-1.5 -4.688,-1.5c-2.25,0 -4.062,0.125 -5.687,2c-0.438,0.5 -0.625,1 -0.625,1.5c-0,0.438 0.187,0.938 0.375,1.5c0.375,0.75 1.187,1.313 2.062,1.313c1.563,-0 1.75,-1.5 1.75,-2.188c0,-1.437 -1.562,-1.562 -1.562,-2.187c-0,-0.438 0.625,-1.188 2.5,-1.188c2.937,0 3.937,2.438 3.937,3.188c0,1.125 -0.375,2.187 -1,3.062c-1.125,1.438 -3.187,1.938 -4.75,2.938c-1.75,1.062 -2.937,2.875 -3.5,4.875c0,0.437 0.188,0.937 0.563,1.125c0.062,0.062 0.187,0.062 0.25,0.062c0.687,0 1.062,-1.937 2.937,-1.937c1.25,-0 1.688,1.687 4.5,1.687c1.313,0 3.75,-0.125 4.25,-4.937" style="fill-rule:nonzero;"/></g><g><path d="M429.797,321.744c-0,-0 -0.063,0.25 -0.063,0.437c0,0.25 0.25,0.5 0.5,0.5c0.188,0 0.313,-0.187 0.375,-0.25c0.063,-0.187 0.813,-2.75 1.188,-3.375c0.125,-0.25 0.25,-0.312 0.312,-0.312c0.125,-0 0.188,0.25 0.188,0.437l-0,8.938c-0,0.75 -0.625,1.187 -1.25,1.187c-0.25,0 -0.563,0.125 -0.563,0.5c0,0.375 0.313,0.5 0.813,0.5l5.25,-0c0.5,-0 0.5,-0.5 0.5,-0.5c-0,-0 -0,-0.5 -0.5,-0.5c-0.438,0 -1,-0.562 -1,-1.125l-0,-13c-0,-0.5 -0.188,-0.75 -0.625,-0.75c-0.438,0 -0.813,0.125 -1.188,0.125c-0.625,0 -0.75,0 -1.25,-0.125c-0.25,0 -0.562,0.375 -0.75,0.625l-1.937,6.688" style="fill-rule:nonzero;"/></g><g><path d="M472.547,327.125l-0,-6.688c-0,-0.312 -0.063,-0.562 -0.375,-0.562c-0.25,-0 -0.438,0.062 -0.625,0.312l-1.875,3.625c-0.125,0.125 -0.313,0.313 -0.313,0.75l0,2.563l-4.062,-0c2.562,-2.125 6.562,-9.188 6.625,-9.563c-0,-0.062 0.062,-0.125 0.062,-0.187c0,-0.25 -0.25,-0.438 -0.437,-0.438c-0.313,0 -1.625,0.125 -2.188,0.125c-0.562,0 -0.937,-0.125 -1.187,-0.125c-0.313,0 -0.75,0.125 -0.75,0.625c-0,4 -3.25,8.563 -4.063,9.688c-0.125,0.125 -0.25,0.312 -0.25,0.5c0,0.312 0.25,0.625 0.625,0.625l5.625,-0l0,1.937c0,0.875 -0.5,1.125 -1,1.125c-0.562,0 -0.812,0.25 -0.812,0.563c-0,0.312 0.125,0.687 0.687,0.687l5.375,0c0.313,0 0.625,-0.25 0.625,-0.687c0,-0.438 -0.375,-0.625 -0.687,-0.625c-0.313,-0 -1,-0.188 -1,-1.188l-0,-1.812l2.312,-0c0.313,-0 0.5,-0.25 0.5,-0.625c0,-0.375 -0.125,-0.625 -0.5,-0.625l-2.312,-0" style="fill-rule:nonzero;"/></g><g><path d="M499.581,317c-3.437,-0 -4.937,2.312 -4.937,3.625c-0,0.875 0.5,1.937 2.062,2c1.188,-0 1.75,-0.75 1.75,-1.563l0,-0.25c-0.062,-0.937 -0.687,-1 -0.812,-1.062c-0.125,-0.063 -0.375,-0.313 -0.375,-0.75c0.125,-0.688 1.062,-0.938 1.312,-0.938c3.188,0 4.125,1.688 4.125,2.75c0,2.938 -3,3.188 -3.937,3.25c-0.438,0 -0.875,0.188 -0.875,0.563c-0,0.375 0.562,0.375 0.812,0.375c3.625,-0 4.125,1.875 4.125,2.812c0,3.625 -2.937,3.75 -3.687,3.75c-0.375,0 -1,-0.187 -1.063,-0.5l0,-0.375c0,-0.687 0.188,-1.437 0.25,-2.062c0,-1.125 -0.75,-1.813 -1.875,-1.813l-0.25,0c-0.437,0.125 -0.875,0.375 -1.187,0.688c-0.438,0.375 -0.563,0.937 -0.563,1.5c0.063,2 1.813,3.687 4.938,3.75l0.375,-0c3.062,-0 6.25,-1.625 6.25,-4.375c-0,-0.625 -0.125,-1.125 -0.313,-1.5c-0.125,-0.375 -0.375,-0.688 -0.625,-0.938c-0.187,-0.25 -0.437,-0.437 -0.687,-0.625l-0.688,-0.375l-0.375,-0.125c-0.125,0 -0.187,-0.062 -0.312,-0.062l-0.375,-0.125c-0.188,-0.063 -0.25,-0 -0.313,-0.125c-0.062,-0.063 -0.062,-0.125 -0.062,-0.188c-0,-0.125 0.062,-0.25 0.187,-0.25l1,-0.312c0.438,-0.25 0.875,-0.438 1.188,-0.875c0.5,-0.5 0.687,-1.313 0.687,-2c0,-2.938 -3.875,-3.75 -5.25,-3.875l-0.5,-0" style="fill-rule:nonzero;"/></g><g><path d="M527.647,324.187c-0,0 -0.063,0.25 -0.063,0.438c0,0.25 0.25,0.5 0.5,0.5c0.188,-0 0.313,-0.188 0.375,-0.25c0.063,-0.188 0.813,-2.75 1.188,-3.375c0.125,-0.25 0.25,-0.313 0.312,-0.313c0.125,0 0.188,0.25 0.188,0.438l-0,8.937c-0,0.75 -0.625,1.188 -1.25,1.188c-0.25,-0 -0.563,0.125 -0.563,0.5c0,0.375 0.313,0.5 0.813,0.5l5.25,-0c0.5,-0 0.5,-0.5 0.5,-0.5c-0,-0 -0,-0.5 -0.5,-0.5c-0.438,-0 -1,-0.563 -1,-1.125l-0,-13c-0,-0.5 -0.188,-0.75 -0.625,-0.75c-0.438,-0 -0.813,0.125 -1.188,0.125c-0.625,-0 -0.75,-0 -1.25,-0.125c-0.25,-0 -0.562,0.375 -0.75,0.625l-1.937,6.687" style="fill-rule:nonzero;"/></g><g><path d="M571.353,324.187c0,0 -0.062,0.25 -0.062,0.438c-0,0.25 0.25,0.5 0.5,0.5c0.187,-0 0.312,-0.188 0.375,-0.25c0.062,-0.188 0.812,-2.75 1.187,-3.375c0.125,-0.25 0.25,-0.313 0.313,-0.313c0.125,0 0.187,0.25 0.187,0.438l0,8.937c0,0.75 -0.625,1.188 -1.25,1.188c-0.25,-0 -0.562,0.125 -0.562,0.5c-0,0.375 0.312,0.5 0.812,0.5l5.25,-0c0.5,-0 0.5,-0.5 0.5,-0.5c0,-0 0,-0.5 -0.5,-0.5c-0.437,-0 -1,-0.563 -1,-1.125l0,-13c0,-0.5 -0.187,-0.75 -0.625,-0.75c-0.437,-0 -0.812,0.125 -1.187,0.125c-0.625,-0 -0.75,-0 -1.25,-0.125c-0.25,-0 -0.563,0.375 -0.75,0.625l-1.938,6.687" style="fill-rule:nonzero;"/></g><g><path d="M613,327.125l-0,-6.688c-0,-0.312 -0.063,-0.562 -0.375,-0.562c-0.25,-0 -0.438,0.062 -0.625,0.312l-1.875,3.625c-0.125,0.125 -0.313,0.313 -0.313,0.75l0,2.563l-4.062,-0c2.562,-2.125 6.562,-9.188 6.625,-9.563c-0,-0.062 0.062,-0.125 0.062,-0.187c0,-0.25 -0.25,-0.438 -0.437,-0.438c-0.313,0 -1.625,0.125 -2.188,0.125c-0.562,0 -0.937,-0.125 -1.187,-0.125c-0.313,0 -0.75,0.125 -0.75,0.625c-0,4 -3.25,8.563 -4.063,9.688c-0.125,0.125 -0.25,0.312 -0.25,0.5c0,0.312 0.25,0.625 0.625,0.625l5.625,-0l0,1.937c0,0.875 -0.5,1.125 -1,1.125c-0.562,0 -0.812,0.25 -0.812,0.563c-0,0.312 0.125,0.687 0.687,0.687l5.375,0c0.313,0 0.625,-0.25 0.625,-0.687c0,-0.438 -0.375,-0.625 -0.687,-0.625c-0.313,-0 -1,-0.188 -1,-1.188l-0,-1.812l2.312,-0c0.313,-0 0.5,-0.25 0.5,-0.625c0,-0.375 -0.125,-0.625 -0.5,-0.625l-2.312,-0" style="fill-rule:nonzero;"/></g><g><path d="M651.706,327.75c0,-0.438 -0.187,-0.5 -0.375,-0.5c-0.25,-0 -0.375,0.187 -0.437,0.375c-0.313,0.875 -1,2 -1.938,2c-0.125,-0 -0.25,-0 -0.375,-0.063l-0.937,-0.312c-0.625,-0.25 -2.125,-0.75 -3.375,-0.75c-0.438,-0 -0.813,0.062 -1.188,0.187c0.688,-1.187 3.938,-2.75 4.625,-2.937c2.25,-0.313 4.125,-1.625 4.125,-4.063c0,-1.5 -0.625,-2.5 -1.437,-3.25c-1.625,-1.312 -4,-1.5 -4.688,-1.5c-2.25,0 -4.062,0.125 -5.687,2c-0.438,0.5 -0.625,1 -0.625,1.5c-0,0.438 0.187,0.938 0.375,1.5c0.375,0.75 1.187,1.313 2.062,1.313c1.563,-0 1.75,-1.5 1.75,-2.188c0,-1.437 -1.562,-1.562 -1.562,-2.187c-0,-0.438 0.625,-1.188 2.5,-1.188c2.937,0 3.937,2.438 3.937,3.188c0,1.125 -0.375,2.187 -1,3.062c-1.125,1.438 -3.187,1.938 -4.75,2.938c-1.75,1.062 -2.937,2.875 -3.5,4.875c0,0.437 0.188,0.937 0.563,1.125c0.062,0.062 0.187,0.062 0.25,0.062c0.687,0 1.062,-1.937 2.937,-1.937c1.25,-0 1.688,1.687 4.5,1.687c1.313,0 3.75,-0.125 4.25,-4.937" style="fill-rule:nonzero;"/></g><g><path d="M677.769,324.187c-0,0 -0.063,0.25 -0.063,0.438c0,0.25 0.25,0.5 0.5,0.5c0.188,-0 0.313,-0.188 0.375,-0.25c0.063,-0.188 0.813,-2.75 1.188,-3.375c0.125,-0.25 0.25,-0.313 0.312,-0.313c0.125,0 0.188,0.25 0.188,0.438l-0,8.937c-0,0.75 -0.625,1.188 -1.25,1.188c-0.25,-0 -0.563,0.125 -0.563,0.5c0,0.375 0.313,0.5 0.813,0.5l5.25,-0c0.5,-0 0.5,-0.5 0.5,-0.5c-0,-0 -0,-0.5 -0.5,-0.5c-0.438,-0 -1,-0.563 -1,-1.125l-0,-13c-0,-0.5 -0.188,-0.75 -0.625,-0.75c-0.438,-0 -0.813,0.125 -1.188,0.125c-0.625,-0 -0.75,-0 -1.25,-0.125c-0.25,-0 -0.562,0.375 -0.75,0.625l-1.937,6.687" style="fill-rule:nonzero;"/></g><g><path d="M743.756,324.187c0,0 -0.062,0.25 -0.062,0.438c-0,0.25 0.25,0.5 0.5,0.5c0.187,-0 0.312,-0.188 0.375,-0.25c0.062,-0.188 0.812,-2.75 1.187,-3.375c0.125,-0.25 0.25,-0.313 0.313,-0.313c0.125,0 0.187,0.25 0.187,0.438l0,8.937c0,0.75 -0.625,1.188 -1.25,1.188c-0.25,-0 -0.562,0.125 -0.562,0.5c-0,0.375 0.312,0.5 0.812,0.5l5.25,-0c0.5,-0 0.5,-0.5 0.5,-0.5c0,-0 0,-0.5 -0.5,-0.5c-0.437,-0 -1,-0.563 -1,-1.125l0,-13c0,-0.5 -0.187,-0.75 -0.625,-0.75c-0.437,-0 -0.812,0.125 -1.187,0.125c-0.625,-0 -0.75,-0 -1.25,-0.125c-0.25,-0 -0.563,0.375 -0.75,0.625l-1.938,6.687" style="fill-rule:nonzero;"/></g><g><path d="M221.857,356.062c5.562,0 12.375,-5.125 12.375,-10.437c-0,-3.188 -2.5,-5.188 -6.063,-5.188c-6.875,0 -12.375,5.063 -12.375,10.438c0,3.25 2.688,5.187 6.063,5.187" style="fill-rule:nonzero;"/></g><g><path d="M252.862,363.812c5.563,0 12.375,-5.125 12.375,-10.437c0,-3.188 -2.5,-5.188 -6.062,-5.188c-6.875,0 -12.375,5.063 -12.375,10.438c-0,3.25 2.687,5.187 6.062,5.187" style="fill-rule:nonzero;"/></g><g><path d="M283.868,371.562c5.563,0 12.375,-5.125 12.375,-10.437c0,-3.188 -2.5,-5.188 -6.062,-5.188c-6.875,0 -12.375,5.063 -12.375,10.438c-0,3.25 2.687,5.187 6.062,5.187" style="fill-rule:nonzero;"/></g><g><path d="M312.551,374.312c-0.375,1.25 -3.312,2.5 -4.75,2.5c-0.375,0 -0.687,-0.125 -0.75,-0.312c-0.125,-0.25 -0.187,-1.625 -0.187,-3.125c-0,-1.938 0.062,-4.125 0.187,-4.625c0.125,-1.063 3,-2.375 4.563,-2.375c0.437,-0 0.812,0.125 0.937,0.375c0.125,0.312 0.25,1.875 0.25,3.562c0,1.688 -0.125,3.438 -0.25,4m4.313,-10.187c0.437,-0.188 0.75,-0.688 0.75,-1.063l-0,-4.437c-0,-0.313 -0.188,-0.5 -0.438,-0.5c-0.125,-0 -0.187,-0 -0.312,0.062c-0,0 -1.25,0.5 -1.563,0.563c-0.437,-0 -0.875,-0.313 -0.875,-0.813l0,-7.625c0,-0.375 -0.375,-0.687 -0.875,-0.687c-0.625,-0 -1,0.312 -1,0.687l0,8.125c-0.062,0.625 -0.25,1.438 -0.812,1.813c-0.75,0.437 -2.875,1.312 -3.938,1.562c-0.562,0 -0.75,-0.75 -0.75,-1.25l0,-7.5c0,-0.375 -0.437,-0.687 -0.875,-0.687c-0.625,-0 -1,0.312 -1,0.687l0,8.438c0,0.875 -0.375,1.5 -0.75,1.687c-0.375,0.188 -1.625,0.688 -1.625,0.688c-0.437,0.125 -0.75,0.625 -0.75,1l0,4.437c0,0.375 0.188,0.563 0.5,0.563c0.25,-0 1.438,-0.563 1.625,-0.688c0.063,0 0.125,-0.062 0.188,-0.062c0.437,-0 0.812,0.625 0.812,1.125l0,6.187c0,0.688 -0.312,1.25 -0.687,1.438c-0.375,0.125 -1.688,0.687 -1.688,0.687c-0.437,0.125 -0.75,0.625 -0.75,1l0,4.438c0,0.375 0.188,0.562 0.5,0.562c0.063,0 0.188,-0.062 0.25,-0.062c0,-0 0.875,-0.375 1.438,-0.563c0.062,-0.062 0.125,-0.062 0.187,-0.062c0.438,-0 0.75,0.687 0.75,1l0,7.687c0,0.375 0.375,0.688 0.813,0.688c0.625,-0 1.062,-0.313 1.062,-0.688l0,-8.687c0,-0.813 0.313,-1.25 0.625,-1.375l3.813,-1.563c0.062,0 0.187,-0.062 0.25,-0.062c0.5,-0 0.812,0.75 0.812,1.125l0,7.812c0,0.375 0.375,0.688 0.813,0.688c0.687,-0 1.062,-0.313 1.062,-0.688l0,-8.875c0,-0.5 0.25,-1.25 0.688,-1.437c0.437,-0.188 1.75,-0.688 1.75,-0.688c0.437,-0.187 0.75,-0.687 0.75,-1.062l-0,-4.438c-0,-0.312 -0.188,-0.5 -0.438,-0.5c-0.125,0 -0.187,0 -0.312,0.063l-1.625,0.625c-0.375,-0 -0.813,-0.375 -0.813,-1.125l0,-5.813c0,-0.437 0.313,-1.625 0.813,-1.812l1.625,-0.625" style="fill-rule:nonzero;"/></g><g><path d="M327.541,379.312c5.562,0 12.375,-5.125 12.375,-10.437c-0,-3.188 -2.5,-5.188 -6.063,-5.188c-6.875,0 -12.375,5.063 -12.375,10.438c0,3.25 2.688,5.187 6.063,5.187" style="fill-rule:nonzero;"/></g><g><path d="M358.547,387.062c5.562,0 12.375,-5.125 12.375,-10.437c-0,-3.188 -2.5,-5.188 -6.063,-5.188c-6.875,0 -12.375,5.063 -12.375,10.438c0,3.25 2.688,5.187 6.063,5.187" style="fill-rule:nonzero;"/></g><g><path d="M394.384,394.812c5.563,0 12.375,-5.125 12.375,-10.437c0,-3.188 -2.5,-5.188 -6.062,-5.188c-6.875,0 -12.375,5.063 -12.375,10.438c-0,3.25 2.687,5.187 6.062,5.187" style="fill-rule:nonzero;"/></g><g><path d="M430.225,402.562c5.563,0 12.375,-5.125 12.375,-10.437c0,-3.188 -2.5,-5.188 -6.062,-5.188c-6.875,0 -12.375,5.063 -12.375,10.438c-0,3.25 2.687,5.187 6.062,5.187" style="fill-rule:nonzero;"/></g><g><path d="M466.066,410.312c5.562,0 12.375,-5.125 12.375,-10.437c-0,-3.188 -2.5,-5.188 -6.063,-5.188c-6.875,0 -12.375,5.063 -12.375,10.438c0,3.25 2.688,5.187 6.063,5.187" style="fill-rule:nonzero;"/></g><g><path d="M497.072,418.062c5.562,0 12.375,-5.125 12.375,-10.437c-0,-3.188 -2.5,-5.188 -6.063,-5.188c-6.875,0 -12.375,5.063 -12.375,10.438c0,3.25 2.688,5.187 6.063,5.187" style="fill-rule:nonzero;"/></g><g><path d="M528.078,425.812c5.563,0 12.375,-5.125 12.375,-10.437c0,-3.188 -2.5,-5.188 -6.062,-5.188c-6.875,0 -12.375,5.063 -12.375,10.438c-0,3.25 2.687,5.187 6.062,5.187" style="fill-rule:nonzero;"/></g><g><path d="M556.791,428.562c-0.375,1.25 -3.313,2.5 -4.75,2.5c-0.375,0 -0.688,-0.125 -0.75,-0.312c-0.125,-0.25 -0.188,-1.625 -0.188,-3.125c0,-1.938 0.063,-4.125 0.188,-4.625c0.125,-1.063 3,-2.375 4.562,-2.375c0.438,-0 0.813,0.125 0.938,0.375c0.125,0.312 0.25,1.875 0.25,3.562c-0,1.688 -0.125,3.438 -0.25,4m4.312,-10.187c0.438,-0.188 0.75,-0.688 0.75,-1.063l0,-4.437c0,-0.313 -0.187,-0.5 -0.437,-0.5c-0.125,-0 -0.188,-0 -0.313,0.062c0,0 -1.25,0.5 -1.562,0.563c-0.438,-0 -0.875,-0.313 -0.875,-0.813l-0,-7.625c-0,-0.375 -0.375,-0.687 -0.875,-0.687c-0.625,-0 -1,0.312 -1,0.687l-0,8.125c-0.063,0.625 -0.25,1.438 -0.813,1.813c-0.75,0.437 -2.875,1.312 -3.937,1.562c-0.563,0 -0.75,-0.75 -0.75,-1.25l-0,-7.5c-0,-0.375 -0.438,-0.687 -0.875,-0.687c-0.625,-0 -1,0.312 -1,0.687l-0,8.438c-0,0.875 -0.375,1.5 -0.75,1.687c-0.375,0.188 -1.625,0.688 -1.625,0.688c-0.438,0.125 -0.75,0.625 -0.75,1l-0,4.437c-0,0.375 0.187,0.563 0.5,0.563c0.25,-0 1.437,-0.563 1.625,-0.688c0.062,0 0.125,-0.062 0.187,-0.062c0.438,-0 0.813,0.625 0.813,1.125l-0,6.187c-0,0.688 -0.313,1.25 -0.688,1.438c-0.375,0.125 -1.687,0.687 -1.687,0.687c-0.438,0.125 -0.75,0.625 -0.75,1l-0,4.438c-0,0.375 0.187,0.562 0.5,0.562c0.062,0 0.187,-0.062 0.25,-0.062c-0,-0 0.875,-0.375 1.437,-0.563c0.063,-0.062 0.125,-0.062 0.188,-0.062c0.437,-0 0.75,0.687 0.75,1l-0,7.687c-0,0.375 0.375,0.688 0.812,0.688c0.625,-0 1.063,-0.313 1.063,-0.688l-0,-8.687c-0,-0.813 0.312,-1.25 0.625,-1.375l3.812,-1.563c0.063,0 0.188,-0.062 0.25,-0.062c0.5,-0 0.813,0.75 0.813,1.125l-0,7.812c-0,0.375 0.375,0.688 0.812,0.688c0.688,-0 1.063,-0.313 1.063,-0.688l-0,-8.875c-0,-0.5 0.25,-1.25 0.687,-1.437c0.438,-0.188 1.75,-0.688 1.75,-0.688c0.438,-0.187 0.75,-0.687 0.75,-1.062l0,-4.438c0,-0.312 -0.187,-0.5 -0.437,-0.5c-0.125,0 -0.188,0 -0.313,0.063l-1.625,0.625c-0.375,-0 -0.812,-0.375 -0.812,-1.125l-0,-5.813c-0,-0.437 0.312,-1.625 0.812,-1.812l1.625,-0.625" style="fill-rule:nonzero;"/></g><g><path d="M571.781,433.562c5.563,0 12.375,-5.125 12.375,-10.437c0,-3.188 -2.5,-5.188 -6.062,-5.188c-6.875,0 -12.375,5.063 -12.375,10.438c-0,3.25 2.687,5.187 6.062,5.187" style="fill-rule:nonzero;"/></g><g><path d="M606.519,441.312c5.562,0 12.375,-5.125 12.375,-10.437c-0,-3.188 -2.5,-5.188 -6.063,-5.188c-6.875,0 -12.375,5.063 -12.375,10.438c0,3.25 2.688,5.187 6.063,5.187" style="fill-rule:nonzero;"/></g><g><path d="M642.359,449.062c5.563,0 12.375,-5.125 12.375,-10.437c0,-3.188 -2.5,-5.188 -6.062,-5.188c-6.875,0 -12.375,5.063 -12.375,10.438c-0,3.25 2.687,5.187 6.062,5.187" style="fill-rule:nonzero;"/></g><g><path d="M678.2,456.812c5.562,0 12.375,-5.125 12.375,-10.437c-0,-3.188 -2.5,-5.188 -6.063,-5.188c-6.875,0 -12.375,5.063 -12.375,10.438c0,3.25 2.688,5.187 6.063,5.187" style="fill-rule:nonzero;"/></g><g><path d="M741.094,445.062c0.687,-2.187 3,-2.5 4.937,-2.5c4.313,0 7.75,4.625 7.75,8.375c0,1.938 -0.812,3.688 -2.875,4.188c-0.625,0.187 -1.312,0.25 -1.937,0.25c-2.25,-0 -4.563,-1.5 -5.875,-3.25c-1.25,-1.438 -2.188,-3.563 -2.188,-5.563c0,-0.5 0.063,-1 0.188,-1.5m6.562,-3.875c-8.312,0 -13.5,3.438 -13.5,7.688c0,4.187 3.563,7.937 12.875,7.937c10.25,0 13.5,-3.562 13.5,-7.937c0,-4.438 -7.062,-7.688 -12.875,-7.688" style="fill-rule:nonzero;"/></g><g><path d="M161.563,378.375c0.187,1.187 0.187,1.125 -0.938,1.5c-5.5,1.875 -9.062,6.812 -9.062,12.125c-0,5.625 2.937,9.625 7.187,11.062c0.5,0.188 1.25,0.375 1.688,0.375c0.5,0 0.75,-0.312 0.75,-0.687c-0,-0.438 -0.5,-0.625 -0.938,-0.813c-2.625,-1.125 -4.5,-3.812 -4.5,-6.687c0,-3.563 2.438,-6.25 6.25,-7.313c1,-0.25 1.125,-0.187 1.25,0.5l3.125,18.625c0.125,0.688 0.063,0.688 -0.875,0.875c-1,0.188 -2.25,0.313 -3.5,0.313c-10.937,-0 -18,-6.063 -18,-14.75c0,-3.688 0.625,-8.625 5.813,-14.5c3.75,-4.188 6.625,-6.5 9.562,-8.875c0.625,-0.5 0.75,-0.438 0.875,0.25l1.313,8m6.812,-42.563c2.063,0 3.75,1.688 3.75,5.125c0,6.938 -5.937,12.563 -10.875,16.875c-0.437,0.375 -0.687,0.313 -0.812,-0.5c-0.25,-1.625 -0.375,-3.75 -0.375,-5.75c-0,-9.75 4.5,-15.75 8.312,-15.75m-2.5,52.5c-0.125,-0.75 -0.062,-0.937 0.688,-0.875c5.062,0.438 9.25,4.688 9.25,10.188c-0,3.937 -2.375,7.125 -5.875,8.875c-0.75,0.375 -0.875,0.375 -1,-0.375l-3.063,-17.813m-3.375,-19.5c-0.125,-0.75 0,-0.812 0.375,-1.187c6.75,-6.313 11.875,-14.25 11.875,-23.813c0,-5.437 -1.5,-10.812 -4.062,-14.562c-0.938,-1.375 -2.563,-3.125 -3.25,-3.125c-0.875,-0 -2.813,1.625 -4.063,3c-4.625,5.125 -6.125,12.937 -6.125,19.437c0,3.625 0.438,7.688 0.875,10.25c0.125,0.75 0.188,0.875 -0.562,1.5c-9,7.438 -18.563,16.375 -18.563,29c0,10.875 7.438,21.188 22.75,21.188c1.438,-0 3.063,-0.125 4.313,-0.375c0.687,-0.125 0.812,-0.188 0.937,0.562c0.75,4.188 1.688,9.625 1.688,12.563c-0,9.25 -6.25,10.375 -9.938,10.375c-3.375,-0 -5,-1 -5,-1.813c0,-0.437 0.563,-0.625 2,-1.062c1.938,-0.563 4.188,-2.25 4.188,-5.875c-0,-3.438 -2.188,-6.375 -6,-6.375c-4.188,-0 -6.688,3.312 -6.688,7.187c0,4.063 2.438,10.188 11.875,10.188c4.188,-0 12.313,-1.875 12.313,-12.5c-0,-3.563 -1.125,-9.5 -1.813,-13.375c-0.125,-0.75 -0.062,-0.688 0.813,-1.063c6.312,-2.5 10.5,-7.812 10.5,-14.875c-0,-8 -5.875,-15.062 -15.063,-15.062c-1.625,-0 -1.625,-0 -1.812,-1.125l-1.563,-9.063" style="fill-rule:nonzero;"/></g><g><text x="388.3px" y="437.562px" style="font-family:'Bravura';font-size:62.5px;"></text></g><g><text x="636.272px" y="478.431px" style="font-family:'Bravura';font-size:62.5px;"></text></g><g><path d="M215.782,410.456l-0,-7.831l107.562,15.5l0,7.831l-107.562,-15.5" style="fill-rule:nonzero;"/></g><g><path d="M215.782,398.709l-0,-7.834l107.562,15.5l0,7.834l-107.562,-15.5" style="fill-rule:nonzero;"/></g><g><path d="M369.063,336.625l-0,-7.85l73.531,11.625l0,7.85l-73.531,-11.625" style="fill-rule:nonzero;"/></g><g><path d="M476.563,351.931l-0,-7.878l107.594,19.375l-0,7.878l-107.594,-19.375" style="fill-rule:nonzero;"/></g><g><path d="M476.563,363.75l-0,-7.878l107.594,19.375l-0,7.878l-107.594,-19.375" style="fill-rule:nonzero;"/></g><g><path d="M617.032,383.125l-0,-7.763l73.531,3.875l-0,7.763l-73.531,-3.875" style="fill-rule:nonzero;"/></g><g><path d="M347.375,426.087l33.188,0l-0,-2.478l-30.719,0l0,-9.147l-2.469,0" style="fill-rule:nonzero;"/></g><g><path d="M443.844,426.087l-29.312,0l-0,-2.478l26.812,0l0,-9.147l2.5,0" style="fill-rule:nonzero;"/></g><g><path d="M595.344,456.812l33.344,6.656l-0,-2.534l-30.875,-6.159l-0,-9.588l-2.469,0" style="fill-rule:nonzero;"/></g><g><path d="M691.813,476.297l-29.469,-5.85l-0,-2.535l27,5.597l-0,-8.837l2.469,-0" style="fill-rule:nonzero;"/></g></g></svg>