<?xml version="1.0" encoding="UTF-8" standalone="no"?><!DOCTYPE svg PUBLIC "-//W3C//DTD SVG 1.1//EN" "http://www.w3.org/Graphics/SVG/1.1/DTD/svg11.dtd"><svg width="100%" height="100%" viewBox="0 0 1913 519" version="1.1" xmlns="http://www.w3.org/2000/svg" xmlns:xlink="http://www.w3.org/1999/xlink" xml:space="preserve" xmlns:serif="http://www.serif.com/" style="fill-rule:evenodd;clip-rule:evenodd;stroke-miterlimit:2;"><g><g><path d="M131.251,146.75l1650,-0" style="fill:none;stroke:#000;stroke-width:2.01px;"/><path d="M131.251,131.25l1650,-0" style="fill:none;stroke:#000;stroke-width:2.01px;"/><path d="M131.251,177.75l1650,-0" style="fill:none;stroke:#000;stroke-width:2.01px;"/><path d="M131.251,162.25l1650,-0" style="fill:none;stroke:#000;stroke-width:2.01px;"/><path d="M131.251,193.25l1650,-0" style="fill:none;stroke:#000;stroke-width:2.01px;"/></g><g><path d="M985.656,130.244l0,64.012" style="fill:none;stroke:#000;stroke-width:2.48px;"/><path d="M1780,130.244l0,64.012" style="fill:none;stroke:#000;stroke-width:2.48px;"/></g><g><path d="M233.282,166.119l-0,63.278" style="fill:none;stroke:#000;stroke-width:1.86px;"/></g><g><path d="M209.594,224.25l30.844,-0" style="fill:none;stroke:#000;stroke-width:2.48px;"/><path d="M209.594,208.75l30.844,-0" style="fill:none;stroke:#000;stroke-width:2.48px;"/></g><g><path d="M281.719,164.822l0,56.825" style="fill:none;stroke:#000;stroke-width:1.86px;"/></g><g><path d="M261.657,224.25l27.187,-0" style="fill:none;stroke:#000;stroke-width:2.48px;"/><path d="M258.032,208.75l30.812,-0" style="fill:none;stroke:#000;stroke-width:2.48px;"/></g><g><path d="M330.157,163.525l-0,50.372" style="fill:none;stroke:#000;stroke-width:1.86px;"/></g><g><path d="M310.344,208.75l26.938,-0" style="fill:none;stroke:#000;stroke-width:2.48px;"/></g><g><path d="M378,162.244l0,51.653" style="fill:none;stroke:#000;stroke-width:1.86px;"/></g><g><path d="M358.188,208.75l26.937,-0" style="fill:none;stroke:#000;stroke-width:2.48px;"/></g><g><path d="M427.875,150.45l0,55.697" style="fill:none;stroke:#000;stroke-width:1.86px;"/></g><g><path d="M407.782,208.75l27.218,-0" style="fill:none;stroke:#000;stroke-width:2.48px;"/></g><g><path d="M475.719,143.991l0,54.406" style="fill:none;stroke:#000;stroke-width:1.86px;"/><path d="M523.563,137.531l-0,53.116" style="fill:none;stroke:#000;stroke-width:1.86px;"/><path d="M571.407,131.075l-0,51.822" style="fill:none;stroke:#000;stroke-width:1.86px;"/><path d="M602.688,180.353l-0,43.925" style="fill:none;stroke:#000;stroke-width:1.86px;"/><path d="M650.5,172.603l0,49.091" style="fill:none;stroke:#000;stroke-width:1.86px;"/><path d="M698.344,164.853l-0,54.259" style="fill:none;stroke:#000;stroke-width:1.86px;"/><path d="M746.156,164.853l0,51.675" style="fill:none;stroke:#000;stroke-width:1.86px;"/><path d="M793.969,157.103l-0,47.884" style="fill:none;stroke:#000;stroke-width:1.86px;"/><path d="M841.813,149.353l-0,50.469" style="fill:none;stroke:#000;stroke-width:1.86px;"/><path d="M889.656,141.603l0,53.05" style="fill:none;stroke:#000;stroke-width:1.86px;"/><path d="M937.5,133.853l0,55.634" style="fill:none;stroke:#000;stroke-width:1.86px;"/><path d="M1011.09,126.103l-0,51.759" style="fill:none;stroke:#000;stroke-width:1.86px;"/><path d="M1058.94,118.354l0,54.365" style="fill:none;stroke:#000;stroke-width:1.86px;"/></g><g><path d="M1055.41,115.75l27.219,-0" style="fill:none;stroke:#000;stroke-width:2.48px;"/></g><g><path d="M1107.34,110.604l-0,56.905" style="fill:none;stroke:#000;stroke-width:1.86px;"/></g><g><path d="M1104.09,115.75l26.968,-0" style="fill:none;stroke:#000;stroke-width:2.48px;"/></g><g><path d="M1155.19,110.604l0,51.758" style="fill:none;stroke:#000;stroke-width:1.86px;"/></g><g><path d="M1151.94,115.75l26.969,-0" style="fill:none;stroke:#000;stroke-width:2.48px;"/></g><g><path d="M1205.06,102.854l0,59.402" style="fill:none;stroke:#000;stroke-width:1.86px;"/></g><g><path d="M1201.56,100.25l27.219,-0" style="fill:none;stroke:#000;stroke-width:2.48px;"/><path d="M1201.81,115.75l26.969,-0" style="fill:none;stroke:#000;stroke-width:2.48px;"/></g><g><path d="M1252.91,95.104l0,65.862" style="fill:none;stroke:#000;stroke-width:1.86px;"/></g><g><path d="M1245.78,100.25l30.844,-0" style="fill:none;stroke:#000;stroke-width:2.48px;"/><path d="M1245.78,115.75l30.844,-0" style="fill:none;stroke:#000;stroke-width:2.48px;"/></g><g><path d="M1300.75,87.354l-0,72.321" style="fill:none;stroke:#000;stroke-width:1.86px;"/></g><g><path d="M1293.62,84.75l30.812,-0" style="fill:none;stroke:#000;stroke-width:2.48px;"/><path d="M1293.62,100.25l30.812,-0" style="fill:none;stroke:#000;stroke-width:2.48px;"/><path d="M1293.62,115.75l30.812,-0" style="fill:none;stroke:#000;stroke-width:2.48px;"/></g><g><path d="M1348.59,79.604l0,78.777" style="fill:none;stroke:#000;stroke-width:1.86px;"/></g><g><path d="M1341.44,84.75l30.844,-0" style="fill:none;stroke:#000;stroke-width:2.48px;"/><path d="M1341.44,100.25l30.844,-0" style="fill:none;stroke:#000;stroke-width:2.48px;"/><path d="M1341.44,115.75l30.844,-0" style="fill:none;stroke:#000;stroke-width:2.48px;"/></g><g><path d="M1396.41,71.854l-0,86.527" style="fill:none;stroke:#000;stroke-width:1.86px;"/></g><g><path d="M1389.28,69.25l30.844,-0" style="fill:none;stroke:#000;stroke-width:2.48px;"/><path d="M1389.28,84.75l30.844,-0" style="fill:none;stroke:#000;stroke-width:2.48px;"/><path d="M1389.28,100.25l30.844,-0" style="fill:none;stroke:#000;stroke-width:2.48px;"/><path d="M1389.28,115.75l30.844,-0" style="fill:none;stroke:#000;stroke-width:2.48px;"/></g><g><path d="M1444.25,79.604l-0,80.071" style="fill:none;stroke:#000;stroke-width:1.86px;"/></g><g><path d="M1437.12,84.75l30.843,-0" style="fill:none;stroke:#000;stroke-width:2.48px;"/><path d="M1437.12,100.25l30.843,-0" style="fill:none;stroke:#000;stroke-width:2.48px;"/><path d="M1437.12,115.75l30.843,-0" style="fill:none;stroke:#000;stroke-width:2.48px;"/></g><g><path d="M1492.09,87.354l0,73.612" style="fill:none;stroke:#000;stroke-width:1.86px;"/></g><g><path d="M1484.97,84.75l30.844,-0" style="fill:none;stroke:#000;stroke-width:2.48px;"/><path d="M1484.97,100.25l30.844,-0" style="fill:none;stroke:#000;stroke-width:2.48px;"/><path d="M1484.97,115.75l30.844,-0" style="fill:none;stroke:#000;stroke-width:2.48px;"/></g><g><path d="M1539.94,95.104l0,67.152" style="fill:none;stroke:#000;stroke-width:1.86px;"/></g><g><path d="M1532.81,100.25l30.813,-0" style="fill:none;stroke:#000;stroke-width:2.48px;"/><path d="M1532.81,115.75l30.813,-0" style="fill:none;stroke:#000;stroke-width:2.48px;"/></g><g><path d="M1587.78,102.854l-0,55.527" style="fill:none;stroke:#000;stroke-width:1.86px;"/></g><g><path d="M1580.62,100.25l30.843,-0" style="fill:none;stroke:#000;stroke-width:2.48px;"/><path d="M1580.62,115.75l30.843,-0" style="fill:none;stroke:#000;stroke-width:2.48px;"/></g><g><path d="M1635.59,110.604l0,49.065" style="fill:none;stroke:#000;stroke-width:1.86px;"/></g><g><path d="M1628.47,115.75l30.844,-0" style="fill:none;stroke:#000;stroke-width:2.48px;"/></g><g><path d="M1684.03,110.604l-0,50.368" style="fill:none;stroke:#000;stroke-width:1.86px;"/></g><g><path d="M1680.78,115.75l26.968,-0" style="fill:none;stroke:#000;stroke-width:2.48px;"/></g><g><path d="M1731.87,118.354l0,43.902" style="fill:none;stroke:#000;stroke-width:1.86px;"/></g><g><path d="M1724.75,115.75l30.813,-0" style="fill:none;stroke:#000;stroke-width:2.48px;"/></g><g><path d="M221.428,107.187c0,0 -0.062,0.25 -0.062,0.438c-0,0.25 0.25,0.5 0.5,0.5c0.187,-0 0.312,-0.188 0.375,-0.25c0.062,-0.188 0.812,-2.75 1.187,-3.375c0.125,-0.25 0.25,-0.313 0.313,-0.313c0.125,0 0.187,0.25 0.187,0.438l0,8.937c0,0.75 -0.625,1.188 -1.25,1.188c-0.25,-0 -0.562,0.125 -0.562,0.5c-0,0.375 0.312,0.5 0.812,0.5l5.25,-0c0.5,-0 0.5,-0.5 0.5,-0.5c0,-0 0,-0.5 -0.5,-0.5c-0.437,-0 -1,-0.563 -1,-1.125l0,-13c0,-0.5 -0.187,-0.75 -0.625,-0.75c-0.437,-0 -0.812,0.125 -1.187,0.125c-0.625,-0 -0.75,-0 -1.25,-0.125c-0.25,-0 -0.563,0.375 -0.75,0.625l-1.938,6.687" style="fill-rule:nonzero;"/></g><g><path d="M279.636,110.75c-0,-0.438 -0.188,-0.5 -0.375,-0.5c-0.25,-0 -0.375,0.187 -0.438,0.375c-0.312,0.875 -1,2 -1.937,2c-0.125,-0 -0.25,-0 -0.375,-0.063l-0.938,-0.312c-0.625,-0.25 -2.125,-0.75 -3.375,-0.75c-0.437,-0 -0.812,0.062 -1.187,0.187c0.687,-1.187 3.937,-2.75 4.625,-2.937c2.25,-0.313 4.125,-1.625 4.125,-4.063c-0,-1.5 -0.625,-2.5 -1.438,-3.25c-1.625,-1.312 -4,-1.5 -4.687,-1.5c-2.25,0 -4.063,0.125 -5.688,2c-0.437,0.5 -0.625,1 -0.625,1.5c0,0.438 0.188,0.938 0.375,1.5c0.375,0.75 1.188,1.313 2.063,1.313c1.562,-0 1.75,-1.5 1.75,-2.188c-0,-1.437 -1.563,-1.562 -1.563,-2.187c0,-0.438 0.625,-1.188 2.5,-1.188c2.938,0 3.938,2.438 3.938,3.188c-0,1.125 -0.375,2.187 -1,3.062c-1.125,1.438 -3.188,1.938 -4.75,2.938c-1.75,1.062 -2.938,2.875 -3.5,4.875c-0,0.437 0.187,0.937 0.562,1.125c0.063,0.062 0.188,0.062 0.25,0.062c0.688,0 1.063,-1.937 2.938,-1.937c1.25,-0 1.687,1.687 4.5,1.687c1.312,0 3.75,-0.125 4.25,-4.937" style="fill-rule:nonzero;"/></g><g><path d="M325.2,110.125l0,-6.688c0,-0.312 -0.062,-0.562 -0.375,-0.562c-0.25,-0 -0.437,0.062 -0.625,0.312l-1.875,3.625c-0.125,0.125 -0.312,0.313 -0.312,0.75l-0,2.563l-4.063,-0c2.563,-2.125 6.563,-9.188 6.625,-9.563c0,-0.062 0.063,-0.125 0.063,-0.187c-0,-0.25 -0.25,-0.438 -0.438,-0.438c-0.312,0 -1.625,0.125 -2.187,0.125c-0.563,0 -0.938,-0.125 -1.188,-0.125c-0.312,0 -0.75,0.125 -0.75,0.625c0,4 -3.25,8.563 -4.062,9.688c-0.125,0.125 -0.25,0.312 -0.25,0.5c-0,0.312 0.25,0.625 0.625,0.625l5.625,-0l-0,1.937c-0,0.875 -0.5,1.125 -1,1.125c-0.563,0 -0.813,0.25 -0.813,0.563c0,0.312 0.125,0.687 0.688,0.687l5.375,0c0.312,0 0.625,-0.25 0.625,-0.687c-0,-0.438 -0.375,-0.625 -0.688,-0.625c-0.312,-0 -1,-0.188 -1,-1.188l0,-1.812l2.313,-0c0.312,-0 0.5,-0.25 0.5,-0.625c-0,-0.375 -0.125,-0.625 -0.5,-0.625l-2.313,-0" style="fill-rule:nonzero;"/></g><g><path d="M373.041,110.125l-0,-6.688c-0,-0.312 -0.063,-0.562 -0.375,-0.562c-0.25,-0 -0.438,0.062 -0.625,0.312l-1.875,3.625c-0.125,0.125 -0.313,0.313 -0.313,0.75l0,2.563l-4.062,-0c2.562,-2.125 6.562,-9.188 6.625,-9.563c-0,-0.062 0.062,-0.125 0.062,-0.187c0,-0.25 -0.25,-0.438 -0.437,-0.438c-0.313,0 -1.625,0.125 -2.188,0.125c-0.562,0 -0.937,-0.125 -1.187,-0.125c-0.313,0 -0.75,0.125 -0.75,0.625c-0,4 -3.25,8.563 -4.063,9.688c-0.125,0.125 -0.25,0.312 -0.25,0.5c0,0.312 0.25,0.625 0.625,0.625l5.625,-0l0,1.937c0,0.875 -0.5,1.125 -1,1.125c-0.562,0 -0.812,0.25 -0.812,0.563c-0,0.312 0.125,0.687 0.687,0.687l5.375,0c0.313,0 0.625,-0.25 0.625,-0.687c0,-0.438 -0.375,-0.625 -0.687,-0.625c-0.313,-0 -1,-0.188 -1,-1.188l-0,-1.812l2.312,-0c0.313,-0 0.5,-0.25 0.5,-0.625c0,-0.375 -0.125,-0.625 -0.5,-0.625l-2.312,-0" style="fill-rule:nonzero;"/></g><g><path d="M416.003,107.187c0,0 -0.062,0.25 -0.062,0.438c-0,0.25 0.25,0.5 0.5,0.5c0.187,-0 0.312,-0.188 0.375,-0.25c0.062,-0.188 0.812,-2.75 1.187,-3.375c0.125,-0.25 0.25,-0.313 0.313,-0.313c0.125,0 0.187,0.25 0.187,0.438l0,8.937c0,0.75 -0.625,1.188 -1.25,1.188c-0.25,-0 -0.562,0.125 -0.562,0.5c-0,0.375 0.312,0.5 0.812,0.5l5.25,-0c0.5,-0 0.5,-0.5 0.5,-0.5c0,-0 0,-0.5 -0.5,-0.5c-0.437,-0 -1,-0.563 -1,-1.125l0,-13c0,-0.5 -0.187,-0.75 -0.625,-0.75c-0.437,-0 -0.812,0.125 -1.187,0.125c-0.625,-0 -0.75,-0 -1.25,-0.125c-0.25,-0 -0.563,0.375 -0.75,0.625l-1.938,6.687" style="fill-rule:nonzero;"/></g><g><path d="M473.625,110.75c0,-0.438 -0.187,-0.5 -0.375,-0.5c-0.25,-0 -0.375,0.187 -0.437,0.375c-0.313,0.875 -1,2 -1.938,2c-0.125,-0 -0.25,-0 -0.375,-0.063l-0.937,-0.312c-0.625,-0.25 -2.125,-0.75 -3.375,-0.75c-0.438,-0 -0.813,0.062 -1.188,0.187c0.688,-1.187 3.938,-2.75 4.625,-2.937c2.25,-0.313 4.125,-1.625 4.125,-4.063c0,-1.5 -0.625,-2.5 -1.437,-3.25c-1.625,-1.312 -4,-1.5 -4.688,-1.5c-2.25,0 -4.062,0.125 -5.687,2c-0.438,0.5 -0.625,1 -0.625,1.5c-0,0.438 0.187,0.938 0.375,1.5c0.375,0.75 1.187,1.313 2.062,1.313c1.563,-0 1.75,-1.5 1.75,-2.188c0,-1.437 -1.562,-1.562 -1.562,-2.187c-0,-0.438 0.625,-1.188 2.5,-1.188c2.937,0 3.937,2.438 3.937,3.188c0,1.125 -0.375,2.187 -1,3.062c-1.125,1.438 -3.187,1.938 -4.75,2.938c-1.75,1.062 -2.937,2.875 -3.5,4.875c0,0.437 0.188,0.937 0.563,1.125c0.062,0.062 0.187,0.062 0.25,0.062c0.687,0 1.062,-1.937 2.937,-1.937c1.25,-0 1.688,1.687 4.5,1.687c1.313,0 3.75,-0.125 4.25,-4.937" style="fill-rule:nonzero;"/></g><g><path d="M518.606,110.125l0,-6.688c0,-0.312 -0.062,-0.562 -0.375,-0.562c-0.25,-0 -0.437,0.062 -0.625,0.312l-1.875,3.625c-0.125,0.125 -0.312,0.313 -0.312,0.75l-0,2.563l-4.063,-0c2.563,-2.125 6.563,-9.188 6.625,-9.563c0,-0.062 0.063,-0.125 0.063,-0.187c-0,-0.25 -0.25,-0.438 -0.438,-0.438c-0.312,0 -1.625,0.125 -2.187,0.125c-0.563,0 -0.938,-0.125 -1.188,-0.125c-0.312,0 -0.75,0.125 -0.75,0.625c0,4 -3.25,8.563 -4.062,9.688c-0.125,0.125 -0.25,0.312 -0.25,0.5c-0,0.312 0.25,0.625 0.625,0.625l5.625,-0l-0,1.937c-0,0.875 -0.5,1.125 -1,1.125c-0.563,0 -0.813,0.25 -0.813,0.563c0,0.312 0.125,0.687 0.688,0.687l5.375,0c0.312,0 0.625,-0.25 0.625,-0.687c-0,-0.438 -0.375,-0.625 -0.688,-0.625c-0.312,-0 -1,-0.188 -1,-1.188l0,-1.812l2.313,-0c0.312,-0 0.5,-0.25 0.5,-0.625c-0,-0.375 -0.125,-0.625 -0.5,-0.625l-2.313,-0" style="fill-rule:nonzero;"/></g><g><path d="M566.45,110.125l-0,-6.688c-0,-0.312 -0.063,-0.562 -0.375,-0.562c-0.25,-0 -0.438,0.062 -0.625,0.312l-1.875,3.625c-0.125,0.125 -0.313,0.313 -0.313,0.75l0,2.563l-4.062,-0c2.562,-2.125 6.562,-9.188 6.625,-9.563c-0,-0.062 0.062,-0.125 0.062,-0.187c0,-0.25 -0.25,-0.438 -0.437,-0.438c-0.313,0 -1.625,0.125 -2.188,0.125c-0.562,0 -0.937,-0.125 -1.187,-0.125c-0.313,0 -0.75,0.125 -0.75,0.625c-0,4 -3.25,8.563 -4.063,9.688c-0.125,0.125 -0.25,0.312 -0.25,0.5c0,0.312 0.25,0.625 0.625,0.625l5.625,-0l0,1.937c0,0.875 -0.5,1.125 -1,1.125c-0.562,0 -0.812,0.25 -0.812,0.563c-0,0.312 0.125,0.687 0.687,0.687l5.375,0c0.313,0 0.625,-0.25 0.625,-0.687c0,-0.438 -0.375,-0.625 -0.687,-0.625c-0.313,-0 -1,-0.188 -1,-1.188l-0,-1.812l2.312,-0c0.313,-0 0.5,-0.25 0.5,-0.625c0,-0.375 -0.125,-0.625 -0.5,-0.625l-2.312,-0" style="fill-rule:nonzero;"/></g><g><path d="M607.387,107.187c0,0 -0.062,0.25 -0.062,0.438c-0,0.25 0.25,0.5 0.5,0.5c0.187,-0 0.312,-0.188 0.375,-0.25c0.062,-0.188 0.812,-2.75 1.187,-3.375c0.125,-0.25 0.25,-0.313 0.313,-0.313c0.125,0 0.187,0.25 0.187,0.438l0,8.937c0,0.75 -0.625,1.188 -1.25,1.188c-0.25,-0 -0.562,0.125 -0.562,0.5c-0,0.375 0.312,0.5 0.812,0.5l5.25,-0c0.5,-0 0.5,-0.5 0.5,-0.5c0,-0 0,-0.5 -0.5,-0.5c-0.437,-0 -1,-0.563 -1,-1.125l0,-13c0,-0.5 -0.187,-0.75 -0.625,-0.75c-0.437,-0 -0.812,0.125 -1.187,0.125c-0.625,-0 -0.75,-0 -1.25,-0.125c-0.25,-0 -0.563,0.375 -0.75,0.625l-1.938,6.687" style="fill-rule:nonzero;"/></g><g><path d="M664.987,110.75c0,-0.438 -0.187,-0.5 -0.375,-0.5c-0.25,-0 -0.375,0.187 -0.437,0.375c-0.313,0.875 -1,2 -1.938,2c-0.125,-0 -0.25,-0 -0.375,-0.063l-0.937,-0.312c-0.625,-0.25 -2.125,-0.75 -3.375,-0.75c-0.438,-0 -0.813,0.062 -1.188,0.187c0.688,-1.187 3.938,-2.75 4.625,-2.937c2.25,-0.313 4.125,-1.625 4.125,-4.063c0,-1.5 -0.625,-2.5 -1.437,-3.25c-1.625,-1.312 -4,-1.5 -4.688,-1.5c-2.25,0 -4.062,0.125 -5.687,2c-0.438,0.5 -0.625,1 -0.625,1.5c-0,0.438 0.187,0.938 0.375,1.5c0.375,0.75 1.187,1.313 2.062,1.313c1.563,-0 1.75,-1.5 1.75,-2.188c0,-1.437 -1.562,-1.562 -1.562,-2.187c-0,-0.438 0.625,-1.188 2.5,-1.188c2.937,0 3.937,2.438 3.937,3.188c0,1.125 -0.375,2.187 -1,3.062c-1.125,1.438 -3.187,1.938 -4.75,2.938c-1.75,1.062 -2.937,2.875 -3.5,4.875c0,0.437 0.188,0.937 0.563,1.125c0.062,0.062 0.187,0.062 0.25,0.062c0.687,0 1.062,-1.937 2.937,-1.937c1.25,-0 1.688,1.687 4.5,1.687c1.313,0 3.75,-0.125 4.25,-4.937" style="fill-rule:nonzero;"/></g><g><path d="M709.947,110.125l-0,-6.688c-0,-0.312 -0.063,-0.562 -0.375,-0.562c-0.25,-0 -0.438,0.062 -0.625,0.312l-1.875,3.625c-0.125,0.125 -0.313,0.313 -0.313,0.75l0,2.563l-4.062,-0c2.562,-2.125 6.562,-9.188 6.625,-9.563c-0,-0.062 0.062,-0.125 0.062,-0.187c0,-0.25 -0.25,-0.438 -0.437,-0.438c-0.313,0 -1.625,0.125 -2.188,0.125c-0.562,0 -0.937,-0.125 -1.187,-0.125c-0.313,0 -0.75,0.125 -0.75,0.625c-0,4 -3.25,8.563 -4.063,9.688c-0.125,0.125 -0.25,0.312 -0.25,0.5c0,0.312 0.25,0.625 0.625,0.625l5.625,-0l0,1.937c0,0.875 -0.5,1.125 -1,1.125c-0.562,0 -0.812,0.25 -0.812,0.563c-0,0.312 0.125,0.687 0.687,0.687l5.375,0c0.313,0 0.625,-0.25 0.625,-0.687c0,-0.438 -0.375,-0.625 -0.687,-0.625c-0.313,-0 -1,-0.188 -1,-1.188l-0,-1.812l2.312,-0c0.313,-0 0.5,-0.25 0.5,-0.625c0,-0.375 -0.125,-0.625 -0.5,-0.625l-2.312,-0" style="fill-rule:nonzero;"/></g><g><path d="M757.769,110.125l-0,-6.688c-0,-0.312 -0.063,-0.562 -0.375,-0.562c-0.25,-0 -0.438,0.062 -0.625,0.312l-1.875,3.625c-0.125,0.125 -0.313,0.313 -0.313,0.75l0,2.563l-4.062,-0c2.562,-2.125 6.562,-9.188 6.625,-9.563c-0,-0.062 0.062,-0.125 0.062,-0.187c0,-0.25 -0.25,-0.438 -0.437,-0.438c-0.313,0 -1.625,0.125 -2.188,0.125c-0.562,0 -0.937,-0.125 -1.187,-0.125c-0.313,0 -0.75,0.125 -0.75,0.625c-0,4 -3.25,8.563 -4.063,9.688c-0.125,0.125 -0.25,0.312 -0.25,0.5c0,0.312 0.25,0.625 0.625,0.625l5.625,-0l0,1.937c0,0.875 -0.5,1.125 -1,1.125c-0.562,0 -0.812,0.25 -0.812,0.563c-0,0.312 0.125,0.687 0.687,0.687l5.375,0c0.313,0 0.625,-0.25 0.625,-0.687c0,-0.438 -0.375,-0.625 -0.687,-0.625c-0.313,-0 -1,-0.188 -1,-1.188l-0,-1.812l2.312,-0c0.313,-0 0.5,-0.25 0.5,-0.625c0,-0.375 -0.125,-0.625 -0.5,-0.625l-2.312,-0" style="fill-rule:nonzero;"/></g><g><path d="M798.659,107.187c0,0 -0.062,0.25 -0.062,0.438c-0,0.25 0.25,0.5 0.5,0.5c0.187,-0 0.312,-0.188 0.375,-0.25c0.062,-0.188 0.812,-2.75 1.187,-3.375c0.125,-0.25 0.25,-0.313 0.313,-0.313c0.125,0 0.187,0.25 0.187,0.438l0,8.937c0,0.75 -0.625,1.188 -1.25,1.188c-0.25,-0 -0.562,0.125 -0.562,0.5c-0,0.375 0.312,0.5 0.812,0.5l5.25,-0c0.5,-0 0.5,-0.5 0.5,-0.5c0,-0 0,-0.5 -0.5,-0.5c-0.437,-0 -1,-0.563 -1,-1.125l0,-13c0,-0.5 -0.187,-0.75 -0.625,-0.75c-0.437,-0 -0.812,0.125 -1.187,0.125c-0.625,-0 -0.75,-0 -1.25,-0.125c-0.25,-0 -0.563,0.375 -0.75,0.625l-1.938,6.687" style="fill-rule:nonzero;"/></g><g><path d="M856.284,110.75c0,-0.438 -0.187,-0.5 -0.375,-0.5c-0.25,-0 -0.375,0.187 -0.437,0.375c-0.313,0.875 -1,2 -1.938,2c-0.125,-0 -0.25,-0 -0.375,-0.063l-0.937,-0.312c-0.625,-0.25 -2.125,-0.75 -3.375,-0.75c-0.438,-0 -0.813,0.062 -1.188,0.187c0.688,-1.187 3.938,-2.75 4.625,-2.937c2.25,-0.313 4.125,-1.625 4.125,-4.063c0,-1.5 -0.625,-2.5 -1.437,-3.25c-1.625,-1.312 -4,-1.5 -4.688,-1.5c-2.25,0 -4.062,0.125 -5.687,2c-0.438,0.5 -0.625,1 -0.625,1.5c-0,0.438 0.187,0.938 0.375,1.5c0.375,0.75 1.187,1.313 2.062,1.313c1.563,-0 1.75,-1.5 1.75,-2.188c0,-1.437 -1.562,-1.562 -1.562,-2.187c-0,-0.438 0.625,-1.188 2.5,-1.188c2.937,0 3.937,2.438 3.937,3.188c0,1.125 -0.375,2.187 -1,3.062c-1.125,1.438 -3.187,1.938 -4.75,2.938c-1.75,1.062 -2.937,2.875 -3.5,4.875c0,0.437 0.188,0.937 0.563,1.125c0.062,0.062 0.187,0.062 0.25,0.062c0.687,0 1.062,-1.937 2.937,-1.937c1.25,-0 1.688,1.687 4.5,1.687c1.313,0 3.75,-0.125 4.25,-4.937" style="fill-rule:nonzero;"/></g><g><path d="M901.262,110.125l0,-6.688c0,-0.312 -0.062,-0.562 -0.375,-0.562c-0.25,-0 -0.437,0.062 -0.625,0.312l-1.875,3.625c-0.125,0.125 -0.312,0.313 -0.312,0.75l-0,2.563l-4.063,-0c2.563,-2.125 6.563,-9.188 6.625,-9.563c0,-0.062 0.063,-0.125 0.063,-0.187c-0,-0.25 -0.25,-0.438 -0.438,-0.438c-0.312,0 -1.625,0.125 -2.187,0.125c-0.563,0 -0.938,-0.125 -1.188,-0.125c-0.312,0 -0.75,0.125 -0.75,0.625c0,4 -3.25,8.563 -4.062,9.688c-0.125,0.125 -0.25,0.312 -0.25,0.5c-0,0.312 0.25,0.625 0.625,0.625l5.625,-0l-0,1.937c-0,0.875 -0.5,1.125 -1,1.125c-0.563,0 -0.813,0.25 -0.813,0.563c0,0.312 0.125,0.687 0.688,0.687l5.375,0c0.312,0 0.625,-0.25 0.625,-0.687c-0,-0.438 -0.375,-0.625 -0.688,-0.625c-0.312,-0 -1,-0.188 -1,-1.188l0,-1.812l2.313,-0c0.312,-0 0.5,-0.25 0.5,-0.625c-0,-0.375 -0.125,-0.625 -0.5,-0.625l-2.313,-0" style="fill-rule:nonzero;"/></g><g><path d="M949.109,110.111l0,-6.687c0,-0.313 -0.062,-0.563 -0.375,-0.563c-0.25,0 -0.437,0.063 -0.625,0.313l-1.875,3.625c-0.125,0.125 -0.312,0.312 -0.312,0.75l-0,2.562l-4.063,0c2.563,-2.125 6.563,-9.187 6.625,-9.562c0,-0.063 0.063,-0.125 0.063,-0.188c-0,-0.25 -0.25,-0.437 -0.438,-0.437c-0.312,-0 -1.625,0.125 -2.187,0.125c-0.563,-0 -0.938,-0.125 -1.188,-0.125c-0.312,-0 -0.75,0.125 -0.75,0.625c0,4 -3.25,8.562 -4.062,9.687c-0.125,0.125 -0.25,0.313 -0.25,0.5c-0,0.313 0.25,0.625 0.625,0.625l5.625,0l-0,1.938c-0,0.875 -0.5,1.125 -1,1.125c-0.563,-0 -0.813,0.25 -0.813,0.562c0,0.313 0.125,0.688 0.688,0.688l5.375,-0c0.312,-0 0.625,-0.25 0.625,-0.688c-0,-0.437 -0.375,-0.625 -0.688,-0.625c-0.312,0 -1,-0.187 -1,-1.187l0,-1.813l2.313,0c0.312,0 0.5,-0.25 0.5,-0.625c-0,-0.375 -0.125,-0.625 -0.5,-0.625l-2.313,0" style="fill-rule:nonzero;"/></g><g><path d="M1015.81,99.375c-0,-0 -0.063,0.25 -0.063,0.437c0,0.25 0.25,0.5 0.5,0.5c0.188,0 0.313,-0.187 0.375,-0.25c0.063,-0.187 0.813,-2.75 1.188,-3.375c0.125,-0.25 0.25,-0.312 0.312,-0.312c0.125,-0 0.188,0.25 0.188,0.437l-0,8.938c-0,0.75 -0.625,1.187 -1.25,1.187c-0.25,0 -0.563,0.125 -0.563,0.5c0,0.375 0.313,0.5 0.813,0.5l5.25,0c0.5,0 0.5,-0.5 0.5,-0.5c-0,0 -0,-0.5 -0.5,-0.5c-0.438,0 -1,-0.562 -1,-1.125l-0,-13c-0,-0.5 -0.188,-0.75 -0.625,-0.75c-0.438,0 -0.813,0.125 -1.188,0.125c-0.625,0 -0.75,0 -1.25,-0.125c-0.25,0 -0.562,0.375 -0.75,0.625l-1.937,6.688" style="fill-rule:nonzero;"/></g><g><path d="M1073.41,94.992c-0,-0.437 -0.188,-0.5 -0.375,-0.5c-0.25,0 -0.375,0.188 -0.438,0.375c-0.312,0.875 -1,2 -1.937,2c-0.125,0 -0.25,0 -0.375,-0.062l-0.938,-0.313c-0.625,-0.25 -2.125,-0.75 -3.375,-0.75c-0.437,0 -0.812,0.063 -1.187,0.188c0.687,-1.188 3.937,-2.75 4.625,-2.938c2.25,-0.312 4.125,-1.625 4.125,-4.062c-0,-1.5 -0.625,-2.5 -1.438,-3.25c-1.625,-1.313 -4,-1.5 -4.687,-1.5c-2.25,-0 -4.063,0.125 -5.688,2c-0.437,0.5 -0.625,1 -0.625,1.5c0,0.437 0.188,0.937 0.375,1.5c0.375,0.75 1.188,1.312 2.063,1.312c1.562,0 1.75,-1.5 1.75,-2.187c-0,-1.438 -1.563,-1.563 -1.563,-2.188c0,-0.437 0.625,-1.187 2.5,-1.187c2.938,-0 3.938,2.437 3.938,3.187c-0,1.125 -0.375,2.188 -1,3.063c-1.125,1.437 -3.188,1.937 -4.75,2.937c-1.75,1.063 -2.938,2.875 -3.5,4.875c-0,0.438 0.187,0.938 0.562,1.125c0.063,0.063 0.188,0.063 0.25,0.063c0.688,-0 1.063,-1.938 2.938,-1.938c1.25,0 1.687,1.688 4.5,1.688c1.312,-0 3.75,-0.125 4.25,-4.938" style="fill-rule:nonzero;"/></g><g><path d="M1118.97,86.861l0,-6.687c0,-0.313 -0.062,-0.563 -0.375,-0.563c-0.25,0 -0.437,0.063 -0.625,0.313l-1.875,3.625c-0.125,0.125 -0.312,0.312 -0.312,0.75l-0,2.562l-4.063,0c2.563,-2.125 6.563,-9.187 6.625,-9.562c0,-0.063 0.063,-0.125 0.063,-0.188c-0,-0.25 -0.25,-0.437 -0.438,-0.437c-0.312,-0 -1.625,0.125 -2.187,0.125c-0.563,-0 -0.938,-0.125 -1.188,-0.125c-0.312,-0 -0.75,0.125 -0.75,0.625c0,4 -3.25,8.562 -4.062,9.687c-0.125,0.125 -0.25,0.313 -0.25,0.5c-0,0.313 0.25,0.625 0.625,0.625l5.625,0l-0,1.938c-0,0.875 -0.5,1.125 -1,1.125c-0.563,-0 -0.813,0.25 -0.813,0.562c0,0.313 0.125,0.688 0.688,0.688l5.375,-0c0.312,-0 0.625,-0.25 0.625,-0.688c-0,-0.437 -0.375,-0.625 -0.688,-0.625c-0.312,0 -1,-0.187 -1,-1.187l0,-1.813l2.313,0c0.312,0 0.5,-0.25 0.5,-0.625c-0,-0.375 -0.125,-0.625 -0.5,-0.625l-2.313,0" style="fill-rule:nonzero;"/></g><g><path d="M1166.81,86.861l-0,-6.687c-0,-0.313 -0.063,-0.563 -0.375,-0.563c-0.25,0 -0.438,0.063 -0.625,0.313l-1.875,3.625c-0.125,0.125 -0.313,0.312 -0.313,0.75l0,2.562l-4.062,0c2.562,-2.125 6.562,-9.187 6.625,-9.562c-0,-0.063 0.062,-0.125 0.062,-0.188c0,-0.25 -0.25,-0.437 -0.437,-0.437c-0.313,-0 -1.625,0.125 -2.188,0.125c-0.562,-0 -0.937,-0.125 -1.187,-0.125c-0.313,-0 -0.75,0.125 -0.75,0.625c-0,4 -3.25,8.562 -4.063,9.687c-0.125,0.125 -0.25,0.313 -0.25,0.5c0,0.313 0.25,0.625 0.625,0.625l5.625,0l0,1.938c0,0.875 -0.5,1.125 -1,1.125c-0.562,-0 -0.812,0.25 -0.812,0.562c-0,0.313 0.125,0.688 0.687,0.688l5.375,-0c0.313,-0 0.625,-0.25 0.625,-0.688c0,-0.437 -0.375,-0.625 -0.687,-0.625c-0.313,0 -1,-0.187 -1,-1.187l-0,-1.813l2.312,0c0.313,0 0.5,-0.25 0.5,-0.625c0,-0.375 -0.125,-0.625 -0.5,-0.625l-2.312,0" style="fill-rule:nonzero;"/></g><g><path d="M1209.77,76.125c0,-0 -0.062,0.25 -0.062,0.437c-0,0.25 0.25,0.5 0.5,0.5c0.187,0 0.312,-0.187 0.375,-0.25c0.062,-0.187 0.812,-2.75 1.187,-3.375c0.125,-0.25 0.25,-0.312 0.313,-0.312c0.125,-0 0.187,0.25 0.187,0.437l0,8.938c0,0.75 -0.625,1.187 -1.25,1.187c-0.25,0 -0.562,0.125 -0.562,0.5c-0,0.375 0.312,0.5 0.812,0.5l5.25,0c0.5,0 0.5,-0.5 0.5,-0.5c0,0 0,-0.5 -0.5,-0.5c-0.437,0 -1,-0.562 -1,-1.125l0,-13c0,-0.5 -0.187,-0.75 -0.625,-0.75c-0.437,0 -0.812,0.125 -1.187,0.125c-0.625,0 -0.75,0 -1.25,-0.125c-0.25,0 -0.563,0.375 -0.75,0.625l-1.938,6.688" style="fill-rule:nonzero;"/></g><g><path d="M1267.39,71.742c-0,-0.437 -0.188,-0.5 -0.375,-0.5c-0.25,0 -0.375,0.188 -0.438,0.375c-0.312,0.875 -1,2 -1.937,2c-0.125,0 -0.25,0 -0.375,-0.062l-0.938,-0.313c-0.625,-0.25 -2.125,-0.75 -3.375,-0.75c-0.437,0 -0.812,0.063 -1.187,0.188c0.687,-1.188 3.937,-2.75 4.625,-2.938c2.25,-0.312 4.125,-1.625 4.125,-4.062c-0,-1.5 -0.625,-2.5 -1.438,-3.25c-1.625,-1.313 -4,-1.5 -4.687,-1.5c-2.25,-0 -4.063,0.125 -5.688,2c-0.437,0.5 -0.625,1 -0.625,1.5c0,0.437 0.188,0.937 0.375,1.5c0.375,0.75 1.188,1.312 2.063,1.312c1.562,0 1.75,-1.5 1.75,-2.187c-0,-1.438 -1.563,-1.563 -1.563,-2.188c0,-0.437 0.625,-1.187 2.5,-1.187c2.938,-0 3.938,2.437 3.938,3.187c-0,1.125 -0.375,2.188 -1,3.063c-1.125,1.437 -3.188,1.937 -4.75,2.937c-1.75,1.063 -2.938,2.875 -3.5,4.875c-0,0.438 0.187,0.938 0.562,1.125c0.063,0.063 0.188,0.063 0.25,0.063c0.688,-0 1.063,-1.938 2.938,-1.938c1.25,0 1.687,1.688 4.5,1.688c1.312,-0 3.75,-0.125 4.25,-4.938" style="fill-rule:nonzero;"/></g><g><path d="M1308.39,53.437c-3.438,0 -4.938,2.313 -4.938,3.625c0,0.875 0.5,1.938 2.063,2c1.187,0 1.75,-0.75 1.75,-1.562l-0,-0.25c-0.063,-0.938 -0.688,-1 -0.813,-1.063c-0.125,-0.062 -0.375,-0.312 -0.375,-0.75c0.125,-0.687 1.063,-0.937 1.313,-0.937c3.187,-0 4.125,1.687 4.125,2.75c-0,2.937 -3,3.187 -3.938,3.25c-0.437,-0 -0.875,0.187 -0.875,0.562c0,0.375 0.563,0.375 0.813,0.375c3.625,0 4.125,1.875 4.125,2.813c-0,3.625 -2.938,3.75 -3.688,3.75c-0.375,-0 -1,-0.188 -1.062,-0.5l-0,-0.375c-0,-0.688 0.187,-1.438 0.25,-2.063c-0,-1.125 -0.75,-1.812 -1.875,-1.812l-0.25,-0c-0.438,0.125 -0.875,0.375 -1.188,0.687c-0.437,0.375 -0.562,0.938 -0.562,1.5c0.062,2 1.812,3.688 4.937,3.75l0.375,0c3.063,0 6.25,-1.625 6.25,-4.375c0,-0.625 -0.125,-1.125 -0.312,-1.5c-0.125,-0.375 -0.375,-0.687 -0.625,-0.937c-0.188,-0.25 -0.438,-0.438 -0.688,-0.625l-0.687,-0.375l-0.375,-0.125c-0.125,-0 -0.188,-0.063 -0.313,-0.063l-0.375,-0.125c-0.187,-0.062 -0.25,0 -0.312,-0.125c-0.063,-0.062 -0.063,-0.125 -0.063,-0.187c0,-0.125 0.063,-0.25 0.188,-0.25l1,-0.313c0.437,-0.25 0.875,-0.437 1.187,-0.875c0.5,-0.5 0.688,-1.312 0.688,-2c-0,-2.937 -3.875,-3.75 -5.25,-3.875l-0.5,0" style="fill-rule:nonzero;"/></g><g><path d="M1360.2,55.861l0,-6.687c0,-0.313 -0.062,-0.563 -0.375,-0.563c-0.25,0 -0.437,0.063 -0.625,0.313l-1.875,3.625c-0.125,0.125 -0.312,0.312 -0.312,0.75l-0,2.562l-4.063,0c2.563,-2.125 6.563,-9.187 6.625,-9.562c0,-0.063 0.063,-0.125 0.063,-0.188c-0,-0.25 -0.25,-0.437 -0.438,-0.437c-0.312,-0 -1.625,0.125 -2.187,0.125c-0.563,-0 -0.938,-0.125 -1.188,-0.125c-0.312,-0 -0.75,0.125 -0.75,0.625c0,4 -3.25,8.562 -4.062,9.687c-0.125,0.125 -0.25,0.313 -0.25,0.5c-0,0.313 0.25,0.625 0.625,0.625l5.625,0l-0,1.938c-0,0.875 -0.5,1.125 -1,1.125c-0.563,-0 -0.813,0.25 -0.813,0.562c0,0.313 0.125,0.688 0.688,0.688l5.375,-0c0.312,-0 0.625,-0.25 0.625,-0.688c-0,-0.437 -0.375,-0.625 -0.688,-0.625c-0.312,0 -1,-0.187 -1,-1.187l0,-1.813l2.313,0c0.312,0 0.5,-0.25 0.5,-0.625c-0,-0.375 -0.125,-0.625 -0.5,-0.625l-2.313,0" style="fill-rule:nonzero;"/></g><g><path d="M1408.03,48.111l-0,-6.687c-0,-0.313 -0.063,-0.563 -0.375,-0.563c-0.25,0 -0.438,0.063 -0.625,0.313l-1.875,3.625c-0.125,0.125 -0.313,0.312 -0.313,0.75l0,2.562l-4.062,0c2.562,-2.125 6.562,-9.187 6.625,-9.562c-0,-0.063 0.062,-0.125 0.062,-0.188c0,-0.25 -0.25,-0.437 -0.437,-0.437c-0.313,-0 -1.625,0.125 -2.188,0.125c-0.562,-0 -0.937,-0.125 -1.187,-0.125c-0.313,-0 -0.75,0.125 -0.75,0.625c-0,4 -3.25,8.562 -4.063,9.687c-0.125,0.125 -0.25,0.313 -0.25,0.5c0,0.313 0.25,0.625 0.625,0.625l5.625,0l0,1.938c0,0.875 -0.5,1.125 -1,1.125c-0.562,-0 -0.812,0.25 -0.812,0.562c-0,0.313 0.125,0.688 0.687,0.688l5.375,-0c0.313,-0 0.625,-0.25 0.625,-0.688c0,-0.437 -0.375,-0.625 -0.687,-0.625c-0.313,0 -1,-0.187 -1,-1.187l-0,-1.813l2.312,0c0.313,0 0.5,-0.25 0.5,-0.625c0,-0.375 -0.125,-0.625 -0.5,-0.625l-2.312,0" style="fill-rule:nonzero;"/></g><g><path d="M1455.87,55.861l0,-6.687c0,-0.313 -0.062,-0.563 -0.375,-0.563c-0.25,0 -0.437,0.063 -0.625,0.313l-1.875,3.625c-0.125,0.125 -0.312,0.312 -0.312,0.75l-0,2.562l-4.063,0c2.563,-2.125 6.563,-9.187 6.625,-9.562c0,-0.063 0.063,-0.125 0.063,-0.188c-0,-0.25 -0.25,-0.437 -0.438,-0.437c-0.312,-0 -1.625,0.125 -2.187,0.125c-0.563,-0 -0.938,-0.125 -1.188,-0.125c-0.312,-0 -0.75,0.125 -0.75,0.625c0,4 -3.25,8.562 -4.062,9.687c-0.125,0.125 -0.25,0.313 -0.25,0.5c-0,0.313 0.25,0.625 0.625,0.625l5.625,0l-0,1.938c-0,0.875 -0.5,1.125 -1,1.125c-0.563,-0 -0.813,0.25 -0.813,0.562c0,0.313 0.125,0.688 0.688,0.688l5.375,-0c0.312,-0 0.625,-0.25 0.625,-0.688c-0,-0.437 -0.375,-0.625 -0.688,-0.625c-0.312,0 -1,-0.187 -1,-1.187l0,-1.813l2.313,0c0.312,0 0.5,-0.25 0.5,-0.625c-0,-0.375 -0.125,-0.625 -0.5,-0.625l-2.313,0" style="fill-rule:nonzero;"/></g><g><path d="M1499.74,53.437c-3.438,0 -4.938,2.313 -4.938,3.625c0,0.875 0.5,1.938 2.063,2c1.187,0 1.75,-0.75 1.75,-1.562l-0,-0.25c-0.063,-0.938 -0.688,-1 -0.813,-1.063c-0.125,-0.062 -0.375,-0.312 -0.375,-0.75c0.125,-0.687 1.063,-0.937 1.313,-0.937c3.187,-0 4.125,1.687 4.125,2.75c-0,2.937 -3,3.187 -3.938,3.25c-0.437,-0 -0.875,0.187 -0.875,0.562c0,0.375 0.563,0.375 0.813,0.375c3.625,0 4.125,1.875 4.125,2.813c-0,3.625 -2.938,3.75 -3.688,3.75c-0.375,-0 -1,-0.188 -1.062,-0.5l-0,-0.375c-0,-0.688 0.187,-1.438 0.25,-2.063c-0,-1.125 -0.75,-1.812 -1.875,-1.812l-0.25,-0c-0.438,0.125 -0.875,0.375 -1.188,0.687c-0.437,0.375 -0.562,0.938 -0.562,1.5c0.062,2 1.812,3.688 4.937,3.75l0.375,0c3.063,0 6.25,-1.625 6.25,-4.375c0,-0.625 -0.125,-1.125 -0.312,-1.5c-0.125,-0.375 -0.375,-0.687 -0.625,-0.937c-0.188,-0.25 -0.438,-0.438 -0.688,-0.625l-0.687,-0.375l-0.375,-0.125c-0.125,-0 -0.188,-0.063 -0.313,-0.063l-0.375,-0.125c-0.187,-0.062 -0.25,0 -0.312,-0.125c-0.063,-0.062 -0.063,-0.125 -0.063,-0.187c0,-0.125 0.063,-0.25 0.188,-0.25l1,-0.313c0.437,-0.25 0.875,-0.437 1.187,-0.875c0.5,-0.5 0.688,-1.312 0.688,-2c-0,-2.937 -3.875,-3.75 -5.25,-3.875l-0.5,0" style="fill-rule:nonzero;"/></g><g><path d="M1544.63,68.375c-0,-0 -0.063,0.25 -0.063,0.437c0,0.25 0.25,0.5 0.5,0.5c0.188,0 0.313,-0.187 0.375,-0.25c0.063,-0.187 0.813,-2.75 1.188,-3.375c0.125,-0.25 0.25,-0.312 0.312,-0.312c0.125,-0 0.188,0.25 0.188,0.437l-0,8.938c-0,0.75 -0.625,1.187 -1.25,1.187c-0.25,0 -0.563,0.125 -0.563,0.5c0,0.375 0.313,0.5 0.813,0.5l5.25,0c0.5,0 0.5,-0.5 0.5,-0.5c-0,0 -0,-0.5 -0.5,-0.5c-0.438,0 -1,-0.562 -1,-1.125l-0,-13c-0,-0.5 -0.188,-0.75 -0.625,-0.75c-0.438,0 -0.813,0.125 -1.188,0.125c-0.625,0 -0.75,0 -1.25,-0.125c-0.25,0 -0.562,0.375 -0.75,0.625l-1.937,6.688" style="fill-rule:nonzero;"/></g><g><path d="M1592.47,76.125c0,-0 -0.062,0.25 -0.062,0.437c-0,0.25 0.25,0.5 0.5,0.5c0.187,0 0.312,-0.187 0.375,-0.25c0.062,-0.187 0.812,-2.75 1.187,-3.375c0.125,-0.25 0.25,-0.312 0.313,-0.312c0.125,-0 0.187,0.25 0.187,0.437l0,8.938c0,0.75 -0.625,1.187 -1.25,1.187c-0.25,0 -0.562,0.125 -0.562,0.5c-0,0.375 0.312,0.5 0.812,0.5l5.25,0c0.5,0 0.5,-0.5 0.5,-0.5c0,0 0,-0.5 -0.5,-0.5c-0.437,0 -1,-0.562 -1,-1.125l0,-13c0,-0.5 -0.187,-0.75 -0.625,-0.75c-0.437,0 -0.812,0.125 -1.187,0.125c-0.625,0 -0.75,0 -1.25,-0.125c-0.25,0 -0.563,0.375 -0.75,0.625l-1.938,6.688" style="fill-rule:nonzero;"/></g><g><path d="M1647.22,86.861l-0,-6.687c-0,-0.313 -0.063,-0.563 -0.375,-0.563c-0.25,0 -0.438,0.063 -0.625,0.313l-1.875,3.625c-0.125,0.125 -0.313,0.312 -0.313,0.75l0,2.562l-4.062,0c2.562,-2.125 6.562,-9.187 6.625,-9.562c-0,-0.063 0.062,-0.125 0.062,-0.188c0,-0.25 -0.25,-0.437 -0.437,-0.437c-0.313,-0 -1.625,0.125 -2.188,0.125c-0.562,-0 -0.937,-0.125 -1.187,-0.125c-0.313,-0 -0.75,0.125 -0.75,0.625c-0,4 -3.25,8.562 -4.063,9.687c-0.125,0.125 -0.25,0.313 -0.25,0.5c0,0.313 0.25,0.625 0.625,0.625l5.625,0l0,1.938c0,0.875 -0.5,1.125 -1,1.125c-0.562,-0 -0.812,0.25 -0.812,0.562c-0,0.313 0.125,0.688 0.687,0.688l5.375,-0c0.313,-0 0.625,-0.25 0.625,-0.688c0,-0.437 -0.375,-0.625 -0.687,-0.625c-0.313,0 -1,-0.187 -1,-1.187l-0,-1.813l2.312,0c0.313,0 0.5,-0.25 0.5,-0.625c0,-0.375 -0.125,-0.625 -0.5,-0.625l-2.312,0" style="fill-rule:nonzero;"/></g><g><path d="M1691.68,76.687c-3.437,0 -4.937,2.313 -4.937,3.625c-0,0.875 0.5,1.938 2.062,2c1.188,0 1.75,-0.75 1.75,-1.562l0,-0.25c-0.062,-0.938 -0.687,-1 -0.812,-1.063c-0.125,-0.062 -0.375,-0.312 -0.375,-0.75c0.125,-0.687 1.062,-0.937 1.312,-0.937c3.188,-0 4.125,1.687 4.125,2.75c0,2.937 -3,3.187 -3.937,3.25c-0.438,-0 -0.875,0.187 -0.875,0.562c-0,0.375 0.562,0.375 0.812,0.375c3.625,0 4.125,1.875 4.125,2.813c0,3.625 -2.937,3.75 -3.687,3.75c-0.375,-0 -1,-0.188 -1.063,-0.5l0,-0.375c0,-0.688 0.188,-1.438 0.25,-2.063c0,-1.125 -0.75,-1.812 -1.875,-1.812l-0.25,-0c-0.437,0.125 -0.875,0.375 -1.187,0.687c-0.438,0.375 -0.563,0.938 -0.563,1.5c0.063,2 1.813,3.688 4.938,3.75l0.375,0c3.062,0 6.25,-1.625 6.25,-4.375c-0,-0.625 -0.125,-1.125 -0.313,-1.5c-0.125,-0.375 -0.375,-0.687 -0.625,-0.937c-0.187,-0.25 -0.437,-0.438 -0.687,-0.625l-0.688,-0.375l-0.375,-0.125c-0.125,-0 -0.187,-0.063 -0.312,-0.063l-0.375,-0.125c-0.188,-0.062 -0.25,0 -0.313,-0.125c-0.062,-0.062 -0.062,-0.125 -0.062,-0.187c-0,-0.125 0.062,-0.25 0.187,-0.25l1,-0.313c0.438,-0.25 0.875,-0.437 1.188,-0.875c0.5,-0.5 0.687,-1.312 0.687,-2c0,-2.937 -3.875,-3.75 -5.25,-3.875l-0.5,0" style="fill-rule:nonzero;"/></g><g><path d="M1736.58,91.625c0,-0 -0.062,0.25 -0.062,0.437c-0,0.25 0.25,0.5 0.5,0.5c0.187,0 0.312,-0.187 0.375,-0.25c0.062,-0.187 0.812,-2.75 1.187,-3.375c0.125,-0.25 0.25,-0.312 0.313,-0.312c0.125,-0 0.187,0.25 0.187,0.437l0,8.938c0,0.75 -0.625,1.187 -1.25,1.187c-0.25,0 -0.562,0.125 -0.562,0.5c-0,0.375 0.312,0.5 0.812,0.5l5.25,0c0.5,0 0.5,-0.5 0.5,-0.5c0,0 0,-0.5 -0.5,-0.5c-0.437,0 -1,-0.562 -1,-1.125l0,-13c0,-0.5 -0.187,-0.75 -0.625,-0.75c-0.437,0 -0.812,0.125 -1.187,0.125c-0.625,0 -0.75,0 -1.25,-0.125c-0.25,0 -0.563,0.375 -0.75,0.625l-1.938,6.688" style="fill-rule:nonzero;"/></g><g><path d="M221.857,239.812c5.562,0 12.375,-5.125 12.375,-10.437c-0,-3.188 -2.5,-5.188 -6.063,-5.188c-6.875,0 -12.375,5.063 -12.375,10.438c0,3.25 2.688,5.187 6.063,5.187" style="fill-rule:nonzero;"/></g><g><path d="M249.177,229.312c-0,0 -0.188,-3.75 -0.188,-6.25c0,-1 0.063,-1.75 0.125,-2c0.438,-1.25 2.938,-3.062 4.375,-3.062c1.813,-0 2.563,2.062 2.563,3.625c-0,3.375 -2.875,6.75 -5.563,8.437c-0.25,0.125 -0.437,0.188 -0.625,0.188c-0.562,-0 -0.687,-0.625 -0.687,-0.938m-2.188,5.563c0.188,0.25 0.375,0.312 0.563,0.312c0.187,0 0.375,-0.125 0.375,-0.125c1.875,-1.062 3.375,-2.75 4.937,-3.812c5.563,-3.875 7.5,-7.688 7.5,-10.563c0,-3.562 -2.75,-5.812 -5.625,-6c-1.062,0 -2.562,0.5 -3.437,1.063c-0.375,0.312 -1.063,0.875 -1.375,0.875c-0.125,-0 -0.188,-0 -0.313,-0.063c-0.437,-0.187 -0.687,-0.625 -0.687,-1.062c0.062,-1.375 0.437,-16.375 0.437,-17.625c0,-0.688 -0.562,-1.063 -1.187,-1.063c-0.875,0 -1.875,0.625 -1.938,1.75c0,0 0.25,35.688 0.75,36.313" style="fill-rule:nonzero;"/></g><g><path d="M270.288,232.062c5.562,0 12.375,-5.125 12.375,-10.437c-0,-3.188 -2.5,-5.188 -6.063,-5.188c-6.875,0 -12.375,5.063 -12.375,10.438c0,3.25 2.688,5.187 6.063,5.187" style="fill-rule:nonzero;"/></g><g><path d="M297.608,221.562c0,0 -0.187,-3.75 -0.187,-6.25c-0,-1 0.062,-1.75 0.125,-2c0.437,-1.25 2.937,-3.062 4.375,-3.062c1.812,-0 2.562,2.062 2.562,3.625c0,3.375 -2.875,6.75 -5.562,8.437c-0.25,0.125 -0.438,0.188 -0.625,0.188c-0.563,-0 -0.688,-0.625 -0.688,-0.938m-2.187,5.563c0.187,0.25 0.375,0.312 0.562,0.312c0.188,0 0.375,-0.125 0.375,-0.125c1.875,-1.062 3.375,-2.75 4.938,-3.812c5.562,-3.875 7.5,-7.688 7.5,-10.563c-0,-3.562 -2.75,-5.812 -5.625,-6c-1.063,0 -2.563,0.5 -3.438,1.063c-0.375,0.312 -1.062,0.875 -1.375,0.875c-0.125,-0 -0.187,-0 -0.312,-0.063c-0.438,-0.187 -0.688,-0.625 -0.688,-1.062c0.063,-1.375 0.438,-16.375 0.438,-17.625c-0,-0.688 -0.563,-1.063 -1.188,-1.063c-0.875,0 -1.875,0.625 -1.937,1.75c-0,0 0.25,35.688 0.75,36.313" style="fill-rule:nonzero;"/></g><g><path d="M318.719,224.312c5.562,0 12.375,-5.125 12.375,-10.437c-0,-3.188 -2.5,-5.188 -6.063,-5.188c-6.875,0 -12.375,5.063 -12.375,10.438c0,3.25 2.688,5.187 6.063,5.187" style="fill-rule:nonzero;"/></g><g><path d="M348.438,214.062c-0,-0.875 3.812,-2.5 5.312,-2.5c0.375,0 0.563,0.063 0.563,0.313l-0,6.437c-0,1.125 -3.563,2.563 -5.125,2.563c-0.438,-0 -0.75,-0.125 -0.75,-0.375l-0,-6.438m6.5,-8.875c-0.125,0 -0.188,0.063 -0.25,0.063c-0,-0 -4,1.437 -5.625,1.437c-0.375,0 -0.625,-0.062 -0.625,-0.312l-0,-10.438c-0,-0.437 -0.375,-0.75 -0.75,-0.75l-0.813,0c-0.437,0 -0.75,0.313 -0.75,0.75l0,32.188c0,0.375 0.188,0.562 0.5,0.562c0.063,0 0.375,-0.062 0.438,-0.125c0.875,-0.375 4.375,-1.875 6.187,-1.875c0.625,0 1.063,0.188 1.063,0.688l-0,9.312c-0,0.438 0.312,0.75 0.75,0.75l0.812,0c0.375,0 0.75,-0.312 0.75,-0.75l0,-31.375c0,-0.312 -0.25,-0.5 -0.5,-0.5c-0.062,0 -0.187,0 -0.25,0.063l-0.937,0.312" style="fill-rule:nonzero;"/></g><g><path d="M366.559,224.312c5.563,0 12.375,-5.125 12.375,-10.437c0,-3.188 -2.5,-5.188 -6.062,-5.188c-6.875,0 -12.375,5.063 -12.375,10.438c-0,3.25 2.687,5.187 6.062,5.187" style="fill-rule:nonzero;"/></g><g><path d="M401.444,211.562c-0.375,1.25 -3.313,2.5 -4.75,2.5c-0.375,0 -0.688,-0.125 -0.75,-0.312c-0.125,-0.25 -0.188,-1.625 -0.188,-3.125c0,-1.938 0.063,-4.125 0.188,-4.625c0.125,-1.063 3,-2.375 4.562,-2.375c0.438,-0 0.813,0.125 0.938,0.375c0.125,0.312 0.25,1.875 0.25,3.562c-0,1.688 -0.125,3.438 -0.25,4m4.312,-10.187c0.438,-0.188 0.75,-0.688 0.75,-1.063l0,-4.437c0,-0.313 -0.187,-0.5 -0.437,-0.5c-0.125,-0 -0.188,-0 -0.313,0.062c0,0 -1.25,0.5 -1.562,0.563c-0.438,-0 -0.875,-0.313 -0.875,-0.813l-0,-7.625c-0,-0.375 -0.375,-0.687 -0.875,-0.687c-0.625,-0 -1,0.312 -1,0.687l-0,8.125c-0.063,0.625 -0.25,1.438 -0.813,1.813c-0.75,0.437 -2.875,1.312 -3.937,1.562c-0.563,0 -0.75,-0.75 -0.75,-1.25l-0,-7.5c-0,-0.375 -0.438,-0.687 -0.875,-0.687c-0.625,-0 -1,0.312 -1,0.687l-0,8.438c-0,0.875 -0.375,1.5 -0.75,1.687c-0.375,0.188 -1.625,0.688 -1.625,0.688c-0.438,0.125 -0.75,0.625 -0.75,1l-0,4.437c-0,0.375 0.187,0.563 0.5,0.563c0.25,-0 1.437,-0.563 1.625,-0.688c0.062,0 0.125,-0.062 0.187,-0.062c0.438,-0 0.813,0.625 0.813,1.125l-0,6.187c-0,0.688 -0.313,1.25 -0.688,1.438c-0.375,0.125 -1.687,0.687 -1.687,0.687c-0.438,0.125 -0.75,0.625 -0.75,1l-0,4.438c-0,0.375 0.187,0.562 0.5,0.562c0.062,0 0.187,-0.062 0.25,-0.062c-0,-0 0.875,-0.375 1.437,-0.563c0.063,-0.062 0.125,-0.062 0.188,-0.062c0.437,-0 0.75,0.687 0.75,1l-0,7.687c-0,0.375 0.375,0.688 0.812,0.688c0.625,-0 1.063,-0.313 1.063,-0.688l-0,-8.687c-0,-0.813 0.312,-1.25 0.625,-1.375l3.812,-1.563c0.063,0 0.188,-0.062 0.25,-0.062c0.5,-0 0.813,0.75 0.813,1.125l-0,7.812c-0,0.375 0.375,0.688 0.812,0.688c0.688,-0 1.063,-0.313 1.063,-0.688l-0,-8.875c-0,-0.5 0.25,-1.25 0.687,-1.437c0.438,-0.188 1.75,-0.688 1.75,-0.688c0.438,-0.187 0.75,-0.687 0.75,-1.062l0,-4.438c0,-0.312 -0.187,-0.5 -0.437,-0.5c-0.125,0 -0.188,0 -0.313,0.063l-1.625,0.625c-0.375,-0 -0.812,-0.375 -0.812,-1.125l-0,-5.813c-0,-0.437 0.312,-1.625 0.812,-1.812l1.625,-0.625" style="fill-rule:nonzero;"/></g><g><path d="M416.431,216.562c5.563,0 12.375,-5.125 12.375,-10.437c0,-3.188 -2.5,-5.188 -6.062,-5.188c-6.875,0 -12.375,5.063 -12.375,10.438c-0,3.25 2.687,5.187 6.062,5.187" style="fill-rule:nonzero;"/></g><g><path d="M464.278,208.812c5.563,0 12.375,-5.125 12.375,-10.437c0,-3.188 -2.5,-5.188 -6.062,-5.188c-6.875,0 -12.375,5.063 -12.375,10.438c-0,3.25 2.687,5.187 6.062,5.187" style="fill-rule:nonzero;"/></g><g><path d="M512.125,201.062c5.562,0 12.375,-5.125 12.375,-10.437c-0,-3.188 -2.5,-5.188 -6.063,-5.188c-6.875,0 -12.375,5.063 -12.375,10.438c0,3.25 2.688,5.187 6.063,5.187" style="fill-rule:nonzero;"/></g><g><path d="M559.972,193.312c5.562,0 12.375,-5.125 12.375,-10.437c-0,-3.188 -2.5,-5.188 -6.063,-5.188c-6.875,0 -12.375,5.063 -12.375,10.438c0,3.25 2.688,5.187 6.063,5.187" style="fill-rule:nonzero;"/></g><g><path d="M607.819,185.562c5.562,0 12.375,-5.125 12.375,-10.437c-0,-3.188 -2.5,-5.188 -6.063,-5.188c-6.875,0 -12.375,5.063 -12.375,10.438c0,3.25 2.688,5.187 6.063,5.187" style="fill-rule:nonzero;"/></g><g><path d="M634.531,175.062c0,0 -0.187,-3.75 -0.187,-6.25c-0,-1 0.062,-1.75 0.125,-2c0.437,-1.25 2.937,-3.062 4.375,-3.062c1.812,-0 2.562,2.062 2.562,3.625c0,3.375 -2.875,6.75 -5.562,8.437c-0.25,0.125 -0.438,0.188 -0.625,0.188c-0.563,-0 -0.688,-0.625 -0.688,-0.938m-2.187,5.563c0.187,0.25 0.375,0.312 0.562,0.312c0.188,0 0.375,-0.125 0.375,-0.125c1.875,-1.062 3.375,-2.75 4.938,-3.812c5.562,-3.875 7.5,-7.688 7.5,-10.563c-0,-3.562 -2.75,-5.812 -5.625,-6c-1.063,0 -2.563,0.5 -3.438,1.063c-0.375,0.312 -1.062,0.875 -1.375,0.875c-0.125,-0 -0.187,-0 -0.312,-0.063c-0.438,-0.187 -0.688,-0.625 -0.688,-1.062c0.063,-1.375 0.438,-16.375 0.438,-17.625c-0,-0.688 -0.563,-1.063 -1.188,-1.063c-0.875,0 -1.875,0.625 -1.937,1.75c-0,0 0.25,35.688 0.75,36.313" style="fill-rule:nonzero;"/></g><g><path d="M655.64,177.812c5.563,0 12.375,-5.125 12.375,-10.437c0,-3.188 -2.5,-5.188 -6.062,-5.188c-6.875,0 -12.375,5.063 -12.375,10.438c-0,3.25 2.687,5.187 6.062,5.187" style="fill-rule:nonzero;"/></g><g><path d="M682.353,167.312c-0,0 -0.188,-3.75 -0.188,-6.25c0,-1 0.063,-1.75 0.125,-2c0.438,-1.25 2.938,-3.062 4.375,-3.062c1.813,-0 2.563,2.062 2.563,3.625c-0,3.375 -2.875,6.75 -5.563,8.437c-0.25,0.125 -0.437,0.188 -0.625,0.188c-0.562,-0 -0.687,-0.625 -0.687,-0.938m-2.188,5.563c0.188,0.25 0.375,0.312 0.563,0.312c0.187,0 0.375,-0.125 0.375,-0.125c1.875,-1.062 3.375,-2.75 4.937,-3.812c5.563,-3.875 7.5,-7.688 7.5,-10.563c0,-3.562 -2.75,-5.812 -5.625,-6c-1.062,0 -2.562,0.5 -3.437,1.063c-0.375,0.312 -1.063,0.875 -1.375,0.875c-0.125,-0 -0.188,-0 -0.313,-0.063c-0.437,-0.187 -0.687,-0.625 -0.687,-1.062c0.062,-1.375 0.437,-16.375 0.437,-17.625c0,-0.688 -0.562,-1.063 -1.187,-1.063c-0.875,0 -1.875,0.625 -1.938,1.75c0,0 0.25,35.688 0.75,36.313" style="fill-rule:nonzero;"/></g><g><path d="M703.465,170.062c5.563,0 12.375,-5.125 12.375,-10.437c0,-3.188 -2.5,-5.188 -6.062,-5.188c-6.875,0 -12.375,5.063 -12.375,10.438c-0,3.25 2.687,5.187 6.062,5.187" style="fill-rule:nonzero;"/></g><g><path d="M733.165,159.812c0,-0.875 3.813,-2.5 5.313,-2.5c0.375,0 0.562,0.063 0.562,0.313l0,6.437c0,1.125 -3.562,2.563 -5.125,2.563c-0.437,-0 -0.75,-0.125 -0.75,-0.375l0,-6.438m6.5,-8.875c-0.125,0 -0.187,0.063 -0.25,0.063c0,-0 -4,1.437 -5.625,1.437c-0.375,0 -0.625,-0.062 -0.625,-0.312l0,-10.438c0,-0.437 -0.375,-0.75 -0.75,-0.75l-0.812,0c-0.438,0 -0.75,0.313 -0.75,0.75l-0,32.188c-0,0.375 0.187,0.562 0.5,0.562c0.062,0 0.375,-0.062 0.437,-0.125c0.875,-0.375 4.375,-1.875 6.188,-1.875c0.625,0 1.062,0.188 1.062,0.688l0,9.312c0,0.438 0.313,0.75 0.75,0.75l0.813,0c0.375,0 0.75,-0.312 0.75,-0.75l-0,-31.375c-0,-0.312 -0.25,-0.5 -0.5,-0.5c-0.063,0 -0.188,0 -0.25,0.063l-0.938,0.312" style="fill-rule:nonzero;"/></g><g><path d="M751.29,170.062c5.563,0 12.375,-5.125 12.375,-10.437c0,-3.188 -2.5,-5.188 -6.062,-5.188c-6.875,0 -12.375,5.063 -12.375,10.438c-0,3.25 2.687,5.187 6.062,5.187" style="fill-rule:nonzero;"/></g><g><path d="M784.1,157.312c-0.375,1.25 -3.313,2.5 -4.75,2.5c-0.375,0 -0.688,-0.125 -0.75,-0.312c-0.125,-0.25 -0.188,-1.625 -0.188,-3.125c0,-1.938 0.063,-4.125 0.188,-4.625c0.125,-1.063 3,-2.375 4.562,-2.375c0.438,-0 0.813,0.125 0.938,0.375c0.125,0.312 0.25,1.875 0.25,3.562c-0,1.688 -0.125,3.438 -0.25,4m4.312,-10.187c0.438,-0.188 0.75,-0.688 0.75,-1.063l0,-4.437c0,-0.313 -0.187,-0.5 -0.437,-0.5c-0.125,-0 -0.188,-0 -0.313,0.062c0,0 -1.25,0.5 -1.562,0.563c-0.438,-0 -0.875,-0.313 -0.875,-0.813l-0,-7.625c-0,-0.375 -0.375,-0.687 -0.875,-0.687c-0.625,-0 -1,0.312 -1,0.687l-0,8.125c-0.063,0.625 -0.25,1.438 -0.813,1.813c-0.75,0.437 -2.875,1.312 -3.937,1.562c-0.563,0 -0.75,-0.75 -0.75,-1.25l-0,-7.5c-0,-0.375 -0.438,-0.687 -0.875,-0.687c-0.625,-0 -1,0.312 -1,0.687l-0,8.438c-0,0.875 -0.375,1.5 -0.75,1.687c-0.375,0.188 -1.625,0.688 -1.625,0.688c-0.438,0.125 -0.75,0.625 -0.75,1l-0,4.437c-0,0.375 0.187,0.563 0.5,0.563c0.25,-0 1.437,-0.563 1.625,-0.688c0.062,0 0.125,-0.062 0.187,-0.062c0.438,-0 0.813,0.625 0.813,1.125l-0,6.187c-0,0.688 -0.313,1.25 -0.688,1.438c-0.375,0.125 -1.687,0.687 -1.687,0.687c-0.438,0.125 -0.75,0.625 -0.75,1l-0,4.438c-0,0.375 0.187,0.562 0.5,0.562c0.062,0 0.187,-0.062 0.25,-0.062c-0,-0 0.875,-0.375 1.437,-0.563c0.063,-0.062 0.125,-0.062 0.188,-0.062c0.437,-0 0.75,0.687 0.75,1l-0,7.687c-0,0.375 0.375,0.688 0.812,0.688c0.625,-0 1.063,-0.313 1.063,-0.688l-0,-8.687c-0,-0.813 0.312,-1.25 0.625,-1.375l3.812,-1.563c0.063,0 0.188,-0.062 0.25,-0.062c0.5,-0 0.813,0.75 0.813,1.125l-0,7.812c-0,0.375 0.375,0.688 0.812,0.688c0.688,-0 1.063,-0.313 1.063,-0.688l-0,-8.875c-0,-0.5 0.25,-1.25 0.687,-1.437c0.438,-0.188 1.75,-0.688 1.75,-0.688c0.438,-0.187 0.75,-0.687 0.75,-1.062l0,-4.438c0,-0.312 -0.187,-0.5 -0.437,-0.5c-0.125,0 -0.188,0 -0.313,0.063l-1.625,0.625c-0.375,-0 -0.812,-0.375 -0.812,-1.125l-0,-5.813c-0,-0.437 0.312,-1.625 0.812,-1.812l1.625,-0.625" style="fill-rule:nonzero;"/></g><g><path d="M799.087,162.312c5.563,0 12.375,-5.125 12.375,-10.437c0,-3.188 -2.5,-5.188 -6.062,-5.188c-6.875,0 -12.375,5.063 -12.375,10.438c-0,3.25 2.687,5.187 6.062,5.187" style="fill-rule:nonzero;"/></g><g><path d="M846.934,154.562c5.563,0 12.375,-5.125 12.375,-10.437c0,-3.188 -2.5,-5.188 -6.062,-5.188c-6.875,0 -12.375,5.063 -12.375,10.438c-0,3.25 2.687,5.187 6.062,5.187" style="fill-rule:nonzero;"/></g><g><path d="M894.781,146.812c5.562,0 12.375,-5.125 12.375,-10.437c-0,-3.188 -2.5,-5.188 -6.063,-5.188c-6.875,0 -12.375,5.063 -12.375,10.438c0,3.25 2.688,5.187 6.063,5.187" style="fill-rule:nonzero;"/></g><g><path d="M942.628,139.062c5.562,0 12.375,-5.125 12.375,-10.437c-0,-3.188 -2.5,-5.188 -6.063,-5.188c-6.875,0 -12.375,5.063 -12.375,10.438c0,3.25 2.688,5.187 6.063,5.187" style="fill-rule:nonzero;"/></g><g><path d="M1016.24,131.312c5.563,0 12.375,-5.125 12.375,-10.437c0,-3.188 -2.5,-5.188 -6.062,-5.188c-6.875,0 -12.375,5.063 -12.375,10.438c-0,3.25 2.687,5.187 6.062,5.187" style="fill-rule:nonzero;"/></g><g><path d="M1042.95,120.812c-0,0 -0.188,-3.75 -0.188,-6.25c0,-1 0.063,-1.75 0.125,-2c0.438,-1.25 2.938,-3.062 4.375,-3.062c1.813,-0 2.563,2.062 2.563,3.625c-0,3.375 -2.875,6.75 -5.563,8.437c-0.25,0.125 -0.437,0.188 -0.625,0.188c-0.562,-0 -0.687,-0.625 -0.687,-0.938m-2.188,5.563c0.188,0.25 0.375,0.312 0.563,0.312c0.187,0 0.375,-0.125 0.375,-0.125c1.875,-1.062 3.375,-2.75 4.937,-3.812c5.563,-3.875 7.5,-7.688 7.5,-10.563c0,-3.562 -2.75,-5.812 -5.625,-6c-1.062,0 -2.562,0.5 -3.437,1.063c-0.375,0.312 -1.063,0.875 -1.375,0.875c-0.125,-0 -0.188,-0 -0.313,-0.063c-0.437,-0.187 -0.687,-0.625 -0.687,-1.062c0.062,-1.375 0.437,-16.375 0.437,-17.625c0,-0.688 -0.562,-1.063 -1.187,-1.063c-0.875,0 -1.875,0.625 -1.938,1.75c0,0 0.25,35.688 0.75,36.313" style="fill-rule:nonzero;"/></g><g><path d="M1064.06,123.562c5.562,0 12.375,-5.125 12.375,-10.437c-0,-3.188 -2.5,-5.188 -6.063,-5.188c-6.875,0 -12.375,5.063 -12.375,10.438c0,3.25 2.688,5.187 6.063,5.187" style="fill-rule:nonzero;"/></g><g><path d="M1091.38,113.062c-0,0 -0.188,-3.75 -0.188,-6.25c0,-1 0.063,-1.75 0.125,-2c0.438,-1.25 2.938,-3.062 4.375,-3.062c1.813,-0 2.563,2.062 2.563,3.625c-0,3.375 -2.875,6.75 -5.563,8.437c-0.25,0.125 -0.437,0.188 -0.625,0.188c-0.562,-0 -0.687,-0.625 -0.687,-0.938m-2.188,5.563c0.188,0.25 0.375,0.312 0.563,0.312c0.187,0 0.375,-0.125 0.375,-0.125c1.875,-1.062 3.375,-2.75 4.937,-3.812c5.563,-3.875 7.5,-7.688 7.5,-10.563c0,-3.562 -2.75,-5.812 -5.625,-6c-1.062,0 -2.562,0.5 -3.437,1.063c-0.375,0.312 -1.063,0.875 -1.375,0.875c-0.125,-0 -0.188,-0 -0.313,-0.063c-0.437,-0.187 -0.687,-0.625 -0.687,-1.062c0.062,-1.375 0.437,-16.375 0.437,-17.625c0,-0.688 -0.562,-1.063 -1.187,-1.063c-0.875,0 -1.875,0.625 -1.938,1.75c0,0 0.25,35.688 0.75,36.313" style="fill-rule:nonzero;"/></g><g><path d="M1112.49,115.812c5.563,0 12.375,-5.125 12.375,-10.437c0,-3.188 -2.5,-5.188 -6.062,-5.188c-6.875,0 -12.375,5.063 -12.375,10.438c-0,3.25 2.687,5.187 6.062,5.187" style="fill-rule:nonzero;"/></g><g><path d="M1142.21,105.562c-0,-0.875 3.812,-2.5 5.312,-2.5c0.375,0 0.563,0.063 0.563,0.313l-0,6.437c-0,1.125 -3.563,2.563 -5.125,2.563c-0.438,-0 -0.75,-0.125 -0.75,-0.375l-0,-6.438m6.5,-8.875c-0.125,0 -0.188,0.063 -0.25,0.063c-0,-0 -4,1.437 -5.625,1.437c-0.375,0 -0.625,-0.062 -0.625,-0.312l-0,-10.438c-0,-0.437 -0.375,-0.75 -0.75,-0.75l-0.813,0c-0.437,0 -0.75,0.313 -0.75,0.75l0,32.188c0,0.375 0.188,0.562 0.5,0.562c0.063,0 0.375,-0.062 0.438,-0.125c0.875,-0.375 4.375,-1.875 6.187,-1.875c0.625,0 1.063,0.188 1.063,0.688l-0,9.312c-0,0.438 0.312,0.75 0.75,0.75l0.812,0c0.375,0 0.75,-0.312 0.75,-0.75l0,-31.375c0,-0.312 -0.25,-0.5 -0.5,-0.5c-0.062,0 -0.187,0 -0.25,0.063l-0.937,0.312" style="fill-rule:nonzero;"/></g><g><path d="M1160.33,115.812c5.562,0 12.375,-5.125 12.375,-10.437c-0,-3.188 -2.5,-5.188 -6.063,-5.188c-6.875,0 -12.375,5.063 -12.375,10.438c0,3.25 2.688,5.187 6.063,5.187" style="fill-rule:nonzero;"/></g><g><path d="M1195.21,103.062c-0.375,1.25 -3.312,2.5 -4.75,2.5c-0.375,0 -0.687,-0.125 -0.75,-0.312c-0.125,-0.25 -0.187,-1.625 -0.187,-3.125c-0,-1.938 0.062,-4.125 0.187,-4.625c0.125,-1.063 3,-2.375 4.563,-2.375c0.437,-0 0.812,0.125 0.937,0.375c0.125,0.312 0.25,1.875 0.25,3.562c0,1.688 -0.125,3.438 -0.25,4m4.313,-10.187c0.437,-0.188 0.75,-0.688 0.75,-1.063l-0,-4.437c-0,-0.313 -0.188,-0.5 -0.438,-0.5c-0.125,-0 -0.187,-0 -0.312,0.062c-0,0 -1.25,0.5 -1.563,0.563c-0.437,-0 -0.875,-0.313 -0.875,-0.813l0,-7.625c0,-0.375 -0.375,-0.687 -0.875,-0.687c-0.625,-0 -1,0.312 -1,0.687l0,8.125c-0.062,0.625 -0.25,1.438 -0.812,1.813c-0.75,0.437 -2.875,1.312 -3.938,1.562c-0.562,0 -0.75,-0.75 -0.75,-1.25l0,-7.5c0,-0.375 -0.437,-0.687 -0.875,-0.687c-0.625,-0 -1,0.312 -1,0.687l0,8.438c0,0.875 -0.375,1.5 -0.75,1.687c-0.375,0.188 -1.625,0.688 -1.625,0.688c-0.437,0.125 -0.75,0.625 -0.75,1l0,4.437c0,0.375 0.188,0.563 0.5,0.563c0.25,-0 1.438,-0.563 1.625,-0.688c0.063,0 0.125,-0.062 0.188,-0.062c0.437,-0 0.812,0.625 0.812,1.125l0,6.187c0,0.688 -0.312,1.25 -0.687,1.438c-0.375,0.125 -1.688,0.687 -1.688,0.687c-0.437,0.125 -0.75,0.625 -0.75,1l0,4.438c0,0.375 0.188,0.562 0.5,0.562c0.063,0 0.188,-0.062 0.25,-0.062c0,-0 0.875,-0.375 1.438,-0.563c0.062,-0.062 0.125,-0.062 0.187,-0.062c0.438,-0 0.75,0.687 0.75,1l0,7.687c0,0.375 0.375,0.688 0.813,0.688c0.625,-0 1.062,-0.313 1.062,-0.688l0,-8.687c0,-0.813 0.313,-1.25 0.625,-1.375l3.813,-1.563c0.062,0 0.187,-0.062 0.25,-0.062c0.5,-0 0.812,0.75 0.812,1.125l0,7.812c0,0.375 0.375,0.688 0.813,0.688c0.687,-0 1.062,-0.313 1.062,-0.688l0,-8.875c0,-0.5 0.25,-1.25 0.688,-1.437c0.437,-0.188 1.75,-0.688 1.75,-0.688c0.437,-0.187 0.75,-0.687 0.75,-1.062l-0,-4.438c-0,-0.312 -0.188,-0.5 -0.438,-0.5c-0.125,0 -0.187,0 -0.312,0.063l-1.625,0.625c-0.375,-0 -0.813,-0.375 -0.813,-1.125l0,-5.813c0,-0.437 0.313,-1.625 0.813,-1.812l1.625,-0.625" style="fill-rule:nonzero;"/></g><g><path d="M1210.2,108.062c5.562,0 12.375,-5.125 12.375,-10.437c-0,-3.188 -2.5,-5.188 -6.063,-5.188c-6.875,0 -12.375,5.063 -12.375,10.438c0,3.25 2.688,5.187 6.063,5.187" style="fill-rule:nonzero;"/></g><g><path d="M1258.04,100.312c5.563,0 12.375,-5.125 12.375,-10.437c0,-3.188 -2.5,-5.188 -6.062,-5.188c-6.875,0 -12.375,5.063 -12.375,10.438c-0,3.25 2.687,5.187 6.062,5.187" style="fill-rule:nonzero;"/></g><g><path d="M1305.88,92.562c5.563,0 12.375,-5.125 12.375,-10.437c0,-3.188 -2.5,-5.188 -6.062,-5.188c-6.875,0 -12.375,5.063 -12.375,10.438c0,3.25 2.687,5.187 6.062,5.187" style="fill-rule:nonzero;"/></g><g><path d="M1353.71,84.812c5.562,0 12.375,-5.125 12.375,-10.437c-0,-3.188 -2.5,-5.188 -6.063,-5.188c-6.875,0 -12.375,5.063 -12.375,10.438c0,3.25 2.688,5.187 6.063,5.187" style="fill-rule:nonzero;"/></g><g><path d="M1401.55,77.062c5.563,0 12.375,-5.125 12.375,-10.437c0,-3.188 -2.5,-5.188 -6.062,-5.188c-6.875,0 -12.375,5.063 -12.375,10.438c-0,3.25 2.687,5.187 6.062,5.187" style="fill-rule:nonzero;"/></g><g><path d="M1449.39,84.812c5.562,0 12.375,-5.125 12.375,-10.437c-0,-3.188 -2.5,-5.188 -6.063,-5.188c-6.875,0 -12.375,5.063 -12.375,10.438c0,3.25 2.688,5.187 6.063,5.187" style="fill-rule:nonzero;"/></g><g><path d="M1497.23,92.562c5.563,0 12.375,-5.125 12.375,-10.437c0,-3.188 -2.5,-5.188 -6.062,-5.188c-6.875,0 -12.375,5.063 -12.375,10.438c-0,3.25 2.687,5.187 6.062,5.187" style="fill-rule:nonzero;"/></g><g><path d="M1545.07,100.312c5.562,0 12.375,-5.125 12.375,-10.437c-0,-3.188 -2.5,-5.188 -6.063,-5.188c-6.875,0 -12.375,5.063 -12.375,10.438c0,3.25 2.688,5.187 6.063,5.187" style="fill-rule:nonzero;"/></g><g><path d="M1592.9,108.062c5.563,0 12.375,-5.125 12.375,-10.437c0,-3.188 -2.5,-5.188 -6.062,-5.188c-6.875,0 -12.375,5.063 -12.375,10.438c-0,3.25 2.687,5.187 6.062,5.187" style="fill-rule:nonzero;"/></g><g><path d="M1640.74,115.812c5.562,0 12.375,-5.125 12.375,-10.437c-0,-3.188 -2.5,-5.188 -6.063,-5.188c-6.875,0 -12.375,5.063 -12.375,10.438c0,3.25 2.688,5.187 6.063,5.187" style="fill-rule:nonzero;"/></g><g><path d="M1668.06,113.062c0,0 -0.187,-3.75 -0.187,-6.25c-0,-1 0.062,-1.75 0.125,-2c0.437,-1.25 2.937,-3.062 4.375,-3.062c1.812,-0 2.562,2.062 2.562,3.625c0,3.375 -2.875,6.75 -5.562,8.437c-0.25,0.125 -0.438,0.188 -0.625,0.188c-0.563,-0 -0.688,-0.625 -0.688,-0.938m-2.187,5.563c0.187,0.25 0.375,0.312 0.562,0.312c0.188,0 0.375,-0.125 0.375,-0.125c1.875,-1.062 3.375,-2.75 4.938,-3.812c5.562,-3.875 7.5,-7.688 7.5,-10.563c-0,-3.562 -2.75,-5.812 -5.625,-6c-1.063,0 -2.563,0.5 -3.438,1.063c-0.375,0.312 -1.062,0.875 -1.375,0.875c-0.125,-0 -0.187,-0 -0.312,-0.063c-0.438,-0.187 -0.688,-0.625 -0.688,-1.062c0.063,-1.375 0.438,-16.375 0.438,-17.625c-0,-0.688 -0.563,-1.063 -1.188,-1.063c-0.875,0 -1.875,0.625 -1.937,1.75c-0,0 0.25,35.688 0.75,36.313" style="fill-rule:nonzero;"/></g><g><path d="M1689.17,115.812c5.562,0 12.375,-5.125 12.375,-10.437c-0,-3.188 -2.5,-5.188 -6.063,-5.188c-6.875,0 -12.375,5.063 -12.375,10.438c0,3.25 2.688,5.187 6.063,5.187" style="fill-rule:nonzero;"/></g><g><path d="M1737.01,123.562c5.563,0 12.375,-5.125 12.375,-10.437c0,-3.188 -2.5,-5.188 -6.062,-5.188c-6.875,0 -12.375,5.063 -12.375,10.438c-0,3.25 2.687,5.187 6.062,5.187" style="fill-rule:nonzero;"/></g><g><path d="M161.563,161.375c0.187,1.187 0.187,1.125 -0.938,1.5c-5.5,1.875 -9.062,6.812 -9.062,12.125c-0,5.625 2.937,9.625 7.187,11.062c0.5,0.188 1.25,0.375 1.688,0.375c0.5,0 0.75,-0.312 0.75,-0.687c-0,-0.438 -0.5,-0.625 -0.938,-0.813c-2.625,-1.125 -4.5,-3.812 -4.5,-6.687c0,-3.563 2.438,-6.25 6.25,-7.313c1,-0.25 1.125,-0.187 1.25,0.5l3.125,18.625c0.125,0.688 0.063,0.688 -0.875,0.875c-1,0.188 -2.25,0.313 -3.5,0.313c-10.937,-0 -18,-6.063 -18,-14.75c0,-3.688 0.625,-8.625 5.813,-14.5c3.75,-4.188 6.625,-6.5 9.562,-8.875c0.625,-0.5 0.75,-0.438 0.875,0.25l1.313,8m6.812,-42.563c2.063,0 3.75,1.688 3.75,5.125c0,6.938 -5.937,12.563 -10.875,16.875c-0.437,0.375 -0.687,0.313 -0.812,-0.5c-0.25,-1.625 -0.375,-3.75 -0.375,-5.75c-0,-9.75 4.5,-15.75 8.312,-15.75m-2.5,52.5c-0.125,-0.75 -0.062,-0.937 0.688,-0.875c5.062,0.438 9.25,4.688 9.25,10.188c-0,3.937 -2.375,7.125 -5.875,8.875c-0.75,0.375 -0.875,0.375 -1,-0.375l-3.063,-17.813m-3.375,-19.5c-0.125,-0.75 0,-0.812 0.375,-1.187c6.75,-6.313 11.875,-14.25 11.875,-23.813c0,-5.437 -1.5,-10.812 -4.062,-14.562c-0.938,-1.375 -2.563,-3.125 -3.25,-3.125c-0.875,-0 -2.813,1.625 -4.063,3c-4.625,5.125 -6.125,12.937 -6.125,19.437c0,3.625 0.438,7.688 0.875,10.25c0.125,0.75 0.188,0.875 -0.562,1.5c-9,7.438 -18.563,16.375 -18.563,29c0,10.875 7.438,21.188 22.75,21.188c1.438,-0 3.063,-0.125 4.313,-0.375c0.687,-0.125 0.812,-0.188 0.937,0.562c0.75,4.188 1.688,9.625 1.688,12.563c-0,9.25 -6.25,10.375 -9.938,10.375c-3.375,-0 -5,-1 -5,-1.813c0,-0.437 0.563,-0.625 2,-1.062c1.938,-0.563 4.188,-2.25 4.188,-5.875c-0,-3.438 -2.188,-6.375 -6,-6.375c-4.188,-0 -6.688,3.312 -6.688,7.187c0,4.063 2.438,10.188 11.875,10.188c4.188,-0 12.313,-1.875 12.313,-12.5c-0,-3.563 -1.125,-9.5 -1.813,-13.375c-0.125,-0.75 -0.062,-0.688 0.813,-1.063c6.312,-2.5 10.5,-7.812 10.5,-14.875c-0,-8 -5.875,-15.062 -15.063,-15.062c-1.625,-0 -1.625,-0 -1.812,-1.125l-1.563,-9.063" style="fill-rule:nonzero;"/></g><g><path d="M232.376,169.997l-0,-7.753l146.562,-3.875l-0,7.753l-146.562,3.875" style="fill-rule:nonzero;"/></g><g><path d="M232.376,181.625l-0,-7.753l146.562,-3.875l-0,7.753l-146.562,3.875" style="fill-rule:nonzero;"/></g><g><path d="M426.938,154.394l-0,-7.819l145.406,-19.375l0,7.819l-145.406,19.375" style="fill-rule:nonzero;"/></g><g><path d="M426.938,166.125l-0,-7.819l145.406,-19.375l0,7.819l-145.406,19.375" style="fill-rule:nonzero;"/></g><g><path d="M601.75,228.153l0,-7.763l145.344,-7.75l-0,7.763l-145.344,7.75" style="fill-rule:nonzero;"/></g><g><path d="M601.75,216.512l0,-7.762l145.344,-7.75l-0,7.762l-145.344,7.75" style="fill-rule:nonzero;"/></g><g><path d="M793.031,208.862l0,-7.793l145.407,-15.5l-0,7.793l-145.407,15.5" style="fill-rule:nonzero;"/></g><g><path d="M793.031,197.169l0,-7.794l145.407,-15.5l-0,7.794l-145.407,15.5" style="fill-rule:nonzero;"/></g><g><path d="M1010.19,181.737l0,-7.797l145.938,-15.499l-0,7.796l-145.938,15.5" style="fill-rule:nonzero;"/></g><g><path d="M1010.19,170.044l0,-7.794l145.938,-15.5l-0,7.794l-145.938,15.5" style="fill-rule:nonzero;"/></g><g><path d="M1204.16,166.131l0,-7.753l145.344,-3.875l-0,7.753l-145.344,3.875" style="fill-rule:nonzero;"/></g><g><path d="M1204.16,154.503l0,-7.753l145.344,-3.875l-0,7.753l-145.344,3.875" style="fill-rule:nonzero;"/></g><g><path d="M1395.5,162.256l-0,-7.753l145.375,3.875l-0,7.753l-145.375,-3.875" style="fill-rule:nonzero;"/></g><g><path d="M1395.5,150.628l-0,-7.753l145.375,3.875l-0,7.753l-145.375,-3.875" style="fill-rule:nonzero;"/></g><g><path d="M1586.84,162.256l0,-7.753l145.969,3.875l-0,7.753l-145.969,-3.875" style="fill-rule:nonzero;"/></g><g><path d="M1586.84,150.628l0,-7.753l145.969,3.875l-0,7.753l-145.969,-3.875" style="fill-rule:nonzero;"/></g><g><path d="M131.251,363.75l851.061,-0" style="fill:none;stroke:#000;stroke-width:2.01px;"/><path d="M131.251,348.25l851.061,-0" style="fill:none;stroke:#000;stroke-width:2.01px;"/><path d="M131.251,394.75l851.061,-0" style="fill:none;stroke:#000;stroke-width:2.01px;"/><path d="M131.251,379.25l851.061,-0" style="fill:none;stroke:#000;stroke-width:2.01px;"/><path d="M131.251,410.25l851.061,-0" style="fill:none;stroke:#000;stroke-width:2.01px;"/></g><g><path d="M822.594,347.243l-0,64.013" style="fill:none;stroke:#000;stroke-width:2.48px;"/><path d="M972.375,347.243l-0,64.013" style="fill:none;stroke:#000;stroke-width:2.48px;"/><path d="M981.062,347.243l0,64.013" style="fill:none;stroke:#000;stroke-width:2.48px;"/></g><g><path d="M216.719,343.103l0,51.912" style="fill:none;stroke:#000;stroke-width:1.86px;"/><path d="M247.719,350.853l0,49.331" style="fill:none;stroke:#000;stroke-width:1.86px;"/><path d="M278.751,358.603l-0,46.747" style="fill:none;stroke:#000;stroke-width:1.86px;"/><path d="M309.75,366.353l0,44.162" style="fill:none;stroke:#000;stroke-width:1.86px;"/><path d="M353.438,374.103l-0,47.859" style="fill:none;stroke:#000;stroke-width:1.86px;"/><path d="M392.094,381.853l0,43.756" style="fill:none;stroke:#000;stroke-width:1.86px;"/><path d="M434.344,381.853l0,47.744" style="fill:none;stroke:#000;stroke-width:1.86px;"/><path d="M476.625,389.603l0,43.984" style="fill:none;stroke:#000;stroke-width:1.86px;"/><path d="M524.188,347.984l-0,44.163" style="fill:none;stroke:#000;stroke-width:1.86px;"/><path d="M555.219,353.15l0,46.747" style="fill:none;stroke:#000;stroke-width:1.86px;"/><path d="M586.219,358.315l0,49.332" style="fill:none;stroke:#000;stroke-width:1.86px;"/><path d="M617.219,363.484l0,51.913" style="fill:none;stroke:#000;stroke-width:1.86px;"/><path d="M660.906,379.243l0,43.904" style="fill:none;stroke:#000;stroke-width:1.86px;"/></g><g><path d="M640.844,425.75l27.219,-0" style="fill:none;stroke:#000;stroke-width:2.48px;"/></g><g><path d="M705.75,380.468l0,50.429" style="fill:none;stroke:#000;stroke-width:1.86px;"/></g><g><path d="M685.906,425.75l26.969,-0" style="fill:none;stroke:#000;stroke-width:2.48px;"/></g><g><path d="M754.156,381.793l0,49.104" style="fill:none;stroke:#000;stroke-width:1.86px;"/></g><g><path d="M734.344,425.75l26.969,-0" style="fill:none;stroke:#000;stroke-width:2.48px;"/></g><g><path d="M802.594,383.118l-0,55.529" style="fill:none;stroke:#000;stroke-width:1.86px;"/></g><g><path d="M782.5,441.25l27.219,-0" style="fill:none;stroke:#000;stroke-width:2.48px;"/><path d="M778.906,425.75l30.813,-0" style="fill:none;stroke:#000;stroke-width:2.48px;"/><path d="M840.906,441.25l38.782,-0" style="fill:none;stroke:#000;stroke-width:2.48px;"/><path d="M840.906,425.75l38.782,-0" style="fill:none;stroke:#000;stroke-width:2.48px;"/></g><g><path d="M221.428,316.375c0,-0 -0.062,0.25 -0.062,0.437c-0,0.25 0.25,0.5 0.5,0.5c0.187,0 0.312,-0.187 0.375,-0.25c0.062,-0.187 0.812,-2.75 1.187,-3.375c0.125,-0.25 0.25,-0.312 0.313,-0.312c0.125,-0 0.187,0.25 0.187,0.437l0,8.938c0,0.75 -0.625,1.187 -1.25,1.187c-0.25,0 -0.562,0.125 -0.562,0.5c-0,0.375 0.312,0.5 0.812,0.5l5.25,0c0.5,0 0.5,-0.5 0.5,-0.5c0,0 0,-0.5 -0.5,-0.5c-0.437,0 -1,-0.562 -1,-1.125l0,-13c0,-0.5 -0.187,-0.75 -0.625,-0.75c-0.437,0 -0.812,0.125 -1.187,0.125c-0.625,0 -0.75,0 -1.25,-0.125c-0.25,0 -0.563,0.375 -0.75,0.625l-1.938,6.688" style="fill-rule:nonzero;"/></g><g><path d="M259.343,327.112l-0,-6.687c-0,-0.313 -0.063,-0.563 -0.375,-0.563c-0.25,0 -0.438,0.063 -0.625,0.313l-1.875,3.625c-0.125,0.125 -0.313,0.312 -0.313,0.75l0,2.562l-4.062,0c2.562,-2.125 6.562,-9.187 6.625,-9.562c-0,-0.063 0.062,-0.125 0.062,-0.188c0,-0.25 -0.25,-0.437 -0.437,-0.437c-0.313,-0 -1.625,0.125 -2.188,0.125c-0.562,-0 -0.937,-0.125 -1.187,-0.125c-0.313,-0 -0.75,0.125 -0.75,0.625c-0,4 -3.25,8.562 -4.063,9.687c-0.125,0.125 -0.25,0.313 -0.25,0.5c0,0.313 0.25,0.625 0.625,0.625l5.625,0l0,1.938c0,0.875 -0.5,1.125 -1,1.125c-0.562,-0 -0.812,0.25 -0.812,0.562c-0,0.313 0.125,0.688 0.687,0.688l5.375,-0c0.313,-0 0.625,-0.25 0.625,-0.688c0,-0.437 -0.375,-0.625 -0.687,-0.625c-0.313,0 -1,-0.187 -1,-1.187l-0,-1.813l2.312,0c0.313,0 0.5,-0.25 0.5,-0.625c0,-0.375 -0.125,-0.625 -0.5,-0.625l-2.312,0" style="fill-rule:nonzero;"/></g><g><path d="M286.378,317c-3.438,-0 -4.938,2.312 -4.938,3.625c0,0.875 0.5,1.937 2.063,2c1.187,-0 1.75,-0.75 1.75,-1.563l-0,-0.25c-0.063,-0.937 -0.688,-1 -0.813,-1.062c-0.125,-0.063 -0.375,-0.313 -0.375,-0.75c0.125,-0.688 1.063,-0.938 1.313,-0.938c3.187,0 4.125,1.688 4.125,2.75c-0,2.938 -3,3.188 -3.938,3.25c-0.437,0 -0.875,0.188 -0.875,0.563c0,0.375 0.563,0.375 0.813,0.375c3.625,-0 4.125,1.875 4.125,2.812c-0,3.625 -2.938,3.75 -3.688,3.75c-0.375,0 -1,-0.187 -1.062,-0.5l-0,-0.375c-0,-0.687 0.187,-1.437 0.25,-2.062c-0,-1.125 -0.75,-1.813 -1.875,-1.813l-0.25,0c-0.438,0.125 -0.875,0.375 -1.188,0.688c-0.437,0.375 -0.562,0.937 -0.562,1.5c0.062,2 1.812,3.687 4.937,3.75l0.375,-0c3.063,-0 6.25,-1.625 6.25,-4.375c0,-0.625 -0.125,-1.125 -0.312,-1.5c-0.125,-0.375 -0.375,-0.688 -0.625,-0.938c-0.188,-0.25 -0.438,-0.437 -0.688,-0.625l-0.687,-0.375l-0.375,-0.125c-0.125,0 -0.188,-0.062 -0.313,-0.062l-0.375,-0.125c-0.187,-0.063 -0.25,-0 -0.312,-0.125c-0.063,-0.063 -0.063,-0.125 -0.063,-0.188c0,-0.125 0.063,-0.25 0.188,-0.25l1,-0.312c0.437,-0.25 0.875,-0.438 1.187,-0.875c0.5,-0.5 0.688,-1.313 0.688,-2c-0,-2.938 -3.875,-3.75 -5.25,-3.875l-0.5,-0" style="fill-rule:nonzero;"/></g><g><path d="M314.447,324.187c-0,0 -0.063,0.25 -0.063,0.438c0,0.25 0.25,0.5 0.5,0.5c0.188,-0 0.313,-0.188 0.375,-0.25c0.063,-0.188 0.813,-2.75 1.188,-3.375c0.125,-0.25 0.25,-0.313 0.312,-0.313c0.125,0 0.188,0.25 0.188,0.438l-0,8.937c-0,0.75 -0.625,1.188 -1.25,1.188c-0.25,-0 -0.563,0.125 -0.563,0.5c0,0.375 0.313,0.5 0.813,0.5l5.25,-0c0.5,-0 0.5,-0.5 0.5,-0.5c-0,-0 -0,-0.5 -0.5,-0.5c-0.438,-0 -1,-0.563 -1,-1.125l-0,-13c-0,-0.5 -0.188,-0.75 -0.625,-0.75c-0.438,-0 -0.813,0.125 -1.188,0.125c-0.625,-0 -0.75,-0 -1.25,-0.125c-0.25,-0 -0.562,0.375 -0.75,0.625l-1.937,6.687" style="fill-rule:nonzero;"/></g><g><path d="M358.15,324.187c0,0 -0.062,0.25 -0.062,0.438c-0,0.25 0.25,0.5 0.5,0.5c0.187,-0 0.312,-0.188 0.375,-0.25c0.062,-0.188 0.812,-2.75 1.187,-3.375c0.125,-0.25 0.25,-0.313 0.313,-0.313c0.125,0 0.187,0.25 0.187,0.438l0,8.937c0,0.75 -0.625,1.188 -1.25,1.188c-0.25,-0 -0.562,0.125 -0.562,0.5c-0,0.375 0.312,0.5 0.812,0.5l5.25,-0c0.5,-0 0.5,-0.5 0.5,-0.5c0,-0 0,-0.5 -0.5,-0.5c-0.437,-0 -1,-0.563 -1,-1.125l0,-13c0,-0.5 -0.187,-0.75 -0.625,-0.75c-0.437,-0 -0.812,0.125 -1.187,0.125c-0.625,-0 -0.75,-0 -1.25,-0.125c-0.25,-0 -0.563,0.375 -0.75,0.625l-1.938,6.687" style="fill-rule:nonzero;"/></g><g><path d="M403.706,327.125l0,-6.688c0,-0.312 -0.062,-0.562 -0.375,-0.562c-0.25,-0 -0.437,0.062 -0.625,0.312l-1.875,3.625c-0.125,0.125 -0.312,0.313 -0.312,0.75l-0,2.563l-4.063,-0c2.563,-2.125 6.563,-9.188 6.625,-9.563c0,-0.062 0.063,-0.125 0.063,-0.187c-0,-0.25 -0.25,-0.438 -0.438,-0.438c-0.312,0 -1.625,0.125 -2.187,0.125c-0.563,0 -0.938,-0.125 -1.188,-0.125c-0.312,0 -0.75,0.125 -0.75,0.625c0,4 -3.25,8.563 -4.062,9.688c-0.125,0.125 -0.25,0.312 -0.25,0.5c-0,0.312 0.25,0.625 0.625,0.625l5.625,-0l-0,1.937c-0,0.875 -0.5,1.125 -1,1.125c-0.563,0 -0.813,0.25 -0.813,0.563c0,0.312 0.125,0.687 0.688,0.687l5.375,0c0.312,0 0.625,-0.25 0.625,-0.687c-0,-0.438 -0.375,-0.625 -0.688,-0.625c-0.312,-0 -1,-0.188 -1,-1.188l0,-1.812l2.313,-0c0.312,-0 0.5,-0.25 0.5,-0.625c-0,-0.375 -0.125,-0.625 -0.5,-0.625l-2.313,-0" style="fill-rule:nonzero;"/></g><g><path d="M442,317c-3.437,-0 -4.937,2.312 -4.937,3.625c-0,0.875 0.5,1.937 2.062,2c1.188,-0 1.75,-0.75 1.75,-1.563l0,-0.25c-0.062,-0.937 -0.687,-1 -0.812,-1.062c-0.125,-0.063 -0.375,-0.313 -0.375,-0.75c0.125,-0.688 1.062,-0.938 1.312,-0.938c3.188,0 4.125,1.688 4.125,2.75c0,2.938 -3,3.188 -3.937,3.25c-0.438,0 -0.875,0.188 -0.875,0.563c-0,0.375 0.562,0.375 0.812,0.375c3.625,-0 4.125,1.875 4.125,2.812c0,3.625 -2.937,3.75 -3.687,3.75c-0.375,0 -1,-0.187 -1.063,-0.5l0,-0.375c0,-0.687 0.188,-1.437 0.25,-2.062c0,-1.125 -0.75,-1.813 -1.875,-1.813l-0.25,0c-0.437,0.125 -0.875,0.375 -1.187,0.688c-0.438,0.375 -0.563,0.937 -0.563,1.5c0.063,2 1.813,3.687 4.938,3.75l0.375,-0c3.062,-0 6.25,-1.625 6.25,-4.375c-0,-0.625 -0.125,-1.125 -0.313,-1.5c-0.125,-0.375 -0.375,-0.688 -0.625,-0.938c-0.187,-0.25 -0.437,-0.437 -0.687,-0.625l-0.688,-0.375l-0.375,-0.125c-0.125,0 -0.187,-0.062 -0.312,-0.062l-0.375,-0.125c-0.188,-0.063 -0.25,-0 -0.313,-0.125c-0.062,-0.063 -0.062,-0.125 -0.062,-0.188c-0,-0.125 0.062,-0.25 0.187,-0.25l1,-0.312c0.438,-0.25 0.875,-0.438 1.188,-0.875c0.5,-0.5 0.687,-1.313 0.687,-2c0,-2.938 -3.875,-3.75 -5.25,-3.875l-0.5,-0" style="fill-rule:nonzero;"/></g><g><path d="M481.322,324.187c-0,0 -0.063,0.25 -0.063,0.438c0,0.25 0.25,0.5 0.5,0.5c0.188,-0 0.313,-0.188 0.375,-0.25c0.063,-0.188 0.813,-2.75 1.188,-3.375c0.125,-0.25 0.25,-0.313 0.312,-0.313c0.125,0 0.188,0.25 0.188,0.438l-0,8.937c-0,0.75 -0.625,1.188 -1.25,1.188c-0.25,-0 -0.563,0.125 -0.563,0.5c0,0.375 0.313,0.5 0.813,0.5l5.25,-0c0.5,-0 0.5,-0.5 0.5,-0.5c-0,-0 -0,-0.5 -0.5,-0.5c-0.438,-0 -1,-0.563 -1,-1.125l-0,-13c-0,-0.5 -0.188,-0.75 -0.625,-0.75c-0.438,-0 -0.813,0.125 -1.188,0.125c-0.625,-0 -0.75,-0 -1.25,-0.125c-0.25,-0 -0.562,0.375 -0.75,0.625l-1.937,6.687" style="fill-rule:nonzero;"/></g><g><path d="M512.328,324.187c0,0 -0.062,0.25 -0.062,0.438c-0,0.25 0.25,0.5 0.5,0.5c0.187,-0 0.312,-0.188 0.375,-0.25c0.062,-0.188 0.812,-2.75 1.187,-3.375c0.125,-0.25 0.25,-0.313 0.313,-0.313c0.125,0 0.187,0.25 0.187,0.438l0,8.937c0,0.75 -0.625,1.188 -1.25,1.188c-0.25,-0 -0.562,0.125 -0.562,0.5c-0,0.375 0.312,0.5 0.812,0.5l5.25,-0c0.5,-0 0.5,-0.5 0.5,-0.5c0,-0 0,-0.5 -0.5,-0.5c-0.437,-0 -1,-0.563 -1,-1.125l0,-13c0,-0.5 -0.187,-0.75 -0.625,-0.75c-0.437,-0 -0.812,0.125 -1.187,0.125c-0.625,-0 -0.75,-0 -1.25,-0.125c-0.25,-0 -0.563,0.375 -0.75,0.625l-1.938,6.687" style="fill-rule:nonzero;"/></g><g><path d="M550.244,327.125l-0,-6.688c-0,-0.312 -0.063,-0.562 -0.375,-0.562c-0.25,-0 -0.438,0.062 -0.625,0.312l-1.875,3.625c-0.125,0.125 -0.313,0.313 -0.313,0.75l0,2.563l-4.062,-0c2.562,-2.125 6.562,-9.188 6.625,-9.563c-0,-0.062 0.062,-0.125 0.062,-0.187c0,-0.25 -0.25,-0.438 -0.437,-0.438c-0.313,0 -1.625,0.125 -2.188,0.125c-0.562,0 -0.937,-0.125 -1.187,-0.125c-0.313,0 -0.75,0.125 -0.75,0.625c-0,4 -3.25,8.563 -4.063,9.688c-0.125,0.125 -0.25,0.312 -0.25,0.5c0,0.312 0.25,0.625 0.625,0.625l5.625,-0l0,1.937c0,0.875 -0.5,1.125 -1,1.125c-0.562,0 -0.812,0.25 -0.812,0.563c-0,0.312 0.125,0.687 0.687,0.687l5.375,0c0.313,0 0.625,-0.25 0.625,-0.687c0,-0.438 -0.375,-0.625 -0.687,-0.625c-0.313,-0 -1,-0.188 -1,-1.188l-0,-1.812l2.312,-0c0.313,-0 0.5,-0.25 0.5,-0.625c0,-0.375 -0.125,-0.625 -0.5,-0.625l-2.312,-0" style="fill-rule:nonzero;"/></g><g><path d="M577.278,317c-3.437,-0 -4.937,2.312 -4.937,3.625c-0,0.875 0.5,1.937 2.062,2c1.188,-0 1.75,-0.75 1.75,-1.563l0,-0.25c-0.062,-0.937 -0.687,-1 -0.812,-1.062c-0.125,-0.063 -0.375,-0.313 -0.375,-0.75c0.125,-0.688 1.062,-0.938 1.312,-0.938c3.188,0 4.125,1.688 4.125,2.75c0,2.938 -3,3.188 -3.937,3.25c-0.438,0 -0.875,0.188 -0.875,0.563c-0,0.375 0.562,0.375 0.812,0.375c3.625,-0 4.125,1.875 4.125,2.812c0,3.625 -2.937,3.75 -3.687,3.75c-0.375,0 -1,-0.187 -1.063,-0.5l0,-0.375c0,-0.687 0.188,-1.437 0.25,-2.062c0,-1.125 -0.75,-1.813 -1.875,-1.813l-0.25,0c-0.437,0.125 -0.875,0.375 -1.187,0.688c-0.438,0.375 -0.563,0.937 -0.563,1.5c0.063,2 1.813,3.687 4.938,3.75l0.375,-0c3.062,-0 6.25,-1.625 6.25,-4.375c-0,-0.625 -0.125,-1.125 -0.313,-1.5c-0.125,-0.375 -0.375,-0.688 -0.625,-0.938c-0.187,-0.25 -0.437,-0.437 -0.687,-0.625l-0.688,-0.375l-0.375,-0.125c-0.125,0 -0.187,-0.062 -0.312,-0.062l-0.375,-0.125c-0.188,-0.063 -0.25,-0 -0.313,-0.125c-0.062,-0.063 -0.062,-0.125 -0.062,-0.188c-0,-0.125 0.062,-0.25 0.187,-0.25l1,-0.312c0.438,-0.25 0.875,-0.438 1.188,-0.875c0.5,-0.5 0.687,-1.313 0.687,-2c0,-2.938 -3.875,-3.75 -5.25,-3.875l-0.5,-0" style="fill-rule:nonzero;"/></g><g><path d="M605.347,324.187c-0,0 -0.063,0.25 -0.063,0.438c0,0.25 0.25,0.5 0.5,0.5c0.188,-0 0.313,-0.188 0.375,-0.25c0.063,-0.188 0.813,-2.75 1.188,-3.375c0.125,-0.25 0.25,-0.313 0.312,-0.313c0.125,0 0.188,0.25 0.188,0.438l-0,8.937c-0,0.75 -0.625,1.188 -1.25,1.188c-0.25,-0 -0.563,0.125 -0.563,0.5c0,0.375 0.313,0.5 0.813,0.5l5.25,-0c0.5,-0 0.5,-0.5 0.5,-0.5c-0,-0 -0,-0.5 -0.5,-0.5c-0.438,-0 -1,-0.563 -1,-1.125l-0,-13c-0,-0.5 -0.188,-0.75 -0.625,-0.75c-0.438,-0 -0.813,0.125 -1.188,0.125c-0.625,-0 -0.75,-0 -1.25,-0.125c-0.25,-0 -0.562,0.375 -0.75,0.625l-1.937,6.687" style="fill-rule:nonzero;"/></g><g><path d="M649.05,324.187c-0,0 -0.063,0.25 -0.063,0.438c0,0.25 0.25,0.5 0.5,0.5c0.188,-0 0.313,-0.188 0.375,-0.25c0.063,-0.188 0.813,-2.75 1.188,-3.375c0.125,-0.25 0.25,-0.313 0.312,-0.313c0.125,0 0.188,0.25 0.188,0.438l-0,8.937c-0,0.75 -0.625,1.188 -1.25,1.188c-0.25,-0 -0.563,0.125 -0.563,0.5c0,0.375 0.313,0.5 0.813,0.5l5.25,-0c0.5,-0 0.5,-0.5 0.5,-0.5c-0,-0 -0,-0.5 -0.5,-0.5c-0.438,-0 -1,-0.563 -1,-1.125l-0,-13c-0,-0.5 -0.188,-0.75 -0.625,-0.75c-0.438,-0 -0.813,0.125 -1.188,0.125c-0.625,-0 -0.75,-0 -1.25,-0.125c-0.25,-0 -0.562,0.375 -0.75,0.625l-1.937,6.687" style="fill-rule:nonzero;"/></g><g><path d="M700.778,327.125l-0,-6.688c-0,-0.312 -0.063,-0.562 -0.375,-0.562c-0.25,-0 -0.438,0.062 -0.625,0.312l-1.875,3.625c-0.125,0.125 -0.313,0.313 -0.313,0.75l0,2.563l-4.062,-0c2.562,-2.125 6.562,-9.188 6.625,-9.563c-0,-0.062 0.062,-0.125 0.062,-0.187c0,-0.25 -0.25,-0.438 -0.437,-0.438c-0.313,0 -1.625,0.125 -2.188,0.125c-0.562,0 -0.937,-0.125 -1.187,-0.125c-0.313,0 -0.75,0.125 -0.75,0.625c-0,4 -3.25,8.563 -4.063,9.688c-0.125,0.125 -0.25,0.312 -0.25,0.5c0,0.312 0.25,0.625 0.625,0.625l5.625,-0l0,1.937c0,0.875 -0.5,1.125 -1,1.125c-0.562,0 -0.812,0.25 -0.812,0.563c-0,0.312 0.125,0.687 0.687,0.687l5.375,0c0.313,0 0.625,-0.25 0.625,-0.687c0,-0.438 -0.375,-0.625 -0.687,-0.625c-0.313,-0 -1,-0.188 -1,-1.188l-0,-1.812l2.312,-0c0.313,-0 0.5,-0.25 0.5,-0.625c0,-0.375 -0.125,-0.625 -0.5,-0.625l-2.312,-0" style="fill-rule:nonzero;"/></g><g><path d="M745.237,317c-3.437,-0 -4.937,2.312 -4.937,3.625c-0,0.875 0.5,1.937 2.062,2c1.188,-0 1.75,-0.75 1.75,-1.563l0,-0.25c-0.062,-0.937 -0.687,-1 -0.812,-1.062c-0.125,-0.063 -0.375,-0.313 -0.375,-0.75c0.125,-0.688 1.062,-0.938 1.312,-0.938c3.188,0 4.125,1.688 4.125,2.75c0,2.938 -3,3.188 -3.937,3.25c-0.438,0 -0.875,0.188 -0.875,0.563c-0,0.375 0.562,0.375 0.812,0.375c3.625,-0 4.125,1.875 4.125,2.812c0,3.625 -2.937,3.75 -3.687,3.75c-0.375,0 -1,-0.187 -1.063,-0.5l0,-0.375c0,-0.687 0.188,-1.437 0.25,-2.062c0,-1.125 -0.75,-1.813 -1.875,-1.813l-0.25,0c-0.437,0.125 -0.875,0.375 -1.187,0.688c-0.438,0.375 -0.563,0.937 -0.563,1.5c0.063,2 1.813,3.687 4.938,3.75l0.375,-0c3.062,-0 6.25,-1.625 6.25,-4.375c-0,-0.625 -0.125,-1.125 -0.313,-1.5c-0.125,-0.375 -0.375,-0.688 -0.625,-0.938c-0.187,-0.25 -0.437,-0.437 -0.687,-0.625l-0.688,-0.375l-0.375,-0.125c-0.125,0 -0.187,-0.062 -0.312,-0.062l-0.375,-0.125c-0.188,-0.063 -0.25,-0 -0.313,-0.125c-0.062,-0.063 -0.062,-0.125 -0.062,-0.188c-0,-0.125 0.062,-0.25 0.187,-0.25l1,-0.312c0.438,-0.25 0.875,-0.438 1.188,-0.875c0.5,-0.5 0.687,-1.313 0.687,-2c0,-2.938 -3.875,-3.75 -5.25,-3.875l-0.5,-0" style="fill-rule:nonzero;"/></g><g><path d="M790.731,324.187c0,0 -0.062,0.25 -0.062,0.438c-0,0.25 0.25,0.5 0.5,0.5c0.187,-0 0.312,-0.188 0.375,-0.25c0.062,-0.188 0.812,-2.75 1.187,-3.375c0.125,-0.25 0.25,-0.313 0.313,-0.313c0.125,0 0.187,0.25 0.187,0.438l0,8.937c0,0.75 -0.625,1.188 -1.25,1.188c-0.25,-0 -0.562,0.125 -0.562,0.5c-0,0.375 0.312,0.5 0.812,0.5l5.25,-0c0.5,-0 0.5,-0.5 0.5,-0.5c0,-0 0,-0.5 -0.5,-0.5c-0.437,-0 -1,-0.563 -1,-1.125l0,-13c0,-0.5 -0.187,-0.75 -0.625,-0.75c-0.437,-0 -0.812,0.125 -1.187,0.125c-0.625,-0 -0.75,-0 -1.25,-0.125c-0.25,-0 -0.563,0.375 -0.75,0.625l-1.938,6.687" style="fill-rule:nonzero;"/></g><g><path d="M856.715,324.187c0,0 -0.062,0.25 -0.062,0.438c-0,0.25 0.25,0.5 0.5,0.5c0.187,-0 0.312,-0.188 0.375,-0.25c0.062,-0.188 0.812,-2.75 1.187,-3.375c0.125,-0.25 0.25,-0.313 0.313,-0.313c0.125,0 0.187,0.25 0.187,0.438l0,8.937c0,0.75 -0.625,1.188 -1.25,1.188c-0.25,-0 -0.562,0.125 -0.562,0.5c-0,0.375 0.312,0.5 0.812,0.5l5.25,-0c0.5,-0 0.5,-0.5 0.5,-0.5c0,-0 0,-0.5 -0.5,-0.5c-0.437,-0 -1,-0.563 -1,-1.125l0,-13c0,-0.5 -0.187,-0.75 -0.625,-0.75c-0.437,-0 -0.812,0.125 -1.187,0.125c-0.625,-0 -0.75,-0 -1.25,-0.125c-0.25,-0 -0.563,0.375 -0.75,0.625l-1.938,6.687" style="fill-rule:nonzero;"/></g><g><path d="M221.857,348.312c5.562,0 12.375,-5.125 12.375,-10.437c-0,-3.188 -2.5,-5.188 -6.063,-5.188c-6.875,0 -12.375,5.063 -12.375,10.438c0,3.25 2.688,5.187 6.063,5.187" style="fill-rule:nonzero;"/></g><g><path d="M252.862,356.062c5.563,0 12.375,-5.125 12.375,-10.437c0,-3.188 -2.5,-5.188 -6.062,-5.188c-6.875,0 -12.375,5.063 -12.375,10.438c-0,3.25 2.687,5.187 6.062,5.187" style="fill-rule:nonzero;"/></g><g><path d="M283.868,363.812c5.563,0 12.375,-5.125 12.375,-10.437c0,-3.188 -2.5,-5.188 -6.062,-5.188c-6.875,0 -12.375,5.063 -12.375,10.438c-0,3.25 2.687,5.187 6.062,5.187" style="fill-rule:nonzero;"/></g><g><path d="M314.874,371.562c5.563,0 12.375,-5.125 12.375,-10.437c0,-3.188 -2.5,-5.188 -6.062,-5.188c-6.875,0 -12.375,5.063 -12.375,10.438c-0,3.25 2.687,5.187 6.062,5.187" style="fill-rule:nonzero;"/></g><g><path d="M343.588,374.312c-0.375,1.25 -3.313,2.5 -4.75,2.5c-0.375,0 -0.688,-0.125 -0.75,-0.312c-0.125,-0.25 -0.188,-1.625 -0.188,-3.125c0,-1.938 0.063,-4.125 0.188,-4.625c0.125,-1.063 3,-2.375 4.562,-2.375c0.438,-0 0.813,0.125 0.938,0.375c0.125,0.312 0.25,1.875 0.25,3.562c-0,1.688 -0.125,3.438 -0.25,4m4.312,-10.187c0.438,-0.188 0.75,-0.688 0.75,-1.063l0,-4.437c0,-0.313 -0.187,-0.5 -0.437,-0.5c-0.125,-0 -0.188,-0 -0.313,0.062c0,0 -1.25,0.5 -1.562,0.563c-0.438,-0 -0.875,-0.313 -0.875,-0.813l-0,-7.625c-0,-0.375 -0.375,-0.687 -0.875,-0.687c-0.625,-0 -1,0.312 -1,0.687l-0,8.125c-0.063,0.625 -0.25,1.438 -0.813,1.813c-0.75,0.437 -2.875,1.312 -3.937,1.562c-0.563,0 -0.75,-0.75 -0.75,-1.25l-0,-7.5c-0,-0.375 -0.438,-0.687 -0.875,-0.687c-0.625,-0 -1,0.312 -1,0.687l-0,8.438c-0,0.875 -0.375,1.5 -0.75,1.687c-0.375,0.188 -1.625,0.688 -1.625,0.688c-0.438,0.125 -0.75,0.625 -0.75,1l-0,4.437c-0,0.375 0.187,0.563 0.5,0.563c0.25,-0 1.437,-0.563 1.625,-0.688c0.062,0 0.125,-0.062 0.187,-0.062c0.438,-0 0.813,0.625 0.813,1.125l-0,6.187c-0,0.688 -0.313,1.25 -0.688,1.438c-0.375,0.125 -1.687,0.687 -1.687,0.687c-0.438,0.125 -0.75,0.625 -0.75,1l-0,4.438c-0,0.375 0.187,0.562 0.5,0.562c0.062,0 0.187,-0.062 0.25,-0.062c-0,-0 0.875,-0.375 1.437,-0.563c0.063,-0.062 0.125,-0.062 0.188,-0.062c0.437,-0 0.75,0.687 0.75,1l-0,7.687c-0,0.375 0.375,0.688 0.812,0.688c0.625,-0 1.063,-0.313 1.063,-0.688l-0,-8.687c-0,-0.813 0.312,-1.25 0.625,-1.375l3.812,-1.563c0.063,0 0.188,-0.062 0.25,-0.062c0.5,-0 0.813,0.75 0.813,1.125l-0,7.812c-0,0.375 0.375,0.688 0.812,0.688c0.688,-0 1.063,-0.313 1.063,-0.688l-0,-8.875c-0,-0.5 0.25,-1.25 0.687,-1.437c0.438,-0.188 1.75,-0.688 1.75,-0.688c0.438,-0.187 0.75,-0.687 0.75,-1.062l0,-4.438c0,-0.312 -0.187,-0.5 -0.437,-0.5c-0.125,0 -0.188,0 -0.313,0.063l-1.625,0.625c-0.375,-0 -0.812,-0.375 -0.812,-1.125l-0,-5.813c-0,-0.437 0.312,-1.625 0.812,-1.812l1.625,-0.625" style="fill-rule:nonzero;"/></g><g><path d="M358.578,379.312c5.563,0 12.375,-5.125 12.375,-10.437c0,-3.188 -2.5,-5.188 -6.062,-5.188c-6.875,0 -12.375,5.063 -12.375,10.438c-0,3.25 2.687,5.187 6.062,5.187" style="fill-rule:nonzero;"/></g><g><path d="M379.103,376.812c0,-0.875 3.813,-2.5 5.313,-2.5c0.375,0 0.562,0.063 0.562,0.313l0,6.437c0,1.125 -3.562,2.563 -5.125,2.563c-0.437,-0 -0.75,-0.125 -0.75,-0.375l0,-6.438m6.5,-8.875c-0.125,0 -0.187,0.063 -0.25,0.063c0,-0 -4,1.437 -5.625,1.437c-0.375,0 -0.625,-0.062 -0.625,-0.312l0,-10.438c0,-0.437 -0.375,-0.75 -0.75,-0.75l-0.812,0c-0.438,0 -0.75,0.313 -0.75,0.75l-0,32.188c-0,0.375 0.187,0.562 0.5,0.562c0.062,0 0.375,-0.062 0.437,-0.125c0.875,-0.375 4.375,-1.875 6.188,-1.875c0.625,0 1.062,0.188 1.062,0.688l0,9.312c0,0.438 0.313,0.75 0.75,0.75l0.813,0c0.375,0 0.75,-0.312 0.75,-0.75l-0,-31.375c-0,-0.312 -0.25,-0.5 -0.5,-0.5c-0.063,0 -0.188,0 -0.25,0.063l-0.938,0.312" style="fill-rule:nonzero;"/></g><g><path d="M397.225,387.062c5.563,0 12.375,-5.125 12.375,-10.437c0,-3.188 -2.5,-5.188 -6.062,-5.188c-6.875,0 -12.375,5.063 -12.375,10.438c-0,3.25 2.687,5.187 6.062,5.187" style="fill-rule:nonzero;"/></g><g><path d="M418.378,384.312c0,0 -0.187,-3.75 -0.187,-6.25c-0,-1 0.062,-1.75 0.125,-2c0.437,-1.25 2.937,-3.062 4.375,-3.062c1.812,-0 2.562,2.062 2.562,3.625c0,3.375 -2.875,6.75 -5.562,8.437c-0.25,0.125 -0.438,0.188 -0.625,0.188c-0.563,-0 -0.688,-0.625 -0.688,-0.938m-2.187,5.563c0.187,0.25 0.375,0.312 0.562,0.312c0.188,0 0.375,-0.125 0.375,-0.125c1.875,-1.062 3.375,-2.75 4.938,-3.812c5.562,-3.875 7.5,-7.688 7.5,-10.563c-0,-3.562 -2.75,-5.812 -5.625,-6c-1.063,0 -2.563,0.5 -3.438,1.063c-0.375,0.312 -1.062,0.875 -1.375,0.875c-0.125,-0 -0.187,-0 -0.312,-0.063c-0.438,-0.187 -0.688,-0.625 -0.688,-1.062c0.063,-1.375 0.438,-16.375 0.438,-17.625c-0,-0.688 -0.563,-1.063 -1.188,-1.063c-0.875,0 -1.875,0.625 -1.937,1.75c-0,0 0.25,35.688 0.75,36.313" style="fill-rule:nonzero;"/></g><g><path d="M439.491,387.062c5.562,0 12.375,-5.125 12.375,-10.437c-0,-3.188 -2.5,-5.188 -6.063,-5.188c-6.875,0 -12.375,5.063 -12.375,10.438c0,3.25 2.688,5.187 6.063,5.187" style="fill-rule:nonzero;"/></g><g><path d="M460.641,392.062c-0,0 -0.188,-3.75 -0.188,-6.25c0,-1 0.063,-1.75 0.125,-2c0.438,-1.25 2.938,-3.062 4.375,-3.062c1.813,-0 2.563,2.062 2.563,3.625c-0,3.375 -2.875,6.75 -5.563,8.437c-0.25,0.125 -0.437,0.188 -0.625,0.188c-0.562,-0 -0.687,-0.625 -0.687,-0.938m-2.188,5.563c0.188,0.25 0.375,0.312 0.563,0.312c0.187,0 0.375,-0.125 0.375,-0.125c1.875,-1.062 3.375,-2.75 4.937,-3.812c5.563,-3.875 7.5,-7.688 7.5,-10.563c0,-3.562 -2.75,-5.812 -5.625,-6c-1.062,0 -2.562,0.5 -3.437,1.063c-0.375,0.312 -1.063,0.875 -1.375,0.875c-0.125,-0 -0.188,-0 -0.313,-0.063c-0.437,-0.187 -0.687,-0.625 -0.687,-1.062c0.062,-1.375 0.437,-16.375 0.437,-17.625c0,-0.688 -0.562,-1.063 -1.187,-1.063c-0.875,0 -1.875,0.625 -1.938,1.75c0,0 0.25,35.688 0.75,36.313" style="fill-rule:nonzero;"/></g><g><path d="M481.753,394.812c5.563,0 12.375,-5.125 12.375,-10.437c0,-3.188 -2.5,-5.188 -6.062,-5.188c-6.875,0 -12.375,5.063 -12.375,10.438c-0,3.25 2.687,5.187 6.062,5.187" style="fill-rule:nonzero;"/></g><g><path d="M512.756,402.562c5.563,0 12.375,-5.125 12.375,-10.437c0,-3.188 -2.5,-5.188 -6.062,-5.188c-6.875,0 -12.375,5.063 -12.375,10.438c-0,3.25 2.687,5.187 6.062,5.187" style="fill-rule:nonzero;"/></g><g><path d="M543.762,410.312c5.563,0 12.375,-5.125 12.375,-10.437c0,-3.188 -2.5,-5.188 -6.062,-5.188c-6.875,0 -12.375,5.063 -12.375,10.438c-0,3.25 2.687,5.187 6.062,5.187" style="fill-rule:nonzero;"/></g><g><path d="M574.769,418.062c5.562,0 12.375,-5.125 12.375,-10.437c-0,-3.188 -2.5,-5.188 -6.063,-5.188c-6.875,0 -12.375,5.063 -12.375,10.438c0,3.25 2.688,5.187 6.063,5.187" style="fill-rule:nonzero;"/></g><g><path d="M605.775,425.812c5.562,0 12.375,-5.125 12.375,-10.437c-0,-3.188 -2.5,-5.188 -6.063,-5.188c-6.875,0 -12.375,5.063 -12.375,10.438c0,3.25 2.688,5.187 6.063,5.187" style="fill-rule:nonzero;"/></g><g><path d="M634.491,428.562c-0.375,1.25 -3.313,2.5 -4.75,2.5c-0.375,0 -0.688,-0.125 -0.75,-0.312c-0.125,-0.25 -0.188,-1.625 -0.188,-3.125c0,-1.938 0.063,-4.125 0.188,-4.625c0.125,-1.063 3,-2.375 4.562,-2.375c0.438,-0 0.813,0.125 0.938,0.375c0.125,0.312 0.25,1.875 0.25,3.562c-0,1.688 -0.125,3.438 -0.25,4m4.312,-10.187c0.438,-0.188 0.75,-0.688 0.75,-1.063l0,-4.437c0,-0.313 -0.187,-0.5 -0.437,-0.5c-0.125,-0 -0.188,-0 -0.313,0.062c0,0 -1.25,0.5 -1.562,0.563c-0.438,-0 -0.875,-0.313 -0.875,-0.813l-0,-7.625c-0,-0.375 -0.375,-0.687 -0.875,-0.687c-0.625,-0 -1,0.312 -1,0.687l-0,8.125c-0.063,0.625 -0.25,1.438 -0.813,1.813c-0.75,0.437 -2.875,1.312 -3.937,1.562c-0.563,0 -0.75,-0.75 -0.75,-1.25l-0,-7.5c-0,-0.375 -0.438,-0.687 -0.875,-0.687c-0.625,-0 -1,0.312 -1,0.687l-0,8.438c-0,0.875 -0.375,1.5 -0.75,1.687c-0.375,0.188 -1.625,0.688 -1.625,0.688c-0.438,0.125 -0.75,0.625 -0.75,1l-0,4.437c-0,0.375 0.187,0.563 0.5,0.563c0.25,-0 1.437,-0.563 1.625,-0.688c0.062,0 0.125,-0.062 0.187,-0.062c0.438,-0 0.813,0.625 0.813,1.125l-0,6.187c-0,0.688 -0.313,1.25 -0.688,1.438c-0.375,0.125 -1.687,0.687 -1.687,0.687c-0.438,0.125 -0.75,0.625 -0.75,1l-0,4.438c-0,0.375 0.187,0.562 0.5,0.562c0.062,0 0.187,-0.062 0.25,-0.062c-0,-0 0.875,-0.375 1.437,-0.563c0.063,-0.062 0.125,-0.062 0.188,-0.062c0.437,-0 0.75,0.687 0.75,1l-0,7.687c-0,0.375 0.375,0.688 0.812,0.688c0.625,-0 1.063,-0.313 1.063,-0.688l-0,-8.687c-0,-0.813 0.312,-1.25 0.625,-1.375l3.812,-1.563c0.063,0 0.188,-0.062 0.25,-0.062c0.5,-0 0.813,0.75 0.813,1.125l-0,7.812c-0,0.375 0.375,0.688 0.812,0.688c0.688,-0 1.063,-0.313 1.063,-0.688l-0,-8.875c-0,-0.5 0.25,-1.25 0.687,-1.437c0.438,-0.188 1.75,-0.688 1.75,-0.688c0.438,-0.187 0.75,-0.687 0.75,-1.062l0,-4.438c0,-0.312 -0.187,-0.5 -0.437,-0.5c-0.125,0 -0.188,0 -0.313,0.063l-1.625,0.625c-0.375,-0 -0.812,-0.375 -0.812,-1.125l-0,-5.813c-0,-0.437 0.312,-1.625 0.812,-1.812l1.625,-0.625" style="fill-rule:nonzero;"/></g><g><path d="M649.478,433.562c5.562,0 12.375,-5.125 12.375,-10.437c-0,-3.188 -2.5,-5.188 -6.063,-5.188c-6.875,0 -12.375,5.063 -12.375,10.438c0,3.25 2.688,5.187 6.063,5.187" style="fill-rule:nonzero;"/></g><g><path d="M676.175,431.062c-0,-0.875 3.812,-2.5 5.312,-2.5c0.375,0 0.563,0.063 0.563,0.313l-0,6.437c-0,1.125 -3.563,2.563 -5.125,2.563c-0.438,-0 -0.75,-0.125 -0.75,-0.375l-0,-6.438m6.5,-8.875c-0.125,0 -0.188,0.063 -0.25,0.063c-0,-0 -4,1.437 -5.625,1.437c-0.375,0 -0.625,-0.062 -0.625,-0.312l-0,-10.438c-0,-0.437 -0.375,-0.75 -0.75,-0.75l-0.813,0c-0.437,0 -0.75,0.313 -0.75,0.75l0,32.188c0,0.375 0.188,0.562 0.5,0.562c0.063,0 0.375,-0.062 0.438,-0.125c0.875,-0.375 4.375,-1.875 6.187,-1.875c0.625,0 1.063,0.188 1.063,0.688l-0,9.312c-0,0.438 0.312,0.75 0.75,0.75l0.812,0c0.375,0 0.75,-0.312 0.75,-0.75l0,-31.375c0,-0.312 -0.25,-0.5 -0.5,-0.5c-0.062,0 -0.187,0 -0.25,0.063l-0.937,0.312" style="fill-rule:nonzero;"/></g><g><path d="M694.297,441.312c5.562,0 12.375,-5.125 12.375,-10.437c-0,-3.188 -2.5,-5.188 -6.063,-5.188c-6.875,0 -12.375,5.063 -12.375,10.438c0,3.25 2.688,5.187 6.063,5.187" style="fill-rule:nonzero;"/></g><g><path d="M721.615,438.562c0,0 -0.187,-3.75 -0.187,-6.25c-0,-1 0.062,-1.75 0.125,-2c0.437,-1.25 2.937,-3.062 4.375,-3.062c1.812,-0 2.562,2.062 2.562,3.625c0,3.375 -2.875,6.75 -5.562,8.437c-0.25,0.125 -0.438,0.188 -0.625,0.188c-0.563,-0 -0.688,-0.625 -0.688,-0.938m-2.187,5.563c0.187,0.25 0.375,0.312 0.562,0.312c0.188,0 0.375,-0.125 0.375,-0.125c1.875,-1.062 3.375,-2.75 4.938,-3.812c5.562,-3.875 7.5,-7.688 7.5,-10.563c-0,-3.562 -2.75,-5.812 -5.625,-6c-1.063,0 -2.563,0.5 -3.438,1.063c-0.375,0.312 -1.062,0.875 -1.375,0.875c-0.125,-0 -0.187,-0 -0.312,-0.063c-0.438,-0.187 -0.688,-0.625 -0.688,-1.062c0.063,-1.375 0.438,-16.375 0.438,-17.625c-0,-0.688 -0.563,-1.063 -1.188,-1.063c-0.875,0 -1.875,0.625 -1.937,1.75c-0,0 0.25,35.688 0.75,36.313" style="fill-rule:nonzero;"/></g><g><path d="M742.728,441.312c5.562,0 12.375,-5.125 12.375,-10.437c-0,-3.188 -2.5,-5.188 -6.063,-5.188c-6.875,0 -12.375,5.063 -12.375,10.438c0,3.25 2.688,5.187 6.063,5.187" style="fill-rule:nonzero;"/></g><g><path d="M770.047,446.312c-0,0 -0.188,-3.75 -0.188,-6.25c0,-1 0.063,-1.75 0.125,-2c0.438,-1.25 2.938,-3.062 4.375,-3.062c1.813,-0 2.563,2.062 2.563,3.625c-0,3.375 -2.875,6.75 -5.563,8.437c-0.25,0.125 -0.437,0.188 -0.625,0.188c-0.562,-0 -0.687,-0.625 -0.687,-0.938m-2.188,5.563c0.188,0.25 0.375,0.312 0.563,0.312c0.187,0 0.375,-0.125 0.375,-0.125c1.875,-1.062 3.375,-2.75 4.937,-3.812c5.563,-3.875 7.5,-7.688 7.5,-10.563c0,-3.562 -2.75,-5.812 -5.625,-6c-1.062,0 -2.562,0.5 -3.437,1.063c-0.375,0.312 -1.063,0.875 -1.375,0.875c-0.125,-0 -0.188,-0 -0.313,-0.063c-0.437,-0.187 -0.687,-0.625 -0.687,-1.062c0.062,-1.375 0.437,-16.375 0.437,-17.625c0,-0.688 -0.562,-1.063 -1.187,-1.063c-0.875,0 -1.875,0.625 -1.938,1.75c0,0 0.25,35.688 0.75,36.313" style="fill-rule:nonzero;"/></g><g><path d="M791.159,449.062c5.563,0 12.375,-5.125 12.375,-10.437c0,-3.188 -2.5,-5.188 -6.062,-5.188c-6.875,0 -12.375,5.063 -12.375,10.438c-0,3.25 2.687,5.187 6.062,5.187" style="fill-rule:nonzero;"/></g><g><path d="M854.053,445.062c0.687,-2.187 3,-2.5 4.937,-2.5c4.313,0 7.75,4.625 7.75,8.375c0,1.938 -0.812,3.688 -2.875,4.188c-0.625,0.187 -1.312,0.25 -1.937,0.25c-2.25,-0 -4.563,-1.5 -5.875,-3.25c-1.25,-1.438 -2.188,-3.563 -2.188,-5.563c0,-0.5 0.063,-1 0.188,-1.5m6.562,-3.875c-8.312,0 -13.5,3.438 -13.5,7.688c0,4.187 3.563,7.937 12.875,7.937c10.25,0 13.5,-3.562 13.5,-7.937c0,-4.438 -7.062,-7.688 -12.875,-7.688" style="fill-rule:nonzero;"/></g><g><path d="M161.563,378.375c0.187,1.187 0.187,1.125 -0.938,1.5c-5.5,1.875 -9.062,6.812 -9.062,12.125c-0,5.625 2.937,9.625 7.187,11.062c0.5,0.188 1.25,0.375 1.688,0.375c0.5,0 0.75,-0.312 0.75,-0.687c-0,-0.438 -0.5,-0.625 -0.938,-0.813c-2.625,-1.125 -4.5,-3.812 -4.5,-6.687c0,-3.563 2.438,-6.25 6.25,-7.313c1,-0.25 1.125,-0.187 1.25,0.5l3.125,18.625c0.125,0.688 0.063,0.688 -0.875,0.875c-1,0.188 -2.25,0.313 -3.5,0.313c-10.937,-0 -18,-6.063 -18,-14.75c0,-3.688 0.625,-8.625 5.813,-14.5c3.75,-4.188 6.625,-6.5 9.562,-8.875c0.625,-0.5 0.75,-0.438 0.875,0.25l1.313,8m6.812,-42.563c2.063,0 3.75,1.688 3.75,5.125c0,6.938 -5.937,12.563 -10.875,16.875c-0.437,0.375 -0.687,0.313 -0.812,-0.5c-0.25,-1.625 -0.375,-3.75 -0.375,-5.75c-0,-9.75 4.5,-15.75 8.312,-15.75m-2.5,52.5c-0.125,-0.75 -0.062,-0.937 0.688,-0.875c5.062,0.438 9.25,4.688 9.25,10.188c-0,3.937 -2.375,7.125 -5.875,8.875c-0.75,0.375 -0.875,0.375 -1,-0.375l-3.063,-17.813m-3.375,-19.5c-0.125,-0.75 0,-0.812 0.375,-1.187c6.75,-6.313 11.875,-14.25 11.875,-23.813c0,-5.437 -1.5,-10.812 -4.062,-14.562c-0.938,-1.375 -2.563,-3.125 -3.25,-3.125c-0.875,-0 -2.813,1.625 -4.063,3c-4.625,5.125 -6.125,12.937 -6.125,19.437c0,3.625 0.438,7.688 0.875,10.25c0.125,0.75 0.188,0.875 -0.562,1.5c-9,7.438 -18.563,16.375 -18.563,29c0,10.875 7.438,21.188 22.75,21.188c1.438,-0 3.063,-0.125 4.313,-0.375c0.687,-0.125 0.812,-0.188 0.937,0.562c0.75,4.188 1.688,9.625 1.688,12.563c-0,9.25 -6.25,10.375 -9.938,10.375c-3.375,-0 -5,-1 -5,-1.813c0,-0.437 0.563,-0.625 2,-1.062c1.938,-0.563 4.188,-2.25 4.188,-5.875c-0,-3.438 -2.188,-6.375 -6,-6.375c-4.188,-0 -6.688,3.312 -6.688,7.187c0,4.063 2.438,10.188 11.875,10.188c4.188,-0 12.313,-1.875 12.313,-12.5c-0,-3.563 -1.125,-9.5 -1.813,-13.375c-0.125,-0.75 -0.062,-0.688 0.813,-1.063c6.312,-2.5 10.5,-7.812 10.5,-14.875c-0,-8 -5.875,-15.062 -15.063,-15.062c-1.625,-0 -1.625,-0 -1.812,-1.125l-1.563,-9.063" style="fill-rule:nonzero;"/></g><g><path d="M215.782,398.89l-0,-7.856l94.875,15.5l-0,7.856l-94.875,-15.5" style="fill-rule:nonzero;"/></g><g><path d="M215.782,387.106l-0,-7.856l94.875,15.5l-0,7.856l-94.875,-15.5" style="fill-rule:nonzero;"/></g><g><path d="M352.5,425.837l0,-7.784l125.063,11.625l-0,7.784l-125.063,-11.625" style="fill-rule:nonzero;"/></g><g><path d="M352.5,414.159l0,-7.784l125.063,11.625l-0,7.784l-125.063,-11.625" style="fill-rule:nonzero;"/></g><g><path d="M523.282,351.965l-0,-7.856l94.875,15.5l-0,7.856l-94.875,-15.5" style="fill-rule:nonzero;"/></g><g><path d="M523.282,363.75l-0,-7.857l94.875,15.5l-0,7.857l-94.875,-15.5" style="fill-rule:nonzero;"/></g><g><path d="M660,383.122l0,-7.754l143.531,3.875l0,7.754l-143.531,-3.875" style="fill-rule:nonzero;"/></g><g><path d="M660,394.75l0,-7.753l143.531,3.875l0,7.753l-143.531,-3.875" style="fill-rule:nonzero;"/></g></g></svg>