<?xml version="1.0" encoding="UTF-8" standalone="no"?><!DOCTYPE svg PUBLIC "-//W3C//DTD SVG 1.1//EN" "http://www.w3.org/Graphics/SVG/1.1/DTD/svg11.dtd"><svg width="100%" height="100%" viewBox="0 0 6894 1831" version="1.1" xmlns="http://www.w3.org/2000/svg" xmlns:xlink="http://www.w3.org/1999/xlink" xml:space="preserve" xmlns:serif="http://www.serif.com/" style="fill-rule:evenodd;clip-rule:evenodd;stroke-miterlimit:2;"><g><g><path d="M9.364,388.858l6875,0" style="fill:none;stroke:#000;stroke-width:8.38px;"/><path d="M9.364,453.442l6875,-0" style="fill:none;stroke:#000;stroke-width:8.38px;"/><path d="M9.364,518.025l6875,0" style="fill:none;stroke:#000;stroke-width:8.38px;"/><path d="M9.364,582.608l6875,0" style="fill:none;stroke:#000;stroke-width:8.38px;"/><path d="M9.364,647.192l6875,-0" style="fill:none;stroke:#000;stroke-width:8.38px;"/></g><g><path d="M2518.73,384.667l0,266.716" style="fill:none;stroke:#000;stroke-width:10.33px;"/><path d="M4699.61,384.667l0,266.716" style="fill:none;stroke:#000;stroke-width:10.33px;"/><path d="M6879.15,384.667l0,266.716" style="fill:none;stroke:#000;stroke-width:10.33px;"/></g><g><path d="M434.493,534.067l-0,263.737" style="fill:none;stroke:#000;stroke-width:7.75px;"/></g><g><path d="M335.793,776.358l128.516,0" style="fill:none;stroke:#000;stroke-width:10.33px;"/><path d="M335.793,711.775l128.516,0" style="fill:none;stroke:#000;stroke-width:10.33px;"/></g><g><path d="M636.314,517.921l-0,247.592" style="fill:none;stroke:#000;stroke-width:7.75px;"/></g><g><path d="M552.722,776.358l113.279,0" style="fill:none;stroke:#000;stroke-width:10.33px;"/><path d="M537.618,711.775l128.383,0" style="fill:none;stroke:#000;stroke-width:10.33px;"/></g><g><path d="M838.139,501.775l-0,231.446" style="fill:none;stroke:#000;stroke-width:7.75px;"/></g><g><path d="M755.584,711.775l112.242,0" style="fill:none;stroke:#000;stroke-width:10.33px;"/></g><g><path d="M1024.86,517.633l0,215.588" style="fill:none;stroke:#000;stroke-width:7.75px;"/></g><g><path d="M942.305,711.775l112.238,0" style="fill:none;stroke:#000;stroke-width:10.33px;"/></g><g><path d="M1232.67,485.342l-0,215.587" style="fill:none;stroke:#000;stroke-width:7.75px;"/></g><g><path d="M1148.94,711.775l113.412,0" style="fill:none;stroke:#000;stroke-width:10.33px;"/></g><g><path d="M1440.48,453.05l0,215.588" style="fill:none;stroke:#000;stroke-width:7.75px;"/><path d="M1590.74,404.379l-0,199.675" style="fill:none;stroke:#000;stroke-width:7.75px;"/><path d="M1741,374.625l0,197.138" style="fill:none;stroke:#000;stroke-width:7.75px;"/><path d="M1917.04,339.796l-0,199.675" style="fill:none;stroke:#000;stroke-width:7.75px;"/><path d="M2024.08,528.871l0,199.05" style="fill:none;stroke:#000;stroke-width:7.75px;"/><path d="M2185.14,528.871l-0,199.05" style="fill:none;stroke:#000;stroke-width:7.75px;"/><path d="M2367.17,496.579l-0,231.342" style="fill:none;stroke:#000;stroke-width:7.75px;"/><path d="M2665.22,464.288l-0,200.195" style="fill:none;stroke:#000;stroke-width:7.75px;"/><path d="M2815.61,399.704l0,224.413" style="fill:none;stroke:#000;stroke-width:7.75px;"/><path d="M2965.87,367.413l-0,216.341" style="fill:none;stroke:#000;stroke-width:7.75px;"/><path d="M3141.91,335.125l-0,199.071" style="fill:none;stroke:#000;stroke-width:7.75px;"/></g><g><path d="M3127.33,324.275l113.409,-0" style="fill:none;stroke:#000;stroke-width:10.33px;"/></g><g><path d="M3343.73,302.833l0,222.98" style="fill:none;stroke:#000;stroke-width:7.75px;"/></g><g><path d="M3330.19,324.275l112.371,-0" style="fill:none;stroke:#000;stroke-width:10.33px;"/></g><g><path d="M3530.45,302.833l0,215.217" style="fill:none;stroke:#000;stroke-width:7.75px;"/></g><g><path d="M3516.91,324.275l112.371,-0" style="fill:none;stroke:#000;stroke-width:10.33px;"/></g><g><path d="M3738.28,270.542l0,247.521" style="fill:none;stroke:#000;stroke-width:7.75px;"/></g><g><path d="M3723.69,259.692l113.412,-0" style="fill:none;stroke:#000;stroke-width:10.33px;"/><path d="M3724.73,324.275l112.371,-0" style="fill:none;stroke:#000;stroke-width:10.33px;"/></g><g><path d="M3946.07,238.25l-0,270.438" style="fill:none;stroke:#000;stroke-width:7.75px;"/></g><g><path d="M3932.53,259.692l112.371,-0" style="fill:none;stroke:#000;stroke-width:10.33px;"/><path d="M3916.4,324.275l128.517,-0" style="fill:none;stroke:#000;stroke-width:10.33px;"/></g><g><path d="M4096.32,173.667l-0,328.25" style="fill:none;stroke:#000;stroke-width:7.75px;"/></g><g><path d="M4066.65,195.108l128.517,0" style="fill:none;stroke:#000;stroke-width:10.33px;"/><path d="M4066.65,259.692l128.517,-0" style="fill:none;stroke:#000;stroke-width:10.33px;"/><path d="M4066.65,324.275l128.517,-0" style="fill:none;stroke:#000;stroke-width:10.33px;"/></g><g><path d="M4246.61,141.375l0,360.688" style="fill:none;stroke:#000;stroke-width:7.75px;"/></g><g><path d="M4216.9,130.525l128.517,0" style="fill:none;stroke:#000;stroke-width:10.33px;"/><path d="M4216.9,195.108l128.517,0" style="fill:none;stroke:#000;stroke-width:10.33px;"/><path d="M4216.9,259.692l128.517,-0" style="fill:none;stroke:#000;stroke-width:10.33px;"/><path d="M4216.9,324.275l128.517,-0" style="fill:none;stroke:#000;stroke-width:10.33px;"/></g><g><path d="M4396.98,173.667l0,344.541" style="fill:none;stroke:#000;stroke-width:7.75px;"/></g><g><path d="M4367.32,195.108l128.387,0" style="fill:none;stroke:#000;stroke-width:10.33px;"/><path d="M4367.32,259.692l128.387,-0" style="fill:none;stroke:#000;stroke-width:10.33px;"/><path d="M4367.32,324.275l128.387,-0" style="fill:none;stroke:#000;stroke-width:10.33px;"/></g><g><path d="M4547.23,238.25l0,296.104" style="fill:none;stroke:#000;stroke-width:7.75px;"/></g><g><path d="M4517.57,259.692l128.383,-0" style="fill:none;stroke:#000;stroke-width:10.33px;"/><path d="M4517.57,324.275l128.383,-0" style="fill:none;stroke:#000;stroke-width:10.33px;"/></g><g><path d="M4846.07,270.542l-0,247.483" style="fill:none;stroke:#000;stroke-width:7.75px;"/></g><g><path d="M4831.48,259.692l113.413,-0" style="fill:none;stroke:#000;stroke-width:10.33px;"/><path d="M4832.53,324.275l112.371,-0" style="fill:none;stroke:#000;stroke-width:10.33px;"/></g><g><path d="M4996.32,302.833l-0,215.192" style="fill:none;stroke:#000;stroke-width:7.75px;"/></g><g><path d="M4966.65,324.275l128.513,-0" style="fill:none;stroke:#000;stroke-width:10.33px;"/></g><g><path d="M5198.15,302.833l0,215.192" style="fill:none;stroke:#000;stroke-width:7.75px;"/></g><g><path d="M5184.61,324.275l112.371,-0" style="fill:none;stroke:#000;stroke-width:10.33px;"/></g><g><path d="M5399.98,335.125l0,231.521" style="fill:none;stroke:#000;stroke-width:7.75px;"/></g><g><path d="M5385.4,324.275l113.279,-0" style="fill:none;stroke:#000;stroke-width:10.33px;"/></g><g><path d="M5550.23,367.413l0,215.379" style="fill:none;stroke:#000;stroke-width:7.75px;"/><path d="M5700.48,399.704l0,199.234" style="fill:none;stroke:#000;stroke-width:7.75px;"/><path d="M5882.53,464.288l0,199.375" style="fill:none;stroke:#000;stroke-width:7.75px;"/><path d="M6064.44,496.579l-0,192.788" style="fill:none;stroke:#000;stroke-width:7.75px;"/><path d="M6225.36,528.871l0,183.229" style="fill:none;stroke:#000;stroke-width:7.75px;"/><path d="M6401.4,528.871l0,188.646" style="fill:none;stroke:#000;stroke-width:7.75px;"/><path d="M6577.32,561.163l-0,182.475" style="fill:none;stroke:#000;stroke-width:7.75px;"/><path d="M6727.57,593.454l-0,172.5" style="fill:none;stroke:#000;stroke-width:7.75px;"/></g><g><path d="M385.101,288.596c0,-0 -0.258,1.042 -0.258,1.825c-0,1.041 1.041,2.083 2.083,2.083c0.779,0 1.3,-0.783 1.563,-1.042c0.258,-0.783 3.383,-11.458 4.945,-14.062c0.521,-1.042 1.042,-1.304 1.305,-1.304c0.52,-0 0.779,1.041 0.779,1.825l-0,37.237c-0,3.125 -2.604,4.95 -5.209,4.95c-1.041,0 -2.341,0.521 -2.341,2.084c-0,1.562 1.3,2.083 3.383,2.083l21.875,-0c2.083,-0 2.083,-2.083 2.083,-2.083c0,-0 0,-2.084 -2.083,-2.084c-1.821,0 -4.167,-2.346 -4.167,-4.687l0,-54.167c0,-2.083 -0.779,-3.125 -2.604,-3.125c-1.821,0 -3.383,0.521 -4.946,0.521c-2.604,-0 -3.125,-0 -5.208,-0.521c-1.042,0 -2.346,1.563 -3.125,2.604l-8.075,27.863" style="fill-rule:nonzero;"/></g><g><path d="M627.634,303.442c0,-1.825 -0.783,-2.084 -1.562,-2.084c-1.042,0 -1.563,0.78 -1.825,1.563c-1.3,3.646 -4.167,8.333 -8.071,8.333c-0.521,0 -1.042,0 -1.562,-0.262l-3.909,-1.3c-2.604,-1.042 -8.854,-3.125 -14.062,-3.125c-1.821,-0 -3.384,0.258 -4.946,0.779c2.862,-4.946 16.404,-11.458 19.271,-12.238c9.375,-1.304 17.187,-6.771 17.187,-16.929c0,-6.25 -2.604,-10.416 -5.991,-13.541c-6.771,-5.467 -16.667,-6.25 -19.53,-6.25c-9.375,-0 -16.929,0.52 -23.7,8.333c-1.82,2.083 -2.604,4.167 -2.604,6.25c0,1.825 0.784,3.908 1.563,6.25c1.562,3.125 4.95,5.471 8.596,5.471c6.508,-0 7.291,-6.25 7.291,-9.117c0,-5.988 -6.512,-6.508 -6.512,-9.113c-0,-1.824 2.604,-4.949 10.416,-4.949c12.242,-0 16.409,10.158 16.409,13.283c-0,4.687 -1.563,9.112 -4.167,12.758c-4.687,5.992 -13.283,8.075 -19.792,12.242c-7.291,4.425 -12.241,11.979 -14.583,20.312c0,1.821 0.779,3.905 2.342,4.688c0.262,0.258 0.783,0.258 1.041,0.258c2.867,0 4.43,-8.071 12.242,-8.071c5.208,0 7.029,7.03 18.75,7.03c5.467,-0 15.625,-0.521 17.708,-20.571" style="fill-rule:nonzero;"/></g><g><path d="M817.484,300.838l0,-27.867c0,-1.3 -0.258,-2.342 -1.562,-2.342c-1.042,0 -1.821,0.259 -2.604,1.3l-7.813,15.104c-0.521,0.521 -1.3,1.304 -1.3,3.125l0,10.679l-16.929,0c10.679,-8.854 27.346,-38.283 27.604,-39.845c0,-0.259 0.263,-0.521 0.263,-0.779c-0,-1.042 -1.042,-1.825 -1.825,-1.825c-1.3,-0 -6.771,0.52 -9.113,0.52c-2.346,0 -3.908,-0.52 -4.95,-0.52c-1.3,-0 -3.125,0.52 -3.125,2.604c0,16.666 -13.541,35.679 -16.925,40.366c-0.521,0.521 -1.041,1.3 -1.041,2.084c-0,1.3 1.041,2.604 2.604,2.604l23.437,-0l0,8.071c0,3.646 -2.083,4.687 -4.166,4.687c-2.346,0 -3.388,1.042 -3.388,2.346c0,1.3 0.521,2.863 2.867,2.863l22.396,-0c1.3,-0 2.604,-1.042 2.604,-2.863c-0,-1.825 -1.563,-2.604 -2.867,-2.604c-1.3,-0 -4.167,-0.783 -4.167,-4.95l0,-7.55l9.638,-0c1.3,-0 2.083,-1.042 2.083,-2.604c0,-1.563 -0.521,-2.605 -2.083,-2.605l-9.638,0" style="fill-rule:nonzero;"/></g><g><path d="M1004.23,300.838l0,-27.867c0,-1.3 -0.262,-2.342 -1.562,-2.342c-1.042,0 -1.825,0.259 -2.604,1.3l-7.813,15.104c-0.521,0.521 -1.304,1.304 -1.304,3.125l-0,10.679l-16.925,0c10.675,-8.854 27.342,-38.283 27.604,-39.845c0,-0.259 0.258,-0.521 0.258,-0.779c0,-1.042 -1.041,-1.825 -1.82,-1.825c-1.305,-0 -6.771,0.52 -9.117,0.52c-2.342,0 -3.904,-0.52 -4.946,-0.52c-1.304,-0 -3.125,0.52 -3.125,2.604c0,16.666 -13.542,35.679 -16.929,40.366c-0.521,0.521 -1.042,1.3 -1.042,2.084c0,1.3 1.042,2.604 2.604,2.604l23.438,-0l-0,8.071c-0,3.646 -2.083,4.687 -4.167,4.687c-2.341,0 -3.383,1.042 -3.383,2.346c-0,1.3 0.521,2.863 2.862,2.863l22.396,-0c1.304,-0 2.604,-1.042 2.604,-2.863c0,-1.825 -1.562,-2.604 -2.862,-2.604c-1.304,-0 -4.167,-0.783 -4.167,-4.95l0,-7.55l9.634,-0c1.304,-0 2.083,-1.042 2.083,-2.604c-0,-1.563 -0.521,-2.605 -2.083,-2.605l-9.634,0" style="fill-rule:nonzero;"/></g><g><path d="M1183.24,288.596c-0,-0 -0.259,1.042 -0.259,1.825c0,1.041 1.042,2.083 2.084,2.083c0.779,0 1.3,-0.783 1.562,-1.042c0.258,-0.783 3.383,-11.458 4.946,-14.062c0.521,-1.042 1.042,-1.304 1.304,-1.304c0.521,-0 0.779,1.041 0.779,1.825l0,37.237c0,3.125 -2.604,4.95 -5.208,4.95c-1.042,0 -2.342,0.521 -2.342,2.084c0,1.562 1.3,2.083 3.384,2.083l21.875,-0c2.083,-0 2.083,-2.083 2.083,-2.083c-0,-0 -0,-2.084 -2.083,-2.084c-1.821,0 -4.167,-2.346 -4.167,-4.687l-0,-54.167c-0,-2.083 -0.779,-3.125 -2.604,-3.125c-1.821,0 -3.384,0.521 -4.946,0.521c-2.604,-0 -3.125,-0 -5.208,-0.521c-1.042,0 -2.346,1.563 -3.125,2.604l-8.075,27.863" style="fill-rule:nonzero;"/></g><g><path d="M1431.77,303.442c-0,-1.825 -0.779,-2.084 -1.563,-2.084c-1.041,0 -1.562,0.78 -1.821,1.563c-1.304,3.646 -4.166,8.333 -8.075,8.333c-0.52,0 -1.041,0 -1.562,-0.262l-3.904,-1.3c-2.604,-1.042 -8.854,-3.125 -14.063,-3.125c-1.825,-0 -3.387,0.258 -4.95,0.779c2.867,-4.946 16.409,-11.458 19.271,-12.238c9.375,-1.304 17.188,-6.771 17.188,-16.929c-0,-6.25 -2.605,-10.416 -5.988,-13.541c-6.771,-5.467 -16.667,-6.25 -19.533,-6.25c-9.375,-0 -16.925,0.52 -23.696,8.333c-1.825,2.083 -2.604,4.167 -2.604,6.25c-0,1.825 0.779,3.908 1.562,6.25c1.563,3.125 4.946,5.471 8.592,5.471c6.512,-0 7.292,-6.25 7.292,-9.117c-0,-5.988 -6.509,-6.508 -6.509,-9.113c0,-1.824 2.604,-4.949 10.417,-4.949c12.237,-0 16.404,10.158 16.404,13.283c0,4.687 -1.562,9.112 -4.167,12.758c-4.687,5.992 -13.279,8.075 -19.791,12.242c-7.292,4.425 -12.238,11.979 -14.584,20.312c0,1.821 0.784,3.905 2.346,4.688c0.259,0.258 0.779,0.258 1.042,0.258c2.862,0 4.425,-8.071 12.237,-8.071c5.209,0 7.034,7.03 18.75,7.03c5.471,-0 15.625,-0.521 17.709,-20.571" style="fill-rule:nonzero;"/></g><g><path d="M1570.11,300.838l-0,-27.867c-0,-1.3 -0.259,-2.342 -1.563,-2.342c-1.042,0 -1.821,0.259 -2.604,1.3l-7.813,15.104c-0.52,0.521 -1.3,1.304 -1.3,3.125l0,10.679l-16.929,0c10.679,-8.854 27.346,-38.283 27.604,-39.845c0,-0.259 0.263,-0.521 0.263,-0.779c-0,-1.042 -1.042,-1.825 -1.825,-1.825c-1.3,-0 -6.771,0.52 -9.113,0.52c-2.345,0 -3.908,-0.52 -4.95,-0.52c-1.3,-0 -3.125,0.52 -3.125,2.604c0,16.666 -13.541,35.679 -16.925,40.366c-0.52,0.521 -1.041,1.3 -1.041,2.084c-0,1.3 1.041,2.604 2.604,2.604l23.437,-0l0,8.071c0,3.646 -2.083,4.687 -4.166,4.687c-2.346,0 -3.388,1.042 -3.388,2.346c0,1.3 0.521,2.863 2.867,2.863l22.396,-0c1.3,-0 2.604,-1.042 2.604,-2.863c-0,-1.825 -1.563,-2.604 -2.867,-2.604c-1.3,-0 -4.166,-0.783 -4.166,-4.95l-0,-7.55l9.637,-0c1.3,-0 2.083,-1.042 2.083,-2.604c0,-1.563 -0.52,-2.605 -2.083,-2.605l-9.637,0" style="fill-rule:nonzero;"/></g><g><path d="M1691.61,288.596c-0,-0 -0.263,1.042 -0.263,1.825c0,1.041 1.042,2.083 2.083,2.083c0.784,0 1.305,-0.783 1.563,-1.042c0.262,-0.783 3.387,-11.458 4.95,-14.062c0.521,-1.042 1.042,-1.304 1.3,-1.304c0.521,-0 0.783,1.041 0.783,1.825l0,37.237c0,3.125 -2.604,4.95 -5.208,4.95c-1.042,0 -2.346,0.521 -2.346,2.084c0,1.562 1.304,2.083 3.388,2.083l21.875,-0c2.083,-0 2.083,-2.083 2.083,-2.083c-0,-0 -0,-2.084 -2.083,-2.084c-1.825,0 -4.167,-2.346 -4.167,-4.687l-0,-54.167c-0,-2.083 -0.783,-3.125 -2.604,-3.125c-1.825,0 -3.388,0.521 -4.95,0.521c-2.604,-0 -3.125,-0 -5.209,-0.521c-1.041,0 -2.341,1.563 -3.125,2.604l-8.07,27.863" style="fill-rule:nonzero;"/></g><g><path d="M1908.31,270.475c0,-1.821 -0.783,-2.083 -1.562,-2.083c-1.042,-0 -1.563,0.783 -1.825,1.562c-1.3,3.646 -4.167,8.334 -8.071,8.334c-0.521,-0 -1.042,-0 -1.563,-0.259l-3.908,-1.304c-2.604,-1.042 -8.854,-3.125 -14.062,-3.125c-1.821,0 -3.384,0.262 -4.946,0.783c2.862,-4.95 16.404,-11.458 19.271,-12.241c9.375,-1.3 17.187,-6.771 17.187,-16.925c0,-6.25 -2.604,-10.417 -5.992,-13.542c-6.77,-5.471 -16.666,-6.25 -19.529,-6.25c-9.375,-0 -16.929,0.521 -23.7,8.333c-1.821,2.084 -2.604,4.167 -2.604,6.25c0,1.821 0.783,3.904 1.563,6.25c1.562,3.125 4.95,5.467 8.595,5.467c6.509,-0 7.292,-6.25 7.292,-9.113c0,-5.991 -6.512,-6.512 -6.512,-9.116c-0,-1.821 2.604,-4.946 10.416,-4.946c12.242,-0 16.409,10.154 16.409,13.279c-0,4.688 -1.563,9.117 -4.167,12.763c-4.688,5.987 -13.283,8.07 -19.792,12.237c-7.291,4.429 -12.241,11.979 -14.583,20.313c-0,1.825 0.779,3.908 2.342,4.687c0.262,0.263 0.783,0.263 1.041,0.263c2.867,-0 4.429,-8.075 12.242,-8.075c5.208,-0 7.029,7.033 18.75,7.033c5.467,-0 15.625,-0.521 17.708,-20.575" style="fill-rule:nonzero;"/></g><g><path d="M2072.46,300.838l0,-27.867c0,-1.3 -0.262,-2.342 -1.562,-2.342c-1.042,0 -1.825,0.259 -2.604,1.3l-7.813,15.104c-0.521,0.521 -1.304,1.304 -1.304,3.125l0,10.679l-16.925,0c10.675,-8.854 27.342,-38.283 27.604,-39.845c0,-0.259 0.259,-0.521 0.259,-0.779c-0,-1.042 -1.042,-1.825 -1.821,-1.825c-1.304,-0 -6.771,0.52 -9.117,0.52c-2.342,0 -3.904,-0.52 -4.946,-0.52c-1.304,-0 -3.125,0.52 -3.125,2.604c0,16.666 -13.541,35.679 -16.929,40.366c-0.521,0.521 -1.042,1.3 -1.042,2.084c0,1.3 1.042,2.604 2.605,2.604l23.437,-0l0,8.071c0,3.646 -2.083,4.687 -4.167,4.687c-2.341,0 -3.383,1.042 -3.383,2.346c0,1.3 0.521,2.863 2.863,2.863l22.395,-0c1.305,-0 2.605,-1.042 2.605,-2.863c-0,-1.825 -1.563,-2.604 -2.863,-2.604c-1.304,-0 -4.167,-0.783 -4.167,-4.95l0,-7.55l9.634,-0c1.304,-0 2.083,-1.042 2.083,-2.604c0,-1.563 -0.521,-2.605 -2.083,-2.605l-9.634,0" style="fill-rule:nonzero;"/></g><g><path d="M2233.5,300.838l0,-27.867c0,-1.3 -0.262,-2.342 -1.562,-2.342c-1.042,0 -1.825,0.259 -2.605,1.3l-7.812,15.104c-0.521,0.521 -1.304,1.304 -1.304,3.125l-0,10.679l-16.925,0c10.675,-8.854 27.341,-38.283 27.604,-39.845c-0,-0.259 0.258,-0.521 0.258,-0.779c0,-1.042 -1.041,-1.825 -1.821,-1.825c-1.304,-0 -6.77,0.52 -9.116,0.52c-2.342,0 -3.904,-0.52 -4.946,-0.52c-1.304,-0 -3.125,0.52 -3.125,2.604c-0,16.666 -13.542,35.679 -16.929,40.366c-0.521,0.521 -1.042,1.3 -1.042,2.084c0,1.3 1.042,2.604 2.604,2.604l23.438,-0l-0,8.071c-0,3.646 -2.084,4.687 -4.167,4.687c-2.342,0 -3.383,1.042 -3.383,2.346c-0,1.3 0.521,2.863 2.862,2.863l22.396,-0c1.304,-0 2.604,-1.042 2.604,-2.863c0,-1.825 -1.562,-2.604 -2.862,-2.604c-1.304,-0 -4.167,-0.783 -4.167,-4.95l0,-7.55l9.633,-0c1.305,-0 2.084,-1.042 2.084,-2.604c-0,-1.563 -0.521,-2.605 -2.084,-2.605l-9.633,0" style="fill-rule:nonzero;"/></g><g><path d="M2386.8,288.596c0,-0 -0.258,1.042 -0.258,1.825c-0,1.041 1.042,2.083 2.083,2.083c0.779,0 1.3,-0.783 1.563,-1.042c0.258,-0.783 3.383,-11.458 4.946,-14.062c0.52,-1.042 1.041,-1.304 1.304,-1.304c0.521,-0 0.779,1.041 0.779,1.825l-0,37.237c-0,3.125 -2.604,4.95 -5.208,4.95c-1.042,0 -2.342,0.521 -2.342,2.084c-0,1.562 1.3,2.083 3.383,2.083l21.875,-0c2.084,-0 2.084,-2.083 2.084,-2.083c-0,-0 -0,-2.084 -2.084,-2.084c-1.821,0 -4.166,-2.346 -4.166,-4.687l-0,-54.167c-0,-2.083 -0.78,-3.125 -2.605,-3.125c-1.82,0 -3.383,0.521 -4.945,0.521c-2.605,-0 -3.125,-0 -5.209,-0.521c-1.041,0 -2.346,1.563 -3.125,2.604l-8.075,27.863" style="fill-rule:nonzero;"/></g><g><path d="M2725.61,303.442c0,-1.825 -0.783,-2.084 -1.562,-2.084c-1.042,0 -1.563,0.78 -1.825,1.563c-1.3,3.646 -4.167,8.333 -8.071,8.333c-0.521,0 -1.042,0 -1.562,-0.262l-3.909,-1.3c-2.604,-1.042 -8.854,-3.125 -14.062,-3.125c-1.821,-0 -3.384,0.258 -4.946,0.779c2.862,-4.946 16.404,-11.458 19.271,-12.238c9.375,-1.304 17.187,-6.771 17.187,-16.929c0,-6.25 -2.604,-10.416 -5.991,-13.541c-6.771,-5.467 -16.667,-6.25 -19.53,-6.25c-9.375,-0 -16.929,0.52 -23.7,8.333c-1.82,2.083 -2.604,4.167 -2.604,6.25c0,1.825 0.784,3.908 1.563,6.25c1.562,3.125 4.95,5.471 8.596,5.471c6.508,-0 7.291,-6.25 7.291,-9.117c0,-5.988 -6.512,-6.508 -6.512,-9.113c-0,-1.824 2.604,-4.949 10.416,-4.949c12.242,-0 16.409,10.158 16.409,13.283c-0,4.687 -1.563,9.112 -4.167,12.758c-4.687,5.992 -13.283,8.075 -19.792,12.242c-7.291,4.425 -12.241,11.979 -14.583,20.312c0,1.821 0.779,3.905 2.342,4.688c0.262,0.258 0.783,0.258 1.041,0.258c2.867,0 4.43,-8.071 12.242,-8.071c5.208,0 7.029,7.03 18.75,7.03c5.467,-0 15.625,-0.521 17.708,-20.571" style="fill-rule:nonzero;"/></g><g><path d="M2863.95,300.779l0,-27.862c0,-1.304 -0.262,-2.346 -1.562,-2.346c-1.042,-0 -1.825,0.262 -2.604,1.304l-7.813,15.104c-0.521,0.521 -1.304,1.3 -1.304,3.125l-0,10.675l-16.925,0c10.675,-8.854 27.342,-38.279 27.604,-39.841c0,-0.263 0.258,-0.521 0.258,-0.784c0,-1.041 -1.041,-1.821 -1.82,-1.821c-1.305,0 -6.771,0.521 -9.117,0.521c-2.342,0 -3.904,-0.521 -4.946,-0.521c-1.304,0 -3.125,0.521 -3.125,2.605c0,16.666 -13.542,35.675 -16.929,40.362c-0.521,0.521 -1.042,1.304 -1.042,2.083c0,1.305 1.042,2.605 2.604,2.605l23.438,-0l-0,8.075c-0,3.645 -2.083,4.687 -4.167,4.687c-2.341,0 -3.383,1.042 -3.383,2.342c-0,1.304 0.521,2.866 2.862,2.866l22.396,0c1.304,0 2.604,-1.041 2.604,-2.866c0,-1.821 -1.562,-2.604 -2.862,-2.604c-1.304,-0 -4.167,-0.78 -4.167,-4.946l0,-7.554l9.634,-0c1.304,-0 2.083,-1.042 2.083,-2.605c-0,-1.562 -0.521,-2.604 -2.083,-2.604l-9.634,0" style="fill-rule:nonzero;"/></g><g><path d="M2985.45,256.046c0,-0 -0.258,1.041 -0.258,1.821c-0,1.041 1.041,2.083 2.083,2.083c0.779,0 1.3,-0.779 1.563,-1.042c0.258,-0.779 3.383,-11.458 4.945,-14.062c0.521,-1.042 1.042,-1.3 1.305,-1.3c0.52,-0 0.779,1.041 0.779,1.821l-0,37.241c-0,3.125 -2.604,4.946 -5.209,4.946c-1.041,0 -2.341,0.521 -2.341,2.083c-0,1.563 1.3,2.084 3.383,2.084l21.875,-0c2.083,-0 2.083,-2.084 2.083,-2.084c0,0 0,-2.083 -2.083,-2.083c-1.821,0 -4.167,-2.342 -4.167,-4.687l0,-54.167c0,-2.083 -0.779,-3.125 -2.604,-3.125c-1.821,-0 -3.383,0.521 -4.946,0.521c-2.604,-0 -3.125,-0 -5.208,-0.521c-1.042,-0 -2.346,1.562 -3.125,2.604l-8.075,27.867" style="fill-rule:nonzero;"/></g><g><path d="M3202.29,237.783c-0,-1.82 -0.784,-2.083 -1.563,-2.083c-1.042,0 -1.562,0.783 -1.825,1.563c-1.3,3.645 -4.167,8.333 -8.071,8.333c-0.521,-0 -1.041,-0 -1.562,-0.258l-3.909,-1.305c-2.604,-1.041 -8.854,-3.125 -14.062,-3.125c-1.821,0 -3.383,0.263 -4.946,0.784c2.863,-4.95 16.404,-11.459 19.271,-12.242c9.375,-1.3 17.187,-6.771 17.187,-16.925c0,-6.25 -2.604,-10.417 -5.991,-13.542c-6.771,-5.47 -16.667,-6.25 -19.529,-6.25c-9.375,0 -16.93,0.521 -23.7,8.334c-1.821,2.083 -2.605,4.166 -2.605,6.25c0,1.821 0.784,3.904 1.563,6.25c1.562,3.125 4.95,5.466 8.596,5.466c6.508,0 7.291,-6.25 7.291,-9.112c0,-5.992 -6.512,-6.513 -6.512,-9.117c-0,-1.821 2.604,-4.946 10.417,-4.946c12.241,0 16.408,10.155 16.408,13.28c-0,4.687 -1.563,9.116 -4.167,12.762c-4.687,5.988 -13.283,8.071 -19.791,12.238c-7.292,4.429 -12.242,11.979 -14.584,20.312c0,1.825 0.779,3.908 2.342,4.688c0.262,0.262 0.783,0.262 1.042,0.262c2.866,0 4.429,-8.075 12.241,-8.075c5.209,-0 7.029,7.033 18.75,7.033c5.467,0 15.625,-0.52 17.709,-20.575" style="fill-rule:nonzero;"/></g><g><path d="M3392.13,203.904l0,-27.862c0,-1.304 -0.258,-2.346 -1.562,-2.346c-1.042,-0 -1.821,0.262 -2.604,1.304l-7.813,15.104c-0.521,0.521 -1.3,1.3 -1.3,3.125l0,10.675l-16.929,0c10.679,-8.854 27.346,-38.279 27.604,-39.841c0,-0.263 0.263,-0.521 0.263,-0.784c-0,-1.041 -1.042,-1.821 -1.825,-1.821c-1.3,0 -6.771,0.521 -9.113,0.521c-2.346,0 -3.908,-0.521 -4.95,-0.521c-1.3,0 -3.125,0.521 -3.125,2.605c0,16.666 -13.542,35.675 -16.925,40.362c-0.521,0.521 -1.042,1.304 -1.042,2.083c0,1.305 1.042,2.605 2.605,2.605l23.437,-0l0,8.075c0,3.645 -2.083,4.687 -4.167,4.687c-2.345,0 -3.387,1.042 -3.387,2.342c-0,1.304 0.521,2.866 2.867,2.866l22.395,0c1.3,0 2.605,-1.041 2.605,-2.866c-0,-1.821 -1.563,-2.604 -2.867,-2.604c-1.3,-0 -4.167,-0.78 -4.167,-4.946l0,-7.554l9.638,-0c1.3,-0 2.083,-1.042 2.083,-2.605c0,-1.562 -0.521,-2.604 -2.083,-2.604l-9.638,0" style="fill-rule:nonzero;"/></g><g><path d="M3578.88,203.904l0,-27.862c0,-1.304 -0.262,-2.346 -1.562,-2.346c-1.042,-0 -1.825,0.262 -2.605,1.304l-7.812,15.104c-0.521,0.521 -1.304,1.3 -1.304,3.125l-0,10.675l-16.925,0c10.675,-8.854 27.341,-38.279 27.604,-39.841c-0,-0.263 0.258,-0.521 0.258,-0.784c0,-1.041 -1.041,-1.821 -1.821,-1.821c-1.304,0 -6.77,0.521 -9.116,0.521c-2.342,0 -3.904,-0.521 -4.946,-0.521c-1.304,0 -3.125,0.521 -3.125,2.605c-0,16.666 -13.542,35.675 -16.929,40.362c-0.521,0.521 -1.042,1.304 -1.042,2.083c0,1.305 1.042,2.605 2.604,2.605l23.438,-0l-0,8.075c-0,3.645 -2.084,4.687 -4.167,4.687c-2.342,0 -3.383,1.042 -3.383,2.342c-0,1.304 0.521,2.866 2.862,2.866l22.396,0c1.304,0 2.604,-1.041 2.604,-2.866c0,-1.821 -1.562,-2.604 -2.862,-2.604c-1.304,-0 -4.167,-0.78 -4.167,-4.946l0,-7.554l9.633,-0c1.305,-0 2.084,-1.042 2.084,-2.605c-0,-1.562 -0.521,-2.604 -2.084,-2.604l-9.633,0" style="fill-rule:nonzero;"/></g><g><path d="M3757.9,159.171c0,-0 -0.258,1.042 -0.258,1.821c-0,1.041 1.041,2.083 2.083,2.083c0.779,0 1.3,-0.779 1.563,-1.042c0.258,-0.779 3.383,-11.458 4.945,-14.062c0.521,-1.042 1.042,-1.3 1.305,-1.3c0.52,-0 0.779,1.042 0.779,1.821l-0,37.241c-0,3.125 -2.604,4.946 -5.209,4.946c-1.041,0 -2.341,0.521 -2.341,2.084c-0,1.562 1.3,2.083 3.383,2.083l21.875,-0c2.083,-0 2.083,-2.083 2.083,-2.083c0,-0 0,-2.084 -2.083,-2.084c-1.821,0 -4.167,-2.341 -4.167,-4.687l0,-54.167c0,-2.083 -0.779,-3.125 -2.604,-3.125c-1.821,0 -3.383,0.521 -4.946,0.521c-2.604,-0 -3.125,-0 -5.208,-0.521c-1.042,0 -2.346,1.563 -3.125,2.604l-8.075,27.867" style="fill-rule:nonzero;"/></g><g><path d="M4006.44,140.908c-0,-1.82 -0.779,-2.083 -1.563,-2.083c-1.041,0 -1.562,0.783 -1.821,1.563c-1.304,3.645 -4.166,8.333 -8.075,8.333c-0.52,-0 -1.041,-0 -1.562,-0.258l-3.904,-1.305c-2.604,-1.041 -8.854,-3.125 -14.063,-3.125c-1.825,0 -3.387,0.263 -4.95,0.784c2.867,-4.95 16.409,-11.459 19.271,-12.242c9.375,-1.3 17.188,-6.771 17.188,-16.925c-0,-6.25 -2.605,-10.417 -5.988,-13.542c-6.771,-5.47 -16.667,-6.25 -19.533,-6.25c-9.375,0 -16.925,0.521 -23.696,8.334c-1.825,2.083 -2.604,4.166 -2.604,6.25c-0,1.821 0.779,3.904 1.562,6.25c1.563,3.125 4.946,5.466 8.592,5.466c6.512,0 7.292,-6.25 7.292,-9.112c-0,-5.992 -6.509,-6.513 -6.509,-9.117c0,-1.821 2.604,-4.946 10.417,-4.946c12.237,0 16.404,10.155 16.404,13.28c0,4.687 -1.562,9.116 -4.167,12.762c-4.687,5.988 -13.279,8.071 -19.791,12.238c-7.292,4.429 -12.238,11.979 -14.584,20.312c0,1.825 0.784,3.908 2.346,4.688c0.259,0.262 0.779,0.262 1.042,0.262c2.862,0 4.425,-8.075 12.237,-8.075c5.209,0 7.034,7.033 18.75,7.033c5.471,0 15.625,-0.52 17.709,-20.575" style="fill-rule:nonzero;"/></g><g><path d="M4144.78,74.737l0,-27.862c0,-1.304 -0.258,-2.346 -1.562,-2.346c-1.042,0 -1.821,0.263 -2.605,1.304l-7.812,15.105c-0.521,0.52 -1.3,1.299 -1.3,3.124l-0,10.675l-16.929,0c10.679,-8.854 27.346,-38.279 27.604,-39.841c-0,-0.263 0.262,-0.521 0.262,-0.784c0,-1.041 -1.041,-1.82 -1.825,-1.82c-1.3,-0 -6.77,0.521 -9.112,0.521c-2.346,-0 -3.908,-0.521 -4.95,-0.521c-1.3,-0 -3.125,0.521 -3.125,2.604c-0,16.667 -13.542,35.675 -16.925,40.362c-0.521,0.521 -1.042,1.305 -1.042,2.084c0,1.304 1.042,2.604 2.604,2.604l23.438,-0l-0,8.075c-0,3.646 -2.083,4.687 -4.167,4.687c-2.346,0 -3.387,1.042 -3.387,2.342c-0,1.304 0.521,2.867 2.866,2.867l22.396,-0c1.3,-0 2.604,-1.042 2.604,-2.867c0,-1.821 -1.562,-2.604 -2.866,-2.604c-1.3,-0 -4.167,-0.779 -4.167,-4.946l0,-7.554l9.638,-0c1.3,-0 2.083,-1.042 2.083,-2.604c-0,-1.563 -0.521,-2.605 -2.083,-2.605l-9.638,0" style="fill-rule:nonzero;"/></g><g><path d="M4295.07,42.446l-0,-27.863c-0,-1.304 -0.259,-2.346 -1.563,-2.346c-1.041,0 -1.821,0.263 -2.604,1.305l-7.812,15.104c-0.521,0.521 -1.3,1.3 -1.3,3.125l-0,10.675l-16.93,-0c10.68,-8.854 27.346,-38.279 27.605,-39.842c-0,-0.262 0.262,-0.521 0.262,-0.783c0,-1.042 -1.042,-1.821 -1.825,-1.821c-1.3,0 -6.771,0.521 -9.112,0.521c-2.346,-0 -3.909,-0.521 -4.95,-0.521c-1.3,0 -3.125,0.521 -3.125,2.604c-0,16.667 -13.542,35.675 -16.925,40.363c-0.521,0.52 -1.042,1.304 -1.042,2.083c-0,1.304 1.042,2.604 2.604,2.604l23.438,0l-0,8.075c-0,3.646 -2.084,4.688 -4.167,4.688c-2.346,-0 -3.388,1.041 -3.388,2.341c0,1.304 0.521,2.867 2.867,2.867l22.396,0c1.3,0 2.604,-1.042 2.604,-2.867c0,-1.821 -1.562,-2.604 -2.867,-2.604c-1.3,0 -4.166,-0.779 -4.166,-4.946l-0,-7.554l9.637,0c1.3,0 2.084,-1.042 2.084,-2.604c-0,-1.563 -0.521,-2.604 -2.084,-2.604l-9.637,-0" style="fill-rule:nonzero;"/></g><g><path d="M4445.32,74.737l-0,-27.862c-0,-1.304 -0.263,-2.346 -1.563,-2.346c-1.041,0 -1.825,0.263 -2.604,1.304l-7.812,15.105c-0.521,0.52 -1.305,1.299 -1.305,3.124l0,10.675l-16.925,0c10.675,-8.854 27.342,-38.279 27.605,-39.841c-0,-0.263 0.258,-0.521 0.258,-0.784c-0,-1.041 -1.042,-1.82 -1.821,-1.82c-1.304,-0 -6.771,0.521 -9.117,0.521c-2.341,-0 -3.904,-0.521 -4.945,-0.521c-1.305,-0 -3.125,0.521 -3.125,2.604c-0,16.667 -13.542,35.675 -16.93,40.362c-0.52,0.521 -1.041,1.305 -1.041,2.084c-0,1.304 1.041,2.604 2.604,2.604l23.437,-0l0,8.075c0,3.646 -2.083,4.687 -4.166,4.687c-2.342,0 -3.384,1.042 -3.384,2.342c0,1.304 0.521,2.867 2.863,2.867l22.396,-0c1.304,-0 2.604,-1.042 2.604,-2.867c-0,-1.821 -1.563,-2.604 -2.863,-2.604c-1.304,-0 -4.166,-0.779 -4.166,-4.946l-0,-7.554l9.633,-0c1.304,-0 2.083,-1.042 2.083,-2.604c0,-1.563 -0.52,-2.605 -2.083,-2.605l-9.633,0" style="fill-rule:nonzero;"/></g><g><path d="M4607.57,140.908c-0,-1.82 -0.779,-2.083 -1.563,-2.083c-1.041,0 -1.562,0.783 -1.821,1.563c-1.304,3.645 -4.166,8.333 -8.075,8.333c-0.52,-0 -1.041,-0 -1.562,-0.258l-3.904,-1.305c-2.604,-1.041 -8.854,-3.125 -14.063,-3.125c-1.825,0 -3.387,0.263 -4.95,0.784c2.867,-4.95 16.409,-11.459 19.271,-12.242c9.375,-1.3 17.188,-6.771 17.188,-16.925c-0,-6.25 -2.605,-10.417 -5.988,-13.542c-6.771,-5.47 -16.667,-6.25 -19.533,-6.25c-9.375,0 -16.925,0.521 -23.696,8.334c-1.825,2.083 -2.604,4.166 -2.604,6.25c-0,1.821 0.779,3.904 1.562,6.25c1.563,3.125 4.946,5.466 8.592,5.466c6.512,0 7.292,-6.25 7.292,-9.112c-0,-5.992 -6.509,-6.513 -6.509,-9.117c0,-1.821 2.604,-4.946 10.417,-4.946c12.237,0 16.404,10.155 16.404,13.28c0,4.687 -1.562,9.116 -4.167,12.762c-4.687,5.988 -13.279,8.071 -19.791,12.238c-7.292,4.429 -12.238,11.979 -14.584,20.312c0,1.825 0.784,3.908 2.346,4.688c0.259,0.262 0.779,0.262 1.042,0.262c2.862,0 4.425,-8.075 12.237,-8.075c5.209,0 7.034,7.033 18.75,7.033c5.471,0 15.625,-0.52 17.709,-20.575" style="fill-rule:nonzero;"/></g><g><path d="M4865.69,159.171c-0,-0 -0.259,1.042 -0.259,1.821c0,1.041 1.042,2.083 2.084,2.083c0.779,0 1.3,-0.779 1.562,-1.042c0.259,-0.779 3.384,-11.458 4.946,-14.062c0.521,-1.042 1.042,-1.3 1.304,-1.3c0.521,-0 0.779,1.042 0.779,1.821l0,37.241c0,3.125 -2.604,4.946 -5.208,4.946c-1.042,0 -2.342,0.521 -2.342,2.084c0,1.562 1.3,2.083 3.384,2.083l21.875,-0c2.083,-0 2.083,-2.083 2.083,-2.083c0,-0 0,-2.084 -2.083,-2.084c-1.821,0 -4.167,-2.341 -4.167,-4.687l0,-54.167c0,-2.083 -0.779,-3.125 -2.604,-3.125c-1.821,0 -3.383,0.521 -4.946,0.521c-2.604,-0 -3.125,-0 -5.208,-0.521c-1.042,0 -2.346,1.563 -3.125,2.604l-8.075,27.867" style="fill-rule:nonzero;"/></g><g><path d="M5044.78,203.904l0,-27.862c0,-1.304 -0.258,-2.346 -1.562,-2.346c-1.042,-0 -1.821,0.262 -2.605,1.304l-7.812,15.104c-0.521,0.521 -1.3,1.3 -1.3,3.125l-0,10.675l-16.929,0c10.679,-8.854 27.346,-38.279 27.604,-39.841c-0,-0.263 0.262,-0.521 0.262,-0.784c0,-1.041 -1.041,-1.821 -1.825,-1.821c-1.3,0 -6.77,0.521 -9.112,0.521c-2.346,0 -3.908,-0.521 -4.95,-0.521c-1.3,0 -3.125,0.521 -3.125,2.605c-0,16.666 -13.542,35.675 -16.925,40.362c-0.521,0.521 -1.042,1.304 -1.042,2.083c0,1.305 1.042,2.605 2.604,2.605l23.438,-0l-0,8.075c-0,3.645 -2.083,4.687 -4.167,4.687c-2.346,0 -3.387,1.042 -3.387,2.342c-0,1.304 0.521,2.866 2.866,2.866l22.396,0c1.3,0 2.604,-1.041 2.604,-2.866c0,-1.821 -1.562,-2.604 -2.866,-2.604c-1.3,-0 -4.167,-0.78 -4.167,-4.946l0,-7.554l9.638,-0c1.3,-0 2.083,-1.042 2.083,-2.605c-0,-1.562 -0.521,-2.604 -2.083,-2.604l-9.638,0" style="fill-rule:nonzero;"/></g><g><path d="M5246.57,203.904l-0,-27.862c-0,-1.304 -0.263,-2.346 -1.563,-2.346c-1.041,-0 -1.825,0.262 -2.604,1.304l-7.812,15.104c-0.521,0.521 -1.305,1.3 -1.305,3.125l0,10.675l-16.925,0c10.675,-8.854 27.342,-38.279 27.605,-39.841c-0,-0.263 0.258,-0.521 0.258,-0.784c-0,-1.041 -1.042,-1.821 -1.821,-1.821c-1.304,0 -6.771,0.521 -9.117,0.521c-2.341,0 -3.904,-0.521 -4.945,-0.521c-1.305,0 -3.125,0.521 -3.125,2.605c-0,16.666 -13.542,35.675 -16.93,40.362c-0.52,0.521 -1.041,1.304 -1.041,2.083c-0,1.305 1.041,2.605 2.604,2.605l23.437,-0l0,8.075c0,3.645 -2.083,4.687 -4.166,4.687c-2.342,0 -3.384,1.042 -3.384,2.342c0,1.304 0.521,2.866 2.863,2.866l22.396,0c1.304,0 2.604,-1.041 2.604,-2.866c-0,-1.821 -1.563,-2.604 -2.863,-2.604c-1.304,-0 -4.166,-0.78 -4.166,-4.946l-0,-7.554l9.633,-0c1.304,-0 2.083,-1.042 2.083,-2.605c0,-1.562 -0.52,-2.604 -2.083,-2.604l-9.633,0" style="fill-rule:nonzero;"/></g><g><path d="M5460.32,237.783c-0,-1.82 -0.779,-2.083 -1.563,-2.083c-1.041,0 -1.562,0.783 -1.821,1.563c-1.304,3.645 -4.166,8.333 -8.075,8.333c-0.52,-0 -1.041,-0 -1.562,-0.258l-3.904,-1.305c-2.604,-1.041 -8.854,-3.125 -14.063,-3.125c-1.825,0 -3.387,0.263 -4.95,0.784c2.867,-4.95 16.409,-11.459 19.271,-12.242c9.375,-1.3 17.188,-6.771 17.188,-16.925c-0,-6.25 -2.605,-10.417 -5.988,-13.542c-6.771,-5.47 -16.667,-6.25 -19.533,-6.25c-9.375,0 -16.925,0.521 -23.696,8.334c-1.821,2.083 -2.604,4.166 -2.604,6.25c-0,1.821 0.783,3.904 1.562,6.25c1.563,3.125 4.95,5.466 8.596,5.466c6.508,0 7.288,-6.25 7.288,-9.112c-0,-5.992 -6.509,-6.513 -6.509,-9.117c0,-1.821 2.604,-4.946 10.417,-4.946c12.237,0 16.404,10.155 16.404,13.28c0,4.687 -1.562,9.116 -4.167,12.762c-4.687,5.988 -13.279,8.071 -19.787,12.238c-7.292,4.429 -12.242,11.979 -14.583,20.312c-0,1.825 0.779,3.908 2.341,4.688c0.263,0.262 0.784,0.262 1.042,0.262c2.867,0 4.429,-8.075 12.237,-8.075c5.209,-0 7.034,7.033 18.75,7.033c5.471,0 15.625,-0.52 17.709,-20.575" style="fill-rule:nonzero;"/></g><g><path d="M5569.86,256.046c0,-0 -0.258,1.041 -0.258,1.821c0,1.041 1.042,2.083 2.083,2.083c0.78,0 1.3,-0.779 1.563,-1.042c0.258,-0.779 3.383,-11.458 4.946,-14.062c0.521,-1.042 1.041,-1.3 1.304,-1.3c0.521,-0 0.779,1.041 0.779,1.821l0,37.241c0,3.125 -2.604,4.946 -5.208,4.946c-1.042,0 -2.342,0.521 -2.342,2.083c0,1.563 1.3,2.084 3.383,2.084l21.875,-0c2.084,-0 2.084,-2.084 2.084,-2.084c-0,0 -0,-2.083 -2.084,-2.083c-1.82,0 -4.166,-2.342 -4.166,-4.687l-0,-54.167c-0,-2.083 -0.779,-3.125 -2.604,-3.125c-1.821,-0 -3.384,0.521 -4.946,0.521c-2.604,-0 -3.125,-0 -5.209,-0.521c-1.041,-0 -2.345,1.562 -3.125,2.604l-8.075,27.867" style="fill-rule:nonzero;"/></g><g><path d="M5748.94,300.779l-0,-27.862c-0,-1.304 -0.259,-2.346 -1.563,-2.346c-1.041,-0 -1.821,0.262 -2.604,1.304l-7.812,15.104c-0.521,0.521 -1.3,1.3 -1.3,3.125l-0,10.675l-16.93,0c10.68,-8.854 27.346,-38.279 27.605,-39.841c-0,-0.263 0.262,-0.521 0.262,-0.784c0,-1.041 -1.042,-1.821 -1.825,-1.821c-1.3,0 -6.771,0.521 -9.112,0.521c-2.346,0 -3.909,-0.521 -4.95,-0.521c-1.3,0 -3.125,0.521 -3.125,2.605c-0,16.666 -13.542,35.675 -16.925,40.362c-0.521,0.521 -1.042,1.304 -1.042,2.083c-0,1.305 1.042,2.605 2.604,2.605l23.438,-0l-0,8.075c-0,3.645 -2.084,4.687 -4.167,4.687c-2.346,0 -3.388,1.042 -3.388,2.342c0,1.304 0.521,2.866 2.867,2.866l22.396,0c1.3,0 2.604,-1.041 2.604,-2.866c0,-1.821 -1.562,-2.604 -2.867,-2.604c-1.3,-0 -4.166,-0.78 -4.166,-4.946l-0,-7.554l9.637,-0c1.3,-0 2.084,-1.042 2.084,-2.605c-0,-1.562 -0.521,-2.604 -2.084,-2.604l-9.637,0" style="fill-rule:nonzero;"/></g><g><path d="M5942.86,303.442c0,-1.825 -0.783,-2.084 -1.562,-2.084c-1.042,0 -1.563,0.78 -1.825,1.563c-1.3,3.646 -4.167,8.333 -8.071,8.333c-0.521,0 -1.042,0 -1.562,-0.262l-3.909,-1.3c-2.604,-1.042 -8.854,-3.125 -14.062,-3.125c-1.821,-0 -3.384,0.258 -4.946,0.779c2.862,-4.946 16.404,-11.458 19.271,-12.238c9.375,-1.304 17.187,-6.771 17.187,-16.929c0,-6.25 -2.604,-10.416 -5.991,-13.541c-6.771,-5.467 -16.667,-6.25 -19.53,-6.25c-9.375,-0 -16.929,0.52 -23.7,8.333c-1.82,2.083 -2.604,4.167 -2.604,6.25c0,1.825 0.784,3.908 1.563,6.25c1.562,3.125 4.95,5.471 8.596,5.471c6.508,-0 7.291,-6.25 7.291,-9.117c0,-5.988 -6.512,-6.508 -6.512,-9.113c-0,-1.824 2.604,-4.949 10.416,-4.949c12.242,-0 16.409,10.158 16.409,13.283c-0,4.687 -1.563,9.112 -4.167,12.758c-4.687,5.992 -13.283,8.075 -19.792,12.242c-7.291,4.425 -12.241,11.979 -14.583,20.312c0,1.821 0.779,3.905 2.342,4.688c0.262,0.258 0.783,0.258 1.041,0.258c2.867,0 4.43,-8.071 12.242,-8.071c5.208,0 7.029,7.03 18.75,7.03c5.467,-0 15.625,-0.521 17.708,-20.571" style="fill-rule:nonzero;"/></g><g><path d="M6084.07,288.596c-0,-0 -0.263,1.042 -0.263,1.825c0,1.041 1.042,2.083 2.084,2.083c0.779,0 1.3,-0.783 1.562,-1.042c0.258,-0.783 3.383,-11.458 4.946,-14.062c0.521,-1.042 1.042,-1.304 1.304,-1.304c0.521,-0 0.779,1.041 0.779,1.825l0,37.237c0,3.125 -2.604,4.95 -5.208,4.95c-1.042,0 -2.342,0.521 -2.342,2.084c0,1.562 1.3,2.083 3.384,2.083l21.875,-0c2.083,-0 2.083,-2.083 2.083,-2.083c-0,-0 -0,-2.084 -2.083,-2.084c-1.821,0 -4.167,-2.346 -4.167,-4.687l-0,-54.167c-0,-2.083 -0.779,-3.125 -2.604,-3.125c-1.821,0 -3.384,0.521 -4.946,0.521c-2.604,-0 -3.125,-0 -5.208,-0.521c-1.042,0 -2.346,1.563 -3.125,2.604l-8.071,27.863" style="fill-rule:nonzero;"/></g><g><path d="M6273.78,300.838l0,-27.867c0,-1.3 -0.262,-2.342 -1.562,-2.342c-1.042,0 -1.825,0.259 -2.605,1.3l-7.812,15.104c-0.521,0.521 -1.304,1.304 -1.304,3.125l-0,10.679l-16.925,0c10.675,-8.854 27.341,-38.283 27.604,-39.845c-0,-0.259 0.258,-0.521 0.258,-0.779c0,-1.042 -1.041,-1.825 -1.821,-1.825c-1.304,-0 -6.77,0.52 -9.116,0.52c-2.342,0 -3.904,-0.52 -4.946,-0.52c-1.304,-0 -3.125,0.52 -3.125,2.604c-0,16.666 -13.542,35.679 -16.929,40.366c-0.521,0.521 -1.042,1.3 -1.042,2.084c0,1.3 1.042,2.604 2.604,2.604l23.438,-0l-0,8.071c-0,3.646 -2.084,4.687 -4.167,4.687c-2.342,0 -3.383,1.042 -3.383,2.346c-0,1.3 0.521,2.863 2.862,2.863l22.396,-0c1.304,-0 2.604,-1.042 2.604,-2.863c0,-1.825 -1.562,-2.604 -2.862,-2.604c-1.304,-0 -4.167,-0.783 -4.167,-4.95l0,-7.55l9.633,-0c1.305,-0 2.084,-1.042 2.084,-2.604c-0,-1.563 -0.521,-2.605 -2.084,-2.605l-9.633,0" style="fill-rule:nonzero;"/></g><g><path d="M6449.73,300.838l0,-27.867c0,-1.3 -0.262,-2.342 -1.562,-2.342c-1.042,0 -1.825,0.259 -2.604,1.3l-7.813,15.104c-0.521,0.521 -1.304,1.304 -1.304,3.125l0,10.679l-16.925,0c10.675,-8.854 27.342,-38.283 27.604,-39.845c0,-0.259 0.259,-0.521 0.259,-0.779c-0,-1.042 -1.042,-1.825 -1.821,-1.825c-1.304,-0 -6.771,0.52 -9.117,0.52c-2.342,0 -3.904,-0.52 -4.946,-0.52c-1.304,-0 -3.125,0.52 -3.125,2.604c0,16.666 -13.541,35.679 -16.929,40.366c-0.521,0.521 -1.042,1.3 -1.042,2.084c0,1.3 1.042,2.604 2.605,2.604l23.437,-0l0,8.071c0,3.646 -2.083,4.687 -4.167,4.687c-2.341,0 -3.383,1.042 -3.383,2.346c0,1.3 0.521,2.863 2.863,2.863l22.395,-0c1.305,-0 2.605,-1.042 2.605,-2.863c-0,-1.825 -1.563,-2.604 -2.863,-2.604c-1.304,-0 -4.167,-0.783 -4.167,-4.95l0,-7.55l9.634,-0c1.304,-0 2.083,-1.042 2.083,-2.604c0,-1.563 -0.521,-2.605 -2.083,-2.605l-9.634,0" style="fill-rule:nonzero;"/></g><g><path d="M6637.65,303.442c0,-1.825 -0.783,-2.084 -1.562,-2.084c-1.042,0 -1.563,0.78 -1.825,1.563c-1.3,3.646 -4.167,8.333 -8.071,8.333c-0.521,0 -1.042,0 -1.563,-0.262l-3.908,-1.3c-2.604,-1.042 -8.854,-3.125 -14.063,-3.125c-1.82,-0 -3.383,0.258 -4.945,0.779c2.862,-4.946 16.404,-11.458 19.27,-12.238c9.375,-1.304 17.188,-6.771 17.188,-16.929c-0,-6.25 -2.604,-10.416 -5.992,-13.541c-6.771,-5.467 -16.666,-6.25 -19.529,-6.25c-9.375,-0 -16.929,0.52 -23.7,8.333c-1.821,2.083 -2.604,4.167 -2.604,6.25c-0,1.825 0.783,3.908 1.562,6.25c1.563,3.125 4.95,5.471 8.596,5.471c6.509,-0 7.292,-6.25 7.292,-9.117c-0,-5.988 -6.513,-6.508 -6.513,-9.113c0,-1.824 2.605,-4.949 10.417,-4.949c12.242,-0 16.408,10.158 16.408,13.283c0,4.687 -1.562,9.112 -4.166,12.758c-4.688,5.992 -13.284,8.075 -19.792,12.242c-7.292,4.425 -12.242,11.979 -14.583,20.312c-0,1.821 0.779,3.905 2.341,4.688c0.263,0.258 0.784,0.258 1.042,0.258c2.867,0 4.429,-8.071 12.242,-8.071c5.208,0 7.029,7.03 18.75,7.03c5.466,-0 15.625,-0.521 17.708,-20.571" style="fill-rule:nonzero;"/></g><g><path d="M6747.19,288.596c-0,-0 -0.259,1.042 -0.259,1.825c0,1.041 1.042,2.083 2.084,2.083c0.779,0 1.3,-0.783 1.562,-1.042c0.259,-0.783 3.384,-11.458 4.946,-14.062c0.521,-1.042 1.042,-1.304 1.304,-1.304c0.521,-0 0.779,1.041 0.779,1.825l0,37.237c0,3.125 -2.604,4.95 -5.208,4.95c-1.042,0 -2.342,0.521 -2.342,2.084c0,1.562 1.3,2.083 3.384,2.083l21.875,-0c2.083,-0 2.083,-2.083 2.083,-2.083c0,-0 0,-2.084 -2.083,-2.084c-1.821,0 -4.167,-2.346 -4.167,-4.687l0,-54.167c0,-2.083 -0.779,-3.125 -2.604,-3.125c-1.821,0 -3.383,0.521 -4.946,0.521c-2.604,-0 -3.125,-0 -5.208,-0.521c-1.042,0 -2.346,1.563 -3.125,2.604l-8.075,27.863" style="fill-rule:nonzero;"/></g><g><path d="M386.889,841.2c23.175,0 51.562,-21.354 51.562,-43.487c0,-13.284 -10.417,-21.617 -25.262,-21.617c-28.646,-0 -51.563,21.096 -51.563,43.491c0,13.542 11.2,21.613 25.263,21.613" style="fill-rule:nonzero;"/></g><g><path d="M500.722,797.45c-0,0 -0.783,-15.625 -0.783,-26.042c-0,-4.166 0.262,-7.291 0.52,-8.333c1.825,-5.208 12.242,-12.758 18.23,-12.758c7.554,-0 10.679,8.591 10.679,15.104c-0,14.062 -11.979,28.125 -23.179,35.154c-1.042,0.521 -1.821,0.783 -2.605,0.783c-2.341,0 -2.862,-2.604 -2.862,-3.908m-9.117,23.179c0.784,1.042 1.563,1.3 2.346,1.3c0.779,0 1.563,-0.521 1.563,-0.521c7.812,-4.425 14.062,-11.458 20.57,-15.883c23.18,-16.146 31.25,-32.033 31.25,-44.012c0,-14.842 -11.458,-24.217 -23.437,-25c-4.425,-0 -10.675,2.083 -14.321,4.429c-1.562,1.3 -4.429,3.646 -5.729,3.646c-0.521,-0 -0.783,-0 -1.304,-0.263c-1.821,-0.779 -2.863,-2.604 -2.863,-4.425c0.259,-5.729 1.821,-68.229 1.821,-73.437c0,-2.867 -2.342,-4.43 -4.946,-4.43c-3.646,0 -7.812,2.605 -8.075,7.292c0,0 1.042,148.7 3.125,151.304" style="fill-rule:nonzero;"/></g><g><path d="M588.684,808.908c23.175,0 51.563,-21.354 51.563,-43.487c-0,-13.283 -10.417,-21.617 -25.263,-21.617c-28.645,0 -51.562,21.096 -51.562,43.492c-0,13.542 11.2,21.612 25.262,21.612" style="fill-rule:nonzero;"/></g><g><path d="M702.518,765.158c-0,0 -0.779,-15.625 -0.779,-26.041c-0,-4.167 0.258,-7.292 0.52,-8.334c1.821,-5.208 12.238,-12.758 18.23,-12.758c7.55,0 10.675,8.592 10.675,15.104c-0,14.063 -11.98,28.125 -23.175,35.154c-1.042,0.521 -1.825,0.784 -2.605,0.784c-2.345,-0 -2.866,-2.604 -2.866,-3.909m-9.113,23.18c0.779,1.041 1.563,1.3 2.342,1.3c0.783,-0 1.562,-0.521 1.562,-0.521c7.813,-4.425 14.063,-11.459 20.575,-15.884c23.175,-16.145 31.25,-32.033 31.25,-44.012c0,-14.842 -11.458,-24.217 -23.437,-25c-4.429,-0 -10.679,2.083 -14.325,4.429c-1.563,1.3 -4.425,3.646 -5.729,3.646c-0.521,-0 -0.779,-0 -1.3,-0.263c-1.825,-0.779 -2.867,-2.604 -2.867,-4.425c0.263,-5.729 1.825,-68.229 1.825,-73.437c0,-2.867 -2.346,-4.429 -4.95,-4.429c-3.646,-0 -7.812,2.604 -8.071,7.291c0,0 1.042,148.7 3.125,151.305" style="fill-rule:nonzero;"/></g><g><path d="M790.48,776.617c23.175,-0 51.563,-21.354 51.563,-43.488c-0,-13.283 -10.417,-21.616 -25.263,-21.616c-28.646,-0 -51.562,21.095 -51.562,43.491c-0,13.542 11.2,21.613 25.262,21.613" style="fill-rule:nonzero;"/></g><g><path d="M901.718,733.908c-0,-3.645 15.883,-10.416 22.133,-10.416c1.563,-0 2.346,0.262 2.346,1.304l-0,26.821c-0,4.687 -14.846,10.679 -21.354,10.679c-1.825,-0 -3.125,-0.521 -3.125,-1.563l-0,-26.825m27.083,-36.979c-0.521,0 -0.783,0.263 -1.042,0.263c0,-0 -16.666,5.987 -23.437,5.987c-1.563,0 -2.604,-0.258 -2.604,-1.3l-0,-43.491c-0,-1.821 -1.563,-3.125 -3.125,-3.125l-3.388,-0c-1.821,-0 -3.125,1.304 -3.125,3.125l0,134.116c0,1.563 0.784,2.342 2.084,2.342c0.262,-0 1.562,-0.258 1.825,-0.521c3.645,-1.562 18.229,-7.812 25.779,-7.812c2.604,-0 4.429,0.783 4.429,2.866l-0,38.8c-0,1.825 1.3,3.125 3.125,3.125l3.383,0c1.563,0 3.125,-1.3 3.125,-3.125l0,-130.729c0,-1.3 -1.041,-2.083 -2.083,-2.083c-0.258,-0 -0.779,-0 -1.042,0.262l-3.904,1.3" style="fill-rule:nonzero;"/></g><g><path d="M977.226,776.617c23.175,-0 51.563,-21.354 51.563,-43.488c-0,-13.283 -10.417,-21.616 -25.263,-21.616c-28.646,-0 -51.562,21.095 -51.562,43.491c-0,13.542 11.2,21.613 25.262,21.613" style="fill-rule:nonzero;"/></g><g><path d="M1122.56,723.492c-1.563,5.208 -13.805,10.416 -19.792,10.416c-1.563,0 -2.867,-0.52 -3.125,-1.3c-0.521,-1.041 -0.783,-6.77 -0.783,-13.02c-0,-8.075 0.262,-17.188 0.783,-19.271c0.521,-4.429 12.5,-9.896 19.008,-9.896c1.825,-0 3.388,0.521 3.909,1.562c0.52,1.3 1.041,7.813 1.041,14.842c0,7.033 -0.521,14.325 -1.041,16.667m17.966,-42.446c1.825,-0.784 3.125,-2.867 3.125,-4.429l0,-18.488c0,-1.304 -0.779,-2.083 -1.821,-2.083c-0.52,-0 -0.783,-0 -1.304,0.258c0,0 -5.208,2.083 -6.508,2.346c-1.825,-0 -3.646,-1.304 -3.646,-3.388l0,-31.77c0,-1.563 -1.562,-2.863 -3.646,-2.863c-2.604,0 -4.166,1.3 -4.166,2.863l-0,33.854c-0.263,2.604 -1.042,5.991 -3.388,7.554c-3.125,1.821 -11.979,5.467 -16.404,6.508c-2.346,0 -3.125,-3.125 -3.125,-5.208l-0,-31.25c-0,-1.563 -1.825,-2.863 -3.646,-2.863c-2.604,0 -4.167,1.3 -4.167,2.863l0,35.158c0,3.646 -1.562,6.25 -3.125,7.029c-1.562,0.784 -6.77,2.867 -6.77,2.867c-1.825,0.521 -3.125,2.604 -3.125,4.167l-0,18.487c-0,1.563 0.779,2.346 2.083,2.346c1.042,0 5.987,-2.346 6.771,-2.867c0.258,0 0.521,-0.258 0.779,-0.258c1.825,0 3.387,2.604 3.387,4.688l0,25.779c0,2.866 -1.304,5.208 -2.866,5.991c-1.563,0.521 -7.029,2.863 -7.029,2.863c-1.825,0.521 -3.125,2.604 -3.125,4.167l-0,18.491c-0,1.563 0.779,2.342 2.083,2.342c0.258,-0 0.779,-0.258 1.042,-0.258c-0,-0 3.645,-1.563 5.987,-2.346c0.263,-0.259 0.521,-0.259 0.783,-0.259c1.821,0 3.125,2.863 3.125,4.167l0,32.029c0,1.563 1.563,2.867 3.384,2.867c2.604,-0 4.429,-1.304 4.429,-2.867l-0,-36.196c-0,-3.387 1.3,-5.208 2.604,-5.729l15.883,-6.512c0.263,-0 0.784,-0.259 1.042,-0.259c2.083,0 3.388,3.125 3.388,4.688l-0,32.55c-0,1.563 1.562,2.867 3.383,2.867c2.867,-0 4.429,-1.304 4.429,-2.867l0,-36.979c0,-2.083 1.042,-5.208 2.863,-5.988c1.825,-0.783 7.291,-2.866 7.291,-2.866c1.825,-0.779 3.125,-2.863 3.125,-4.425l0,-18.492c0,-1.3 -0.779,-2.083 -1.821,-2.083c-0.52,-0 -0.783,-0 -1.304,0.262l-6.771,2.604c-1.562,0 -3.383,-1.562 -3.383,-4.687l0,-24.221c0,-1.821 1.3,-6.771 3.383,-7.55l6.771,-2.604" style="fill-rule:nonzero;"/></g><g><path d="M1185.02,744.325c23.179,0 51.562,-21.354 51.562,-43.487c0,-13.284 -10.416,-21.617 -25.258,-21.617c-28.646,-0 -51.562,21.096 -51.562,43.491c-0,13.542 11.195,21.613 25.258,21.613" style="fill-rule:nonzero;"/></g><g><path d="M1330.36,691.2c-1.563,5.208 -13.805,10.417 -19.792,10.417c-1.563,-0 -2.867,-0.521 -3.125,-1.3c-0.521,-1.042 -0.783,-6.771 -0.783,-13.021c-0,-8.075 0.262,-17.188 0.783,-19.271c0.521,-4.429 12.5,-9.896 19.008,-9.896c1.825,0 3.388,0.521 3.909,1.563c0.52,1.3 1.041,7.812 1.041,14.841c0,7.034 -0.521,14.325 -1.041,16.667m17.966,-42.446c1.825,-0.783 3.125,-2.867 3.125,-4.429l0,-18.488c0,-1.304 -0.779,-2.083 -1.821,-2.083c-0.52,0 -0.783,0 -1.304,0.258c0,0 -5.208,2.084 -6.508,2.346c-1.825,0 -3.646,-1.304 -3.646,-3.387l0,-31.771c0,-1.563 -1.562,-2.863 -3.646,-2.863c-2.604,0 -4.166,1.3 -4.166,2.863l-0,33.854c-0.263,2.604 -1.042,5.992 -3.388,7.554c-3.125,1.821 -11.979,5.467 -16.404,6.509c-2.346,-0 -3.125,-3.125 -3.125,-5.209l-0,-31.25c-0,-1.562 -1.825,-2.862 -3.646,-2.862c-2.604,-0 -4.167,1.3 -4.167,2.862l0,35.159c0,3.645 -1.562,6.25 -3.125,7.029c-1.562,0.783 -6.77,2.866 -6.77,2.866c-1.825,0.521 -3.125,2.605 -3.125,4.167l-0,18.488c-0,1.562 0.779,2.345 2.083,2.345c1.042,0 5.987,-2.345 6.771,-2.866c0.258,-0 0.521,-0.259 0.779,-0.259c1.825,0 3.387,2.605 3.387,4.688l0,25.779c0,2.867 -1.304,5.208 -2.866,5.992c-1.563,0.521 -7.029,2.862 -7.029,2.862c-1.825,0.521 -3.125,2.604 -3.125,4.167l-0,18.492c-0,1.562 0.779,2.341 2.083,2.341c0.258,0 0.779,-0.258 1.042,-0.258c-0,-0 3.645,-1.563 5.987,-2.346c0.263,-0.258 0.521,-0.258 0.783,-0.258c1.821,-0 3.125,2.862 3.125,4.166l0,32.03c0,1.562 1.563,2.866 3.384,2.866c2.604,0 4.429,-1.304 4.429,-2.866l-0,-36.196c-0,-3.388 1.3,-5.209 2.604,-5.729l15.883,-6.513c0.263,0 0.784,-0.258 1.042,-0.258c2.083,-0 3.388,3.125 3.388,4.687l-0,32.55c-0,1.563 1.562,2.867 3.383,2.867c2.867,0 4.429,-1.304 4.429,-2.867l0,-36.979c0,-2.083 1.042,-5.208 2.863,-5.987c1.825,-0.784 7.291,-2.867 7.291,-2.867c1.825,-0.779 3.125,-2.863 3.125,-4.425l0,-18.492c0,-1.3 -0.779,-2.083 -1.821,-2.083c-0.52,-0 -0.783,-0 -1.304,0.262l-6.771,2.605c-1.562,-0 -3.383,-1.563 -3.383,-4.688l0,-24.221c0,-1.821 1.3,-6.771 3.383,-7.55l6.771,-2.604" style="fill-rule:nonzero;"/></g><g><path d="M1392.82,712.033c23.179,0 51.562,-21.354 51.562,-43.487c0,-13.283 -10.416,-21.617 -25.258,-21.617c-28.646,0 -51.562,21.096 -51.562,43.492c-0,13.542 11.195,21.612 25.258,21.612" style="fill-rule:nonzero;"/></g><g><path d="M1543.11,647.45c23.175,0 51.563,-21.354 51.563,-43.487c-0,-13.284 -10.417,-21.617 -25.263,-21.617c-28.645,-0 -51.562,21.096 -51.562,43.491c-0,13.542 11.2,21.613 25.262,21.613" style="fill-rule:nonzero;"/></g><g><path d="M1693.4,615.158c23.175,0 51.562,-21.354 51.562,-43.487c0,-13.283 -10.416,-21.617 -25.262,-21.617c-28.646,0 -51.563,21.096 -51.563,43.492c0,13.542 11.2,21.612 25.263,21.612" style="fill-rule:nonzero;"/></g><g><path d="M1781.4,571.408c0,0 -0.783,-15.625 -0.783,-26.041c-0,-4.167 0.262,-7.292 0.521,-8.334c1.825,-5.208 12.241,-12.758 18.229,-12.758c7.554,0 10.679,8.592 10.679,15.104c0,14.063 -11.979,28.125 -23.179,35.154c-1.042,0.521 -1.821,0.784 -2.604,0.784c-2.342,-0 -2.863,-2.604 -2.863,-3.909m-9.116,23.18c0.783,1.041 1.562,1.3 2.345,1.3c0.78,-0 1.563,-0.521 1.563,-0.521c7.812,-4.425 14.062,-11.459 20.571,-15.884c23.179,-16.145 31.25,-32.033 31.25,-44.012c-0,-14.842 -11.459,-24.217 -23.438,-25c-4.425,-0 -10.675,2.083 -14.321,4.429c-1.562,1.3 -4.429,3.646 -5.729,3.646c-0.521,-0 -0.783,-0 -1.304,-0.263c-1.821,-0.779 -2.862,-2.604 -2.862,-4.425c0.258,-5.729 1.82,-68.229 1.82,-73.437c0,-2.867 -2.341,-4.429 -4.945,-4.429c-3.646,-0 -7.813,2.604 -8.075,7.291c-0,0 1.041,148.7 3.125,151.305" style="fill-rule:nonzero;"/></g><g><path d="M1869.36,582.867c23.175,-0 51.563,-21.354 51.563,-43.488c-0,-13.283 -10.417,-21.616 -25.263,-21.616c-28.645,-0 -51.562,21.095 -51.562,43.491c-0,13.542 11.2,21.613 25.262,21.613" style="fill-rule:nonzero;"/></g><g><path d="M1957.5,539.117c-0,-0 -0.779,-15.625 -0.779,-26.042c-0,-4.167 0.258,-7.292 0.521,-8.333c1.82,-5.209 12.237,-12.759 18.229,-12.759c7.55,0 10.675,8.592 10.675,15.105c-0,14.062 -11.979,28.125 -23.175,35.154c-1.042,0.521 -1.825,0.783 -2.604,0.783c-2.346,0 -2.867,-2.604 -2.867,-3.908m-9.113,23.179c0.78,1.042 1.563,1.3 2.342,1.3c0.783,-0 1.563,-0.521 1.563,-0.521c7.812,-4.425 14.062,-11.458 20.575,-15.883c23.175,-16.146 31.25,-32.034 31.25,-44.013c-0,-14.841 -11.459,-24.216 -23.438,-25c-4.429,0 -10.679,2.084 -14.325,4.429c-1.562,1.3 -4.425,3.646 -5.729,3.646c-0.521,0 -0.779,0 -1.3,-0.262c-1.825,-0.779 -2.867,-2.604 -2.867,-4.425c0.263,-5.729 1.825,-68.229 1.825,-73.438c0,-2.866 -2.346,-4.429 -4.95,-4.429c-3.646,0 -7.812,2.604 -8.071,7.292c0,-0 1.042,148.7 3.125,151.304" style="fill-rule:nonzero;"/></g><g><path d="M2045.45,550.575c23.179,0 51.563,-21.354 51.563,-43.487c-0,-13.284 -10.417,-21.617 -25.259,-21.617c-28.646,-0 -51.562,21.096 -51.562,43.492c-0,13.541 11.196,21.612 25.258,21.612" style="fill-rule:nonzero;"/></g><g><path d="M2130.98,507.867c0,-3.646 15.888,-10.417 22.138,-10.417c1.562,0 2.342,0.263 2.342,1.304l-0,26.821c-0,4.688 -14.842,10.679 -21.355,10.679c-1.82,0 -3.125,-0.521 -3.125,-1.562l0,-26.825m27.084,-36.979c-0.521,-0 -0.779,0.262 -1.042,0.262c0,0 -16.667,5.988 -23.437,5.988c-1.563,-0 -2.605,-0.259 -2.605,-1.3l0,-43.492c0,-1.821 -1.562,-3.125 -3.125,-3.125l-3.383,-0c-1.825,-0 -3.125,1.304 -3.125,3.125l0,134.117c0,1.562 0.779,2.341 2.083,2.341c0.259,0 1.563,-0.258 1.821,-0.521c3.646,-1.562 18.229,-7.812 25.784,-7.812c2.604,-0 4.425,0.783 4.425,2.867l-0,38.8c-0,1.825 1.304,3.125 3.125,3.125l3.387,-0c1.563,-0 3.125,-1.3 3.125,-3.125l0,-130.73c0,-1.3 -1.042,-2.083 -2.083,-2.083c-0.263,0 -0.784,0 -1.042,0.263l-3.908,1.3" style="fill-rule:nonzero;"/></g><g><path d="M2206.49,550.575c23.179,0 51.562,-21.354 51.562,-43.487c0,-13.284 -10.416,-21.617 -25.258,-21.617c-28.646,-0 -51.563,21.096 -51.563,43.492c0,13.541 11.196,21.612 25.259,21.612" style="fill-rule:nonzero;"/></g><g><path d="M2326.13,497.45c-1.562,5.208 -13.804,10.417 -19.791,10.417c-1.563,-0 -2.867,-0.521 -3.125,-1.3c-0.521,-1.042 -0.784,-6.771 -0.784,-13.021c0,-8.075 0.263,-17.188 0.784,-19.271c0.52,-4.429 12.5,-9.896 19.008,-9.896c1.825,0 3.387,0.521 3.908,1.563c0.521,1.3 1.042,7.812 1.042,14.841c-0,7.034 -0.521,14.325 -1.042,16.667m17.967,-42.446c1.825,-0.783 3.125,-2.866 3.125,-4.429l-0,-18.487c-0,-1.305 -0.779,-2.084 -1.821,-2.084c-0.521,0 -0.783,0 -1.304,0.259c-0,-0 -5.208,2.083 -6.508,2.345c-1.825,0 -3.646,-1.304 -3.646,-3.387l-0,-31.771c-0,-1.562 -1.563,-2.862 -3.646,-2.862c-2.604,-0 -4.167,1.3 -4.167,2.862l0,33.854c-0.262,2.604 -1.041,5.992 -3.387,7.554c-3.125,1.821 -11.979,5.467 -16.404,6.509c-2.346,-0 -3.125,-3.125 -3.125,-5.209l-0,-31.25c-0,-1.562 -1.825,-2.862 -3.646,-2.862c-2.604,-0 -4.167,1.3 -4.167,2.862l0,35.159c0,3.646 -1.562,6.25 -3.125,7.029c-1.562,0.783 -6.771,2.867 -6.771,2.867c-1.825,0.52 -3.125,2.604 -3.125,4.166l0,18.488c0,1.562 0.779,2.346 2.084,2.346c1.041,-0 5.987,-2.346 6.77,-2.867c0.259,-0 0.521,-0.258 0.78,-0.258c1.825,-0 3.387,2.604 3.387,4.687l0,25.779c0,2.867 -1.304,5.209 -2.867,5.992c-1.562,0.521 -7.029,2.862 -7.029,2.862c-1.825,0.521 -3.125,2.605 -3.125,4.167l0,18.492c0,1.562 0.779,2.341 2.084,2.341c0.258,0 0.779,-0.258 1.041,-0.258c0,0 3.646,-1.562 5.988,-2.346c0.262,-0.258 0.521,-0.258 0.783,-0.258c1.821,-0 3.125,2.862 3.125,4.167l0,32.029c0,1.562 1.563,2.866 3.383,2.866c2.605,0 4.43,-1.304 4.43,-2.866l-0,-36.196c-0,-3.388 1.3,-5.208 2.604,-5.729l15.883,-6.513c0.263,0 0.783,-0.258 1.042,-0.258c2.083,-0 3.387,3.125 3.387,4.687l0,32.55c0,1.563 1.563,2.867 3.384,2.867c2.866,0 4.429,-1.304 4.429,-2.867l-0,-36.979c-0,-2.083 1.041,-5.208 2.862,-5.987c1.825,-0.784 7.292,-2.867 7.292,-2.867c1.825,-0.779 3.125,-2.862 3.125,-4.425l-0,-18.492c-0,-1.3 -0.779,-2.083 -1.821,-2.083c-0.521,0 -0.783,0 -1.304,0.263l-6.771,2.604c-1.562,-0 -3.383,-1.563 -3.383,-4.688l-0,-24.221c-0,-1.82 1.3,-6.77 3.383,-7.55l6.771,-2.604" style="fill-rule:nonzero;"/></g><g><path d="M2388.59,518.283c23.179,0 51.562,-21.354 51.562,-43.487c0,-13.283 -10.417,-21.617 -25.258,-21.617c-28.646,0 -51.563,21.096 -51.563,43.492c0,13.542 11.196,21.612 25.259,21.612" style="fill-rule:nonzero;"/></g><g><path d="M2624.21,465.158c-1.563,5.209 -13.8,10.417 -19.792,10.417c-1.563,0 -2.863,-0.521 -3.125,-1.3c-0.521,-1.042 -0.779,-6.771 -0.779,-13.021c-0,-8.075 0.258,-17.187 0.779,-19.271c0.521,-4.429 12.5,-9.895 19.012,-9.895c1.821,-0 3.384,0.52 3.905,1.562c0.52,1.3 1.041,7.813 1.041,14.842c0,7.033 -0.521,14.325 -1.041,16.666m17.97,-42.445c1.821,-0.784 3.125,-2.867 3.125,-4.43l0,-18.487c0,-1.304 -0.783,-2.083 -1.825,-2.083c-0.52,-0 -0.779,-0 -1.3,0.258c0,-0 -5.208,2.083 -6.512,2.346c-1.821,-0 -3.646,-1.304 -3.646,-3.388l0,-31.771c0,-1.562 -1.562,-2.862 -3.646,-2.862c-2.604,-0 -4.166,1.3 -4.166,2.862l-0,33.855c-0.259,2.604 -1.042,5.991 -3.384,7.554c-3.125,1.821 -11.979,5.466 -16.408,6.508c-2.342,0 -3.125,-3.125 -3.125,-5.208l-0,-31.25c-0,-1.563 -1.821,-2.863 -3.646,-2.863c-2.604,0 -4.167,1.3 -4.167,2.863l0,35.158c0,3.646 -1.562,6.25 -3.125,7.029c-1.562,0.784 -6.77,2.867 -6.77,2.867c-1.821,0.521 -3.125,2.604 -3.125,4.167l-0,18.487c-0,1.563 0.783,2.346 2.083,2.346c1.042,-0 5.992,-2.346 6.771,-2.867c0.262,0 0.521,-0.258 0.783,-0.258c1.821,-0 3.383,2.604 3.383,4.687l0,25.78c0,2.866 -1.3,5.208 -2.862,5.991c-1.563,0.521 -7.033,2.863 -7.033,2.863c-1.821,0.521 -3.125,2.604 -3.125,4.166l-0,18.492c-0,1.563 0.783,2.342 2.083,2.342c0.262,-0 0.783,-0.259 1.042,-0.259c-0,0 3.645,-1.562 5.991,-2.345c0.259,-0.259 0.521,-0.259 0.779,-0.259c1.825,0 3.125,2.863 3.125,4.167l0,32.029c0,1.563 1.563,2.867 3.388,2.867c2.604,-0 4.425,-1.304 4.425,-2.867l-0,-36.196c-0,-3.387 1.304,-5.208 2.604,-5.729l15.888,-6.512c0.258,-0 0.779,-0.259 1.041,-0.259c2.084,0 3.384,3.125 3.384,4.688l-0,32.55c-0,1.562 1.562,2.866 3.387,2.866c2.863,0 4.425,-1.304 4.425,-2.866l0,-36.979c0,-2.084 1.042,-5.209 2.867,-5.988c1.821,-0.783 7.291,-2.867 7.291,-2.867c1.821,-0.779 3.125,-2.862 3.125,-4.425l0,-18.491c0,-1.3 -0.783,-2.084 -1.825,-2.084c-0.52,0 -0.779,0 -1.3,0.263l-6.77,2.604c-1.563,0 -3.388,-1.562 -3.388,-4.687l0,-24.221c0,-1.821 1.304,-6.771 3.388,-7.55l6.77,-2.604" style="fill-rule:nonzero;"/></g><g><path d="M2686.66,485.992c23.175,-0 51.562,-21.354 51.562,-43.488c0,-13.283 -10.417,-21.616 -25.262,-21.616c-28.646,-0 -51.563,21.095 -51.563,43.491c0,13.542 11.2,21.613 25.263,21.613" style="fill-rule:nonzero;"/></g><g><path d="M2836.95,421.408c23.175,0 51.563,-21.354 51.563,-43.487c-0,-13.283 -10.417,-21.617 -25.263,-21.617c-28.646,0 -51.562,21.096 -51.562,43.492c-0,13.542 11.2,21.612 25.262,21.612" style="fill-rule:nonzero;"/></g><g><path d="M2987.23,389.117c23.18,-0 51.563,-21.354 51.563,-43.488c-0,-13.283 -10.417,-21.616 -25.258,-21.616c-28.646,-0 -51.563,21.095 -51.563,43.491c0,13.542 11.196,21.613 25.258,21.613" style="fill-rule:nonzero;"/></g><g><path d="M3075.37,345.367c-0,-0 -0.779,-15.625 -0.779,-26.042c-0,-4.167 0.258,-7.292 0.521,-8.333c1.82,-5.209 12.237,-12.759 18.229,-12.759c7.55,0 10.675,8.592 10.675,15.104c-0,14.063 -11.979,28.125 -23.175,35.155c-1.042,0.521 -1.825,0.783 -2.604,0.783c-2.346,0 -2.867,-2.604 -2.867,-3.908m-9.113,23.179c0.78,1.042 1.563,1.3 2.342,1.3c0.783,-0 1.563,-0.521 1.563,-0.521c7.812,-4.425 14.062,-11.458 20.575,-15.883c23.175,-16.146 31.25,-32.034 31.25,-44.013c-0,-14.841 -11.459,-24.216 -23.438,-25c-4.429,0 -10.679,2.084 -14.325,4.429c-1.562,1.3 -4.425,3.646 -5.729,3.646c-0.521,0 -0.779,0 -1.3,-0.262c-1.825,-0.779 -2.867,-2.604 -2.867,-4.425c0.263,-5.729 1.825,-68.229 1.825,-73.438c0,-2.866 -2.346,-4.429 -4.95,-4.429c-3.646,0 -7.812,2.604 -8.071,7.292c0,-0 1.042,148.7 3.125,151.304" style="fill-rule:nonzero;"/></g><g><path d="M3163.33,356.825c23.175,0 51.563,-21.354 51.563,-43.488c-0,-13.283 -10.417,-21.616 -25.263,-21.616c-28.646,-0 -51.562,21.096 -51.562,43.491c-0,13.542 11.2,21.613 25.262,21.613" style="fill-rule:nonzero;"/></g><g><path d="M3277.17,313.075c-0,0 -0.783,-15.625 -0.783,-26.042c-0,-4.166 0.262,-7.291 0.52,-8.333c1.825,-5.208 12.242,-12.758 18.23,-12.758c7.554,-0 10.679,8.591 10.679,15.104c-0,14.062 -11.979,28.125 -23.179,35.154c-1.042,0.521 -1.821,0.783 -2.605,0.783c-2.341,0 -2.862,-2.604 -2.862,-3.908m-9.117,23.179c0.784,1.042 1.563,1.3 2.346,1.3c0.779,0 1.563,-0.521 1.563,-0.521c7.812,-4.425 14.062,-11.458 20.57,-15.883c23.18,-16.146 31.25,-32.033 31.25,-44.012c0,-14.842 -11.458,-24.217 -23.437,-25.001c-4.425,0 -10.675,2.084 -14.321,4.43c-1.562,1.3 -4.429,3.645 -5.729,3.645c-0.521,0 -0.783,0 -1.304,-0.262c-1.821,-0.779 -2.863,-2.604 -2.863,-4.425c0.259,-5.729 1.821,-68.229 1.821,-73.437c0,-2.867 -2.342,-4.43 -4.946,-4.43c-3.646,0 -7.812,2.605 -8.075,7.292c0,0 1.042,148.7 3.125,151.304" style="fill-rule:nonzero;"/></g><g><path d="M3365.13,324.533c23.179,0 51.563,-21.354 51.563,-43.487c-0,-13.283 -10.417,-21.617 -25.259,-21.617c-28.646,0 -51.562,21.096 -51.562,43.492c-0,13.541 11.196,21.612 25.258,21.612" style="fill-rule:nonzero;"/></g><g><path d="M3476.36,281.825c-0,-3.646 15.883,-10.417 22.133,-10.417c1.562,0 2.346,0.263 2.346,1.304l-0,26.821c-0,4.688 -14.846,10.679 -21.354,10.679c-1.825,0 -3.125,-0.52 -3.125,-1.562l-0,-26.825m27.083,-36.979c-0.521,-0 -0.783,0.262 -1.042,0.262c0,0 -16.666,5.988 -23.437,5.988c-1.563,-0 -2.604,-0.258 -2.604,-1.3l-0,-43.492c-0,-1.821 -1.563,-3.125 -3.125,-3.125l-3.388,0c-1.821,0 -3.125,1.304 -3.125,3.125l0,134.117c0,1.562 0.783,2.342 2.083,2.342c0.263,-0 1.563,-0.259 1.825,-0.521c3.646,-1.563 18.23,-7.813 25.78,-7.813c2.604,0 4.429,0.784 4.429,2.867l-0,38.8c-0,1.825 1.3,3.125 3.125,3.125l3.383,-0c1.563,-0 3.125,-1.3 3.125,-3.125l0,-130.729c0,-1.3 -1.042,-2.084 -2.083,-2.084c-0.259,0 -0.779,0 -1.042,0.263l-3.904,1.3" style="fill-rule:nonzero;"/></g><g><path d="M3551.87,324.533c23.175,0 51.562,-21.354 51.562,-43.487c0,-13.283 -10.416,-21.617 -25.262,-21.617c-28.646,0 -51.563,21.096 -51.563,43.492c0,13.541 11.2,21.612 25.263,21.612" style="fill-rule:nonzero;"/></g><g><path d="M3697.23,271.408c-1.562,5.209 -13.8,10.417 -19.791,10.417c-1.563,0 -2.863,-0.521 -3.125,-1.3c-0.521,-1.042 -0.779,-6.771 -0.779,-13.021c-0,-8.075 0.258,-17.187 0.779,-19.271c0.521,-4.429 12.5,-9.895 19.012,-9.895c1.821,-0 3.384,0.52 3.904,1.562c0.521,1.3 1.042,7.813 1.042,14.842c0,7.033 -0.521,14.325 -1.042,16.666m17.971,-42.445c1.821,-0.784 3.125,-2.867 3.125,-4.43l0,-18.487c0,-1.304 -0.783,-2.083 -1.825,-2.083c-0.521,-0 -0.779,-0 -1.3,0.258c0,-0 -5.208,2.083 -6.512,2.346c-1.821,-0 -3.646,-1.304 -3.646,-3.388l-0,-31.771c-0,-1.562 -1.563,-2.862 -3.646,-2.862c-2.604,-0 -4.167,1.3 -4.167,2.862l0,33.855c-0.258,2.604 -1.041,5.991 -3.383,7.554c-3.125,1.821 -11.979,5.466 -16.408,6.508c-2.342,0 -3.125,-3.125 -3.125,-5.208l-0,-31.25c-0,-1.563 -1.821,-2.863 -3.646,-2.863c-2.604,0 -4.167,1.3 -4.167,2.863l0,35.158c0,3.646 -1.562,6.25 -3.125,7.029c-1.562,0.784 -6.771,2.867 -6.771,2.867c-1.82,0.521 -3.125,2.604 -3.125,4.167l0,18.487c0,1.563 0.784,2.346 2.084,2.346c1.041,-0 5.991,-2.346 6.771,-2.867c0.262,0 0.52,-0.258 0.783,-0.258c1.821,-0 3.383,2.604 3.383,4.687l0,25.78c0,2.866 -1.3,5.208 -2.862,5.991c-1.563,0.521 -7.034,2.863 -7.034,2.863c-1.82,0.521 -3.125,2.604 -3.125,4.166l0,18.492c0,1.563 0.784,2.342 2.084,2.342c0.262,-0 0.783,-0.259 1.041,-0.259c0,0 3.646,-1.562 5.992,-2.345c0.258,-0.259 0.521,-0.259 0.779,-0.259c1.825,0 3.125,2.863 3.125,4.167l0,32.029c0,1.563 1.563,2.867 3.388,2.867c2.604,-0 4.425,-1.304 4.425,-2.867l-0,-36.196c-0,-3.387 1.304,-5.208 2.604,-5.729l15.887,-6.512c0.259,-0 0.78,-0.259 1.042,-0.259c2.083,0 3.383,3.125 3.383,4.688l0,32.55c0,1.562 1.563,2.866 3.388,2.866c2.862,0 4.425,-1.304 4.425,-2.866l-0,-36.979c-0,-2.084 1.042,-5.209 2.867,-5.988c1.82,-0.783 7.291,-2.867 7.291,-2.867c1.821,-0.779 3.125,-2.862 3.125,-4.425l0,-18.491c0,-1.3 -0.783,-2.084 -1.825,-2.084c-0.521,0 -0.779,0 -1.3,0.263l-6.771,2.604c-1.562,0 -3.387,-1.562 -3.387,-4.687l-0,-24.221c-0,-1.821 1.304,-6.771 3.387,-7.55l6.771,-2.604" style="fill-rule:nonzero;"/></g><g><path d="M3759.69,292.242c23.175,-0 51.562,-21.354 51.562,-43.488c0,-13.283 -10.416,-21.617 -25.262,-21.617c-28.646,0 -51.563,21.096 -51.563,43.492c0,13.542 11.2,21.613 25.263,21.613" style="fill-rule:nonzero;"/></g><g><path d="M3905.03,239.117c-1.562,5.208 -13.804,10.416 -19.792,10.416c-1.562,0 -2.866,-0.52 -3.125,-1.3c-0.52,-1.041 -0.783,-6.77 -0.783,-13.02c0,-8.075 0.263,-17.188 0.783,-19.271c0.521,-4.429 12.5,-9.896 19.009,-9.896c1.825,-0 3.387,0.521 3.908,1.562c0.521,1.3 1.042,7.813 1.042,14.842c-0,7.033 -0.521,14.325 -1.042,16.667m17.967,-42.446c1.825,-0.784 3.125,-2.867 3.125,-4.429l-0,-18.488c-0,-1.304 -0.779,-2.083 -1.821,-2.083c-0.521,-0 -0.783,-0 -1.304,0.258c-0,0 -5.209,2.083 -6.509,2.346c-1.825,-0 -3.645,-1.304 -3.645,-3.388l-0,-31.77c-0,-1.563 -1.563,-2.863 -3.646,-2.863c-2.604,0 -4.167,1.3 -4.167,2.863l0,33.854c-0.262,2.604 -1.042,5.992 -3.387,7.554c-3.125,1.821 -11.98,5.467 -16.405,6.508c-2.345,0 -3.125,-3.125 -3.125,-5.208l0,-31.25c0,-1.563 -1.825,-2.863 -3.645,-2.863c-2.605,0 -4.167,1.3 -4.167,2.863l-0,35.158c-0,3.646 -1.563,6.25 -3.125,7.03c-1.563,0.783 -6.771,2.866 -6.771,2.866c-1.825,0.521 -3.125,2.604 -3.125,4.167l0,18.487c0,1.563 0.779,2.346 2.083,2.346c1.042,0 5.988,-2.346 6.771,-2.867c0.259,0 0.521,-0.258 0.779,-0.258c1.825,0 3.388,2.604 3.388,4.688l-0,25.779c-0,2.867 -1.304,5.208 -2.867,5.992c-1.562,0.52 -7.029,2.862 -7.029,2.862c-1.825,0.521 -3.125,2.604 -3.125,4.167l0,18.491c0,1.563 0.779,2.342 2.083,2.342c0.259,0 0.78,-0.258 1.042,-0.258c0,-0 3.646,-1.563 5.988,-2.346c0.262,-0.258 0.52,-0.258 0.783,-0.258c1.821,-0 3.125,2.862 3.125,4.166l-0,32.029c-0,1.563 1.562,2.867 3.383,2.867c2.604,0 4.429,-1.304 4.429,-2.867l0,-36.195c0,-3.388 1.3,-5.209 2.605,-5.73l15.883,-6.512c0.262,-0 0.783,-0.258 1.042,-0.258c2.083,-0 3.387,3.125 3.387,4.687l0,32.55c0,1.563 1.563,2.867 3.383,2.867c2.867,-0 4.43,-1.304 4.43,-2.867l-0,-36.979c-0,-2.083 1.041,-5.208 2.862,-5.988c1.825,-0.783 7.292,-2.866 7.292,-2.866c1.825,-0.78 3.125,-2.863 3.125,-4.425l-0,-18.492c-0,-1.3 -0.779,-2.083 -1.821,-2.083c-0.521,-0 -0.783,-0 -1.304,0.262l-6.771,2.604c-1.563,0 -3.383,-1.562 -3.383,-4.687l-0,-24.221c-0,-1.821 1.3,-6.771 3.383,-7.55l6.771,-2.604" style="fill-rule:nonzero;"/></g><g><path d="M3967.48,259.95c23.18,0 51.563,-21.354 51.563,-43.487c-0,-13.284 -10.417,-21.617 -25.258,-21.617c-28.646,-0 -51.563,21.096 -51.563,43.492c0,13.541 11.196,21.612 25.258,21.612" style="fill-rule:nonzero;"/></g><g><path d="M4117.78,195.367c23.179,-0 51.563,-21.354 51.563,-43.488c-0,-13.283 -10.417,-21.616 -25.259,-21.616c-28.646,-0 -51.562,21.095 -51.562,43.491c-0,13.542 11.196,21.613 25.258,21.613" style="fill-rule:nonzero;"/></g><g><path d="M4268.03,163.075c23.175,0 51.563,-21.354 51.563,-43.488c-0,-13.283 -10.417,-21.616 -25.263,-21.616c-28.646,-0 -51.562,21.096 -51.562,43.491c-0,13.542 11.2,21.613 25.262,21.613" style="fill-rule:nonzero;"/></g><g><path d="M4418.32,195.367c23.175,-0 51.562,-21.354 51.562,-43.488c0,-13.283 -10.416,-21.616 -25.262,-21.616c-28.646,-0 -51.563,21.095 -51.563,43.491c0,13.542 11.2,21.613 25.263,21.613" style="fill-rule:nonzero;"/></g><g><path d="M4568.61,259.95c23.18,0 51.563,-21.354 51.563,-43.487c-0,-13.284 -10.417,-21.617 -25.258,-21.617c-28.646,-0 -51.563,21.096 -51.563,43.492c0,13.541 11.196,21.612 25.258,21.612" style="fill-rule:nonzero;"/></g><g><path d="M4805.03,271.408c-1.562,5.209 -13.804,10.417 -19.792,10.417c-1.562,0 -2.866,-0.521 -3.125,-1.3c-0.52,-1.042 -0.783,-6.771 -0.783,-13.021c0,-8.075 0.263,-17.187 0.783,-19.271c0.521,-4.429 12.5,-9.895 19.009,-9.895c1.825,-0 3.387,0.52 3.908,1.562c0.521,1.3 1.042,7.813 1.042,14.842c-0,7.033 -0.521,14.325 -1.042,16.666m17.967,-42.445c1.825,-0.784 3.125,-2.867 3.125,-4.43l-0,-18.487c-0,-1.304 -0.779,-2.083 -1.821,-2.083c-0.521,-0 -0.783,-0 -1.304,0.258c-0,-0 -5.209,2.083 -6.509,2.346c-1.825,-0 -3.645,-1.304 -3.645,-3.388l-0,-31.771c-0,-1.562 -1.563,-2.862 -3.646,-2.862c-2.604,-0 -4.167,1.3 -4.167,2.862l0,33.855c-0.262,2.604 -1.042,5.991 -3.387,7.554c-3.125,1.821 -11.98,5.466 -16.405,6.508c-2.345,0 -3.125,-3.125 -3.125,-5.208l0,-31.25c0,-1.563 -1.825,-2.863 -3.645,-2.863c-2.605,0 -4.167,1.3 -4.167,2.863l-0,35.158c-0,3.646 -1.563,6.25 -3.125,7.029c-1.563,0.784 -6.771,2.867 -6.771,2.867c-1.825,0.521 -3.125,2.604 -3.125,4.167l0,18.487c0,1.563 0.779,2.346 2.083,2.346c1.042,-0 5.988,-2.346 6.771,-2.867c0.259,0 0.521,-0.258 0.779,-0.258c1.825,-0 3.388,2.604 3.388,4.687l-0,25.78c-0,2.866 -1.304,5.208 -2.867,5.991c-1.562,0.521 -7.029,2.863 -7.029,2.863c-1.825,0.521 -3.125,2.604 -3.125,4.166l0,18.492c0,1.563 0.779,2.342 2.083,2.342c0.259,-0 0.78,-0.259 1.042,-0.259c0,0 3.646,-1.562 5.988,-2.345c0.262,-0.259 0.52,-0.259 0.783,-0.259c1.821,0 3.125,2.863 3.125,4.167l-0,32.029c-0,1.563 1.562,2.867 3.383,2.867c2.604,-0 4.429,-1.304 4.429,-2.867l0,-36.196c0,-3.387 1.3,-5.208 2.605,-5.729l15.883,-6.512c0.262,-0 0.783,-0.259 1.042,-0.259c2.083,0 3.387,3.125 3.387,4.688l0,32.55c0,1.562 1.563,2.866 3.383,2.866c2.867,0 4.43,-1.304 4.43,-2.866l-0,-36.979c-0,-2.084 1.041,-5.209 2.862,-5.988c1.825,-0.783 7.292,-2.867 7.292,-2.867c1.825,-0.779 3.125,-2.862 3.125,-4.425l-0,-18.491c-0,-1.3 -0.779,-2.084 -1.821,-2.084c-0.521,0 -0.783,0 -1.304,0.263l-6.771,2.604c-1.563,0 -3.383,-1.562 -3.383,-4.687l-0,-24.221c-0,-1.821 1.3,-6.771 3.383,-7.55l6.771,-2.604" style="fill-rule:nonzero;"/></g><g><path d="M4867.48,292.242c23.18,-0 51.563,-21.354 51.563,-43.488c-0,-13.283 -10.417,-21.617 -25.258,-21.617c-28.646,0 -51.563,21.096 -51.563,43.492c0,13.542 11.196,21.613 25.258,21.613" style="fill-rule:nonzero;"/></g><g><path d="M5017.78,324.533c23.179,0 51.563,-21.354 51.563,-43.487c-0,-13.283 -10.417,-21.617 -25.259,-21.617c-28.646,0 -51.562,21.096 -51.562,43.492c-0,13.541 11.196,21.612 25.258,21.612" style="fill-rule:nonzero;"/></g><g><path d="M5131.61,313.075c0,0 -0.783,-15.625 -0.783,-26.042c0,-4.166 0.263,-7.291 0.521,-8.333c1.825,-5.208 12.242,-12.758 18.229,-12.758c7.554,-0 10.679,8.591 10.679,15.104c0,14.062 -11.979,28.125 -23.179,35.154c-1.042,0.521 -1.821,0.783 -2.604,0.783c-2.342,0 -2.863,-2.604 -2.863,-3.908m-9.116,23.179c0.783,1.042 1.562,1.3 2.346,1.3c0.779,0 1.562,-0.521 1.562,-0.521c7.813,-4.425 14.063,-11.458 20.571,-15.883c23.179,-16.146 31.25,-32.033 31.25,-44.012c-0,-14.842 -11.458,-24.217 -23.438,-25.001c-4.425,0 -10.675,2.084 -14.32,4.43c-1.563,1.3 -4.43,3.645 -5.73,3.645c-0.52,0 -0.783,0 -1.304,-0.262c-1.821,-0.779 -2.862,-2.604 -2.862,-4.425c0.258,-5.729 1.821,-68.229 1.821,-73.437c-0,-2.867 -2.342,-4.43 -4.946,-4.43c-3.646,0 -7.813,2.605 -8.075,7.292c-0,0 1.041,148.7 3.125,151.304" style="fill-rule:nonzero;"/></g><g><path d="M5219.57,324.533c23.179,0 51.562,-21.354 51.562,-43.487c0,-13.283 -10.416,-21.617 -25.258,-21.617c-28.646,0 -51.563,21.096 -51.563,43.492c0,13.541 11.196,21.612 25.259,21.612" style="fill-rule:nonzero;"/></g><g><path d="M5333.4,345.367c0,-0 -0.779,-15.625 -0.779,-26.042c-0,-4.167 0.258,-7.292 0.521,-8.333c1.821,-5.209 12.237,-12.759 18.229,-12.759c7.55,0 10.675,8.592 10.675,15.104c-0,14.063 -11.979,28.125 -23.175,35.155c-1.042,0.521 -1.825,0.783 -2.604,0.783c-2.346,0 -2.867,-2.604 -2.867,-3.908m-9.112,23.179c0.779,1.042 1.562,1.3 2.341,1.3c0.784,-0 1.563,-0.521 1.563,-0.521c7.812,-4.425 14.062,-11.458 20.575,-15.883c23.175,-16.146 31.25,-32.034 31.25,-44.013c-0,-14.841 -11.459,-24.216 -23.438,-25c-4.429,0 -10.679,2.084 -14.325,4.429c-1.562,1.3 -4.425,3.646 -5.729,3.646c-0.521,0 -0.779,0 -1.3,-0.262c-1.825,-0.779 -2.867,-2.604 -2.867,-4.425c0.263,-5.729 1.825,-68.229 1.825,-73.438c0,-2.866 -2.345,-4.429 -4.95,-4.429c-3.645,0 -7.812,2.604 -8.07,7.292c-0,-0 1.041,148.7 3.125,151.304" style="fill-rule:nonzero;"/></g><g><path d="M5421.36,356.825c23.175,0 51.559,-21.354 51.559,-43.488c-0,-13.283 -10.417,-21.616 -25.259,-21.616c-28.645,-0 -51.562,21.096 -51.562,43.491c-0,13.542 11.2,21.613 25.262,21.613" style="fill-rule:nonzero;"/></g><g><path d="M5571.65,389.117c23.179,-0 51.563,-21.354 51.563,-43.488c-0,-13.283 -10.417,-21.616 -25.259,-21.616c-28.646,-0 -51.562,21.095 -51.562,43.491c-0,13.542 11.196,21.613 25.258,21.613" style="fill-rule:nonzero;"/></g><g><path d="M5721.94,421.408c23.175,0 51.562,-21.354 51.562,-43.487c0,-13.283 -10.416,-21.617 -25.262,-21.617c-28.646,0 -51.563,21.096 -51.563,43.492c0,13.542 11.2,21.612 25.263,21.612" style="fill-rule:nonzero;"/></g><g><path d="M5841.44,465.158c-1.563,5.209 -13.8,10.417 -19.792,10.417c-1.562,0 -2.862,-0.521 -3.125,-1.3c-0.521,-1.042 -0.779,-6.771 -0.779,-13.021c-0,-8.075 0.258,-17.187 0.779,-19.271c0.521,-4.429 12.5,-9.895 19.013,-9.895c1.82,-0 3.383,0.52 3.904,1.562c0.521,1.3 1.041,7.813 1.041,14.842c0,7.033 -0.52,14.325 -1.041,16.666m17.971,-42.445c1.82,-0.784 3.125,-2.867 3.125,-4.43l-0,-18.487c-0,-1.304 -0.784,-2.083 -1.825,-2.083c-0.521,-0 -0.78,-0 -1.3,0.258c-0,-0 -5.209,2.083 -6.513,2.346c-1.821,-0 -3.646,-1.304 -3.646,-3.388l0,-31.771c0,-1.562 -1.562,-2.862 -3.646,-2.862c-2.604,-0 -4.166,1.3 -4.166,2.862l-0,33.855c-0.259,2.604 -1.042,5.991 -3.384,7.554c-3.125,1.821 -11.979,5.466 -16.408,6.508c-2.342,0 -3.125,-3.125 -3.125,-5.208l0,-31.25c0,-1.563 -1.821,-2.863 -3.646,-2.863c-2.604,0 -4.166,1.3 -4.166,2.863l-0,35.158c-0,3.646 -1.563,6.25 -3.125,7.029c-1.563,0.784 -6.771,2.867 -6.771,2.867c-1.821,0.521 -3.125,2.604 -3.125,4.167l-0,18.487c-0,1.563 0.783,2.346 2.083,2.346c1.042,-0 5.992,-2.346 6.771,-2.867c0.262,0 0.521,-0.258 0.783,-0.258c1.821,-0 3.384,2.604 3.384,4.687l-0,25.78c-0,2.866 -1.3,5.208 -2.863,5.991c-1.562,0.521 -7.033,2.863 -7.033,2.863c-1.821,0.521 -3.125,2.604 -3.125,4.166l-0,18.492c-0,1.563 0.783,2.342 2.083,2.342c0.263,-0 0.783,-0.259 1.042,-0.259c-0,0 3.646,-1.562 5.991,-2.345c0.259,-0.259 0.521,-0.259 0.78,-0.259c1.825,0 3.125,2.863 3.125,4.167l-0,32.029c-0,1.563 1.562,2.867 3.387,2.867c2.604,-0 4.425,-1.304 4.425,-2.867l0,-36.196c0,-3.387 1.304,-5.208 2.604,-5.729l15.888,-6.512c0.258,-0 0.779,-0.259 1.041,-0.259c2.084,0 3.384,3.125 3.384,4.688l-0,32.55c-0,1.562 1.562,2.866 3.387,2.866c2.863,0 4.425,-1.304 4.425,-2.866l0,-36.979c0,-2.084 1.042,-5.209 2.867,-5.988c1.821,-0.783 7.292,-2.867 7.292,-2.867c1.82,-0.779 3.125,-2.862 3.125,-4.425l-0,-18.491c-0,-1.3 -0.784,-2.084 -1.825,-2.084c-0.521,0 -0.78,0 -1.3,0.263l-6.771,2.604c-1.563,0 -3.388,-1.562 -3.388,-4.687l0,-24.221c0,-1.821 1.304,-6.771 3.388,-7.55l6.771,-2.604" style="fill-rule:nonzero;"/></g><g><path d="M5903.9,485.992c23.175,-0 51.563,-21.354 51.563,-43.488c-0,-13.283 -10.417,-21.616 -25.263,-21.616c-28.646,-0 -51.562,21.095 -51.562,43.491c-0,13.542 11.2,21.613 25.262,21.613" style="fill-rule:nonzero;"/></g><g><path d="M6023.4,497.45c-1.562,5.208 -13.8,10.417 -19.792,10.417c-1.562,-0 -2.862,-0.521 -3.125,-1.3c-0.52,-1.042 -0.779,-6.771 -0.779,-13.021c0,-8.075 0.259,-17.188 0.779,-19.271c0.521,-4.429 12.5,-9.896 19.013,-9.896c1.821,0 3.383,0.521 3.904,1.563c0.521,1.3 1.042,7.812 1.042,14.841c-0,7.034 -0.521,14.325 -1.042,16.667m17.971,-42.446c1.821,-0.783 3.125,-2.866 3.125,-4.429l-0,-18.487c-0,-1.305 -0.783,-2.084 -1.825,-2.084c-0.521,0 -0.779,0 -1.3,0.259c-0,-0 -5.208,2.083 -6.513,2.345c-1.82,0 -3.645,-1.304 -3.645,-3.387l-0,-31.771c-0,-1.562 -1.563,-2.862 -3.646,-2.862c-2.604,-0 -4.167,1.3 -4.167,2.862l0,33.854c-0.258,2.604 -1.042,5.992 -3.383,7.554c-3.125,1.821 -11.979,5.467 -16.409,6.509c-2.341,-0 -3.125,-3.125 -3.125,-5.209l0,-31.25c0,-1.562 -1.82,-2.862 -3.645,-2.862c-2.605,-0 -4.167,1.3 -4.167,2.862l-0,35.159c-0,3.646 -1.563,6.25 -3.125,7.029c-1.563,0.783 -6.771,2.867 -6.771,2.867c-1.821,0.52 -3.125,2.604 -3.125,4.166l0,18.488c0,1.562 0.783,2.346 2.083,2.346c1.042,-0 5.992,-2.346 6.771,-2.867c0.263,-0 0.521,-0.258 0.784,-0.258c1.82,-0 3.383,2.604 3.383,4.687l-0,25.779c-0,2.867 -1.3,5.209 -2.863,5.992c-1.562,0.521 -7.033,2.862 -7.033,2.862c-1.821,0.521 -3.125,2.605 -3.125,4.167l0,18.492c0,1.562 0.783,2.341 2.083,2.341c0.263,0 0.784,-0.258 1.042,-0.258c0,0 3.646,-1.562 5.992,-2.346c0.258,-0.258 0.521,-0.258 0.779,-0.258c1.825,-0 3.125,2.862 3.125,4.167l-0,32.029c-0,1.562 1.562,2.866 3.387,2.866c2.605,0 4.425,-1.304 4.425,-2.866l0,-36.196c0,-3.388 1.305,-5.208 2.605,-5.729l15.887,-6.513c0.258,0 0.779,-0.258 1.042,-0.258c2.083,-0 3.383,3.125 3.383,4.687l0,32.55c0,1.563 1.563,2.867 3.388,2.867c2.862,0 4.425,-1.304 4.425,-2.867l-0,-36.979c-0,-2.083 1.041,-5.208 2.866,-5.987c1.821,-0.784 7.292,-2.867 7.292,-2.867c1.821,-0.779 3.125,-2.862 3.125,-4.425l-0,-18.492c-0,-1.3 -0.783,-2.083 -1.825,-2.083c-0.521,0 -0.779,0 -1.3,0.263l-6.771,2.604c-1.562,-0 -3.387,-1.563 -3.387,-4.688l-0,-24.221c-0,-1.82 1.304,-6.77 3.387,-7.55l6.771,-2.604" style="fill-rule:nonzero;"/></g><g><path d="M6085.86,518.283c23.175,0 51.563,-21.354 51.563,-43.487c-0,-13.283 -10.417,-21.617 -25.263,-21.617c-28.645,0 -51.562,21.096 -51.562,43.492c-0,13.542 11.2,21.612 25.262,21.612" style="fill-rule:nonzero;"/></g><g><path d="M6171.28,507.867c0,-3.646 15.888,-10.417 22.138,-10.417c1.562,0 2.341,0.263 2.341,1.304l0,26.821c0,4.688 -14.841,10.679 -21.354,10.679c-1.821,0 -3.125,-0.521 -3.125,-1.562l0,-26.825m27.083,-36.979c-0.52,-0 -0.779,0.262 -1.041,0.262c-0,0 -16.667,5.988 -23.438,5.988c-1.562,-0 -2.604,-0.259 -2.604,-1.3l0,-43.492c0,-1.821 -1.562,-3.125 -3.125,-3.125l-3.383,-0c-1.825,-0 -3.125,1.304 -3.125,3.125l-0,134.117c-0,1.562 0.779,2.341 2.083,2.341c0.258,0 1.563,-0.258 1.821,-0.521c3.646,-1.562 18.229,-7.812 25.783,-7.812c2.604,-0 4.425,0.783 4.425,2.867l0,38.8c0,1.825 1.304,3.125 3.125,3.125l3.388,-0c1.562,-0 3.125,-1.3 3.125,-3.125l-0,-130.73c-0,-1.3 -1.042,-2.083 -2.084,-2.083c-0.262,0 -0.783,0 -1.041,0.263l-3.909,1.3" style="fill-rule:nonzero;"/></g><g><path d="M6246.78,550.575c23.179,0 51.563,-21.354 51.563,-43.487c-0,-13.284 -10.417,-21.617 -25.259,-21.617c-28.646,-0 -51.562,21.096 -51.562,43.492c-0,13.541 11.196,21.612 25.258,21.612" style="fill-rule:nonzero;"/></g><g><path d="M6334.78,539.117c0,-0 -0.779,-15.625 -0.779,-26.042c-0,-4.167 0.258,-7.292 0.521,-8.333c1.821,-5.209 12.237,-12.759 18.229,-12.759c7.55,0 10.675,8.592 10.675,15.105c-0,14.062 -11.979,28.125 -23.175,35.154c-1.042,0.521 -1.825,0.783 -2.604,0.783c-2.346,0 -2.867,-2.604 -2.867,-3.908m-9.112,23.179c0.779,1.042 1.562,1.3 2.341,1.3c0.784,-0 1.563,-0.521 1.563,-0.521c7.812,-4.425 14.062,-11.458 20.575,-15.883c23.175,-16.146 31.25,-32.034 31.25,-44.013c-0,-14.841 -11.459,-24.216 -23.438,-25c-4.429,0 -10.679,2.084 -14.325,4.429c-1.562,1.3 -4.425,3.646 -5.729,3.646c-0.521,0 -0.779,0 -1.3,-0.262c-1.825,-0.779 -2.867,-2.604 -2.867,-4.425c0.263,-5.729 1.825,-68.229 1.825,-73.438c0,-2.866 -2.345,-4.429 -4.95,-4.429c-3.645,0 -7.812,2.604 -8.07,7.292c-0,-0 1.041,148.7 3.125,151.304" style="fill-rule:nonzero;"/></g><g><path d="M6422.73,550.575c23.175,0 51.563,-21.354 51.563,-43.487c-0,-13.284 -10.417,-21.617 -25.263,-21.617c-28.645,-0 -51.562,21.096 -51.562,43.492c-0,13.541 11.2,21.612 25.262,21.612" style="fill-rule:nonzero;"/></g><g><path d="M6510.73,571.408c0,0 -0.779,-15.625 -0.779,-26.041c0,-4.167 0.259,-7.292 0.521,-8.334c1.821,-5.208 12.238,-12.758 18.229,-12.758c7.55,0 10.675,8.592 10.675,15.104c0,14.063 -11.979,28.125 -23.175,35.154c-1.041,0.521 -1.825,0.784 -2.604,0.784c-2.346,-0 -2.867,-2.604 -2.867,-3.909m-9.112,23.18c0.779,1.041 1.562,1.3 2.342,1.3c0.783,-0 1.562,-0.521 1.562,-0.521c7.813,-4.425 14.063,-11.459 20.575,-15.884c23.175,-16.145 31.25,-32.033 31.25,-44.012c0,-14.842 -11.458,-24.217 -23.437,-25c-4.43,-0 -10.68,2.083 -14.325,4.429c-1.563,1.3 -4.425,3.646 -5.73,3.646c-0.52,-0 -0.779,-0 -1.3,-0.263c-1.825,-0.779 -2.866,-2.604 -2.866,-4.425c0.262,-5.729 1.825,-68.229 1.825,-73.437c-0,-2.867 -2.346,-4.429 -4.95,-4.429c-3.646,-0 -7.813,2.604 -8.071,7.291c-0,0 1.042,148.7 3.125,151.305" style="fill-rule:nonzero;"/></g><g><path d="M6598.69,582.867c23.175,-0 51.562,-21.354 51.562,-43.488c0,-13.283 -10.416,-21.616 -25.262,-21.616c-28.646,-0 -51.563,21.095 -51.563,43.491c0,13.542 11.2,21.613 25.263,21.613" style="fill-rule:nonzero;"/></g><g><path d="M6748.98,615.158c23.18,0 51.563,-21.354 51.563,-43.487c-0,-13.283 -10.417,-21.617 -25.258,-21.617c-28.646,0 -51.563,21.096 -51.563,43.492c0,13.542 11.2,21.612 25.258,21.612" style="fill-rule:nonzero;"/></g><g><path d="M135.664,514.379c0.779,4.946 0.779,4.688 -3.909,6.25c-22.916,7.813 -37.758,28.384 -37.758,50.521c-0,23.438 12.237,40.104 29.946,46.092c2.083,0.783 5.208,1.562 7.033,1.562c2.083,0 3.125,-1.3 3.125,-2.862c0,-1.825 -2.083,-2.604 -3.908,-3.388c-10.938,-4.687 -18.75,-15.883 -18.75,-27.862c-0,-14.846 10.158,-26.042 26.041,-30.471c4.167,-1.042 4.688,-0.779 5.209,2.083l13.021,77.604c0.52,2.867 0.262,2.867 -3.646,3.646c-4.167,0.784 -9.375,1.304 -14.584,1.304c-45.57,0 -75,-25.262 -75,-61.458c0,-15.367 2.605,-35.937 24.221,-60.417c15.625,-17.45 27.604,-27.083 39.842,-36.979c2.604,-2.083 3.125,-1.825 3.646,1.042l5.471,33.333m28.383,-177.346c8.596,0 15.625,7.034 15.625,21.355c-0,28.908 -24.738,52.345 -45.313,70.312c-1.82,1.563 -2.862,1.304 -3.383,-2.083c-1.042,-6.771 -1.562,-15.625 -1.562,-23.959c-0,-40.625 18.75,-65.625 34.633,-65.625m-10.417,218.75c-0.521,-3.125 -0.258,-3.904 2.867,-3.645c21.092,1.825 38.542,19.533 38.542,42.45c-0,16.404 -9.896,29.687 -24.48,36.979c-3.125,1.562 -3.645,1.562 -4.166,-1.563l-12.763,-74.221m-14.062,-81.25c-0.521,-3.125 -0,-3.383 1.562,-4.945c28.125,-26.305 49.479,-59.375 49.479,-99.221c0,-22.655 -6.25,-45.05 -16.925,-60.675c-3.908,-5.73 -10.679,-13.021 -13.541,-13.021c-3.646,-0 -11.721,6.771 -16.929,12.5c-19.271,21.354 -25.521,53.904 -25.521,80.987c-0,15.105 1.825,32.034 3.646,42.709c0.52,3.125 0.783,3.646 -2.342,6.25c-37.5,30.991 -77.346,68.229 -77.346,120.833c0,45.313 30.992,88.283 94.792,88.283c5.991,0 12.762,-0.52 17.971,-1.562c2.862,-0.521 3.383,-0.783 3.904,2.342c3.125,17.45 7.033,40.104 7.033,52.345c0,38.542 -26.042,43.23 -41.408,43.23c-14.063,-0 -20.834,-4.167 -20.834,-7.555c0,-1.821 2.346,-2.604 8.334,-4.425c8.075,-2.346 17.45,-9.375 17.45,-24.479c-0,-14.325 -9.117,-26.562 -25,-26.562c-17.45,-0 -27.867,13.8 -27.867,29.946c0,16.929 10.158,42.449 49.479,42.449c17.45,0 51.304,-7.812 51.304,-52.083c0,-14.846 -4.687,-39.583 -7.554,-55.729c-0.521,-3.125 -0.258,-2.867 3.388,-4.429c26.3,-10.417 43.75,-32.55 43.75,-61.979c-0,-33.334 -24.479,-62.759 -62.763,-62.759c-6.771,0 -6.771,0 -7.55,-4.687l-6.512,-37.763" style="fill-rule:nonzero;"/></g><g><text x="563.322px" y="926.196px" style="font-family:'Bravura';font-size:260.417px;"></text></g><g><text x="1159.66px" y="867.025px" style="font-family:'Bravura';font-size:260.417px;"></text></g><g><text x="1680.87px" y="760.988px" style="font-family:'Bravura';font-size:260.417px;"></text></g><g><text x="2153.26px" y="841.721px" style="font-family:'Bravura';font-size:260.417px;"></text></g><g><text x="2773.19px" y="764.492px" style="font-family:'Bravura';font-size:260.417px;"></text></g><g><text x="3293.84px" y="760.992px" style="font-family:'Bravura';font-size:260.417px;"></text></g><g><text x="3874.94px" y="760.992px" style="font-family:'Bravura';font-size:260.417px;"></text></g><g><text x="4354.57px" y="760.992px" style="font-family:'Bravura';font-size:260.417px;"></text></g><g><text x="4979.78px" y="760.992px" style="font-family:'Bravura';font-size:260.417px;"></text></g><g><text x="5507.9px" y="760.992px" style="font-family:'Bravura';font-size:260.417px;"></text></g><g><text x="6011.57px" y="822.963px" style="font-family:'Bravura';font-size:260.417px;"></text></g><g><text x="6522.11px" y="877.071px" style="font-family:'Bravura';font-size:260.417px;"></text></g><g><path d="M430.718,550.317l-0,-32.396l411.325,-32.292l-0,32.396l-411.325,32.292" style="fill-rule:nonzero;"/></g><g><path d="M1021.08,534.171l0,-32.683l423.309,-64.584l-0,32.684l-423.309,64.583" style="fill-rule:nonzero;"/></g><g><path d="M1586.96,421.15l-0,-32.917l333.987,-64.583l0,32.917l-333.987,64.583" style="fill-rule:nonzero;"/></g><g><path d="M2020.17,727.921l-0,-32.292l350.912,0l0,32.292l-350.912,-0" style="fill-rule:nonzero;"/></g><g><path d="M2661.44,680.629l-0,-33.437l308.333,-80.729l0,33.437l-308.333,80.729" style="fill-rule:nonzero;"/></g><g><path d="M3138.13,550.342l0,-32.317l396.225,-16.146l0,32.317l-396.225,16.146" style="fill-rule:nonzero;"/></g><g><path d="M3734.36,534.208l0,-32.329l365.884,-16.146l-0,32.33l-365.884,16.145" style="fill-rule:nonzero;"/></g><g><path d="M4242.82,518.208l-0,-32.475l308.333,32.292l0,32.475l-308.333,-32.292" style="fill-rule:nonzero;"/></g><g><path d="M4842.15,518.025l0,-32.292l359.896,0l-0,32.292l-359.896,0" style="fill-rule:nonzero;"/></g><g><path d="M5396.07,582.792l-0,-32.475l308.333,32.291l0,32.475l-308.333,-32.291" style="fill-rule:nonzero;"/></g><g><path d="M5878.65,679.808l0,-32.616l350.65,48.437l0,32.617l-350.65,-48.438" style="fill-rule:nonzero;"/></g><g><path d="M6397.53,733.663l0,-32.659l333.983,48.438l0,32.658l-333.983,-48.438" style="fill-rule:nonzero;"/></g><g><path d="M340.351,918.063l191.017,-28.775l-0,-10.455l-180.729,27.225l-0,-36.433l-10.288,0" style="fill-rule:nonzero;"/></g><g><path d="M847.251,841.2l-175,26.279l0,-10.458l164.583,-25.479l0,-38.779l10.417,-0" style="fill-rule:nonzero;"/></g><g><path d="M930.714,858.688l197.008,-28.88l-0,-10.441l-186.721,27.354l0,-36.471l-10.287,-0" style="fill-rule:nonzero;"/></g><g><path d="M1449.6,782.179l-180.992,26.446l0,-10.458l170.575,-25.663l0,-38.762l10.417,-0" style="fill-rule:nonzero;"/></g><g><path d="M1496.6,713.338l151.954,-0.105l0,-10.337l-141.666,0.104l-0,-38.1l-10.288,0" style="fill-rule:nonzero;"/></g><g><path d="M1926.03,713.025l-135.804,0.092l-0,-10.325l125.521,-0.104l-0,-38.1l10.283,-0" style="fill-rule:nonzero;"/></g><g><path d="M9.364,1293.03l1867.7,0" style="fill:none;stroke:#000;stroke-width:8.38px;"/><path d="M9.364,1357.61l1867.7,0" style="fill:none;stroke:#000;stroke-width:8.38px;"/><path d="M9.364,1422.19l1867.7,-0" style="fill:none;stroke:#000;stroke-width:8.38px;"/><path d="M9.364,1486.78l1867.7,0" style="fill:none;stroke:#000;stroke-width:8.38px;"/><path d="M9.364,1551.36l1867.7,0" style="fill:none;stroke:#000;stroke-width:8.38px;"/></g><g><path d="M1835.79,1288.83l-0,266.721" style="fill:none;stroke:#000;stroke-width:10.33px;"/><path d="M1871.99,1288.83l-0,266.721" style="fill:none;stroke:#000;stroke-width:10.33px;"/></g><g><path d="M434.493,1292.24l-0,215.979" style="fill:none;stroke:#000;stroke-width:7.75px;"/><path d="M616.522,1332.61l-0,240.196" style="fill:none;stroke:#000;stroke-width:7.75px;"/><path d="M798.426,1372.97l0,232.125" style="fill:none;stroke:#000;stroke-width:7.75px;"/></g><g><path d="M714.83,1615.94l113.413,-0" style="fill:none;stroke:#000;stroke-width:10.33px;"/></g><g><path d="M985.272,1422.19l-0,215.196" style="fill:none;stroke:#000;stroke-width:7.75px;"/></g><g><path d="M902.589,1615.94l112.37,-0" style="fill:none;stroke:#000;stroke-width:10.33px;"/></g><g><path d="M1186.96,1422.19l-0,215.196" style="fill:none;stroke:#000;stroke-width:7.75px;"/></g><g><path d="M1104.41,1615.94l112.37,-0" style="fill:none;stroke:#000;stroke-width:10.33px;"/></g><g><path d="M1388.79,1422.19l-0,247.487" style="fill:none;stroke:#000;stroke-width:7.75px;"/></g><g><path d="M1305.19,1680.53l113.283,0" style="fill:none;stroke:#000;stroke-width:10.33px;"/><path d="M1290.09,1615.94l128.387,-0" style="fill:none;stroke:#000;stroke-width:10.33px;"/></g><g><path d="M1538.14,1422.19l-0,279.779" style="fill:none;stroke:#000;stroke-width:7.75px;"/></g><g><path d="M1439.44,1680.53l128.387,0" style="fill:none;stroke:#000;stroke-width:10.33px;"/><path d="M1439.44,1615.94l128.387,-0" style="fill:none;stroke:#000;stroke-width:10.33px;"/></g><g><path d="M413.889,1205l-0,-27.866c-0,-1.301 -0.259,-2.342 -1.563,-2.342c-1.042,-0 -1.821,0.258 -2.604,1.3l-7.813,15.104c-0.52,0.521 -1.3,1.304 -1.3,3.125l0,10.679l-16.929,0c10.679,-8.854 27.346,-38.283 27.604,-39.846c0,-0.258 0.263,-0.521 0.263,-0.779c-0,-1.042 -1.042,-1.825 -1.825,-1.825c-1.3,0 -6.771,0.521 -9.113,0.521c-2.345,0 -3.908,-0.521 -4.95,-0.521c-1.3,0 -3.125,0.521 -3.125,2.604c0,16.667 -13.541,35.679 -16.925,40.367c-0.52,0.521 -1.041,1.3 -1.041,2.083c-0,1.3 1.041,2.604 2.604,2.604l23.437,0l0,8.071c0,3.646 -2.083,4.688 -4.166,4.688c-2.346,-0 -3.388,1.042 -3.388,2.346c0,1.3 0.521,2.862 2.867,2.862l22.396,0c1.3,0 2.604,-1.042 2.604,-2.862c-0,-1.825 -1.563,-2.605 -2.867,-2.605c-1.3,0 -4.166,-0.783 -4.166,-4.949l-0,-7.551l9.637,0c1.3,0 2.083,-1.041 2.083,-2.604c0,-1.562 -0.52,-2.604 -2.083,-2.604l-9.637,0" style="fill-rule:nonzero;"/></g><g><path d="M607.801,1207.61c0,-1.825 -0.779,-2.083 -1.562,-2.083c-1.042,0 -1.563,0.779 -1.821,1.563c-1.304,3.645 -4.167,8.333 -8.075,8.333c-0.521,-0 -1.042,-0 -1.563,-0.263l-3.904,-1.3c-2.604,-1.041 -8.854,-3.125 -14.062,-3.125c-1.825,0 -3.388,0.259 -4.95,0.78c2.866,-4.946 16.408,-11.459 19.27,-12.238c9.375,-1.304 17.188,-6.771 17.188,-16.929c-0,-6.25 -2.604,-10.417 -5.988,-13.542c-6.77,-5.466 -16.666,-6.25 -19.533,-6.25c-9.375,0 -16.925,0.521 -23.696,8.333c-1.825,2.084 -2.604,4.167 -2.604,6.251c0,1.824 0.779,3.908 1.563,6.25c1.562,3.125 4.945,5.47 8.591,5.47c6.513,0 7.292,-6.25 7.292,-9.116c-0,-5.988 -6.508,-6.509 -6.508,-9.113c-0,-1.825 2.604,-4.95 10.416,-4.95c12.238,0 16.404,10.159 16.404,13.284c0,4.687 -1.562,9.112 -4.166,12.758c-4.688,5.991 -13.279,8.075 -19.792,12.241c-7.292,4.426 -12.237,11.98 -14.583,20.313c-0,1.821 0.783,3.904 2.346,4.687c0.258,0.259 0.779,0.259 1.041,0.259c2.863,-0 4.425,-8.071 12.238,-8.071c5.208,-0 7.033,7.029 18.75,7.029c5.471,0 15.625,-0.521 17.708,-20.571" style="fill-rule:nonzero;"/></g><g><path d="M749.034,1192.76c0,-0 -0.262,1.041 -0.262,1.825c-0,1.041 1.042,2.083 2.083,2.083c0.784,-0 1.304,-0.783 1.563,-1.042c0.262,-0.783 3.387,-11.458 4.95,-14.062c0.521,-1.042 1.041,-1.304 1.3,-1.304c0.521,-0 0.783,1.041 0.783,1.824l0,37.238c0,3.125 -2.604,4.95 -5.208,4.95c-1.042,-0 -2.346,0.521 -2.346,2.083c-0,1.563 1.304,2.084 3.387,2.084l21.875,-0c2.084,-0 2.084,-2.084 2.084,-2.084c-0,0 -0,-2.083 -2.084,-2.083c-1.825,-0 -4.166,-2.346 -4.166,-4.688l-0,-54.166c-0,-2.084 -0.784,-3.125 -2.604,-3.125c-1.825,-0 -3.388,0.521 -4.95,0.521c-2.605,-0 -3.125,-0 -5.209,-0.521c-1.041,-0 -2.341,1.562 -3.125,2.604l-8.071,27.862" style="fill-rule:nonzero;"/></g><g><path d="M964.568,1205l-0,-27.866c-0,-1.301 -0.259,-2.342 -1.563,-2.342c-1.041,-0 -1.821,0.258 -2.604,1.3l-7.812,15.104c-0.521,0.521 -1.3,1.304 -1.3,3.125l-0,10.679l-16.93,0c10.68,-8.854 27.346,-38.283 27.605,-39.846c-0,-0.258 0.262,-0.521 0.262,-0.779c0,-1.042 -1.042,-1.825 -1.825,-1.825c-1.3,0 -6.771,0.521 -9.112,0.521c-2.346,0 -3.909,-0.521 -4.95,-0.521c-1.3,0 -3.125,0.521 -3.125,2.604c-0,16.667 -13.542,35.679 -16.925,40.367c-0.521,0.521 -1.042,1.3 -1.042,2.083c-0,1.3 1.042,2.604 2.604,2.604l23.438,0l-0,8.071c-0,3.646 -2.084,4.688 -4.167,4.688c-2.346,-0 -3.388,1.042 -3.388,2.346c0,1.3 0.521,2.862 2.867,2.862l22.396,0c1.3,0 2.604,-1.042 2.604,-2.862c0,-1.825 -1.562,-2.605 -2.867,-2.605c-1.3,0 -4.166,-0.783 -4.166,-4.949l-0,-7.551l9.637,0c1.3,0 2.084,-1.041 2.084,-2.604c-0,-1.562 -0.521,-2.604 -2.084,-2.604l-9.637,0" style="fill-rule:nonzero;"/></g><g><path d="M1166.36,1205l-0,-27.866c-0,-1.301 -0.259,-2.342 -1.563,-2.342c-1.042,-0 -1.821,0.258 -2.604,1.3l-7.813,15.104c-0.52,0.521 -1.3,1.304 -1.3,3.125l0,10.679l-16.929,0c10.679,-8.854 27.346,-38.283 27.604,-39.846c0,-0.258 0.263,-0.521 0.263,-0.779c-0,-1.042 -1.042,-1.825 -1.825,-1.825c-1.3,0 -6.771,0.521 -9.113,0.521c-2.345,0 -3.908,-0.521 -4.95,-0.521c-1.3,0 -3.125,0.521 -3.125,2.604c0,16.667 -13.541,35.679 -16.925,40.367c-0.52,0.521 -1.041,1.3 -1.041,2.083c-0,1.3 1.041,2.604 2.604,2.604l23.437,0l0,8.071c0,3.646 -2.083,4.688 -4.166,4.688c-2.346,-0 -3.388,1.042 -3.388,2.346c0,1.3 0.521,2.862 2.867,2.862l22.396,0c1.3,0 2.604,-1.042 2.604,-2.862c-0,-1.825 -1.563,-2.605 -2.867,-2.605c-1.3,0 -4.166,-0.783 -4.166,-4.949l-0,-7.551l9.637,0c1.3,0 2.083,-1.041 2.083,-2.604c0,-1.562 -0.52,-2.604 -2.083,-2.604l-9.637,0" style="fill-rule:nonzero;"/></g><g><path d="M1380.1,1207.61c0,-1.825 -0.779,-2.083 -1.562,-2.083c-1.042,0 -1.563,0.779 -1.821,1.563c-1.304,3.645 -4.167,8.333 -8.075,8.333c-0.521,-0 -1.042,-0 -1.563,-0.263l-3.904,-1.3c-2.604,-1.041 -8.854,-3.125 -14.062,-3.125c-1.825,0 -3.388,0.259 -4.95,0.78c2.866,-4.946 16.408,-11.459 19.27,-12.238c9.375,-1.304 17.188,-6.771 17.188,-16.929c-0,-6.25 -2.604,-10.417 -5.988,-13.542c-6.77,-5.466 -16.666,-6.25 -19.533,-6.25c-9.375,0 -16.925,0.521 -23.696,8.333c-1.825,2.084 -2.604,4.167 -2.604,6.251c0,1.824 0.779,3.908 1.563,6.25c1.562,3.125 4.945,5.47 8.591,5.47c6.513,0 7.292,-6.25 7.292,-9.116c-0,-5.988 -6.508,-6.509 -6.508,-9.113c-0,-1.825 2.604,-4.95 10.416,-4.95c12.238,0 16.404,10.159 16.404,13.284c0,4.687 -1.562,9.112 -4.166,12.758c-4.688,5.991 -13.279,8.075 -19.792,12.241c-7.292,4.426 -12.237,11.98 -14.583,20.313c-0,1.821 0.783,3.904 2.346,4.687c0.258,0.259 0.779,0.259 1.041,0.259c2.863,-0 4.425,-8.071 12.238,-8.071c5.208,-0 7.033,7.029 18.75,7.029c5.471,0 15.625,-0.521 17.708,-20.571" style="fill-rule:nonzero;"/></g><g><path d="M1488.71,1192.76c0,-0 -0.262,1.041 -0.262,1.825c-0,1.041 1.042,2.083 2.083,2.083c0.784,-0 1.304,-0.783 1.563,-1.042c0.262,-0.783 3.387,-11.458 4.95,-14.062c0.521,-1.042 1.041,-1.304 1.3,-1.304c0.521,-0 0.783,1.041 0.783,1.824l0,37.238c0,3.125 -2.604,4.95 -5.208,4.95c-1.042,-0 -2.346,0.521 -2.346,2.083c-0,1.563 1.304,2.084 3.387,2.084l21.875,-0c2.084,-0 2.084,-2.084 2.084,-2.084c-0,0 -0,-2.083 -2.084,-2.083c-1.825,-0 -4.166,-2.346 -4.166,-4.688l-0,-54.166c-0,-2.084 -0.784,-3.125 -2.604,-3.125c-1.825,-0 -3.388,0.521 -4.95,0.521c-2.605,-0 -3.125,-0 -5.209,-0.521c-1.041,-0 -2.341,1.562 -3.125,2.604l-8.071,27.862" style="fill-rule:nonzero;"/></g><g><path d="M386.889,1551.62c23.175,-0 51.562,-21.354 51.562,-43.488c0,-13.283 -10.417,-21.616 -25.262,-21.616c-28.646,-0 -51.563,21.095 -51.563,43.491c0,13.542 11.2,21.613 25.263,21.613" style="fill-rule:nonzero;"/></g><g><path d="M506.397,1595.37c-1.563,5.208 -13.8,10.416 -19.792,10.416c-1.562,0 -2.862,-0.52 -3.125,-1.3c-0.521,-1.041 -0.779,-6.77 -0.779,-13.02c0,-8.075 0.258,-17.188 0.779,-19.271c0.521,-4.429 12.5,-9.896 19.013,-9.896c1.821,-0 3.383,0.521 3.904,1.562c0.521,1.3 1.042,7.813 1.042,14.842c-0,7.033 -0.521,14.325 -1.042,16.667m17.971,-42.446c1.821,-0.783 3.125,-2.867 3.125,-4.429l-0,-18.488c-0,-1.304 -0.784,-2.083 -1.825,-2.083c-0.521,-0 -0.779,-0 -1.3,0.258c-0,0 -5.209,2.084 -6.513,2.346c-1.821,0 -3.646,-1.304 -3.646,-3.387l0,-31.771c0,-1.563 -1.562,-2.863 -3.645,-2.863c-2.605,0 -4.167,1.3 -4.167,2.863l-0,33.854c-0.258,2.604 -1.042,5.992 -3.383,7.554c-3.125,1.821 -11.98,5.467 -16.409,6.508c-2.341,0 -3.125,-3.125 -3.125,-5.208l0,-31.25c0,-1.562 -1.821,-2.862 -3.646,-2.862c-2.604,-0 -4.166,1.3 -4.166,2.862l-0,35.158c-0,3.646 -1.563,6.25 -3.125,7.03c-1.563,0.783 -6.771,2.866 -6.771,2.866c-1.821,0.521 -3.125,2.604 -3.125,4.167l-0,18.487c-0,1.563 0.783,2.346 2.083,2.346c1.042,0 5.992,-2.346 6.771,-2.866c0.263,-0 0.521,-0.259 0.783,-0.259c1.821,0 3.384,2.604 3.384,4.688l-0,25.779c-0,2.867 -1.3,5.208 -2.863,5.992c-1.562,0.52 -7.033,2.862 -7.033,2.862c-1.821,0.521 -3.125,2.604 -3.125,4.167l-0,18.491c-0,1.563 0.783,2.342 2.083,2.342c0.263,0 0.784,-0.258 1.042,-0.258c-0,-0 3.646,-1.563 5.992,-2.346c0.258,-0.258 0.52,-0.258 0.779,-0.258c1.825,-0 3.125,2.862 3.125,4.166l-0,32.029c-0,1.563 1.562,2.867 3.387,2.867c2.604,0 4.425,-1.304 4.425,-2.867l0,-36.195c0,-3.388 1.304,-5.209 2.604,-5.73l15.888,-6.512c0.258,-0 0.779,-0.258 1.042,-0.258c2.083,-0 3.383,3.125 3.383,4.687l-0,32.55c-0,1.563 1.562,2.867 3.387,2.867c2.863,-0 4.425,-1.304 4.425,-2.867l0,-36.979c0,-2.083 1.042,-5.208 2.867,-5.988c1.821,-0.783 7.292,-2.866 7.292,-2.866c1.821,-0.779 3.125,-2.863 3.125,-4.425l-0,-18.492c-0,-1.3 -0.784,-2.083 -1.825,-2.083c-0.521,-0 -0.779,-0 -1.3,0.262l-6.771,2.604c-1.563,0 -3.388,-1.562 -3.388,-4.687l0,-24.221c0,-1.821 1.305,-6.771 3.388,-7.55l6.771,-2.604" style="fill-rule:nonzero;"/></g><g><path d="M568.855,1616.2c23.175,0 51.563,-21.354 51.563,-43.487c-0,-13.284 -10.417,-21.617 -25.263,-21.617c-28.646,-0 -51.562,21.096 -51.562,43.492c-0,13.541 11.2,21.612 25.262,21.612" style="fill-rule:nonzero;"/></g><g><path d="M688.364,1627.66c-1.563,5.209 -13.8,10.417 -19.792,10.417c-1.563,0 -2.863,-0.521 -3.125,-1.3c-0.521,-1.042 -0.779,-6.771 -0.779,-13.021c-0,-8.075 0.258,-17.187 0.779,-19.271c0.521,-4.429 12.5,-9.896 19.012,-9.896c1.821,0 3.384,0.521 3.905,1.563c0.52,1.3 1.041,7.812 1.041,14.842c0,7.033 -0.521,14.325 -1.041,16.666m17.97,-42.446c1.821,-0.783 3.125,-2.866 3.125,-4.429l0,-18.487c0,-1.304 -0.783,-2.084 -1.825,-2.084c-0.52,0 -0.779,0 -1.3,0.259c0,-0 -5.208,2.083 -6.512,2.346c-1.821,-0 -3.646,-1.304 -3.646,-3.388l0,-31.771c0,-1.562 -1.562,-2.862 -3.646,-2.862c-2.604,-0 -4.166,1.3 -4.166,2.862l-0,33.854c-0.259,2.605 -1.042,5.992 -3.384,7.555c-3.125,1.82 -11.979,5.466 -16.408,6.508c-2.342,-0 -3.125,-3.125 -3.125,-5.208l-0,-31.25c-0,-1.563 -1.821,-2.863 -3.646,-2.863c-2.604,0 -4.167,1.3 -4.167,2.863l0,35.158c0,3.646 -1.562,6.25 -3.125,7.029c-1.562,0.783 -6.77,2.867 -6.77,2.867c-1.821,0.521 -3.125,2.604 -3.125,4.166l-0,18.488c-0,1.563 0.783,2.346 2.083,2.346c1.042,-0 5.992,-2.346 6.771,-2.867c0.262,0 0.521,-0.258 0.783,-0.258c1.821,-0 3.383,2.604 3.383,4.687l0,25.78c0,2.866 -1.3,5.208 -2.862,5.991c-1.563,0.521 -7.033,2.863 -7.033,2.863c-1.821,0.521 -3.125,2.604 -3.125,4.166l-0,18.492c-0,1.563 0.783,2.342 2.083,2.342c0.262,-0 0.783,-0.259 1.042,-0.259c-0,0 3.645,-1.562 5.991,-2.345c0.259,-0.259 0.521,-0.259 0.779,-0.259c1.825,0 3.125,2.863 3.125,4.167l0,32.029c0,1.563 1.563,2.867 3.388,2.867c2.604,-0 4.425,-1.304 4.425,-2.867l-0,-36.196c-0,-3.387 1.304,-5.208 2.604,-5.729l15.888,-6.512c0.258,-0 0.779,-0.259 1.041,-0.259c2.084,0 3.384,3.125 3.384,4.688l-0,32.55c-0,1.562 1.562,2.866 3.387,2.866c2.863,0 4.425,-1.304 4.425,-2.866l0,-36.979c0,-2.084 1.042,-5.209 2.867,-5.988c1.821,-0.783 7.291,-2.867 7.291,-2.867c1.821,-0.779 3.125,-2.862 3.125,-4.425l0,-18.491c0,-1.3 -0.783,-2.084 -1.825,-2.084c-0.52,0 -0.779,0 -1.3,0.263l-6.77,2.604c-1.563,0 -3.388,-1.563 -3.388,-4.688l0,-24.22c0,-1.821 1.304,-6.771 3.388,-7.55l6.77,-2.604" style="fill-rule:nonzero;"/></g><g><path d="M750.818,1648.49c23.179,-0 51.562,-21.354 51.562,-43.488c0,-13.283 -10.416,-21.616 -25.258,-21.616c-28.646,-0 -51.563,21.095 -51.563,43.491c0,13.542 11.196,21.613 25.259,21.613" style="fill-rule:nonzero;"/></g><g><path d="M862.055,1638.08c0,-3.646 15.884,-10.417 22.134,-10.417c1.562,0 2.345,0.263 2.345,1.304l0,26.821c0,4.688 -14.845,10.679 -21.354,10.679c-1.825,0 -3.125,-0.52 -3.125,-1.562l0,-26.825m27.084,-36.979c-0.521,-0 -0.784,0.262 -1.042,0.262c-0,0 -16.667,5.988 -23.438,5.988c-1.562,-0 -2.604,-0.259 -2.604,-1.3l0,-43.492c0,-1.821 -1.562,-3.125 -3.125,-3.125l-3.387,0c-1.821,0 -3.125,1.304 -3.125,3.125l-0,134.117c-0,1.562 0.783,2.341 2.083,2.341c0.263,0.001 1.563,-0.258 1.825,-0.52c3.646,-1.563 18.229,-7.813 25.779,-7.813c2.604,0 4.429,0.784 4.429,2.867l0,38.8c0,1.825 1.3,3.125 3.125,3.125l3.384,-0c1.562,-0 3.125,-1.3 3.125,-3.125l-0,-130.729c-0,-1.3 -1.042,-2.084 -2.084,-2.084c-0.258,0 -0.779,0 -1.041,0.263l-3.904,1.3" style="fill-rule:nonzero;"/></g><g><path d="M937.564,1680.78c23.175,0 51.562,-21.354 51.562,-43.487c0,-13.283 -10.417,-21.617 -25.262,-21.617c-28.646,0 -51.563,21.096 -51.563,43.492c0,13.542 11.2,21.612 25.263,21.612" style="fill-rule:nonzero;"/></g><g><path d="M1051.39,1669.33c-0,0 -0.784,-15.625 -0.784,-26.042c0,-4.166 0.263,-7.291 0.521,-8.333c1.825,-5.208 12.242,-12.758 18.229,-12.758c7.555,-0 10.68,8.591 10.68,15.104c-0,14.062 -11.98,28.125 -23.18,35.154c-1.041,0.521 -1.82,0.783 -2.604,0.783c-2.341,0 -2.862,-2.604 -2.862,-3.908m-9.117,23.179c0.783,1.042 1.563,1.3 2.346,1.3c0.779,0 1.562,-0.521 1.562,-0.521c7.813,-4.425 14.063,-11.458 20.571,-15.883c23.179,-16.146 31.25,-32.033 31.25,-44.012c0,-14.842 -11.458,-24.217 -23.437,-25c-4.425,-0 -10.675,2.083 -14.321,4.429c-1.563,1.3 -4.429,3.645 -5.729,3.645c-0.521,0 -0.784,0 -1.304,-0.262c-1.821,-0.779 -2.863,-2.604 -2.863,-4.425c0.258,-5.729 1.821,-68.229 1.821,-73.438c-0,-2.866 -2.342,-4.429 -4.946,-4.429c-3.646,0 -7.812,2.605 -8.075,7.292c0,0 1.042,148.7 3.125,151.304" style="fill-rule:nonzero;"/></g><g><path d="M1139.36,1680.78c23.18,0 51.563,-21.354 51.563,-43.487c-0,-13.283 -10.417,-21.617 -25.258,-21.617c-28.646,0 -51.563,21.096 -51.563,43.492c0,13.542 11.196,21.612 25.258,21.612" style="fill-rule:nonzero;"/></g><g><path d="M1253.19,1701.62c-0,-0 -0.784,-15.625 -0.784,-26.042c0,-4.167 0.263,-7.292 0.521,-8.333c1.825,-5.209 12.242,-12.759 18.229,-12.759c7.554,0 10.679,8.592 10.679,15.105c0,14.062 -11.979,28.125 -23.179,35.154c-1.041,0.521 -1.821,0.783 -2.604,0.783c-2.342,0 -2.862,-2.604 -2.862,-3.908m-9.117,23.179c0.783,1.042 1.562,1.3 2.346,1.3c0.779,-0 1.562,-0.521 1.562,-0.521c7.813,-4.425 14.063,-11.458 20.571,-15.883c23.179,-16.146 31.25,-32.034 31.25,-44.013c0,-14.841 -11.458,-24.216 -23.437,-25c-4.425,0 -10.675,2.084 -14.321,4.429c-1.563,1.3 -4.429,3.646 -5.729,3.646c-0.521,0 -0.784,0 -1.305,-0.262c-1.82,-0.78 -2.862,-2.604 -2.862,-4.425c0.258,-5.73 1.821,-68.23 1.821,-73.438c-0,-2.866 -2.342,-4.429 -4.946,-4.429c-3.646,0 -7.813,2.604 -8.075,7.292c-0,-0 1.042,148.7 3.125,151.304" style="fill-rule:nonzero;"/></g><g><path d="M1341.15,1713.08c23.179,0 51.563,-21.354 51.563,-43.487c-0,-13.284 -10.417,-21.617 -25.259,-21.617c-28.645,-0 -51.562,21.096 -51.562,43.492c-0,13.541 11.196,21.612 25.258,21.612" style="fill-rule:nonzero;"/></g><g><path d="M1484.76,1735.47c-5.471,-0 -8.596,-2.863 -10.417,-5.988c-0.783,-1.562 -1.563,-3.387 -1.563,-5.208c0,-12.762 37.759,-33.333 50,-33.333c4.946,-0 7.813,2.341 9.634,5.466c0.783,1.563 1.562,3.125 1.562,4.95c0,11.196 -36.716,34.113 -49.216,34.113m5.729,9.896c42.966,-0 51.562,-34.896 51.562,-43.488c0,-13.283 -10.679,-21.616 -25.783,-21.616c-38.8,-0 -51.042,29.95 -51.042,43.491c0,13.8 10.938,21.613 25.263,21.613" style="fill-rule:nonzero;"/></g><g><path d="M135.664,1418.55c0.779,4.946 0.779,4.687 -3.909,6.25c-22.916,7.812 -37.758,28.383 -37.758,50.521c-0,23.437 12.237,40.104 29.946,46.091c2.083,0.784 5.208,1.563 7.033,1.563c2.083,-0 3.125,-1.3 3.125,-2.863c0,-1.825 -2.083,-2.604 -3.908,-3.387c-10.938,-4.688 -18.75,-15.883 -18.75,-27.863c-0,-14.845 10.158,-26.041 26.041,-30.47c4.167,-1.042 4.688,-0.78 5.209,2.083l13.021,77.604c0.52,2.867 0.262,2.867 -3.646,3.646c-4.167,0.783 -9.375,1.304 -14.584,1.304c-45.57,0 -75,-25.262 -75,-61.458c0,-15.367 2.605,-35.938 24.221,-60.417c15.625,-17.45 27.604,-27.083 39.842,-36.979c2.604,-2.083 3.125,-1.825 3.646,1.042l5.471,33.333m28.383,-177.346c8.596,0 15.625,7.033 15.625,21.354c-0,28.909 -24.738,52.346 -45.313,70.313c-1.82,1.562 -2.862,1.304 -3.383,-2.084c-1.042,-6.77 -1.562,-15.625 -1.562,-23.958c-0,-40.625 18.75,-65.625 34.633,-65.625m-10.417,218.75c-0.521,-3.125 -0.258,-3.904 2.867,-3.646c21.092,1.825 38.542,19.534 38.542,42.45c-0,16.404 -9.896,29.688 -24.48,36.979c-3.125,1.563 -3.645,1.563 -4.166,-1.562l-12.763,-74.221m-14.062,-81.25c-0.521,-3.125 -0,-3.383 1.562,-4.946c28.125,-26.304 49.479,-59.375 49.479,-99.221c0,-22.654 -6.25,-45.05 -16.925,-60.675c-3.908,-5.729 -10.679,-13.021 -13.541,-13.021c-3.646,0 -11.721,6.771 -16.929,12.5c-19.271,21.355 -25.521,53.905 -25.521,80.988c-0,15.104 1.825,32.033 3.646,42.708c0.52,3.125 0.783,3.646 -2.342,6.25c-37.5,30.992 -77.346,68.229 -77.346,120.834c0,45.312 30.992,88.283 94.792,88.283c5.991,-0 12.762,-0.521 17.971,-1.563c2.862,-0.52 3.383,-0.783 3.904,2.342c3.125,17.45 7.033,40.104 7.033,52.346c0,38.542 -26.042,43.229 -41.408,43.229c-14.063,0 -20.834,-4.167 -20.834,-7.554c0,-1.821 2.346,-2.604 8.334,-4.425c8.075,-2.346 17.45,-9.375 17.45,-24.479c-0,-14.325 -9.117,-26.563 -25,-26.563c-17.45,0 -27.867,13.8 -27.867,29.946c0,16.929 10.158,42.45 49.479,42.45c17.45,0 51.304,-7.812 51.304,-52.083c0,-14.846 -4.687,-39.584 -7.554,-55.729c-0.521,-3.125 -0.258,-2.867 3.388,-4.429c26.3,-10.417 43.75,-32.551 43.75,-61.98c-0,-33.333 -24.479,-62.758 -62.763,-62.758c-6.771,0 -6.771,0 -7.55,-4.688l-6.512,-37.762" style="fill-rule:nonzero;"/></g><g><text x="543.489px" y="1772.3px" style="font-family:'Bravura';font-size:260.417px;"></text></g><g><text x="1114px" y="1828.23px" style="font-family:'Bravura';font-size:260.417px;"></text></g><g><path d="M430.718,1309.17l-0,-33.075l371.612,80.729l0,33.075l-371.612,-80.729" style="fill-rule:nonzero;"/></g><g><path d="M981.368,1454.48l-0,-32.291l411.325,-0l-0,32.291l-411.325,0" style="fill-rule:nonzero;"/></g><g><path d="M340.351,1683.98l171.354,28.463l0,-10.484l-161.066,-26.742l-0,-39.675l-10.288,0" style="fill-rule:nonzero;"/></g><g><path d="M807.539,1762.23l-155.209,-25.704l0,-10.479l144.921,24.817l0,-37.071l10.288,-0" style="fill-rule:nonzero;"/></g><g><path d="M891.001,1745.37l191.017,25.404l-0,-10.417l-180.729,-24.037l-0,-39.388l-10.288,0" style="fill-rule:nonzero;"/></g><g><path d="M1397.9,1813.26l-174.867,-23.204l0,-10.429l164.45,22.5l0,-37.304l10.417,-0" style="fill-rule:nonzero;"/></g></g></svg>