<?xml version="1.0" encoding="UTF-8" standalone="no"?><!DOCTYPE svg PUBLIC "-//W3C//DTD SVG 1.1//EN" "http://www.w3.org/Graphics/SVG/1.1/DTD/svg11.dtd"><svg width="100%" height="100%" viewBox="0 0 28724 7657" version="1.1" xmlns="http://www.w3.org/2000/svg" xmlns:xlink="http://www.w3.org/1999/xlink" xml:space="preserve" xmlns:serif="http://www.serif.com/" style="fill-rule:evenodd;clip-rule:evenodd;stroke-miterlimit:2;"><g><g><path d="M39.038,1620.24l28645.8,-0" style="fill:none;stroke:#000;stroke-width:34.92px;"/><path d="M39.038,1889.34l28645.8,-0" style="fill:none;stroke:#000;stroke-width:34.92px;"/><path d="M39.038,2158.44l28645.8,-0.001" style="fill:none;stroke:#000;stroke-width:34.92px;"/><path d="M39.038,2427.53l28645.8,0" style="fill:none;stroke:#000;stroke-width:34.92px;"/><path d="M39.038,2696.63l28645.8,0" style="fill:none;stroke:#000;stroke-width:34.92px;"/></g><g><path d="M15188.9,1602.78l-0,1111.34" style="fill:none;stroke:#000;stroke-width:43.04px;"/><path d="M28663.1,1602.78l0,1111.34" style="fill:none;stroke:#000;stroke-width:43.04px;"/></g><g><path d="M1810.41,2225.12l-0,1099.06" style="fill:none;stroke:#000;stroke-width:32.29px;"/></g><g><path d="M1399.16,3234.83l535.483,-0" style="fill:none;stroke:#000;stroke-width:43.04px;"/><path d="M1399.16,2965.73l535.483,0" style="fill:none;stroke:#000;stroke-width:43.04px;"/></g><g><path d="M3214.49,2090.57l0,964.513" style="fill:none;stroke:#000;stroke-width:32.29px;"/></g><g><path d="M2803.24,2965.73l534.946,0" style="fill:none;stroke:#000;stroke-width:43.04px;"/></g><g><path d="M4618.02,1955.16l0,965.379" style="fill:none;stroke:#000;stroke-width:32.29px;"/></g><g><path d="M4269.19,2965.73l472.533,0" style="fill:none;stroke:#000;stroke-width:43.04px;"/></g><g><path d="M5764.94,1787.03l0,998.959" style="fill:none;stroke:#000;stroke-width:32.29px;"/><path d="M6912.4,1618.78l0,898.109" style="fill:none;stroke:#000;stroke-width:32.29px;"/><path d="M7772.31,2472.72l0,762.429" style="fill:none;stroke:#000;stroke-width:32.29px;"/><path d="M8764.6,2338.18l-0,852.167" style="fill:none;stroke:#000;stroke-width:32.29px;"/><path d="M9756.9,2203.63l0,941.842" style="fill:none;stroke:#000;stroke-width:32.29px;"/><path d="M10749.7,2203.63l-0,896.979" style="fill:none;stroke:#000;stroke-width:32.29px;"/><path d="M11741.5,2069.08l-0,830.296" style="fill:none;stroke:#000;stroke-width:32.29px;"/><path d="M12888.4,1934.53l0,830.363" style="fill:none;stroke:#000;stroke-width:32.29px;"/><path d="M14035.9,1665.43l0,964.846" style="fill:none;stroke:#000;stroke-width:32.29px;"/><path d="M15630.4,1530.89l-0,899.095" style="fill:none;stroke:#000;stroke-width:32.29px;"/><path d="M17034.5,1261.8l0,899.079" style="fill:none;stroke:#000;stroke-width:32.29px;"/></g><g><path d="M16910.7,1351.15l534.946,-0" style="fill:none;stroke:#000;stroke-width:43.04px;"/></g><g><path d="M18438,1127.26l-0,1031.23" style="fill:none;stroke:#000;stroke-width:32.29px;"/></g><g><path d="M18376.7,1082.05l472.554,0" style="fill:none;stroke:#000;stroke-width:43.04px;"/><path d="M18381,1351.15l468.213,-0" style="fill:none;stroke:#000;stroke-width:43.04px;"/></g><g><path d="M19584.9,992.708l-0,1132.15" style="fill:none;stroke:#000;stroke-width:32.29px;"/></g><g><path d="M19528.4,1082.05l467.654,0" style="fill:none;stroke:#000;stroke-width:43.04px;"/><path d="M19461.2,1351.15l534.929,-0" style="fill:none;stroke:#000;stroke-width:43.04px;"/></g><g><path d="M20732.4,723.613l0,1367.6" style="fill:none;stroke:#000;stroke-width:32.29px;"/></g><g><path d="M20608.6,812.95l534.946,0" style="fill:none;stroke:#000;stroke-width:43.04px;"/><path d="M20608.6,1082.05l534.946,0" style="fill:none;stroke:#000;stroke-width:43.04px;"/><path d="M20608.6,1351.15l534.946,-0" style="fill:none;stroke:#000;stroke-width:43.04px;"/></g><g><path d="M21879.8,589.063l0,1502.22" style="fill:none;stroke:#000;stroke-width:32.29px;"/></g><g><path d="M21756.2,543.854l534.933,0" style="fill:none;stroke:#000;stroke-width:43.04px;"/><path d="M21756.2,812.95l534.933,0" style="fill:none;stroke:#000;stroke-width:43.04px;"/><path d="M21756.2,1082.05l534.933,0" style="fill:none;stroke:#000;stroke-width:43.04px;"/><path d="M21756.2,1351.15l534.933,-0" style="fill:none;stroke:#000;stroke-width:43.04px;"/></g><g><path d="M22872.2,723.613l0,1390.07" style="fill:none;stroke:#000;stroke-width:32.29px;"/></g><g><path d="M22748.4,812.95l535.488,0" style="fill:none;stroke:#000;stroke-width:43.04px;"/><path d="M22748.4,1082.05l535.488,0" style="fill:none;stroke:#000;stroke-width:43.04px;"/><path d="M22748.4,1351.15l535.488,-0" style="fill:none;stroke:#000;stroke-width:43.04px;"/></g><g><path d="M23864.9,858.158l0,1277.93" style="fill:none;stroke:#000;stroke-width:32.29px;"/></g><g><path d="M23741.3,812.95l534.93,0" style="fill:none;stroke:#000;stroke-width:43.04px;"/><path d="M23741.3,1082.05l534.93,0" style="fill:none;stroke:#000;stroke-width:43.04px;"/><path d="M23741.3,1351.15l534.93,-0" style="fill:none;stroke:#000;stroke-width:43.04px;"/></g><g><path d="M24857.8,992.708l0,1165.85" style="fill:none;stroke:#000;stroke-width:32.29px;"/></g><g><path d="M24800.8,1082.05l468.213,0" style="fill:none;stroke:#000;stroke-width:43.04px;"/><path d="M24733.6,1351.15l535.484,-0" style="fill:none;stroke:#000;stroke-width:43.04px;"/></g><g><path d="M25850.1,1261.8l0,899.079" style="fill:none;stroke:#000;stroke-width:32.29px;"/></g><g><path d="M25726.4,1351.15l535.483,-0" style="fill:none;stroke:#000;stroke-width:43.04px;"/></g><g><path d="M27254.1,1530.89l-0,899.095" style="fill:none;stroke:#000;stroke-width:32.29px;"/></g><g><path d="M1604.61,1202.5c-0,0 -1.075,4.342 -1.075,7.588c-0,4.337 4.337,8.679 8.679,8.679c3.246,-0 5.417,-3.246 6.492,-4.342c1.096,-3.246 14.116,-47.742 20.625,-58.592c2.171,-4.341 4.341,-5.416 5.416,-5.416c2.171,-0 3.267,4.341 3.267,7.587l0,155.171c0,13.021 -10.85,20.608 -21.704,20.608c-4.338,0 -9.754,2.171 -9.754,8.684c-0,6.508 5.416,8.679 14.096,8.679l91.145,-0c8.68,-0 8.68,-8.679 8.68,-8.679c-0,-0 -0,-8.684 -8.68,-8.684c-7.604,0 -17.362,-9.754 -17.362,-19.529l-0,-225.696c-0,-8.679 -3.263,-13.02 -10.85,-13.02c-7.604,-0 -14.113,2.17 -20.625,2.17c-10.85,0 -13.021,0 -21.7,-2.17c-4.342,-0 -9.758,6.512 -13.021,10.85l-33.629,116.112" style="fill-rule:nonzero;"/></g><g><path d="M3128.46,1253.49l0,-116.096c0,-5.433 -1.092,-9.775 -6.508,-9.775c-4.342,-0 -7.604,1.096 -10.854,5.433l-32.55,62.938c-2.171,2.166 -5.417,5.416 -5.417,13.021l-0,44.479l-70.538,-0c44.496,-36.896 113.921,-159.5 115.017,-166.009c0,-1.095 1.075,-2.17 1.075,-3.266c0,-4.338 -4.337,-7.584 -7.587,-7.584c-5.434,0 -28.209,2.167 -37.967,2.167c-9.775,0 -16.283,-2.167 -20.625,-2.167c-5.417,0 -13.021,2.167 -13.021,10.85c0,69.442 -56.425,148.646 -70.521,168.175c-2.171,2.171 -4.341,5.434 -4.341,8.684c-0,5.433 4.341,10.85 10.85,10.85l97.658,-0l-0,33.646c-0,15.191 -8.679,19.529 -17.363,19.529c-9.775,-0 -14.112,4.341 -14.112,9.758c-0,5.433 2.171,11.946 11.942,11.946l93.3,-0c5.433,-0 10.85,-4.342 10.85,-11.946c-0,-7.587 -6.509,-10.85 -11.925,-10.85c-5.434,0 -17.363,-3.246 -17.363,-20.608l0,-31.475l40.138,-0c5.437,-0 8.683,-4.342 8.683,-10.85c-0,-6.513 -2.171,-10.854 -8.683,-10.854l-40.138,-0" style="fill-rule:nonzero;"/></g><g><path d="M4411.9,1202.5c0,0 -1.075,4.342 -1.075,7.588c0,4.337 4.338,8.679 8.68,8.679c3.245,-0 5.416,-3.246 6.512,-4.342c1.075,-3.246 14.096,-47.742 20.604,-58.592c2.171,-4.341 4.342,-5.416 5.438,-5.416c2.166,-0 3.246,4.341 3.246,7.587l-0,155.171c-0,13.021 -10.85,20.608 -21.705,20.608c-4.337,0 -9.754,2.171 -9.754,8.684c0,6.508 5.417,8.679 14.096,8.679l91.146,-0c8.679,-0 8.679,-8.679 8.679,-8.679c0,-0 0,-8.684 -8.679,-8.684c-7.588,0 -17.363,-9.754 -17.363,-19.529l0,-225.696c0,-8.679 -3.245,-13.02 -10.85,-13.02c-7.587,-0 -14.095,2.17 -20.608,2.17c-10.85,0 -13.021,0 -21.7,-2.17c-4.342,-0 -9.775,6.512 -13.021,10.85l-33.646,116.112" style="fill-rule:nonzero;"/></g><g><path d="M5728.61,1264.34c-0,-7.588 -3.263,-8.684 -6.509,-8.684c-4.341,0 -6.512,3.267 -7.604,6.513c-5.416,15.192 -17.362,34.721 -33.629,34.721c-2.171,-0 -4.342,-0 -6.512,-1.075l-16.284,-5.434c-10.85,-4.341 -36.891,-13.02 -58.591,-13.02c-7.588,-0 -14.1,1.091 -20.609,3.262c11.925,-20.625 68.35,-47.742 80.296,-51.008c39.063,-5.417 71.613,-28.213 71.613,-70.521c-0,-26.042 -10.85,-43.4 -24.967,-56.421c-28.208,-22.796 -69.442,-26.042 -81.371,-26.042c-39.062,0 -70.537,2.167 -98.75,34.721c-7.587,8.679 -10.85,17.363 -10.85,26.042c0,7.587 3.263,16.267 6.513,26.042c6.508,13.02 20.625,22.779 35.812,22.779c27.121,-0 30.383,-26.042 30.383,-37.971c0,-24.967 -27.133,-27.133 -27.133,-37.988c0,-7.583 10.85,-20.604 43.4,-20.604c51.008,0 68.371,42.309 68.371,55.329c-0,19.53 -6.513,37.984 -17.363,53.175c-19.533,24.95 -55.345,33.63 -82.466,50.992c-30.379,18.454 -51.004,49.913 -60.763,84.633c0,7.605 3.246,16.288 9.759,19.534c1.091,1.091 3.262,1.091 4.337,1.091c11.946,0 18.454,-33.645 51.008,-33.645c21.7,-0 29.288,29.308 78.125,29.308c22.78,-0 65.105,-2.171 73.784,-85.729" style="fill-rule:nonzero;"/></g><g><path d="M6826.36,1253.49l-0,-116.096c-0,-5.433 -1.096,-9.775 -6.513,-9.775c-4.337,-0 -7.604,1.096 -10.85,5.433l-32.55,62.938c-2.171,2.166 -5.437,5.416 -5.437,13.021l-0,44.479l-70.521,-0c44.479,-36.896 113.925,-159.5 115.021,-166.009c-0,-1.095 1.075,-2.17 1.075,-3.266c-0,-4.338 -4.342,-7.584 -7.588,-7.584c-5.433,0 -28.212,2.167 -37.987,2.167c-9.754,0 -16.267,-2.167 -20.604,-2.167c-5.438,0 -13.021,2.167 -13.021,10.85c-0,69.442 -56.425,148.646 -70.542,168.175c-2.167,2.171 -4.337,5.434 -4.337,8.684c-0,5.433 4.337,10.85 10.85,10.85l97.654,-0l-0,33.646c-0,15.191 -8.679,19.529 -17.359,19.529c-9.758,-0 -14.1,4.341 -14.1,9.758c0,5.433 2.171,11.946 11.93,11.946l93.316,-0c5.434,-0 10.85,-4.342 10.85,-11.946c0,-7.587 -6.512,-10.85 -11.929,-10.85c-5.433,0 -17.358,-3.246 -17.358,-20.608l-0,-31.475l40.137,-0c5.434,-0 8.679,-4.342 8.679,-10.85c0,-6.513 -2.166,-10.854 -8.679,-10.854l-40.137,-0" style="fill-rule:nonzero;"/></g><g><path d="M7853.9,1202.5c0,0 -1.075,4.342 -1.075,7.588c0,4.337 4.342,8.679 8.68,8.679c3.245,-0 5.416,-3.246 6.512,-4.342c1.075,-3.246 14.096,-47.742 20.608,-58.592c2.167,-4.341 4.338,-5.416 5.434,-5.416c2.171,-0 3.246,4.341 3.246,7.587l-0,155.171c-0,13.021 -10.85,20.608 -21.7,20.608c-4.342,0 -9.759,2.171 -9.759,8.684c0,6.508 5.417,8.679 14.096,8.679l91.146,-0c8.683,-0 8.683,-8.679 8.683,-8.679c0,-0 0,-8.684 -8.683,-8.684c-7.588,0 -17.358,-9.754 -17.358,-19.529l-0,-225.696c-0,-8.679 -3.25,-13.02 -10.855,-13.02c-7.583,-0 -14.095,2.17 -20.604,2.17c-10.854,0 -13.021,0 -21.704,-2.17c-4.337,-0 -9.775,6.512 -13.021,10.85l-33.646,116.112" style="fill-rule:nonzero;"/></g><g><path d="M9015.98,1264.34c-0,-7.588 -3.263,-8.684 -6.509,-8.684c-4.341,0 -6.512,3.267 -7.604,6.513c-5.416,15.192 -17.362,34.721 -33.629,34.721c-2.171,-0 -4.342,-0 -6.512,-1.075l-16.284,-5.434c-10.85,-4.341 -36.891,-13.02 -58.596,-13.02c-7.583,-0 -14.095,1.091 -20.604,3.262c11.925,-20.625 68.35,-47.742 80.292,-51.008c39.062,-5.417 71.617,-28.213 71.617,-70.521c-0,-26.042 -10.85,-43.4 -24.967,-56.421c-28.213,-22.796 -69.442,-26.042 -81.371,-26.042c-39.062,0 -70.537,2.167 -98.75,34.721c-7.587,8.679 -10.85,17.363 -10.85,26.042c0,7.587 3.263,16.267 6.508,26.042c6.513,13.02 20.625,22.779 35.817,22.779c27.121,-0 30.383,-26.042 30.383,-37.971c0,-24.967 -27.137,-27.133 -27.137,-37.988c-0,-7.583 10.854,-20.604 43.404,-20.604c51.008,0 68.367,42.309 68.367,55.329c-0,19.53 -6.509,37.984 -17.359,53.175c-19.533,24.95 -55.35,33.63 -82.466,50.992c-30.384,18.454 -51.009,49.913 -60.763,84.633c0,7.605 3.246,16.288 9.754,19.534c1.096,1.091 3.267,1.091 4.342,1.091c11.946,0 18.454,-33.645 51.008,-33.645c21.7,-0 29.288,29.308 78.125,29.308c22.775,-0 65.105,-2.171 73.784,-85.729" style="fill-rule:nonzero;"/></g><g><path d="M9958.56,1253.49l0,-116.096c0,-5.433 -1.075,-9.775 -6.512,-9.775c-4.338,-0 -7.584,1.096 -10.85,5.433l-32.55,62.938c-2.171,2.166 -5.417,5.416 -5.417,13.021l-0,44.479l-70.538,-0c44.496,-36.896 113.938,-159.5 115.017,-166.009c0,-1.095 1.092,-2.17 1.092,-3.266c-0,-4.338 -4.338,-7.584 -7.604,-7.584c-5.417,0 -28.213,2.167 -37.967,2.167c-9.775,0 -16.288,-2.167 -20.625,-2.167c-5.417,0 -13.021,2.167 -13.021,10.85c0,69.442 -56.425,148.646 -70.521,168.175c-2.171,2.171 -4.341,5.434 -4.341,8.684c-0,5.433 4.341,10.85 10.85,10.85l97.658,-0l-0,33.646c-0,15.191 -8.683,19.529 -17.363,19.529c-9.775,-0 -14.112,4.341 -14.112,9.758c-0,5.433 2.167,11.946 11.942,11.946l93.316,-0c5.417,-0 10.85,-4.342 10.85,-11.946c0,-7.587 -6.508,-10.85 -11.941,-10.85c-5.417,0 -17.363,-3.246 -17.363,-20.608l0,-31.475l40.154,-0c5.417,-0 8.684,-4.342 8.684,-10.85c-0,-6.513 -2.171,-10.854 -8.684,-10.854l-40.154,-0" style="fill-rule:nonzero;"/></g><g><path d="M10951.2,1253.49l0,-116.096c0,-5.433 -1.075,-9.775 -6.508,-9.775c-4.342,-0 -7.588,1.096 -10.854,5.433l-32.55,62.938c-2.171,2.166 -5.417,5.416 -5.417,13.021l-0,44.479l-70.538,-0c44.496,-36.896 113.942,-159.5 115.017,-166.009c0,-1.095 1.092,-2.17 1.092,-3.266c-0,-4.338 -4.338,-7.584 -7.604,-7.584c-5.417,0 -28.209,2.167 -37.967,2.167c-9.775,0 -16.283,-2.167 -20.625,-2.167c-5.417,0 -13.021,2.167 -13.021,10.85c0,69.442 -56.425,148.646 -70.521,168.175c-2.171,2.171 -4.341,5.434 -4.341,8.684c-0,5.433 4.341,10.85 10.85,10.85l97.658,-0l-0,33.646c-0,15.191 -8.679,19.529 -17.363,19.529c-9.775,-0 -14.112,4.341 -14.112,9.758c-0,5.433 2.171,11.946 11.942,11.946l93.316,-0c5.417,-0 10.85,-4.342 10.85,-11.946c0,-7.587 -6.508,-10.85 -11.941,-10.85c-5.417,0 -17.363,-3.246 -17.363,-20.608l0,-31.475l40.158,-0c5.417,-0 8.68,-4.342 8.68,-10.85c-0,-6.513 -2.171,-10.854 -8.68,-10.854l-40.158,-0" style="fill-rule:nonzero;"/></g><g><path d="M11823.1,1202.5c0,0 -1.075,4.342 -1.075,7.588c0,4.337 4.338,8.679 8.68,8.679c3.245,-0 5.416,-3.246 6.508,-4.342c1.079,-3.246 14.1,-47.742 20.608,-58.592c2.171,-4.341 4.342,-5.416 5.434,-5.416c2.17,-0 3.25,4.341 3.25,7.587l-0,155.171c-0,13.021 -10.855,20.608 -21.705,20.608c-4.337,0 -9.754,2.171 -9.754,8.684c0,6.508 5.417,8.679 14.096,8.679l91.146,-0c8.679,-0 8.679,-8.679 8.679,-8.679c0,-0 0,-8.684 -8.679,-8.684c-7.588,0 -17.363,-9.754 -17.363,-19.529l0,-225.696c0,-8.679 -3.245,-13.02 -10.85,-13.02c-7.587,-0 -14.095,2.17 -20.608,2.17c-10.85,0 -13.021,0 -21.7,-2.17c-4.342,-0 -9.775,6.512 -13.021,10.85l-33.646,116.112" style="fill-rule:nonzero;"/></g><g><path d="M13139.6,1264.34c-0,-7.588 -3.246,-8.684 -6.513,-8.684c-4.337,0 -6.508,3.267 -7.583,6.513c-5.438,15.192 -17.363,34.721 -33.646,34.721c-2.171,-0 -4.342,-0 -6.512,-1.075l-16.267,-5.434c-10.85,-4.341 -36.892,-13.02 -58.596,-13.02c-7.604,-0 -14.112,1.091 -20.625,3.262c11.946,-20.625 68.371,-47.742 80.296,-51.008c39.062,-5.417 71.617,-28.213 71.617,-70.521c-0,-26.042 -10.85,-43.4 -24.95,-56.421c-28.213,-22.796 -69.442,-26.042 -81.388,-26.042c-39.062,0 -70.521,2.167 -98.733,34.721c-7.604,8.679 -10.85,17.363 -10.85,26.042c-0,7.587 3.246,16.267 6.508,26.042c6.513,13.02 20.608,22.779 35.8,22.779c27.138,-0 30.383,-26.042 30.383,-37.971c0,-24.967 -27.12,-27.133 -27.12,-37.988c-0,-7.583 10.854,-20.604 43.404,-20.604c50.991,0 68.35,42.309 68.35,55.329c-0,19.53 -6.509,37.984 -17.359,53.175c-19.533,24.95 -55.333,33.63 -82.466,50.992c-30.384,18.454 -50.992,49.913 -60.763,84.633c0,7.605 3.263,16.288 9.771,19.534c1.079,1.091 3.25,1.091 4.342,1.091c11.929,0 18.437,-33.645 50.991,-33.645c21.7,-0 29.305,29.308 78.125,29.308c22.792,-0 65.105,-2.171 73.784,-85.729" style="fill-rule:nonzero;"/></g><g><path d="M14237.3,1253.26l0,-116.109c0,-5.416 -1.092,-9.758 -6.508,-9.758c-4.342,-0 -7.604,1.075 -10.854,5.417l-32.55,62.933c-2.171,2.171 -5.434,5.433 -5.434,13.021l0,44.496l-70.521,-0c44.48,-36.892 113.921,-159.513 115.017,-166.025c0,-1.075 1.075,-2.167 1.075,-3.246c0,-4.338 -4.337,-7.604 -7.587,-7.604c-5.434,-0 -28.209,2.17 -37.984,2.17c-9.758,0 -16.266,-2.17 -20.608,-2.17c-5.433,-0 -13.021,2.17 -13.021,10.85c0,69.445 -56.425,148.666 -70.537,168.195c-2.171,2.171 -4.342,5.417 -4.342,8.68c-0,5.416 4.342,10.854 10.85,10.854l97.658,-0l0,33.625c0,15.191 -8.683,19.533 -17.362,19.533c-9.759,0 -14.096,4.342 -14.096,9.775c-0,5.417 2.171,11.925 11.925,11.925l93.317,0c5.433,0 10.85,-4.337 10.85,-11.925c-0,-7.604 -6.509,-10.85 -11.925,-10.85c-5.434,0 -17.363,-3.267 -17.363,-20.625l0,-31.458l40.138,-0c5.437,-0 8.683,-4.342 8.683,-10.854c-0,-6.509 -2.171,-10.85 -8.683,-10.85l-40.138,-0" style="fill-rule:nonzero;"/></g><g><path d="M15712.1,1066.86c-0,0 -1.075,4.342 -1.075,7.605c-0,4.341 4.337,8.679 8.679,8.679c3.246,-0 5.417,-3.263 6.512,-4.338c1.075,-3.266 14.096,-47.746 20.605,-58.596c2.17,-4.341 4.341,-5.433 5.437,-5.433c2.167,0 3.246,4.342 3.246,7.604l-0,155.154c-0,13.021 -10.85,20.625 -21.704,20.625c-4.338,0 -9.754,2.171 -9.754,8.684c-0,6.508 5.416,8.679 14.095,8.679l91.146,-0c8.679,-0 8.679,-8.679 8.679,-8.679c0,-0 0,-8.684 -8.679,-8.684c-7.587,0 -17.362,-9.771 -17.362,-19.529l-0,-225.696c-0,-8.679 -3.246,-13.021 -10.85,-13.021c-7.588,0 -14.096,2.171 -20.609,2.171c-10.85,0 -13.02,0 -21.7,-2.171c-4.341,0 -9.775,6.513 -13.02,10.85l-33.646,116.096" style="fill-rule:nonzero;"/></g><g><path d="M17236.1,849.617l0,-116.109c0,-5.416 -1.075,-9.758 -6.508,-9.758c-4.342,0 -7.588,1.075 -10.854,5.417l-32.55,62.933c-2.171,2.171 -5.417,5.433 -5.417,13.021l-0,44.496l-70.538,-0c44.496,-36.892 113.942,-159.513 115.017,-166.025c0,-1.075 1.092,-2.167 1.092,-3.246c-0,-4.338 -4.338,-7.604 -7.604,-7.604c-5.417,-0 -28.209,2.171 -37.967,2.171c-9.775,-0 -16.283,-2.171 -20.625,-2.171c-5.417,-0 -13.021,2.171 -13.021,10.85c0,69.446 -56.425,148.666 -70.521,168.196c-2.171,2.17 -4.341,5.416 -4.341,8.679c-0,5.416 4.341,10.854 10.85,10.854l97.658,-0l-0,33.625c-0,15.192 -8.679,19.533 -17.363,19.533c-9.775,0 -14.112,4.342 -14.112,9.775c-0,5.417 2.171,11.925 11.942,11.925l93.316,0c5.417,0 10.85,-4.337 10.85,-11.925c0,-7.604 -6.508,-10.85 -11.941,-10.85c-5.417,0 -17.363,-3.266 -17.363,-20.625l0,-31.458l40.158,-0c5.417,-0 8.68,-4.342 8.68,-10.854c-0,-6.509 -2.171,-10.85 -8.68,-10.85l-40.158,-0" style="fill-rule:nonzero;"/></g><g><path d="M18519.4,663.213c0,-0 -1.075,4.341 -1.075,7.604c0,4.341 4.338,8.679 8.68,8.679c3.245,-0 5.416,-3.263 6.512,-4.338c1.075,-3.266 14.096,-47.746 20.604,-58.596c2.171,-4.341 4.342,-5.433 5.438,-5.433c2.166,0 3.246,4.342 3.246,7.604l-0,155.154c-0,13.021 -10.85,20.625 -21.705,20.625c-4.337,0 -9.754,2.171 -9.754,8.684c0,6.508 5.417,8.679 14.096,8.679l91.146,-0c8.679,-0 8.679,-8.679 8.679,-8.679c0,-0 0,-8.684 -8.679,-8.684c-7.588,0 -17.363,-9.77 -17.363,-19.529l0,-225.696c0,-8.679 -3.245,-13.02 -10.85,-13.02c-7.587,-0 -14.095,2.17 -20.608,2.17c-10.85,0 -13.021,0 -21.7,-2.17c-4.342,-0 -9.775,6.512 -13.021,10.85l-33.646,116.095" style="fill-rule:nonzero;"/></g><g><path d="M19836.1,587.133c0,-7.604 -3.262,-8.679 -6.508,-8.679c-4.342,0 -6.513,3.246 -7.604,6.513c-5.417,15.187 -17.363,34.72 -33.63,34.72c-2.17,0 -4.341,0 -6.512,-1.095l-16.283,-5.417c-10.85,-4.338 -36.892,-13.021 -58.596,-13.021c-7.584,0 -14.096,1.079 -20.604,3.25c11.925,-20.608 68.35,-47.746 80.291,-50.992c39.063,-5.433 71.617,-28.212 71.617,-70.537c-0,-26.042 -10.85,-43.404 -24.967,-56.425c-28.212,-22.775 -69.441,-26.042 -81.371,-26.042c-39.062,0 -70.537,2.171 -98.75,34.725c-7.587,8.679 -10.85,17.359 -10.85,26.042c0,7.604 3.263,16.283 6.509,26.042c6.512,13.02 20.625,22.791 35.816,22.791c27.121,0 30.384,-26.041 30.384,-37.983c-0,-24.95 -27.138,-27.121 -27.138,-37.971c0,-7.604 10.854,-20.625 43.404,-20.625c51.009,0 68.367,42.329 68.367,55.35c0,19.529 -6.508,37.967 -17.358,53.158c-19.534,24.967 -55.35,33.646 -82.467,51.009c-30.383,18.437 -51.008,49.912 -60.762,84.633c-0,7.588 3.245,16.267 9.754,19.533c1.096,1.075 3.266,1.075 4.341,1.075c11.946,0 18.455,-33.629 51.009,-33.629c21.7,0 29.287,29.288 78.125,29.288c22.775,-0 65.104,-2.167 73.783,-85.713" style="fill-rule:nonzero;"/></g><g><path d="M20933.8,311.425l0,-116.113c0,-5.416 -1.075,-9.758 -6.508,-9.758c-4.342,0 -7.588,1.079 -10.85,5.417l-32.554,62.933c-2.171,2.171 -5.417,5.438 -5.417,13.021l-0,44.5l-70.538,-0c44.496,-36.896 113.942,-159.517 115.017,-166.025c0,-1.075 1.096,-2.171 1.096,-3.246c-0,-4.342 -4.342,-7.604 -7.604,-7.604c-5.417,-0 -28.213,2.167 -37.971,2.167c-9.775,-0 -16.283,-2.167 -20.625,-2.167c-5.417,-0 -13.021,2.167 -13.021,10.85c0,69.442 -56.421,148.663 -70.521,168.196c-2.171,2.166 -4.337,5.412 -4.337,8.679c-0,5.417 4.337,10.85 10.85,10.85l97.654,-0l-0,33.629c-0,15.192 -8.679,19.529 -17.358,19.529c-9.775,0 -14.117,4.342 -14.117,9.775c-0,5.417 2.171,11.929 11.946,11.929l93.316,0c5.417,0 10.85,-4.341 10.85,-11.929c0,-7.604 -6.512,-10.85 -11.945,-10.85c-5.417,0 -17.363,-3.262 -17.363,-20.625l0,-31.458l40.158,0c5.417,0 8.68,-4.342 8.68,-10.85c-0,-6.512 -2.171,-10.85 -8.68,-10.85l-40.158,0" style="fill-rule:nonzero;"/></g><g><path d="M22081.4,176.875l0,-116.113c0,-5.416 -1.091,-9.754 -6.508,-9.754c-4.342,0 -7.604,1.075 -10.854,5.417l-32.55,62.933c-2.171,2.171 -5.433,5.434 -5.433,13.021l-0,44.496l-70.521,-0c44.479,-36.892 113.921,-159.513 115.016,-166.025c0,-1.075 1.075,-2.171 1.075,-3.246c0,-4.342 -4.337,-7.604 -7.587,-7.604c-5.433,-0 -28.208,2.171 -37.983,2.171c-9.759,-0 -16.267,-2.171 -20.609,-2.171c-5.433,-0 -13.021,2.171 -13.021,10.85c0,69.446 -56.425,148.663 -70.537,168.196c-2.171,2.171 -4.342,5.416 -4.342,8.679c0,5.417 4.342,10.85 10.85,10.85l97.659,-0l-0,33.629c-0,15.192 -8.684,19.533 -17.363,19.533c-9.758,0 -14.096,4.338 -14.096,9.776c0,5.416 2.171,11.924 11.925,11.924l93.317,0c5.433,0 10.85,-4.341 10.85,-11.925c-0,-7.604 -6.508,-10.854 -11.925,-10.854c-5.433,0 -17.363,-3.262 -17.363,-20.625l0,-31.458l40.138,0c5.437,0 8.683,-4.337 8.683,-10.85c0,-6.508 -2.171,-10.85 -8.683,-10.85l-40.138,0" style="fill-rule:nonzero;"/></g><g><path d="M23073.9,311.425l0,-116.113c0,-5.416 -1.091,-9.758 -6.508,-9.758c-4.342,0 -7.604,1.079 -10.85,5.417l-32.554,62.933c-2.171,2.171 -5.433,5.438 -5.433,13.021l-0,44.5l-70.521,-0c44.479,-36.896 113.925,-159.517 115.016,-166.025c0,-1.075 1.08,-2.171 1.08,-3.246c-0,-4.342 -4.342,-7.604 -7.588,-7.604c-5.433,-0 -28.212,2.167 -37.987,2.167c-9.759,-0 -16.267,-2.167 -20.609,-2.167c-5.433,-0 -13.021,2.167 -13.021,10.85c0,69.442 -56.42,148.663 -70.537,168.196c-2.171,2.166 -4.342,5.412 -4.342,8.679c0,5.417 4.342,10.85 10.854,10.85l97.655,-0l-0,33.629c-0,15.192 -8.68,19.529 -17.363,19.529c-9.754,0 -14.096,4.342 -14.096,9.775c0,5.417 2.171,11.929 11.929,11.929l93.313,0c5.437,0 10.854,-4.341 10.854,-11.929c0,-7.604 -6.512,-10.85 -11.929,-10.85c-5.433,0 -17.363,-3.262 -17.363,-20.625l0,-31.458l40.142,0c5.433,0 8.679,-4.342 8.679,-10.85c0,-6.512 -2.171,-10.85 -8.679,-10.85l-40.142,0" style="fill-rule:nonzero;"/></g><g><path d="M23997.7,269.342c-59.687,-0 -85.729,40.137 -85.729,62.933c-0,15.192 8.679,33.629 35.817,34.721c20.604,-0 30.379,-13.021 30.379,-27.133l-0,-4.342c-1.092,-16.267 -11.942,-17.363 -14.113,-18.438c-2.171,-1.096 -6.512,-5.433 -6.512,-13.021c2.171,-11.945 18.454,-16.283 22.796,-16.283c55.329,0 71.616,29.304 71.616,47.742c0,51.008 -52.083,55.346 -68.371,56.425c-7.587,-0 -15.191,3.262 -15.191,9.775c-0,6.508 9.775,6.508 14.116,6.508c62.934,0 71.613,32.554 71.613,48.821c-0,62.933 -51.004,65.104 -64.025,65.104c-6.513,0 -17.363,-3.246 -18.438,-8.683l0,-6.509c0,-11.929 3.246,-24.95 4.338,-35.799c-0,-19.53 -13.021,-31.476 -32.55,-31.476l-4.342,0c-7.604,2.171 -15.191,6.509 -20.625,11.946c-7.587,6.509 -9.754,16.267 -9.754,26.042c1.075,34.721 31.458,64.008 85.708,65.104l6.513,0c53.175,0 108.508,-28.212 108.508,-75.954c0,-10.854 -2.171,-19.533 -5.416,-26.042c-2.171,-6.512 -6.513,-11.946 -10.855,-16.287c-3.262,-4.342 -7.604,-7.588 -11.941,-10.85l-11.929,-6.513l-6.509,-2.166c-2.171,-0 -3.266,-1.08 -5.433,-1.08l-6.513,-2.166c-3.245,-1.096 -4.341,-0 -5.416,-2.171c-1.092,-1.096 -1.092,-2.171 -1.092,-3.267c0,-2.171 1.092,-4.337 3.263,-4.337l17.362,-5.417c7.583,-4.342 15.188,-7.604 20.604,-15.192c8.684,-8.679 11.946,-22.795 11.946,-34.72c0,-51.009 -67.275,-65.105 -91.146,-67.275l-8.679,-0" style="fill-rule:nonzero;"/></g><g><path d="M24939.2,528.663c0,-0 -1.075,4.341 -1.075,7.604c0,4.341 4.338,8.683 8.679,8.683c3.246,0 5.417,-3.267 6.513,-4.342c1.075,-3.266 14.096,-47.741 20.604,-58.596c2.171,-4.337 4.342,-5.433 5.437,-5.433c2.167,0 3.246,4.342 3.246,7.604l0,155.159c0,13.02 -10.85,20.625 -21.704,20.625c-4.337,-0 -9.754,2.17 -9.754,8.679c-0,6.512 5.417,8.679 14.096,8.679l91.146,0c8.679,0 8.679,-8.679 8.679,-8.679c-0,-0 -0,-8.679 -8.679,-8.679c-7.588,-0 -17.363,-9.775 -17.363,-19.534l0,-225.691c0,-8.684 -3.246,-13.021 -10.85,-13.021c-7.587,-0 -14.096,2.166 -20.608,2.166c-10.85,0 -13.021,0 -21.7,-2.166c-4.342,-0 -9.775,6.508 -13.021,10.85l-33.646,116.091" style="fill-rule:nonzero;"/></g><g><path d="M26051.7,849.617l0,-116.109c0,-5.416 -1.092,-9.758 -6.508,-9.758c-4.342,0 -7.604,1.075 -10.854,5.417l-32.55,62.933c-2.171,2.171 -5.434,5.433 -5.434,13.021l0,44.496l-70.521,-0c44.48,-36.892 113.921,-159.513 115.017,-166.025c0,-1.075 1.075,-2.167 1.075,-3.246c0,-4.338 -4.337,-7.604 -7.587,-7.604c-5.434,-0 -28.209,2.171 -37.984,2.171c-9.758,-0 -16.266,-2.171 -20.608,-2.171c-5.433,-0 -13.021,2.171 -13.021,10.85c0,69.446 -56.425,148.666 -70.537,168.196c-2.171,2.17 -4.342,5.416 -4.342,8.679c-0,5.416 4.342,10.854 10.85,10.854l97.658,-0l0,33.625c0,15.192 -8.683,19.533 -17.362,19.533c-9.759,0 -14.096,4.342 -14.096,9.775c-0,5.417 2.171,11.925 11.925,11.925l93.317,0c5.433,0 10.85,-4.337 10.85,-11.925c-0,-7.604 -6.509,-10.85 -11.925,-10.85c-5.434,0 -17.363,-3.266 -17.363,-20.625l0,-31.458l40.138,-0c5.437,-0 8.683,-4.342 8.683,-10.854c-0,-6.509 -2.171,-10.85 -8.683,-10.85l-40.138,-0" style="fill-rule:nonzero;"/></g><g><path d="M27335.7,1066.86c-0,0 -1.096,4.342 -1.096,7.605c-0,4.341 4.342,8.679 8.683,8.679c3.263,-0 5.434,-3.263 6.509,-4.338c1.095,-3.266 14.116,-47.746 20.625,-58.596c2.17,-4.341 4.341,-5.433 5.416,-5.433c2.171,0 3.263,4.342 3.263,7.604l-0,155.154c-0,13.021 -10.85,20.625 -21.7,20.625c-4.342,0 -9.775,2.171 -9.775,8.684c-0,6.508 5.433,8.679 14.116,8.679l91.146,-0c8.679,-0 8.679,-8.679 8.679,-8.679c0,-0 0,-8.684 -8.679,-8.684c-7.604,0 -17.362,-9.771 -17.362,-19.529l-0,-225.696c-0,-8.679 -3.263,-13.021 -10.85,-13.021c-7.604,0 -14.117,2.171 -20.625,2.171c-10.85,0 -13.021,0 -21.7,-2.171c-4.342,0 -9.759,6.513 -13.021,10.85l-33.629,116.096" style="fill-rule:nonzero;"/></g><g><path d="M1612.06,3505.02c96.562,-0 214.842,-88.975 214.842,-181.213c-0,-55.333 -43.405,-90.054 -105.259,-90.054c-119.358,0 -214.846,87.883 -214.846,181.196c0,56.425 46.667,90.071 105.263,90.071" style="fill-rule:nonzero;"/></g><g><path d="M3015.95,3235.92c96.58,-0 214.842,-88.975 214.842,-181.217c0,-55.329 -43.4,-90.05 -105.242,-90.05c-119.358,0 -214.841,87.879 -214.841,181.196c-0,56.425 46.646,90.071 105.241,90.071" style="fill-rule:nonzero;"/></g><g><path d="M4159.09,3014.57c-6.508,21.7 -57.517,43.4 -82.467,43.4c-6.508,-0 -11.941,-2.167 -13.02,-5.434c-2.167,-4.337 -3.263,-28.208 -3.263,-54.25c0,-33.629 1.096,-71.616 3.263,-80.295c2.17,-18.438 52.083,-41.234 79.204,-41.234c7.604,0 14.112,2.171 16.283,6.509c2.171,5.433 4.342,32.554 4.342,61.858c-0,29.287 -2.171,59.671 -4.342,69.446m74.863,-176.875c7.604,-3.246 13.02,-11.929 13.02,-18.438l0,-77.05c0,-5.416 -3.245,-8.679 -7.587,-8.679c-2.171,0 -3.263,0 -5.433,1.092c-0,-0 -21.705,8.683 -27.121,9.758c-7.604,0 -15.188,-5.417 -15.188,-14.096l0,-132.379c0,-6.512 -6.512,-11.946 -15.191,-11.946c-10.85,0 -17.363,5.434 -17.363,11.946l0,141.058c-1.092,10.85 -4.342,24.946 -14.112,31.459c-13.021,7.604 -49.917,22.796 -68.355,27.133c-9.77,0 -13.02,-13.021 -13.02,-21.7l-0,-130.208c-0,-6.509 -7.605,-11.946 -15.188,-11.946c-10.854,-0 -17.362,5.437 -17.362,11.946l-0,146.475c-0,15.191 -6.513,26.041 -13.021,29.308c-6.513,3.246 -28.213,11.925 -28.213,11.925c-7.604,2.171 -13.021,10.85 -13.021,17.363l0,77.045c0,6.513 3.246,9.759 8.68,9.759c4.341,-0 24.95,-9.759 28.212,-11.925c1.079,-0 2.171,-1.096 3.246,-1.096c7.604,-0 14.117,10.85 14.117,19.533l-0,107.429c-0,11.925 -5.434,21.7 -11.946,24.946c-6.509,2.171 -29.288,11.946 -29.288,11.946c-7.604,2.171 -13.021,10.85 -13.021,17.363l0,77.029c0,6.512 3.246,9.775 8.68,9.775c1.079,-0 3.25,-1.092 4.341,-1.092c0,0 15.192,-6.512 24.95,-9.758c1.092,-1.096 2.167,-1.096 3.263,-1.096c7.587,-0 13.021,11.946 13.021,17.362l-0,133.471c-0,6.513 6.508,11.929 14.095,11.929c10.85,0 18.455,-5.416 18.455,-11.929l-0,-150.833c-0,-14.096 5.416,-21.7 10.854,-23.871l66.179,-27.117c1.092,0 3.262,-1.095 4.342,-1.095c8.679,-0 14.112,13.02 14.112,19.533l0,135.642c0,6.512 6.513,11.929 14.096,11.929c11.946,-0 18.458,-5.417 18.458,-11.929l0,-154.08c0,-8.679 4.338,-21.7 11.925,-24.966c7.604,-3.246 30.384,-11.925 30.384,-11.925c7.604,-3.267 13.02,-11.946 13.02,-18.454l0,-77.034c0,-5.433 -3.245,-8.679 -7.587,-8.679c-2.171,0 -3.263,0 -5.433,1.075l-28.213,10.85c-6.512,0 -14.096,-6.508 -14.096,-19.529l0,-100.904c0,-7.604 5.417,-28.213 14.096,-31.475l28.213,-10.85" style="fill-rule:nonzero;"/></g><g><path d="M4419.31,3101.37c96.583,-0 214.846,-88.975 214.846,-181.213c-0,-55.333 -43.404,-90.054 -105.242,-90.054c-119.358,0 -214.846,87.883 -214.846,181.196c0,56.425 46.65,90.071 105.242,90.071" style="fill-rule:nonzero;"/></g><g><path d="M5306.06,2880.02c-6.512,21.7 -57.5,43.404 -82.467,43.404c-6.508,-0 -11.925,-2.171 -13.02,-5.434c-2.171,-4.341 -3.246,-28.212 -3.246,-54.254c-0,-33.629 1.075,-71.616 3.246,-80.295c2.17,-18.438 52.083,-41.234 79.22,-41.234c7.588,0 14.096,2.171 16.267,6.513c2.171,5.433 4.342,32.55 4.342,61.854c-0,29.292 -2.171,59.671 -4.342,69.446m74.879,-176.875c7.588,-3.246 13.021,-11.925 13.021,-18.438l0,-77.05c0,-5.416 -3.267,-8.679 -7.604,-8.679c-2.171,0 -3.246,0 -5.417,1.096c0,-0 -21.704,8.679 -27.137,9.754c-7.588,0 -15.192,-5.417 -15.192,-14.096l0,-132.379c0,-6.508 -6.508,-11.946 -15.187,-11.946c-10.855,0 -17.363,5.438 -17.363,11.946l0,141.058c-1.075,10.85 -4.342,24.95 -14.096,31.459c-13.021,7.604 -49.916,22.796 -68.371,27.137c-9.754,0 -13.02,-13.021 -13.02,-21.704l-0,-130.208c-0,-6.509 -7.588,-11.942 -15.192,-11.942c-10.85,0 -17.358,5.433 -17.358,11.942l-0,146.479c-0,15.187 -6.513,26.042 -13.021,29.304c-6.513,3.246 -28.213,11.925 -28.213,11.925c-7.587,2.171 -13.021,10.854 -13.021,17.363l0,77.05c0,6.508 3.263,9.754 8.68,9.754c4.341,-0 24.966,-9.754 28.212,-11.925c1.096,-0 2.171,-1.096 3.263,-1.096c7.587,-0 14.1,10.854 14.1,19.533l-0,107.429c-0,11.93 -5.417,21.705 -11.93,24.95c-6.508,2.171 -29.304,11.942 -29.304,11.942c-7.587,2.171 -13.021,10.854 -13.021,17.363l0,77.033c0,6.508 3.263,9.771 8.68,9.771c1.095,-0 3.266,-1.092 4.341,-1.092c0,0 15.192,-6.512 24.967,-9.758c1.075,-1.092 2.167,-1.092 3.246,-1.092c7.604,0 13.021,11.942 13.021,17.358l-0,133.475c-0,6.509 6.508,11.925 14.112,11.925c10.85,0 18.438,-5.416 18.438,-11.925l-0,-150.833c-0,-14.1 5.433,-21.704 10.85,-23.871l66.2,-27.121c1.075,0 3.245,-1.091 4.341,-1.091c8.679,-0 14.096,13.021 14.096,19.529l0,135.642c0,6.512 6.508,11.929 14.113,11.929c11.929,-0 18.437,-5.417 18.437,-11.929l0,-154.08c0,-8.679 4.342,-21.7 11.946,-24.962c7.587,-3.25 30.383,-11.929 30.383,-11.929c7.588,-3.263 13.021,-11.946 13.021,-18.454l0,-77.034c0,-5.433 -3.267,-8.679 -7.604,-8.679c-2.171,0 -3.246,0 -5.417,1.075l-28.212,10.854c-6.513,0 -14.117,-6.512 -14.117,-19.533l0,-100.904c0,-7.604 5.438,-28.209 14.117,-31.475l28.212,-10.85" style="fill-rule:nonzero;"/></g><g><path d="M5566.31,2966.82c96.563,-0 214.846,-88.975 214.846,-181.213c-0,-55.329 -43.404,-90.054 -105.263,-90.054c-119.354,0 -214.841,87.884 -214.841,181.2c-0,56.425 46.666,90.067 105.258,90.067" style="fill-rule:nonzero;"/></g><g><path d="M6713.81,2697.72c96.563,0 214.842,-88.975 214.842,-181.213c-0,-55.333 -43.404,-90.054 -105.259,-90.054c-119.358,0 -214.845,87.884 -214.845,181.196c-0,56.425 46.666,90.071 105.262,90.071" style="fill-rule:nonzero;"/></g><g><path d="M7861.36,2563.18c96.562,0 214.841,-88.975 214.841,-181.212c0,-55.33 -43.4,-90.055 -105.258,-90.055c-119.358,0 -214.846,87.884 -214.846,181.2c0,56.425 46.667,90.067 105.263,90.067" style="fill-rule:nonzero;"/></g><g><path d="M8487.15,2380.88c0,0 -3.245,-65.104 -3.245,-108.504c-0,-17.362 1.079,-30.383 2.17,-34.725c7.588,-21.7 50.992,-53.175 75.955,-53.175c31.458,0 44.479,35.817 44.479,62.934c-0,58.595 -49.913,117.187 -96.563,146.491c-4.337,2.171 -7.604,3.25 -10.85,3.25c-9.775,0 -11.946,-10.854 -11.946,-16.271m-37.966,96.563c3.246,4.342 6.508,5.437 9.758,5.437c3.263,0 6.508,-2.17 6.508,-2.17c32.555,-18.455 58.596,-47.746 85.73,-66.2c96.562,-67.271 130.208,-133.455 130.208,-183.367c-0,-61.858 -47.742,-100.921 -97.654,-104.167c-18.459,0 -44.5,8.679 -59.688,18.438c-6.512,5.433 -18.437,15.191 -23.875,15.191c-2.166,0 -3.246,0 -5.416,-1.079c-7.605,-3.262 -11.942,-10.85 -11.942,-18.454c1.092,-23.871 7.604,-284.287 7.604,-305.987c0,-11.93 -9.775,-18.438 -20.625,-18.438c-15.192,0 -32.554,10.85 -33.629,30.383c-0,0 4.342,619.563 13.021,630.413" style="fill-rule:nonzero;"/></g><g><path d="M8853.69,2428.63c96.563,0 214.846,-88.975 214.846,-181.216c-0,-55.33 -43.404,-90.05 -105.263,-90.05c-119.358,-0 -214.841,87.879 -214.841,181.195c-0,56.425 46.666,90.071 105.258,90.071" style="fill-rule:nonzero;"/></g><g><path d="M9479.52,2246.34c0,-0.001 -3.262,-65.105 -3.262,-108.509c-0,-17.358 1.092,-30.379 2.171,-34.721c7.604,-21.7 51.004,-53.179 75.954,-53.179c31.475,0 44.496,35.817 44.496,62.938c-0,58.591 -49.913,117.187 -96.579,146.491c-4.342,2.171 -7.588,3.246 -10.85,3.246c-9.759,0 -11.93,-10.85 -11.93,-16.267m-37.987,96.563c3.267,4.342 6.512,5.433 9.775,5.433c3.246,0 6.512,-2.171 6.512,-2.171c32.55,-18.454 58.592,-47.741 85.713,-66.195c96.579,-67.275 130.208,-133.459 130.208,-183.371c0,-61.854 -47.746,-100.917 -97.658,-104.167c-18.438,0 -44.479,8.683 -59.671,18.438c-6.508,5.433 -18.454,15.191 -23.871,15.191c-2.171,0 -3.262,0 -5.433,-1.075c-7.588,-3.266 -11.929,-10.85 -11.929,-18.454c1.079,-23.875 7.587,-284.292 7.587,-305.992c0,-11.925 -9.754,-18.437 -20.608,-18.437c-15.188,-0 -32.55,10.85 -33.646,30.383c0,0 4.342,619.567 13.021,630.417" style="fill-rule:nonzero;"/></g><g><path d="M9846.02,2294.08c96.58,0 214.842,-88.975 214.842,-181.217c0,-55.329 -43.4,-90.05 -105.242,-90.05c-119.358,0 -214.845,87.884 -214.845,181.2c-0,56.421 46.65,90.067 105.245,90.067" style="fill-rule:nonzero;"/></g><g><path d="M10524,2116.13c0,-15.191 66.196,-43.404 92.238,-43.404c6.512,0 9.758,1.075 9.758,5.417l0,111.771c0,19.533 -61.841,44.479 -88.975,44.479c-7.587,-0 -13.021,-2.171 -13.021,-6.509l0,-111.754m112.846,-154.079c-2.171,0 -3.246,1.075 -4.341,1.075c-0,0 -69.442,24.967 -97.655,24.967c-6.512,-0 -10.85,-1.096 -10.85,-5.434l0,-181.2c0,-7.604 -6.512,-13.02 -13.02,-13.02l-14.1,-0c-7.605,-0 -13.021,5.416 -13.021,13.02l-0,558.8c-0,6.513 3.246,9.775 8.683,9.775c1.075,0 6.508,-1.091 7.583,-2.171c15.192,-6.508 75.959,-32.55 107.434,-32.55c10.85,0.001 18.437,3.246 18.437,11.925l0,161.688c0,7.583 5.434,13.021 13.021,13.021l14.113,-0c6.512,-0 13.02,-5.438 13.02,-13.021l0,-544.708c0,-5.434 -4.337,-8.68 -8.679,-8.68c-1.096,0 -3.262,0 -4.341,1.08l-16.284,5.433" style="fill-rule:nonzero;"/></g><g><path d="M10838.6,2294.08c96.58,0 214.842,-88.975 214.842,-181.217c0,-55.329 -43.4,-90.05 -105.242,-90.05c-119.358,0 -214.841,87.884 -214.841,181.2c-0,56.421 46.646,90.067 105.241,90.067" style="fill-rule:nonzero;"/></g><g><path d="M11570.4,2072.72c-6.509,21.7 -57.5,43.404 -82.463,43.404c-6.512,0 -11.929,-2.171 -13.021,-5.433c-2.17,-4.342 -3.245,-28.213 -3.245,-54.254c-0,-33.63 1.075,-71.617 3.245,-80.296c2.171,-18.438 52.084,-41.234 79.217,-41.234c7.588,0 14.1,2.171 16.267,6.513c2.171,5.433 4.341,32.55 4.341,61.858c0,29.288 -2.17,59.667 -4.341,69.442m74.879,-176.875c7.587,-3.246 13.021,-11.925 13.021,-18.438l-0,-77.045c-0,-5.417 -3.263,-8.684 -7.604,-8.684c-2.171,0 -3.246,0 -5.417,1.096c-0,0 -21.7,8.679 -27.133,9.754c-7.588,0 -15.192,-5.416 -15.192,-14.095l-0,-132.38c-0,-6.508 -6.513,-11.941 -15.192,-11.941c-10.85,-0 -17.362,5.433 -17.362,11.941l-0,141.059c-1.075,10.854 -4.338,24.95 -14.096,31.458c-13.021,7.604 -49.913,22.796 -68.367,27.138c-9.758,-0 -13.021,-13.021 -13.021,-21.7l0,-130.209c0,-6.512 -7.587,-11.946 -15.191,-11.946c-10.85,0 -17.363,5.434 -17.363,11.946l0,146.475c0,15.192 -6.508,26.042 -13.021,29.304c-6.508,3.246 -28.212,11.93 -28.212,11.93c-7.583,2.166 -13.021,10.85 -13.021,17.358l0,77.05c0,6.508 3.267,9.758 8.683,9.758c4.338,0 24.963,-9.758 28.213,-11.929c1.092,0 2.167,-1.092 3.262,-1.092c7.588,0 14.096,10.85 14.096,19.53l0,107.429c0,11.929 -5.416,21.704 -11.925,24.95c-6.512,2.171 -29.308,11.941 -29.308,11.941c-7.583,2.171 -13.021,10.855 -13.021,17.363l0,77.033c0,6.509 3.267,9.771 8.683,9.771c1.092,0 3.263,-1.092 4.338,-1.092c-0,0 15.192,-6.512 24.967,-9.758c1.075,-1.092 2.17,-1.092 3.245,-1.092c7.605,0 13.021,11.942 13.021,17.359l0,133.475c0,6.508 6.513,11.925 14.117,11.925c10.85,-0 18.437,-5.417 18.437,-11.925l0,-150.834c0,-14.1 5.434,-21.704 10.85,-23.87l66.196,-27.121c1.079,-0 3.25,-1.092 4.342,-1.092c8.679,0 14.096,13.021 14.096,19.529l-0,135.642c-0,6.512 6.512,11.929 14.116,11.929c11.925,0 18.438,-5.417 18.438,-11.929l-0,-154.079c-0,-8.679 4.342,-21.7 11.946,-24.963c7.583,-3.25 30.379,-11.929 30.379,-11.929c7.587,-3.262 13.021,-11.942 13.021,-18.454l-0,-77.033c-0,-5.434 -3.263,-8.68 -7.604,-8.68c-2.171,0 -3.246,0 -5.417,1.075l-28.213,10.855c-6.508,-0 -14.112,-6.513 -14.112,-19.534l-0,-100.904c-0,-7.604 5.433,-28.208 14.112,-31.475l28.213,-10.85" style="fill-rule:nonzero;"/></g><g><path d="M11830.6,2159.53c96.563,0 214.842,-88.975 214.842,-181.212c0,-55.329 -43.4,-90.054 -105.258,-90.054c-119.359,-0 -214.846,87.883 -214.846,181.2c-0,56.42 46.667,90.066 105.262,90.066" style="fill-rule:nonzero;"/></g><g><path d="M12717.1,1938.17c-6.512,21.704 -57.517,43.404 -82.467,43.404c-6.508,0 -11.945,-2.171 -13.02,-5.433c-2.171,-4.342 -3.263,-28.213 -3.263,-54.254c0,-33.63 1.092,-71.613 3.263,-80.296c2.17,-18.438 52.083,-41.229 79.2,-41.229c7.604,-0 14.116,2.166 16.287,6.508c2.171,5.433 4.338,32.554 4.338,61.858c-0,29.288 -2.167,59.671 -4.338,69.442m74.858,-176.875c7.605,-3.246 13.021,-11.925 13.021,-18.438l0,-77.045c0,-5.417 -3.246,-8.684 -7.583,-8.684c-2.171,0 -3.267,0 -5.438,1.096c0,0 -21.7,8.679 -27.116,9.759c-7.604,-0 -15.192,-5.417 -15.192,-14.101l0,-132.379c0,-6.508 -6.508,-11.941 -15.192,-11.941c-10.85,-0 -17.358,5.433 -17.358,11.941l0,141.063c-1.096,10.85 -4.342,24.946 -14.117,31.458c-13.02,7.604 -49.912,22.792 -68.35,27.133c-9.775,0 -13.02,-13.02 -13.02,-21.7l-0,-130.208c-0,-6.512 -7.605,-11.946 -15.192,-11.946c-10.85,0 -17.358,5.434 -17.358,11.946l-0,146.475c-0,15.192 -6.513,26.042 -13.021,29.304c-6.513,3.25 -28.213,11.929 -28.213,11.929c-7.604,2.171 -13.021,10.85 -13.021,17.363l0,77.046c0,6.512 3.246,9.758 8.68,9.758c4.341,0 24.95,-9.758 28.212,-11.929c1.075,-0 2.171,-1.092 3.246,-1.092c7.604,0 14.117,10.85 14.117,19.529l-0,107.434c-0,11.925 -5.438,21.7 -11.946,24.946c-6.513,2.17 -29.288,11.946 -29.288,11.946c-7.604,2.17 -13.021,10.85 -13.021,17.358l0,77.033c0,6.513 3.246,9.775 8.68,9.775c1.075,0 3.245,-1.096 4.341,-1.096c0,0 15.192,-6.508 24.946,-9.754c1.096,-1.096 2.171,-1.096 3.267,-1.096c7.583,0 13.021,11.946 13.021,17.363l-0,133.471c-0,6.512 6.508,11.929 14.095,11.929c10.85,-0 18.455,-5.417 18.455,-11.929l-0,-150.834c-0,-14.095 5.416,-21.7 10.85,-23.87l66.183,-27.117c1.092,-0 3.262,-1.096 4.337,-1.096c8.684,0 14.117,13.021 14.117,19.533l0,135.642c0,6.508 6.508,11.925 14.096,11.925c11.946,0 18.454,-5.417 18.454,-11.925l0,-154.079c0,-8.683 4.342,-21.704 11.929,-24.967c7.604,-3.246 30.379,-11.929 30.379,-11.929c7.605,-3.262 13.021,-11.942 13.021,-18.454l0,-77.029c0,-5.434 -3.246,-8.684 -7.583,-8.684c-2.171,0 -3.267,0 -5.438,1.08l-28.208,10.85c-6.512,-0 -14.1,-6.509 -14.1,-19.53l0,-100.904c0,-7.604 5.417,-28.212 14.1,-31.475l28.208,-10.85" style="fill-rule:nonzero;"/></g><g><path d="M12977.4,2024.98c96.562,0 214.846,-88.975 214.846,-181.216c-0,-55.329 -43.405,-90.05 -105.263,-90.05c-119.358,-0 -214.842,87.879 -214.842,181.196c0,56.425 46.667,90.07 105.259,90.07" style="fill-rule:nonzero;"/></g><g><path d="M14124.8,1755.88c96.579,0 214.846,-88.975 214.846,-181.212c-0,-55.329 -43.404,-90.054 -105.246,-90.054c-119.354,-0 -214.842,87.883 -214.842,181.2c0,56.421 46.65,90.066 105.242,90.066" style="fill-rule:nonzero;"/></g><g><path d="M15719.6,1621.34c96.563,-0 214.842,-88.975 214.842,-181.217c-0,-55.329 -43.4,-90.05 -105.259,-90.05c-119.358,-0 -214.845,87.879 -214.845,181.196c-0,56.425 46.666,90.071 105.262,90.071" style="fill-rule:nonzero;"/></g><g><path d="M17123.6,1352.24c96.579,-0 214.846,-88.979 214.846,-181.217c-0,-55.329 -43.404,-90.054 -105.246,-90.054c-119.358,-0 -214.842,87.883 -214.842,181.2c0,56.425 46.65,90.071 105.242,90.071" style="fill-rule:nonzero;"/></g><g><path d="M18266.6,1130.89c-6.509,21.7 -57.517,43.4 -82.463,43.4c-6.512,-0 -11.946,-2.171 -13.021,-5.434c-2.17,-4.341 -3.266,-28.212 -3.266,-54.254c-0,-33.629 1.096,-71.612 3.266,-80.296c2.171,-18.437 52.084,-41.229 79.2,-41.229c7.605,0 14.117,2.167 16.284,6.508c2.171,5.434 4.341,32.554 4.341,61.859c0,29.287 -2.17,59.671 -4.341,69.446m74.862,-176.875c7.604,-3.25 13.021,-11.93 13.021,-18.438l0,-77.05c0,-5.417 -3.246,-8.679 -7.587,-8.679c-2.171,-0 -3.263,-0 -5.434,1.092c0,-0 -21.7,8.679 -27.116,9.758c-7.605,-0 -15.192,-5.417 -15.192,-14.1l-0,-132.379c-0,-6.509 -6.513,-11.942 -15.192,-11.942c-10.85,0 -17.362,5.433 -17.362,11.946l-0,141.058c-1.092,10.85 -4.338,24.946 -14.113,31.459c-13.021,7.604 -49.912,22.795 -68.35,27.133c-9.775,-0 -13.021,-13.021 -13.021,-21.7l0,-130.208c0,-6.513 -7.604,-11.946 -15.191,-11.946c-10.85,-0 -17.363,5.433 -17.363,11.946l0,146.475c0,15.191 -6.508,26.041 -13.021,29.304c-6.508,3.25 -28.212,11.929 -28.212,11.929c-7.604,2.171 -13.021,10.85 -13.021,17.362l0,77.046c0,6.513 3.25,9.759 8.683,9.759c4.338,-0 24.946,-9.759 28.213,-11.93c1.075,0 2.167,-1.091 3.246,-1.091c7.604,-0 14.112,10.85 14.112,19.529l0,107.433c0,11.925 -5.433,21.7 -11.941,24.946c-6.513,2.171 -29.292,11.946 -29.292,11.946c-7.604,2.171 -13.021,10.85 -13.021,17.358l0,77.034c0,6.508 3.25,9.775 8.683,9.775c1.075,-0 3.246,-1.096 4.338,-1.096c-0,-0 15.192,-6.509 24.95,-9.754c1.092,-1.096 2.171,-1.096 3.262,-1.096c7.588,-0 13.021,11.946 13.021,17.362l0,133.471c0,6.513 6.513,11.929 14.1,11.929c10.85,0 18.454,-5.416 18.454,-11.929l0,-150.833c0,-14.096 5.417,-21.7 10.85,-23.871l66.18,-27.117c1.095,0 3.266,-1.096 4.341,-1.096c8.679,0 14.113,13.021 14.113,19.534l-0,135.641c-0,6.509 6.512,11.925 14.1,11.925c11.941,0 18.454,-5.416 18.454,-11.925l-0,-154.079c-0,-8.683 4.342,-21.704 11.925,-24.966c7.604,-3.246 30.383,-11.93 30.383,-11.93c7.604,-3.262 13.021,-11.941 13.021,-18.454l0,-77.029c0,-5.433 -3.246,-8.683 -7.587,-8.683c-2.171,-0 -3.263,-0 -5.434,1.079l-28.212,10.85c-6.509,-0 -14.096,-6.513 -14.096,-19.533l-0,-100.9c-0,-7.605 5.417,-28.213 14.096,-31.475l28.212,-10.855" style="fill-rule:nonzero;"/></g><g><path d="M18526.9,1217.69c96.579,-0 214.841,-88.975 214.841,-181.217c0,-55.329 -43.4,-90.05 -105.241,-90.05c-119.359,0 -214.846,87.879 -214.846,181.196c-0,56.425 46.65,90.071 105.246,90.071" style="fill-rule:nonzero;"/></g><g><path d="M19413.7,996.338c-6.508,21.7 -57.517,43.404 -82.467,43.404c-6.508,-0 -11.941,-2.171 -13.02,-5.438c-2.167,-4.337 -3.263,-28.208 -3.263,-54.25c0,-33.629 1.096,-71.616 3.263,-80.296c2.17,-18.437 52.083,-41.233 79.204,-41.233c7.604,0 14.112,2.171 16.283,6.508c2.171,5.438 4.342,32.555 4.342,61.859c-0,29.287 -2.171,59.671 -4.342,69.446m74.863,-176.875c7.604,-3.246 13.02,-11.93 13.02,-18.438l0,-77.05c0,-5.417 -3.245,-8.679 -7.587,-8.679c-2.171,-0 -3.263,-0 -5.433,1.091c-0,0 -21.705,8.684 -27.121,9.759c-7.604,-0 -15.188,-5.417 -15.188,-14.096l0,-132.379c0,-6.513 -6.512,-11.946 -15.191,-11.946c-10.85,0 -17.363,5.433 -17.363,11.946l0,141.058c-1.092,10.85 -4.342,24.95 -14.112,31.458c-13.021,7.605 -49.917,22.796 -68.355,27.138c-9.77,-0 -13.02,-13.021 -13.02,-21.704l-0,-130.209c-0,-6.508 -7.605,-11.941 -15.188,-11.941c-10.854,-0 -17.362,5.433 -17.362,11.941l-0,146.475c-0,15.192 -6.513,26.042 -13.021,29.309c-6.513,3.246 -28.213,11.925 -28.213,11.925c-7.604,2.171 -13.021,10.85 -13.021,17.362l0,77.05c0,6.509 3.246,9.755 8.68,9.755c4.341,-0 24.95,-9.755 28.212,-11.925c1.079,-0 2.171,-1.096 3.246,-1.096c7.604,-0 14.117,10.85 14.117,19.533l-0,107.429c-0,11.929 -5.434,21.7 -11.946,24.95c-6.509,2.167 -29.288,11.942 -29.288,11.942c-7.604,2.171 -13.021,10.85 -13.021,17.362l0,77.029c0,6.513 3.246,9.775 8.68,9.775c1.079,0 3.25,-1.091 4.341,-1.091c0,-0 15.192,-6.513 24.95,-9.759c1.092,-1.091 2.167,-1.091 3.263,-1.091c7.587,-0 13.021,11.941 13.021,17.358l-0,133.475c-0,6.508 6.508,11.925 14.095,11.925c10.85,0 18.455,-5.417 18.455,-11.925l-0,-150.833c-0,-14.1 5.416,-21.704 10.854,-23.875l66.179,-27.117c1.092,0 3.262,-1.092 4.342,-1.092c8.679,0 14.112,13.021 14.112,19.53l0,135.641c0,6.513 6.513,11.929 14.096,11.929c11.946,0 18.458,-5.416 18.458,-11.929l0,-154.079c0,-8.679 4.338,-21.7 11.925,-24.967c7.604,-3.245 30.384,-11.925 30.384,-11.925c7.604,-3.262 13.02,-11.945 13.02,-18.454l0,-77.033c0,-5.433 -3.245,-8.679 -7.587,-8.679c-2.171,-0 -3.263,-0 -5.433,1.075l-28.213,10.85c-6.512,-0 -14.096,-6.509 -14.096,-19.529l0,-100.905c0,-7.604 5.417,-28.212 14.096,-31.475l28.213,-10.85" style="fill-rule:nonzero;"/></g><g><path d="M19673.7,1083.14c96.579,-0 214.841,-88.975 214.841,-181.213c0,-55.333 -43.4,-90.054 -105.241,-90.054c-119.359,0 -214.846,87.883 -214.846,181.2c-0,56.421 46.65,90.067 105.246,90.067" style="fill-rule:nonzero;"/></g><g><path d="M20821.3,814.046c96.563,-0 214.846,-88.975 214.846,-181.217c-0,-55.329 -43.404,-90.05 -105.263,-90.05c-119.354,0 -214.841,87.879 -214.841,181.196c-0,56.425 46.666,90.071 105.258,90.071" style="fill-rule:nonzero;"/></g><g><path d="M21968.9,679.496c96.563,-0 214.846,-88.975 214.846,-181.217c0,-55.329 -43.404,-90.05 -105.262,-90.05c-119.359,0 -214.842,87.884 -214.842,181.2c0,56.421 46.667,90.067 105.258,90.067" style="fill-rule:nonzero;"/></g><g><path d="M22961.4,814.046c96.563,-0 214.846,-88.975 214.846,-181.217c0,-55.329 -43.404,-90.05 -105.262,-90.05c-119.354,0 -214.842,87.879 -214.842,181.196c0,56.425 46.667,90.071 105.258,90.071" style="fill-rule:nonzero;"/></g><g><path d="M23953.9,948.596c96.579,-0 214.842,-88.979 214.842,-181.217c-0,-55.329 -43.4,-90.054 -105.242,-90.054c-119.358,0 -214.846,87.883 -214.846,181.2c0,56.425 46.65,90.071 105.246,90.071" style="fill-rule:nonzero;"/></g><g><path d="M24632.1,905.192c0,-15.192 66.196,-43.404 92.238,-43.404c6.512,-0 9.758,1.079 9.758,5.416l-0,111.771c-0,19.533 -61.842,44.479 -88.975,44.479c-7.588,0 -13.021,-2.171 -13.021,-6.508l0,-111.754m112.846,-154.079c-2.171,-0 -3.246,1.075 -4.342,1.075c0,-0 -69.441,24.966 -97.654,24.966c-6.512,0 -10.85,-1.096 -10.85,-5.433l0,-181.2c0,-7.604 -6.512,-13.021 -13.021,-13.021l-14.1,-0c-7.604,-0 -13.021,5.417 -13.021,13.021l0,558.804c0,6.508 3.25,9.771 8.684,9.771c1.075,-0 6.508,-1.092 7.587,-2.167c15.188,-6.512 75.954,-32.554 107.429,-32.554c10.85,0 18.438,3.246 18.438,11.929l-0,161.684c-0,7.583 5.433,13.02 13.021,13.02l14.112,0c6.513,0 13.021,-5.437 13.021,-13.02l0,-544.709c0,-5.433 -4.337,-8.679 -8.679,-8.679c-1.092,0 -3.263,0 -4.342,1.075l-16.283,5.438" style="fill-rule:nonzero;"/></g><g><path d="M24946.6,1083.14c96.58,-0 214.842,-88.975 214.842,-181.213c0,-55.333 -43.4,-90.054 -105.242,-90.054c-119.358,0 -214.845,87.883 -214.845,181.2c-0,56.421 46.65,90.067 105.245,90.067" style="fill-rule:nonzero;"/></g><g><path d="M25939.2,1352.24c96.579,-0 214.846,-88.979 214.846,-181.217c-0,-55.329 -43.404,-90.054 -105.246,-90.054c-119.358,-0 -214.842,87.883 -214.842,181.2c0,56.425 46.65,90.071 105.242,90.071" style="fill-rule:nonzero;"/></g><g><path d="M27343.2,1621.34c96.563,-0 214.846,-88.975 214.846,-181.217c-0,-55.329 -43.404,-90.05 -105.263,-90.05c-119.354,-0 -214.841,87.879 -214.841,181.196c-0,56.425 46.666,90.071 105.258,90.071" style="fill-rule:nonzero;"/></g><g><path d="M565.288,2143.25c3.246,20.625 3.246,19.533 -16.287,26.042c-95.484,32.554 -157.325,118.283 -157.325,210.504c-0,97.658 50.987,167.1 124.775,192.066c8.679,3.246 21.7,6.509 29.304,6.509c8.679,-0 13.021,-5.434 13.021,-11.942c-0,-7.587 -8.68,-10.85 -16.284,-14.1c-45.575,-19.529 -78.125,-66.196 -78.125,-116.108c0,-61.842 42.325,-108.509 108.504,-126.946c17.363,-4.342 19.534,-3.263 21.705,8.679l54.254,323.35c2.166,11.929 1.091,11.929 -15.192,15.192c-17.362,3.25 -39.062,5.416 -60.767,5.416c-189.875,0 -312.5,-105.241 -312.5,-256.075c0,-64.012 10.855,-149.737 100.921,-251.737c65.104,-72.688 115.017,-112.846 166.009,-154.079c10.85,-8.68 13.02,-7.588 15.191,4.341l22.796,138.888m118.263,-738.921c35.816,-0 65.104,29.287 65.104,88.975c-0,120.433 -103.075,218.087 -188.804,292.967c-7.584,6.512 -11.925,5.416 -14.096,-8.68c-4.342,-28.212 -6.509,-65.104 -6.509,-99.825c0,-169.27 78.125,-273.437 144.305,-273.437m-43.405,911.458c-2.17,-13.021 -1.075,-16.287 11.946,-15.191c87.884,7.587 160.592,81.37 160.592,176.858c-0,68.367 -41.233,123.696 -102,154.079c-13.021,6.508 -15.188,6.508 -17.358,-6.512l-53.18,-309.234m-58.591,-338.541c-2.171,-13.021 -0,-14.117 6.508,-20.625c117.188,-109.584 206.163,-247.396 206.163,-413.405c-0,-94.408 -26.042,-187.725 -70.521,-252.829c-16.284,-23.871 -44.496,-54.254 -56.421,-54.254c-15.192,0 -48.838,28.213 -70.538,52.083c-80.295,88.975 -106.337,224.617 -106.337,337.467c-0,62.933 7.604,133.454 15.192,177.95c2.166,13.021 3.262,15.192 -9.759,26.042c-156.25,129.112 -322.275,284.287 -322.275,503.471c0,188.804 129.134,367.829 394.967,367.829c24.962,-0 53.175,-2.167 74.879,-6.509c11.925,-2.17 14.096,-3.245 16.267,9.775c13.021,72.692 29.304,167.1 29.304,218.088c-0,160.592 -108.508,180.125 -172.533,180.125c-58.596,-0 -86.809,-17.363 -86.809,-31.458c0,-7.605 9.775,-10.855 34.725,-18.459c33.646,-9.754 72.709,-39.062 72.709,-101.996c-0,-59.67 -37.988,-110.675 -104.167,-110.675c-72.708,0 -116.113,57.517 -116.113,124.792c0,70.521 42.325,176.858 206.163,176.858c72.708,0 213.767,-32.554 213.767,-217.016c-0,-61.838 -19.53,-164.929 -31.475,-232.204c-2.171,-13.021 -1.075,-11.925 14.116,-18.438c109.584,-43.404 182.292,-135.641 182.292,-258.246c-0,-138.887 -101.996,-261.512 -261.513,-261.512c-28.212,-0 -28.212,-0 -31.458,-19.529l-27.133,-157.325" style="fill-rule:nonzero;"/></g><g><path d="M5593.28,3345.06c-14.106,0 -21.701,6.511 -21.701,16.276c-0,9.766 7.595,16.276 21.701,16.276l10.851,0c40.147,0 59.679,23.872 59.679,58.594c-0,47.743 -33.638,113.933 -99.827,113.933c-21.701,-0 -39.062,-8.681 -39.062,-19.532c-0,-6.51 5.425,-8.68 14.105,-13.021c11.936,-5.425 27.127,-18.446 27.127,-46.658c0,-26.041 -18.446,-39.062 -41.232,-39.062c-30.382,-0 -53.169,27.127 -53.169,62.934c0,43.403 34.722,83.55 111.762,83.55c92.231,0 168.186,-55.338 168.186,-141.059c0,-27.127 -14.106,-53.168 -42.317,-67.274c-7.596,-3.255 -11.936,-4.34 -11.936,-9.766c-0,-3.255 4.34,-5.425 13.021,-9.765c45.573,-18.447 82.465,-53.169 82.465,-96.572c0,-56.423 -54.254,-91.146 -120.443,-91.146c-68.359,0 -124.783,35.808 -126.953,94.401c-1.085,28.212 16.276,46.658 41.233,46.658c27.126,0 48.828,-21.701 48.828,-50.998c-0,-11.936 -4.341,-20.616 -9.766,-27.127c-7.595,-6.51 -13.021,-10.85 -13.021,-14.106c0,-7.595 13.021,-15.191 35.808,-15.191c42.317,0 56.423,26.042 56.423,49.914c0,57.508 -36.892,98.741 -99.826,98.741l-11.936,0Z" style="fill-rule:nonzero;"/></g><g><path d="M12844.4,3100.89c-14.106,-0 -21.701,6.51 -21.701,16.276c-0,9.765 7.595,16.276 21.701,16.276l10.851,-0c40.147,-0 59.679,23.871 59.679,58.593c-0,47.744 -33.638,113.933 -99.827,113.933c-21.701,-0 -39.062,-8.681 -39.062,-19.531c-0,-6.511 5.425,-8.681 14.105,-13.021c11.936,-5.426 27.127,-18.446 27.127,-46.658c0,-26.042 -18.446,-39.063 -41.232,-39.063c-30.382,0 -53.169,27.127 -53.169,62.934c0,43.403 34.722,83.551 111.762,83.551c92.231,-0 168.186,-55.339 168.186,-141.059c0,-27.127 -14.106,-53.169 -42.317,-67.275c-7.596,-3.255 -11.936,-4.34 -11.936,-9.766c-0,-3.255 4.34,-5.425 13.021,-9.765c45.573,-18.446 82.465,-53.169 82.465,-96.571c0,-56.424 -54.254,-91.146 -120.443,-91.146c-68.359,-0 -124.783,35.807 -126.953,94.401c-1.085,28.212 16.276,46.658 41.233,46.658c27.126,-0 48.828,-21.702 48.828,-50.999c-0,-11.935 -4.341,-20.616 -9.766,-27.126c-7.595,-6.511 -13.021,-10.851 -13.021,-14.106c0,-7.596 13.021,-15.191 35.808,-15.191c42.317,-0 56.423,26.042 56.423,49.913c0,57.509 -36.892,98.742 -99.826,98.742l-11.936,-0Z" style="fill-rule:nonzero;"/></g><g><path d="M19540.9,2946.21c-14.106,0 -21.701,6.51 -21.701,16.276c-0,9.766 7.595,16.276 21.701,16.276l10.851,0c40.148,0 59.679,23.872 59.679,58.594c-0,47.743 -33.637,113.932 -99.827,113.932c-21.701,0 -39.062,-8.68 -39.062,-19.531c-0,-6.51 5.425,-8.68 14.106,-13.021c11.936,-5.425 27.127,-18.446 27.127,-46.658c-0,-26.041 -18.447,-39.062 -41.233,-39.062c-30.382,-0 -53.169,27.126 -53.169,62.934c0,43.403 34.723,83.55 111.763,83.55c92.231,0 168.186,-55.338 168.186,-141.059c-0,-27.127 -14.106,-53.168 -42.318,-67.274c-7.596,-3.256 -11.936,-4.341 -11.936,-9.766c0,-3.255 4.34,-5.425 13.021,-9.766c45.573,-18.446 82.465,-53.168 82.465,-96.571c0,-56.424 -54.253,-91.146 -120.443,-91.146c-68.359,0 -124.783,35.807 -126.953,94.401c-1.085,28.212 16.276,46.658 41.233,46.658c27.127,0 48.828,-21.701 48.828,-50.998c0,-11.936 -4.34,-20.616 -9.766,-27.127c-7.595,-6.51 -13.02,-10.85 -13.02,-14.106c-0,-7.595 13.02,-15.191 35.807,-15.191c42.318,0 56.424,26.042 56.424,49.914c-0,57.508 -36.893,98.741 -99.827,98.741l-11.936,0Z" style="fill-rule:nonzero;"/></g><g><path d="M1794.68,2292.99l-0,-135.142l1436.08,-134.546l-0,135.138l-1436.08,134.55" style="fill-rule:nonzero;"/></g><g><path d="M4601.73,2023.89l-0,-136.005l2326.93,-336.371l-0,136.005l-2326.93,336.371" style="fill-rule:nonzero;"/></g><g><path d="M7756.02,3302.43l0,-134.65l3009.44,-134.55l0,134.654l-3009.44,134.546" style="fill-rule:nonzero;"/></g><g><path d="M7756.02,3100.45l0,-134.721l3009.44,-134.55l0,134.725l-3009.44,134.546" style="fill-rule:nonzero;"/></g><g><path d="M11725.2,2966.65l-0,-135.471l2326.39,-269.096l0,135.471l-2326.39,269.096" style="fill-rule:nonzero;"/></g><g><path d="M15614.2,2497.26l0,-136.996l1436.63,-269.1l0,136.996l-1436.63,269.1" style="fill-rule:nonzero;"/></g><g><path d="M18421.6,2225.76l0,-134.6l2326.93,-67.275l0,134.604l-2326.93,67.271" style="fill-rule:nonzero;"/></g><g><path d="M21863.5,2158.56l-0,-134.616l3009.98,67.275l0,134.616l-3009.98,-67.275" style="fill-rule:nonzero;"/></g><g><path d="M21863.5,1956.67l-0,-134.6l3009.98,67.275l0,134.6l-3009.98,-67.275" style="fill-rule:nonzero;"/></g><g><path d="M25833.8,2228.16l0,-136.995l1436.08,269.099l0,136.996l-1436.08,-269.1" style="fill-rule:nonzero;"/></g><g><path d="M4225.23,3370.47l1101.35,-0l-0,-43.071l-1058.49,-0l0,-158.75l-42.862,-0" style="fill-rule:nonzero;"/></g><g><path d="M6950.36,3370.47l-1034.06,-0l0,-43.071l990.663,-0l-0,-158.75l43.4,-0" style="fill-rule:nonzero;"/></g><g><path d="M39.038,5387.62l11783.3,0" style="fill:none;stroke:#000;stroke-width:34.92px;"/><path d="M39.038,5656.71l11783.3,0" style="fill:none;stroke:#000;stroke-width:34.92px;"/><path d="M39.038,5925.79l11783.3,-0" style="fill:none;stroke:#000;stroke-width:34.92px;"/><path d="M39.038,6194.92l11783.3,-0" style="fill:none;stroke:#000;stroke-width:34.92px;"/><path d="M39.038,6464l11783.3,0" style="fill:none;stroke:#000;stroke-width:34.92px;"/></g><g><path d="M8931.19,5370.12l0,1111.32" style="fill:none;stroke:#000;stroke-width:43.04px;"/><path d="M11531.5,5370.12l0,1111.32" style="fill:none;stroke:#000;stroke-width:43.04px;"/></g><g><path d="M11755.1,5370.12l0,1111.32" style="fill:none;stroke:#000;stroke-width:134.54px;"/></g><g><path d="M1522.86,5432.79l-0,1035.87" style="fill:none;stroke:#000;stroke-width:32.29px;"/><path d="M2284.04,5836.46l0,834.046" style="fill:none;stroke:#000;stroke-width:32.29px;"/><path d="M3333.29,5116.79l0,763.837" style="fill:none;stroke:#000;stroke-width:32.29px;"/><path d="M3955.58,5217.71l-0,797.467" style="fill:none;stroke:#000;stroke-width:32.29px;"/><path d="M4577.36,5318.58l-0,831.109" style="fill:none;stroke:#000;stroke-width:32.29px;"/><path d="M5199.61,5384.38l-0,899.896" style="fill:none;stroke:#000;stroke-width:32.29px;"/><path d="M5958.61,5552.54l-0,1000.82" style="fill:none;stroke:#000;stroke-width:32.29px;"/><path d="M6717.11,5720.75l-0,967.171" style="fill:none;stroke:#000;stroke-width:32.29px;"/></g><g><path d="M6368.77,6733.08l472.555,0" style="fill:none;stroke:#000;stroke-width:43.04px;"/></g><g><path d="M7339.36,5925.58l-0,896.859" style="fill:none;stroke:#000;stroke-width:32.29px;"/></g><g><path d="M6928.15,6733.08l534.93,0" style="fill:none;stroke:#000;stroke-width:43.04px;"/></g><g><path d="M7961.65,5959.21l0,997.775" style="fill:none;stroke:#000;stroke-width:32.29px;"/></g><g><path d="M7550.44,7002.21l534.929,0" style="fill:none;stroke:#000;stroke-width:43.04px;"/><path d="M7550.44,6733.08l534.929,0" style="fill:none;stroke:#000;stroke-width:43.04px;"/></g><g><path d="M8583.94,5992.88l0,1098.68" style="fill:none;stroke:#000;stroke-width:32.29px;"/></g><g><path d="M8172.69,7002.21l534.946,0" style="fill:none;stroke:#000;stroke-width:43.04px;"/><path d="M8172.69,6733.08l534.946,0" style="fill:none;stroke:#000;stroke-width:43.04px;"/><path d="M9249.1,7002.21l673.283,0" style="fill:none;stroke:#000;stroke-width:43.04px;"/><path d="M9249.1,6733.08l673.283,0" style="fill:none;stroke:#000;stroke-width:43.04px;"/></g><g><path d="M1724.56,5020.62l-0,-116.112c-0,-5.417 -1.079,-9.755 -6.513,-9.755c-4.341,0 -7.587,1.075 -10.85,5.417l-32.554,62.933c-2.166,2.171 -5.416,5.434 -5.416,13.021l-0,44.496l-70.538,0c44.496,-36.892 113.942,-159.512 115.017,-166.025c-0,-1.075 1.096,-2.171 1.096,-3.246c-0,-4.341 -4.342,-7.604 -7.605,-7.604c-5.416,0 -28.212,2.171 -37.97,2.171c-9.771,-0 -16.284,-2.171 -20.625,-2.171c-5.417,0 -13.021,2.171 -13.021,10.85c-0,69.446 -56.421,148.663 -70.521,168.196c-2.167,2.171 -4.338,5.417 -4.338,8.679c0,5.417 4.338,10.85 10.85,10.85l97.655,0l-0,33.629c-0,15.192 -8.68,19.534 -17.359,19.534c-9.775,-0 -14.116,4.337 -14.116,9.77c-0,5.417 2.17,11.93 11.945,11.93l93.317,-0c5.417,-0 10.85,-4.342 10.85,-11.93c0,-7.604 -6.512,-10.85 -11.946,-10.85c-5.416,0 -17.358,-3.262 -17.358,-20.625l-0,-31.458l40.154,0c5.417,0 8.679,-4.342 8.679,-10.85c0,-6.512 -2.166,-10.85 -8.679,-10.85l-40.154,0" style="fill-rule:nonzero;"/></g><g><path d="M2365.84,4969.88c0,0 -1.075,4.342 -1.075,7.587c0,4.338 4.338,8.68 8.679,8.68c3.246,-0 5.417,-3.246 6.509,-4.342c1.079,-3.246 14.1,-47.742 20.608,-58.592c2.171,-4.341 4.342,-5.416 5.433,-5.416c2.171,-0 3.25,4.337 3.25,7.587l0,155.171c0,13.021 -10.854,20.608 -21.704,20.608c-4.337,0 -9.754,2.171 -9.754,8.684c0,6.508 5.417,8.679 14.096,8.679l91.146,-0c8.679,-0 8.679,-8.679 8.679,-8.679c-0,-0 -0,-8.684 -8.679,-8.684c-7.588,0 -17.363,-9.754 -17.363,-19.529l0,-225.696c0,-8.679 -3.246,-13.021 -10.85,-13.021c-7.587,0 -14.096,2.171 -20.608,2.171c-10.85,0 -13.021,0 -21.7,-2.171c-4.342,0 -9.775,6.513 -13.021,10.85l-33.646,116.113" style="fill-rule:nonzero;"/></g><g><path d="M3247.04,4818.12l0,-116.092c0,-5.437 -1.075,-9.775 -6.508,-9.775c-4.342,0 -7.588,1.092 -10.85,5.434l-32.554,62.933c-2.171,2.171 -5.417,5.417 -5.417,13.021l-0,44.479l-70.538,-0c44.496,-36.892 113.942,-159.496 115.017,-166.008c0,-1.092 1.096,-2.167 1.096,-3.263c-0,-4.342 -4.342,-7.587 -7.604,-7.587c-5.417,-0 -28.213,2.17 -37.971,2.17c-9.775,0 -16.283,-2.17 -20.625,-2.17c-5.417,-0 -13.021,2.17 -13.021,10.85c0,69.445 -56.421,148.645 -70.521,168.179c-2.171,2.171 -4.337,5.433 -4.337,8.679c-0,5.433 4.337,10.85 10.85,10.85l97.654,0l-0,33.646c-0,15.191 -8.679,19.533 -17.358,19.533c-9.775,0 -14.117,4.338 -14.117,9.754c-0,5.438 2.171,11.946 11.946,11.946l93.316,0c5.417,0 10.85,-4.341 10.85,-11.946c0,-7.583 -6.512,-10.85 -11.945,-10.85c-5.417,0 -17.363,-3.245 -17.363,-20.608l0,-31.475l40.158,0c5.417,0 8.68,-4.337 8.68,-10.85c-0,-6.508 -2.171,-10.85 -8.68,-10.85l-40.158,0" style="fill-rule:nonzero;"/></g><g><path d="M3919.07,4880.29c0,-7.588 -3.262,-8.68 -6.512,-8.68c-4.338,0.001 -6.508,3.263 -7.604,6.509c-5.417,15.191 -17.359,34.721 -33.625,34.721c-2.171,-0 -4.342,-0 -6.513,-1.075l-16.283,-5.434c-10.85,-4.341 -36.892,-13.021 -58.596,-13.021c-7.587,0 -14.096,1.092 -20.608,3.263c11.929,-20.625 68.354,-47.742 80.296,-51.004c39.062,-5.417 71.616,-28.213 71.616,-70.521c0,-26.042 -10.85,-43.404 -24.966,-56.425c-28.213,-22.796 -69.446,-26.042 -81.371,-26.042c-39.063,0 -70.538,2.171 -98.75,34.721c-7.588,8.684 -10.85,17.363 -10.85,26.042c-0,7.587 3.262,16.266 6.508,26.041c6.513,13.021 20.625,22.78 35.817,22.78c27.116,-0 30.383,-26.042 30.383,-37.971c0,-24.963 -27.137,-27.133 -27.137,-37.984c-0,-7.587 10.85,-20.608 43.404,-20.608c51.008,0 68.366,42.309 68.366,55.329c0,19.534 -6.508,37.988 -17.358,53.18c-19.533,24.945 -55.35,33.625 -82.467,50.987c-30.383,18.454 -51.008,49.913 -60.762,84.638c-0,7.604 3.246,16.283 9.754,19.529c1.096,1.096 3.267,1.096 4.342,1.096c11.946,-0 18.454,-33.646 51.008,-33.646c21.7,-0 29.288,29.304 78.125,29.304c22.775,-0 65.104,-2.171 73.783,-85.729" style="fill-rule:nonzero;"/></g><g><path d="M4371.52,4927.5c0,0 -1.079,4.342 -1.079,7.604c0,4.342 4.342,8.679 8.684,8.679c3.245,0 5.416,-3.262 6.508,-4.337c1.075,-3.267 14.096,-47.746 20.608,-58.596c2.171,-4.342 4.342,-5.433 5.434,-5.433c2.17,-0 3.245,4.341 3.245,7.604l0,155.154c0,13.021 -10.85,20.625 -21.7,20.625c-4.341,0 -9.758,2.171 -9.758,8.683c0,6.509 5.417,8.68 14.1,8.68l91.146,-0.001c8.679,0.001 8.679,-8.679 8.679,-8.679c0,0 0,-8.683 -8.679,-8.683c-7.588,0 -17.363,-9.771 -17.363,-19.529l0,-225.696c0,-8.679 -3.245,-13.021 -10.85,-13.021c-7.587,0 -14.1,2.171 -20.608,2.171c-10.85,0 -13.021,0 -21.7,-2.171c-4.342,0 -9.775,6.513 -13.021,10.85l-33.646,116.096" style="fill-rule:nonzero;"/></g><g><path d="M5113.73,5020.88l-0,-116.092c-0,-5.433 -1.079,-9.775 -6.513,-9.775c-4.341,0 -7.587,1.096 -10.85,5.434l-32.554,62.933c-2.167,2.171 -5.417,5.417 -5.417,13.021l0,44.479l-70.537,-0c44.496,-36.892 113.942,-159.496 115.017,-166.004c-0,-1.096 1.095,-2.171 1.095,-3.267c0,-4.337 -4.341,-7.587 -7.604,-7.587c-5.416,-0 -28.212,2.171 -37.971,2.171c-9.77,-0.001 -16.283,-2.171 -20.625,-2.171c-5.416,-0 -13.02,2.171 -13.02,10.854c-0,69.441 -56.421,148.646 -70.521,168.175c-2.167,2.171 -4.338,5.433 -4.338,8.679c0,5.438 4.338,10.854 10.85,10.854l97.654,0l0,33.646c0,15.188 -8.679,19.529 -17.358,19.529c-9.775,0 -14.117,4.342 -14.117,9.758c0,5.434 2.171,11.942 11.946,11.942l93.317,0c5.417,0 10.85,-4.337 10.85,-11.941c-0,-7.588 -6.513,-10.851 -11.946,-10.851c-5.417,0 -17.358,-3.25 -17.358,-20.608l-0,-31.475l40.154,0c5.417,0 8.679,-4.341 8.679,-10.854c0,-6.508 -2.167,-10.85 -8.679,-10.85l-40.154,0" style="fill-rule:nonzero;"/></g><g><path d="M5922.23,5031.71c-0,-7.587 -3.263,-8.683 -6.509,-8.683c-4.341,-0 -6.512,3.267 -7.604,6.512c-5.416,15.192 -17.362,34.721 -33.629,34.721c-2.171,0 -4.342,0 -6.512,-1.075l-16.284,-5.433c-10.85,-4.342 -36.891,-13.021 -58.596,-13.021c-7.583,0 -14.095,1.092 -20.604,3.263c11.925,-20.625 68.35,-47.742 80.292,-51.009c39.062,-5.416 71.617,-28.212 71.617,-70.521c-0,-26.041 -10.85,-43.404 -24.967,-56.425c-28.213,-22.791 -69.442,-26.041 -81.371,-26.041c-39.062,-0 -70.537,2.171 -98.75,34.725c-7.587,8.679 -10.85,17.358 -10.85,26.042c0,7.587 3.263,16.266 6.508,26.041c6.513,13.021 20.625,22.775 35.817,22.775c27.121,0.004 30.383,-26.037 30.383,-37.967c0,-24.966 -27.137,-27.133 -27.137,-37.987c-0,-7.588 10.854,-20.608 43.404,-20.608c51.008,-0 68.367,42.312 68.367,55.333c-0,19.529 -6.509,37.983 -17.359,53.175c-19.533,24.95 -55.35,33.629 -82.466,50.992c-30.384,18.454 -51.009,49.912 -60.763,84.633c0,7.604 3.246,16.287 9.754,19.533c1.096,1.092 3.267,1.092 4.342,1.092c11.946,-0 18.454,-33.646 51.008,-33.646c21.7,0 29.288,29.308 78.125,29.308c22.775,-0.004 65.105,-2.17 73.784,-85.729" style="fill-rule:nonzero;"/></g><g><path d="M6511.23,4969.88c-0,0 -1.096,4.342 -1.096,7.587c-0,4.338 4.342,8.68 8.683,8.68c3.263,-0 5.434,-3.246 6.509,-4.342c1.095,-3.246 14.116,-47.742 20.625,-58.592c2.17,-4.341 4.341,-5.416 5.416,-5.416c2.171,-0 3.263,4.337 3.263,7.587l-0,155.171c-0,13.021 -10.85,20.608 -21.7,20.608c-4.342,0 -9.775,2.171 -9.775,8.684c-0,6.508 5.433,8.679 14.116,8.679l91.146,-0c8.679,-0 8.679,-8.679 8.679,-8.679c0,-0 0,-8.684 -8.679,-8.684c-7.604,0 -17.362,-9.754 -17.362,-19.529l-0,-225.696c-0,-8.679 -3.263,-13.021 -10.85,-13.021c-7.604,0 -14.117,2.171 -20.625,2.171c-10.85,0 -13.021,0 -21.7,-2.171c-4.342,0 -9.759,6.513 -13.021,10.85l-33.629,116.113" style="fill-rule:nonzero;"/></g><g><path d="M7253.4,5020.88l0,-116.092c0,-5.433 -1.091,-9.775 -6.508,-9.775c-4.342,0 -7.604,1.096 -10.85,5.434l-32.554,62.933c-2.171,2.171 -5.433,5.417 -5.433,13.021l-0,44.479l-70.521,-0c44.479,-36.892 113.925,-159.496 115.016,-166.004c0,-1.096 1.075,-2.171 1.075,-3.267c0,-4.337 -4.337,-7.587 -7.583,-7.587c-5.437,-0 -28.212,2.171 -37.987,2.171c-9.759,-0.001 -16.267,-2.171 -20.609,-2.171c-5.433,-0 -13.021,2.171 -13.021,10.854c0,69.441 -56.425,148.646 -70.537,168.175c-2.171,2.171 -4.342,5.433 -4.342,8.679c0,5.438 4.342,10.854 10.85,10.854l97.659,0l-0,33.646c-0,15.188 -8.68,19.529 -17.363,19.529c-9.754,0 -14.096,4.342 -14.096,9.758c0,5.434 2.171,11.942 11.925,11.942l93.317,0c5.433,0 10.85,-4.337 10.85,-11.941c-0,-7.588 -6.508,-10.851 -11.925,-10.851c-5.433,0 -17.363,-3.25 -17.363,-20.608l0,-31.475l40.142,0c5.433,0 8.679,-4.341 8.679,-10.854c0,-6.508 -2.171,-10.85 -8.679,-10.85l-40.142,0" style="fill-rule:nonzero;"/></g><g><path d="M7925.4,5031.71c0,-7.587 -3.245,-8.683 -6.512,-8.683c-4.338,-0 -6.508,3.267 -7.588,6.512c-5.433,15.192 -17.358,34.721 -33.645,34.721c-2.167,0 -4.338,0 -6.509,-1.075l-16.266,-5.433c-10.85,-4.342 -36.892,-13.021 -58.596,-13.021c-7.604,0 -14.113,1.092 -20.625,3.263c11.946,-20.625 68.371,-47.742 80.296,-51.009c39.062,-5.416 71.616,-28.212 71.616,-70.521c0,-26.041 -10.854,-43.404 -24.95,-56.425c-28.212,-22.791 -69.446,-26.041 -81.387,-26.041c-39.063,-0 -70.521,2.171 -98.734,34.725c-7.604,8.679 -10.85,17.358 -10.85,26.042c0,7.587 3.246,16.266 6.509,26.041c6.512,13.021 20.608,22.775 35.8,22.775c27.133,0.004 30.383,-26.037 30.383,-37.967c0,-24.966 -27.121,-27.133 -27.121,-37.987c0,-7.588 10.85,-20.608 43.404,-20.608c50.988,-0 68.35,42.312 68.35,55.333c0,19.529 -6.508,37.983 -17.362,53.175c-19.529,24.95 -55.329,33.629 -82.463,50.992c-30.383,18.454 -50.991,49.912 -60.766,84.633c-0,7.604 3.266,16.287 9.775,19.533c1.079,1.092 3.246,1.092 4.341,1.092c11.925,-0 18.438,-33.646 50.988,-33.646c21.704,0 29.308,29.308 78.125,29.308c22.796,-0.004 65.104,-2.17 73.787,-85.729" style="fill-rule:nonzero;"/></g><g><path d="M8377.9,4969.88c0,0 -1.095,4.342 -1.095,7.587c-0,4.338 4.341,8.68 8.679,8.68c3.266,-0 5.437,-3.246 6.512,-4.342c1.092,-3.246 14.113,-47.742 20.625,-58.592c2.171,-4.341 4.342,-5.416 5.417,-5.416c2.171,-0 3.262,4.337 3.262,7.587l0,155.171c0,13.021 -10.85,20.608 -21.7,20.608c-4.341,0 -9.775,2.171 -9.775,8.684c0,6.508 5.434,8.679 14.117,8.679l91.146,-0c8.679,-0 8.679,-8.679 8.679,-8.679c0,-0 0,-8.684 -8.679,-8.684c-7.604,0 -17.363,-9.754 -17.363,-19.529l0,-225.696c0,-8.679 -3.262,-13.021 -10.85,-13.021c-7.604,0 -14.116,2.171 -20.625,2.171c-10.85,0 -13.02,0 -21.704,-2.171c-4.337,0 -9.754,6.513 -13.021,10.85l-33.625,116.113" style="fill-rule:nonzero;"/></g><g><path d="M9523.44,4969.88c0,0 -1.096,4.342 -1.096,7.587c0,4.338 4.342,8.68 8.684,8.68c3.262,-0 5.433,-3.246 6.508,-4.342c1.096,-3.246 14.117,-47.742 20.625,-58.592c2.171,-4.341 4.342,-5.416 5.417,-5.416c2.17,-0 3.266,4.337 3.266,7.587l0,155.171c0,13.021 -10.854,20.608 -21.704,20.608c-4.337,0 -9.775,2.171 -9.775,8.684c0,6.508 5.438,8.679 14.117,8.679l91.146,-0c8.679,-0 8.679,-8.679 8.679,-8.679c-0,-0 -0,-8.684 -8.679,-8.684c-7.605,0 -17.363,-9.754 -17.363,-19.529l0,-225.696c0,-8.679 -3.262,-13.021 -10.85,-13.021c-7.604,0 -14.112,2.171 -20.625,2.171c-10.85,0 -13.021,0 -21.7,-2.171c-4.342,0 -9.758,6.513 -13.021,10.85l-33.629,116.113" style="fill-rule:nonzero;"/></g><g><path d="M1612.06,5523.25c96.562,0 214.842,-88.975 214.842,-181.212c-0,-55.334 -43.405,-90.055 -105.259,-90.055c-119.358,0 -214.846,87.884 -214.846,181.2c0,56.421 46.667,90.067 105.263,90.067" style="fill-rule:nonzero;"/></g><g><path d="M2113.06,5840.08c-6.508,21.7 -57.517,43.404 -82.462,43.404c-6.513,0 -11.946,-2.17 -13.021,-5.433c-2.171,-4.342 -3.267,-28.212 -3.267,-54.254c0,-33.629 1.096,-71.617 3.267,-80.296c2.166,-18.437 52.083,-41.233 79.2,-41.233c7.604,-0 14.112,2.171 16.283,6.512c2.171,5.434 4.342,32.55 4.342,61.855c-0,29.291 -2.171,59.67 -4.342,69.445m74.863,-176.875c7.604,-3.245 13.02,-11.925 13.02,-18.437l0,-77.05c0,-5.417 -3.245,-8.679 -7.587,-8.679c-2.171,-0 -3.263,-0 -5.433,1.096c-0,-0 -21.7,8.679 -27.117,9.754c-7.604,-0 -15.192,-5.417 -15.192,-14.096l0,-132.379c0,-6.509 -6.512,-11.946 -15.191,-11.946c-10.85,-0 -17.363,5.437 -17.363,11.946l0,141.058c-1.092,10.85 -4.337,24.95 -14.112,31.458c-13.021,7.605 -49.913,22.796 -68.35,27.138c-9.775,-0 -13.021,-13.021 -13.021,-21.704l-0,-130.209c-0,-6.508 -7.604,-11.941 -15.192,-11.941c-10.85,-0 -17.362,5.433 -17.362,11.941l-0,146.479c-0,15.188 -6.509,26.042 -13.021,29.305c-6.509,3.245 -28.213,11.925 -28.213,11.925c-7.604,2.17 -13.021,10.854 -13.021,17.362l0,77.05c0,6.508 3.246,9.754 8.684,9.754c4.337,0 24.946,-9.754 28.208,-11.925c1.079,0 2.171,-1.096 3.25,-1.096c7.604,0 14.113,10.855 14.113,19.534l-0,107.429c-0,11.929 -5.434,21.704 -11.946,24.95c-6.509,2.171 -29.288,11.942 -29.288,11.942c-7.604,2.17 -13.021,10.854 -13.021,17.362l0,77.033c0,6.509 3.246,9.771 8.684,9.771c1.075,0 3.246,-1.091 4.337,-1.091c0,-0 15.192,-6.513 24.95,-9.759c1.092,-1.091 2.171,-1.091 3.263,-1.091c7.587,-0 13.021,11.941 13.021,17.358l-0,133.475c-0,6.508 6.512,11.925 14.095,11.925c10.855,-0 18.459,-5.417 18.459,-11.925l-0,-150.833c-0,-14.1 5.416,-21.705 10.85,-23.871l66.179,-27.121c1.096,-0 3.262,-1.092 4.342,-1.092c8.679,0 14.112,13.021 14.112,19.529l0,135.642c0,6.513 6.513,11.929 14.1,11.929c11.942,0 18.454,-5.416 18.454,-11.929l0,-154.079c0,-8.679 4.338,-21.7 11.925,-24.963c7.604,-3.25 30.384,-11.929 30.384,-11.929c7.604,-3.262 13.02,-11.946 13.02,-18.454l0,-77.033c0,-5.434 -3.245,-8.679 -7.587,-8.679c-2.171,-0 -3.263,-0 -5.433,1.075l-28.213,10.854c-6.508,-0 -14.096,-6.513 -14.096,-19.534l0,-100.904c0,-7.604 5.417,-28.208 14.096,-31.475l28.213,-10.85" style="fill-rule:nonzero;"/></g><g><path d="M2373.29,5926.92c96.583,-0 214.846,-88.975 214.846,-181.213c-0,-55.329 -43.404,-90.054 -105.242,-90.054c-119.358,0 -214.846,87.883 -214.846,181.2c0,56.421 46.65,90.067 105.242,90.067" style="fill-rule:nonzero;"/></g><g><path d="M3134.54,6061.46c96.563,0 214.846,-88.975 214.846,-181.216c-0,-55.329 -43.404,-90.05 -105.263,-90.05c-119.354,-0 -214.825,87.883 -214.825,181.196c0,56.425 46.65,90.07 105.242,90.07" style="fill-rule:nonzero;"/></g><g><path d="M3756.75,6196c96.563,0 214.842,-88.975 214.842,-181.217c0,-55.329 -43.404,-90.05 -105.258,-90.05c-119.359,0 -214.846,87.879 -214.846,181.196c-0,56.425 46.667,90.071 105.262,90.071" style="fill-rule:nonzero;"/></g><g><path d="M4378.98,6330.54c96.579,-0 214.841,-88.975 214.841,-181.213c0,-55.329 -43.4,-90.054 -105.241,-90.054c-119.359,-0 -214.842,87.883 -214.842,181.2c0,56.421 46.646,90.067 105.242,90.067" style="fill-rule:nonzero;"/></g><g><path d="M5001.19,6465.08c96.563,0 214.846,-88.975 214.846,-181.216c-0,-55.329 -43.404,-90.05 -105.263,-90.05c-119.354,-0 -214.841,87.883 -214.841,181.195c-0,56.426 46.666,90.071 105.258,90.071" style="fill-rule:nonzero;"/></g><g><path d="M5499.69,6647.42c-6.512,21.7 -57.5,43.404 -82.467,43.404c-6.508,-0 -11.925,-2.171 -13.02,-5.434c-2.171,-4.341 -3.246,-28.212 -3.246,-54.254c-0,-33.629 1.075,-71.616 3.246,-80.296c2.17,-18.437 52.083,-41.233 79.22,-41.233c7.584,0 14.096,2.171 16.267,6.513c2.171,5.433 4.338,32.55 4.338,61.854c-0,29.292 -2.167,59.671 -4.338,69.446m74.879,-176.875c7.584,-3.246 13.021,-11.925 13.021,-18.438l0,-77.05c0,-5.416 -3.267,-8.679 -7.604,-8.679c-2.171,0 -3.25,0 -5.417,1.096c0,-0 -21.704,8.679 -27.137,9.754c-7.588,0 -15.192,-5.417 -15.192,-14.096l0,-132.379c0,-6.508 -6.508,-11.946 -15.192,-11.946c-10.85,0 -17.358,5.438 -17.358,11.946l0,141.058c-1.079,10.85 -4.342,24.95 -14.1,31.459c-13.021,7.604 -49.912,22.796 -68.367,27.137c-9.758,0 -13.02,-13.021 -13.02,-21.704l-0,-130.208c-0,-6.509 -7.588,-11.942 -15.192,-11.942c-10.85,-0 -17.358,5.433 -17.358,11.942l-0,146.479c-0,15.187 -6.513,26.041 -13.021,29.304c-6.513,3.246 -28.213,11.925 -28.213,11.925c-7.587,2.171 -13.021,10.854 -13.021,17.362l0,77.05c0,6.509 3.263,9.755 8.68,9.755c4.341,-0 24.966,-9.755 28.212,-11.925c1.092,-0 2.171,-1.096 3.263,-1.096c7.587,-0 14.1,10.854 14.1,19.533l-0,107.429c-0,11.929 -5.417,21.704 -11.93,24.95c-6.508,2.171 -29.304,11.942 -29.304,11.942c-7.587,2.171 -13.021,10.854 -13.021,17.362l0,77.034c0,6.508 3.263,9.771 8.68,9.771c1.095,-0 3.262,-1.092 4.341,-1.092c0,-0 15.192,-6.513 24.963,-9.758c1.079,-1.092 2.171,-1.092 3.25,-1.092c7.604,-0 13.021,11.942 13.021,17.358l-0,133.475c-0,6.509 6.508,11.925 14.112,11.925c10.85,0 18.438,-5.416 18.438,-11.925l-0,-150.833c-0,-14.1 5.433,-21.704 10.85,-23.871l66.2,-27.121c1.075,0 3.245,-1.091 4.337,-1.091c8.683,-0 14.1,13.02 14.1,19.529l0,135.641c0,6.513 6.508,11.93 14.113,11.93c11.929,-0 18.437,-5.417 18.437,-11.93l0,-154.079c0,-8.679 4.342,-21.7 11.946,-24.962c7.587,-3.25 30.383,-11.929 30.383,-11.929c7.584,-3.263 13.021,-11.946 13.021,-18.455l0,-77.033c0,-5.433 -3.267,-8.679 -7.604,-8.679c-2.171,-0 -3.25,-0 -5.417,1.075l-28.212,10.854c-6.513,0 -14.117,-6.512 -14.117,-19.533l0,-100.904c0,-7.605 5.433,-28.209 14.117,-31.475l28.212,-10.85" style="fill-rule:nonzero;"/></g><g><path d="M5759.94,6734.21c96.579,0 214.846,-88.975 214.846,-181.212c-0,-55.329 -43.404,-90.054 -105.246,-90.054c-119.354,-0 -214.842,87.883 -214.842,181.2c0,56.421 46.65,90.066 105.242,90.066" style="fill-rule:nonzero;"/></g><g><path d="M6258.4,6781.96c-6.512,21.7 -57.5,43.4 -82.466,43.4c-6.513,0 -11.929,-2.166 -13.021,-5.433c-2.171,-4.337 -3.246,-28.212 -3.246,-54.254c0,-33.625 1.075,-71.613 3.246,-80.292c2.171,-18.437 52.083,-41.233 79.217,-41.233c7.587,-0 14.1,2.171 16.27,6.508c2.167,5.434 4.338,32.554 4.338,61.859c-0,29.287 -2.171,59.67 -4.338,69.445m74.875,-176.875c7.588,-3.245 13.021,-11.929 13.021,-18.437l0,-77.05c0,-5.417 -3.262,-8.679 -7.604,-8.679c-2.167,-0 -3.246,-0 -5.417,1.091c0,0 -21.7,8.684 -27.133,9.759c-7.587,-0 -15.192,-5.417 -15.192,-14.096l0,-132.379c0,-6.513 -6.508,-11.946 -15.191,-11.946c-10.85,-0 -17.359,5.433 -17.359,11.946l0,141.058c-1.079,10.85 -4.341,24.946 -14.1,31.458c-13.02,7.605 -49.912,22.796 -68.366,27.134c-9.759,-0 -13.021,-13.021 -13.021,-21.7l-0,-130.209c-0,-6.508 -7.588,-11.946 -15.192,-11.946c-10.85,0 -17.362,5.438 -17.362,11.946l-0,146.475c-0,15.192 -6.509,26.042 -13.021,29.309c-6.508,3.245 -28.208,11.925 -28.208,11.925c-7.588,2.17 -13.021,10.85 -13.021,17.362l-0,77.046c-0,6.512 3.262,9.758 8.679,9.758c4.342,0 24.967,-9.758 28.212,-11.925c1.092,0 2.171,-1.096 3.263,-1.096c7.587,0 14.096,10.85 14.096,19.534l-0,107.429c-0,11.925 -5.417,21.7 -11.925,24.946c-6.513,2.171 -29.304,11.946 -29.304,11.946c-7.588,2.17 -13.021,10.85 -13.021,17.362l-0,77.029c-0,6.513 3.262,9.775 8.679,9.775c1.092,0 3.262,-1.091 4.342,-1.091c-0,-0 15.187,-6.513 24.962,-9.759c1.079,-1.096 2.171,-1.096 3.246,-1.096c7.604,0 13.021,11.946 13.021,17.363l-0,133.471c-0,6.512 6.512,11.929 14.116,11.929c10.85,-0 18.438,-5.417 18.438,-11.929l-0,-150.834c-0,-14.095 5.433,-21.7 10.85,-23.87l66.2,-27.117c1.075,-0 3.246,-1.096 4.337,-1.096c8.684,0 14.1,13.021 14.1,19.533l0,135.642c0,6.513 6.509,11.929 14.113,11.929c11.929,0 18.437,-5.416 18.437,-11.929l0,-154.079c0,-8.679 4.342,-21.7 11.946,-24.967c7.588,-3.246 30.379,-11.925 30.379,-11.925c7.588,-3.266 13.021,-11.946 13.021,-18.454l0,-77.033c0,-5.434 -3.262,-8.679 -7.604,-8.679c-2.167,-0 -3.246,-0 -5.417,1.075l-28.208,10.85c-6.512,-0 -14.117,-6.509 -14.117,-19.53l0,-100.904c0,-7.604 5.434,-28.212 14.117,-31.475l28.208,-10.85" style="fill-rule:nonzero;"/></g><g><path d="M6518.69,6868.75c96.579,0 214.846,-88.975 214.846,-181.217c-0,-55.329 -43.404,-90.05 -105.246,-90.05c-119.358,0 -214.842,87.884 -214.842,181.196c0,56.425 46.65,90.071 105.242,90.071" style="fill-rule:nonzero;"/></g><g><path d="M7140.9,7003.29c96.563,-0 214.842,-88.975 214.842,-181.217c0,-55.329 -43.404,-90.05 -105.258,-90.05c-119.359,0 -214.846,87.879 -214.846,181.196c-0,56.425 46.667,90.071 105.262,90.071" style="fill-rule:nonzero;"/></g><g><path d="M7763.06,7137.83c96.583,0 214.846,-88.975 214.846,-181.212c-0,-55.329 -43.404,-90.054 -105.242,-90.054c-119.358,-0 -214.846,87.883 -214.846,181.2c0,56.421 46.65,90.066 105.242,90.066" style="fill-rule:nonzero;"/></g><g><path d="M8385.31,7272.42c96.563,-0 214.842,-88.975 214.842,-181.217c-0,-55.329 -43.4,-90.05 -105.259,-90.05c-119.358,0 -214.845,87.883 -214.845,181.196c-0,56.425 46.666,90.071 105.262,90.071" style="fill-rule:nonzero;"/></g><g><path d="M9477.23,7068.42c11.946,-37.988 52.083,-43.404 85.729,-43.404c74.862,-0 134.55,80.295 134.55,145.4c-0,33.629 -14.117,64.008 -49.913,72.691c-10.854,3.263 -22.795,4.338 -33.645,4.338c-39.063,-0 -79.205,-26.042 -102,-56.421c-21.7,-24.95 -37.967,-61.842 -37.967,-96.563c-0,-8.683 1.075,-17.362 3.246,-26.041m113.941,-67.275c-144.325,-0 -234.375,59.671 -234.375,133.454c0,72.708 61.842,137.812 223.525,137.812c177.95,0 234.375,-61.858 234.375,-137.812c0,-77.029 -122.62,-133.454 -223.525,-133.454" style="fill-rule:nonzero;"/></g><g><path d="M565.288,5910.62c3.246,20.625 3.246,19.533 -16.287,26.042c-95.484,32.554 -157.325,118.283 -157.325,210.504c-0,97.654 50.987,167.1 124.775,192.066c8.679,3.246 21.7,6.509 29.304,6.509c8.679,-0 13.021,-5.434 13.021,-11.942c-0,-7.587 -8.68,-10.854 -16.284,-14.1c-45.575,-19.529 -78.125,-66.196 -78.125,-116.108c0,-61.842 42.325,-108.508 108.504,-126.946c17.363,-4.342 19.534,-3.262 21.705,8.679l54.254,323.35c2.166,11.929 1.091,11.929 -15.192,15.192c-17.362,3.246 -39.062,5.416 -60.767,5.416c-189.875,0 -312.5,-105.241 -312.5,-256.075c0,-64.012 10.855,-149.741 100.921,-251.737c65.104,-72.692 115.017,-112.846 166.009,-154.079c10.85,-8.679 13.02,-7.588 15.191,4.341l22.796,138.888m118.263,-738.925c35.816,-0 65.104,29.292 65.104,88.979c-0,120.433 -103.075,218.088 -188.804,292.967c-7.584,6.512 -11.925,5.416 -14.096,-8.679c-4.342,-28.213 -6.509,-65.105 -6.509,-99.83c0,-169.27 78.125,-273.437 144.305,-273.437m-43.405,911.458c-2.17,-13.021 -1.075,-16.283 11.946,-15.187c87.884,7.583 160.592,81.371 160.592,176.854c-0,68.371 -41.233,123.7 -102,154.083c-13.021,6.509 -15.188,6.509 -17.358,-6.512l-53.18,-309.238m-58.591,-338.541c-2.171,-13.021 -0,-14.113 6.508,-20.625c117.188,-109.584 206.163,-247.396 206.163,-413.4c-0,-94.413 -26.042,-187.725 -70.521,-252.83c-16.284,-23.875 -44.496,-54.254 -56.421,-54.254c-15.192,0 -48.838,28.213 -70.538,52.084c-80.295,88.975 -106.337,224.616 -106.337,337.462c-0,62.938 7.604,133.458 15.192,177.954c2.166,13.021 3.262,15.192 -9.759,26.042c-156.25,129.112 -322.275,284.287 -322.275,503.471c0,188.804 129.134,367.829 394.967,367.829c24.962,-0 53.175,-2.171 74.879,-6.508c11.925,-2.171 14.096,-3.246 16.267,9.775c13.021,72.687 29.304,167.1 29.304,218.087c-0,160.592 -108.508,180.121 -172.533,180.121c-58.596,-0 -86.809,-17.358 -86.809,-31.458c0,-7.605 9.775,-10.85 34.725,-18.455c33.646,-9.754 72.709,-39.062 72.709,-101.995c-0,-59.671 -37.988,-110.675 -104.167,-110.675c-72.708,-0 -116.113,57.516 -116.113,124.791c0,70.521 42.325,176.854 206.163,176.854c72.708,0 213.767,-32.55 213.767,-217.012c-0,-61.842 -19.53,-164.929 -31.475,-232.204c-2.171,-13.021 -1.075,-11.929 14.116,-18.438c109.584,-43.404 182.292,-135.641 182.292,-258.246c-0,-138.891 -101.996,-261.512 -261.513,-261.512c-28.212,-0 -28.212,-0 -31.458,-19.529l-27.133,-157.329" style="fill-rule:nonzero;"/></g><g><path d="M3783.43,6713.6c-14.106,-0 -21.701,6.51 -21.701,16.276c-0,9.765 7.595,16.276 21.701,16.276l10.851,-0c40.147,-0 59.679,23.871 59.679,58.594c-0,47.743 -33.637,113.932 -99.827,113.932c-21.701,0 -39.062,-8.681 -39.062,-19.531c-0,-6.511 5.425,-8.681 14.106,-13.021c11.935,-5.425 27.126,-18.446 27.126,-46.658c0,-26.042 -18.446,-39.063 -41.232,-39.063c-30.382,0 -53.169,27.127 -53.169,62.934c0,43.403 34.722,83.551 111.763,83.551c92.231,-0 168.186,-55.339 168.186,-141.059c-0,-27.127 -14.106,-53.169 -42.318,-67.275c-7.596,-3.255 -11.936,-4.34 -11.936,-9.765c-0,-3.256 4.34,-5.426 13.021,-9.766c45.573,-18.446 82.465,-53.168 82.465,-96.571c0,-56.424 -54.253,-91.146 -120.443,-91.146c-68.359,-0 -124.783,35.807 -126.953,94.401c-1.085,28.212 16.276,46.658 41.233,46.658c27.127,-0 48.828,-21.701 48.828,-50.998c-0,-11.936 -4.34,-20.617 -9.766,-27.127c-7.595,-6.511 -13.021,-10.851 -13.021,-14.106c0,-7.596 13.021,-15.191 35.808,-15.191c42.318,-0 56.423,26.042 56.423,49.913c0,57.509 -36.892,98.742 -99.826,98.742l-11.936,-0Z" style="fill-rule:nonzero;"/></g><g><path d="M5786.65,7159.89c-14.106,0 -21.701,6.511 -21.701,16.276c-0,9.766 7.595,16.276 21.701,16.276l10.851,0c40.147,0 59.679,23.872 59.679,58.594c-0,47.743 -33.638,113.933 -99.827,113.933c-21.701,-0 -39.062,-8.681 -39.062,-19.532c-0,-6.51 5.425,-8.68 14.105,-13.02c11.936,-5.426 27.127,-18.447 27.127,-46.658c0,-26.042 -18.446,-39.063 -41.232,-39.063c-30.382,0 -53.169,27.127 -53.169,62.934c0,43.403 34.722,83.551 111.762,83.551c92.231,-0 168.186,-55.339 168.186,-141.06c0,-27.126 -14.106,-53.168 -42.317,-67.274c-7.596,-3.255 -11.936,-4.34 -11.936,-9.766c-0,-3.255 4.34,-5.425 13.021,-9.765c45.573,-18.447 82.465,-53.169 82.465,-96.572c0,-56.423 -54.254,-91.146 -120.443,-91.146c-68.359,0 -124.783,35.808 -126.953,94.402c-1.085,28.211 16.276,46.658 41.233,46.658c27.126,-0 48.828,-21.702 48.828,-50.999c-0,-11.935 -4.341,-20.616 -9.766,-27.126c-7.595,-6.511 -13.021,-10.851 -13.021,-14.106c0,-7.596 13.021,-15.191 35.808,-15.191c42.317,-0 56.423,26.041 56.423,49.913c0,57.509 -36.892,98.741 -99.826,98.741l-11.936,0Z" style="fill-rule:nonzero;"/></g><g><path d="M7789.82,7423.1c-14.106,-0 -21.702,6.51 -21.702,16.276c0,9.765 7.596,16.276 21.702,16.276l10.85,-0c40.148,-0 59.679,23.871 59.679,58.594c0,47.743 -33.637,113.932 -99.826,113.932c-21.702,0 -39.063,-8.681 -39.063,-19.531c0,-6.511 5.426,-8.681 14.106,-13.021c11.936,-5.425 27.127,-18.446 27.127,-46.658c-0,-26.042 -18.446,-39.063 -41.233,-39.063c-30.382,0 -53.168,27.127 -53.168,62.934c-0,43.403 34.722,83.551 111.762,83.551c92.231,-0 168.186,-55.339 168.186,-141.059c0,-27.127 -14.106,-53.169 -42.318,-67.275c-7.595,-3.255 -11.936,-4.34 -11.936,-9.765c0,-3.256 4.341,-5.426 13.021,-9.766c45.573,-18.446 82.466,-53.168 82.466,-96.571c-0,-56.424 -54.254,-91.146 -120.443,-91.146c-68.36,-0 -124.783,35.807 -126.953,94.401c-1.086,28.212 16.276,46.658 41.232,46.658c27.127,-0 48.828,-21.701 48.828,-50.998c0,-11.936 -4.34,-20.617 -9.765,-27.127c-7.596,-6.511 -13.021,-10.851 -13.021,-14.106c-0,-7.596 13.021,-15.191 35.807,-15.191c42.318,-0 56.424,26.042 56.424,49.913c-0,57.509 -36.892,98.742 -99.827,98.742l-11.935,-0Z" style="fill-rule:nonzero;"/></g><g><path d="M1506.59,6535.92l0,-139.217l793.733,201.821l0,139.221l-793.733,-201.825" style="fill-rule:nonzero;"/></g><g><path d="M3317.02,5185.79l0,-136.288l1276.58,201.825l-0,136.283l-1276.58,-201.82" style="fill-rule:nonzero;"/></g><g><path d="M5183.9,5454.88l0,-137.796l1549.48,336.371l-0,137.796l-1549.48,-336.371" style="fill-rule:nonzero;"/></g><g><path d="M7323.11,5993.08l-0,-134.758l1277.12,67.275l0,134.754l-1277.12,-67.271" style="fill-rule:nonzero;"/></g><g><path d="M2940.5,6738.96l576.18,0l-0,-43.037l-533.317,-0l-0,-158.788l-42.863,0" style="fill-rule:nonzero;"/></g><g><path d="M4615.31,6738.96l-508.892,0l0,-43.037l466.025,-0l0,-158.788l42.867,0" style="fill-rule:nonzero;"/></g><g><path d="M4807.36,7016.58l714.512,118.542l0,-43.663l-671.666,-111.391l-0,-165.313l-42.846,0" style="fill-rule:nonzero;"/></g><g><path d="M6755.06,7342.42l-647.237,-107.046l-0,-43.667l603.837,103.354l0,-154.462l43.4,-0" style="fill-rule:nonzero;"/></g><g><path d="M6946.56,7272.38l578.888,115.554l-0,-44.008l-535.484,-106.929l0,-166.442l-43.404,0" style="fill-rule:nonzero;"/></g><g><path d="M8621.4,7610.62l-511.612,-101.563l-0,-43.991l468.75,97.154l-0,-153.421l42.862,0" style="fill-rule:nonzero;"/></g></g></svg>