<?xml version="1.0" encoding="UTF-8" standalone="no"?><!DOCTYPE svg PUBLIC "-//W3C//DTD SVG 1.1//EN" "http://www.w3.org/Graphics/SVG/1.1/DTD/svg11.dtd"><svg width="100%" height="100%" viewBox="0 0 1913 500" version="1.1" xmlns="http://www.w3.org/2000/svg" xmlns:xlink="http://www.w3.org/1999/xlink" xml:space="preserve" xmlns:serif="http://www.serif.com/" style="fill-rule:evenodd;clip-rule:evenodd;stroke-miterlimit:2;"><g><g><path d="M131.251,131.25l1650,-0" style="fill:none;stroke:#000;stroke-width:2.01px;"/><path d="M131.251,146.75l1650,-0" style="fill:none;stroke:#000;stroke-width:2.01px;"/><path d="M131.251,162.25l1650,-0" style="fill:none;stroke:#000;stroke-width:2.01px;"/><path d="M131.251,177.75l1650,-0" style="fill:none;stroke:#000;stroke-width:2.01px;"/><path d="M131.251,193.25l1650,-0" style="fill:none;stroke:#000;stroke-width:2.01px;"/></g><g><path d="M733.5,130.244l0,64.012" style="fill:none;stroke:#000;stroke-width:2.48px;"/><path d="M1256.91,130.244l0,64.012" style="fill:none;stroke:#000;stroke-width:2.48px;"/><path d="M1780,130.244l0,64.012" style="fill:none;stroke:#000;stroke-width:2.48px;"/></g><g><path d="M233.282,166.1l-0,63.297" style="fill:none;stroke:#000;stroke-width:1.86px;"/></g><g><path d="M209.594,224.25l30.844,-0" style="fill:none;stroke:#000;stroke-width:2.48px;"/><path d="M209.594,208.75l30.844,-0" style="fill:none;stroke:#000;stroke-width:2.48px;"/></g><g><path d="M281.719,162.225l0,59.422" style="fill:none;stroke:#000;stroke-width:1.86px;"/></g><g><path d="M261.657,224.25l27.187,-0" style="fill:none;stroke:#000;stroke-width:2.48px;"/><path d="M258.032,208.75l30.812,-0" style="fill:none;stroke:#000;stroke-width:2.48px;"/></g><g><path d="M330.157,158.35l-0,55.547" style="fill:none;stroke:#000;stroke-width:1.86px;"/></g><g><path d="M310.344,208.75l26.938,-0" style="fill:none;stroke:#000;stroke-width:2.48px;"/></g><g><path d="M374.969,162.156l0,51.741" style="fill:none;stroke:#000;stroke-width:1.86px;"/></g><g><path d="M355.157,208.75l26.937,-0" style="fill:none;stroke:#000;stroke-width:2.48px;"/></g><g><path d="M424.844,154.406l0,51.741" style="fill:none;stroke:#000;stroke-width:1.86px;"/></g><g><path d="M404.75,208.75l27.219,-0" style="fill:none;stroke:#000;stroke-width:2.48px;"/></g><g><path d="M474.719,146.656l0,51.741" style="fill:none;stroke:#000;stroke-width:1.86px;"/><path d="M510.782,134.975l-0,47.922" style="fill:none;stroke:#000;stroke-width:1.86px;"/><path d="M546.844,127.834l0,47.313" style="fill:none;stroke:#000;stroke-width:1.86px;"/><path d="M589.094,119.475l0,47.922" style="fill:none;stroke:#000;stroke-width:1.86px;"/><path d="M614.782,164.853l-0,47.772" style="fill:none;stroke:#000;stroke-width:1.86px;"/><path d="M653.438,164.853l-0,47.772" style="fill:none;stroke:#000;stroke-width:1.86px;"/><path d="M697.125,157.103l0,55.522" style="fill:none;stroke:#000;stroke-width:1.86px;"/><path d="M768.656,149.353l0,48.047" style="fill:none;stroke:#000;stroke-width:1.86px;"/><path d="M804.75,133.853l0,53.859" style="fill:none;stroke:#000;stroke-width:1.86px;"/><path d="M840.813,126.103l-0,51.922" style="fill:none;stroke:#000;stroke-width:1.86px;"/><path d="M883.063,118.354l-0,47.777" style="fill:none;stroke:#000;stroke-width:1.86px;"/></g><g><path d="M879.563,115.75l27.218,-0" style="fill:none;stroke:#000;stroke-width:2.48px;"/></g><g><path d="M931.5,110.604l0,53.515" style="fill:none;stroke:#000;stroke-width:1.86px;"/></g><g><path d="M928.25,115.75l26.969,-0" style="fill:none;stroke:#000;stroke-width:2.48px;"/></g><g><path d="M976.312,110.604l0,51.652" style="fill:none;stroke:#000;stroke-width:1.86px;"/></g><g><path d="M973.062,115.75l26.969,-0" style="fill:none;stroke:#000;stroke-width:2.48px;"/></g><g><path d="M1026.19,102.854l0,59.405" style="fill:none;stroke:#000;stroke-width:1.86px;"/></g><g><path d="M1022.69,100.25l27.219,-0" style="fill:none;stroke:#000;stroke-width:2.48px;"/><path d="M1022.94,115.75l26.969,-0" style="fill:none;stroke:#000;stroke-width:2.48px;"/></g><g><path d="M1076.06,95.104l0,64.905" style="fill:none;stroke:#000;stroke-width:1.86px;"/></g><g><path d="M1072.81,100.25l26.969,-0" style="fill:none;stroke:#000;stroke-width:2.48px;"/><path d="M1068.94,115.75l30.844,-0" style="fill:none;stroke:#000;stroke-width:2.48px;"/></g><g><path d="M1112.12,79.604l-0,78.78" style="fill:none;stroke:#000;stroke-width:1.86px;"/></g><g><path d="M1105,84.75l30.844,-0" style="fill:none;stroke:#000;stroke-width:2.48px;"/><path d="M1105,100.25l30.844,-0" style="fill:none;stroke:#000;stroke-width:2.48px;"/><path d="M1105,115.75l30.844,-0" style="fill:none;stroke:#000;stroke-width:2.48px;"/></g><g><path d="M1148.19,71.854l0,86.565" style="fill:none;stroke:#000;stroke-width:1.86px;"/></g><g><path d="M1141.06,69.25l30.844,-0" style="fill:none;stroke:#000;stroke-width:2.48px;"/><path d="M1141.06,84.75l30.844,-0" style="fill:none;stroke:#000;stroke-width:2.48px;"/><path d="M1141.06,100.25l30.844,-0" style="fill:none;stroke:#000;stroke-width:2.48px;"/><path d="M1141.06,115.75l30.844,-0" style="fill:none;stroke:#000;stroke-width:2.48px;"/></g><g><path d="M1184.28,79.604l0,82.69" style="fill:none;stroke:#000;stroke-width:1.86px;"/></g><g><path d="M1177.16,84.75l30.813,-0" style="fill:none;stroke:#000;stroke-width:2.48px;"/><path d="M1177.16,100.25l30.813,-0" style="fill:none;stroke:#000;stroke-width:2.48px;"/><path d="M1177.16,115.75l30.813,-0" style="fill:none;stroke:#000;stroke-width:2.48px;"/></g><g><path d="M1220.34,95.104l-0,71.065" style="fill:none;stroke:#000;stroke-width:1.86px;"/></g><g><path d="M1213.22,100.25l30.812,-0" style="fill:none;stroke:#000;stroke-width:2.48px;"/><path d="M1213.22,115.75l30.812,-0" style="fill:none;stroke:#000;stroke-width:2.48px;"/></g><g><path d="M1292.06,102.854l0,59.396" style="fill:none;stroke:#000;stroke-width:1.86px;"/></g><g><path d="M1288.56,100.25l27.219,-0" style="fill:none;stroke:#000;stroke-width:2.48px;"/><path d="M1288.81,115.75l26.969,-0" style="fill:none;stroke:#000;stroke-width:2.48px;"/></g><g><path d="M1328.12,110.604l-0,51.646" style="fill:none;stroke:#000;stroke-width:1.86px;"/></g><g><path d="M1321,115.75l30.843,-0" style="fill:none;stroke:#000;stroke-width:2.48px;"/></g><g><path d="M1376.56,110.604l0,51.646" style="fill:none;stroke:#000;stroke-width:1.86px;"/></g><g><path d="M1373.31,115.75l26.969,-0" style="fill:none;stroke:#000;stroke-width:2.48px;"/></g><g><path d="M1425,118.354l-0,55.565" style="fill:none;stroke:#000;stroke-width:1.86px;"/></g><g><path d="M1421.5,115.75l27.187,-0" style="fill:none;stroke:#000;stroke-width:2.48px;"/></g><g><path d="M1461.06,126.103l0,51.691" style="fill:none;stroke:#000;stroke-width:1.86px;"/><path d="M1497.12,133.853l-0,47.816" style="fill:none;stroke:#000;stroke-width:1.86px;"/><path d="M1540.81,149.353l0,47.85" style="fill:none;stroke:#000;stroke-width:1.86px;"/><path d="M1584.47,157.103l0,46.269" style="fill:none;stroke:#000;stroke-width:1.86px;"/><path d="M1623.09,164.853l0,43.975" style="fill:none;stroke:#000;stroke-width:1.86px;"/><path d="M1665.34,164.853l0,45.275" style="fill:none;stroke:#000;stroke-width:1.86px;"/><path d="M1707.56,172.603l-0,43.794" style="fill:none;stroke:#000;stroke-width:1.86px;"/><path d="M1743.62,180.353l0,41.4" style="fill:none;stroke:#000;stroke-width:1.86px;"/></g><g><path d="M221.428,107.187c0,0 -0.062,0.25 -0.062,0.438c-0,0.25 0.25,0.5 0.5,0.5c0.187,-0 0.312,-0.188 0.375,-0.25c0.062,-0.188 0.812,-2.75 1.187,-3.375c0.125,-0.25 0.25,-0.313 0.313,-0.313c0.125,0 0.187,0.25 0.187,0.438l0,8.937c0,0.75 -0.625,1.188 -1.25,1.188c-0.25,-0 -0.562,0.125 -0.562,0.5c-0,0.375 0.312,0.5 0.812,0.5l5.25,-0c0.5,-0 0.5,-0.5 0.5,-0.5c0,-0 0,-0.5 -0.5,-0.5c-0.437,-0 -1,-0.563 -1,-1.125l0,-13c0,-0.5 -0.187,-0.75 -0.625,-0.75c-0.437,-0 -0.812,0.125 -1.187,0.125c-0.625,-0 -0.75,-0 -1.25,-0.125c-0.25,-0 -0.563,0.375 -0.75,0.625l-1.938,6.687" style="fill-rule:nonzero;"/></g><g><path d="M279.636,110.75c-0,-0.438 -0.188,-0.5 -0.375,-0.5c-0.25,-0 -0.375,0.187 -0.438,0.375c-0.312,0.875 -1,2 -1.937,2c-0.125,-0 -0.25,-0 -0.375,-0.063l-0.938,-0.312c-0.625,-0.25 -2.125,-0.75 -3.375,-0.75c-0.437,-0 -0.812,0.062 -1.187,0.187c0.687,-1.187 3.937,-2.75 4.625,-2.937c2.25,-0.313 4.125,-1.625 4.125,-4.063c-0,-1.5 -0.625,-2.5 -1.438,-3.25c-1.625,-1.312 -4,-1.5 -4.687,-1.5c-2.25,0 -4.063,0.125 -5.688,2c-0.437,0.5 -0.625,1 -0.625,1.5c0,0.438 0.188,0.938 0.375,1.5c0.375,0.75 1.188,1.313 2.063,1.313c1.562,-0 1.75,-1.5 1.75,-2.188c-0,-1.437 -1.563,-1.562 -1.563,-2.187c0,-0.438 0.625,-1.188 2.5,-1.188c2.938,0 3.938,2.438 3.938,3.188c-0,1.125 -0.375,2.187 -1,3.062c-1.125,1.438 -3.188,1.938 -4.75,2.938c-1.75,1.062 -2.938,2.875 -3.5,4.875c-0,0.437 0.187,0.937 0.562,1.125c0.063,0.062 0.188,0.062 0.25,0.062c0.688,0 1.063,-1.937 2.938,-1.937c1.25,-0 1.687,1.687 4.5,1.687c1.312,0 3.75,-0.125 4.25,-4.937" style="fill-rule:nonzero;"/></g><g><path d="M325.2,110.125l0,-6.688c0,-0.312 -0.062,-0.562 -0.375,-0.562c-0.25,-0 -0.437,0.062 -0.625,0.312l-1.875,3.625c-0.125,0.125 -0.312,0.313 -0.312,0.75l-0,2.563l-4.063,-0c2.563,-2.125 6.563,-9.188 6.625,-9.563c0,-0.062 0.063,-0.125 0.063,-0.187c-0,-0.25 -0.25,-0.438 -0.438,-0.438c-0.312,0 -1.625,0.125 -2.187,0.125c-0.563,0 -0.938,-0.125 -1.188,-0.125c-0.312,0 -0.75,0.125 -0.75,0.625c0,4 -3.25,8.563 -4.062,9.688c-0.125,0.125 -0.25,0.312 -0.25,0.5c-0,0.312 0.25,0.625 0.625,0.625l5.625,-0l-0,1.937c-0,0.875 -0.5,1.125 -1,1.125c-0.563,0 -0.813,0.25 -0.813,0.563c0,0.312 0.125,0.687 0.688,0.687l5.375,0c0.312,0 0.625,-0.25 0.625,-0.687c-0,-0.438 -0.375,-0.625 -0.688,-0.625c-0.312,-0 -1,-0.188 -1,-1.188l0,-1.812l2.313,-0c0.312,-0 0.5,-0.25 0.5,-0.625c-0,-0.375 -0.125,-0.625 -0.5,-0.625l-2.313,-0" style="fill-rule:nonzero;"/></g><g><path d="M370.019,110.125l-0,-6.688c-0,-0.312 -0.063,-0.562 -0.375,-0.562c-0.25,-0 -0.438,0.062 -0.625,0.312l-1.875,3.625c-0.125,0.125 -0.313,0.313 -0.313,0.75l0,2.563l-4.062,-0c2.562,-2.125 6.562,-9.188 6.625,-9.563c-0,-0.062 0.062,-0.125 0.062,-0.187c0,-0.25 -0.25,-0.438 -0.437,-0.438c-0.313,0 -1.625,0.125 -2.188,0.125c-0.562,0 -0.937,-0.125 -1.187,-0.125c-0.313,0 -0.75,0.125 -0.75,0.625c-0,4 -3.25,8.563 -4.063,9.688c-0.125,0.125 -0.25,0.312 -0.25,0.5c0,0.312 0.25,0.625 0.625,0.625l5.625,-0l0,1.937c0,0.875 -0.5,1.125 -1,1.125c-0.562,0 -0.812,0.25 -0.812,0.563c-0,0.312 0.125,0.687 0.687,0.687l5.375,0c0.313,0 0.625,-0.25 0.625,-0.687c0,-0.438 -0.375,-0.625 -0.687,-0.625c-0.313,-0 -1,-0.188 -1,-1.188l-0,-1.812l2.312,-0c0.313,-0 0.5,-0.25 0.5,-0.625c0,-0.375 -0.125,-0.625 -0.5,-0.625l-2.312,-0" style="fill-rule:nonzero;"/></g><g><path d="M412.981,107.187c0,0 -0.062,0.25 -0.062,0.438c-0,0.25 0.25,0.5 0.5,0.5c0.187,-0 0.312,-0.188 0.375,-0.25c0.062,-0.188 0.812,-2.75 1.187,-3.375c0.125,-0.25 0.25,-0.313 0.313,-0.313c0.125,0 0.187,0.25 0.187,0.438l0,8.937c0,0.75 -0.625,1.188 -1.25,1.188c-0.25,-0 -0.562,0.125 -0.562,0.5c-0,0.375 0.312,0.5 0.812,0.5l5.25,-0c0.5,-0 0.5,-0.5 0.5,-0.5c0,-0 0,-0.5 -0.5,-0.5c-0.437,-0 -1,-0.563 -1,-1.125l0,-13c0,-0.5 -0.187,-0.75 -0.625,-0.75c-0.437,-0 -0.812,0.125 -1.187,0.125c-0.625,-0 -0.75,-0 -1.25,-0.125c-0.25,-0 -0.563,0.375 -0.75,0.625l-1.938,6.687" style="fill-rule:nonzero;"/></g><g><path d="M472.628,110.75c0,-0.438 -0.187,-0.5 -0.375,-0.5c-0.25,-0 -0.375,0.187 -0.437,0.375c-0.313,0.875 -1,2 -1.938,2c-0.125,-0 -0.25,-0 -0.375,-0.063l-0.937,-0.312c-0.625,-0.25 -2.125,-0.75 -3.375,-0.75c-0.438,-0 -0.813,0.062 -1.188,0.187c0.688,-1.187 3.938,-2.75 4.625,-2.937c2.25,-0.313 4.125,-1.625 4.125,-4.063c0,-1.5 -0.625,-2.5 -1.437,-3.25c-1.625,-1.312 -4,-1.5 -4.688,-1.5c-2.25,0 -4.062,0.125 -5.687,2c-0.438,0.5 -0.625,1 -0.625,1.5c-0,0.438 0.187,0.938 0.375,1.5c0.375,0.75 1.187,1.313 2.062,1.313c1.563,-0 1.75,-1.5 1.75,-2.188c0,-1.437 -1.562,-1.562 -1.562,-2.187c-0,-0.438 0.625,-1.188 2.5,-1.188c2.937,0 3.937,2.438 3.937,3.188c0,1.125 -0.375,2.187 -1,3.062c-1.125,1.438 -3.187,1.938 -4.75,2.938c-1.75,1.062 -2.937,2.875 -3.5,4.875c0,0.437 0.188,0.937 0.563,1.125c0.062,0.062 0.187,0.062 0.25,0.062c0.687,0 1.062,-1.937 2.937,-1.937c1.25,-0 1.688,1.687 4.5,1.687c1.313,0 3.75,-0.125 4.25,-4.937" style="fill-rule:nonzero;"/></g><g><path d="M505.831,110.125l0,-6.688c0,-0.312 -0.062,-0.562 -0.375,-0.562c-0.25,-0 -0.437,0.062 -0.625,0.312l-1.875,3.625c-0.125,0.125 -0.312,0.313 -0.312,0.75l-0,2.563l-4.063,-0c2.563,-2.125 6.563,-9.188 6.625,-9.563c0,-0.062 0.063,-0.125 0.063,-0.187c-0,-0.25 -0.25,-0.438 -0.438,-0.438c-0.312,0 -1.625,0.125 -2.187,0.125c-0.563,0 -0.938,-0.125 -1.188,-0.125c-0.312,0 -0.75,0.125 -0.75,0.625c0,4 -3.25,8.563 -4.062,9.688c-0.125,0.125 -0.25,0.312 -0.25,0.5c-0,0.312 0.25,0.625 0.625,0.625l5.625,-0l-0,1.937c-0,0.875 -0.5,1.125 -1,1.125c-0.563,0 -0.813,0.25 -0.813,0.563c0,0.312 0.125,0.687 0.688,0.687l5.375,0c0.312,0 0.625,-0.25 0.625,-0.687c-0,-0.438 -0.375,-0.625 -0.688,-0.625c-0.312,-0 -1,-0.188 -1,-1.188l0,-1.812l2.313,-0c0.312,-0 0.5,-0.25 0.5,-0.625c-0,-0.375 -0.125,-0.625 -0.5,-0.625l-2.313,-0" style="fill-rule:nonzero;"/></g><g><path d="M534.991,107.187c-0,0 -0.063,0.25 -0.063,0.438c0,0.25 0.25,0.5 0.5,0.5c0.188,-0 0.313,-0.188 0.375,-0.25c0.063,-0.188 0.813,-2.75 1.188,-3.375c0.125,-0.25 0.25,-0.313 0.312,-0.313c0.125,0 0.188,0.25 0.188,0.438l-0,8.937c-0,0.75 -0.625,1.188 -1.25,1.188c-0.25,-0 -0.563,0.125 -0.563,0.5c0,0.375 0.313,0.5 0.813,0.5l5.25,-0c0.5,-0 0.5,-0.5 0.5,-0.5c-0,-0 -0,-0.5 -0.5,-0.5c-0.438,-0 -1,-0.563 -1,-1.125l-0,-13c-0,-0.5 -0.188,-0.75 -0.625,-0.75c-0.438,-0 -0.813,0.125 -1.188,0.125c-0.625,-0 -0.75,-0 -1.25,-0.125c-0.25,-0 -0.562,0.375 -0.75,0.625l-1.937,6.687" style="fill-rule:nonzero;"/></g><g><path d="M586.997,102.838c-0,-0.437 -0.188,-0.5 -0.375,-0.5c-0.25,0 -0.375,0.188 -0.438,0.375c-0.312,0.875 -1,2 -1.937,2c-0.125,0 -0.25,0 -0.375,-0.062l-0.938,-0.313c-0.625,-0.25 -2.125,-0.75 -3.375,-0.75c-0.437,0 -0.812,0.063 -1.187,0.188c0.687,-1.188 3.937,-2.75 4.625,-2.938c2.25,-0.312 4.125,-1.625 4.125,-4.062c-0,-1.5 -0.625,-2.5 -1.438,-3.25c-1.625,-1.313 -4,-1.5 -4.687,-1.5c-2.25,-0 -4.063,0.125 -5.688,2c-0.437,0.5 -0.625,1 -0.625,1.5c0,0.437 0.188,0.937 0.375,1.5c0.375,0.75 1.188,1.312 2.063,1.312c1.562,0 1.75,-1.5 1.75,-2.187c-0,-1.438 -1.563,-1.563 -1.563,-2.188c0,-0.437 0.625,-1.187 2.5,-1.187c2.938,-0 3.938,2.437 3.938,3.187c-0,1.125 -0.375,2.188 -1,3.063c-1.125,1.437 -3.188,1.937 -4.75,2.937c-1.75,1.063 -2.938,2.875 -3.5,4.875c-0,0.438 0.187,0.938 0.562,1.125c0.063,0.063 0.188,0.063 0.25,0.063c0.688,-0 1.063,-1.938 2.938,-1.938c1.25,0 1.687,1.688 4.5,1.688c1.312,-0 3.75,-0.125 4.25,-4.938" style="fill-rule:nonzero;"/></g><g><path d="M626.394,110.125l-0,-6.688c-0,-0.312 -0.063,-0.562 -0.375,-0.562c-0.25,-0 -0.438,0.062 -0.625,0.312l-1.875,3.625c-0.125,0.125 -0.313,0.313 -0.313,0.75l0,2.563l-4.062,-0c2.562,-2.125 6.562,-9.188 6.625,-9.563c-0,-0.062 0.062,-0.125 0.062,-0.187c0,-0.25 -0.25,-0.438 -0.437,-0.438c-0.313,0 -1.625,0.125 -2.188,0.125c-0.562,0 -0.937,-0.125 -1.187,-0.125c-0.313,0 -0.75,0.125 -0.75,0.625c-0,4 -3.25,8.563 -4.063,9.688c-0.125,0.125 -0.25,0.312 -0.25,0.5c0,0.312 0.25,0.625 0.625,0.625l5.625,-0l0,1.937c0,0.875 -0.5,1.125 -1,1.125c-0.562,0 -0.812,0.25 -0.812,0.563c-0,0.312 0.125,0.687 0.687,0.687l5.375,0c0.313,0 0.625,-0.25 0.625,-0.687c0,-0.438 -0.375,-0.625 -0.687,-0.625c-0.313,-0 -1,-0.188 -1,-1.188l-0,-1.812l2.312,-0c0.313,-0 0.5,-0.25 0.5,-0.625c0,-0.375 -0.125,-0.625 -0.5,-0.625l-2.312,-0" style="fill-rule:nonzero;"/></g><g><path d="M665.044,110.125l-0,-6.688c-0,-0.312 -0.063,-0.562 -0.375,-0.562c-0.25,-0 -0.438,0.062 -0.625,0.312l-1.875,3.625c-0.125,0.125 -0.313,0.313 -0.313,0.75l0,2.563l-4.062,-0c2.562,-2.125 6.562,-9.188 6.625,-9.563c-0,-0.062 0.062,-0.125 0.062,-0.187c0,-0.25 -0.25,-0.438 -0.437,-0.438c-0.313,0 -1.625,0.125 -2.188,0.125c-0.562,0 -0.937,-0.125 -1.187,-0.125c-0.313,0 -0.75,0.125 -0.75,0.625c-0,4 -3.25,8.563 -4.063,9.688c-0.125,0.125 -0.25,0.312 -0.25,0.5c0,0.312 0.25,0.625 0.625,0.625l5.625,-0l0,1.937c0,0.875 -0.5,1.125 -1,1.125c-0.562,0 -0.812,0.25 -0.812,0.563c-0,0.312 0.125,0.687 0.687,0.687l5.375,0c0.313,0 0.625,-0.25 0.625,-0.687c0,-0.438 -0.375,-0.625 -0.687,-0.625c-0.313,-0 -1,-0.188 -1,-1.188l-0,-1.812l2.312,-0c0.313,-0 0.5,-0.25 0.5,-0.625c0,-0.375 -0.125,-0.625 -0.5,-0.625l-2.312,-0" style="fill-rule:nonzero;"/></g><g><path d="M701.837,107.187c0,0 -0.062,0.25 -0.062,0.438c-0,0.25 0.25,0.5 0.5,0.5c0.187,-0 0.312,-0.188 0.375,-0.25c0.062,-0.188 0.812,-2.75 1.187,-3.375c0.125,-0.25 0.25,-0.313 0.313,-0.313c0.125,0 0.187,0.25 0.187,0.438l0,8.937c0,0.75 -0.625,1.188 -1.25,1.188c-0.25,-0 -0.562,0.125 -0.562,0.5c-0,0.375 0.312,0.5 0.812,0.5l5.25,-0c0.5,-0 0.5,-0.5 0.5,-0.5c0,-0 0,-0.5 -0.5,-0.5c-0.437,-0 -1,-0.563 -1,-1.125l0,-13c0,-0.5 -0.187,-0.75 -0.625,-0.75c-0.437,-0 -0.812,0.125 -1.187,0.125c-0.625,-0 -0.75,-0 -1.25,-0.125c-0.25,-0 -0.563,0.375 -0.75,0.625l-1.938,6.687" style="fill-rule:nonzero;"/></g><g><path d="M783.15,110.75c-0,-0.438 -0.188,-0.5 -0.375,-0.5c-0.25,-0 -0.375,0.187 -0.438,0.375c-0.312,0.875 -1,2 -1.937,2c-0.125,-0 -0.25,-0 -0.375,-0.063l-0.938,-0.312c-0.625,-0.25 -2.125,-0.75 -3.375,-0.75c-0.437,-0 -0.812,0.062 -1.187,0.187c0.687,-1.187 3.937,-2.75 4.625,-2.937c2.25,-0.313 4.125,-1.625 4.125,-4.063c-0,-1.5 -0.625,-2.5 -1.438,-3.25c-1.625,-1.312 -4,-1.5 -4.687,-1.5c-2.25,0 -4.063,0.125 -5.688,2c-0.437,0.5 -0.625,1 -0.625,1.5c0,0.438 0.188,0.938 0.375,1.5c0.375,0.75 1.188,1.313 2.063,1.313c1.562,-0 1.75,-1.5 1.75,-2.188c-0,-1.437 -1.563,-1.562 -1.563,-2.187c0,-0.438 0.625,-1.188 2.5,-1.188c2.938,0 3.938,2.438 3.938,3.188c-0,1.125 -0.375,2.187 -1,3.062c-1.125,1.438 -3.188,1.938 -4.75,2.938c-1.75,1.062 -2.938,2.875 -3.5,4.875c-0,0.437 0.187,0.937 0.562,1.125c0.063,0.062 0.188,0.062 0.25,0.062c0.688,0 1.063,-1.937 2.938,-1.937c1.25,-0 1.687,1.687 4.5,1.687c1.312,0 3.75,-0.125 4.25,-4.937" style="fill-rule:nonzero;"/></g><g><path d="M816.353,110.111l-0,-6.687c-0,-0.313 -0.063,-0.563 -0.375,-0.563c-0.25,0 -0.438,0.063 -0.625,0.313l-1.875,3.625c-0.125,0.125 -0.313,0.312 -0.313,0.75l0,2.562l-4.062,0c2.562,-2.125 6.562,-9.187 6.625,-9.562c-0,-0.063 0.062,-0.125 0.062,-0.188c0,-0.25 -0.25,-0.437 -0.437,-0.437c-0.313,-0 -1.625,0.125 -2.188,0.125c-0.562,-0 -0.937,-0.125 -1.187,-0.125c-0.313,-0 -0.75,0.125 -0.75,0.625c-0,4 -3.25,8.562 -4.063,9.687c-0.125,0.125 -0.25,0.313 -0.25,0.5c0,0.313 0.25,0.625 0.625,0.625l5.625,0l0,1.938c0,0.875 -0.5,1.125 -1,1.125c-0.562,-0 -0.812,0.25 -0.812,0.562c-0,0.313 0.125,0.688 0.687,0.688l5.375,-0c0.313,-0 0.625,-0.25 0.625,-0.688c0,-0.437 -0.375,-0.625 -0.687,-0.625c-0.313,0 -1,-0.187 -1,-1.187l-0,-1.813l2.312,0c0.313,0 0.5,-0.25 0.5,-0.625c0,-0.375 -0.125,-0.625 -0.5,-0.625l-2.312,0" style="fill-rule:nonzero;"/></g><g><path d="M845.512,99.375c0,-0 -0.062,0.25 -0.062,0.437c-0,0.25 0.25,0.5 0.5,0.5c0.187,0 0.312,-0.187 0.375,-0.25c0.062,-0.187 0.812,-2.75 1.187,-3.375c0.125,-0.25 0.25,-0.312 0.313,-0.312c0.125,-0 0.187,0.25 0.187,0.437l0,8.938c0,0.75 -0.625,1.187 -1.25,1.187c-0.25,0 -0.562,0.125 -0.562,0.5c-0,0.375 0.312,0.5 0.812,0.5l5.25,0c0.5,0 0.5,-0.5 0.5,-0.5c0,0 0,-0.5 -0.5,-0.5c-0.437,0 -1,-0.562 -1,-1.125l0,-13c0,-0.5 -0.187,-0.75 -0.625,-0.75c-0.437,0 -0.812,0.125 -1.187,0.125c-0.625,0 -0.75,0 -1.25,-0.125c-0.25,0 -0.563,0.375 -0.75,0.625l-1.938,6.688" style="fill-rule:nonzero;"/></g><g><path d="M897.553,94.992c-0,-0.437 -0.188,-0.5 -0.375,-0.5c-0.25,0 -0.375,0.188 -0.438,0.375c-0.312,0.875 -1,2 -1.937,2c-0.125,0 -0.25,0 -0.375,-0.062l-0.938,-0.313c-0.625,-0.25 -2.125,-0.75 -3.375,-0.75c-0.437,0 -0.812,0.063 -1.187,0.188c0.687,-1.188 3.937,-2.75 4.625,-2.938c2.25,-0.312 4.125,-1.625 4.125,-4.062c-0,-1.5 -0.625,-2.5 -1.438,-3.25c-1.625,-1.313 -4,-1.5 -4.687,-1.5c-2.25,-0 -4.063,0.125 -5.688,2c-0.437,0.5 -0.625,1 -0.625,1.5c0,0.437 0.188,0.937 0.375,1.5c0.375,0.75 1.188,1.312 2.063,1.312c1.562,0 1.75,-1.5 1.75,-2.187c-0,-1.438 -1.563,-1.563 -1.563,-2.188c0,-0.437 0.625,-1.187 2.5,-1.187c2.938,-0 3.938,2.437 3.938,3.187c-0,1.125 -0.375,2.188 -1,3.063c-1.125,1.437 -3.188,1.937 -4.75,2.937c-1.75,1.063 -2.938,2.875 -3.5,4.875c-0,0.438 0.187,0.938 0.562,1.125c0.063,0.063 0.188,0.063 0.25,0.063c0.688,-0 1.063,-1.938 2.938,-1.938c1.25,0 1.687,1.688 4.5,1.688c1.312,-0 3.75,-0.125 4.25,-4.938" style="fill-rule:nonzero;"/></g><g><path d="M943.115,86.861l0,-6.687c0,-0.313 -0.062,-0.563 -0.375,-0.563c-0.25,0 -0.437,0.063 -0.625,0.313l-1.875,3.625c-0.125,0.125 -0.312,0.312 -0.312,0.75l-0,2.562l-4.063,0c2.563,-2.125 6.563,-9.187 6.625,-9.562c0,-0.063 0.063,-0.125 0.063,-0.188c-0,-0.25 -0.25,-0.437 -0.438,-0.437c-0.312,-0 -1.625,0.125 -2.187,0.125c-0.563,-0 -0.938,-0.125 -1.188,-0.125c-0.312,-0 -0.75,0.125 -0.75,0.625c0,4 -3.25,8.562 -4.062,9.687c-0.125,0.125 -0.25,0.313 -0.25,0.5c-0,0.313 0.25,0.625 0.625,0.625l5.625,0l-0,1.938c-0,0.875 -0.5,1.125 -1,1.125c-0.563,-0 -0.813,0.25 -0.813,0.562c0,0.313 0.125,0.688 0.688,0.688l5.375,-0c0.312,-0 0.625,-0.25 0.625,-0.688c-0,-0.437 -0.375,-0.625 -0.688,-0.625c-0.312,0 -1,-0.187 -1,-1.187l0,-1.813l2.313,0c0.312,0 0.5,-0.25 0.5,-0.625c-0,-0.375 -0.125,-0.625 -0.5,-0.625l-2.313,0" style="fill-rule:nonzero;"/></g><g><path d="M987.934,86.861l-0,-6.687c-0,-0.313 -0.063,-0.563 -0.375,-0.563c-0.25,0 -0.438,0.063 -0.625,0.313l-1.875,3.625c-0.125,0.125 -0.313,0.312 -0.313,0.75l0,2.562l-4.062,0c2.562,-2.125 6.562,-9.187 6.625,-9.562c-0,-0.063 0.062,-0.125 0.062,-0.188c0,-0.25 -0.25,-0.437 -0.437,-0.437c-0.313,-0 -1.625,0.125 -2.188,0.125c-0.562,-0 -0.937,-0.125 -1.187,-0.125c-0.313,-0 -0.75,0.125 -0.75,0.625c-0,4 -3.25,8.562 -4.063,9.687c-0.125,0.125 -0.25,0.313 -0.25,0.5c0,0.313 0.25,0.625 0.625,0.625l5.625,0l0,1.938c0,0.875 -0.5,1.125 -1,1.125c-0.562,-0 -0.812,0.25 -0.812,0.562c-0,0.313 0.125,0.688 0.687,0.688l5.375,-0c0.313,-0 0.625,-0.25 0.625,-0.688c0,-0.437 -0.375,-0.625 -0.687,-0.625c-0.313,0 -1,-0.187 -1,-1.187l-0,-1.813l2.312,0c0.313,0 0.5,-0.25 0.5,-0.625c0,-0.375 -0.125,-0.625 -0.5,-0.625l-2.312,0" style="fill-rule:nonzero;"/></g><g><path d="M1030.9,76.125c0,-0 -0.062,0.25 -0.062,0.437c-0,0.25 0.25,0.5 0.5,0.5c0.187,0 0.312,-0.187 0.375,-0.25c0.062,-0.187 0.812,-2.75 1.187,-3.375c0.125,-0.25 0.25,-0.312 0.313,-0.312c0.125,-0 0.187,0.25 0.187,0.437l0,8.938c0,0.75 -0.625,1.187 -1.25,1.187c-0.25,0 -0.562,0.125 -0.562,0.5c-0,0.375 0.312,0.5 0.812,0.5l5.25,0c0.5,0 0.5,-0.5 0.5,-0.5c0,0 0,-0.5 -0.5,-0.5c-0.437,0 -1,-0.562 -1,-1.125l0,-13c0,-0.5 -0.187,-0.75 -0.625,-0.75c-0.437,0 -0.812,0.125 -1.187,0.125c-0.625,0 -0.75,0 -1.25,-0.125c-0.25,0 -0.563,0.375 -0.75,0.625l-1.938,6.688" style="fill-rule:nonzero;"/></g><g><path d="M1090.55,71.742c0,-0.437 -0.187,-0.5 -0.375,-0.5c-0.25,0 -0.375,0.188 -0.437,0.375c-0.313,0.875 -1,2 -1.938,2c-0.125,0 -0.25,0 -0.375,-0.062l-0.937,-0.313c-0.625,-0.25 -2.125,-0.75 -3.375,-0.75c-0.438,0 -0.813,0.063 -1.188,0.188c0.688,-1.188 3.938,-2.75 4.625,-2.938c2.25,-0.312 4.125,-1.625 4.125,-4.062c0,-1.5 -0.625,-2.5 -1.437,-3.25c-1.625,-1.313 -4,-1.5 -4.688,-1.5c-2.25,-0 -4.062,0.125 -5.687,2c-0.438,0.5 -0.625,1 -0.625,1.5c-0,0.437 0.187,0.937 0.375,1.5c0.375,0.75 1.187,1.312 2.062,1.312c1.563,0 1.75,-1.5 1.75,-2.187c0,-1.438 -1.562,-1.563 -1.562,-2.188c-0,-0.437 0.625,-1.187 2.5,-1.187c2.937,-0 3.937,2.437 3.937,3.187c0,1.125 -0.375,2.188 -1,3.063c-1.125,1.437 -3.187,1.937 -4.75,2.937c-1.75,1.063 -2.937,2.875 -3.5,4.875c0,0.438 0.188,0.938 0.563,1.125c0.062,0.063 0.187,0.063 0.25,0.063c0.687,-0 1.062,-1.938 2.937,-1.938c1.25,0 1.688,1.688 4.5,1.688c1.313,-0 3.75,-0.125 4.25,-4.938" style="fill-rule:nonzero;"/></g><g><path d="M1123.75,55.861l0,-6.687c0,-0.313 -0.062,-0.563 -0.375,-0.563c-0.25,0 -0.437,0.063 -0.625,0.313l-1.875,3.625c-0.125,0.125 -0.312,0.312 -0.312,0.75l-0,2.562l-4.063,0c2.563,-2.125 6.563,-9.187 6.625,-9.562c0,-0.063 0.063,-0.125 0.063,-0.188c-0,-0.25 -0.25,-0.437 -0.438,-0.437c-0.312,-0 -1.625,0.125 -2.187,0.125c-0.563,-0 -0.938,-0.125 -1.188,-0.125c-0.312,-0 -0.75,0.125 -0.75,0.625c0,4 -3.25,8.562 -4.062,9.687c-0.125,0.125 -0.25,0.313 -0.25,0.5c-0,0.313 0.25,0.625 0.625,0.625l5.625,0l-0,1.938c-0,0.875 -0.5,1.125 -1,1.125c-0.563,-0 -0.813,0.25 -0.813,0.562c0,0.313 0.125,0.688 0.688,0.688l5.375,-0c0.312,-0 0.625,-0.25 0.625,-0.688c-0,-0.437 -0.375,-0.625 -0.688,-0.625c-0.312,0 -1,-0.187 -1,-1.187l0,-1.813l2.313,0c0.312,0 0.5,-0.25 0.5,-0.625c-0,-0.375 -0.125,-0.625 -0.5,-0.625l-2.313,0" style="fill-rule:nonzero;"/></g><g><path d="M1159.82,48.111l0,-6.687c0,-0.313 -0.062,-0.563 -0.375,-0.563c-0.25,0 -0.437,0.063 -0.625,0.313l-1.875,3.625c-0.125,0.125 -0.312,0.312 -0.312,0.75l-0,2.562l-4.063,0c2.563,-2.125 6.563,-9.187 6.625,-9.562c0,-0.063 0.063,-0.125 0.063,-0.188c-0,-0.25 -0.25,-0.437 -0.438,-0.437c-0.312,-0 -1.625,0.125 -2.187,0.125c-0.563,-0 -0.938,-0.125 -1.188,-0.125c-0.312,-0 -0.75,0.125 -0.75,0.625c0,4 -3.25,8.562 -4.062,9.687c-0.125,0.125 -0.25,0.313 -0.25,0.5c-0,0.313 0.25,0.625 0.625,0.625l5.625,0l-0,1.938c-0,0.875 -0.5,1.125 -1,1.125c-0.563,-0 -0.813,0.25 -0.813,0.562c0,0.313 0.125,0.688 0.688,0.688l5.375,-0c0.312,-0 0.625,-0.25 0.625,-0.688c-0,-0.437 -0.375,-0.625 -0.688,-0.625c-0.312,0 -1,-0.187 -1,-1.187l0,-1.813l2.313,0c0.312,0 0.5,-0.25 0.5,-0.625c-0,-0.375 -0.125,-0.625 -0.5,-0.625l-2.313,0" style="fill-rule:nonzero;"/></g><g><path d="M1195.88,55.861l-0,-6.687c-0,-0.313 -0.063,-0.563 -0.375,-0.563c-0.25,0 -0.438,0.063 -0.625,0.313l-1.875,3.625c-0.125,0.125 -0.313,0.312 -0.313,0.75l0,2.562l-4.062,0c2.562,-2.125 6.562,-9.187 6.625,-9.562c-0,-0.063 0.062,-0.125 0.062,-0.188c0,-0.25 -0.25,-0.437 -0.437,-0.437c-0.313,-0 -1.625,0.125 -2.188,0.125c-0.562,-0 -0.937,-0.125 -1.187,-0.125c-0.313,-0 -0.75,0.125 -0.75,0.625c-0,4 -3.25,8.562 -4.063,9.687c-0.125,0.125 -0.25,0.313 -0.25,0.5c0,0.313 0.25,0.625 0.625,0.625l5.625,0l0,1.938c0,0.875 -0.5,1.125 -1,1.125c-0.562,-0 -0.812,0.25 -0.812,0.562c-0,0.313 0.125,0.688 0.687,0.688l5.375,-0c0.313,-0 0.625,-0.25 0.625,-0.688c0,-0.437 -0.375,-0.625 -0.687,-0.625c-0.313,0 -1,-0.187 -1,-1.187l-0,-1.813l2.312,0c0.313,0 0.5,-0.25 0.5,-0.625c0,-0.375 -0.125,-0.625 -0.5,-0.625l-2.312,0" style="fill-rule:nonzero;"/></g><g><path d="M1234.82,71.742c0,-0.437 -0.187,-0.5 -0.375,-0.5c-0.25,0 -0.375,0.188 -0.437,0.375c-0.313,0.875 -1,2 -1.938,2c-0.125,0 -0.25,0 -0.375,-0.062l-0.937,-0.313c-0.625,-0.25 -2.125,-0.75 -3.375,-0.75c-0.438,0 -0.813,0.063 -1.188,0.188c0.688,-1.188 3.938,-2.75 4.625,-2.938c2.25,-0.312 4.125,-1.625 4.125,-4.062c0,-1.5 -0.625,-2.5 -1.437,-3.25c-1.625,-1.313 -4,-1.5 -4.688,-1.5c-2.25,-0 -4.062,0.125 -5.687,2c-0.438,0.5 -0.625,1 -0.625,1.5c-0,0.437 0.187,0.937 0.375,1.5c0.375,0.75 1.187,1.312 2.062,1.312c1.563,0 1.75,-1.5 1.75,-2.187c0,-1.438 -1.562,-1.563 -1.562,-2.188c-0,-0.437 0.625,-1.187 2.5,-1.187c2.937,-0 3.937,2.437 3.937,3.187c0,1.125 -0.375,2.188 -1,3.063c-1.125,1.437 -3.187,1.937 -4.75,2.937c-1.75,1.063 -2.937,2.875 -3.5,4.875c0,0.438 0.188,0.938 0.563,1.125c0.062,0.063 0.187,0.063 0.25,0.063c0.687,-0 1.062,-1.938 2.937,-1.938c1.25,0 1.688,1.688 4.5,1.688c1.313,-0 3.75,-0.125 4.25,-4.938" style="fill-rule:nonzero;"/></g><g><path d="M1296.77,76.125c0,-0 -0.062,0.25 -0.062,0.437c-0,0.25 0.25,0.5 0.5,0.5c0.187,0 0.312,-0.187 0.375,-0.25c0.062,-0.187 0.812,-2.75 1.187,-3.375c0.125,-0.25 0.25,-0.312 0.313,-0.312c0.125,-0 0.187,0.25 0.187,0.437l0,8.938c0,0.75 -0.625,1.187 -1.25,1.187c-0.25,0 -0.562,0.125 -0.562,0.5c-0,0.375 0.312,0.5 0.812,0.5l5.25,0c0.5,0 0.5,-0.5 0.5,-0.5c0,0 0,-0.5 -0.5,-0.5c-0.437,0 -1,-0.562 -1,-1.125l0,-13c0,-0.5 -0.187,-0.75 -0.625,-0.75c-0.437,0 -0.812,0.125 -1.187,0.125c-0.625,0 -0.75,0 -1.25,-0.125c-0.25,0 -0.563,0.375 -0.75,0.625l-1.938,6.688" style="fill-rule:nonzero;"/></g><g><path d="M1339.75,86.861l0,-6.687c0,-0.313 -0.062,-0.563 -0.375,-0.563c-0.25,0 -0.437,0.063 -0.625,0.313l-1.875,3.625c-0.125,0.125 -0.312,0.312 -0.312,0.75l-0,2.562l-4.063,0c2.563,-2.125 6.563,-9.187 6.625,-9.562c0,-0.063 0.063,-0.125 0.063,-0.188c-0,-0.25 -0.25,-0.437 -0.438,-0.437c-0.312,-0 -1.625,0.125 -2.187,0.125c-0.563,-0 -0.938,-0.125 -1.188,-0.125c-0.312,-0 -0.75,0.125 -0.75,0.625c0,4 -3.25,8.562 -4.062,9.687c-0.125,0.125 -0.25,0.313 -0.25,0.5c-0,0.313 0.25,0.625 0.625,0.625l5.625,0l-0,1.938c-0,0.875 -0.5,1.125 -1,1.125c-0.563,-0 -0.813,0.25 -0.813,0.562c0,0.313 0.125,0.688 0.688,0.688l5.375,-0c0.312,-0 0.625,-0.25 0.625,-0.688c-0,-0.437 -0.375,-0.625 -0.688,-0.625c-0.312,0 -1,-0.187 -1,-1.187l0,-1.813l2.313,0c0.312,0 0.5,-0.25 0.5,-0.625c-0,-0.375 -0.125,-0.625 -0.5,-0.625l-2.313,0" style="fill-rule:nonzero;"/></g><g><path d="M1388.18,86.861l-0,-6.687c-0,-0.313 -0.063,-0.563 -0.375,-0.563c-0.25,0 -0.438,0.063 -0.625,0.313l-1.875,3.625c-0.125,0.125 -0.313,0.312 -0.313,0.75l0,2.562l-4.062,0c2.562,-2.125 6.562,-9.187 6.625,-9.562c-0,-0.063 0.062,-0.125 0.062,-0.188c0,-0.25 -0.25,-0.437 -0.437,-0.437c-0.313,-0 -1.625,0.125 -2.188,0.125c-0.562,-0 -0.937,-0.125 -1.187,-0.125c-0.313,-0 -0.75,0.125 -0.75,0.625c-0,4 -3.25,8.562 -4.063,9.687c-0.125,0.125 -0.25,0.313 -0.25,0.5c0,0.313 0.25,0.625 0.625,0.625l5.625,0l0,1.938c0,0.875 -0.5,1.125 -1,1.125c-0.562,-0 -0.812,0.25 -0.812,0.562c-0,0.313 0.125,0.688 0.687,0.688l5.375,-0c0.313,-0 0.625,-0.25 0.625,-0.688c0,-0.437 -0.375,-0.625 -0.687,-0.625c-0.313,0 -1,-0.187 -1,-1.187l-0,-1.813l2.312,0c0.313,0 0.5,-0.25 0.5,-0.625c0,-0.375 -0.125,-0.625 -0.5,-0.625l-2.312,0" style="fill-rule:nonzero;"/></g><g><path d="M1439.48,94.992c0,-0.437 -0.187,-0.5 -0.375,-0.5c-0.25,0 -0.375,0.188 -0.437,0.375c-0.313,0.875 -1,2 -1.938,2c-0.125,0 -0.25,0 -0.375,-0.062l-0.937,-0.313c-0.625,-0.25 -2.125,-0.75 -3.375,-0.75c-0.438,0 -0.813,0.063 -1.188,0.188c0.688,-1.188 3.938,-2.75 4.625,-2.938c2.25,-0.312 4.125,-1.625 4.125,-4.062c0,-1.5 -0.625,-2.5 -1.437,-3.25c-1.625,-1.313 -4,-1.5 -4.688,-1.5c-2.25,-0 -4.062,0.125 -5.687,2c-0.437,0.5 -0.625,1 -0.625,1.5c0,0.437 0.188,0.937 0.375,1.5c0.375,0.75 1.188,1.312 2.063,1.312c1.562,0 1.749,-1.5 1.749,-2.187c0,-1.438 -1.562,-1.563 -1.562,-2.188c0,-0.437 0.625,-1.187 2.5,-1.187c2.937,-0 3.937,2.437 3.937,3.187c0,1.125 -0.375,2.188 -1,3.063c-1.125,1.437 -3.187,1.937 -4.749,2.937c-1.75,1.063 -2.938,2.875 -3.5,4.875c-0,0.438 0.187,0.938 0.562,1.125c0.063,0.063 0.188,0.063 0.25,0.063c0.688,-0 1.063,-1.938 2.937,-1.938c1.25,0 1.688,1.688 4.5,1.688c1.313,-0 3.75,-0.125 4.25,-4.938" style="fill-rule:nonzero;"/></g><g><path d="M1465.77,99.375c0,-0 -0.062,0.25 -0.062,0.437c-0,0.25 0.25,0.5 0.5,0.5c0.187,0 0.312,-0.187 0.375,-0.25c0.062,-0.187 0.812,-2.75 1.187,-3.375c0.125,-0.25 0.25,-0.312 0.313,-0.312c0.125,-0 0.187,0.25 0.187,0.437l0,8.938c0,0.75 -0.625,1.187 -1.25,1.187c-0.25,0 -0.562,0.125 -0.562,0.5c-0,0.375 0.312,0.5 0.812,0.5l5.25,0c0.5,0 0.5,-0.5 0.5,-0.5c0,0 0,-0.5 -0.5,-0.5c-0.437,0 -1,-0.562 -1,-1.125l0,-13c0,-0.5 -0.187,-0.75 -0.625,-0.75c-0.437,0 -0.812,0.125 -1.187,0.125c-0.625,0 -0.75,0 -1.25,-0.125c-0.25,0 -0.563,0.375 -0.75,0.625l-1.938,6.688" style="fill-rule:nonzero;"/></g><g><path d="M1508.75,110.111l0,-6.687c0,-0.313 -0.062,-0.563 -0.375,-0.563c-0.25,0 -0.437,0.063 -0.625,0.313l-1.875,3.625c-0.125,0.125 -0.312,0.312 -0.312,0.75l-0,2.562l-4.063,0c2.563,-2.125 6.563,-9.187 6.625,-9.562c0,-0.063 0.063,-0.125 0.063,-0.188c-0,-0.25 -0.25,-0.437 -0.438,-0.437c-0.312,-0 -1.625,0.125 -2.187,0.125c-0.563,-0 -0.938,-0.125 -1.188,-0.125c-0.312,-0 -0.75,0.125 -0.75,0.625c0,4 -3.25,8.562 -4.062,9.687c-0.125,0.125 -0.25,0.313 -0.25,0.5c-0,0.313 0.25,0.625 0.625,0.625l5.625,0l-0,1.938c-0,0.875 -0.5,1.125 -1,1.125c-0.563,-0 -0.813,0.25 -0.813,0.562c0,0.313 0.125,0.688 0.688,0.688l5.375,-0c0.312,-0 0.625,-0.25 0.625,-0.688c-0,-0.437 -0.375,-0.625 -0.688,-0.625c-0.312,0 -1,-0.187 -1,-1.187l0,-1.813l2.313,0c0.312,0 0.5,-0.25 0.5,-0.625c-0,-0.375 -0.125,-0.625 -0.5,-0.625l-2.313,0" style="fill-rule:nonzero;"/></g><g><path d="M1555.29,110.75c-0,-0.438 -0.188,-0.5 -0.375,-0.5c-0.25,-0 -0.375,0.187 -0.438,0.375c-0.312,0.875 -1,2 -1.937,2c-0.125,-0 -0.25,-0 -0.375,-0.063l-0.938,-0.312c-0.625,-0.25 -2.125,-0.75 -3.375,-0.75c-0.437,-0 -0.812,0.062 -1.187,0.187c0.687,-1.187 3.937,-2.75 4.625,-2.937c2.25,-0.313 4.125,-1.625 4.125,-4.063c-0,-1.5 -0.625,-2.5 -1.438,-3.25c-1.625,-1.312 -4,-1.5 -4.687,-1.5c-2.25,0 -4.063,0.125 -5.688,2c-0.437,0.5 -0.625,1 -0.625,1.5c0,0.438 0.188,0.938 0.375,1.5c0.375,0.75 1.188,1.313 2.063,1.313c1.562,-0 1.75,-1.5 1.75,-2.188c-0,-1.437 -1.563,-1.562 -1.563,-2.187c0,-0.438 0.625,-1.188 2.5,-1.188c2.938,0 3.938,2.438 3.938,3.188c-0,1.125 -0.375,2.187 -1,3.062c-1.125,1.438 -3.188,1.938 -4.75,2.938c-1.75,1.062 -2.938,2.875 -3.5,4.875c-0,0.437 0.187,0.937 0.562,1.125c0.063,0.062 0.188,0.062 0.25,0.062c0.688,0 1.063,-1.937 2.938,-1.937c1.25,-0 1.687,1.687 4.5,1.687c1.312,0 3.75,-0.125 4.25,-4.937" style="fill-rule:nonzero;"/></g><g><path d="M1589.18,107.187c-0,0 -0.063,0.25 -0.063,0.438c0,0.25 0.25,0.5 0.5,0.5c0.187,-0 0.312,-0.188 0.375,-0.25c0.062,-0.188 0.812,-2.75 1.187,-3.375c0.125,-0.25 0.25,-0.313 0.313,-0.313c0.125,0 0.187,0.25 0.187,0.438l0,8.937c0,0.75 -0.625,1.188 -1.25,1.188c-0.25,-0 -0.562,0.125 -0.562,0.5c-0,0.375 0.312,0.5 0.812,0.5l5.25,-0c0.5,-0 0.5,-0.5 0.5,-0.5c0,-0 0,-0.5 -0.5,-0.5c-0.437,-0 -1,-0.563 -1,-1.125l0,-13c0,-0.5 -0.187,-0.75 -0.625,-0.75c-0.437,-0 -0.812,0.125 -1.187,0.125c-0.625,-0 -0.75,-0 -1.25,-0.125c-0.25,-0 -0.563,0.375 -0.75,0.625l-1.937,6.687" style="fill-rule:nonzero;"/></g><g><path d="M1634.71,110.125l-0,-6.688c-0,-0.312 -0.063,-0.562 -0.375,-0.562c-0.25,-0 -0.438,0.062 -0.625,0.312l-1.875,3.625c-0.125,0.125 -0.313,0.313 -0.313,0.75l0,2.563l-4.062,-0c2.562,-2.125 6.562,-9.188 6.625,-9.563c-0,-0.062 0.062,-0.125 0.062,-0.187c0,-0.25 -0.25,-0.438 -0.437,-0.438c-0.313,0 -1.625,0.125 -2.188,0.125c-0.562,0 -0.937,-0.125 -1.187,-0.125c-0.313,0 -0.75,0.125 -0.75,0.625c-0,4 -3.25,8.563 -4.063,9.688c-0.125,0.125 -0.25,0.312 -0.25,0.5c0,0.312 0.25,0.625 0.625,0.625l5.625,-0l0,1.937c0,0.875 -0.5,1.125 -1,1.125c-0.562,0 -0.812,0.25 -0.812,0.563c-0,0.312 0.125,0.687 0.687,0.687l5.375,0c0.313,0 0.625,-0.25 0.625,-0.687c0,-0.438 -0.375,-0.625 -0.687,-0.625c-0.313,-0 -1,-0.188 -1,-1.188l-0,-1.812l2.312,-0c0.313,-0 0.5,-0.25 0.5,-0.625c0,-0.375 -0.125,-0.625 -0.5,-0.625l-2.312,-0" style="fill-rule:nonzero;"/></g><g><path d="M1676.94,110.125l-0,-6.688c-0,-0.312 -0.063,-0.562 -0.375,-0.562c-0.25,-0 -0.438,0.062 -0.625,0.312l-1.875,3.625c-0.125,0.125 -0.313,0.313 -0.313,0.75l0,2.563l-4.062,-0c2.562,-2.125 6.562,-9.188 6.625,-9.563c-0,-0.062 0.062,-0.125 0.062,-0.187c0,-0.25 -0.25,-0.438 -0.437,-0.438c-0.313,0 -1.625,0.125 -2.188,0.125c-0.562,0 -0.937,-0.125 -1.187,-0.125c-0.313,0 -0.75,0.125 -0.75,0.625c-0,4 -3.25,8.563 -4.063,9.688c-0.125,0.125 -0.25,0.312 -0.25,0.5c0,0.312 0.25,0.625 0.625,0.625l5.625,-0l0,1.937c0,0.875 -0.5,1.125 -1,1.125c-0.562,0 -0.812,0.25 -0.812,0.563c-0,0.312 0.125,0.687 0.687,0.687l5.375,0c0.313,0 0.625,-0.25 0.625,-0.687c0,-0.438 -0.375,-0.625 -0.687,-0.625c-0.313,-0 -1,-0.188 -1,-1.188l-0,-1.812l2.312,-0c0.313,-0 0.5,-0.25 0.5,-0.625c0,-0.375 -0.125,-0.625 -0.5,-0.625l-2.312,-0" style="fill-rule:nonzero;"/></g><g><path d="M1722.04,110.75c-0,-0.438 -0.188,-0.5 -0.375,-0.5c-0.25,-0 -0.375,0.187 -0.438,0.375c-0.312,0.875 -1,2 -1.937,2c-0.125,-0 -0.25,-0 -0.375,-0.063l-0.938,-0.312c-0.625,-0.25 -2.125,-0.75 -3.375,-0.75c-0.437,-0 -0.812,0.062 -1.187,0.187c0.687,-1.187 3.937,-2.75 4.625,-2.937c2.25,-0.313 4.125,-1.625 4.125,-4.063c-0,-1.5 -0.625,-2.5 -1.438,-3.25c-1.625,-1.312 -4,-1.5 -4.687,-1.5c-2.25,0 -4.063,0.125 -5.688,2c-0.437,0.5 -0.625,1 -0.625,1.5c0,0.438 0.188,0.938 0.375,1.5c0.375,0.75 1.188,1.313 2.063,1.313c1.562,-0 1.75,-1.5 1.75,-2.188c-0,-1.437 -1.563,-1.562 -1.563,-2.187c0,-0.438 0.625,-1.188 2.5,-1.188c2.938,0 3.938,2.438 3.938,3.188c-0,1.125 -0.375,2.187 -1,3.062c-1.125,1.438 -3.188,1.938 -4.75,2.938c-1.75,1.062 -2.938,2.875 -3.5,4.875c-0,0.437 0.187,0.937 0.562,1.125c0.063,0.062 0.188,0.062 0.25,0.062c0.688,0 1.063,-1.937 2.938,-1.937c1.25,-0 1.687,1.687 4.5,1.687c1.312,0 3.75,-0.125 4.25,-4.937" style="fill-rule:nonzero;"/></g><g><path d="M1748.33,107.187c0,0 -0.062,0.25 -0.062,0.438c-0,0.25 0.25,0.5 0.5,0.5c0.187,-0 0.312,-0.188 0.375,-0.25c0.062,-0.188 0.812,-2.75 1.187,-3.375c0.125,-0.25 0.25,-0.313 0.313,-0.313c0.125,0 0.187,0.25 0.187,0.438l0,8.937c0,0.75 -0.625,1.188 -1.25,1.188c-0.25,-0 -0.562,0.125 -0.562,0.5c-0,0.375 0.312,0.5 0.812,0.5l5.25,-0c0.5,-0 0.5,-0.5 0.5,-0.5c0,-0 0,-0.5 -0.5,-0.5c-0.437,-0 -1,-0.563 -1,-1.125l0,-13c0,-0.5 -0.187,-0.75 -0.625,-0.75c-0.437,-0 -0.812,0.125 -1.187,0.125c-0.625,-0 -0.75,-0 -1.25,-0.125c-0.25,-0 -0.563,0.375 -0.75,0.625l-1.938,6.687" style="fill-rule:nonzero;"/></g><g><path d="M221.857,239.812c5.562,0 12.375,-5.125 12.375,-10.437c-0,-3.188 -2.5,-5.188 -6.063,-5.188c-6.875,0 -12.375,5.063 -12.375,10.438c0,3.25 2.688,5.187 6.063,5.187" style="fill-rule:nonzero;"/></g><g><path d="M249.177,229.312c-0,0 -0.188,-3.75 -0.188,-6.25c0,-1 0.063,-1.75 0.125,-2c0.438,-1.25 2.938,-3.062 4.375,-3.062c1.813,-0 2.563,2.062 2.563,3.625c-0,3.375 -2.875,6.75 -5.563,8.437c-0.25,0.125 -0.437,0.188 -0.625,0.188c-0.562,-0 -0.687,-0.625 -0.687,-0.938m-2.188,5.563c0.188,0.25 0.375,0.312 0.563,0.312c0.187,0 0.375,-0.125 0.375,-0.125c1.875,-1.062 3.375,-2.75 4.937,-3.812c5.563,-3.875 7.5,-7.688 7.5,-10.563c0,-3.562 -2.75,-5.812 -5.625,-6c-1.062,0 -2.562,0.5 -3.437,1.063c-0.375,0.312 -1.063,0.875 -1.375,0.875c-0.125,-0 -0.188,-0 -0.313,-0.063c-0.437,-0.187 -0.687,-0.625 -0.687,-1.062c0.062,-1.375 0.437,-16.375 0.437,-17.625c0,-0.688 -0.562,-1.063 -1.187,-1.063c-0.875,0 -1.875,0.625 -1.938,1.75c0,0 0.25,35.688 0.75,36.313" style="fill-rule:nonzero;"/></g><g><path d="M270.288,232.062c5.562,0 12.375,-5.125 12.375,-10.437c-0,-3.188 -2.5,-5.188 -6.063,-5.188c-6.875,0 -12.375,5.063 -12.375,10.438c0,3.25 2.688,5.187 6.063,5.187" style="fill-rule:nonzero;"/></g><g><path d="M297.608,221.562c0,0 -0.187,-3.75 -0.187,-6.25c-0,-1 0.062,-1.75 0.125,-2c0.437,-1.25 2.937,-3.062 4.375,-3.062c1.812,-0 2.562,2.062 2.562,3.625c0,3.375 -2.875,6.75 -5.562,8.437c-0.25,0.125 -0.438,0.188 -0.625,0.188c-0.563,-0 -0.688,-0.625 -0.688,-0.938m-2.187,5.563c0.187,0.25 0.375,0.312 0.562,0.312c0.188,0 0.375,-0.125 0.375,-0.125c1.875,-1.062 3.375,-2.75 4.938,-3.812c5.562,-3.875 7.5,-7.688 7.5,-10.563c-0,-3.562 -2.75,-5.812 -5.625,-6c-1.063,0 -2.563,0.5 -3.438,1.063c-0.375,0.312 -1.062,0.875 -1.375,0.875c-0.125,-0 -0.187,-0 -0.312,-0.063c-0.438,-0.187 -0.688,-0.625 -0.688,-1.062c0.063,-1.375 0.438,-16.375 0.438,-17.625c-0,-0.688 -0.563,-1.063 -1.188,-1.063c-0.875,0 -1.875,0.625 -1.937,1.75c-0,0 0.25,35.688 0.75,36.313" style="fill-rule:nonzero;"/></g><g><path d="M318.719,224.312c5.562,0 12.375,-5.125 12.375,-10.437c-0,-3.188 -2.5,-5.188 -6.063,-5.188c-6.875,0 -12.375,5.063 -12.375,10.438c0,3.25 2.688,5.187 6.063,5.187" style="fill-rule:nonzero;"/></g><g><path d="M345.416,214.062c-0,-0.875 3.812,-2.5 5.312,-2.5c0.375,0 0.563,0.063 0.563,0.313l-0,6.437c-0,1.125 -3.563,2.563 -5.125,2.563c-0.438,-0 -0.75,-0.125 -0.75,-0.375l-0,-6.438m6.5,-8.875c-0.125,0 -0.188,0.063 -0.25,0.063c-0,-0 -4,1.437 -5.625,1.437c-0.375,0 -0.625,-0.062 -0.625,-0.312l-0,-10.438c-0,-0.437 -0.375,-0.75 -0.75,-0.75l-0.813,0c-0.437,0 -0.75,0.313 -0.75,0.75l0,32.188c0,0.375 0.188,0.562 0.5,0.562c0.063,0 0.375,-0.062 0.438,-0.125c0.875,-0.375 4.375,-1.875 6.187,-1.875c0.625,0 1.063,0.188 1.063,0.688l-0,9.312c-0,0.438 0.312,0.75 0.75,0.75l0.812,0c0.375,0 0.75,-0.312 0.75,-0.75l0,-31.375c0,-0.312 -0.25,-0.5 -0.5,-0.5c-0.062,0 -0.187,0 -0.25,0.063l-0.937,0.312" style="fill-rule:nonzero;"/></g><g><path d="M363.538,224.312c5.562,0 12.375,-5.125 12.375,-10.437c-0,-3.188 -2.5,-5.188 -6.063,-5.188c-6.875,0 -12.375,5.063 -12.375,10.438c0,3.25 2.688,5.187 6.063,5.187" style="fill-rule:nonzero;"/></g><g><path d="M398.419,211.562c-0.375,1.25 -3.313,2.5 -4.75,2.5c-0.375,0 -0.688,-0.125 -0.75,-0.312c-0.125,-0.25 -0.188,-1.625 -0.188,-3.125c0,-1.938 0.063,-4.125 0.188,-4.625c0.125,-1.063 3,-2.375 4.562,-2.375c0.438,-0 0.813,0.125 0.938,0.375c0.125,0.312 0.25,1.875 0.25,3.562c-0,1.688 -0.125,3.438 -0.25,4m4.312,-10.187c0.438,-0.188 0.75,-0.688 0.75,-1.063l0,-4.437c0,-0.313 -0.187,-0.5 -0.437,-0.5c-0.125,-0 -0.188,-0 -0.313,0.062c0,0 -1.25,0.5 -1.562,0.563c-0.438,-0 -0.875,-0.313 -0.875,-0.813l-0,-7.625c-0,-0.375 -0.375,-0.687 -0.875,-0.687c-0.625,-0 -1,0.312 -1,0.687l-0,8.125c-0.063,0.625 -0.25,1.438 -0.813,1.813c-0.75,0.437 -2.875,1.312 -3.937,1.562c-0.563,0 -0.75,-0.75 -0.75,-1.25l-0,-7.5c-0,-0.375 -0.438,-0.687 -0.875,-0.687c-0.625,-0 -1,0.312 -1,0.687l-0,8.438c-0,0.875 -0.375,1.5 -0.75,1.687c-0.375,0.188 -1.625,0.688 -1.625,0.688c-0.438,0.125 -0.75,0.625 -0.75,1l-0,4.437c-0,0.375 0.187,0.563 0.5,0.563c0.25,-0 1.437,-0.563 1.625,-0.688c0.062,0 0.125,-0.062 0.187,-0.062c0.438,-0 0.813,0.625 0.813,1.125l-0,6.187c-0,0.688 -0.313,1.25 -0.688,1.438c-0.375,0.125 -1.687,0.687 -1.687,0.687c-0.438,0.125 -0.75,0.625 -0.75,1l-0,4.438c-0,0.375 0.187,0.562 0.5,0.562c0.062,0 0.187,-0.062 0.25,-0.062c-0,-0 0.875,-0.375 1.437,-0.563c0.063,-0.062 0.125,-0.062 0.188,-0.062c0.437,-0 0.75,0.687 0.75,1l-0,7.687c-0,0.375 0.375,0.688 0.812,0.688c0.625,-0 1.063,-0.313 1.063,-0.688l-0,-8.687c-0,-0.813 0.312,-1.25 0.625,-1.375l3.812,-1.563c0.063,0 0.188,-0.062 0.25,-0.062c0.5,-0 0.813,0.75 0.813,1.125l-0,7.812c-0,0.375 0.375,0.688 0.812,0.688c0.688,-0 1.063,-0.313 1.063,-0.688l-0,-8.875c-0,-0.5 0.25,-1.25 0.687,-1.437c0.438,-0.188 1.75,-0.688 1.75,-0.688c0.438,-0.187 0.75,-0.687 0.75,-1.062l0,-4.438c0,-0.312 -0.187,-0.5 -0.437,-0.5c-0.125,0 -0.188,0 -0.313,0.063l-1.625,0.625c-0.375,-0 -0.812,-0.375 -0.812,-1.125l-0,-5.813c-0,-0.437 0.312,-1.625 0.812,-1.812l1.625,-0.625" style="fill-rule:nonzero;"/></g><g><path d="M413.409,216.562c5.563,0 12.375,-5.125 12.375,-10.437c0,-3.188 -2.5,-5.188 -6.062,-5.188c-6.875,0 -12.375,5.063 -12.375,10.438c-0,3.25 2.687,5.187 6.062,5.187" style="fill-rule:nonzero;"/></g><g><path d="M448.291,203.812c-0.375,1.25 -3.313,2.5 -4.75,2.5c-0.375,0 -0.688,-0.125 -0.75,-0.312c-0.125,-0.25 -0.188,-1.625 -0.188,-3.125c0,-1.938 0.063,-4.125 0.188,-4.625c0.125,-1.063 3,-2.375 4.562,-2.375c0.438,-0 0.813,0.125 0.938,0.375c0.125,0.312 0.25,1.875 0.25,3.562c-0,1.688 -0.125,3.438 -0.25,4m4.312,-10.187c0.438,-0.188 0.75,-0.688 0.75,-1.063l0,-4.437c0,-0.313 -0.187,-0.5 -0.437,-0.5c-0.125,-0 -0.188,-0 -0.313,0.062c0,0 -1.25,0.5 -1.562,0.563c-0.438,-0 -0.875,-0.313 -0.875,-0.813l-0,-7.625c-0,-0.375 -0.375,-0.687 -0.875,-0.687c-0.625,-0 -1,0.312 -1,0.687l-0,8.125c-0.063,0.625 -0.25,1.438 -0.813,1.813c-0.75,0.437 -2.875,1.312 -3.937,1.562c-0.563,0 -0.75,-0.75 -0.75,-1.25l-0,-7.5c-0,-0.375 -0.438,-0.687 -0.875,-0.687c-0.625,-0 -1,0.312 -1,0.687l-0,8.438c-0,0.875 -0.375,1.5 -0.75,1.687c-0.375,0.188 -1.625,0.688 -1.625,0.688c-0.438,0.125 -0.75,0.625 -0.75,1l-0,4.437c-0,0.375 0.187,0.563 0.5,0.563c0.25,-0 1.437,-0.563 1.625,-0.688c0.062,0 0.125,-0.062 0.187,-0.062c0.438,-0 0.813,0.625 0.813,1.125l-0,6.187c-0,0.688 -0.313,1.25 -0.688,1.438c-0.375,0.125 -1.687,0.687 -1.687,0.687c-0.438,0.125 -0.75,0.625 -0.75,1l-0,4.438c-0,0.375 0.187,0.562 0.5,0.562c0.062,0 0.187,-0.062 0.25,-0.062c-0,-0 0.875,-0.375 1.437,-0.563c0.063,-0.062 0.125,-0.062 0.188,-0.062c0.437,-0 0.75,0.687 0.75,1l-0,7.687c-0,0.375 0.375,0.688 0.812,0.688c0.625,-0 1.063,-0.313 1.063,-0.688l-0,-8.687c-0,-0.813 0.312,-1.25 0.625,-1.375l3.812,-1.563c0.063,0 0.188,-0.062 0.25,-0.062c0.5,-0 0.813,0.75 0.813,1.125l-0,7.812c-0,0.375 0.375,0.688 0.812,0.688c0.688,-0 1.063,-0.313 1.063,-0.688l-0,-8.875c-0,-0.5 0.25,-1.25 0.687,-1.437c0.438,-0.188 1.75,-0.688 1.75,-0.688c0.438,-0.187 0.75,-0.687 0.75,-1.062l0,-4.438c0,-0.312 -0.187,-0.5 -0.437,-0.5c-0.125,0 -0.188,0 -0.313,0.063l-1.625,0.625c-0.375,-0 -0.812,-0.375 -0.812,-1.125l-0,-5.813c-0,-0.437 0.312,-1.625 0.812,-1.812l1.625,-0.625" style="fill-rule:nonzero;"/></g><g><path d="M463.281,208.812c5.563,0 12.375,-5.125 12.375,-10.437c0,-3.188 -2.5,-5.188 -6.062,-5.188c-6.875,0 -12.375,5.063 -12.375,10.438c-0,3.25 2.687,5.187 6.062,5.187" style="fill-rule:nonzero;"/></g><g><path d="M499.35,193.312c5.562,0 12.375,-5.125 12.375,-10.437c-0,-3.188 -2.5,-5.188 -6.063,-5.188c-6.875,0 -12.375,5.063 -12.375,10.438c0,3.25 2.688,5.187 6.063,5.187" style="fill-rule:nonzero;"/></g><g><path d="M535.419,185.562c5.562,0 12.375,-5.125 12.375,-10.437c-0,-3.188 -2.5,-5.188 -6.063,-5.188c-6.875,0 -12.375,5.063 -12.375,10.438c0,3.25 2.688,5.187 6.063,5.187" style="fill-rule:nonzero;"/></g><g><path d="M556.541,175.062c-0,0 -0.188,-3.75 -0.188,-6.25c0,-1 0.063,-1.75 0.125,-2c0.438,-1.25 2.938,-3.062 4.375,-3.062c1.813,-0 2.563,2.062 2.563,3.625c-0,3.375 -2.875,6.75 -5.563,8.437c-0.25,0.125 -0.437,0.188 -0.625,0.188c-0.562,-0 -0.687,-0.625 -0.687,-0.938m-2.188,5.563c0.188,0.25 0.375,0.312 0.563,0.312c0.187,0 0.375,-0.125 0.375,-0.125c1.875,-1.062 3.375,-2.75 4.937,-3.812c5.563,-3.875 7.5,-7.688 7.5,-10.563c0,-3.562 -2.75,-5.812 -5.625,-6c-1.062,0 -2.562,0.5 -3.437,1.063c-0.375,0.312 -1.063,0.875 -1.375,0.875c-0.125,-0 -0.188,-0 -0.313,-0.063c-0.437,-0.187 -0.687,-0.625 -0.687,-1.062c0.062,-1.375 0.437,-16.375 0.437,-17.625c0,-0.688 -0.562,-1.063 -1.187,-1.063c-0.875,0 -1.875,0.625 -1.938,1.75c0,0 0.25,35.688 0.75,36.313" style="fill-rule:nonzero;"/></g><g><path d="M577.65,177.812c5.562,0 12.375,-5.125 12.375,-10.437c-0,-3.188 -2.5,-5.188 -6.063,-5.188c-6.875,0 -12.375,5.063 -12.375,10.438c0,3.25 2.688,5.187 6.063,5.187" style="fill-rule:nonzero;"/></g><g><path d="M598.803,167.312c0,0 -0.187,-3.75 -0.187,-6.25c-0,-1 0.062,-1.75 0.125,-2c0.437,-1.25 2.937,-3.062 4.375,-3.062c1.812,-0 2.562,2.062 2.562,3.625c0,3.375 -2.875,6.75 -5.562,8.437c-0.25,0.125 -0.438,0.188 -0.625,0.188c-0.563,-0 -0.688,-0.625 -0.688,-0.938m-2.187,5.563c0.187,0.25 0.375,0.312 0.562,0.312c0.188,0 0.375,-0.125 0.375,-0.125c1.875,-1.062 3.375,-2.75 4.938,-3.812c5.562,-3.875 7.5,-7.688 7.5,-10.563c-0,-3.562 -2.75,-5.812 -5.625,-6c-1.063,0 -2.563,0.5 -3.438,1.063c-0.375,0.312 -1.062,0.875 -1.375,0.875c-0.125,-0 -0.187,-0 -0.312,-0.063c-0.438,-0.187 -0.688,-0.625 -0.688,-1.062c0.063,-1.375 0.438,-16.375 0.438,-17.625c-0,-0.688 -0.563,-1.063 -1.188,-1.063c-0.875,0 -1.875,0.625 -1.937,1.75c-0,0 0.25,35.688 0.75,36.313" style="fill-rule:nonzero;"/></g><g><path d="M619.912,170.062c5.563,0 12.375,-5.125 12.375,-10.437c0,-3.188 -2.5,-5.188 -6.062,-5.188c-6.875,0 -12.375,5.063 -12.375,10.438c-0,3.25 2.687,5.187 6.062,5.187" style="fill-rule:nonzero;"/></g><g><path d="M640.44,159.812c0,-0.875 3.813,-2.5 5.313,-2.5c0.375,0 0.562,0.063 0.562,0.313l0,6.437c0,1.125 -3.562,2.563 -5.125,2.563c-0.437,-0 -0.75,-0.125 -0.75,-0.375l0,-6.438m6.5,-8.875c-0.125,0 -0.187,0.063 -0.25,0.063c0,-0 -4,1.437 -5.625,1.437c-0.375,0 -0.625,-0.062 -0.625,-0.312l0,-10.438c0,-0.437 -0.375,-0.75 -0.75,-0.75l-0.812,0c-0.438,0 -0.75,0.313 -0.75,0.75l-0,32.188c-0,0.375 0.187,0.562 0.5,0.562c0.062,0 0.375,-0.062 0.437,-0.125c0.875,-0.375 4.375,-1.875 6.188,-1.875c0.625,0 1.062,0.188 1.062,0.688l0,9.312c0,0.438 0.313,0.75 0.75,0.75l0.813,0c0.375,0 0.75,-0.312 0.75,-0.75l-0,-31.375c-0,-0.312 -0.25,-0.5 -0.5,-0.5c-0.063,0 -0.188,0 -0.25,0.063l-0.938,0.312" style="fill-rule:nonzero;"/></g><g><path d="M658.562,170.062c5.563,0 12.375,-5.125 12.375,-10.437c0,-3.188 -2.5,-5.188 -6.062,-5.188c-6.875,0 -12.375,5.063 -12.375,10.438c-0,3.25 2.687,5.187 6.062,5.187" style="fill-rule:nonzero;"/></g><g><path d="M687.275,157.312c-0.375,1.25 -3.313,2.5 -4.75,2.5c-0.375,0 -0.688,-0.125 -0.75,-0.312c-0.125,-0.25 -0.188,-1.625 -0.188,-3.125c0,-1.938 0.063,-4.125 0.188,-4.625c0.125,-1.063 3,-2.375 4.562,-2.375c0.438,-0 0.813,0.125 0.938,0.375c0.125,0.312 0.25,1.875 0.25,3.562c-0,1.688 -0.125,3.438 -0.25,4m4.312,-10.187c0.438,-0.188 0.75,-0.688 0.75,-1.063l0,-4.437c0,-0.313 -0.187,-0.5 -0.437,-0.5c-0.125,-0 -0.188,-0 -0.313,0.062c0,0 -1.25,0.5 -1.562,0.563c-0.438,-0 -0.875,-0.313 -0.875,-0.813l-0,-7.625c-0,-0.375 -0.375,-0.687 -0.875,-0.687c-0.625,-0 -1,0.312 -1,0.687l-0,8.125c-0.063,0.625 -0.25,1.438 -0.813,1.813c-0.75,0.437 -2.875,1.312 -3.937,1.562c-0.563,0 -0.75,-0.75 -0.75,-1.25l-0,-7.5c-0,-0.375 -0.438,-0.687 -0.875,-0.687c-0.625,-0 -1,0.312 -1,0.687l-0,8.438c-0,0.875 -0.375,1.5 -0.75,1.687c-0.375,0.188 -1.625,0.688 -1.625,0.688c-0.438,0.125 -0.75,0.625 -0.75,1l-0,4.437c-0,0.375 0.187,0.563 0.5,0.563c0.25,-0 1.437,-0.563 1.625,-0.688c0.062,0 0.125,-0.062 0.187,-0.062c0.438,-0 0.813,0.625 0.813,1.125l-0,6.187c-0,0.688 -0.313,1.25 -0.688,1.438c-0.375,0.125 -1.687,0.687 -1.687,0.687c-0.438,0.125 -0.75,0.625 -0.75,1l-0,4.438c-0,0.375 0.187,0.562 0.5,0.562c0.062,0 0.187,-0.062 0.25,-0.062c-0,-0 0.875,-0.375 1.437,-0.563c0.063,-0.062 0.125,-0.062 0.188,-0.062c0.437,-0 0.75,0.687 0.75,1l-0,7.687c-0,0.375 0.375,0.688 0.812,0.688c0.625,-0 1.063,-0.313 1.063,-0.688l-0,-8.687c-0,-0.813 0.312,-1.25 0.625,-1.375l3.812,-1.563c0.063,0 0.188,-0.062 0.25,-0.062c0.5,-0 0.813,0.75 0.813,1.125l-0,7.812c-0,0.375 0.375,0.688 0.812,0.688c0.688,-0 1.063,-0.313 1.063,-0.688l-0,-8.875c-0,-0.5 0.25,-1.25 0.687,-1.437c0.438,-0.188 1.75,-0.688 1.75,-0.688c0.438,-0.187 0.75,-0.687 0.75,-1.062l0,-4.438c0,-0.312 -0.187,-0.5 -0.437,-0.5c-0.125,0 -0.188,0 -0.313,0.063l-1.625,0.625c-0.375,-0 -0.812,-0.375 -0.812,-1.125l-0,-5.813c-0,-0.437 0.312,-1.625 0.812,-1.812l1.625,-0.625" style="fill-rule:nonzero;"/></g><g><path d="M702.265,162.312c5.563,0 12.375,-5.125 12.375,-10.437c0,-3.188 -2.5,-5.188 -6.062,-5.188c-6.875,0 -12.375,5.063 -12.375,10.438c-0,3.25 2.687,5.187 6.062,5.187" style="fill-rule:nonzero;"/></g><g><path d="M758.815,149.562c-0.375,1.25 -3.312,2.5 -4.75,2.5c-0.375,0 -0.687,-0.125 -0.75,-0.312c-0.125,-0.25 -0.187,-1.625 -0.187,-3.125c-0,-1.938 0.062,-4.125 0.187,-4.625c0.125,-1.063 3,-2.375 4.563,-2.375c0.437,-0 0.812,0.125 0.937,0.375c0.125,0.312 0.25,1.875 0.25,3.562c0,1.688 -0.125,3.438 -0.25,4m4.313,-10.187c0.437,-0.188 0.75,-0.688 0.75,-1.063l-0,-4.437c-0,-0.313 -0.188,-0.5 -0.438,-0.5c-0.125,-0 -0.187,-0 -0.312,0.062c-0,0 -1.25,0.5 -1.563,0.563c-0.437,-0 -0.875,-0.313 -0.875,-0.813l0,-7.625c0,-0.375 -0.375,-0.687 -0.875,-0.687c-0.625,-0 -1,0.312 -1,0.687l0,8.125c-0.062,0.625 -0.25,1.438 -0.812,1.813c-0.75,0.437 -2.875,1.312 -3.938,1.562c-0.562,0 -0.75,-0.75 -0.75,-1.25l0,-7.5c0,-0.375 -0.437,-0.687 -0.875,-0.687c-0.625,-0 -1,0.312 -1,0.687l0,8.438c0,0.875 -0.375,1.5 -0.75,1.687c-0.375,0.188 -1.625,0.688 -1.625,0.688c-0.437,0.125 -0.75,0.625 -0.75,1l0,4.437c0,0.375 0.188,0.563 0.5,0.563c0.25,-0 1.438,-0.563 1.625,-0.688c0.063,0 0.125,-0.062 0.188,-0.062c0.437,-0 0.812,0.625 0.812,1.125l0,6.187c0,0.688 -0.312,1.25 -0.687,1.438c-0.375,0.125 -1.688,0.687 -1.688,0.687c-0.437,0.125 -0.75,0.625 -0.75,1l0,4.438c0,0.375 0.188,0.562 0.5,0.562c0.063,0 0.188,-0.062 0.25,-0.062c0,-0 0.875,-0.375 1.438,-0.563c0.062,-0.062 0.125,-0.062 0.187,-0.062c0.438,-0 0.75,0.687 0.75,1l0,7.687c0,0.375 0.375,0.688 0.813,0.688c0.625,-0 1.062,-0.313 1.062,-0.688l0,-8.687c0,-0.813 0.313,-1.25 0.625,-1.375l3.813,-1.563c0.062,0 0.187,-0.062 0.25,-0.062c0.5,-0 0.812,0.75 0.812,1.125l0,7.812c0,0.375 0.375,0.688 0.813,0.688c0.687,-0 1.062,-0.313 1.062,-0.688l0,-8.875c0,-0.5 0.25,-1.25 0.688,-1.437c0.437,-0.188 1.75,-0.688 1.75,-0.688c0.437,-0.187 0.75,-0.687 0.75,-1.062l-0,-4.438c-0,-0.312 -0.188,-0.5 -0.438,-0.5c-0.125,0 -0.187,0 -0.312,0.063l-1.625,0.625c-0.375,-0 -0.813,-0.375 -0.813,-1.125l0,-5.813c0,-0.437 0.313,-1.625 0.813,-1.812l1.625,-0.625" style="fill-rule:nonzero;"/></g><g><path d="M773.803,154.562c5.562,0 12.375,-5.125 12.375,-10.437c-0,-3.188 -2.5,-5.188 -6.063,-5.188c-6.875,0 -12.375,5.063 -12.375,10.438c0,3.25 2.688,5.187 6.063,5.187" style="fill-rule:nonzero;"/></g><g><path d="M809.872,139.062c5.562,0 12.375,-5.125 12.375,-10.437c-0,-3.188 -2.5,-5.188 -6.063,-5.188c-6.875,0 -12.375,5.063 -12.375,10.438c0,3.25 2.688,5.187 6.063,5.187" style="fill-rule:nonzero;"/></g><g><path d="M845.94,131.312c5.563,0 12.375,-5.125 12.375,-10.437c0,-3.188 -2.5,-5.188 -6.062,-5.188c-6.875,0 -12.375,5.063 -12.375,10.438c-0,3.25 2.687,5.187 6.062,5.187" style="fill-rule:nonzero;"/></g><g><path d="M867.093,120.812c0,0 -0.187,-3.75 -0.187,-6.25c-0,-1 0.062,-1.75 0.125,-2c0.437,-1.25 2.937,-3.062 4.375,-3.062c1.812,-0 2.562,2.062 2.562,3.625c0,3.375 -2.875,6.75 -5.562,8.437c-0.25,0.125 -0.438,0.188 -0.625,0.188c-0.563,-0 -0.688,-0.625 -0.688,-0.938m-2.187,5.563c0.187,0.25 0.375,0.312 0.562,0.312c0.188,0 0.375,-0.125 0.375,-0.125c1.875,-1.062 3.375,-2.75 4.938,-3.812c5.562,-3.875 7.5,-7.688 7.5,-10.563c-0,-3.562 -2.75,-5.812 -5.625,-6c-1.063,0 -2.563,0.5 -3.438,1.063c-0.375,0.312 -1.062,0.875 -1.375,0.875c-0.125,-0 -0.187,-0 -0.312,-0.063c-0.438,-0.187 -0.688,-0.625 -0.688,-1.062c0.063,-1.375 0.438,-16.375 0.438,-17.625c-0,-0.688 -0.563,-1.063 -1.188,-1.063c-0.875,0 -1.875,0.625 -1.937,1.75c-0,0 0.25,35.688 0.75,36.313" style="fill-rule:nonzero;"/></g><g><path d="M888.203,123.562c5.562,0 12.375,-5.125 12.375,-10.437c-0,-3.188 -2.5,-5.188 -6.063,-5.188c-6.875,0 -12.375,5.063 -12.375,10.438c0,3.25 2.688,5.187 6.063,5.187" style="fill-rule:nonzero;"/></g><g><path d="M915.525,113.062c-0,0 -0.188,-3.75 -0.188,-6.25c0,-1 0.063,-1.75 0.125,-2c0.438,-1.25 2.938,-3.062 4.375,-3.062c1.813,-0 2.563,2.062 2.563,3.625c-0,3.375 -2.875,6.75 -5.563,8.437c-0.25,0.125 -0.437,0.188 -0.625,0.188c-0.562,-0 -0.687,-0.625 -0.687,-0.938m-2.188,5.563c0.188,0.25 0.375,0.312 0.563,0.312c0.187,0 0.375,-0.125 0.375,-0.125c1.875,-1.062 3.375,-2.75 4.937,-3.812c5.563,-3.875 7.5,-7.688 7.5,-10.563c0,-3.562 -2.75,-5.812 -5.625,-6c-1.062,0 -2.562,0.5 -3.437,1.063c-0.375,0.312 -1.063,0.875 -1.375,0.875c-0.125,-0 -0.188,-0 -0.313,-0.063c-0.437,-0.187 -0.687,-0.625 -0.687,-1.062c0.062,-1.375 0.437,-16.375 0.437,-17.625c0,-0.688 -0.562,-1.063 -1.187,-1.063c-0.875,0 -1.875,0.625 -1.938,1.75c0,0 0.25,35.688 0.75,36.313" style="fill-rule:nonzero;"/></g><g><path d="M936.634,115.812c5.563,0 12.375,-5.125 12.375,-10.437c0,-3.188 -2.5,-5.188 -6.062,-5.188c-6.875,0 -12.375,5.063 -12.375,10.438c-0,3.25 2.687,5.187 6.062,5.187" style="fill-rule:nonzero;"/></g><g><path d="M963.331,105.562c-0,-0.875 3.812,-2.5 5.312,-2.5c0.375,0 0.563,0.063 0.563,0.313l-0,6.437c-0,1.125 -3.563,2.563 -5.125,2.563c-0.438,-0 -0.75,-0.125 -0.75,-0.375l-0,-6.438m6.5,-8.875c-0.125,0 -0.188,0.063 -0.25,0.063c-0,-0 -4,1.437 -5.625,1.437c-0.375,0 -0.625,-0.062 -0.625,-0.312l-0,-10.438c-0,-0.437 -0.375,-0.75 -0.75,-0.75l-0.813,0c-0.437,0 -0.75,0.313 -0.75,0.75l0,32.188c0,0.375 0.188,0.562 0.5,0.562c0.063,0 0.375,-0.062 0.438,-0.125c0.875,-0.375 4.375,-1.875 6.187,-1.875c0.625,0 1.063,0.188 1.063,0.688l-0,9.312c-0,0.438 0.312,0.75 0.75,0.75l0.812,0c0.375,0 0.75,-0.312 0.75,-0.75l0,-31.375c0,-0.312 -0.25,-0.5 -0.5,-0.5c-0.062,0 -0.187,0 -0.25,0.063l-0.937,0.312" style="fill-rule:nonzero;"/></g><g><path d="M981.453,115.812c5.562,0 12.375,-5.125 12.375,-10.437c-0,-3.188 -2.5,-5.188 -6.063,-5.188c-6.875,0 -12.375,5.063 -12.375,10.438c0,3.25 2.688,5.187 6.063,5.187" style="fill-rule:nonzero;"/></g><g><path d="M1016.34,103.062c-0.375,1.25 -3.312,2.5 -4.75,2.5c-0.375,0 -0.687,-0.125 -0.75,-0.312c-0.125,-0.25 -0.187,-1.625 -0.187,-3.125c-0,-1.938 0.062,-4.125 0.187,-4.625c0.125,-1.063 3,-2.375 4.563,-2.375c0.437,-0 0.812,0.125 0.937,0.375c0.125,0.312 0.25,1.875 0.25,3.562c0,1.688 -0.125,3.438 -0.25,4m4.313,-10.187c0.437,-0.188 0.75,-0.688 0.75,-1.063l-0,-4.437c-0,-0.313 -0.188,-0.5 -0.438,-0.5c-0.125,-0 -0.187,-0 -0.312,0.062c-0,0 -1.25,0.5 -1.563,0.563c-0.437,-0 -0.875,-0.313 -0.875,-0.813l0,-7.625c0,-0.375 -0.375,-0.687 -0.875,-0.687c-0.625,-0 -1,0.312 -1,0.687l0,8.125c-0.062,0.625 -0.25,1.438 -0.812,1.813c-0.75,0.437 -2.875,1.312 -3.938,1.562c-0.562,0 -0.75,-0.75 -0.75,-1.25l0,-7.5c0,-0.375 -0.437,-0.687 -0.875,-0.687c-0.625,-0 -1,0.312 -1,0.687l0,8.438c0,0.875 -0.375,1.5 -0.75,1.687c-0.375,0.188 -1.625,0.688 -1.625,0.688c-0.437,0.125 -0.75,0.625 -0.75,1l0,4.437c0,0.375 0.188,0.563 0.5,0.563c0.25,-0 1.438,-0.563 1.625,-0.688c0.063,0 0.125,-0.062 0.188,-0.062c0.437,-0 0.812,0.625 0.812,1.125l0,6.187c0,0.688 -0.312,1.25 -0.687,1.438c-0.375,0.125 -1.688,0.687 -1.688,0.687c-0.437,0.125 -0.75,0.625 -0.75,1l0,4.438c0,0.375 0.188,0.562 0.5,0.562c0.063,0 0.188,-0.062 0.25,-0.062c0,-0 0.875,-0.375 1.438,-0.563c0.062,-0.062 0.125,-0.062 0.187,-0.062c0.438,-0 0.75,0.687 0.75,1l0,7.687c0,0.375 0.375,0.688 0.813,0.688c0.625,-0 1.062,-0.313 1.062,-0.688l0,-8.687c0,-0.813 0.313,-1.25 0.625,-1.375l3.813,-1.563c0.062,0 0.187,-0.062 0.25,-0.062c0.5,-0 0.812,0.75 0.812,1.125l0,7.812c0,0.375 0.375,0.688 0.813,0.688c0.687,-0 1.062,-0.313 1.062,-0.688l0,-8.875c0,-0.5 0.25,-1.25 0.688,-1.437c0.437,-0.188 1.75,-0.688 1.75,-0.688c0.437,-0.187 0.75,-0.687 0.75,-1.062l-0,-4.438c-0,-0.312 -0.188,-0.5 -0.438,-0.5c-0.125,0 -0.187,0 -0.312,0.063l-1.625,0.625c-0.375,-0 -0.813,-0.375 -0.813,-1.125l0,-5.813c0,-0.437 0.313,-1.625 0.813,-1.812l1.625,-0.625" style="fill-rule:nonzero;"/></g><g><path d="M1031.33,108.062c5.562,0 12.375,-5.125 12.375,-10.437c-0,-3.188 -2.5,-5.188 -6.063,-5.188c-6.875,0 -12.375,5.063 -12.375,10.438c0,3.25 2.688,5.187 6.063,5.187" style="fill-rule:nonzero;"/></g><g><path d="M1066.21,95.312c-0.375,1.25 -3.313,2.5 -4.75,2.5c-0.375,0 -0.688,-0.125 -0.75,-0.312c-0.125,-0.25 -0.188,-1.625 -0.188,-3.125c0,-1.938 0.063,-4.125 0.188,-4.625c0.125,-1.063 3,-2.375 4.562,-2.375c0.438,-0 0.813,0.125 0.938,0.375c0.125,0.312 0.25,1.875 0.25,3.562c-0,1.688 -0.125,3.438 -0.25,4m4.312,-10.187c0.438,-0.188 0.75,-0.688 0.75,-1.063l0,-4.437c0,-0.313 -0.187,-0.5 -0.437,-0.5c-0.125,-0 -0.188,-0 -0.313,0.062c0,0 -1.25,0.5 -1.562,0.563c-0.438,-0 -0.875,-0.313 -0.875,-0.813l-0,-7.625c-0,-0.375 -0.375,-0.687 -0.875,-0.687c-0.625,-0 -1,0.312 -1,0.687l-0,8.125c-0.063,0.625 -0.25,1.438 -0.813,1.813c-0.75,0.437 -2.875,1.312 -3.937,1.562c-0.563,0 -0.75,-0.75 -0.75,-1.25l-0,-7.5c-0,-0.375 -0.438,-0.687 -0.875,-0.687c-0.625,-0 -1,0.312 -1,0.687l-0,8.438c-0,0.875 -0.375,1.5 -0.75,1.687c-0.375,0.188 -1.625,0.688 -1.625,0.688c-0.438,0.125 -0.75,0.625 -0.75,1l-0,4.437c-0,0.375 0.187,0.563 0.5,0.563c0.25,-0 1.437,-0.563 1.625,-0.688c0.062,0 0.125,-0.062 0.187,-0.062c0.438,-0 0.813,0.625 0.813,1.125l-0,6.187c-0,0.688 -0.313,1.25 -0.688,1.438c-0.375,0.125 -1.687,0.687 -1.687,0.687c-0.438,0.125 -0.75,0.625 -0.75,1l-0,4.438c-0,0.375 0.187,0.562 0.5,0.562c0.062,0 0.187,-0.062 0.25,-0.062c-0,-0 0.875,-0.375 1.437,-0.563c0.063,-0.062 0.125,-0.062 0.188,-0.062c0.437,-0 0.75,0.687 0.75,1l-0,7.687c-0,0.375 0.375,0.688 0.812,0.688c0.625,-0 1.063,-0.313 1.063,-0.688l-0,-8.687c-0,-0.813 0.312,-1.25 0.625,-1.375l3.812,-1.563c0.063,0 0.188,-0.062 0.25,-0.062c0.5,-0 0.813,0.75 0.813,1.125l-0,7.812c-0,0.375 0.375,0.688 0.812,0.688c0.688,-0 1.063,-0.313 1.063,-0.688l-0,-8.875c-0,-0.5 0.25,-1.25 0.687,-1.437c0.438,-0.188 1.75,-0.688 1.75,-0.688c0.438,-0.187 0.75,-0.687 0.75,-1.062l0,-4.438c0,-0.312 -0.187,-0.5 -0.437,-0.5c-0.125,0 -0.188,0 -0.313,0.063l-1.625,0.625c-0.375,-0 -0.812,-0.375 -0.812,-1.125l-0,-5.813c-0,-0.437 0.312,-1.625 0.812,-1.812l1.625,-0.625" style="fill-rule:nonzero;"/></g><g><path d="M1081.2,100.312c5.563,0 12.375,-5.125 12.375,-10.437c0,-3.188 -2.5,-5.188 -6.062,-5.188c-6.875,0 -12.375,5.063 -12.375,10.438c-0,3.25 2.687,5.187 6.062,5.187" style="fill-rule:nonzero;"/></g><g><path d="M1117.27,84.812c5.563,0 12.375,-5.125 12.375,-10.437c0,-3.188 -2.5,-5.188 -6.062,-5.188c-6.875,0 -12.375,5.063 -12.375,10.438c-0,3.25 2.687,5.187 6.062,5.187" style="fill-rule:nonzero;"/></g><g><path d="M1153.33,77.062c5.562,0 12.375,-5.125 12.375,-10.437c-0,-3.188 -2.5,-5.188 -6.063,-5.188c-6.875,0 -12.375,5.063 -12.375,10.438c0,3.25 2.688,5.187 6.063,5.187" style="fill-rule:nonzero;"/></g><g><path d="M1189.4,84.812c5.562,0 12.375,-5.125 12.375,-10.437c-0,-3.188 -2.5,-5.188 -6.063,-5.188c-6.875,0 -12.375,5.063 -12.375,10.438c0,3.25 2.688,5.187 6.063,5.187" style="fill-rule:nonzero;"/></g><g><path d="M1225.47,100.312c5.563,0 12.375,-5.125 12.375,-10.437c0,-3.188 -2.5,-5.188 -6.062,-5.188c-6.875,0 -12.375,5.063 -12.375,10.438c-0,3.25 2.687,5.187 6.062,5.187" style="fill-rule:nonzero;"/></g><g><path d="M1282.21,103.062c-0.375,1.25 -3.313,2.5 -4.75,2.5c-0.375,0 -0.688,-0.125 -0.75,-0.312c-0.125,-0.25 -0.188,-1.625 -0.188,-3.125c0,-1.938 0.063,-4.125 0.188,-4.625c0.125,-1.063 3,-2.375 4.562,-2.375c0.438,-0 0.813,0.125 0.938,0.375c0.125,0.312 0.25,1.875 0.25,3.562c-0,1.688 -0.125,3.438 -0.25,4m4.312,-10.187c0.438,-0.188 0.75,-0.688 0.75,-1.063l0,-4.437c0,-0.313 -0.187,-0.5 -0.437,-0.5c-0.125,-0 -0.188,-0 -0.313,0.062c0,0 -1.25,0.5 -1.562,0.563c-0.438,-0 -0.875,-0.313 -0.875,-0.813l-0,-7.625c-0,-0.375 -0.375,-0.687 -0.875,-0.687c-0.625,-0 -1,0.312 -1,0.687l-0,8.125c-0.063,0.625 -0.25,1.438 -0.813,1.813c-0.75,0.437 -2.875,1.312 -3.937,1.562c-0.563,0 -0.75,-0.75 -0.75,-1.25l-0,-7.5c-0,-0.375 -0.438,-0.687 -0.875,-0.687c-0.625,-0 -1,0.312 -1,0.687l-0,8.438c-0,0.875 -0.375,1.5 -0.75,1.687c-0.375,0.188 -1.625,0.688 -1.625,0.688c-0.438,0.125 -0.75,0.625 -0.75,1l-0,4.437c-0,0.375 0.187,0.563 0.5,0.563c0.25,-0 1.437,-0.563 1.625,-0.688c0.062,0 0.125,-0.062 0.187,-0.062c0.438,-0 0.813,0.625 0.813,1.125l-0,6.187c-0,0.688 -0.313,1.25 -0.688,1.438c-0.375,0.125 -1.687,0.687 -1.687,0.687c-0.438,0.125 -0.75,0.625 -0.75,1l-0,4.438c-0,0.375 0.187,0.562 0.5,0.562c0.062,0 0.187,-0.062 0.25,-0.062c-0,-0 0.875,-0.375 1.437,-0.563c0.063,-0.062 0.125,-0.062 0.188,-0.062c0.437,-0 0.75,0.687 0.75,1l-0,7.687c-0,0.375 0.375,0.688 0.812,0.688c0.625,-0 1.063,-0.313 1.063,-0.688l-0,-8.687c-0,-0.813 0.312,-1.25 0.625,-1.375l3.812,-1.563c0.063,0 0.188,-0.062 0.25,-0.062c0.5,-0 0.813,0.75 0.813,1.125l-0,7.812c-0,0.375 0.375,0.688 0.812,0.688c0.688,-0 1.063,-0.313 1.063,-0.688l-0,-8.875c-0,-0.5 0.25,-1.25 0.687,-1.437c0.438,-0.188 1.75,-0.688 1.75,-0.688c0.438,-0.187 0.75,-0.687 0.75,-1.062l0,-4.438c0,-0.312 -0.187,-0.5 -0.437,-0.5c-0.125,0 -0.188,0 -0.313,0.063l-1.625,0.625c-0.375,-0 -0.812,-0.375 -0.812,-1.125l-0,-5.813c-0,-0.437 0.312,-1.625 0.812,-1.812l1.625,-0.625" style="fill-rule:nonzero;"/></g><g><path d="M1297.2,108.062c5.563,0 12.375,-5.125 12.375,-10.437c0,-3.188 -2.5,-5.188 -6.062,-5.188c-6.875,0 -12.375,5.063 -12.375,10.438c-0,3.25 2.687,5.187 6.062,5.187" style="fill-rule:nonzero;"/></g><g><path d="M1333.27,115.812c5.563,0 12.375,-5.125 12.375,-10.437c0,-3.188 -2.5,-5.188 -6.062,-5.188c-6.875,0 -12.375,5.063 -12.375,10.438c-0,3.25 2.687,5.187 6.062,5.187" style="fill-rule:nonzero;"/></g><g><path d="M1360.59,113.062c-0,0 -0.188,-3.75 -0.188,-6.25c0,-1 0.063,-1.75 0.125,-2c0.438,-1.25 2.938,-3.062 4.375,-3.062c1.813,-0 2.563,2.062 2.563,3.625c-0,3.375 -2.875,6.75 -5.563,8.437c-0.25,0.125 -0.437,0.188 -0.625,0.188c-0.562,-0 -0.687,-0.625 -0.687,-0.938m-2.188,5.563c0.188,0.25 0.375,0.312 0.563,0.312c0.187,0 0.375,-0.125 0.375,-0.125c1.875,-1.062 3.375,-2.75 4.937,-3.812c5.563,-3.875 7.5,-7.688 7.5,-10.563c0,-3.562 -2.75,-5.812 -5.625,-6c-1.062,0 -2.562,0.5 -3.437,1.063c-0.375,0.312 -1.063,0.875 -1.375,0.875c-0.125,-0 -0.188,-0 -0.313,-0.063c-0.437,-0.187 -0.687,-0.625 -0.687,-1.062c0.062,-1.375 0.437,-16.375 0.437,-17.625c0,-0.688 -0.562,-1.063 -1.187,-1.063c-0.875,0 -1.875,0.625 -1.938,1.75c0,0 0.25,35.688 0.75,36.313" style="fill-rule:nonzero;"/></g><g><path d="M1381.7,115.812c5.563,0 12.375,-5.125 12.375,-10.437c0,-3.188 -2.5,-5.188 -6.062,-5.188c-6.875,0 -12.375,5.063 -12.375,10.438c-0,3.25 2.687,5.187 6.062,5.187" style="fill-rule:nonzero;"/></g><g><path d="M1409.02,120.812c0,0 -0.187,-3.75 -0.187,-6.25c-0,-1 0.062,-1.75 0.125,-2c0.437,-1.25 2.937,-3.062 4.375,-3.062c1.812,-0 2.562,2.062 2.562,3.625c0,3.375 -2.875,6.75 -5.562,8.437c-0.25,0.125 -0.438,0.188 -0.625,0.188c-0.563,-0 -0.688,-0.625 -0.688,-0.938m-2.187,5.563c0.187,0.25 0.375,0.312 0.562,0.312c0.188,0 0.375,-0.125 0.375,-0.125c1.875,-1.062 3.375,-2.75 4.938,-3.812c5.562,-3.875 7.5,-7.688 7.5,-10.563c-0,-3.562 -2.75,-5.812 -5.625,-6c-1.063,0 -2.563,0.5 -3.438,1.063c-0.375,0.312 -1.062,0.875 -1.375,0.875c-0.125,-0 -0.187,-0 -0.312,-0.063c-0.438,-0.187 -0.688,-0.625 -0.688,-1.062c0.063,-1.375 0.438,-16.375 0.438,-17.625c-0,-0.688 -0.563,-1.063 -1.188,-1.063c-0.875,0 -1.875,0.625 -1.937,1.75c-0,0 0.25,35.688 0.75,36.313" style="fill-rule:nonzero;"/></g><g><path d="M1430.13,123.562c5.562,0 12.374,-5.125 12.374,-10.437c0,-3.188 -2.5,-5.188 -6.062,-5.188c-6.875,0 -12.375,5.063 -12.375,10.438c0,3.25 2.688,5.187 6.063,5.187" style="fill-rule:nonzero;"/></g><g><path d="M1466.2,131.312c5.563,0 12.375,-5.125 12.375,-10.437c0,-3.188 -2.5,-5.188 -6.062,-5.188c-6.875,0 -12.375,5.063 -12.375,10.438c-0,3.25 2.687,5.187 6.062,5.187" style="fill-rule:nonzero;"/></g><g><path d="M1502.27,139.062c5.562,0 12.375,-5.125 12.375,-10.437c-0,-3.188 -2.5,-5.188 -6.063,-5.188c-6.875,0 -12.375,5.063 -12.375,10.438c0,3.25 2.688,5.187 6.063,5.187" style="fill-rule:nonzero;"/></g><g><path d="M1530.95,149.562c-0.375,1.25 -3.312,2.5 -4.75,2.5c-0.375,0 -0.687,-0.125 -0.75,-0.312c-0.125,-0.25 -0.187,-1.625 -0.187,-3.125c-0,-1.938 0.062,-4.125 0.187,-4.625c0.125,-1.063 3,-2.375 4.563,-2.375c0.437,-0 0.812,0.125 0.937,0.375c0.125,0.312 0.25,1.875 0.25,3.562c0,1.688 -0.125,3.438 -0.25,4m4.313,-10.187c0.437,-0.188 0.75,-0.688 0.75,-1.063l-0,-4.437c-0,-0.313 -0.188,-0.5 -0.438,-0.5c-0.125,-0 -0.187,-0 -0.312,0.062c-0,0 -1.25,0.5 -1.563,0.563c-0.437,-0 -0.875,-0.313 -0.875,-0.813l0,-7.625c0,-0.375 -0.375,-0.687 -0.875,-0.687c-0.625,-0 -1,0.312 -1,0.687l0,8.125c-0.062,0.625 -0.25,1.438 -0.812,1.813c-0.75,0.437 -2.875,1.312 -3.938,1.562c-0.562,0 -0.75,-0.75 -0.75,-1.25l0,-7.5c0,-0.375 -0.437,-0.687 -0.875,-0.687c-0.625,-0 -1,0.312 -1,0.687l0,8.438c0,0.875 -0.375,1.5 -0.75,1.687c-0.375,0.188 -1.625,0.688 -1.625,0.688c-0.437,0.125 -0.75,0.625 -0.75,1l0,4.437c0,0.375 0.188,0.563 0.5,0.563c0.25,-0 1.438,-0.563 1.625,-0.688c0.063,0 0.125,-0.062 0.188,-0.062c0.437,-0 0.812,0.625 0.812,1.125l0,6.187c0,0.688 -0.312,1.25 -0.687,1.438c-0.375,0.125 -1.688,0.687 -1.688,0.687c-0.437,0.125 -0.75,0.625 -0.75,1l0,4.438c0,0.375 0.188,0.562 0.5,0.562c0.063,0 0.188,-0.062 0.25,-0.062c0,-0 0.875,-0.375 1.438,-0.563c0.062,-0.062 0.125,-0.062 0.187,-0.062c0.438,-0 0.75,0.687 0.75,1l0,7.687c0,0.375 0.375,0.688 0.813,0.688c0.625,-0 1.062,-0.313 1.062,-0.688l0,-8.687c0,-0.813 0.313,-1.25 0.625,-1.375l3.813,-1.563c0.062,0 0.187,-0.062 0.25,-0.062c0.5,-0 0.812,0.75 0.812,1.125l0,7.812c0,0.375 0.375,0.688 0.813,0.688c0.687,-0 1.062,-0.313 1.062,-0.688l0,-8.875c0,-0.5 0.25,-1.25 0.688,-1.437c0.437,-0.188 1.75,-0.688 1.75,-0.688c0.437,-0.187 0.75,-0.687 0.75,-1.062l-0,-4.438c-0,-0.312 -0.188,-0.5 -0.438,-0.5c-0.125,0 -0.187,0 -0.312,0.063l-1.625,0.625c-0.375,-0 -0.813,-0.375 -0.813,-1.125l0,-5.813c0,-0.437 0.313,-1.625 0.813,-1.812l1.625,-0.625" style="fill-rule:nonzero;"/></g><g><path d="M1545.94,154.562c5.562,0 12.375,-5.125 12.375,-10.437c-0,-3.188 -2.5,-5.188 -6.063,-5.188c-6.875,0 -12.375,5.063 -12.375,10.438c0,3.25 2.688,5.187 6.063,5.187" style="fill-rule:nonzero;"/></g><g><path d="M1574.62,157.312c-0.375,1.25 -3.312,2.5 -4.75,2.5c-0.375,0 -0.687,-0.125 -0.75,-0.312c-0.125,-0.25 -0.187,-1.625 -0.187,-3.125c-0,-1.938 0.062,-4.125 0.187,-4.625c0.125,-1.063 3,-2.375 4.563,-2.375c0.437,-0 0.812,0.125 0.937,0.375c0.125,0.312 0.25,1.875 0.25,3.562c0,1.688 -0.125,3.438 -0.25,4m4.313,-10.187c0.437,-0.188 0.75,-0.688 0.75,-1.063l-0,-4.437c-0,-0.313 -0.188,-0.5 -0.438,-0.5c-0.125,-0 -0.187,-0 -0.312,0.062c-0,0 -1.25,0.5 -1.563,0.563c-0.437,-0 -0.875,-0.313 -0.875,-0.813l0,-7.625c0,-0.375 -0.375,-0.687 -0.875,-0.687c-0.625,-0 -1,0.312 -1,0.687l0,8.125c-0.062,0.625 -0.25,1.438 -0.812,1.813c-0.75,0.437 -2.875,1.312 -3.938,1.562c-0.562,0 -0.75,-0.75 -0.75,-1.25l0,-7.5c0,-0.375 -0.437,-0.687 -0.875,-0.687c-0.625,-0 -1,0.312 -1,0.687l0,8.438c0,0.875 -0.375,1.5 -0.75,1.687c-0.375,0.188 -1.625,0.688 -1.625,0.688c-0.437,0.125 -0.75,0.625 -0.75,1l0,4.437c0,0.375 0.188,0.563 0.5,0.563c0.25,-0 1.438,-0.563 1.625,-0.688c0.063,0 0.125,-0.062 0.188,-0.062c0.437,-0 0.812,0.625 0.812,1.125l0,6.187c0,0.688 -0.312,1.25 -0.687,1.438c-0.375,0.125 -1.688,0.687 -1.688,0.687c-0.437,0.125 -0.75,0.625 -0.75,1l0,4.438c0,0.375 0.188,0.562 0.5,0.562c0.063,0 0.188,-0.062 0.25,-0.062c0,-0 0.875,-0.375 1.438,-0.563c0.062,-0.062 0.125,-0.062 0.187,-0.062c0.438,-0 0.75,0.687 0.75,1l0,7.687c0,0.375 0.375,0.688 0.813,0.688c0.625,-0 1.062,-0.313 1.062,-0.688l0,-8.687c0,-0.813 0.313,-1.25 0.625,-1.375l3.813,-1.563c0.062,0 0.187,-0.062 0.25,-0.062c0.5,-0 0.812,0.75 0.812,1.125l0,7.812c0,0.375 0.375,0.688 0.813,0.688c0.687,-0 1.062,-0.313 1.062,-0.688l0,-8.875c0,-0.5 0.25,-1.25 0.688,-1.437c0.437,-0.188 1.75,-0.688 1.75,-0.688c0.437,-0.187 0.75,-0.687 0.75,-1.062l-0,-4.438c-0,-0.312 -0.188,-0.5 -0.438,-0.5c-0.125,0 -0.187,0 -0.312,0.063l-1.625,0.625c-0.375,-0 -0.813,-0.375 -0.813,-1.125l0,-5.813c0,-0.437 0.313,-1.625 0.813,-1.812l1.625,-0.625" style="fill-rule:nonzero;"/></g><g><path d="M1589.61,162.312c5.562,0 12.375,-5.125 12.375,-10.437c-0,-3.188 -2.5,-5.188 -6.063,-5.188c-6.875,0 -12.375,5.063 -12.375,10.438c0,3.25 2.688,5.187 6.063,5.187" style="fill-rule:nonzero;"/></g><g><path d="M1610.11,159.812c0,-0.875 3.813,-2.5 5.313,-2.5c0.375,0 0.562,0.063 0.562,0.313l0,6.437c0,1.125 -3.562,2.563 -5.125,2.563c-0.437,-0 -0.75,-0.125 -0.75,-0.375l0,-6.438m6.5,-8.875c-0.125,0 -0.187,0.063 -0.25,0.063c0,-0 -4,1.437 -5.625,1.437c-0.375,0 -0.625,-0.062 -0.625,-0.312l0,-10.438c0,-0.437 -0.375,-0.75 -0.75,-0.75l-0.812,0c-0.438,0 -0.75,0.313 -0.75,0.75l-0,32.188c-0,0.375 0.187,0.562 0.5,0.562c0.062,0 0.375,-0.062 0.437,-0.125c0.875,-0.375 4.375,-1.875 6.188,-1.875c0.625,0 1.062,0.188 1.062,0.688l0,9.312c0,0.438 0.313,0.75 0.75,0.75l0.813,0c0.375,0 0.75,-0.312 0.75,-0.75l-0,-31.375c-0,-0.312 -0.25,-0.5 -0.5,-0.5c-0.063,0 -0.188,0 -0.25,0.063l-0.938,0.312" style="fill-rule:nonzero;"/></g><g><path d="M1628.23,170.062c5.563,0 12.375,-5.125 12.375,-10.437c0,-3.188 -2.5,-5.188 -6.062,-5.188c-6.875,0 -12.375,5.063 -12.375,10.438c-0,3.25 2.687,5.187 6.062,5.187" style="fill-rule:nonzero;"/></g><g><path d="M1649.35,167.312c0,0 -0.187,-3.75 -0.187,-6.25c-0,-1 0.062,-1.75 0.125,-2c0.437,-1.25 2.937,-3.062 4.375,-3.062c1.812,-0 2.562,2.062 2.562,3.625c0,3.375 -2.875,6.75 -5.562,8.437c-0.25,0.125 -0.438,0.188 -0.625,0.188c-0.563,-0 -0.688,-0.625 -0.688,-0.938m-2.187,5.563c0.187,0.25 0.375,0.312 0.562,0.312c0.188,0 0.375,-0.125 0.375,-0.125c1.875,-1.062 3.375,-2.75 4.938,-3.812c5.562,-3.875 7.5,-7.688 7.5,-10.563c-0,-3.562 -2.75,-5.812 -5.625,-6c-1.063,0 -2.563,0.5 -3.438,1.063c-0.375,0.312 -1.062,0.875 -1.375,0.875c-0.125,-0 -0.187,-0 -0.312,-0.063c-0.438,-0.187 -0.688,-0.625 -0.688,-1.062c0.063,-1.375 0.438,-16.375 0.438,-17.625c-0,-0.688 -0.563,-1.063 -1.188,-1.063c-0.875,0 -1.875,0.625 -1.937,1.75c-0,0 0.25,35.688 0.75,36.313" style="fill-rule:nonzero;"/></g><g><path d="M1670.46,170.062c5.562,0 12.375,-5.125 12.375,-10.437c-0,-3.188 -2.5,-5.188 -6.063,-5.188c-6.875,0 -12.375,5.063 -12.375,10.438c0,3.25 2.688,5.187 6.063,5.187" style="fill-rule:nonzero;"/></g><g><path d="M1691.58,175.062c0,0 -0.187,-3.75 -0.187,-6.25c-0,-1 0.062,-1.75 0.125,-2c0.437,-1.25 2.937,-3.062 4.375,-3.062c1.812,-0 2.562,2.062 2.562,3.625c0,3.375 -2.875,6.75 -5.562,8.437c-0.25,0.125 -0.438,0.188 -0.625,0.188c-0.563,-0 -0.688,-0.625 -0.688,-0.938m-2.187,5.563c0.187,0.25 0.375,0.312 0.562,0.312c0.188,0 0.375,-0.125 0.375,-0.125c1.875,-1.062 3.375,-2.75 4.938,-3.812c5.562,-3.875 7.5,-7.688 7.5,-10.563c-0,-3.562 -2.75,-5.812 -5.625,-6c-1.063,0 -2.563,0.5 -3.438,1.063c-0.375,0.312 -1.062,0.875 -1.375,0.875c-0.125,-0 -0.187,-0 -0.312,-0.063c-0.438,-0.187 -0.688,-0.625 -0.688,-1.062c0.063,-1.375 0.438,-16.375 0.438,-17.625c-0,-0.688 -0.563,-1.063 -1.188,-1.063c-0.875,0 -1.875,0.625 -1.937,1.75c-0,0 0.25,35.688 0.75,36.313" style="fill-rule:nonzero;"/></g><g><path d="M1712.69,177.812c5.562,0 12.375,-5.125 12.375,-10.437c-0,-3.188 -2.5,-5.188 -6.063,-5.188c-6.875,0 -12.375,5.063 -12.375,10.438c0,3.25 2.688,5.187 6.063,5.187" style="fill-rule:nonzero;"/></g><g><path d="M1748.76,185.562c5.563,0 12.375,-5.125 12.375,-10.437c0,-3.188 -2.5,-5.188 -6.062,-5.188c-6.875,0 -12.375,5.063 -12.375,10.438c0,3.25 2.688,5.187 6.062,5.187" style="fill-rule:nonzero;"/></g><g><path d="M161.563,161.375c0.187,1.187 0.187,1.125 -0.938,1.5c-5.5,1.875 -9.062,6.812 -9.062,12.125c-0,5.625 2.937,9.625 7.187,11.062c0.5,0.188 1.25,0.375 1.688,0.375c0.5,0 0.75,-0.312 0.75,-0.687c-0,-0.438 -0.5,-0.625 -0.938,-0.813c-2.625,-1.125 -4.5,-3.812 -4.5,-6.687c0,-3.563 2.438,-6.25 6.25,-7.313c1,-0.25 1.125,-0.187 1.25,0.5l3.125,18.625c0.125,0.688 0.063,0.688 -0.875,0.875c-1,0.188 -2.25,0.313 -3.5,0.313c-10.937,-0 -18,-6.063 -18,-14.75c0,-3.688 0.625,-8.625 5.813,-14.5c3.75,-4.188 6.625,-6.5 9.562,-8.875c0.625,-0.5 0.75,-0.438 0.875,0.25l1.313,8m6.812,-42.563c2.063,0 3.75,1.688 3.75,5.125c0,6.938 -5.937,12.563 -10.875,16.875c-0.437,0.375 -0.687,0.313 -0.812,-0.5c-0.25,-1.625 -0.375,-3.75 -0.375,-5.75c-0,-9.75 4.5,-15.75 8.312,-15.75m-2.5,52.5c-0.125,-0.75 -0.062,-0.937 0.688,-0.875c5.062,0.438 9.25,4.688 9.25,10.188c-0,3.937 -2.375,7.125 -5.875,8.875c-0.75,0.375 -0.875,0.375 -1,-0.375l-3.063,-17.813m-3.375,-19.5c-0.125,-0.75 0,-0.812 0.375,-1.187c6.75,-6.313 11.875,-14.25 11.875,-23.813c0,-5.437 -1.5,-10.812 -4.062,-14.562c-0.938,-1.375 -2.563,-3.125 -3.25,-3.125c-0.875,-0 -2.813,1.625 -4.063,3c-4.625,5.125 -6.125,12.937 -6.125,19.437c0,3.625 0.438,7.688 0.875,10.25c0.125,0.75 0.188,0.875 -0.562,1.5c-9,7.438 -18.563,16.375 -18.563,29c0,10.875 7.438,21.188 22.75,21.188c1.438,-0 3.063,-0.125 4.313,-0.375c0.687,-0.125 0.812,-0.188 0.937,0.562c0.75,4.188 1.688,9.625 1.688,12.563c-0,9.25 -6.25,10.375 -9.938,10.375c-3.375,-0 -5,-1 -5,-1.813c0,-0.437 0.563,-0.625 2,-1.062c1.938,-0.563 4.188,-2.25 4.188,-5.875c-0,-3.438 -2.188,-6.375 -6,-6.375c-4.188,-0 -6.688,3.312 -6.688,7.187c0,4.063 2.438,10.188 11.875,10.188c4.188,-0 12.313,-1.875 12.313,-12.5c-0,-3.563 -1.125,-9.5 -1.813,-13.375c-0.125,-0.75 -0.062,-0.688 0.813,-1.063c6.312,-2.5 10.5,-7.812 10.5,-14.875c-0,-8 -5.875,-15.062 -15.063,-15.062c-1.625,-0 -1.625,-0 -1.812,-1.125l-1.563,-9.063" style="fill-rule:nonzero;"/></g><g><text x="264.201px" y="260.211px" style="font-family:'Bravura';font-size:62.5px;"></text></g><g><text x="407.322px" y="246.01px" style="font-family:'Bravura';font-size:62.5px;"></text></g><g><text x="532.412px" y="220.561px" style="font-family:'Bravura';font-size:62.5px;"></text></g><g><text x="645.787px" y="239.937px" style="font-family:'Bravura';font-size:62.5px;"></text></g><g><text x="794.569px" y="221.402px" style="font-family:'Bravura';font-size:62.5px;"></text></g><g><text x="919.525px" y="220.562px" style="font-family:'Bravura';font-size:62.5px;"></text></g><g><text x="1058.99px" y="220.562px" style="font-family:'Bravura';font-size:62.5px;"></text></g><g><text x="1174.1px" y="220.562px" style="font-family:'Bravura';font-size:62.5px;"></text></g><g><text x="1324.15px" y="220.562px" style="font-family:'Bravura';font-size:62.5px;"></text></g><g><text x="1450.9px" y="220.562px" style="font-family:'Bravura';font-size:62.5px;"></text></g><g><text x="1571.78px" y="235.435px" style="font-family:'Bravura';font-size:62.5px;"></text></g><g><text x="1694.31px" y="248.421px" style="font-family:'Bravura';font-size:62.5px;"></text></g><g><path d="M232.376,170l-0,-7.775l98.718,-7.75l0,7.775l-98.718,7.75" style="fill-rule:nonzero;"/></g><g><path d="M374.063,166.125l-0,-7.844l101.594,-15.5l-0,7.844l-101.594,15.5" style="fill-rule:nonzero;"/></g><g><path d="M509.875,139l0,-7.9l80.157,-15.5l-0,7.9l-80.157,15.5" style="fill-rule:nonzero;"/></g><g><path d="M613.844,212.625l0,-7.75l84.219,-0l-0,7.75l-84.219,-0" style="fill-rule:nonzero;"/></g><g><path d="M767.75,201.275l0,-8.025l74,-19.375l0,8.025l-74,19.375" style="fill-rule:nonzero;"/></g><g><path d="M882.156,170.006l0,-7.756l95.094,-3.875l-0,7.756l-95.094,3.875" style="fill-rule:nonzero;"/></g><g><path d="M1025.25,166.134l-0,-7.759l87.812,-3.875l0,7.759l-87.812,3.875" style="fill-rule:nonzero;"/></g><g><path d="M1147.28,162.294l0,-7.794l74,7.75l0,7.794l-74,-7.75" style="fill-rule:nonzero;"/></g><g><path d="M1291.12,162.25l-0,-7.75l86.375,-0l-0,7.75l-86.375,-0" style="fill-rule:nonzero;"/></g><g><path d="M1424.06,177.794l0,-7.794l74,7.75l0,7.794l-74,-7.75" style="fill-rule:nonzero;"/></g><g><path d="M1539.88,201.078l-0,-7.828l84.156,11.625l-0,7.828l-84.156,-11.625" style="fill-rule:nonzero;"/></g><g><path d="M1664.41,214.003l-0,-7.838l80.156,11.625l-0,7.838l-80.156,-11.625" style="fill-rule:nonzero;"/></g><g><path d="M210.688,258.259l45.844,-6.906l-0,-2.509l-43.375,6.534l-0,-8.744l-2.469,0" style="fill-rule:nonzero;"/></g><g><path d="M332.344,239.812l-42,6.307l0,-2.51l39.5,-6.115l0,-9.307l2.5,0" style="fill-rule:nonzero;"/></g><g><path d="M352.375,244.009l47.282,-6.931l-0,-2.506l-44.813,6.565l0,-8.753l-2.469,0" style="fill-rule:nonzero;"/></g><g><path d="M476.907,225.647l-43.438,6.347l0,-2.51l40.938,-6.159l-0,-9.303l2.5,-0" style="fill-rule:nonzero;"/></g><g><path d="M488.188,209.125l36.469,-0.025l-0,-2.481l-34,0.025l-0,-9.144l-2.469,-0" style="fill-rule:nonzero;"/></g><g><path d="M591.25,209.05l-32.593,0.022l-0,-2.478l30.125,-0.025l-0,-9.144l2.468,-0" style="fill-rule:nonzero;"/></g><g><path d="M131.251,348.25l448.249,-0" style="fill:none;stroke:#000;stroke-width:2.01px;"/><path d="M131.251,363.75l448.249,-0" style="fill:none;stroke:#000;stroke-width:2.01px;"/><path d="M131.251,379.25l448.249,-0" style="fill:none;stroke:#000;stroke-width:2.01px;"/><path d="M131.251,394.75l448.249,-0" style="fill:none;stroke:#000;stroke-width:2.01px;"/><path d="M131.251,410.25l448.249,-0" style="fill:none;stroke:#000;stroke-width:2.01px;"/></g><g><path d="M569.594,347.243l0,64.013" style="fill:none;stroke:#000;stroke-width:2.48px;"/><path d="M578.282,347.243l-0,64.013" style="fill:none;stroke:#000;stroke-width:2.48px;"/></g><g><path d="M233.282,348.062l-0,51.835" style="fill:none;stroke:#000;stroke-width:1.86px;"/><path d="M276.969,357.75l0,57.647" style="fill:none;stroke:#000;stroke-width:1.86px;"/><path d="M320.626,367.437l-0,55.71" style="fill:none;stroke:#000;stroke-width:1.86px;"/></g><g><path d="M300.563,425.75l27.219,-0" style="fill:none;stroke:#000;stroke-width:2.48px;"/></g><g><path d="M365.469,379.25l0,51.647" style="fill:none;stroke:#000;stroke-width:1.86px;"/></g><g><path d="M345.625,425.75l26.969,-0" style="fill:none;stroke:#000;stroke-width:2.48px;"/></g><g><path d="M413.875,379.25l0,51.647" style="fill:none;stroke:#000;stroke-width:1.86px;"/></g><g><path d="M394.063,425.75l26.969,-0" style="fill:none;stroke:#000;stroke-width:2.48px;"/></g><g><path d="M462.313,379.25l-0,59.397" style="fill:none;stroke:#000;stroke-width:1.86px;"/></g><g><path d="M442.25,441.25l27.188,-0" style="fill:none;stroke:#000;stroke-width:2.48px;"/><path d="M438.625,425.75l30.813,-0" style="fill:none;stroke:#000;stroke-width:2.48px;"/></g><g><path d="M498.157,379.25l-0,67.147" style="fill:none;stroke:#000;stroke-width:1.86px;"/></g><g><path d="M474.469,441.25l30.813,-0" style="fill:none;stroke:#000;stroke-width:2.48px;"/><path d="M474.469,425.75l30.813,-0" style="fill:none;stroke:#000;stroke-width:2.48px;"/></g><g><path d="M228.337,327.125l0,-6.688c0,-0.312 -0.062,-0.562 -0.375,-0.562c-0.25,-0 -0.437,0.062 -0.625,0.312l-1.875,3.625c-0.125,0.125 -0.312,0.313 -0.312,0.75l-0,2.563l-4.063,-0c2.563,-2.125 6.563,-9.188 6.625,-9.563c0,-0.062 0.063,-0.125 0.063,-0.187c-0,-0.25 -0.25,-0.438 -0.438,-0.438c-0.312,0 -1.625,0.125 -2.187,0.125c-0.563,0 -0.938,-0.125 -1.188,-0.125c-0.312,0 -0.75,0.125 -0.75,0.625c0,4 -3.25,8.563 -4.062,9.688c-0.125,0.125 -0.25,0.312 -0.25,0.5c-0,0.312 0.25,0.625 0.625,0.625l5.625,-0l-0,1.937c-0,0.875 -0.5,1.125 -1,1.125c-0.563,0 -0.813,0.25 -0.813,0.563c0,0.312 0.125,0.687 0.688,0.687l5.375,0c0.312,0 0.625,-0.25 0.625,-0.687c-0,-0.438 -0.375,-0.625 -0.688,-0.625c-0.312,-0 -1,-0.188 -1,-1.188l0,-1.812l2.313,-0c0.312,-0 0.5,-0.25 0.5,-0.625c-0,-0.375 -0.125,-0.625 -0.5,-0.625l-2.313,-0" style="fill-rule:nonzero;"/></g><g><path d="M274.876,327.75c0,-0.438 -0.187,-0.5 -0.375,-0.5c-0.25,-0 -0.375,0.187 -0.437,0.375c-0.313,0.875 -1,2 -1.938,2c-0.125,-0 -0.25,-0 -0.375,-0.063l-0.937,-0.312c-0.625,-0.25 -2.125,-0.75 -3.375,-0.75c-0.438,-0 -0.813,0.062 -1.188,0.187c0.688,-1.187 3.938,-2.75 4.625,-2.937c2.25,-0.313 4.125,-1.625 4.125,-4.063c0,-1.5 -0.625,-2.5 -1.437,-3.25c-1.625,-1.312 -4,-1.5 -4.688,-1.5c-2.25,0 -4.062,0.125 -5.687,2c-0.438,0.5 -0.625,1 -0.625,1.5c-0,0.438 0.187,0.938 0.375,1.5c0.375,0.75 1.187,1.313 2.062,1.313c1.563,-0 1.75,-1.5 1.75,-2.188c0,-1.437 -1.562,-1.562 -1.562,-2.187c-0,-0.438 0.625,-1.188 2.5,-1.188c2.937,0 3.937,2.438 3.937,3.188c0,1.125 -0.375,2.187 -1,3.062c-1.125,1.438 -3.187,1.938 -4.75,2.938c-1.75,1.062 -2.937,2.875 -3.5,4.875c0,0.437 0.188,0.937 0.563,1.125c0.062,0.062 0.187,0.062 0.25,0.062c0.687,0 1.062,-1.937 2.937,-1.937c1.25,-0 1.688,1.687 4.5,1.687c1.313,0 3.75,-0.125 4.25,-4.937" style="fill-rule:nonzero;"/></g><g><path d="M308.772,324.187c-0,0 -0.063,0.25 -0.063,0.438c0,0.25 0.25,0.5 0.5,0.5c0.188,-0 0.313,-0.188 0.375,-0.25c0.063,-0.188 0.813,-2.75 1.188,-3.375c0.125,-0.25 0.25,-0.313 0.312,-0.313c0.125,0 0.188,0.25 0.188,0.438l-0,8.937c-0,0.75 -0.625,1.188 -1.25,1.188c-0.25,-0 -0.563,0.125 -0.563,0.5c0,0.375 0.313,0.5 0.813,0.5l5.25,-0c0.5,-0 0.5,-0.5 0.5,-0.5c-0,-0 -0,-0.5 -0.5,-0.5c-0.438,-0 -1,-0.563 -1,-1.125l-0,-13c-0,-0.5 -0.188,-0.75 -0.625,-0.75c-0.438,-0 -0.813,0.125 -1.188,0.125c-0.625,-0 -0.75,-0 -1.25,-0.125c-0.25,-0 -0.562,0.375 -0.75,0.625l-1.937,6.687" style="fill-rule:nonzero;"/></g><g><path d="M360.5,327.125l0,-6.688c0,-0.312 -0.062,-0.562 -0.375,-0.562c-0.25,-0 -0.437,0.062 -0.625,0.312l-1.875,3.625c-0.125,0.125 -0.312,0.313 -0.312,0.75l-0,2.563l-4.063,-0c2.563,-2.125 6.563,-9.188 6.625,-9.563c0,-0.062 0.063,-0.125 0.063,-0.187c-0,-0.25 -0.25,-0.438 -0.438,-0.438c-0.312,0 -1.625,0.125 -2.187,0.125c-0.563,0 -0.938,-0.125 -1.188,-0.125c-0.312,0 -0.75,0.125 -0.75,0.625c0,4 -3.25,8.563 -4.062,9.688c-0.125,0.125 -0.25,0.312 -0.25,0.5c-0,0.312 0.25,0.625 0.625,0.625l5.625,-0l-0,1.937c-0,0.875 -0.5,1.125 -1,1.125c-0.563,0 -0.813,0.25 -0.813,0.563c0,0.312 0.125,0.687 0.688,0.687l5.375,0c0.312,0 0.625,-0.25 0.625,-0.687c-0,-0.438 -0.375,-0.625 -0.688,-0.625c-0.312,-0 -1,-0.188 -1,-1.188l0,-1.812l2.313,-0c0.312,-0 0.5,-0.25 0.5,-0.625c-0,-0.375 -0.125,-0.625 -0.5,-0.625l-2.313,-0" style="fill-rule:nonzero;"/></g><g><path d="M408.931,327.125l0,-6.688c0,-0.312 -0.062,-0.562 -0.375,-0.562c-0.25,-0 -0.437,0.062 -0.625,0.312l-1.875,3.625c-0.125,0.125 -0.312,0.313 -0.312,0.75l-0,2.563l-4.063,-0c2.563,-2.125 6.563,-9.188 6.625,-9.563c0,-0.062 0.063,-0.125 0.063,-0.187c-0,-0.25 -0.25,-0.438 -0.438,-0.438c-0.312,0 -1.625,0.125 -2.187,0.125c-0.563,0 -0.938,-0.125 -1.188,-0.125c-0.312,0 -0.75,0.125 -0.75,0.625c0,4 -3.25,8.563 -4.062,9.688c-0.125,0.125 -0.25,0.312 -0.25,0.5c-0,0.312 0.25,0.625 0.625,0.625l5.625,-0l-0,1.937c-0,0.875 -0.5,1.125 -1,1.125c-0.563,0 -0.813,0.25 -0.813,0.563c0,0.312 0.125,0.687 0.688,0.687l5.375,0c0.312,0 0.625,-0.25 0.625,-0.687c-0,-0.438 -0.375,-0.625 -0.688,-0.625c-0.312,-0 -1,-0.188 -1,-1.188l0,-1.812l2.313,-0c0.312,-0 0.5,-0.25 0.5,-0.625c-0,-0.375 -0.125,-0.625 -0.5,-0.625l-2.313,-0" style="fill-rule:nonzero;"/></g><g><path d="M460.228,327.75c0,-0.438 -0.187,-0.5 -0.375,-0.5c-0.25,-0 -0.375,0.187 -0.437,0.375c-0.313,0.875 -1,2 -1.938,2c-0.125,-0 -0.25,-0 -0.375,-0.063l-0.937,-0.312c-0.625,-0.25 -2.125,-0.75 -3.375,-0.75c-0.438,-0 -0.813,0.062 -1.188,0.187c0.688,-1.187 3.938,-2.75 4.625,-2.937c2.25,-0.313 4.125,-1.625 4.125,-4.063c0,-1.5 -0.625,-2.5 -1.437,-3.25c-1.625,-1.312 -4,-1.5 -4.688,-1.5c-2.25,0 -4.062,0.125 -5.687,2c-0.438,0.5 -0.625,1 -0.625,1.5c-0,0.438 0.187,0.938 0.375,1.5c0.375,0.75 1.187,1.313 2.062,1.313c1.563,-0 1.75,-1.5 1.75,-2.188c0,-1.437 -1.562,-1.562 -1.562,-2.187c-0,-0.438 0.625,-1.188 2.5,-1.188c2.937,0 3.937,2.438 3.937,3.188c0,1.125 -0.375,2.187 -1,3.062c-1.125,1.438 -3.187,1.938 -4.75,2.938c-1.75,1.062 -2.937,2.875 -3.5,4.875c0,0.437 0.188,0.937 0.563,1.125c0.062,0.062 0.187,0.062 0.25,0.062c0.687,0 1.062,-1.937 2.937,-1.937c1.25,-0 1.688,1.687 4.5,1.687c1.313,0 3.75,-0.125 4.25,-4.937" style="fill-rule:nonzero;"/></g><g><path d="M486.294,324.187c-0,0 -0.063,0.25 -0.063,0.438c0,0.25 0.25,0.5 0.5,0.5c0.188,-0 0.313,-0.188 0.375,-0.25c0.063,-0.188 0.813,-2.75 1.188,-3.375c0.125,-0.25 0.25,-0.313 0.312,-0.313c0.125,0 0.188,0.25 0.188,0.438l-0,8.937c-0,0.75 -0.625,1.188 -1.25,1.188c-0.25,-0 -0.563,0.125 -0.563,0.5c0,0.375 0.313,0.5 0.813,0.5l5.25,-0c0.5,-0 0.5,-0.5 0.5,-0.5c-0,-0 -0,-0.5 -0.5,-0.5c-0.438,-0 -1,-0.563 -1,-1.125l-0,-13c-0,-0.5 -0.188,-0.75 -0.625,-0.75c-0.438,-0 -0.813,0.125 -1.188,0.125c-0.625,-0 -0.75,-0 -1.25,-0.125c-0.25,-0 -0.562,0.375 -0.75,0.625l-1.937,6.687" style="fill-rule:nonzero;"/></g><g><path d="M221.857,410.312c5.562,0 12.375,-5.125 12.375,-10.437c-0,-3.188 -2.5,-5.188 -6.063,-5.188c-6.875,0 -12.375,5.063 -12.375,10.438c0,3.25 2.688,5.187 6.063,5.187" style="fill-rule:nonzero;"/></g><g><path d="M250.539,420.812c-0.375,1.25 -3.312,2.5 -4.75,2.5c-0.375,0 -0.687,-0.125 -0.75,-0.312c-0.125,-0.25 -0.187,-1.625 -0.187,-3.125c-0,-1.938 0.062,-4.125 0.187,-4.625c0.125,-1.063 3,-2.375 4.563,-2.375c0.437,-0 0.812,0.125 0.937,0.375c0.125,0.312 0.25,1.875 0.25,3.562c0,1.688 -0.125,3.438 -0.25,4m4.313,-10.187c0.437,-0.188 0.75,-0.688 0.75,-1.063l-0,-4.437c-0,-0.313 -0.188,-0.5 -0.438,-0.5c-0.125,-0 -0.187,-0 -0.312,0.062c-0,0 -1.25,0.5 -1.563,0.563c-0.437,-0 -0.875,-0.313 -0.875,-0.813l0,-7.625c0,-0.375 -0.375,-0.687 -0.875,-0.687c-0.625,-0 -1,0.312 -1,0.687l0,8.125c-0.062,0.625 -0.25,1.438 -0.812,1.813c-0.75,0.437 -2.875,1.312 -3.938,1.562c-0.562,0 -0.75,-0.75 -0.75,-1.25l0,-7.5c0,-0.375 -0.437,-0.687 -0.875,-0.687c-0.625,-0 -1,0.312 -1,0.687l0,8.438c0,0.875 -0.375,1.5 -0.75,1.687c-0.375,0.188 -1.625,0.688 -1.625,0.688c-0.437,0.125 -0.75,0.625 -0.75,1l0,4.437c0,0.375 0.188,0.563 0.5,0.563c0.25,-0 1.438,-0.563 1.625,-0.688c0.063,0 0.125,-0.062 0.188,-0.062c0.437,-0 0.812,0.625 0.812,1.125l0,6.187c0,0.688 -0.312,1.25 -0.687,1.438c-0.375,0.125 -1.688,0.687 -1.688,0.687c-0.437,0.125 -0.75,0.625 -0.75,1l0,4.438c0,0.375 0.188,0.562 0.5,0.562c0.063,0 0.188,-0.062 0.25,-0.062c0,-0 0.875,-0.375 1.438,-0.563c0.062,-0.062 0.125,-0.062 0.187,-0.062c0.438,-0 0.75,0.687 0.75,1l0,7.687c0,0.375 0.375,0.688 0.813,0.688c0.625,-0 1.062,-0.313 1.062,-0.688l0,-8.687c0,-0.813 0.313,-1.25 0.625,-1.375l3.813,-1.563c0.062,0 0.187,-0.062 0.25,-0.062c0.5,-0 0.812,0.75 0.812,1.125l0,7.812c0,0.375 0.375,0.688 0.813,0.688c0.687,-0 1.062,-0.313 1.062,-0.688l0,-8.875c0,-0.5 0.25,-1.25 0.688,-1.437c0.437,-0.188 1.75,-0.688 1.75,-0.688c0.437,-0.187 0.75,-0.687 0.75,-1.062l-0,-4.438c-0,-0.312 -0.188,-0.5 -0.438,-0.5c-0.125,0 -0.187,0 -0.312,0.063l-1.625,0.625c-0.375,-0 -0.813,-0.375 -0.813,-1.125l0,-5.813c0,-0.437 0.313,-1.625 0.813,-1.812l1.625,-0.625" style="fill-rule:nonzero;"/></g><g><path d="M265.529,425.812c5.562,0 12.375,-5.125 12.375,-10.437c-0,-3.188 -2.5,-5.188 -6.063,-5.188c-6.875,0 -12.375,5.063 -12.375,10.438c0,3.25 2.688,5.187 6.063,5.187" style="fill-rule:nonzero;"/></g><g><path d="M294.211,428.562c-0.375,1.25 -3.312,2.5 -4.75,2.5c-0.375,0 -0.687,-0.125 -0.75,-0.312c-0.125,-0.25 -0.187,-1.625 -0.187,-3.125c-0,-1.938 0.062,-4.125 0.187,-4.625c0.125,-1.063 3,-2.375 4.563,-2.375c0.437,-0 0.812,0.125 0.937,0.375c0.125,0.312 0.25,1.875 0.25,3.562c0,1.688 -0.125,3.438 -0.25,4m4.313,-10.187c0.437,-0.188 0.75,-0.688 0.75,-1.063l-0,-4.437c-0,-0.313 -0.188,-0.5 -0.438,-0.5c-0.125,-0 -0.187,-0 -0.312,0.062c-0,0 -1.25,0.5 -1.563,0.563c-0.437,-0 -0.875,-0.313 -0.875,-0.813l0,-7.625c0,-0.375 -0.375,-0.687 -0.875,-0.687c-0.625,-0 -1,0.312 -1,0.687l0,8.125c-0.062,0.625 -0.25,1.438 -0.812,1.813c-0.75,0.437 -2.875,1.312 -3.938,1.562c-0.562,0 -0.75,-0.75 -0.75,-1.25l0,-7.5c0,-0.375 -0.437,-0.687 -0.875,-0.687c-0.625,-0 -1,0.312 -1,0.687l0,8.438c0,0.875 -0.375,1.5 -0.75,1.687c-0.375,0.188 -1.625,0.688 -1.625,0.688c-0.437,0.125 -0.75,0.625 -0.75,1l0,4.437c0,0.375 0.188,0.563 0.5,0.563c0.25,-0 1.438,-0.563 1.625,-0.688c0.063,0 0.125,-0.062 0.188,-0.062c0.437,-0 0.812,0.625 0.812,1.125l0,6.187c0,0.688 -0.312,1.25 -0.687,1.438c-0.375,0.125 -1.688,0.687 -1.688,0.687c-0.437,0.125 -0.75,0.625 -0.75,1l0,4.438c0,0.375 0.188,0.562 0.5,0.562c0.063,0 0.188,-0.062 0.25,-0.062c0,-0 0.875,-0.375 1.438,-0.563c0.062,-0.062 0.125,-0.062 0.187,-0.062c0.438,-0 0.75,0.687 0.75,1l0,7.687c0,0.375 0.375,0.688 0.813,0.688c0.625,-0 1.062,-0.313 1.062,-0.688l0,-8.687c0,-0.813 0.313,-1.25 0.625,-1.375l3.813,-1.563c0.062,0 0.187,-0.062 0.25,-0.062c0.5,-0 0.812,0.75 0.812,1.125l0,7.812c0,0.375 0.375,0.688 0.813,0.688c0.687,-0 1.062,-0.313 1.062,-0.688l0,-8.875c0,-0.5 0.25,-1.25 0.688,-1.437c0.437,-0.188 1.75,-0.688 1.75,-0.688c0.437,-0.187 0.75,-0.687 0.75,-1.062l-0,-4.438c-0,-0.312 -0.188,-0.5 -0.438,-0.5c-0.125,0 -0.187,0 -0.312,0.063l-1.625,0.625c-0.375,-0 -0.813,-0.375 -0.813,-1.125l0,-5.813c0,-0.437 0.313,-1.625 0.813,-1.812l1.625,-0.625" style="fill-rule:nonzero;"/></g><g><path d="M309.2,433.562c5.563,0 12.375,-5.125 12.375,-10.437c0,-3.188 -2.5,-5.188 -6.062,-5.188c-6.875,0 -12.375,5.063 -12.375,10.438c-0,3.25 2.687,5.187 6.062,5.187" style="fill-rule:nonzero;"/></g><g><path d="M335.897,431.062c-0,-0.875 3.812,-2.5 5.312,-2.5c0.375,0 0.563,0.063 0.563,0.313l-0,6.437c-0,1.125 -3.563,2.563 -5.125,2.563c-0.438,-0 -0.75,-0.125 -0.75,-0.375l-0,-6.438m6.5,-8.875c-0.125,0 -0.188,0.063 -0.25,0.063c-0,-0 -4,1.437 -5.625,1.437c-0.375,0 -0.625,-0.062 -0.625,-0.312l-0,-10.438c-0,-0.437 -0.375,-0.75 -0.75,-0.75l-0.813,0c-0.437,0 -0.75,0.313 -0.75,0.75l0,32.188c0,0.375 0.188,0.562 0.5,0.562c0.063,0 0.375,-0.062 0.438,-0.125c0.875,-0.375 4.375,-1.875 6.187,-1.875c0.625,0 1.063,0.188 1.063,0.688l-0,9.312c-0,0.438 0.312,0.75 0.75,0.75l0.812,0c0.375,0 0.75,-0.312 0.75,-0.75l0,-31.375c0,-0.312 -0.25,-0.5 -0.5,-0.5c-0.062,0 -0.187,0 -0.25,0.063l-0.937,0.312" style="fill-rule:nonzero;"/></g><g><path d="M354.019,441.312c5.562,0 12.375,-5.125 12.375,-10.437c-0,-3.188 -2.5,-5.188 -6.063,-5.188c-6.875,0 -12.375,5.063 -12.375,10.438c0,3.25 2.688,5.187 6.063,5.187" style="fill-rule:nonzero;"/></g><g><path d="M381.338,438.562c-0,0 -0.188,-3.75 -0.188,-6.25c0,-1 0.063,-1.75 0.125,-2c0.438,-1.25 2.938,-3.062 4.375,-3.062c1.813,-0 2.563,2.062 2.563,3.625c-0,3.375 -2.875,6.75 -5.563,8.437c-0.25,0.125 -0.437,0.188 -0.625,0.188c-0.562,-0 -0.687,-0.625 -0.687,-0.938m-2.188,5.563c0.188,0.25 0.375,0.312 0.563,0.312c0.187,0 0.375,-0.125 0.375,-0.125c1.875,-1.062 3.375,-2.75 4.937,-3.812c5.563,-3.875 7.5,-7.688 7.5,-10.563c0,-3.562 -2.75,-5.812 -5.625,-6c-1.062,0 -2.562,0.5 -3.437,1.063c-0.375,0.312 -1.063,0.875 -1.375,0.875c-0.125,-0 -0.188,-0 -0.313,-0.063c-0.437,-0.187 -0.687,-0.625 -0.687,-1.062c0.062,-1.375 0.437,-16.375 0.437,-17.625c0,-0.688 -0.562,-1.063 -1.187,-1.063c-0.875,0 -1.875,0.625 -1.938,1.75c0,0 0.25,35.688 0.75,36.313" style="fill-rule:nonzero;"/></g><g><path d="M402.45,441.312c5.563,0 12.375,-5.125 12.375,-10.437c0,-3.188 -2.5,-5.188 -6.062,-5.188c-6.875,0 -12.375,5.063 -12.375,10.438c-0,3.25 2.687,5.187 6.062,5.187" style="fill-rule:nonzero;"/></g><g><path d="M429.769,446.312c-0,0 -0.188,-3.75 -0.188,-6.25c0,-1 0.063,-1.75 0.125,-2c0.438,-1.25 2.938,-3.062 4.375,-3.062c1.813,-0 2.563,2.062 2.563,3.625c-0,3.375 -2.875,6.75 -5.563,8.437c-0.25,0.125 -0.437,0.188 -0.625,0.188c-0.562,-0 -0.687,-0.625 -0.687,-0.938m-2.188,5.563c0.188,0.25 0.375,0.312 0.563,0.312c0.187,0 0.375,-0.125 0.375,-0.125c1.875,-1.062 3.375,-2.75 4.937,-3.812c5.563,-3.875 7.5,-7.688 7.5,-10.563c0,-3.562 -2.75,-5.812 -5.625,-6c-1.062,0 -2.562,0.5 -3.437,1.063c-0.375,0.312 -1.063,0.875 -1.375,0.875c-0.125,-0 -0.188,-0 -0.313,-0.063c-0.437,-0.187 -0.687,-0.625 -0.687,-1.062c0.062,-1.375 0.437,-16.375 0.437,-17.625c0,-0.688 -0.562,-1.063 -1.187,-1.063c-0.875,0 -1.875,0.625 -1.938,1.75c0,0 0.25,35.688 0.75,36.313" style="fill-rule:nonzero;"/></g><g><path d="M450.881,449.062c5.563,0 12.375,-5.125 12.375,-10.437c0,-3.188 -2.5,-5.188 -6.062,-5.188c-6.875,0 -12.375,5.063 -12.375,10.438c-0,3.25 2.687,5.187 6.062,5.187" style="fill-rule:nonzero;"/></g><g><path d="M485.347,454.437c-1.313,0 -2.063,-0.687 -2.5,-1.437c-0.188,-0.375 -0.375,-0.813 -0.375,-1.25c-0,-3.063 9.062,-8 12,-8c1.187,-0 1.875,0.562 2.312,1.312c0.188,0.375 0.375,0.75 0.375,1.188c0,2.687 -8.812,8.187 -11.812,8.187m1.375,2.375c10.312,0 12.375,-8.375 12.375,-10.437c-0,-3.188 -2.563,-5.188 -6.188,-5.188c-9.312,0 -12.25,7.188 -12.25,10.438c0,3.312 2.625,5.187 6.063,5.187" style="fill-rule:nonzero;"/></g><g><path d="M161.563,378.375c0.187,1.187 0.187,1.125 -0.938,1.5c-5.5,1.875 -9.062,6.812 -9.062,12.125c-0,5.625 2.937,9.625 7.187,11.062c0.5,0.188 1.25,0.375 1.688,0.375c0.5,0 0.75,-0.312 0.75,-0.687c-0,-0.438 -0.5,-0.625 -0.938,-0.813c-2.625,-1.125 -4.5,-3.812 -4.5,-6.687c0,-3.563 2.438,-6.25 6.25,-7.313c1,-0.25 1.125,-0.187 1.25,0.5l3.125,18.625c0.125,0.688 0.063,0.688 -0.875,0.875c-1,0.188 -2.25,0.313 -3.5,0.313c-10.937,-0 -18,-6.063 -18,-14.75c0,-3.688 0.625,-8.625 5.813,-14.5c3.75,-4.188 6.625,-6.5 9.562,-8.875c0.625,-0.5 0.75,-0.438 0.875,0.25l1.313,8m6.812,-42.563c2.063,0 3.75,1.688 3.75,5.125c0,6.938 -5.937,12.563 -10.875,16.875c-0.437,0.375 -0.687,0.313 -0.812,-0.5c-0.25,-1.625 -0.375,-3.75 -0.375,-5.75c-0,-9.75 4.5,-15.75 8.312,-15.75m-2.5,52.5c-0.125,-0.75 -0.062,-0.937 0.688,-0.875c5.062,0.438 9.25,4.688 9.25,10.188c-0,3.937 -2.375,7.125 -5.875,8.875c-0.75,0.375 -0.875,0.375 -1,-0.375l-3.063,-17.813m-3.375,-19.5c-0.125,-0.75 0,-0.812 0.375,-1.187c6.75,-6.313 11.875,-14.25 11.875,-23.813c0,-5.437 -1.5,-10.812 -4.062,-14.562c-0.938,-1.375 -2.563,-3.125 -3.25,-3.125c-0.875,-0 -2.813,1.625 -4.063,3c-4.625,5.125 -6.125,12.937 -6.125,19.437c0,3.625 0.438,7.688 0.875,10.25c0.125,0.75 0.188,0.875 -0.562,1.5c-9,7.438 -18.563,16.375 -18.563,29c0,10.875 7.438,21.188 22.75,21.188c1.438,-0 3.063,-0.125 4.313,-0.375c0.687,-0.125 0.812,-0.188 0.937,0.562c0.75,4.188 1.688,9.625 1.688,12.563c-0,9.25 -6.25,10.375 -9.938,10.375c-3.375,-0 -5,-1 -5,-1.813c0,-0.437 0.563,-0.625 2,-1.062c1.938,-0.563 4.188,-2.25 4.188,-5.875c-0,-3.438 -2.188,-6.375 -6,-6.375c-4.188,-0 -6.688,3.312 -6.688,7.187c0,4.063 2.438,10.188 11.875,10.188c4.188,-0 12.313,-1.875 12.313,-12.5c-0,-3.563 -1.125,-9.5 -1.813,-13.375c-0.125,-0.75 -0.062,-0.688 0.813,-1.063c6.312,-2.5 10.5,-7.812 10.5,-14.875c-0,-8 -5.875,-15.062 -15.063,-15.062c-1.625,-0 -1.625,-0 -1.812,-1.125l-1.563,-9.063" style="fill-rule:nonzero;"/></g><g><text x="259.441px" y="463.275px" style="font-family:'Bravura';font-size:62.5px;"></text></g><g><text x="396.363px" y="476.7px" style="font-family:'Bravura';font-size:62.5px;"></text></g><g><path d="M232.376,352.125l-0,-7.938l89.187,19.375l-0,7.938l-89.187,-19.375" style="fill-rule:nonzero;"/></g><g><path d="M364.532,387l-0,-7.75l98.718,-0l0,7.75l-98.718,-0" style="fill-rule:nonzero;"/></g><g><path d="M210.688,442.078l41.125,6.831l0,-2.516l-38.656,-6.418l-0,-9.522l-2.469,-0" style="fill-rule:nonzero;"/></g><g><path d="M322.813,460.859l-37.25,-6.169l0,-2.515l34.781,5.956l0,-8.897l2.469,0" style="fill-rule:nonzero;"/></g><g><path d="M342.844,456.812l45.844,6.097l-0,-2.5l-43.375,-5.769l-0,-9.453l-2.469,0" style="fill-rule:nonzero;"/></g><g><path d="M464.5,473.106l-41.968,-5.569l-0,-2.503l39.468,5.4l0,-8.953l2.5,-0" style="fill-rule:nonzero;"/></g></g></svg>