<?xml version="1.0" encoding="UTF-8" standalone="no"?><!DOCTYPE svg PUBLIC "-//W3C//DTD SVG 1.1//EN" "http://www.w3.org/Graphics/SVG/1.1/DTD/svg11.dtd"><svg width="100%" height="100%" viewBox="0 0 28724 4157" version="1.1" xmlns="http://www.w3.org/2000/svg" xmlns:xlink="http://www.w3.org/1999/xlink" xml:space="preserve" xmlns:serif="http://www.serif.com/" style="fill-rule:evenodd;clip-rule:evenodd;stroke-miterlimit:2;"><g><g><path d="M39.038,1889.34l28645.8,-0" style="fill:none;stroke:#000;stroke-width:34.92px;"/><path d="M39.038,1620.24l28645.8,-0" style="fill:none;stroke:#000;stroke-width:34.92px;"/><path d="M39.038,2158.44l28645.8,-0.001" style="fill:none;stroke:#000;stroke-width:34.92px;"/><path d="M39.038,2696.63l28645.8,0" style="fill:none;stroke:#000;stroke-width:34.92px;"/><path d="M39.038,2427.53l28645.8,0" style="fill:none;stroke:#000;stroke-width:34.92px;"/></g><g><path d="M9690.19,1602.78l0,1111.34" style="fill:none;stroke:#000;stroke-width:43.04px;"/><path d="M17564,1602.78l0,1111.34" style="fill:none;stroke:#000;stroke-width:43.04px;"/><path d="M25438.9,1602.78l-0,1111.34" style="fill:none;stroke:#000;stroke-width:43.04px;"/><path d="M28512.8,1602.78l0,1111.34" style="fill:none;stroke:#000;stroke-width:43.04px;"/><path d="M28663.1,1602.78l0,1111.34" style="fill:none;stroke:#000;stroke-width:43.04px;"/></g><g><path d="M2546.08,2157.47l-0,1166.72" style="fill:none;stroke:#000;stroke-width:32.29px;"/></g><g><path d="M2134.3,3234.83l535.488,-0" style="fill:none;stroke:#000;stroke-width:43.04px;"/><path d="M2134.3,2965.73l535.488,0" style="fill:none;stroke:#000;stroke-width:43.04px;"/></g><g><path d="M3474.37,2045.33l0,1009.76" style="fill:none;stroke:#000;stroke-width:32.29px;"/></g><g><path d="M3063.12,2965.73l534.946,0" style="fill:none;stroke:#000;stroke-width:43.04px;"/></g><g><path d="M4402.11,1933.25l-0,987.291" style="fill:none;stroke:#000;stroke-width:32.29px;"/></g><g><path d="M4053.24,2965.73l472.55,0" style="fill:none;stroke:#000;stroke-width:43.04px;"/></g><g><path d="M5330.9,1821.1l0,695.796" style="fill:none;stroke:#000;stroke-width:32.29px;"/><path d="M5971.65,2472.74l0,696.233" style="fill:none;stroke:#000;stroke-width:32.29px;"/><path d="M6899.94,2203.65l0,830.712" style="fill:none;stroke:#000;stroke-width:32.29px;"/><path d="M7828.19,2069.1l0,830.662" style="fill:none;stroke:#000;stroke-width:32.29px;"/><path d="M8755.94,1665.45l0,1099.88" style="fill:none;stroke:#000;stroke-width:32.29px;"/><path d="M10131.8,1530.9l0,965.329" style="fill:none;stroke:#000;stroke-width:32.29px;"/><path d="M11060.6,1261.83l-0,1099.81" style="fill:none;stroke:#000;stroke-width:32.29px;"/></g><g><path d="M10936.4,1351.15l535.471,-0" style="fill:none;stroke:#000;stroke-width:43.04px;"/></g><g><path d="M11988.4,1127.28l-0,1099.86" style="fill:none;stroke:#000;stroke-width:32.29px;"/></g><g><path d="M11927.6,1082.05l472.013,0" style="fill:none;stroke:#000;stroke-width:43.04px;"/><path d="M11931.9,1351.15l467.675,-0" style="fill:none;stroke:#000;stroke-width:43.04px;"/></g><g><path d="M12916.6,723.629l-0,1368.96" style="fill:none;stroke:#000;stroke-width:32.29px;"/></g><g><path d="M12792.9,812.95l535.488,0" style="fill:none;stroke:#000;stroke-width:43.04px;"/><path d="M12792.9,1082.05l535.488,0" style="fill:none;stroke:#000;stroke-width:43.04px;"/><path d="M12792.9,1351.15l535.488,-0" style="fill:none;stroke:#000;stroke-width:43.04px;"/></g><g><path d="M13845.4,589.079l0,1502.26" style="fill:none;stroke:#000;stroke-width:32.29px;"/></g><g><path d="M13721.7,543.854l534.946,0" style="fill:none;stroke:#000;stroke-width:43.04px;"/><path d="M13721.7,812.95l534.946,0" style="fill:none;stroke:#000;stroke-width:43.04px;"/><path d="M13721.7,1082.05l534.946,0" style="fill:none;stroke:#000;stroke-width:43.04px;"/><path d="M13721.7,1351.15l534.946,-0" style="fill:none;stroke:#000;stroke-width:43.04px;"/></g><g><path d="M14773.7,723.629l-0,1412.57" style="fill:none;stroke:#000;stroke-width:32.29px;"/></g><g><path d="M14650,812.95l535.471,0" style="fill:none;stroke:#000;stroke-width:43.04px;"/><path d="M14650,1082.05l535.471,0" style="fill:none;stroke:#000;stroke-width:43.04px;"/><path d="M14650,1351.15l535.471,-0" style="fill:none;stroke:#000;stroke-width:43.04px;"/></g><g><path d="M15702.6,1127.28l0,1053.8" style="fill:none;stroke:#000;stroke-width:32.29px;"/></g><g><path d="M15578.3,1082.05l535.488,0" style="fill:none;stroke:#000;stroke-width:43.04px;"/><path d="M15578.3,1351.15l535.488,-0" style="fill:none;stroke:#000;stroke-width:43.04px;"/></g><g><path d="M16629.8,1261.83l0,964.058" style="fill:none;stroke:#000;stroke-width:32.29px;"/></g><g><path d="M16506,1351.15l535.484,-0" style="fill:none;stroke:#000;stroke-width:43.04px;"/></g><g><path d="M18005.5,1530.9l0,1099.44" style="fill:none;stroke:#000;stroke-width:32.29px;"/><path d="M18934.3,1665.45l0,1077.03" style="fill:none;stroke:#000;stroke-width:32.29px;"/><path d="M19862.6,2069.1l0,785.471" style="fill:none;stroke:#000;stroke-width:32.29px;"/><path d="M20790.9,2203.65l0,763.075" style="fill:none;stroke:#000;stroke-width:32.29px;"/><path d="M22007.2,1551.56l-0,830.783" style="fill:none;stroke:#000;stroke-width:32.29px;"/><path d="M22936.1,1686.11l0,830.779" style="fill:none;stroke:#000;stroke-width:32.29px;"/><path d="M23864.4,1820.66l-0,1099.88" style="fill:none;stroke:#000;stroke-width:32.29px;"/></g><g><path d="M23515.6,2965.73l472.554,0" style="fill:none;stroke:#000;stroke-width:43.04px;"/></g><g><path d="M24792.6,1955.21l0,1099.88" style="fill:none;stroke:#000;stroke-width:32.29px;"/></g><g><path d="M24381.4,2965.73l535.488,0" style="fill:none;stroke:#000;stroke-width:43.04px;"/><path d="M25757.2,3234.83l672.746,-0" style="fill:none;stroke:#000;stroke-width:43.04px;"/><path d="M25757.2,2965.73l672.746,0" style="fill:none;stroke:#000;stroke-width:43.04px;"/></g><g><path d="M2339.94,1202.5c0,0 -1.075,4.342 -1.075,7.588c0,4.337 4.342,8.679 8.679,8.679c3.246,-0 5.417,-3.246 6.513,-4.342c1.075,-3.246 14.096,-47.742 20.608,-58.592c2.167,-4.341 4.338,-5.416 5.433,-5.416c2.171,-0 3.246,4.341 3.246,7.587l0,155.171c0,13.021 -10.85,20.608 -21.7,20.608c-4.341,0 -9.758,2.171 -9.758,8.684c-0,6.508 5.417,8.679 14.096,8.679l91.146,-0c8.683,-0 8.683,-8.679 8.683,-8.679c-0,-0 -0,-8.684 -8.683,-8.684c-7.588,0 -17.359,-9.754 -17.359,-19.529l0,-225.696c0,-8.679 -3.25,-13.02 -10.854,-13.02c-7.583,-0 -14.096,2.17 -20.604,2.17c-10.854,0 -13.021,0 -21.704,-2.17c-4.338,-0 -9.775,6.512 -13.021,10.85l-33.646,116.112" style="fill-rule:nonzero;"/></g><g><path d="M3388.41,1253.49l0,-116.096c0,-5.433 -1.079,-9.775 -6.512,-9.775c-4.342,-0 -7.588,1.096 -10.85,5.433l-32.555,62.938c-2.166,2.166 -5.416,5.416 -5.416,13.021l-0,44.479l-70.538,-0c44.496,-36.896 113.942,-159.5 115.017,-166.009c-0,-1.095 1.096,-2.17 1.096,-3.266c-0,-4.338 -4.342,-7.584 -7.604,-7.584c-5.417,0 -28.213,2.167 -37.971,2.167c-9.771,0 -16.284,-2.167 -20.625,-2.167c-5.417,0 -13.021,2.167 -13.021,10.85c-0,69.442 -56.421,148.646 -70.521,168.175c-2.167,2.171 -4.337,5.434 -4.337,8.684c-0,5.433 4.337,10.85 10.85,10.85l97.654,-0l-0,33.646c-0,15.191 -8.679,19.529 -17.359,19.529c-9.775,-0 -14.116,4.341 -14.116,9.758c-0,5.433 2.171,11.946 11.946,11.946l93.316,-0c5.417,-0 10.85,-4.342 10.85,-11.946c0,-7.587 -6.512,-10.85 -11.946,-10.85c-5.416,0 -17.358,-3.246 -17.358,-20.608l0,-31.475l40.154,-0c5.417,-0 8.679,-4.342 8.679,-10.85c0,-6.513 -2.166,-10.854 -8.679,-10.854l-40.154,-0" style="fill-rule:nonzero;"/></g><g><path d="M4196.15,1202.5c0,0 -1.079,4.342 -1.079,7.588c0,4.337 4.342,8.679 8.684,8.679c3.245,-0 5.416,-3.246 6.508,-4.342c1.079,-3.246 14.1,-47.742 20.608,-58.592c2.171,-4.341 4.342,-5.416 5.434,-5.416c2.17,-0 3.245,4.341 3.245,7.587l0,155.171c0,13.021 -10.85,20.608 -21.7,20.608c-4.341,0 -9.758,2.171 -9.758,8.684c0,6.508 5.417,8.679 14.1,8.679l91.146,-0c8.679,-0 8.679,-8.679 8.679,-8.679c0,-0 0,-8.684 -8.679,-8.684c-7.588,0 -17.363,-9.754 -17.363,-19.529l0,-225.696c0,-8.679 -3.245,-13.02 -10.85,-13.02c-7.587,-0 -14.095,2.17 -20.608,2.17c-10.85,0 -13.021,0 -21.7,-2.17c-4.342,-0 -9.775,6.512 -13.021,10.85l-33.646,116.112" style="fill-rule:nonzero;"/></g><g><path d="M5244.61,1253.49l-0,-116.096c-0,-5.433 -1.096,-9.775 -6.513,-9.775c-4.337,-0 -7.604,1.096 -10.85,5.433l-32.55,62.938c-2.171,2.166 -5.433,5.416 -5.433,13.021l-0,44.479l-70.521,-0c44.479,-36.896 113.921,-159.5 115.017,-166.009c-0,-1.095 1.075,-2.17 1.075,-3.266c-0,-4.338 -4.342,-7.584 -7.588,-7.584c-5.433,0 -28.212,2.167 -37.983,2.167c-9.758,0 -16.271,-2.167 -20.608,-2.167c-5.434,0 -13.021,2.167 -13.021,10.85c-0,69.442 -56.425,148.646 -70.538,168.175c-2.171,2.171 -4.341,5.434 -4.341,8.684c-0,5.433 4.341,10.85 10.85,10.85l97.658,-0l-0,33.646c-0,15.191 -8.683,19.529 -17.363,19.529c-9.758,-0 -14.095,4.341 -14.095,9.758c-0,5.433 2.166,11.946 11.925,11.946l93.316,-0c5.434,-0 10.85,-4.342 10.85,-11.946c0,-7.587 -6.508,-10.85 -11.925,-10.85c-5.437,0 -17.362,-3.246 -17.362,-20.608l-0,-31.475l40.137,-0c5.434,-0 8.684,-4.342 8.684,-10.85c-0,-6.513 -2.171,-10.854 -8.684,-10.854l-40.137,-0" style="fill-rule:nonzero;"/></g><g><path d="M6053.15,1202.5c0,0 -1.095,4.342 -1.095,7.588c-0,4.337 4.341,8.679 8.683,8.679c3.246,-0 5.417,-3.246 6.508,-4.342c1.079,-3.246 14.1,-47.742 20.609,-58.592c2.17,-4.341 4.341,-5.416 5.433,-5.416c2.171,-0 3.246,4.341 3.246,7.587l-0,155.171c-0,13.021 -10.85,20.608 -21.7,20.608c-4.342,0 -9.759,2.171 -9.759,8.684c0,6.508 5.417,8.679 14.1,8.679l91.146,-0c8.679,-0 8.679,-8.679 8.679,-8.679c0,-0 0,-8.684 -8.679,-8.684c-7.587,0 -17.362,-9.754 -17.362,-19.529l-0,-225.696c-0,-8.679 -3.246,-13.02 -10.85,-13.02c-7.588,-0 -14.096,2.17 -20.609,2.17c-10.85,0 -13.02,0 -21.7,-2.17c-4.341,-0 -9.775,6.512 -13.02,10.85l-33.63,116.112" style="fill-rule:nonzero;"/></g><g><path d="M7101.56,1253.49l0,-116.096c0,-5.433 -1.075,-9.775 -6.512,-9.775c-4.338,-0 -7.584,1.096 -10.85,5.433l-32.55,62.938c-2.171,2.166 -5.417,5.416 -5.417,13.021l-0,44.479l-70.538,-0c44.496,-36.896 113.938,-159.5 115.017,-166.009c0,-1.095 1.092,-2.17 1.092,-3.266c-0,-4.338 -4.338,-7.584 -7.604,-7.584c-5.417,0 -28.213,2.167 -37.967,2.167c-9.775,0 -16.288,-2.167 -20.625,-2.167c-5.417,0 -13.021,2.167 -13.021,10.85c0,69.442 -56.425,148.646 -70.521,168.175c-2.171,2.171 -4.341,5.434 -4.341,8.684c-0,5.433 4.341,10.85 10.85,10.85l97.658,-0l-0,33.646c-0,15.191 -8.683,19.529 -17.363,19.529c-9.775,-0 -14.112,4.341 -14.112,9.758c-0,5.433 2.167,11.946 11.942,11.946l93.316,-0c5.417,-0 10.85,-4.342 10.85,-11.946c0,-7.587 -6.508,-10.85 -11.941,-10.85c-5.417,0 -17.363,-3.246 -17.363,-20.608l0,-31.475l40.154,-0c5.417,-0 8.684,-4.342 8.684,-10.85c-0,-6.513 -2.171,-10.854 -8.684,-10.854l-40.154,-0" style="fill-rule:nonzero;"/></g><g><path d="M7910.11,1202.5c-0,0 -1.096,4.342 -1.096,7.588c-0,4.337 4.342,8.679 8.683,8.679c3.263,-0 5.434,-3.246 6.509,-4.342c1.095,-3.246 14.116,-47.742 20.625,-58.592c2.17,-4.341 4.341,-5.416 5.416,-5.416c2.171,-0 3.267,4.341 3.267,7.587l-0,155.171c-0,13.021 -10.854,20.608 -21.704,20.608c-4.338,0 -9.775,2.171 -9.775,8.684c-0,6.508 5.437,8.679 14.116,8.679l91.146,-0c8.679,-0 8.679,-8.679 8.679,-8.679c0,-0 0,-8.684 -8.679,-8.684c-7.604,0 -17.362,-9.754 -17.362,-19.529l-0,-225.696c-0,-8.679 -3.263,-13.02 -10.85,-13.02c-7.604,-0 -14.113,2.17 -20.625,2.17c-10.85,0 -13.021,0 -21.7,-2.17c-4.342,-0 -9.759,6.512 -13.021,10.85l-33.629,116.112" style="fill-rule:nonzero;"/></g><g><path d="M8957.69,1253.26l0,-116.109c0,-5.416 -1.079,-9.758 -6.512,-9.758c-4.342,-0 -7.588,1.075 -10.85,5.417l-32.555,62.933c-2.166,2.171 -5.416,5.433 -5.416,13.021l-0,44.496l-70.538,-0c44.496,-36.892 113.942,-159.513 115.017,-166.021c-0,-1.08 1.096,-2.171 1.096,-3.25c-0,-4.338 -4.342,-7.604 -7.604,-7.604c-5.417,-0 -28.213,2.17 -37.971,2.17c-9.771,0 -16.284,-2.17 -20.625,-2.17c-5.417,-0 -13.021,2.17 -13.021,10.854c-0,69.441 -56.421,148.662 -70.521,168.191c-2.167,2.171 -4.337,5.417 -4.337,8.684c-0,5.416 4.337,10.85 10.85,10.85l97.654,-0l-0,33.629c-0,15.187 -8.679,19.529 -17.359,19.529c-9.775,0 -14.116,4.342 -14.116,9.775c-0,5.417 2.171,11.925 11.946,11.925l93.316,0c5.417,0 10.85,-4.337 10.85,-11.925c0,-7.604 -6.512,-10.85 -11.946,-10.85c-5.416,0 -17.358,-3.267 -17.358,-20.625l0,-31.458l40.154,-0c5.417,-0 8.679,-4.342 8.679,-10.854c0,-6.509 -2.166,-10.85 -8.679,-10.85l-40.154,-0" style="fill-rule:nonzero;"/></g><g><path d="M10213.5,1066.86c-0,0 -1.092,4.342 -1.092,7.605c0,4.341 4.342,8.679 8.679,8.679c3.267,-0 5.434,-3.263 6.513,-4.338c1.091,-3.266 14.112,-47.746 20.625,-58.596c2.171,-4.341 4.337,-5.433 5.416,-5.433c2.171,0 3.263,4.342 3.263,7.604l-0,155.154c-0,13.021 -10.85,20.625 -21.7,20.625c-4.342,0 -9.775,2.171 -9.775,8.684c-0,6.508 5.433,8.679 14.112,8.679l91.146,-0c8.684,-0 8.684,-8.679 8.684,-8.679c-0,-0 -0,-8.684 -8.684,-8.684c-7.604,0 -17.358,-9.771 -17.358,-19.529l-0,-225.696c-0,-8.679 -3.267,-13.021 -10.85,-13.021c-7.604,0 -14.117,2.171 -20.625,2.171c-10.854,0 -13.021,0 -21.704,-2.171c-4.338,0 -9.754,6.513 -13.021,10.85l-33.629,116.096" style="fill-rule:nonzero;"/></g><g><path d="M11261.9,849.617l0,-116.109c0,-5.416 -1.075,-9.758 -6.508,-9.758c-4.342,0 -7.588,1.075 -10.85,5.417l-32.554,62.933c-2.171,2.171 -5.417,5.433 -5.417,13.021l-0,44.496l-70.538,-0c44.496,-36.892 113.942,-159.513 115.017,-166.021c0,-1.079 1.096,-2.171 1.096,-3.25c-0,-4.338 -4.342,-7.604 -7.604,-7.604c-5.417,-0 -28.213,2.171 -37.971,2.171c-9.775,-0 -16.283,-2.171 -20.625,-2.171c-5.417,-0 -13.021,2.171 -13.021,10.854c0,69.442 -56.421,148.662 -70.521,168.192c-2.171,2.17 -4.337,5.416 -4.337,8.683c-0,5.417 4.337,10.85 10.85,10.85l97.654,-0l-0,33.629c-0,15.188 -8.679,19.529 -17.358,19.529c-9.775,0 -14.117,4.342 -14.117,9.775c-0,5.417 2.171,11.925 11.946,11.925l93.316,0c5.417,0 10.85,-4.337 10.85,-11.925c0,-7.604 -6.512,-10.85 -11.945,-10.85c-5.417,0 -17.363,-3.266 -17.363,-20.625l0,-31.458l40.158,-0c5.417,-0 8.68,-4.342 8.68,-10.854c-0,-6.509 -2.171,-10.85 -8.68,-10.85l-40.158,-0" style="fill-rule:nonzero;"/></g><g><path d="M12070,663.213c-0,-0 -1.079,4.341 -1.079,7.604c-0,4.341 4.341,8.679 8.683,8.679c3.246,-0 5.417,-3.263 6.508,-4.338c1.079,-3.266 14.1,-47.746 20.609,-58.596c2.17,-4.341 4.341,-5.433 5.433,-5.433c2.171,0 3.246,4.342 3.246,7.604l-0,155.154c-0,13.021 -10.85,20.625 -21.7,20.625c-4.342,0 -9.759,2.171 -9.759,8.684c0,6.508 5.417,8.679 14.1,8.679l91.146,-0c8.679,-0 8.679,-8.679 8.679,-8.679c0,-0 0,-8.684 -8.679,-8.684c-7.587,0 -17.362,-9.77 -17.362,-19.529l-0,-225.696c-0,-8.679 -3.246,-13.02 -10.85,-13.02c-7.588,-0 -14.096,2.17 -20.609,2.17c-10.85,0 -13.02,0 -21.7,-2.17c-4.341,-0 -9.775,6.512 -13.02,10.85l-33.646,116.095" style="fill-rule:nonzero;"/></g><g><path d="M13118.4,311.425l0,-116.113c0,-5.416 -1.096,-9.758 -6.512,-9.758c-4.338,0 -7.605,1.079 -10.85,5.417l-32.55,62.937c-2.171,2.167 -5.434,5.434 -5.434,13.017l0,44.5l-70.521,-0c44.48,-36.892 113.921,-159.517 115.017,-166.025c0,-1.075 1.075,-2.171 1.075,-3.246c0,-4.342 -4.342,-7.604 -7.587,-7.604c-5.434,-0 -28.213,2.171 -37.984,2.171c-9.758,-0 -16.271,-2.171 -20.608,-2.171c-5.433,-0 -13.021,2.171 -13.021,10.85c0,69.446 -56.425,148.663 -70.537,168.196c-2.171,2.166 -4.342,5.416 -4.342,8.679c-0,5.417 4.342,10.85 10.85,10.85l97.658,-0l0,33.629c0,15.192 -8.683,19.529 -17.362,19.529c-9.759,0 -14.096,4.342 -14.096,9.775c-0,5.417 2.167,11.929 11.925,11.929l93.317,0c5.433,0 10.85,-4.341 10.85,-11.929c-0,-7.604 -6.509,-10.85 -11.925,-10.85c-5.438,0 -17.363,-3.262 -17.363,-20.625l0,-31.458l40.138,0c5.433,0 8.683,-4.342 8.683,-10.85c-0,-6.512 -2.171,-10.85 -8.683,-10.85l-40.138,0" style="fill-rule:nonzero;"/></g><g><path d="M14046.9,176.875l0,-116.113c0,-5.416 -1.092,-9.754 -6.508,-9.754c-4.342,0 -7.604,1.075 -10.85,5.417l-32.554,62.933c-2.171,2.171 -5.434,5.434 -5.434,13.021l0,44.496l-70.521,-0c44.48,-36.892 113.925,-159.513 115.017,-166.025c0,-1.075 1.079,-2.171 1.079,-3.246c0,-4.342 -4.341,-7.604 -7.587,-7.604c-5.434,-0 -28.213,2.171 -37.988,2.171c-9.758,-0 -16.266,-2.171 -20.608,-2.171c-5.433,-0 -13.021,2.171 -13.021,10.85c0,69.446 -56.421,148.663 -70.537,168.196c-2.171,2.171 -4.342,5.416 -4.342,8.679c-0,5.417 4.342,10.85 10.854,10.85l97.654,-0l0,33.629c0,15.192 -8.679,19.533 -17.362,19.533c-9.754,0 -14.096,4.338 -14.096,9.776c-0,5.416 2.171,11.924 11.929,11.924l93.313,0c5.437,0 10.854,-4.341 10.854,-11.925c-0,-7.604 -6.513,-10.854 -11.929,-10.854c-5.434,0 -17.363,-3.262 -17.363,-20.625l0,-31.458l40.142,0c5.433,0 8.679,-4.337 8.679,-10.85c-0,-6.508 -2.171,-10.85 -8.679,-10.85l-40.142,0" style="fill-rule:nonzero;"/></g><g><path d="M14975.4,311.425l0,-116.113c0,-5.416 -1.096,-9.758 -6.512,-9.758c-4.338,0 -7.605,1.079 -10.85,5.417l-32.55,62.937c-2.171,2.167 -5.434,5.434 -5.434,13.017l0,44.5l-70.521,-0c44.48,-36.892 113.921,-159.517 115.017,-166.025c0,-1.075 1.075,-2.171 1.075,-3.246c0,-4.342 -4.342,-7.604 -7.587,-7.604c-5.434,-0 -28.213,2.171 -37.984,2.171c-9.758,-0 -16.271,-2.171 -20.608,-2.171c-5.433,-0 -13.021,2.171 -13.021,10.85c0,69.446 -56.425,148.663 -70.537,168.196c-2.171,2.166 -4.342,5.416 -4.342,8.679c-0,5.417 4.342,10.85 10.85,10.85l97.658,-0l0,33.629c0,15.192 -8.683,19.529 -17.362,19.529c-9.759,0 -14.096,4.342 -14.096,9.775c-0,5.417 2.167,11.929 11.925,11.929l93.317,0c5.433,0 10.85,-4.341 10.85,-11.929c-0,-7.604 -6.509,-10.85 -11.925,-10.85c-5.438,0 -17.363,-3.262 -17.363,-20.625l0,-31.458l40.138,0c5.433,0 8.683,-4.342 8.683,-10.85c-0,-6.512 -2.171,-10.85 -8.683,-10.85l-40.138,0" style="fill-rule:nonzero;"/></g><g><path d="M15784,663.213c-0,-0 -1.092,4.341 -1.092,7.604c0,4.341 4.338,8.679 8.679,8.679c3.263,-0 5.434,-3.263 6.509,-4.338c1.095,-3.266 14.116,-47.746 20.625,-58.596c2.17,-4.341 4.341,-5.433 5.416,-5.433c2.171,0 3.267,4.342 3.267,7.604l-0,155.154c-0,13.021 -10.85,20.625 -21.704,20.625c-4.338,0 -9.771,2.171 -9.771,8.684c-0,6.508 5.433,8.679 14.112,8.679l91.146,-0c8.679,-0 8.679,-8.679 8.679,-8.679c0,-0 0,-8.684 -8.679,-8.684c-7.604,0 -17.362,-9.77 -17.362,-19.529l-0,-225.696c-0,-8.679 -3.263,-13.02 -10.85,-13.02c-7.604,-0 -14.113,2.17 -20.625,2.17c-10.85,0 -13.021,0 -21.7,-2.17c-4.342,-0 -9.759,6.512 -13.021,10.85l-33.629,116.095" style="fill-rule:nonzero;"/></g><g><path d="M16831.6,849.617l0,-116.109c0,-5.416 -1.079,-9.758 -6.512,-9.758c-4.338,0 -7.588,1.075 -10.85,5.417l-32.55,62.933c-2.171,2.171 -5.417,5.433 -5.417,13.021l-0,44.496l-70.521,-0c44.479,-36.892 113.921,-159.513 115,-166.021c0,-1.079 1.092,-2.171 1.092,-3.25c-0,-4.338 -4.342,-7.604 -7.604,-7.604c-5.417,-0 -28.213,2.171 -37.967,2.171c-9.775,-0 -16.288,-2.171 -20.625,-2.171c-5.417,-0 -13.021,2.171 -13.021,10.854c0,69.442 -56.408,148.662 -70.521,168.192c-2.171,2.17 -4.341,5.416 -4.341,8.683c-0,5.417 4.341,10.85 10.85,10.85l97.658,-0l-0,33.629c-0,15.188 -8.683,19.529 -17.363,19.529c-9.775,0 -14.116,4.342 -14.116,9.775c-0,5.417 2.171,11.925 11.946,11.925l93.316,0c5.417,0 10.85,-4.337 10.85,-11.925c0,-7.604 -6.508,-10.85 -11.946,-10.85c-5.416,0 -17.358,-3.266 -17.358,-20.625l0,-31.458l40.154,-0c5.417,-0 8.684,-4.342 8.684,-10.854c-0,-6.509 -2.171,-10.85 -8.684,-10.85l-40.154,-0" style="fill-rule:nonzero;"/></g><g><path d="M18087.4,1066.86c0,0 -1.092,4.342 -1.092,7.605c0,4.341 4.342,8.679 8.68,8.679c3.266,-0 5.433,-3.263 6.512,-4.338c1.092,-3.266 14.113,-47.746 20.625,-58.596c2.171,-4.341 4.338,-5.433 5.417,-5.433c2.171,0 3.262,4.342 3.262,7.604l0,155.154c0,13.021 -10.85,20.625 -21.7,20.625c-4.341,0 -9.775,2.171 -9.775,8.684c0,6.508 5.434,8.679 14.113,8.679l91.146,-0c8.683,-0 8.683,-8.679 8.683,-8.679c-0,-0 -0,-8.684 -8.683,-8.684c-7.605,0 -17.359,-9.771 -17.359,-19.529l0,-225.696c0,-8.679 -3.266,-13.021 -10.85,-13.021c-7.604,0 -14.116,2.171 -20.625,2.171c-10.854,0 -13.021,0 -21.704,-2.171c-4.337,0 -9.754,6.513 -13.021,10.85l-33.629,116.096" style="fill-rule:nonzero;"/></g><g><path d="M19135.9,1253.26l0,-116.109c0,-5.416 -1.075,-9.758 -6.508,-9.758c-4.342,-0 -7.587,1.075 -10.85,5.417l-32.554,62.933c-2.171,2.171 -5.417,5.433 -5.417,13.021l0,44.496l-70.537,-0c44.496,-36.892 113.941,-159.513 115.016,-166.021c0,-1.08 1.096,-2.171 1.096,-3.25c0,-4.338 -4.341,-7.604 -7.604,-7.604c-5.417,-0 -28.212,2.17 -37.971,2.17c-9.775,0 -16.283,-2.17 -20.625,-2.17c-5.416,-0 -13.021,2.17 -13.021,10.854c0,69.441 -56.42,148.662 -70.52,168.191c-2.171,2.171 -4.338,5.417 -4.338,8.684c0,5.416 4.338,10.85 10.85,10.85l97.654,-0l0,33.629c0,15.187 -8.679,19.529 -17.358,19.529c-9.775,0 -14.117,4.342 -14.117,9.775c0,5.417 2.171,11.925 11.946,11.925l93.317,0c5.416,0 10.85,-4.337 10.85,-11.925c-0,-7.604 -6.513,-10.85 -11.946,-10.85c-5.417,0 -17.363,-3.267 -17.363,-20.625l0,-31.458l40.159,-0c5.416,-0 8.679,-4.342 8.679,-10.854c-0,-6.509 -2.171,-10.85 -8.679,-10.85l-40.159,-0" style="fill-rule:nonzero;"/></g><g><path d="M19944.4,1202.5c0,0 -1.075,4.342 -1.075,7.588c0,4.337 4.338,8.679 8.68,8.679c3.245,-0 5.416,-3.246 6.512,-4.342c1.075,-3.246 14.096,-47.742 20.604,-58.592c2.171,-4.341 4.342,-5.416 5.438,-5.416c2.166,-0 3.246,4.341 3.246,7.587l-0,155.171c-0,13.021 -10.85,20.608 -21.705,20.608c-4.337,0 -9.754,2.171 -9.754,8.684c0,6.508 5.417,8.679 14.096,8.679l91.146,-0c8.679,-0 8.679,-8.679 8.679,-8.679c0,-0 0,-8.684 -8.679,-8.684c-7.588,0 -17.363,-9.754 -17.363,-19.529l0,-225.696c0,-8.679 -3.245,-13.02 -10.85,-13.02c-7.587,-0 -14.095,2.17 -20.608,2.17c-10.85,0 -13.021,0 -21.7,-2.17c-4.342,-0 -9.775,6.512 -13.021,10.85l-33.646,116.112" style="fill-rule:nonzero;"/></g><g><path d="M20992.9,1253.49l-0,-116.096c-0,-5.433 -1.092,-9.775 -6.509,-9.775c-4.341,-0 -7.604,1.096 -10.854,5.433l-32.55,62.938c-2.171,2.166 -5.433,5.416 -5.433,13.021l-0,44.479l-70.521,-0c44.479,-36.896 113.921,-159.5 115.017,-166.009c-0,-1.095 1.075,-2.17 1.075,-3.266c-0,-4.338 -4.338,-7.584 -7.588,-7.584c-5.433,0 -28.208,2.167 -37.983,2.167c-9.758,0 -16.267,-2.167 -20.608,-2.167c-5.434,0 -13.021,2.167 -13.021,10.85c-0,69.442 -56.425,148.646 -70.538,168.175c-2.171,2.171 -4.341,5.434 -4.341,8.684c-0,5.433 4.341,10.85 10.85,10.85l97.658,-0l-0,33.646c-0,15.191 -8.683,19.529 -17.363,19.529c-9.758,-0 -14.095,4.341 -14.095,9.758c-0,5.433 2.17,11.946 11.925,11.946l93.316,-0c5.434,-0 10.85,-4.342 10.85,-11.946c0,-7.587 -6.508,-10.85 -11.925,-10.85c-5.433,0 -17.362,-3.246 -17.362,-20.608l-0,-31.475l40.137,-0c5.438,-0 8.684,-4.342 8.684,-10.85c-0,-6.513 -2.171,-10.854 -8.684,-10.854l-40.137,-0" style="fill-rule:nonzero;"/></g><g><path d="M21801.4,1202.5c-0,0 -1.096,4.342 -1.096,7.588c-0,4.337 4.342,8.679 8.683,8.679c3.263,-0 5.434,-3.246 6.509,-4.342c1.095,-3.246 14.116,-47.742 20.625,-58.592c2.17,-4.341 4.341,-5.416 5.416,-5.416c2.171,-0 3.263,4.341 3.263,7.587l-0,155.171c-0,13.021 -10.85,20.608 -21.7,20.608c-4.342,0 -9.775,2.171 -9.775,8.684c-0,6.508 5.433,8.679 14.116,8.679l91.146,-0c8.679,-0 8.679,-8.679 8.679,-8.679c0,-0 0,-8.684 -8.679,-8.684c-7.604,0 -17.362,-9.754 -17.362,-19.529l-0,-225.696c-0,-8.679 -3.263,-13.02 -10.85,-13.02c-7.604,-0 -14.117,2.17 -20.625,2.17c-10.85,0 -13.021,0 -21.7,-2.17c-4.342,-0 -9.759,6.512 -13.021,10.85l-33.629,116.112" style="fill-rule:nonzero;"/></g><g><path d="M22849.8,1253.49l0,-116.096c0,-5.433 -1.079,-9.775 -6.512,-9.775c-4.338,-0 -7.588,1.096 -10.85,5.433l-32.55,62.938c-2.171,2.166 -5.417,5.416 -5.417,13.021l0,44.479l-70.541,-0c44.5,-36.896 113.941,-159.5 115.02,-166.009c0,-1.095 1.092,-2.17 1.092,-3.266c0,-4.338 -4.342,-7.584 -7.604,-7.584c-5.417,0 -28.213,2.167 -37.967,2.167c-9.775,0 -16.287,-2.167 -20.625,-2.167c-5.416,0 -13.021,2.167 -13.021,10.85c0,69.442 -56.425,148.646 -70.52,168.175c-2.171,2.171 -4.342,5.434 -4.342,8.684c-0,5.433 4.342,10.85 10.85,10.85l97.658,-0l0,33.646c0,15.191 -8.683,19.529 -17.362,19.529c-9.775,-0 -14.117,4.341 -14.117,9.758c0,5.433 2.171,11.946 11.946,11.946l93.317,-0c5.416,-0 10.85,-4.342 10.85,-11.946c-0,-7.587 -6.509,-10.85 -11.946,-10.85c-5.417,0 -17.359,-3.246 -17.359,-20.608l0,-31.475l40.155,-0c5.416,-0 8.683,-4.342 8.683,-10.85c-0,-6.513 -2.171,-10.854 -8.683,-10.854l-40.155,-0" style="fill-rule:nonzero;"/></g><g><path d="M23658.3,1202.5c0,0 -1.091,4.342 -1.091,7.588c-0,4.337 4.341,8.679 8.679,8.679c3.267,-0 5.433,-3.246 6.512,-4.342c1.092,-3.246 14.113,-47.742 20.625,-58.592c2.171,-4.341 4.338,-5.416 5.417,-5.416c2.171,-0 3.263,4.341 3.263,7.587l-0,155.171c-0,13.021 -10.85,20.608 -21.7,20.608c-4.342,0 -9.775,2.171 -9.775,8.684c-0,6.508 5.433,8.679 14.112,8.679l91.146,-0c8.683,-0 8.683,-8.679 8.683,-8.679c0,-0 0,-8.684 -8.683,-8.684c-7.604,0 -17.358,-9.754 -17.358,-19.529l-0,-225.696c-0,-8.679 -3.267,-13.02 -10.85,-13.02c-7.605,-0 -14.117,2.17 -20.625,2.17c-10.855,0 -13.021,0 -21.705,-2.17c-4.337,-0 -9.754,6.512 -13.02,10.85l-33.63,116.112" style="fill-rule:nonzero;"/></g><g><path d="M24706.9,1253.49l0,-116.096c0,-5.433 -1.091,-9.775 -6.508,-9.775c-4.342,-0 -7.604,1.096 -10.854,5.433l-32.55,62.938c-2.171,2.166 -5.433,5.416 -5.433,13.021l-0,44.479l-70.521,-0c44.479,-36.896 113.921,-159.5 115.016,-166.009c0,-1.095 1.075,-2.17 1.075,-3.266c0,-4.338 -4.337,-7.584 -7.587,-7.584c-5.433,0 -28.208,2.167 -37.983,2.167c-9.759,0 -16.267,-2.167 -20.609,-2.167c-5.433,0 -13.021,2.167 -13.021,10.85c0,69.442 -56.425,148.646 -70.537,168.175c-2.171,2.171 -4.342,5.434 -4.342,8.684c0,5.433 4.342,10.85 10.85,10.85l97.659,-0l-0,33.646c-0,15.191 -8.684,19.529 -17.363,19.529c-9.758,-0 -14.096,4.341 -14.096,9.758c0,5.433 2.171,11.946 11.925,11.946l93.317,-0c5.433,-0 10.85,-4.342 10.85,-11.946c-0,-7.587 -6.508,-10.85 -11.925,-10.85c-5.433,0 -17.363,-3.246 -17.363,-20.608l0,-31.475l40.138,-0c5.437,-0 8.683,-4.342 8.683,-10.85c0,-6.513 -2.171,-10.854 -8.683,-10.854l-40.138,-0" style="fill-rule:nonzero;"/></g><g><path d="M26031.6,1202.5c0,0 -1.096,4.342 -1.096,7.588c0,4.337 4.342,8.679 8.684,8.679c3.262,-0 5.433,-3.246 6.508,-4.342c1.096,-3.246 14.117,-47.742 20.625,-58.592c2.171,-4.341 4.342,-5.416 5.417,-5.416c2.17,-0 3.262,4.341 3.262,7.587l0,155.171c0,13.021 -10.85,20.608 -21.7,20.608c-4.342,0 -9.775,2.171 -9.775,8.684c0,6.508 5.433,8.679 14.117,8.679l91.146,-0c8.679,-0 8.679,-8.679 8.679,-8.679c-0,-0 -0,-8.684 -8.679,-8.684c-7.605,0 -17.363,-9.754 -17.363,-19.529l0,-225.696c0,-8.679 -3.262,-13.02 -10.85,-13.02c-7.604,-0 -14.117,2.17 -20.625,2.17c-10.85,0 -13.021,0 -21.7,-2.17c-4.342,-0 -9.758,6.512 -13.021,10.85l-33.629,116.112" style="fill-rule:nonzero;"/></g><g><path d="M2402.23,3606.65c142.137,0 258.246,115.017 258.246,257.171c-0,142.133 -116.109,258.246 -258.246,258.246c-142.15,-0 -258.246,-116.113 -258.246,-258.246c-0,-142.154 116.096,-257.171 258.246,-257.171m78.125,334.2c-0,48.838 -32.55,81.392 -77.046,81.392c-44.479,-0 -78.125,-34.725 -78.125,-83.563c-0,-47.741 32.55,-79.2 80.292,-79.2c45.575,0 74.879,30.384 74.879,81.371m48.821,-3.246c-0,-71.612 -48.821,-120.45 -118.263,-120.45c-37.987,0 -67.275,15.192 -87.9,43.4c0,-94.391 30.379,-146.475 85.729,-146.475c33.629,0 56.421,21.704 64.009,58.596l47.745,0c-8.683,-62.933 -49.916,-100.921 -108.508,-100.921c-90.054,0 -137.796,75.954 -137.796,209.425c0,120.438 41.234,183.371 129.117,183.371c72.708,-0 125.867,-52.083 125.867,-126.946m-126.946,219.183c161.666,0.001 292.971,-131.3 292.971,-292.966c-0,-161.684 -131.305,-291.892 -292.971,-291.892c-161.684,0 -292.967,130.208 -292.967,291.892c0,161.666 131.283,292.967 292.967,292.967" style="fill-rule:nonzero;"/></g><g><path d="M4258.36,3444.6c142.154,0 258.246,115.017 258.246,257.171c-0,142.133 -116.092,258.246 -258.246,258.246c-142.134,-0 -258.246,-116.109 -258.246,-258.246c-0,-142.154 116.112,-257.171 258.246,-257.171m125.866,326.617c0,-75.955 -50.987,-125.871 -124.77,-125.871c-27.138,-0 -48.838,6.512 -70.542,22.779l15.192,-98.733l159.516,-0l0,-47.742l-198.579,0l-28.212,201.821l43.404,-0c22.796,-27.133 41.233,-35.817 70.537,-35.817c52.084,0 84.638,32.554 84.638,90.071c-0,55.329 -32.554,86.808 -84.638,86.808c-41.233,0 -67.275,-21.704 -78.125,-65.104l-47.741,0c15.191,77.029 58.591,107.413 126.945,107.413c78.125,-0 132.375,-54.254 132.375,-135.625m-125.866,223.525c161.683,-0 292.971,-131.304 292.971,-292.971c-0,-161.683 -131.288,-291.892 -292.971,-291.892c-161.667,0 -292.967,130.209 -292.967,291.892c0,161.667 131.3,292.971 292.967,292.971" style="fill-rule:nonzero;"/></g><g><path d="M6008.19,3673.58l120.433,-168.192l0,168.192l-120.433,0m107.413,-314.667c142.15,0 258.245,115.017 258.245,257.15c0,142.154 -116.095,258.246 -258.245,258.246c-142.138,0 -258.23,-116.092 -258.23,-258.246c0,-142.133 116.092,-257.15 258.23,-257.15m117.187,314.667l-56.425,0l0,-249.563l-35.8,0.001l-174.687,241.958l-0,51.008l162.745,0l0,92.221l47.742,0l0,-92.221l56.425,0l0,-43.404m-117.187,235.454c161.683,0 292.966,-131.287 292.966,-292.971c0,-161.666 -131.283,-291.875 -292.966,-291.875c-161.667,0 -292.955,130.209 -292.955,291.875c0,161.684 131.288,292.971 292.955,292.971" style="fill-rule:nonzero;"/></g><g><path d="M7972.4,3090.82c142.15,-0 258.246,115.016 258.246,257.154c0,142.15 -116.096,258.246 -258.246,258.246c-142.137,-0 -258.245,-116.096 -258.245,-258.246c-0,-142.138 116.108,-257.154 258.245,-257.154m0,550.121c161.684,-0 292.967,-131.284 292.967,-292.967c0,-161.667 -131.283,-291.875 -292.967,-291.875c-161.666,-0 -292.97,130.208 -292.97,291.875c-0,161.683 131.304,292.967 292.97,292.967m129.13,-213.75c-0,-46.667 -19.53,-73.784 -65.105,-90.071c35.8,-14.096 53.163,-39.063 53.163,-77.029c-0,-66.2 -43.404,-106.338 -117.188,-106.338c-77.033,0 -118.266,42.308 -120.433,124.775l47.742,0c1.075,-57.5 24.946,-82.467 73.783,-82.467c42.308,0 67.275,24.967 67.275,65.105c0,41.233 -17.362,58.595 -94.408,58.595l-0,40.155l26.041,-0c53.175,-0 80.296,24.95 80.296,67.275c0,48.82 -30.383,77.033 -80.296,77.033c-52.083,-0 -77.033,-26.042 -80.295,-81.375l-47.742,-0c5.433,85.712 47.742,123.7 126.958,123.7c79.204,-0 130.209,-46.667 130.209,-119.358" style="fill-rule:nonzero;"/></g><g><path d="M10275.8,2798.28c142.155,0 258.246,115.017 258.246,257.15c0,142.155 -116.091,258.246 -258.246,258.246c-142.133,0 -258.245,-116.091 -258.245,-258.246c-0,-142.133 116.112,-257.15 258.245,-257.15m0,550.121c161.684,0 292.971,-131.287 292.971,-292.971c0,-161.666 -131.287,-291.875 -292.971,-291.875c-161.666,0 -292.966,130.209 -292.966,291.875c-0,161.684 131.3,292.971 292.966,292.971m129.134,-388.454c-0,-65.104 -49.913,-112.85 -122.621,-112.85c-79.204,0 -124.775,40.158 -126.946,133.475l47.742,0c3.25,-64.029 30.383,-91.146 77.033,-91.146c43.404,0 75.954,30.379 75.954,71.613c0,30.383 -17.362,56.425 -52.083,75.954l-49.913,28.212c-80.295,45.575 -103.075,82.467 -107.412,167.1l256.075,0l-0,-47.741l-202.917,-0c5.434,-31.475 22.796,-51.009 69.446,-79.221l54.254,-29.288c54.25,-28.212 81.388,-68.366 81.388,-116.108" style="fill-rule:nonzero;"/></g><g><path d="M12132.3,2798.28c142.134,0 258.246,115.017 258.246,257.15c0,142.155 -116.112,258.246 -258.246,258.246c-142.154,0 -258.245,-116.091 -258.245,-258.246c-0,-142.133 116.091,-257.15 258.245,-257.15m32.55,74.859l-31.475,-0c-16.266,59.687 -27.116,67.275 -100.904,77.05l0,33.629l84.638,-0l-0,274.529l47.741,0l0,-385.208m-32.55,475.262c161.667,0 292.967,-131.287 292.967,-292.971c0,-161.666 -131.3,-291.875 -292.967,-291.875c-161.683,0 -292.97,130.209 -292.97,291.875c-0,161.684 131.287,292.971 292.97,292.971" style="fill-rule:nonzero;"/></g><g><path d="M16773.9,2798.28c142.138,0 258.25,115.017 258.25,257.15c0,142.155 -116.112,258.246 -258.25,258.246c-142.15,0 -258.245,-116.091 -258.245,-258.246c-0,-142.133 116.095,-257.15 258.245,-257.15m0,550.121c161.667,0 292.971,-131.287 292.971,-292.971c0,-161.666 -131.304,-291.875 -292.971,-291.875c-161.683,0 -292.966,130.209 -292.966,291.875c-0,161.684 131.283,292.971 292.966,292.971m129.117,-388.454c0,-65.104 -49.912,-112.85 -122.604,-112.85c-79.221,0 -124.792,40.158 -126.963,133.475l47.742,0c3.267,-64.029 30.383,-91.146 77.05,-91.146c43.404,0 75.954,30.379 75.954,71.613c0,30.383 -17.358,56.425 -52.083,75.954l-49.913,28.212c-80.295,45.575 -103.091,82.467 -107.429,167.1l256.075,0l0,-47.741l-202.9,-0c5.417,-31.475 22.779,-51.009 69.446,-79.221l54.254,-29.288c54.254,-28.212 81.371,-68.366 81.371,-116.108" style="fill-rule:nonzero;"/></g><g><path d="M19078.1,2964.15c142.154,0 258.25,115.017 258.25,257.171c0,142.133 -116.096,258.246 -258.25,258.246c-142.133,-0 -258.229,-116.113 -258.229,-258.246c-0,-142.154 116.096,-257.171 258.229,-257.171m0,550.138c161.688,-0 292.971,-131.301 292.971,-292.967c-0,-161.683 -131.283,-291.892 -292.971,-291.892c-161.667,0 -292.95,130.209 -292.95,291.892c0,161.666 131.283,292.967 292.95,292.967m129.133,-213.767c0,-46.65 -19.529,-73.784 -65.104,-90.054c35.8,-14.113 53.159,-39.063 53.159,-77.046c-0,-66.184 -43.4,-106.338 -117.188,-106.338c-77.029,0 -118.262,42.325 -120.433,124.792l47.746,0c1.075,-57.517 24.945,-82.467 73.783,-82.467c42.308,0 67.275,24.95 67.275,65.105c-0,41.233 -17.363,58.595 -94.413,58.595l0,40.138l26.042,-0c53.179,-0 80.296,24.967 80.296,67.275c-0,48.837 -30.379,77.05 -80.296,77.05c-52.083,-0 -77.029,-26.042 -80.292,-81.392l-47.745,0c5.433,85.729 47.745,123.7 126.962,123.7c79.2,0 130.208,-46.65 130.208,-119.358" style="fill-rule:nonzero;"/></g><g><path d="M20827.9,3450.3l120.434,-168.179l-0,168.179l-120.434,-0m107.413,-314.671c142.154,0 258.246,115.017 258.246,257.171c-0,142.133 -116.092,258.246 -258.246,258.246c-142.138,-0 -258.246,-116.113 -258.246,-258.246c0,-142.154 116.108,-257.171 258.246,-257.171m117.187,314.671l-56.425,-0l0,-249.567l-35.795,0l-174.709,241.979l0,50.988l162.763,-0l-0,92.242l47.741,-0l0,-92.242l56.425,-0l0,-43.4m-117.187,235.467c161.683,-0 292.967,-131.3 292.967,-292.967c-0,-161.683 -131.284,-291.892 -292.967,-291.892c-161.667,0 -292.971,130.209 -292.971,291.892c0,161.667 131.304,292.967 292.971,292.967" style="fill-rule:nonzero;"/></g><g><path d="M22792.1,2799.36c142.155,0 258.25,115.017 258.25,257.171c0,142.133 -116.095,258.246 -258.25,258.246c-142.133,0 -258.245,-116.112 -258.245,-258.246c-0,-142.154 116.112,-257.171 258.245,-257.171m125.871,326.613c0,-75.954 -50.991,-125.867 -124.775,-125.867c-27.137,0 -48.837,6.513 -70.537,22.779l15.191,-98.733l159.513,0l-0,-47.742l-198.575,0l-28.213,201.821l43.4,0c22.796,-27.133 41.234,-35.816 70.542,-35.816c52.083,-0 84.633,32.554 84.633,90.07c0,55.33 -32.55,86.805 -84.633,86.805c-41.233,-0 -67.275,-21.7 -78.125,-65.105l-47.746,0c15.192,77.034 58.596,107.413 126.946,107.413c78.125,-0 132.379,-54.25 132.379,-135.625m-125.871,223.525c161.688,-0 292.971,-131.3 292.971,-292.967c0,-161.683 -131.283,-291.891 -292.971,-291.891c-161.666,-0 -292.966,130.208 -292.966,291.891c-0,161.667 131.3,292.967 292.966,292.967" style="fill-rule:nonzero;"/></g><g><path d="M24649.1,3337.55c142.137,0 258.246,115.017 258.246,257.167c-0,142.137 -116.109,258.246 -258.246,258.246c-142.154,-0 -258.246,-116.109 -258.246,-258.246c-0,-142.15 116.092,-257.171 258.246,-257.171m78.125,334.204c-0,48.838 -32.55,81.388 -77.05,81.388c-44.479,-0 -78.125,-34.721 -78.125,-83.559c-0,-47.741 32.554,-79.2 80.296,-79.2c45.575,0 74.879,30.38 74.879,81.371m48.821,-3.246c-0,-71.616 -48.821,-120.454 -118.267,-120.454c-37.983,0 -67.271,15.192 -87.896,43.404c0,-94.391 30.379,-146.475 85.729,-146.475c33.625,0 56.421,21.7 64.009,58.592l47.741,0c-8.679,-62.933 -49.912,-100.921 -108.504,-100.921c-90.054,0 -137.796,75.959 -137.796,209.429c0,120.434 41.234,183.367 129.113,183.367c72.708,0 125.871,-52.083 125.871,-126.942m-126.946,219.184c161.666,-0 292.971,-131.305 292.971,-292.971c-0,-161.683 -131.305,-291.892 -292.971,-291.892c-161.684,0 -292.967,130.209 -292.967,291.892c0,161.666 131.283,292.971 292.967,292.971" style="fill-rule:nonzero;"/></g><g><path d="M2347.39,3505.02c96.579,-0 214.842,-88.975 214.842,-181.213c-0,-55.333 -43.4,-90.054 -105.242,-90.054c-119.358,0 -214.846,87.883 -214.846,181.2c0,56.421 46.65,90.067 105.246,90.067" style="fill-rule:nonzero;"/></g><g><path d="M3275.89,3235.92c96.563,-0 214.846,-88.975 214.846,-181.217c0,-55.329 -43.404,-90.05 -105.262,-90.05c-119.355,0 -214.842,87.879 -214.842,181.196c-0,56.425 46.667,90.071 105.258,90.071" style="fill-rule:nonzero;"/></g><g><path d="M3943.33,3014.57c-6.513,21.7 -57.517,43.404 -82.467,43.404c-6.508,-0 -11.946,-2.171 -13.021,-5.438c-2.171,-4.337 -3.262,-28.208 -3.262,-54.25c-0,-33.629 1.091,-71.616 3.262,-80.295c2.171,-18.438 52.083,-41.234 79.2,-41.234c7.604,0 14.117,2.171 16.288,6.509c2.17,5.433 4.337,32.554 4.337,61.858c0,29.287 -2.167,59.671 -4.337,69.446m74.858,-176.875c7.604,-3.246 13.021,-11.929 13.021,-18.438l-0,-77.05c-0,-5.416 -3.246,-8.679 -7.584,-8.679c-2.17,0 -3.266,0 -5.437,1.092c-0,-0 -21.7,8.683 -27.117,9.758c-7.604,0 -15.191,-5.417 -15.191,-14.096l-0,-132.379c-0,-6.512 -6.509,-11.946 -15.192,-11.946c-10.85,0 -17.358,5.434 -17.358,11.946l-0,141.058c-1.096,10.85 -4.342,24.946 -14.117,31.459c-13.021,7.604 -49.913,22.796 -68.35,27.133c-9.775,0 -13.021,-13.021 -13.021,-21.7l0,-130.208c0,-6.509 -7.604,-11.946 -15.192,-11.946c-10.85,-0 -17.358,5.437 -17.358,11.946l0,146.475c0,15.191 -6.512,26.041 -13.021,29.308c-6.512,3.246 -28.212,11.925 -28.212,11.925c-7.604,2.171 -13.021,10.85 -13.021,17.363l-0,77.045c-0,6.513 3.246,9.759 8.679,9.759c4.342,-0 24.95,-9.759 28.213,-11.925c1.075,-0 2.17,-1.096 3.245,-1.096c7.605,-0 14.117,10.85 14.117,19.533l0,107.429c0,11.925 -5.437,21.7 -11.946,24.946c-6.512,2.171 -29.287,11.946 -29.287,11.946c-7.604,2.171 -13.021,10.85 -13.021,17.363l-0,77.029c-0,6.512 3.246,9.775 8.679,9.775c1.075,-0 3.246,-1.092 4.342,-1.092c-0,0 15.191,-6.512 24.946,-9.758c1.095,-1.096 2.17,-1.096 3.266,-1.096c7.584,-0 13.021,11.946 13.021,17.362l0,133.471c0,6.513 6.508,11.929 14.096,11.929c10.85,0 18.454,-5.416 18.454,-11.929l0,-150.833c0,-14.096 5.417,-21.7 10.85,-23.871l66.183,-27.117c1.092,0 3.263,-1.091 4.338,-1.091c8.683,-0 14.117,13.021 14.117,19.529l-0,135.642c-0,6.512 6.508,11.929 14.095,11.929c11.946,-0 18.455,-5.417 18.455,-11.929l-0,-154.08c-0,-8.679 4.341,-21.7 11.929,-24.966c7.604,-3.246 30.379,-11.925 30.379,-11.925c7.604,-3.267 13.021,-11.946 13.021,-18.454l-0,-77.034c-0,-5.433 -3.246,-8.679 -7.584,-8.679c-2.17,0 -3.266,0 -5.437,1.075l-28.208,10.85c-6.513,0 -14.1,-6.508 -14.1,-19.529l-0,-100.904c-0,-7.604 5.416,-28.213 14.1,-31.475l28.208,-10.85" style="fill-rule:nonzero;"/></g><g><path d="M4203.56,3101.37c96.579,-0 214.846,-88.975 214.846,-181.213c-0,-55.333 -43.404,-90.054 -105.246,-90.054c-119.358,0 -214.842,87.883 -214.842,181.2c0,56.421 46.65,90.067 105.242,90.067" style="fill-rule:nonzero;"/></g><g><path d="M5132.06,2697.72c96.579,0 214.842,-88.975 214.842,-181.213c-0,-55.333 -43.404,-90.054 -105.242,-90.054c-119.358,0 -214.846,87.884 -214.846,181.2c0,56.421 46.65,90.067 105.246,90.067" style="fill-rule:nonzero;"/></g><g><path d="M6060.56,2563.18c96.563,0 214.846,-88.979 214.846,-181.216c-0,-55.33 -43.404,-90.055 -105.263,-90.055c-119.358,0 -214.841,87.884 -214.841,181.2c-0,56.425 46.666,90.071 105.258,90.071" style="fill-rule:nonzero;"/></g><g><path d="M6989.06,2294.08c96.563,0 214.842,-88.975 214.842,-181.212c-0,-55.334 -43.4,-90.055 -105.259,-90.055c-119.358,0 -214.845,87.884 -214.845,181.2c-0,56.421 46.666,90.067 105.262,90.067" style="fill-rule:nonzero;"/></g><g><path d="M7657.36,2072.72c-6.509,21.704 -57.517,43.404 -82.463,43.404c-6.512,0 -11.946,-2.171 -13.021,-5.433c-2.17,-4.342 -3.266,-28.213 -3.266,-54.254c-0,-33.63 1.096,-71.617 3.266,-80.296c2.171,-18.438 52.084,-41.234 79.2,-41.234c7.605,0 14.117,2.171 16.284,6.513c2.171,5.433 4.341,32.55 4.341,61.858c0,29.288 -2.17,59.667 -4.341,69.442m74.862,-176.875c7.604,-3.246 13.021,-11.925 13.021,-18.438l0,-77.045c0,-5.417 -3.246,-8.684 -7.587,-8.684c-2.171,0 -3.263,0 -5.434,1.096c0,0 -21.7,8.679 -27.116,9.754c-7.605,0 -15.192,-5.416 -15.192,-14.095l-0,-132.38c-0,-6.508 -6.513,-11.941 -15.192,-11.941c-10.85,-0 -17.362,5.433 -17.362,11.941l-0,141.059c-1.092,10.854 -4.338,24.95 -14.113,31.458c-13.021,7.604 -49.912,22.796 -68.35,27.138c-9.775,-0 -13.021,-13.021 -13.021,-21.7l0,-130.209c0,-6.512 -7.604,-11.946 -15.191,-11.946c-10.85,0 -17.363,5.434 -17.363,11.946l0,146.475c0,15.192 -6.508,26.042 -13.021,29.304c-6.508,3.246 -28.212,11.93 -28.212,11.93c-7.604,2.166 -13.021,10.85 -13.021,17.358l0,77.05c0,6.508 3.25,9.758 8.683,9.758c4.338,0 24.946,-9.758 28.213,-11.929c1.075,0 2.167,-1.092 3.246,-1.092c7.604,0 14.112,10.85 14.112,19.53l0,107.429c0,11.929 -5.433,21.704 -11.941,24.95c-6.513,2.171 -29.292,11.946 -29.292,11.946c-7.604,2.166 -13.021,10.85 -13.021,17.358l0,77.033c0,6.509 3.25,9.775 8.683,9.775c1.075,0 3.246,-1.096 4.338,-1.096c-0,0 15.192,-6.508 24.95,-9.758c1.092,-1.092 2.171,-1.092 3.262,-1.092c7.588,0 13.021,11.946 13.021,17.363l0,133.471c0,6.508 6.513,11.925 14.1,11.925c10.85,-0 18.454,-5.417 18.454,-11.925l0,-150.834c0,-14.095 5.417,-21.7 10.85,-23.87l66.18,-27.121c1.095,-0 3.266,-1.092 4.341,-1.092c8.679,0 14.113,13.021 14.113,19.529l-0,135.646c-0,6.508 6.512,11.925 14.1,11.925c11.941,0 18.454,-5.417 18.454,-11.925l-0,-154.083c-0,-8.679 4.342,-21.7 11.925,-24.963c7.604,-3.246 30.383,-11.929 30.383,-11.929c7.604,-3.262 13.021,-11.942 13.021,-18.454l0,-77.029c0,-5.438 -3.246,-8.684 -7.587,-8.684c-2.171,0 -3.263,0 -5.434,1.08l-28.212,10.85c-6.509,-0 -14.096,-6.513 -14.096,-19.534l-0,-100.9c-0,-7.604 5.417,-28.212 14.096,-31.479l28.212,-10.85" style="fill-rule:nonzero;"/></g><g><path d="M7917.52,2159.53c96.58,0 214.846,-88.979 214.846,-181.216c0,-55.329 -43.404,-90.054 -105.246,-90.054c-119.354,-0 -214.841,87.883 -214.841,181.2c-0,56.425 46.65,90.07 105.241,90.07" style="fill-rule:nonzero;"/></g><g><path d="M8845.23,1755.89c96.579,-0 214.841,-88.98 214.841,-181.217c0,-55.329 -43.4,-90.054 -105.241,-90.054c-119.359,-0 -214.842,87.883 -214.842,181.2c0,56.425 46.646,90.071 105.242,90.071" style="fill-rule:nonzero;"/></g><g><path d="M10220.9,1621.34c96.563,-0 214.842,-88.975 214.842,-181.217c-0,-55.329 -43.4,-90.05 -105.259,-90.05c-119.358,-0 -214.845,87.879 -214.845,181.196c-0,56.425 46.666,90.071 105.262,90.071" style="fill-rule:nonzero;"/></g><g><path d="M11149.5,1352.24c96.579,-0 214.841,-88.979 214.841,-181.217c0,-55.329 -43.4,-90.054 -105.241,-90.054c-119.359,-0 -214.846,87.883 -214.846,181.2c-0,56.425 46.65,90.071 105.246,90.071" style="fill-rule:nonzero;"/></g><g><path d="M11817.2,1130.89c-6.512,21.7 -57.517,43.4 -82.467,43.4c-6.508,-0 -11.945,-2.171 -13.02,-5.434c-2.171,-4.341 -3.263,-28.212 -3.263,-54.254c0,-33.629 1.092,-71.612 3.263,-80.296c2.17,-18.437 52.083,-41.229 79.2,-41.229c7.604,0 14.116,2.167 16.287,6.508c2.171,5.434 4.338,32.554 4.338,61.859c-0,29.287 -2.167,59.671 -4.338,69.446m74.858,-176.875c7.605,-3.25 13.021,-11.93 13.021,-18.438l0,-77.05c0,-5.417 -3.246,-8.679 -7.583,-8.679c-2.171,-0 -3.267,-0 -5.438,1.092c0,-0 -21.7,8.679 -27.116,9.758c-7.604,-0 -15.192,-5.417 -15.192,-14.1l0,-132.379c0,-6.509 -6.508,-11.942 -15.192,-11.942c-10.85,0 -17.358,5.433 -17.358,11.946l0,141.058c-1.096,10.85 -4.342,24.946 -14.117,31.459c-13.02,7.604 -49.912,22.795 -68.35,27.133c-9.775,-0 -13.02,-13.021 -13.02,-21.7l-0,-130.208c-0,-6.513 -7.605,-11.946 -15.192,-11.946c-10.85,-0 -17.358,5.433 -17.358,11.946l-0,146.475c-0,15.191 -6.513,26.041 -13.021,29.304c-6.513,3.25 -28.213,11.929 -28.213,11.929c-7.604,2.171 -13.021,10.85 -13.021,17.362l0,77.046c0,6.513 3.246,9.759 8.68,9.759c4.341,-0 24.95,-9.759 28.212,-11.93c1.075,0 2.171,-1.091 3.246,-1.091c7.604,-0 14.117,10.85 14.117,19.529l-0,107.433c-0,11.925 -5.438,21.7 -11.946,24.946c-6.513,2.171 -29.288,11.946 -29.288,11.946c-7.604,2.171 -13.021,10.85 -13.021,17.358l0,77.034c0,6.508 3.246,9.775 8.68,9.775c1.075,-0 3.245,-1.096 4.341,-1.096c0,-0 15.192,-6.509 24.946,-9.754c1.096,-1.096 2.171,-1.096 3.267,-1.096c7.583,-0 13.021,11.946 13.021,17.362l-0,133.471c-0,6.513 6.508,11.929 14.095,11.929c10.85,0 18.455,-5.416 18.455,-11.929l-0,-150.833c-0,-14.096 5.416,-21.7 10.85,-23.871l66.183,-27.117c1.092,0 3.262,-1.096 4.337,-1.096c8.684,0 14.117,13.021 14.117,19.534l0,135.641c0,6.509 6.508,11.925 14.096,11.925c11.946,0 18.454,-5.416 18.454,-11.925l0,-154.079c0,-8.683 4.342,-21.704 11.929,-24.966c7.604,-3.246 30.379,-11.93 30.379,-11.93c7.605,-3.262 13.021,-11.941 13.021,-18.454l0,-77.029c0,-5.433 -3.246,-8.683 -7.583,-8.683c-2.171,-0 -3.267,-0 -5.438,1.079l-28.208,10.85c-6.512,-0 -14.1,-6.513 -14.1,-19.533l0,-100.9c0,-7.605 5.417,-28.213 14.1,-31.475l28.208,-10.855" style="fill-rule:nonzero;"/></g><g><path d="M12077.4,1217.69c96.579,-0 214.846,-88.975 214.846,-181.217c-0,-55.329 -43.404,-90.05 -105.246,-90.05c-119.358,0 -214.842,87.879 -214.842,181.196c0,56.425 46.65,90.071 105.242,90.071" style="fill-rule:nonzero;"/></g><g><path d="M13005.9,814.046c96.58,-0 214.842,-88.975 214.842,-181.217c0,-55.329 -43.404,-90.05 -105.242,-90.05c-119.358,0 -214.845,87.879 -214.845,181.196c-0,56.425 46.65,90.071 105.245,90.071" style="fill-rule:nonzero;"/></g><g><path d="M13934.4,679.496c96.563,-0 214.846,-88.975 214.846,-181.213c-0,-55.333 -43.404,-90.054 -105.263,-90.054c-119.358,0 -214.841,87.884 -214.841,181.2c-0,56.421 46.666,90.067 105.258,90.067" style="fill-rule:nonzero;"/></g><g><path d="M14862.9,814.046c96.563,-0 214.842,-88.975 214.842,-181.217c0,-55.329 -43.4,-90.05 -105.258,-90.05c-119.359,0 -214.846,87.879 -214.846,181.196c-0,56.425 46.667,90.071 105.262,90.071" style="fill-rule:nonzero;"/></g><g><path d="M15791.4,1217.69c96.563,-0 214.842,-88.975 214.842,-181.217c-0,-55.329 -43.4,-90.05 -105.259,-90.05c-119.358,0 -214.845,87.879 -214.845,181.196c-0,56.425 46.666,90.071 105.262,90.071" style="fill-rule:nonzero;"/></g><g><path d="M16719.1,1352.24c96.579,-0 214.842,-88.979 214.842,-181.217c-0,-55.329 -43.4,-90.054 -105.242,-90.054c-119.358,-0 -214.846,87.883 -214.846,181.2c0,56.425 46.65,90.071 105.246,90.071" style="fill-rule:nonzero;"/></g><g><path d="M18094.9,1621.34c96.563,-0 214.846,-88.975 214.846,-181.217c-0,-55.329 -43.404,-90.05 -105.263,-90.05c-119.358,-0 -214.841,87.879 -214.841,181.196c-0,56.425 46.666,90.071 105.258,90.071" style="fill-rule:nonzero;"/></g><g><path d="M19023.4,1755.89c96.584,-0 214.846,-88.98 214.846,-181.217c0,-55.329 -43.404,-90.054 -105.241,-90.054c-119.359,-0 -214.846,87.883 -214.846,181.2c-0,56.425 46.65,90.071 105.241,90.071" style="fill-rule:nonzero;"/></g><g><path d="M19691.6,2072.72c-6.509,21.704 -57.517,43.404 -82.463,43.404c-6.512,0 -11.946,-2.171 -13.021,-5.433c-2.17,-4.342 -3.266,-28.213 -3.266,-54.254c-0,-33.63 1.096,-71.617 3.266,-80.296c2.171,-18.438 52.084,-41.234 79.2,-41.234c7.605,0 14.117,2.171 16.284,6.513c2.171,5.433 4.341,32.55 4.341,61.858c0,29.288 -2.17,59.667 -4.341,69.442m74.862,-176.875c7.604,-3.246 13.021,-11.925 13.021,-18.438l0,-77.045c0,-5.417 -3.246,-8.684 -7.587,-8.684c-2.171,0 -3.263,0 -5.434,1.096c0,0 -21.7,8.679 -27.116,9.754c-7.605,0 -15.192,-5.416 -15.192,-14.095l-0,-132.38c-0,-6.508 -6.513,-11.941 -15.192,-11.941c-10.85,-0 -17.362,5.433 -17.362,11.941l-0,141.059c-1.092,10.854 -4.338,24.95 -14.113,31.458c-13.021,7.604 -49.912,22.796 -68.35,27.138c-9.775,-0 -13.021,-13.021 -13.021,-21.7l0,-130.209c0,-6.512 -7.604,-11.946 -15.191,-11.946c-10.85,0 -17.363,5.434 -17.363,11.946l0,146.475c0,15.192 -6.508,26.042 -13.021,29.304c-6.508,3.246 -28.212,11.93 -28.212,11.93c-7.604,2.166 -13.021,10.85 -13.021,17.358l0,77.05c0,6.508 3.25,9.758 8.683,9.758c4.338,0 24.946,-9.758 28.213,-11.929c1.075,0 2.167,-1.092 3.246,-1.092c7.604,0 14.112,10.85 14.112,19.53l0,107.429c0,11.929 -5.433,21.704 -11.941,24.95c-6.513,2.171 -29.292,11.946 -29.292,11.946c-7.604,2.166 -13.021,10.85 -13.021,17.358l0,77.033c0,6.509 3.25,9.775 8.683,9.775c1.075,0 3.246,-1.096 4.338,-1.096c-0,0 15.192,-6.508 24.95,-9.758c1.092,-1.092 2.171,-1.092 3.262,-1.092c7.588,0 13.021,11.946 13.021,17.363l0,133.471c0,6.508 6.513,11.925 14.1,11.925c10.85,-0 18.454,-5.417 18.454,-11.925l0,-150.834c0,-14.095 5.417,-21.7 10.85,-23.87l66.18,-27.121c1.095,-0 3.266,-1.092 4.341,-1.092c8.679,0 14.113,13.021 14.113,19.529l-0,135.646c-0,6.508 6.512,11.925 14.1,11.925c11.941,0 18.454,-5.417 18.454,-11.925l-0,-154.083c-0,-8.679 4.342,-21.7 11.925,-24.963c7.604,-3.246 30.383,-11.929 30.383,-11.929c7.604,-3.262 13.021,-11.942 13.021,-18.454l0,-77.029c0,-5.438 -3.246,-8.684 -7.587,-8.684c-2.171,0 -3.263,0 -5.434,1.08l-28.212,10.85c-6.509,-0 -14.096,-6.513 -14.096,-19.534l-0,-100.9c-0,-7.604 5.417,-28.212 14.096,-31.479l28.212,-10.85" style="fill-rule:nonzero;"/></g><g><path d="M19951.9,2159.53c96.579,0 214.841,-88.979 214.841,-181.216c0,-55.329 -43.4,-90.054 -105.241,-90.054c-119.359,-0 -214.846,87.883 -214.846,181.2c-0,56.425 46.65,90.07 105.246,90.07" style="fill-rule:nonzero;"/></g><g><path d="M20880.4,2294.08c96.562,0 214.825,-88.975 214.825,-181.212c-0,-55.334 -43.4,-90.055 -105.242,-90.055c-119.358,0 -214.842,87.884 -214.842,181.2c0,56.421 46.667,90.067 105.259,90.067" style="fill-rule:nonzero;"/></g><g><path d="M21808.8,2563.18c96.563,0 214.846,-88.979 214.846,-181.216c-0,-55.33 -43.404,-90.055 -105.263,-90.055c-119.354,0 -214.841,87.884 -214.841,181.2c-0,56.425 46.666,90.071 105.258,90.071" style="fill-rule:nonzero;"/></g><g><path d="M22737.3,2697.72c96.563,0 214.842,-88.975 214.842,-181.213c0,-55.333 -43.4,-90.054 -105.258,-90.054c-119.359,0 -214.846,87.884 -214.846,181.2c-0,56.421 46.667,90.067 105.262,90.067" style="fill-rule:nonzero;"/></g><g><path d="M23405.5,3014.57c-6.512,21.7 -57.516,43.404 -82.466,43.404c-6.509,-0 -11.946,-2.171 -13.021,-5.438c-2.171,-4.337 -3.263,-28.208 -3.263,-54.25c0,-33.629 1.092,-71.616 3.263,-80.295c2.171,-18.438 52.083,-41.234 79.2,-41.234c7.604,0 14.117,2.171 16.287,6.509c2.171,5.433 4.338,32.554 4.338,61.858c-0,29.287 -2.167,59.671 -4.338,69.446m74.859,-176.875c7.604,-3.246 13.021,-11.929 13.021,-18.438l-0,-77.05c-0,-5.416 -3.246,-8.679 -7.584,-8.679c-2.171,0 -3.266,0 -5.437,1.092c-0,-0 -21.7,8.683 -27.117,9.758c-7.604,0 -15.192,-5.417 -15.192,-14.096l0,-132.379c0,-6.512 -6.508,-11.946 -15.191,-11.946c-10.85,0 -17.359,5.434 -17.359,11.946l0,141.058c-1.095,10.85 -4.341,24.946 -14.116,31.459c-13.021,7.604 -49.913,22.796 -68.35,27.133c-9.775,0 -13.021,-13.021 -13.021,-21.7l-0,-130.208c-0,-6.509 -7.604,-11.946 -15.192,-11.946c-10.85,-0 -17.358,5.437 -17.358,11.946l-0,146.475c-0,15.191 -6.513,26.041 -13.021,29.308c-6.512,3.246 -28.212,11.925 -28.212,11.925c-7.605,2.171 -13.021,10.85 -13.021,17.363l-0,77.045c-0,6.513 3.246,9.759 8.679,9.759c4.342,-0 24.95,-9.759 28.212,-11.925c1.075,-0 2.171,-1.096 3.246,-1.096c7.604,-0 14.117,10.85 14.117,19.533l-0,107.429c-0,11.925 -5.438,21.7 -11.946,24.946c-6.512,2.171 -29.287,11.946 -29.287,11.946c-7.605,2.171 -13.021,10.85 -13.021,17.363l-0,77.029c-0,6.512 3.246,9.775 8.679,9.775c1.075,-0 3.246,-1.092 4.342,-1.092c-0,0 15.191,-6.512 24.945,-9.758c1.096,-1.096 2.171,-1.096 3.267,-1.096c7.583,-0 13.021,11.946 13.021,17.362l-0,133.471c-0,6.513 6.508,11.929 14.096,11.929c10.85,0 18.454,-5.416 18.454,-11.929l-0,-150.833c-0,-14.096 5.417,-21.7 10.85,-23.871l66.183,-27.117c1.092,0 3.263,-1.091 4.338,-1.091c8.683,-0 14.116,13.021 14.116,19.529l0,135.642c0,6.512 6.509,11.929 14.096,11.929c11.946,-0 18.454,-5.417 18.454,-11.929l0,-154.08c0,-8.679 4.342,-21.7 11.93,-24.966c7.604,-3.246 30.379,-11.925 30.379,-11.925c7.604,-3.267 13.021,-11.946 13.021,-18.454l-0,-77.034c-0,-5.433 -3.246,-8.679 -7.584,-8.679c-2.171,0 -3.266,0 -5.437,1.075l-28.209,10.85c-6.512,0 -14.1,-6.508 -14.1,-19.529l0,-100.904c0,-7.604 5.417,-28.213 14.1,-31.475l28.209,-10.85" style="fill-rule:nonzero;"/></g><g><path d="M23665.8,3101.37c96.58,-0 214.846,-88.975 214.846,-181.213c0,-55.333 -43.404,-90.054 -105.246,-90.054c-119.358,0 -214.841,87.883 -214.841,181.2c-0,56.421 46.65,90.067 105.241,90.067" style="fill-rule:nonzero;"/></g><g><path d="M24594.4,3235.92c96.58,-0 214.846,-88.975 214.846,-181.217c0,-55.329 -43.404,-90.05 -105.246,-90.05c-119.358,0 -214.841,87.879 -214.841,181.196c-0,56.425 46.65,90.071 105.241,90.071" style="fill-rule:nonzero;"/></g><g><path d="M25985.2,3301.03c11.925,-37.987 52.083,-43.404 85.713,-43.404c74.875,-0 134.545,80.296 134.545,145.4c0,33.629 -14.095,64.012 -49.912,72.691c-10.85,3.263 -22.779,4.342 -33.629,4.342c-39.063,0 -79.217,-26.041 -101.996,-56.425c-21.7,-24.95 -37.988,-61.841 -37.988,-96.562c0,-8.679 1.096,-17.363 3.267,-26.042m113.921,-67.275c-144.304,0 -234.375,59.671 -234.375,133.454c-0,72.709 61.858,137.813 223.525,137.813c177.954,-0 234.375,-61.859 234.375,-137.813c-0,-77.029 -122.604,-133.454 -223.525,-133.454" style="fill-rule:nonzero;"/></g><g><path d="M565.288,2143.25c3.246,20.625 3.246,19.533 -16.287,26.042c-95.484,32.554 -157.325,118.283 -157.325,210.504c-0,97.658 50.987,167.1 124.775,192.066c8.679,3.246 21.7,6.509 29.304,6.509c8.679,-0 13.021,-5.434 13.021,-11.942c-0,-7.587 -8.68,-10.85 -16.284,-14.1c-45.575,-19.529 -78.125,-66.196 -78.125,-116.108c0,-61.842 42.325,-108.509 108.504,-126.946c17.363,-4.342 19.534,-3.263 21.705,8.679l54.254,323.354c2.166,11.925 1.091,11.925 -15.192,15.188c-17.362,3.25 -39.062,5.416 -60.767,5.416c-189.875,0 -312.5,-105.241 -312.5,-256.075c0,-64.008 10.855,-149.737 100.921,-251.737c65.104,-72.688 115.017,-112.846 166.009,-154.079c10.85,-8.68 13.02,-7.588 15.191,4.341l22.796,138.888m118.263,-738.921c35.816,-0 65.104,29.287 65.104,88.975c-0,120.433 -103.075,218.087 -188.804,292.967c-7.584,6.512 -11.925,5.416 -14.096,-8.68c-4.342,-28.212 -6.509,-65.104 -6.509,-99.825c0,-169.27 78.125,-273.437 144.305,-273.437m-43.405,911.458c-2.17,-13.021 -1.075,-16.287 11.946,-15.191c87.884,7.587 160.592,81.37 160.592,176.858c-0,68.367 -41.233,123.696 -102,154.079c-13.021,6.508 -15.188,6.508 -17.358,-6.512l-53.18,-309.234m-58.591,-338.541c-2.171,-13.021 -0,-14.117 6.508,-20.625c117.188,-109.584 206.163,-247.396 206.163,-413.405c-0,-94.408 -26.042,-187.725 -70.521,-252.829c-16.284,-23.871 -44.496,-54.254 -56.421,-54.254c-15.192,0 -48.838,28.213 -70.538,52.083c-80.295,88.975 -106.337,224.617 -106.337,337.467c-0,62.933 7.604,133.454 15.192,177.95c2.166,13.021 3.262,15.192 -9.759,26.042c-156.25,129.112 -322.275,284.287 -322.275,503.471c0,188.804 129.134,367.829 394.967,367.829c24.962,-0 53.175,-2.167 74.879,-6.509c11.925,-2.17 14.096,-3.245 16.267,9.775c13.021,72.692 29.304,167.1 29.304,218.088c-0,160.592 -108.508,180.125 -172.533,180.125c-58.596,-0 -86.809,-17.363 -86.809,-31.458c0,-7.605 9.775,-10.855 34.725,-18.459c33.646,-9.754 72.709,-39.062 72.709,-101.996c-0,-59.67 -37.988,-110.675 -104.167,-110.675c-72.708,0 -116.113,57.517 -116.113,124.792c0,70.521 42.325,176.858 206.163,176.858c72.708,0 213.767,-32.554 213.767,-217.016c-0,-61.838 -19.53,-164.929 -31.475,-232.204c-2.171,-13.021 -1.075,-11.925 14.116,-18.438c109.584,-43.404 182.292,-135.641 182.292,-258.246c-0,-138.887 -101.996,-261.512 -261.513,-261.512c-28.212,-0 -28.212,-0 -31.458,-19.529l-27.133,-157.325" style="fill-rule:nonzero;"/></g><g><path d="M1541.6,1967.47l0,-232.205c0,-8.681 -1.085,-18.446 -13.02,-18.446c-9.766,-0 -15.191,2.17 -21.702,9.765l-103.082,124.783c-4.34,5.426 -9.765,11.936 -9.765,24.957l-0,91.146l-146.485,0c86.806,-73.785 260.417,-320.096 263.673,-332.032c-0,-2.17 1.085,-3.255 1.085,-5.425c-0,-8.681 -7.596,-15.191 -16.276,-15.191c-9.766,0 -54.254,2.17 -73.785,2.17c-19.532,0 -68.36,-2.17 -77.04,-2.17c-9.766,0 -24.957,3.255 -24.957,20.616c0,134.549 -106.337,285.374 -138.889,330.947l-6.51,8.681c-0,1.085 -1.086,2.17 -1.086,3.255c-2.17,4.34 -3.255,8.68 -3.255,11.936c0,10.85 8.681,18.446 21.702,18.446l201.823,-0l-0,68.359c-0,29.297 -23.872,37.978 -43.403,37.978c-17.361,-0 -24.957,9.765 -24.957,20.616c0,10.851 4.341,22.787 20.617,22.787l231.12,-0c10.851,-0 21.701,-7.596 21.701,-22.787c0,-15.191 -13.021,-21.701 -23.871,-21.701c-10.851,-0 -33.638,-6.511 -33.638,-41.233l0,-64.019l79.211,-0c10.85,-0 16.276,-7.596 16.276,-20.617c-0,-13.02 -4.341,-20.616 -16.276,-20.616l-79.211,0Z" style="fill-rule:nonzero;"/></g><g><path d="M1541.6,2510.85l0,-232.205c0,-8.68 -1.085,-18.446 -13.02,-18.446c-9.766,0 -15.191,2.17 -21.702,9.766l-103.082,124.783c-4.34,5.425 -9.765,11.936 -9.765,24.956l-0,91.146l-146.485,0c86.806,-73.784 260.417,-320.095 263.673,-332.031c-0,-2.17 1.085,-3.255 1.085,-5.426c-0,-8.68 -7.596,-15.191 -16.276,-15.191c-9.766,0 -54.254,2.171 -73.785,2.171c-19.532,-0 -68.36,-2.171 -77.04,-2.171c-9.766,0 -24.957,3.256 -24.957,20.617c0,134.549 -106.337,285.373 -138.889,330.946l-6.51,8.681c-0,1.085 -1.086,2.17 -1.086,3.255c-2.17,4.34 -3.255,8.681 -3.255,11.936c0,10.851 8.681,18.446 21.702,18.446l201.823,0l-0,68.36c-0,29.296 -23.872,37.977 -43.403,37.977c-17.361,0 -24.957,9.766 -24.957,20.616c0,10.851 4.341,22.787 20.617,22.787l231.12,-0c10.851,-0 21.701,-7.596 21.701,-22.787c0,-15.191 -13.021,-21.701 -23.871,-21.701c-10.851,-0 -33.638,-6.51 -33.638,-41.233l0,-64.019l79.211,0c10.85,0 16.276,-7.595 16.276,-20.616c-0,-13.021 -4.341,-20.617 -16.276,-20.617l-79.211,0Z" style="fill-rule:nonzero;"/></g><g><path d="M2529.8,2225.71l-0,-135.521l2816.84,-336.371l0,135.521l-2816.84,336.371" style="fill-rule:nonzero;"/></g><g><path d="M5955.36,3236.25l-0,-135.971l2816.84,-403.646l0,135.971l-2816.84,403.646" style="fill-rule:nonzero;"/></g><g><path d="M10115.5,2563.51l0,-135.975l2817.4,-403.646l0,135.975l-2817.4,403.646" style="fill-rule:nonzero;"/></g><g><path d="M13829.2,2158.61l0,-134.725l2816.82,134.55l-0,134.72l-2816.82,-134.545" style="fill-rule:nonzero;"/></g><g><path d="M17989.4,2697.62l-0,-135.538l2817.93,336.371l0,135.538l-2817.93,-336.371" style="fill-rule:nonzero;"/></g><g><path d="M21991.1,1620.24l-0,-135.954l2817.92,403.645l0,135.955l-2817.92,-403.646" style="fill-rule:nonzero;"/></g></g></svg>