<?xml version="1.0" encoding="UTF-8" standalone="no"?><!DOCTYPE svg PUBLIC "-//W3C//DTD SVG 1.1//EN" "http://www.w3.org/Graphics/SVG/1.1/DTD/svg11.dtd"><svg width="100%" height="100%" viewBox="0 0 1913 500" version="1.1" xmlns="http://www.w3.org/2000/svg" xmlns:xlink="http://www.w3.org/1999/xlink" xml:space="preserve" xmlns:serif="http://www.serif.com/" style="fill-rule:evenodd;clip-rule:evenodd;stroke-miterlimit:2;"><g><g><path d="M131.251,184.916l1650,0" style="fill:none;stroke:#000;stroke-width:2.01px;"/><path d="M131.251,122.916l1650,0" style="fill:none;stroke:#000;stroke-width:2.01px;"/><path d="M131.251,138.416l1650,0" style="fill:none;stroke:#000;stroke-width:2.01px;"/><path d="M131.251,153.916l1650,0" style="fill:none;stroke:#000;stroke-width:2.01px;"/><path d="M131.251,169.416l1650,0" style="fill:none;stroke:#000;stroke-width:2.01px;"/></g><g><path d="M985.687,121.91l0,64.013" style="fill:none;stroke:#000;stroke-width:2.48px;"/><path d="M1780,121.91l0,64.013" style="fill:none;stroke:#000;stroke-width:2.48px;"/></g><g><path d="M233.282,157.776l-0,63.287" style="fill:none;stroke:#000;stroke-width:1.86px;"/></g><g><path d="M209.594,215.916l30.844,0" style="fill:none;stroke:#000;stroke-width:2.48px;"/><path d="M209.594,200.416l30.844,0" style="fill:none;stroke:#000;stroke-width:2.48px;"/></g><g><path d="M292.782,153.901l-0,59.412" style="fill:none;stroke:#000;stroke-width:1.86px;"/></g><g><path d="M269.094,215.916l30.813,0" style="fill:none;stroke:#000;stroke-width:2.48px;"/><path d="M269.094,200.416l30.813,0" style="fill:none;stroke:#000;stroke-width:2.48px;"/></g><g><path d="M352.282,150.026l-0,55.537" style="fill:none;stroke:#000;stroke-width:1.86px;"/></g><g><path d="M328.594,200.416l30.813,0" style="fill:none;stroke:#000;stroke-width:2.48px;"/></g><g><path d="M411.75,142.138l0,55.675" style="fill:none;stroke:#000;stroke-width:1.86px;"/></g><g><path d="M391.657,200.416l27.218,0" style="fill:none;stroke:#000;stroke-width:2.48px;"/></g><g><path d="M463.219,135.682l0,54.381" style="fill:none;stroke:#000;stroke-width:1.86px;"/><path d="M514.688,129.223l-0,53.09" style="fill:none;stroke:#000;stroke-width:1.86px;"/><path d="M566.157,122.763l-0,51.8" style="fill:none;stroke:#000;stroke-width:1.86px;"/><path d="M617.625,119.004l0,47.809" style="fill:none;stroke:#000;stroke-width:1.86px;"/><path d="M677.125,113.192l0,45.871" style="fill:none;stroke:#000;stroke-width:1.86px;"/><path d="M736.625,107.38l0,43.933" style="fill:none;stroke:#000;stroke-width:1.86px;"/><path d="M779.5,148.77l0,47.868" style="fill:none;stroke:#000;stroke-width:1.86px;"/><path d="M830.969,141.02l-0,50.453" style="fill:none;stroke:#000;stroke-width:1.86px;"/><path d="M882.438,133.27l-0,53.034" style="fill:none;stroke:#000;stroke-width:1.86px;"/><path d="M933.906,125.52l0,55.618" style="fill:none;stroke:#000;stroke-width:1.86px;"/><path d="M1011.12,117.77l-0,51.712" style="fill:none;stroke:#000;stroke-width:1.86px;"/><path d="M1070.62,110.021l-0,51.711" style="fill:none;stroke:#000;stroke-width:1.86px;"/></g><g><path d="M1063.5,107.416l30.812,0" style="fill:none;stroke:#000;stroke-width:2.48px;"/></g><g><path d="M1130.12,102.271l-0,51.711" style="fill:none;stroke:#000;stroke-width:1.86px;"/></g><g><path d="M1122.97,107.416l30.843,0" style="fill:none;stroke:#000;stroke-width:2.48px;"/></g><g><path d="M1189.56,94.521l0,59.402" style="fill:none;stroke:#000;stroke-width:1.86px;"/></g><g><path d="M1186.06,91.916l27.219,0" style="fill:none;stroke:#000;stroke-width:2.48px;"/><path d="M1186.31,107.416l26.969,0" style="fill:none;stroke:#000;stroke-width:2.48px;"/></g><g><path d="M1241.03,86.771l0,65.861" style="fill:none;stroke:#000;stroke-width:1.86px;"/></g><g><path d="M1233.88,91.916l30.844,0" style="fill:none;stroke:#000;stroke-width:2.48px;"/><path d="M1233.88,107.416l30.844,0" style="fill:none;stroke:#000;stroke-width:2.48px;"/></g><g><path d="M1292.47,79.021l0,72.317" style="fill:none;stroke:#000;stroke-width:1.86px;"/></g><g><path d="M1285.34,76.417l30.813,-0" style="fill:none;stroke:#000;stroke-width:2.48px;"/><path d="M1285.34,91.916l30.813,0" style="fill:none;stroke:#000;stroke-width:2.48px;"/><path d="M1285.34,107.416l30.813,0" style="fill:none;stroke:#000;stroke-width:2.48px;"/></g><g><path d="M1343.91,71.271l-0,78.777" style="fill:none;stroke:#000;stroke-width:1.86px;"/></g><g><path d="M1336.78,76.417l30.844,-0" style="fill:none;stroke:#000;stroke-width:2.48px;"/><path d="M1336.78,91.916l30.844,0" style="fill:none;stroke:#000;stroke-width:2.48px;"/><path d="M1336.78,107.416l30.844,0" style="fill:none;stroke:#000;stroke-width:2.48px;"/></g><g><path d="M1395.38,71.271l-0,78.777" style="fill:none;stroke:#000;stroke-width:1.86px;"/></g><g><path d="M1388.25,76.417l30.843,-0" style="fill:none;stroke:#000;stroke-width:2.48px;"/><path d="M1388.25,91.916l30.843,0" style="fill:none;stroke:#000;stroke-width:2.48px;"/><path d="M1388.25,107.416l30.843,0" style="fill:none;stroke:#000;stroke-width:2.48px;"/></g><g><path d="M1446.84,79.021l0,72.317" style="fill:none;stroke:#000;stroke-width:1.86px;"/></g><g><path d="M1439.72,76.417l30.813,-0" style="fill:none;stroke:#000;stroke-width:2.48px;"/><path d="M1439.72,91.916l30.813,0" style="fill:none;stroke:#000;stroke-width:2.48px;"/><path d="M1439.72,107.416l30.813,0" style="fill:none;stroke:#000;stroke-width:2.48px;"/></g><g><path d="M1498.31,86.771l0,65.861" style="fill:none;stroke:#000;stroke-width:1.86px;"/></g><g><path d="M1491.16,91.916l30.844,0" style="fill:none;stroke:#000;stroke-width:2.48px;"/><path d="M1491.16,107.416l30.844,0" style="fill:none;stroke:#000;stroke-width:2.48px;"/></g><g><path d="M1549.75,94.521l-0,59.402" style="fill:none;stroke:#000;stroke-width:1.86px;"/></g><g><path d="M1542.62,91.916l30.843,0" style="fill:none;stroke:#000;stroke-width:2.48px;"/><path d="M1542.62,107.416l30.843,0" style="fill:none;stroke:#000;stroke-width:2.48px;"/></g><g><path d="M1601.22,102.271l0,51.711" style="fill:none;stroke:#000;stroke-width:1.86px;"/></g><g><path d="M1594.09,107.416l30.813,0" style="fill:none;stroke:#000;stroke-width:2.48px;"/></g><g><path d="M1660.72,110.021l0,51.711" style="fill:none;stroke:#000;stroke-width:1.86px;"/></g><g><path d="M1653.59,107.416l30.813,0" style="fill:none;stroke:#000;stroke-width:2.48px;"/></g><g><path d="M1720.22,117.77l0,51.712" style="fill:none;stroke:#000;stroke-width:1.86px;"/></g><g><path d="M221.428,98.854c0,-0 -0.062,0.25 -0.062,0.437c-0,0.25 0.25,0.5 0.5,0.5c0.187,0 0.312,-0.187 0.375,-0.25c0.062,-0.187 0.812,-2.75 1.187,-3.375c0.125,-0.25 0.25,-0.312 0.313,-0.312c0.125,-0 0.187,0.25 0.187,0.437l0,8.938c0,0.75 -0.625,1.187 -1.25,1.187c-0.25,0 -0.562,0.125 -0.562,0.5c-0,0.375 0.312,0.5 0.812,0.5l5.25,0c0.5,0 0.5,-0.5 0.5,-0.5c0,0 0,-0.5 -0.5,-0.5c-0.437,0 -1,-0.562 -1,-1.125l0,-13c0,-0.5 -0.187,-0.75 -0.625,-0.75c-0.437,0 -0.812,0.125 -1.187,0.125c-0.625,0 -0.75,0 -1.25,-0.125c-0.25,0 -0.563,0.375 -0.75,0.625l-1.938,6.688" style="fill-rule:nonzero;"/></g><g><path d="M290.698,102.416c-0,-0.437 -0.188,-0.5 -0.375,-0.5c-0.25,0 -0.375,0.188 -0.438,0.375c-0.312,0.875 -1,2 -1.937,2c-0.125,0 -0.25,0 -0.375,-0.062l-0.938,-0.313c-0.625,-0.25 -2.125,-0.75 -3.375,-0.75c-0.437,0 -0.812,0.063 -1.187,0.188c0.687,-1.188 3.937,-2.75 4.625,-2.938c2.25,-0.312 4.125,-1.625 4.125,-4.062c-0,-1.5 -0.625,-2.5 -1.438,-3.25c-1.625,-1.313 -4,-1.5 -4.687,-1.5c-2.25,-0 -4.063,0.125 -5.688,2c-0.437,0.5 -0.625,1 -0.625,1.5c0,0.437 0.188,0.937 0.375,1.5c0.375,0.75 1.188,1.312 2.063,1.312c1.562,0 1.75,-1.5 1.75,-2.187c-0,-1.438 -1.563,-1.563 -1.563,-2.188c0,-0.437 0.625,-1.187 2.5,-1.187c2.938,-0 3.938,2.437 3.938,3.187c-0,1.125 -0.375,2.188 -1,3.063c-1.125,1.437 -3.188,1.937 -4.75,2.937c-1.75,1.063 -2.938,2.875 -3.5,4.875c-0,0.438 0.187,0.938 0.562,1.125c0.063,0.063 0.188,0.063 0.25,0.063c0.688,-0 1.063,-1.938 2.938,-1.938c1.25,0 1.687,1.688 4.5,1.688c1.312,-0 3.75,-0.125 4.25,-4.938" style="fill-rule:nonzero;"/></g><g><path d="M347.325,101.791l0,-6.687c0,-0.313 -0.062,-0.563 -0.375,-0.563c-0.25,0 -0.437,0.063 -0.625,0.313l-1.875,3.625c-0.125,0.125 -0.312,0.312 -0.312,0.75l-0,2.562l-4.063,0c2.563,-2.125 6.563,-9.187 6.625,-9.562c0,-0.063 0.063,-0.125 0.063,-0.188c-0,-0.25 -0.25,-0.437 -0.438,-0.437c-0.312,-0 -1.625,0.125 -2.187,0.125c-0.563,-0 -0.938,-0.125 -1.188,-0.125c-0.312,-0 -0.75,0.125 -0.75,0.625c0,4 -3.25,8.562 -4.062,9.687c-0.125,0.125 -0.25,0.313 -0.25,0.5c-0,0.313 0.25,0.625 0.625,0.625l5.625,0l-0,1.938c-0,0.875 -0.5,1.125 -1,1.125c-0.563,-0 -0.813,0.25 -0.813,0.562c0,0.313 0.125,0.688 0.688,0.688l5.375,-0c0.312,-0 0.625,-0.25 0.625,-0.688c-0,-0.437 -0.375,-0.625 -0.688,-0.625c-0.312,0 -1,-0.187 -1,-1.187l0,-1.813l2.313,0c0.312,0 0.5,-0.25 0.5,-0.625c-0,-0.375 -0.125,-0.625 -0.5,-0.625l-2.313,0" style="fill-rule:nonzero;"/></g><g><path d="M399.878,98.854c0,-0 -0.062,0.25 -0.062,0.437c-0,0.25 0.25,0.5 0.5,0.5c0.187,0 0.312,-0.187 0.375,-0.25c0.062,-0.187 0.812,-2.75 1.187,-3.375c0.125,-0.25 0.25,-0.312 0.313,-0.312c0.125,-0 0.187,0.25 0.187,0.437l0,8.938c0,0.75 -0.625,1.187 -1.25,1.187c-0.25,0 -0.562,0.125 -0.562,0.5c-0,0.375 0.312,0.5 0.812,0.5l5.25,0c0.5,0 0.5,-0.5 0.5,-0.5c0,0 0,-0.5 -0.5,-0.5c-0.437,0 -1,-0.562 -1,-1.125l0,-13c0,-0.5 -0.187,-0.75 -0.625,-0.75c-0.437,0 -0.812,0.125 -1.187,0.125c-0.625,0 -0.75,0 -1.25,-0.125c-0.25,0 -0.563,0.375 -0.75,0.625l-1.938,6.688" style="fill-rule:nonzero;"/></g><g><path d="M461.125,102.416c0,-0.437 -0.187,-0.5 -0.375,-0.5c-0.25,0 -0.375,0.188 -0.437,0.375c-0.313,0.875 -1,2 -1.938,2c-0.125,0 -0.25,0 -0.375,-0.062l-0.937,-0.313c-0.625,-0.25 -2.125,-0.75 -3.375,-0.75c-0.438,0 -0.813,0.063 -1.188,0.188c0.688,-1.188 3.938,-2.75 4.625,-2.938c2.25,-0.312 4.125,-1.625 4.125,-4.062c0,-1.5 -0.625,-2.5 -1.437,-3.25c-1.625,-1.313 -4,-1.5 -4.688,-1.5c-2.25,-0 -4.062,0.125 -5.687,2c-0.438,0.5 -0.625,1 -0.625,1.5c-0,0.437 0.187,0.937 0.375,1.5c0.375,0.75 1.187,1.312 2.062,1.312c1.563,0 1.75,-1.5 1.75,-2.187c0,-1.438 -1.562,-1.563 -1.562,-2.188c-0,-0.437 0.625,-1.187 2.5,-1.187c2.937,-0 3.937,2.437 3.937,3.187c0,1.125 -0.375,2.188 -1,3.063c-1.125,1.437 -3.187,1.937 -4.75,2.937c-1.75,1.063 -2.937,2.875 -3.5,4.875c0,0.438 0.188,0.938 0.563,1.125c0.062,0.063 0.187,0.063 0.25,0.063c0.687,-0 1.062,-1.938 2.937,-1.938c1.25,0 1.688,1.688 4.5,1.688c1.313,-0 3.75,-0.125 4.25,-4.938" style="fill-rule:nonzero;"/></g><g><path d="M509.725,101.791l-0,-6.687c-0,-0.313 -0.063,-0.563 -0.375,-0.563c-0.25,0 -0.438,0.063 -0.625,0.313l-1.875,3.625c-0.125,0.125 -0.313,0.312 -0.313,0.75l0,2.562l-4.062,0c2.562,-2.125 6.562,-9.187 6.625,-9.562c-0,-0.063 0.062,-0.125 0.062,-0.188c0,-0.25 -0.25,-0.437 -0.437,-0.437c-0.313,-0 -1.625,0.125 -2.188,0.125c-0.562,-0 -0.937,-0.125 -1.187,-0.125c-0.313,-0 -0.75,0.125 -0.75,0.625c-0,4 -3.25,8.562 -4.063,9.687c-0.125,0.125 -0.25,0.313 -0.25,0.5c0,0.313 0.25,0.625 0.625,0.625l5.625,0l0,1.938c0,0.875 -0.5,1.125 -1,1.125c-0.562,-0 -0.812,0.25 -0.812,0.562c-0,0.313 0.125,0.688 0.687,0.688l5.375,-0c0.313,-0 0.625,-0.25 0.625,-0.688c0,-0.437 -0.375,-0.625 -0.687,-0.625c-0.313,0 -1,-0.187 -1,-1.187l-0,-1.813l2.312,0c0.313,0 0.5,-0.25 0.5,-0.625c0,-0.375 -0.125,-0.625 -0.5,-0.625l-2.312,0" style="fill-rule:nonzero;"/></g><g><path d="M561.194,101.791l-0,-6.687c-0,-0.313 -0.063,-0.563 -0.375,-0.563c-0.25,0 -0.438,0.063 -0.625,0.313l-1.875,3.625c-0.125,0.125 -0.313,0.312 -0.313,0.75l0,2.562l-4.062,0c2.562,-2.125 6.562,-9.187 6.625,-9.562c-0,-0.063 0.062,-0.125 0.062,-0.188c0,-0.25 -0.25,-0.437 -0.437,-0.437c-0.313,-0 -1.625,0.125 -2.188,0.125c-0.562,-0 -0.937,-0.125 -1.187,-0.125c-0.313,-0 -0.75,0.125 -0.75,0.625c-0,4 -3.25,8.562 -4.063,9.687c-0.125,0.125 -0.25,0.313 -0.25,0.5c0,0.313 0.25,0.625 0.625,0.625l5.625,0l0,1.938c0,0.875 -0.5,1.125 -1,1.125c-0.562,-0 -0.812,0.25 -0.812,0.562c-0,0.313 0.125,0.688 0.687,0.688l5.375,-0c0.313,-0 0.625,-0.25 0.625,-0.688c0,-0.437 -0.375,-0.625 -0.687,-0.625c-0.313,0 -1,-0.187 -1,-1.187l-0,-1.813l2.312,0c0.313,0 0.5,-0.25 0.5,-0.625c0,-0.375 -0.125,-0.625 -0.5,-0.625l-2.312,0" style="fill-rule:nonzero;"/></g><g><path d="M605.756,98.854c0,-0 -0.062,0.25 -0.062,0.437c-0,0.25 0.25,0.5 0.5,0.5c0.187,0 0.312,-0.187 0.375,-0.25c0.062,-0.187 0.812,-2.75 1.187,-3.375c0.125,-0.25 0.25,-0.312 0.313,-0.312c0.125,-0 0.187,0.25 0.187,0.437l0,8.938c0,0.75 -0.625,1.187 -1.25,1.187c-0.25,0 -0.562,0.125 -0.562,0.5c-0,0.375 0.312,0.5 0.812,0.5l5.25,0c0.5,0 0.5,-0.5 0.5,-0.5c0,0 0,-0.5 -0.5,-0.5c-0.437,0 -1,-0.562 -1,-1.125l0,-13c0,-0.5 -0.187,-0.75 -0.625,-0.75c-0.437,0 -0.812,0.125 -1.187,0.125c-0.625,0 -0.75,0 -1.25,-0.125c-0.25,0 -0.563,0.375 -0.75,0.625l-1.938,6.688" style="fill-rule:nonzero;"/></g><g><path d="M675.025,96.376c-0,-0.437 -0.188,-0.5 -0.375,-0.5c-0.25,0 -0.375,0.188 -0.438,0.375c-0.312,0.875 -1,2 -1.937,2c-0.125,0 -0.25,0 -0.375,-0.062l-0.938,-0.313c-0.625,-0.25 -2.125,-0.75 -3.375,-0.75c-0.437,0 -0.812,0.063 -1.187,0.188c0.687,-1.188 3.937,-2.75 4.625,-2.938c2.25,-0.312 4.125,-1.625 4.125,-4.062c-0,-1.5 -0.625,-2.5 -1.438,-3.25c-1.625,-1.313 -4,-1.5 -4.687,-1.5c-2.25,-0 -4.063,0.125 -5.688,2c-0.437,0.5 -0.625,1 -0.625,1.5c0,0.437 0.188,0.937 0.375,1.5c0.375,0.75 1.188,1.312 2.063,1.312c1.562,0 1.75,-1.5 1.75,-2.187c-0,-1.438 -1.563,-1.563 -1.563,-2.188c0,-0.437 0.625,-1.187 2.5,-1.187c2.938,-0 3.938,2.437 3.938,3.187c-0,1.125 -0.375,2.188 -1,3.063c-1.125,1.437 -3.188,1.937 -4.75,2.937c-1.75,1.063 -2.938,2.875 -3.5,4.875c-0,0.438 0.187,0.938 0.562,1.125c0.063,0.063 0.188,0.063 0.25,0.063c0.688,-0 1.063,-1.938 2.938,-1.938c1.25,0 1.687,1.688 4.5,1.688c1.312,-0 3.75,-0.125 4.25,-4.938" style="fill-rule:nonzero;"/></g><g><path d="M731.65,90.291l-0,-6.687c-0,-0.313 -0.063,-0.563 -0.375,-0.563c-0.25,0 -0.438,0.063 -0.625,0.313l-1.875,3.625c-0.125,0.125 -0.313,0.312 -0.313,0.75l0,2.562l-4.062,0c2.562,-2.125 6.562,-9.187 6.625,-9.562c-0,-0.063 0.062,-0.125 0.062,-0.188c0,-0.25 -0.25,-0.437 -0.437,-0.437c-0.313,-0 -1.625,0.125 -2.188,0.125c-0.562,-0 -0.937,-0.125 -1.187,-0.125c-0.313,-0 -0.75,0.125 -0.75,0.625c-0,4 -3.25,8.562 -4.063,9.687c-0.125,0.125 -0.25,0.313 -0.25,0.5c0,0.313 0.25,0.625 0.625,0.625l5.625,0l0,1.938c0,0.875 -0.5,1.125 -1,1.125c-0.562,-0 -0.812,0.25 -0.812,0.562c-0,0.313 0.125,0.688 0.687,0.688l5.375,-0c0.313,-0 0.625,-0.25 0.625,-0.688c0,-0.437 -0.375,-0.625 -0.687,-0.625c-0.313,0 -1,-0.187 -1,-1.187l-0,-1.813l2.312,0c0.313,0 0.5,-0.25 0.5,-0.625c0,-0.375 -0.125,-0.625 -0.5,-0.625l-2.312,0" style="fill-rule:nonzero;"/></g><g><path d="M784.187,98.854c0,-0 -0.062,0.25 -0.062,0.437c-0,0.25 0.25,0.5 0.5,0.5c0.187,0 0.312,-0.187 0.375,-0.25c0.062,-0.187 0.812,-2.75 1.187,-3.375c0.125,-0.25 0.25,-0.312 0.313,-0.312c0.125,-0 0.187,0.25 0.187,0.437l0,8.938c0,0.75 -0.625,1.187 -1.25,1.187c-0.25,0 -0.562,0.125 -0.562,0.5c-0,0.375 0.312,0.5 0.812,0.5l5.25,0c0.5,0 0.5,-0.5 0.5,-0.5c0,0 0,-0.5 -0.5,-0.5c-0.437,0 -1,-0.562 -1,-1.125l0,-13c0,-0.5 -0.187,-0.75 -0.625,-0.75c-0.437,0 -0.812,0.125 -1.187,0.125c-0.625,0 -0.75,0 -1.25,-0.125c-0.25,0 -0.563,0.375 -0.75,0.625l-1.938,6.688" style="fill-rule:nonzero;"/></g><g><path d="M845.434,102.416c0,-0.437 -0.187,-0.5 -0.375,-0.5c-0.25,0 -0.375,0.188 -0.437,0.375c-0.313,0.875 -1,2 -1.938,2c-0.125,0 -0.25,0 -0.375,-0.062l-0.937,-0.313c-0.625,-0.25 -2.125,-0.75 -3.375,-0.75c-0.438,0 -0.813,0.063 -1.188,0.188c0.688,-1.188 3.938,-2.75 4.625,-2.938c2.25,-0.312 4.125,-1.625 4.125,-4.062c0,-1.5 -0.625,-2.5 -1.437,-3.25c-1.625,-1.313 -4,-1.5 -4.688,-1.5c-2.25,-0 -4.062,0.125 -5.687,2c-0.438,0.5 -0.625,1 -0.625,1.5c-0,0.437 0.187,0.937 0.375,1.5c0.375,0.75 1.187,1.312 2.062,1.312c1.563,0 1.75,-1.5 1.75,-2.187c0,-1.438 -1.562,-1.563 -1.562,-2.188c-0,-0.437 0.625,-1.187 2.5,-1.187c2.937,-0 3.937,2.437 3.937,3.187c0,1.125 -0.375,2.188 -1,3.063c-1.125,1.437 -3.187,1.937 -4.75,2.937c-1.75,1.063 -2.937,2.875 -3.5,4.875c0,0.438 0.188,0.938 0.563,1.125c0.062,0.063 0.187,0.063 0.25,0.063c0.687,-0 1.062,-1.938 2.937,-1.938c1.25,0 1.688,1.688 4.5,1.688c1.313,-0 3.75,-0.125 4.25,-4.938" style="fill-rule:nonzero;"/></g><g><path d="M894.037,101.791l0,-6.687c0,-0.313 -0.062,-0.563 -0.375,-0.563c-0.25,0 -0.437,0.063 -0.625,0.313l-1.875,3.625c-0.125,0.125 -0.312,0.312 -0.312,0.75l-0,2.562l-4.063,0c2.563,-2.125 6.563,-9.187 6.625,-9.562c0,-0.063 0.063,-0.125 0.063,-0.188c-0,-0.25 -0.25,-0.437 -0.438,-0.437c-0.312,-0 -1.625,0.125 -2.187,0.125c-0.563,-0 -0.938,-0.125 -1.188,-0.125c-0.312,-0 -0.75,0.125 -0.75,0.625c0,4 -3.25,8.562 -4.062,9.687c-0.125,0.125 -0.25,0.313 -0.25,0.5c-0,0.313 0.25,0.625 0.625,0.625l5.625,0l-0,1.938c-0,0.875 -0.5,1.125 -1,1.125c-0.563,-0 -0.813,0.25 -0.813,0.562c0,0.313 0.125,0.688 0.688,0.688l5.375,-0c0.312,-0 0.625,-0.25 0.625,-0.688c-0,-0.437 -0.375,-0.625 -0.688,-0.625c-0.312,0 -1,-0.187 -1,-1.187l0,-1.813l2.313,0c0.312,0 0.5,-0.25 0.5,-0.625c-0,-0.375 -0.125,-0.625 -0.5,-0.625l-2.313,0" style="fill-rule:nonzero;"/></g><g><path d="M945.506,101.778l-0,-6.688c-0,-0.312 -0.063,-0.562 -0.375,-0.562c-0.25,-0 -0.438,0.062 -0.625,0.312l-1.875,3.625c-0.125,0.125 -0.313,0.313 -0.313,0.75l0,2.563l-4.062,-0c2.562,-2.125 6.562,-9.188 6.625,-9.563c-0,-0.062 0.062,-0.125 0.062,-0.187c0,-0.25 -0.25,-0.438 -0.437,-0.438c-0.313,0 -1.625,0.125 -2.188,0.125c-0.562,0 -0.937,-0.125 -1.187,-0.125c-0.313,0 -0.75,0.125 -0.75,0.625c-0,4 -3.25,8.563 -4.063,9.688c-0.125,0.125 -0.25,0.312 -0.25,0.5c0,0.312 0.25,0.625 0.625,0.625l5.625,-0l0,1.937c0,0.875 -0.5,1.125 -1,1.125c-0.562,0 -0.812,0.25 -0.812,0.563c-0,0.312 0.125,0.687 0.687,0.687l5.375,0c0.313,0 0.625,-0.25 0.625,-0.687c0,-0.438 -0.375,-0.625 -0.687,-0.625c-0.313,-0 -1,-0.188 -1,-1.188l-0,-1.812l2.312,-0c0.313,-0 0.5,-0.25 0.5,-0.625c0,-0.375 -0.125,-0.625 -0.5,-0.625l-2.312,-0" style="fill-rule:nonzero;"/></g><g><path d="M1015.83,91.041c-0,0 -0.063,0.25 -0.063,0.438c0,0.25 0.25,0.5 0.5,0.5c0.188,-0 0.313,-0.188 0.375,-0.25c0.063,-0.188 0.813,-2.75 1.188,-3.375c0.125,-0.25 0.25,-0.313 0.312,-0.313c0.125,0 0.188,0.25 0.188,0.438l-0,8.937c-0,0.75 -0.625,1.188 -1.25,1.188c-0.25,-0 -0.563,0.125 -0.563,0.5c0,0.375 0.313,0.5 0.813,0.5l5.25,-0c0.5,-0 0.5,-0.5 0.5,-0.5c-0,-0 -0,-0.5 -0.5,-0.5c-0.438,-0 -1,-0.563 -1,-1.125l-0,-13c-0,-0.5 -0.188,-0.75 -0.625,-0.75c-0.438,-0 -0.813,0.125 -1.188,0.125c-0.625,-0 -0.75,-0 -1.25,-0.125c-0.25,-0 -0.562,0.375 -0.75,0.625l-1.937,6.687" style="fill-rule:nonzero;"/></g><g><path d="M1085.1,86.659c0,-0.438 -0.187,-0.5 -0.375,-0.5c-0.25,-0 -0.375,0.187 -0.437,0.375c-0.313,0.875 -1,2 -1.938,2c-0.125,-0 -0.25,-0 -0.375,-0.063l-0.937,-0.312c-0.625,-0.25 -2.125,-0.75 -3.375,-0.75c-0.438,-0 -0.813,0.062 -1.188,0.187c0.688,-1.187 3.938,-2.75 4.625,-2.937c2.25,-0.313 4.125,-1.625 4.125,-4.063c0,-1.5 -0.625,-2.5 -1.437,-3.25c-1.625,-1.312 -4,-1.5 -4.688,-1.5c-2.25,0 -4.062,0.125 -5.687,2c-0.438,0.5 -0.625,1 -0.625,1.5c-0,0.438 0.187,0.938 0.375,1.5c0.375,0.75 1.187,1.313 2.062,1.313c1.563,-0 1.75,-1.5 1.75,-2.188c0,-1.437 -1.562,-1.562 -1.562,-2.187c-0,-0.438 0.625,-1.188 2.5,-1.188c2.937,0 3.937,2.438 3.937,3.188c0,1.125 -0.375,2.187 -1,3.062c-1.125,1.438 -3.187,1.938 -4.75,2.938c-1.75,1.062 -2.937,2.875 -3.5,4.875c0,0.437 0.188,0.937 0.563,1.125c0.062,0.062 0.187,0.062 0.25,0.062c0.687,0 1.062,-1.937 2.937,-1.937c1.25,-0 1.688,1.687 4.5,1.687c1.313,0 3.75,-0.125 4.25,-4.937" style="fill-rule:nonzero;"/></g><g><path d="M1141.72,78.528l0,-6.688c0,-0.312 -0.062,-0.562 -0.375,-0.562c-0.25,-0 -0.437,0.062 -0.625,0.312l-1.875,3.625c-0.125,0.125 -0.312,0.313 -0.312,0.75l-0,2.563l-4.063,-0c2.563,-2.125 6.563,-9.188 6.625,-9.563c0,-0.062 0.063,-0.125 0.063,-0.187c-0,-0.25 -0.25,-0.438 -0.438,-0.438c-0.312,0 -1.625,0.125 -2.187,0.125c-0.563,0 -0.938,-0.125 -1.188,-0.125c-0.312,0 -0.75,0.125 -0.75,0.625c0,4 -3.25,8.563 -4.062,9.688c-0.125,0.125 -0.25,0.312 -0.25,0.5c-0,0.312 0.25,0.625 0.625,0.625l5.625,-0l-0,1.937c-0,0.875 -0.5,1.125 -1,1.125c-0.563,0 -0.813,0.25 -0.813,0.563c0,0.312 0.125,0.687 0.688,0.687l5.375,0c0.312,0 0.625,-0.25 0.625,-0.687c-0,-0.438 -0.375,-0.625 -0.688,-0.625c-0.312,-0 -1,-0.188 -1,-1.188l0,-1.812l2.313,-0c0.312,-0 0.5,-0.25 0.5,-0.625c-0,-0.375 -0.125,-0.625 -0.5,-0.625l-2.313,-0" style="fill-rule:nonzero;"/></g><g><path d="M1194.28,67.792c-0,-0 -0.063,0.25 -0.063,0.437c0,0.25 0.25,0.5 0.5,0.5c0.188,0 0.313,-0.187 0.375,-0.25c0.063,-0.187 0.813,-2.75 1.188,-3.375c0.125,-0.25 0.25,-0.312 0.312,-0.312c0.125,-0 0.188,0.25 0.188,0.437l-0,8.938c-0,0.75 -0.625,1.187 -1.25,1.187c-0.25,0 -0.563,0.125 -0.563,0.5c0,0.375 0.313,0.5 0.813,0.5l5.25,0c0.5,0 0.5,-0.5 0.5,-0.5c-0,0 -0,-0.5 -0.5,-0.5c-0.438,0 -1,-0.562 -1,-1.125l-0,-13c-0,-0.5 -0.188,-0.75 -0.625,-0.75c-0.438,0 -0.813,0.125 -1.188,0.125c-0.625,0 -0.75,0 -1.25,-0.125c-0.25,0 -0.562,0.375 -0.75,0.625l-1.937,6.688" style="fill-rule:nonzero;"/></g><g><path d="M1255.5,63.409c0,-0.438 -0.187,-0.5 -0.375,-0.5c-0.25,-0 -0.375,0.187 -0.437,0.375c-0.313,0.875 -1,2 -1.938,2c-0.125,-0 -0.25,-0 -0.375,-0.063l-0.937,-0.312c-0.625,-0.25 -2.125,-0.75 -3.375,-0.75c-0.438,-0 -0.813,0.062 -1.188,0.187c0.688,-1.187 3.938,-2.75 4.625,-2.937c2.25,-0.313 4.125,-1.625 4.125,-4.063c0,-1.5 -0.625,-2.5 -1.437,-3.25c-1.625,-1.312 -4,-1.5 -4.688,-1.5c-2.25,0 -4.062,0.125 -5.687,2c-0.438,0.5 -0.625,1 -0.625,1.5c-0,0.438 0.187,0.938 0.375,1.5c0.375,0.75 1.187,1.313 2.062,1.313c1.563,-0 1.75,-1.5 1.75,-2.188c0,-1.437 -1.562,-1.562 -1.562,-2.187c-0,-0.438 0.625,-1.188 2.5,-1.188c2.937,0 3.937,2.438 3.937,3.188c0,1.125 -0.375,2.187 -1,3.062c-1.125,1.438 -3.187,1.938 -4.75,2.938c-1.75,1.062 -2.937,2.875 -3.5,4.875c0,0.437 0.188,0.937 0.563,1.125c0.062,0.062 0.187,0.062 0.25,0.062c0.687,0 1.062,-1.937 2.937,-1.937c1.25,-0 1.688,1.687 4.5,1.687c1.313,0 3.75,-0.125 4.25,-4.937" style="fill-rule:nonzero;"/></g><g><path d="M1300.1,45.104c-3.437,0 -4.937,2.313 -4.937,3.625c-0,0.875 0.5,1.938 2.062,2c1.188,0 1.75,-0.75 1.75,-1.562l0,-0.25c-0.062,-0.938 -0.687,-1 -0.812,-1.063c-0.125,-0.062 -0.375,-0.312 -0.375,-0.75c0.125,-0.687 1.062,-0.937 1.312,-0.937c3.188,-0 4.125,1.687 4.125,2.75c0,2.937 -3,3.187 -3.937,3.25c-0.438,-0 -0.875,0.187 -0.875,0.562c-0,0.375 0.562,0.375 0.812,0.375c3.625,0 4.125,1.875 4.125,2.813c0,3.625 -2.937,3.75 -3.687,3.75c-0.375,-0 -1,-0.188 -1.063,-0.5l0,-0.375c0,-0.688 0.188,-1.438 0.25,-2.063c0,-1.125 -0.75,-1.812 -1.875,-1.812l-0.25,-0c-0.437,0.125 -0.875,0.375 -1.187,0.687c-0.438,0.375 -0.563,0.938 -0.563,1.5c0.063,2 1.813,3.688 4.938,3.75l0.375,0c3.062,0 6.25,-1.625 6.25,-4.375c-0,-0.625 -0.125,-1.125 -0.313,-1.5c-0.125,-0.375 -0.375,-0.687 -0.625,-0.937c-0.187,-0.25 -0.437,-0.438 -0.687,-0.625l-0.688,-0.375l-0.375,-0.125c-0.125,-0 -0.187,-0.063 -0.312,-0.063l-0.375,-0.125c-0.188,-0.062 -0.25,0 -0.313,-0.125c-0.062,-0.062 -0.062,-0.125 -0.062,-0.187c-0,-0.125 0.062,-0.25 0.187,-0.25l1,-0.313c0.438,-0.25 0.875,-0.437 1.188,-0.875c0.5,-0.5 0.687,-1.312 0.687,-2c0,-2.937 -3.875,-3.75 -5.25,-3.875l-0.5,0" style="fill-rule:nonzero;"/></g><g><path d="M1355.53,47.528l-0,-6.688c-0,-0.312 -0.063,-0.562 -0.375,-0.562c-0.25,-0 -0.438,0.062 -0.625,0.312l-1.875,3.625c-0.125,0.125 -0.313,0.313 -0.313,0.75l0,2.563l-4.062,-0c2.562,-2.125 6.562,-9.188 6.625,-9.563c-0,-0.062 0.062,-0.125 0.062,-0.187c0,-0.25 -0.25,-0.438 -0.437,-0.438c-0.313,0 -1.625,0.125 -2.188,0.125c-0.562,0 -0.937,-0.125 -1.187,-0.125c-0.313,0 -0.75,0.125 -0.75,0.625c-0,4 -3.25,8.563 -4.063,9.688c-0.125,0.125 -0.25,0.312 -0.25,0.5c0,0.312 0.25,0.625 0.625,0.625l5.625,-0l0,1.937c0,0.875 -0.5,1.125 -1,1.125c-0.562,0 -0.812,0.25 -0.812,0.563c-0,0.312 0.125,0.687 0.687,0.687l5.375,0c0.313,0 0.625,-0.25 0.625,-0.687c0,-0.438 -0.375,-0.625 -0.687,-0.625c-0.313,-0 -1,-0.188 -1,-1.188l-0,-1.812l2.312,-0c0.313,-0 0.5,-0.25 0.5,-0.625c0,-0.375 -0.125,-0.625 -0.5,-0.625l-2.312,-0" style="fill-rule:nonzero;"/></g><g><path d="M1406.99,47.528l-0,-6.688c-0,-0.312 -0.063,-0.562 -0.375,-0.562c-0.25,-0 -0.438,0.062 -0.625,0.312l-1.875,3.625c-0.125,0.125 -0.313,0.313 -0.313,0.75l0,2.563l-4.062,-0c2.562,-2.125 6.562,-9.188 6.625,-9.563c-0,-0.062 0.062,-0.125 0.062,-0.187c0,-0.25 -0.25,-0.438 -0.437,-0.438c-0.313,0 -1.625,0.125 -2.188,0.125c-0.562,0 -0.937,-0.125 -1.187,-0.125c-0.313,0 -0.75,0.125 -0.75,0.625c-0,4 -3.25,8.563 -4.063,9.688c-0.125,0.125 -0.25,0.312 -0.25,0.5c0,0.312 0.25,0.625 0.625,0.625l5.625,-0l0,1.937c0,0.875 -0.5,1.125 -1,1.125c-0.562,0 -0.812,0.25 -0.812,0.563c-0,0.312 0.125,0.687 0.687,0.687l5.375,0c0.313,0 0.625,-0.25 0.625,-0.687c0,-0.438 -0.375,-0.625 -0.687,-0.625c-0.313,-0 -1,-0.188 -1,-1.188l-0,-1.812l2.312,-0c0.313,-0 0.5,-0.25 0.5,-0.625c0,-0.375 -0.125,-0.625 -0.5,-0.625l-2.312,-0" style="fill-rule:nonzero;"/></g><g><path d="M1454.48,45.104c-3.437,0 -4.937,2.313 -4.937,3.625c-0,0.875 0.5,1.938 2.062,2c1.188,0 1.75,-0.75 1.75,-1.562l0,-0.25c-0.062,-0.938 -0.687,-1 -0.812,-1.063c-0.125,-0.062 -0.375,-0.312 -0.375,-0.75c0.125,-0.687 1.062,-0.937 1.312,-0.937c3.188,-0 4.125,1.687 4.125,2.75c0,2.937 -3,3.187 -3.937,3.25c-0.438,-0 -0.875,0.187 -0.875,0.562c-0,0.375 0.562,0.375 0.812,0.375c3.625,0 4.125,1.875 4.125,2.813c0,3.625 -2.937,3.75 -3.687,3.75c-0.375,-0 -1,-0.188 -1.063,-0.5l0,-0.375c0,-0.688 0.188,-1.438 0.25,-2.063c0,-1.125 -0.75,-1.812 -1.875,-1.812l-0.25,-0c-0.437,0.125 -0.875,0.375 -1.187,0.687c-0.438,0.375 -0.563,0.938 -0.563,1.5c0.063,2 1.813,3.688 4.938,3.75l0.375,0c3.062,0 6.25,-1.625 6.25,-4.375c-0,-0.625 -0.125,-1.125 -0.313,-1.5c-0.125,-0.375 -0.375,-0.687 -0.625,-0.937c-0.187,-0.25 -0.437,-0.438 -0.687,-0.625l-0.688,-0.375l-0.375,-0.125c-0.125,-0 -0.187,-0.063 -0.312,-0.063l-0.375,-0.125c-0.188,-0.062 -0.25,0 -0.313,-0.125c-0.062,-0.062 -0.062,-0.125 -0.062,-0.187c-0,-0.125 0.062,-0.25 0.187,-0.25l1,-0.313c0.438,-0.25 0.875,-0.437 1.188,-0.875c0.5,-0.5 0.687,-1.312 0.687,-2c0,-2.937 -3.875,-3.75 -5.25,-3.875l-0.5,0" style="fill-rule:nonzero;"/></g><g><path d="M1512.78,63.409c0,-0.438 -0.187,-0.5 -0.375,-0.5c-0.25,-0 -0.375,0.187 -0.437,0.375c-0.313,0.875 -1,2 -1.938,2c-0.125,-0 -0.25,-0 -0.375,-0.063l-0.937,-0.312c-0.625,-0.25 -2.125,-0.75 -3.375,-0.75c-0.438,-0 -0.813,0.062 -1.188,0.187c0.688,-1.187 3.938,-2.75 4.625,-2.937c2.25,-0.313 4.125,-1.625 4.125,-4.063c0,-1.5 -0.625,-2.5 -1.437,-3.25c-1.625,-1.312 -4,-1.5 -4.688,-1.5c-2.25,0 -4.062,0.125 -5.687,2c-0.438,0.5 -0.625,1 -0.625,1.5c-0,0.438 0.187,0.938 0.375,1.5c0.375,0.75 1.187,1.313 2.062,1.313c1.563,-0 1.75,-1.5 1.75,-2.188c0,-1.437 -1.562,-1.562 -1.562,-2.187c-0,-0.438 0.625,-1.188 2.5,-1.188c2.937,0 3.937,2.438 3.937,3.188c0,1.125 -0.375,2.187 -1,3.062c-1.125,1.438 -3.187,1.938 -4.75,2.938c-1.75,1.062 -2.937,2.875 -3.5,4.875c0,0.437 0.188,0.937 0.563,1.125c0.062,0.062 0.187,0.062 0.25,0.062c0.687,0 1.062,-1.937 2.937,-1.937c1.25,-0 1.688,1.687 4.5,1.687c1.313,0 3.75,-0.125 4.25,-4.937" style="fill-rule:nonzero;"/></g><g><path d="M1554.46,67.792c-0,-0 -0.063,0.25 -0.063,0.437c0,0.25 0.25,0.5 0.5,0.5c0.188,0 0.313,-0.187 0.375,-0.25c0.063,-0.187 0.813,-2.75 1.188,-3.375c0.125,-0.25 0.25,-0.312 0.312,-0.312c0.125,-0 0.188,0.25 0.188,0.437l-0,8.938c-0,0.75 -0.625,1.187 -1.25,1.187c-0.25,0 -0.563,0.125 -0.563,0.5c0,0.375 0.313,0.5 0.813,0.5l5.25,0c0.5,0 0.5,-0.5 0.5,-0.5c-0,0 -0,-0.5 -0.5,-0.5c-0.438,0 -1,-0.562 -1,-1.125l-0,-13c-0,-0.5 -0.188,-0.75 -0.625,-0.75c-0.438,0 -0.813,0.125 -1.188,0.125c-0.625,0 -0.75,0 -1.25,-0.125c-0.25,0 -0.562,0.375 -0.75,0.625l-1.937,6.688" style="fill-rule:nonzero;"/></g><g><path d="M1612.83,78.528l0,-6.688c0,-0.312 -0.062,-0.562 -0.375,-0.562c-0.25,-0 -0.437,0.062 -0.625,0.312l-1.875,3.625c-0.125,0.125 -0.312,0.313 -0.312,0.75l-0,2.563l-4.063,-0c2.563,-2.125 6.563,-9.188 6.625,-9.563c0,-0.062 0.063,-0.125 0.063,-0.187c-0,-0.25 -0.25,-0.438 -0.438,-0.438c-0.312,0 -1.625,0.125 -2.187,0.125c-0.563,0 -0.938,-0.125 -1.188,-0.125c-0.312,0 -0.75,0.125 -0.75,0.625c0,4 -3.25,8.563 -4.062,9.688c-0.125,0.125 -0.25,0.312 -0.25,0.5c-0,0.312 0.25,0.625 0.625,0.625l5.625,-0l-0,1.937c-0,0.875 -0.5,1.125 -1,1.125c-0.563,0 -0.813,0.25 -0.813,0.563c0,0.312 0.125,0.687 0.688,0.687l5.375,0c0.312,0 0.625,-0.25 0.625,-0.687c-0,-0.438 -0.375,-0.625 -0.688,-0.625c-0.312,-0 -1,-0.188 -1,-1.188l0,-1.812l2.313,-0c0.312,-0 0.5,-0.25 0.5,-0.625c-0,-0.375 -0.125,-0.625 -0.5,-0.625l-2.313,-0" style="fill-rule:nonzero;"/></g><g><path d="M1675.19,86.659c-0,-0.438 -0.188,-0.5 -0.375,-0.5c-0.25,-0 -0.375,0.187 -0.438,0.375c-0.312,0.875 -1,2 -1.937,2c-0.125,-0 -0.25,-0 -0.375,-0.063l-0.938,-0.312c-0.625,-0.25 -2.125,-0.75 -3.375,-0.75c-0.437,-0 -0.812,0.062 -1.187,0.187c0.687,-1.187 3.937,-2.75 4.625,-2.937c2.25,-0.313 4.125,-1.625 4.125,-4.063c-0,-1.5 -0.625,-2.5 -1.438,-3.25c-1.625,-1.312 -4,-1.5 -4.687,-1.5c-2.25,0 -4.063,0.125 -5.688,2c-0.437,0.5 -0.625,1 -0.625,1.5c0,0.438 0.188,0.938 0.375,1.5c0.375,0.75 1.188,1.313 2.063,1.313c1.562,-0 1.75,-1.5 1.75,-2.188c-0,-1.437 -1.563,-1.562 -1.563,-2.187c0,-0.438 0.625,-1.188 2.5,-1.188c2.938,0 3.938,2.438 3.938,3.188c-0,1.125 -0.375,2.187 -1,3.062c-1.125,1.438 -3.188,1.938 -4.75,2.938c-1.75,1.062 -2.938,2.875 -3.5,4.875c-0,0.437 0.187,0.937 0.562,1.125c0.063,0.062 0.188,0.062 0.25,0.062c0.688,0 1.063,-1.937 2.938,-1.937c1.25,-0 1.687,1.687 4.5,1.687c1.312,0 3.75,-0.125 4.25,-4.937" style="fill-rule:nonzero;"/></g><g><path d="M1724.91,91.041c0,0 -0.062,0.25 -0.062,0.438c-0,0.25 0.25,0.5 0.5,0.5c0.187,-0 0.312,-0.188 0.375,-0.25c0.062,-0.188 0.812,-2.75 1.187,-3.375c0.125,-0.25 0.25,-0.313 0.313,-0.313c0.125,0 0.187,0.25 0.187,0.438l0,8.937c0,0.75 -0.625,1.188 -1.25,1.188c-0.25,-0 -0.562,0.125 -0.562,0.5c-0,0.375 0.312,0.5 0.812,0.5l5.25,-0c0.5,-0 0.5,-0.5 0.5,-0.5c0,-0 0,-0.5 -0.5,-0.5c-0.437,-0 -1,-0.563 -1,-1.125l0,-13c0,-0.5 -0.187,-0.75 -0.625,-0.75c-0.437,-0 -0.812,0.125 -1.187,0.125c-0.625,-0 -0.75,-0 -1.25,-0.125c-0.25,-0 -0.563,0.375 -0.75,0.625l-1.938,6.687" style="fill-rule:nonzero;"/></g><g><path d="M221.857,231.479c5.562,-0 12.375,-5.125 12.375,-10.438c-0,-3.187 -2.5,-5.187 -6.063,-5.187c-6.875,-0 -12.375,5.062 -12.375,10.437c0,3.25 2.688,5.188 6.063,5.188" style="fill-rule:nonzero;"/></g><g><path d="M281.35,223.729c5.563,-0 12.375,-5.125 12.375,-10.438c0,-3.187 -2.5,-5.187 -6.062,-5.187c-6.875,-0 -12.375,5.062 -12.375,10.437c-0,3.25 2.687,5.188 6.062,5.188" style="fill-rule:nonzero;"/></g><g><path d="M340.844,215.979c5.562,-0 12.375,-5.125 12.375,-10.438c-0,-3.187 -2.5,-5.187 -6.063,-5.187c-6.875,-0 -12.375,5.062 -12.375,10.437c0,3.25 2.688,5.188 6.063,5.188" style="fill-rule:nonzero;"/></g><g><path d="M385.319,203.229c-0.375,1.25 -3.313,2.5 -4.75,2.5c-0.375,-0 -0.688,-0.125 -0.75,-0.313c-0.125,-0.25 -0.188,-1.625 -0.188,-3.125c0,-1.937 0.063,-4.125 0.188,-4.625c0.125,-1.062 3,-2.375 4.562,-2.375c0.438,0 0.813,0.125 0.938,0.375c0.125,0.313 0.25,1.875 0.25,3.563c-0,1.687 -0.125,3.437 -0.25,4m4.312,-10.188c0.438,-0.187 0.75,-0.687 0.75,-1.062l0,-4.438c0,-0.312 -0.187,-0.5 -0.437,-0.5c-0.125,0 -0.188,0 -0.313,0.063c0,-0 -1.25,0.5 -1.562,0.562c-0.438,0 -0.875,-0.312 -0.875,-0.812l-0,-7.625c-0,-0.375 -0.375,-0.688 -0.875,-0.688c-0.625,0 -1,0.313 -1,0.688l-0,8.125c-0.063,0.625 -0.25,1.437 -0.813,1.812c-0.75,0.438 -2.875,1.313 -3.937,1.563c-0.563,-0 -0.75,-0.75 -0.75,-1.25l-0,-7.5c-0,-0.375 -0.438,-0.688 -0.875,-0.688c-0.625,0 -1,0.313 -1,0.688l-0,8.437c-0,0.875 -0.375,1.5 -0.75,1.688c-0.375,0.187 -1.625,0.687 -1.625,0.687c-0.438,0.125 -0.75,0.625 -0.75,1l-0,4.438c-0,0.375 0.187,0.562 0.5,0.562c0.25,0 1.437,-0.562 1.625,-0.687c0.062,-0 0.125,-0.063 0.187,-0.063c0.438,0 0.813,0.625 0.813,1.125l-0,6.188c-0,0.687 -0.313,1.25 -0.688,1.437c-0.375,0.125 -1.687,0.688 -1.687,0.688c-0.438,0.125 -0.75,0.625 -0.75,1l-0,4.437c-0,0.375 0.187,0.563 0.5,0.563c0.062,-0 0.187,-0.063 0.25,-0.063c-0,0 0.875,-0.375 1.437,-0.562c0.063,-0.063 0.125,-0.063 0.188,-0.063c0.437,0 0.75,0.688 0.75,1l-0,7.688c-0,0.375 0.375,0.687 0.812,0.687c0.625,0 1.063,-0.312 1.063,-0.687l-0,-8.688c-0,-0.812 0.312,-1.25 0.625,-1.375l3.812,-1.562c0.063,-0 0.188,-0.063 0.25,-0.063c0.5,0 0.813,0.75 0.813,1.125l-0,7.813c-0,0.375 0.375,0.687 0.812,0.687c0.688,0 1.063,-0.312 1.063,-0.687l-0,-8.875c-0,-0.5 0.25,-1.25 0.687,-1.438c0.438,-0.187 1.75,-0.687 1.75,-0.687c0.438,-0.188 0.75,-0.688 0.75,-1.063l0,-4.437c0,-0.313 -0.187,-0.5 -0.437,-0.5c-0.125,-0 -0.188,-0 -0.313,0.062l-1.625,0.625c-0.375,0 -0.812,-0.375 -0.812,-1.125l-0,-5.812c-0,-0.438 0.312,-1.625 0.812,-1.813l1.625,-0.625" style="fill-rule:nonzero;"/></g><g><path d="M400.306,208.229c5.563,-0 12.375,-5.125 12.375,-10.438c0,-3.187 -2.5,-5.187 -6.062,-5.187c-6.875,-0 -12.375,5.062 -12.375,10.437c-0,3.25 2.687,5.188 6.062,5.188" style="fill-rule:nonzero;"/></g><g><path d="M451.775,200.479c5.563,-0 12.375,-5.125 12.375,-10.438c0,-3.187 -2.5,-5.187 -6.062,-5.187c-6.875,-0 -12.375,5.062 -12.375,10.437c-0,3.25 2.687,5.188 6.062,5.188" style="fill-rule:nonzero;"/></g><g><path d="M503.244,192.729c5.562,-0 12.375,-5.125 12.375,-10.438c-0,-3.187 -2.5,-5.187 -6.063,-5.187c-6.875,-0 -12.375,5.062 -12.375,10.437c0,3.25 2.688,5.188 6.063,5.188" style="fill-rule:nonzero;"/></g><g><path d="M554.716,184.979c5.562,-0 12.375,-5.125 12.375,-10.438c-0,-3.187 -2.5,-5.187 -6.063,-5.187c-6.875,-0 -12.375,5.062 -12.375,10.437c0,3.25 2.688,5.188 6.063,5.188" style="fill-rule:nonzero;"/></g><g><path d="M606.184,177.229c5.563,-0 12.375,-5.125 12.375,-10.438c0,-3.187 -2.5,-5.187 -6.062,-5.187c-6.875,-0 -12.375,5.062 -12.375,10.437c-0,3.25 2.687,5.188 6.062,5.188" style="fill-rule:nonzero;"/></g><g><path d="M665.678,169.479c5.562,-0 12.375,-5.125 12.375,-10.438c-0,-3.187 -2.5,-5.187 -6.063,-5.187c-6.875,-0 -12.375,5.062 -12.375,10.437c0,3.25 2.688,5.188 6.063,5.188" style="fill-rule:nonzero;"/></g><g><path d="M725.172,161.729c5.562,-0 12.375,-5.125 12.375,-10.438c-0,-3.187 -2.5,-5.187 -6.063,-5.187c-6.875,-0 -12.375,5.062 -12.375,10.437c0,3.25 2.688,5.188 6.063,5.188" style="fill-rule:nonzero;"/></g><g><path d="M769.628,148.979c-0.375,1.25 -3.313,2.5 -4.75,2.5c-0.375,-0 -0.688,-0.125 -0.75,-0.313c-0.125,-0.25 -0.188,-1.625 -0.188,-3.125c0,-1.937 0.063,-4.125 0.188,-4.625c0.125,-1.062 3,-2.375 4.562,-2.375c0.438,0 0.813,0.125 0.938,0.375c0.125,0.313 0.25,1.875 0.25,3.563c-0,1.687 -0.125,3.437 -0.25,4m4.312,-10.188c0.438,-0.187 0.75,-0.687 0.75,-1.062l0,-4.438c0,-0.312 -0.187,-0.5 -0.437,-0.5c-0.125,0 -0.188,0 -0.313,0.063c0,-0 -1.25,0.5 -1.562,0.562c-0.438,0 -0.875,-0.312 -0.875,-0.812l-0,-7.625c-0,-0.375 -0.375,-0.688 -0.875,-0.688c-0.625,0 -1,0.313 -1,0.688l-0,8.125c-0.063,0.625 -0.25,1.437 -0.813,1.812c-0.75,0.438 -2.875,1.313 -3.937,1.563c-0.563,-0 -0.75,-0.75 -0.75,-1.25l-0,-7.5c-0,-0.375 -0.438,-0.688 -0.875,-0.688c-0.625,0 -1,0.313 -1,0.688l-0,8.437c-0,0.875 -0.375,1.5 -0.75,1.688c-0.375,0.187 -1.625,0.687 -1.625,0.687c-0.438,0.125 -0.75,0.625 -0.75,1l-0,4.438c-0,0.375 0.187,0.562 0.5,0.562c0.25,0 1.437,-0.562 1.625,-0.687c0.062,-0 0.125,-0.063 0.187,-0.063c0.438,0 0.813,0.625 0.813,1.125l-0,6.188c-0,0.687 -0.313,1.25 -0.688,1.437c-0.375,0.125 -1.687,0.688 -1.687,0.688c-0.438,0.125 -0.75,0.625 -0.75,1l-0,4.437c-0,0.375 0.187,0.563 0.5,0.563c0.062,-0 0.187,-0.063 0.25,-0.063c-0,0 0.875,-0.375 1.437,-0.562c0.063,-0.063 0.125,-0.063 0.188,-0.063c0.437,0 0.75,0.688 0.75,1l-0,7.688c-0,0.375 0.375,0.687 0.812,0.687c0.625,0 1.063,-0.312 1.063,-0.687l-0,-8.688c-0,-0.812 0.312,-1.25 0.625,-1.375l3.812,-1.562c0.063,-0 0.188,-0.063 0.25,-0.063c0.5,0 0.813,0.75 0.813,1.125l-0,7.813c-0,0.375 0.375,0.687 0.812,0.687c0.688,0 1.063,-0.312 1.063,-0.687l-0,-8.875c-0,-0.5 0.25,-1.25 0.687,-1.438c0.438,-0.187 1.75,-0.687 1.75,-0.687c0.438,-0.188 0.75,-0.688 0.75,-1.063l0,-4.437c0,-0.313 -0.187,-0.5 -0.437,-0.5c-0.125,-0 -0.188,-0 -0.313,0.062l-1.625,0.625c-0.375,0 -0.812,-0.375 -0.812,-1.125l-0,-5.812c-0,-0.438 0.312,-1.625 0.812,-1.813l1.625,-0.625" style="fill-rule:nonzero;"/></g><g><path d="M784.619,153.979c5.562,-0 12.374,-5.125 12.374,-10.438c0,-3.187 -2.499,-5.187 -6.062,-5.187c-6.875,-0 -12.375,5.062 -12.375,10.437c0,3.25 2.688,5.188 6.063,5.188" style="fill-rule:nonzero;"/></g><g><path d="M836.087,146.229c5.563,-0 12.375,-5.125 12.375,-10.438c0,-3.187 -2.5,-5.187 -6.062,-5.187c-6.875,-0 -12.375,5.062 -12.375,10.437c-0,3.25 2.687,5.188 6.062,5.188" style="fill-rule:nonzero;"/></g><g><path d="M887.556,138.479c5.562,-0 12.375,-5.125 12.375,-10.438c-0,-3.187 -2.5,-5.187 -6.063,-5.187c-6.875,-0 -12.375,5.062 -12.375,10.437c0,3.25 2.688,5.188 6.063,5.188" style="fill-rule:nonzero;"/></g><g><path d="M939.025,130.729c5.562,-0 12.375,-5.125 12.375,-10.438c-0,-3.187 -2.5,-5.187 -6.063,-5.187c-6.875,-0 -12.375,5.062 -12.375,10.437c0,3.25 2.688,5.188 6.063,5.188" style="fill-rule:nonzero;"/></g><g><path d="M1016.26,122.979c5.562,-0 12.375,-5.125 12.375,-10.438c-0,-3.187 -2.5,-5.187 -6.063,-5.187c-6.875,-0 -12.375,5.062 -12.375,10.437c0,3.25 2.688,5.188 6.063,5.188" style="fill-rule:nonzero;"/></g><g><path d="M1075.75,115.229c5.562,-0 12.375,-5.125 12.375,-10.438c-0,-3.187 -2.5,-5.187 -6.063,-5.187c-6.875,-0 -12.375,5.062 -12.375,10.437c0,3.25 2.688,5.188 6.063,5.188" style="fill-rule:nonzero;"/></g><g><path d="M1135.24,107.479c5.563,-0 12.375,-5.125 12.375,-10.438c0,-3.187 -2.5,-5.187 -6.062,-5.187c-6.875,-0 -12.375,5.062 -12.375,10.437c-0,3.25 2.687,5.188 6.062,5.188" style="fill-rule:nonzero;"/></g><g><path d="M1179.71,94.729c-0.375,1.25 -3.312,2.5 -4.75,2.5c-0.375,-0 -0.687,-0.125 -0.75,-0.313c-0.125,-0.25 -0.187,-1.625 -0.187,-3.125c-0,-1.937 0.062,-4.125 0.187,-4.625c0.125,-1.062 3,-2.375 4.563,-2.375c0.437,0 0.812,0.125 0.937,0.375c0.125,0.313 0.25,1.875 0.25,3.563c0,1.687 -0.125,3.437 -0.25,4m4.313,-10.188c0.437,-0.187 0.75,-0.687 0.75,-1.062l-0,-4.437c-0,-0.313 -0.188,-0.5 -0.438,-0.5c-0.125,-0 -0.187,-0 -0.312,0.062c-0,0 -1.25,0.5 -1.563,0.563c-0.437,-0 -0.875,-0.313 -0.875,-0.813l0,-7.625c0,-0.375 -0.375,-0.687 -0.875,-0.687c-0.625,-0 -1,0.312 -1,0.687l0,8.125c-0.062,0.625 -0.25,1.437 -0.812,1.812c-0.75,0.438 -2.875,1.313 -3.938,1.563c-0.562,-0 -0.75,-0.75 -0.75,-1.25l0,-7.5c0,-0.375 -0.437,-0.687 -0.875,-0.687c-0.625,-0 -1,0.312 -1,0.687l0,8.437c0,0.875 -0.375,1.5 -0.75,1.688c-0.375,0.187 -1.625,0.687 -1.625,0.687c-0.437,0.125 -0.75,0.625 -0.75,1l0,4.438c0,0.375 0.188,0.562 0.5,0.562c0.25,0 1.438,-0.562 1.625,-0.687c0.063,-0 0.125,-0.063 0.188,-0.063c0.437,0 0.812,0.625 0.812,1.125l0,6.188c0,0.687 -0.312,1.25 -0.687,1.437c-0.375,0.125 -1.688,0.688 -1.688,0.688c-0.437,0.125 -0.75,0.625 -0.75,1l0,4.437c0,0.375 0.188,0.563 0.5,0.563c0.063,-0 0.188,-0.063 0.25,-0.063c0,0 0.875,-0.375 1.438,-0.562c0.062,-0.063 0.125,-0.063 0.187,-0.063c0.438,0 0.75,0.688 0.75,1l0,7.688c0,0.375 0.375,0.687 0.813,0.687c0.625,0 1.062,-0.312 1.062,-0.687l0,-8.688c0,-0.812 0.313,-1.25 0.625,-1.375l3.813,-1.562c0.062,-0 0.187,-0.063 0.25,-0.063c0.5,0 0.812,0.75 0.812,1.125l0,7.813c0,0.375 0.375,0.687 0.813,0.687c0.687,0 1.062,-0.312 1.062,-0.687l0,-8.875c0,-0.5 0.25,-1.25 0.688,-1.438c0.437,-0.187 1.75,-0.687 1.75,-0.687c0.437,-0.188 0.75,-0.688 0.75,-1.063l-0,-4.437c-0,-0.313 -0.188,-0.5 -0.438,-0.5c-0.125,-0 -0.187,-0 -0.312,0.062l-1.625,0.625c-0.375,0 -0.813,-0.375 -0.813,-1.125l0,-5.812c0,-0.438 0.313,-1.625 0.813,-1.813l1.625,-0.625" style="fill-rule:nonzero;"/></g><g><path d="M1194.71,99.729c5.562,-0 12.375,-5.125 12.375,-10.438c-0,-3.187 -2.5,-5.187 -6.063,-5.187c-6.875,-0 -12.375,5.062 -12.375,10.437c0,3.25 2.688,5.188 6.063,5.188" style="fill-rule:nonzero;"/></g><g><path d="M1246.15,91.979c5.563,-0 12.375,-5.125 12.375,-10.438c0,-3.187 -2.5,-5.187 -6.062,-5.187c-6.875,0 -12.375,5.062 -12.375,10.437c-0,3.25 2.687,5.188 6.062,5.188" style="fill-rule:nonzero;"/></g><g><path d="M1297.59,84.229c5.562,-0 12.375,-5.125 12.375,-10.437c-0,-3.188 -2.5,-5.188 -6.063,-5.188c-6.875,0 -12.375,5.063 -12.375,10.438c0,3.249 2.688,5.187 6.063,5.187" style="fill-rule:nonzero;"/></g><g><path d="M1349.05,76.479c5.563,0 12.375,-5.125 12.375,-10.437c0,-3.188 -2.5,-5.188 -6.062,-5.188c-6.875,0 -12.375,5.063 -12.375,10.438c-0,3.25 2.687,5.187 6.062,5.187" style="fill-rule:nonzero;"/></g><g><path d="M1400.51,76.479c5.562,0 12.375,-5.125 12.375,-10.437c-0,-3.188 -2.5,-5.188 -6.063,-5.188c-6.875,0 -12.375,5.063 -12.375,10.438c0,3.25 2.688,5.187 6.063,5.187" style="fill-rule:nonzero;"/></g><g><path d="M1451.97,84.229c5.563,-0 12.375,-5.125 12.375,-10.437c0,-3.188 -2.5,-5.188 -6.062,-5.188c-6.875,0 -12.375,5.063 -12.375,10.438c-0,3.249 2.687,5.187 6.062,5.187" style="fill-rule:nonzero;"/></g><g><path d="M1503.43,91.979c5.563,-0 12.375,-5.125 12.375,-10.438c0,-3.187 -2.5,-5.187 -6.062,-5.187c-6.875,0 -12.375,5.062 -12.375,10.437c-0,3.25 2.687,5.188 6.062,5.188" style="fill-rule:nonzero;"/></g><g><path d="M1554.89,99.729c5.562,-0 12.375,-5.125 12.375,-10.438c-0,-3.187 -2.5,-5.187 -6.063,-5.187c-6.875,-0 -12.375,5.062 -12.375,10.437c0,3.25 2.688,5.188 6.063,5.188" style="fill-rule:nonzero;"/></g><g><path d="M1606.35,107.479c5.563,-0 12.375,-5.125 12.375,-10.438c0,-3.187 -2.5,-5.187 -6.062,-5.187c-6.875,-0 -12.375,5.062 -12.375,10.437c-0,3.25 2.687,5.188 6.062,5.188" style="fill-rule:nonzero;"/></g><g><path d="M1665.84,115.229c5.562,-0 12.375,-5.125 12.375,-10.438c-0,-3.187 -2.5,-5.187 -6.063,-5.187c-6.875,-0 -12.375,5.062 -12.375,10.437c0,3.25 2.688,5.188 6.063,5.188" style="fill-rule:nonzero;"/></g><g><path d="M1725.34,122.979c5.562,-0 12.375,-5.125 12.375,-10.438c-0,-3.187 -2.5,-5.187 -6.063,-5.187c-6.875,-0 -12.375,5.062 -12.375,10.437c0,3.25 2.688,5.188 6.063,5.188" style="fill-rule:nonzero;"/></g><g><path d="M161.563,153.041c0.187,1.188 0.187,1.125 -0.938,1.5c-5.5,1.875 -9.062,6.813 -9.062,12.125c-0,5.625 2.937,9.625 7.187,11.063c0.5,0.187 1.25,0.375 1.688,0.375c0.5,-0 0.75,-0.313 0.75,-0.688c-0,-0.437 -0.5,-0.625 -0.938,-0.812c-2.625,-1.125 -4.5,-3.813 -4.5,-6.688c0,-3.562 2.438,-6.25 6.25,-7.312c1,-0.25 1.125,-0.188 1.25,0.5l3.125,18.625c0.125,0.687 0.063,0.687 -0.875,0.875c-1,0.187 -2.25,0.312 -3.5,0.312c-10.937,0 -18,-6.062 -18,-14.75c0,-3.687 0.625,-8.625 5.813,-14.5c3.75,-4.187 6.625,-6.5 9.562,-8.875c0.625,-0.5 0.75,-0.437 0.875,0.25l1.313,8m6.812,-42.562c2.063,-0 3.75,1.687 3.75,5.125c0,6.937 -5.937,12.562 -10.875,16.875c-0.437,0.375 -0.687,0.312 -0.812,-0.5c-0.25,-1.625 -0.375,-3.75 -0.375,-5.75c-0,-9.75 4.5,-15.75 8.312,-15.75m-2.5,52.5c-0.125,-0.75 -0.062,-0.938 0.688,-0.875c5.062,0.437 9.25,4.687 9.25,10.187c-0,3.938 -2.375,7.125 -5.875,8.875c-0.75,0.375 -0.875,0.375 -1,-0.375l-3.063,-17.812m-3.375,-19.5c-0.125,-0.75 0,-0.813 0.375,-1.188c6.75,-6.312 11.875,-14.25 11.875,-23.812c0,-5.438 -1.5,-10.813 -4.062,-14.563c-0.938,-1.375 -2.563,-3.125 -3.25,-3.125c-0.875,0 -2.813,1.625 -4.063,3c-4.625,5.125 -6.125,12.938 -6.125,19.438c0,3.625 0.438,7.687 0.875,10.25c0.125,0.75 0.188,0.875 -0.562,1.5c-9,7.437 -18.563,16.375 -18.563,29c0,10.875 7.438,21.187 22.75,21.187c1.438,0 3.063,-0.125 4.313,-0.375c0.687,-0.125 0.812,-0.187 0.937,0.563c0.75,4.187 1.688,9.625 1.688,12.562c-0,9.25 -6.25,10.375 -9.938,10.375c-3.375,0 -5,-1 -5,-1.812c0,-0.438 0.563,-0.625 2,-1.063c1.938,-0.562 4.188,-2.25 4.188,-5.875c-0,-3.437 -2.188,-6.375 -6,-6.375c-4.188,0 -6.688,3.313 -6.688,7.188c0,4.062 2.438,10.187 11.875,10.187c4.188,0 12.313,-1.875 12.313,-12.5c-0,-3.562 -1.125,-9.5 -1.813,-13.375c-0.125,-0.75 -0.062,-0.687 0.813,-1.062c6.312,-2.5 10.5,-7.813 10.5,-14.875c-0,-8 -5.875,-15.063 -15.063,-15.063c-1.625,0 -1.625,0 -1.812,-1.125l-1.563,-9.062" style="fill-rule:nonzero;"/></g><g><text x="275.263px" y="251.658px" style="font-family:'Bravura';font-size:62.5px;"></text></g><g><text x="659.59px" y="212.229px" style="font-family:'Bravura';font-size:62.5px;"></text></g><g><text x="1060.45px" y="212.229px" style="font-family:'Bravura';font-size:62.5px;"></text></g><g><text x="1650.54px" y="212.229px" style="font-family:'Bravura';font-size:62.5px;"></text></g><g><path d="M232.376,161.666l-0,-7.765l120.843,-7.75l0,7.765l-120.843,7.75" style="fill-rule:nonzero;"/></g><g><path d="M410.813,146.076l-0,-7.813l156.281,-19.375l0,7.813l-156.281,19.375" style="fill-rule:nonzero;"/></g><g><path d="M410.813,157.791l-0,-7.809l156.281,-19.375l0,7.809l-156.281,19.375" style="fill-rule:nonzero;"/></g><g><path d="M616.688,122.916l-0,-7.786l120.843,-11.625l0,7.786l-120.843,11.625" style="fill-rule:nonzero;"/></g><g><path d="M778.563,200.513l-0,-7.787l156.25,-15.5l-0,7.787l-156.25,15.5" style="fill-rule:nonzero;"/></g><g><path d="M778.563,188.829l-0,-7.788l156.25,-15.5l-0,7.788l-156.25,15.5" style="fill-rule:nonzero;"/></g><g><path d="M1010.19,173.357l0,-7.816l120.844,-15.5l0,7.816l-120.844,15.5" style="fill-rule:nonzero;"/></g><g><path d="M1188.66,157.798l0,-7.753l156.187,-3.875l0,7.753l-156.187,3.875" style="fill-rule:nonzero;"/></g><g><path d="M1188.66,146.17l0,-7.754l156.187,-3.875l0,7.754l-156.187,3.875" style="fill-rule:nonzero;"/></g><g><path d="M1394.44,153.923l0,-7.753l156.25,3.875l0,7.753l-156.25,-3.875" style="fill-rule:nonzero;"/></g><g><path d="M1394.44,142.295l0,-7.754l156.25,3.875l0,7.754l-156.25,-3.875" style="fill-rule:nonzero;"/></g><g><path d="M1600.28,157.857l-0,-7.816l120.843,15.5l0,7.816l-120.843,-15.5" style="fill-rule:nonzero;"/></g><g><path d="M210.688,249.379l56.875,-7.05l0,-2.5l-54.406,6.744l-0,-8.819l-2.469,-0" style="fill-rule:nonzero;"/></g><g><path d="M354.469,231.479l-53.031,6.559l0,-2.5l50.531,-6.403l0,-9.281l2.5,-0" style="fill-rule:nonzero;"/></g><g><path d="M595,200.754l56.844,-0l-0,-2.478l-54.344,-0l0,-9.147l-2.5,-0" style="fill-rule:nonzero;"/></g><g><path d="M738.781,200.754l-52.968,-0l-0,-2.478l50.5,-0l-0,-9.147l2.468,-0" style="fill-rule:nonzero;"/></g><g><path d="M131.251,401.916l738.093,0" style="fill:none;stroke:#000;stroke-width:2.01px;"/><path d="M131.251,339.916l738.093,0" style="fill:none;stroke:#000;stroke-width:2.01px;"/><path d="M131.251,355.416l738.093,0" style="fill:none;stroke:#000;stroke-width:2.01px;"/><path d="M131.251,370.916l738.093,0" style="fill:none;stroke:#000;stroke-width:2.01px;"/><path d="M131.251,386.416l738.093,0" style="fill:none;stroke:#000;stroke-width:2.01px;"/></g><g><path d="M709.625,338.91l0,64.012" style="fill:none;stroke:#000;stroke-width:2.48px;"/><path d="M859.406,338.91l0,64.012" style="fill:none;stroke:#000;stroke-width:2.48px;"/><path d="M868.094,338.91l-0,64.012" style="fill:none;stroke:#000;stroke-width:2.48px;"/></g><g><path d="M216.719,342.519l0,55.728" style="fill:none;stroke:#000;stroke-width:1.86px;"/><path d="M247.719,350.269l0,52.528" style="fill:none;stroke:#000;stroke-width:1.86px;"/><path d="M278.751,358.019l-0,49.325" style="fill:none;stroke:#000;stroke-width:1.86px;"/><path d="M322.407,365.769l-0,47.978" style="fill:none;stroke:#000;stroke-width:1.86px;"/><path d="M370,324.316l0,43.997" style="fill:none;stroke:#000;stroke-width:1.86px;"/><path d="M405.813,330.129l-0,45.934" style="fill:none;stroke:#000;stroke-width:1.86px;"/><path d="M441.657,335.941l-0,47.872" style="fill:none;stroke:#000;stroke-width:1.86px;"/><path d="M477.5,339.594l0,51.969" style="fill:none;stroke:#000;stroke-width:1.86px;"/><path d="M508.5,345.276l0,54.037" style="fill:none;stroke:#000;stroke-width:1.86px;"/><path d="M539.532,350.96l-0,56.103" style="fill:none;stroke:#000;stroke-width:1.86px;"/><path d="M583.219,358.969l0,55.844" style="fill:none;stroke:#000;stroke-width:1.86px;"/></g><g><path d="M563.125,417.416l27.219,0" style="fill:none;stroke:#000;stroke-width:2.48px;"/></g><g><path d="M617.969,370.904l0,51.659" style="fill:none;stroke:#000;stroke-width:1.86px;"/></g><g><path d="M594.25,417.416l30.844,0" style="fill:none;stroke:#000;stroke-width:2.48px;"/></g><g><path d="M653.813,372.841l-0,57.472" style="fill:none;stroke:#000;stroke-width:1.86px;"/></g><g><path d="M630.094,432.916l30.844,0" style="fill:none;stroke:#000;stroke-width:2.48px;"/><path d="M630.094,417.416l30.844,0" style="fill:none;stroke:#000;stroke-width:2.48px;"/></g><g><path d="M689.625,374.779l0,63.284" style="fill:none;stroke:#000;stroke-width:1.86px;"/></g><g><path d="M665.938,432.916l30.843,0" style="fill:none;stroke:#000;stroke-width:2.48px;"/><path d="M665.938,417.416l30.843,0" style="fill:none;stroke:#000;stroke-width:2.48px;"/><path d="M727.969,432.916l38.75,0" style="fill:none;stroke:#000;stroke-width:2.48px;"/><path d="M727.969,417.416l38.75,0" style="fill:none;stroke:#000;stroke-width:2.48px;"/></g><g><path d="M228.337,318.778l0,-6.688c0,-0.312 -0.062,-0.562 -0.375,-0.562c-0.25,-0 -0.437,0.062 -0.625,0.312l-1.875,3.625c-0.125,0.125 -0.312,0.313 -0.312,0.75l-0,2.563l-4.063,-0c2.563,-2.125 6.563,-9.188 6.625,-9.563c0,-0.062 0.063,-0.125 0.063,-0.187c-0,-0.25 -0.25,-0.438 -0.438,-0.438c-0.312,0 -1.625,0.125 -2.187,0.125c-0.563,0 -0.938,-0.125 -1.188,-0.125c-0.312,0 -0.75,0.125 -0.75,0.625c0,4 -3.25,8.563 -4.062,9.688c-0.125,0.125 -0.25,0.312 -0.25,0.5c-0,0.312 0.25,0.625 0.625,0.625l5.625,-0l-0,1.937c-0,0.875 -0.5,1.125 -1,1.125c-0.563,0 -0.813,0.25 -0.813,0.563c0,0.312 0.125,0.687 0.688,0.687l5.375,0c0.312,0 0.625,-0.25 0.625,-0.687c-0,-0.438 -0.375,-0.625 -0.688,-0.625c-0.312,-0 -1,-0.188 -1,-1.188l0,-1.812l2.313,-0c0.312,-0 0.5,-0.25 0.5,-0.625c-0,-0.375 -0.125,-0.625 -0.5,-0.625l-2.313,-0" style="fill-rule:nonzero;"/></g><g><path d="M259.343,318.79l-0,-6.687c-0,-0.313 -0.063,-0.563 -0.375,-0.563c-0.25,0 -0.438,0.063 -0.625,0.313l-1.875,3.625c-0.125,0.125 -0.313,0.312 -0.313,0.75l0,2.562l-4.062,0c2.562,-2.125 6.562,-9.187 6.625,-9.562c-0,-0.063 0.062,-0.125 0.062,-0.188c0,-0.25 -0.25,-0.437 -0.437,-0.437c-0.313,-0 -1.625,0.125 -2.188,0.125c-0.562,-0 -0.937,-0.125 -1.187,-0.125c-0.313,-0 -0.75,0.125 -0.75,0.625c-0,4 -3.25,8.562 -4.063,9.687c-0.125,0.125 -0.25,0.313 -0.25,0.5c0,0.313 0.25,0.625 0.625,0.625l5.625,0l0,1.938c0,0.875 -0.5,1.125 -1,1.125c-0.562,-0 -0.812,0.25 -0.812,0.562c-0,0.313 0.125,0.688 0.687,0.688l5.375,-0c0.313,-0 0.625,-0.25 0.625,-0.688c0,-0.437 -0.375,-0.625 -0.687,-0.625c-0.313,0 -1,-0.187 -1,-1.187l-0,-1.813l2.312,0c0.313,0 0.5,-0.25 0.5,-0.625c0,-0.375 -0.125,-0.625 -0.5,-0.625l-2.312,0" style="fill-rule:nonzero;"/></g><g><path d="M293.216,319.415c0,-0.437 -0.187,-0.5 -0.375,-0.5c-0.25,0 -0.375,0.188 -0.437,0.375c-0.313,0.875 -1,2 -1.938,2c-0.125,0 -0.25,0 -0.375,-0.062l-0.937,-0.313c-0.625,-0.25 -2.125,-0.75 -3.375,-0.75c-0.438,0 -0.813,0.063 -1.188,0.188c0.688,-1.188 3.938,-2.75 4.625,-2.938c2.25,-0.312 4.125,-1.625 4.125,-4.062c0,-1.5 -0.625,-2.5 -1.437,-3.25c-1.625,-1.313 -4,-1.5 -4.688,-1.5c-2.25,-0 -4.062,0.125 -5.687,2c-0.438,0.5 -0.625,1 -0.625,1.5c-0,0.437 0.187,0.937 0.375,1.5c0.375,0.75 1.187,1.312 2.062,1.312c1.563,0 1.75,-1.5 1.75,-2.187c0,-1.438 -1.562,-1.563 -1.562,-2.188c-0,-0.437 0.625,-1.187 2.5,-1.187c2.937,-0 3.937,2.437 3.937,3.187c0,1.125 -0.375,2.188 -1,3.063c-1.125,1.437 -3.187,1.937 -4.75,2.937c-1.75,1.063 -2.937,2.875 -3.5,4.875c0,0.438 0.188,0.938 0.563,1.125c0.062,0.063 0.187,0.063 0.25,0.063c0.687,-0 1.062,-1.938 2.937,-1.938c1.25,0 1.688,1.688 4.5,1.688c1.313,-0 3.75,-0.125 4.25,-4.938" style="fill-rule:nonzero;"/></g><g><path d="M327.113,315.853c-0,-0 -0.063,0.25 -0.063,0.437c0,0.25 0.25,0.5 0.5,0.5c0.188,0 0.313,-0.187 0.375,-0.25c0.063,-0.187 0.813,-2.75 1.188,-3.375c0.125,-0.25 0.25,-0.312 0.312,-0.312c0.125,-0 0.188,0.25 0.188,0.437l-0,8.938c-0,0.75 -0.625,1.187 -1.25,1.187c-0.25,0 -0.563,0.125 -0.563,0.5c0,0.375 0.313,0.5 0.813,0.5l5.25,0c0.5,0 0.5,-0.5 0.5,-0.5c-0,0 -0,-0.5 -0.5,-0.5c-0.438,0 -1,-0.562 -1,-1.125l-0,-13c-0,-0.5 -0.188,-0.75 -0.625,-0.75c-0.438,0 -0.813,0.125 -1.188,0.125c-0.625,0 -0.75,0 -1.25,-0.125c-0.25,0 -0.562,0.375 -0.75,0.625l-1.937,6.688" style="fill-rule:nonzero;"/></g><g><path d="M365.025,307.115l0,-6.687c0,-0.313 -0.062,-0.563 -0.375,-0.563c-0.25,0 -0.437,0.063 -0.625,0.313l-1.875,3.625c-0.125,0.125 -0.312,0.312 -0.312,0.75l-0,2.562l-4.063,0c2.563,-2.125 6.563,-9.187 6.625,-9.562c0,-0.063 0.063,-0.125 0.063,-0.188c-0,-0.25 -0.25,-0.437 -0.438,-0.437c-0.312,-0 -1.625,0.125 -2.187,0.125c-0.563,-0 -0.938,-0.125 -1.188,-0.125c-0.312,-0 -0.75,0.125 -0.75,0.625c0,4 -3.25,8.562 -4.062,9.687c-0.125,0.125 -0.25,0.313 -0.25,0.5c-0,0.313 0.25,0.625 0.625,0.625l5.625,0l-0,1.938c-0,0.875 -0.5,1.125 -1,1.125c-0.563,-0 -0.813,0.25 -0.813,0.562c0,0.313 0.125,0.688 0.688,0.688l5.375,-0c0.312,-0 0.625,-0.25 0.625,-0.688c-0,-0.437 -0.375,-0.625 -0.688,-0.625c-0.312,0 -1,-0.187 -1,-1.187l0,-1.813l2.313,0c0.312,0 0.5,-0.25 0.5,-0.625c-0,-0.375 -0.125,-0.625 -0.5,-0.625l-2.313,0" style="fill-rule:nonzero;"/></g><g><path d="M403.734,310.69c0,-0.437 -0.187,-0.5 -0.375,-0.5c-0.25,0 -0.375,0.188 -0.437,0.375c-0.313,0.875 -1,2 -1.938,2c-0.125,0 -0.25,0 -0.375,-0.062l-0.937,-0.313c-0.625,-0.25 -2.125,-0.75 -3.375,-0.75c-0.438,0 -0.813,0.063 -1.188,0.188c0.688,-1.188 3.938,-2.75 4.625,-2.938c2.25,-0.312 4.125,-1.625 4.125,-4.062c0,-1.5 -0.625,-2.5 -1.437,-3.25c-1.625,-1.313 -4,-1.5 -4.688,-1.5c-2.25,-0 -4.062,0.125 -5.687,2c-0.438,0.5 -0.625,1 -0.625,1.5c-0,0.437 0.187,0.937 0.375,1.5c0.375,0.75 1.187,1.312 2.062,1.312c1.563,0 1.75,-1.5 1.75,-2.187c0,-1.438 -1.562,-1.563 -1.562,-2.188c-0,-0.437 0.625,-1.187 2.5,-1.187c2.937,-0 3.937,2.437 3.937,3.187c0,1.125 -0.375,2.188 -1,3.063c-1.125,1.437 -3.187,1.937 -4.75,2.937c-1.75,1.063 -2.937,2.875 -3.5,4.875c0,0.438 0.188,0.938 0.563,1.125c0.062,0.063 0.187,0.063 0.25,0.063c0.687,-0 1.062,-1.938 2.937,-1.938c1.25,0 1.688,1.688 4.5,1.688c1.313,-0 3.75,-0.125 4.25,-4.938" style="fill-rule:nonzero;"/></g><g><path d="M429.797,313.409c-0,0 -0.063,0.25 -0.063,0.438c0,0.25 0.25,0.5 0.5,0.5c0.188,-0 0.313,-0.188 0.375,-0.25c0.063,-0.188 0.813,-2.75 1.188,-3.375c0.125,-0.25 0.25,-0.313 0.312,-0.313c0.125,0 0.188,0.25 0.188,0.438l-0,8.937c-0,0.75 -0.625,1.188 -1.25,1.188c-0.25,-0 -0.563,0.125 -0.563,0.5c0,0.375 0.313,0.5 0.813,0.5l5.25,-0c0.5,-0 0.5,-0.5 0.5,-0.5c-0,-0 -0,-0.5 -0.5,-0.5c-0.438,-0 -1,-0.563 -1,-1.125l-0,-13c-0,-0.5 -0.188,-0.75 -0.625,-0.75c-0.438,-0 -0.813,0.125 -1.188,0.125c-0.625,-0 -0.75,-0 -1.25,-0.125c-0.25,-0 -0.562,0.375 -0.75,0.625l-1.937,6.687" style="fill-rule:nonzero;"/></g><g><path d="M472.547,318.79l-0,-6.687c-0,-0.313 -0.063,-0.563 -0.375,-0.563c-0.25,0 -0.438,0.063 -0.625,0.313l-1.875,3.625c-0.125,0.125 -0.313,0.312 -0.313,0.75l0,2.562l-4.062,0c2.562,-2.125 6.562,-9.187 6.625,-9.562c-0,-0.063 0.062,-0.125 0.062,-0.188c0,-0.25 -0.25,-0.437 -0.437,-0.437c-0.313,-0 -1.625,0.125 -2.188,0.125c-0.562,-0 -0.937,-0.125 -1.187,-0.125c-0.313,-0 -0.75,0.125 -0.75,0.625c-0,4 -3.25,8.562 -4.063,9.687c-0.125,0.125 -0.25,0.313 -0.25,0.5c0,0.313 0.25,0.625 0.625,0.625l5.625,0l0,1.938c0,0.875 -0.5,1.125 -1,1.125c-0.562,-0 -0.812,0.25 -0.812,0.562c-0,0.313 0.125,0.688 0.687,0.688l5.375,-0c0.313,-0 0.625,-0.25 0.625,-0.688c0,-0.437 -0.375,-0.625 -0.687,-0.625c-0.313,0 -1,-0.187 -1,-1.187l-0,-1.813l2.312,0c0.313,0 0.5,-0.25 0.5,-0.625c0,-0.375 -0.125,-0.625 -0.5,-0.625l-2.312,0" style="fill-rule:nonzero;"/></g><g><path d="M503.553,318.79l0,-6.687c0,-0.313 -0.062,-0.563 -0.375,-0.563c-0.25,0 -0.437,0.063 -0.625,0.313l-1.875,3.625c-0.125,0.125 -0.312,0.312 -0.312,0.75l-0,2.562l-4.063,0c2.563,-2.125 6.563,-9.187 6.625,-9.562c0,-0.063 0.063,-0.125 0.063,-0.188c-0,-0.25 -0.25,-0.437 -0.438,-0.437c-0.312,-0 -1.625,0.125 -2.187,0.125c-0.563,-0 -0.938,-0.125 -1.188,-0.125c-0.312,-0 -0.75,0.125 -0.75,0.625c0,4 -3.25,8.562 -4.062,9.687c-0.125,0.125 -0.25,0.313 -0.25,0.5c-0,0.313 0.25,0.625 0.625,0.625l5.625,0l-0,1.938c-0,0.875 -0.5,1.125 -1,1.125c-0.563,-0 -0.813,0.25 -0.813,0.562c0,0.313 0.125,0.688 0.688,0.688l5.375,-0c0.312,-0 0.625,-0.25 0.625,-0.688c-0,-0.437 -0.375,-0.625 -0.688,-0.625c-0.312,0 -1,-0.187 -1,-1.187l0,-1.813l2.313,0c0.312,0 0.5,-0.25 0.5,-0.625c-0,-0.375 -0.125,-0.625 -0.5,-0.625l-2.313,0" style="fill-rule:nonzero;"/></g><g><path d="M537.425,319.415c-0,-0.437 -0.188,-0.5 -0.375,-0.5c-0.25,0 -0.375,0.188 -0.438,0.375c-0.312,0.875 -1,2 -1.937,2c-0.125,0 -0.25,0 -0.375,-0.062l-0.938,-0.313c-0.625,-0.25 -2.125,-0.75 -3.375,-0.75c-0.437,0 -0.812,0.063 -1.187,0.188c0.687,-1.188 3.937,-2.75 4.625,-2.938c2.25,-0.312 4.125,-1.625 4.125,-4.062c-0,-1.5 -0.625,-2.5 -1.438,-3.25c-1.625,-1.313 -4,-1.5 -4.687,-1.5c-2.25,-0 -4.063,0.125 -5.688,2c-0.437,0.5 -0.625,1 -0.625,1.5c0,0.437 0.188,0.937 0.375,1.5c0.375,0.75 1.188,1.312 2.063,1.312c1.562,0 1.75,-1.5 1.75,-2.187c-0,-1.438 -1.563,-1.563 -1.563,-2.188c0,-0.437 0.625,-1.187 2.5,-1.187c2.938,-0 3.938,2.437 3.938,3.187c-0,1.125 -0.375,2.188 -1,3.063c-1.125,1.437 -3.188,1.937 -4.75,2.937c-1.75,1.063 -2.938,2.875 -3.5,4.875c-0,0.438 0.187,0.938 0.562,1.125c0.063,0.063 0.188,0.063 0.25,0.063c0.688,-0 1.063,-1.938 2.938,-1.938c1.25,0 1.687,1.688 4.5,1.688c1.312,-0 3.75,-0.125 4.25,-4.938" style="fill-rule:nonzero;"/></g><g><path d="M571.35,315.853c-0,-0 -0.063,0.25 -0.063,0.437c0,0.25 0.25,0.5 0.5,0.5c0.188,0 0.313,-0.187 0.375,-0.25c0.063,-0.187 0.813,-2.75 1.188,-3.375c0.125,-0.25 0.25,-0.312 0.312,-0.312c0.125,-0 0.188,0.25 0.188,0.437l-0,8.938c-0,0.75 -0.625,1.187 -1.25,1.187c-0.25,0 -0.563,0.125 -0.563,0.5c0,0.375 0.313,0.5 0.813,0.5l5.25,0c0.5,0 0.5,-0.5 0.5,-0.5c-0,0 -0,-0.5 -0.5,-0.5c-0.438,0 -1,-0.562 -1,-1.125l-0,-13c-0,-0.5 -0.188,-0.75 -0.625,-0.75c-0.438,0 -0.813,0.125 -1.188,0.125c-0.625,0 -0.75,0 -1.25,-0.125c-0.25,0 -0.562,0.375 -0.75,0.625l-1.937,6.688" style="fill-rule:nonzero;"/></g><g><path d="M613,318.79l-0,-6.687c-0,-0.313 -0.063,-0.563 -0.375,-0.563c-0.25,0 -0.438,0.063 -0.625,0.313l-1.875,3.625c-0.125,0.125 -0.313,0.312 -0.313,0.75l0,2.562l-4.062,0c2.562,-2.125 6.562,-9.187 6.625,-9.562c-0,-0.063 0.062,-0.125 0.062,-0.188c0,-0.25 -0.25,-0.437 -0.437,-0.437c-0.313,-0 -1.625,0.125 -2.188,0.125c-0.562,-0 -0.937,-0.125 -1.187,-0.125c-0.313,-0 -0.75,0.125 -0.75,0.625c-0,4 -3.25,8.562 -4.063,9.687c-0.125,0.125 -0.25,0.313 -0.25,0.5c0,0.313 0.25,0.625 0.625,0.625l5.625,0l0,1.938c0,0.875 -0.5,1.125 -1,1.125c-0.562,-0 -0.812,0.25 -0.812,0.562c-0,0.313 0.125,0.688 0.687,0.688l5.375,-0c0.313,-0 0.625,-0.25 0.625,-0.688c0,-0.437 -0.375,-0.625 -0.687,-0.625c-0.313,0 -1,-0.187 -1,-1.187l-0,-1.813l2.312,0c0.313,0 0.5,-0.25 0.5,-0.625c0,-0.375 -0.125,-0.625 -0.5,-0.625l-2.312,0" style="fill-rule:nonzero;"/></g><g><path d="M651.706,319.415c0,-0.437 -0.187,-0.5 -0.375,-0.5c-0.25,0 -0.375,0.188 -0.437,0.375c-0.313,0.875 -1,2 -1.938,2c-0.125,0 -0.25,0 -0.375,-0.062l-0.937,-0.313c-0.625,-0.25 -2.125,-0.75 -3.375,-0.75c-0.438,0 -0.813,0.063 -1.188,0.188c0.688,-1.188 3.938,-2.75 4.625,-2.938c2.25,-0.312 4.125,-1.625 4.125,-4.062c0,-1.5 -0.625,-2.5 -1.437,-3.25c-1.625,-1.313 -4,-1.5 -4.688,-1.5c-2.25,-0 -4.062,0.125 -5.687,2c-0.438,0.5 -0.625,1 -0.625,1.5c-0,0.437 0.187,0.937 0.375,1.5c0.375,0.75 1.187,1.312 2.062,1.312c1.563,0 1.75,-1.5 1.75,-2.187c0,-1.438 -1.562,-1.563 -1.562,-2.188c-0,-0.437 0.625,-1.187 2.5,-1.187c2.937,-0 3.937,2.437 3.937,3.187c0,1.125 -0.375,2.188 -1,3.063c-1.125,1.437 -3.187,1.937 -4.75,2.937c-1.75,1.063 -2.937,2.875 -3.5,4.875c0,0.438 0.188,0.938 0.563,1.125c0.062,0.063 0.187,0.063 0.25,0.063c0.687,-0 1.062,-1.938 2.937,-1.938c1.25,0 1.688,1.688 4.5,1.688c1.313,-0 3.75,-0.125 4.25,-4.938" style="fill-rule:nonzero;"/></g><g><path d="M677.769,315.853c-0,-0 -0.063,0.25 -0.063,0.437c0,0.25 0.25,0.5 0.5,0.5c0.188,0 0.313,-0.187 0.375,-0.25c0.063,-0.187 0.813,-2.75 1.188,-3.375c0.125,-0.25 0.25,-0.312 0.312,-0.312c0.125,-0 0.188,0.25 0.188,0.437l-0,8.938c-0,0.75 -0.625,1.187 -1.25,1.187c-0.25,0 -0.563,0.125 -0.563,0.5c0,0.375 0.313,0.5 0.813,0.5l5.25,0c0.5,0 0.5,-0.5 0.5,-0.5c-0,0 -0,-0.5 -0.5,-0.5c-0.438,0 -1,-0.562 -1,-1.125l-0,-13c-0,-0.5 -0.188,-0.75 -0.625,-0.75c-0.438,0 -0.813,0.125 -1.188,0.125c-0.625,0 -0.75,0 -1.25,-0.125c-0.25,0 -0.562,0.375 -0.75,0.625l-1.937,6.688" style="fill-rule:nonzero;"/></g><g><path d="M743.756,315.853c0,-0 -0.062,0.25 -0.062,0.437c-0,0.25 0.25,0.5 0.5,0.5c0.187,0 0.312,-0.187 0.375,-0.25c0.062,-0.187 0.812,-2.75 1.187,-3.375c0.125,-0.25 0.25,-0.312 0.313,-0.312c0.125,-0 0.187,0.25 0.187,0.437l0,8.938c0,0.75 -0.625,1.187 -1.25,1.187c-0.25,0 -0.562,0.125 -0.562,0.5c-0,0.375 0.312,0.5 0.812,0.5l5.25,0c0.5,0 0.5,-0.5 0.5,-0.5c0,0 0,-0.5 -0.5,-0.5c-0.437,0 -1,-0.562 -1,-1.125l0,-13c0,-0.5 -0.187,-0.75 -0.625,-0.75c-0.437,0 -0.812,0.125 -1.187,0.125c-0.625,0 -0.75,0 -1.25,-0.125c-0.25,0 -0.563,0.375 -0.75,0.625l-1.938,6.688" style="fill-rule:nonzero;"/></g><g><path d="M221.857,347.728c5.562,-0 12.375,-5.125 12.375,-10.438c-0,-3.187 -2.5,-5.187 -6.063,-5.187c-6.875,-0 -12.375,5.062 -12.375,10.437c0,3.25 2.688,5.188 6.063,5.188" style="fill-rule:nonzero;"/></g><g><path d="M252.862,355.478c5.563,-0 12.375,-5.125 12.375,-10.438c0,-3.187 -2.5,-5.187 -6.062,-5.187c-6.875,-0 -12.375,5.062 -12.375,10.437c-0,3.25 2.687,5.188 6.062,5.188" style="fill-rule:nonzero;"/></g><g><path d="M283.868,363.228c5.563,-0 12.375,-5.125 12.375,-10.438c0,-3.187 -2.5,-5.187 -6.062,-5.187c-6.875,-0 -12.375,5.062 -12.375,10.437c-0,3.25 2.687,5.188 6.062,5.188" style="fill-rule:nonzero;"/></g><g><path d="M312.551,365.978c-0.375,1.25 -3.312,2.5 -4.75,2.5c-0.375,-0 -0.687,-0.125 -0.75,-0.313c-0.125,-0.25 -0.187,-1.625 -0.187,-3.125c-0,-1.937 0.062,-4.125 0.187,-4.625c0.125,-1.062 3,-2.375 4.563,-2.375c0.437,0 0.812,0.125 0.937,0.375c0.125,0.313 0.25,1.875 0.25,3.563c0,1.687 -0.125,3.437 -0.25,4m4.313,-10.188c0.437,-0.187 0.75,-0.687 0.75,-1.062l-0,-4.438c-0,-0.312 -0.188,-0.5 -0.438,-0.5c-0.125,0 -0.187,0 -0.312,0.063c-0,-0 -1.25,0.5 -1.563,0.562c-0.437,0 -0.875,-0.312 -0.875,-0.812l0,-7.625c0,-0.375 -0.375,-0.688 -0.875,-0.688c-0.625,0 -1,0.313 -1,0.688l0,8.125c-0.062,0.625 -0.25,1.437 -0.812,1.812c-0.75,0.438 -2.875,1.313 -3.938,1.563c-0.562,-0 -0.75,-0.75 -0.75,-1.25l0,-7.5c0,-0.375 -0.437,-0.688 -0.875,-0.688c-0.625,0 -1,0.313 -1,0.688l0,8.437c0,0.875 -0.375,1.5 -0.75,1.688c-0.375,0.187 -1.625,0.687 -1.625,0.687c-0.437,0.125 -0.75,0.625 -0.75,1l0,4.438c0,0.375 0.188,0.562 0.5,0.562c0.25,0 1.438,-0.562 1.625,-0.687c0.063,-0 0.125,-0.063 0.188,-0.063c0.437,0 0.812,0.625 0.812,1.125l0,6.188c0,0.687 -0.312,1.25 -0.687,1.437c-0.375,0.125 -1.688,0.688 -1.688,0.688c-0.437,0.125 -0.75,0.625 -0.75,1l0,4.437c0,0.375 0.188,0.563 0.5,0.563c0.063,-0 0.188,-0.063 0.25,-0.063c0,0 0.875,-0.375 1.438,-0.562c0.062,-0.063 0.125,-0.063 0.187,-0.063c0.438,0 0.75,0.688 0.75,1l0,7.688c0,0.375 0.375,0.687 0.813,0.687c0.625,0 1.062,-0.312 1.062,-0.687l0,-8.688c0,-0.812 0.313,-1.25 0.625,-1.375l3.813,-1.562c0.062,-0 0.187,-0.063 0.25,-0.063c0.5,0 0.812,0.75 0.812,1.125l0,7.813c0,0.375 0.375,0.687 0.813,0.687c0.687,0 1.062,-0.312 1.062,-0.687l0,-8.875c0,-0.5 0.25,-1.25 0.688,-1.438c0.437,-0.187 1.75,-0.687 1.75,-0.687c0.437,-0.188 0.75,-0.688 0.75,-1.063l-0,-4.437c-0,-0.313 -0.188,-0.5 -0.438,-0.5c-0.125,-0 -0.187,-0 -0.312,0.062l-1.625,0.625c-0.375,0 -0.813,-0.375 -0.813,-1.125l0,-5.812c0,-0.438 0.313,-1.625 0.813,-1.813l1.625,-0.625" style="fill-rule:nonzero;"/></g><g><path d="M327.541,370.978c5.562,-0 12.375,-5.125 12.375,-10.438c-0,-3.187 -2.5,-5.187 -6.063,-5.187c-6.875,-0 -12.375,5.062 -12.375,10.437c0,3.25 2.688,5.188 6.063,5.188" style="fill-rule:nonzero;"/></g><g><path d="M358.547,378.728c5.562,-0 12.375,-5.125 12.375,-10.438c-0,-3.187 -2.5,-5.187 -6.063,-5.187c-6.875,-0 -12.375,5.062 -12.375,10.437c0,3.25 2.688,5.188 6.063,5.188" style="fill-rule:nonzero;"/></g><g><path d="M394.384,386.478c5.563,-0 12.375,-5.125 12.375,-10.438c0,-3.187 -2.5,-5.187 -6.062,-5.187c-6.875,-0 -12.375,5.062 -12.375,10.437c-0,3.25 2.687,5.188 6.062,5.188" style="fill-rule:nonzero;"/></g><g><path d="M430.225,394.228c5.563,-0 12.375,-5.125 12.375,-10.438c0,-3.187 -2.5,-5.187 -6.062,-5.187c-6.875,-0 -12.375,5.062 -12.375,10.437c-0,3.25 2.687,5.188 6.062,5.188" style="fill-rule:nonzero;"/></g><g><path d="M466.066,401.978c5.562,-0 12.375,-5.125 12.375,-10.438c-0,-3.187 -2.5,-5.187 -6.063,-5.187c-6.875,-0 -12.375,5.062 -12.375,10.437c0,3.25 2.688,5.188 6.063,5.188" style="fill-rule:nonzero;"/></g><g><path d="M497.072,409.728c5.562,-0 12.375,-5.125 12.375,-10.438c-0,-3.187 -2.5,-5.187 -6.063,-5.187c-6.875,-0 -12.375,5.062 -12.375,10.437c0,3.25 2.688,5.188 6.063,5.188" style="fill-rule:nonzero;"/></g><g><path d="M528.078,417.478c5.563,-0 12.375,-5.125 12.375,-10.438c0,-3.187 -2.5,-5.187 -6.062,-5.187c-6.875,-0 -12.375,5.062 -12.375,10.437c-0,3.25 2.687,5.188 6.062,5.188" style="fill-rule:nonzero;"/></g><g><path d="M556.791,420.228c-0.375,1.25 -3.313,2.5 -4.75,2.5c-0.375,-0 -0.688,-0.125 -0.75,-0.313c-0.125,-0.25 -0.188,-1.625 -0.188,-3.125c0,-1.937 0.063,-4.125 0.188,-4.625c0.125,-1.062 3,-2.375 4.562,-2.375c0.438,0 0.813,0.125 0.938,0.375c0.125,0.313 0.25,1.875 0.25,3.563c-0,1.687 -0.125,3.437 -0.25,4m4.312,-10.188c0.438,-0.187 0.75,-0.687 0.75,-1.062l0,-4.438c0,-0.312 -0.187,-0.5 -0.437,-0.5c-0.125,0 -0.188,0 -0.313,0.063c0,-0 -1.25,0.5 -1.562,0.562c-0.438,0 -0.875,-0.312 -0.875,-0.812l-0,-7.625c-0,-0.375 -0.375,-0.688 -0.875,-0.688c-0.625,0 -1,0.313 -1,0.688l-0,8.125c-0.063,0.625 -0.25,1.437 -0.813,1.812c-0.75,0.438 -2.875,1.313 -3.937,1.563c-0.563,-0 -0.75,-0.75 -0.75,-1.25l-0,-7.5c-0,-0.375 -0.438,-0.688 -0.875,-0.688c-0.625,0 -1,0.313 -1,0.688l-0,8.437c-0,0.875 -0.375,1.5 -0.75,1.688c-0.375,0.187 -1.625,0.687 -1.625,0.687c-0.438,0.125 -0.75,0.625 -0.75,1l-0,4.438c-0,0.375 0.187,0.562 0.5,0.562c0.25,0 1.437,-0.562 1.625,-0.687c0.062,-0 0.125,-0.063 0.187,-0.063c0.438,0 0.813,0.625 0.813,1.125l-0,6.188c-0,0.687 -0.313,1.25 -0.688,1.437c-0.375,0.125 -1.687,0.688 -1.687,0.688c-0.438,0.125 -0.75,0.625 -0.75,1l-0,4.437c-0,0.375 0.187,0.563 0.5,0.563c0.062,-0 0.187,-0.063 0.25,-0.063c-0,0 0.875,-0.375 1.437,-0.562c0.063,-0.063 0.125,-0.063 0.188,-0.063c0.437,0 0.75,0.688 0.75,1l-0,7.688c-0,0.375 0.375,0.687 0.812,0.687c0.625,0 1.063,-0.312 1.063,-0.687l-0,-8.688c-0,-0.812 0.312,-1.25 0.625,-1.375l3.812,-1.562c0.063,-0 0.188,-0.063 0.25,-0.063c0.5,0 0.813,0.75 0.813,1.125l-0,7.813c-0,0.375 0.375,0.687 0.812,0.687c0.688,0 1.063,-0.312 1.063,-0.687l-0,-8.875c-0,-0.5 0.25,-1.25 0.687,-1.438c0.438,-0.187 1.75,-0.687 1.75,-0.687c0.438,-0.188 0.75,-0.688 0.75,-1.063l0,-4.437c0,-0.313 -0.187,-0.5 -0.437,-0.5c-0.125,-0 -0.188,-0 -0.313,0.062l-1.625,0.625c-0.375,0 -0.812,-0.375 -0.812,-1.125l-0,-5.812c-0,-0.438 0.312,-1.625 0.812,-1.813l1.625,-0.625" style="fill-rule:nonzero;"/></g><g><path d="M571.781,425.228c5.563,-0 12.375,-5.125 12.375,-10.438c0,-3.187 -2.5,-5.187 -6.062,-5.187c-6.875,-0 -12.375,5.062 -12.375,10.437c-0,3.25 2.687,5.188 6.062,5.188" style="fill-rule:nonzero;"/></g><g><path d="M606.519,432.978c5.562,-0 12.375,-5.125 12.375,-10.438c-0,-3.187 -2.5,-5.187 -6.063,-5.187c-6.875,-0 -12.375,5.062 -12.375,10.437c0,3.25 2.688,5.188 6.063,5.188" style="fill-rule:nonzero;"/></g><g><path d="M642.359,440.728c5.563,-0 12.375,-5.125 12.375,-10.438c0,-3.187 -2.5,-5.187 -6.062,-5.187c-6.875,-0 -12.375,5.062 -12.375,10.437c-0,3.25 2.687,5.188 6.062,5.188" style="fill-rule:nonzero;"/></g><g><path d="M678.2,448.478c5.562,-0 12.375,-5.125 12.375,-10.438c-0,-3.187 -2.5,-5.187 -6.063,-5.187c-6.875,-0 -12.375,5.062 -12.375,10.437c0,3.25 2.688,5.188 6.063,5.188" style="fill-rule:nonzero;"/></g><g><path d="M741.094,436.728c0.687,-2.188 3,-2.5 4.937,-2.5c4.313,-0 7.75,4.625 7.75,8.375c0,1.937 -0.812,3.687 -2.875,4.187c-0.625,0.188 -1.312,0.25 -1.937,0.25c-2.25,0 -4.563,-1.5 -5.875,-3.25c-1.25,-1.437 -2.188,-3.562 -2.188,-5.562c0,-0.5 0.063,-1 0.188,-1.5m6.562,-3.875c-8.312,-0 -13.5,3.437 -13.5,7.687c0,4.188 3.563,7.938 12.875,7.938c10.25,-0 13.5,-3.563 13.5,-7.938c0,-4.437 -7.062,-7.687 -12.875,-7.687" style="fill-rule:nonzero;"/></g><g><path d="M161.563,370.04c0.187,1.188 0.187,1.125 -0.938,1.5c-5.5,1.875 -9.062,6.813 -9.062,12.125c-0,5.625 2.937,9.625 7.187,11.063c0.5,0.187 1.25,0.375 1.688,0.375c0.5,-0 0.75,-0.313 0.75,-0.688c-0,-0.437 -0.5,-0.625 -0.938,-0.812c-2.625,-1.125 -4.5,-3.813 -4.5,-6.688c0,-3.562 2.438,-6.25 6.25,-7.312c1,-0.25 1.125,-0.188 1.25,0.5l3.125,18.625c0.125,0.687 0.063,0.687 -0.875,0.875c-1,0.187 -2.25,0.312 -3.5,0.312c-10.937,0 -18,-6.062 -18,-14.75c0,-3.687 0.625,-8.625 5.813,-14.5c3.75,-4.187 6.625,-6.5 9.562,-8.875c0.625,-0.5 0.75,-0.437 0.875,0.25l1.313,8m6.812,-42.562c2.063,-0 3.75,1.687 3.75,5.125c0,6.937 -5.937,12.562 -10.875,16.875c-0.437,0.375 -0.687,0.312 -0.812,-0.5c-0.25,-1.625 -0.375,-3.75 -0.375,-5.75c-0,-9.75 4.5,-15.75 8.312,-15.75m-2.5,52.5c-0.125,-0.75 -0.062,-0.938 0.688,-0.875c5.062,0.437 9.25,4.687 9.25,10.187c-0,3.938 -2.375,7.125 -5.875,8.875c-0.75,0.375 -0.875,0.375 -1,-0.375l-3.063,-17.812m-3.375,-19.5c-0.125,-0.75 0,-0.813 0.375,-1.188c6.75,-6.312 11.875,-14.25 11.875,-23.812c0,-5.438 -1.5,-10.813 -4.062,-14.563c-0.938,-1.375 -2.563,-3.125 -3.25,-3.125c-0.875,0 -2.813,1.625 -4.063,3c-4.625,5.125 -6.125,12.938 -6.125,19.438c0,3.625 0.438,7.687 0.875,10.25c0.125,0.75 0.188,0.875 -0.562,1.5c-9,7.437 -18.563,16.375 -18.563,29c0,10.875 7.438,21.187 22.75,21.187c1.438,0 3.063,-0.125 4.313,-0.375c0.687,-0.125 0.812,-0.187 0.937,0.563c0.75,4.187 1.688,9.625 1.688,12.562c-0,9.25 -6.25,10.375 -9.938,10.375c-3.375,0 -5,-1 -5,-1.812c0,-0.438 0.563,-0.625 2,-1.063c1.938,-0.562 4.188,-2.25 4.188,-5.875c-0,-3.437 -2.188,-6.375 -6,-6.375c-4.188,0 -6.688,3.313 -6.688,7.188c0,4.062 2.438,10.187 11.875,10.187c4.188,0 12.313,-1.875 12.313,-12.5c-0,-3.562 -1.125,-9.5 -1.813,-13.375c-0.125,-0.75 -0.062,-0.687 0.813,-1.062c6.312,-2.5 10.5,-7.813 10.5,-14.875c-0,-8 -5.875,-15.063 -15.063,-15.063c-1.625,0 -1.625,0 -1.812,-1.125l-1.563,-9.062" style="fill-rule:nonzero;"/></g><g><text x="388.3px" y="429.228px" style="font-family:'Bravura';font-size:62.5px;"></text></g><g><text x="636.272px" y="470.097px" style="font-family:'Bravura';font-size:62.5px;"></text></g><g><path d="M215.782,402.122l-0,-7.831l107.562,15.5l0,7.831l-107.562,-15.5" style="fill-rule:nonzero;"/></g><g><path d="M215.782,390.376l-0,-7.835l107.562,15.5l0,7.835l-107.562,-15.5" style="fill-rule:nonzero;"/></g><g><path d="M369.063,328.291l-0,-7.85l73.531,11.625l0,7.85l-73.531,-11.625" style="fill-rule:nonzero;"/></g><g><path d="M476.563,343.598l-0,-7.879l107.594,19.375l-0,7.879l-107.594,-19.375" style="fill-rule:nonzero;"/></g><g><path d="M476.563,355.416l-0,-7.878l107.594,19.375l-0,7.878l-107.594,-19.375" style="fill-rule:nonzero;"/></g><g><path d="M617.032,374.791l-0,-7.762l73.531,3.875l-0,7.762l-73.531,-3.875" style="fill-rule:nonzero;"/></g><g><path d="M347.375,417.754l33.188,-0l-0,-2.478l-30.719,-0l0,-9.147l-2.469,-0" style="fill-rule:nonzero;"/></g><g><path d="M443.844,417.754l-29.312,-0l-0,-2.478l26.812,-0l0,-9.147l2.5,-0" style="fill-rule:nonzero;"/></g><g><path d="M595.344,448.479l33.344,6.656l-0,-2.534l-30.875,-6.16l-0,-9.587l-2.469,-0" style="fill-rule:nonzero;"/></g><g><path d="M691.813,467.963l-29.469,-5.85l-0,-2.534l27,5.597l-0,-8.838l2.469,0" style="fill-rule:nonzero;"/></g></g></svg>