<?xml version="1.0" encoding="UTF-8" standalone="no"?><!DOCTYPE svg PUBLIC "-//W3C//DTD SVG 1.1//EN" "http://www.w3.org/Graphics/SVG/1.1/DTD/svg11.dtd"><svg width="100%" height="100%" viewBox="0 0 28725 7259" version="1.1" xmlns="http://www.w3.org/2000/svg" xmlns:xlink="http://www.w3.org/1999/xlink" xml:space="preserve" xmlns:serif="http://www.serif.com/" style="fill-rule:evenodd;clip-rule:evenodd;stroke-miterlimit:2;"><g><g><path d="M39.224,1485.71l28645.8,-0" style="fill:none;stroke:#000;stroke-width:35.08px;"/><path d="M39.224,1754.81l28645.8,0" style="fill:none;stroke:#000;stroke-width:35.08px;"/><path d="M39.224,2023.91l28645.8,0" style="fill:none;stroke:#000;stroke-width:35.08px;"/><path d="M39.224,2293l28645.8,0" style="fill:none;stroke:#000;stroke-width:35.08px;"/><path d="M39.224,2562.1l28645.8,0" style="fill:none;stroke:#000;stroke-width:35.08px;"/></g><g><path d="M14873.2,1468.23l0,1111.34" style="fill:none;stroke:#000;stroke-width:43.04px;"/><path d="M28663.3,1468.23l0,1111.34" style="fill:none;stroke:#000;stroke-width:43.04px;"/></g><g><path d="M1810.6,2090.9l0,1098.75" style="fill:none;stroke:#000;stroke-width:32.29px;"/></g><g><path d="M1399.36,3100.3l535.487,-0" style="fill:none;stroke:#000;stroke-width:43.04px;"/><path d="M1399.36,2831.2l535.487,0" style="fill:none;stroke:#000;stroke-width:43.04px;"/></g><g><path d="M2843.58,2023.63l-0,1031.47" style="fill:none;stroke:#000;stroke-width:32.29px;"/></g><g><path d="M2432.35,3100.3l534.93,-0" style="fill:none;stroke:#000;stroke-width:43.04px;"/><path d="M2432.35,2831.2l534.93,0" style="fill:none;stroke:#000;stroke-width:43.04px;"/></g><g><path d="M3876.57,1956.35l0,964.2" style="fill:none;stroke:#000;stroke-width:32.29px;"/></g><g><path d="M3465.34,2831.2l534.929,0" style="fill:none;stroke:#000;stroke-width:43.04px;"/></g><g><path d="M4909.02,1819.43l0,966.579" style="fill:none;stroke:#000;stroke-width:32.29px;"/></g><g><path d="M4560.14,2831.2l472.554,0" style="fill:none;stroke:#000;stroke-width:43.04px;"/></g><g><path d="M5802.56,1707.33l-0,944.133" style="fill:none;stroke:#000;stroke-width:32.29px;"/><path d="M6696.14,1595.19l0,921.716" style="fill:none;stroke:#000;stroke-width:32.29px;"/><path d="M7589.68,1483.05l-0,899.309" style="fill:none;stroke:#000;stroke-width:32.29px;"/><path d="M8483.22,1417.78l0,830.034" style="fill:none;stroke:#000;stroke-width:32.29px;"/><path d="M9516.22,1316.88l0,796.388" style="fill:none;stroke:#000;stroke-width:32.29px;"/><path d="M10549.2,1215.97l0,762.746" style="fill:none;stroke:#000;stroke-width:32.29px;"/><path d="M11293.6,1934.55l-0,831.058" style="fill:none;stroke:#000;stroke-width:32.29px;"/><path d="M12187.1,1800l0,875.921" style="fill:none;stroke:#000;stroke-width:32.29px;"/><path d="M13080.7,1665.45l-0,920.729" style="fill:none;stroke:#000;stroke-width:32.29px;"/><path d="M13974.2,1530.9l0,965.604" style="fill:none;stroke:#000;stroke-width:32.29px;"/><path d="M15314.7,1396.35l0,897.779" style="fill:none;stroke:#000;stroke-width:32.29px;"/><path d="M16347.7,1261.83l0,897.758" style="fill:none;stroke:#000;stroke-width:32.29px;"/></g><g><path d="M16224.1,1216.62l534.95,-0" style="fill:none;stroke:#000;stroke-width:43.04px;"/></g><g><path d="M17380.7,1127.28l0,897.758" style="fill:none;stroke:#000;stroke-width:32.29px;"/></g><g><path d="M17256.6,1216.62l535.467,-0" style="fill:none;stroke:#000;stroke-width:43.04px;"/></g><g><path d="M18412.6,992.725l-0.017,1031.29" style="fill:none;stroke:#000;stroke-width:32.29px;"/></g><g><path d="M18351.9,947.517l472.533,-0" style="fill:none;stroke:#000;stroke-width:43.04px;"/><path d="M18356.2,1216.62l468.196,-0" style="fill:none;stroke:#000;stroke-width:43.04px;"/></g><g><path d="M19306.2,858.179l0,1143.42" style="fill:none;stroke:#000;stroke-width:32.29px;"/></g><g><path d="M19182.1,947.517l535.484,-0" style="fill:none;stroke:#000;stroke-width:43.04px;"/><path d="M19182.1,1216.62l535.484,-0" style="fill:none;stroke:#000;stroke-width:43.04px;"/></g><g><path d="M20199.3,723.629l-0,1255.52" style="fill:none;stroke:#000;stroke-width:32.29px;"/></g><g><path d="M20075.5,678.421l534.933,-0" style="fill:none;stroke:#000;stroke-width:43.04px;"/><path d="M20075.5,947.517l534.933,-0" style="fill:none;stroke:#000;stroke-width:43.04px;"/><path d="M20075.5,1216.62l534.933,-0" style="fill:none;stroke:#000;stroke-width:43.04px;"/></g><g><path d="M21092.8,589.079l0,1367.66" style="fill:none;stroke:#000;stroke-width:32.29px;"/></g><g><path d="M20968.6,678.421l535.483,-0" style="fill:none;stroke:#000;stroke-width:43.04px;"/><path d="M20968.6,947.517l535.483,-0" style="fill:none;stroke:#000;stroke-width:43.04px;"/><path d="M20968.6,1216.62l535.483,-0" style="fill:none;stroke:#000;stroke-width:43.04px;"/></g><g><path d="M21985.9,589.079l-0,1367.81" style="fill:none;stroke:#000;stroke-width:32.29px;"/></g><g><path d="M21862.1,678.421l535.488,-0" style="fill:none;stroke:#000;stroke-width:43.04px;"/><path d="M21862.1,947.517l535.488,-0" style="fill:none;stroke:#000;stroke-width:43.04px;"/><path d="M21862.1,1216.62l535.488,-0" style="fill:none;stroke:#000;stroke-width:43.04px;"/></g><g><path d="M23018.2,858.179l0,1165.99" style="fill:none;stroke:#000;stroke-width:32.29px;"/></g><g><path d="M22961.8,947.517l468.212,-0" style="fill:none;stroke:#000;stroke-width:43.04px;"/><path d="M22894.6,1216.62l535.484,-0" style="fill:none;stroke:#000;stroke-width:43.04px;"/></g><g><path d="M24051.2,992.725l-0,1098.72" style="fill:none;stroke:#000;stroke-width:32.29px;"/></g><g><path d="M23927.6,947.517l534.934,-0" style="fill:none;stroke:#000;stroke-width:43.04px;"/><path d="M23927.6,1216.62l534.934,-0" style="fill:none;stroke:#000;stroke-width:43.04px;"/></g><g><path d="M25084.2,1127.28l-0,898.317" style="fill:none;stroke:#000;stroke-width:32.29px;"/></g><g><path d="M24960.6,1216.62l534.929,-0" style="fill:none;stroke:#000;stroke-width:43.04px;"/></g><g><path d="M25977.8,1127.28l-0.017,987.988" style="fill:none;stroke:#000;stroke-width:32.29px;"/></g><g><path d="M25920.8,1216.62l468.212,-0" style="fill:none;stroke:#000;stroke-width:43.04px;"/></g><g><path d="M26870.8,1261.83l-0,943.175" style="fill:none;stroke:#000;stroke-width:32.29px;"/></g><g><path d="M26810.1,1216.62l472.554,-0" style="fill:none;stroke:#000;stroke-width:43.04px;"/></g><g><path d="M27764.4,1396.35l0,898.334" style="fill:none;stroke:#000;stroke-width:32.29px;"/></g><g><path d="M1604.82,1067.95c0,0 -1.096,4.342 -1.096,7.604c0,4.342 4.342,8.683 8.684,8.683c3.262,0 5.433,-3.266 6.508,-4.341c1.096,-3.263 14.117,-47.742 20.625,-58.592c2.171,-4.342 4.342,-5.437 5.417,-5.437c2.17,-0 3.262,4.341 3.262,7.604l0,155.158c0,13.021 -10.85,20.625 -21.7,20.625c-4.342,0 -9.775,2.171 -9.775,8.679c0,6.513 5.433,8.684 14.117,8.684l91.146,-0c8.679,-0 8.679,-8.684 8.679,-8.684c-0,0 -0,-8.679 -8.679,-8.679c-7.605,0 -17.363,-9.775 -17.363,-19.533l0,-225.692c0,-8.683 -3.262,-13.021 -10.85,-13.021c-7.604,0 -14.117,2.171 -20.625,2.171c-10.85,0 -13.021,0 -21.7,-2.171c-4.342,0 -9.758,6.509 -13.021,10.85l-33.629,116.092" style="fill-rule:nonzero;"/></g><g><path d="M2807.42,1129.81c0,-7.604 -3.266,-8.679 -6.512,-8.679c-4.338,0 -6.509,3.246 -7.604,6.509c-5.417,15.191 -17.359,34.725 -33.63,34.725c-2.166,-0 -4.337,-0 -6.508,-1.096l-16.283,-5.417c-10.854,-4.337 -36.896,-13.021 -58.596,-13.021c-7.588,0 -14.096,1.079 -20.608,3.246c11.929,-20.604 68.35,-47.742 80.295,-50.988c39.063,-5.433 71.617,-28.212 71.617,-70.537c0,-26.042 -10.854,-43.404 -24.967,-56.425c-28.212,-22.779 -69.445,-26.042 -81.37,-26.042c-39.063,0 -70.538,2.171 -98.75,34.721c-7.588,8.683 -10.85,17.363 -10.85,26.042c-0,7.604 3.262,16.287 6.508,26.041c6.512,13.021 20.625,22.796 35.817,22.796c27.116,0 30.383,-26.041 30.383,-37.983c-0,-24.95 -27.138,-27.121 -27.138,-37.971c0,-7.604 10.85,-20.625 43.405,-20.625c51.004,0 68.366,42.325 68.366,55.346c0,19.533 -6.508,37.971 -17.362,53.162c-19.529,24.963 -55.346,33.646 -82.463,51.005c-30.383,18.437 -51.008,49.916 -60.766,84.637c-0,7.588 3.25,16.267 9.758,19.529c1.096,1.079 3.262,1.079 4.342,1.079c11.941,0 18.454,-33.629 51.004,-33.629c21.704,0 29.291,29.288 78.125,29.288c22.779,-0 65.104,-2.171 73.787,-85.713" style="fill-rule:nonzero;"/></g><g><path d="M3790.53,1118.96l-0,-116.112c-0,-5.417 -1.08,-9.754 -6.513,-9.754c-4.342,-0 -7.587,1.075 -10.85,5.416l-32.554,62.934c-2.167,2.17 -5.417,5.433 -5.417,13.021l0,44.495l-70.537,0c44.496,-36.891 113.941,-159.512 115.016,-166.025c0,-1.075 1.096,-2.17 1.096,-3.245c0,-4.342 -4.341,-7.605 -7.604,-7.605c-5.417,0 -28.212,2.171 -37.971,2.171c-9.771,0 -16.283,-2.171 -20.625,-2.171c-5.416,0 -13.021,2.171 -13.021,10.85c0,69.446 -56.42,148.663 -70.52,168.196c-2.167,2.171 -4.338,5.417 -4.338,8.679c0,5.417 4.338,10.85 10.85,10.85l97.654,0l0,33.63c0,15.191 -8.679,19.533 -17.358,19.533c-9.775,-0 -14.117,4.337 -14.117,9.775c0,5.412 2.171,11.925 11.946,11.925l93.317,-0c5.416,-0 10.85,-4.342 10.85,-11.929c-0,-7.604 -6.513,-10.85 -11.946,-10.85c-5.417,-0 -17.358,-3.263 -17.358,-20.625l-0,-31.459l40.154,0c5.416,0 8.679,-4.337 8.679,-10.85c-0,-6.508 -2.167,-10.85 -8.679,-10.85l-40.154,0" style="fill-rule:nonzero;"/></g><g><path d="M4702.89,1067.95c0,0 -1.075,4.342 -1.075,7.604c0,4.342 4.342,8.683 8.679,8.683c3.25,0 5.417,-3.266 6.513,-4.341c1.075,-3.263 14.096,-47.742 20.608,-58.592c2.171,-4.342 4.338,-5.437 5.433,-5.437c2.171,-0 3.246,4.341 3.246,7.604l0,155.158c0,13.021 -10.85,20.625 -21.7,20.625c-4.341,0 -9.758,2.171 -9.758,8.679c-0,6.513 5.417,8.684 14.096,8.684l91.146,-0c8.683,-0 8.683,-8.684 8.683,-8.684c-0,0 -0,-8.679 -8.683,-8.679c-7.584,0 -17.359,-9.775 -17.359,-19.533l0,-225.692c0,-8.683 -3.246,-13.021 -10.85,-13.021c-7.587,0 -14.1,2.171 -20.608,2.171c-10.85,0 -13.021,0 -21.704,-2.171c-4.338,0 -9.771,6.509 -13.021,10.85l-33.646,116.092" style="fill-rule:nonzero;"/></g><g><path d="M5766.22,1129.81c0,-7.604 -3.245,-8.679 -6.508,-8.679c-4.342,0 -6.512,3.246 -7.587,6.509c-5.434,15.191 -17.363,34.725 -33.646,34.725c-2.171,-0 -4.342,-0 -6.513,-1.096l-16.266,-5.417c-10.85,-4.337 -36.892,-13.021 -58.592,-13.021c-7.604,0 -14.117,1.079 -20.625,3.246c11.942,-20.604 68.367,-47.742 80.296,-50.988c39.062,-5.433 71.612,-28.212 71.612,-70.537c0,-26.042 -10.85,-43.404 -24.946,-56.425c-28.212,-22.779 -69.445,-26.042 -81.391,-26.042c-39.063,0 -70.521,2.171 -98.734,34.721c-7.604,8.683 -10.85,17.363 -10.85,26.042c0,7.604 3.246,16.287 6.513,26.041c6.508,13.021 20.608,22.796 35.796,22.796c27.137,0 30.383,-26.041 30.383,-37.983c0,-24.95 -27.117,-27.121 -27.117,-37.971c0,-7.604 10.85,-20.625 43.4,-20.625c50.992,0 68.355,42.325 68.355,55.346c-0,19.533 -6.513,37.971 -17.363,53.162c-19.533,24.963 -55.329,33.646 -82.467,51.005c-30.379,18.437 -50.987,49.916 -60.762,84.637c-0,7.588 3.262,16.267 9.775,19.529c1.075,1.079 3.246,1.079 4.337,1.079c11.93,0 18.438,-33.629 50.992,-33.629c21.7,0 29.304,29.288 78.125,29.288c22.796,-0 65.104,-2.171 73.783,-85.713" style="fill-rule:nonzero;"/></g><g><path d="M6610.02,1118.96l0,-116.112c0,-5.417 -1.079,-9.754 -6.512,-9.754c-4.338,-0 -7.588,1.075 -10.85,5.416l-32.55,62.934c-2.171,2.17 -5.417,5.433 -5.417,13.021l-0,44.495l-70.542,0c44.5,-36.891 113.942,-159.512 115.021,-166.025c0,-1.075 1.092,-2.17 1.092,-3.245c-0,-4.342 -4.342,-7.605 -7.604,-7.605c-5.417,0 -28.213,2.171 -37.967,2.171c-9.775,0 -16.288,-2.171 -20.625,-2.171c-5.417,0 -13.021,2.171 -13.021,10.85c0,69.446 -56.425,148.663 -70.521,168.196c-2.171,2.171 -4.341,5.417 -4.341,8.679c-0,5.417 4.341,10.85 10.85,10.85l97.658,0l-0,33.63c-0,15.191 -8.683,19.533 -17.363,19.533c-9.775,-0 -14.116,4.337 -14.116,9.775c-0,5.412 2.171,11.925 11.946,11.925l93.316,-0c5.417,-0 10.85,-4.342 10.85,-11.929c0,-7.604 -6.508,-10.85 -11.946,-10.85c-5.416,-0 -17.358,-3.263 -17.358,-20.625l0,-31.459l40.154,0c5.417,0 8.684,-4.337 8.684,-10.85c-0,-6.508 -2.171,-10.85 -8.684,-10.85l-40.154,0" style="fill-rule:nonzero;"/></g><g><path d="M7503.6,1118.96l0,-116.112c0,-5.417 -1.095,-9.754 -6.512,-9.754c-4.338,-0 -7.604,1.075 -10.85,5.416l-32.55,62.934c-2.171,2.17 -5.433,5.433 -5.433,13.021l-0,44.495l-70.521,0c44.479,-36.891 113.921,-159.512 115.016,-166.025c0,-1.075 1.075,-2.17 1.075,-3.245c0,-4.342 -4.341,-7.605 -7.587,-7.605c-5.433,0 -28.213,2.171 -37.983,2.171c-9.759,0 -16.271,-2.171 -20.609,-2.171c-5.433,0 -13.021,2.171 -13.021,10.85c0,69.446 -56.425,148.663 -70.537,168.196c-2.171,2.171 -4.342,5.417 -4.342,8.679c0,5.417 4.342,10.85 10.85,10.85l97.659,0l-0,33.63c-0,15.191 -8.684,19.533 -17.363,19.533c-9.758,-0 -14.096,4.337 -14.096,9.775c0,5.412 2.167,11.925 11.925,11.925l93.317,-0c5.433,-0 10.85,-4.342 10.85,-11.929c-0,-7.604 -6.508,-10.85 -11.925,-10.85c-5.438,-0 -17.363,-3.263 -17.363,-20.625l0,-31.459l40.138,0c5.433,0 8.683,-4.337 8.683,-10.85c0,-6.508 -2.171,-10.85 -8.683,-10.85l-40.138,0" style="fill-rule:nonzero;"/></g><g><path d="M8277.18,1067.95c-0,0 -1.075,4.342 -1.075,7.604c-0,4.342 4.341,8.683 8.679,8.683c3.25,0 5.417,-3.266 6.512,-4.341c1.075,-3.263 14.096,-47.742 20.609,-58.592c2.171,-4.342 4.337,-5.437 5.433,-5.437c2.171,-0 3.246,4.341 3.246,7.604l-0,155.158c-0,13.021 -10.85,20.625 -21.7,20.625c-4.342,0 -9.758,2.171 -9.758,8.679c-0,6.513 5.416,8.684 14.095,8.684l91.146,-0c8.684,-0 8.684,-8.684 8.684,-8.684c-0,0 -0,-8.679 -8.684,-8.679c-7.583,0 -17.358,-9.775 -17.358,-19.533l-0,-225.692c-0,-8.683 -3.246,-13.021 -10.85,-13.021c-7.588,0 -14.1,2.171 -20.608,2.171c-10.85,0 -13.021,0 -21.705,-2.171c-4.337,0 -9.77,6.509 -13.02,10.85l-33.646,116.092" style="fill-rule:nonzero;"/></g><g><path d="M9479.81,1024.95c-0,-7.604 -3.246,-8.679 -6.513,-8.679c-4.337,-0 -6.508,3.246 -7.587,6.512c-5.434,15.188 -17.359,34.721 -33.646,34.721c-2.167,0 -4.338,0 -6.508,-1.092l-16.267,-5.416c-10.85,-4.342 -36.892,-13.021 -58.596,-13.021c-7.604,-0 -14.112,1.075 -20.625,3.246c11.946,-20.609 68.371,-47.746 80.296,-50.992c39.062,-5.433 71.617,-28.213 71.617,-70.538c-0,-26.041 -10.855,-43.404 -24.95,-56.425c-28.213,-22.775 -69.446,-26.041 -81.388,-26.041c-39.062,-0 -70.521,2.171 -98.733,34.725c-7.604,8.679 -10.85,17.358 -10.85,26.041c-0,7.605 3.246,16.284 6.508,26.042c6.513,13.021 20.608,22.796 35.8,22.796c27.133,-0 30.383,-26.042 30.383,-37.988c0,-24.95 -27.12,-27.116 -27.12,-37.97c-0,-7.605 10.85,-20.625 43.404,-20.625c50.987,-0 68.35,42.329 68.35,55.35c-0,19.529 -6.509,37.966 -17.363,53.158c-19.529,24.967 -55.329,33.646 -82.462,51.008c-30.384,18.438 -50.992,49.913 -60.767,84.634c0,7.587 3.267,16.266 9.775,19.533c1.079,1.075 3.246,1.075 4.342,1.075c11.925,-0 18.437,-33.629 50.987,-33.629c21.704,-0 29.309,29.287 78.125,29.287c22.796,0 65.104,-2.166 73.788,-85.708" style="fill-rule:nonzero;"/></g><g><path d="M10462.9,919.288l0,-116.092c0,-5.433 -1.075,-9.775 -6.508,-9.775c-4.342,-0 -7.588,1.091 -10.85,5.433l-32.554,62.934c-2.171,2.17 -5.417,5.416 -5.417,13.02l-0,44.48l-70.538,-0c44.496,-36.892 113.942,-159.496 115.017,-166.005c0,-1.095 1.096,-2.17 1.096,-3.266c-0,-4.342 -4.342,-7.588 -7.604,-7.588c-5.417,0 -28.213,2.171 -37.971,2.171c-9.775,0 -16.283,-2.171 -20.625,-2.171c-5.417,0 -13.021,2.171 -13.021,10.854c0,69.442 -56.425,148.642 -70.521,168.175c-2.171,2.171 -4.341,5.434 -4.341,8.679c-0,5.434 4.341,10.855 10.854,10.855l97.654,-0l-0,33.645c-0,15.188 -8.679,19.53 -17.363,19.53c-9.77,-0 -14.112,4.341 -14.112,9.758c-0,5.433 2.171,11.942 11.946,11.942l93.312,-0c5.417,-0 10.854,-4.338 10.854,-11.942c0,-7.587 -6.512,-10.854 -11.945,-10.854c-5.417,-0 -17.363,-3.246 -17.363,-20.604l0,-31.479l40.158,-0c5.417,-0 8.68,-4.338 8.68,-10.85c-0,-6.509 -2.171,-10.85 -8.68,-10.85l-40.158,-0" style="fill-rule:nonzero;"/></g><g><path d="M11375,1067.95c0,0 -1.096,4.342 -1.096,7.604c0,4.342 4.342,8.683 8.679,8.683c3.267,0 5.438,-3.266 6.513,-4.341c1.092,-3.263 14.112,-47.742 20.625,-58.592c2.171,-4.342 4.342,-5.437 5.417,-5.437c2.17,-0 3.262,4.341 3.262,7.604l0,155.158c0,13.021 -10.85,20.625 -21.7,20.625c-4.342,0 -9.775,2.171 -9.775,8.679c0,6.513 5.433,8.684 14.117,8.684l91.146,-0c8.679,-0 8.679,-8.684 8.679,-8.684c-0,0 -0,-8.679 -8.679,-8.679c-7.605,0 -17.363,-9.775 -17.363,-19.533l0,-225.692c0,-8.683 -3.262,-13.021 -10.85,-13.021c-7.604,0 -14.117,2.171 -20.625,2.171c-10.85,0 -13.021,0 -21.704,-2.171c-4.338,0 -9.754,6.509 -13.021,10.85l-33.625,116.092" style="fill-rule:nonzero;"/></g><g><path d="M12438.3,1129.81c-0,-7.604 -3.263,-8.679 -6.509,-8.679c-4.341,0 -6.512,3.246 -7.604,6.509c-5.416,15.191 -17.362,34.725 -33.629,34.725c-2.171,-0 -4.342,-0 -6.508,-1.096l-16.288,-5.417c-10.85,-4.337 -36.891,-13.021 -58.591,-13.021c-7.588,0 -14.1,1.079 -20.609,3.246c11.925,-20.604 68.35,-47.742 80.296,-50.988c39.063,-5.433 71.613,-28.212 71.613,-70.537c-0,-26.042 -10.85,-43.404 -24.963,-56.425c-28.212,-22.779 -69.446,-26.042 -81.375,-26.042c-39.062,0 -70.537,2.171 -98.75,34.721c-7.583,8.683 -10.85,17.363 -10.85,26.042c0,7.604 3.267,16.287 6.513,26.041c6.508,13.021 20.625,22.796 35.816,22.796c27.117,0 30.379,-26.041 30.379,-37.983c0,-24.95 -27.133,-27.121 -27.133,-37.971c0,-7.604 10.85,-20.625 43.4,-20.625c51.008,0 68.371,42.325 68.371,55.346c-0,19.533 -6.513,37.971 -17.363,53.162c-19.529,24.963 -55.345,33.646 -82.466,51.005c-30.379,18.437 -51.004,49.916 -60.763,84.637c0,7.588 3.246,16.267 9.759,19.529c1.091,1.079 3.262,1.079 4.337,1.079c11.946,0 18.458,-33.629 51.008,-33.629c21.7,0 29.288,29.288 78.125,29.288c22.78,-0 65.105,-2.171 73.784,-85.713" style="fill-rule:nonzero;"/></g><g><path d="M13282.1,1118.96l0,-116.112c0,-5.417 -1.096,-9.754 -6.512,-9.754c-4.338,-0 -7.605,1.075 -10.85,5.416l-32.55,62.934c-2.171,2.17 -5.434,5.433 -5.434,13.021l0,44.495l-70.521,0c44.48,-36.891 113.921,-159.512 115.017,-166.025c0,-1.075 1.075,-2.17 1.075,-3.245c0,-4.342 -4.342,-7.605 -7.587,-7.605c-5.434,0 -28.213,2.171 -37.984,2.171c-9.758,0 -16.271,-2.171 -20.608,-2.171c-5.433,0 -13.021,2.171 -13.021,10.85c0,69.446 -56.425,148.663 -70.537,168.196c-2.171,2.171 -4.342,5.417 -4.342,8.679c-0,5.417 4.342,10.85 10.85,10.85l97.658,0l0,33.63c0,15.191 -8.683,19.533 -17.362,19.533c-9.759,-0 -14.096,4.337 -14.096,9.775c-0,5.412 2.167,11.925 11.925,11.925l93.317,-0c5.433,-0 10.85,-4.342 10.85,-11.929c-0,-7.604 -6.509,-10.85 -11.925,-10.85c-5.438,-0 -17.363,-3.263 -17.363,-20.625l0,-31.459l40.138,0c5.433,0 8.683,-4.337 8.683,-10.85c-0,-6.508 -2.171,-10.85 -8.683,-10.85l-40.138,0" style="fill-rule:nonzero;"/></g><g><path d="M14175.7,1118.72l-0,-116.113c-0,-5.416 -1.075,-9.758 -6.513,-9.758c-4.337,-0 -7.583,1.079 -10.85,5.417l-32.55,62.933c-2.171,2.171 -5.416,5.437 -5.416,13.021l-0,44.5l-70.538,-0c44.496,-36.892 113.938,-159.517 115.017,-166.025c-0,-1.075 1.091,-2.171 1.091,-3.246c0,-4.342 -4.337,-7.604 -7.604,-7.604c-5.416,-0 -28.212,2.166 -37.966,2.166c-9.775,0 -16.288,-2.166 -20.625,-2.166c-5.417,-0 -13.021,2.166 -13.021,10.85c-0,69.441 -56.425,148.662 -70.521,168.196c-2.171,2.166 -4.342,5.412 -4.342,8.679c0,5.416 4.342,10.85 10.85,10.85l97.659,-0l-0,33.629c-0,15.192 -8.684,19.529 -17.363,19.529c-9.775,0 -14.112,4.342 -14.112,9.775c-0,5.417 2.166,11.929 11.941,11.929l93.317,0c5.417,0 10.85,-4.341 10.85,-11.929c-0,-7.604 -6.508,-10.85 -11.942,-10.85c-5.416,0 -17.362,-3.262 -17.362,-20.625l-0,-31.458l40.154,-0c5.417,-0 8.683,-4.342 8.683,-10.85c0,-6.513 -2.171,-10.85 -8.683,-10.85l-40.154,-0" style="fill-rule:nonzero;"/></g><g><path d="M15396.5,932.325c0,0 -1.075,4.342 -1.075,7.588c0,4.341 4.338,8.679 8.679,8.679c3.246,-0 5.417,-3.246 6.513,-4.338c1.075,-3.246 14.096,-47.746 20.604,-58.596c2.171,-4.337 4.342,-5.416 5.437,-5.416c2.167,-0 3.246,4.341 3.246,7.587l0,155.175c0,13.021 -10.85,20.609 -21.704,20.609c-4.337,-0 -9.754,2.17 -9.754,8.679c-0,6.512 5.417,8.679 14.096,8.679l91.146,-0c8.679,-0 8.679,-8.679 8.679,-8.679c-0,-0 -0,-8.679 -8.679,-8.679c-7.588,-0 -17.363,-9.759 -17.363,-19.534l0,-225.696c0,-8.679 -3.246,-13.02 -10.85,-13.02c-7.587,-0 -14.096,2.17 -20.608,2.17c-10.85,0 -13.021,0 -21.7,-2.17c-4.342,-0 -9.775,6.512 -13.021,10.854l-33.646,116.108" style="fill-rule:nonzero;"/></g><g><path d="M16599.1,856.233c0,-7.604 -3.246,-8.683 -6.508,-8.683c-4.342,0 -6.513,3.25 -7.588,6.512c-5.433,15.192 -17.362,34.721 -33.646,34.721c-2.17,0 -4.341,0 -6.512,-1.091l-16.267,-5.417c-10.85,-4.342 -36.891,-13.021 -58.591,-13.021c-7.605,0 -14.117,1.075 -20.625,3.246c11.941,-20.608 68.366,-47.742 80.291,-50.988c39.063,-5.437 71.617,-28.212 71.617,-70.541c-0,-26.042 -10.85,-43.4 -24.95,-56.421c-28.208,-22.779 -69.442,-26.042 -81.388,-26.042c-39.062,0 -70.52,2.167 -98.733,34.721c-7.604,8.679 -10.85,17.363 -10.85,26.042c0,7.604 3.246,16.283 6.513,26.041c6.508,13.021 20.604,22.796 35.795,22.796c27.138,0 30.384,-26.041 30.384,-37.987c-0,-24.946 -27.117,-27.117 -27.117,-37.967c0,-7.604 10.85,-20.625 43.4,-20.625c50.992,0 68.35,42.325 68.35,55.346c0,19.533 -6.508,37.967 -17.358,53.158c-19.534,24.967 -55.329,33.646 -82.467,51.009c-30.383,18.437 -50.987,49.912 -60.762,84.637c-0,7.583 3.262,16.267 9.775,19.529c1.075,1.075 3.245,1.075 4.337,1.075c11.929,0 18.438,-33.629 50.992,-33.629c21.7,0 29.304,29.292 78.125,29.292c22.796,-0 65.104,-2.171 73.783,-85.713" style="fill-rule:nonzero;"/></g><g><path d="M17582.3,715.071l0,-116.113c0,-5.416 -1.075,-9.758 -6.508,-9.758c-4.342,-0 -7.588,1.079 -10.85,5.417l-32.554,62.937c-2.171,2.167 -5.417,5.433 -5.417,13.021l-0,44.496l-70.538,-0c44.496,-36.892 113.942,-159.517 115.017,-166.025c0,-1.075 1.096,-2.171 1.096,-3.246c-0,-4.342 -4.342,-7.604 -7.604,-7.604c-5.417,-0 -28.213,2.167 -37.971,2.167c-9.775,-0 -16.283,-2.167 -20.625,-2.167c-5.417,-0 -13.021,2.167 -13.021,10.85c0,69.442 -56.421,148.662 -70.521,168.196c-2.171,2.166 -4.337,5.412 -4.337,8.679c-0,5.417 4.337,10.85 10.85,10.85l97.654,-0l-0,33.629c-0,15.192 -8.679,19.529 -17.358,19.529c-9.775,0 -14.117,4.342 -14.117,9.775c-0,5.417 2.171,11.929 11.946,11.929l93.316,0c5.417,0 10.85,-4.341 10.85,-11.929c0,-7.604 -6.512,-10.85 -11.945,-10.85c-5.417,0 -17.363,-3.262 -17.363,-20.625l0,-31.458l40.158,-0c5.417,-0 8.68,-4.342 8.68,-10.85c-0,-6.513 -2.171,-10.85 -8.68,-10.85l-40.158,-0" style="fill-rule:nonzero;"/></g><g><path d="M18494.6,528.679c0,0 -1.079,4.342 -1.079,7.588c0,4.341 4.342,8.683 8.684,8.683c3.245,0 5.416,-3.25 6.508,-4.342c1.079,-3.245 14.1,-47.741 20.608,-58.595c2.171,-4.338 4.342,-5.417 5.434,-5.417c2.17,-0 3.245,4.342 3.245,7.587l0,155.175c0,13.021 -10.85,20.609 -21.7,20.609c-4.341,-0 -9.758,2.17 -9.758,8.679c0,6.512 5.417,8.679 14.1,8.679l91.146,0c8.679,0 8.679,-8.679 8.679,-8.679c0,-0 0,-8.679 -8.679,-8.679c-7.588,-0 -17.363,-9.759 -17.363,-19.534l0,-225.691c0,-8.684 -3.245,-13.021 -10.85,-13.021c-7.587,-0 -14.095,2.167 -20.608,2.167c-10.85,-0 -13.021,-0 -21.7,-2.167c-4.342,-0 -9.775,6.508 -13.021,10.85l-33.646,116.108" style="fill-rule:nonzero;"/></g><g><path d="M19557.4,452.588c-0,-7.605 -3.246,-8.68 -6.509,-8.68c-4.341,0 -6.512,3.246 -7.587,6.509c-5.433,15.191 -17.363,34.72 -33.646,34.72c-2.171,0 -4.342,0 -6.512,-1.091l-16.267,-5.417c-10.85,-4.342 -36.892,-13.021 -58.592,-13.021c-7.604,0 -14.116,1.075 -20.625,3.246c11.942,-20.608 68.367,-47.742 80.292,-50.987c39.062,-5.438 71.617,-28.213 71.617,-70.542c-0,-26.042 -10.85,-43.4 -24.95,-56.421c-28.209,-22.779 -69.442,-26.041 -81.388,-26.041c-39.062,-0 -70.521,2.166 -98.733,34.72c-7.604,8.679 -10.85,17.363 -10.85,26.042c-0,7.604 3.246,16.283 6.512,26.042c6.509,13.02 20.604,22.795 35.796,22.795c27.138,0 30.383,-26.041 30.383,-37.987c0,-24.946 -27.116,-27.117 -27.116,-37.967c-0,-7.604 10.85,-20.625 43.4,-20.625c50.991,0 68.35,42.325 68.35,55.346c-0,19.533 -6.509,37.967 -17.359,53.158c-19.533,24.967 -55.329,33.646 -82.466,51.009c-30.384,18.437 -50.988,49.912 -60.763,84.637c0,7.584 3.263,16.267 9.775,19.529c1.075,1.076 3.246,1.076 4.338,1.076c11.929,-0 18.437,-33.63 50.991,-33.63c21.7,0 29.305,29.292 78.125,29.292c22.796,0 65.105,-2.171 73.784,-85.712" style="fill-rule:nonzero;"/></g><g><path d="M20331.9,134.792c-59.671,-0 -85.713,40.158 -85.713,62.933c0,15.192 8.684,33.646 35.8,34.725c20.625,-0 30.384,-13.021 30.384,-27.121l-0,-4.337c-1.08,-16.288 -11.93,-17.363 -14.1,-18.459c-2.171,-1.075 -6.509,-5.416 -6.509,-13.02c2.171,-11.926 18.438,-16.267 22.775,-16.267c55.35,-0 71.617,29.287 71.617,47.746c-0,50.987 -52.083,55.329 -68.35,56.421c-7.604,-0 -15.192,3.245 -15.192,9.758c0,6.508 9.759,6.508 14.096,6.508c62.933,0 71.617,32.554 71.617,48.838c-0,62.933 -50.992,65.104 -64.013,65.104c-6.508,-0 -17.358,-3.263 -18.454,-8.679l0,-6.513c0,-11.942 3.263,-24.962 4.342,-35.812c-0,-19.534 -13.021,-31.459 -32.554,-31.459l-4.338,0c-7.587,2.167 -15.192,6.509 -20.608,11.925c-7.604,6.513 -9.775,16.284 -9.775,26.042c1.091,34.721 31.475,64.029 85.729,65.104l6.508,0c53.163,0 108.509,-28.212 108.509,-75.954c-0,-10.85 -2.171,-19.533 -5.434,-26.042c-2.171,-6.512 -6.512,-11.929 -10.85,-16.266c-3.246,-4.342 -7.587,-7.604 -11.929,-10.85l-11.942,-6.513l-6.512,-2.171c-2.171,0 -3.246,-1.091 -5.417,-1.091l-6.508,-2.171c-3.267,-1.075 -4.342,-0 -5.438,-2.171c-1.075,-1.075 -1.075,-2.171 -1.075,-3.246c0,-2.171 1.075,-4.341 3.246,-4.341l17.363,-5.434c7.604,-4.342 15.191,-7.587 20.625,-15.192c8.679,-8.679 11.925,-22.775 11.925,-34.72c-0,-50.992 -67.271,-65.105 -91.146,-67.275l-8.679,-0" style="fill-rule:nonzero;"/></g><g><path d="M21294.3,176.875l0,-116.113c0,-5.416 -1.092,-9.754 -6.508,-9.754c-4.342,0 -7.604,1.075 -10.85,5.417l-32.554,62.933c-2.171,2.171 -5.434,5.434 -5.434,13.021l0,44.496l-70.521,-0c44.48,-36.892 113.925,-159.513 115.017,-166.025c0,-1.075 1.079,-2.171 1.079,-3.246c0,-4.342 -4.341,-7.604 -7.587,-7.604c-5.434,-0 -28.213,2.171 -37.988,2.171c-9.758,-0 -16.266,-2.171 -20.608,-2.171c-5.433,-0 -13.021,2.171 -13.021,10.85c0,69.446 -56.421,148.663 -70.537,168.196c-2.171,2.171 -4.342,5.416 -4.342,8.679c-0,5.417 4.342,10.85 10.854,10.85l97.654,-0l0,33.629c0,15.192 -8.679,19.533 -17.362,19.533c-9.754,0 -14.096,4.338 -14.096,9.776c-0,5.416 2.171,11.924 11.929,11.924l93.313,0c5.437,0 10.854,-4.341 10.854,-11.925c-0,-7.604 -6.513,-10.854 -11.929,-10.854c-5.434,0 -17.363,-3.262 -17.363,-20.625l0,-31.458l40.142,0c5.433,0 8.679,-4.337 8.679,-10.85c-0,-6.508 -2.171,-10.85 -8.679,-10.85l-40.142,0" style="fill-rule:nonzero;"/></g><g><path d="M22187.6,176.875l0,-116.113c0,-5.416 -1.092,-9.754 -6.508,-9.754c-4.342,0 -7.604,1.075 -10.854,5.417l-32.55,62.933c-2.171,2.171 -5.434,5.434 -5.434,13.021l0,44.496l-70.521,-0c44.48,-36.892 113.921,-159.513 115.017,-166.025c0,-1.075 1.075,-2.171 1.075,-3.246c0,-4.342 -4.337,-7.604 -7.587,-7.604c-5.434,-0 -28.209,2.171 -37.984,2.171c-9.758,-0 -16.266,-2.171 -20.608,-2.171c-5.433,-0 -13.021,2.171 -13.021,10.85c0,69.446 -56.425,148.663 -70.537,168.196c-2.171,2.171 -4.342,5.416 -4.342,8.679c-0,5.417 4.342,10.85 10.85,10.85l97.658,-0l0,33.629c0,15.192 -8.683,19.533 -17.362,19.533c-9.759,0 -14.096,4.338 -14.096,9.776c-0,5.416 2.171,11.924 11.925,11.924l93.317,0c5.433,0 10.85,-4.341 10.85,-11.925c-0,-7.604 -6.509,-10.854 -11.925,-10.854c-5.434,0 -17.363,-3.262 -17.363,-20.625l0,-31.458l40.138,0c5.437,0 8.683,-4.337 8.683,-10.85c-0,-6.508 -2.171,-10.85 -8.683,-10.85l-40.138,0" style="fill-rule:nonzero;"/></g><g><path d="M23269.8,452.588c0,-7.605 -3.246,-8.68 -6.508,-8.68c-4.342,0 -6.513,3.246 -7.588,6.509c-5.433,15.191 -17.362,34.72 -33.646,34.72c-2.17,0 -4.341,0 -6.508,-1.091l-16.271,-5.417c-10.85,-4.342 -36.891,-13.021 -58.591,-13.021c-7.605,0 -14.117,1.075 -20.625,3.246c11.945,-20.608 68.366,-47.742 80.295,-50.987c39.063,-5.438 71.613,-28.213 71.613,-70.542c-0,-26.042 -10.85,-43.4 -24.946,-56.421c-28.212,-22.779 -69.446,-26.041 -81.392,-26.041c-39.062,-0 -70.52,2.166 -98.729,34.72c-7.604,8.679 -10.854,17.363 -10.854,26.042c0,7.604 3.25,16.283 6.513,26.042c6.508,13.02 20.608,22.795 35.8,22.795c27.133,0 30.379,-26.041 30.379,-37.987c-0,-24.946 -27.117,-27.117 -27.117,-37.967c0,-7.604 10.85,-20.625 43.404,-20.625c50.988,0 68.35,42.325 68.35,55.346c0,19.533 -6.512,37.967 -17.362,53.158c-19.529,24.967 -55.329,33.646 -82.467,51.009c-30.379,18.437 -50.987,49.912 -60.762,84.637c-0,7.584 3.262,16.267 9.775,19.529c1.075,1.076 3.245,1.076 4.341,1.076c11.925,-0 18.438,-33.63 50.988,-33.63c21.7,0 29.304,29.292 78.125,29.292c22.796,0 65.104,-2.171 73.783,-85.712" style="fill-rule:nonzero;"/></g><g><path d="M24132.8,528.679c-0,0 -1.092,4.342 -1.092,7.588c0,4.341 4.342,8.683 8.679,8.683c3.267,0 5.434,-3.25 6.513,-4.342c1.091,-3.245 14.112,-47.741 20.625,-58.595c2.171,-4.338 4.337,-5.417 5.416,-5.417c2.171,-0 3.263,4.342 3.263,7.587l-0,155.175c-0,13.021 -10.85,20.609 -21.7,20.609c-4.342,-0 -9.775,2.17 -9.775,8.679c-0,6.512 5.433,8.679 14.112,8.679l91.146,0c8.684,0 8.684,-8.679 8.684,-8.679c-0,-0 -0,-8.679 -8.684,-8.679c-7.604,-0 -17.358,-9.759 -17.358,-19.534l-0,-225.691c-0,-8.684 -3.267,-13.021 -10.85,-13.021c-7.604,-0 -14.117,2.167 -20.625,2.167c-10.854,-0 -13.021,-0 -21.704,-2.167c-4.338,-0 -9.754,6.508 -13.021,10.85l-33.629,116.108" style="fill-rule:nonzero;"/></g><g><path d="M25285.8,715.071l0,-116.113c0,-5.416 -1.096,-9.758 -6.512,-9.758c-4.338,-0 -7.605,1.079 -10.85,5.417l-32.55,62.937c-2.171,2.167 -5.438,5.433 -5.438,13.021l0,44.496l-70.521,-0c44.479,-36.892 113.925,-159.517 115.021,-166.025c0,-1.075 1.075,-2.171 1.075,-3.246c0,-4.342 -4.342,-7.604 -7.587,-7.604c-5.434,-0 -28.213,2.167 -37.988,2.167c-9.754,-0 -16.267,-2.167 -20.604,-2.167c-5.438,-0 -13.021,2.167 -13.021,10.85c0,69.442 -56.425,148.662 -70.542,168.196c-2.166,2.166 -4.337,5.412 -4.337,8.679c-0,5.417 4.337,10.85 10.85,10.85l97.654,-0l0,33.629c0,15.192 -8.679,19.529 -17.358,19.529c-9.759,0 -14.1,4.342 -14.1,9.775c-0,5.417 2.171,11.929 11.929,11.929l93.317,0c5.433,0 10.85,-4.341 10.85,-11.929c-0,-7.604 -6.513,-10.85 -11.93,-10.85c-5.433,0 -17.358,-3.262 -17.358,-20.625l0,-31.458l40.138,-0c5.433,-0 8.679,-4.342 8.679,-10.85c-0,-6.513 -2.167,-10.85 -8.679,-10.85l-40.138,-0" style="fill-rule:nonzero;"/></g><g><path d="M26179.1,715.071l0,-116.113c0,-5.416 -1.075,-9.758 -6.508,-9.758c-4.342,-0 -7.588,1.079 -10.85,5.417l-32.554,62.937c-2.171,2.167 -5.417,5.433 -5.417,13.021l-0,44.496l-70.538,-0c44.496,-36.892 113.942,-159.517 115.017,-166.025c0,-1.075 1.096,-2.171 1.096,-3.246c-0,-4.342 -4.342,-7.604 -7.604,-7.604c-5.417,-0 -28.213,2.167 -37.971,2.167c-9.775,-0 -16.283,-2.167 -20.625,-2.167c-5.417,-0 -13.021,2.167 -13.021,10.85c0,69.442 -56.421,148.662 -70.521,168.196c-2.171,2.166 -4.337,5.412 -4.337,8.679c-0,5.417 4.337,10.85 10.85,10.85l97.654,-0l-0,33.629c-0,15.192 -8.679,19.529 -17.358,19.529c-9.775,0 -14.117,4.342 -14.117,9.775c-0,5.417 2.171,11.929 11.946,11.929l93.316,0c5.417,0 10.85,-4.341 10.85,-11.929c0,-7.604 -6.512,-10.85 -11.945,-10.85c-5.417,0 -17.363,-3.262 -17.363,-20.625l0,-31.458l40.158,-0c5.417,-0 8.68,-4.342 8.68,-10.85c-0,-6.513 -2.171,-10.85 -8.68,-10.85l-40.158,-0" style="fill-rule:nonzero;"/></g><g><path d="M27122.4,856.233c0,-7.604 -3.262,-8.683 -6.508,-8.683c-4.342,0 -6.513,3.25 -7.604,6.512c-5.417,15.192 -17.363,34.721 -33.63,34.721c-2.17,0 -4.341,0 -6.508,-1.091l-16.287,-5.417c-10.85,-4.342 -36.892,-13.021 -58.592,-13.021c-7.588,0 -14.1,1.075 -20.608,3.246c11.925,-20.608 68.35,-47.742 80.295,-50.988c39.063,-5.437 71.613,-28.212 71.613,-70.541c-0,-26.042 -10.85,-43.4 -24.963,-56.421c-28.212,-22.779 -69.445,-26.042 -81.375,-26.042c-39.062,0 -70.537,2.167 -98.75,34.721c-7.583,8.679 -10.85,17.363 -10.85,26.042c0,7.604 3.267,16.283 6.513,26.041c6.508,13.021 20.625,22.796 35.817,22.796c27.116,0 30.379,-26.041 30.379,-37.987c-0,-24.946 -27.134,-27.117 -27.134,-37.967c0,-7.604 10.85,-20.625 43.4,-20.625c51.009,0 68.371,42.325 68.371,55.346c0,19.533 -6.512,37.967 -17.362,53.158c-19.529,24.967 -55.346,33.646 -82.467,51.009c-30.379,18.437 -51.004,49.912 -60.762,84.637c-0,7.583 3.245,16.267 9.758,19.529c1.092,1.075 3.262,1.075 4.337,1.075c11.946,0 18.459,-33.629 51.009,-33.629c21.7,0 29.287,29.292 78.125,29.292c22.779,-0 65.104,-2.171 73.783,-85.713" style="fill-rule:nonzero;"/></g><g><path d="M27846.2,932.325c-0,0 -1.079,4.342 -1.079,7.588c-0,4.341 4.341,8.679 8.683,8.679c3.246,-0 5.417,-3.246 6.508,-4.338c1.079,-3.246 14.1,-47.746 20.609,-58.596c2.17,-4.337 4.341,-5.416 5.433,-5.416c2.171,-0 3.246,4.341 3.246,7.587l-0,155.175c-0,13.021 -10.85,20.609 -21.7,20.609c-4.342,-0 -9.759,2.17 -9.759,8.679c0,6.512 5.417,8.679 14.1,8.679l91.146,-0c8.679,-0 8.679,-8.679 8.679,-8.679c0,-0 0,-8.679 -8.679,-8.679c-7.587,-0 -17.362,-9.759 -17.362,-19.534l-0,-225.696c-0,-8.679 -3.246,-13.02 -10.85,-13.02c-7.588,-0 -14.096,2.17 -20.609,2.17c-10.85,0 -13.02,0 -21.7,-2.17c-4.341,-0 -9.775,6.512 -13.02,10.854l-33.646,116.108" style="fill-rule:nonzero;"/></g><g><path d="M1612.26,3370.47c96.562,-0 214.846,-88.979 214.846,-181.2c-0,-55.346 -43.404,-90.071 -105.263,-90.071c-119.358,0 -214.841,87.9 -214.841,181.217c-0,56.425 46.666,90.054 105.258,90.054" style="fill-rule:nonzero;"/></g><g><path d="M2645.13,3235.92c96.579,-0 214.841,-88.975 214.841,-181.2c0,-55.346 -43.4,-90.067 -105.241,-90.067c-119.359,0 -214.846,87.896 -214.846,181.213c-0,56.425 46.65,90.054 105.246,90.054" style="fill-rule:nonzero;"/></g><g><path d="M3678.01,3101.37c96.562,-0 214.846,-88.975 214.846,-181.196c-0,-55.35 -43.405,-90.071 -105.263,-90.071c-119.354,0 -214.842,87.9 -214.842,181.217c0,56.421 46.667,90.05 105.259,90.05" style="fill-rule:nonzero;"/></g><g><path d="M4450.14,2880.02c-6.512,21.7 -57.517,43.404 -82.467,43.404c-6.508,-0 -11.941,-2.171 -13.02,-5.417c-2.171,-4.341 -3.263,-28.212 -3.263,-54.254c0,-33.646 1.092,-71.617 3.263,-80.296c2.17,-18.454 52.083,-41.233 79.204,-41.233c7.604,-0 14.112,2.171 16.283,6.512c2.171,5.417 4.342,32.55 4.342,61.838c-0,29.308 -2.171,59.687 -4.342,69.446m74.863,-176.859c7.604,-3.262 13.02,-11.941 13.02,-18.454l0,-77.029c0,-5.437 -3.25,-8.683 -7.587,-8.683c-2.171,-0 -3.267,-0 -5.433,1.079c-0,-0 -21.705,8.679 -27.121,9.771c-7.604,-0 -15.192,-5.434 -15.192,-14.113l0,-132.379c0,-6.508 -6.508,-11.925 -15.187,-11.925c-10.855,0 -17.363,5.417 -17.363,11.925l0,141.058c-1.096,10.85 -4.342,24.967 -14.117,31.475c-13.02,7.588 -49.912,22.78 -68.35,27.121c-9.775,0 -13.02,-13.021 -13.02,-21.704l-0,-130.208c-0,-6.509 -7.605,-11.925 -15.192,-11.925c-10.85,-0 -17.358,5.416 -17.358,11.925l-0,146.496c-0,15.191 -6.513,26.041 -13.021,29.287c-6.513,3.263 -28.213,11.946 -28.213,11.946c-7.604,2.167 -13.021,10.85 -13.021,17.358l0,77.034c0,6.508 3.246,9.775 8.68,9.775c4.341,-0 24.95,-9.775 28.212,-11.946c1.075,-0 2.171,-1.075 3.246,-1.075c7.604,-0 14.117,10.85 14.117,19.529l-0,107.412c-0,11.946 -5.434,21.705 -11.946,24.967c-6.509,2.171 -29.288,11.925 -29.288,11.925c-7.604,2.171 -13.021,10.854 -13.021,17.363l0,77.05c0,6.508 3.246,9.754 8.68,9.754c1.079,-0 3.245,-1.075 4.341,-1.075c0,-0 15.192,-6.509 24.946,-9.775c1.096,-1.075 2.171,-1.075 3.267,-1.075c7.587,-0 13.021,11.925 13.021,17.362l-0,133.454c-0,6.509 6.508,11.942 14.095,11.942c10.85,0 18.455,-5.433 18.455,-11.942l-0,-150.816c-0,-14.117 5.416,-21.7 10.85,-23.871l66.183,-27.138c1.092,0 3.262,-1.075 4.337,-1.075c8.684,0 14.117,13.021 14.117,19.529l0,135.625c0,6.513 6.508,11.946 14.096,11.946c11.946,0 18.454,-5.433 18.454,-11.946l0,-154.079c0,-8.679 4.342,-21.7 11.929,-24.946c7.604,-3.266 30.384,-11.945 30.384,-11.945c7.604,-3.246 13.02,-11.925 13.02,-18.438l0,-77.05c0,-5.416 -3.25,-8.679 -7.587,-8.679c-2.171,0 -3.267,0 -5.433,1.096l-28.213,10.85c-6.512,-0 -14.1,-6.513 -14.1,-19.533l0,-100.921c0,-7.584 5.417,-28.209 14.1,-31.459l28.213,-10.85" style="fill-rule:nonzero;"/></g><g><path d="M4710.35,2966.83c96.58,0 214.842,-88.979 214.842,-181.2c0,-55.346 -43.4,-90.071 -105.242,-90.071c-119.358,0 -214.845,87.9 -214.845,181.217c-0,56.425 46.65,90.054 105.245,90.054" style="fill-rule:nonzero;"/></g><g><path d="M5603.93,2832.28c96.583,0 214.846,-88.975 214.846,-181.2c-0,-55.346 -43.405,-90.067 -105.242,-90.067c-119.358,0 -214.846,87.896 -214.846,181.213c0,56.425 46.65,90.054 105.242,90.054" style="fill-rule:nonzero;"/></g><g><path d="M6497.52,2697.72c96.563,0 214.842,-88.975 214.842,-181.196c-0,-55.35 -43.404,-90.071 -105.259,-90.071c-119.358,0 -214.845,87.9 -214.845,181.217c-0,56.421 46.666,90.05 105.262,90.05" style="fill-rule:nonzero;"/></g><g><path d="M7391.06,2563.18c96.562,0 214.841,-88.975 214.841,-181.196c0,-55.346 -43.4,-90.071 -105.258,-90.071c-119.358,0 -214.846,87.9 -214.846,181.217c0,56.425 46.667,90.05 105.263,90.05" style="fill-rule:nonzero;"/></g><g><path d="M8284.6,2428.63c96.58,0 214.842,-88.975 214.842,-181.2c0,-55.346 -43.4,-90.066 -105.242,-90.066c-119.358,-0.001 -214.845,87.895 -214.845,181.212c-0,56.425 46.65,90.054 105.245,90.054" style="fill-rule:nonzero;"/></g><g><path d="M9317.47,2294.08c96.584,0 214.846,-88.975 214.846,-181.196c0,-55.35 -43.404,-90.071 -105.241,-90.071c-119.359,0 -214.846,87.9 -214.846,181.217c-0,56.421 46.65,90.05 105.241,90.05" style="fill-rule:nonzero;"/></g><g><path d="M10350.4,2159.53c96.563,0 214.846,-88.975 214.846,-181.196c-0,-55.345 -43.404,-90.071 -105.263,-90.071c-119.358,0 -214.841,87.9 -214.841,181.217c-0,56.425 46.666,90.05 105.258,90.05" style="fill-rule:nonzero;"/></g><g><path d="M11122.2,1938.17c-6.512,21.704 -57.5,43.404 -82.466,43.404c-6.509,0 -11.925,-2.171 -13.021,-5.417c-2.171,-4.341 -3.246,-28.212 -3.246,-54.254c0,-33.646 1.075,-71.612 3.246,-80.296c2.171,-18.454 52.083,-41.229 79.221,-41.229c7.587,0 14.096,2.167 16.266,6.509c2.171,5.416 4.342,32.554 4.342,61.841c0,29.304 -2.171,59.688 -4.342,69.442m74.88,-176.854c7.587,-3.267 13.02,-11.946 13.02,-18.459l0,-77.029c0,-5.433 -3.266,-8.679 -7.604,-8.679c-2.171,0 -3.246,0 -5.416,1.075c-0,0 -21.705,8.679 -27.138,9.775c-7.587,0 -15.192,-5.433 -15.192,-14.117l0,-132.379c0,-6.508 -6.508,-11.925 -15.187,-11.925c-10.854,0 -17.363,5.417 -17.363,11.929l0,141.059c-1.075,10.85 -4.341,24.962 -14.095,31.475c-13.021,7.587 -49.917,22.779 -68.371,27.116c-9.754,0 -13.021,-13.02 -13.021,-21.7l-0,-130.208c-0,-6.512 -7.588,-11.929 -15.192,-11.929c-10.85,-0 -17.358,5.417 -17.358,11.929l-0,146.492c-0,15.191 -6.513,26.041 -13.021,29.287c-6.512,3.267 -28.212,11.946 -28.212,11.946c-7.588,2.171 -13.021,10.85 -13.021,17.363l-0,77.029c-0,6.512 3.262,9.775 8.679,9.775c4.342,-0 24.967,-9.775 28.212,-11.946c1.096,-0 2.171,-1.075 3.263,-1.075c7.587,-0 14.1,10.85 14.1,19.533l-0,107.413c-0,11.941 -5.417,21.7 -11.929,24.962c-6.509,2.171 -29.304,11.929 -29.304,11.929c-7.588,2.171 -13.021,10.85 -13.021,17.359l-0,77.05c-0,6.512 3.262,9.758 8.679,9.758c1.096,0 3.267,-1.075 4.342,-1.075c-0,0 15.191,-6.512 24.966,-9.775c1.075,-1.079 2.167,-1.079 3.246,-1.079c7.604,-0 13.021,11.929 13.021,17.362l-0,133.455c-0,6.512 6.508,11.945 14.112,11.945c10.85,0 18.438,-5.433 18.438,-11.945l-0,-150.817c-0,-14.113 5.433,-21.7 10.85,-23.871l66.2,-27.133c1.075,-0 3.246,-1.079 4.342,-1.079c8.679,-0 14.095,13.02 14.095,19.533l0,135.625c0,6.508 6.509,11.946 14.113,11.946c11.929,-0 18.437,-5.438 18.437,-11.946l0,-154.079c0,-8.684 4.342,-21.704 11.946,-24.95c7.588,-3.263 30.384,-11.942 30.384,-11.942c7.587,-3.25 13.02,-11.929 13.02,-18.437l0,-77.05c0,-5.417 -3.266,-8.68 -7.604,-8.68c-2.171,0 -3.246,0 -5.416,1.092l-28.213,10.85c-6.512,0 -14.117,-6.508 -14.117,-19.529l0,-100.921c0,-7.587 5.438,-28.212 14.117,-31.458l28.213,-10.85" style="fill-rule:nonzero;"/></g><g><path d="M11382.4,2024.98c96.562,0 214.841,-88.975 214.841,-181.2c0,-55.345 -43.4,-90.066 -105.258,-90.066c-119.358,-0 -214.846,87.896 -214.846,181.212c0,56.425 46.667,90.054 105.263,90.054" style="fill-rule:nonzero;"/></g><g><path d="M12276.1,1890.43c96.562,0 214.841,-88.975 214.841,-181.196c0,-55.35 -43.404,-90.07 -105.258,-90.07c-119.358,-0 -214.846,87.9 -214.846,181.216c0,56.421 46.667,90.05 105.263,90.05" style="fill-rule:nonzero;"/></g><g><path d="M13169.6,1755.89c96.58,-0 214.842,-88.98 214.842,-181.2c0,-55.346 -43.404,-90.071 -105.242,-90.071c-119.358,-0 -214.845,87.9 -214.845,181.216c-0,56.425 46.65,90.055 105.245,90.055" style="fill-rule:nonzero;"/></g><g><path d="M14063.1,1621.34c96.579,-0 214.842,-88.975 214.842,-181.2c-0,-55.346 -43.4,-90.067 -105.242,-90.067c-119.358,-0 -214.846,87.9 -214.846,181.212c0,56.425 46.65,90.055 105.246,90.055" style="fill-rule:nonzero;"/></g><g><path d="M15404,1486.79c96.58,-0 214.842,-88.975 214.842,-181.196c0,-55.35 -43.4,-90.071 -105.242,-90.071c-119.358,-0 -214.845,87.9 -214.845,181.216c-0,56.421 46.65,90.051 105.245,90.051" style="fill-rule:nonzero;"/></g><g><path d="M16436.8,1352.24c96.579,-0 214.841,-88.979 214.841,-181.2c0,-55.346 -43.4,-90.071 -105.241,-90.071c-119.359,-0 -214.846,87.9 -214.846,181.217c-0,56.424 46.65,90.054 105.246,90.054" style="fill-rule:nonzero;"/></g><g><path d="M17469.8,1217.69c96.563,-0 214.846,-88.975 214.846,-181.2c-0,-55.346 -43.404,-90.067 -105.263,-90.067c-119.354,0 -214.841,87.9 -214.841,181.213c-0,56.425 46.666,90.054 105.258,90.054" style="fill-rule:nonzero;"/></g><g><path d="M18241.8,996.338c-6.509,21.7 -57.517,43.404 -82.467,43.404c-6.508,-0 -11.942,-2.171 -13.021,-5.417c-2.166,-4.342 -3.262,-28.212 -3.262,-54.254c-0,-33.646 1.096,-71.617 3.262,-80.296c2.171,-18.454 52.084,-41.233 79.204,-41.233c7.605,-0 14.113,2.17 16.284,6.512c2.171,5.417 4.341,32.55 4.341,61.838c0,29.308 -2.17,59.687 -4.341,69.446m74.862,-176.859c7.604,-3.262 13.021,-11.946 13.021,-18.454l0,-77.033c0,-5.434 -3.246,-8.679 -7.587,-8.679c-2.171,-0 -3.263,-0 -5.434,1.075c0,-0 -21.704,8.683 -27.121,9.774c-7.604,0 -15.187,-5.433 -15.187,-14.112l-0,-132.379c-0,-6.513 -6.513,-11.929 -15.192,-11.929c-10.85,-0 -17.362,5.416 -17.362,11.929l-0,141.058c-1.092,10.85 -4.342,24.967 -14.113,31.475c-13.021,7.588 -49.916,22.779 -68.354,27.121c-9.771,-0 -13.021,-13.021 -13.021,-21.704l0,-130.209c0,-6.508 -7.604,-11.925 -15.187,-11.925c-10.854,0 -17.363,5.417 -17.363,11.925l0,146.496c0,15.188 -6.512,26.042 -13.021,29.288c-6.512,3.262 -28.212,11.941 -28.212,11.941c-7.604,2.171 -13.021,10.855 -13.021,17.363l0,77.033c0,6.509 3.246,9.771 8.679,9.771c4.342,0 24.95,-9.771 28.213,-11.942c1.079,0 2.171,-1.079 3.246,-1.079c7.604,0 14.116,10.854 14.116,19.534l0,107.412c0,11.946 -5.433,21.7 -11.946,24.967c-6.508,2.171 -29.287,11.925 -29.287,11.925c-7.604,2.171 -13.021,10.85 -13.021,17.362l0,77.05c0,6.509 3.246,9.754 8.679,9.754c1.079,0 3.25,-1.075 4.342,-1.075c-0,0 15.192,-6.512 24.95,-9.774c1.092,-1.076 2.167,-1.076 3.262,-1.076c7.588,0 13.021,11.926 13.021,17.359l0,133.458c0,6.509 6.509,11.942 14.096,11.942c10.85,-0 18.454,-5.433 18.454,-11.942l0,-150.817c0,-14.116 5.417,-21.704 10.854,-23.87l66.18,-27.138c1.091,0 3.262,-1.075 4.341,-1.075c8.679,0 14.113,13.021 14.113,19.529l-0,135.625c-0,6.513 6.512,11.946 14.096,11.946c11.945,0 18.458,-5.433 18.458,-11.946l-0,-154.079c-0,-8.679 4.337,-21.7 11.925,-24.95c7.604,-3.262 30.383,-11.941 30.383,-11.941c7.604,-3.246 13.021,-11.93 13.021,-18.438l0,-77.05c0,-5.417 -3.246,-8.679 -7.587,-8.679c-2.171,-0 -3.263,-0 -5.434,1.092l-28.212,10.85c-6.513,-0 -14.096,-6.509 -14.096,-19.53l-0,-100.92c-0,-7.588 5.417,-28.213 14.096,-31.459l28.212,-10.85" style="fill-rule:nonzero;"/></g><g><path d="M18502.1,1083.14c96.583,-0 214.846,-88.975 214.846,-181.196c-0,-55.35 -43.405,-90.071 -105.242,-90.071c-119.358,0 -214.846,87.9 -214.846,181.217c0,56.421 46.65,90.05 105.242,90.05" style="fill-rule:nonzero;"/></g><g><path d="M19395.1,948.596c96.579,-0.004 214.842,-88.979 214.842,-181.2c-0,-55.346 -43.4,-90.071 -105.242,-90.071c-119.358,0 -214.846,87.9 -214.846,181.217c0,56.425 46.65,90.05 105.246,90.05" style="fill-rule:nonzero;"/></g><g><path d="M20288.2,814.046c96.562,-0 214.846,-88.975 214.846,-181.2c-0,-55.346 -43.405,-90.067 -105.263,-90.067c-119.358,0 -214.842,87.9 -214.842,181.213c0,56.425 46.667,90.054 105.259,90.054" style="fill-rule:nonzero;"/></g><g><path d="M21181.8,679.496c96.583,-0 214.846,-88.975 214.846,-181.196c-0,-55.35 -43.404,-90.071 -105.242,-90.071c-119.358,0 -214.846,87.9 -214.846,181.217c0,56.421 46.65,90.05 105.242,90.05" style="fill-rule:nonzero;"/></g><g><path d="M22075.1,679.496c96.563,-0 214.846,-88.975 214.846,-181.196c-0,-55.35 -43.404,-90.071 -105.263,-90.071c-119.358,0 -214.841,87.9 -214.841,181.217c-0,56.421 46.666,90.05 105.258,90.05" style="fill-rule:nonzero;"/></g><g><path d="M22847.2,861.788c-6.512,21.7 -57.516,43.404 -82.466,43.404c-6.509,-0 -11.946,-2.171 -13.021,-5.417c-2.171,-4.342 -3.263,-28.212 -3.263,-54.254c0,-33.646 1.092,-71.613 3.263,-80.296c2.171,-18.454 52.083,-41.233 79.2,-41.233c7.604,-0 14.117,2.17 16.287,6.512c2.171,5.417 4.338,32.55 4.338,61.842c-0,29.304 -2.167,59.687 -4.338,69.442m74.859,-176.859c7.604,-3.262 13.021,-11.941 13.021,-18.454l-0,-77.029c-0,-5.433 -3.246,-8.683 -7.584,-8.683c-2.171,-0 -3.266,-0 -5.437,1.079c-0,-0 -21.7,8.679 -27.117,9.775c-7.604,-0 -15.192,-5.438 -15.192,-14.117l0,-132.379c0,-6.508 -6.508,-11.925 -15.191,-11.925c-10.85,-0 -17.359,5.417 -17.359,11.925l0,141.058c-1.095,10.854 -4.341,24.967 -14.116,31.479c-13.021,7.584 -49.913,22.775 -68.35,27.117c-9.775,0 -13.021,-13.021 -13.021,-21.7l-0,-130.208c-0,-6.513 -7.604,-11.929 -15.192,-11.929c-10.85,-0 -17.358,5.416 -17.358,11.929l-0,146.491c-0,15.192 -6.513,26.042 -13.021,29.288c-6.512,3.262 -28.212,11.946 -28.212,11.946c-7.605,2.17 -13.021,10.85 -13.021,17.358l-0,77.033c-0,6.509 3.246,9.775 8.679,9.775c4.342,0 24.95,-9.775 28.212,-11.945c1.075,-0 2.171,-1.075 3.246,-1.075c7.604,-0 14.117,10.85 14.117,19.529l-0,107.412c-0,11.946 -5.438,21.704 -11.946,24.967c-6.512,2.171 -29.287,11.929 -29.287,11.929c-7.605,2.167 -13.021,10.85 -13.021,17.358l-0,77.05c-0,6.509 3.246,9.759 8.679,9.759c1.075,-0 3.246,-1.079 4.342,-1.079c-0,-0 15.191,-6.509 24.945,-9.775c1.096,-1.075 2.171,-1.075 3.267,-1.075c7.583,-0 13.021,11.929 13.021,17.362l-0,133.454c-0,6.509 6.508,11.946 14.096,11.946c10.85,0 18.454,-5.437 18.454,-11.946l-0,-150.816c-0,-14.113 5.417,-21.7 10.85,-23.871l66.183,-27.138c1.092,0 3.263,-1.075 4.338,-1.075c8.683,0 14.116,13.021 14.116,19.534l0,135.625c0,6.508 6.509,11.941 14.096,11.941c11.946,0 18.454,-5.433 18.454,-11.941l0,-154.084c0,-8.679 4.342,-21.7 11.93,-24.946c7.604,-3.262 30.379,-11.945 30.379,-11.945c7.604,-3.246 13.021,-11.925 13.021,-18.438l-0,-77.046c-0,-5.416 -3.246,-8.683 -7.584,-8.683c-2.171,-0 -3.266,-0 -5.437,1.096l-28.209,10.85c-6.512,-0 -14.1,-6.513 -14.1,-19.534l0,-100.916c0,-7.588 5.417,-28.213 14.1,-31.459l28.209,-10.854" style="fill-rule:nonzero;"/></g><g><path d="M23107.4,948.596c96.579,-0.004 214.846,-88.979 214.846,-181.2c-0,-55.346 -43.405,-90.071 -105.246,-90.071c-119.359,0 -214.842,87.9 -214.842,181.217c0,56.425 46.65,90.05 105.242,90.05" style="fill-rule:nonzero;"/></g><g><path d="M24140.3,1083.14c96.563,-0 214.846,-88.975 214.846,-181.196c-0,-55.35 -43.404,-90.071 -105.263,-90.071c-119.358,0 -214.841,87.9 -214.841,181.217c-0,56.421 46.666,90.05 105.258,90.05" style="fill-rule:nonzero;"/></g><g><path d="M25173.3,1217.69c96.563,-0 214.842,-88.975 214.842,-181.2c-0,-55.346 -43.4,-90.067 -105.259,-90.067c-119.358,0 -214.845,87.9 -214.845,181.213c-0,56.425 46.666,90.054 105.262,90.054" style="fill-rule:nonzero;"/></g><g><path d="M25700.1,1169.95c0,0 -3.262,-65.104 -3.262,-108.508c-0,-17.363 1.091,-30.384 2.17,-34.721c7.605,-21.704 51.005,-53.163 75.955,-53.163c31.475,0 44.495,35.8 44.495,62.934c0,58.595 -49.912,117.187 -96.579,146.479c-4.341,2.167 -7.587,3.262 -10.85,3.262c-9.758,0 -11.929,-10.85 -11.929,-16.287m-37.987,96.583c3.266,4.338 6.512,5.417 9.775,5.417c3.245,-0 6.512,-2.171 6.512,-2.171c32.55,-18.437 58.592,-47.746 85.713,-66.179c96.579,-67.275 130.208,-133.475 130.208,-183.388c-0,-61.841 -47.746,-100.904 -97.658,-104.166c-18.438,-0 -44.48,8.679 -59.671,18.454c-6.509,5.417 -18.454,15.192 -23.871,15.192c-2.171,-0 -3.263,-0 -5.433,-1.096c-7.588,-3.246 -11.93,-10.85 -11.93,-18.434c1.08,-23.875 7.588,-284.291 7.588,-305.991c-0,-11.946 -9.754,-18.454 -20.608,-18.454c-15.188,-0 -32.55,10.85 -33.646,30.383c-0,-0 4.341,619.583 13.021,630.433" style="fill-rule:nonzero;"/></g><g><path d="M26066.6,1217.69c96.583,-0 214.846,-88.975 214.846,-181.2c-0,-55.346 -43.404,-90.067 -105.242,-90.067c-119.358,0 -214.846,87.9 -214.846,181.213c0,56.425 46.65,90.054 105.242,90.054" style="fill-rule:nonzero;"/></g><g><path d="M26593.6,1304.5c-0,-0 -3.246,-65.104 -3.246,-108.504c-0,-17.363 1.075,-30.384 2.167,-34.725c7.587,-21.7 50.991,-53.159 75.958,-53.159c31.458,0 44.479,35.796 44.479,62.934c0,58.595 -49.917,117.187 -96.562,146.475c-4.342,2.171 -7.605,3.266 -10.855,3.266c-9.77,0 -11.941,-10.854 -11.941,-16.287m-37.971,96.579c3.246,4.342 6.512,5.417 9.758,5.417c3.263,-0 6.509,-2.171 6.509,-2.171c32.554,-18.433 58.595,-47.742 85.729,-66.179c96.562,-67.275 130.208,-133.471 130.208,-183.384c0,-61.841 -47.742,-100.904 -97.654,-104.166c-18.454,-0 -44.496,8.679 -59.688,18.454c-6.512,5.417 -18.437,15.192 -23.87,15.192c-2.171,-0 -3.246,-0 -5.417,-1.096c-7.604,-3.246 -11.946,-10.85 -11.946,-18.438c1.096,-23.871 7.604,-284.287 7.604,-305.987c0,-11.946 -9.775,-18.459 -20.625,-18.459c-15.191,0 -32.55,10.855 -33.629,30.384c0,-0 4.342,619.583 13.021,630.433" style="fill-rule:nonzero;"/></g><g><path d="M26960.1,1352.24c96.562,-0 214.846,-88.979 214.846,-181.2c-0,-55.346 -43.405,-90.071 -105.263,-90.071c-119.358,-0 -214.842,87.9 -214.842,181.217c0,56.424 46.667,90.054 105.259,90.054" style="fill-rule:nonzero;"/></g><g><path d="M27853.6,1486.79c96.563,-0 214.846,-88.975 214.846,-181.196c-0,-55.35 -43.404,-90.071 -105.263,-90.071c-119.354,-0 -214.841,87.9 -214.841,181.216c-0,56.421 46.666,90.051 105.258,90.051" style="fill-rule:nonzero;"/></g><g><path d="M565.491,2008.72c3.246,20.608 3.246,19.529 -16.283,26.041c-95.488,32.55 -157.346,118.263 -157.346,210.504c-0,97.655 51.008,167.101 124.792,192.046c8.683,3.267 21.704,6.513 29.291,6.513c8.679,-0 13.021,-5.417 13.021,-11.929c0,-7.605 -8.683,-10.85 -16.271,-14.113c-45.571,-19.533 -78.125,-66.183 -78.125,-116.096c0,-61.858 42.313,-108.504 108.509,-126.962c17.362,-4.338 19.533,-3.246 21.7,8.683l54.254,323.35c2.171,11.946 1.079,11.946 -15.192,15.192c-17.358,3.262 -39.062,5.433 -60.762,5.433c-189.896,0 -312.5,-105.262 -312.5,-256.075c-0,-64.029 10.85,-149.742 100.904,-251.737c65.104,-72.709 115.016,-112.846 166.025,-154.08c10.85,-8.683 13.021,-7.604 15.187,4.338l22.779,138.892m118.284,-738.942c35.796,-0 65.104,29.304 65.104,88.975c-0,120.45 -103.092,218.108 -188.804,292.971c-7.604,6.508 -11.946,5.433 -14.113,-8.684c-4.341,-28.212 -6.512,-65.104 -6.512,-99.825c-0,-169.27 78.125,-273.437 144.325,-273.437m-43.404,911.458c-2.171,-13.021 -1.096,-16.266 11.925,-15.191c87.9,7.604 160.591,81.387 160.591,176.875c0,68.35 -41.233,123.7 -101.996,154.079c-13.02,6.512 -15.191,6.512 -17.362,-6.509l-53.158,-309.254m-58.596,-338.541c-2.167,-13.021 -0,-14.096 6.512,-20.609c117.188,-109.6 206.163,-247.396 206.163,-413.421c-0,-94.391 -26.042,-187.708 -70.538,-252.812c-16.266,-23.871 -44.479,-54.254 -56.425,-54.254c-15.191,-0 -48.816,28.212 -70.521,52.083c-80.295,88.979 -106.337,224.604 -106.337,337.45c-0,62.933 7.587,133.471 15.192,177.95c2.17,13.021 3.245,15.192 -9.775,26.042c-156.25,129.133 -322.255,284.287 -322.255,503.475c0,188.8 129.113,367.846 394.963,367.846c24.95,-0 53.162,-2.171 74.862,-6.513c11.946,-2.167 14.117,-3.262 16.284,9.758c13.021,72.709 29.291,167.1 29.291,218.109c0,160.591 -108.508,180.121 -172.52,180.121c-58.592,-0 -86.805,-17.363 -86.805,-31.475c0,-7.588 9.759,-10.85 34.721,-18.438c33.629,-9.775 72.692,-39.062 72.692,-101.996c-0,-59.687 -37.967,-110.679 -104.167,-110.679c-72.691,0 -116.091,57.5 -116.091,124.775c-0,70.538 42.308,176.875 206.162,176.875c72.692,0 213.75,-32.554 213.75,-217.012c0,-61.859 -19.533,-164.934 -31.458,-232.209c-2.171,-13.02 -1.096,-11.941 14.096,-18.454c109.6,-43.4 182.291,-135.625 182.291,-258.246c0,-138.887 -101.996,-261.491 -261.491,-261.491c-28.213,-0 -28.213,-0 -31.475,-19.534l-27.121,-157.341" style="fill-rule:nonzero;"/></g><g><path d="M2671.83,3496.19c-14.106,0 -21.701,6.511 -21.701,16.276c-0,9.766 7.595,16.276 21.701,16.276l10.851,0c40.147,0 59.679,23.872 59.679,58.594c-0,47.743 -33.638,113.933 -99.827,113.933c-21.701,-0 -39.062,-8.681 -39.062,-19.532c-0,-6.51 5.425,-8.68 14.105,-13.02c11.936,-5.426 27.127,-18.447 27.127,-46.658c0,-26.042 -18.446,-39.063 -41.232,-39.063c-30.382,0 -53.169,27.127 -53.169,62.934c0,43.403 34.722,83.551 111.762,83.551c92.231,-0 168.186,-55.339 168.186,-141.06c0,-27.126 -14.106,-53.168 -42.317,-67.274c-7.596,-3.255 -11.936,-4.34 -11.936,-9.766c-0,-3.255 4.34,-5.425 13.021,-9.765c45.573,-18.447 82.465,-53.169 82.465,-96.572c0,-56.423 -54.254,-91.146 -120.443,-91.146c-68.359,0 -124.783,35.808 -126.953,94.402c-1.085,28.211 16.276,46.658 41.233,46.658c27.126,-0 48.828,-21.702 48.828,-50.999c-0,-11.935 -4.341,-20.616 -9.766,-27.126c-7.595,-6.511 -13.021,-10.851 -13.021,-14.106c0,-7.596 13.021,-15.191 35.808,-15.191c42.317,-0 56.423,26.041 56.423,49.913c0,57.509 -36.892,98.741 -99.826,98.741l-11.936,0Z" style="fill-rule:nonzero;"/></g><g><path d="M9344.19,2811.66c-14.106,0 -21.701,6.51 -21.701,16.276c-0,9.766 7.595,16.276 21.701,16.276l10.851,0c40.148,0 59.679,23.872 59.679,58.594c-0,47.743 -33.637,113.932 -99.827,113.932c-21.701,0 -39.062,-8.68 -39.062,-19.531c-0,-6.51 5.425,-8.68 14.106,-13.021c11.936,-5.425 27.127,-18.446 27.127,-46.658c-0,-26.041 -18.447,-39.062 -41.233,-39.062c-30.382,-0 -53.169,27.126 -53.169,62.934c0,43.403 34.723,83.55 111.763,83.55c92.231,0 168.186,-55.338 168.186,-141.059c-0,-27.127 -14.106,-53.168 -42.318,-67.274c-7.596,-3.256 -11.936,-4.341 -11.936,-9.766c0,-3.255 4.34,-5.425 13.021,-9.766c45.573,-18.446 82.465,-53.168 82.465,-96.571c0,-56.424 -54.253,-91.146 -120.442,-91.146c-68.36,0 -124.784,35.807 -126.954,94.401c-1.085,28.212 16.276,46.658 41.233,46.658c27.127,0 48.828,-21.701 48.828,-50.998c0,-11.936 -4.34,-20.616 -9.766,-27.127c-7.595,-6.51 -13.02,-10.85 -13.02,-14.106c-0,-7.595 13.02,-15.191 35.807,-15.191c42.318,0 56.424,26.042 56.424,49.914c-0,57.508 -36.893,98.741 -99.827,98.741l-11.936,0Z" style="fill-rule:nonzero;"/></g><g><path d="M16303.6,2811.66c-14.106,0 -21.701,6.51 -21.701,16.276c-0,9.766 7.595,16.276 21.701,16.276l10.851,0c40.148,0 59.679,23.872 59.679,58.594c-0,47.743 -33.637,113.932 -99.827,113.932c-21.701,0 -39.062,-8.68 -39.062,-19.531c-0,-6.51 5.425,-8.68 14.106,-13.021c11.936,-5.425 27.127,-18.446 27.127,-46.658c-0,-26.041 -18.447,-39.062 -41.233,-39.062c-30.382,-0 -53.169,27.126 -53.169,62.934c0,43.403 34.723,83.55 111.763,83.55c92.231,0 168.186,-55.338 168.186,-141.059c-0,-27.127 -14.106,-53.168 -42.318,-67.274c-7.596,-3.256 -11.936,-4.341 -11.936,-9.766c0,-3.255 4.34,-5.425 13.021,-9.766c45.573,-18.446 82.465,-53.168 82.465,-96.571c0,-56.424 -54.253,-91.146 -120.442,-91.146c-68.36,0 -124.784,35.807 -126.954,94.401c-1.085,28.212 16.276,46.658 41.233,46.658c27.127,0 48.828,-21.701 48.828,-50.998c0,-11.936 -4.34,-20.616 -9.766,-27.127c-7.595,-6.51 -13.02,-10.85 -13.02,-14.106c-0,-7.595 13.02,-15.191 35.807,-15.191c42.318,0 56.424,26.042 56.424,49.914c-0,57.508 -36.893,98.741 -99.827,98.741l-11.936,0Z" style="fill-rule:nonzero;"/></g><g><path d="M22974.4,2811.66c-14.106,0 -21.702,6.51 -21.702,16.276c0,9.766 7.596,16.276 21.702,16.276l10.85,0c40.148,0 59.679,23.872 59.679,58.594c0,47.743 -33.637,113.932 -99.826,113.932c-21.702,0 -39.063,-8.68 -39.063,-19.531c0,-6.51 5.426,-8.68 14.106,-13.021c11.936,-5.425 27.127,-18.446 27.127,-46.658c-0,-26.041 -18.446,-39.062 -41.233,-39.062c-30.382,-0 -53.168,27.126 -53.168,62.934c-0,43.403 34.722,83.55 111.762,83.55c92.231,0 168.186,-55.338 168.186,-141.059c0,-27.127 -14.106,-53.168 -42.318,-67.274c-7.595,-3.256 -11.936,-4.341 -11.936,-9.766c0,-3.255 4.341,-5.425 13.021,-9.766c45.573,-18.446 82.466,-53.168 82.466,-96.571c-0,-56.424 -54.254,-91.146 -120.443,-91.146c-68.36,0 -124.783,35.807 -126.953,94.401c-1.086,28.212 16.276,46.658 41.232,46.658c27.127,0 48.828,-21.701 48.828,-50.998c0,-11.936 -4.34,-20.616 -9.765,-27.127c-7.596,-6.51 -13.021,-10.85 -13.021,-14.106c-0,-7.595 13.021,-15.191 35.807,-15.191c42.318,0 56.424,26.042 56.424,49.914c-0,57.508 -36.892,98.741 -99.827,98.741l-11.935,0Z" style="fill-rule:nonzero;"/></g><g><path d="M1794.87,2158.45l0,-134.825l2097.99,-134.55l-0,134.829l-2097.99,134.546" style="fill-rule:nonzero;"/></g><g><path d="M4892.77,1887.78l0,-135.625l2713.21,-336.371l-0,135.621l-2713.21,336.375" style="fill-rule:nonzero;"/></g><g><path d="M4892.77,2091.18l0,-135.587l2713.21,-336.371l-0,135.587l-2713.21,336.371" style="fill-rule:nonzero;"/></g><g><path d="M8466.97,1485.71l0,-135.192l2097.97,-201.825l0,135.192l-2097.97,201.825" style="fill-rule:nonzero;"/></g><g><path d="M11277.3,2832.88l-0,-135.208l2712.67,-269.1l-0,135.208l-2712.67,269.1" style="fill-rule:nonzero;"/></g><g><path d="M11277.3,2630.02l-0,-135.192l2712.67,-269.096l-0,135.192l-2712.67,269.096" style="fill-rule:nonzero;"/></g><g><path d="M15298.6,2361.41l0,-135.679l2097.97,-269.096l0,135.675l-2097.97,269.096" style="fill-rule:nonzero;"/></g><g><path d="M18397,2091.28l0,-134.6l2711.6,-67.275l-0,134.6l-2711.6,67.275" style="fill-rule:nonzero;"/></g><g><path d="M18397,1889.41l0,-134.6l2711.6,-67.275l-0,134.604l-2711.6,67.271" style="fill-rule:nonzero;"/></g><g><path d="M21970.1,2024.17l0,-134.809l2097.43,134.55l0,134.809l-2097.43,-134.55" style="fill-rule:nonzero;"/></g><g><path d="M25068.1,2092.87l-0,-135.213l2712.67,269.1l-0,135.209l-2712.67,-269.1" style="fill-rule:nonzero;"/></g><g><path d="M25068.1,1890l-0,-135.192l2712.67,269.1l-0,135.188l-2712.67,-269.096" style="fill-rule:nonzero;"/></g><g><path d="M1418.36,3681.23l987.412,-122.396l0,-43.404l-944.566,117.084l-0,-153.109l-42.846,0" style="fill-rule:nonzero;"/></g><g><path d="M3914.55,3370.47l-920.675,113.887l-0,-43.404l877.275,-111.179l-0,-161.129l43.4,-0" style="fill-rule:nonzero;"/></g><g><path d="M8090.43,2837.05l986.875,0l-0,-43.021l-943.475,0l-0,-158.804l-43.4,0" style="fill-rule:nonzero;"/></g><g><path d="M10586.6,2837.05l-919.583,0l-0,-43.021l876.737,0l0,-158.804l42.846,0" style="fill-rule:nonzero;"/></g><g><path d="M39.224,5253.08l14202.5,0" style="fill:none;stroke:#000;stroke-width:35.08px;"/><path d="M39.224,5522.17l14202.5,-0" style="fill:none;stroke:#000;stroke-width:35.08px;"/><path d="M39.224,5791.25l14202.5,0" style="fill:none;stroke:#000;stroke-width:35.08px;"/><path d="M39.224,6060.38l14202.5,0" style="fill:none;stroke:#000;stroke-width:35.08px;"/><path d="M39.224,6329.46l14202.5,0" style="fill:none;stroke:#000;stroke-width:35.08px;"/></g><g><path d="M11469.3,5235.58l0,1111.34" style="fill:none;stroke:#000;stroke-width:43.04px;"/><path d="M14069.7,5235.58l0,1111.34" style="fill:none;stroke:#000;stroke-width:43.04px;"/><path d="M14220.6,5235.58l-0,1111.34" style="fill:none;stroke:#000;stroke-width:43.04px;"/></g><g><path d="M1523.06,5298.25l-0,966.042" style="fill:none;stroke:#000;stroke-width:32.29px;"/><path d="M2281.52,5567.38l0,831.492" style="fill:none;stroke:#000;stroke-width:32.29px;"/><path d="M3039.45,5701.92l0,831.496" style="fill:none;stroke:#000;stroke-width:32.29px;"/><path d="M3710.56,5836.46l-0,897.396" style="fill:none;stroke:#000;stroke-width:32.29px;"/><path d="M4444.06,5836.46l-0,946.617" style="fill:none;stroke:#000;stroke-width:32.29px;"/><path d="M5178.1,5971l0,861.267" style="fill:none;stroke:#000;stroke-width:32.29px;"/><path d="M5716.31,6105.54l-0,762.85" style="fill:none;stroke:#000;stroke-width:32.29px;"/><path d="M6542.06,5249.79l-0,899.912" style="fill:none;stroke:#000;stroke-width:32.29px;"/><path d="M7300.52,5417.96l0,1000.87" style="fill:none;stroke:#000;stroke-width:32.29px;"/><path d="M8058.97,5586.17l0,967.187" style="fill:none;stroke:#000;stroke-width:32.29px;"/></g><g><path d="M7710.68,6598.54l472.55,-0" style="fill:none;stroke:#000;stroke-width:43.04px;"/></g><g><path d="M8837.52,5791.08l0,896.821" style="fill:none;stroke:#000;stroke-width:32.29px;"/></g><g><path d="M8493.02,6598.54l468.196,-0" style="fill:none;stroke:#000;stroke-width:43.04px;"/></g><g><path d="M9677.89,5815.88l0,872.029" style="fill:none;stroke:#000;stroke-width:32.29px;"/></g><g><path d="M9333.93,6598.54l468.212,-0" style="fill:none;stroke:#000;stroke-width:43.04px;"/></g><g><path d="M10518.8,5840.62l-0,981.842" style="fill:none;stroke:#000;stroke-width:32.29px;"/></g><g><path d="M10170.5,6867.67l471.996,-0" style="fill:none;stroke:#000;stroke-width:43.04px;"/><path d="M10107.6,6598.54l534.934,-0" style="fill:none;stroke:#000;stroke-width:43.04px;"/></g><g><path d="M11122.1,5858.38l0,1098.65" style="fill:none;stroke:#000;stroke-width:32.29px;"/></g><g><path d="M10710.3,6867.67l535.484,-0" style="fill:none;stroke:#000;stroke-width:43.04px;"/><path d="M10710.3,6598.54l535.484,-0" style="fill:none;stroke:#000;stroke-width:43.04px;"/><path d="M11787.3,6867.67l673.283,-0" style="fill:none;stroke:#000;stroke-width:43.04px;"/><path d="M11787.3,6598.54l673.283,-0" style="fill:none;stroke:#000;stroke-width:43.04px;"/></g><g><path d="M1724.76,4886.08l-0,-116.108c-0,-5.417 -1.092,-9.758 -6.508,-9.758c-4.342,-0 -7.605,1.075 -10.85,5.416l-32.555,62.934c-2.17,2.17 -5.433,5.433 -5.433,13.02l0,44.496l-70.521,0c44.479,-36.891 113.925,-159.512 115.017,-166.025c-0,-1.075 1.075,-2.166 1.075,-3.246c-0,-4.337 -4.338,-7.604 -7.583,-7.604c-5.438,0 -28.213,2.171 -37.988,2.171c-9.758,0 -16.267,-2.171 -20.608,-2.171c-5.434,0 -13.021,2.171 -13.021,10.85c-0,69.446 -56.425,148.667 -70.538,168.196c-2.17,2.171 -4.341,5.417 -4.341,8.679c-0,5.417 4.341,10.854 10.85,10.854l97.658,0l0,33.625c0,15.192 -8.679,19.534 -17.362,19.534c-9.755,-0 -14.096,4.341 -14.096,9.775c-0,5.416 2.171,11.925 11.925,11.925l93.316,-0c5.434,-0 10.85,-4.338 10.85,-11.925c0,-7.604 -6.508,-10.85 -11.925,-10.85c-5.433,-0 -17.362,-3.267 -17.362,-20.625l-0,-31.458l40.142,-0.001c5.433,0.001 8.679,-4.341 8.679,-10.854c-0,-6.508 -2.171,-10.85 -8.679,-10.85l-40.142,0" style="fill-rule:nonzero;"/></g><g><path d="M2532.73,4897.17c-0,-7.605 -3.267,-8.68 -6.513,-8.68c-4.337,0.001 -6.508,3.246 -7.604,6.509c-5.417,15.191 -17.358,34.721 -33.629,34.721c-2.167,-0 -4.338,-0 -6.508,-1.092l-16.284,-5.417c-10.854,-4.341 -36.896,-13.021 -58.596,-13.021c-7.587,0 -14.095,1.075 -20.608,3.246c11.929,-20.608 68.35,-47.741 80.296,-50.987c39.062,-5.438 71.617,-28.213 71.617,-70.542c-0,-26.042 -10.855,-43.4 -24.967,-56.421c-28.213,-22.779 -69.446,-26.041 -81.371,-26.041c-39.062,-0 -70.537,2.17 -98.75,34.721c-7.587,8.679 -10.85,17.362 -10.85,26.041c0,7.604 3.263,16.283 6.508,26.042c6.513,13.021 20.625,22.796 35.817,22.796c27.117,-0 30.383,-26.042 30.383,-37.988c0,-24.946 -27.137,-27.117 -27.137,-37.967c-0,-7.604 10.85,-20.625 43.404,-20.625c51.004,0 68.367,42.325 68.367,55.346c-0,19.534 -6.509,37.971 -17.363,53.159c-19.529,24.966 -55.346,33.645 -82.462,51.008c-30.384,18.437 -51.009,49.912 -60.767,84.637c0,7.584 3.25,16.267 9.758,19.53c1.096,1.075 3.263,1.075 4.342,1.075c11.942,-0 18.454,-33.625 51.004,-33.625c21.704,-0 29.292,29.287 78.125,29.287c22.779,0 65.104,-2.171 73.788,-85.712" style="fill-rule:nonzero;"/></g><g><path d="M3121.2,4835.33c-0,0 -1.092,4.342 -1.092,7.605c-0,4.341 4.337,8.679 8.679,8.679c3.263,-0 5.433,-3.263 6.508,-4.338c1.096,-3.266 14.117,-47.746 20.625,-58.596c2.171,-4.341 4.342,-5.433 5.417,-5.433c2.171,-0 3.267,4.342 3.267,7.604l-0,155.154c-0,13.021 -10.85,20.625 -21.704,20.625c-4.338,0 -9.771,2.171 -9.771,8.684c-0,6.508 5.433,8.679 14.112,8.679l91.146,-0c8.679,-0 8.679,-8.679 8.679,-8.679c0,-0 0,-8.684 -8.679,-8.684c-7.604,0 -17.362,-9.771 -17.362,-19.529l-0,-225.696c-0,-8.679 -3.263,-13.02 -10.85,-13.02c-7.605,-0 -14.113,2.17 -20.625,2.17c-10.85,0 -13.021,0 -21.7,-2.17c-4.342,-0 -9.759,6.512 -13.021,10.85l-33.629,116.095" style="fill-rule:nonzero;"/></g><g><path d="M3912.16,4886.33l-0,-116.112c-0,-5.417 -1.075,-9.758 -6.509,-9.758c-4.341,-0.001 -7.587,1.079 -10.85,5.416l-32.554,62.938c-2.171,2.166 -5.416,5.433 -5.416,13.02l-0,44.496l-70.538,0c44.496,-36.891 113.942,-159.516 115.017,-166.025c-0,-1.075 1.096,-2.171 1.096,-3.246c-0,-4.341 -4.342,-7.604 -7.605,-7.604c-5.416,0 -28.212,2.171 -37.97,2.171c-9.775,0 -16.284,-2.171 -20.625,-2.171c-5.417,0 -13.021,2.171 -13.021,10.85c-0,69.446 -56.425,148.663 -70.521,168.196c-2.171,2.167 -4.342,5.417 -4.342,8.679c0,5.417 4.342,10.85 10.854,10.85l97.655,0l-0,33.629c-0,15.192 -8.68,19.53 -17.363,19.53c-9.771,-0 -14.112,4.341 -14.112,9.775c-0,5.416 2.17,11.929 11.945,11.929l93.313,-0c5.417,-0 10.854,-4.342 10.854,-11.929c0,-7.605 -6.512,-10.85 -11.946,-10.85c-5.416,-0 -17.362,-3.263 -17.362,-20.625l-0,-31.459l40.158,0c5.417,0 8.679,-4.341 8.679,-10.85c0,-6.512 -2.171,-10.85 -8.679,-10.85l-40.158,0" style="fill-rule:nonzero;"/></g><g><path d="M4645.89,4886.33l0,-116.112c0,-5.417 -1.092,-9.758 -6.508,-9.758c-4.342,-0.001 -7.604,1.079 -10.854,5.416l-32.55,62.938c-2.171,2.166 -5.434,5.433 -5.434,13.02l0,44.496l-70.521,0c44.48,-36.891 113.921,-159.516 115.017,-166.025c0,-1.075 1.075,-2.171 1.075,-3.246c0,-4.341 -4.337,-7.604 -7.587,-7.604c-5.434,0 -28.209,2.171 -37.984,2.171c-9.758,0 -16.266,-2.171 -20.608,-2.171c-5.433,0 -13.021,2.171 -13.021,10.85c0,69.446 -56.425,148.663 -70.537,168.196c-2.171,2.167 -4.342,5.417 -4.342,8.679c-0,5.417 4.342,10.85 10.85,10.85l97.658,0l0,33.629c0,15.192 -8.683,19.53 -17.362,19.53c-9.759,-0 -14.096,4.341 -14.096,9.775c-0,5.416 2.171,11.929 11.925,11.929l93.317,-0c5.433,-0 10.85,-4.342 10.85,-11.929c-0,-7.605 -6.509,-10.85 -11.925,-10.85c-5.434,-0 -17.363,-3.263 -17.363,-20.625l0,-31.459l40.138,0c5.437,0 8.683,-4.341 8.683,-10.85c-0,-6.512 -2.171,-10.85 -8.683,-10.85l-40.138,0" style="fill-rule:nonzero;"/></g><g><path d="M5429.35,4897.17c0,-7.605 -3.262,-8.68 -6.508,-8.68c-4.342,0.001 -6.512,3.246 -7.604,6.509c-5.417,15.191 -17.363,34.721 -33.629,34.721c-2.171,-0 -4.342,-0 -6.509,-1.092l-16.287,-5.417c-10.85,-4.341 -36.892,-13.021 -58.592,-13.021c-7.587,0 -14.1,1.075 -20.608,3.246c11.925,-20.608 68.35,-47.741 80.296,-50.987c39.062,-5.438 71.612,-28.213 71.612,-70.542c0,-26.042 -10.85,-43.4 -24.962,-56.421c-28.213,-22.779 -69.446,-26.041 -81.375,-26.041c-39.063,-0 -70.538,2.17 -98.75,34.721c-7.584,8.679 -10.85,17.362 -10.85,26.041c-0,7.604 3.266,16.283 6.512,26.042c6.509,13.021 20.625,22.796 35.817,22.796c27.117,-0 30.379,-26.042 30.379,-37.988c0,-24.946 -27.133,-27.117 -27.133,-37.967c-0,-7.604 10.85,-20.625 43.4,-20.625c51.008,0 68.371,42.325 68.371,55.346c-0,19.534 -6.513,37.971 -17.363,53.159c-19.529,24.966 -55.346,33.645 -82.467,51.008c-30.379,18.437 -51.004,49.912 -60.762,84.637c-0,7.584 3.246,16.267 9.758,19.53c1.092,1.075 3.263,1.075 4.338,1.075c11.946,-0 18.458,-33.625 51.008,-33.625c21.7,-0 29.288,29.287 78.125,29.287c22.779,0 65.104,-2.171 73.783,-85.712" style="fill-rule:nonzero;"/></g><g><path d="M5797.97,4835.33c0,0 -1.075,4.342 -1.075,7.605c0,4.341 4.338,8.679 8.68,8.679c3.245,-0 5.416,-3.263 6.508,-4.338c1.079,-3.266 14.1,-47.746 20.608,-58.596c2.171,-4.341 4.342,-5.433 5.434,-5.433c2.17,-0 3.25,4.342 3.25,7.604l-0,155.154c-0,13.021 -10.855,20.625 -21.705,20.625c-4.337,0 -9.754,2.171 -9.754,8.684c0,6.508 5.417,8.679 14.096,8.679l91.146,-0c8.679,-0 8.679,-8.679 8.679,-8.679c0,-0 0,-8.684 -8.679,-8.684c-7.588,0 -17.363,-9.771 -17.363,-19.529l0,-225.696c0,-8.679 -3.245,-13.02 -10.85,-13.02c-7.587,-0 -14.095,2.17 -20.608,2.17c-10.85,0 -13.021,0 -21.7,-2.17c-4.342,-0 -9.775,6.512 -13.021,10.85l-33.646,116.095" style="fill-rule:nonzero;"/></g><g><path d="M6456.22,4886.33l0,-116.112c0,-5.417 -1.091,-9.758 -6.508,-9.758c-4.342,-0.001 -7.604,1.079 -10.85,5.416l-32.554,62.938c-2.171,2.166 -5.433,5.433 -5.433,13.02l-0,44.496l-70.521,0c44.479,-36.891 113.925,-159.516 115.016,-166.025c0,-1.075 1.075,-2.171 1.075,-3.246c0,-4.341 -4.337,-7.604 -7.583,-7.604c-5.437,0 -28.212,2.171 -37.987,2.171c-9.759,0 -16.267,-2.171 -20.609,-2.171c-5.433,0 -13.021,2.171 -13.021,10.85c0,69.446 -56.425,148.663 -70.537,168.196c-2.171,2.167 -4.342,5.417 -4.342,8.679c0,5.417 4.342,10.85 10.85,10.85l97.659,0l-0,33.629c-0,15.192 -8.68,19.53 -17.363,19.53c-9.754,-0 -14.096,4.341 -14.096,9.775c0,5.416 2.171,11.929 11.925,11.929l93.317,-0c5.433,-0 10.85,-4.342 10.85,-11.929c-0,-7.605 -6.508,-10.85 -11.925,-10.85c-5.433,-0 -17.363,-3.263 -17.363,-20.625l0,-31.459l40.142,0c5.433,0 8.679,-4.341 8.679,-10.85c0,-6.512 -2.171,-10.85 -8.679,-10.85l-40.142,0" style="fill-rule:nonzero;"/></g><g><path d="M7264.14,4897.17c0,-7.605 -3.246,-8.68 -6.508,-8.68c-4.342,0.001 -6.513,3.246 -7.588,6.509c-5.433,15.191 -17.362,34.721 -33.646,34.721c-2.17,-0 -4.341,-0 -6.508,-1.092l-16.271,-5.417c-10.85,-4.341 -36.891,-13.021 -58.591,-13.021c-7.605,0 -14.117,1.075 -20.625,3.246c11.945,-20.608 68.366,-47.741 80.295,-50.987c39.063,-5.438 71.613,-28.213 71.613,-70.542c-0,-26.042 -10.85,-43.4 -24.946,-56.421c-28.212,-22.779 -69.446,-26.041 -81.392,-26.041c-39.062,-0 -70.52,2.17 -98.729,34.721c-7.604,8.679 -10.854,17.362 -10.854,26.041c0,7.604 3.25,16.283 6.513,26.042c6.508,13.021 20.608,22.796 35.8,22.796c27.133,-0 30.379,-26.042 30.379,-37.988c-0,-24.946 -27.117,-27.117 -27.117,-37.967c0,-7.604 10.85,-20.625 43.404,-20.625c50.988,0 68.35,42.325 68.35,55.346c0,19.534 -6.512,37.971 -17.362,53.159c-19.529,24.966 -55.329,33.645 -82.467,51.008c-30.379,18.437 -50.987,49.912 -60.762,84.637c-0,7.584 3.262,16.267 9.775,19.53c1.075,1.075 3.245,1.075 4.341,1.075c11.925,-0 18.438,-33.625 50.988,-33.625c21.7,-0 29.304,29.287 78.125,29.287c22.796,0 65.104,-2.171 73.783,-85.712" style="fill-rule:nonzero;"/></g><g><path d="M7853.18,4835.33c-0,0 -1.075,4.342 -1.075,7.605c-0,4.341 4.337,8.679 8.679,8.679c3.246,-0 5.417,-3.263 6.512,-4.338c1.075,-3.266 14.096,-47.746 20.605,-58.596c2.17,-4.341 4.341,-5.433 5.437,-5.433c2.167,-0 3.246,4.342 3.246,7.604l-0,155.154c-0,13.021 -10.85,20.625 -21.704,20.625c-4.338,0 -9.754,2.171 -9.754,8.684c-0,6.508 5.416,8.679 14.095,8.679l91.146,-0c8.679,-0 8.679,-8.679 8.679,-8.679c0,-0 0,-8.684 -8.679,-8.684c-7.587,0 -17.362,-9.771 -17.362,-19.529l-0,-225.696c-0,-8.679 -3.246,-13.02 -10.85,-13.02c-7.588,-0 -14.096,2.17 -20.609,2.17c-10.85,0 -13.02,0 -21.7,-2.17c-4.341,-0 -9.775,6.512 -13.02,10.85l-33.646,116.095" style="fill-rule:nonzero;"/></g><g><path d="M8751.18,4886.33l-0,-116.112c-0,-5.417 -1.075,-9.758 -6.513,-9.758c-4.337,-0.001 -7.583,1.079 -10.85,5.416l-32.55,62.938c-2.171,2.166 -5.416,5.433 -5.416,13.02l-0,44.496l-70.538,0c44.496,-36.891 113.938,-159.516 115.017,-166.025c-0,-1.075 1.091,-2.171 1.091,-3.246c0,-4.341 -4.337,-7.604 -7.604,-7.604c-5.416,0 -28.212,2.171 -37.966,2.171c-9.775,0 -16.288,-2.171 -20.625,-2.171c-5.417,0 -13.021,2.171 -13.021,10.85c-0,69.446 -56.425,148.663 -70.521,168.196c-2.171,2.167 -4.342,5.417 -4.342,8.679c0,5.417 4.342,10.85 10.85,10.85l97.659,0l-0,33.629c-0,15.192 -8.684,19.53 -17.363,19.53c-9.775,-0 -14.112,4.341 -14.112,9.775c-0,5.416 2.166,11.929 11.941,11.929l93.317,-0c5.417,-0 10.85,-4.342 10.85,-11.929c-0,-7.605 -6.508,-10.85 -11.942,-10.85c-5.416,-0 -17.362,-3.263 -17.362,-20.625l-0,-31.459l40.154,0c5.417,0 8.683,-4.341 8.683,-10.85c0,-6.512 -2.171,-10.85 -8.683,-10.85l-40.154,0" style="fill-rule:nonzero;"/></g><g><path d="M9592.02,4886.33l0,-116.112c0,-5.417 -1.096,-9.758 -6.512,-9.758c-4.338,-0.001 -7.605,1.079 -10.85,5.416l-32.55,62.938c-2.171,2.166 -5.434,5.433 -5.434,13.02l0,44.496l-70.521,0c44.48,-36.891 113.921,-159.516 115.017,-166.025c0,-1.075 1.075,-2.171 1.075,-3.246c0,-4.341 -4.342,-7.604 -7.587,-7.604c-5.434,0 -28.213,2.171 -37.984,2.171c-9.758,0 -16.271,-2.171 -20.608,-2.171c-5.433,0 -13.021,2.171 -13.021,10.85c0,69.446 -56.425,148.663 -70.537,168.196c-2.171,2.167 -4.342,5.417 -4.342,8.679c-0,5.417 4.342,10.85 10.85,10.85l97.658,0l0,33.629c0,15.192 -8.683,19.53 -17.362,19.53c-9.759,-0 -14.096,4.341 -14.096,9.775c-0,5.416 2.167,11.929 11.925,11.929l93.317,-0c5.433,-0 10.85,-4.342 10.85,-11.929c-0,-7.605 -6.509,-10.85 -11.925,-10.85c-5.438,-0 -17.363,-3.263 -17.363,-20.625l0,-31.459l40.138,0c5.433,0 8.683,-4.341 8.683,-10.85c-0,-6.512 -2.171,-10.85 -8.683,-10.85l-40.138,0" style="fill-rule:nonzero;"/></g><g><path d="M10482.6,4897.17c0,-7.605 -3.262,-8.68 -6.512,-8.68c-4.338,0.001 -6.509,3.246 -7.605,6.509c-5.416,15.191 -17.358,34.721 -33.625,34.721c-2.17,-0 -4.341,-0 -6.512,-1.092l-16.283,-5.417c-10.85,-4.341 -36.892,-13.021 -58.596,-13.021c-7.588,0 -14.096,1.075 -20.609,3.246c11.93,-20.608 68.355,-47.741 80.296,-50.987c39.063,-5.438 71.617,-28.213 71.617,-70.542c-0,-26.042 -10.85,-43.4 -24.967,-56.421c-28.212,-22.779 -69.446,-26.041 -81.371,-26.041c-39.062,-0 -70.537,2.17 -98.75,34.721c-7.587,8.679 -10.85,17.362 -10.85,26.041c0,7.604 3.263,16.283 6.509,26.042c6.512,13.021 20.625,22.796 35.816,22.796c27.117,-0 30.384,-26.042 30.384,-37.988c-0,-24.946 -27.138,-27.117 -27.138,-37.967c0,-7.604 10.85,-20.625 43.404,-20.625c51.009,0 68.367,42.325 68.367,55.346c0,19.534 -6.508,37.971 -17.358,53.159c-19.534,24.966 -55.35,33.645 -82.467,51.008c-30.383,18.437 -51.008,49.912 -60.762,84.637c-0,7.584 3.245,16.267 9.754,19.53c1.096,1.075 3.266,1.075 4.341,1.075c11.946,-0 18.455,-33.625 51.009,-33.625c21.7,-0 29.287,29.287 78.125,29.287c22.775,0 65.104,-2.171 73.783,-85.712" style="fill-rule:nonzero;"/></g><g><path d="M10916,4835.33c0,0 -1.075,4.342 -1.075,7.605c0,4.341 4.342,8.679 8.679,8.679c3.246,-0 5.417,-3.263 6.513,-4.338c1.075,-3.266 14.096,-47.746 20.608,-58.596c2.167,-4.341 4.338,-5.433 5.433,-5.433c2.171,-0 3.246,4.342 3.246,7.604l0,155.154c0,13.021 -10.85,20.625 -21.7,20.625c-4.341,0 -9.758,2.171 -9.758,8.684c-0,6.508 5.417,8.679 14.096,8.679l91.146,-0c8.683,-0 8.683,-8.679 8.683,-8.679c-0,-0 -0,-8.684 -8.683,-8.684c-7.588,0 -17.359,-9.771 -17.359,-19.529l0,-225.696c0,-8.679 -3.25,-13.02 -10.854,-13.02c-7.583,-0 -14.096,2.17 -20.604,2.17c-10.854,0 -13.021,0 -21.704,-2.17c-4.338,-0 -9.775,6.512 -13.021,10.85l-33.646,116.095" style="fill-rule:nonzero;"/></g><g><path d="M12061.6,4835.33c0,0 -1.092,4.342 -1.092,7.605c0,4.341 4.338,8.679 8.68,8.679c3.262,-0 5.433,-3.263 6.512,-4.338c1.092,-3.266 14.113,-47.746 20.625,-58.596c2.167,-4.341 4.338,-5.433 5.417,-5.433c2.166,-0 3.262,4.342 3.262,7.604l0,155.154c0,13.021 -10.85,20.625 -21.7,20.625c-4.341,0 -9.775,2.171 -9.775,8.684c0,6.508 5.434,8.679 14.113,8.679l91.146,-0c8.683,-0 8.683,-8.679 8.683,-8.679c-0,-0 -0,-8.684 -8.683,-8.684c-7.605,0 -17.359,-9.771 -17.359,-19.529l0,-225.696c0,-8.679 -3.266,-13.02 -10.854,-13.02c-7.604,-0 -14.112,2.17 -20.625,2.17c-10.85,0 -13.021,0 -21.7,-2.17c-4.342,-0 -9.758,6.512 -13.021,10.85l-33.629,116.095" style="fill-rule:nonzero;"/></g><g><path d="M1612.26,5388.71c96.562,0 214.846,-88.975 214.846,-181.216c-0,-55.329 -43.404,-90.05 -105.263,-90.05c-119.358,-0 -214.841,87.879 -214.841,181.196c-0,56.425 46.666,90.07 105.258,90.07" style="fill-rule:nonzero;"/></g><g><path d="M2110.22,5571c-6.512,21.7 -57.5,43.4 -82.467,43.4c-6.512,0 -11.929,-2.167 -13.02,-5.433c-2.171,-4.338 -3.246,-28.213 -3.246,-54.255c-0,-33.624 1.075,-71.612 3.246,-80.291c2.17,-18.438 52.083,-41.233 79.216,-41.233c7.588,-0 14.1,2.17 16.271,6.508c2.167,5.433 4.338,32.554 4.338,61.858c-0,29.288 -2.171,59.671 -4.338,69.446m74.875,-176.875c7.588,-3.246 13.021,-11.929 13.021,-18.438l-0,-77.049c-0,-5.417 -3.263,-8.68 -7.604,-8.68c-2.167,0 -3.246,0 -5.417,1.092c0,0 -21.7,8.683 -27.133,9.758c-7.588,0 -15.192,-5.416 -15.192,-14.095l0,-132.38c0,-6.512 -6.508,-11.945 -15.192,-11.945c-10.85,-0 -17.358,5.433 -17.358,11.945l0,141.059c-1.079,10.85 -4.342,24.946 -14.1,31.458c-13.021,7.604 -49.912,22.796 -68.367,27.133c-9.758,0 -13.02,-13.02 -13.02,-21.7l-0,-130.208c-0,-6.508 -7.588,-11.946 -15.192,-11.946c-10.85,0 -17.363,5.438 -17.363,11.946l0,146.475c0,15.192 -6.508,26.042 -13.02,29.308c-6.509,3.246 -28.209,11.925 -28.209,11.925c-7.587,2.171 -13.021,10.85 -13.021,17.363l0,77.046c0,6.512 3.263,9.758 8.68,9.758c4.341,0 24.966,-9.758 28.212,-11.925c1.092,0 2.171,-1.096 3.263,-1.096c7.587,0 14.095,10.85 14.095,19.534l0,107.429c0,11.925 -5.416,21.7 -11.925,24.946c-6.512,2.17 -29.304,11.945 -29.304,11.945c-7.587,2.171 -13.021,10.85 -13.021,17.363l0,77.029c0,6.513 3.263,9.775 8.68,9.775c1.091,0 3.262,-1.092 4.341,-1.092c0,0 15.188,-6.512 24.963,-9.758c1.079,-1.096 2.171,-1.096 3.246,-1.096c7.604,0 13.02,11.946 13.02,17.363l0,133.47c0,6.513 6.513,11.93 14.117,11.93c10.85,-0 18.438,-5.417 18.438,-11.93l-0,-150.833c-0,-14.096 5.433,-21.7 10.85,-23.871l66.2,-27.116c1.075,-0 3.245,-1.096 4.337,-1.096c8.683,-0 14.1,13.021 14.1,19.533l0,135.642c0,6.512 6.508,11.929 14.113,11.929c11.929,-0 18.437,-5.417 18.437,-11.929l0,-154.079c0,-8.68 4.342,-21.7 11.946,-24.967c7.587,-3.246 30.379,-11.925 30.379,-11.925c7.588,-3.267 13.021,-11.946 13.021,-18.454l-0,-77.034c-0,-5.433 -3.263,-8.679 -7.604,-8.679c-2.167,0 -3.246,0 -5.417,1.075l-28.208,10.85c-6.513,0 -14.117,-6.508 -14.117,-19.529l0,-100.904c0,-7.604 5.433,-28.213 14.117,-31.475l28.208,-10.85" style="fill-rule:nonzero;"/></g><g><path d="M2370.44,5657.83c96.579,0 214.842,-88.975 214.842,-181.216c-0,-55.329 -43.4,-90.05 -105.242,-90.05c-119.358,-0 -214.846,87.883 -214.846,181.196c0,56.425 46.65,90.07 105.246,90.07" style="fill-rule:nonzero;"/></g><g><path d="M2868.41,5705.54c-6.509,21.704 -57.517,43.404 -82.463,43.404c-6.512,-0 -11.946,-2.171 -13.021,-5.434c-2.17,-4.341 -3.266,-28.212 -3.266,-54.254c-0,-33.629 1.096,-71.612 3.266,-80.296c2.167,-18.437 52.084,-41.233 79.2,-41.233c7.605,0 14.113,2.171 16.284,6.513c2.171,5.433 4.341,32.55 4.341,61.858c0,29.288 -2.17,59.671 -4.341,69.442m74.862,-176.875c7.604,-3.246 13.021,-11.925 13.021,-18.438l0,-77.046c0,-5.416 -3.246,-8.683 -7.587,-8.683c-2.171,0 -3.263,0 -5.434,1.096c0,-0 -21.7,8.679 -27.116,9.758c-7.605,0 -15.192,-5.421 -15.192,-14.1l-0,-132.379c-0,-6.508 -6.513,-11.942 -15.192,-11.942c-10.85,0 -17.362,5.434 -17.362,11.942l-0,141.058c-1.092,10.855 -4.338,24.95 -14.113,31.463c-13.021,7.6 -49.912,22.792 -68.35,27.133c-9.775,0 -13.021,-13.021 -13.021,-21.7l0,-130.208c0,-6.513 -7.604,-11.946 -15.191,-11.946c-10.85,0 -17.363,5.433 -17.363,11.946l0,146.475c0,15.191 -6.508,26.042 -13.021,29.304c-6.508,3.246 -28.212,11.929 -28.212,11.929c-7.604,2.171 -13.021,10.85 -13.021,17.358l0,77.05c0,6.513 3.246,9.759 8.683,9.759c4.338,-0 24.946,-9.759 28.209,-11.929c1.079,-0 2.171,-1.092 3.25,-1.092c7.604,-0 14.112,10.85 14.112,19.529l0,107.433c0,11.925 -5.433,21.7 -11.946,24.946c-6.508,2.171 -29.287,11.946 -29.287,11.946c-7.604,2.171 -13.021,10.85 -13.021,17.358l0,77.034c0,6.508 3.246,9.775 8.683,9.775c1.075,-0 3.246,-1.096 4.338,-1.096c-0,-0 15.192,-6.508 24.95,-9.754c1.092,-1.096 2.171,-1.096 3.262,-1.096c7.588,-0 13.021,11.946 13.021,17.362l0,133.471c0,6.513 6.513,11.929 14.096,11.929c10.854,0 18.458,-5.42 18.458,-11.929l0,-150.833c0,-14.096 5.417,-21.7 10.85,-23.871l66.18,-27.117c1.095,0 3.262,-1.095 4.341,-1.095c8.679,-0 14.113,13.02 14.113,19.533l-0,135.642c-0,6.508 6.512,11.925 14.1,11.925c11.941,-0 18.454,-5.417 18.454,-11.925l-0,-154.084c-0,-8.679 4.337,-21.7 11.925,-24.962c7.604,-3.246 30.383,-11.929 30.383,-11.929c7.604,-3.263 13.021,-11.942 13.021,-18.455l0,-77.029c0,-5.433 -3.246,-8.683 -7.587,-8.683c-2.171,-0 -3.263,-0 -5.434,1.079l-28.212,10.85c-6.509,0 -14.096,-6.512 -14.096,-19.533l-0,-100.9c-0,-7.604 5.417,-28.213 14.096,-31.475l28.212,-10.854" style="fill-rule:nonzero;"/></g><g><path d="M3128.63,5792.38c96.583,0 214.846,-88.975 214.846,-181.217c-0,-55.329 -43.405,-90.05 -105.242,-90.05c-119.358,0 -214.846,87.88 -214.846,181.196c0,56.425 46.65,90.071 105.242,90.071" style="fill-rule:nonzero;"/></g><g><path d="M3485.02,5748.96c0,-15.191 66.196,-43.404 92.238,-43.404c6.512,0 9.758,1.079 9.758,5.417l0,111.771c0,19.533 -61.841,44.479 -88.975,44.479c-7.587,-0 -13.021,-2.167 -13.021,-6.508l0,-111.755m112.846,-154.079c-2.171,0 -3.246,1.075 -4.341,1.075c-0,0 -69.442,24.967 -97.655,24.967c-6.512,-0 -10.85,-1.096 -10.85,-5.433l0,-181.2c0,-7.605 -6.512,-13.021 -13.02,-13.021l-14.1,-0c-7.605,-0 -13.021,5.416 -13.021,13.02l-0,558.805c-0,6.508 3.25,9.77 8.683,9.77c1.075,0 6.508,-1.091 7.588,-2.166c15.187,-6.513 75.954,-32.554 107.429,-32.554c10.85,-0 18.437,3.245 18.437,11.929l0,161.683c0,7.588 5.434,13.021 13.021,13.021l14.113,0c6.512,0 13.02,-5.433 13.02,-13.021l0,-544.704c0,-5.433 -4.337,-8.683 -8.679,-8.683c-1.091,-0 -3.262,-0 -4.341,1.079l-16.284,5.433" style="fill-rule:nonzero;"/></g><g><path d="M3799.64,5926.92c96.579,-0 214.846,-88.975 214.846,-181.213c-0,-55.333 -43.404,-90.054 -105.246,-90.054c-119.358,0 -214.842,87.883 -214.842,181.2c0,56.421 46.65,90.067 105.242,90.067" style="fill-rule:nonzero;"/></g><g><path d="M4166.81,5879.17c-0,-0 -3.246,-65.105 -3.246,-108.509c-0,-17.358 1.075,-30.379 2.171,-34.721c7.587,-21.699 50.987,-53.174 75.954,-53.174c31.458,-0 44.479,35.812 44.479,62.933c0,58.592 -49.912,117.187 -96.562,146.492c-4.342,2.17 -7.605,3.245 -10.85,3.245c-9.775,0 -11.946,-10.85 -11.946,-16.266m-37.967,96.562c3.246,4.342 6.508,5.434 9.754,5.434c3.267,-0.001 6.513,-2.171 6.513,-2.171c32.55,-18.454 58.591,-47.742 85.729,-66.196c96.562,-67.275 130.208,-133.454 130.208,-183.371c0,-61.854 -47.746,-100.917 -97.658,-104.167c-18.454,0 -44.496,8.684 -59.688,18.442c-6.508,5.433 -18.437,15.188 -23.87,15.188c-2.171,-0 -3.246,-0 -5.417,-1.075c-7.604,-3.263 -11.946,-10.85 -11.946,-18.455c1.096,-23.87 7.604,-284.287 7.604,-305.991c0,-11.925 -9.771,-18.438 -20.625,-18.438c-15.187,0 -32.55,10.854 -33.625,30.383c0,0 4.338,619.567 13.021,630.417" style="fill-rule:nonzero;"/></g><g><path d="M4533.39,5926.92c96.563,-0 214.842,-88.975 214.842,-181.213c-0,-55.333 -43.4,-90.054 -105.259,-90.054c-119.358,0 -214.845,87.883 -214.845,181.2c-0,56.421 46.666,90.067 105.262,90.067" style="fill-rule:nonzero;"/></g><g><path d="M4900.56,6013.71c-0,0 -3.263,-65.104 -3.263,-108.508c0,-17.363 1.092,-30.383 2.167,-34.721c7.604,-21.704 51.008,-53.179 75.958,-53.179c31.475,-0 44.496,35.817 44.496,62.933c0,58.596 -49.912,117.188 -96.579,146.496c-4.342,2.167 -7.604,3.246 -10.854,3.246c-9.771,0 -11.942,-10.85 -11.942,-16.267m-37.971,96.563c3.267,4.337 6.513,5.433 9.775,5.433c3.246,0 6.513,-2.171 6.513,-2.171c32.55,-18.454 58.591,-47.741 85.708,-66.2c96.583,-67.27 130.208,-133.454 130.208,-183.366c0,-61.859 -47.741,-100.921 -97.654,-104.167c-18.454,0 -44.496,8.679 -59.687,18.438c-6.513,5.433 -18.438,15.191 -23.871,15.191c-2.171,0 -3.246,0 -5.417,-1.075c-7.604,-3.267 -11.946,-10.854 -11.946,-18.458c1.096,-23.871 7.605,-284.288 7.605,-305.988c-0,-11.929 -9.775,-18.437 -20.625,-18.437c-15.192,-0 -32.55,10.85 -33.63,30.383c0,0 4.342,619.563 13.021,630.417" style="fill-rule:nonzero;"/></g><g><path d="M5267.1,6061.46c96.58,0 214.842,-88.975 214.842,-181.216c0,-55.329 -43.404,-90.05 -105.242,-90.05c-119.358,-0 -214.845,87.883 -214.845,181.196c-0,56.425 46.65,90.07 105.245,90.07" style="fill-rule:nonzero;"/></g><g><path d="M5805.39,6196c96.579,0 214.846,-88.979 214.846,-181.217c-0,-55.329 -43.404,-90.054 -105.246,-90.054c-119.354,0 -214.842,87.883 -214.842,181.2c0,56.425 46.65,90.071 105.242,90.071" style="fill-rule:nonzero;"/></g><g><path d="M6343.72,6330.54c96.563,-0 214.846,-88.975 214.846,-181.213c0,-55.333 -43.404,-90.054 -105.262,-90.054c-119.359,-0 -214.842,87.883 -214.842,181.2c0,56.421 46.667,90.067 105.258,90.067" style="fill-rule:nonzero;"/></g><g><path d="M6841.64,6512.83c-6.508,21.704 -57.517,43.404 -82.462,43.404c-6.513,0 -11.946,-2.17 -13.021,-5.433c-2.171,-4.342 -3.267,-28.212 -3.267,-54.254c0,-33.629 1.096,-71.613 3.267,-80.296c2.166,-18.437 52.083,-41.233 79.2,-41.233c7.604,-0 14.112,2.171 16.283,6.512c2.171,5.434 4.342,32.55 4.342,61.859c-0,29.287 -2.171,59.67 -4.342,69.441m74.863,-176.875c7.604,-3.246 13.02,-11.925 13.02,-18.437l0,-77.046c0,-5.417 -3.245,-8.683 -7.587,-8.683c-2.171,-0 -3.263,-0 -5.433,1.095c-0,0 -21.7,8.68 -27.117,9.759c-7.604,-0 -15.192,-5.421 -15.192,-14.1l0,-132.379c0,-6.509 -6.512,-11.942 -15.191,-11.942c-10.85,0 -17.363,5.433 -17.363,11.942l0,141.058c-1.092,10.854 -4.337,24.95 -14.112,31.462c-13.021,7.6 -49.913,22.792 -68.35,27.134c-9.775,-0 -13.021,-13.021 -13.021,-21.7l-0,-130.209c-0,-6.512 -7.604,-11.945 -15.192,-11.945c-10.85,-0 -17.362,5.433 -17.362,11.945l-0,146.475c-0,15.192 -6.509,26.042 -13.021,29.305c-6.509,3.245 -28.213,11.929 -28.213,11.929c-7.604,2.171 -13.021,10.85 -13.021,17.358l0,77.05c0,6.513 3.246,9.758 8.684,9.758c4.337,0 24.946,-9.758 28.208,-11.929c1.079,0 2.171,-1.091 3.25,-1.091c7.604,-0 14.113,10.85 14.113,19.529l-0,107.433c-0,11.925 -5.434,21.7 -11.946,24.946c-6.509,2.171 -29.288,11.946 -29.288,11.946c-7.604,2.171 -13.021,10.85 -13.021,17.358l0,77.033c0,6.509 3.246,9.775 8.684,9.775c1.075,0 3.246,-1.095 4.337,-1.095c0,-0 15.192,-6.509 24.95,-9.755c1.092,-1.095 2.171,-1.095 3.263,-1.095c7.587,-0 13.021,11.945 13.021,17.362l-0,133.471c-0,6.512 6.512,11.929 14.095,11.929c10.855,0 18.459,-5.421 18.459,-11.929l-0,-150.833c-0,-14.096 5.416,-21.7 10.85,-23.871l66.179,-27.117c1.096,0 3.262,-1.096 4.342,-1.096c8.679,0 14.112,13.021 14.112,19.534l0,135.641c0,6.509 6.513,11.925 14.1,11.925c11.942,0 18.454,-5.416 18.454,-11.925l0,-154.083c0,-8.679 4.338,-21.7 11.925,-24.963c7.604,-3.245 30.384,-11.929 30.384,-11.929c7.604,-3.262 13.02,-11.941 13.02,-18.454l0,-77.029c0,-5.433 -3.245,-8.683 -7.587,-8.683c-2.171,-0 -3.263,-0 -5.433,1.079l-28.213,10.85c-6.508,-0 -14.096,-6.513 -14.096,-19.534l0,-100.9c0,-7.604 5.417,-28.212 14.096,-31.475l28.213,-10.854" style="fill-rule:nonzero;"/></g><g><path d="M7101.89,6599.67c96.579,-0 214.842,-88.979 214.842,-181.217c-0,-55.329 -43.404,-90.054 -105.242,-90.054c-119.358,-0 -214.846,87.883 -214.846,181.2c0,56.425 46.65,90.071 105.246,90.071" style="fill-rule:nonzero;"/></g><g><path d="M7600.39,6647.42c-6.508,21.7 -57.517,43.404 -82.467,43.404c-6.508,-0 -11.941,-2.171 -13.02,-5.434c-2.167,-4.341 -3.263,-28.212 -3.263,-54.254c0,-33.629 1.096,-71.616 3.263,-80.296c2.17,-18.437 52.083,-41.233 79.204,-41.233c7.604,0 14.112,2.171 16.283,6.513c2.171,5.433 4.342,32.55 4.342,61.854c-0,29.292 -2.171,59.671 -4.342,69.446m74.863,-176.875c7.604,-3.246 13.02,-11.925 13.02,-18.438l0,-77.05c0,-5.416 -3.245,-8.679 -7.587,-8.679c-2.171,0 -3.263,0 -5.433,1.096c-0,-0 -21.705,8.679 -27.121,9.754c-7.604,0 -15.188,-5.417 -15.188,-14.096l0,-132.379c0,-6.508 -6.512,-11.946 -15.191,-11.946c-10.85,0 -17.363,5.438 -17.363,11.946l0,141.058c-1.092,10.85 -4.342,24.95 -14.112,31.459c-13.021,7.604 -49.917,22.796 -68.355,27.137c-9.77,0 -13.02,-13.021 -13.02,-21.704l-0,-130.208c-0,-6.509 -7.605,-11.942 -15.188,-11.942c-10.854,-0 -17.362,5.433 -17.362,11.942l-0,146.479c-0,15.187 -6.513,26.041 -13.021,29.304c-6.513,3.246 -28.213,11.925 -28.213,11.925c-7.604,2.171 -13.021,10.854 -13.021,17.362l0,77.05c0,6.509 3.246,9.755 8.68,9.755c4.341,-0 24.95,-9.755 28.212,-11.925c1.079,-0 2.171,-1.096 3.246,-1.096c7.604,-0 14.117,10.854 14.117,19.533l-0,107.429c-0,11.929 -5.434,21.704 -11.946,24.95c-6.509,2.171 -29.288,11.942 -29.288,11.942c-7.604,2.171 -13.021,10.854 -13.021,17.362l0,77.034c0,6.508 3.246,9.771 8.68,9.771c1.079,-0 3.25,-1.092 4.341,-1.092c0,-0 15.192,-6.513 24.95,-9.758c1.092,-1.092 2.167,-1.092 3.263,-1.092c7.587,-0 13.021,11.942 13.021,17.358l-0,133.475c-0,6.509 6.508,11.925 14.095,11.925c10.85,0 18.455,-5.416 18.455,-11.925l-0,-150.833c-0,-14.1 5.416,-21.704 10.854,-23.871l66.179,-27.121c1.092,0 3.262,-1.091 4.342,-1.091c8.679,-0 14.112,13.02 14.112,19.529l0,135.641c0,6.513 6.513,11.93 14.096,11.93c11.946,-0 18.458,-5.417 18.458,-11.93l0,-154.079c0,-8.679 4.338,-21.7 11.925,-24.962c7.604,-3.25 30.384,-11.929 30.384,-11.929c7.604,-3.263 13.02,-11.946 13.02,-18.455l0,-77.033c0,-5.433 -3.245,-8.679 -7.587,-8.679c-2.171,-0 -3.263,-0 -5.433,1.075l-28.213,10.854c-6.512,0 -14.096,-6.512 -14.096,-19.533l0,-100.904c0,-7.605 5.417,-28.209 14.096,-31.475l28.213,-10.85" style="fill-rule:nonzero;"/></g><g><path d="M7860.64,6734.21c96.563,0 214.842,-88.975 214.842,-181.212c-0,-55.333 -43.404,-90.054 -105.259,-90.054c-119.358,-0 -214.845,87.883 -214.845,181.2c-0,56.421 46.666,90.066 105.262,90.066" style="fill-rule:nonzero;"/></g><g><path d="M8324.06,6690.79c-0,-15.192 66.2,-43.404 92.241,-43.404c6.509,-0 9.759,1.075 9.759,5.416l-0,111.771c-0,19.529 -61.842,44.479 -88.979,44.479c-7.584,0 -13.021,-2.171 -13.021,-6.512l-0,-111.75m112.85,-154.084c-2.171,0 -3.246,1.079 -4.342,1.079c0,0.001 -69.446,24.963 -97.654,24.963c-6.513,0 -10.854,-1.092 -10.854,-5.433l-0,-181.196c-0,-7.604 -6.509,-13.021 -13.021,-13.021l-14.096,-0c-7.604,-0 -13.021,5.417 -13.021,13.021l0,558.8c0,6.512 3.246,9.775 8.679,9.775c1.08,-0 6.513,-1.092 7.588,-2.171c15.192,-6.508 75.954,-32.55 107.433,-32.55c10.85,0 18.438,3.246 18.438,11.925l-0,161.683c-0,7.588 5.433,13.021 13.021,13.021l14.112,0c6.513,0 13.021,-5.433 13.021,-13.021l-0,-544.704c-0,-5.433 -4.342,-8.679 -8.679,-8.679c-1.096,0 -3.267,0 -4.342,1.075l-16.283,5.433" style="fill-rule:nonzero;"/></g><g><path d="M8638.72,6868.75c96.58,0 214.846,-88.975 214.846,-181.217c0,-55.329 -43.404,-90.05 -105.246,-90.05c-119.354,0 -214.841,87.884 -214.841,181.196c-0,56.425 46.65,90.071 105.241,90.071" style="fill-rule:nonzero;"/></g><g><path d="M9113.02,6821c0,0 -3.246,-65.104 -3.246,-108.508c0,-17.363 1.079,-30.384 2.171,-34.721c7.588,-21.704 50.992,-53.179 75.954,-53.179c31.459,-0 44.479,35.816 44.479,62.933c0,58.596 -49.912,117.188 -96.562,146.496c-4.338,2.167 -7.604,3.246 -10.85,3.246c-9.775,-0 -11.946,-10.85 -11.946,-16.267m-37.967,96.563c3.246,4.337 6.509,5.433 9.759,5.433c3.262,-0 6.508,-2.171 6.508,-2.171c32.554,-18.454 58.596,-47.742 85.729,-66.2c96.563,-67.271 130.209,-133.454 130.209,-183.367c-0,-61.858 -47.742,-100.92 -97.655,-104.166c-18.458,-0 -44.5,8.679 -59.687,18.437c-6.513,5.434 -18.438,15.192 -23.875,15.192c-2.167,-0 -3.246,-0 -5.417,-1.075c-7.604,-3.267 -11.941,-10.854 -11.941,-18.458c1.091,-23.871 7.604,-284.288 7.604,-305.988c-0,-11.929 -9.775,-18.437 -20.625,-18.437c-15.192,-0 -32.554,10.85 -33.629,30.383c-0,-0 4.341,619.562 13.02,630.417" style="fill-rule:nonzero;"/></g><g><path d="M9479.56,6868.75c96.562,0 214.846,-88.975 214.846,-181.217c-0,-55.329 -43.405,-90.05 -105.263,-90.05c-119.358,0 -214.842,87.884 -214.842,181.196c0,56.425 46.667,90.071 105.259,90.071" style="fill-rule:nonzero;"/></g><g><path d="M9953.81,6955.54c-0,-0 -3.246,-65.105 -3.246,-108.505c-0,-17.362 1.075,-30.383 2.171,-34.725c7.587,-21.699 50.987,-53.174 75.954,-53.174c31.458,-0 44.479,35.816 44.479,62.933c0,58.596 -49.912,117.187 -96.562,146.492c-4.342,2.17 -7.605,3.249 -10.85,3.249c-9.775,0.001 -11.946,-10.854 -11.946,-16.27m-37.967,96.562c3.246,4.342 6.508,5.434 9.754,5.434c3.267,-0 6.513,-2.167 6.513,-2.167c32.55,-18.454 58.591,-47.746 85.729,-66.2c96.562,-67.275 130.208,-133.454 130.208,-183.367c0,-61.858 -47.741,-100.921 -97.658,-104.166c-18.454,-0 -44.496,8.679 -59.688,18.437c-6.508,5.433 -18.437,15.192 -23.87,15.192c-2.171,-0 -3.246,-0 -5.417,-1.079c-7.604,-3.263 -11.942,-10.85 -11.942,-18.455c1.092,-23.87 7.604,-284.287 7.604,-305.987c0,-11.929 -9.775,-18.438 -20.625,-18.438c-15.191,0 -32.554,10.85 -33.629,30.38c0,-0 4.338,619.566 13.021,630.416" style="fill-rule:nonzero;"/></g><g><path d="M10320.4,7003.29c96.563,-0 214.846,-88.98 214.846,-181.217c-0,-55.329 -43.404,-90.054 -105.263,-90.054c-119.358,-0 -214.841,87.883 -214.841,181.2c-0,56.425 46.666,90.071 105.258,90.071" style="fill-rule:nonzero;"/></g><g><path d="M10923.4,7137.83c96.579,0 214.841,-88.975 214.841,-181.212c0,-55.333 -43.404,-90.054 -105.241,-90.054c-119.359,-0 -214.846,87.883 -214.846,181.2c-0,56.421 46.65,90.066 105.246,90.066" style="fill-rule:nonzero;"/></g><g><path d="M12015.3,6933.83c11.946,-37.987 52.084,-43.404 85.73,-43.404c74.862,0 134.55,80.296 134.55,145.4c-0,33.629 -14.117,64.013 -49.917,72.692c-10.85,3.262 -22.792,4.341 -33.646,4.341c-39.062,0 -79.2,-26.041 -101.996,-56.425c-21.7,-24.945 -37.966,-61.841 -37.966,-96.562c-0,-8.679 1.075,-17.362 3.245,-26.042m113.942,-67.275c-144.325,0 -234.375,59.671 -234.375,133.454c0,72.709 61.838,137.813 223.525,137.813c177.95,0 234.375,-61.854 234.375,-137.813c0,-77.029 -122.625,-133.454 -223.525,-133.454" style="fill-rule:nonzero;"/></g><g><path d="M565.491,5776.08c3.246,20.625 3.246,19.534 -16.283,26.042c-95.488,32.554 -157.346,118.283 -157.346,210.504c-0,97.658 51.008,167.1 124.792,192.067c8.683,3.246 21.704,6.512 29.291,6.512c8.679,-0.004 13.021,-5.437 13.021,-11.945c0,-7.588 -8.683,-10.851 -16.271,-14.101c-45.571,-19.529 -78.125,-66.195 -78.125,-116.108c0,-61.842 42.313,-108.508 108.509,-126.946c17.362,-4.341 19.533,-3.262 21.7,8.679l54.254,323.355c2.171,11.925 1.079,11.925 -15.192,15.187c-17.358,3.25 -39.062,5.421 -60.762,5.421c-189.896,-0 -312.5,-105.246 -312.5,-256.079c-0,-64.009 10.85,-149.738 100.904,-251.734c65.104,-72.691 115.016,-112.85 166.025,-154.083c10.85,-8.679 13.021,-7.587 15.187,4.342l22.779,138.887m118.284,-738.921c35.796,0 65.104,29.288 65.104,88.975c-0,120.434 -103.092,218.092 -188.804,292.967c-7.604,6.513 -11.946,5.417 -14.113,-8.679c-4.341,-28.213 -6.512,-65.104 -6.512,-99.825c-0,-169.271 78.125,-273.438 144.325,-273.438m-43.404,911.459c-2.171,-13.021 -1.096,-16.288 11.925,-15.192c87.9,7.588 160.591,81.371 160.591,176.858c0,68.367 -41.233,123.696 -101.996,154.08c-13.02,6.508 -15.191,6.508 -17.362,-6.513l-53.158,-309.233m-58.596,-338.542c-2.167,-13.021 -0,-14.117 6.512,-20.625c117.188,-109.583 206.163,-247.396 206.163,-413.404c-0,-94.408 -26.042,-187.725 -70.538,-252.829c-16.266,-23.871 -44.479,-54.254 -56.425,-54.254c-15.191,-0 -48.816,28.212 -70.521,52.083c-80.295,88.975 -106.337,224.617 -106.337,337.467c-0,62.933 7.587,133.454 15.192,177.95c2.17,13.02 3.245,15.191 -9.775,26.041c-156.25,129.117 -322.255,284.288 -322.255,503.471c0,188.804 129.113,367.833 394.963,367.833c24.95,0 53.162,-2.17 74.862,-6.512c11.946,-2.171 14.117,-3.246 16.284,9.775c13.021,72.692 29.291,167.1 29.291,218.092c0,160.587 -108.508,180.12 -172.52,180.12c-58.592,0 -86.805,-17.362 -86.805,-31.458c0,-7.604 9.759,-10.85 34.721,-18.454c33.629,-9.758 72.692,-39.063 72.692,-102c-0,-59.667 -37.967,-110.675 -104.167,-110.675c-72.691,-0 -116.091,57.517 -116.091,124.792c-0,70.52 42.308,176.858 206.162,176.858c72.692,-0 213.75,-32.554 213.75,-217.017c0,-61.837 -19.533,-164.929 -31.458,-232.204c-2.171,-13.021 -1.096,-11.925 14.096,-18.437c109.6,-43.4 182.291,-135.642 182.291,-258.246c0,-138.888 -101.996,-261.509 -261.491,-261.509c-28.213,0 -28.213,0 -31.475,-19.533l-27.121,-157.325" style="fill-rule:nonzero;"/></g><g><path d="M2237.14,6742.56c-14.106,0 -21.702,6.51 -21.702,16.276c0,9.766 7.596,16.276 21.702,16.276l10.85,0c40.148,0 59.679,23.872 59.679,58.594c0,47.743 -33.637,113.932 -99.826,113.932c-21.702,0 -39.063,-8.68 -39.063,-19.531c0,-6.51 5.425,-8.68 14.106,-13.021c11.936,-5.425 27.127,-18.446 27.127,-46.658c-0,-26.041 -18.446,-39.062 -41.233,-39.062c-30.382,-0 -53.168,27.126 -53.168,62.934c-0,43.403 34.722,83.55 111.762,83.55c92.231,0 168.186,-55.338 168.186,-141.059c-0,-27.127 -14.106,-53.168 -42.318,-67.274c-7.595,-3.256 -11.936,-4.341 -11.936,-9.766c0,-3.255 4.341,-5.425 13.021,-9.766c45.573,-18.446 82.466,-53.168 82.466,-96.571c-0,-56.424 -54.254,-91.146 -120.443,-91.146c-68.36,0 -124.783,35.807 -126.954,94.401c-1.085,28.212 16.276,46.658 41.233,46.658c27.127,0 48.828,-21.701 48.828,-50.998c0,-11.936 -4.34,-20.616 -9.765,-27.127c-7.596,-6.51 -13.021,-10.85 -13.021,-14.106c-0,-7.595 13.021,-15.191 35.807,-15.191c42.318,0 56.424,26.042 56.424,49.914c-0,57.508 -36.893,98.741 -99.827,98.741l-11.935,0Z" style="fill-rule:nonzero;"/></g><g><path d="M7128.85,7025.39c-14.106,0 -21.701,6.511 -21.701,16.276c-0,9.766 7.595,16.276 21.701,16.276l10.851,0c40.147,0 59.679,23.872 59.679,58.594c-0,47.743 -33.638,113.933 -99.827,113.933c-21.701,-0 -39.062,-8.681 -39.062,-19.532c-0,-6.51 5.425,-8.68 14.105,-13.02c11.936,-5.426 27.127,-18.447 27.127,-46.658c0,-26.042 -18.446,-39.063 -41.232,-39.063c-30.382,0 -53.169,27.127 -53.169,62.934c0,43.403 34.722,83.551 111.762,83.551c92.231,-0 168.186,-55.339 168.186,-141.06c0,-27.126 -14.106,-53.168 -42.317,-67.274c-7.596,-3.255 -11.936,-4.34 -11.936,-9.766c-0,-3.255 4.34,-5.425 13.021,-9.765c45.573,-18.447 82.465,-53.169 82.465,-96.572c0,-56.423 -54.254,-91.146 -120.443,-91.146c-68.359,0 -124.783,35.808 -126.953,94.402c-1.085,28.211 16.276,46.658 41.233,46.658c27.126,-0 48.828,-21.702 48.828,-50.999c-0,-11.935 -4.341,-20.616 -9.766,-27.126c-7.595,-6.511 -13.021,-10.851 -13.021,-14.106c0,-7.596 13.021,-15.191 35.808,-15.191c42.317,-0 56.423,26.041 56.423,49.913c0,57.509 -36.892,98.741 -99.826,98.741l-11.936,0Z" style="fill-rule:nonzero;"/></g><g><path d="M1506.78,6331.58l-0,-136.666l1548.94,269.1l0,136.666l-1548.94,-269.1" style="fill-rule:nonzero;"/></g><g><path d="M3694.28,6801.12l-0,-134.862l2038.3,134.55l0,134.862l-2038.3,-134.55" style="fill-rule:nonzero;"/></g><g><path d="M3694.28,6598.88l-0,-134.858l2038.3,134.546l0,134.862l-2038.3,-134.55" style="fill-rule:nonzero;"/></g><g><path d="M6526.31,5320.33l-0,-137.812l1548.94,336.375l0,137.812l-1548.94,-336.375" style="fill-rule:nonzero;"/></g><g><path d="M8821.22,5858.42l0,-134.6l2317.16,67.275l-0,134.6l-2317.16,-67.275" style="fill-rule:nonzero;"/></g><g><path d="M8821.22,6060.38l0,-134.604l2317.16,67.275l-0,134.6l-2317.16,-67.271" style="fill-rule:nonzero;"/></g><g><path d="M6149.81,6882.25l713.975,118.433l-0,-43.662l-671.129,-111.283l-0,-165.313l-42.846,0" style="fill-rule:nonzero;"/></g><g><path d="M8096.93,7207.83l-647.238,-106.925l0,-43.683l604.375,103.246l0,-154.458l42.863,-0" style="fill-rule:nonzero;"/></g></g></svg>