<?xml version="1.0" encoding="UTF-8" standalone="no"?><!DOCTYPE svg PUBLIC "-//W3C//DTD SVG 1.1//EN" "http://www.w3.org/Graphics/SVG/1.1/DTD/svg11.dtd"><svg width="100%" height="100%" viewBox="0 0 28725 7522" version="1.1" xmlns="http://www.w3.org/2000/svg" xmlns:xlink="http://www.w3.org/1999/xlink" xml:space="preserve" xmlns:serif="http://www.serif.com/" style="fill-rule:evenodd;clip-rule:evenodd;stroke-miterlimit:2;"><g><g><path d="M39.224,1620.26l28645.8,-0.001" style="fill:none;stroke:#000;stroke-width:35.08px;"/><path d="M39.224,1889.36l28645.8,0" style="fill:none;stroke:#000;stroke-width:35.08px;"/><path d="M39.224,2158.45l28645.8,0" style="fill:none;stroke:#000;stroke-width:35.08px;"/><path d="M39.224,2427.55l28645.8,0" style="fill:none;stroke:#000;stroke-width:35.08px;"/><path d="M39.224,2696.65l28645.8,0" style="fill:none;stroke:#000;stroke-width:35.08px;"/></g><g><path d="M10290.4,1602.78l-0,1111.34" style="fill:none;stroke:#000;stroke-width:43.04px;"/><path d="M19454.8,1602.78l0,1111.34" style="fill:none;stroke:#000;stroke-width:43.04px;"/><path d="M28663.3,1602.78l0,1111.34" style="fill:none;stroke:#000;stroke-width:43.04px;"/></g><g><path d="M1810.6,2225.12l0,1099.06" style="fill:none;stroke:#000;stroke-width:32.29px;"/></g><g><path d="M1399.36,3234.85l535.487,-0" style="fill:none;stroke:#000;stroke-width:43.04px;"/><path d="M1399.36,2965.75l535.487,-0" style="fill:none;stroke:#000;stroke-width:43.04px;"/></g><g><path d="M2524.57,2157.85l0,1031.79" style="fill:none;stroke:#000;stroke-width:32.29px;"/></g><g><path d="M2113.34,3234.85l534.929,-0" style="fill:none;stroke:#000;stroke-width:43.04px;"/><path d="M2113.34,2965.75l534.929,-0" style="fill:none;stroke:#000;stroke-width:43.04px;"/></g><g><path d="M3238.55,2090.57l0,964.513" style="fill:none;stroke:#000;stroke-width:32.29px;"/></g><g><path d="M2826.78,2965.75l535.466,-0" style="fill:none;stroke:#000;stroke-width:43.04px;"/></g><g><path d="M4104.43,1956.03l-0,964.513" style="fill:none;stroke:#000;stroke-width:32.29px;"/></g><g><path d="M3755.6,2965.75l472.538,-0" style="fill:none;stroke:#000;stroke-width:43.04px;"/></g><g><path d="M4817.89,1888.75l0,897.238" style="fill:none;stroke:#000;stroke-width:32.29px;"/><path d="M5531.85,1821.48l0,829.967" style="fill:none;stroke:#000;stroke-width:32.29px;"/><path d="M6245.27,1685.14l0,831.754" style="fill:none;stroke:#000;stroke-width:32.29px;"/><path d="M6959.27,1550.59l0,831.75" style="fill:none;stroke:#000;stroke-width:32.29px;"/><path d="M7673.22,1416.06l0,831.738" style="fill:none;stroke:#000;stroke-width:32.29px;"/><path d="M8099.14,2203.65l0,763.333" style="fill:none;stroke:#000;stroke-width:32.29px;"/><path d="M8857.6,2069.1l0,793.892" style="fill:none;stroke:#000;stroke-width:32.29px;"/><path d="M9571.56,1934.55l-0,830.608" style="fill:none;stroke:#000;stroke-width:32.29px;"/><path d="M10732.6,1800l0,899.029" style="fill:none;stroke:#000;stroke-width:32.29px;"/><path d="M11446,1665.45l0,899.029" style="fill:none;stroke:#000;stroke-width:32.29px;"/><path d="M12160,1530.9l0,899.025" style="fill:none;stroke:#000;stroke-width:32.29px;"/><path d="M12874,1396.37l0,829.846" style="fill:none;stroke:#000;stroke-width:32.29px;"/></g><g><path d="M12750.3,1351.16l534.95,-0" style="fill:none;stroke:#000;stroke-width:43.04px;"/></g><g><path d="M13587.4,1261.83l0,903.575" style="fill:none;stroke:#000;stroke-width:32.29px;"/></g><g><path d="M13463.7,1351.16l535.487,-0" style="fill:none;stroke:#000;stroke-width:43.04px;"/></g><g><path d="M14453.3,1127.28l0,964.392" style="fill:none;stroke:#000;stroke-width:32.29px;"/></g><g><path d="M14392.5,1082.07l472.55,-0" style="fill:none;stroke:#000;stroke-width:43.04px;"/><path d="M14396.8,1351.16l468.213,-0" style="fill:none;stroke:#000;stroke-width:43.04px;"/></g><g><path d="M15167.2,992.725l-0,1165.89" style="fill:none;stroke:#000;stroke-width:32.29px;"/></g><g><path d="M15043.6,1082.07l534.946,-0" style="fill:none;stroke:#000;stroke-width:43.04px;"/><path d="M15043.6,1351.16l534.946,-0" style="fill:none;stroke:#000;stroke-width:43.04px;"/></g><g><path d="M15880.7,858.179l0,1266.79" style="fill:none;stroke:#000;stroke-width:32.29px;"/></g><g><path d="M15756.9,812.971l535.471,-0" style="fill:none;stroke:#000;stroke-width:43.04px;"/><path d="M15756.9,1082.07l535.471,-0" style="fill:none;stroke:#000;stroke-width:43.04px;"/><path d="M15756.9,1351.16l535.471,-0" style="fill:none;stroke:#000;stroke-width:43.04px;"/></g><g><path d="M16594.6,723.629l0,1367.71" style="fill:none;stroke:#000;stroke-width:32.29px;"/></g><g><path d="M16471,812.971l534.929,-0" style="fill:none;stroke:#000;stroke-width:43.04px;"/><path d="M16471,1082.07l534.929,-0" style="fill:none;stroke:#000;stroke-width:43.04px;"/><path d="M16471,1351.16l534.929,-0" style="fill:none;stroke:#000;stroke-width:43.04px;"/></g><g><path d="M17308.7,589.079l-0,1502.69" style="fill:none;stroke:#000;stroke-width:32.29px;"/></g><g><path d="M17184.3,543.871l535.471,-0" style="fill:none;stroke:#000;stroke-width:43.04px;"/><path d="M17184.3,812.971l535.471,-0" style="fill:none;stroke:#000;stroke-width:43.04px;"/><path d="M17184.3,1082.07l535.471,-0" style="fill:none;stroke:#000;stroke-width:43.04px;"/><path d="M17184.3,1351.16l535.471,-0" style="fill:none;stroke:#000;stroke-width:43.04px;"/></g><g><path d="M18022,723.629l0,1435.42" style="fill:none;stroke:#000;stroke-width:32.29px;"/></g><g><path d="M17898.4,812.971l535.471,-0" style="fill:none;stroke:#000;stroke-width:43.04px;"/><path d="M17898.4,1082.07l535.471,-0" style="fill:none;stroke:#000;stroke-width:43.04px;"/><path d="M17898.4,1351.16l535.471,-0" style="fill:none;stroke:#000;stroke-width:43.04px;"/></g><g><path d="M18736.1,858.179l0,1368.14" style="fill:none;stroke:#000;stroke-width:32.29px;"/></g><g><path d="M18612.3,812.971l534.929,-0" style="fill:none;stroke:#000;stroke-width:43.04px;"/><path d="M18612.3,1082.07l534.929,-0" style="fill:none;stroke:#000;stroke-width:43.04px;"/><path d="M18612.3,1351.16l534.929,-0" style="fill:none;stroke:#000;stroke-width:43.04px;"/></g><g><path d="M19896.5,992.725l0,1098.94" style="fill:none;stroke:#000;stroke-width:32.29px;"/></g><g><path d="M19772.9,1082.07l535.488,-0" style="fill:none;stroke:#000;stroke-width:43.04px;"/><path d="M19772.9,1351.16l535.488,-0" style="fill:none;stroke:#000;stroke-width:43.04px;"/></g><g><path d="M20762.5,1127.28l0,1038.12" style="fill:none;stroke:#000;stroke-width:32.29px;"/></g><g><path d="M20701.7,1082.07l472.013,-0" style="fill:none;stroke:#000;stroke-width:43.04px;"/><path d="M20706.1,1351.16l467.671,-0" style="fill:none;stroke:#000;stroke-width:43.04px;"/></g><g><path d="M21476.4,1261.83l0,964.392" style="fill:none;stroke:#000;stroke-width:32.29px;"/></g><g><path d="M21352.2,1351.16l535.488,-0" style="fill:none;stroke:#000;stroke-width:43.04px;"/></g><g><path d="M22189.7,1396.37l0,964.496" style="fill:none;stroke:#000;stroke-width:32.29px;"/></g><g><path d="M22066.1,1351.16l535.488,-0" style="fill:none;stroke:#000;stroke-width:43.04px;"/></g><g><path d="M22903.8,1530.9l-0,897.238" style="fill:none;stroke:#000;stroke-width:32.29px;"/><path d="M23617.2,1665.45l-0,829.967" style="fill:none;stroke:#000;stroke-width:32.29px;"/><path d="M24331.2,1800l0,831.596" style="fill:none;stroke:#000;stroke-width:32.29px;"/><path d="M25045.1,1934.55l0,827.517" style="fill:none;stroke:#000;stroke-width:32.29px;"/><path d="M25803.1,2069.1l0,831.6" style="fill:none;stroke:#000;stroke-width:32.29px;"/><path d="M26804.7,1349.81l-0,763.438" style="fill:none;stroke:#000;stroke-width:32.29px;"/><path d="M27518.6,1450.73l-0.017,797.067" style="fill:none;stroke:#000;stroke-width:32.29px;"/><path d="M28232.1,1551.62l0,830.725" style="fill:none;stroke:#000;stroke-width:32.29px;"/></g><g><path d="M1604.82,1202.5c0,0 -1.096,4.342 -1.096,7.604c0,4.342 4.342,8.679 8.684,8.679c3.262,0 5.433,-3.262 6.508,-4.337c1.096,-3.267 14.117,-47.746 20.625,-58.596c2.171,-4.337 4.342,-5.433 5.417,-5.433c2.17,-0 3.262,4.341 3.262,7.604l0,155.154c0,13.021 -10.85,20.625 -21.7,20.625c-4.342,0 -9.775,2.171 -9.775,8.683c0,6.509 5.433,8.68 14.117,8.68l91.146,-0c8.679,-0 8.679,-8.68 8.679,-8.68c-0,0 -0,-8.683 -8.679,-8.683c-7.605,0 -17.363,-9.771 -17.363,-19.529l0,-225.696c0,-8.679 -3.262,-13.021 -10.85,-13.021c-7.604,0 -14.117,2.171 -20.625,2.171c-10.85,0 -13.021,0 -21.7,-2.171c-4.342,0 -9.758,6.513 -13.021,10.854l-33.629,116.092" style="fill-rule:nonzero;"/></g><g><path d="M2488.3,1264.36c-0,-7.604 -3.263,-8.679 -6.509,-8.679c-4.341,0 -6.512,3.246 -7.604,6.509c-5.417,15.191 -17.362,34.72 -33.629,34.72c-2.171,0 -4.342,0 -6.513,-1.091l-16.283,-5.417c-10.85,-4.342 -36.892,-13.021 -58.592,-13.021c-7.587,0 -14.1,1.075 -20.608,3.246c11.925,-20.608 68.35,-47.742 80.296,-50.988c39.062,-5.437 71.612,-28.212 71.612,-70.541c0,-26.042 -10.85,-43.4 -24.966,-56.421c-28.209,-22.779 -69.442,-26.042 -81.371,-26.042c-39.063,0 -70.538,2.171 -98.75,34.721c-7.588,8.679 -10.85,17.363 -10.85,26.042c-0,7.604 3.262,16.283 6.512,26.042c6.509,13.02 20.625,22.795 35.813,22.795c27.121,0 30.383,-26.041 30.383,-37.987c0,-24.946 -27.133,-27.117 -27.133,-37.967c-0,-7.604 10.85,-20.625 43.4,-20.625c51.008,0 68.371,42.325 68.371,55.346c-0,19.533 -6.513,37.971 -17.363,53.158c-19.533,24.967 -55.346,33.646 -82.466,51.009c-30.38,18.437 -51.005,49.912 -60.763,84.637c0,7.584 3.246,16.267 9.758,19.529c1.092,1.075 3.263,1.075 4.338,1.075c11.946,0 18.454,-33.625 51.008,-33.625c21.7,0 29.288,29.288 78.125,29.288c22.779,-0 65.104,-2.171 73.784,-85.713" style="fill-rule:nonzero;"/></g><g><path d="M3152.28,1253.51l-0,-116.112c-0,-5.417 -1.092,-9.758 -6.509,-9.758c-4.341,-0 -7.604,1.079 -10.85,5.416l-32.554,62.938c-2.171,2.166 -5.433,5.433 -5.433,13.021l-0,44.495l-70.521,0c44.479,-36.891 113.925,-159.516 115.017,-166.025c-0,-1.075 1.079,-2.17 1.079,-3.245c-0,-4.342 -4.342,-7.605 -7.588,-7.605c-5.433,0 -28.212,2.171 -37.987,2.171c-9.759,0 -16.267,-2.171 -20.609,-2.171c-5.433,0 -13.02,2.171 -13.02,10.85c-0,69.446 -56.421,148.663 -70.538,168.196c-2.171,2.167 -4.342,5.417 -4.342,8.679c0,5.417 4.342,10.85 10.855,10.85l97.654,0l-0,33.63c-0,15.191 -8.679,19.529 -17.363,19.529c-9.754,-0 -14.096,4.341 -14.096,9.775c0,5.416 2.171,11.929 11.93,11.929l93.312,-0c5.438,-0 10.854,-4.342 10.854,-11.929c0,-7.604 -6.512,-10.85 -11.929,-10.85c-5.433,-0 -17.362,-3.263 -17.362,-20.625l-0,-31.459l40.141,0c5.434,0 8.679,-4.341 8.679,-10.85c0,-6.512 -2.17,-10.85 -8.679,-10.85l-40.141,0" style="fill-rule:nonzero;"/></g><g><path d="M3898.17,1202.5c0,0 -1.096,4.342 -1.096,7.604c0,4.342 4.342,8.679 8.684,8.679c3.262,0 5.433,-3.262 6.508,-4.337c1.096,-3.267 14.117,-47.746 20.625,-58.596c2.171,-4.337 4.342,-5.433 5.433,-5.433c2.171,-0 3.25,4.341 3.25,7.604l0,155.154c0,13.021 -10.854,20.625 -21.704,20.625c-4.337,0 -9.775,2.171 -9.775,8.683c0,6.509 5.438,8.68 14.117,8.68l91.146,-0c8.679,-0 8.679,-8.68 8.679,-8.68c-0,0 -0,-8.683 -8.679,-8.683c-7.605,0 -17.363,-9.771 -17.363,-19.529l0,-225.696c0,-8.679 -3.262,-13.021 -10.85,-13.021c-7.604,0 -14.112,2.171 -20.625,2.171c-10.85,0 -13.021,0 -21.7,-2.171c-4.342,0 -9.758,6.513 -13.021,10.854l-33.629,116.092" style="fill-rule:nonzero;"/></g><g><path d="M4781.64,1264.36c0,-7.604 -3.262,-8.679 -6.508,-8.679c-4.342,0 -6.513,3.246 -7.604,6.509c-5.417,15.191 -17.363,34.72 -33.63,34.72c-2.17,0 -4.341,0 -6.512,-1.091l-16.283,-5.417c-10.85,-4.342 -36.892,-13.021 -58.592,-13.021c-7.588,0 -14.1,1.075 -20.608,3.246c11.925,-20.608 68.35,-47.742 80.295,-50.988c39.063,-5.437 71.613,-28.212 71.613,-70.541c-0,-26.042 -10.85,-43.4 -24.967,-56.421c-28.208,-22.779 -69.441,-26.042 -81.371,-26.042c-39.062,0 -70.537,2.171 -98.75,34.721c-7.587,8.679 -10.85,17.363 -10.85,26.042c0,7.604 3.263,16.283 6.513,26.042c6.508,13.02 20.625,22.795 35.812,22.795c27.121,0 30.384,-26.041 30.384,-37.987c-0,-24.946 -27.134,-27.117 -27.134,-37.967c0,-7.604 10.85,-20.625 43.4,-20.625c51.009,0 68.371,42.325 68.371,55.346c0,19.533 -6.512,37.971 -17.362,53.158c-19.534,24.967 -55.346,33.646 -82.467,51.009c-30.379,18.437 -51.004,49.912 -60.762,84.637c-0,7.584 3.245,16.267 9.758,19.529c1.092,1.075 3.262,1.075 4.337,1.075c11.946,0 18.455,-33.625 51.009,-33.625c21.7,0 29.287,29.288 78.125,29.288c22.779,-0 65.104,-2.171 73.783,-85.713" style="fill-rule:nonzero;"/></g><g><path d="M5445.64,1253.51l0,-116.112c0,-5.417 -1.079,-9.758 -6.512,-9.758c-4.342,-0 -7.588,1.079 -10.85,5.416l-32.555,62.938c-2.166,2.166 -5.416,5.433 -5.416,13.021l-0,44.495l-70.538,0c44.496,-36.891 113.942,-159.516 115.017,-166.025c-0,-1.075 1.096,-2.17 1.096,-3.245c-0,-4.342 -4.342,-7.605 -7.604,-7.605c-5.417,0 -28.213,2.171 -37.971,2.171c-9.771,0 -16.284,-2.171 -20.625,-2.171c-5.417,0 -13.021,2.171 -13.021,10.85c-0,69.446 -56.421,148.663 -70.521,168.196c-2.167,2.167 -4.337,5.417 -4.337,8.679c-0,5.417 4.337,10.85 10.85,10.85l97.654,0l-0,33.63c-0,15.191 -8.679,19.529 -17.359,19.529c-9.775,-0 -14.116,4.341 -14.116,9.775c-0,5.416 2.171,11.929 11.946,11.929l93.316,-0c5.417,-0 10.85,-4.342 10.85,-11.929c0,-7.604 -6.512,-10.85 -11.946,-10.85c-5.416,-0 -17.358,-3.263 -17.358,-20.625l0,-31.459l40.154,0c5.417,0 8.679,-4.341 8.679,-10.85c0,-6.512 -2.166,-10.85 -8.679,-10.85l-40.154,0" style="fill-rule:nonzero;"/></g><g><path d="M6159.39,1253.51l0,-116.112c0,-5.417 -1.096,-9.758 -6.512,-9.758c-4.338,-0 -7.605,1.079 -10.85,5.416l-32.55,62.938c-2.171,2.166 -5.438,5.433 -5.438,13.021l0,44.495l-70.521,0c44.479,-36.891 113.925,-159.516 115.021,-166.025c0,-1.075 1.075,-2.17 1.075,-3.245c0,-4.342 -4.342,-7.605 -7.587,-7.605c-5.434,0 -28.213,2.171 -37.988,2.171c-9.754,0 -16.267,-2.171 -20.604,-2.171c-5.438,0 -13.021,2.171 -13.021,10.85c0,69.446 -56.425,148.663 -70.542,168.196c-2.166,2.167 -4.337,5.417 -4.337,8.679c-0,5.417 4.337,10.85 10.85,10.85l97.654,0l0,33.63c0,15.191 -8.679,19.529 -17.358,19.529c-9.759,-0 -14.1,4.341 -14.1,9.775c-0,5.416 2.171,11.929 11.929,11.929l93.317,-0c5.433,-0 10.85,-4.342 10.85,-11.929c-0,-7.604 -6.513,-10.85 -11.93,-10.85c-5.433,-0 -17.358,-3.263 -17.358,-20.625l0,-31.459l40.138,0c5.433,0 8.679,-4.341 8.679,-10.85c-0,-6.512 -2.167,-10.85 -8.679,-10.85l-40.138,0" style="fill-rule:nonzero;"/></g><g><path d="M6753.18,1202.5c-0,0 -1.092,4.342 -1.092,7.604c0,4.342 4.338,8.679 8.679,8.679c3.263,0 5.434,-3.262 6.513,-4.337c1.091,-3.267 14.112,-47.746 20.625,-58.596c2.166,-4.337 4.337,-5.433 5.433,-5.433c2.171,-0 3.246,4.341 3.246,7.604l-0,155.154c-0,13.021 -10.85,20.625 -21.7,20.625c-4.342,0 -9.775,2.171 -9.775,8.683c-0,6.509 5.433,8.68 14.112,8.68l91.146,-0c8.684,-0 8.684,-8.68 8.684,-8.68c-0,0 -0,-8.683 -8.684,-8.683c-7.604,0 -17.358,-9.771 -17.358,-19.529l-0,-225.696c-0,-8.679 -3.267,-13.021 -10.854,-13.021c-7.604,0 -14.113,2.171 -20.625,2.171c-10.85,0 -13.021,0 -21.7,-2.171c-4.342,0 -9.759,6.513 -13.021,10.854l-33.629,116.092" style="fill-rule:nonzero;"/></g><g><path d="M7636.68,1127.08c-0,-7.587 -3.267,-8.679 -6.513,-8.679c-4.341,0 -6.508,3.263 -7.604,6.508c-5.433,15.192 -17.362,34.726 -33.646,34.726c-2.171,-0 -4.341,-0 -6.508,-1.08l-16.271,-5.433c-10.85,-4.342 -36.892,-13.021 -58.592,-13.021c-7.604,0 -14.116,1.096 -20.625,3.263c11.946,-20.625 68.367,-47.742 80.296,-51.004c39.063,-5.417 71.613,-28.213 71.613,-70.521c-0,-26.042 -10.85,-43.404 -24.946,-56.425c-28.213,-22.796 -69.446,-26.042 -81.392,-26.042c-39.062,0 -70.521,2.171 -98.729,34.721c-7.604,8.683 -10.854,17.362 -10.854,26.042c-0,7.587 3.267,16.27 6.512,26.041c6.509,13.021 20.625,22.779 35.817,22.779c27.117,0 30.379,-26.041 30.379,-37.966c0,-24.967 -27.133,-27.138 -27.133,-37.988c-0,-7.587 10.85,-20.608 43.404,-20.608c51.004,-0 68.367,42.308 68.367,55.329c-0,19.533 -6.513,37.988 -17.363,53.179c-19.529,24.946 -55.346,33.629 -82.462,50.988c-30.384,18.454 -51.009,49.912 -60.767,84.637c0,7.604 3.246,16.284 9.758,19.529c1.092,1.096 3.263,1.096 4.342,1.096c11.942,0 18.454,-33.646 51.004,-33.646c21.704,0 29.288,29.304 78.125,29.304c22.779,0 65.104,-2.17 73.788,-85.729" style="fill-rule:nonzero;"/></g><g><path d="M8300.68,1253.51l-0,-116.112c-0,-5.417 -1.075,-9.758 -6.513,-9.758c-4.337,-0 -7.583,1.079 -10.85,5.416l-32.55,62.938c-2.171,2.166 -5.416,5.433 -5.416,13.021l-0,44.495l-70.538,0c44.496,-36.891 113.938,-159.516 115.017,-166.025c-0,-1.075 1.091,-2.17 1.091,-3.245c0,-4.342 -4.337,-7.605 -7.604,-7.605c-5.416,0 -28.212,2.171 -37.966,2.171c-9.775,0 -16.288,-2.171 -20.625,-2.171c-5.417,0 -13.021,2.171 -13.021,10.85c-0,69.446 -56.425,148.663 -70.521,168.196c-2.171,2.167 -4.342,5.417 -4.342,8.679c0,5.417 4.342,10.85 10.85,10.85l97.659,0l-0,33.63c-0,15.191 -8.684,19.529 -17.363,19.529c-9.775,-0 -14.112,4.341 -14.112,9.775c-0,5.416 2.166,11.929 11.941,11.929l93.317,-0c5.417,-0 10.85,-4.342 10.85,-11.929c-0,-7.604 -6.508,-10.85 -11.942,-10.85c-5.416,-0 -17.362,-3.263 -17.362,-20.625l-0,-31.459l40.154,0c5.417,0 8.683,-4.341 8.683,-10.85c0,-6.512 -2.171,-10.85 -8.683,-10.85l-40.154,0" style="fill-rule:nonzero;"/></g><g><path d="M8939.43,1202.5c-0,0 -1.075,4.342 -1.075,7.604c-0,4.342 4.341,8.679 8.679,8.679c3.246,0 5.417,-3.262 6.512,-4.337c1.075,-3.267 14.096,-47.746 20.609,-58.596c2.166,-4.337 4.337,-5.433 5.433,-5.433c2.171,-0 3.246,4.341 3.246,7.604l-0,155.154c-0,13.021 -10.85,20.625 -21.7,20.625c-4.342,0 -9.758,2.171 -9.758,8.683c-0,6.509 5.416,8.68 14.095,8.68l91.146,-0c8.684,-0 8.684,-8.68 8.684,-8.68c-0,0 -0,-8.683 -8.684,-8.683c-7.587,0 -17.358,-9.771 -17.358,-19.529l-0,-225.696c-0,-8.679 -3.25,-13.021 -10.854,-13.021c-7.584,0 -14.096,2.171 -20.604,2.171c-10.855,0 -13.021,0 -21.705,-2.171c-4.337,0 -9.775,6.513 -13.02,10.854l-33.646,116.092" style="fill-rule:nonzero;"/></g><g><path d="M9822.93,1264.36c-0,-7.604 -3.267,-8.679 -6.513,-8.679c-4.341,0 -6.508,3.246 -7.604,6.509c-5.417,15.191 -17.362,34.72 -33.629,34.72c-2.171,0 -4.338,0 -6.508,-1.091l-16.288,-5.417c-10.85,-4.342 -36.892,-13.021 -58.592,-13.021c-7.587,0 -14.095,1.075 -20.608,3.246c11.929,-20.608 68.35,-47.742 80.296,-50.988c39.062,-5.437 71.612,-28.212 71.612,-70.541c0,-26.042 -10.85,-43.4 -24.962,-56.421c-28.213,-22.779 -69.446,-26.042 -81.371,-26.042c-39.062,0 -70.542,2.171 -98.75,34.721c-7.587,8.679 -10.854,17.363 -10.854,26.042c-0,7.604 3.267,16.283 6.512,26.042c6.509,13.02 20.625,22.795 35.817,22.795c27.117,0 30.379,-26.041 30.379,-37.987c0,-24.946 -27.133,-27.117 -27.133,-37.967c-0,-7.604 10.85,-20.625 43.404,-20.625c51.004,0 68.367,42.325 68.367,55.346c-0,19.533 -6.513,37.971 -17.363,53.158c-19.529,24.967 -55.346,33.646 -82.462,51.009c-30.384,18.437 -51.009,49.912 -60.767,84.637c0,7.584 3.246,16.267 9.758,19.529c1.092,1.075 3.263,1.075 4.342,1.075c11.942,0 18.454,-33.625 51.004,-33.625c21.704,0 29.288,29.288 78.125,29.288c22.779,-0 65.104,-2.171 73.788,-85.713" style="fill-rule:nonzero;"/></g><g><path d="M10934.1,1253.51l0,-116.112c0,-5.417 -1.092,-9.758 -6.508,-9.758c-4.342,-0 -7.604,1.079 -10.85,5.416l-32.554,62.938c-2.171,2.166 -5.434,5.433 -5.434,13.021l0,44.495l-70.521,0c44.48,-36.891 113.925,-159.516 115.017,-166.025c0,-1.075 1.075,-2.17 1.075,-3.245c0,-4.342 -4.337,-7.605 -7.583,-7.605c-5.438,0 -28.213,2.171 -37.988,2.171c-9.758,0 -16.266,-2.171 -20.608,-2.171c-5.433,0 -13.021,2.171 -13.021,10.85c0,69.446 -56.425,148.663 -70.537,168.196c-2.171,2.167 -4.342,5.417 -4.342,8.679c-0,5.417 4.342,10.85 10.85,10.85l97.658,0l0,33.63c0,15.191 -8.679,19.529 -17.362,19.529c-9.754,-0 -14.096,4.341 -14.096,9.775c-0,5.416 2.171,11.929 11.925,11.929l93.317,-0c5.433,-0 10.85,-4.342 10.85,-11.929c-0,-7.604 -6.509,-10.85 -11.925,-10.85c-5.434,-0 -17.363,-3.263 -17.363,-20.625l0,-31.459l40.142,0c5.433,0 8.679,-4.341 8.679,-10.85c-0,-6.512 -2.171,-10.85 -8.679,-10.85l-40.142,0" style="fill-rule:nonzero;"/></g><g><path d="M11647.9,1253.26l0,-116.109c0,-5.416 -1.075,-9.758 -6.508,-9.758c-4.342,-0 -7.588,1.075 -10.85,5.417l-32.554,62.933c-2.171,2.171 -5.417,5.433 -5.417,13.021l-0,44.496l-70.538,-0c44.496,-36.892 113.942,-159.513 115.017,-166.021c0,-1.08 1.096,-2.171 1.096,-3.25c-0,-4.338 -4.342,-7.604 -7.604,-7.604c-5.417,-0 -28.213,2.17 -37.971,2.17c-9.775,0 -16.283,-2.17 -20.625,-2.17c-5.417,-0 -13.021,2.17 -13.021,10.854c0,69.441 -56.425,148.662 -70.521,168.191c-2.171,2.171 -4.341,5.417 -4.341,8.684c-0,5.416 4.341,10.85 10.854,10.85l97.654,-0l-0,33.629c-0,15.187 -8.679,19.529 -17.363,19.529c-9.77,0 -14.112,4.342 -14.112,9.775c-0,5.417 2.171,11.925 11.946,11.925l93.312,0c5.417,0 10.854,-4.337 10.854,-11.925c0,-7.604 -6.512,-10.85 -11.945,-10.85c-5.417,0 -17.363,-3.267 -17.363,-20.625l0,-31.458l40.158,-0c5.417,-0 8.68,-4.342 8.68,-10.854c-0,-6.509 -2.171,-10.85 -8.68,-10.85l-40.158,-0" style="fill-rule:nonzero;"/></g><g><path d="M12241.7,1066.88c0,0 -1.095,4.342 -1.095,7.588c-0,4.337 4.341,8.679 8.683,8.679c3.262,-0 5.433,-3.246 6.508,-4.342c1.096,-3.246 14.117,-47.742 20.625,-58.592c2.171,-4.341 4.342,-5.416 5.417,-5.416c2.171,-0 3.267,4.341 3.267,7.587l-0,155.175c-0,13.021 -10.855,20.604 -21.705,20.604c-4.337,0 -9.775,2.171 -9.775,8.684c0,6.508 5.438,8.679 14.117,8.679l91.146,-0c8.679,-0 8.679,-8.679 8.679,-8.679c0,-0 0,-8.684 -8.679,-8.684c-7.604,0 -17.363,-9.754 -17.363,-19.529l0,-225.696c0,-8.679 -3.262,-13.02 -10.85,-13.02c-7.604,-0 -14.112,2.17 -20.625,2.17c-10.85,0 -13.02,0 -21.7,-2.17c-4.341,-0 -9.775,6.512 -13.02,10.85l-33.646,116.112" style="fill-rule:nonzero;"/></g><g><path d="M13125.2,990.783c0,-7.604 -3.25,-8.683 -6.512,-8.683c-4.342,0 -6.508,3.246 -7.588,6.513c-5.433,15.191 -17.358,34.72 -33.645,34.72c-2.171,0 -4.338,0 -6.509,-1.091l-16.266,-5.417c-10.855,-4.342 -36.896,-13.021 -58.596,-13.021c-7.604,0 -14.113,1.075 -20.625,3.246c11.946,-20.608 68.366,-47.746 80.296,-50.992c39.062,-5.433 71.612,-28.212 71.612,-70.537c0,-26.042 -10.85,-43.404 -24.946,-56.425c-28.212,-22.775 -69.446,-26.042 -81.387,-26.042c-39.063,0 -70.521,2.171 -98.734,34.725c-7.604,8.679 -10.85,17.358 -10.85,26.042c0,7.604 3.246,16.283 6.509,26.041c6.512,13.021 20.608,22.796 35.8,22.796c27.133,0 30.379,-26.041 30.379,-37.987c-0,-24.95 -27.117,-27.117 -27.117,-37.971c0,-7.604 10.85,-20.625 43.404,-20.625c50.988,-0 68.35,42.329 68.35,55.35c0,19.529 -6.512,37.967 -17.362,53.158c-19.529,24.967 -55.329,33.646 -82.463,51.009c-30.383,18.437 -50.991,49.912 -60.766,84.633c-0,7.587 3.266,16.267 9.775,19.533c1.075,1.075 3.246,1.075 4.341,1.075c11.925,0 18.438,-33.629 50.988,-33.629c21.704,0 29.308,29.288 78.125,29.288c22.796,-0 65.104,-2.167 73.787,-85.709" style="fill-rule:nonzero;"/></g><g><path d="M13789.2,849.617l-0,-116.109c-0,-5.416 -1.096,-9.758 -6.513,-9.758c-4.341,0 -7.604,1.075 -10.85,5.417l-32.554,62.933c-2.167,2.171 -5.433,5.433 -5.433,13.021l-0,44.496l-70.521,-0c44.479,-36.892 113.925,-159.513 115.017,-166.021c-0,-1.079 1.079,-2.171 1.079,-3.25c-0,-4.338 -4.342,-7.604 -7.588,-7.604c-5.433,-0 -28.212,2.171 -37.987,2.171c-9.754,-0 -16.267,-2.171 -20.609,-2.171c-5.433,-0 -13.02,2.171 -13.02,10.854c-0,69.442 -56.421,148.662 -70.538,168.192c-2.171,2.17 -4.337,5.416 -4.337,8.683c-0,5.417 4.337,10.85 10.85,10.85l97.654,-0l-0,33.629c-0,15.188 -8.679,19.529 -17.359,19.529c-9.758,0 -14.1,4.342 -14.1,9.775c0,5.417 2.171,11.925 11.93,11.925l93.316,0c5.434,0 10.85,-4.337 10.85,-11.925c0,-7.604 -6.512,-10.85 -11.929,-10.85c-5.433,0 -17.358,-3.266 -17.358,-20.625l-0,-31.458l40.137,-0c5.434,-0 8.679,-4.342 8.679,-10.854c0,-6.509 -2.17,-10.85 -8.679,-10.85l-40.137,-0" style="fill-rule:nonzero;"/></g><g><path d="M14535.1,663.229c-0,0 -1.075,4.342 -1.075,7.588c-0,4.341 4.337,8.679 8.679,8.679c3.246,-0 5.417,-3.246 6.508,-4.338c1.079,-3.25 14.1,-47.745 20.609,-58.595c2.17,-4.342 4.341,-5.417 5.433,-5.417c2.171,-0 3.25,4.342 3.25,7.587l-0,155.175c-0,13.021 -10.854,20.605 -21.704,20.605c-4.338,-0 -9.754,2.17 -9.754,8.683c-0,6.508 5.416,8.679 14.095,8.679l91.146,0c8.679,0 8.679,-8.679 8.679,-8.679c0,-0 0,-8.683 -8.679,-8.683c-7.587,-0 -17.362,-9.755 -17.362,-19.53l-0,-225.696c-0,-8.679 -3.246,-13.02 -10.85,-13.02c-7.588,-0 -14.096,2.17 -20.609,2.17c-10.85,0 -13.02,0 -21.7,-2.17c-4.341,-0 -9.775,6.512 -13.02,10.85l-33.646,116.112" style="fill-rule:nonzero;"/></g><g><path d="M15418.6,587.138c-0,-7.609 -3.267,-8.684 -6.513,-8.684c-4.337,0 -6.508,3.246 -7.604,6.513c-5.417,15.191 -17.358,34.72 -33.629,34.72c-2.167,0 -4.338,0 -6.508,-1.091l-16.284,-5.417c-10.854,-4.342 -36.896,-13.021 -58.596,-13.021c-7.587,0 -14.095,1.075 -20.608,3.246c11.929,-20.608 68.35,-47.746 80.296,-50.992c39.062,-5.433 71.617,-28.212 71.617,-70.537c-0,-26.042 -10.855,-43.404 -24.967,-56.425c-28.213,-22.775 -69.446,-26.042 -81.371,-26.042c-39.062,0 -70.537,2.171 -98.75,34.725c-7.587,8.679 -10.85,17.359 -10.85,26.042c0,7.604 3.263,16.283 6.508,26.042c6.513,13.02 20.625,22.795 35.817,22.795c27.117,0 30.383,-26.041 30.383,-37.987c0,-24.95 -27.137,-27.117 -27.137,-37.971c-0,-7.604 10.85,-20.625 43.404,-20.625c51.004,0 68.367,42.329 68.367,55.35c-0,19.529 -6.509,37.967 -17.363,53.158c-19.529,24.967 -55.346,33.646 -82.462,51.009c-30.384,18.437 -51.009,49.912 -60.767,84.633c0,7.588 3.25,16.267 9.758,19.533c1.096,1.075 3.263,1.075 4.342,1.075c11.942,0 18.454,-33.629 51.004,-33.629c21.704,0 29.292,29.288 78.125,29.288c22.779,-0 65.104,-2.167 73.788,-85.709" style="fill-rule:nonzero;"/></g><g><path d="M16013.5,269.342c-59.687,-0 -85.729,40.154 -85.729,62.933c-0,15.192 8.683,33.646 35.817,34.721c20.608,-0 30.383,-13.021 30.383,-27.117l-0,-4.341c-1.096,-16.284 -11.946,-17.359 -14.117,-18.455c-2.166,-1.075 -6.508,-5.416 -6.508,-13.02c2.171,-11.925 18.454,-16.267 22.796,-16.267c55.329,-0 71.612,29.287 71.612,47.742c0,50.991 -52.083,55.329 -68.366,56.425c-7.588,-0 -15.192,3.245 -15.192,9.758c-0,6.508 9.775,6.508 14.117,6.508c62.933,0 71.612,32.554 71.612,48.838c0,62.933 -51.008,65.104 -64.029,65.104c-6.508,-0 -17.358,-3.263 -18.438,-8.679l0,-6.513c0,-11.946 3.25,-24.967 4.342,-35.817c0,-19.529 -13.021,-31.458 -32.55,-31.458l-4.342,0c-7.604,2.171 -15.191,6.513 -20.625,11.929c-7.587,6.509 -9.758,16.284 -9.758,26.042c1.079,34.721 31.458,64.025 85.713,65.104l6.512,0c53.175,0 108.504,-28.212 108.504,-75.954c0,-10.854 -2.171,-19.533 -5.416,-26.042c-2.171,-6.512 -6.509,-11.929 -10.85,-16.271c-3.263,-4.337 -7.605,-7.604 -11.946,-10.85l-11.925,-6.508l-6.513,-2.171c-2.166,0 -3.262,-1.096 -5.433,-1.096l-6.508,-2.166c-3.246,-1.079 -4.342,-0 -5.417,-2.171c-1.096,-1.079 -1.096,-2.171 -1.096,-3.246c0,-2.171 1.096,-4.342 3.267,-4.342l17.358,-5.433c7.588,-4.342 15.192,-7.587 20.608,-15.192c8.68,-8.679 11.946,-22.779 11.946,-34.72c0,-50.992 -67.275,-65.105 -91.146,-67.275l-8.683,-0" style="fill-rule:nonzero;"/></g><g><path d="M16796.3,311.425l0,-116.113c0,-5.416 -1.075,-9.758 -6.508,-9.758c-4.342,0 -7.587,1.079 -10.85,5.417l-32.554,62.937c-2.171,2.167 -5.417,5.434 -5.417,13.021l0,44.496l-70.537,0c44.496,-36.892 113.941,-159.517 115.016,-166.025c0,-1.075 1.096,-2.171 1.096,-3.246c0,-4.341 -4.341,-7.604 -7.604,-7.604c-5.417,0 -28.212,2.171 -37.971,2.171c-9.775,-0 -16.283,-2.171 -20.625,-2.171c-5.416,0 -13.021,2.171 -13.021,10.85c0,69.446 -56.42,148.663 -70.52,168.196c-2.171,2.167 -4.338,5.417 -4.338,8.679c0,5.417 4.338,10.85 10.85,10.85l97.654,0l0,33.629c0,15.192 -8.679,19.529 -17.358,19.529c-9.775,0 -14.117,4.342 -14.117,9.775c0,5.417 2.171,11.93 11.946,11.93l93.317,-0c5.416,-0 10.85,-4.342 10.85,-11.93c-0,-7.604 -6.513,-10.85 -11.946,-10.85c-5.417,0 -17.363,-3.262 -17.363,-20.625l0,-31.458l40.159,0c5.416,0 8.679,-4.342 8.679,-10.85c-0,-6.512 -2.171,-10.85 -8.679,-10.85l-40.159,0" style="fill-rule:nonzero;"/></g><g><path d="M17510.1,176.875l-0,-116.113c-0,-5.416 -1.092,-9.754 -6.509,-9.754c-4.341,0 -7.604,1.075 -10.854,5.417l-32.55,62.933c-2.171,2.171 -5.433,5.434 -5.433,13.021l-0,44.496l-70.521,-0c44.479,-36.892 113.921,-159.513 115.017,-166.025c-0,-1.075 1.075,-2.171 1.075,-3.246c-0,-4.342 -4.338,-7.604 -7.588,-7.604c-5.433,-0 -28.208,2.171 -37.983,2.171c-9.758,-0 -16.267,-2.171 -20.608,-2.171c-5.434,-0 -13.021,2.171 -13.021,10.85c-0,69.446 -56.425,148.663 -70.538,168.196c-2.171,2.171 -4.341,5.416 -4.341,8.679c-0,5.417 4.341,10.85 10.85,10.85l97.658,-0l-0,33.629c-0,15.192 -8.683,19.533 -17.363,19.533c-9.758,0 -14.095,4.338 -14.095,9.776c-0,5.412 2.17,11.924 11.925,11.924l93.316,0c5.434,0 10.85,-4.341 10.85,-11.925c0,-7.604 -6.508,-10.854 -11.925,-10.854c-5.433,0 -17.362,-3.262 -17.362,-20.625l-0,-31.458l40.137,0c5.438,0 8.684,-4.337 8.684,-10.85c-0,-6.508 -2.171,-10.85 -8.684,-10.85l-40.137,0" style="fill-rule:nonzero;"/></g><g><path d="M18223.8,311.425l0,-116.113c0,-5.416 -1.079,-9.758 -6.512,-9.758c-4.338,0 -7.588,1.079 -10.85,5.417l-32.55,62.937c-2.171,2.167 -5.417,5.434 -5.417,13.021l-0,44.496l-70.542,0c44.5,-36.892 113.942,-159.517 115.021,-166.025c0,-1.075 1.092,-2.171 1.092,-3.246c-0,-4.341 -4.342,-7.604 -7.604,-7.604c-5.417,0 -28.213,2.171 -37.967,2.171c-9.775,-0 -16.288,-2.171 -20.625,-2.171c-5.417,0 -13.021,2.171 -13.021,10.85c0,69.446 -56.425,148.663 -70.521,168.196c-2.171,2.167 -4.341,5.417 -4.341,8.679c-0,5.417 4.341,10.85 10.85,10.85l97.658,0l-0,33.629c-0,15.192 -8.683,19.529 -17.363,19.529c-9.775,0 -14.116,4.342 -14.116,9.775c-0,5.417 2.171,11.93 11.946,11.93l93.316,-0c5.417,-0 10.85,-4.342 10.85,-11.93c0,-7.604 -6.508,-10.85 -11.946,-10.85c-5.416,0 -17.358,-3.262 -17.358,-20.625l0,-31.458l40.154,0c5.417,0 8.684,-4.342 8.684,-10.85c-0,-6.512 -2.171,-10.85 -8.684,-10.85l-40.154,0" style="fill-rule:nonzero;"/></g><g><path d="M18868.6,269.342c-59.688,-0 -85.729,40.154 -85.729,62.933c-0,15.192 8.679,33.646 35.816,34.721c20.604,-0 30.379,-13.021 30.379,-27.117l0,-4.341c-1.091,-16.284 -11.941,-17.359 -14.112,-18.455c-2.171,-1.075 -6.513,-5.416 -6.513,-13.02c2.171,-11.925 18.455,-16.267 22.796,-16.267c55.329,-0 71.617,29.287 71.617,47.742c-0,50.991 -52.083,55.329 -68.371,56.425c-7.587,-0 -15.192,3.245 -15.192,9.758c0,6.508 9.775,6.508 14.117,6.508c62.933,0 71.613,32.554 71.613,48.838c-0,62.933 -51.005,65.104 -64.025,65.104c-6.513,-0 -17.363,-3.263 -18.438,-8.679l0,-6.513c0,-11.946 3.246,-24.967 4.338,-35.817c-0,-19.529 -13.021,-31.458 -32.55,-31.458l-4.342,0c-7.604,2.171 -15.192,6.513 -20.625,11.929c-7.588,6.509 -9.754,16.284 -9.754,26.042c1.075,34.721 31.458,64.025 85.708,65.104l6.513,0c53.175,0 108.508,-28.212 108.508,-75.954c-0,-10.854 -2.171,-19.533 -5.417,-26.042c-2.171,-6.512 -6.512,-11.929 -10.854,-16.271c-3.262,-4.337 -7.604,-7.604 -11.942,-10.85l-11.929,-6.508l-6.508,-2.171c-2.171,0 -3.267,-1.096 -5.433,-1.096l-6.513,-2.166c-3.246,-1.079 -4.342,-0 -5.417,-2.171c-1.091,-1.079 -1.091,-2.171 -1.091,-3.246c-0,-2.171 1.091,-4.342 3.262,-4.342l17.363,-5.433c7.583,-4.342 15.187,-7.587 20.604,-15.192c8.683,-8.679 11.946,-22.779 11.946,-34.72c-0,-50.992 -67.275,-65.105 -91.146,-67.275l-8.679,-0" style="fill-rule:nonzero;"/></g><g><path d="M20147.9,587.138c0,-7.609 -3.262,-8.684 -6.508,-8.684c-4.342,0 -6.513,3.246 -7.604,6.513c-5.417,15.191 -17.363,34.72 -33.63,34.72c-2.17,0 -4.341,0 -6.508,-1.091l-16.287,-5.417c-10.85,-4.342 -36.892,-13.021 -58.592,-13.021c-7.588,0 -14.1,1.075 -20.608,3.246c11.925,-20.608 68.35,-47.746 80.295,-50.992c39.063,-5.433 71.613,-28.212 71.613,-70.537c-0,-26.042 -10.85,-43.404 -24.963,-56.425c-28.212,-22.775 -69.445,-26.042 -81.375,-26.042c-39.062,0 -70.537,2.171 -98.75,34.725c-7.583,8.679 -10.85,17.359 -10.85,26.042c0,7.604 3.267,16.283 6.513,26.042c6.508,13.02 20.625,22.795 35.817,22.795c27.116,0 30.379,-26.041 30.379,-37.987c-0,-24.95 -27.134,-27.117 -27.134,-37.971c0,-7.604 10.85,-20.625 43.4,-20.625c51.009,0 68.371,42.329 68.371,55.35c0,19.529 -6.512,37.967 -17.362,53.158c-19.529,24.967 -55.346,33.646 -82.467,51.009c-30.379,18.437 -51.004,49.912 -60.762,84.633c-0,7.588 3.245,16.267 9.758,19.533c1.092,1.075 3.262,1.075 4.337,1.075c11.946,0 18.459,-33.629 51.009,-33.629c21.7,0 29.287,29.288 78.125,29.288c22.779,-0 65.104,-2.167 73.783,-85.709" style="fill-rule:nonzero;"/></g><g><path d="M20844.1,663.229c0,0 -1.079,4.342 -1.079,7.588c0,4.341 4.342,8.679 8.684,8.679c3.245,-0 5.416,-3.246 6.508,-4.338c1.079,-3.25 14.1,-47.745 20.608,-58.595c2.171,-4.342 4.342,-5.417 5.434,-5.417c2.17,-0 3.245,4.342 3.245,7.587l0,155.175c0,13.021 -10.85,20.605 -21.7,20.605c-4.341,-0 -9.758,2.17 -9.758,8.683c0,6.508 5.417,8.679 14.1,8.679l91.146,0c8.679,0 8.679,-8.679 8.679,-8.679c0,-0 0,-8.683 -8.679,-8.683c-7.588,-0 -17.363,-9.755 -17.363,-19.53l0,-225.696c0,-8.679 -3.245,-13.02 -10.85,-13.02c-7.587,-0 -14.095,2.17 -20.608,2.17c-10.85,0 -13.021,0 -21.7,-2.17c-4.342,-0 -9.775,6.512 -13.021,10.85l-33.646,116.112" style="fill-rule:nonzero;"/></g><g><path d="M21677.8,849.617l0,-116.109c0,-5.416 -1.075,-9.758 -6.508,-9.758c-4.342,0 -7.588,1.075 -10.854,5.417l-32.55,62.933c-2.171,2.171 -5.417,5.433 -5.417,13.021l-0,44.496l-70.538,-0c44.496,-36.892 113.942,-159.513 115.017,-166.021c0,-1.079 1.092,-2.171 1.092,-3.25c-0,-4.338 -4.338,-7.604 -7.604,-7.604c-5.417,-0 -28.209,2.171 -37.967,2.171c-9.775,-0 -16.283,-2.171 -20.625,-2.171c-5.417,-0 -13.021,2.171 -13.021,10.854c0,69.442 -56.425,148.662 -70.521,168.192c-2.171,2.17 -4.341,5.416 -4.341,8.683c-0,5.417 4.341,10.85 10.85,10.85l97.658,-0l-0,33.629c-0,15.188 -8.679,19.529 -17.363,19.529c-9.775,0 -14.112,4.342 -14.112,9.775c-0,5.417 2.171,11.925 11.942,11.925l93.316,0c5.417,0 10.85,-4.337 10.85,-11.925c0,-7.604 -6.508,-10.85 -11.941,-10.85c-5.417,0 -17.363,-3.266 -17.363,-20.625l0,-31.458l40.158,-0c5.417,-0 8.68,-4.342 8.68,-10.854c-0,-6.509 -2.171,-10.85 -8.68,-10.85l-40.158,-0" style="fill-rule:nonzero;"/></g><g><path d="M22441.3,990.783c-0,-7.604 -3.246,-8.683 -6.509,-8.683c-4.341,0 -6.512,3.246 -7.587,6.513c-5.433,15.191 -17.363,34.72 -33.646,34.72c-2.171,0 -4.342,0 -6.512,-1.091l-16.267,-5.417c-10.85,-4.342 -36.892,-13.021 -58.592,-13.021c-7.604,0 -14.116,1.075 -20.625,3.246c11.942,-20.608 68.367,-47.746 80.292,-50.992c39.062,-5.433 71.617,-28.212 71.617,-70.537c-0,-26.042 -10.85,-43.404 -24.95,-56.425c-28.209,-22.775 -69.442,-26.042 -81.388,-26.042c-39.062,0 -70.521,2.171 -98.733,34.725c-7.604,8.679 -10.85,17.358 -10.85,26.042c-0,7.604 3.246,16.283 6.512,26.041c6.509,13.021 20.604,22.796 35.796,22.796c27.138,0 30.383,-26.041 30.383,-37.987c0,-24.95 -27.116,-27.117 -27.116,-37.971c-0,-7.604 10.85,-20.625 43.4,-20.625c50.991,-0 68.35,42.329 68.35,55.35c-0,19.529 -6.509,37.967 -17.359,53.158c-19.533,24.967 -55.329,33.646 -82.466,51.009c-30.384,18.437 -50.988,49.912 -60.763,84.633c0,7.587 3.263,16.267 9.775,19.533c1.075,1.075 3.246,1.075 4.338,1.075c11.929,0 18.437,-33.629 50.991,-33.629c21.7,0 29.305,29.288 78.125,29.288c22.796,-0 65.105,-2.167 73.784,-85.709" style="fill-rule:nonzero;"/></g><g><path d="M22985.2,1066.88c0,0 -1.095,4.342 -1.095,7.588c-0,4.337 4.341,8.679 8.683,8.679c3.262,-0 5.433,-3.246 6.508,-4.342c1.096,-3.246 14.117,-47.742 20.625,-58.592c2.171,-4.341 4.342,-5.416 5.417,-5.416c2.171,-0 3.262,4.341 3.262,7.587l0,155.175c0,13.021 -10.85,20.604 -21.7,20.604c-4.341,0 -9.775,2.171 -9.775,8.684c0,6.508 5.434,8.679 14.117,8.679l91.146,-0c8.679,-0 8.679,-8.679 8.679,-8.679c0,-0 0,-8.684 -8.679,-8.684c-7.604,0 -17.363,-9.754 -17.363,-19.529l0,-225.696c0,-8.679 -3.262,-13.02 -10.85,-13.02c-7.604,-0 -14.116,2.17 -20.625,2.17c-10.85,0 -13.02,0 -21.7,-2.17c-4.341,-0 -9.758,6.512 -13.02,10.85l-33.63,116.112" style="fill-rule:nonzero;"/></g><g><path d="M23819.1,1253.26l0,-116.109c0,-5.416 -1.095,-9.758 -6.512,-9.758c-4.338,-0 -7.604,1.075 -10.85,5.417l-32.55,62.933c-2.171,2.171 -5.438,5.433 -5.438,13.021l0,44.496l-70.52,-0c44.479,-36.892 113.925,-159.513 115.02,-166.021c0,-1.08 1.075,-2.171 1.075,-3.25c0,-4.338 -4.341,-7.604 -7.587,-7.604c-5.433,-0 -28.213,2.17 -37.988,2.17c-9.754,0 -16.266,-2.17 -20.604,-2.17c-5.437,-0 -13.021,2.17 -13.021,10.854c0,69.441 -56.425,148.662 -70.541,168.191c-2.167,2.171 -4.338,5.417 -4.338,8.684c0,5.416 4.338,10.85 10.85,10.85l97.654,-0l0,33.629c0,15.187 -8.679,19.529 -17.358,19.529c-9.758,0 -14.1,4.342 -14.1,9.775c0,5.417 2.171,11.925 11.929,11.925l93.317,0c5.433,0 10.85,-4.337 10.85,-11.925c-0,-7.604 -6.513,-10.85 -11.929,-10.85c-5.434,0 -17.359,-3.267 -17.359,-20.625l0,-31.458l40.138,-0c5.433,-0 8.679,-4.342 8.679,-10.854c0,-6.509 -2.167,-10.85 -8.679,-10.85l-40.138,-0" style="fill-rule:nonzero;"/></g><g><path d="M24532.8,1253.51l-0,-116.112c-0,-5.417 -1.075,-9.758 -6.509,-9.758c-4.341,-0 -7.587,1.079 -10.85,5.416l-32.554,62.938c-2.171,2.166 -5.416,5.433 -5.416,13.021l-0,44.495l-70.538,0c44.496,-36.891 113.942,-159.516 115.017,-166.025c-0,-1.075 1.096,-2.17 1.096,-3.245c-0,-4.342 -4.342,-7.605 -7.605,-7.605c-5.416,0 -28.212,2.171 -37.97,2.171c-9.775,0 -16.284,-2.171 -20.625,-2.171c-5.417,0 -13.021,2.171 -13.021,10.85c-0,69.446 -56.421,148.663 -70.521,168.196c-2.171,2.167 -4.338,5.417 -4.338,8.679c0,5.417 4.338,10.85 10.85,10.85l97.655,0l-0,33.63c-0,15.191 -8.68,19.529 -17.359,19.529c-9.775,-0 -14.116,4.341 -14.116,9.775c-0,5.416 2.17,11.929 11.945,11.929l93.317,-0c5.417,-0 10.85,-4.342 10.85,-11.929c0,-7.604 -6.512,-10.85 -11.946,-10.85c-5.416,-0 -17.362,-3.263 -17.362,-20.625l-0,-31.459l40.158,0c5.417,0 8.679,-4.341 8.679,-10.85c0,-6.512 -2.171,-10.85 -8.679,-10.85l-40.158,0" style="fill-rule:nonzero;"/></g><g><path d="M25296.3,1264.36c0,-7.604 -3.245,-8.679 -6.508,-8.679c-4.342,0 -6.512,3.246 -7.587,6.509c-5.434,15.191 -17.363,34.72 -33.646,34.72c-2.171,0 -4.342,0 -6.509,-1.091l-16.27,-5.417c-10.85,-4.342 -36.892,-13.021 -58.592,-13.021c-7.604,0 -14.117,1.075 -20.625,3.246c11.946,-20.608 68.367,-47.742 80.296,-50.988c39.062,-5.437 71.612,-28.212 71.612,-70.541c0,-26.042 -10.85,-43.4 -24.946,-56.421c-28.212,-22.779 -69.445,-26.042 -81.391,-26.042c-39.063,0 -70.521,2.171 -98.729,34.721c-7.605,8.679 -10.855,17.363 -10.855,26.042c0,7.604 3.25,16.283 6.513,26.042c6.508,13.02 20.608,22.795 35.8,22.795c27.133,0 30.379,-26.041 30.379,-37.987c0,-24.946 -27.117,-27.117 -27.117,-37.967c0,-7.604 10.85,-20.625 43.405,-20.625c50.987,0 68.35,42.325 68.35,55.346c-0,19.533 -6.513,37.971 -17.363,53.158c-19.529,24.967 -55.329,33.646 -82.467,51.009c-30.379,18.437 -50.987,49.912 -60.762,84.637c-0,7.584 3.262,16.267 9.775,19.529c1.075,1.075 3.246,1.075 4.342,1.075c11.925,0 18.437,-33.625 50.987,-33.625c21.7,0 29.304,29.288 78.125,29.288c22.796,-0 65.104,-2.171 73.783,-85.713" style="fill-rule:nonzero;"/></g><g><path d="M25884.7,1202.5c0,0 -1.079,4.342 -1.079,7.604c0,4.342 4.342,8.679 8.684,8.679c3.245,0 5.416,-3.262 6.508,-4.337c1.079,-3.267 14.1,-47.746 20.608,-58.596c2.171,-4.337 4.342,-5.433 5.434,-5.433c2.17,-0 3.245,4.341 3.245,7.604l0,155.154c0,13.021 -10.85,20.625 -21.7,20.625c-4.341,0 -9.758,2.171 -9.758,8.683c0,6.509 5.417,8.68 14.1,8.68l91.146,-0c8.679,-0 8.679,-8.68 8.679,-8.68c0,0 0,-8.683 -8.679,-8.683c-7.588,0 -17.363,-9.771 -17.363,-19.529l0,-225.696c0,-8.679 -3.245,-13.021 -10.85,-13.021c-7.587,0 -14.095,2.171 -20.608,2.171c-10.85,0 -13.021,0 -21.7,-2.171c-4.342,0 -9.775,6.513 -13.021,10.854l-33.646,116.092" style="fill-rule:nonzero;"/></g><g><path d="M26718.6,1051.18l-0,-116.092c-0,-5.433 -1.079,-9.775 -6.513,-9.775c-4.337,0 -7.587,1.096 -10.85,5.434l-32.55,62.933c-2.171,2.171 -5.416,5.417 -5.416,13.021l-0,44.479l-70.542,0c44.5,-36.891 113.942,-159.496 115.021,-166.004c-0,-1.096 1.091,-2.171 1.091,-3.267c0,-4.337 -4.341,-7.583 -7.604,-7.583c-5.416,0 -28.212,2.167 -37.966,2.167c-9.775,-0 -16.288,-2.167 -20.625,-2.167c-5.417,0 -13.021,2.167 -13.021,10.85c-0,69.442 -56.425,148.646 -70.521,168.175c-2.171,2.171 -4.342,5.433 -4.342,8.679c0,5.438 4.342,10.854 10.85,10.854l97.659,0l-0,33.646c-0,15.192 -8.684,19.529 -17.363,19.529c-9.775,0 -14.117,4.342 -14.117,9.759c0,5.433 2.171,11.946 11.946,11.946l93.317,-0c5.417,-0 10.85,-4.342 10.85,-11.946c-0,-7.588 -6.508,-10.85 -11.946,-10.85c-5.417,-0 -17.358,-3.246 -17.358,-20.609l-0,-31.475l40.154,0c5.417,0 8.683,-4.341 8.683,-10.854c0,-6.508 -2.171,-10.85 -8.683,-10.85l-40.154,0" style="fill-rule:nonzero;"/></g><g><path d="M27482.1,1119.05c0,-7.604 -3.245,-8.683 -6.512,-8.683c-4.338,-0 -6.508,3.249 -7.588,6.512c-5.433,15.192 -17.358,34.721 -33.645,34.721c-2.167,-0 -4.338,-0 -6.509,-1.092l-16.266,-5.416c-10.85,-4.342 -36.892,-13.021 -58.596,-13.021c-7.604,-0 -14.113,1.075 -20.625,3.246c11.946,-20.609 68.371,-47.742 80.296,-50.992c39.062,-5.433 71.616,-28.208 71.616,-70.538c0,-26.041 -10.854,-43.4 -24.95,-56.42c-28.212,-22.78 -69.446,-26.042 -81.387,-26.042c-39.063,-0 -70.521,2.167 -98.734,34.721c-7.604,8.679 -10.85,17.362 -10.85,26.041c0,7.604 3.246,16.284 6.509,26.042c6.512,13.021 20.608,22.796 35.8,22.796c27.133,-0 30.383,-26.042 30.383,-37.988c0,-24.945 -27.121,-27.116 -27.121,-37.966c0,-7.604 10.85,-20.625 43.404,-20.625c50.988,-0 68.35,42.325 68.35,55.346c0,19.529 -6.508,37.966 -17.362,53.158c-19.529,24.967 -55.329,33.646 -82.463,51.008c-30.383,18.438 -50.991,49.913 -60.766,84.634c-0,7.587 3.266,16.27 9.775,19.533c1.079,1.075 3.246,1.075 4.341,1.075c11.925,-0 18.438,-33.629 50.988,-33.629c21.704,-0 29.308,29.291 78.125,29.291c22.796,0 65.104,-2.171 73.787,-85.712" style="fill-rule:nonzero;"/></g><g><path d="M28026,1165.66c0,0 -1.092,4.342 -1.092,7.588c0,4.341 4.342,8.683 8.68,8.683c3.266,0 5.433,-3.25 6.512,-4.341c1.092,-3.246 14.113,-47.746 20.625,-58.596c2.171,-4.338 4.338,-5.417 5.417,-5.417c2.171,0 3.262,4.342 3.262,7.588l0,155.175c0,13.02 -10.85,20.608 -21.7,20.608c-4.341,-0 -9.775,2.167 -9.775,8.679c0,6.508 5.434,8.679 14.113,8.679l91.146,0c8.683,0 8.683,-8.679 8.683,-8.679c-0,0 -0,-8.679 -8.683,-8.679c-7.605,-0 -17.359,-9.758 -17.359,-19.533l0,-225.696c0,-8.679 -3.266,-13.021 -10.85,-13.021c-7.604,-0 -14.116,2.171 -20.625,2.171c-10.854,-0 -13.021,-0 -21.704,-2.171c-4.337,-0 -9.754,6.512 -13.021,10.854l-33.629,116.108" style="fill-rule:nonzero;"/></g><g><path d="M1612.26,3505.02c96.562,-0 214.846,-88.975 214.846,-181.196c-0,-55.35 -43.404,-90.071 -105.263,-90.071c-119.358,0 -214.841,87.9 -214.841,181.217c-0,56.42 46.666,90.05 105.258,90.05" style="fill-rule:nonzero;"/></g><g><path d="M2326.01,3370.47c96.562,-0 214.846,-88.979 214.846,-181.2c-0,-55.346 -43.404,-90.071 -105.263,-90.071c-119.358,0 -214.841,87.9 -214.841,181.217c-0,56.425 46.666,90.054 105.258,90.054" style="fill-rule:nonzero;"/></g><g><path d="M3039.76,3235.92c96.579,-0 214.846,-88.975 214.846,-181.2c-0,-55.346 -43.404,-90.067 -105.246,-90.067c-119.354,0 -214.842,87.9 -214.842,181.213c0,56.425 46.65,90.054 105.242,90.054" style="fill-rule:nonzero;"/></g><g><path d="M3645.35,3014.57c-6.513,21.7 -57.517,43.404 -82.467,43.404c-6.508,-0 -11.942,-2.171 -13.021,-5.417c-2.171,-4.341 -3.262,-28.212 -3.262,-54.254c-0,-33.646 1.091,-71.617 3.262,-80.296c2.171,-18.454 52.083,-41.233 79.204,-41.233c7.604,-0 14.113,2.171 16.284,6.508c2.17,5.417 4.341,32.554 4.341,61.842c0,29.304 -2.171,59.687 -4.341,69.446m74.862,-176.859c7.604,-3.262 13.021,-11.945 13.021,-18.454l-0,-77.033c-0,-5.433 -3.25,-8.679 -7.588,-8.679c-2.17,-0 -3.266,-0 -5.433,1.075c0,-0 -21.704,8.683 -27.121,9.775c-7.604,-0 -15.191,-5.434 -15.191,-14.113l-0,-132.379c-0,-6.512 -6.509,-11.929 -15.188,-11.929c-10.854,-0 -17.362,5.417 -17.362,11.929l-0,141.058c-1.096,10.85 -4.342,24.967 -14.117,31.475c-13.021,7.588 -49.913,22.78 -68.35,27.117c-9.775,0 -13.021,-13.021 -13.021,-21.7l0,-130.208c0,-6.509 -7.604,-11.925 -15.192,-11.925c-10.85,-0 -17.358,5.416 -17.358,11.925l0,146.491c0,15.192 -6.512,26.042 -13.021,29.292c-6.512,3.263 -28.212,11.942 -28.212,11.942c-7.604,2.171 -13.021,10.85 -13.021,17.362l-0,77.029c-0,6.513 3.246,9.775 8.679,9.775c4.342,0 24.95,-9.775 28.213,-11.941c1.075,-0 2.17,-1.079 3.245,-1.079c7.605,-0 14.117,10.85 14.117,19.533l0,107.412c0,11.946 -5.433,21.7 -11.946,24.967c-6.508,2.167 -29.287,11.925 -29.287,11.925c-7.604,2.171 -13.021,10.85 -13.021,17.363l-0,77.045c-0,6.513 3.246,9.759 8.679,9.759c1.079,-0 3.246,-1.075 4.342,-1.075c-0,-0 15.191,-6.513 24.946,-9.775c1.095,-1.075 2.17,-1.075 3.266,-1.075c7.588,-0 13.021,11.925 13.021,17.358l0,133.454c0,6.513 6.508,11.946 14.096,11.946c10.85,0 18.454,-5.433 18.454,-11.946l0,-150.812c0,-14.117 5.417,-21.704 10.85,-23.875l66.183,-27.134c1.092,0 3.263,-1.075 4.338,-1.075c8.683,0 14.117,13.021 14.117,19.53l-0,135.624c-0,6.513 6.508,11.946 14.095,11.946c11.946,0 18.455,-5.433 18.455,-11.945l-0,-154.08c-0,-8.679 4.341,-21.7 11.929,-24.95c7.604,-3.262 30.383,-11.941 30.383,-11.941c7.604,-3.246 13.021,-11.93 13.021,-18.438l-0,-77.05c-0,-5.416 -3.25,-8.679 -7.588,-8.679c-2.17,0 -3.266,0 -5.433,1.092l-28.212,10.85c-6.513,-0 -14.1,-6.509 -14.1,-19.529l-0,-100.921c-0,-7.588 5.416,-28.213 14.1,-31.459l28.212,-10.85" style="fill-rule:nonzero;"/></g><g><path d="M3905.6,3101.37c96.579,-0 214.846,-88.975 214.846,-181.196c0,-55.35 -43.404,-90.071 -105.246,-90.071c-119.354,0 -214.841,87.9 -214.841,181.217c-0,56.421 46.65,90.05 105.241,90.05" style="fill-rule:nonzero;"/></g><g><path d="M4619.35,2966.83c96.563,0 214.846,-88.979 214.846,-181.2c0,-55.346 -43.404,-90.071 -105.262,-90.071c-119.354,0 -214.842,87.9 -214.842,181.217c0,56.425 46.667,90.054 105.258,90.054" style="fill-rule:nonzero;"/></g><g><path d="M5333.1,2832.28c96.584,0 214.846,-88.975 214.846,-181.2c0,-55.346 -43.404,-90.067 -105.241,-90.067c-119.359,0 -214.846,87.9 -214.846,181.213c-0,56.425 46.65,90.054 105.241,90.054" style="fill-rule:nonzero;"/></g><g><path d="M6046.89,2697.72c96.563,0 214.842,-88.975 214.842,-181.196c-0,-55.35 -43.404,-90.071 -105.259,-90.071c-119.358,0 -214.845,87.9 -214.845,181.217c-0,56.421 46.666,90.05 105.262,90.05" style="fill-rule:nonzero;"/></g><g><path d="M6760.64,2563.18c96.579,0 214.842,-88.979 214.842,-181.2c-0,-55.346 -43.404,-90.071 -105.242,-90.071c-119.358,0 -214.846,87.9 -214.846,181.217c0,56.425 46.65,90.054 105.246,90.054" style="fill-rule:nonzero;"/></g><g><path d="M7474.39,2428.63c96.563,0 214.842,-88.975 214.842,-181.2c-0,-55.346 -43.4,-90.066 -105.259,-90.066c-119.358,-0.001 -214.845,87.899 -214.845,181.212c-0,56.425 46.666,90.054 105.262,90.054" style="fill-rule:nonzero;"/></g><g><path d="M8188.14,2294.08c96.579,0 214.842,-88.975 214.842,-181.196c-0,-55.35 -43.4,-90.071 -105.242,-90.071c-119.358,0 -214.846,87.9 -214.846,181.217c0,56.421 46.65,90.05 105.246,90.05" style="fill-rule:nonzero;"/></g><g><path d="M8686.64,2072.72c-6.508,21.704 -57.517,43.404 -82.462,43.404c-6.513,0 -11.946,-2.171 -13.021,-5.416c-2.171,-4.342 -3.267,-28.213 -3.267,-54.255c0,-33.645 1.096,-71.612 3.267,-80.295c2.166,-18.455 52.083,-41.234 79.2,-41.234c7.604,0 14.112,2.171 16.283,6.513c2.171,5.416 4.342,32.55 4.342,61.841c-0,29.305 -2.171,59.688 -4.342,69.442m74.863,-176.858c7.604,-3.263 13.02,-11.942 13.02,-18.454l0,-77.03c0,-5.433 -3.245,-8.683 -7.587,-8.683c-2.171,0 -3.263,0 -5.433,1.079c-0,0 -21.7,8.679 -27.117,9.775c-7.604,0 -15.192,-5.437 -15.192,-14.116l0,-132.38c0,-6.508 -6.512,-11.925 -15.191,-11.925c-10.85,0 -17.363,5.417 -17.363,11.925l0,141.059c-1.092,10.854 -4.337,24.966 -14.112,31.479c-13.021,7.583 -49.913,22.775 -68.35,27.117c-9.775,-0 -13.021,-13.021 -13.021,-21.7l-0,-130.209c-0,-6.512 -7.604,-11.929 -15.192,-11.929c-10.85,0 -17.362,5.417 -17.362,11.929l-0,146.492c-0,15.192 -6.509,26.042 -13.021,29.287c-6.509,3.263 -28.213,11.946 -28.213,11.946c-7.604,2.171 -13.021,10.85 -13.021,17.359l0,77.033c0,6.508 3.246,9.775 8.684,9.775c4.337,-0 24.946,-9.775 28.208,-11.946c1.079,0 2.171,-1.075 3.25,-1.075c7.604,0 14.113,10.85 14.113,19.529l-0,107.413c-0,11.946 -5.434,21.704 -11.946,24.966c-6.509,2.171 -29.288,11.93 -29.288,11.93c-7.604,2.166 -13.021,10.85 -13.021,17.358l0,77.05c0,6.508 3.246,9.754 8.684,9.754c1.075,0 3.246,-1.075 4.337,-1.075c0,0 15.192,-6.508 24.95,-9.775c1.092,-1.075 2.171,-1.075 3.263,-1.075c7.587,0 13.021,11.929 13.021,17.363l-0,133.454c-0,6.508 6.512,11.946 14.095,11.946c10.855,-0 18.459,-5.438 18.459,-11.946l-0,-150.817c-0,-14.112 5.416,-21.7 10.85,-23.871l66.179,-27.137c1.096,-0 3.262,-1.075 4.342,-1.075c8.679,-0 14.112,13.021 14.112,19.533l0,135.625c0,6.508 6.513,11.942 14.1,11.942c11.942,-0 18.454,-5.434 18.454,-11.942l0,-154.083c0,-8.68 4.338,-21.7 11.925,-24.946c7.604,-3.263 30.384,-11.946 30.384,-11.946c7.604,-3.246 13.02,-11.925 13.02,-18.438l0,-77.045c0,-5.417 -3.245,-8.684 -7.587,-8.684c-2.171,0 -3.263,0 -5.433,1.096l-28.213,10.85c-6.508,0 -14.096,-6.512 -14.096,-19.533l0,-100.917c0,-7.587 5.417,-28.212 14.096,-31.458l28.213,-10.854" style="fill-rule:nonzero;"/></g><g><path d="M8946.89,2159.53c96.579,0 214.842,-88.979 214.842,-181.2c-0,-55.345 -43.404,-90.07 -105.242,-90.07c-119.358,-0 -214.846,87.9 -214.846,181.216c0,56.425 46.65,90.054 105.246,90.054" style="fill-rule:nonzero;"/></g><g><path d="M9660.64,2024.98c96.563,0 214.842,-88.975 214.842,-181.2c-0,-55.345 -43.4,-90.066 -105.259,-90.066c-119.358,-0 -214.845,87.9 -214.845,181.212c-0,56.425 46.666,90.054 105.262,90.054" style="fill-rule:nonzero;"/></g><g><path d="M10821.6,1890.43c96.563,0 214.846,-88.975 214.846,-181.196c0,-55.35 -43.404,-90.07 -105.262,-90.07c-119.359,-0 -214.842,87.9 -214.842,181.216c0,56.421 46.667,90.05 105.258,90.05" style="fill-rule:nonzero;"/></g><g><path d="M11535.4,1755.89c96.579,-0 214.846,-88.98 214.846,-181.2c-0,-55.346 -43.404,-90.071 -105.246,-90.071c-119.358,-0 -214.842,87.9 -214.842,181.216c0,56.425 46.65,90.055 105.242,90.055" style="fill-rule:nonzero;"/></g><g><path d="M12249.1,1621.34c96.563,-0 214.846,-88.975 214.846,-181.2c-0,-55.346 -43.404,-90.067 -105.263,-90.067c-119.358,-0 -214.841,87.9 -214.841,181.212c-0,56.425 46.666,90.055 105.258,90.055" style="fill-rule:nonzero;"/></g><g><path d="M12962.9,1486.79c96.579,-0 214.846,-88.975 214.846,-181.196c-0,-55.35 -43.404,-90.071 -105.246,-90.071c-119.354,-0 -214.842,87.9 -214.842,181.216c0,56.421 46.65,90.051 105.242,90.051" style="fill-rule:nonzero;"/></g><g><path d="M13676.6,1352.24c96.563,-0 214.846,-88.979 214.846,-181.2c-0,-55.346 -43.404,-90.071 -105.263,-90.071c-119.354,-0 -214.841,87.9 -214.841,181.217c-0,56.424 46.666,90.054 105.258,90.054" style="fill-rule:nonzero;"/></g><g><path d="M14282.3,1130.89c-6.508,21.7 -57.5,43.4 -82.462,43.4c-6.513,-0 -11.93,-2.171 -13.021,-5.417c-2.171,-4.338 -3.246,-28.213 -3.246,-54.254c-0,-33.646 1.075,-71.613 3.246,-80.292c2.171,-18.458 52.083,-41.233 79.216,-41.233c7.588,-0 14.1,2.17 16.267,6.508c2.171,5.417 4.342,32.554 4.342,61.842c-0,29.304 -2.171,59.687 -4.342,69.445m74.879,-176.858c7.588,-3.267 13.021,-11.946 13.021,-18.454l0,-77.033c0,-5.434 -3.262,-8.68 -7.604,-8.68c-2.171,0 -3.246,0 -5.417,1.075c0,0 -21.7,8.68 -27.133,9.775c-7.588,0 -15.192,-5.433 -15.192,-14.116l0,-132.375c0,-6.513 -6.512,-11.929 -15.191,-11.929c-10.85,-0 -17.363,5.416 -17.363,11.929l0,141.058c-1.075,10.85 -4.337,24.963 -14.096,31.475c-13.021,7.588 -49.912,22.779 -68.366,27.117c-9.759,-0 -13.021,-13.021 -13.021,-21.7l-0,-130.209c-0,-6.512 -7.588,-11.929 -15.192,-11.929c-10.85,0 -17.362,5.417 -17.362,11.929l-0,146.492c-0,15.192 -6.509,26.042 -13.021,29.288c-6.509,3.266 -28.213,11.945 -28.213,11.945c-7.583,2.171 -13.021,10.85 -13.021,17.363l0,77.029c0,6.513 3.267,9.775 8.684,9.775c4.337,0 24.962,-9.775 28.212,-11.946c1.092,0 2.167,-1.075 3.263,-1.075c7.587,0 14.096,10.85 14.096,19.534l-0,107.412c-0,11.942 -5.417,21.7 -11.925,24.963c-6.513,2.17 -29.309,11.929 -29.309,11.929c-7.583,2.171 -13.021,10.85 -13.021,17.362l0,77.046c0,6.513 3.267,9.758 8.684,9.758c1.091,0 3.262,-1.075 4.337,-1.075c0,0 15.192,-6.512 24.967,-9.775c1.075,-1.079 2.171,-1.079 3.246,-1.079c7.604,0 13.021,11.929 13.021,17.363l-0,133.454c-0,6.512 6.512,11.946 14.116,11.946c10.85,-0 18.438,-5.434 18.438,-11.946l-0,-150.817c-0,-14.112 5.433,-21.7 10.85,-23.871l66.196,-27.133c1.079,0 3.25,-1.079 4.341,-1.079c8.679,-0 14.096,13.021 14.096,19.533l0,135.625c0,6.509 6.513,11.946 14.117,11.946c11.925,0 18.437,-5.437 18.437,-11.946l0,-154.079c0,-8.683 4.342,-21.704 11.946,-24.95c7.583,-3.262 30.379,-11.942 30.379,-11.942c7.588,-3.25 13.021,-11.929 13.021,-18.437l0,-77.05c0,-5.417 -3.262,-8.679 -7.604,-8.679c-2.171,-0 -3.246,-0 -5.417,1.091l-28.212,10.85c-6.509,0 -14.113,-6.508 -14.113,-19.529l0,-100.921c0,-7.587 5.434,-28.212 14.113,-31.458l28.212,-10.85" style="fill-rule:nonzero;"/></g><g><path d="M14542.5,1217.69c96.563,-0 214.846,-88.975 214.846,-181.2c0,-55.346 -43.404,-90.067 -105.262,-90.067c-119.354,0 -214.842,87.9 -214.842,181.213c0,56.425 46.667,90.054 105.258,90.054" style="fill-rule:nonzero;"/></g><g><path d="M15256.2,1083.14c96.584,-0 214.846,-88.975 214.846,-181.196c0,-55.35 -43.404,-90.071 -105.241,-90.071c-119.359,0 -214.846,87.9 -214.846,181.217c-0,56.421 46.65,90.05 105.241,90.05" style="fill-rule:nonzero;"/></g><g><path d="M15969.9,948.596c96.562,-0 214.846,-88.979 214.846,-181.2c-0,-55.346 -43.405,-90.071 -105.263,-90.071c-119.358,0 -214.842,87.9 -214.842,181.217c0,56.425 46.667,90.054 105.259,90.054" style="fill-rule:nonzero;"/></g><g><path d="M16683.7,814.046c96.579,-0 214.841,-88.975 214.841,-181.2c0,-55.346 -43.4,-90.067 -105.241,-90.067c-119.359,0 -214.846,87.9 -214.846,181.213c-0,56.425 46.65,90.054 105.246,90.054" style="fill-rule:nonzero;"/></g><g><path d="M17397.6,679.496c96.562,-0 214.846,-88.975 214.846,-181.196c-0,-55.35 -43.405,-90.071 -105.263,-90.071c-119.358,0 -214.842,87.9 -214.842,181.217c0,56.421 46.667,90.05 105.259,90.05" style="fill-rule:nonzero;"/></g><g><path d="M18111.3,814.046c96.579,-0 214.842,-88.975 214.842,-181.2c-0,-55.346 -43.4,-90.067 -105.242,-90.067c-119.358,0 -214.846,87.9 -214.846,181.213c0,56.425 46.65,90.054 105.246,90.054" style="fill-rule:nonzero;"/></g><g><path d="M18825,948.596c96.563,-0 214.846,-88.979 214.846,-181.2c0,-55.346 -43.404,-90.071 -105.262,-90.071c-119.354,0 -214.842,87.9 -214.842,181.217c0,56.425 46.667,90.054 105.258,90.054" style="fill-rule:nonzero;"/></g><g><path d="M19985.8,1083.14c96.563,-0 214.842,-88.975 214.842,-181.196c-0,-55.35 -43.4,-90.071 -105.259,-90.071c-119.358,0 -214.845,87.9 -214.845,181.217c-0,56.421 46.666,90.05 105.262,90.05" style="fill-rule:nonzero;"/></g><g><path d="M20591.3,1130.89c-6.509,21.7 -57.517,43.4 -82.467,43.4c-6.508,-0 -11.942,-2.171 -13.021,-5.417c-2.166,-4.338 -3.262,-28.213 -3.262,-54.254c-0,-33.646 1.096,-71.613 3.262,-80.292c2.171,-18.458 52.084,-41.233 79.204,-41.233c7.605,-0 14.113,2.17 16.284,6.508c2.171,5.417 4.341,32.554 4.341,61.842c0,29.304 -2.17,59.687 -4.341,69.445m74.862,-176.858c7.604,-3.267 13.021,-11.946 13.021,-18.454l0,-77.033c0,-5.434 -3.246,-8.68 -7.587,-8.68c-2.171,0 -3.263,0 -5.434,1.075c0,0 -21.704,8.68 -27.121,9.775c-7.604,0 -15.187,-5.433 -15.187,-14.116l-0,-132.375c-0,-6.513 -6.513,-11.929 -15.192,-11.929c-10.85,-0 -17.362,5.416 -17.362,11.929l-0,141.058c-1.092,10.85 -4.342,24.963 -14.113,31.475c-13.021,7.588 -49.916,22.779 -68.354,27.117c-9.771,-0 -13.021,-13.021 -13.021,-21.7l0,-130.209c0,-6.512 -7.604,-11.929 -15.187,-11.929c-10.854,0 -17.363,5.417 -17.363,11.929l0,146.492c0,15.192 -6.512,26.042 -13.021,29.288c-6.512,3.266 -28.212,11.945 -28.212,11.945c-7.604,2.171 -13.021,10.85 -13.021,17.363l0,77.029c0,6.513 3.246,9.775 8.679,9.775c4.342,0 24.95,-9.775 28.213,-11.946c1.079,0 2.171,-1.075 3.246,-1.075c7.604,0 14.116,10.85 14.116,19.534l0,107.412c0,11.942 -5.433,21.7 -11.946,24.963c-6.508,2.17 -29.287,11.929 -29.287,11.929c-7.604,2.171 -13.021,10.85 -13.021,17.362l0,77.046c0,6.513 3.246,9.758 8.679,9.758c1.079,0 3.25,-1.075 4.342,-1.075c-0,0 15.192,-6.512 24.95,-9.775c1.092,-1.079 2.167,-1.079 3.262,-1.079c7.588,0 13.021,11.929 13.021,17.363l0,133.454c0,6.512 6.509,11.946 14.096,11.946c10.85,-0 18.454,-5.434 18.454,-11.946l0,-150.817c0,-14.112 5.417,-21.7 10.854,-23.871l66.18,-27.133c1.091,0 3.262,-1.079 4.341,-1.079c8.679,-0 14.113,13.021 14.113,19.533l-0,135.625c-0,6.509 6.512,11.946 14.096,11.946c11.945,0 18.458,-5.437 18.458,-11.946l-0,-154.079c-0,-8.683 4.337,-21.704 11.925,-24.95c7.604,-3.262 30.383,-11.942 30.383,-11.942c7.604,-3.25 13.021,-11.929 13.021,-18.437l0,-77.05c0,-5.417 -3.246,-8.679 -7.587,-8.679c-2.171,-0 -3.263,-0 -5.434,1.091l-28.212,10.85c-6.513,0 -14.096,-6.508 -14.096,-19.529l-0,-100.921c-0,-7.587 5.417,-28.212 14.096,-31.458l28.212,-10.85" style="fill-rule:nonzero;"/></g><g><path d="M20851.6,1217.69c96.562,-0 214.846,-88.975 214.846,-181.2c-0,-55.346 -43.405,-90.067 -105.263,-90.067c-119.354,0 -214.842,87.9 -214.842,181.213c0,56.425 46.667,90.054 105.259,90.054" style="fill-rule:nonzero;"/></g><g><path d="M21565.3,1352.24c96.579,-0 214.846,-88.979 214.846,-181.2c-0,-55.346 -43.404,-90.071 -105.246,-90.071c-119.358,-0 -214.842,87.9 -214.842,181.217c0,56.424 46.65,90.054 105.242,90.054" style="fill-rule:nonzero;"/></g><g><path d="M22279,1486.79c96.563,-0 214.842,-88.975 214.842,-181.196c0,-55.35 -43.4,-90.071 -105.258,-90.071c-119.359,-0 -214.846,87.9 -214.846,181.216c-0,56.421 46.667,90.051 105.262,90.051" style="fill-rule:nonzero;"/></g><g><path d="M22992.8,1621.34c96.58,-0 214.846,-88.975 214.846,-181.2c0,-55.346 -43.404,-90.067 -105.246,-90.067c-119.358,-0 -214.841,87.9 -214.841,181.212c-0,56.425 46.65,90.055 105.241,90.055" style="fill-rule:nonzero;"/></g><g><path d="M23706.6,1755.89c96.563,-0 214.842,-88.98 214.842,-181.2c0,-55.346 -43.4,-90.071 -105.258,-90.071c-119.359,-0 -214.846,87.9 -214.846,181.216c-0,56.425 46.667,90.055 105.262,90.055" style="fill-rule:nonzero;"/></g><g><path d="M24420.3,1890.43c96.583,0 214.846,-88.975 214.846,-181.196c-0,-55.35 -43.405,-90.07 -105.242,-90.07c-119.358,-0 -214.846,87.9 -214.846,181.216c0,56.421 46.65,90.05 105.242,90.05" style="fill-rule:nonzero;"/></g><g><path d="M25134,2024.98c96.563,0 214.846,-88.975 214.846,-181.2c-0,-55.345 -43.404,-90.066 -105.263,-90.066c-119.358,-0 -214.841,87.9 -214.841,181.212c-0,56.425 46.666,90.054 105.258,90.054" style="fill-rule:nonzero;"/></g><g><path d="M25631.9,2072.72c-6.509,21.704 -57.517,43.404 -82.467,43.404c-6.508,0 -11.942,-2.171 -13.021,-5.416c-2.166,-4.342 -3.262,-28.213 -3.262,-54.255c-0,-33.645 1.096,-71.612 3.262,-80.295c2.171,-18.455 52.084,-41.234 79.204,-41.234c7.605,0 14.113,2.171 16.284,6.513c2.171,5.416 4.341,32.55 4.341,61.841c0,29.305 -2.17,59.688 -4.341,69.442m74.862,-176.858c7.604,-3.263 13.021,-11.942 13.021,-18.454l0,-77.03c0,-5.433 -3.246,-8.683 -7.587,-8.683c-2.171,0 -3.263,0 -5.434,1.079c0,0 -21.704,8.679 -27.121,9.775c-7.604,0 -15.187,-5.437 -15.187,-14.116l-0,-132.38c-0,-6.508 -6.513,-11.925 -15.192,-11.925c-10.85,0 -17.362,5.417 -17.362,11.925l-0,141.059c-1.092,10.854 -4.342,24.966 -14.113,31.479c-13.021,7.583 -49.916,22.775 -68.354,27.117c-9.771,-0 -13.021,-13.021 -13.021,-21.7l0,-130.209c0,-6.512 -7.604,-11.929 -15.187,-11.929c-10.854,0 -17.363,5.417 -17.363,11.929l0,146.492c0,15.192 -6.512,26.042 -13.021,29.287c-6.512,3.263 -28.212,11.946 -28.212,11.946c-7.604,2.171 -13.021,10.85 -13.021,17.359l0,77.033c0,6.508 3.246,9.775 8.679,9.775c4.342,-0 24.95,-9.775 28.213,-11.946c1.079,0 2.171,-1.075 3.246,-1.075c7.604,0 14.116,10.85 14.116,19.529l0,107.413c0,11.946 -5.433,21.704 -11.946,24.966c-6.508,2.171 -29.287,11.93 -29.287,11.93c-7.604,2.166 -13.021,10.85 -13.021,17.358l0,77.05c0,6.508 3.246,9.754 8.679,9.754c1.079,0 3.25,-1.075 4.342,-1.075c-0,0 15.192,-6.508 24.95,-9.775c1.092,-1.075 2.167,-1.075 3.262,-1.075c7.588,0 13.021,11.929 13.021,17.363l0,133.454c0,6.508 6.509,11.946 14.096,11.946c10.85,-0 18.454,-5.438 18.454,-11.946l0,-150.817c0,-14.112 5.417,-21.7 10.854,-23.871l66.18,-27.137c1.091,-0 3.262,-1.075 4.341,-1.075c8.679,-0 14.113,13.021 14.113,19.533l-0,135.625c-0,6.508 6.512,11.942 14.096,11.942c11.945,-0 18.458,-5.434 18.458,-11.942l-0,-154.083c-0,-8.68 4.337,-21.7 11.925,-24.946c7.604,-3.263 30.383,-11.946 30.383,-11.946c7.604,-3.246 13.021,-11.925 13.021,-18.438l0,-77.045c0,-5.417 -3.246,-8.684 -7.587,-8.684c-2.171,0 -3.263,0 -5.434,1.096l-28.212,10.85c-6.513,0 -14.096,-6.512 -14.096,-19.533l-0,-100.917c-0,-7.587 5.417,-28.212 14.096,-31.458l28.212,-10.854" style="fill-rule:nonzero;"/></g><g><path d="M25892.2,2159.53c96.583,0 214.846,-88.979 214.846,-181.2c-0,-55.345 -43.405,-90.07 -105.242,-90.07c-119.358,-0 -214.846,87.9 -214.846,181.216c0,56.425 46.65,90.054 105.242,90.054" style="fill-rule:nonzero;"/></g><g><path d="M26605.9,2294.08c96.563,0 214.846,-88.975 214.846,-181.196c-0,-55.35 -43.404,-90.071 -105.263,-90.071c-119.358,0 -214.841,87.9 -214.841,181.217c-0,56.421 46.666,90.05 105.258,90.05" style="fill-rule:nonzero;"/></g><g><path d="M27319.8,2428.63c96.583,0 214.846,-88.975 214.846,-181.2c-0,-55.346 -43.404,-90.066 -105.242,-90.066c-119.358,-0.001 -214.846,87.899 -214.846,181.212c0,56.425 46.65,90.054 105.242,90.054" style="fill-rule:nonzero;"/></g><g><path d="M28033.5,2563.18c96.563,0 214.846,-88.979 214.846,-181.2c0,-55.346 -43.404,-90.071 -105.262,-90.071c-119.359,0 -214.842,87.9 -214.842,181.217c0,56.425 46.667,90.054 105.258,90.054" style="fill-rule:nonzero;"/></g><g><path d="M565.491,2143.26c3.246,20.608 3.246,19.533 -16.283,26.041c-95.488,32.554 -157.346,118.267 -157.346,210.504c-0,97.659 51.008,167.1 124.792,192.05c8.683,3.263 21.704,6.509 29.291,6.509c8.679,-0 13.021,-5.417 13.021,-11.925c0,-7.604 -8.683,-10.85 -16.271,-14.117c-45.571,-19.529 -78.125,-66.179 -78.125,-116.092c0,-61.858 42.313,-108.508 108.509,-126.962c17.362,-4.342 19.533,-3.246 21.7,8.679l54.254,323.354c2.171,11.942 1.079,11.942 -15.192,15.188c-17.358,3.266 -39.062,5.437 -60.762,5.437c-189.896,0 -312.5,-105.262 -312.5,-256.079c-0,-64.025 10.85,-149.737 100.904,-251.737c65.104,-72.705 115.016,-112.846 166.025,-154.08c10.85,-8.679 13.021,-7.604 15.187,4.342l22.779,138.888m118.284,-738.938c35.796,0 65.104,29.304 65.104,88.975c-0,120.45 -103.092,218.108 -188.804,292.967c-7.604,6.512 -11.946,5.433 -14.113,-8.679c-4.341,-28.213 -6.512,-65.105 -6.512,-99.825c-0,-169.271 78.125,-273.438 144.325,-273.438m-43.404,911.458c-2.171,-13.02 -1.096,-16.27 11.925,-15.191c87.9,7.604 160.591,81.387 160.591,176.875c0,68.35 -41.233,123.696 -101.996,154.079c-13.02,6.508 -15.191,6.508 -17.362,-6.513l-53.158,-309.254m-58.596,-338.537c-2.167,-13.021 -0,-14.1 6.512,-20.609c117.188,-109.6 206.163,-247.396 206.163,-413.42c-0,-94.392 -26.042,-187.709 -70.538,-252.813c-16.266,-23.871 -44.479,-54.254 -56.425,-54.254c-15.191,-0 -48.816,28.212 -70.521,52.083c-80.295,88.975 -106.337,224.6 -106.337,337.45c-0,62.933 7.587,133.471 15.192,177.95c2.17,13.021 3.245,15.192 -9.775,26.042c-156.25,129.133 -322.255,284.287 -322.255,503.471c0,188.804 129.113,367.85 394.963,367.85c24.95,-0 53.162,-2.171 74.862,-6.513c11.946,-2.171 14.117,-3.262 16.284,9.758c13.021,72.709 29.291,167.101 29.291,218.109c0,160.587 -108.508,180.121 -172.52,180.121c-58.592,-0 -86.805,-17.363 -86.805,-31.475c0,-7.588 9.759,-10.854 34.721,-18.438c33.629,-9.775 72.692,-39.062 72.692,-102c-0,-59.687 -37.967,-110.675 -104.167,-110.675c-72.691,0 -116.091,57.5 -116.091,124.775c-0,70.538 42.308,176.875 206.162,176.875c72.692,0 213.75,-32.554 213.75,-217.016c0,-61.859 -19.533,-164.93 -31.458,-232.205c-2.171,-13.02 -1.096,-11.945 14.096,-18.454c109.6,-43.404 182.291,-135.625 182.291,-258.246c0,-138.891 -101.996,-261.495 -261.491,-261.495c-28.213,-0 -28.213,-0 -31.475,-19.53l-27.121,-157.341" style="fill-rule:nonzero;"/></g><g><path d="M2352.72,3638.22c-14.106,-0 -21.702,6.51 -21.702,16.276c0,9.765 7.596,16.276 21.702,16.276l10.85,-0c40.148,-0 59.679,23.871 59.679,58.593c0,47.744 -33.637,113.933 -99.826,113.933c-21.702,-0 -39.063,-8.681 -39.063,-19.531c0,-6.511 5.425,-8.681 14.106,-13.021c11.936,-5.426 27.127,-18.446 27.127,-46.658c-0,-26.042 -18.446,-39.063 -41.233,-39.063c-30.382,0 -53.168,27.127 -53.168,62.934c-0,43.403 34.722,83.551 111.762,83.551c92.231,-0 168.186,-55.339 168.186,-141.059c-0,-27.127 -14.106,-53.169 -42.318,-67.275c-7.595,-3.255 -11.936,-4.34 -11.936,-9.766c0,-3.255 4.341,-5.425 13.021,-9.765c45.573,-18.446 82.466,-53.169 82.466,-96.571c-0,-56.424 -54.254,-91.146 -120.443,-91.146c-68.36,-0 -124.783,35.807 -126.954,94.401c-1.085,28.212 16.276,46.658 41.233,46.658c27.127,-0 48.828,-21.702 48.828,-50.999c0,-11.935 -4.34,-20.616 -9.765,-27.126c-7.596,-6.511 -13.021,-10.851 -13.021,-14.106c-0,-7.596 13.021,-15.191 35.807,-15.191c42.318,-0 56.424,26.042 56.424,49.913c-0,57.509 -36.893,98.742 -99.827,98.742l-11.935,-0Z" style="fill-rule:nonzero;"/></g><g><path d="M4646.06,3234.57c-14.106,-0 -21.701,6.51 -21.701,16.276c-0,9.765 7.595,16.276 21.701,16.276l10.851,-0c40.148,-0 59.679,23.871 59.679,58.594c-0,47.743 -33.637,113.932 -99.827,113.932c-21.701,0 -39.062,-8.681 -39.062,-19.531c-0,-6.511 5.425,-8.681 14.106,-13.021c11.936,-5.425 27.127,-18.446 27.127,-46.658c-0,-26.042 -18.447,-39.063 -41.233,-39.063c-30.382,0 -53.169,27.127 -53.169,62.934c0,43.403 34.723,83.551 111.763,83.551c92.231,-0 168.186,-55.339 168.186,-141.059c-0,-27.127 -14.106,-53.169 -42.318,-67.275c-7.596,-3.255 -11.936,-4.34 -11.936,-9.765c0,-3.256 4.34,-5.426 13.021,-9.766c45.573,-18.446 82.465,-53.168 82.465,-96.571c0,-56.424 -54.253,-91.146 -120.442,-91.146c-68.36,-0 -124.784,35.807 -126.954,94.401c-1.085,28.212 16.276,46.658 41.233,46.658c27.127,-0 48.828,-21.701 48.828,-50.998c0,-11.936 -4.34,-20.617 -9.766,-27.127c-7.595,-6.511 -13.02,-10.851 -13.02,-14.106c-0,-7.596 13.02,-15.191 35.807,-15.191c42.318,-0 56.424,26.042 56.424,49.913c-0,57.509 -36.893,98.742 -99.827,98.742l-11.936,-0Z" style="fill-rule:nonzero;"/></g><g><path d="M6787.31,2946.19c-14.106,0 -21.701,6.511 -21.701,16.276c-0,9.766 7.595,16.276 21.701,16.276l10.851,0c40.148,0 59.679,23.872 59.679,58.594c-0,47.743 -33.637,113.933 -99.827,113.933c-21.701,-0 -39.062,-8.681 -39.062,-19.532c-0,-6.51 5.425,-8.68 14.106,-13.02c11.936,-5.426 27.127,-18.447 27.127,-46.658c-0,-26.042 -18.447,-39.063 -41.233,-39.063c-30.382,0 -53.169,27.127 -53.169,62.934c0,43.403 34.723,83.551 111.763,83.551c92.231,-0 168.186,-55.339 168.186,-141.06c-0,-27.126 -14.106,-53.168 -42.318,-67.274c-7.596,-3.255 -11.936,-4.34 -11.936,-9.766c0,-3.255 4.34,-5.425 13.021,-9.765c45.573,-18.447 82.465,-53.169 82.465,-96.572c0,-56.423 -54.253,-91.146 -120.442,-91.146c-68.36,0 -124.784,35.808 -126.954,94.402c-1.085,28.211 16.276,46.658 41.233,46.658c27.127,-0 48.828,-21.702 48.828,-50.999c0,-11.935 -4.34,-20.616 -9.766,-27.126c-7.595,-6.511 -13.02,-10.851 -13.02,-14.106c-0,-7.596 13.02,-15.191 35.807,-15.191c42.318,-0 56.424,26.041 56.424,49.913c-0,57.509 -36.893,98.741 -99.827,98.741l-11.936,0Z" style="fill-rule:nonzero;"/></g><g><path d="M8791.06,3205.18c-14.106,0 -21.701,6.51 -21.701,16.276c-0,9.766 7.595,16.276 21.701,16.276l10.851,0c40.148,0 59.679,23.872 59.679,58.594c-0,47.743 -33.637,113.932 -99.827,113.932c-21.701,0 -39.062,-8.68 -39.062,-19.531c-0,-6.51 5.425,-8.68 14.106,-13.021c11.936,-5.425 27.127,-18.446 27.127,-46.658c-0,-26.041 -18.447,-39.062 -41.233,-39.062c-30.382,-0 -53.169,27.126 -53.169,62.934c0,43.403 34.723,83.55 111.763,83.55c92.231,0 168.186,-55.338 168.186,-141.059c-0,-27.127 -14.106,-53.168 -42.318,-67.274c-7.596,-3.256 -11.936,-4.341 -11.936,-9.766c0,-3.255 4.34,-5.425 13.021,-9.766c45.573,-18.446 82.465,-53.168 82.465,-96.571c0,-56.424 -54.253,-91.146 -120.442,-91.146c-68.36,0 -124.784,35.807 -126.954,94.401c-1.085,28.212 16.276,46.658 41.233,46.658c27.127,0 48.828,-21.701 48.828,-50.998c0,-11.936 -4.34,-20.616 -9.766,-27.127c-7.595,-6.51 -13.02,-10.85 -13.02,-14.106c-0,-7.595 13.02,-15.191 35.807,-15.191c42.318,0 56.424,26.042 56.424,49.914c-0,57.508 -36.893,98.741 -99.827,98.741l-11.936,0Z" style="fill-rule:nonzero;"/></g><g><path d="M11402.1,2946.21c-14.106,0 -21.701,6.51 -21.701,16.276c-0,9.766 7.595,16.276 21.701,16.276l10.851,0c40.148,0 59.679,23.872 59.679,58.594c-0,47.743 -33.637,113.932 -99.827,113.932c-21.701,0 -39.062,-8.68 -39.062,-19.531c-0,-6.51 5.425,-8.68 14.106,-13.021c11.936,-5.425 27.127,-18.446 27.127,-46.658c-0,-26.041 -18.447,-39.062 -41.233,-39.062c-30.382,-0 -53.169,27.126 -53.169,62.934c0,43.403 34.723,83.55 111.763,83.55c92.231,0 168.186,-55.338 168.186,-141.059c-0,-27.127 -14.106,-53.168 -42.318,-67.274c-7.596,-3.256 -11.936,-4.341 -11.936,-9.766c0,-3.255 4.34,-5.425 13.021,-9.766c45.573,-18.446 82.465,-53.168 82.465,-96.571c0,-56.424 -54.253,-91.146 -120.442,-91.146c-68.36,0 -124.784,35.807 -126.954,94.401c-1.085,28.212 16.276,46.658 41.233,46.658c27.127,0 48.828,-21.701 48.828,-50.998c0,-11.936 -4.34,-20.616 -9.766,-27.127c-7.595,-6.51 -13.02,-10.85 -13.02,-14.106c-0,-7.595 13.02,-15.191 35.807,-15.191c42.318,0 56.424,26.042 56.424,49.914c-0,57.508 -36.893,98.741 -99.827,98.741l-11.936,0Z" style="fill-rule:nonzero;"/></g><g><path d="M13619.4,2946.21c-14.106,0 -21.701,6.51 -21.701,16.276c-0,9.766 7.595,16.276 21.701,16.276l10.851,0c40.148,0 59.679,23.872 59.679,58.594c-0,47.743 -33.637,113.932 -99.827,113.932c-21.701,0 -39.062,-8.68 -39.062,-19.531c-0,-6.51 5.425,-8.68 14.106,-13.021c11.936,-5.425 27.127,-18.446 27.127,-46.658c-0,-26.041 -18.447,-39.062 -41.233,-39.062c-30.382,-0 -53.169,27.126 -53.169,62.934c0,43.403 34.723,83.55 111.763,83.55c92.231,0 168.186,-55.338 168.186,-141.059c-0,-27.127 -14.106,-53.168 -42.318,-67.274c-7.596,-3.256 -11.936,-4.341 -11.936,-9.766c0,-3.255 4.34,-5.425 13.021,-9.766c45.573,-18.446 82.465,-53.168 82.465,-96.571c0,-56.424 -54.253,-91.146 -120.442,-91.146c-68.36,0 -124.784,35.807 -126.954,94.401c-1.085,28.212 16.276,46.658 41.233,46.658c27.127,0 48.828,-21.701 48.828,-50.998c0,-11.936 -4.34,-20.616 -9.766,-27.127c-7.595,-6.51 -13.02,-10.85 -13.02,-14.106c-0,-7.595 13.02,-15.191 35.807,-15.191c42.318,0 56.424,26.042 56.424,49.914c-0,57.508 -36.893,98.741 -99.827,98.741l-11.936,0Z" style="fill-rule:nonzero;"/></g><g><path d="M15836.7,2946.21c-14.106,0 -21.701,6.51 -21.701,16.276c-0,9.766 7.595,16.276 21.701,16.276l10.851,0c40.148,0 59.679,23.872 59.679,58.594c-0,47.743 -33.637,113.932 -99.827,113.932c-21.701,0 -39.062,-8.68 -39.062,-19.531c-0,-6.51 5.425,-8.68 14.106,-13.021c11.936,-5.425 27.127,-18.446 27.127,-46.658c-0,-26.041 -18.447,-39.062 -41.233,-39.062c-30.382,-0 -53.169,27.126 -53.169,62.934c0,43.403 34.723,83.55 111.763,83.55c92.231,0 168.186,-55.338 168.186,-141.059c-0,-27.127 -14.106,-53.168 -42.318,-67.274c-7.596,-3.256 -11.936,-4.341 -11.936,-9.766c0,-3.255 4.34,-5.425 13.021,-9.766c45.573,-18.446 82.465,-53.168 82.465,-96.571c0,-56.424 -54.253,-91.146 -120.442,-91.146c-68.36,0 -124.784,35.807 -126.954,94.401c-1.085,28.212 16.276,46.658 41.233,46.658c27.127,0 48.828,-21.701 48.828,-50.998c0,-11.936 -4.34,-20.616 -9.766,-27.127c-7.595,-6.51 -13.02,-10.85 -13.02,-14.106c-0,-7.595 13.02,-15.191 35.807,-15.191c42.318,0 56.424,26.042 56.424,49.914c-0,57.508 -36.893,98.741 -99.827,98.741l-11.936,0Z" style="fill-rule:nonzero;"/></g><g><path d="M17978,2946.21c-14.106,0 -21.702,6.51 -21.702,16.276c0,9.766 7.596,16.276 21.702,16.276l10.85,0c40.148,0 59.679,23.872 59.679,58.594c0,47.743 -33.637,113.932 -99.826,113.932c-21.702,0 -39.063,-8.68 -39.063,-19.531c0,-6.51 5.426,-8.68 14.106,-13.021c11.936,-5.425 27.127,-18.446 27.127,-46.658c-0,-26.041 -18.446,-39.062 -41.233,-39.062c-30.382,-0 -53.168,27.126 -53.168,62.934c-0,43.403 34.722,83.55 111.762,83.55c92.231,0 168.186,-55.338 168.186,-141.059c0,-27.127 -14.106,-53.168 -42.318,-67.274c-7.595,-3.256 -11.936,-4.341 -11.936,-9.766c0,-3.255 4.341,-5.425 13.021,-9.766c45.573,-18.446 82.466,-53.168 82.466,-96.571c-0,-56.424 -54.254,-91.146 -120.443,-91.146c-68.36,0 -124.783,35.807 -126.953,94.401c-1.086,28.212 16.276,46.658 41.232,46.658c27.127,0 48.828,-21.701 48.828,-50.998c0,-11.936 -4.34,-20.616 -9.765,-27.127c-7.596,-6.51 -13.021,-10.85 -13.021,-14.106c-0,-7.595 13.021,-15.191 35.807,-15.191c42.318,0 56.424,26.042 56.424,49.914c-0,57.508 -36.892,98.741 -99.827,98.741l-11.935,0Z" style="fill-rule:nonzero;"/></g><g><path d="M20642.1,2946.21c-14.106,0 -21.701,6.51 -21.701,16.276c-0,9.766 7.595,16.276 21.701,16.276l10.851,0c40.147,0 59.679,23.872 59.679,58.594c-0,47.743 -33.638,113.932 -99.827,113.932c-21.701,0 -39.062,-8.68 -39.062,-19.531c-0,-6.51 5.425,-8.68 14.105,-13.021c11.936,-5.425 27.127,-18.446 27.127,-46.658c0,-26.041 -18.446,-39.062 -41.232,-39.062c-30.382,-0 -53.169,27.126 -53.169,62.934c0,43.403 34.722,83.55 111.762,83.55c92.231,0 168.186,-55.338 168.186,-141.059c0,-27.127 -14.106,-53.168 -42.317,-67.274c-7.596,-3.256 -11.936,-4.341 -11.936,-9.766c-0,-3.255 4.34,-5.425 13.021,-9.766c45.573,-18.446 82.465,-53.168 82.465,-96.571c0,-56.424 -54.254,-91.146 -120.443,-91.146c-68.359,0 -124.783,35.807 -126.953,94.401c-1.085,28.212 16.276,46.658 41.233,46.658c27.126,0 48.828,-21.701 48.828,-50.998c-0,-11.936 -4.341,-20.616 -9.766,-27.127c-7.595,-6.51 -13.021,-10.85 -13.021,-14.106c0,-7.595 13.021,-15.191 35.808,-15.191c42.317,0 56.423,26.042 56.423,49.914c0,57.508 -36.892,98.741 -99.826,98.741l-11.936,0Z" style="fill-rule:nonzero;"/></g><g><path d="M22859.4,2946.21c-14.106,0 -21.701,6.51 -21.701,16.276c-0,9.766 7.595,16.276 21.701,16.276l10.851,0c40.148,0 59.679,23.872 59.679,58.594c-0,47.743 -33.637,113.932 -99.827,113.932c-21.701,0 -39.062,-8.68 -39.062,-19.531c-0,-6.51 5.425,-8.68 14.106,-13.021c11.936,-5.425 27.127,-18.446 27.127,-46.658c-0,-26.041 -18.447,-39.062 -41.233,-39.062c-30.382,-0 -53.169,27.126 -53.169,62.934c0,43.403 34.723,83.55 111.763,83.55c92.231,0 168.186,-55.338 168.186,-141.059c-0,-27.127 -14.106,-53.168 -42.318,-67.274c-7.596,-3.256 -11.936,-4.341 -11.936,-9.766c0,-3.255 4.34,-5.425 13.021,-9.766c45.573,-18.446 82.465,-53.168 82.465,-96.571c0,-56.424 -54.253,-91.146 -120.442,-91.146c-68.36,0 -124.784,35.807 -126.954,94.401c-1.085,28.212 16.276,46.658 41.233,46.658c27.127,0 48.828,-21.701 48.828,-50.998c0,-11.936 -4.34,-20.616 -9.766,-27.127c-7.595,-6.51 -13.02,-10.85 -13.02,-14.106c-0,-7.595 13.02,-15.191 35.807,-15.191c42.318,0 56.424,26.042 56.424,49.914c-0,57.508 -36.893,98.741 -99.827,98.741l-11.936,0Z" style="fill-rule:nonzero;"/></g><g><path d="M25023,3110.7c-14.106,-0 -21.701,6.51 -21.701,16.276c-0,9.766 7.595,16.276 21.701,16.276l10.851,-0c40.147,-0 59.679,23.872 59.679,58.594c-0,47.743 -33.638,113.932 -99.827,113.932c-21.701,0 -39.062,-8.68 -39.062,-19.531c-0,-6.51 5.425,-8.681 14.105,-13.021c11.936,-5.425 27.127,-18.446 27.127,-46.658c0,-26.042 -18.446,-39.062 -41.232,-39.062c-30.382,-0 -53.169,27.126 -53.169,62.934c0,43.402 34.722,83.55 111.762,83.55c92.231,0 168.186,-55.339 168.186,-141.059c0,-27.127 -14.106,-53.169 -42.317,-67.275c-7.596,-3.255 -11.936,-4.34 -11.936,-9.765c-0,-3.255 4.34,-5.426 13.021,-9.766c45.573,-18.446 82.465,-53.168 82.465,-96.571c0,-56.424 -54.254,-91.146 -120.443,-91.146c-68.359,-0 -124.783,35.807 -126.953,94.401c-1.085,28.212 16.276,46.658 41.233,46.658c27.126,0 48.828,-21.701 48.828,-50.998c-0,-11.936 -4.341,-20.617 -9.766,-27.127c-7.595,-6.51 -13.021,-10.851 -13.021,-14.106c0,-7.595 13.021,-15.191 35.808,-15.191c42.317,0 56.423,26.042 56.423,49.913c0,57.509 -36.892,98.742 -99.826,98.742l-11.936,-0Z" style="fill-rule:nonzero;"/></g><g><path d="M27346.4,2946.21c-14.106,0 -21.701,6.51 -21.701,16.276c-0,9.766 7.595,16.276 21.701,16.276l10.851,0c40.148,0 59.679,23.872 59.679,58.594c-0,47.743 -33.637,113.932 -99.827,113.932c-21.701,0 -39.062,-8.68 -39.062,-19.531c-0,-6.51 5.425,-8.68 14.106,-13.021c11.936,-5.425 27.127,-18.446 27.127,-46.658c-0,-26.041 -18.447,-39.062 -41.233,-39.062c-30.382,-0 -53.169,27.126 -53.169,62.934c0,43.403 34.723,83.55 111.763,83.55c92.231,0 168.186,-55.338 168.186,-141.059c-0,-27.127 -14.106,-53.168 -42.318,-67.274c-7.596,-3.256 -11.936,-4.341 -11.936,-9.766c0,-3.255 4.34,-5.425 13.021,-9.766c45.573,-18.446 82.465,-53.168 82.465,-96.571c0,-56.424 -54.253,-91.146 -120.442,-91.146c-68.36,0 -124.784,35.807 -126.954,94.401c-1.085,28.212 16.276,46.658 41.233,46.658c27.127,0 48.828,-21.701 48.828,-50.998c0,-11.936 -4.34,-20.616 -9.766,-27.127c-7.595,-6.51 -13.02,-10.85 -13.02,-14.106c-0,-7.595 13.02,-15.191 35.807,-15.191c42.318,0 56.424,26.042 56.424,49.914c-0,57.508 -36.893,98.741 -99.827,98.741l-11.936,0Z" style="fill-rule:nonzero;"/></g><g><path d="M1794.87,2293l0,-135.158l1459.43,-134.546l0,135.154l-1459.43,134.55" style="fill-rule:nonzero;"/></g><g><path d="M4088.17,2023.91l0,-135.158l1459.97,-134.55l-0,135.158l-1459.97,134.546" style="fill-rule:nonzero;"/></g><g><path d="M6229.56,1754.81l-0,-136.941l1459.41,-269.084l0,136.93l-1459.43,269.095" style="fill-rule:nonzero;"/></g><g><path d="M8082.85,3034.25l0,-135.783l1504.98,-201.821l-0,135.779l-1505,201.825" style="fill-rule:nonzero;"/></g><g><path d="M10716.3,2766.3l-0,-136.929l1459.97,-269.096l0,136.925l-1459.97,269.1" style="fill-rule:nonzero;"/></g><g><path d="M12857.7,2293.49l-0,-135.038l1611.86,-134.546l0,135.034l-1611.86,134.55" style="fill-rule:nonzero;"/></g><g><path d="M15151,2225.89l0,-134.709l1459.95,-67.275l0,134.709l-1459.95,67.27" style="fill-rule:nonzero;"/></g><g><path d="M17292.3,2159.05l0,-135.142l1459.97,134.55l0,135.138l-1459.97,-134.546" style="fill-rule:nonzero;"/></g><g><path d="M19880.2,2158.94l-0,-135.034l1611.86,134.546l0,135.038l-1611.86,-134.55" style="fill-rule:nonzero;"/></g><g><path d="M22173.6,2428.14l-0.016,-135.138l1459.97,134.55l0,135.138l-1459.97,-134.55" style="fill-rule:nonzero;"/></g><g><path d="M24314.9,2698.87l-0,-136.771l1504.46,269.096l0,136.771l-1504.46,-269.096" style="fill-rule:nonzero;"/></g><g><path d="M26788.3,1418.44l0,-135.905l1459.96,201.825l-0,135.904l-1459.96,-201.824" style="fill-rule:nonzero;"/></g><g><path d="M1418.36,3834.45l669.479,-117.675l-0,-43.783l-626.633,110.137l-0,-150.504l-42.863,-0" style="fill-rule:nonzero;"/></g><g><path d="M3275.99,3505.02l-602.221,105.47l0,-43.787l559.359,-101.563l-0,-161.941l42.862,-0" style="fill-rule:nonzero;"/></g><g><path d="M3711.64,3430.8l669.496,-117.675l-0,-43.783l-626.629,110.137l-0,-150.504l-42.867,0" style="fill-rule:nonzero;"/></g><g><path d="M5569.27,3101.37l-602.208,105.471l-0,-43.788l559.358,-101.562l0,-161.942l42.85,-0" style="fill-rule:nonzero;"/></g><g><path d="M5853.02,2972.26l667.325,-0.437l0,-43.088l-624.462,0.434l-0,-158.734l-42.863,0" style="fill-rule:nonzero;"/></g><g><path d="M7710.68,2970.95l-600.034,0.434l0,-43.088l557.167,-0.383l0,-158.784l42.867,0" style="fill-rule:nonzero;"/></g><g><path d="M26411.8,2971.6l667.846,-0l-0,-43.021l-624.463,0l0,-158.8l-43.4,0" style="fill-rule:nonzero;"/></g><g><path d="M28269.9,2971.6l-600.592,-0l0,-43.021l557.188,0l-0,-158.8l43.404,0" style="fill-rule:nonzero;"/></g><g><path d="M39.224,5387.62l7053.5,0" style="fill:none;stroke:#000;stroke-width:35.08px;"/><path d="M39.224,5656.71l7053.5,-0.004" style="fill:none;stroke:#000;stroke-width:35.08px;"/><path d="M39.224,5925.83l7053.5,0" style="fill:none;stroke:#000;stroke-width:35.08px;"/><path d="M39.224,6194.92l7053.5,-0" style="fill:none;stroke:#000;stroke-width:35.08px;"/><path d="M39.224,6464l7053.5,0" style="fill:none;stroke:#000;stroke-width:35.08px;"/></g><g><path d="M6920.18,5370.12l-0,1111.34" style="fill:none;stroke:#000;stroke-width:43.04px;"/><path d="M7071.02,5370.12l0,1111.34" style="fill:none;stroke:#000;stroke-width:43.04px;"/></g><g><path d="M1810.6,5384.5l0,899.742" style="fill:none;stroke:#000;stroke-width:32.29px;"/><path d="M2432.89,5519.08l-0,899.742" style="fill:none;stroke:#000;stroke-width:32.29px;"/><path d="M3055.18,5653.62l-0,899.737" style="fill:none;stroke:#000;stroke-width:32.29px;"/><path d="M3813.63,5857.79l-0,830.121" style="fill:none;stroke:#000;stroke-width:32.29px;"/></g><g><path d="M3464.8,6733.12l472.534,0" style="fill:none;stroke:#000;stroke-width:43.04px;"/></g><g><path d="M4435.93,5925.04l-0,897.395" style="fill:none;stroke:#000;stroke-width:32.29px;"/></g><g><path d="M4024.14,6733.12l535.487,0" style="fill:none;stroke:#000;stroke-width:43.04px;"/></g><g><path d="M5057.68,5992.33l-0,964.671" style="fill:none;stroke:#000;stroke-width:32.29px;"/></g><g><path d="M4646.43,7002.21l535.487,0" style="fill:none;stroke:#000;stroke-width:43.04px;"/><path d="M4646.43,6733.12l535.487,0" style="fill:none;stroke:#000;stroke-width:43.04px;"/></g><g><path d="M5679.93,5925.83l-0,1165.73" style="fill:none;stroke:#000;stroke-width:32.29px;"/></g><g><path d="M5268.72,7002.21l535.488,0" style="fill:none;stroke:#000;stroke-width:43.04px;"/><path d="M5268.72,6733.12l535.488,0" style="fill:none;stroke:#000;stroke-width:43.04px;"/></g><g><path d="M1724.76,5020.88l-0,-116.108c-0,-5.417 -1.092,-9.759 -6.508,-9.759c-4.342,0 -7.605,1.075 -10.85,5.417l-32.555,62.933c-2.17,2.171 -5.433,5.434 -5.433,13.021l0,44.496l-70.521,0c44.479,-36.892 113.925,-159.512 115.017,-166.021c-0,-1.079 1.075,-2.171 1.075,-3.25c-0,-4.337 -4.338,-7.604 -7.583,-7.604c-5.438,0 -28.213,2.171 -37.988,2.171c-9.758,-0 -16.267,-2.171 -20.608,-2.171c-5.434,0 -13.021,2.171 -13.021,10.854c-0,69.442 -56.425,148.663 -70.538,168.192c-2.17,2.171 -4.341,5.416 -4.341,8.679c-0,5.421 4.341,10.854 10.85,10.854l97.658,0l0,33.629c0,15.188 -8.679,19.529 -17.362,19.529c-9.755,0 -14.096,4.342 -14.096,9.775c-0,5.417 2.171,11.925 11.925,11.925l93.316,0c5.434,0 10.85,-4.337 10.85,-11.925c0,-7.604 -6.508,-10.85 -11.925,-10.85c-5.433,0 -17.362,-3.266 -17.362,-20.625l-0,-31.458l40.142,0c5.433,0 8.679,-4.342 8.679,-10.85c-0,-6.512 -2.171,-10.854 -8.679,-10.854l-40.142,-0" style="fill-rule:nonzero;"/></g><g><path d="M2346.99,5020.88l-0,-116.108c-0,-5.417 -1.096,-9.759 -6.513,-9.759c-4.341,0 -7.604,1.075 -10.85,5.417l-32.554,62.933c-2.166,2.171 -5.433,5.434 -5.433,13.021l-0,44.496l-70.521,0c44.479,-36.892 113.925,-159.512 115.017,-166.021c-0,-1.079 1.079,-2.171 1.079,-3.25c-0,-4.337 -4.342,-7.604 -7.588,-7.604c-5.433,0 -28.212,2.171 -37.987,2.171c-9.754,-0 -16.267,-2.171 -20.608,-2.171c-5.434,0 -13.021,2.171 -13.021,10.854c-0,69.442 -56.421,148.663 -70.538,168.192c-2.171,2.171 -4.337,5.416 -4.337,8.679c-0,5.421 4.337,10.854 10.85,10.854l97.654,0l-0,33.629c-0,15.188 -8.679,19.529 -17.358,19.529c-9.759,0 -14.1,4.342 -14.1,9.775c-0,5.417 2.17,11.925 11.929,11.925l93.316,0c5.434,0 10.85,-4.337 10.85,-11.925c0,-7.604 -6.512,-10.85 -11.929,-10.85c-5.433,0 -17.358,-3.266 -17.358,-20.625l-0,-31.458l40.137,0c5.434,0 8.68,-4.342 8.68,-10.85c-0,-6.512 -2.171,-10.854 -8.68,-10.854l-40.137,-0" style="fill-rule:nonzero;"/></g><g><path d="M3018.98,5031.71c-0,-7.604 -3.267,-8.683 -6.513,-8.683c-4.337,-0 -6.508,3.246 -7.604,6.512c-5.417,15.188 -17.358,34.721 -33.629,34.721c-2.167,0 -4.338,0 -6.508,-1.095l-16.284,-5.417c-10.854,-4.338 -36.896,-13.021 -58.596,-13.021c-7.587,0 -14.095,1.079 -20.608,3.25c11.929,-20.608 68.35,-47.746 80.296,-50.992c39.062,-5.433 71.617,-28.212 71.617,-70.537c-0,-26.042 -10.855,-43.404 -24.967,-56.425c-28.213,-22.775 -69.446,-26.042 -81.371,-26.042c-39.062,0 -70.537,2.171 -98.75,34.725c-7.587,8.679 -10.85,17.359 -10.85,26.042c0,7.604 3.263,16.283 6.508,26.042c6.513,13.02 20.625,22.791 35.817,22.791c27.117,0 30.383,-26.041 30.383,-37.983c0,-24.95 -27.137,-27.121 -27.137,-37.971c-0,-7.604 10.85,-20.625 43.404,-20.625c51.004,0 68.367,42.329 68.367,55.35c-0,19.529 -6.509,37.967 -17.363,53.158c-19.529,24.967 -55.346,33.646 -82.462,51.009c-30.384,18.437 -51.009,49.912 -60.767,84.633c0,7.587 3.25,16.267 9.758,19.533c1.096,1.075 3.263,1.075 4.342,1.075c11.942,0 18.454,-33.629 51.004,-33.629c21.704,0 29.292,29.288 78.125,29.288c22.779,-0 65.104,-2.171 73.788,-85.713" style="fill-rule:nonzero;"/></g><g><path d="M3607.42,4969.88c0,0 -1.079,4.337 -1.079,7.604c0,4.338 4.342,8.679 8.683,8.679c3.246,0 5.417,-3.262 6.509,-4.341c1.079,-3.263 14.1,-47.742 20.608,-58.592c2.171,-4.342 4.342,-5.433 5.433,-5.433c2.171,-0 3.246,4.337 3.246,7.604l0,155.154c0,13.021 -10.85,20.625 -21.7,20.625c-4.341,0 -9.758,2.171 -9.758,8.679c-0,6.513 5.417,8.684 14.1,8.684l91.146,-0c8.679,-0 8.679,-8.684 8.679,-8.684c-0,0 -0,-8.679 -8.679,-8.679c-7.588,0 -17.363,-9.775 -17.363,-19.529l0,-225.696c0,-8.679 -3.246,-13.021 -10.85,-13.021c-7.587,0 -14.096,2.171 -20.608,2.171c-10.85,0 -13.021,0 -21.7,-2.171c-4.342,0 -9.775,6.509 -13.021,10.85l-33.646,116.096" style="fill-rule:nonzero;"/></g><g><path d="M4349.6,5020.88l0,-116.108c0,-5.417 -1.079,-9.759 -6.512,-9.759c-4.338,0 -7.588,1.075 -10.85,5.417l-32.55,62.933c-2.171,2.171 -5.417,5.434 -5.417,13.021l0,44.496l-70.541,0c44.5,-36.892 113.941,-159.512 115.02,-166.021c0,-1.079 1.092,-2.171 1.092,-3.25c0,-4.337 -4.342,-7.604 -7.604,-7.604c-5.417,0 -28.213,2.171 -37.967,2.171c-9.775,-0 -16.287,-2.171 -20.625,-2.171c-5.416,0 -13.021,2.171 -13.021,10.854c0,69.442 -56.425,148.663 -70.52,168.192c-2.171,2.171 -4.342,5.416 -4.342,8.679c-0,5.421 4.342,10.854 10.85,10.854l97.658,0l0,33.629c0,15.188 -8.683,19.529 -17.362,19.529c-9.775,0 -14.117,4.342 -14.117,9.775c0,5.417 2.171,11.925 11.946,11.925l93.317,0c5.416,0 10.85,-4.337 10.85,-11.925c-0,-7.604 -6.509,-10.85 -11.946,-10.85c-5.417,0 -17.359,-3.266 -17.359,-20.625l0,-31.458l40.155,0c5.416,0 8.683,-4.342 8.683,-10.85c-0,-6.512 -2.171,-10.854 -8.683,-10.854l-40.155,-0" style="fill-rule:nonzero;"/></g><g><path d="M5021.6,5031.71c0,-7.604 -3.245,-8.683 -6.512,-8.683c-4.338,-0 -6.508,3.246 -7.588,6.512c-5.433,15.188 -17.358,34.721 -33.645,34.721c-2.167,0 -4.338,0 -6.509,-1.095l-16.266,-5.417c-10.85,-4.338 -36.892,-13.021 -58.596,-13.021c-7.604,0 -14.113,1.079 -20.625,3.25c11.946,-20.608 68.371,-47.746 80.296,-50.992c39.062,-5.433 71.616,-28.212 71.616,-70.537c0,-26.042 -10.854,-43.404 -24.95,-56.425c-28.212,-22.775 -69.446,-26.042 -81.387,-26.042c-39.063,0 -70.521,2.171 -98.734,34.725c-7.604,8.679 -10.85,17.359 -10.85,26.042c0,7.604 3.246,16.283 6.509,26.042c6.512,13.02 20.608,22.791 35.8,22.791c27.133,0 30.383,-26.041 30.383,-37.983c0,-24.95 -27.121,-27.121 -27.121,-37.971c0,-7.604 10.85,-20.625 43.404,-20.625c50.988,0 68.35,42.329 68.35,55.35c0,19.529 -6.508,37.967 -17.362,53.158c-19.529,24.967 -55.329,33.646 -82.463,51.009c-30.383,18.437 -50.991,49.912 -60.766,84.633c-0,7.587 3.266,16.267 9.775,19.533c1.079,1.075 3.246,1.075 4.341,1.075c11.925,0 18.438,-33.629 50.988,-33.629c21.704,0 29.308,29.288 78.125,29.288c22.796,-0 65.104,-2.171 73.787,-85.713" style="fill-rule:nonzero;"/></g><g><path d="M5474.14,4969.88c0,0 -1.075,4.337 -1.075,7.604c0,4.338 4.338,8.679 8.679,8.679c3.246,0 5.417,-3.262 6.513,-4.341c1.075,-3.263 14.096,-47.742 20.604,-58.592c2.171,-4.342 4.342,-5.433 5.437,-5.433c2.167,-0 3.246,4.337 3.246,7.604l0,155.154c0,13.021 -10.85,20.625 -21.704,20.625c-4.337,0 -9.754,2.171 -9.754,8.679c-0,6.513 5.417,8.684 14.096,8.684l91.146,-0c8.679,-0 8.679,-8.684 8.679,-8.684c-0,0 -0,-8.679 -8.679,-8.679c-7.588,0 -17.363,-9.775 -17.363,-19.529l0,-225.696c0,-8.679 -3.246,-13.021 -10.85,-13.021c-7.587,0 -14.096,2.171 -20.608,2.171c-10.85,0 -13.021,0 -21.7,-2.171c-4.342,0 -9.775,6.509 -13.021,10.85l-33.646,116.096" style="fill-rule:nonzero;"/></g><g><path d="M1612.26,6465.08c96.562,0 214.846,-88.975 214.846,-181.2c-0,-55.346 -43.404,-90.066 -105.263,-90.066c-119.358,-0 -214.841,87.895 -214.841,181.212c-0,56.425 46.666,90.054 105.258,90.054" style="fill-rule:nonzero;"/></g><g><path d="M2234.47,6599.62c96.583,0 214.846,-88.975 214.846,-181.196c-0,-55.346 -43.404,-90.071 -105.242,-90.071c-119.358,0 -214.846,87.9 -214.846,181.217c0,56.425 46.65,90.05 105.242,90.05" style="fill-rule:nonzero;"/></g><g><path d="M2856.69,6734.17c96.579,-0 214.842,-88.975 214.842,-181.196c-0,-55.35 -43.4,-90.071 -105.242,-90.071c-119.358,0 -214.846,87.9 -214.846,181.217c0,56.421 46.65,90.05 105.246,90.05" style="fill-rule:nonzero;"/></g><g><path d="M3354.66,6781.92c-6.509,21.704 -57.517,43.404 -82.463,43.404c-6.512,-0 -11.946,-2.171 -13.021,-5.417c-2.17,-4.341 -3.266,-28.212 -3.266,-54.254c-0,-33.646 1.096,-71.612 3.266,-80.296c2.167,-18.454 52.084,-41.233 79.2,-41.233c7.605,-0 14.113,2.171 16.284,6.512c2.171,5.417 4.341,32.55 4.341,61.842c0,29.304 -2.17,59.688 -4.341,69.442m74.862,-176.859c7.604,-3.262 13.021,-11.941 13.021,-18.454l0,-77.029c0,-5.433 -3.246,-8.683 -7.587,-8.683c-2.171,-0 -3.263,-0 -5.434,1.079c0,-0 -21.7,8.679 -27.116,9.775c-7.605,-0 -15.192,-5.433 -15.192,-14.117l-0,-132.379c-0,-6.508 -6.513,-11.925 -15.192,-11.925c-10.85,0 -17.362,5.417 -17.362,11.925l-0,141.058c-1.092,10.855 -4.338,24.967 -14.113,31.48c-13.021,7.583 -49.912,22.775 -68.35,27.116c-9.775,0 -13.021,-13.021 -13.021,-21.7l0,-130.208c0,-6.513 -7.604,-11.929 -15.191,-11.929c-10.85,-0 -17.363,5.416 -17.363,11.929l0,146.492c0,15.191 -6.508,26.041 -13.021,29.287c-6.508,3.263 -28.212,11.946 -28.212,11.946c-7.604,2.171 -13.021,10.85 -13.021,17.358l0,77.034c0,6.512 3.246,9.775 8.683,9.775c4.338,-0 24.946,-9.775 28.209,-11.946c1.079,-0 2.171,-1.075 3.25,-1.075c7.604,-0 14.112,10.85 14.112,19.529l0,107.417c0,11.941 -5.433,21.7 -11.946,24.962c-6.508,2.171 -29.287,11.929 -29.287,11.929c-7.604,2.171 -13.021,10.85 -13.021,17.359l0,77.05c0,6.512 3.246,9.758 8.683,9.758c1.075,-0 3.246,-1.079 4.338,-1.079c-0,-0 15.192,-6.509 24.95,-9.771c1.092,-1.079 2.171,-1.079 3.262,-1.079c7.588,-0 13.021,11.929 13.021,17.362l0,133.454c0,6.513 6.513,11.946 14.096,11.946c10.854,0 18.458,-5.433 18.458,-11.946l0,-150.816c0,-14.113 5.417,-21.7 10.85,-23.871l66.18,-27.133c1.095,-0.001 3.262,-1.08 4.341,-1.08c8.679,0 14.113,13.021 14.113,19.534l-0,135.625c-0,6.508 6.512,11.941 14.1,11.941c11.941,0 18.454,-5.433 18.454,-11.941l-0,-154.079c-0,-8.684 4.337,-21.705 11.925,-24.95c7.604,-3.263 30.383,-11.946 30.383,-11.946c7.604,-3.246 13.021,-11.925 13.021,-18.438l0,-77.046c0,-5.416 -3.246,-8.683 -7.587,-8.683c-2.171,0 -3.263,0 -5.434,1.096l-28.212,10.85c-6.509,-0 -14.096,-6.513 -14.096,-19.534l-0,-100.916c-0,-7.588 5.417,-28.213 14.096,-31.459l28.212,-10.85" style="fill-rule:nonzero;"/></g><g><path d="M3614.9,6868.71c96.579,0 214.841,-88.975 214.841,-181.2c0,-55.346 -43.404,-90.066 -105.241,-90.066c-119.359,-0 -214.846,87.895 -214.846,181.212c-0,56.425 46.65,90.054 105.246,90.054" style="fill-rule:nonzero;"/></g><g><path d="M4237.1,7003.25c96.563,0 214.842,-88.975 214.842,-181.196c0,-55.346 -43.404,-90.071 -105.258,-90.071c-119.359,0 -214.846,87.9 -214.846,181.217c-0,56.425 46.667,90.05 105.262,90.05" style="fill-rule:nonzero;"/></g><g><path d="M4859.35,7137.83c96.563,0 214.846,-88.975 214.846,-181.196c0,-55.35 -43.404,-90.07 -105.262,-90.07c-119.359,-0 -214.842,87.9 -214.842,181.216c0,56.421 46.667,90.05 105.258,90.05" style="fill-rule:nonzero;"/></g><g><path d="M5457.68,7231.12c-22.775,0 -35.796,-11.929 -43.4,-24.95c-3.25,-6.508 -6.513,-14.112 -6.513,-21.7c0,-53.175 157.346,-138.888 208.334,-138.888c20.625,0 32.554,9.755 40.158,22.775c3.246,6.513 6.508,13.021 6.508,20.625c0,46.65 -153.004,142.138 -205.087,142.138m23.871,41.233c179.045,0 214.845,-145.4 214.845,-181.2c0,-55.346 -44.479,-90.066 -107.412,-90.066c-161.683,-0 -212.675,124.791 -212.675,181.212c-0,57.5 45.575,90.054 105.242,90.054" style="fill-rule:nonzero;"/></g><g><path d="M565.491,5910.62c3.246,20.608 3.246,19.529 -16.283,26.042c-95.488,32.55 -157.346,118.262 -157.346,210.504c-0,97.654 51.008,167.1 124.792,192.046c8.683,3.266 21.704,6.512 29.291,6.512c8.679,0 13.021,-5.417 13.021,-11.929c0,-7.604 -8.683,-10.85 -16.271,-14.113c-45.571,-19.533 -78.125,-66.179 -78.125,-116.095c0,-61.855 42.313,-108.505 108.509,-126.959c17.362,-4.341 19.533,-3.25 21.7,8.68l54.254,323.35c2.171,11.945 1.079,11.945 -15.192,15.191c-17.358,3.263 -39.062,5.434 -60.762,5.434c-189.896,-0.001 -312.5,-105.259 -312.5,-256.076c-0,-64.029 10.85,-149.741 100.904,-251.737c65.104,-72.708 115.016,-112.846 166.025,-154.079c10.85,-8.679 13.021,-7.604 15.187,4.341l22.779,138.888m118.284,-738.942c35.796,0 65.104,29.304 65.104,88.975c-0,120.454 -103.092,218.109 -188.804,292.971c-7.604,6.508 -11.946,5.434 -14.113,-8.683c-4.341,-28.209 -6.512,-65.104 -6.512,-99.825c-0,-169.271 78.125,-273.438 144.325,-273.438m-43.404,911.459c-2.171,-13.021 -1.096,-16.267 11.925,-15.192c87.9,7.604 160.591,81.392 160.591,176.875c0,68.35 -41.233,123.7 -101.996,154.079c-13.02,6.513 -15.191,6.513 -17.362,-6.508l-53.158,-309.254m-58.596,-338.542c-2.167,-13.021 -0,-14.096 6.512,-20.608c117.188,-109.6 206.163,-247.396 206.163,-413.421c-0,-94.392 -26.042,-187.708 -70.538,-252.813c-16.266,-23.87 -44.479,-54.254 -56.425,-54.254c-15.191,0 -48.816,28.213 -70.521,52.084c-80.295,88.979 -106.337,224.604 -106.337,337.45c-0,62.933 7.587,133.47 15.192,177.95c2.17,13.02 3.245,15.191 -9.775,26.041c-156.25,129.134 -322.255,284.288 -322.255,503.475c0,188.8 129.113,367.846 394.963,367.846c24.95,0 53.162,-2.171 74.862,-6.512c11.946,-2.167 14.117,-3.263 16.284,9.758c13.021,72.708 29.291,167.1 29.291,218.108c0,160.592 -108.508,180.121 -172.52,180.121c-58.592,0 -86.805,-17.362 -86.805,-31.475c0,-7.587 9.759,-10.85 34.721,-18.437c33.629,-9.775 72.692,-39.063 72.692,-101.996c-0,-59.688 -37.967,-110.679 -104.167,-110.679c-72.691,-0 -116.091,57.5 -116.091,124.775c-0,70.537 42.308,176.875 206.162,176.875c72.692,-0 213.75,-32.55 213.75,-217.013c0,-61.858 -19.533,-164.933 -31.458,-232.204c-2.171,-13.021 -1.096,-11.946 14.096,-18.454c109.6,-43.404 182.291,-135.63 182.291,-258.25c0,-138.888 -101.996,-261.492 -261.491,-261.492c-28.213,0 -28.213,0 -31.475,-19.533l-27.121,-157.342" style="fill-rule:nonzero;"/></g><g><path d="M2261.17,6884.89c-14.106,0 -21.702,6.511 -21.702,16.276c0,9.766 7.596,16.276 21.702,16.276l10.85,0c40.148,0 59.679,23.872 59.679,58.594c0,47.743 -33.637,113.933 -99.826,113.933c-21.702,-0 -39.063,-8.681 -39.063,-19.532c0,-6.51 5.426,-8.68 14.106,-13.02c11.936,-5.426 27.127,-18.447 27.127,-46.658c-0,-26.042 -18.446,-39.063 -41.233,-39.063c-30.382,0 -53.168,27.127 -53.168,62.934c-0,43.403 34.722,83.551 111.762,83.551c92.231,-0 168.186,-55.339 168.186,-141.06c0,-27.126 -14.106,-53.168 -42.318,-67.274c-7.595,-3.255 -11.936,-4.34 -11.936,-9.766c0,-3.255 4.341,-5.425 13.021,-9.765c45.573,-18.447 82.466,-53.169 82.466,-96.572c-0,-56.423 -54.254,-91.146 -120.443,-91.146c-68.36,0 -124.783,35.808 -126.953,94.402c-1.086,28.211 16.276,46.658 41.232,46.658c27.127,-0 48.828,-21.702 48.828,-50.999c0,-11.935 -4.34,-20.616 -9.765,-27.126c-7.596,-6.511 -13.021,-10.851 -13.021,-14.106c-0,-7.596 13.021,-15.191 35.807,-15.191c42.318,-0 56.424,26.041 56.424,49.913c-0,57.509 -36.892,98.741 -99.827,98.741l-11.935,0Z" style="fill-rule:nonzero;"/></g><g><path d="M4263.77,7288.52c-14.106,0 -21.702,6.511 -21.702,16.276c0,9.766 7.596,16.276 21.702,16.276l10.851,0c40.147,0 59.678,23.872 59.678,58.594c0,47.743 -33.637,113.933 -99.826,113.933c-21.701,-0 -39.063,-8.681 -39.063,-19.532c0,-6.51 5.426,-8.68 14.106,-13.02c11.936,-5.426 27.127,-18.447 27.127,-46.658c0,-26.042 -18.446,-39.063 -41.233,-39.063c-30.382,0 -53.168,27.127 -53.168,62.934c-0,43.403 34.722,83.551 111.762,83.551c92.231,-0 168.186,-55.339 168.186,-141.06c0,-27.126 -14.106,-53.168 -42.318,-67.274c-7.595,-3.255 -11.935,-4.34 -11.935,-9.766c-0,-3.255 4.34,-5.425 13.02,-9.765c45.573,-18.447 82.466,-53.169 82.466,-96.572c-0,-56.423 -54.254,-91.146 -120.443,-91.146c-68.359,0 -124.783,35.808 -126.953,94.402c-1.085,28.211 16.276,46.658 41.232,46.658c27.127,-0 48.829,-21.702 48.829,-50.999c-0,-11.935 -4.341,-20.616 -9.766,-27.126c-7.596,-6.511 -13.021,-10.851 -13.021,-14.106c0,-7.596 13.021,-15.191 35.807,-15.191c42.318,-0 56.424,26.041 56.424,49.913c0,57.509 -36.892,98.741 -99.826,98.741l-11.936,0Z" style="fill-rule:nonzero;"/></g><g><path d="M1794.87,5454.88l0,-137.654l1276.58,269.096l0,137.654l-1276.58,-269.096" style="fill-rule:nonzero;"/></g><g><path d="M3797.37,5925.83l0,-135.312l1276.58,134.546l0,135.316l-1276.58,-134.55" style="fill-rule:nonzero;"/></g><g><path d="M1418.36,6734.17l578.871,115.558l-0,-43.996l-536.025,-106.925l-0,-166.458l-42.863,-0" style="fill-rule:nonzero;"/></g><g><path d="M3093.15,7072.46l-511.616,-101.562l-0,-43.996l468.212,97.171l0,-153.438l43.404,0" style="fill-rule:nonzero;"/></g><g><path d="M3420.84,7137.83l578.888,115.559l-0,-43.996l-536.025,-106.925l-0,-166.459l-42.863,0" style="fill-rule:nonzero;"/></g><g><path d="M5095.64,7476.08l-511.617,-101.562l0,-43.996l468.75,97.171l0,-153.438l42.867,0" style="fill-rule:nonzero;"/></g></g></svg>