<?xml version="1.0" encoding="UTF-8" standalone="no"?><!DOCTYPE svg PUBLIC "-//W3C//DTD SVG 1.1//EN" "http://www.w3.org/Graphics/SVG/1.1/DTD/svg11.dtd"><svg width="100%" height="100%" viewBox="0 0 6894 1838" version="1.1" xmlns="http://www.w3.org/2000/svg" xmlns:xlink="http://www.w3.org/1999/xlink" xml:space="preserve" xmlns:serif="http://www.serif.com/" style="fill-rule:evenodd;clip-rule:evenodd;stroke-miterlimit:2;"><g><g><path d="M9.364,388.858l6875,0" style="fill:none;stroke:#000;stroke-width:8.38px;"/><path d="M9.364,453.442l6875,-0" style="fill:none;stroke:#000;stroke-width:8.38px;"/><path d="M9.364,518.025l6875,0" style="fill:none;stroke:#000;stroke-width:8.38px;"/><path d="M9.364,582.608l6875,0" style="fill:none;stroke:#000;stroke-width:8.38px;"/><path d="M9.364,647.192l6875,-0" style="fill:none;stroke:#000;stroke-width:8.38px;"/></g><g><path d="M3645.32,384.667l-0,266.721" style="fill:none;stroke:#000;stroke-width:10.33px;"/><path d="M6879.15,384.667l0,266.721" style="fill:none;stroke:#000;stroke-width:10.33px;"/></g><g><path d="M434.493,534.029l-0,263.775" style="fill:none;stroke:#000;stroke-width:7.75px;"/></g><g><path d="M335.793,776.358l128.516,0" style="fill:none;stroke:#000;stroke-width:10.33px;"/><path d="M335.793,711.775l128.516,0" style="fill:none;stroke:#000;stroke-width:10.33px;"/></g><g><path d="M771.472,501.738l-0,231.483" style="fill:none;stroke:#000;stroke-width:7.75px;"/></g><g><path d="M672.772,711.775l128.387,0" style="fill:none;stroke:#000;stroke-width:10.33px;"/></g><g><path d="M1108.32,469.238l-0,231.691" style="fill:none;stroke:#000;stroke-width:7.75px;"/></g><g><path d="M1024.6,711.775l113.408,0" style="fill:none;stroke:#000;stroke-width:10.33px;"/></g><g><path d="M1383.58,428.888l0,239.75" style="fill:none;stroke:#000;stroke-width:7.75px;"/><path d="M1658.97,388.508l-0,215.546" style="fill:none;stroke:#000;stroke-width:7.75px;"/><path d="M1865.35,593.454l0,182.983" style="fill:none;stroke:#000;stroke-width:7.75px;"/><path d="M2103.5,561.163l0,204.52" style="fill:none;stroke:#000;stroke-width:7.75px;"/><path d="M2341.65,528.871l0,226.042" style="fill:none;stroke:#000;stroke-width:7.75px;"/><path d="M2579.93,528.871l0,215.275" style="fill:none;stroke:#000;stroke-width:7.75px;"/><path d="M2817.95,496.579l0,199.271" style="fill:none;stroke:#000;stroke-width:7.75px;"/><path d="M3093.21,464.288l-0,199.287" style="fill:none;stroke:#000;stroke-width:7.75px;"/><path d="M3368.61,399.704l0,231.563" style="fill:none;stroke:#000;stroke-width:7.75px;"/><path d="M3751.28,367.413l0,215.783" style="fill:none;stroke:#000;stroke-width:7.75px;"/><path d="M4088.28,302.833l0,215.779" style="fill:none;stroke:#000;stroke-width:7.75px;"/></g><g><path d="M4058.57,324.275l128.387,0" style="fill:none;stroke:#000;stroke-width:10.33px;"/></g><g><path d="M4425.11,270.542l0,247.496" style="fill:none;stroke:#000;stroke-width:7.75px;"/></g><g><path d="M4410.4,259.692l113.413,-0" style="fill:none;stroke:#000;stroke-width:10.33px;"/><path d="M4411.44,324.275l112.371,0" style="fill:none;stroke:#000;stroke-width:10.33px;"/></g><g><path d="M4700.36,238.25l0,271.717" style="fill:none;stroke:#000;stroke-width:7.75px;"/></g><g><path d="M4686.82,259.692l112.237,-0" style="fill:none;stroke:#000;stroke-width:10.33px;"/><path d="M4670.69,324.275l128.383,0" style="fill:none;stroke:#000;stroke-width:10.33px;"/></g><g><path d="M4975.78,173.667l0,328.225" style="fill:none;stroke:#000;stroke-width:7.75px;"/></g><g><path d="M4946.07,195.108l128.387,0" style="fill:none;stroke:#000;stroke-width:10.33px;"/><path d="M4946.07,259.692l128.387,-0" style="fill:none;stroke:#000;stroke-width:10.33px;"/><path d="M4946.07,324.275l128.387,0" style="fill:none;stroke:#000;stroke-width:10.33px;"/></g><g><path d="M5251.15,141.375l0,360.533" style="fill:none;stroke:#000;stroke-width:7.75px;"/></g><g><path d="M5221.48,130.525l128.384,-0" style="fill:none;stroke:#000;stroke-width:10.33px;"/><path d="M5221.48,195.108l128.384,0" style="fill:none;stroke:#000;stroke-width:10.33px;"/><path d="M5221.48,259.692l128.384,-0" style="fill:none;stroke:#000;stroke-width:10.33px;"/><path d="M5221.48,324.275l128.384,0" style="fill:none;stroke:#000;stroke-width:10.33px;"/></g><g><path d="M5489.32,173.667l-0,333.616" style="fill:none;stroke:#000;stroke-width:7.75px;"/></g><g><path d="M5459.61,195.108l128.517,0" style="fill:none;stroke:#000;stroke-width:10.33px;"/><path d="M5459.61,259.692l128.517,-0" style="fill:none;stroke:#000;stroke-width:10.33px;"/><path d="M5459.61,324.275l128.517,0" style="fill:none;stroke:#000;stroke-width:10.33px;"/></g><g><path d="M5727.57,205.958l-0,306.704" style="fill:none;stroke:#000;stroke-width:7.75px;"/></g><g><path d="M5697.9,195.108l128.383,0" style="fill:none;stroke:#000;stroke-width:10.33px;"/><path d="M5697.9,259.692l128.383,-0" style="fill:none;stroke:#000;stroke-width:10.33px;"/><path d="M5697.9,324.275l128.383,0" style="fill:none;stroke:#000;stroke-width:10.33px;"/></g><g><path d="M5965.86,238.25l0,279.804" style="fill:none;stroke:#000;stroke-width:7.75px;"/></g><g><path d="M5952.19,259.692l112.371,-0" style="fill:none;stroke:#000;stroke-width:10.33px;"/><path d="M5936.07,324.275l128.516,0" style="fill:none;stroke:#000;stroke-width:10.33px;"/></g><g><path d="M6204.03,302.833l0,215.779" style="fill:none;stroke:#000;stroke-width:7.75px;"/></g><g><path d="M6174.32,324.275l128.516,0" style="fill:none;stroke:#000;stroke-width:10.33px;"/></g><g><path d="M6540.98,367.413l0,215.783" style="fill:none;stroke:#000;stroke-width:7.75px;"/></g><g><path d="M385.101,288.6c0,0 -0.258,1.042 -0.258,1.821c-0,1.041 1.041,2.083 2.083,2.083c0.779,0 1.3,-0.779 1.558,-1.042c0.263,-0.779 3.388,-11.458 4.95,-14.062c0.521,-1.042 1.042,-1.3 1.3,-1.3c0.521,-0 0.784,1.042 0.784,1.821l-0,37.241c-0,3.125 -2.604,4.946 -5.209,4.946c-1.041,0 -2.341,0.521 -2.341,2.084c-0,1.562 1.3,2.083 3.383,2.083l21.875,-0c2.083,-0 2.083,-2.083 2.083,-2.083c0,-0 0,-2.084 -2.083,-2.084c-1.825,0 -4.167,-2.341 -4.167,-4.687l0,-54.167c0,-2.083 -0.783,-3.125 -2.604,-3.125c-1.825,0 -3.387,0.521 -4.95,0.521c-2.604,-0 -3.125,-0 -5.208,-0.521c-1.042,0 -2.342,1.563 -3.125,2.604l-8.071,27.867" style="fill-rule:nonzero;"/></g><g><path d="M750.826,300.838l0,-27.863c0,-1.304 -0.262,-2.346 -1.562,-2.346c-1.042,0 -1.825,0.263 -2.605,1.304l-7.812,15.105c-0.521,0.52 -1.3,1.3 -1.3,3.125l-0,10.675l-16.929,-0c10.679,-8.855 27.341,-38.28 27.604,-39.842c-0,-0.263 0.258,-0.521 0.258,-0.784c0,-1.041 -1.041,-1.82 -1.821,-1.82c-1.304,-0 -6.77,0.52 -9.112,0.52c-2.346,0 -3.908,-0.52 -4.95,-0.52c-1.3,-0 -3.125,0.52 -3.125,2.604c-0,16.666 -13.542,35.675 -16.925,40.362c-0.521,0.521 -1.042,1.304 -1.042,2.084c0,1.304 1.042,2.604 2.604,2.604l23.438,-0l-0,8.075c-0,3.646 -2.083,4.687 -4.167,4.687c-2.346,0 -3.387,1.042 -3.387,2.342c-0,1.304 0.521,2.867 2.866,2.867l22.392,-0c1.304,-0 2.604,-1.042 2.604,-2.867c0,-1.821 -1.562,-2.604 -2.862,-2.604c-1.304,-0 -4.167,-0.779 -4.167,-4.946l0,-7.554l9.633,-0c1.305,-0 2.084,-1.042 2.084,-2.604c-0,-1.563 -0.521,-2.605 -2.084,-2.605l-9.633,0" style="fill-rule:nonzero;"/></g><g><path d="M1058.85,288.6c0,0 -0.258,1.042 -0.258,1.821c-0,1.041 1.041,2.083 2.083,2.083c0.779,0 1.3,-0.779 1.563,-1.042c0.258,-0.779 3.383,-11.458 4.945,-14.062c0.521,-1.042 1.042,-1.3 1.305,-1.3c0.52,-0 0.779,1.042 0.779,1.821l-0,37.241c-0,3.125 -2.604,4.946 -5.209,4.946c-1.041,0 -2.341,0.521 -2.341,2.084c-0,1.562 1.3,2.083 3.383,2.083l21.875,-0c2.083,-0 2.083,-2.083 2.083,-2.083c0,-0 0,-2.084 -2.083,-2.084c-1.821,0 -4.167,-2.341 -4.167,-4.687l0,-54.167c0,-2.083 -0.779,-3.125 -2.604,-3.125c-1.821,0 -3.383,0.521 -4.946,0.521c-2.604,-0 -3.125,-0 -5.208,-0.521c-1.042,0 -2.346,1.563 -3.125,2.604l-8.075,27.867" style="fill-rule:nonzero;"/></g><g><path d="M1374.86,303.442c0,-1.821 -0.783,-2.084 -1.562,-2.084c-1.042,0 -1.563,0.784 -1.825,1.563c-1.3,3.646 -4.167,8.333 -8.071,8.333c-0.521,0 -1.042,0 -1.563,-0.258l-3.908,-1.304c-2.604,-1.042 -8.854,-3.125 -14.062,-3.125c-1.821,-0 -3.384,0.262 -4.946,0.783c2.862,-4.95 16.404,-11.458 19.271,-12.242c9.375,-1.3 17.187,-6.771 17.187,-16.925c0,-6.25 -2.604,-10.416 -5.992,-13.541c-6.77,-5.471 -16.666,-6.25 -19.529,-6.25c-9.375,-0 -16.929,0.52 -23.7,8.333c-1.821,2.083 -2.604,4.167 -2.604,6.25c0,1.821 0.783,3.904 1.563,6.25c1.562,3.125 4.95,5.467 8.595,5.467c6.509,-0 7.292,-6.25 7.292,-9.113c0,-5.992 -6.512,-6.512 -6.512,-9.117c-0,-1.82 2.604,-4.945 10.416,-4.945c12.242,-0 16.409,10.154 16.409,13.279c-0,4.687 -1.563,9.116 -4.167,12.762c-4.688,5.988 -13.283,8.071 -19.792,12.238c-7.291,4.429 -12.241,11.979 -14.583,20.312c-0,1.825 0.779,3.909 2.342,4.688c0.262,0.262 0.783,0.262 1.041,0.262c2.867,0 4.429,-8.075 12.242,-8.075c5.208,0 7.029,7.034 18.75,7.034c5.467,-0 15.625,-0.521 17.708,-20.575" style="fill-rule:nonzero;"/></g><g><path d="M1638.32,300.838l-0,-27.863c-0,-1.304 -0.263,-2.346 -1.563,-2.346c-1.041,0 -1.825,0.263 -2.604,1.304l-7.812,15.105c-0.521,0.52 -1.305,1.3 -1.305,3.125l0,10.675l-16.925,-0c10.675,-8.855 27.342,-38.28 27.605,-39.842c-0,-0.263 0.258,-0.521 0.258,-0.784c-0,-1.041 -1.042,-1.82 -1.821,-1.82c-1.304,-0 -6.771,0.52 -9.117,0.52c-2.341,0 -3.904,-0.52 -4.945,-0.52c-1.305,-0 -3.125,0.52 -3.125,2.604c-0,16.666 -13.542,35.675 -16.93,40.362c-0.52,0.521 -1.041,1.304 -1.041,2.084c-0,1.304 1.041,2.604 2.604,2.604l23.437,-0l0,8.075c0,3.646 -2.083,4.687 -4.166,4.687c-2.342,0 -3.384,1.042 -3.384,2.342c0,1.304 0.521,2.867 2.863,2.867l22.396,-0c1.304,-0 2.604,-1.042 2.604,-2.867c-0,-1.821 -1.563,-2.604 -2.863,-2.604c-1.304,-0 -4.166,-0.779 -4.166,-4.946l-0,-7.554l9.633,-0c1.304,-0 2.083,-1.042 2.083,-2.604c0,-1.563 -0.52,-2.605 -2.083,-2.605l-9.633,0" style="fill-rule:nonzero;"/></g><g><path d="M1884.93,288.6c0,0 -0.258,1.042 -0.258,1.821c-0,1.041 1.042,2.083 2.083,2.083c0.779,0 1.3,-0.779 1.563,-1.042c0.258,-0.779 3.383,-11.458 4.946,-14.062c0.52,-1.042 1.041,-1.3 1.304,-1.3c0.521,-0 0.779,1.042 0.779,1.821l-0,37.241c-0,3.125 -2.604,4.946 -5.208,4.946c-1.042,0 -2.342,0.521 -2.342,2.084c-0,1.562 1.3,2.083 3.383,2.083l21.875,-0c2.084,-0 2.084,-2.083 2.084,-2.083c-0,-0 -0,-2.084 -2.084,-2.084c-1.821,0 -4.166,-2.341 -4.166,-4.687l-0,-54.167c-0,-2.083 -0.78,-3.125 -2.605,-3.125c-1.82,0 -3.383,0.521 -4.945,0.521c-2.605,-0 -3.125,-0 -5.209,-0.521c-1.041,0 -2.346,1.563 -3.125,2.604l-8.075,27.867" style="fill-rule:nonzero;"/></g><g><path d="M2163.83,303.442c0,-1.821 -0.783,-2.084 -1.562,-2.084c-1.042,0 -1.563,0.784 -1.825,1.563c-1.3,3.646 -4.167,8.333 -8.071,8.333c-0.521,0 -1.042,0 -1.563,-0.258l-3.908,-1.304c-2.604,-1.042 -8.854,-3.125 -14.063,-3.125c-1.82,-0 -3.383,0.262 -4.945,0.783c2.862,-4.95 16.404,-11.458 19.27,-12.242c9.375,-1.3 17.188,-6.771 17.188,-16.925c-0,-6.25 -2.604,-10.416 -5.992,-13.541c-6.771,-5.471 -16.666,-6.25 -19.529,-6.25c-9.375,-0 -16.929,0.52 -23.7,8.333c-1.821,2.083 -2.604,4.167 -2.604,6.25c-0,1.821 0.783,3.904 1.562,6.25c1.563,3.125 4.95,5.467 8.596,5.467c6.509,-0 7.292,-6.25 7.292,-9.113c-0,-5.992 -6.513,-6.512 -6.513,-9.117c0,-1.82 2.605,-4.945 10.417,-4.945c12.242,-0 16.408,10.154 16.408,13.279c0,4.687 -1.562,9.116 -4.166,12.762c-4.688,5.988 -13.284,8.071 -19.792,12.238c-7.292,4.429 -12.242,11.979 -14.583,20.312c-0,1.825 0.779,3.909 2.341,4.688c0.263,0.262 0.784,0.262 1.042,0.262c2.867,0 4.429,-8.075 12.242,-8.075c5.208,0 7.029,7.034 18.75,7.034c5.466,-0 15.625,-0.521 17.708,-20.575" style="fill-rule:nonzero;"/></g><g><path d="M2390.05,300.838l-0,-27.863c-0,-1.304 -0.258,-2.346 -1.563,-2.346c-1.041,0 -1.82,0.263 -2.604,1.304l-7.812,15.105c-0.521,0.52 -1.3,1.3 -1.3,3.125l-0,10.675l-16.929,-0c10.679,-8.855 27.345,-38.28 27.604,-39.842c-0,-0.263 0.262,-0.521 0.262,-0.784c0,-1.041 -1.041,-1.82 -1.825,-1.82c-1.3,-0 -6.771,0.52 -9.112,0.52c-2.346,0 -3.909,-0.52 -4.95,-0.52c-1.3,-0 -3.125,0.52 -3.125,2.604c-0,16.666 -13.542,35.675 -16.925,40.362c-0.521,0.521 -1.042,1.304 -1.042,2.084c0,1.304 1.042,2.604 2.604,2.604l23.438,-0l-0,8.075c-0,3.646 -2.084,4.687 -4.167,4.687c-2.346,0 -3.387,1.042 -3.387,2.342c-0,1.304 0.52,2.867 2.866,2.867l22.396,-0c1.3,-0 2.604,-1.042 2.604,-2.867c0,-1.821 -1.562,-2.604 -2.866,-2.604c-1.3,-0 -4.167,-0.779 -4.167,-4.946l-0,-7.554l9.637,-0c1.3,-0 2.084,-1.042 2.084,-2.604c-0,-1.563 -0.521,-2.605 -2.084,-2.605l-9.637,0" style="fill-rule:nonzero;"/></g><g><path d="M2628.28,300.838l0,-27.863c0,-1.304 -0.258,-2.346 -1.562,-2.346c-1.042,0 -1.821,0.263 -2.605,1.304l-7.812,15.105c-0.521,0.52 -1.3,1.3 -1.3,3.125l-0,10.675l-16.929,-0c10.679,-8.855 27.346,-38.28 27.604,-39.842c-0,-0.263 0.262,-0.521 0.262,-0.784c0,-1.041 -1.041,-1.82 -1.825,-1.82c-1.3,-0 -6.77,0.52 -9.112,0.52c-2.346,0 -3.908,-0.52 -4.95,-0.52c-1.3,-0 -3.125,0.52 -3.125,2.604c-0,16.666 -13.542,35.675 -16.925,40.362c-0.521,0.521 -1.042,1.304 -1.042,2.084c0,1.304 1.042,2.604 2.604,2.604l23.438,-0l-0,8.075c-0,3.646 -2.083,4.687 -4.167,4.687c-2.346,0 -3.387,1.042 -3.387,2.342c-0,1.304 0.521,2.867 2.866,2.867l22.396,-0c1.3,-0 2.604,-1.042 2.604,-2.867c0,-1.821 -1.562,-2.604 -2.866,-2.604c-1.3,-0 -4.167,-0.779 -4.167,-4.946l0,-7.554l9.638,-0c1.3,-0 2.083,-1.042 2.083,-2.604c-0,-1.563 -0.521,-2.605 -2.083,-2.605l-9.638,0" style="fill-rule:nonzero;"/></g><g><path d="M2837.55,288.6c-0,0 -0.258,1.042 -0.258,1.821c-0,1.041 1.041,2.083 2.083,2.083c0.779,0 1.3,-0.779 1.562,-1.042c0.259,-0.779 3.384,-11.458 4.946,-14.062c0.521,-1.042 1.042,-1.3 1.304,-1.3c0.521,-0 0.78,1.042 0.78,1.821l-0,37.241c-0,3.125 -2.605,4.946 -5.209,4.946c-1.041,0 -2.341,0.521 -2.341,2.084c-0,1.562 1.3,2.083 3.383,2.083l21.875,-0c2.083,-0 2.083,-2.083 2.083,-2.083c0,-0 0,-2.084 -2.083,-2.084c-1.821,0 -4.167,-2.341 -4.167,-4.687l0,-54.167c0,-2.083 -0.779,-3.125 -2.604,-3.125c-1.821,0 -3.383,0.521 -4.946,0.521c-2.604,-0 -3.125,-0 -5.208,-0.521c-1.042,0 -2.346,1.563 -3.125,2.604l-8.075,27.867" style="fill-rule:nonzero;"/></g><g><path d="M3153.5,303.442c-0,-1.821 -0.779,-2.084 -1.563,-2.084c-1.041,0 -1.562,0.784 -1.82,1.563c-1.305,3.646 -4.167,8.333 -8.075,8.333c-0.521,0 -1.042,0 -1.563,-0.258l-3.904,-1.304c-2.604,-1.042 -8.854,-3.125 -14.063,-3.125c-1.825,-0 -3.387,0.262 -4.95,0.783c2.867,-4.95 16.409,-11.458 19.271,-12.242c9.375,-1.3 17.188,-6.771 17.188,-16.925c-0,-6.25 -2.604,-10.416 -5.988,-13.541c-6.771,-5.471 -16.666,-6.25 -19.533,-6.25c-9.375,-0 -16.925,0.52 -23.696,8.333c-1.825,2.083 -2.604,4.167 -2.604,6.25c-0,1.821 0.779,3.904 1.562,6.25c1.563,3.125 4.946,5.467 8.592,5.467c6.513,-0 7.292,-6.25 7.292,-9.113c-0,-5.992 -6.509,-6.512 -6.509,-9.117c0,-1.82 2.605,-4.945 10.417,-4.945c12.238,-0 16.404,10.154 16.404,13.279c0,4.687 -1.562,9.116 -4.166,12.762c-4.688,5.988 -13.28,8.071 -19.792,12.238c-7.292,4.429 -12.238,11.979 -14.583,20.312c-0,1.825 0.783,3.909 2.345,4.688c0.259,0.262 0.78,0.262 1.042,0.262c2.863,0 4.425,-8.075 12.238,-8.075c5.208,0 7.033,7.034 18.75,7.034c5.47,-0 15.625,-0.521 17.708,-20.575" style="fill-rule:nonzero;"/></g><g><path d="M3416.95,300.783l0,-27.866c0,-1.3 -0.262,-2.342 -1.562,-2.342c-1.042,-0 -1.825,0.258 -2.605,1.3l-7.812,15.104c-0.521,0.521 -1.304,1.304 -1.304,3.125l-0,10.679l-16.925,0c10.675,-8.854 27.341,-38.283 27.604,-39.846c-0,-0.258 0.258,-0.52 0.258,-0.779c0,-1.041 -1.041,-1.825 -1.821,-1.825c-1.304,0 -6.77,0.521 -9.116,0.521c-2.342,0 -3.904,-0.521 -4.946,-0.521c-1.304,0 -3.125,0.521 -3.125,2.604c-0,16.667 -13.542,35.68 -16.929,40.367c-0.521,0.521 -1.042,1.3 -1.042,2.083c0,1.3 1.042,2.605 2.604,2.605l23.438,-0l-0,8.07c-0,3.646 -2.084,4.688 -4.167,4.688c-2.342,-0 -3.383,1.042 -3.383,2.346c-0,1.3 0.521,2.862 2.862,2.862l22.396,0c1.304,0 2.604,-1.041 2.604,-2.862c0,-1.825 -1.562,-2.604 -2.862,-2.604c-1.304,-0 -4.167,-0.784 -4.167,-4.95l0,-7.55l9.633,-0c1.305,-0 2.084,-1.042 2.084,-2.605c-0,-1.562 -0.521,-2.604 -2.084,-2.604l-9.633,0" style="fill-rule:nonzero;"/></g><g><path d="M3770.9,256.046c0,-0 -0.258,1.042 -0.258,1.825c-0,1.042 1.041,2.083 2.083,2.083c0.779,0 1.3,-0.783 1.563,-1.041c0.258,-0.784 3.383,-11.459 4.945,-14.063c0.521,-1.042 1.042,-1.304 1.305,-1.304c0.52,-0 0.779,1.042 0.779,1.825l-0,37.237c-0,3.125 -2.604,4.95 -5.209,4.95c-1.041,0 -2.341,0.521 -2.341,2.084c-0,1.562 1.3,2.083 3.383,2.083l21.875,0c2.083,0 2.083,-2.083 2.083,-2.083c0,-0 0,-2.084 -2.083,-2.084c-1.821,0 -4.167,-2.345 -4.167,-4.687l0,-54.167c0,-2.083 -0.779,-3.125 -2.604,-3.125c-1.821,0 -3.383,0.521 -4.946,0.521c-2.604,0 -3.125,0 -5.208,-0.521c-1.042,0 -2.346,1.563 -3.125,2.604l-8.075,27.863" style="fill-rule:nonzero;"/></g><g><path d="M4136.65,203.908l0,-27.866c0,-1.3 -0.258,-2.342 -1.562,-2.342c-1.042,-0 -1.821,0.258 -2.605,1.3l-7.812,15.104c-0.521,0.521 -1.3,1.304 -1.3,3.125l-0,10.679l-16.929,0c10.679,-8.854 27.346,-38.283 27.604,-39.846c-0,-0.258 0.262,-0.52 0.262,-0.779c0,-1.041 -1.041,-1.825 -1.825,-1.825c-1.3,0 -6.77,0.521 -9.112,0.521c-2.346,0 -3.908,-0.521 -4.95,-0.521c-1.3,0 -3.125,0.521 -3.125,2.604c-0,16.667 -13.542,35.68 -16.925,40.367c-0.521,0.521 -1.042,1.3 -1.042,2.083c0,1.3 1.042,2.605 2.604,2.605l23.438,-0l-0,8.07c-0,3.646 -2.083,4.688 -4.167,4.688c-2.346,-0 -3.387,1.042 -3.387,2.346c-0,1.3 0.521,2.862 2.866,2.862l22.396,0c1.3,0 2.604,-1.041 2.604,-2.862c0,-1.825 -1.562,-2.604 -2.866,-2.604c-1.3,-0 -4.167,-0.784 -4.167,-4.95l0,-7.55l9.638,-0c1.3,-0 2.083,-1.042 2.083,-2.605c-0,-1.562 -0.521,-2.604 -2.083,-2.604l-9.638,0" style="fill-rule:nonzero;"/></g><g><path d="M4444.65,159.171c0,-0 -0.258,1.042 -0.258,1.825c-0,1.042 1.041,2.083 2.083,2.083c0.779,0 1.3,-0.783 1.563,-1.041c0.258,-0.784 3.383,-11.459 4.945,-14.063c0.521,-1.042 1.042,-1.304 1.305,-1.304c0.52,-0 0.779,1.042 0.779,1.825l-0,37.237c-0,3.125 -2.604,4.95 -5.209,4.95c-1.041,0 -2.341,0.521 -2.341,2.084c-0,1.562 1.3,2.083 3.383,2.083l21.875,0c2.083,0 2.083,-2.083 2.083,-2.083c0,-0 0,-2.084 -2.083,-2.084c-1.821,0 -4.167,-2.345 -4.167,-4.687l0,-54.167c0,-2.083 -0.779,-3.125 -2.604,-3.125c-1.821,0 -3.383,0.521 -4.946,0.521c-2.604,0 -3.125,0 -5.208,-0.521c-1.042,0 -2.346,1.563 -3.125,2.604l-8.075,27.863" style="fill-rule:nonzero;"/></g><g><path d="M4760.65,140.912c0,-1.825 -0.783,-2.083 -1.562,-2.083c-1.042,0 -1.563,0.779 -1.825,1.563c-1.3,3.645 -4.167,8.333 -8.071,8.333c-0.521,-0 -1.042,-0 -1.563,-0.263l-3.908,-1.3c-2.604,-1.041 -8.854,-3.125 -14.063,-3.125c-1.82,0 -3.383,0.259 -4.945,0.78c2.862,-4.946 16.404,-11.459 19.27,-12.238c9.375,-1.304 17.188,-6.771 17.188,-16.929c-0,-6.25 -2.604,-10.417 -5.992,-13.542c-6.771,-5.466 -16.666,-6.25 -19.529,-6.25c-9.375,0 -16.929,0.521 -23.7,8.334c-1.821,2.083 -2.604,4.166 -2.604,6.25c-0,1.825 0.783,3.908 1.562,6.25c1.563,3.125 4.95,5.47 8.596,5.47c6.509,0 7.292,-6.25 7.292,-9.116c-0,-5.988 -6.513,-6.509 -6.513,-9.113c0,-1.825 2.605,-4.95 10.417,-4.95c12.242,0 16.408,10.159 16.408,13.284c0,4.687 -1.562,9.112 -4.166,12.758c-4.688,5.992 -13.284,8.075 -19.792,12.242c-7.292,4.425 -12.242,11.979 -14.583,20.312c-0,1.821 0.779,3.904 2.341,4.688c0.263,0.258 0.784,0.258 1.042,0.258c2.867,0 4.429,-8.071 12.242,-8.071c5.208,0 7.029,7.029 18.75,7.029c5.466,0 15.625,-0.52 17.708,-20.571" style="fill-rule:nonzero;"/></g><g><path d="M5024.11,74.742l0,-27.867c0,-1.3 -0.258,-2.342 -1.562,-2.342c-1.042,0 -1.821,0.259 -2.604,1.3l-7.813,15.104c-0.521,0.521 -1.3,1.305 -1.3,3.125l0,10.68l-16.929,-0c10.679,-8.855 27.346,-38.284 27.604,-39.846c0,-0.258 0.263,-0.521 0.263,-0.779c-0,-1.042 -1.042,-1.825 -1.825,-1.825c-1.3,-0 -6.771,0.52 -9.113,0.52c-2.346,0 -3.908,-0.52 -4.95,-0.52c-1.3,-0 -3.125,0.52 -3.125,2.604c0,16.666 -13.541,35.679 -16.925,40.367c-0.521,0.52 -1.041,1.299 -1.041,2.083c-0,1.3 1.041,2.604 2.604,2.604l23.437,0l0,8.071c0,3.646 -2.083,4.687 -4.166,4.687c-2.346,0 -3.388,1.042 -3.388,2.346c0,1.3 0.521,2.863 2.867,2.863l22.396,-0c1.3,-0 2.604,-1.042 2.604,-2.863c-0,-1.825 -1.563,-2.604 -2.867,-2.604c-1.3,0 -4.167,-0.783 -4.167,-4.95l0,-7.55l9.638,0c1.3,0 2.083,-1.042 2.083,-2.604c0,-1.563 -0.521,-2.604 -2.083,-2.604l-9.638,-0" style="fill-rule:nonzero;"/></g><g><path d="M5299.53,42.45l0,-27.867c0,-1.3 -0.262,-2.341 -1.562,-2.341c-1.042,-0 -1.825,0.258 -2.605,1.3l-7.812,15.104c-0.521,0.521 -1.304,1.304 -1.304,3.125l-0,10.679l-16.925,0c10.675,-8.854 27.341,-38.283 27.604,-39.846c-0,-0.258 0.258,-0.521 0.258,-0.779c0,-1.042 -1.041,-1.825 -1.821,-1.825c-1.304,0 -6.77,0.521 -9.116,0.521c-2.342,-0 -3.904,-0.521 -4.946,-0.521c-1.304,0 -3.125,0.521 -3.125,2.604c-0,16.667 -13.542,35.679 -16.929,40.367c-0.521,0.521 -1.042,1.3 -1.042,2.083c0,1.3 1.042,2.604 2.604,2.604l23.438,0l-0,8.071c-0,3.646 -2.084,4.688 -4.167,4.688c-2.342,-0 -3.383,1.041 -3.383,2.346c-0,1.3 0.521,2.862 2.862,2.862l22.396,0c1.304,0 2.604,-1.042 2.604,-2.862c0,-1.825 -1.562,-2.605 -2.862,-2.605c-1.304,0 -4.167,-0.783 -4.167,-4.95l0,-7.55l9.633,0c1.305,0 2.084,-1.041 2.084,-2.604c-0,-1.562 -0.521,-2.604 -2.084,-2.604l-9.633,0" style="fill-rule:nonzero;"/></g><g><path d="M5537.73,74.742l0,-27.867c0,-1.3 -0.262,-2.342 -1.562,-2.342c-1.042,0 -1.825,0.259 -2.604,1.3l-7.813,15.104c-0.521,0.521 -1.304,1.305 -1.304,3.125l0,10.68l-16.925,-0c10.675,-8.855 27.342,-38.284 27.604,-39.846c0,-0.258 0.259,-0.521 0.259,-0.779c-0,-1.042 -1.042,-1.825 -1.821,-1.825c-1.304,-0 -6.771,0.52 -9.117,0.52c-2.342,0 -3.904,-0.52 -4.946,-0.52c-1.304,-0 -3.125,0.52 -3.125,2.604c0,16.666 -13.541,35.679 -16.929,40.367c-0.521,0.52 -1.042,1.299 -1.042,2.083c0,1.3 1.042,2.604 2.605,2.604l23.437,0l0,8.071c0,3.646 -2.083,4.687 -4.167,4.687c-2.341,0 -3.383,1.042 -3.383,2.346c0,1.3 0.521,2.863 2.863,2.863l22.395,-0c1.305,-0 2.605,-1.042 2.605,-2.863c-0,-1.825 -1.563,-2.604 -2.863,-2.604c-1.304,0 -4.167,-0.783 -4.167,-4.95l0,-7.55l9.634,0c1.304,0 2.083,-1.042 2.083,-2.604c0,-1.563 -0.521,-2.604 -2.083,-2.604l-9.634,-0" style="fill-rule:nonzero;"/></g><g><path d="M5759.44,64.642c-14.325,-0 -20.575,9.633 -20.575,15.104c-0,3.646 2.083,8.071 8.596,8.333c4.945,0 7.291,-3.125 7.291,-6.512l0,-1.042c-0.262,-3.904 -2.866,-4.167 -3.387,-4.425c-0.521,-0.263 -1.563,-1.304 -1.563,-3.125c0.521,-2.867 4.429,-3.908 5.471,-3.908c13.279,-0 17.188,7.033 17.188,11.458c-0,12.242 -12.5,13.283 -16.409,13.542c-1.821,-0 -3.646,0.783 -3.646,2.346c0,1.562 2.346,1.562 3.388,1.562c15.104,0 17.187,7.813 17.187,11.717c0,15.104 -12.241,15.625 -15.366,15.625c-1.563,-0 -4.167,-0.779 -4.425,-2.084l-0,-1.562c-0,-2.863 0.779,-5.988 1.041,-8.592c0,-4.687 -3.125,-7.554 -7.812,-7.554l-1.042,-0c-1.825,0.521 -3.646,1.562 -4.95,2.867c-1.821,1.562 -2.341,3.904 -2.341,6.25c0.258,8.333 7.55,15.362 20.57,15.625l1.563,-0c12.762,-0 26.042,-6.771 26.042,-18.229c-0,-2.605 -0.521,-4.688 -1.3,-6.25c-0.521,-1.563 -1.563,-2.867 -2.605,-3.909c-0.783,-1.042 -1.825,-1.821 -2.866,-2.604l-2.863,-1.563l-1.562,-0.52c-0.521,-0 -0.784,-0.259 -1.304,-0.259l-1.563,-0.52c-0.779,-0.263 -1.042,-0 -1.3,-0.521c-0.262,-0.263 -0.262,-0.521 -0.262,-0.784c-0,-0.521 0.262,-1.041 0.783,-1.041l4.167,-1.3c1.82,-1.042 3.645,-1.825 4.945,-3.646c2.084,-2.083 2.867,-5.471 2.867,-8.333c0,-12.242 -16.146,-15.625 -21.875,-16.146l-2.083,-0" style="fill-rule:nonzero;"/></g><g><path d="M5985.4,126.879c0,0 -0.258,1.042 -0.258,1.825c-0,1.042 1.041,2.084 2.083,2.084c0.779,-0 1.3,-0.784 1.563,-1.042c0.258,-0.784 3.383,-11.458 4.945,-14.063c0.521,-1.041 1.042,-1.304 1.305,-1.304c0.52,0 0.779,1.042 0.779,1.825l-0,37.238c-0,3.125 -2.604,4.95 -5.209,4.95c-1.041,-0 -2.341,0.521 -2.341,2.083c-0,1.563 1.3,2.083 3.383,2.083l21.875,0c2.083,0 2.083,-2.083 2.083,-2.083c0,0 0,-2.083 -2.083,-2.083c-1.821,-0 -4.167,-2.346 -4.167,-4.688l0,-54.166c0,-2.084 -0.779,-3.125 -2.604,-3.125c-1.821,-0 -3.383,0.52 -4.946,0.52c-2.604,0 -3.125,0 -5.208,-0.52c-1.042,-0 -2.346,1.562 -3.125,2.604l-8.075,27.862" style="fill-rule:nonzero;"/></g><g><path d="M6252.4,203.908l0,-27.866c0,-1.3 -0.262,-2.342 -1.562,-2.342c-1.042,-0 -1.825,0.258 -2.605,1.3l-7.812,15.104c-0.521,0.521 -1.304,1.304 -1.304,3.125l-0,10.679l-16.925,0c10.675,-8.854 27.341,-38.283 27.604,-39.846c-0,-0.258 0.258,-0.52 0.258,-0.779c0,-1.041 -1.041,-1.825 -1.821,-1.825c-1.304,0 -6.77,0.521 -9.116,0.521c-2.342,0 -3.904,-0.521 -4.946,-0.521c-1.304,0 -3.125,0.521 -3.125,2.604c-0,16.667 -13.542,35.68 -16.929,40.367c-0.521,0.521 -1.042,1.3 -1.042,2.083c0,1.3 1.042,2.605 2.604,2.605l23.438,-0l-0,8.07c-0,3.646 -2.084,4.688 -4.167,4.688c-2.342,-0 -3.383,1.042 -3.383,2.346c-0,1.3 0.521,2.862 2.862,2.862l22.396,0c1.304,0 2.604,-1.041 2.604,-2.862c0,-1.825 -1.562,-2.604 -2.862,-2.604c-1.304,-0 -4.167,-0.784 -4.167,-4.95l0,-7.55l9.633,-0c1.305,-0 2.084,-1.042 2.084,-2.605c-0,-1.562 -0.521,-2.604 -2.084,-2.604l-9.633,0" style="fill-rule:nonzero;"/></g><g><path d="M6560.57,256.046c-0,-0 -0.263,1.042 -0.263,1.825c0,1.042 1.042,2.083 2.084,2.083c0.783,0 1.304,-0.783 1.562,-1.041c0.263,-0.784 3.388,-11.459 4.95,-14.063c0.521,-1.042 1.042,-1.304 1.3,-1.304c0.521,-0 0.783,1.042 0.783,1.825l0,37.237c0,3.125 -2.604,4.95 -5.208,4.95c-1.042,0 -2.346,0.521 -2.346,2.084c0,1.562 1.304,2.083 3.388,2.083l21.875,0c2.083,0 2.083,-2.083 2.083,-2.083c0,-0 0,-2.084 -2.083,-2.084c-1.825,0 -4.167,-2.345 -4.167,-4.687l0,-54.167c0,-2.083 -0.783,-3.125 -2.604,-3.125c-1.825,0 -3.388,0.521 -4.95,0.521c-2.604,0 -3.125,0 -5.208,-0.521c-1.042,0 -2.342,1.563 -3.125,2.604l-8.071,27.863" style="fill-rule:nonzero;"/></g><g><path d="M386.889,841.204c23.175,0 51.562,-21.354 51.562,-43.491c0,-13.28 -10.417,-21.613 -25.262,-21.613c-28.646,-0 -51.563,21.092 -51.563,43.487c0,13.542 11.2,21.617 25.263,21.617" style="fill-rule:nonzero;"/></g><g><path d="M723.822,776.621c23.179,-0 51.562,-21.354 51.562,-43.492c0,-13.279 -10.416,-21.612 -25.258,-21.612c-28.646,-0 -51.562,21.091 -51.562,43.487c-0,13.542 11.195,21.617 25.258,21.617" style="fill-rule:nonzero;"/></g><g><path d="M998.176,723.496c-1.562,5.208 -13.804,10.416 -19.792,10.416c-1.562,0 -2.866,-0.52 -3.125,-1.304c-0.52,-1.041 -0.783,-6.77 -0.783,-13.02c0,-8.071 0.263,-17.188 0.783,-19.271c0.521,-4.425 12.5,-9.896 19.009,-9.896c1.825,-0 3.387,0.521 3.908,1.562c0.521,1.304 1.042,7.813 1.042,14.846c-0,7.029 -0.521,14.321 -1.042,16.667m17.967,-42.45c1.825,-0.779 3.125,-2.863 3.125,-4.425l-0,-18.492c-0,-1.3 -0.779,-2.083 -1.821,-2.083c-0.521,-0 -0.783,-0 -1.304,0.262c-0,0 -5.209,2.084 -6.509,2.342c-1.825,-0 -3.645,-1.3 -3.645,-3.383l-0,-31.771c-0,-1.563 -1.563,-2.867 -3.646,-2.867c-2.604,0 -4.167,1.304 -4.167,2.867l0,33.854c-0.262,2.604 -1.042,5.987 -3.387,7.55c-3.125,1.825 -11.98,5.471 -16.405,6.512c-2.345,0 -3.125,-3.125 -3.125,-5.208l0,-31.25c0,-1.562 -1.825,-2.867 -3.645,-2.867c-2.605,0 -4.167,1.305 -4.167,2.867l-0,35.154c-0,3.646 -1.563,6.25 -3.125,7.034c-1.563,0.779 -6.771,2.862 -6.771,2.862c-1.825,0.521 -3.125,2.604 -3.125,4.167l0,18.491c0,1.563 0.779,2.342 2.083,2.342c1.042,0 5.988,-2.342 6.771,-2.862c0.259,-0 0.521,-0.263 0.779,-0.263c1.825,0 3.388,2.604 3.388,4.688l-0,25.783c-0,2.862 -1.304,5.208 -2.867,5.987c-1.562,0.521 -7.029,2.867 -7.029,2.867c-1.825,0.521 -3.125,2.604 -3.125,4.167l0,18.487c0,1.563 0.779,2.346 2.083,2.346c0.259,0 0.78,-0.262 1.042,-0.262c0,-0 3.646,-1.563 5.988,-2.342c0.262,-0.263 0.52,-0.263 0.783,-0.263c1.821,0 3.125,2.867 3.125,4.167l-0,32.033c-0,1.563 1.562,2.863 3.383,2.863c2.604,-0 4.429,-1.3 4.429,-2.863l0,-36.2c0,-3.383 1.3,-5.208 2.605,-5.729l15.883,-6.508c0.262,-0 0.783,-0.263 1.042,-0.263c2.083,0 3.387,3.125 3.387,4.688l0,32.554c0,1.563 1.563,2.863 3.383,2.863c2.867,-0 4.43,-1.3 4.43,-2.863l-0,-36.979c-0,-2.083 1.041,-5.208 2.862,-5.992c1.825,-0.779 7.292,-2.862 7.292,-2.862c1.825,-0.784 3.125,-2.867 3.125,-4.429l-0,-18.488c-0,-1.304 -0.779,-2.083 -1.821,-2.083c-0.521,-0 -0.783,-0 -1.304,0.258l-6.771,2.604c-1.563,0 -3.383,-1.562 -3.383,-4.687l-0,-24.217c-0,-1.825 1.3,-6.771 3.383,-7.554l6.771,-2.604" style="fill-rule:nonzero;"/></g><g><path d="M1060.63,744.329c23.18,0 51.563,-21.354 51.563,-43.491c-0,-13.28 -10.417,-21.613 -25.258,-21.613c-28.646,-0 -51.563,21.092 -51.563,43.487c0,13.542 11.196,21.617 25.258,21.617" style="fill-rule:nonzero;"/></g><g><path d="M1273.45,691.204c-1.563,5.208 -13.8,10.417 -19.792,10.417c-1.562,-0 -2.862,-0.521 -3.125,-1.304c-0.521,-1.042 -0.779,-6.771 -0.779,-13.021c0,-8.071 0.258,-17.188 0.779,-19.271c0.521,-4.425 12.5,-9.896 19.013,-9.896c1.821,0 3.383,0.521 3.904,1.563c0.521,1.304 1.042,7.812 1.042,14.845c-0,7.03 -0.521,14.321 -1.042,16.667m17.971,-42.45c1.821,-0.779 3.125,-2.862 3.125,-4.425l-0,-18.492c-0,-1.3 -0.784,-2.083 -1.825,-2.083c-0.521,0 -0.779,0 -1.3,0.263c-0,-0 -5.209,2.083 -6.513,2.341c-1.821,0 -3.646,-1.3 -3.646,-3.383l0,-31.771c0,-1.562 -1.562,-2.867 -3.645,-2.867c-2.605,0 -4.167,1.305 -4.167,2.867l-0,33.854c-0.258,2.604 -1.042,5.988 -3.383,7.55c-3.125,1.825 -11.98,5.471 -16.409,6.513c-2.341,-0 -3.125,-3.125 -3.125,-5.209l0,-31.25c0,-1.562 -1.821,-2.866 -3.646,-2.866c-2.604,-0 -4.166,1.304 -4.166,2.866l-0,35.155c-0,3.645 -1.563,6.25 -3.125,7.033c-1.563,0.779 -6.771,2.862 -6.771,2.862c-1.821,0.521 -3.125,2.605 -3.125,4.167l-0,18.492c-0,1.562 0.783,2.341 2.083,2.341c1.042,0 5.992,-2.341 6.771,-2.862c0.263,-0 0.521,-0.263 0.783,-0.263c1.821,0 3.384,2.605 3.384,4.688l-0,25.783c-0,2.863 -1.3,5.209 -2.863,5.988c-1.562,0.521 -7.033,2.866 -7.033,2.866c-1.821,0.521 -3.125,2.605 -3.125,4.167l-0,18.488c-0,1.562 0.783,2.345 2.083,2.345c0.263,0 0.784,-0.262 1.042,-0.262c-0,-0 3.646,-1.563 5.992,-2.342c0.258,-0.262 0.52,-0.262 0.779,-0.262c1.825,-0 3.125,2.866 3.125,4.166l-0,32.034c-0,1.562 1.562,2.862 3.387,2.862c2.604,0 4.425,-1.3 4.425,-2.862l0,-36.2c0,-3.384 1.304,-5.209 2.604,-5.729l15.888,-6.509c0.258,0 0.779,-0.262 1.042,-0.262c2.083,-0 3.383,3.125 3.383,4.687l-0,32.554c-0,1.563 1.562,2.863 3.387,2.863c2.863,-0 4.425,-1.3 4.425,-2.863l0,-36.979c0,-2.083 1.042,-5.208 2.867,-5.991c1.821,-0.78 7.292,-2.863 7.292,-2.863c1.821,-0.783 3.125,-2.867 3.125,-4.429l-0,-18.488c-0,-1.304 -0.784,-2.083 -1.825,-2.083c-0.521,0 -0.779,0 -1.3,0.258l-6.771,2.605c-1.563,-0 -3.388,-1.563 -3.388,-4.688l0,-24.217c0,-1.825 1.305,-6.77 3.388,-7.554l6.771,-2.604" style="fill-rule:nonzero;"/></g><g><path d="M1335.91,712.037c23.175,0 51.563,-21.354 51.563,-43.491c-0,-13.279 -10.417,-21.613 -25.263,-21.613c-28.645,0 -51.562,21.092 -51.562,43.488c-0,13.542 11.2,21.616 25.262,21.616" style="fill-rule:nonzero;"/></g><g><path d="M1611.31,647.454c23.175,0 51.562,-21.354 51.562,-43.491c0,-13.28 -10.417,-21.613 -25.262,-21.613c-28.646,-0 -51.563,21.092 -51.563,43.487c0,13.542 11.2,21.617 25.263,21.617" style="fill-rule:nonzero;"/></g><g><path d="M1886.72,615.162c23.175,0 51.562,-21.354 51.562,-43.491c0,-13.279 -10.416,-21.613 -25.262,-21.613c-28.646,0 -51.563,21.092 -51.563,43.488c0,13.542 11.2,21.616 25.263,21.616" style="fill-rule:nonzero;"/></g><g><path d="M2036.91,571.412c0,0 -0.779,-15.625 -0.779,-26.041c0,-4.167 0.259,-7.292 0.521,-8.334c1.821,-5.208 12.238,-12.762 18.229,-12.762c7.55,0 10.675,8.596 10.675,15.104c0,14.063 -11.979,28.125 -23.175,35.158c-1.041,0.521 -1.825,0.78 -2.604,0.78c-2.346,-0 -2.867,-2.605 -2.867,-3.905m-9.112,23.175c0.779,1.042 1.562,1.305 2.342,1.305c0.783,-0 1.562,-0.521 1.562,-0.521c7.813,-4.429 14.063,-11.459 20.575,-15.888c23.175,-16.145 31.25,-32.029 31.25,-44.008c0,-14.846 -11.458,-24.221 -23.437,-25c-4.43,-0 -10.68,2.083 -14.325,4.425c-1.563,1.304 -4.425,3.646 -5.73,3.646c-0.52,-0 -0.779,-0 -1.3,-0.259c-1.825,-0.783 -2.866,-2.604 -2.866,-4.429c0.262,-5.729 1.825,-68.229 1.825,-73.437c-0,-2.863 -2.346,-4.425 -4.95,-4.425c-3.646,-0 -7.813,2.604 -8.071,7.292c-0,-0 1.042,148.695 3.125,151.299" style="fill-rule:nonzero;"/></g><g><path d="M2124.88,582.871c23.175,-0 51.563,-21.354 51.563,-43.492c-0,-13.279 -10.417,-21.612 -25.263,-21.612c-28.646,-0 -51.562,21.091 -51.562,43.487c-0,13.542 11.2,21.617 25.262,21.617" style="fill-rule:nonzero;"/></g><g><path d="M2275.08,539.121c0,-0 -0.783,-15.625 -0.783,-26.042c-0,-4.166 0.262,-7.291 0.521,-8.333c1.825,-5.208 12.241,-12.763 18.229,-12.763c7.554,0 10.679,8.596 10.679,15.105c-0,14.062 -11.979,28.125 -23.179,35.158c-1.042,0.521 -1.821,0.779 -2.604,0.779c-2.342,0 -2.863,-2.604 -2.863,-3.904m-9.117,23.175c0.784,1.042 1.563,1.304 2.346,1.304c0.779,0 1.563,-0.521 1.563,-0.521c7.812,-4.429 14.062,-11.458 20.571,-15.887c23.179,-16.146 31.25,-32.03 31.25,-44.009c-0,-14.845 -11.459,-24.22 -23.438,-25c-4.425,0 -10.675,2.084 -14.321,4.425c-1.562,1.304 -4.429,3.646 -5.729,3.646c-0.521,0 -0.783,0 -1.304,-0.258c-1.821,-0.784 -2.863,-2.604 -2.863,-4.429c0.259,-5.73 1.821,-68.23 1.821,-73.438c0,-2.862 -2.341,-4.425 -4.946,-4.425c-3.645,0 -7.812,2.604 -8.075,7.292c0,-0 1.042,148.696 3.125,151.3" style="fill-rule:nonzero;"/></g><g><path d="M2363.04,550.579c23.179,0 51.562,-21.354 51.562,-43.492c0,-13.279 -10.416,-21.612 -25.258,-21.612c-28.646,-0 -51.563,21.092 -51.563,43.488c0,13.541 11.196,21.616 25.259,21.616" style="fill-rule:nonzero;"/></g><g><path d="M2525.76,507.871c-0,-3.646 15.887,-10.417 22.137,-10.417c1.563,0 2.342,0.258 2.342,1.3l-0,26.825c-0,4.688 -14.842,10.675 -21.354,10.675c-1.821,0 -3.125,-0.521 -3.125,-1.562l-0,-26.821m27.083,-36.979c-0.521,-0 -0.779,0.258 -1.042,0.258c0,0 -16.666,5.992 -23.437,5.992c-1.563,-0 -2.604,-0.263 -2.604,-1.304l-0,-43.488c-0,-1.825 -1.563,-3.125 -3.125,-3.125l-3.384,-0c-1.825,-0 -3.125,1.3 -3.125,3.125l0,134.112c0,1.563 0.779,2.346 2.084,2.346c0.258,0 1.562,-0.262 1.82,-0.521c3.646,-1.562 18.23,-7.812 25.784,-7.812c2.604,-0 4.425,0.779 4.425,2.862l-0,38.805c-0,1.82 1.304,3.125 3.125,3.125l3.387,-0c1.563,-0 3.125,-1.305 3.125,-3.125l0,-130.73c0,-1.304 -1.041,-2.083 -2.083,-2.083c-0.263,0 -0.783,0 -1.042,0.259l-3.908,1.304" style="fill-rule:nonzero;"/></g><g><path d="M2601.27,550.579c23.179,0 51.562,-21.354 51.562,-43.492c0,-13.279 -10.416,-21.612 -25.258,-21.612c-28.646,-0 -51.562,21.092 -51.562,43.488c-0,13.541 11.195,21.616 25.258,21.616" style="fill-rule:nonzero;"/></g><g><path d="M2776.88,497.454c-1.562,5.208 -13.8,10.417 -19.791,10.417c-1.563,-0 -2.863,-0.521 -3.125,-1.304c-0.521,-1.042 -0.779,-6.771 -0.779,-13.021c-0,-8.071 0.258,-17.188 0.779,-19.271c0.521,-4.425 12.5,-9.896 19.012,-9.896c1.821,0 3.384,0.521 3.904,1.563c0.521,1.304 1.042,7.812 1.042,14.846c0,7.029 -0.521,14.32 -1.042,16.666m17.971,-42.45c1.821,-0.779 3.125,-2.862 3.125,-4.425l0,-18.491c0,-1.3 -0.783,-2.084 -1.825,-2.084c-0.521,0 -0.779,0 -1.3,0.263c0,-0 -5.208,2.083 -6.512,2.341c-1.821,0 -3.646,-1.3 -3.646,-3.383l-0,-31.771c-0,-1.562 -1.563,-2.866 -3.646,-2.866c-2.604,-0 -4.167,1.304 -4.167,2.866l0,33.854c-0.258,2.605 -1.041,5.988 -3.383,7.55c-3.125,1.825 -11.979,5.471 -16.408,6.513c-2.342,-0 -3.125,-3.125 -3.125,-5.208l-0,-31.25c-0,-1.563 -1.821,-2.867 -3.646,-2.867c-2.604,-0 -4.167,1.304 -4.167,2.867l0,35.154c0,3.646 -1.562,6.25 -3.125,7.033c-1.562,0.779 -6.771,2.863 -6.771,2.863c-1.82,0.52 -3.125,2.604 -3.125,4.166l0,18.492c0,1.562 0.784,2.342 2.084,2.342c1.041,-0 5.991,-2.342 6.771,-2.863c0.262,0 0.52,-0.262 0.783,-0.262c1.821,-0 3.383,2.604 3.383,4.687l0,25.783c0,2.863 -1.3,5.209 -2.862,5.988c-1.563,0.521 -7.034,2.866 -7.034,2.866c-1.82,0.521 -3.125,2.605 -3.125,4.167l0,18.488c0,1.562 0.784,2.345 2.084,2.345c0.262,0 0.783,-0.262 1.041,-0.262c0,0 3.646,-1.563 5.992,-2.342c0.258,-0.262 0.521,-0.262 0.779,-0.262c1.825,-0 3.125,2.866 3.125,4.166l0,32.034c0,1.562 1.563,2.862 3.388,2.862c2.604,0 4.425,-1.3 4.425,-2.862l-0,-36.2c-0,-3.384 1.304,-5.209 2.604,-5.729l15.887,-6.509c0.259,0 0.78,-0.262 1.042,-0.262c2.083,-0 3.383,3.125 3.383,4.687l0,32.554c0,1.563 1.563,2.863 3.388,2.863c2.862,-0 4.425,-1.3 4.425,-2.863l-0,-36.979c-0,-2.083 1.042,-5.208 2.867,-5.991c1.82,-0.78 7.291,-2.863 7.291,-2.863c1.821,-0.783 3.125,-2.866 3.125,-4.429l0,-18.488c0,-1.304 -0.783,-2.083 -1.825,-2.083c-0.521,0 -0.779,0 -1.3,0.258l-6.771,2.605c-1.562,-0 -3.387,-1.563 -3.387,-4.688l-0,-24.217c-0,-1.825 1.304,-6.77 3.387,-7.554l6.771,-2.604" style="fill-rule:nonzero;"/></g><g><path d="M2839.35,518.287c23.175,0 51.562,-21.354 51.562,-43.491c0,-13.279 -10.416,-21.613 -25.262,-21.613c-28.646,0 -51.563,21.092 -51.563,43.488c0,13.541 11.2,21.616 25.263,21.616" style="fill-rule:nonzero;"/></g><g><path d="M3052.09,465.162c-1.563,5.209 -13.804,10.417 -19.792,10.417c-1.562,0 -2.867,-0.521 -3.125,-1.304c-0.521,-1.042 -0.783,-6.771 -0.783,-13.021c-0,-8.071 0.262,-17.187 0.783,-19.271c0.521,-4.425 12.5,-9.895 19.008,-9.895c1.825,-0 3.388,0.52 3.909,1.562c0.521,1.304 1.041,7.813 1.041,14.846c0,7.029 -0.52,14.321 -1.041,16.666m17.966,-42.45c1.825,-0.779 3.125,-2.862 3.125,-4.425l0,-18.491c0,-1.3 -0.779,-2.084 -1.82,-2.084c-0.521,0 -0.784,0 -1.305,0.263c0,-0 -5.208,2.083 -6.508,2.342c-1.825,-0 -3.646,-1.3 -3.646,-3.384l0,-31.771c0,-1.562 -1.562,-2.866 -3.646,-2.866c-2.604,-0 -4.166,1.304 -4.166,2.866l-0,33.855c-0.263,2.604 -1.042,5.987 -3.388,7.55c-3.125,1.825 -11.979,5.47 -16.404,6.512c-2.346,0 -3.125,-3.125 -3.125,-5.208l0,-31.25c0,-1.563 -1.825,-2.867 -3.646,-2.867c-2.604,0 -4.166,1.304 -4.166,2.867l-0,35.154c-0,3.646 -1.563,6.25 -3.125,7.033c-1.563,0.78 -6.771,2.863 -6.771,2.863c-1.825,0.521 -3.125,2.604 -3.125,4.167l-0,18.491c-0,1.563 0.779,2.342 2.083,2.342c1.042,-0 5.988,-2.342 6.771,-2.863c0.258,0 0.521,-0.262 0.779,-0.262c1.825,-0 3.388,2.604 3.388,4.687l-0,25.784c-0,2.862 -1.305,5.208 -2.867,5.987c-1.563,0.521 -7.029,2.867 -7.029,2.867c-1.825,0.521 -3.125,2.604 -3.125,4.166l-0,18.488c-0,1.563 0.779,2.346 2.083,2.346c0.258,-0 0.779,-0.263 1.042,-0.263c-0,0 3.646,-1.562 5.987,-2.341c0.263,-0.263 0.521,-0.263 0.784,-0.263c1.82,0 3.125,2.867 3.125,4.167l-0,32.033c-0,1.563 1.562,2.863 3.383,2.863c2.604,-0 4.429,-1.3 4.429,-2.863l0,-36.2c0,-3.383 1.3,-5.208 2.604,-5.729l15.884,-6.508c0.262,-0 0.783,-0.263 1.041,-0.263c2.084,0 3.388,3.125 3.388,4.688l-0,32.554c-0,1.562 1.562,2.862 3.383,2.862c2.867,0 4.429,-1.3 4.429,-2.862l0,-36.979c0,-2.084 1.042,-5.209 2.863,-5.992c1.825,-0.779 7.291,-2.863 7.291,-2.863c1.825,-0.783 3.125,-2.866 3.125,-4.429l0,-18.487c0,-1.304 -0.779,-2.084 -1.82,-2.084c-0.521,0 -0.784,0 -1.305,0.259l-6.77,2.604c-1.563,0 -3.384,-1.562 -3.384,-4.687l0,-24.217c0,-1.825 1.3,-6.771 3.384,-7.554l6.77,-2.604" style="fill-rule:nonzero;"/></g><g><path d="M3114.56,485.996c23.175,-0 51.563,-21.354 51.563,-43.492c-0,-13.279 -10.417,-21.612 -25.263,-21.612c-28.646,-0 -51.562,21.091 -51.562,43.487c-0,13.542 11.2,21.617 25.262,21.617" style="fill-rule:nonzero;"/></g><g><path d="M3389.95,421.412c23.179,0 51.563,-21.354 51.563,-43.491c-0,-13.279 -10.417,-21.613 -25.259,-21.613c-28.645,0 -51.562,21.092 -51.562,43.488c-0,13.541 11.196,21.616 25.258,21.616" style="fill-rule:nonzero;"/></g><g><path d="M3772.69,389.121c23.175,-0 51.562,-21.354 51.562,-43.492c0,-13.279 -10.416,-21.612 -25.262,-21.612c-28.646,-0 -51.563,21.091 -51.563,43.487c0,13.542 11.2,21.617 25.263,21.617" style="fill-rule:nonzero;"/></g><g><path d="M4109.65,324.538c23.179,-0 51.563,-21.355 51.563,-43.492c-0,-13.279 -10.417,-21.613 -25.259,-21.613c-28.646,0 -51.562,21.092 -51.562,43.488c-0,13.542 11.196,21.617 25.258,21.617" style="fill-rule:nonzero;"/></g><g><path d="M4383.98,271.413c-1.562,5.208 -13.804,10.416 -19.791,10.416c-1.563,0 -2.867,-0.521 -3.125,-1.304c-0.521,-1.042 -0.784,-6.771 -0.784,-13.021c0,-8.071 0.263,-17.187 0.784,-19.271c0.521,-4.425 12.5,-9.895 19.008,-9.895c1.825,-0 3.388,0.52 3.908,1.562c0.521,1.304 1.042,7.813 1.042,14.846c0,7.029 -0.521,14.321 -1.042,16.667m17.967,-42.45c1.825,-0.78 3.125,-2.863 3.125,-4.425l0,-18.492c0,-1.3 -0.779,-2.083 -1.821,-2.083c-0.521,-0 -0.783,-0 -1.304,0.262c0,0 -5.208,2.083 -6.508,2.342c-1.825,-0 -3.646,-1.3 -3.646,-3.384l-0,-31.771c-0,-1.562 -1.563,-2.866 -3.646,-2.866c-2.604,-0 -4.167,1.304 -4.167,2.867l0,33.854c-0.262,2.604 -1.041,5.987 -3.387,7.55c-3.125,1.825 -11.979,5.471 -16.404,6.512c-2.346,0 -3.125,-3.125 -3.125,-5.208l-0,-31.25c-0,-1.563 -1.825,-2.867 -3.646,-2.867c-2.604,0 -4.167,1.304 -4.167,2.867l0,35.154c0,3.646 -1.562,6.25 -3.125,7.033c-1.562,0.78 -6.771,2.863 -6.771,2.863c-1.825,0.521 -3.125,2.604 -3.125,4.167l0,18.491c0,1.563 0.78,2.342 2.084,2.342c1.041,-0 5.987,-2.342 6.771,-2.863c0.258,0 0.52,-0.262 0.779,-0.262c1.825,-0 3.387,2.604 3.387,4.687l0,25.784c0,2.862 -1.304,5.208 -2.866,5.987c-1.563,0.521 -7.03,2.867 -7.03,2.867c-1.825,0.521 -3.125,2.604 -3.125,4.166l0,18.488c0,1.562 0.78,2.346 2.084,2.346c0.258,-0 0.779,-0.263 1.041,-0.263c0,0 3.646,-1.562 5.988,-2.341c0.262,-0.263 0.521,-0.263 0.783,-0.263c1.821,0 3.125,2.867 3.125,4.167l0,32.033c0,1.563 1.563,2.863 3.384,2.863c2.604,-0 4.429,-1.3 4.429,-2.863l-0,-36.2c-0,-3.383 1.3,-5.208 2.604,-5.729l15.883,-6.508c0.263,-0 0.784,-0.263 1.042,-0.263c2.083,0 3.387,3.125 3.387,4.688l0,32.554c0,1.562 1.563,2.862 3.384,2.862c2.866,0 4.429,-1.3 4.429,-2.862l-0,-36.979c-0,-2.084 1.042,-5.209 2.862,-5.992c1.825,-0.779 7.292,-2.863 7.292,-2.863c1.825,-0.783 3.125,-2.866 3.125,-4.429l0,-18.487c0,-1.304 -0.779,-2.084 -1.821,-2.084c-0.521,0 -0.783,0 -1.304,0.259l-6.771,2.604c-1.562,-0 -3.383,-1.563 -3.383,-4.688l-0,-24.216c-0,-1.825 1.3,-6.771 3.383,-7.554l6.771,-2.605" style="fill-rule:nonzero;"/></g><g><path d="M4446.44,292.246c23.179,-0 51.562,-21.354 51.562,-43.492c0,-13.279 -10.416,-21.612 -25.258,-21.612c-28.646,-0 -51.563,21.091 -51.563,43.487c0,13.542 11.196,21.617 25.259,21.617" style="fill-rule:nonzero;"/></g><g><path d="M4659.28,239.121c-1.562,5.208 -13.804,10.417 -19.792,10.417c-1.562,-0 -2.866,-0.521 -3.125,-1.305c-0.52,-1.041 -0.783,-6.77 -0.783,-13.02c0,-8.071 0.263,-17.188 0.783,-19.271c0.521,-4.425 12.5,-9.896 19.009,-9.896c1.825,-0 3.387,0.521 3.908,1.562c0.521,1.305 1.042,7.813 1.042,14.846c-0,7.029 -0.521,14.321 -1.042,16.667m17.967,-42.45c1.825,-0.779 3.125,-2.863 3.125,-4.425l-0,-18.492c-0,-1.3 -0.779,-2.083 -1.821,-2.083c-0.521,-0 -0.783,-0 -1.304,0.262c-0,0 -5.209,2.084 -6.509,2.342c-1.825,0 -3.645,-1.3 -3.645,-3.383l-0,-31.771c-0,-1.563 -1.563,-2.867 -3.646,-2.867c-2.604,0 -4.167,1.304 -4.167,2.867l0,33.854c-0.262,2.604 -1.042,5.988 -3.387,7.55c-3.125,1.825 -11.98,5.471 -16.405,6.513c-2.345,-0 -3.125,-3.125 -3.125,-5.209l0,-31.25c0,-1.562 -1.825,-2.866 -3.645,-2.866c-2.605,-0 -4.167,1.304 -4.167,2.866l-0,35.154c-0,3.646 -1.563,6.25 -3.125,7.034c-1.563,0.779 -6.771,2.862 -6.771,2.862c-1.825,0.521 -3.125,2.604 -3.125,4.167l0,18.492c0,1.562 0.779,2.341 2.083,2.341c1.042,0 5.988,-2.341 6.771,-2.862c0.259,-0 0.521,-0.263 0.779,-0.263c1.825,0 3.388,2.604 3.388,4.688l-0,25.783c-0,2.863 -1.304,5.208 -2.867,5.988c-1.562,0.52 -7.029,2.866 -7.029,2.866c-1.825,0.521 -3.125,2.604 -3.125,4.167l0,18.487c0,1.563 0.779,2.346 2.083,2.346c0.259,0 0.78,-0.262 1.042,-0.262c0,-0 3.646,-1.563 5.988,-2.342c0.262,-0.262 0.52,-0.262 0.783,-0.262c1.821,-0 3.125,2.866 3.125,4.166l-0,32.034c-0,1.562 1.562,2.862 3.383,2.862c2.604,0 4.429,-1.3 4.429,-2.862l0,-36.2c0,-3.384 1.3,-5.209 2.605,-5.73l15.883,-6.508c0.262,0 0.783,-0.262 1.042,-0.262c2.083,-0 3.387,3.125 3.387,4.687l0,32.554c0,1.563 1.563,2.863 3.383,2.863c2.867,-0 4.43,-1.3 4.43,-2.863l-0,-36.979c-0,-2.083 1.041,-5.208 2.862,-5.992c1.825,-0.779 7.292,-2.862 7.292,-2.862c1.825,-0.783 3.125,-2.867 3.125,-4.429l-0,-18.488c-0,-1.304 -0.779,-2.083 -1.821,-2.083c-0.521,-0 -0.783,-0 -1.304,0.258l-6.771,2.604c-1.563,0 -3.383,-1.562 -3.383,-4.687l-0,-24.217c-0,-1.825 1.3,-6.771 3.383,-7.554l6.771,-2.604" style="fill-rule:nonzero;"/></g><g><path d="M4721.69,259.954c23.179,0 51.562,-21.354 51.562,-43.491c0,-13.28 -10.416,-21.613 -25.258,-21.613c-28.646,0 -51.563,21.092 -51.563,43.488c0,13.541 11.196,21.616 25.259,21.616" style="fill-rule:nonzero;"/></g><g><path d="M4997.11,195.371c23.175,-0 51.563,-21.354 51.563,-43.492c-0,-13.279 -10.417,-21.612 -25.263,-21.612c-28.645,-0 -51.562,21.091 -51.562,43.487c-0,13.542 11.2,21.617 25.262,21.617" style="fill-rule:nonzero;"/></g><g><path d="M5272.53,163.079c23.175,0 51.563,-21.354 51.563,-43.492c-0,-13.279 -10.417,-21.612 -25.263,-21.612c-28.646,0 -51.562,21.092 -51.562,43.488c-0,13.541 11.2,21.616 25.262,21.616" style="fill-rule:nonzero;"/></g><g><path d="M5510.73,195.371c23.175,-0 51.563,-21.354 51.563,-43.492c-0,-13.279 -10.417,-21.612 -25.263,-21.612c-28.645,-0 -51.562,21.091 -51.562,43.487c-0,13.542 11.2,21.617 25.262,21.617" style="fill-rule:nonzero;"/></g><g><path d="M5748.94,227.663c23.179,-0 51.562,-21.355 51.562,-43.492c0,-13.279 -10.416,-21.613 -25.258,-21.613c-28.646,0 -51.563,21.092 -51.563,43.488c0,13.542 11.196,21.617 25.259,21.617" style="fill-rule:nonzero;"/></g><g><path d="M5911.69,217.246c-0,-3.646 15.887,-10.417 22.137,-10.417c1.563,0 2.342,0.259 2.342,1.3l-0,26.825c-0,4.688 -14.842,10.675 -21.354,10.675c-1.821,0 -3.125,-0.521 -3.125,-1.562l-0,-26.821m27.083,-36.979c-0.521,-0 -0.779,0.258 -1.042,0.258c0,0 -16.666,5.992 -23.437,5.992c-1.563,-0 -2.604,-0.263 -2.604,-1.304l-0,-43.488c-0,-1.825 -1.563,-3.125 -3.125,-3.125l-3.384,0c-1.825,0 -3.125,1.3 -3.125,3.125l0,134.113c0,1.562 0.78,2.345 2.084,2.345c0.258,0 1.562,-0.262 1.821,-0.52c3.645,-1.563 18.229,-7.813 25.783,-7.813c2.604,0 4.425,0.779 4.425,2.863l-0,38.804c-0,1.82 1.304,3.125 3.125,3.125l3.387,-0c1.563,-0 3.125,-1.305 3.125,-3.125l0,-130.73c0,-1.304 -1.041,-2.083 -2.083,-2.083c-0.262,0 -0.783,0 -1.042,0.258l-3.908,1.305" style="fill-rule:nonzero;"/></g><g><path d="M5987.19,259.954c23.179,0 51.562,-21.354 51.562,-43.491c0,-13.28 -10.416,-21.613 -25.258,-21.613c-28.646,0 -51.563,21.092 -51.563,43.488c0,13.541 11.196,21.616 25.259,21.616" style="fill-rule:nonzero;"/></g><g><path d="M6225.4,324.538c23.179,-0 51.563,-21.355 51.563,-43.492c-0,-13.279 -10.417,-21.613 -25.259,-21.613c-28.646,0 -51.562,21.092 -51.562,43.488c-0,13.542 11.196,21.617 25.258,21.617" style="fill-rule:nonzero;"/></g><g><path d="M6562.36,389.121c23.175,-0 51.563,-21.354 51.563,-43.492c-0,-13.279 -10.417,-21.612 -25.263,-21.612c-28.645,-0 -51.562,21.091 -51.562,43.487c-0,13.542 11.2,21.617 25.262,21.617" style="fill-rule:nonzero;"/></g><g><path d="M135.664,514.379c0.779,4.95 0.779,4.688 -3.909,6.25c-22.916,7.813 -37.758,28.388 -37.758,50.521c-0,23.438 12.237,40.104 29.946,46.096c2.083,0.779 5.208,1.562 7.033,1.562c2.083,0 3.125,-1.304 3.125,-2.866c0,-1.821 -2.083,-2.604 -3.908,-3.384c-10.938,-4.687 -18.75,-15.887 -18.75,-27.866c-0,-14.842 10.158,-26.042 26.041,-30.467c4.167,-1.042 4.688,-0.783 5.209,2.083l13.021,77.604c0.52,2.863 0.262,2.863 -3.646,3.646c-4.167,0.78 -9.375,1.3 -14.584,1.3c-45.57,0 -75,-25.258 -75,-61.458c0,-15.363 2.605,-35.937 24.221,-60.417c15.625,-17.445 27.604,-27.083 39.842,-36.979c2.604,-2.083 3.125,-1.821 3.646,1.042l5.471,33.333m28.383,-177.341c8.596,-0 15.625,7.029 15.625,21.354c-0,28.904 -24.738,52.341 -45.313,70.312c-1.82,1.563 -2.862,1.3 -3.383,-2.083c-1.042,-6.771 -1.562,-15.625 -1.562,-23.958c-0,-40.625 18.75,-65.625 34.633,-65.625m-10.417,218.75c-0.521,-3.125 -0.258,-3.909 2.867,-3.646c21.092,1.821 38.542,19.529 38.542,42.446c-0,16.408 -9.896,29.687 -24.48,36.979c-3.125,1.562 -3.645,1.562 -4.166,-1.563l-12.763,-74.216m-14.062,-81.25c-0.521,-3.125 -0,-3.388 1.562,-4.95c28.125,-26.3 49.479,-59.375 49.479,-99.217c0,-22.658 -6.25,-45.054 -16.925,-60.679c-3.908,-5.729 -10.679,-13.021 -13.541,-13.021c-3.646,-0 -11.721,6.771 -16.929,12.5c-19.271,21.354 -25.521,53.908 -25.521,80.992c-0,15.104 1.825,32.029 3.646,42.708c0.52,3.125 0.783,3.646 -2.342,6.25c-37.5,30.987 -77.346,68.229 -77.346,120.833c0,45.313 30.992,88.279 94.792,88.279c5.991,0 12.762,-0.52 17.971,-1.562c2.862,-0.521 3.383,-0.779 3.904,2.346c3.125,17.446 7.033,40.104 7.033,52.341c0,38.542 -26.042,43.23 -41.408,43.23c-14.063,-0 -20.834,-4.167 -20.834,-7.55c0,-1.825 2.346,-2.605 8.334,-4.43c8.075,-2.341 17.45,-9.375 17.45,-24.479c-0,-14.321 -9.117,-26.562 -25,-26.562c-17.45,-0 -27.867,13.804 -27.867,29.95c0,16.925 10.158,42.446 49.479,42.446c17.45,-0 51.304,-7.813 51.304,-52.084c0,-14.841 -4.687,-39.583 -7.554,-55.729c-0.521,-3.125 -0.258,-2.862 3.388,-4.425c26.3,-10.417 43.75,-32.554 43.75,-61.979c-0,-33.333 -24.479,-62.763 -62.763,-62.763c-6.771,0 -6.771,0 -7.55,-4.687l-6.512,-37.758" style="fill-rule:nonzero;"/></g><g><text x="1310.61px" y="856.721px" style="font-family:'Bravura';font-size:260.417px;"></text></g><g><text x="3050.88px" y="798.121px" style="font-family:'Bravura';font-size:260.417px;"></text></g><g><text x="4658.03px" y="760.996px" style="font-family:'Bravura';font-size:260.417px;"></text></g><g><path d="M430.718,550.317l-0,-32.434l344.658,-32.291l0,32.433l-344.658,32.292" style="fill-rule:nonzero;"/></g><g><path d="M1104.41,485.733l-0,-32.641l558.462,-80.729l0,32.641l-558.462,80.729" style="fill-rule:nonzero;"/></g><g><path d="M1861.44,792.583l-0,-32.316l722.266,-32.292l0,32.317l-722.266,32.291" style="fill-rule:nonzero;"/></g><g><path d="M1861.44,744.108l-0,-32.333l722.266,-32.292l0,32.334l-722.266,32.291" style="fill-rule:nonzero;"/></g><g><path d="M2814.05,711.996l-0,-32.513l558.333,-64.583l0,32.513l-558.333,64.583" style="fill-rule:nonzero;"/></g><g><path d="M3747.4,599.342l0,-32.879l344.792,-64.584l-0,32.879l-344.792,64.584" style="fill-rule:nonzero;"/></g><g><path d="M4421.19,534.183l-0,-32.304l558.462,-16.146l0,32.305l-558.462,16.145" style="fill-rule:nonzero;"/></g><g><path d="M5247.23,518.054l0,-32.308l722.396,16.146l0,32.308l-722.396,-16.146" style="fill-rule:nonzero;"/></g><g><path d="M5247.23,469.6l0,-32.304l722.396,16.146l0,32.304l-722.396,-16.146" style="fill-rule:nonzero;"/></g><g><path d="M6200.11,534.758l0,-32.879l344.659,64.584l-0,32.879l-344.659,-64.584" style="fill-rule:nonzero;"/></g><g><path d="M1014.05,808.912l264.325,0l-0,-10.337l-254.038,0l0,-38.1l-10.287,-0" style="fill-rule:nonzero;"/></g><g><path d="M1668.08,808.912l-248.175,0l0,-10.337l237.759,0l-0,-38.1l10.416,-0" style="fill-rule:nonzero;"/></g><g><path d="M9.364,1293.03l2827.99,0" style="fill:none;stroke:#000;stroke-width:8.38px;"/><path d="M9.364,1357.61l2827.99,0" style="fill:none;stroke:#000;stroke-width:8.38px;"/><path d="M9.364,1422.19l2827.99,-0" style="fill:none;stroke:#000;stroke-width:8.38px;"/><path d="M9.364,1486.78l2827.99,0" style="fill:none;stroke:#000;stroke-width:8.38px;"/><path d="M9.364,1551.36l2827.99,0" style="fill:none;stroke:#000;stroke-width:8.38px;"/></g><g><path d="M2143.48,1288.83l0,266.717" style="fill:none;stroke:#000;stroke-width:10.33px;"/><path d="M2767.56,1288.83l-0,266.717" style="fill:none;stroke:#000;stroke-width:10.33px;"/></g><g><path d="M2821.21,1288.83l0,266.717" style="fill:none;stroke:#000;stroke-width:32.29px;"/></g><g><path d="M365.48,1303.87l0,248.608" style="fill:none;stroke:#000;stroke-width:7.75px;"/><path d="M548.164,1400.75l-0,200.171" style="fill:none;stroke:#000;stroke-width:7.75px;"/><path d="M799.984,1228.03l0,183.321" style="fill:none;stroke:#000;stroke-width:7.75px;"/><path d="M949.334,1252.25l0,191.392" style="fill:none;stroke:#000;stroke-width:7.75px;"/><path d="M1098.56,1276.46l0,199.466" style="fill:none;stroke:#000;stroke-width:7.75px;"/><path d="M1247.9,1292.25l0,215.975" style="fill:none;stroke:#000;stroke-width:7.75px;"/><path d="M1430.06,1332.61l-0,240.196" style="fill:none;stroke:#000;stroke-width:7.75px;"/><path d="M1612.1,1372.98l-0,232.121" style="fill:none;stroke:#000;stroke-width:7.75px;"/></g><g><path d="M1528.5,1615.94l113.413,-0" style="fill:none;stroke:#000;stroke-width:10.33px;"/></g><g><path d="M1761.44,1422.14l-0,215.246" style="fill:none;stroke:#000;stroke-width:7.75px;"/></g><g><path d="M1662.75,1615.94l128.383,-0" style="fill:none;stroke:#000;stroke-width:10.33px;"/></g><g><path d="M1910.79,1430.21l-0,239.466" style="fill:none;stroke:#000;stroke-width:7.75px;"/></g><g><path d="M1812.1,1680.53l128.383,0" style="fill:none;stroke:#000;stroke-width:10.33px;"/><path d="M1812.1,1615.94l128.383,-0" style="fill:none;stroke:#000;stroke-width:10.33px;"/></g><g><path d="M2060.14,1438.29l-0,263.683" style="fill:none;stroke:#000;stroke-width:7.75px;"/></g><g><path d="M1961.44,1680.53l128.387,0" style="fill:none;stroke:#000;stroke-width:10.33px;"/><path d="M1961.44,1615.94l128.387,-0" style="fill:none;stroke:#000;stroke-width:10.33px;"/><path d="M2219.78,1680.53l161.588,0" style="fill:none;stroke:#000;stroke-width:10.33px;"/><path d="M2219.78,1615.94l161.588,-0" style="fill:none;stroke:#000;stroke-width:10.33px;"/></g><g><path d="M413.889,1204.95l-0,-27.867c-0,-1.3 -0.259,-2.341 -1.563,-2.341c-1.042,-0 -1.821,0.258 -2.604,1.3l-7.813,15.104c-0.52,0.521 -1.3,1.304 -1.3,3.125l0,10.679l-16.929,-0c10.679,-8.854 27.346,-38.283 27.604,-39.846c0,-0.258 0.263,-0.521 0.263,-0.779c-0,-1.042 -1.042,-1.825 -1.825,-1.825c-1.3,-0 -6.771,0.521 -9.113,0.521c-2.345,-0 -3.908,-0.521 -4.95,-0.521c-1.3,-0 -3.125,0.521 -3.125,2.604c0,16.667 -13.541,35.679 -16.925,40.367c-0.52,0.521 -1.041,1.3 -1.041,2.083c-0,1.3 1.041,2.604 2.604,2.604l23.437,0l0,8.071c0,3.646 -2.083,4.688 -4.166,4.688c-2.346,-0 -3.388,1.041 -3.388,2.345c0,1.3 0.521,2.863 2.867,2.863l22.396,-0c1.3,-0 2.604,-1.042 2.604,-2.863c-0,-1.825 -1.563,-2.604 -2.867,-2.604c-1.3,0 -4.166,-0.783 -4.166,-4.95l-0,-7.55l9.637,0c1.3,0 2.083,-1.042 2.083,-2.604c0,-1.563 -0.52,-2.604 -2.083,-2.604l-9.637,-0" style="fill-rule:nonzero;"/></g><g><path d="M567.797,1192.77c-0,-0 -0.258,1.042 -0.258,1.821c-0,1.041 1.041,2.083 2.083,2.083c0.779,0 1.3,-0.779 1.562,-1.042c0.259,-0.779 3.384,-11.458 4.946,-14.062c0.521,-1.042 1.042,-1.3 1.304,-1.3c0.521,-0 0.78,1.041 0.78,1.821l-0,37.241c-0,3.125 -2.605,4.946 -5.209,4.946c-1.041,0 -2.341,0.521 -2.341,2.084c-0,1.562 1.3,2.083 3.383,2.083l21.875,-0c2.083,-0 2.083,-2.083 2.083,-2.083c0,-0 0,-2.084 -2.083,-2.084c-1.821,0 -4.167,-2.341 -4.167,-4.687l0,-54.167c0,-2.083 -0.779,-3.125 -2.604,-3.125c-1.821,0 -3.383,0.521 -4.946,0.521c-2.604,-0 -3.125,-0 -5.208,-0.521c-1.042,0 -2.346,1.563 -3.125,2.604l-8.075,27.867" style="fill-rule:nonzero;"/></g><g><path d="M779.284,1156.35l0,-27.862c0,-1.305 -0.258,-2.346 -1.562,-2.346c-1.042,-0 -1.821,0.262 -2.604,1.304l-7.813,15.104c-0.521,0.521 -1.3,1.3 -1.3,3.125l0,10.675l-16.929,0c10.679,-8.854 27.346,-38.279 27.604,-39.842c0,-0.262 0.263,-0.52 0.263,-0.783c-0,-1.042 -1.042,-1.821 -1.825,-1.821c-1.3,0 -6.771,0.521 -9.113,0.521c-2.346,0 -3.908,-0.521 -4.95,-0.521c-1.3,0 -3.125,0.521 -3.125,2.604c0,16.667 -13.541,35.675 -16.925,40.363c-0.521,0.521 -1.041,1.304 -1.041,2.083c-0,1.304 1.041,2.604 2.604,2.604l23.437,0l0,8.075c0,3.646 -2.083,4.688 -4.166,4.688c-2.346,-0 -3.388,1.041 -3.388,2.341c0,1.305 0.521,2.867 2.867,2.867l22.396,0c1.3,0 2.604,-1.042 2.604,-2.867c-0,-1.82 -1.563,-2.604 -2.867,-2.604c-1.3,0 -4.167,-0.779 -4.167,-4.946l0,-7.554l9.638,0c1.3,0 2.083,-1.041 2.083,-2.604c0,-1.562 -0.521,-2.604 -2.083,-2.604l-9.638,-0" style="fill-rule:nonzero;"/></g><g><path d="M940.572,1171.27c-0,-1.821 -0.783,-2.083 -1.563,-2.083c-1.041,-0 -1.562,0.783 -1.825,1.562c-1.3,3.646 -4.166,8.333 -8.07,8.333c-0.521,0 -1.042,0 -1.563,-0.258l-3.908,-1.304c-2.604,-1.042 -8.854,-3.125 -14.063,-3.125c-1.821,-0 -3.383,0.262 -4.946,0.783c2.863,-4.95 16.405,-11.458 19.271,-12.241c9.375,-1.3 17.188,-6.771 17.188,-16.925c-0,-6.25 -2.604,-10.417 -5.992,-13.542c-6.771,-5.471 -16.667,-6.25 -19.529,-6.25c-9.375,-0 -16.929,0.521 -23.7,8.333c-1.821,2.084 -2.604,4.167 -2.604,6.25c-0,1.821 0.783,3.904 1.562,6.25c1.563,3.125 4.95,5.467 8.596,5.467c6.508,-0 7.292,-6.25 7.292,-9.113c-0,-5.991 -6.513,-6.512 -6.513,-9.116c0,-1.821 2.604,-4.946 10.417,-4.946c12.242,-0 16.408,10.154 16.408,13.279c0,4.688 -1.562,9.117 -4.166,12.763c-4.688,5.987 -13.284,8.07 -19.792,12.237c-7.292,4.429 -12.242,11.979 -14.583,20.313c-0,1.825 0.779,3.908 2.341,4.687c0.263,0.263 0.784,0.263 1.042,0.263c2.867,-0 4.429,-8.075 12.242,-8.075c5.208,-0 7.029,7.033 18.75,7.033c5.466,-0 15.625,-0.521 17.708,-20.575" style="fill-rule:nonzero;"/></g><g><path d="M1049.16,1182.6c-0,0 -0.259,1.042 -0.259,1.825c0,1.042 1.042,2.083 2.084,2.083c0.779,0 1.3,-0.783 1.562,-1.041c0.258,-0.784 3.383,-11.459 4.946,-14.063c0.521,-1.042 1.042,-1.304 1.304,-1.304c0.521,0 0.779,1.042 0.779,1.825l0,37.237c0,3.125 -2.604,4.95 -5.208,4.95c-1.042,0 -2.342,0.521 -2.342,2.084c0,1.562 1.3,2.083 3.384,2.083l21.875,0c2.083,0 2.083,-2.083 2.083,-2.083c-0,-0 -0,-2.084 -2.083,-2.084c-1.821,0 -4.167,-2.345 -4.167,-4.687l-0,-54.167c-0,-2.083 -0.779,-3.125 -2.604,-3.125c-1.821,0 -3.384,0.521 -4.946,0.521c-2.604,0 -3.125,0 -5.208,-0.521c-1.042,0 -2.346,1.563 -3.125,2.604l-8.075,27.863" style="fill-rule:nonzero;"/></g><g><path d="M1227.29,1205.01l-0,-27.862c-0,-1.304 -0.259,-2.346 -1.563,-2.346c-1.042,0 -1.821,0.263 -2.604,1.304l-7.813,15.104c-0.52,0.521 -1.3,1.3 -1.3,3.125l0,10.675l-16.929,0c10.679,-8.854 27.346,-38.279 27.604,-39.841c0,-0.263 0.263,-0.521 0.263,-0.784c-0,-1.041 -1.042,-1.821 -1.825,-1.821c-1.3,0 -6.771,0.521 -9.113,0.521c-2.345,0 -3.908,-0.521 -4.95,-0.521c-1.3,0 -3.125,0.521 -3.125,2.605c0,16.666 -13.541,35.675 -16.925,40.362c-0.52,0.521 -1.041,1.304 -1.041,2.083c-0,1.305 1.041,2.605 2.604,2.605l23.437,-0l0,8.075c0,3.645 -2.083,4.687 -4.166,4.687c-2.346,0 -3.388,1.042 -3.388,2.342c0,1.304 0.521,2.866 2.867,2.866l22.396,0c1.3,0 2.604,-1.041 2.604,-2.866c-0,-1.821 -1.563,-2.604 -2.867,-2.604c-1.3,-0 -4.166,-0.78 -4.166,-4.946l-0,-7.554l9.637,-0c1.3,-0 2.083,-1.042 2.083,-2.605c0,-1.562 -0.52,-2.604 -2.083,-2.604l-9.637,0" style="fill-rule:nonzero;"/></g><g><path d="M1421.33,1207.61c0,-1.821 -0.783,-2.084 -1.562,-2.084c-1.042,0 -1.563,0.784 -1.825,1.563c-1.3,3.646 -4.167,8.333 -8.071,8.333c-0.521,0 -1.042,0 -1.563,-0.258l-3.908,-1.304c-2.604,-1.042 -8.854,-3.125 -14.063,-3.125c-1.82,-0 -3.383,0.262 -4.945,0.783c2.862,-4.95 16.404,-11.458 19.27,-12.242c9.375,-1.3 17.188,-6.771 17.188,-16.925c-0,-6.25 -2.604,-10.417 -5.992,-13.542c-6.771,-5.47 -16.666,-6.25 -19.529,-6.25c-9.375,0 -16.929,0.521 -23.7,8.334c-1.821,2.083 -2.604,4.166 -2.604,6.25c-0,1.821 0.783,3.904 1.562,6.25c1.563,3.125 4.95,5.466 8.596,5.466c6.509,0.001 7.292,-6.249 7.292,-9.112c-0,-5.992 -6.513,-6.512 -6.513,-9.117c0,-1.821 2.605,-4.946 10.417,-4.946c12.242,0 16.408,10.155 16.408,13.28c0,4.687 -1.562,9.116 -4.166,12.762c-4.688,5.988 -13.284,8.071 -19.792,12.238c-7.292,4.429 -12.242,11.979 -14.583,20.312c-0,1.825 0.779,3.909 2.341,4.688c0.263,0.262 0.784,0.262 1.042,0.262c2.867,0 4.429,-8.075 12.242,-8.075c5.208,0 7.029,7.034 18.75,7.034c5.466,-0.001 15.625,-0.521 17.708,-20.575" style="fill-rule:nonzero;"/></g><g><path d="M1562.69,1192.77c-0,-0 -0.263,1.042 -0.263,1.821c0,1.041 1.042,2.083 2.084,2.083c0.783,0 1.304,-0.779 1.562,-1.042c0.263,-0.779 3.388,-11.458 4.95,-14.062c0.521,-1.042 1.042,-1.3 1.3,-1.3c0.521,-0 0.783,1.041 0.783,1.821l0,37.241c0,3.125 -2.604,4.946 -5.208,4.946c-1.042,0 -2.346,0.521 -2.346,2.084c0,1.562 1.304,2.083 3.388,2.083l21.875,-0c2.083,-0 2.083,-2.083 2.083,-2.083c0,-0 0,-2.084 -2.083,-2.084c-1.825,0 -4.167,-2.341 -4.167,-4.687l0,-54.167c0,-2.083 -0.783,-3.125 -2.604,-3.125c-1.825,0 -3.388,0.521 -4.95,0.521c-2.604,-0 -3.125,-0 -5.208,-0.521c-1.042,0 -2.342,1.563 -3.125,2.604l-8.071,27.867" style="fill-rule:nonzero;"/></g><g><path d="M1740.81,1205.01l0,-27.862c0,-1.304 -0.262,-2.346 -1.562,-2.346c-1.042,0 -1.825,0.263 -2.604,1.304l-7.813,15.104c-0.521,0.521 -1.304,1.3 -1.304,3.125l-0,10.675l-16.925,0c10.675,-8.854 27.342,-38.279 27.604,-39.841c0,-0.263 0.258,-0.521 0.258,-0.784c0,-1.041 -1.041,-1.821 -1.82,-1.821c-1.305,0 -6.771,0.521 -9.117,0.521c-2.342,0 -3.904,-0.521 -4.946,-0.521c-1.304,0 -3.125,0.521 -3.125,2.605c0,16.666 -13.542,35.675 -16.929,40.362c-0.521,0.521 -1.042,1.304 -1.042,2.083c0,1.305 1.042,2.605 2.604,2.605l23.438,-0l-0,8.075c-0,3.645 -2.083,4.687 -4.167,4.687c-2.341,0 -3.383,1.042 -3.383,2.342c-0,1.304 0.521,2.866 2.862,2.866l22.396,0c1.304,0 2.604,-1.041 2.604,-2.866c0,-1.821 -1.562,-2.604 -2.862,-2.604c-1.304,-0 -4.167,-0.78 -4.167,-4.946l0,-7.554l9.634,-0c1.304,-0 2.083,-1.042 2.083,-2.605c-0,-1.562 -0.521,-2.604 -2.083,-2.604l-9.634,0" style="fill-rule:nonzero;"/></g><g><path d="M1902.09,1207.61c-0,-1.821 -0.779,-2.084 -1.563,-2.084c-1.041,0 -1.562,0.784 -1.821,1.563c-1.304,3.646 -4.166,8.333 -8.075,8.333c-0.52,0 -1.041,0 -1.562,-0.258l-3.904,-1.304c-2.604,-1.042 -8.854,-3.125 -14.063,-3.125c-1.825,-0 -3.387,0.262 -4.95,0.783c2.867,-4.95 16.409,-11.458 19.271,-12.242c9.375,-1.3 17.188,-6.771 17.188,-16.925c-0,-6.25 -2.605,-10.417 -5.988,-13.542c-6.771,-5.47 -16.667,-6.25 -19.533,-6.25c-9.375,0 -16.925,0.521 -23.696,8.334c-1.825,2.083 -2.604,4.166 -2.604,6.25c-0,1.821 0.779,3.904 1.562,6.25c1.563,3.125 4.946,5.466 8.592,5.466c6.512,0.001 7.292,-6.249 7.292,-9.112c-0,-5.992 -6.509,-6.512 -6.509,-9.117c0,-1.821 2.604,-4.946 10.417,-4.946c12.237,0 16.404,10.155 16.404,13.28c0,4.687 -1.562,9.116 -4.167,12.762c-4.687,5.988 -13.279,8.071 -19.791,12.238c-7.292,4.429 -12.238,11.979 -14.584,20.312c0,1.825 0.784,3.909 2.346,4.688c0.259,0.262 0.779,0.262 1.042,0.262c2.862,0 4.425,-8.075 12.237,-8.075c5.209,0 7.034,7.034 18.75,7.034c5.471,-0.001 15.625,-0.521 17.709,-20.575" style="fill-rule:nonzero;"/></g><g><path d="M2010.69,1192.77c-0,-0 -0.263,1.042 -0.263,1.821c0,1.041 1.042,2.083 2.083,2.083c0.784,0 1.305,-0.779 1.563,-1.042c0.262,-0.779 3.387,-11.458 4.95,-14.062c0.521,-1.042 1.042,-1.3 1.3,-1.3c0.521,-0 0.783,1.041 0.783,1.821l0,37.241c0,3.125 -2.604,4.946 -5.208,4.946c-1.042,0 -2.346,0.521 -2.346,2.084c0,1.562 1.304,2.083 3.388,2.083l21.875,-0c2.083,-0 2.083,-2.083 2.083,-2.083c-0,-0 -0,-2.084 -2.083,-2.084c-1.825,0 -4.167,-2.341 -4.167,-4.687l-0,-54.167c-0,-2.083 -0.783,-3.125 -2.604,-3.125c-1.825,0 -3.388,0.521 -4.95,0.521c-2.604,-0 -3.125,-0 -5.209,-0.521c-1.041,0 -2.341,1.563 -3.125,2.604l-8.07,27.867" style="fill-rule:nonzero;"/></g><g><path d="M2285.62,1192.77c-0,-0 -0.263,1.042 -0.263,1.821c0,1.041 1.042,2.083 2.084,2.083c0.783,0 1.304,-0.779 1.562,-1.042c0.263,-0.779 3.388,-11.458 4.95,-14.062c0.521,-1.042 1.042,-1.3 1.3,-1.3c0.521,-0 0.784,1.041 0.784,1.821l-0,37.241c-0,3.125 -2.605,4.946 -5.209,4.946c-1.041,0 -2.346,0.521 -2.346,2.084c0,1.562 1.305,2.083 3.388,2.083l21.875,-0c2.083,-0 2.083,-2.083 2.083,-2.083c0,-0 0,-2.084 -2.083,-2.084c-1.825,0 -4.167,-2.341 -4.167,-4.687l0,-54.167c0,-2.083 -0.783,-3.125 -2.604,-3.125c-1.825,0 -3.387,0.521 -4.95,0.521c-2.604,-0 -3.125,-0 -5.208,-0.521c-1.042,0 -2.342,1.563 -3.125,2.604l-8.071,27.867" style="fill-rule:nonzero;"/></g><g><path d="M386.889,1325.58c23.175,0 51.562,-21.354 51.562,-43.491c0,-13.28 -10.417,-21.613 -25.262,-21.613c-28.646,0 -51.563,21.092 -51.563,43.488c0,13.541 11.2,21.616 25.263,21.616" style="fill-rule:nonzero;"/></g><g><path d="M507.13,1401.62c-1.562,5.208 -13.804,10.417 -19.791,10.417c-1.563,-0 -2.867,-0.521 -3.125,-1.304c-0.521,-1.042 -0.784,-6.771 -0.784,-13.021c0,-8.071 0.263,-17.188 0.784,-19.271c0.52,-4.425 12.5,-9.896 19.008,-9.896c1.825,0 3.387,0.521 3.908,1.563c0.521,1.304 1.042,7.812 1.042,14.845c-0,7.03 -0.521,14.321 -1.042,16.667m17.967,-42.45c1.825,-0.779 3.125,-2.862 3.125,-4.425l-0,-18.492c-0,-1.3 -0.779,-2.083 -1.821,-2.083c-0.521,0 -0.783,0 -1.304,0.263c-0,-0 -5.208,2.083 -6.508,2.341c-1.825,0 -3.646,-1.3 -3.646,-3.383l-0,-31.771c-0,-1.562 -1.563,-2.867 -3.646,-2.867c-2.604,0 -4.167,1.305 -4.167,2.867l0,33.854c-0.262,2.604 -1.041,5.988 -3.387,7.55c-3.125,1.825 -11.979,5.471 -16.404,6.513c-2.346,-0 -3.125,-3.125 -3.125,-5.209l-0,-31.25c-0,-1.562 -1.825,-2.866 -3.646,-2.866c-2.604,-0 -4.167,1.304 -4.167,2.866l0,35.155c0,3.645 -1.562,6.25 -3.125,7.033c-1.562,0.779 -6.771,2.862 -6.771,2.862c-1.825,0.521 -3.125,2.605 -3.125,4.167l0,18.492c0,1.562 0.779,2.341 2.084,2.341c1.041,0 5.987,-2.341 6.77,-2.862c0.259,-0 0.521,-0.263 0.78,-0.263c1.825,0 3.387,2.605 3.387,4.688l0,25.783c0,2.863 -1.304,5.209 -2.867,5.988c-1.562,0.521 -7.029,2.866 -7.029,2.866c-1.825,0.521 -3.125,2.605 -3.125,4.167l0,18.488c0,1.562 0.779,2.345 2.084,2.345c0.258,0 0.779,-0.262 1.041,-0.262c0,-0 3.646,-1.563 5.988,-2.342c0.262,-0.262 0.521,-0.262 0.783,-0.262c1.821,-0 3.125,2.866 3.125,4.166l0,32.034c0,1.562 1.563,2.862 3.383,2.862c2.605,0 4.43,-1.3 4.43,-2.862l-0,-36.2c-0,-3.384 1.3,-5.209 2.604,-5.729l15.883,-6.509c0.263,0 0.783,-0.262 1.042,-0.262c2.083,-0 3.387,3.125 3.387,4.687l0,32.554c0,1.563 1.563,2.863 3.384,2.863c2.866,-0 4.429,-1.3 4.429,-2.863l-0,-36.979c-0,-2.083 1.041,-5.208 2.862,-5.991c1.825,-0.78 7.292,-2.863 7.292,-2.863c1.825,-0.783 3.125,-2.867 3.125,-4.429l-0,-18.488c-0,-1.304 -0.779,-2.083 -1.821,-2.083c-0.521,0 -0.783,0 -1.304,0.258l-6.771,2.605c-1.562,-0 -3.383,-1.563 -3.383,-4.688l-0,-24.217c-0,-1.825 1.3,-6.77 3.383,-7.554l6.771,-2.604" style="fill-rule:nonzero;"/></g><g><path d="M569.584,1422.46c23.18,0 51.563,-21.354 51.563,-43.491c-0,-13.279 -10.417,-21.613 -25.258,-21.613c-28.646,0 -51.563,21.092 -51.563,43.488c0,13.541 11.196,21.616 25.258,21.616" style="fill-rule:nonzero;"/></g><g><path d="M752.284,1454.75c23.175,0 51.563,-21.354 51.563,-43.492c-0,-13.279 -10.417,-21.612 -25.263,-21.612c-28.645,-0 -51.558,21.092 -51.558,43.487c0,13.542 11.196,21.617 25.258,21.617" style="fill-rule:nonzero;"/></g><g><path d="M901.614,1487.04c23.175,-0 51.562,-21.354 51.562,-43.492c0,-13.279 -10.417,-21.612 -25.262,-21.612c-28.646,-0 -51.563,21.091 -51.563,43.487c0,13.542 11.2,21.617 25.263,21.617" style="fill-rule:nonzero;"/></g><g><path d="M1050.95,1519.33c23.179,0 51.562,-21.354 51.562,-43.491c0,-13.279 -10.416,-21.613 -25.258,-21.613c-28.646,0 -51.562,21.092 -51.562,43.488c-0,13.541 11.195,21.616 25.258,21.616" style="fill-rule:nonzero;"/></g><g><path d="M1200.28,1551.62c23.175,0 51.563,-21.354 51.563,-43.492c-0,-13.279 -10.417,-21.612 -25.263,-21.612c-28.645,-0 -51.562,21.092 -51.562,43.487c-0,13.542 11.2,21.617 25.262,21.617" style="fill-rule:nonzero;"/></g><g><path d="M1319.92,1595.38c-1.563,5.208 -13.8,10.417 -19.792,10.417c-1.562,-0 -2.862,-0.521 -3.125,-1.304c-0.521,-1.042 -0.779,-6.771 -0.779,-13.021c-0,-8.071 0.258,-17.188 0.779,-19.271c0.521,-4.425 12.5,-9.896 19.013,-9.896c1.82,0 3.383,0.521 3.904,1.563c0.521,1.304 1.041,7.812 1.041,14.845c0,7.03 -0.52,14.321 -1.041,16.667m17.971,-42.45c1.82,-0.779 3.125,-2.862 3.125,-4.425l-0,-18.492c-0,-1.3 -0.784,-2.083 -1.825,-2.083c-0.521,0 -0.78,0 -1.3,0.263c-0,-0 -5.209,2.083 -6.513,2.341c-1.821,0 -3.646,-1.3 -3.646,-3.383l0,-31.771c0,-1.562 -1.562,-2.867 -3.646,-2.867c-2.604,0 -4.166,1.305 -4.166,2.867l-0,33.854c-0.259,2.604 -1.042,5.988 -3.384,7.55c-3.125,1.825 -11.979,5.471 -16.408,6.513c-2.342,-0 -3.125,-3.125 -3.125,-5.209l0,-31.25c0,-1.562 -1.821,-2.866 -3.646,-2.866c-2.604,-0 -4.166,1.304 -4.166,2.866l-0,35.155c-0,3.645 -1.563,6.25 -3.125,7.033c-1.563,0.779 -6.771,2.862 -6.771,2.862c-1.821,0.521 -3.125,2.605 -3.125,4.167l-0,18.492c-0,1.562 0.783,2.341 2.083,2.341c1.042,0 5.992,-2.341 6.771,-2.862c0.262,-0 0.521,-0.263 0.783,-0.263c1.821,0 3.384,2.605 3.384,4.688l-0,25.783c-0,2.863 -1.3,5.209 -2.863,5.988c-1.562,0.521 -7.033,2.866 -7.033,2.866c-1.821,0.521 -3.125,2.605 -3.125,4.167l-0,18.488c-0,1.562 0.783,2.345 2.083,2.345c0.263,0 0.783,-0.262 1.042,-0.262c-0,-0 3.646,-1.563 5.991,-2.342c0.259,-0.262 0.521,-0.262 0.78,-0.262c1.825,-0 3.125,2.866 3.125,4.166l-0,32.034c-0,1.562 1.562,2.862 3.387,2.862c2.604,0 4.425,-1.3 4.425,-2.862l0,-36.2c0,-3.384 1.304,-5.209 2.604,-5.729l15.888,-6.509c0.258,0 0.779,-0.262 1.041,-0.262c2.084,-0 3.384,3.125 3.384,4.687l-0,32.554c-0,1.563 1.562,2.863 3.387,2.863c2.863,-0 4.425,-1.3 4.425,-2.863l0,-36.979c0,-2.083 1.042,-5.208 2.867,-5.991c1.821,-0.78 7.292,-2.863 7.292,-2.863c1.82,-0.783 3.125,-2.867 3.125,-4.429l-0,-18.488c-0,-1.304 -0.784,-2.083 -1.825,-2.083c-0.521,0 -0.78,0 -1.3,0.258l-6.771,2.605c-1.563,-0 -3.388,-1.563 -3.388,-4.688l0,-24.217c0,-1.825 1.304,-6.77 3.388,-7.554l6.771,-2.604" style="fill-rule:nonzero;"/></g><g><path d="M1382.38,1616.21c23.179,0 51.563,-21.354 51.563,-43.491c-0,-13.279 -10.417,-21.613 -25.259,-21.613c-28.645,0 -51.562,21.092 -51.562,43.488c-0,13.541 11.196,21.616 25.258,21.616" style="fill-rule:nonzero;"/></g><g><path d="M1502.01,1627.67c-1.563,5.208 -13.8,10.416 -19.792,10.416c-1.563,0 -2.863,-0.52 -3.125,-1.304c-0.521,-1.041 -0.779,-6.771 -0.779,-13.021c-0,-8.07 0.258,-17.187 0.779,-19.27c0.521,-4.425 12.5,-9.896 19.012,-9.896c1.821,-0 3.384,0.521 3.905,1.562c0.52,1.304 1.041,7.813 1.041,14.846c0,7.029 -0.521,14.321 -1.041,16.667m17.97,-42.45c1.821,-0.779 3.125,-2.863 3.125,-4.425l0,-18.492c0,-1.3 -0.783,-2.083 -1.825,-2.083c-0.52,-0 -0.779,-0 -1.3,0.262c0,0 -5.208,2.084 -6.512,2.342c-1.821,-0 -3.646,-1.3 -3.646,-3.383l0,-31.771c0,-1.563 -1.562,-2.867 -3.646,-2.867c-2.604,0 -4.166,1.304 -4.166,2.867l-0,33.854c-0.259,2.604 -1.042,5.987 -3.384,7.55c-3.125,1.825 -11.979,5.471 -16.408,6.512c-2.342,0 -3.125,-3.125 -3.125,-5.208l-0,-31.25c-0,-1.562 -1.821,-2.867 -3.646,-2.867c-2.604,0 -4.167,1.305 -4.167,2.867l0,35.154c0,3.646 -1.562,6.25 -3.125,7.034c-1.562,0.779 -6.77,2.862 -6.77,2.862c-1.821,0.521 -3.125,2.604 -3.125,4.167l-0,18.491c-0,1.563 0.783,2.342 2.083,2.342c1.042,0 5.992,-2.342 6.771,-2.862c0.262,-0 0.521,-0.263 0.783,-0.263c1.821,0 3.383,2.604 3.383,4.688l0,25.783c0,2.862 -1.3,5.208 -2.862,5.987c-1.563,0.521 -7.033,2.867 -7.033,2.867c-1.821,0.521 -3.125,2.604 -3.125,4.167l-0,18.487c-0,1.563 0.783,2.346 2.083,2.346c0.262,0 0.783,-0.262 1.042,-0.262c-0,-0 3.645,-1.563 5.991,-2.342c0.259,-0.263 0.521,-0.263 0.779,-0.263c1.825,0 3.125,2.867 3.125,4.167l0,32.033c0,1.563 1.563,2.863 3.388,2.863c2.604,-0 4.425,-1.3 4.425,-2.863l-0,-36.2c-0,-3.383 1.304,-5.208 2.604,-5.729l15.888,-6.508c0.258,-0 0.779,-0.263 1.041,-0.263c2.084,0 3.384,3.125 3.384,4.688l-0,32.554c-0,1.563 1.562,2.863 3.387,2.863c2.863,-0 4.425,-1.3 4.425,-2.863l0,-36.979c0,-2.083 1.042,-5.208 2.867,-5.992c1.821,-0.779 7.291,-2.862 7.291,-2.862c1.821,-0.784 3.125,-2.867 3.125,-4.429l0,-18.488c0,-1.304 -0.783,-2.083 -1.825,-2.083c-0.52,-0 -0.779,-0 -1.3,0.258l-6.77,2.604c-1.563,0 -3.388,-1.562 -3.388,-4.687l0,-24.217c0,-1.825 1.304,-6.771 3.388,-7.554l6.77,-2.604" style="fill-rule:nonzero;"/></g><g><path d="M1564.48,1648.5c23.179,0 51.563,-21.354 51.563,-43.492c-0,-13.279 -10.417,-21.612 -25.259,-21.612c-28.646,-0 -51.562,21.092 -51.562,43.487c-0,13.542 11.196,21.617 25.258,21.617" style="fill-rule:nonzero;"/></g><g><path d="M1713.81,1680.79c23.175,-0 51.562,-21.354 51.562,-43.492c0,-13.279 -10.417,-21.612 -25.262,-21.612c-28.646,-0 -51.563,21.091 -51.563,43.487c0,13.542 11.2,21.617 25.263,21.617" style="fill-rule:nonzero;"/></g><g><path d="M1863.13,1713.08c23.18,0 51.563,-21.354 51.563,-43.491c-0,-13.279 -10.417,-21.613 -25.258,-21.613c-28.646,0 -51.563,21.092 -51.563,43.488c0,13.541 11.196,21.616 25.258,21.616" style="fill-rule:nonzero;"/></g><g><path d="M2012.47,1745.38c23.175,0 51.562,-21.354 51.562,-43.492c0,-13.279 -10.416,-21.612 -25.262,-21.612c-28.646,-0 -51.563,21.092 -51.563,43.487c0,13.542 11.2,21.617 25.263,21.617" style="fill-rule:nonzero;"/></g><g><path d="M2274.53,1696.42c2.867,-9.117 12.5,-10.417 20.575,-10.417c17.967,0 32.292,19.271 32.292,34.896c-0,8.071 -3.388,15.362 -11.979,17.446c-2.605,0.783 -5.471,1.041 -8.075,1.041c-9.375,0 -19.009,-6.25 -24.48,-13.541c-5.208,-5.988 -9.112,-14.842 -9.112,-23.175c-0,-2.084 0.258,-4.167 0.779,-6.25m27.346,-16.146c-34.638,-0 -56.25,14.321 -56.25,32.029c-0,17.45 14.842,33.075 53.646,33.075c42.708,0 56.25,-14.846 56.25,-33.075c-0,-18.487 -29.429,-32.029 -53.646,-32.029" style="fill-rule:nonzero;"/></g><g><path d="M135.664,1418.55c0.779,4.95 0.779,4.688 -3.909,6.25c-22.916,7.813 -37.758,28.388 -37.758,50.521c-0,23.437 12.237,40.104 29.946,46.096c2.083,0.779 5.208,1.562 7.033,1.562c2.083,0 3.125,-1.304 3.125,-2.866c0,-1.821 -2.083,-2.605 -3.908,-3.384c-10.938,-4.687 -18.75,-15.887 -18.75,-27.866c-0,-14.842 10.158,-26.042 26.041,-30.467c4.167,-1.042 4.688,-0.783 5.209,2.083l13.021,77.604c0.52,2.863 0.262,2.863 -3.646,3.646c-4.167,0.779 -9.375,1.3 -14.584,1.3c-45.57,0 -75,-25.258 -75,-61.458c0,-15.363 2.605,-35.938 24.221,-60.417c15.625,-17.446 27.604,-27.083 39.842,-36.979c2.604,-2.083 3.125,-1.821 3.646,1.042l5.471,33.333m28.383,-177.342c8.596,0 15.625,7.03 15.625,21.355c-0,28.904 -24.738,52.341 -45.313,70.312c-1.82,1.563 -2.862,1.3 -3.383,-2.083c-1.042,-6.771 -1.562,-15.625 -1.562,-23.959c-0,-40.625 18.75,-65.625 34.633,-65.625m-10.417,218.75c-0.521,-3.125 -0.258,-3.908 2.867,-3.645c21.092,1.82 38.542,19.529 38.542,42.445c-0,16.409 -9.896,29.688 -24.48,36.98c-3.125,1.562 -3.645,1.562 -4.166,-1.563l-12.763,-74.217m-14.062,-81.25c-0.521,-3.125 -0,-3.387 1.562,-4.95c28.125,-26.3 49.479,-59.375 49.479,-99.216c0,-22.659 -6.25,-45.054 -16.925,-60.679c-3.908,-5.73 -10.679,-13.021 -13.541,-13.021c-3.646,-0 -11.721,6.771 -16.929,12.5c-19.271,21.354 -25.521,53.908 -25.521,80.991c-0,15.105 1.825,32.03 3.646,42.709c0.52,3.125 0.783,3.646 -2.342,6.25c-37.5,30.987 -77.346,68.229 -77.346,120.833c0,45.313 30.992,88.279 94.792,88.279c5.991,0 12.762,-0.521 17.971,-1.562c2.862,-0.521 3.383,-0.779 3.904,2.346c3.125,17.445 7.033,40.104 7.033,52.341c0,38.542 -26.042,43.229 -41.408,43.229c-14.063,0 -20.834,-4.166 -20.834,-7.55c0,-1.825 2.346,-2.604 8.334,-4.429c8.075,-2.341 17.45,-9.375 17.45,-24.479c-0,-14.321 -9.117,-26.562 -25,-26.562c-17.45,-0 -27.867,13.804 -27.867,29.95c0,16.925 10.158,42.445 49.479,42.445c17.45,0 51.304,-7.812 51.304,-52.083c0,-14.842 -4.687,-39.583 -7.554,-55.729c-0.521,-3.125 -0.258,-2.863 3.388,-4.425c26.3,-10.417 43.75,-32.554 43.75,-61.979c-0,-33.334 -24.479,-62.763 -62.763,-62.763c-6.771,0 -6.771,0 -7.55,-4.687l-6.512,-37.759" style="fill-rule:nonzero;"/></g><g><text x="876.247px" y="1665.17px" style="font-family:'Bravura';font-size:260.417px;"></text></g><g><text x="1357.02px" y="1772.28px" style="font-family:'Bravura';font-size:260.417px;"></text></g><g><text x="1837.78px" y="1835.45px" style="font-family:'Bravura';font-size:260.417px;"></text></g><g><path d="M361.576,1568.62l0,-33.412l190.496,48.437l-0,33.413l-190.496,-48.438" style="fill-rule:nonzero;"/></g><g><path d="M796.08,1244.59l0,-32.709l306.379,48.438l0,32.708l-306.379,-48.437" style="fill-rule:nonzero;"/></g><g><path d="M1244.13,1309.17l0,-33.071l371.875,80.729l0,33.071l-371.875,-80.729" style="fill-rule:nonzero;"/></g><g><path d="M1757.54,1438.34l-0,-32.342l306.508,16.146l-0,32.341l-306.508,-16.145" style="fill-rule:nonzero;"/></g><g><path d="M705.714,1617.35l138.283,0l-0,-10.329l-127.996,-0l0,-38.109l-10.287,0" style="fill-rule:nonzero;"/></g><g><path d="M1107.67,1617.35l-122.134,0l0,-10.329l111.846,-0l0,-38.109l10.288,0" style="fill-rule:nonzero;"/></g><g><path d="M1153.76,1683.98l171.483,28.45l-0,-10.479l-161.2,-26.734l-0,-39.675l-10.283,0" style="fill-rule:nonzero;"/></g><g><path d="M1621.21,1762.18l-155.337,-25.691l-0,-10.48l144.921,24.805l-0,-37.071l10.416,-0" style="fill-rule:nonzero;"/></g><g><path d="M1667.17,1745.37l138.933,27.733l0,-10.562l-128.516,-25.663l-0,-39.946l-10.417,0" style="fill-rule:nonzero;"/></g><g><path d="M2069.13,1826.55l-122.787,-24.375l-0,-10.558l112.5,23.317l-0,-36.821l10.287,-0" style="fill-rule:nonzero;"/></g></g></svg>