<?xml version="1.0" encoding="UTF-8" standalone="no"?><!DOCTYPE svg PUBLIC "-//W3C//DTD SVG 1.1//EN" "http://www.w3.org/Graphics/SVG/1.1/DTD/svg11.dtd"><svg width="100%" height="100%" viewBox="0 0 1913 388" version="1.1" xmlns="http://www.w3.org/2000/svg" xmlns:xlink="http://www.w3.org/1999/xlink" xml:space="preserve" xmlns:serif="http://www.serif.com/" style="fill-rule:evenodd;clip-rule:evenodd;stroke-miterlimit:2;"><g><g><path d="M131.251,150.916l1650,0" style="fill:none;stroke:#000;stroke-width:2.01px;"/><path d="M131.251,135.416l1650,0" style="fill:none;stroke:#000;stroke-width:2.01px;"/><path d="M131.251,166.416l1650,0" style="fill:none;stroke:#000;stroke-width:2.01px;"/><path d="M131.251,197.416l1650,0" style="fill:none;stroke:#000;stroke-width:2.01px;"/><path d="M131.251,181.916l1650,0" style="fill:none;stroke:#000;stroke-width:2.01px;"/></g><g><path d="M687.157,134.41l-0,64.013" style="fill:none;stroke:#000;stroke-width:2.48px;"/><path d="M1140.69,134.41l0,64.013" style="fill:none;stroke:#000;stroke-width:2.48px;"/><path d="M1594.28,134.41l-0,64.013" style="fill:none;stroke:#000;stroke-width:2.48px;"/><path d="M1771.34,134.41l-0,64.013" style="fill:none;stroke:#000;stroke-width:2.48px;"/><path d="M1780,134.41l0,64.013" style="fill:none;stroke:#000;stroke-width:2.48px;"/></g><g><path d="M275.657,166.36l-0,67.203" style="fill:none;stroke:#000;stroke-width:1.86px;"/></g><g><path d="M251.938,228.416l30.844,0" style="fill:none;stroke:#000;stroke-width:2.48px;"/><path d="M251.938,212.916l30.844,0" style="fill:none;stroke:#000;stroke-width:2.48px;"/></g><g><path d="M329.126,159.901l-0,58.162" style="fill:none;stroke:#000;stroke-width:1.86px;"/></g><g><path d="M305.438,212.916l30.813,0" style="fill:none;stroke:#000;stroke-width:2.48px;"/></g><g><path d="M382.563,153.445l0,56.868" style="fill:none;stroke:#000;stroke-width:1.86px;"/></g><g><path d="M362.469,212.916l27.219,0" style="fill:none;stroke:#000;stroke-width:2.48px;"/></g><g><path d="M436.063,146.985l0,40.078" style="fill:none;stroke:#000;stroke-width:1.86px;"/><path d="M472.969,184.52l0,40.103" style="fill:none;stroke:#000;stroke-width:1.86px;"/><path d="M526.438,169.02l-0,47.849" style="fill:none;stroke:#000;stroke-width:1.86px;"/><path d="M579.907,161.27l-0,47.846" style="fill:none;stroke:#000;stroke-width:1.86px;"/><path d="M633.344,138.02l0,63.353" style="fill:none;stroke:#000;stroke-width:1.86px;"/><path d="M712.594,130.27l-0,55.603" style="fill:none;stroke:#000;stroke-width:1.86px;"/><path d="M766.094,114.771l-0,63.349" style="fill:none;stroke:#000;stroke-width:1.86px;"/></g><g><path d="M758.938,119.916l30.843,0" style="fill:none;stroke:#000;stroke-width:2.48px;"/></g><g><path d="M819.531,107.021l0,63.352" style="fill:none;stroke:#000;stroke-width:1.86px;"/></g><g><path d="M816.031,104.416l27.188,0" style="fill:none;stroke:#000;stroke-width:2.48px;"/><path d="M816.281,119.916l26.938,0" style="fill:none;stroke:#000;stroke-width:2.48px;"/></g><g><path d="M873,83.771l0,78.852" style="fill:none;stroke:#000;stroke-width:1.86px;"/></g><g><path d="M865.875,88.916l30.844,0" style="fill:none;stroke:#000;stroke-width:2.48px;"/><path d="M865.875,104.416l30.844,0" style="fill:none;stroke:#000;stroke-width:2.48px;"/><path d="M865.875,119.916l30.844,0" style="fill:none;stroke:#000;stroke-width:2.48px;"/></g><g><path d="M926.5,76.021l0,86.53" style="fill:none;stroke:#000;stroke-width:1.86px;"/></g><g><path d="M919.375,73.416l30.813,0" style="fill:none;stroke:#000;stroke-width:2.48px;"/><path d="M919.375,88.916l30.813,0" style="fill:none;stroke:#000;stroke-width:2.48px;"/><path d="M919.375,104.416l30.813,0" style="fill:none;stroke:#000;stroke-width:2.48px;"/><path d="M919.375,119.916l30.813,0" style="fill:none;stroke:#000;stroke-width:2.48px;"/></g><g><path d="M979.969,83.771l-0,81.364" style="fill:none;stroke:#000;stroke-width:1.86px;"/></g><g><path d="M972.844,88.916l30.843,0" style="fill:none;stroke:#000;stroke-width:2.48px;"/><path d="M972.844,104.416l30.843,0" style="fill:none;stroke:#000;stroke-width:2.48px;"/><path d="M972.844,119.916l30.843,0" style="fill:none;stroke:#000;stroke-width:2.48px;"/></g><g><path d="M1033.47,107.021l-0,60.699" style="fill:none;stroke:#000;stroke-width:1.86px;"/></g><g><path d="M1026.31,104.416l30.844,0" style="fill:none;stroke:#000;stroke-width:2.48px;"/><path d="M1026.31,119.916l30.844,0" style="fill:none;stroke:#000;stroke-width:2.48px;"/></g><g><path d="M1086.88,114.771l-0,55.53" style="fill:none;stroke:#000;stroke-width:1.86px;"/></g><g><path d="M1079.75,119.916l30.844,0" style="fill:none;stroke:#000;stroke-width:2.48px;"/></g><g><path d="M1166.12,130.27l-0,63.328" style="fill:none;stroke:#000;stroke-width:1.86px;"/><path d="M1219.62,138.02l-0,62.037" style="fill:none;stroke:#000;stroke-width:1.86px;"/><path d="M1273.09,161.27l0,45.243" style="fill:none;stroke:#000;stroke-width:1.86px;"/><path d="M1326.56,169.02l0,43.953" style="fill:none;stroke:#000;stroke-width:1.86px;"/><path d="M1396.62,131.46l-0,47.853" style="fill:none;stroke:#000;stroke-width:1.86px;"/><path d="M1450.12,139.21l0,47.853" style="fill:none;stroke:#000;stroke-width:1.86px;"/><path d="M1503.59,146.96l0,63.353" style="fill:none;stroke:#000;stroke-width:1.86px;"/></g><g><path d="M1483.5,212.916l27.219,0" style="fill:none;stroke:#000;stroke-width:2.48px;"/></g><g><path d="M1557.06,154.71l-0,63.353" style="fill:none;stroke:#000;stroke-width:1.86px;"/></g><g><path d="M1533.37,212.916l30.844,0" style="fill:none;stroke:#000;stroke-width:2.48px;"/><path d="M1612.62,228.416l38.75,0" style="fill:none;stroke:#000;stroke-width:2.48px;"/><path d="M1612.62,212.916l38.75,0" style="fill:none;stroke:#000;stroke-width:2.48px;"/></g><g><path d="M263.783,111.354c0,-0 -0.062,0.25 -0.062,0.437c-0,0.25 0.25,0.5 0.5,0.5c0.187,0 0.312,-0.187 0.375,-0.25c0.062,-0.187 0.812,-2.75 1.187,-3.375c0.125,-0.25 0.25,-0.312 0.313,-0.312c0.125,-0 0.187,0.25 0.187,0.437l0,8.938c0,0.75 -0.625,1.187 -1.25,1.187c-0.25,0 -0.562,0.125 -0.562,0.5c-0,0.375 0.312,0.5 0.812,0.5l5.25,0c0.5,0 0.5,-0.5 0.5,-0.5c0,0 0,-0.5 -0.5,-0.5c-0.437,0 -1,-0.562 -1,-1.125l0,-13c0,-0.5 -0.187,-0.75 -0.625,-0.75c-0.437,0 -0.812,0.125 -1.187,0.125c-0.625,0 -0.75,0 -1.25,-0.125c-0.25,0 -0.563,0.375 -0.75,0.625l-1.938,6.688" style="fill-rule:nonzero;"/></g><g><path d="M324.175,114.291l0,-6.687c0,-0.313 -0.062,-0.563 -0.375,-0.563c-0.25,0 -0.437,0.063 -0.625,0.313l-1.875,3.625c-0.125,0.125 -0.312,0.312 -0.312,0.75l-0,2.562l-4.063,0c2.563,-2.125 6.563,-9.187 6.625,-9.562c0,-0.063 0.063,-0.125 0.063,-0.188c-0,-0.25 -0.25,-0.437 -0.438,-0.437c-0.312,-0 -1.625,0.125 -2.187,0.125c-0.563,-0 -0.938,-0.125 -1.188,-0.125c-0.312,-0 -0.75,0.125 -0.75,0.625c0,4 -3.25,8.562 -4.062,9.687c-0.125,0.125 -0.25,0.313 -0.25,0.5c-0,0.313 0.25,0.625 0.625,0.625l5.625,0l-0,1.938c-0,0.875 -0.5,1.125 -1,1.125c-0.563,-0 -0.813,0.25 -0.813,0.562c0,0.313 0.125,0.688 0.688,0.688l5.375,-0c0.312,-0 0.625,-0.25 0.625,-0.688c-0,-0.437 -0.375,-0.625 -0.688,-0.625c-0.312,0 -1,-0.187 -1,-1.187l0,-1.813l2.313,0c0.312,0 0.5,-0.25 0.5,-0.625c-0,-0.375 -0.125,-0.625 -0.5,-0.625l-2.313,0" style="fill-rule:nonzero;"/></g><g><path d="M370.7,111.354c0,-0 -0.062,0.25 -0.062,0.437c-0,0.25 0.25,0.5 0.5,0.5c0.187,0 0.312,-0.187 0.375,-0.25c0.062,-0.187 0.812,-2.75 1.187,-3.375c0.125,-0.25 0.25,-0.312 0.313,-0.312c0.125,-0 0.187,0.25 0.187,0.437l0,8.938c0,0.75 -0.625,1.187 -1.25,1.187c-0.25,0 -0.562,0.125 -0.562,0.5c-0,0.375 0.312,0.5 0.812,0.5l5.25,0c0.5,0 0.5,-0.5 0.5,-0.5c0,0 0,-0.5 -0.5,-0.5c-0.437,0 -1,-0.562 -1,-1.125l0,-13c0,-0.5 -0.187,-0.75 -0.625,-0.75c-0.437,0 -0.812,0.125 -1.187,0.125c-0.625,0 -0.75,0 -1.25,-0.125c-0.25,0 -0.563,0.375 -0.75,0.625l-1.938,6.688" style="fill-rule:nonzero;"/></g><g><path d="M431.091,114.291l-0,-6.687c-0,-0.313 -0.063,-0.563 -0.375,-0.563c-0.25,0 -0.438,0.063 -0.625,0.313l-1.875,3.625c-0.125,0.125 -0.313,0.312 -0.313,0.75l0,2.562l-4.062,0c2.562,-2.125 6.562,-9.187 6.625,-9.562c-0,-0.063 0.062,-0.125 0.062,-0.188c0,-0.25 -0.25,-0.437 -0.437,-0.437c-0.313,-0 -1.625,0.125 -2.188,0.125c-0.562,-0 -0.937,-0.125 -1.187,-0.125c-0.313,-0 -0.75,0.125 -0.75,0.625c-0,4 -3.25,8.562 -4.063,9.687c-0.125,0.125 -0.25,0.313 -0.25,0.5c0,0.313 0.25,0.625 0.625,0.625l5.625,0l0,1.938c0,0.875 -0.5,1.125 -1,1.125c-0.562,-0 -0.812,0.25 -0.812,0.562c-0,0.313 0.125,0.688 0.687,0.688l5.375,-0c0.313,-0 0.625,-0.25 0.625,-0.688c0,-0.437 -0.375,-0.625 -0.687,-0.625c-0.313,0 -1,-0.187 -1,-1.187l-0,-1.813l2.312,0c0.313,0 0.5,-0.25 0.5,-0.625c0,-0.375 -0.125,-0.625 -0.5,-0.625l-2.312,0" style="fill-rule:nonzero;"/></g><g><path d="M477.663,111.354c-0,-0 -0.063,0.25 -0.063,0.437c0,0.25 0.25,0.5 0.5,0.5c0.187,0 0.312,-0.187 0.375,-0.25c0.062,-0.187 0.812,-2.75 1.187,-3.375c0.125,-0.25 0.25,-0.312 0.313,-0.312c0.125,-0 0.187,0.25 0.187,0.437l0,8.938c0,0.75 -0.625,1.187 -1.25,1.187c-0.25,0 -0.562,0.125 -0.562,0.5c-0,0.375 0.312,0.5 0.812,0.5l5.25,0c0.5,0 0.5,-0.5 0.5,-0.5c0,0 0,-0.5 -0.5,-0.5c-0.437,0 -1,-0.562 -1,-1.125l0,-13c0,-0.5 -0.187,-0.75 -0.625,-0.75c-0.437,0 -0.812,0.125 -1.187,0.125c-0.625,0 -0.75,0 -1.25,-0.125c-0.25,0 -0.563,0.375 -0.75,0.625l-1.937,6.688" style="fill-rule:nonzero;"/></g><g><path d="M538.053,114.291l0,-6.687c0,-0.313 -0.062,-0.563 -0.375,-0.563c-0.25,0 -0.437,0.063 -0.625,0.313l-1.875,3.625c-0.125,0.125 -0.312,0.312 -0.312,0.75l-0,2.562l-4.063,0c2.563,-2.125 6.563,-9.187 6.625,-9.562c0,-0.063 0.063,-0.125 0.063,-0.188c-0,-0.25 -0.25,-0.437 -0.438,-0.437c-0.312,-0 -1.625,0.125 -2.187,0.125c-0.563,-0 -0.938,-0.125 -1.188,-0.125c-0.312,-0 -0.75,0.125 -0.75,0.625c0,4 -3.25,8.562 -4.062,9.687c-0.125,0.125 -0.25,0.313 -0.25,0.5c-0,0.313 0.25,0.625 0.625,0.625l5.625,0l-0,1.938c-0,0.875 -0.5,1.125 -1,1.125c-0.563,-0 -0.813,0.25 -0.813,0.562c0,0.313 0.125,0.688 0.688,0.688l5.375,-0c0.312,-0 0.625,-0.25 0.625,-0.688c-0,-0.437 -0.375,-0.625 -0.688,-0.625c-0.312,0 -1,-0.187 -1,-1.187l0,-1.813l2.313,0c0.312,0 0.5,-0.25 0.5,-0.625c-0,-0.375 -0.125,-0.625 -0.5,-0.625l-2.313,0" style="fill-rule:nonzero;"/></g><g><path d="M584.625,111.354c-0,-0 -0.063,0.25 -0.063,0.437c0,0.25 0.25,0.5 0.5,0.5c0.188,0 0.313,-0.187 0.375,-0.25c0.063,-0.187 0.813,-2.75 1.188,-3.375c0.125,-0.25 0.25,-0.312 0.312,-0.312c0.125,-0 0.188,0.25 0.188,0.437l-0,8.938c-0,0.75 -0.625,1.187 -1.25,1.187c-0.25,0 -0.563,0.125 -0.563,0.5c0,0.375 0.313,0.5 0.813,0.5l5.25,0c0.5,0 0.5,-0.5 0.5,-0.5c-0,0 -0,-0.5 -0.5,-0.5c-0.438,0 -1,-0.562 -1,-1.125l-0,-13c-0,-0.5 -0.188,-0.75 -0.625,-0.75c-0.438,0 -0.813,0.125 -1.188,0.125c-0.625,0 -0.75,0 -1.25,-0.125c-0.25,0 -0.562,0.375 -0.75,0.625l-1.937,6.688" style="fill-rule:nonzero;"/></g><g><path d="M644.965,114.278l0,-6.688c0,-0.312 -0.062,-0.562 -0.375,-0.562c-0.25,-0 -0.437,0.062 -0.625,0.312l-1.875,3.625c-0.125,0.125 -0.312,0.313 -0.312,0.75l-0,2.563l-4.063,-0c2.563,-2.125 6.563,-9.188 6.625,-9.563c0,-0.062 0.063,-0.125 0.063,-0.187c-0,-0.25 -0.25,-0.438 -0.438,-0.438c-0.312,0 -1.625,0.125 -2.187,0.125c-0.563,0 -0.938,-0.125 -1.188,-0.125c-0.312,0 -0.75,0.125 -0.75,0.625c0,4 -3.25,8.563 -4.062,9.688c-0.125,0.125 -0.25,0.312 -0.25,0.5c-0,0.312 0.25,0.625 0.625,0.625l5.625,-0l-0,1.937c-0,0.875 -0.5,1.125 -1,1.125c-0.563,0 -0.813,0.25 -0.813,0.563c0,0.312 0.125,0.687 0.688,0.687l5.375,0c0.312,0 0.625,-0.25 0.625,-0.687c-0,-0.438 -0.375,-0.625 -0.688,-0.625c-0.312,-0 -1,-0.188 -1,-1.188l0,-1.812l2.313,-0c0.312,-0 0.5,-0.25 0.5,-0.625c-0,-0.375 -0.125,-0.625 -0.5,-0.625l-2.313,-0" style="fill-rule:nonzero;"/></g><g><path d="M717.3,103.541c-0,0 -0.063,0.25 -0.063,0.438c0,0.25 0.25,0.5 0.5,0.5c0.188,-0 0.313,-0.188 0.375,-0.25c0.063,-0.188 0.813,-2.75 1.188,-3.375c0.125,-0.25 0.25,-0.313 0.312,-0.313c0.125,0 0.188,0.25 0.188,0.438l-0,8.937c-0,0.75 -0.625,1.188 -1.25,1.188c-0.25,-0 -0.563,0.125 -0.563,0.5c0,0.375 0.313,0.5 0.813,0.5l5.25,-0c0.5,-0 0.5,-0.5 0.5,-0.5c-0,-0 -0,-0.5 -0.5,-0.5c-0.438,-0 -1,-0.563 -1,-1.125l-0,-13c-0,-0.5 -0.188,-0.75 -0.625,-0.75c-0.438,-0 -0.813,0.125 -1.188,0.125c-0.625,-0 -0.75,-0 -1.25,-0.125c-0.25,-0 -0.562,0.375 -0.75,0.625l-1.937,6.687" style="fill-rule:nonzero;"/></g><g><path d="M777.69,91.028l0,-6.688c0,-0.312 -0.062,-0.562 -0.375,-0.562c-0.25,-0 -0.437,0.062 -0.625,0.312l-1.875,3.625c-0.125,0.125 -0.312,0.313 -0.312,0.75l-0,2.563l-4.063,-0c2.563,-2.125 6.563,-9.188 6.625,-9.563c0,-0.062 0.063,-0.125 0.063,-0.187c-0,-0.25 -0.25,-0.438 -0.438,-0.438c-0.312,0 -1.625,0.125 -2.187,0.125c-0.563,0 -0.938,-0.125 -1.188,-0.125c-0.312,0 -0.75,0.125 -0.75,0.625c0,4 -3.25,8.563 -4.062,9.688c-0.125,0.125 -0.25,0.312 -0.25,0.5c-0,0.312 0.25,0.625 0.625,0.625l5.625,-0l-0,1.937c-0,0.875 -0.5,1.125 -1,1.125c-0.563,0 -0.813,0.25 -0.813,0.563c0,0.312 0.125,0.687 0.688,0.687l5.375,0c0.312,0 0.625,-0.25 0.625,-0.687c-0,-0.438 -0.375,-0.625 -0.688,-0.625c-0.312,-0 -1,-0.188 -1,-1.188l0,-1.812l2.313,-0c0.312,-0 0.5,-0.25 0.5,-0.625c-0,-0.375 -0.125,-0.625 -0.5,-0.625l-2.313,-0" style="fill-rule:nonzero;"/></g><g><path d="M824.234,80.291c0,0 -0.062,0.25 -0.062,0.438c-0,0.25 0.25,0.5 0.5,0.5c0.187,-0 0.312,-0.188 0.375,-0.25c0.062,-0.188 0.812,-2.75 1.187,-3.375c0.125,-0.25 0.25,-0.313 0.313,-0.313c0.125,0 0.187,0.25 0.187,0.438l0,8.937c0,0.75 -0.625,1.188 -1.25,1.188c-0.25,-0 -0.562,0.125 -0.562,0.5c-0,0.375 0.312,0.5 0.812,0.5l5.25,-0c0.5,-0 0.5,-0.5 0.5,-0.5c0,-0 0,-0.5 -0.5,-0.5c-0.437,-0 -1,-0.563 -1,-1.125l0,-13c0,-0.5 -0.187,-0.75 -0.625,-0.75c-0.437,-0 -0.812,0.125 -1.187,0.125c-0.625,-0 -0.75,-0 -1.25,-0.125c-0.25,-0 -0.563,0.375 -0.75,0.625l-1.938,6.687" style="fill-rule:nonzero;"/></g><g><path d="M884.625,60.028l-0,-6.688c-0,-0.312 -0.063,-0.562 -0.375,-0.562c-0.25,-0 -0.438,0.062 -0.625,0.312l-1.875,3.625c-0.125,0.125 -0.313,0.313 -0.313,0.75l0,2.563l-4.062,-0c2.562,-2.125 6.562,-9.188 6.625,-9.563c-0,-0.062 0.062,-0.125 0.062,-0.187c0,-0.25 -0.25,-0.438 -0.437,-0.438c-0.313,0 -1.625,0.125 -2.188,0.125c-0.562,0 -0.937,-0.125 -1.187,-0.125c-0.313,0 -0.75,0.125 -0.75,0.625c-0,4 -3.25,8.563 -4.063,9.688c-0.125,0.125 -0.25,0.312 -0.25,0.5c0,0.312 0.25,0.625 0.625,0.625l5.625,-0l0,1.937c0,0.875 -0.5,1.125 -1,1.125c-0.562,0 -0.812,0.25 -0.812,0.563c-0,0.312 0.125,0.687 0.687,0.687l5.375,0c0.313,0 0.625,-0.25 0.625,-0.687c0,-0.438 -0.375,-0.625 -0.687,-0.625c-0.313,-0 -1,-0.188 -1,-1.188l-0,-1.812l2.312,-0c0.313,-0 0.5,-0.25 0.5,-0.625c0,-0.375 -0.125,-0.625 -0.5,-0.625l-2.312,-0" style="fill-rule:nonzero;"/></g><g><path d="M938.106,52.278l-0,-6.688c-0,-0.312 -0.063,-0.562 -0.375,-0.562c-0.25,-0 -0.438,0.062 -0.625,0.312l-1.875,3.625c-0.125,0.125 -0.313,0.313 -0.313,0.75l0,2.563l-4.062,-0c2.562,-2.125 6.562,-9.188 6.625,-9.563c-0,-0.062 0.062,-0.125 0.062,-0.187c0,-0.25 -0.25,-0.438 -0.437,-0.438c-0.313,0 -1.625,0.125 -2.188,0.125c-0.562,0 -0.937,-0.125 -1.187,-0.125c-0.313,0 -0.75,0.125 -0.75,0.625c-0,4 -3.25,8.563 -4.063,9.688c-0.125,0.125 -0.25,0.312 -0.25,0.5c0,0.312 0.25,0.625 0.625,0.625l5.625,-0l0,1.937c0,0.875 -0.5,1.125 -1,1.125c-0.562,0 -0.812,0.25 -0.812,0.563c-0,0.312 0.125,0.687 0.687,0.687l5.375,0c0.313,0 0.625,-0.25 0.625,-0.687c0,-0.438 -0.375,-0.625 -0.687,-0.625c-0.313,-0 -1,-0.188 -1,-1.188l-0,-1.812l2.312,-0c0.313,-0 0.5,-0.25 0.5,-0.625c0,-0.375 -0.125,-0.625 -0.5,-0.625l-2.312,-0" style="fill-rule:nonzero;"/></g><g><path d="M991.587,60.028l-0,-6.688c-0,-0.312 -0.063,-0.562 -0.375,-0.562c-0.25,-0 -0.438,0.062 -0.625,0.312l-1.875,3.625c-0.125,0.125 -0.313,0.313 -0.313,0.75l0,2.563l-4.062,-0c2.562,-2.125 6.562,-9.188 6.625,-9.563c-0,-0.062 0.062,-0.125 0.062,-0.187c0,-0.25 -0.25,-0.438 -0.437,-0.438c-0.313,0 -1.625,0.125 -2.188,0.125c-0.562,0 -0.937,-0.125 -1.187,-0.125c-0.313,0 -0.75,0.125 -0.75,0.625c-0,4 -3.25,8.563 -4.063,9.688c-0.125,0.125 -0.25,0.312 -0.25,0.5c0,0.312 0.25,0.625 0.625,0.625l5.625,-0l0,1.937c0,0.875 -0.5,1.125 -1,1.125c-0.562,0 -0.812,0.25 -0.812,0.563c-0,0.312 0.125,0.687 0.687,0.687l5.375,0c0.313,0 0.625,-0.25 0.625,-0.687c0,-0.438 -0.375,-0.625 -0.687,-0.625c-0.313,-0 -1,-0.188 -1,-1.188l-0,-1.812l2.312,-0c0.313,-0 0.5,-0.25 0.5,-0.625c0,-0.375 -0.125,-0.625 -0.5,-0.625l-2.312,-0" style="fill-rule:nonzero;"/></g><g><path d="M1038.16,80.291c-0,0 -0.063,0.25 -0.063,0.438c0,0.25 0.25,0.5 0.5,0.5c0.188,-0 0.313,-0.188 0.375,-0.25c0.063,-0.188 0.813,-2.75 1.188,-3.375c0.125,-0.25 0.25,-0.313 0.312,-0.313c0.125,0 0.188,0.25 0.188,0.438l-0,8.937c-0,0.75 -0.625,1.188 -1.25,1.188c-0.25,-0 -0.563,0.125 -0.563,0.5c0,0.375 0.313,0.5 0.813,0.5l5.25,-0c0.5,-0 0.5,-0.5 0.5,-0.5c-0,-0 -0,-0.5 -0.5,-0.5c-0.438,-0 -1,-0.563 -1,-1.125l-0,-13c-0,-0.5 -0.188,-0.75 -0.625,-0.75c-0.438,-0 -0.813,0.125 -1.188,0.125c-0.625,-0 -0.75,-0 -1.25,-0.125c-0.25,-0 -0.562,0.375 -0.75,0.625l-1.937,6.687" style="fill-rule:nonzero;"/></g><g><path d="M1098.5,91.028l0,-6.688c0,-0.312 -0.062,-0.562 -0.375,-0.562c-0.25,-0 -0.437,0.062 -0.625,0.312l-1.875,3.625c-0.125,0.125 -0.312,0.313 -0.312,0.75l-0,2.563l-4.062,-0c2.562,-2.125 6.562,-9.188 6.624,-9.563c0,-0.062 0.063,-0.125 0.063,-0.187c-0,-0.25 -0.25,-0.438 -0.438,-0.438c-0.312,0 -1.625,0.125 -2.187,0.125c-0.563,0 -0.938,-0.125 -1.188,-0.125c-0.312,0 -0.75,0.125 -0.75,0.625c0,4 -3.249,8.563 -4.062,9.688c-0.125,0.125 -0.25,0.312 -0.25,0.5c0,0.312 0.25,0.625 0.625,0.625l5.625,-0l-0,1.937c-0,0.875 -0.5,1.125 -1,1.125c-0.563,0 -0.813,0.25 -0.813,0.563c0,0.312 0.125,0.687 0.688,0.687l5.375,0c0.312,0 0.625,-0.25 0.625,-0.687c-0,-0.438 -0.375,-0.625 -0.688,-0.625c-0.312,-0 -1,-0.188 -1,-1.188l0,-1.812l2.313,-0c0.312,-0 0.5,-0.25 0.5,-0.625c-0,-0.375 -0.125,-0.625 -0.5,-0.625l-2.313,-0" style="fill-rule:nonzero;"/></g><g><path d="M1170.84,103.541c-0,0 -0.063,0.25 -0.063,0.438c0,0.25 0.25,0.5 0.5,0.5c0.188,-0 0.313,-0.188 0.375,-0.25c0.063,-0.188 0.813,-2.75 1.188,-3.375c0.125,-0.25 0.25,-0.313 0.312,-0.313c0.125,0 0.188,0.25 0.188,0.438l-0,8.937c-0,0.75 -0.625,1.188 -1.25,1.188c-0.25,-0 -0.563,0.125 -0.563,0.5c0,0.375 0.313,0.5 0.813,0.5l5.25,-0c0.5,-0 0.5,-0.5 0.5,-0.5c-0,-0 -0,-0.5 -0.5,-0.5c-0.438,-0 -1,-0.563 -1,-1.125l-0,-13c-0,-0.5 -0.188,-0.75 -0.625,-0.75c-0.438,-0 -0.813,0.125 -1.188,0.125c-0.625,-0 -0.75,-0 -1.25,-0.125c-0.25,-0 -0.562,0.375 -0.75,0.625l-1.937,6.687" style="fill-rule:nonzero;"/></g><g><path d="M1231.23,114.278l0,-6.688c0,-0.312 -0.062,-0.562 -0.375,-0.562c-0.25,-0 -0.437,0.062 -0.625,0.312l-1.875,3.625c-0.125,0.125 -0.312,0.313 -0.312,0.75l-0,2.563l-4.063,-0c2.563,-2.125 6.563,-9.188 6.625,-9.563c0,-0.062 0.063,-0.125 0.063,-0.187c-0,-0.25 -0.25,-0.438 -0.438,-0.438c-0.312,0 -1.625,0.125 -2.187,0.125c-0.563,0 -0.938,-0.125 -1.188,-0.125c-0.312,0 -0.75,0.125 -0.75,0.625c0,4 -3.25,8.563 -4.062,9.688c-0.125,0.125 -0.25,0.312 -0.25,0.5c-0,0.312 0.25,0.625 0.625,0.625l5.625,-0l-0,1.937c-0,0.875 -0.5,1.125 -1,1.125c-0.563,0 -0.813,0.25 -0.813,0.563c0,0.312 0.125,0.687 0.688,0.687l5.375,0c0.312,0 0.625,-0.25 0.625,-0.687c-0,-0.438 -0.375,-0.625 -0.688,-0.625c-0.312,-0 -1,-0.188 -1,-1.188l0,-1.812l2.313,-0c0.312,-0 0.5,-0.25 0.5,-0.625c-0,-0.375 -0.125,-0.625 -0.5,-0.625l-2.313,-0" style="fill-rule:nonzero;"/></g><g><path d="M1277.8,111.354c0,-0 -0.062,0.25 -0.062,0.437c-0,0.25 0.25,0.5 0.5,0.5c0.187,0 0.312,-0.187 0.375,-0.25c0.062,-0.187 0.812,-2.75 1.187,-3.375c0.125,-0.25 0.25,-0.312 0.313,-0.312c0.125,-0 0.187,0.25 0.187,0.437l0,8.938c0,0.75 -0.625,1.187 -1.25,1.187c-0.25,0 -0.562,0.125 -0.562,0.5c-0,0.375 0.312,0.5 0.812,0.5l5.25,0c0.5,0 0.5,-0.5 0.5,-0.5c0,0 0,-0.5 -0.5,-0.5c-0.437,0 -1,-0.562 -1,-1.125l0,-13c0,-0.5 -0.187,-0.75 -0.625,-0.75c-0.437,0 -0.812,0.125 -1.187,0.125c-0.625,0 -0.75,0 -1.25,-0.125c-0.25,0 -0.563,0.375 -0.75,0.625l-1.938,6.688" style="fill-rule:nonzero;"/></g><g><path d="M1338.19,114.291l-0,-6.687c-0,-0.313 -0.063,-0.563 -0.375,-0.563c-0.25,0 -0.438,0.063 -0.625,0.313l-1.875,3.625c-0.125,0.125 -0.313,0.312 -0.313,0.75l0,2.562l-4.062,0c2.562,-2.125 6.562,-9.187 6.625,-9.562c-0,-0.063 0.062,-0.125 0.062,-0.188c0,-0.25 -0.25,-0.437 -0.437,-0.437c-0.313,-0 -1.625,0.125 -2.188,0.125c-0.562,-0 -0.937,-0.125 -1.187,-0.125c-0.313,-0 -0.75,0.125 -0.75,0.625c-0,4 -3.25,8.562 -4.063,9.687c-0.125,0.125 -0.25,0.313 -0.25,0.5c0,0.313 0.25,0.625 0.625,0.625l5.625,0l0,1.938c0,0.875 -0.5,1.125 -1,1.125c-0.562,-0 -0.812,0.25 -0.812,0.562c-0,0.313 0.125,0.688 0.687,0.688l5.375,-0c0.313,-0 0.625,-0.25 0.625,-0.688c0,-0.437 -0.375,-0.625 -0.687,-0.625c-0.313,0 -1,-0.187 -1,-1.187l-0,-1.813l2.312,0c0.313,0 0.5,-0.25 0.5,-0.625c0,-0.375 -0.125,-0.625 -0.5,-0.625l-2.312,0" style="fill-rule:nonzero;"/></g><g><path d="M1384.76,111.354c-0,-0 -0.063,0.25 -0.063,0.437c0,0.25 0.25,0.5 0.5,0.5c0.188,0 0.313,-0.187 0.375,-0.25c0.063,-0.187 0.813,-2.75 1.188,-3.375c0.125,-0.25 0.25,-0.312 0.312,-0.312c0.125,-0 0.188,0.25 0.188,0.437l-0,8.938c-0,0.75 -0.625,1.187 -1.25,1.187c-0.25,0 -0.563,0.125 -0.563,0.5c0,0.375 0.313,0.5 0.813,0.5l5.25,0c0.5,0 0.5,-0.5 0.5,-0.5c-0,0 -0,-0.5 -0.5,-0.5c-0.438,0 -1,-0.562 -1,-1.125l-0,-13c-0,-0.5 -0.188,-0.75 -0.625,-0.75c-0.438,0 -0.813,0.125 -1.188,0.125c-0.625,0 -0.75,0 -1.25,-0.125c-0.25,0 -0.562,0.375 -0.75,0.625l-1.937,6.688" style="fill-rule:nonzero;"/></g><g><path d="M1445.15,114.291l0,-6.687c0,-0.313 -0.062,-0.563 -0.375,-0.563c-0.25,0 -0.437,0.063 -0.625,0.313l-1.875,3.625c-0.125,0.125 -0.312,0.312 -0.312,0.75l-0,2.562l-4.063,0c2.563,-2.125 6.563,-9.187 6.625,-9.562c0,-0.063 0.063,-0.125 0.063,-0.188c-0,-0.25 -0.25,-0.437 -0.438,-0.437c-0.312,-0 -1.625,0.125 -2.187,0.125c-0.563,-0 -0.938,-0.125 -1.188,-0.125c-0.312,-0 -0.75,0.125 -0.75,0.625c0,4 -3.25,8.562 -4.062,9.687c-0.125,0.125 -0.25,0.313 -0.25,0.5c-0,0.313 0.25,0.625 0.625,0.625l5.625,0l-0,1.938c-0,0.875 -0.5,1.125 -1,1.125c-0.563,-0 -0.813,0.25 -0.813,0.562c0,0.313 0.125,0.688 0.688,0.688l5.375,-0c0.312,-0 0.625,-0.25 0.625,-0.688c-0,-0.437 -0.375,-0.625 -0.688,-0.625c-0.312,0 -1,-0.187 -1,-1.187l0,-1.813l2.313,0c0.312,0 0.5,-0.25 0.5,-0.625c-0,-0.375 -0.125,-0.625 -0.5,-0.625l-2.313,0" style="fill-rule:nonzero;"/></g><g><path d="M1491.72,111.354c-0,-0 -0.063,0.25 -0.063,0.437c0,0.25 0.25,0.5 0.5,0.5c0.188,0 0.313,-0.187 0.375,-0.25c0.063,-0.187 0.813,-2.75 1.188,-3.375c0.125,-0.25 0.25,-0.312 0.312,-0.312c0.125,-0 0.188,0.25 0.188,0.437l-0,8.938c-0,0.75 -0.625,1.187 -1.25,1.187c-0.25,0 -0.563,0.125 -0.563,0.5c0,0.375 0.313,0.5 0.813,0.5l5.25,0c0.5,0 0.5,-0.5 0.5,-0.5c-0,0 -0,-0.5 -0.5,-0.5c-0.438,0 -1,-0.562 -1,-1.125l-0,-13c-0,-0.5 -0.188,-0.75 -0.625,-0.75c-0.438,0 -0.813,0.125 -1.188,0.125c-0.625,0 -0.75,0 -1.25,-0.125c-0.25,0 -0.562,0.375 -0.75,0.625l-1.937,6.688" style="fill-rule:nonzero;"/></g><g><path d="M1552.12,114.291l-0,-6.687c-0,-0.313 -0.063,-0.563 -0.375,-0.563c-0.25,0 -0.438,0.063 -0.625,0.313l-1.875,3.625c-0.125,0.125 -0.313,0.312 -0.313,0.75l0,2.562l-4.062,0c2.562,-2.125 6.562,-9.187 6.625,-9.562c-0,-0.063 0.062,-0.125 0.062,-0.188c0,-0.25 -0.25,-0.437 -0.437,-0.437c-0.313,-0 -1.625,0.125 -2.188,0.125c-0.562,-0 -0.937,-0.125 -1.187,-0.125c-0.313,-0 -0.75,0.125 -0.75,0.625c-0,4 -3.25,8.562 -4.063,9.687c-0.125,0.125 -0.25,0.313 -0.25,0.5c0,0.313 0.25,0.625 0.625,0.625l5.625,0l0,1.938c0,0.875 -0.5,1.125 -1,1.125c-0.562,-0 -0.812,0.25 -0.812,0.562c-0,0.313 0.125,0.688 0.687,0.688l5.375,-0c0.313,-0 0.625,-0.25 0.625,-0.688c0,-0.437 -0.375,-0.625 -0.687,-0.625c-0.313,0 -1,-0.187 -1,-1.187l-0,-1.813l2.312,0c0.313,0 0.5,-0.25 0.5,-0.625c0,-0.375 -0.125,-0.625 -0.5,-0.625l-2.312,0" style="fill-rule:nonzero;"/></g><g><path d="M1628.42,111.354c-0,-0 -0.063,0.25 -0.063,0.437c0,0.25 0.25,0.5 0.5,0.5c0.188,0 0.313,-0.187 0.375,-0.25c0.063,-0.187 0.813,-2.75 1.188,-3.375c0.125,-0.25 0.25,-0.312 0.312,-0.312c0.125,-0 0.188,0.25 0.188,0.437l-0,8.938c-0,0.75 -0.625,1.187 -1.25,1.187c-0.25,0 -0.563,0.125 -0.563,0.5c0,0.375 0.313,0.5 0.813,0.5l5.25,0c0.5,0 0.5,-0.5 0.5,-0.5c-0,0 -0,-0.5 -0.5,-0.5c-0.438,0 -1,-0.562 -1,-1.125l-0,-13c-0,-0.5 -0.188,-0.75 -0.625,-0.75c-0.438,0 -0.813,0.125 -1.188,0.125c-0.625,0 -0.75,0 -1.25,-0.125c-0.25,0 -0.562,0.375 -0.75,0.625l-1.937,6.688" style="fill-rule:nonzero;"/></g><g><path d="M267.371,249.833c8.187,0 14.875,6.625 14.875,14.813c-0,8.187 -6.688,14.875 -14.875,14.875c-8.188,-0 -14.875,-6.688 -14.875,-14.875c-0,-8.188 6.687,-14.813 14.875,-14.813m4.5,19.25c-0,2.813 -1.875,4.688 -4.438,4.688c-2.562,-0 -4.5,-2 -4.5,-4.813c0,-2.75 1.875,-4.562 4.625,-4.562c2.625,-0 4.313,1.75 4.313,4.687m2.812,-0.187c0,-4.125 -2.812,-6.938 -6.812,-6.938c-2.188,0 -3.875,0.875 -5.063,2.5c0,-5.437 1.75,-8.437 4.938,-8.437c1.937,-0 3.25,1.25 3.687,3.375l2.75,-0c-0.5,-3.625 -2.875,-5.813 -6.25,-5.813c-5.187,0 -7.937,4.375 -7.937,12.063c-0,6.937 2.375,10.562 7.437,10.562c4.188,0 7.25,-3 7.25,-7.312m-7.312,12.625c9.312,-0 16.875,-7.563 16.875,-16.875c-0,-9.313 -7.563,-16.813 -16.875,-16.813c-9.313,0 -16.875,7.5 -16.875,16.813c-0,9.312 7.562,16.875 16.875,16.875" style="fill-rule:nonzero;"/></g><g><path d="M374.284,240.499c8.188,0 14.875,6.625 14.875,14.813c0,8.187 -6.687,14.875 -14.875,14.875c-8.187,-0 -14.875,-6.688 -14.875,-14.875c0,-8.188 6.688,-14.813 14.875,-14.813m7.25,18.813c0,-4.375 -2.937,-7.25 -7.187,-7.25c-1.563,-0 -2.813,0.375 -4.063,1.312l0.875,-5.687l9.188,-0l-0,-2.75l-11.438,-0l-1.625,11.625l2.5,-0c1.313,-1.563 2.375,-2.063 4.063,-2.063c3,0 4.875,1.875 4.875,5.188c-0,3.187 -1.875,5 -4.875,5c-2.375,-0 -3.875,-1.25 -4.5,-3.75l-2.75,-0c0.875,4.437 3.375,6.187 7.312,6.187c4.5,0 7.625,-3.125 7.625,-7.812m-7.25,12.875c9.313,-0 16.875,-7.563 16.875,-16.875c0,-9.313 -7.562,-16.813 -16.875,-16.813c-9.312,0 -16.875,7.5 -16.875,16.813c0,9.312 7.563,16.875 16.875,16.875" style="fill-rule:nonzero;"/></g><g><path d="M475.075,253.688l6.937,-9.688l0,9.688l-6.937,-0m6.187,-18.125c8.188,-0 14.875,6.625 14.875,14.812c0,8.188 -6.687,14.875 -14.875,14.875c-8.187,0 -14.874,-6.687 -14.874,-14.875c-0,-8.187 6.687,-14.812 14.874,-14.812m6.75,18.125l-3.25,-0l0,-14.375l-2.062,-0l-10.062,13.937l-0,2.938l9.374,-0l0,5.312l2.75,0l0,-5.312l3.25,-0l0,-2.5m-6.75,13.562c9.313,0 16.875,-7.562 16.875,-16.875c0,-9.312 -7.562,-16.812 -16.875,-16.812c-9.312,-0 -16.874,7.5 -16.874,16.812c-0,9.313 7.562,16.875 16.874,16.875" style="fill-rule:nonzero;"/></g><g><path d="M588.212,220.121c8.188,-0 14.875,6.625 14.875,14.812c0,8.188 -6.687,14.875 -14.875,14.875c-8.187,0 -14.875,-6.687 -14.875,-14.875c0,-8.187 6.688,-14.812 14.875,-14.812m0,31.687c9.313,0 16.875,-7.562 16.875,-16.875c0,-9.312 -7.562,-16.812 -16.875,-16.812c-9.312,-0 -16.875,7.5 -16.875,16.812c0,9.313 7.563,16.875 16.875,16.875m7.438,-12.312c-0,-2.688 -1.125,-4.25 -3.75,-5.188c2.062,-0.812 3.062,-2.25 3.062,-4.437c0,-3.813 -2.5,-6.125 -6.75,-6.125c-4.437,-0 -6.812,2.437 -6.937,7.187l2.75,0c0.062,-3.312 1.437,-4.75 4.25,-4.75c2.437,0 3.875,1.438 3.875,3.75c-0,2.375 -1,3.375 -5.438,3.375l0,2.313l1.5,-0c3.063,-0 4.625,1.437 4.625,3.875c0,2.812 -1.75,4.437 -4.625,4.437c-3,0 -4.437,-1.5 -4.625,-4.687l-2.75,-0c0.313,4.937 2.75,7.125 7.313,7.125c4.562,-0 7.5,-2.688 7.5,-6.875" style="fill-rule:nonzero;"/></g><g><path d="M720.887,203.271c8.188,-0 14.875,6.625 14.875,14.812c0,8.188 -6.687,14.875 -14.875,14.875c-8.187,0 -14.875,-6.687 -14.875,-14.875c0,-8.187 6.688,-14.812 14.875,-14.812m0,31.687c9.313,0 16.875,-7.562 16.875,-16.875c0,-9.312 -7.562,-16.812 -16.875,-16.812c-9.312,-0 -16.875,7.5 -16.875,16.812c0,9.313 7.563,16.875 16.875,16.875m7.438,-22.375c-0,-3.75 -2.875,-6.5 -7.063,-6.5c-4.562,0 -7.187,2.313 -7.312,7.688l2.75,-0c0.187,-3.688 1.75,-5.25 4.437,-5.25c2.5,-0 4.375,1.75 4.375,4.125c0,1.75 -1,3.25 -3,4.375l-2.875,1.625c-4.625,2.625 -5.937,4.75 -6.187,9.625l14.75,-0l-0,-2.75l-11.688,-0c0.313,-1.813 1.313,-2.938 4,-4.563l3.125,-1.687c3.125,-1.625 4.688,-3.938 4.688,-6.688" style="fill-rule:nonzero;"/></g><g><path d="M827.822,203.271c8.187,-0 14.875,6.625 14.875,14.812c-0,8.188 -6.688,14.875 -14.875,14.875c-8.188,0 -14.875,-6.687 -14.875,-14.875c-0,-8.187 6.687,-14.812 14.875,-14.812m1.875,4.312l-1.813,0c-0.937,3.438 -1.562,3.875 -5.812,4.438l-0,1.937l4.875,0l-0,15.813l2.75,-0l-0,-22.188m-1.875,27.375c9.312,0 16.875,-7.562 16.875,-16.875c-0,-9.312 -7.563,-16.812 -16.875,-16.812c-9.313,-0 -16.875,7.5 -16.875,16.812c-0,9.313 7.562,16.875 16.875,16.875" style="fill-rule:nonzero;"/></g><g><path d="M1095.18,203.271c8.187,-0 14.875,6.625 14.875,14.812c-0,8.188 -6.688,14.875 -14.875,14.875c-8.188,0 -14.875,-6.687 -14.875,-14.875c-0,-8.187 6.687,-14.812 14.875,-14.812m-0,31.687c9.312,0 16.875,-7.562 16.875,-16.875c-0,-9.312 -7.563,-16.812 -16.875,-16.812c-9.313,-0 -16.875,7.5 -16.875,16.812c-0,9.313 7.562,16.875 16.875,16.875m7.437,-22.375c0,-3.75 -2.875,-6.5 -7.062,-6.5c-4.563,0 -7.188,2.313 -7.313,7.688l2.75,-0c0.188,-3.688 1.75,-5.25 4.438,-5.25c2.5,-0 4.375,1.75 4.375,4.125c-0,1.75 -1,3.25 -3,4.375l-2.875,1.625c-4.625,2.625 -5.938,4.75 -6.188,9.625l14.75,-0l0,-2.75l-11.687,-0c0.312,-1.813 1.312,-2.938 4,-4.563l3.125,-1.687c3.125,-1.625 4.687,-3.938 4.687,-6.688" style="fill-rule:nonzero;"/></g><g><path d="M1227.9,212.825c8.188,0 14.875,6.625 14.875,14.813c0,8.187 -6.687,14.875 -14.875,14.875c-8.187,-0 -14.874,-6.688 -14.874,-14.875c-0,-8.188 6.687,-14.813 14.874,-14.813m0,31.688c9.313,-0 16.875,-7.563 16.875,-16.875c0,-9.313 -7.562,-16.813 -16.875,-16.813c-9.312,0 -16.874,7.5 -16.874,16.813c-0,9.312 7.562,16.875 16.874,16.875m7.438,-12.313c-0,-2.687 -1.125,-4.25 -3.75,-5.187c2.062,-0.813 3.062,-2.25 3.062,-4.438c0,-3.812 -2.5,-6.125 -6.75,-6.125c-4.437,0 -6.812,2.438 -6.937,7.188l2.75,-0c0.062,-3.313 1.437,-4.75 4.25,-4.75c2.437,-0 3.875,1.437 3.875,3.75c-0,2.375 -1,3.375 -5.438,3.375l0,2.312l1.5,0c3.063,0 4.625,1.438 4.625,3.875c0,2.813 -1.75,4.438 -4.625,4.438c-3,-0 -4.437,-1.5 -4.625,-4.688l-2.75,0c0.313,4.938 2.75,7.125 7.313,7.125c4.562,0 7.5,-2.687 7.5,-6.875" style="fill-rule:nonzero;"/></g><g><path d="M1328.69,240.827l6.937,-9.687l0,9.687l-6.937,0m6.187,-18.125c8.188,0 14.875,6.625 14.875,14.813c0,8.187 -6.687,14.875 -14.875,14.875c-8.187,-0 -14.875,-6.688 -14.875,-14.875c0,-8.188 6.688,-14.813 14.875,-14.813m6.75,18.125l-3.25,0l0,-14.375l-2.062,0l-10.063,13.938l0,2.937l9.375,0l0,5.313l2.75,-0l0,-5.313l3.25,0l0,-2.5m-6.75,13.563c9.313,-0 16.875,-7.563 16.875,-16.875c0,-9.313 -7.562,-16.813 -16.875,-16.813c-9.312,0 -16.875,7.5 -16.875,16.813c0,9.312 7.563,16.875 16.875,16.875" style="fill-rule:nonzero;"/></g><g><path d="M1441.83,203.333c8.188,0 14.875,6.625 14.875,14.813c0,8.187 -6.687,14.875 -14.875,14.875c-8.187,-0 -14.875,-6.688 -14.875,-14.875c0,-8.188 6.688,-14.813 14.875,-14.813m7.25,18.813c0,-4.375 -2.937,-7.25 -7.187,-7.25c-1.563,-0 -2.813,0.375 -4.063,1.312l0.875,-5.687l9.188,-0l-0,-2.75l-11.438,-0l-1.625,11.625l2.5,-0c1.313,-1.563 2.375,-2.063 4.063,-2.063c3,0 4.875,1.875 4.875,5.188c-0,3.187 -1.875,5 -4.875,5c-2.375,-0 -3.875,-1.25 -4.5,-3.75l-2.75,-0c0.875,4.437 3.375,6.187 7.312,6.187c4.5,0 7.625,-3.125 7.625,-7.812m-7.25,12.875c9.313,-0 16.875,-7.563 16.875,-16.875c0,-9.313 -7.562,-16.813 -16.875,-16.813c-9.312,0 -16.875,7.5 -16.875,16.813c0,9.312 7.563,16.875 16.875,16.875" style="fill-rule:nonzero;"/></g><g><path d="M1548.79,234.333c8.187,0 14.875,6.625 14.875,14.813c-0,8.187 -6.688,14.875 -14.875,14.875c-8.188,-0 -14.875,-6.688 -14.875,-14.875c-0,-8.188 6.687,-14.813 14.875,-14.813m4.5,19.25c-0,2.813 -1.875,4.688 -4.438,4.688c-2.562,-0 -4.5,-2 -4.5,-4.813c0,-2.75 1.875,-4.562 4.625,-4.562c2.625,-0 4.313,1.75 4.313,4.687m2.812,-0.187c0,-4.125 -2.812,-6.938 -6.812,-6.938c-2.188,0 -3.875,0.875 -5.063,2.5c0,-5.437 1.75,-8.437 4.938,-8.437c1.937,-0 3.25,1.25 3.687,3.375l2.75,-0c-0.5,-3.625 -2.875,-5.813 -6.25,-5.813c-5.187,0 -7.937,4.375 -7.937,12.063c-0,6.937 2.375,10.562 7.437,10.562c4.188,0 7.25,-3 7.25,-7.312m-7.312,12.625c9.312,-0 16.875,-7.563 16.875,-16.875c-0,-9.313 -7.563,-16.813 -16.875,-16.813c-9.313,0 -16.875,7.5 -16.875,16.813c-0,9.312 7.562,16.875 16.875,16.875" style="fill-rule:nonzero;"/></g><g><path d="M264.212,243.979c5.563,-0 12.375,-5.125 12.375,-10.438c0,-3.187 -2.5,-5.187 -6.062,-5.187c-6.875,-0 -12.375,5.062 -12.375,10.437c-0,3.25 2.687,5.188 6.062,5.188" style="fill-rule:nonzero;"/></g><g><path d="M317.694,228.479c5.562,-0 12.375,-5.125 12.375,-10.438c-0,-3.187 -2.5,-5.187 -6.063,-5.187c-6.875,-0 -12.375,5.062 -12.375,10.437c0,3.25 2.688,5.188 6.063,5.188" style="fill-rule:nonzero;"/></g><g><path d="M356.138,215.729c-0.375,1.25 -3.313,2.5 -4.75,2.5c-0.375,-0 -0.688,-0.125 -0.75,-0.313c-0.125,-0.25 -0.188,-1.625 -0.188,-3.125c0,-1.937 0.063,-4.125 0.188,-4.625c0.125,-1.062 3,-2.375 4.562,-2.375c0.438,0 0.813,0.125 0.938,0.375c0.125,0.313 0.25,1.875 0.25,3.563c-0,1.687 -0.125,3.437 -0.25,4m4.312,-10.188c0.438,-0.187 0.75,-0.687 0.75,-1.062l0,-4.438c0,-0.312 -0.187,-0.5 -0.437,-0.5c-0.125,0 -0.188,0 -0.313,0.063c0,-0 -1.25,0.5 -1.562,0.562c-0.438,0 -0.875,-0.312 -0.875,-0.812l-0,-7.625c-0,-0.375 -0.375,-0.688 -0.875,-0.688c-0.625,0 -1,0.313 -1,0.688l-0,8.125c-0.063,0.625 -0.25,1.437 -0.813,1.812c-0.75,0.438 -2.875,1.313 -3.937,1.563c-0.563,-0 -0.75,-0.75 -0.75,-1.25l-0,-7.5c-0,-0.375 -0.438,-0.688 -0.875,-0.688c-0.625,0 -1,0.313 -1,0.688l-0,8.437c-0,0.875 -0.375,1.5 -0.75,1.688c-0.375,0.187 -1.625,0.687 -1.625,0.687c-0.438,0.125 -0.75,0.625 -0.75,1l-0,4.438c-0,0.375 0.187,0.562 0.5,0.562c0.25,0 1.437,-0.562 1.625,-0.687c0.062,-0 0.125,-0.063 0.187,-0.063c0.438,0 0.813,0.625 0.813,1.125l-0,6.188c-0,0.687 -0.313,1.25 -0.688,1.437c-0.375,0.125 -1.687,0.688 -1.687,0.688c-0.438,0.125 -0.75,0.625 -0.75,1l-0,4.437c-0,0.375 0.187,0.563 0.5,0.563c0.062,-0 0.187,-0.063 0.25,-0.063c-0,0 0.875,-0.375 1.437,-0.562c0.063,-0.063 0.125,-0.063 0.188,-0.063c0.437,0 0.75,0.688 0.75,1l-0,7.688c-0,0.375 0.375,0.687 0.812,0.687c0.625,0 1.063,-0.312 1.063,-0.687l-0,-8.688c-0,-0.812 0.312,-1.25 0.625,-1.375l3.812,-1.562c0.063,-0 0.188,-0.063 0.25,-0.063c0.5,0 0.813,0.75 0.813,1.125l-0,7.813c-0,0.375 0.375,0.687 0.812,0.687c0.688,0 1.063,-0.312 1.063,-0.687l-0,-8.875c-0,-0.5 0.25,-1.25 0.687,-1.438c0.438,-0.187 1.75,-0.687 1.75,-0.687c0.438,-0.188 0.75,-0.688 0.75,-1.063l0,-4.437c0,-0.313 -0.187,-0.5 -0.437,-0.5c-0.125,-0 -0.188,-0 -0.313,0.062l-1.625,0.625c-0.375,0 -0.812,-0.375 -0.812,-1.125l-0,-5.812c-0,-0.438 0.312,-1.625 0.812,-1.813l1.625,-0.625" style="fill-rule:nonzero;"/></g><g><path d="M371.128,220.729c5.563,-0 12.375,-5.125 12.375,-10.438c0,-3.187 -2.5,-5.187 -6.062,-5.187c-6.875,-0 -12.375,5.062 -12.375,10.437c-0,3.25 2.687,5.188 6.062,5.188" style="fill-rule:nonzero;"/></g><g><path d="M424.609,197.479c5.563,-0 12.375,-5.125 12.375,-10.438c0,-3.187 -2.5,-5.187 -6.062,-5.187c-6.875,-0 -12.375,5.062 -12.375,10.437c-0,3.25 2.687,5.188 6.062,5.188" style="fill-rule:nonzero;"/></g><g><path d="M478.091,189.729c5.562,-0 12.375,-5.125 12.375,-10.438c-0,-3.187 -2.5,-5.187 -6.063,-5.187c-6.875,-0 -12.375,5.062 -12.375,10.437c0,3.25 2.688,5.188 6.063,5.188" style="fill-rule:nonzero;"/></g><g><path d="M531.572,174.229c5.562,-0 12.375,-5.125 12.375,-10.438c-0,-3.187 -2.5,-5.187 -6.063,-5.187c-6.875,-0 -12.375,5.062 -12.375,10.437c0,3.25 2.688,5.188 6.063,5.188" style="fill-rule:nonzero;"/></g><g><path d="M570.066,161.479c-0.375,1.25 -3.313,2.5 -4.75,2.5c-0.375,-0 -0.688,-0.125 -0.75,-0.313c-0.125,-0.25 -0.188,-1.625 -0.188,-3.125c0,-1.937 0.063,-4.125 0.188,-4.625c0.125,-1.062 3,-2.375 4.562,-2.375c0.438,0 0.813,0.125 0.938,0.375c0.125,0.313 0.25,1.875 0.25,3.563c-0,1.687 -0.125,3.437 -0.25,4m4.312,-10.188c0.438,-0.187 0.75,-0.687 0.75,-1.062l0,-4.438c0,-0.312 -0.187,-0.5 -0.437,-0.5c-0.125,0 -0.188,0 -0.313,0.063c0,-0 -1.25,0.5 -1.562,0.562c-0.438,0 -0.875,-0.312 -0.875,-0.812l-0,-7.625c-0,-0.375 -0.375,-0.688 -0.875,-0.688c-0.625,0 -1,0.313 -1,0.688l-0,8.125c-0.063,0.625 -0.25,1.437 -0.813,1.812c-0.75,0.438 -2.875,1.313 -3.937,1.563c-0.563,-0 -0.75,-0.75 -0.75,-1.25l-0,-7.5c-0,-0.375 -0.438,-0.688 -0.875,-0.688c-0.625,0 -1,0.313 -1,0.688l-0,8.437c-0,0.875 -0.375,1.5 -0.75,1.688c-0.375,0.187 -1.625,0.687 -1.625,0.687c-0.438,0.125 -0.75,0.625 -0.75,1l-0,4.438c-0,0.375 0.187,0.562 0.5,0.562c0.25,0 1.437,-0.562 1.625,-0.687c0.062,-0 0.125,-0.063 0.187,-0.063c0.438,0 0.813,0.625 0.813,1.125l-0,6.188c-0,0.687 -0.313,1.25 -0.688,1.437c-0.375,0.125 -1.687,0.688 -1.687,0.688c-0.438,0.125 -0.75,0.625 -0.75,1l-0,4.437c-0,0.375 0.187,0.563 0.5,0.563c0.062,-0 0.187,-0.063 0.25,-0.063c-0,0 0.875,-0.375 1.437,-0.562c0.063,-0.063 0.125,-0.063 0.188,-0.063c0.437,0 0.75,0.688 0.75,1l-0,7.688c-0,0.375 0.375,0.687 0.812,0.687c0.625,0 1.063,-0.312 1.063,-0.687l-0,-8.688c-0,-0.812 0.312,-1.25 0.625,-1.375l3.812,-1.562c0.063,-0 0.188,-0.063 0.25,-0.063c0.5,0 0.813,0.75 0.813,1.125l-0,7.813c-0,0.375 0.375,0.687 0.812,0.687c0.688,0 1.063,-0.312 1.063,-0.687l-0,-8.875c-0,-0.5 0.25,-1.25 0.687,-1.438c0.438,-0.187 1.75,-0.687 1.75,-0.687c0.438,-0.188 0.75,-0.688 0.75,-1.063l0,-4.437c0,-0.313 -0.187,-0.5 -0.437,-0.5c-0.125,-0 -0.188,-0 -0.313,0.062l-1.625,0.625c-0.375,0 -0.812,-0.375 -0.812,-1.125l-0,-5.812c-0,-0.438 0.312,-1.625 0.812,-1.813l1.625,-0.625" style="fill-rule:nonzero;"/></g><g><path d="M585.053,166.479c5.563,-0 12.375,-5.125 12.375,-10.438c0,-3.187 -2.5,-5.187 -6.062,-5.187c-6.875,-0 -12.375,5.062 -12.375,10.437c-0,3.25 2.687,5.188 6.062,5.188" style="fill-rule:nonzero;"/></g><g><path d="M638.487,143.229c5.563,-0 12.375,-5.125 12.375,-10.438c0,-3.187 -2.5,-5.187 -6.062,-5.187c-6.875,-0 -12.375,5.062 -12.375,10.437c-0,3.25 2.687,5.188 6.062,5.188" style="fill-rule:nonzero;"/></g><g><path d="M717.728,135.479c5.562,-0 12.375,-5.125 12.375,-10.438c-0,-3.187 -2.5,-5.187 -6.063,-5.187c-6.875,-0 -12.375,5.062 -12.375,10.437c0,3.25 2.688,5.188 6.063,5.188" style="fill-rule:nonzero;"/></g><g><path d="M771.212,119.979c5.563,-0 12.375,-5.125 12.375,-10.438c0,-3.187 -2.5,-5.187 -6.062,-5.187c-6.875,-0 -12.375,5.062 -12.375,10.437c-0,3.25 2.687,5.188 6.062,5.188" style="fill-rule:nonzero;"/></g><g><path d="M809.672,107.229c-0.375,1.25 -3.313,2.5 -4.75,2.5c-0.375,-0 -0.688,-0.125 -0.75,-0.313c-0.125,-0.25 -0.188,-1.625 -0.188,-3.125c0,-1.937 0.063,-4.125 0.188,-4.625c0.125,-1.062 3,-2.375 4.562,-2.375c0.438,0 0.813,0.125 0.938,0.375c0.125,0.313 0.25,1.875 0.25,3.563c-0,1.687 -0.125,3.437 -0.25,4m4.312,-10.188c0.438,-0.187 0.75,-0.687 0.75,-1.062l0,-4.438c0,-0.312 -0.187,-0.5 -0.437,-0.5c-0.125,0 -0.188,0 -0.313,0.063c0,-0 -1.25,0.5 -1.562,0.562c-0.438,0 -0.875,-0.312 -0.875,-0.812l-0,-7.625c-0,-0.375 -0.375,-0.688 -0.875,-0.688c-0.625,0 -1,0.313 -1,0.688l-0,8.125c-0.063,0.625 -0.25,1.437 -0.813,1.812c-0.75,0.438 -2.875,1.313 -3.937,1.563c-0.563,-0 -0.75,-0.75 -0.75,-1.25l-0,-7.5c-0,-0.375 -0.438,-0.688 -0.875,-0.688c-0.625,0 -1,0.313 -1,0.688l-0,8.437c-0,0.875 -0.375,1.5 -0.75,1.688c-0.375,0.187 -1.625,0.687 -1.625,0.687c-0.438,0.125 -0.75,0.625 -0.75,1l-0,4.438c-0,0.375 0.187,0.562 0.5,0.562c0.25,0 1.437,-0.562 1.625,-0.687c0.062,-0 0.125,-0.063 0.187,-0.063c0.438,0 0.813,0.625 0.813,1.125l-0,6.188c-0,0.687 -0.313,1.25 -0.688,1.437c-0.375,0.125 -1.687,0.688 -1.687,0.688c-0.438,0.125 -0.75,0.625 -0.75,1l-0,4.437c-0,0.375 0.187,0.563 0.5,0.563c0.062,-0 0.187,-0.063 0.25,-0.063c-0,0 0.875,-0.375 1.437,-0.562c0.063,-0.063 0.125,-0.063 0.188,-0.063c0.437,0 0.75,0.688 0.75,1l-0,7.688c-0,0.375 0.375,0.687 0.812,0.687c0.625,0 1.063,-0.312 1.063,-0.687l-0,-8.688c-0,-0.812 0.312,-1.25 0.625,-1.375l3.812,-1.562c0.063,-0 0.188,-0.063 0.25,-0.063c0.5,0 0.813,0.75 0.813,1.125l-0,7.813c-0,0.375 0.375,0.687 0.812,0.687c0.688,0 1.063,-0.312 1.063,-0.687l-0,-8.875c-0,-0.5 0.25,-1.25 0.687,-1.438c0.438,-0.187 1.75,-0.687 1.75,-0.687c0.438,-0.188 0.75,-0.688 0.75,-1.063l0,-4.437c0,-0.313 -0.187,-0.5 -0.437,-0.5c-0.125,-0 -0.188,-0 -0.313,0.062l-1.625,0.625c-0.375,0 -0.812,-0.375 -0.812,-1.125l-0,-5.812c-0,-0.438 0.312,-1.625 0.812,-1.813l1.625,-0.625" style="fill-rule:nonzero;"/></g><g><path d="M824.662,112.229c5.563,-0 12.375,-5.125 12.375,-10.438c0,-3.187 -2.5,-5.187 -6.062,-5.187c-6.875,-0 -12.375,5.062 -12.375,10.437c-0,3.25 2.687,5.188 6.062,5.188" style="fill-rule:nonzero;"/></g><g><path d="M878.143,88.979c5.563,-0 12.375,-5.125 12.375,-10.438c0,-3.187 -2.5,-5.187 -6.062,-5.187c-6.875,-0 -12.375,5.062 -12.375,10.437c-0,3.25 2.687,5.188 6.062,5.188" style="fill-rule:nonzero;"/></g><g><path d="M931.625,81.229c5.562,-0 12.375,-5.125 12.375,-10.438c-0,-3.187 -2.5,-5.187 -6.063,-5.187c-6.875,-0 -12.375,5.062 -12.375,10.437c0,3.25 2.688,5.188 6.063,5.188" style="fill-rule:nonzero;"/></g><g><path d="M985.106,88.979c5.562,-0 12.375,-5.125 12.375,-10.438c-0,-3.187 -2.5,-5.187 -6.063,-5.187c-6.875,-0 -12.375,5.062 -12.375,10.437c0,3.25 2.688,5.188 6.063,5.188" style="fill-rule:nonzero;"/></g><g><path d="M1038.59,112.229c5.562,-0 12.375,-5.125 12.375,-10.438c-0,-3.187 -2.5,-5.187 -6.063,-5.187c-6.875,-0 -12.375,5.062 -12.375,10.437c0,3.25 2.688,5.188 6.063,5.188" style="fill-rule:nonzero;"/></g><g><path d="M1092.02,119.979c5.563,-0 12.375,-5.125 12.375,-10.438c0,-3.187 -2.5,-5.187 -6.062,-5.187c-6.875,-0 -12.375,5.062 -12.375,10.437c-0,3.25 2.687,5.188 6.062,5.188" style="fill-rule:nonzero;"/></g><g><path d="M1171.27,135.479c5.562,-0 12.375,-5.125 12.375,-10.438c-0,-3.187 -2.5,-5.187 -6.063,-5.187c-6.875,-0 -12.375,5.062 -12.375,10.437c0,3.25 2.688,5.188 6.063,5.188" style="fill-rule:nonzero;"/></g><g><path d="M1224.75,143.229c5.563,-0 12.375,-5.125 12.375,-10.438c0,-3.187 -2.5,-5.187 -6.062,-5.187c-6.875,-0 -12.375,5.062 -12.375,10.437c-0,3.25 2.687,5.188 6.062,5.188" style="fill-rule:nonzero;"/></g><g><path d="M1263.24,161.479c-0.375,1.25 -3.313,2.5 -4.75,2.5c-0.375,-0 -0.688,-0.125 -0.75,-0.313c-0.125,-0.25 -0.188,-1.625 -0.188,-3.125c0,-1.937 0.063,-4.125 0.188,-4.625c0.125,-1.062 3,-2.375 4.562,-2.375c0.438,0 0.813,0.125 0.938,0.375c0.125,0.313 0.25,1.875 0.25,3.563c-0,1.687 -0.125,3.437 -0.25,4m4.312,-10.188c0.438,-0.187 0.75,-0.687 0.75,-1.062l0,-4.438c0,-0.312 -0.187,-0.5 -0.437,-0.5c-0.125,0 -0.188,0 -0.313,0.063c0,-0 -1.25,0.5 -1.562,0.562c-0.438,0 -0.875,-0.312 -0.875,-0.812l-0,-7.625c-0,-0.375 -0.375,-0.688 -0.875,-0.688c-0.625,0 -1,0.313 -1,0.688l-0,8.125c-0.063,0.625 -0.25,1.437 -0.813,1.812c-0.75,0.438 -2.875,1.313 -3.937,1.563c-0.563,-0 -0.75,-0.75 -0.75,-1.25l-0,-7.5c-0,-0.375 -0.438,-0.688 -0.875,-0.688c-0.625,0 -1,0.313 -1,0.688l-0,8.437c-0,0.875 -0.375,1.5 -0.75,1.688c-0.375,0.187 -1.625,0.687 -1.625,0.687c-0.438,0.125 -0.75,0.625 -0.75,1l-0,4.438c-0,0.375 0.187,0.562 0.5,0.562c0.25,0 1.437,-0.562 1.625,-0.687c0.062,-0 0.125,-0.063 0.187,-0.063c0.438,0 0.813,0.625 0.813,1.125l-0,6.188c-0,0.687 -0.313,1.25 -0.688,1.437c-0.375,0.125 -1.687,0.688 -1.687,0.688c-0.438,0.125 -0.75,0.625 -0.75,1l-0,4.437c-0,0.375 0.187,0.563 0.5,0.563c0.062,-0 0.187,-0.063 0.25,-0.063c-0,0 0.875,-0.375 1.437,-0.562c0.063,-0.063 0.125,-0.063 0.188,-0.063c0.437,0 0.75,0.688 0.75,1l-0,7.688c-0,0.375 0.375,0.687 0.812,0.687c0.625,0 1.063,-0.312 1.063,-0.687l-0,-8.688c-0,-0.812 0.312,-1.25 0.625,-1.375l3.812,-1.562c0.063,-0 0.188,-0.063 0.25,-0.063c0.5,0 0.813,0.75 0.813,1.125l-0,7.813c-0,0.375 0.375,0.687 0.812,0.687c0.688,0 1.063,-0.312 1.063,-0.687l-0,-8.875c-0,-0.5 0.25,-1.25 0.687,-1.438c0.438,-0.187 1.75,-0.687 1.75,-0.687c0.438,-0.188 0.75,-0.688 0.75,-1.063l0,-4.437c0,-0.313 -0.187,-0.5 -0.437,-0.5c-0.125,-0 -0.188,-0 -0.313,0.062l-1.625,0.625c-0.375,0 -0.812,-0.375 -0.812,-1.125l-0,-5.812c-0,-0.438 0.312,-1.625 0.812,-1.813l1.625,-0.625" style="fill-rule:nonzero;"/></g><g><path d="M1278.23,166.479c5.563,-0 12.375,-5.125 12.375,-10.438c0,-3.187 -2.5,-5.187 -6.062,-5.187c-6.875,-0 -12.375,5.062 -12.375,10.437c-0,3.25 2.687,5.188 6.062,5.188" style="fill-rule:nonzero;"/></g><g><path d="M1331.71,174.229c5.562,-0 12.374,-5.125 12.374,-10.438c0,-3.187 -2.5,-5.187 -6.062,-5.187c-6.875,-0 -12.375,5.062 -12.375,10.437c0,3.25 2.688,5.188 6.063,5.188" style="fill-rule:nonzero;"/></g><g><path d="M1385.19,189.729c5.562,-0 12.375,-5.125 12.375,-10.438c-0,-3.187 -2.5,-5.187 -6.063,-5.187c-6.875,-0 -12.375,5.062 -12.375,10.437c0,3.25 2.688,5.188 6.063,5.188" style="fill-rule:nonzero;"/></g><g><path d="M1438.67,197.479c5.562,-0 12.375,-5.125 12.375,-10.438c-0,-3.187 -2.5,-5.187 -6.063,-5.187c-6.875,-0 -12.375,5.062 -12.375,10.437c0,3.25 2.688,5.188 6.063,5.188" style="fill-rule:nonzero;"/></g><g><path d="M1477.16,215.729c-0.375,1.25 -3.313,2.5 -4.75,2.5c-0.375,-0 -0.688,-0.125 -0.75,-0.313c-0.125,-0.25 -0.188,-1.625 -0.188,-3.125c0,-1.937 0.063,-4.125 0.188,-4.625c0.125,-1.062 3,-2.375 4.562,-2.375c0.438,0 0.813,0.125 0.938,0.375c0.125,0.313 0.25,1.875 0.25,3.563c-0,1.687 -0.125,3.437 -0.25,4m4.312,-10.188c0.438,-0.187 0.75,-0.687 0.75,-1.062l0,-4.438c0,-0.312 -0.187,-0.5 -0.437,-0.5c-0.125,0 -0.188,0 -0.313,0.063c0,-0 -1.25,0.5 -1.562,0.562c-0.438,0 -0.875,-0.312 -0.875,-0.812l-0,-7.625c-0,-0.375 -0.375,-0.688 -0.875,-0.688c-0.625,0 -1,0.313 -1,0.688l-0,8.125c-0.063,0.625 -0.25,1.437 -0.813,1.812c-0.75,0.438 -2.875,1.313 -3.937,1.563c-0.563,-0 -0.75,-0.75 -0.75,-1.25l-0,-7.5c-0,-0.375 -0.438,-0.688 -0.875,-0.688c-0.625,0 -1,0.313 -1,0.688l-0,8.437c-0,0.875 -0.375,1.5 -0.75,1.688c-0.375,0.187 -1.625,0.687 -1.625,0.687c-0.438,0.125 -0.75,0.625 -0.75,1l-0,4.438c-0,0.375 0.187,0.562 0.5,0.562c0.25,0 1.437,-0.562 1.625,-0.687c0.062,-0 0.125,-0.063 0.187,-0.063c0.438,0 0.813,0.625 0.813,1.125l-0,6.188c-0,0.687 -0.313,1.25 -0.688,1.437c-0.375,0.125 -1.687,0.688 -1.687,0.688c-0.438,0.125 -0.75,0.625 -0.75,1l-0,4.437c-0,0.375 0.187,0.563 0.5,0.563c0.062,-0 0.187,-0.063 0.25,-0.063c-0,0 0.875,-0.375 1.437,-0.562c0.063,-0.063 0.125,-0.063 0.188,-0.063c0.437,0 0.75,0.688 0.75,1l-0,7.688c-0,0.375 0.375,0.687 0.812,0.687c0.625,0 1.063,-0.312 1.063,-0.687l-0,-8.688c-0,-0.812 0.312,-1.25 0.625,-1.375l3.812,-1.562c0.063,-0 0.188,-0.063 0.25,-0.063c0.5,0 0.813,0.75 0.813,1.125l-0,7.813c-0,0.375 0.375,0.687 0.812,0.687c0.688,0 1.063,-0.312 1.063,-0.687l-0,-8.875c-0,-0.5 0.25,-1.25 0.687,-1.438c0.438,-0.187 1.75,-0.687 1.75,-0.687c0.438,-0.188 0.75,-0.688 0.75,-1.063l0,-4.437c0,-0.313 -0.187,-0.5 -0.437,-0.5c-0.125,-0 -0.188,-0 -0.313,0.062l-1.625,0.625c-0.375,0 -0.812,-0.375 -0.812,-1.125l-0,-5.812c-0,-0.438 0.312,-1.625 0.812,-1.813l1.625,-0.625" style="fill-rule:nonzero;"/></g><g><path d="M1492.15,220.729c5.563,-0 12.375,-5.125 12.375,-10.438c0,-3.187 -2.5,-5.187 -6.062,-5.187c-6.875,-0 -12.375,5.062 -12.375,10.437c-0,3.25 2.687,5.188 6.062,5.188" style="fill-rule:nonzero;"/></g><g><path d="M1545.64,228.479c5.563,-0 12.375,-5.125 12.375,-10.438c0,-3.187 -2.5,-5.187 -6.062,-5.187c-6.875,-0 -12.375,5.062 -12.375,10.437c-0,3.25 2.687,5.188 6.062,5.188" style="fill-rule:nonzero;"/></g><g><path d="M1625.75,232.229c0.687,-2.188 3,-2.5 4.937,-2.5c4.313,-0 7.75,4.625 7.75,8.375c0,1.937 -0.812,3.687 -2.875,4.187c-0.625,0.188 -1.312,0.25 -1.937,0.25c-2.25,0 -4.563,-1.5 -5.875,-3.25c-1.25,-1.437 -2.188,-3.562 -2.188,-5.562c0,-0.5 0.063,-1 0.188,-1.5m6.562,-3.875c-8.312,-0 -13.5,3.437 -13.5,7.687c0,4.188 3.563,7.938 12.875,7.938c10.25,-0 13.5,-3.563 13.5,-7.938c0,-4.437 -7.062,-7.687 -12.875,-7.687" style="fill-rule:nonzero;"/></g><g><path d="M161.563,165.541c0.187,1.188 0.187,1.125 -0.938,1.5c-5.5,1.875 -9.062,6.813 -9.062,12.125c-0,5.625 2.937,9.625 7.187,11.063c0.5,0.187 1.25,0.375 1.688,0.375c0.5,-0 0.75,-0.313 0.75,-0.688c-0,-0.437 -0.5,-0.625 -0.938,-0.812c-2.625,-1.125 -4.5,-3.813 -4.5,-6.688c0,-3.562 2.438,-6.25 6.25,-7.312c1,-0.25 1.125,-0.188 1.25,0.5l3.125,18.625c0.125,0.687 0.063,0.687 -0.875,0.875c-1,0.187 -2.25,0.312 -3.5,0.312c-10.937,0 -18,-6.062 -18,-14.75c0,-3.687 0.625,-8.625 5.813,-14.5c3.75,-4.187 6.625,-6.5 9.562,-8.875c0.625,-0.5 0.75,-0.437 0.875,0.25l1.313,8m6.812,-42.562c2.063,-0 3.75,1.687 3.75,5.125c0,6.937 -5.937,12.562 -10.875,16.875c-0.437,0.375 -0.687,0.312 -0.812,-0.5c-0.25,-1.625 -0.375,-3.75 -0.375,-5.75c-0,-9.75 4.5,-15.75 8.312,-15.75m-2.5,52.5c-0.125,-0.75 -0.062,-0.938 0.688,-0.875c5.062,0.437 9.25,4.687 9.25,10.187c-0,3.938 -2.375,7.125 -5.875,8.875c-0.75,0.375 -0.875,0.375 -1,-0.375l-3.063,-17.812m-3.375,-19.5c-0.125,-0.75 0,-0.813 0.375,-1.188c6.75,-6.312 11.875,-14.25 11.875,-23.812c0,-5.438 -1.5,-10.813 -4.062,-14.563c-0.938,-1.375 -2.563,-3.125 -3.25,-3.125c-0.875,0 -2.813,1.625 -4.063,3c-4.625,5.125 -6.125,12.938 -6.125,19.438c0,3.625 0.438,7.687 0.875,10.25c0.125,0.75 0.188,0.875 -0.562,1.5c-9,7.437 -18.563,16.375 -18.563,29c0,10.875 7.438,21.187 22.75,21.187c1.438,0 3.063,-0.125 4.313,-0.375c0.687,-0.125 0.812,-0.187 0.937,0.563c0.75,4.187 1.688,9.625 1.688,12.562c-0,9.25 -6.25,10.375 -9.938,10.375c-3.375,0 -5,-1 -5,-1.812c0,-0.438 0.563,-0.625 2,-1.063c1.938,-0.562 4.188,-2.25 4.188,-5.875c-0,-3.437 -2.188,-6.375 -6,-6.375c-4.188,0 -6.688,3.313 -6.688,7.188c0,4.062 2.438,10.187 11.875,10.187c4.188,0 12.313,-1.875 12.313,-12.5c-0,-3.562 -1.125,-9.5 -1.813,-13.375c-0.125,-0.75 -0.062,-0.687 0.813,-1.062c6.312,-2.5 10.5,-7.813 10.5,-14.875c-0,-8 -5.875,-15.063 -15.063,-15.063c-1.625,0 -1.625,0 -1.812,-1.125l-1.563,-9.062" style="fill-rule:nonzero;"/></g><g><text x="195.174px" y="150.791px" style="font-family:'Bravura';font-size:62.5px;"></text></g><g><text x="195.174px" y="182.09px" style="font-family:'Bravura';font-size:62.5px;"></text></g><g><path d="M274.719,170.291l0,-7.806l162.25,-19.375l0,7.806l-162.25,19.375" style="fill-rule:nonzero;"/></g><g><path d="M472.032,228.498l-0,-7.832l162.25,-23.25l-0,7.832l-162.25,23.25" style="fill-rule:nonzero;"/></g><g><path d="M711.656,189.748l0,-7.832l162.282,-23.25l-0,7.832l-162.282,23.25" style="fill-rule:nonzero;"/></g><g><path d="M925.563,166.426l-0,-7.76l162.249,7.75l0,7.76l-162.249,-7.75" style="fill-rule:nonzero;"/></g><g><path d="M1165.19,197.473l0,-7.807l162.313,19.375l-0,7.807l-162.313,-19.375" style="fill-rule:nonzero;"/></g><g><path d="M1395.69,135.416l0,-7.831l162.312,23.25l0,7.831l-162.312,-23.25" style="fill-rule:nonzero;"/></g></g></svg>