<?xml version="1.0" encoding="UTF-8" standalone="no"?><!DOCTYPE svg PUBLIC "-//W3C//DTD SVG 1.1//EN" "http://www.w3.org/Graphics/SVG/1.1/DTD/svg11.dtd"><svg width="100%" height="100%" viewBox="0 0 28725 4023" version="1.1" xmlns="http://www.w3.org/2000/svg" xmlns:xlink="http://www.w3.org/1999/xlink" xml:space="preserve" xmlns:serif="http://www.serif.com/" style="fill-rule:evenodd;clip-rule:evenodd;stroke-miterlimit:2;"><g><g><path d="M39.224,2292.99l28645.8,-0" style="fill:none;stroke:#000;stroke-width:35.08px;"/><path d="M39.224,1485.7l28645.8,-0" style="fill:none;stroke:#000;stroke-width:35.08px;"/><path d="M39.224,1754.79l28645.8,-0" style="fill:none;stroke:#000;stroke-width:35.08px;"/><path d="M39.224,2023.89l28645.8,-0" style="fill:none;stroke:#000;stroke-width:35.08px;"/><path d="M39.224,2562.08l28645.8,0" style="fill:none;stroke:#000;stroke-width:35.08px;"/></g><g><path d="M9174.93,1468.23l-0,1111.32" style="fill:none;stroke:#000;stroke-width:43.04px;"/><path d="M17267.7,1468.23l-0,1111.32" style="fill:none;stroke:#000;stroke-width:43.04px;"/><path d="M25362,1468.23l0,1111.32" style="fill:none;stroke:#000;stroke-width:43.04px;"/><path d="M28512.8,1468.23l0,1111.32" style="fill:none;stroke:#000;stroke-width:43.04px;"/><path d="M28663.5,1468.23l0,1111.32" style="fill:none;stroke:#000;stroke-width:43.04px;"/></g><g><path d="M1810.87,2022.97l0,1166.66" style="fill:none;stroke:#000;stroke-width:32.29px;"/></g><g><path d="M1399.36,3100.28l535.296,0" style="fill:none;stroke:#000;stroke-width:43.04px;"/><path d="M1399.36,2831.18l535.296,0" style="fill:none;stroke:#000;stroke-width:43.04px;"/></g><g><path d="M2766.72,1910.83l0,1009.71" style="fill:none;stroke:#000;stroke-width:32.29px;"/></g><g><path d="M2355.23,2831.18l535.275,0" style="fill:none;stroke:#000;stroke-width:43.04px;"/></g><g><path d="M3722.05,1798.73l-0,987.259" style="fill:none;stroke:#000;stroke-width:32.29px;"/></g><g><path d="M3373.37,2831.18l472.5,0" style="fill:none;stroke:#000;stroke-width:43.04px;"/></g><g><path d="M4677.97,1686.6l0,695.75" style="fill:none;stroke:#000;stroke-width:32.29px;"/><path d="M5346.1,2338.18l0,696.125" style="fill:none;stroke:#000;stroke-width:32.29px;"/><path d="M6301.97,2069.08l0,830.679" style="fill:none;stroke:#000;stroke-width:32.29px;"/><path d="M7257.81,1934.53l-0,830.675" style="fill:none;stroke:#000;stroke-width:32.29px;"/><path d="M8213.72,1530.89l0,1099.77" style="fill:none;stroke:#000;stroke-width:32.29px;"/><path d="M9616.81,1396.34l-0,965.225" style="fill:none;stroke:#000;stroke-width:32.29px;"/><path d="M10572.6,1127.24l0,1099.77" style="fill:none;stroke:#000;stroke-width:32.29px;"/></g><g><path d="M10448.9,1216.6l535.258,-0" style="fill:none;stroke:#000;stroke-width:43.04px;"/></g><g><path d="M11528,992.692l0,1099.83" style="fill:none;stroke:#000;stroke-width:32.29px;"/></g><g><path d="M11467,947.5l472.483,0" style="fill:none;stroke:#000;stroke-width:43.04px;"/><path d="M11471.5,1216.6l467.988,-0" style="fill:none;stroke:#000;stroke-width:43.04px;"/></g><g><path d="M12483.9,589.046l0,1368.87" style="fill:none;stroke:#000;stroke-width:32.29px;"/></g><g><path d="M12360.1,678.404l535.329,0" style="fill:none;stroke:#000;stroke-width:43.04px;"/><path d="M12360.1,947.5l535.329,0" style="fill:none;stroke:#000;stroke-width:43.04px;"/><path d="M12360.1,1216.6l535.329,-0" style="fill:none;stroke:#000;stroke-width:43.04px;"/></g><g><path d="M13439.7,589.046l0,1368.87" style="fill:none;stroke:#000;stroke-width:32.29px;"/></g><g><path d="M13316,678.404l535.259,0" style="fill:none;stroke:#000;stroke-width:43.04px;"/><path d="M13316,947.5l535.259,0" style="fill:none;stroke:#000;stroke-width:43.04px;"/><path d="M13316,1216.6l535.259,-0" style="fill:none;stroke:#000;stroke-width:43.04px;"/></g><g><path d="M14395.6,992.692l0,1099.78" style="fill:none;stroke:#000;stroke-width:32.29px;"/></g><g><path d="M14271.8,947.5l535.312,0" style="fill:none;stroke:#000;stroke-width:43.04px;"/><path d="M14271.8,1216.6l535.312,-0" style="fill:none;stroke:#000;stroke-width:43.04px;"/></g><g><path d="M15351.4,1127.24l0,1099.77" style="fill:none;stroke:#000;stroke-width:32.29px;"/></g><g><path d="M15227.8,1216.6l535.279,-0" style="fill:none;stroke:#000;stroke-width:43.04px;"/></g><g><path d="M16307.3,1396.34l0,965.225" style="fill:none;stroke:#000;stroke-width:32.29px;"/><path d="M17709.5,1530.89l0,1099.77" style="fill:none;stroke:#000;stroke-width:32.29px;"/><path d="M18665.4,1934.53l-0,830.675" style="fill:none;stroke:#000;stroke-width:32.29px;"/><path d="M19621.3,2069.08l0,830.679" style="fill:none;stroke:#000;stroke-width:32.29px;"/><path d="M20577.2,2338.18l0,696.125" style="fill:none;stroke:#000;stroke-width:32.29px;"/><path d="M21820.8,1686.6l-0,695.75" style="fill:none;stroke:#000;stroke-width:32.29px;"/><path d="M22776.6,1798.73l-0,987.259" style="fill:none;stroke:#000;stroke-width:32.29px;"/></g><g><path d="M22427.9,2831.18l472.483,0" style="fill:none;stroke:#000;stroke-width:43.04px;"/></g><g><path d="M23732.4,1910.83l-0,1009.71" style="fill:none;stroke:#000;stroke-width:32.29px;"/></g><g><path d="M23321,2831.18l535.28,0" style="fill:none;stroke:#000;stroke-width:43.04px;"/></g><g><path d="M24688.3,2022.97l0,1166.66" style="fill:none;stroke:#000;stroke-width:32.29px;"/></g><g><path d="M24276.9,3100.28l535.313,0" style="fill:none;stroke:#000;stroke-width:43.04px;"/><path d="M24276.9,2831.18l535.313,0" style="fill:none;stroke:#000;stroke-width:43.04px;"/><path d="M25680,3100.28l673.021,0" style="fill:none;stroke:#000;stroke-width:43.04px;"/><path d="M25680,2831.18l673.021,0" style="fill:none;stroke:#000;stroke-width:43.04px;"/></g><g><path d="M1604.82,1067.95c0,0 -1.096,4.342 -1.096,7.588c0,4.341 4.342,8.679 8.684,8.679c3.262,-0 5.433,-3.263 6.508,-4.338c1.096,-3.266 14.117,-47.746 20.625,-58.596c2.171,-4.337 4.342,-5.433 5.417,-5.433c2.17,0 3.262,4.342 3.262,7.604l0,155.175c0,13.021 -10.85,20.609 -21.7,20.609c-4.342,-0 -9.775,2.166 -9.775,8.679c0,6.508 5.433,8.679 14.117,8.679l91.146,-0c8.679,-0 8.679,-8.679 8.679,-8.679c-0,-0 -0,-8.679 -8.679,-8.679c-7.605,-0 -17.363,-9.775 -17.363,-19.534l0,-225.696c0,-8.679 -3.262,-13.02 -10.85,-13.02c-7.604,-0 -14.117,2.17 -20.625,2.17c-10.85,0 -13.021,0 -21.7,-2.17c-4.342,-0 -9.758,6.512 -13.021,10.854l-33.629,116.108" style="fill-rule:nonzero;"/></g><g><path d="M2680.63,1118.94l-0,-116.096c-0,-5.433 -1.096,-9.775 -6.513,-9.775c-4.341,-0 -7.604,1.096 -10.85,5.437l-32.554,62.934c-2.167,2.17 -5.433,5.416 -5.433,13.021l-0,44.479l-70.521,-0c44.479,-36.892 113.925,-159.496 115.017,-166.009c-0,-1.091 1.079,-2.17 1.079,-3.262c-0,-4.342 -4.342,-7.588 -7.588,-7.588c-5.433,0 -28.212,2.171 -37.987,2.171c-9.754,0 -16.267,-2.171 -20.609,-2.171c-5.433,0 -13.02,2.171 -13.02,10.85c-0,69.446 -56.421,148.646 -70.538,168.18c-2.171,2.166 -4.337,5.433 -4.337,8.679c-0,5.433 4.337,10.85 10.85,10.85l97.654,-0l-0,33.646c-0,15.191 -8.679,19.533 -17.359,19.533c-9.758,-0 -14.1,4.337 -14.1,9.754c0,5.438 2.171,11.946 11.93,11.946l93.316,-0c5.434,-0 10.85,-4.342 10.85,-11.946c0,-7.583 -6.512,-10.85 -11.929,-10.85c-5.433,0 -17.358,-3.246 -17.358,-20.608l-0,-31.475l40.137,-0c5.434,-0 8.679,-4.342 8.679,-10.85c0,-6.513 -2.17,-10.85 -8.679,-10.85l-40.137,-0" style="fill-rule:nonzero;"/></g><g><path d="M3516.01,1067.95c-0,0 -1.092,4.342 -1.092,7.588c0,4.341 4.338,8.679 8.679,8.679c3.263,-0 5.434,-3.263 6.513,-4.338c1.092,-3.266 14.112,-47.746 20.625,-58.596c2.167,-4.337 4.337,-5.433 5.417,-5.433c2.166,0 3.262,4.342 3.262,7.604l0,155.175c0,13.021 -10.85,20.609 -21.7,20.609c-4.342,-0 -9.775,2.166 -9.775,8.679c0,6.508 5.433,8.679 14.113,8.679l91.145,-0c8.684,-0 8.684,-8.679 8.684,-8.679c-0,-0 -0,-8.679 -8.684,-8.679c-7.604,-0 -17.358,-9.775 -17.358,-19.534l0,-225.696c0,-8.679 -3.267,-13.02 -10.854,-13.02c-7.604,-0 -14.113,2.17 -20.625,2.17c-10.85,0 -13.021,0 -21.7,-2.17c-4.342,-0 -9.758,6.512 -13.021,10.854l-33.629,116.108" style="fill-rule:nonzero;"/></g><g><path d="M4591.85,1118.94l0,-116.096c0,-5.433 -1.075,-9.775 -6.508,-9.775c-4.342,-0 -7.587,1.096 -10.85,5.437l-32.554,62.934c-2.171,2.17 -5.417,5.416 -5.417,13.021l0,44.479l-70.537,-0c44.496,-36.892 113.941,-159.496 115.016,-166.009c0,-1.091 1.096,-2.17 1.096,-3.262c0,-4.342 -4.341,-7.588 -7.604,-7.588c-5.417,0 -28.212,2.171 -37.971,2.171c-9.775,0 -16.283,-2.171 -20.625,-2.171c-5.416,0 -13.021,2.171 -13.021,10.85c0,69.446 -56.425,148.646 -70.52,168.18c-2.171,2.166 -4.342,5.433 -4.342,8.679c-0,5.433 4.342,10.85 10.854,10.85l97.654,-0l0,33.646c0,15.191 -8.679,19.533 -17.362,19.533c-9.771,-0 -14.113,4.337 -14.113,9.754c0,5.438 2.171,11.946 11.946,11.946l93.313,-0c5.416,-0 10.854,-4.342 10.854,-11.946c-0,-7.583 -6.513,-10.85 -11.946,-10.85c-5.417,0 -17.363,-3.246 -17.363,-20.608l0,-31.475l40.159,-0c5.416,-0 8.679,-4.342 8.679,-10.85c-0,-6.513 -2.171,-10.85 -8.679,-10.85l-40.159,-0" style="fill-rule:nonzero;"/></g><g><path d="M5427.72,1067.95c0,0 -1.079,4.342 -1.079,7.588c0,4.341 4.342,8.679 8.684,8.679c3.245,-0 5.416,-3.263 6.508,-4.338c1.079,-3.266 14.1,-47.746 20.608,-58.596c2.171,-4.337 4.342,-5.433 5.434,-5.433c2.17,0 3.245,4.342 3.245,7.604l0,155.175c0,13.021 -10.85,20.609 -21.7,20.609c-4.341,-0 -9.758,2.166 -9.758,8.679c0,6.508 5.417,8.679 14.1,8.679l91.146,-0c8.679,-0 8.679,-8.679 8.679,-8.679c0,-0 0,-8.679 -8.679,-8.679c-7.588,-0 -17.363,-9.775 -17.363,-19.534l0,-225.696c0,-8.679 -3.245,-13.02 -10.85,-13.02c-7.587,-0 -14.095,2.17 -20.608,2.17c-10.85,0 -13.021,0 -21.7,-2.17c-4.342,-0 -9.775,6.512 -13.021,10.854l-33.646,116.108" style="fill-rule:nonzero;"/></g><g><path d="M6503.6,1118.94l0,-116.096c0,-5.433 -1.095,-9.775 -6.512,-9.775c-4.338,-0 -7.604,1.096 -10.85,5.437l-32.55,62.934c-2.171,2.17 -5.433,5.416 -5.433,13.021l-0,44.479l-70.521,-0c44.479,-36.892 113.921,-159.496 115.016,-166.009c0,-1.091 1.075,-2.17 1.075,-3.262c0,-4.342 -4.341,-7.588 -7.587,-7.588c-5.433,0 -28.213,2.171 -37.983,2.171c-9.759,0 -16.271,-2.171 -20.609,-2.171c-5.433,0 -13.021,2.171 -13.021,10.85c0,69.446 -56.425,148.646 -70.537,168.18c-2.171,2.166 -4.342,5.433 -4.342,8.679c0,5.433 4.342,10.85 10.85,10.85l97.659,-0l-0,33.646c-0,15.191 -8.684,19.533 -17.363,19.533c-9.758,-0 -14.096,4.337 -14.096,9.754c0,5.438 2.167,11.946 11.925,11.946l93.317,-0c5.433,-0 10.85,-4.342 10.85,-11.946c-0,-7.583 -6.508,-10.85 -11.925,-10.85c-5.438,0 -17.363,-3.246 -17.363,-20.608l0,-31.475l40.138,-0c5.433,-0 8.683,-4.342 8.683,-10.85c0,-6.513 -2.171,-10.85 -8.683,-10.85l-40.138,-0" style="fill-rule:nonzero;"/></g><g><path d="M7339.47,1067.95c0,0 -1.091,4.342 -1.091,7.588c-0,4.341 4.341,8.679 8.679,8.679c3.267,-0 5.433,-3.263 6.512,-4.338c1.092,-3.266 14.113,-47.746 20.625,-58.596c2.171,-4.337 4.338,-5.433 5.417,-5.433c2.171,0 3.263,4.342 3.263,7.604l-0,155.175c-0,13.021 -10.85,20.609 -21.7,20.609c-4.342,-0 -9.775,2.166 -9.775,8.679c-0,6.508 5.433,8.679 14.112,8.679l91.146,-0c8.683,-0 8.683,-8.679 8.683,-8.679c0,-0 0,-8.679 -8.683,-8.679c-7.604,-0 -17.358,-9.775 -17.358,-19.534l-0,-225.696c-0,-8.679 -3.267,-13.02 -10.85,-13.02c-7.605,-0 -14.117,2.17 -20.625,2.17c-10.855,0 -13.021,0 -21.705,-2.17c-4.337,-0 -9.754,6.512 -13.02,10.854l-33.63,116.108" style="fill-rule:nonzero;"/></g><g><path d="M8415.31,1118.7l-0,-116.092c-0,-5.433 -1.096,-9.775 -6.513,-9.775c-4.341,0 -7.604,1.096 -10.85,5.434l-32.554,62.933c-2.167,2.171 -5.433,5.417 -5.433,13.021l-0,44.479l-70.521,-0c44.479,-36.892 113.925,-159.496 115.017,-166.004c-0,-1.096 1.079,-2.171 1.079,-3.267c-0,-4.337 -4.342,-7.583 -7.588,-7.583c-5.433,-0 -28.212,2.166 -37.987,2.166c-9.754,0 -16.267,-2.166 -20.609,-2.166c-5.433,-0 -13.02,2.166 -13.02,10.85c-0,69.441 -56.421,148.646 -70.538,168.175c-2.171,2.171 -4.337,5.433 -4.337,8.683c-0,5.433 4.337,10.85 10.85,10.85l97.654,0l-0,33.646c-0,15.192 -8.679,19.529 -17.359,19.529c-9.758,0 -14.1,4.342 -14.1,9.758c0,5.434 2.171,11.946 11.93,11.946l93.316,0c5.434,0 10.85,-4.341 10.85,-11.946c0,-7.587 -6.512,-10.85 -11.929,-10.85c-5.433,0 -17.358,-3.245 -17.358,-20.608l-0,-31.475l40.137,0c5.434,0 8.679,-4.342 8.679,-10.85c0,-6.512 -2.17,-10.854 -8.679,-10.854l-40.137,-0" style="fill-rule:nonzero;"/></g><g><path d="M9698.47,932.308c0,0 -1.095,4.342 -1.095,7.605c-0,4.341 4.341,8.683 8.683,8.683c3.262,-0 5.433,-3.267 6.508,-4.342c1.096,-3.266 14.117,-47.741 20.625,-58.596c2.171,-4.337 4.342,-5.433 5.417,-5.433c2.171,0 3.262,4.342 3.262,7.604l0,155.158c0,13.021 -10.85,20.625 -21.7,20.625c-4.341,0 -9.775,2.171 -9.775,8.68c0,6.512 5.434,8.679 14.117,8.679l91.146,-0c8.679,-0 8.679,-8.679 8.679,-8.679c0,-0 0,-8.68 -8.679,-8.68c-7.604,0 -17.363,-9.775 -17.363,-19.533l0,-225.696c0,-8.679 -3.262,-13.021 -10.85,-13.021c-7.604,0 -14.116,2.171 -20.625,2.171c-10.85,0 -13.02,0 -21.7,-2.166c-4.341,-0 -9.758,6.508 -13.02,10.85l-33.63,116.091" style="fill-rule:nonzero;"/></g><g><path d="M10774.3,715.054l0,-116.096c0,-5.433 -1.092,-9.775 -6.508,-9.775c-4.342,0 -7.604,1.096 -10.85,5.434l-32.554,62.937c-2.171,2.167 -5.434,5.417 -5.434,13.021l0,44.479l-70.521,0c44.48,-36.896 113.925,-159.5 115.017,-166.008c0,-1.096 1.079,-2.171 1.079,-3.267c0,-4.337 -4.341,-7.583 -7.587,-7.583c-5.434,-0 -28.213,2.171 -37.988,2.171c-9.758,-0 -16.266,-2.171 -20.608,-2.171c-5.433,-0 -13.021,2.171 -13.021,10.85c0,69.446 -56.421,148.646 -70.537,168.175c-2.171,2.171 -4.342,5.437 -4.342,8.683c-0,5.434 4.342,10.85 10.854,10.85l97.654,0l0,33.646c0,15.192 -8.679,19.529 -17.362,19.529c-9.754,0 -14.096,4.342 -14.096,9.759c-0,5.433 2.171,11.945 11.929,11.945l93.313,0c5.437,0 10.854,-4.341 10.854,-11.945c-0,-7.588 -6.513,-10.85 -11.929,-10.85c-5.434,-0 -17.363,-3.246 -17.363,-20.609l0,-31.475l40.142,0c5.433,0 8.679,-4.341 8.679,-10.85c-0,-6.512 -2.171,-10.854 -8.679,-10.854l-40.142,0" style="fill-rule:nonzero;"/></g><g><path d="M11609.6,528.663c0,-0 -1.075,4.341 -1.075,7.604c0,4.341 4.338,8.683 8.679,8.683c3.246,0 5.417,-3.267 6.513,-4.342c1.075,-3.262 14.096,-47.741 20.604,-58.596c2.171,-4.337 4.342,-5.433 5.437,-5.433c2.167,0 3.246,4.342 3.246,7.604l0,155.159c0,13.02 -10.85,20.625 -21.704,20.625c-4.337,-0 -9.754,2.17 -9.754,8.679c-0,6.512 5.417,8.679 14.096,8.679l91.146,0c8.679,0 8.679,-8.679 8.679,-8.679c-0,-0 -0,-8.679 -8.679,-8.679c-7.588,-0 -17.363,-9.775 -17.363,-19.534l0,-225.691c0,-8.684 -3.246,-13.021 -10.85,-13.021c-7.587,-0 -14.096,2.166 -20.608,2.166c-10.85,0 -13.021,0 -21.7,-2.166c-4.342,-0 -9.775,6.508 -13.021,10.85l-33.646,116.091" style="fill-rule:nonzero;"/></g><g><path d="M12685.5,176.858l0,-116.096c0,-5.433 -1.075,-9.77 -6.508,-9.77c-4.342,-0 -7.587,1.091 -10.85,5.433l-32.554,62.933c-2.171,2.171 -5.417,5.417 -5.417,13.021l0,44.479l-70.537,0c44.496,-36.891 113.941,-159.496 115.016,-166.008c0,-1.092 1.096,-2.171 1.096,-3.262c0,-4.342 -4.341,-7.588 -7.604,-7.588c-5.417,0 -28.212,2.171 -37.971,2.171c-9.775,-0 -16.283,-2.171 -20.625,-2.171c-5.416,0 -13.021,2.171 -13.021,10.85c0,69.446 -56.425,148.646 -70.52,168.179c-2.171,2.171 -4.342,5.434 -4.342,8.679c-0,5.434 4.342,10.85 10.854,10.85l97.654,0l0,33.646c0,15.192 -8.679,19.534 -17.362,19.534c-9.771,-0 -14.113,4.337 -14.113,9.754c0,5.437 2.171,11.945 11.946,11.945l93.313,0c5.416,0 10.854,-4.341 10.854,-11.945c-0,-7.584 -6.513,-10.85 -11.946,-10.85c-5.417,-0 -17.363,-3.246 -17.363,-20.609l0,-31.475l40.159,0c5.416,0 8.679,-4.337 8.679,-10.85c-0,-6.508 -2.171,-10.85 -8.679,-10.85l-40.159,0" style="fill-rule:nonzero;"/></g><g><path d="M13641.3,176.858l-0,-116.096c-0,-5.433 -1.075,-9.77 -6.509,-9.77c-4.341,-0 -7.587,1.091 -10.85,5.433l-32.554,62.933c-2.171,2.171 -5.416,5.417 -5.416,13.021l-0,44.479l-70.538,0c44.496,-36.891 113.942,-159.496 115.017,-166.008c-0,-1.092 1.096,-2.171 1.096,-3.262c-0,-4.342 -4.342,-7.588 -7.605,-7.588c-5.416,0 -28.212,2.171 -37.97,2.171c-9.775,-0 -16.284,-2.171 -20.625,-2.171c-5.417,0 -13.021,2.171 -13.021,10.85c-0,69.446 -56.425,148.646 -70.521,168.179c-2.171,2.171 -4.342,5.434 -4.342,8.679c0,5.434 4.342,10.85 10.854,10.85l97.655,0l-0,33.646c-0,15.192 -8.68,19.534 -17.363,19.534c-9.771,-0 -14.112,4.337 -14.112,9.754c-0,5.437 2.17,11.945 11.945,11.945l93.313,0c5.417,0 10.854,-4.341 10.854,-11.945c0,-7.584 -6.512,-10.85 -11.946,-10.85c-5.416,-0 -17.362,-3.246 -17.362,-20.609l-0,-31.475l40.158,0c5.417,0 8.679,-4.337 8.679,-10.85c0,-6.508 -2.171,-10.85 -8.679,-10.85l-40.158,0" style="fill-rule:nonzero;"/></g><g><path d="M14477.3,528.663c0,-0 -1.075,4.341 -1.075,7.604c0,4.341 4.342,8.683 8.679,8.683c3.246,0 5.417,-3.267 6.513,-4.342c1.075,-3.262 14.096,-47.741 20.608,-58.596c2.167,-4.337 4.338,-5.433 5.433,-5.433c2.171,0 3.246,4.342 3.246,7.604l0,155.159c0,13.02 -10.85,20.625 -21.7,20.625c-4.341,-0 -9.758,2.17 -9.758,8.679c-0,6.512 5.417,8.679 14.096,8.679l91.146,0c8.683,0 8.683,-8.679 8.683,-8.679c-0,-0 -0,-8.679 -8.683,-8.679c-7.588,-0 -17.359,-9.775 -17.359,-19.534l0,-225.691c0,-8.684 -3.25,-13.021 -10.854,-13.021c-7.583,-0 -14.096,2.166 -20.604,2.166c-10.854,0 -13.021,0 -21.704,-2.166c-4.338,-0 -9.775,6.508 -13.021,10.85l-33.646,116.091" style="fill-rule:nonzero;"/></g><g><path d="M15553.1,715.054l0,-116.096c0,-5.433 -1.091,-9.775 -6.508,-9.775c-4.342,0 -7.604,1.096 -10.85,5.434l-32.554,62.937c-2.171,2.167 -5.433,5.417 -5.433,13.021l-0,44.479l-70.521,0c44.479,-36.896 113.925,-159.5 115.016,-166.008c0,-1.096 1.08,-2.171 1.08,-3.267c-0,-4.337 -4.342,-7.583 -7.588,-7.583c-5.433,-0 -28.212,2.171 -37.987,2.171c-9.759,-0 -16.267,-2.171 -20.609,-2.171c-5.433,-0 -13.021,2.171 -13.021,10.85c0,69.446 -56.42,148.646 -70.537,168.175c-2.171,2.171 -4.342,5.437 -4.342,8.683c0,5.434 4.342,10.85 10.854,10.85l97.655,0l-0,33.646c-0,15.192 -8.68,19.529 -17.363,19.529c-9.754,0 -14.096,4.342 -14.096,9.759c0,5.433 2.171,11.945 11.929,11.945l93.313,0c5.437,0 10.854,-4.341 10.854,-11.945c0,-7.588 -6.512,-10.85 -11.929,-10.85c-5.433,-0 -17.363,-3.246 -17.363,-20.609l0,-31.475l40.142,0c5.433,0 8.679,-4.341 8.679,-10.85c0,-6.512 -2.171,-10.854 -8.679,-10.854l-40.142,0" style="fill-rule:nonzero;"/></g><g><path d="M16389.1,932.308c-0,0 -1.092,4.342 -1.092,7.605c0,4.341 4.342,8.683 8.679,8.683c3.267,-0 5.434,-3.267 6.513,-4.342c1.091,-3.266 14.112,-47.741 20.625,-58.596c2.171,-4.337 4.337,-5.433 5.416,-5.433c2.171,0 3.263,4.342 3.263,7.604l-0,155.158c-0,13.021 -10.85,20.625 -21.7,20.625c-4.342,0 -9.775,2.171 -9.775,8.68c-0,6.512 5.433,8.679 14.112,8.679l91.146,-0c8.684,-0 8.684,-8.679 8.684,-8.679c-0,-0 -0,-8.68 -8.684,-8.68c-7.604,0 -17.358,-9.775 -17.358,-19.533l-0,-225.696c-0,-8.679 -3.267,-13.021 -10.85,-13.021c-7.604,0 -14.117,2.171 -20.625,2.171c-10.854,0 -13.021,0 -21.704,-2.166c-4.338,-0 -9.754,6.508 -13.021,10.85l-33.629,116.091" style="fill-rule:nonzero;"/></g><g><path d="M17911.1,1118.7l0,-116.092c0,-5.433 -1.075,-9.775 -6.508,-9.775c-4.342,0 -7.587,1.096 -10.854,5.434l-32.55,62.933c-2.171,2.171 -5.417,5.417 -5.417,13.021l0,44.479l-70.537,-0c44.496,-36.892 113.941,-159.496 115.016,-166.004c0,-1.096 1.092,-2.171 1.092,-3.267c0,-4.337 -4.337,-7.583 -7.604,-7.583c-5.417,-0 -28.208,2.166 -37.967,2.166c-9.775,0 -16.283,-2.166 -20.625,-2.166c-5.416,-0 -13.021,2.166 -13.021,10.85c0,69.441 -56.425,148.646 -70.52,168.175c-2.171,2.171 -4.342,5.433 -4.342,8.683c-0,5.433 4.342,10.85 10.85,10.85l97.658,0l0,33.646c0,15.192 -8.679,19.529 -17.362,19.529c-9.775,0 -14.113,4.342 -14.113,9.758c0,5.434 2.171,11.946 11.942,11.946l93.317,0c5.416,0 10.85,-4.341 10.85,-11.946c-0,-7.587 -6.509,-10.85 -11.942,-10.85c-5.417,0 -17.363,-3.245 -17.363,-20.608l0,-31.475l40.159,0c5.416,0 8.679,-4.342 8.679,-10.85c-0,-6.512 -2.171,-10.854 -8.679,-10.854l-40.159,-0" style="fill-rule:nonzero;"/></g><g><path d="M18747.2,1067.95c0,0 -1.079,4.342 -1.079,7.588c0,4.341 4.342,8.679 8.684,8.679c3.245,-0 5.416,-3.263 6.508,-4.338c1.079,-3.266 14.1,-47.746 20.608,-58.596c2.171,-4.337 4.342,-5.433 5.434,-5.433c2.17,0 3.245,4.342 3.245,7.604l0,155.175c0,13.021 -10.85,20.609 -21.7,20.609c-4.341,-0 -9.758,2.166 -9.758,8.679c0,6.508 5.417,8.679 14.1,8.679l91.146,-0c8.679,-0 8.679,-8.679 8.679,-8.679c0,-0 0,-8.679 -8.679,-8.679c-7.588,-0 -17.363,-9.775 -17.363,-19.534l0,-225.696c0,-8.679 -3.245,-13.02 -10.85,-13.02c-7.587,-0 -14.095,2.17 -20.608,2.17c-10.85,0 -13.021,0 -21.7,-2.17c-4.342,-0 -9.775,6.512 -13.021,10.854l-33.646,116.108" style="fill-rule:nonzero;"/></g><g><path d="M19822.9,1118.94l0,-116.096c0,-5.433 -1.092,-9.775 -6.508,-9.775c-4.342,-0 -7.604,1.096 -10.85,5.437l-32.554,62.934c-2.171,2.17 -5.434,5.416 -5.434,13.021l0,44.479l-70.521,-0c44.48,-36.892 113.925,-159.496 115.017,-166.009c0,-1.091 1.079,-2.17 1.079,-3.262c0,-4.342 -4.341,-7.588 -7.587,-7.588c-5.434,0 -28.213,2.171 -37.988,2.171c-9.758,0 -16.266,-2.171 -20.608,-2.171c-5.433,0 -13.021,2.171 -13.021,10.85c0,69.446 -56.421,148.646 -70.537,168.18c-2.171,2.166 -4.342,5.433 -4.342,8.679c-0,5.433 4.342,10.85 10.854,10.85l97.654,-0l0,33.646c0,15.191 -8.679,19.533 -17.362,19.533c-9.754,-0 -14.096,4.337 -14.096,9.754c-0,5.438 2.171,11.946 11.929,11.946l93.313,-0c5.437,-0 10.854,-4.342 10.854,-11.946c-0,-7.583 -6.513,-10.85 -11.929,-10.85c-5.434,0 -17.363,-3.246 -17.363,-20.608l0,-31.475l40.142,-0c5.433,-0 8.679,-4.342 8.679,-10.85c-0,-6.513 -2.171,-10.85 -8.679,-10.85l-40.142,-0" style="fill-rule:nonzero;"/></g><g><path d="M20658.8,1067.95c0,0 -1.091,4.342 -1.091,7.588c-0,4.341 4.341,8.679 8.679,8.679c3.267,-0 5.433,-3.263 6.512,-4.338c1.092,-3.266 14.113,-47.746 20.625,-58.596c2.171,-4.337 4.338,-5.433 5.417,-5.433c2.171,0 3.263,4.342 3.263,7.604l-0,155.175c-0,13.021 -10.85,20.609 -21.7,20.609c-4.342,-0 -9.775,2.166 -9.775,8.679c-0,6.508 5.433,8.679 14.112,8.679l91.146,-0c8.683,-0 8.683,-8.679 8.683,-8.679c0,-0 0,-8.679 -8.683,-8.679c-7.604,-0 -17.358,-9.775 -17.358,-19.534l-0,-225.696c-0,-8.679 -3.267,-13.02 -10.85,-13.02c-7.605,-0 -14.117,2.17 -20.625,2.17c-10.855,0 -13.021,0 -21.705,-2.17c-4.337,-0 -9.754,6.512 -13.02,10.854l-33.63,116.108" style="fill-rule:nonzero;"/></g><g><path d="M21734.7,1118.94l0,-116.096c0,-5.433 -1.079,-9.775 -6.512,-9.775c-4.338,-0 -7.588,1.096 -10.85,5.437l-32.55,62.934c-2.171,2.17 -5.417,5.416 -5.417,13.021l0,44.479l-70.541,-0c44.5,-36.892 113.941,-159.496 115.02,-166.009c0,-1.091 1.092,-2.17 1.092,-3.262c0,-4.342 -4.342,-7.588 -7.604,-7.588c-5.417,0 -28.213,2.171 -37.967,2.171c-9.775,0 -16.287,-2.171 -20.625,-2.171c-5.416,0 -13.021,2.171 -13.021,10.85c0,69.446 -56.425,148.646 -70.52,168.18c-2.171,2.166 -4.342,5.433 -4.342,8.679c-0,5.433 4.342,10.85 10.85,10.85l97.658,-0l0,33.646c0,15.191 -8.683,19.533 -17.362,19.533c-9.775,-0 -14.117,4.337 -14.117,9.754c0,5.438 2.171,11.946 11.946,11.946l93.317,-0c5.416,-0 10.85,-4.342 10.85,-11.946c-0,-7.583 -6.509,-10.85 -11.946,-10.85c-5.417,0 -17.359,-3.246 -17.359,-20.608l0,-31.475l40.155,-0c5.416,-0 8.683,-4.342 8.683,-10.85c-0,-6.513 -2.171,-10.85 -8.683,-10.85l-40.155,-0" style="fill-rule:nonzero;"/></g><g><path d="M22570.6,1067.95c0,0 -1.079,4.342 -1.079,7.588c-0,4.341 4.342,8.679 8.683,8.679c3.246,-0 5.417,-3.263 6.509,-4.338c1.079,-3.266 14.1,-47.746 20.608,-58.596c2.171,-4.337 4.342,-5.433 5.433,-5.433c2.171,0 3.246,4.342 3.246,7.604l0,155.175c0,13.021 -10.85,20.609 -21.7,20.609c-4.342,-0 -9.758,2.166 -9.758,8.679c-0,6.508 5.416,8.679 14.1,8.679l91.146,-0c8.679,-0 8.679,-8.679 8.679,-8.679c-0,-0 -0,-8.679 -8.679,-8.679c-7.588,-0 -17.363,-9.775 -17.363,-19.534l0,-225.696c0,-8.679 -3.246,-13.02 -10.85,-13.02c-7.587,-0 -14.096,2.17 -20.608,2.17c-10.85,0 -13.021,0 -21.7,-2.17c-4.342,-0 -9.775,6.512 -13.021,10.854l-33.646,116.108" style="fill-rule:nonzero;"/></g><g><path d="M23646.5,1118.94l0,-116.096c0,-5.433 -1.075,-9.775 -6.508,-9.775c-4.342,-0 -7.588,1.096 -10.854,5.437l-32.55,62.934c-2.171,2.17 -5.417,5.416 -5.417,13.021l-0,44.479l-70.538,-0c44.496,-36.892 113.942,-159.496 115.017,-166.009c0,-1.091 1.092,-2.17 1.092,-3.262c-0,-4.342 -4.338,-7.588 -7.604,-7.588c-5.417,0 -28.209,2.171 -37.967,2.171c-9.775,0 -16.283,-2.171 -20.625,-2.171c-5.417,0 -13.021,2.171 -13.021,10.85c0,69.446 -56.425,148.646 -70.521,168.18c-2.171,2.166 -4.341,5.433 -4.341,8.679c-0,5.433 4.341,10.85 10.85,10.85l97.658,-0l-0,33.646c-0,15.191 -8.679,19.533 -17.363,19.533c-9.775,-0 -14.112,4.337 -14.112,9.754c-0,5.438 2.171,11.946 11.942,11.946l93.316,-0c5.417,-0 10.85,-4.342 10.85,-11.946c0,-7.583 -6.508,-10.85 -11.941,-10.85c-5.417,0 -17.363,-3.246 -17.363,-20.608l0,-31.475l40.158,-0c5.417,-0 8.68,-4.342 8.68,-10.85c-0,-6.513 -2.171,-10.85 -8.68,-10.85l-40.158,-0" style="fill-rule:nonzero;"/></g><g><path d="M24482.3,1067.95c0,0 -1.092,4.342 -1.092,7.588c0,4.341 4.342,8.679 8.68,8.679c3.266,-0 5.433,-3.263 6.512,-4.338c1.092,-3.266 14.113,-47.746 20.625,-58.596c2.171,-4.337 4.338,-5.433 5.417,-5.433c2.171,0 3.262,4.342 3.262,7.604l0,155.175c0,13.021 -10.85,20.609 -21.7,20.609c-4.341,-0 -9.775,2.166 -9.775,8.679c0,6.508 5.434,8.679 14.113,8.679l91.146,-0c8.683,-0 8.683,-8.679 8.683,-8.679c-0,-0 -0,-8.679 -8.683,-8.679c-7.605,-0 -17.359,-9.775 -17.359,-19.534l0,-225.696c0,-8.679 -3.266,-13.02 -10.85,-13.02c-7.604,-0 -14.116,2.17 -20.625,2.17c-10.854,0 -13.021,0 -21.704,-2.17c-4.337,-0 -9.754,6.512 -13.021,10.854l-33.629,116.108" style="fill-rule:nonzero;"/></g><g><path d="M25954.3,1067.95c-0,0 -1.075,4.342 -1.075,7.588c-0,4.341 4.337,8.679 8.679,8.679c3.246,-0 5.417,-3.263 6.512,-4.338c1.075,-3.266 14.096,-47.746 20.605,-58.596c2.17,-4.337 4.341,-5.433 5.437,-5.433c2.167,0 3.246,4.342 3.246,7.604l-0,155.175c-0,13.021 -10.85,20.609 -21.704,20.609c-4.338,-0 -9.754,2.166 -9.754,8.679c-0,6.508 5.416,8.679 14.095,8.679l91.146,-0c8.679,-0 8.679,-8.679 8.679,-8.679c0,-0 0,-8.679 -8.679,-8.679c-7.587,-0 -17.362,-9.775 -17.362,-19.534l-0,-225.696c-0,-8.679 -3.246,-13.02 -10.85,-13.02c-7.588,-0 -14.096,2.17 -20.609,2.17c-10.85,0 -13.02,0 -21.7,-2.17c-4.341,-0 -9.775,6.512 -13.02,10.854l-33.646,116.108" style="fill-rule:nonzero;"/></g><g><path d="M1667.09,3472.1c142.15,0 258.246,115.017 258.246,257.154c-0,142.15 -116.096,258.246 -258.246,258.246c-142.137,0 -258.25,-116.096 -258.25,-258.246c0,-142.137 116.113,-257.154 258.25,-257.154m78.125,334.2c0,48.821 -32.554,81.375 -77.033,81.375c-44.496,0 -78.125,-34.725 -78.125,-83.542c-0,-47.745 32.554,-79.22 80.296,-79.22c45.57,-0.001 74.862,30.383 74.862,81.391m48.833,-3.267c0,-71.612 -48.833,-120.433 -118.279,-120.433c-37.971,0 -67.275,15.192 -87.883,43.404c-0,-94.412 30.383,-146.496 85.712,-146.496c33.646,0.001 56.425,21.705 64.03,58.596l47.741,0c-8.679,-62.933 -49.912,-100.904 -108.508,-100.904c-90.067,0 -137.813,75.954 -137.813,209.409c0,120.454 41.234,183.387 129.134,183.387c72.691,0 125.866,-52.083 125.866,-126.963m-126.958,219.184c161.683,-0 292.967,-131.284 292.967,-292.967c-0,-161.666 -131.284,-291.875 -292.967,-291.875c-161.667,0 -292.971,130.209 -292.971,291.875c0,161.684 131.304,292.967 292.971,292.967" style="fill-rule:nonzero;"/></g><g><path d="M3578.29,3310.05c142.154,0 258.246,115.017 258.246,257.167c-0,142.137 -116.092,258.25 -258.246,258.25c-142.133,-0 -258.246,-116.113 -258.246,-258.25c0,-142.15 116.113,-257.167 258.246,-257.167m125.867,326.613c-0,-75.954 -50.988,-125.867 -124.771,-125.867c-27.138,0 -48.838,6.508 -70.542,22.775l15.192,-98.729l159.516,-0l0,-47.746l-198.579,0l-28.212,201.825l43.404,0c22.796,-27.137 41.233,-35.817 70.537,-35.817c52.084,0 84.638,32.55 84.638,90.071c-0,55.329 -32.554,86.804 -84.638,86.804c-41.233,0 -67.275,-21.7 -78.125,-65.104l-47.741,0c15.191,77.029 58.591,107.413 126.946,107.413c78.125,-0 132.375,-54.255 132.375,-135.625m-125.867,223.525c161.683,-0 292.971,-131.305 292.971,-292.971c-0,-161.684 -131.288,-291.892 -292.971,-291.892c-161.667,0 -292.967,130.208 -292.967,291.892c0,161.666 131.3,292.971 292.967,292.971" style="fill-rule:nonzero;"/></g><g><path d="M5382.85,3539.01l120.434,-168.18l-0,168.18l-120.434,-0m107.413,-314.671c142.154,-0 258.246,115.016 258.246,257.171c-0,142.133 -116.092,258.245 -258.246,258.245c-142.133,0 -258.246,-116.112 -258.246,-258.25c0,-142.15 116.113,-257.166 258.246,-257.166m117.187,314.666l-56.42,0l-0,-249.562l-35.8,-0l-174.705,241.979l0,50.988l162.759,-0l-0,92.241l47.746,0l-0,-92.241l56.42,-0l0,-43.405m-117.187,235.471c161.683,0 292.971,-131.304 292.971,-292.971c-0,-161.683 -131.288,-291.891 -292.971,-291.891c-161.667,-0 -292.967,130.208 -292.967,291.891c0,161.667 131.3,292.971 292.967,292.971" style="fill-rule:nonzero;"/></g><g><path d="M7401.72,2955.64c142.155,-0 258.246,115.016 258.246,257.171c0,142.133 -116.091,258.245 -258.246,258.245c-142.133,0 -258.245,-116.112 -258.245,-258.245c-0,-142.155 116.112,-257.171 258.245,-257.171m0,550.137c161.684,0 292.971,-131.3 292.971,-292.967c0,-161.683 -131.287,-291.891 -292.971,-291.891c-161.666,-0 -292.966,130.208 -292.966,291.892c-0,161.666 131.3,292.966 292.966,292.966m129.134,-213.766c-0,-46.65 -19.534,-73.784 -65.104,-90.05c35.8,-14.117 53.158,-39.063 53.158,-77.05c-0,-66.18 -43.4,-106.338 -117.188,-106.338c-77.029,0 -118.262,42.329 -120.433,124.792l47.742,-0c1.079,-57.517 24.95,-82.463 73.787,-82.463c42.309,0 67.275,24.946 67.275,65.104c0,41.23 -17.362,58.592 -94.412,58.592l-0,40.138l26.041,-0c53.18,-0 80.296,24.966 80.296,67.275c0,48.837 -30.383,77.05 -80.296,77.05c-52.083,-0 -77.029,-26.042 -80.295,-81.388l-47.742,0c5.433,85.729 47.742,123.696 126.962,123.696c79.2,-0 130.209,-46.65 130.209,-119.358" style="fill-rule:nonzero;"/></g><g><path d="M9760.72,2663.72c142.15,-0 258.246,115.016 258.246,257.171c0,142.133 -116.096,258.245 -258.246,258.245c-142.137,0 -258.25,-116.112 -258.25,-258.25c0,-142.15 116.113,-257.166 258.25,-257.166m0,550.137c161.684,0 292.967,-131.3 292.967,-292.971c0,-161.683 -131.283,-291.891 -292.967,-291.891c-161.666,-0 -292.97,130.208 -292.97,291.891c-0,161.671 131.304,292.971 292.97,292.971m129.13,-388.454c-0,-65.104 -49.913,-112.846 -122.621,-112.846c-79.2,0 -124.775,40.138 -126.946,133.454l47.746,0c3.246,-64.012 30.379,-91.145 77.029,-91.145c43.404,-0 75.954,30.379 75.954,71.612c0,30.383 -17.358,56.425 -52.083,75.954l-49.913,28.213c-80.296,45.575 -103.071,82.466 -107.412,167.1l256.075,-0l-0,-47.742l-202.917,0c5.438,-31.458 22.796,-50.992 69.446,-79.2l54.254,-29.308c54.254,-28.209 81.388,-68.35 81.388,-116.092" style="fill-rule:nonzero;"/></g><g><path d="M11671.9,2663.72c142.137,-0 258.246,115.016 258.246,257.171c-0,142.133 -116.109,258.245 -258.246,258.245c-142.154,0 -258.246,-116.112 -258.246,-258.25c-0,-142.15 116.092,-257.166 258.246,-257.166m32.554,74.879l-31.479,-0c-16.267,59.667 -27.117,67.271 -100.9,77.029l-0,33.646l84.633,-0l0,274.512l47.746,0l-0,-385.191m-32.554,475.262c161.666,0 292.971,-131.3 292.971,-292.971c-0,-161.683 -131.305,-291.891 -292.971,-291.891c-161.684,-0 -292.967,130.208 -292.967,291.891c0,161.671 131.283,292.971 292.967,292.971" style="fill-rule:nonzero;"/></g><g><path d="M15495.3,2663.72c142.154,-0 258.25,115.016 258.25,257.171c-0,142.133 -116.096,258.245 -258.25,258.245c-142.134,0 -258.246,-116.112 -258.246,-258.25c-0,-142.15 116.112,-257.166 258.246,-257.166m-0,550.137c161.687,0 292.971,-131.3 292.971,-292.971c-0,-161.683 -131.284,-291.891 -292.971,-291.891c-161.667,-0 -292.967,130.208 -292.967,291.891c0,161.671 131.3,292.971 292.967,292.971m129.133,-388.454c0,-65.104 -49.912,-112.846 -122.621,-112.846c-79.221,0 -124.791,40.138 -126.962,133.454l47.741,0c3.267,-64.012 30.384,-91.145 77.05,-91.145c43.405,-0 75.955,30.379 75.955,71.612c-0,30.383 -17.359,56.425 -52.084,75.954l-49.912,28.213c-80.296,45.575 -103.071,82.466 -107.413,167.1l256.075,-0l0,-47.742l-202.916,0c5.433,-31.458 22.795,-50.992 69.445,-79.2l54.255,-29.308c54.254,-28.209 81.387,-68.35 81.387,-116.092" style="fill-rule:nonzero;"/></g><g><path d="M17853.6,2862.62c142.154,-0 258.25,115.017 258.25,257.154c0,142.154 -116.096,258.246 -258.25,258.246c-142.133,-0 -258.246,-116.092 -258.246,-258.246c0,-142.137 116.113,-257.154 258.246,-257.154m0,550.121c161.688,-0 292.971,-131.284 292.971,-292.967c-0,-161.667 -131.283,-291.875 -292.971,-291.875c-161.667,0 -292.967,130.208 -292.967,291.875c0,161.683 131.3,292.967 292.967,292.967m129.133,-213.75c0,-46.667 -19.529,-73.784 -65.104,-90.067c35.8,-14.1 53.159,-39.062 53.159,-77.033c-0,-66.196 -43.4,-106.338 -117.188,-106.338c-77.029,0 -118.262,42.313 -120.433,124.775l47.746,0c1.075,-57.5 24.945,-82.462 73.783,-82.462c42.308,-0 67.275,24.962 67.275,65.104c-0,41.229 -17.363,58.592 -94.413,58.592l0,40.158l26.042,-0c53.179,-0 80.296,24.946 80.296,67.271c-0,48.821 -30.379,77.033 -80.296,77.033c-52.083,0 -77.029,-26.042 -80.292,-81.371l-47.745,0c5.433,85.713 47.745,123.696 126.962,123.696c79.2,0 130.208,-46.667 130.208,-119.358" style="fill-rule:nonzero;"/></g><g><path d="M19658.1,3443.39l120.433,-168.18l0,168.18l-120.433,-0m107.413,-314.671c142.154,-0 258.245,115.016 258.245,257.166c0,142.138 -116.091,258.25 -258.245,258.25c-142.138,0 -258.246,-116.112 -258.246,-258.25c-0,-142.15 116.108,-257.166 258.246,-257.166m117.187,314.666l-56.425,0l0,-249.562l-35.796,-0l-174.708,241.979l-0,50.988l162.762,-0l0,92.241l47.742,0l0,-92.241l56.425,-0l0,-43.405m-117.187,235.471c161.683,0 292.966,-131.304 292.966,-292.971c0,-161.683 -131.283,-291.891 -292.966,-291.891c-161.667,-0 -292.971,130.208 -292.971,291.891c-0,161.667 131.304,292.971 292.971,292.971" style="fill-rule:nonzero;"/></g><g><path d="M21677.1,2664.81c142.137,0 258.25,115.017 258.25,257.155c-0,142.154 -116.113,258.245 -258.25,258.245c-142.15,0 -258.246,-116.091 -258.246,-258.246c-0,-142.137 116.096,-257.154 258.246,-257.154m125.871,326.6c-0,-75.958 -51.009,-125.87 -124.792,-125.87c-27.121,-0 -48.821,6.512 -70.521,22.795l15.192,-98.75l159.496,0l-0,-47.741l-198.559,-0l-28.212,201.821l43.4,-0c22.779,-27.117 41.233,-35.796 70.521,-35.796c52.083,-0 84.637,32.55 84.637,90.05c0,55.345 -32.554,86.804 -84.637,86.804c-41.23,-0 -67.271,-21.7 -78.125,-65.104l-47.742,-0c15.192,77.05 58.596,107.433 126.962,107.433c78.125,-0 132.38,-54.254 132.38,-135.642m-125.871,223.521c161.666,0 292.971,-131.283 292.971,-292.967c-0,-161.666 -131.305,-291.875 -292.971,-291.875c-161.684,0 -292.967,130.209 -292.967,291.875c0,161.684 131.283,292.967 292.967,292.967" style="fill-rule:nonzero;"/></g><g><path d="M23588.7,3203c142.154,0 258.246,115.017 258.246,257.15c-0,142.154 -116.092,258.25 -258.246,258.25c-142.134,0 -258.246,-116.096 -258.246,-258.25c-0,-142.133 116.112,-257.15 258.246,-257.15m78.125,334.2c-0,48.821 -32.55,81.371 -77.029,81.371c-44.5,0 -78.125,-34.721 -78.125,-83.542c-0,-47.741 32.55,-79.216 80.291,-79.216c45.575,-0 74.863,30.379 74.863,81.387m48.837,-3.262c0,-71.617 -48.837,-120.434 -118.283,-120.434c-37.967,0 -67.271,15.188 -87.879,43.4c-0,-94.408 30.379,-146.491 85.712,-146.491c33.646,-0 56.421,21.7 64.025,58.591l47.746,0c-8.683,-62.933 -49.917,-100.9 -108.508,-100.9c-90.071,0 -137.813,75.955 -137.813,209.409c0,120.45 41.234,183.387 129.134,183.387c72.687,0 125.866,-52.083 125.866,-126.962m-126.962,219.183c161.683,0 292.971,-131.283 292.971,-292.971c-0,-161.666 -131.288,-291.875 -292.971,-291.875c-161.667,0 -292.967,130.209 -292.967,291.875c0,161.688 131.3,292.971 292.967,292.971" style="fill-rule:nonzero;"/></g><g><path d="M1612.26,3370.47c96.562,-0 214.846,-88.979 214.846,-181.217c-0,-55.329 -43.404,-90.054 -105.263,-90.054c-119.358,0 -214.841,87.883 -214.841,181.2c-0,56.421 46.666,90.067 105.258,90.067" style="fill-rule:nonzero;"/></g><g><path d="M2568.11,3101.37c96.583,-0 214.846,-88.975 214.846,-181.213c-0,-55.333 -43.404,-90.054 -105.242,-90.054c-119.358,0 -214.846,87.883 -214.846,181.196c0,56.425 46.65,90.071 105.242,90.071" style="fill-rule:nonzero;"/></g><g><path d="M3263.24,2880.02c-6.513,21.7 -57.521,43.404 -82.467,43.404c-6.512,-0 -11.946,-2.171 -13.021,-5.434c-2.17,-4.341 -3.262,-28.212 -3.262,-54.254c-0,-33.629 1.092,-71.616 3.262,-80.295c2.171,-18.438 52.084,-41.234 79.2,-41.234c7.605,0 14.117,2.171 16.288,6.513c2.167,5.433 4.337,32.55 4.337,61.854c0,29.292 -2.17,59.671 -4.337,69.446m74.858,-176.875c7.604,-3.246 13.021,-11.925 13.021,-18.438l0,-77.05c0,-5.416 -3.246,-8.679 -7.587,-8.679c-2.167,0 -3.263,0 -5.434,1.096c0,-0 -21.7,8.679 -27.116,9.754c-7.605,0 -15.192,-5.417 -15.192,-14.096l-0,-132.379c-0,-6.508 -6.508,-11.946 -15.192,-11.946c-10.85,0 -17.358,5.438 -17.358,11.946l-0,141.058c-1.096,10.85 -4.342,24.95 -14.117,31.459c-13.021,7.604 -49.912,22.796 -68.35,27.137c-9.775,0 -13.021,-13.021 -13.021,-21.704l0,-130.208c0,-6.509 -7.604,-11.942 -15.191,-11.942c-10.85,0 -17.363,5.433 -17.363,11.942l0,146.479c0,15.187 -6.508,26.042 -13.021,29.304c-6.508,3.246 -28.208,11.925 -28.208,11.925c-7.604,2.171 -13.021,10.854 -13.021,17.363l0,77.05c0,6.508 3.246,9.754 8.679,9.754c4.342,-0 24.946,-9.754 28.213,-11.925c1.075,-0 2.171,-1.096 3.246,-1.096c7.604,-0 14.112,10.854 14.112,19.533l0,107.429c0,11.93 -5.433,21.705 -11.941,24.95c-6.513,2.171 -29.288,11.942 -29.288,11.942c-7.604,2.171 -13.021,10.854 -13.021,17.363l0,77.033c0,6.508 3.246,9.771 8.679,9.771c1.075,-0 3.246,-1.092 4.342,-1.092c0,0 15.188,-6.512 24.946,-9.758c1.096,-1.092 2.171,-1.092 3.262,-1.092c7.588,0 13.021,11.942 13.021,17.358l0,133.475c0,6.509 6.513,11.925 14.1,11.925c10.85,0 18.454,-5.416 18.454,-11.925l0,-150.833c0,-14.1 5.417,-21.704 10.85,-23.871l66.18,-27.121c1.095,0 3.266,-1.091 4.341,-1.091c8.679,-0 14.117,13.021 14.117,19.529l-0,135.642c-0,6.512 6.508,11.929 14.096,11.929c11.946,-0 18.454,-5.417 18.454,-11.929l-0,-154.08c-0,-8.679 4.342,-21.7 11.929,-24.962c7.604,-3.25 30.379,-11.929 30.379,-11.929c7.604,-3.263 13.021,-11.946 13.021,-18.454l0,-77.034c0,-5.433 -3.246,-8.679 -7.587,-8.679c-2.167,0 -3.263,0 -5.434,1.075l-28.212,10.854c-6.509,0 -14.096,-6.512 -14.096,-19.533l-0,-100.904c-0,-7.604 5.417,-28.209 14.096,-31.475l28.212,-10.85" style="fill-rule:nonzero;"/></g><g><path d="M3523.45,2966.83c96.563,0 214.842,-88.979 214.842,-181.217c-0,-55.329 -43.404,-90.054 -105.258,-90.054c-119.359,0 -214.846,87.883 -214.846,181.2c-0,56.425 46.666,90.067 105.262,90.067" style="fill-rule:nonzero;"/></g><g><path d="M4479.35,2563.18c96.58,0 214.846,-88.979 214.846,-181.216c0,-55.33 -43.404,-90.055 -105.246,-90.055c-119.358,0 -214.841,87.884 -214.841,181.2c-0,56.425 46.65,90.067 105.241,90.067" style="fill-rule:nonzero;"/></g><g><path d="M5435.14,2428.63c96.579,0 214.846,-88.975 214.846,-181.216c-0,-55.346 -43.404,-90.067 -105.246,-90.067c-119.358,-0 -214.842,87.896 -214.842,181.212c0,56.425 46.65,90.071 105.242,90.071" style="fill-rule:nonzero;"/></g><g><path d="M6391.06,2159.53c96.562,0 214.841,-88.979 214.841,-181.216c0,-55.346 -43.4,-90.071 -105.258,-90.071c-119.358,-0 -214.846,87.9 -214.846,181.217c0,56.424 46.667,90.07 105.263,90.07" style="fill-rule:nonzero;"/></g><g><path d="M7086.68,1938.18c-6.513,21.7 -57.5,43.4 -82.467,43.4c-6.508,0 -11.925,-2.171 -13.021,-5.433c-2.171,-4.342 -3.246,-28.213 -3.246,-54.254c0,-33.646 1.075,-71.613 3.246,-80.296c2.171,-18.454 52.084,-41.234 79.221,-41.234c7.583,0 14.096,2.171 16.267,6.513c2.171,5.433 4.337,32.554 4.337,61.858c0,29.288 -2.166,59.671 -4.337,69.446m74.879,-176.879c7.583,-3.263 13.021,-11.942 13.021,-18.454l-0,-77.029c-0,-5.434 -3.267,-8.684 -7.604,-8.684c-2.171,0 -3.25,0 -5.417,1.096c-0,0 -21.704,8.679 -27.138,9.758c-7.587,0 -15.191,-5.433 -15.191,-14.116l-0,-132.379c-0,-6.509 -6.509,-11.925 -15.192,-11.925c-10.85,-0 -17.358,5.433 -17.358,11.945l-0,141.059c-1.079,10.85 -4.342,24.946 -14.1,31.458c-13.021,7.604 -49.913,22.796 -68.367,27.133c-9.758,0 -13.021,-13.02 -13.021,-21.7l0,-130.208c0,-6.512 -7.587,-11.946 -15.191,-11.946c-10.85,0 -17.359,5.434 -17.359,11.946l0,146.475c0,15.192 -6.512,26.042 -13.021,29.304c-6.512,3.25 -28.212,11.929 -28.212,11.929c-7.588,2.171 -13.021,10.85 -13.021,17.363l0,77.046c0,6.512 3.263,9.758 8.679,9.758c4.342,0 24.967,-9.775 28.213,-11.946c1.091,0 2.171,-1.075 3.262,-1.075c7.588,0 14.1,10.85 14.1,19.529l0,107.434c0,11.925 -5.416,21.7 -11.929,24.946c-6.508,2.17 -29.304,11.945 -29.304,11.945c-7.588,2.171 -13.021,10.85 -13.021,17.363l0,77.029c0,6.513 3.263,9.775 8.679,9.775c1.096,0 3.263,-1.096 4.342,-1.096c-0,0 15.192,-6.508 24.962,-9.771c1.08,-1.079 2.171,-1.079 3.25,-1.079c7.605,0 13.021,11.946 13.021,17.363l0,133.471c0,6.512 6.509,11.929 14.113,11.929c10.85,-0 18.437,-5.417 18.437,-11.929l0,-150.834c0,-14.096 5.434,-21.7 10.85,-23.871l66.2,-27.116c1.075,-0 3.246,-1.096 4.338,-1.096c8.683,0 14.1,13.021 14.1,19.533l-0,135.642c-0,6.508 6.508,11.925 14.112,11.925c11.929,-0 18.438,-5.417 18.438,-11.925l-0,-154.079c-0,-8.683 4.341,-21.704 11.946,-24.967c7.587,-3.262 30.383,-11.946 30.383,-11.946c7.583,-3.245 13.021,-11.925 13.021,-18.437l-0,-77.046c-0,-5.417 -3.267,-8.683 -7.604,-8.683c-2.171,-0 -3.25,-0 -5.417,1.095l-28.213,10.85c-6.512,0 -14.116,-6.508 -14.116,-19.529l-0,-100.921c-0,-7.587 5.433,-28.212 14.116,-31.458l28.213,-10.85" style="fill-rule:nonzero;"/></g><g><path d="M7346.93,2024.98c96.579,0 214.846,-88.975 214.846,-181.216c-0,-55.346 -43.405,-90.067 -105.263,-90.067c-119.358,0 -214.842,87.896 -214.842,181.213c0,56.425 46.667,90.07 105.259,90.07" style="fill-rule:nonzero;"/></g><g><path d="M8302.77,1621.34c96.579,-0 214.846,-88.975 214.846,-181.217c-0,-55.346 -43.404,-90.067 -105.246,-90.067c-119.354,0 -214.842,87.896 -214.842,181.213c0,56.425 46.65,90.071 105.242,90.071" style="fill-rule:nonzero;"/></g><g><path d="M9705.89,1486.79c96.579,-0 214.846,-88.975 214.846,-181.217c-0,-55.346 -43.404,-90.067 -105.246,-90.067c-119.358,0 -214.842,87.9 -214.842,181.213c0,56.425 46.65,90.071 105.242,90.071" style="fill-rule:nonzero;"/></g><g><path d="M10661.8,1217.69c96.579,-0 214.842,-88.975 214.842,-181.217c-0,-55.329 -43.404,-90.05 -105.242,-90.05c-119.358,0 -214.846,87.879 -214.846,181.196c0,56.425 46.65,90.071 105.246,90.071" style="fill-rule:nonzero;"/></g><g><path d="M11356.9,996.338c-6.512,21.7 -57.521,43.404 -82.467,43.404c-6.512,-0 -11.945,-2.171 -13.02,-5.438c-2.171,-4.337 -3.263,-28.212 -3.263,-54.254c0,-33.642 1.092,-71.612 3.263,-80.292c2.17,-18.454 52.083,-41.233 79.2,-41.233c7.604,0 14.116,2.171 16.287,6.508c2.167,5.438 4.338,32.555 4.338,61.859c-0,29.287 -2.171,59.671 -4.338,69.429m74.858,-176.858c7.605,-3.263 13.021,-11.946 13.021,-18.455l0,-77.033c0,-5.433 -3.246,-8.679 -7.587,-8.679c-2.167,-0 -3.263,-0 -5.434,1.075c0,-0 -21.7,8.683 -27.116,9.775c-7.604,-0 -15.192,-5.433 -15.192,-14.113l0,-132.379c0,-6.512 -6.508,-11.929 -15.192,-11.929c-10.85,0 -17.358,5.417 -17.358,11.929l0,141.059c-1.096,10.85 -4.342,24.966 -14.117,31.475c-13.02,7.587 -49.912,22.779 -68.35,27.116c-9.775,0 -13.02,-13.021 -13.02,-21.7l-0,-130.208c-0,-6.508 -7.605,-11.925 -15.192,-11.925c-10.85,-0 -17.363,5.417 -17.363,11.925l0,146.492c0,15.191 -6.508,26.041 -13.02,29.291c-6.509,3.263 -28.209,11.942 -28.209,11.942c-7.604,2.171 -13.021,10.85 -13.021,17.362l0,77.03c0,6.512 3.246,9.775 8.68,9.775c4.341,-0 24.945,-9.775 28.212,-11.942c1.075,-0 2.171,-1.079 3.246,-1.079c7.604,-0 14.112,10.85 14.112,19.533l0,107.413c0,11.941 -5.433,21.7 -11.941,24.962c-6.513,2.171 -29.288,11.946 -29.288,11.946c-7.604,2.171 -13.021,10.85 -13.021,17.362l0,77.03c0,6.512 3.246,9.775 8.68,9.775c1.075,-0 3.245,-1.092 4.341,-1.092c0,-0 15.188,-6.513 24.946,-9.775c1.096,-1.079 2.171,-1.079 3.263,-1.079c7.587,-0 13.02,11.946 13.02,17.362l0,133.475c0,6.509 6.513,11.925 14.1,11.925c10.85,0 18.455,-5.433 18.455,-11.946l-0,-150.812c-0,-14.117 5.416,-21.704 10.85,-23.875l66.179,-27.133c1.096,-0 3.266,-1.075 4.341,-1.075c8.68,-0 14.117,13.02 14.117,19.529l0,135.641c0,6.513 6.508,11.93 14.096,11.93c11.946,-0 18.454,-5.434 18.454,-11.946l0,-154.079c0,-8.68 4.342,-21.7 11.929,-24.95c7.604,-3.263 30.379,-11.942 30.379,-11.942c7.605,-3.246 13.021,-11.929 13.021,-18.438l0,-77.05c0,-5.416 -3.246,-8.662 -7.587,-8.662c-2.167,-0.017 -3.263,-0.017 -5.434,1.075l-28.212,10.85c-6.508,-0 -14.096,-6.508 -14.096,-19.529l0,-100.921c0,-7.588 5.417,-28.196 14.096,-31.458l28.212,-10.85" style="fill-rule:nonzero;"/></g><g><path d="M11617.1,1083.14c96.563,-0 214.846,-88.975 214.846,-181.217c-0,-55.329 -43.404,-90.05 -105.263,-90.05c-119.358,0 -214.841,87.883 -214.841,181.196c-0,56.425 46.666,90.071 105.258,90.071" style="fill-rule:nonzero;"/></g><g><path d="M12573,679.496c96.563,-0 214.846,-88.975 214.846,-181.213c0,-55.333 -43.404,-90.054 -105.262,-90.054c-119.359,0 -214.842,87.884 -214.842,181.2c0,56.421 46.667,90.067 105.258,90.067" style="fill-rule:nonzero;"/></g><g><path d="M13528.8,679.496c96.58,-0 214.842,-88.975 214.842,-181.213c0,-55.333 -43.404,-90.054 -105.242,-90.054c-119.358,0 -214.845,87.884 -214.845,181.2c-0,56.421 46.65,90.067 105.245,90.067" style="fill-rule:nonzero;"/></g><g><path d="M14484.7,1083.14c96.579,-0 214.841,-88.975 214.841,-181.217c0,-55.329 -43.404,-90.05 -105.241,-90.05c-119.359,0 -214.846,87.883 -214.846,181.196c-0,56.425 46.65,90.071 105.246,90.071" style="fill-rule:nonzero;"/></g><g><path d="M15440.6,1217.69c96.563,-0 214.846,-88.975 214.846,-181.217c0,-55.329 -43.404,-90.05 -105.262,-90.05c-119.354,0 -214.842,87.879 -214.842,181.196c0,56.425 46.667,90.071 105.258,90.071" style="fill-rule:nonzero;"/></g><g><path d="M16396.3,1486.79c96.584,-0 214.846,-88.975 214.846,-181.217c0,-55.346 -43.404,-90.067 -105.241,-90.067c-119.359,0 -214.846,87.9 -214.846,181.213c-0,56.425 46.65,90.071 105.241,90.071" style="fill-rule:nonzero;"/></g><g><path d="M17798.8,1621.34c96.563,-0 214.842,-88.975 214.842,-181.217c-0,-55.346 -43.4,-90.067 -105.259,-90.067c-119.358,0 -214.845,87.896 -214.845,181.213c-0,56.425 46.666,90.071 105.262,90.071" style="fill-rule:nonzero;"/></g><g><path d="M18494.4,1938.18c-6.509,21.7 -57.517,43.4 -82.467,43.4c-6.508,0 -11.942,-2.171 -13.021,-5.433c-2.166,-4.342 -3.262,-28.213 -3.262,-54.254c-0,-33.646 1.096,-71.613 3.262,-80.296c2.171,-18.454 52.084,-41.234 79.204,-41.234c7.605,0 14.113,2.171 16.284,6.513c2.171,5.433 4.341,32.554 4.341,61.858c0,29.288 -2.17,59.671 -4.341,69.446m74.862,-176.879c7.604,-3.263 13.021,-11.942 13.021,-18.454l0,-77.029c0,-5.434 -3.246,-8.684 -7.587,-8.684c-2.171,0 -3.263,0 -5.434,1.096c0,0 -21.704,8.679 -27.121,9.758c-7.604,0 -15.187,-5.433 -15.187,-14.116l-0,-132.379c-0,-6.509 -6.513,-11.925 -15.192,-11.925c-10.85,-0 -17.362,5.433 -17.362,11.945l-0,141.059c-1.092,10.85 -4.342,24.946 -14.113,31.458c-13.021,7.604 -49.916,22.796 -68.354,27.133c-9.771,0 -13.021,-13.02 -13.021,-21.7l0,-130.208c0,-6.512 -7.604,-11.946 -15.187,-11.946c-10.854,0 -17.363,5.434 -17.363,11.946l0,146.475c0,15.192 -6.512,26.042 -13.021,29.304c-6.512,3.25 -28.212,11.929 -28.212,11.929c-7.604,2.171 -13.021,10.85 -13.021,17.363l0,77.046c0,6.512 3.246,9.758 8.679,9.758c4.342,0 24.95,-9.775 28.213,-11.946c1.079,0 2.171,-1.075 3.246,-1.075c7.604,0 14.116,10.85 14.116,19.529l0,107.434c0,11.925 -5.433,21.7 -11.946,24.946c-6.508,2.17 -29.287,11.945 -29.287,11.945c-7.604,2.171 -13.021,10.85 -13.021,17.363l0,77.029c0,6.513 3.246,9.775 8.679,9.775c1.079,0 3.25,-1.096 4.342,-1.096c-0,0 15.192,-6.508 24.95,-9.771c1.092,-1.079 2.167,-1.079 3.262,-1.079c7.588,0 13.021,11.946 13.021,17.363l0,133.471c0,6.512 6.509,11.929 14.096,11.929c10.85,-0 18.454,-5.417 18.454,-11.929l0,-150.834c0,-14.096 5.417,-21.7 10.854,-23.871l66.18,-27.116c1.091,-0 3.262,-1.096 4.341,-1.096c8.679,0 14.113,13.021 14.113,19.533l-0,135.642c-0,6.508 6.512,11.925 14.096,11.925c11.945,-0 18.458,-5.417 18.458,-11.925l-0,-154.079c-0,-8.683 4.337,-21.704 11.925,-24.967c7.604,-3.262 30.383,-11.946 30.383,-11.946c7.604,-3.245 13.021,-11.925 13.021,-18.437l0,-77.046c0,-5.417 -3.246,-8.683 -7.587,-8.683c-2.171,-0 -3.263,-0 -5.434,1.095l-28.212,10.85c-6.513,0 -14.096,-6.508 -14.096,-19.529l-0,-100.921c-0,-7.587 5.417,-28.212 14.096,-31.458l28.212,-10.85" style="fill-rule:nonzero;"/></g><g><path d="M18754.5,2024.98c96.579,0 214.842,-88.975 214.842,-181.216c-0,-55.346 -43.4,-90.067 -105.242,-90.067c-119.358,0 -214.846,87.896 -214.846,181.213c0,56.425 46.65,90.07 105.246,90.07" style="fill-rule:nonzero;"/></g><g><path d="M19710.4,2159.53c96.563,0 214.846,-88.979 214.846,-181.216c-0,-55.346 -43.404,-90.071 -105.263,-90.071c-119.354,-0 -214.841,87.9 -214.841,181.217c-0,56.424 46.666,90.07 105.258,90.07" style="fill-rule:nonzero;"/></g><g><path d="M20666.3,2428.63c96.562,0 214.846,-88.975 214.846,-181.216c-0,-55.346 -43.405,-90.067 -105.263,-90.067c-119.358,-0 -214.842,87.896 -214.842,181.212c0,56.425 46.667,90.071 105.259,90.071" style="fill-rule:nonzero;"/></g><g><path d="M21622.2,2563.18c96.58,0 214.842,-88.979 214.842,-181.216c0,-55.33 -43.4,-90.055 -105.242,-90.055c-119.358,0 -214.845,87.884 -214.845,181.2c-0,56.425 46.65,90.067 105.245,90.067" style="fill-rule:nonzero;"/></g><g><path d="M22317.8,2880.02c-6.508,21.7 -57.516,43.404 -82.466,43.404c-6.509,-0 -11.942,-2.171 -13.021,-5.434c-2.167,-4.341 -3.263,-28.212 -3.263,-54.254c0,-33.629 1.096,-71.616 3.263,-80.295c2.171,-18.438 52.083,-41.234 79.204,-41.234c7.604,0 14.113,2.171 16.283,6.513c2.171,5.433 4.342,32.55 4.342,61.854c0,29.292 -2.171,59.671 -4.342,69.446m74.863,-176.875c7.604,-3.246 13.021,-11.925 13.021,-18.438l-0,-77.05c-0,-5.416 -3.246,-8.679 -7.588,-8.679c-2.171,0 -3.262,0 -5.433,1.096c-0,-0 -21.704,8.679 -27.121,9.754c-7.604,0 -15.187,-5.417 -15.187,-14.096l-0,-132.379c-0,-6.508 -6.513,-11.946 -15.192,-11.946c-10.85,0 -17.363,5.438 -17.363,11.946l0,141.058c-1.091,10.85 -4.341,24.95 -14.112,31.459c-13.021,7.604 -49.917,22.796 -68.354,27.137c-9.771,0 -13.021,-13.021 -13.021,-21.704l-0,-130.208c-0,-6.509 -7.604,-11.942 -15.188,-11.942c-10.854,0 -17.362,5.433 -17.362,11.942l-0,146.479c-0,15.187 -6.513,26.042 -13.021,29.304c-6.512,3.246 -28.212,11.925 -28.212,11.925c-7.605,2.171 -13.021,10.854 -13.021,17.363l-0,77.05c-0,6.508 3.246,9.754 8.679,9.754c4.342,-0 24.95,-9.754 28.212,-11.925c1.08,-0 2.171,-1.096 3.246,-1.096c7.604,-0 14.117,10.854 14.117,19.533l-0,107.429c-0,11.93 -5.433,21.705 -11.946,24.95c-6.508,2.171 -29.287,11.942 -29.287,11.942c-7.605,2.171 -13.021,10.854 -13.021,17.363l-0,77.033c-0,6.508 3.246,9.771 8.679,9.771c1.079,-0 3.25,-1.092 4.342,-1.092c-0,0 15.191,-6.512 24.95,-9.758c1.091,-1.092 2.166,-1.092 3.262,-1.092c7.588,0 13.021,11.942 13.021,17.358l-0,133.475c-0,6.509 6.508,11.925 14.096,11.925c10.85,0 18.454,-5.416 18.454,-11.925l-0,-150.833c-0,-14.1 5.417,-21.704 10.854,-23.871l66.179,-27.121c1.092,0 3.263,-1.091 4.342,-1.091c8.679,-0 14.112,13.021 14.112,19.529l0,135.642c0,6.512 6.513,11.929 14.096,11.929c11.946,-0 18.459,-5.417 18.459,-11.929l-0,-154.08c-0,-8.679 4.337,-21.7 11.925,-24.962c7.604,-3.25 30.383,-11.929 30.383,-11.929c7.604,-3.263 13.021,-11.946 13.021,-18.454l-0,-77.034c-0,-5.433 -3.246,-8.679 -7.588,-8.679c-2.171,0 -3.262,0 -5.433,1.075l-28.213,10.854c-6.512,0 -14.095,-6.512 -14.095,-19.533l-0,-100.904c-0,-7.604 5.416,-28.209 14.095,-31.475l28.213,-10.85" style="fill-rule:nonzero;"/></g><g><path d="M22577.9,2966.83c96.579,0 214.841,-88.979 214.841,-181.217c0,-55.329 -43.4,-90.054 -105.241,-90.054c-119.359,0 -214.846,87.883 -214.846,181.2c-0,56.425 46.65,90.067 105.246,90.067" style="fill-rule:nonzero;"/></g><g><path d="M23533.8,3101.37c96.563,-0 214.846,-88.975 214.846,-181.213c0,-55.333 -43.404,-90.054 -105.262,-90.054c-119.354,0 -214.842,87.883 -214.842,181.196c0,56.425 46.667,90.071 105.258,90.071" style="fill-rule:nonzero;"/></g><g><path d="M24489.7,3370.47c96.58,-0 214.846,-88.979 214.846,-181.217c0,-55.329 -43.404,-90.054 -105.246,-90.054c-119.358,0 -214.841,87.883 -214.841,181.2c-0,56.421 46.65,90.067 105.241,90.067" style="fill-rule:nonzero;"/></g><g><path d="M25908.1,3166.47c11.925,-37.987 52.083,-43.404 85.713,-43.404c74.875,-0 134.545,80.296 134.545,145.4c0,33.629 -14.095,64.012 -49.912,72.691c-10.85,3.267 -22.779,4.342 -33.629,4.342c-39.063,0 -79.217,-26.041 -101.996,-56.425c-21.7,-24.946 -37.988,-61.837 -37.988,-96.562c0,-8.679 1.096,-17.363 3.267,-26.042m113.921,-67.275c-144.304,0 -234.375,59.671 -234.375,133.454c-0,72.709 61.858,137.813 223.525,137.813c177.954,-0 234.375,-61.854 234.375,-137.813c-0,-77.029 -122.604,-133.454 -223.525,-133.454" style="fill-rule:nonzero;"/></g><g><path d="M565.491,2008.7c3.246,20.629 3.246,19.533 -16.283,26.042c-95.488,32.554 -157.346,118.283 -157.346,210.504c-0,97.658 51.008,167.104 124.792,192.066c8.683,3.246 21.704,6.513 29.291,6.513c8.679,-0 13.021,-5.434 13.021,-11.946c0,-7.588 -8.683,-10.85 -16.271,-14.096c-45.571,-19.533 -78.125,-66.2 -78.125,-116.112c0,-61.842 42.313,-108.509 108.509,-126.946c17.362,-4.338 19.533,-3.263 21.7,8.683l54.254,323.35c2.171,11.925 1.079,11.925 -15.192,15.192c-17.358,3.246 -39.062,5.416 -60.762,5.416c-189.896,0 -312.5,-105.245 -312.5,-256.079c-0,-64.008 10.85,-149.737 100.904,-251.733c65.104,-72.692 115.016,-112.85 166.025,-154.079c10.85,-8.684 13.021,-7.588 15.187,4.337l22.779,138.892m118.284,-738.925c35.796,0 65.104,29.287 65.104,88.975c-0,120.433 -103.092,218.092 -188.804,292.971c-7.604,6.508 -11.946,5.417 -14.113,-8.684c-4.341,-28.212 -6.512,-65.104 -6.512,-99.824c-0,-169.271 78.125,-273.438 144.325,-273.438m-43.404,911.458c-2.171,-13.021 -1.096,-16.283 11.925,-15.191c87.9,7.587 160.591,81.37 160.591,176.858c0,68.367 -41.233,123.696 -101.996,154.079c-13.02,6.513 -15.191,6.513 -17.362,-6.508l-53.158,-309.238m-58.596,-338.541c-2.167,-13.021 -0,-14.117 6.512,-20.625c117.188,-109.584 206.163,-247.396 206.163,-413.405c-0,-94.408 -26.042,-187.725 -70.538,-252.829c-16.266,-23.871 -44.479,-54.254 -56.425,-54.254c-15.191,0 -48.816,28.213 -70.521,52.083c-80.295,88.975 -106.337,224.621 -106.337,337.467c-0,62.933 7.587,133.454 15.192,177.95c2.17,13.021 3.245,15.192 -9.775,26.042c-156.25,129.116 -322.255,284.287 -322.255,503.475c0,188.8 129.113,367.829 394.963,367.829c24.95,-0 53.162,-2.171 74.862,-6.513c11.946,-2.17 14.117,-3.245 16.284,9.775c13.021,72.692 29.291,167.1 29.291,218.092c0,160.588 -108.508,180.121 -172.52,180.121c-58.592,-0 -86.805,-17.363 -86.805,-31.458c0,-7.605 9.759,-10.85 34.721,-18.455c33.629,-9.758 72.692,-39.062 72.692,-102c-0,-59.666 -37.967,-110.675 -104.167,-110.675c-72.691,0 -116.091,57.517 -116.091,124.792c-0,70.521 42.308,176.858 206.162,176.858c72.692,0 213.75,-32.554 213.75,-217.016c0,-61.838 -19.533,-164.929 -31.458,-232.204c-2.171,-13.021 -1.096,-11.925 14.096,-18.438c109.6,-43.4 182.291,-135.642 182.291,-258.246c0,-138.887 -101.996,-261.508 -261.491,-261.508c-28.213,-0 -28.213,-0 -31.475,-19.533l-27.121,-157.325" style="fill-rule:nonzero;"/></g><g><path d="M1794.73,2091.16l-0,-135.467l2899.34,-336.371l0,135.467l-2899.34,336.371" style="fill-rule:nonzero;"/></g><g><path d="M5329.93,3101.58l-0,-135.85l2899.9,-403.646l-0,135.85l-2899.9,403.646" style="fill-rule:nonzero;"/></g><g><path d="M9600.64,2428.84l0,-135.851l2899.36,-403.645l0,135.85l-2899.36,403.646" style="fill-rule:nonzero;"/></g><g><path d="M13423.6,2025.19l0,-135.85l2899.85,403.646l0,135.85l-2899.85,-403.646" style="fill-rule:nonzero;"/></g><g><path d="M17693.4,2697.93l0,-135.85l2899.91,403.646l-0,135.85l-2899.91,-403.646" style="fill-rule:nonzero;"/></g><g><path d="M21804.7,1754.79l-0,-135.467l2899.9,336.371l-0,135.467l-2899.9,-336.371" style="fill-rule:nonzero;"/></g></g></svg>