<?xml version="1.0" encoding="UTF-8" standalone="no"?><!DOCTYPE svg PUBLIC "-//W3C//DTD SVG 1.1//EN" "http://www.w3.org/Graphics/SVG/1.1/DTD/svg11.dtd"><svg width="100%" height="100%" viewBox="0 0 6905 995" version="1.1" xmlns="http://www.w3.org/2000/svg" xmlns:xlink="http://www.w3.org/1999/xlink" xml:space="preserve" xmlns:serif="http://www.serif.com/" style="fill-rule:evenodd;clip-rule:evenodd;stroke-miterlimit:2;"><g><g><path d="M9.364,388.863l6875,-0" style="fill:none;stroke:#000;stroke-width:8.38px;"/><path d="M9.364,324.279l6875,0" style="fill:none;stroke:#000;stroke-width:8.38px;"/><path d="M9.364,453.446l6875,-0" style="fill:none;stroke:#000;stroke-width:8.38px;"/><path d="M9.364,582.613l6875,-0" style="fill:none;stroke:#000;stroke-width:8.38px;"/><path d="M9.364,518.029l6875,0" style="fill:none;stroke:#000;stroke-width:8.38px;"/></g><g><path d="M3181.37,320.075l-0,266.729" style="fill:none;stroke:#000;stroke-width:10.33px;"/><path d="M5926.81,320.075l0,266.729" style="fill:none;stroke:#000;stroke-width:10.33px;"/><path d="M6814.56,320.075l0,266.729" style="fill:none;stroke:#000;stroke-width:10.33px;"/></g><g><path d="M6868.23,320.075l0,266.729" style="fill:none;stroke:#000;stroke-width:32.29px;"/></g><g><path d="M1919,194.083l173.175,32.292" style="fill:none;stroke:#000;stroke-width:5.38px;"/><path d="M3784.88,212.429l173.179,21.525" style="fill:none;stroke:#000;stroke-width:5.38px;"/><path d="M5543.73,215.867l173.308,21.525" style="fill:none;stroke:#000;stroke-width:5.38px;"/></g><g><path d="M542.043,141.375l-0,295.938" style="fill:none;stroke:#000;stroke-width:7.75px;"/></g><g><path d="M512.226,130.529l128.517,0" style="fill:none;stroke:#000;stroke-width:10.33px;"/><path d="M512.226,195.113l128.517,-0" style="fill:none;stroke:#000;stroke-width:10.33px;"/><path d="M512.226,259.696l128.517,-0" style="fill:none;stroke:#000;stroke-width:10.33px;"/></g><g><path d="M761.834,141.375l0,304.013" style="fill:none;stroke:#000;stroke-width:7.75px;"/></g><g><path d="M747.251,130.529l113.413,0" style="fill:none;stroke:#000;stroke-width:10.33px;"/><path d="M732.147,195.113l128.517,-0" style="fill:none;stroke:#000;stroke-width:10.33px;"/><path d="M732.147,259.696l128.517,-0" style="fill:none;stroke:#000;stroke-width:10.33px;"/></g><g><path d="M981.759,173.667l0,279.791" style="fill:none;stroke:#000;stroke-width:7.75px;"/></g><g><path d="M952.072,195.113l128.512,-0" style="fill:none;stroke:#000;stroke-width:10.33px;"/><path d="M952.072,259.696l128.512,-0" style="fill:none;stroke:#000;stroke-width:10.33px;"/></g><g><path d="M1201.55,205.958l0,231.421" style="fill:none;stroke:#000;stroke-width:7.75px;"/></g><g><path d="M1186.97,195.113l113.408,-0" style="fill:none;stroke:#000;stroke-width:10.33px;"/><path d="M1188.01,259.696l112.367,-0" style="fill:none;stroke:#000;stroke-width:10.33px;"/></g><g><path d="M1421.47,238.25l-0,215.275" style="fill:none;stroke:#000;stroke-width:7.75px;"/></g><g><path d="M1391.78,259.696l128.517,-0" style="fill:none;stroke:#000;stroke-width:10.33px;"/></g><g><path d="M1641.39,270.542l-0,199.129" style="fill:none;stroke:#000;stroke-width:7.75px;"/></g><g><path d="M1611.7,259.696l128.517,-0" style="fill:none;stroke:#000;stroke-width:10.33px;"/></g><g><path d="M1861.18,302.833l0,215.534" style="fill:none;stroke:#000;stroke-width:7.75px;"/><path d="M2080.98,335.125l0,215.533" style="fill:none;stroke:#000;stroke-width:7.75px;"/><path d="M2300.77,367.417l-0,215.533" style="fill:none;stroke:#000;stroke-width:7.75px;"/><path d="M2520.56,367.417l0,199.387" style="fill:none;stroke:#000;stroke-width:7.75px;"/><path d="M2740.48,399.708l0,199.4" style="fill:none;stroke:#000;stroke-width:7.75px;"/><path d="M2960.27,432l-0,199.388" style="fill:none;stroke:#000;stroke-width:7.75px;"/><path d="M3356.5,259.5l-0,183.088" style="fill:none;stroke:#000;stroke-width:7.75px;"/><path d="M3576.42,283.733l-0,191.146" style="fill:none;stroke:#000;stroke-width:7.75px;"/><path d="M3796.21,307.938l0,199.233" style="fill:none;stroke:#000;stroke-width:7.75px;"/><path d="M4015.87,324.254l-0,215.209" style="fill:none;stroke:#000;stroke-width:7.75px;"/><path d="M4235.81,332.325l0,239.429" style="fill:none;stroke:#000;stroke-width:7.75px;"/><path d="M4455.73,340.4l0,231.354" style="fill:none;stroke:#000;stroke-width:7.75px;"/><path d="M4675.64,388.513l-0,215.533" style="fill:none;stroke:#000;stroke-width:7.75px;"/><path d="M4895.43,420.792l0,215.546" style="fill:none;stroke:#000;stroke-width:7.75px;"/></g><g><path d="M4811.73,647.196l113.408,-0" style="fill:none;stroke:#000;stroke-width:10.33px;"/></g><g><path d="M5115.35,453.096l0,215.533" style="fill:none;stroke:#000;stroke-width:7.75px;"/></g><g><path d="M5016.52,647.196l128.512,-0" style="fill:none;stroke:#000;stroke-width:10.33px;"/></g><g><path d="M5335.27,453.421l-0,247.5" style="fill:none;stroke:#000;stroke-width:7.75px;"/></g><g><path d="M5236.43,711.779l128.517,0" style="fill:none;stroke:#000;stroke-width:10.33px;"/><path d="M5236.43,647.196l128.517,-0" style="fill:none;stroke:#000;stroke-width:10.33px;"/></g><g><path d="M5555.06,461.492l0,271.721" style="fill:none;stroke:#000;stroke-width:7.75px;"/></g><g><path d="M5472.39,711.779l112.371,0" style="fill:none;stroke:#000;stroke-width:10.33px;"/><path d="M5456.23,647.196l128.517,-0" style="fill:none;stroke:#000;stroke-width:10.33px;"/></g><g><path d="M5774.85,469.567l0,295.937" style="fill:none;stroke:#000;stroke-width:7.75px;"/></g><g><path d="M5691.14,776.363l113.412,-0" style="fill:none;stroke:#000;stroke-width:10.33px;"/><path d="M5692.18,711.779l112.371,0" style="fill:none;stroke:#000;stroke-width:10.33px;"/><path d="M5676.02,647.196l128.516,-0" style="fill:none;stroke:#000;stroke-width:10.33px;"/><path d="M6038.77,776.363l145.312,-0" style="fill:none;stroke:#000;stroke-width:10.33px;"/><path d="M6022.64,711.779l161.458,0" style="fill:none;stroke:#000;stroke-width:10.33px;"/><path d="M6022.64,647.196l161.458,-0" style="fill:none;stroke:#000;stroke-width:10.33px;"/></g><g><path d="M590.409,42.446l0,-27.863c0,-1.304 -0.258,-2.345 -1.562,-2.345c-1.042,-0 -1.821,0.262 -2.604,1.304l-7.813,15.104c-0.521,0.521 -1.3,1.3 -1.3,3.125l0,10.675l-16.929,-0c10.679,-8.854 27.346,-38.279 27.604,-39.842c0,-0.262 0.263,-0.521 0.263,-0.783c-0,-1.042 -1.042,-1.821 -1.825,-1.821c-1.3,0 -6.771,0.521 -9.113,0.521c-2.346,-0 -3.908,-0.521 -4.95,-0.521c-1.3,0 -3.125,0.521 -3.125,2.604c0,16.667 -13.541,35.675 -16.925,40.363c-0.521,0.52 -1.041,1.304 -1.041,2.083c-0,1.304 1.041,2.604 2.604,2.604l23.437,0l0,8.075c0,3.646 -2.083,4.688 -4.166,4.688c-2.346,-0 -3.388,1.041 -3.388,2.341c0,1.304 0.521,2.867 2.867,2.867l22.396,0c1.3,0 2.604,-1.042 2.604,-2.867c-0,-1.82 -1.563,-2.604 -2.867,-2.604c-1.3,0 -4.167,-0.779 -4.167,-4.946l0,-7.554l9.638,0c1.3,0 2.083,-1.041 2.083,-2.604c0,-1.563 -0.521,-2.604 -2.083,-2.604l-9.638,-0" style="fill-rule:nonzero;"/></g><g><path d="M793.755,0.058c-14.321,0 -20.571,9.634 -20.571,15.105c0,3.645 2.084,8.07 8.592,8.333c4.95,-0 7.292,-3.125 7.292,-6.513l-0,-1.041c-0.259,-3.905 -2.863,-4.167 -3.384,-4.425c-0.52,-0.263 -1.562,-1.305 -1.562,-3.125c0.521,-2.867 4.425,-3.909 5.467,-3.909c13.283,0 17.187,7.034 17.187,11.459c0,12.241 -12.5,13.283 -16.404,13.541c-1.825,0 -3.646,0.784 -3.646,2.346c0,1.563 2.342,1.563 3.383,1.563c15.105,-0 17.188,7.812 17.188,11.716c-0,15.104 -12.238,15.625 -15.363,15.625c-1.562,0 -4.166,-0.779 -4.429,-2.083l0,-1.563c0,-2.862 0.784,-5.987 1.042,-8.591c-0,-4.688 -3.125,-7.554 -7.813,-7.554l-1.041,-0c-1.821,0.52 -3.646,1.562 -4.946,2.866c-1.825,1.563 -2.346,3.904 -2.346,6.25c0.263,8.334 7.554,15.363 20.575,15.625l1.563,0c12.758,0 26.041,-6.77 26.041,-18.229c0,-2.604 -0.521,-4.687 -1.304,-6.25c-0.521,-1.562 -1.562,-2.866 -2.604,-3.908c-0.779,-1.042 -1.821,-1.821 -2.863,-2.604l-2.866,-1.563l-1.563,-0.521c-0.521,0 -0.779,-0.258 -1.3,-0.258l-1.562,-0.521c-0.784,-0.262 -1.042,0 -1.304,-0.521c-0.259,-0.262 -0.259,-0.52 -0.259,-0.783c0,-0.521 0.259,-1.042 0.779,-1.042l4.167,-1.3c1.825,-1.041 3.646,-1.825 4.95,-3.645c2.083,-2.084 2.863,-5.471 2.863,-8.334c-0,-12.241 -16.146,-15.625 -21.875,-16.146l-2.084,0" style="fill-rule:nonzero;"/></g><g><path d="M1042.16,76.325c-0,-1.821 -0.784,-2.083 -1.563,-2.083c-1.042,-0 -1.562,0.783 -1.825,1.562c-1.3,3.646 -4.167,8.334 -8.071,8.334c-0.521,-0 -1.041,-0 -1.562,-0.259l-3.909,-1.304c-2.604,-1.042 -8.854,-3.125 -14.062,-3.125c-1.821,0 -3.383,0.263 -4.946,0.783c2.863,-4.95 16.404,-11.458 19.271,-12.241c9.375,-1.3 17.187,-6.771 17.187,-16.925c0,-6.25 -2.604,-10.417 -5.991,-13.542c-6.771,-5.471 -16.667,-6.25 -19.529,-6.25c-9.375,-0 -16.93,0.521 -23.7,8.333c-1.821,2.084 -2.605,4.167 -2.605,6.25c0,1.821 0.784,3.904 1.563,6.25c1.562,3.125 4.95,5.467 8.596,5.467c6.508,0 7.291,-6.25 7.291,-9.112c0,-5.992 -6.512,-6.513 -6.512,-9.117c-0,-1.821 2.604,-4.946 10.417,-4.946c12.241,0 16.408,10.154 16.408,13.279c-0,4.688 -1.563,9.117 -4.167,12.763c-4.687,5.987 -13.283,8.071 -19.791,12.237c-7.292,4.429 -12.242,11.979 -14.584,20.313c0,1.825 0.779,3.908 2.342,4.687c0.262,0.263 0.783,0.263 1.042,0.263c2.866,-0 4.429,-8.075 12.241,-8.075c5.209,-0 7.029,7.033 18.75,7.033c5.467,0 15.625,-0.521 17.709,-20.575" style="fill-rule:nonzero;"/></g><g><path d="M1221.22,94.588c-0,-0.001 -0.263,1.041 -0.263,1.825c0,1.041 1.042,2.083 2.084,2.083c0.783,-0 1.304,-0.784 1.562,-1.042c0.263,-0.783 3.388,-11.458 4.95,-14.062c0.521,-1.042 1.042,-1.305 1.3,-1.305c0.521,0.001 0.783,1.042 0.783,1.826l0,37.237c0,3.125 -2.604,4.95 -5.208,4.95c-1.042,0 -2.346,0.521 -2.346,2.083c0,1.563 1.304,2.084 3.388,2.084l21.875,-0c2.083,-0 2.083,-2.084 2.083,-2.084c0,0 0,-2.083 -2.083,-2.083c-1.825,-0 -4.167,-2.346 -4.167,-4.688l0,-54.166c0,-2.084 -0.783,-3.125 -2.604,-3.125c-1.825,-0 -3.388,0.521 -4.95,0.521c-2.604,-0 -3.125,-0 -5.208,-0.521c-1.042,-0 -2.342,1.562 -3.125,2.604l-8.071,27.862" style="fill-rule:nonzero;"/></g><g><path d="M1469.93,139.321l0,-27.863c0,-1.304 -0.262,-2.346 -1.562,-2.346c-1.042,0.001 -1.825,0.263 -2.604,1.305l-7.813,15.104c-0.521,0.521 -1.304,1.3 -1.304,3.125l-0,10.675l-16.925,-0c10.675,-8.854 27.342,-38.279 27.604,-39.842c0,-0.262 0.258,-0.521 0.258,-0.783c0,-1.042 -1.041,-1.821 -1.82,-1.821c-1.305,-0 -6.771,0.521 -9.117,0.521c-2.342,-0 -3.904,-0.521 -4.946,-0.521c-1.304,-0 -3.125,0.521 -3.125,2.604c0,16.667 -13.542,35.675 -16.929,40.363c-0.521,0.52 -1.042,1.304 -1.042,2.083c0,1.304 1.042,2.604 2.604,2.604l23.438,0l-0,8.075c-0,3.646 -2.083,4.688 -4.167,4.688c-2.341,-0 -3.383,1.041 -3.383,2.341c-0,1.304 0.521,2.867 2.862,2.867l22.396,-0c1.304,-0 2.604,-1.042 2.604,-2.867c0,-1.821 -1.562,-2.604 -2.862,-2.604c-1.304,0 -4.167,-0.779 -4.167,-4.946l0,-7.554l9.634,0c1.304,0 2.083,-1.042 2.083,-2.604c-0,-1.563 -0.521,-2.604 -2.083,-2.604l-9.634,-0" style="fill-rule:nonzero;"/></g><g><path d="M1701.79,173.2c-0,-1.821 -0.78,-2.083 -1.563,-2.083c-1.042,-0 -1.562,0.783 -1.821,1.562c-1.304,3.646 -4.166,8.333 -8.075,8.333c-0.521,0 -1.041,0 -1.562,-0.258l-3.904,-1.304c-2.605,-1.042 -8.855,-3.125 -14.063,-3.125c-1.825,0 -3.387,0.262 -4.95,0.783c2.867,-4.95 16.408,-11.458 19.271,-12.241c9.375,-1.3 17.187,-6.771 17.187,-16.925c0,-6.25 -2.604,-10.417 -5.987,-13.542c-6.771,-5.471 -16.667,-6.25 -19.533,-6.25c-9.375,0 -16.925,0.521 -23.696,8.333c-1.825,2.084 -2.604,4.167 -2.604,6.25c-0,1.821 0.779,3.904 1.562,6.25c1.563,3.125 4.946,5.467 8.592,5.467c6.512,-0 7.291,-6.25 7.291,-9.113c0,-5.991 -6.508,-6.512 -6.508,-9.116c0,-1.821 2.604,-4.946 10.417,-4.946c12.237,0 16.404,10.154 16.404,13.279c-0,4.688 -1.563,9.117 -4.167,12.763c-4.687,5.987 -13.279,8.07 -19.791,12.237c-7.292,4.429 -12.238,11.979 -14.584,20.313c0,1.825 0.784,3.908 2.346,4.687c0.258,0.263 0.779,0.263 1.042,0.263c2.862,-0 4.425,-8.075 12.237,-8.075c5.209,-0 7.034,7.033 18.75,7.033c5.471,0 15.625,-0.521 17.709,-20.575" style="fill-rule:nonzero;"/></g><g><path d="M1880.84,191.463c-0,-0 -0.259,1.041 -0.259,1.825c0,1.041 1.042,2.083 2.084,2.083c0.779,-0 1.3,-0.783 1.562,-1.042c0.258,-0.783 3.383,-11.458 4.946,-14.062c0.521,-1.042 1.042,-1.304 1.304,-1.304c0.521,-0 0.779,1.041 0.779,1.825l0,37.237c0,3.125 -2.604,4.95 -5.208,4.95c-1.042,0 -2.342,0.521 -2.342,2.083c0,1.563 1.3,2.084 3.384,2.084l21.875,-0c2.083,-0 2.083,-2.084 2.083,-2.084c-0,0 -0,-2.083 -2.083,-2.083c-1.821,0 -4.167,-2.346 -4.167,-4.687l-0,-54.167c-0,-2.083 -0.779,-3.125 -2.604,-3.125c-1.821,-0 -3.384,0.521 -4.946,0.521c-2.604,-0 -3.125,-0 -5.208,-0.521c-1.042,-0 -2.346,1.562 -3.125,2.604l-8.075,27.863" style="fill-rule:nonzero;"/></g><g><path d="M2100.57,223.754c-0,0 -0.263,1.042 -0.263,1.825c0,1.042 1.042,2.084 2.084,2.084c0.783,-0 1.304,-0.784 1.562,-1.042c0.263,-0.783 3.388,-11.458 4.95,-14.063c0.521,-1.041 1.042,-1.304 1.3,-1.304c0.521,0 0.783,1.042 0.783,1.825l0,37.238c0,3.125 -2.604,4.95 -5.208,4.95c-1.042,-0 -2.346,0.521 -2.346,2.083c0,1.563 1.304,2.083 3.388,2.083l21.875,0c2.083,0 2.083,-2.083 2.083,-2.083c0,0 0,-2.083 -2.083,-2.083c-1.825,-0 -4.167,-2.346 -4.167,-4.688l0,-54.166c0,-2.084 -0.783,-3.125 -2.604,-3.125c-1.825,-0 -3.388,0.52 -4.95,0.52c-2.604,0 -3.125,0 -5.208,-0.52c-1.042,-0 -2.342,1.562 -3.125,2.604l-8.071,27.862" style="fill-rule:nonzero;"/></g><g><path d="M2349.17,236.254l-0,-27.862c-0,-1.305 -0.258,-2.346 -1.563,-2.346c-1.041,-0 -1.82,0.262 -2.604,1.304l-7.812,15.104c-0.521,0.521 -1.3,1.3 -1.3,3.125l-0,10.675l-16.929,0c10.679,-8.854 27.345,-38.279 27.604,-39.842c-0,-0.262 0.262,-0.52 0.262,-0.783c0,-1.042 -1.041,-1.821 -1.825,-1.821c-1.3,0 -6.771,0.521 -9.112,0.521c-2.346,0 -3.909,-0.521 -4.95,-0.521c-1.3,0 -3.125,0.521 -3.125,2.604c-0,16.667 -13.542,35.675 -16.925,40.363c-0.521,0.521 -1.042,1.304 -1.042,2.083c0,1.304 1.042,2.604 2.604,2.604l23.438,0l-0,8.075c-0,3.646 -2.084,4.688 -4.167,4.688c-2.346,-0 -3.387,1.042 -3.387,2.342c-0,1.304 0.52,2.866 2.866,2.866l22.396,0c1.3,0 2.604,-1.041 2.604,-2.866c0,-1.821 -1.562,-2.605 -2.866,-2.605c-1.3,0 -4.167,-0.779 -4.167,-4.945l-0,-7.555l9.637,0c1.3,0 2.084,-1.041 2.084,-2.604c-0,-1.562 -0.521,-2.604 -2.084,-2.604l-9.637,0" style="fill-rule:nonzero;"/></g><g><path d="M2552.45,194.067c-14.325,-0 -20.575,9.637 -20.575,15.104c0,3.646 2.084,8.075 8.596,8.333c4.946,0 7.292,-3.125 7.292,-6.508l-0,-1.042c-0.263,-3.908 -2.867,-4.166 -3.388,-4.429c-0.521,-0.258 -1.562,-1.3 -1.562,-3.125c0.521,-2.862 4.429,-3.904 5.471,-3.904c13.279,-0 17.187,7.029 17.187,11.458c0,12.238 -12.5,13.279 -16.408,13.542c-1.821,-0 -3.646,0.779 -3.646,2.341c-0,1.563 2.346,1.563 3.387,1.563c15.105,0 17.188,7.813 17.188,11.721c-0,15.104 -12.242,15.625 -15.367,15.625c-1.562,-0 -4.166,-0.783 -4.425,-2.083l0,-1.563c0,-2.867 0.779,-5.992 1.042,-8.596c-0,-4.687 -3.125,-7.55 -7.813,-7.55l-1.041,0c-1.825,0.521 -3.646,1.563 -4.95,2.863c-1.821,1.562 -2.342,3.908 -2.342,6.25c0.258,8.333 7.55,15.366 20.571,15.625l1.562,-0c12.763,-0 26.042,-6.771 26.042,-18.23c0,-2.604 -0.521,-4.687 -1.3,-6.25c-0.521,-1.562 -1.562,-2.862 -2.604,-3.904c-0.783,-1.041 -1.825,-1.825 -2.867,-2.604l-2.862,-1.562l-1.563,-0.521c-0.521,-0 -0.783,-0.263 -1.304,-0.263l-1.562,-0.52c-0.78,-0.259 -1.042,-0 -1.3,-0.521c-0.263,-0.259 -0.263,-0.521 -0.263,-0.779c0,-0.521 0.263,-1.042 0.783,-1.042l4.167,-1.304c1.821,-1.042 3.646,-1.821 4.946,-3.646c2.083,-2.084 2.867,-5.467 2.867,-8.334c-0,-12.237 -16.146,-15.625 -21.875,-16.145l-2.084,-0" style="fill-rule:nonzero;"/></g><g><path d="M2800.86,238.858c-0,-1.82 -0.78,-2.083 -1.563,-2.083c-1.042,0 -1.562,0.783 -1.821,1.563c-1.304,3.645 -4.166,8.333 -8.075,8.333c-0.521,-0 -1.041,-0 -1.562,-0.258l-3.904,-1.305c-2.605,-1.041 -8.855,-3.125 -14.063,-3.125c-1.825,0 -3.387,0.263 -4.95,0.784c2.867,-4.95 16.408,-11.459 19.271,-12.242c9.375,-1.3 17.187,-6.771 17.187,-16.925c0,-6.25 -2.604,-10.417 -5.987,-13.542c-6.771,-5.47 -16.667,-6.25 -19.533,-6.25c-9.375,0 -16.925,0.521 -23.696,8.334c-1.825,2.083 -2.604,4.166 -2.604,6.25c-0,1.821 0.779,3.904 1.562,6.25c1.563,3.125 4.946,5.466 8.592,5.466c6.512,0 7.291,-6.25 7.291,-9.112c0,-5.992 -6.508,-6.513 -6.508,-9.117c0,-1.821 2.604,-4.946 10.417,-4.946c12.237,0 16.404,10.155 16.404,13.28c-0,4.687 -1.563,9.116 -4.167,12.762c-4.687,5.988 -13.279,8.071 -19.791,12.238c-7.292,4.429 -12.238,11.979 -14.584,20.312c0,1.825 0.784,3.908 2.346,4.688c0.258,0.262 0.779,0.262 1.042,0.262c2.862,0 4.425,-8.075 12.237,-8.075c5.209,0 7.034,7.033 18.75,7.033c5.471,0 15.625,-0.521 17.709,-20.575" style="fill-rule:nonzero;"/></g><g><path d="M2979.85,224.017c0,-0 -0.262,1.041 -0.262,1.821c-0,1.041 1.041,2.083 2.083,2.083c0.783,-0 1.304,-0.779 1.562,-1.042c0.263,-0.779 3.388,-11.458 4.95,-14.062c0.521,-1.042 1.042,-1.3 1.3,-1.3c0.521,-0 0.784,1.041 0.784,1.821l-0,37.241c-0,3.125 -2.604,4.946 -5.209,4.946c-1.041,0 -2.345,0.521 -2.345,2.083c-0,1.563 1.304,2.084 3.387,2.084l21.875,-0c2.083,-0 2.083,-2.084 2.083,-2.084c0,0 0,-2.083 -2.083,-2.083c-1.825,0 -4.167,-2.342 -4.167,-4.687l0,-54.167c0,-2.083 -0.783,-3.125 -2.604,-3.125c-1.825,-0 -3.387,0.521 -4.95,0.521c-2.604,-0 -3.125,-0 -5.208,-0.521c-1.042,-0 -2.342,1.562 -3.125,2.604l-8.071,27.867" style="fill-rule:nonzero;"/></g><g><path d="M3335.89,187.825l-0,-27.862c-0,-1.305 -0.259,-2.346 -1.563,-2.346c-1.042,-0 -1.821,0.262 -2.604,1.304l-7.808,15.104c-0.521,0.521 -1.305,1.3 -1.305,3.125l0,10.675l-16.925,-0c10.675,-8.854 27.342,-38.279 27.6,-39.842c0,-0.262 0.263,-0.521 0.263,-0.783c-0,-1.042 -1.042,-1.821 -1.825,-1.821c-1.3,0 -6.767,0.521 -9.113,0.521c-2.341,-0 -3.904,-0.521 -4.945,-0.521c-1.305,0 -3.125,0.521 -3.125,2.604c-0,16.667 -13.542,35.675 -16.93,40.363c-0.52,0.521 -1.041,1.304 -1.041,2.083c-0,1.304 1.041,2.604 2.604,2.604l23.437,0l0,8.075c0,3.646 -2.083,4.688 -4.166,4.688c-2.342,-0 -3.384,1.041 -3.384,2.341c0,1.305 0.521,2.867 2.863,2.867l22.396,0c1.3,0 2.604,-1.042 2.604,-2.867c-0,-1.82 -1.563,-2.604 -2.867,-2.604c-1.3,0 -4.166,-0.779 -4.166,-4.946l-0,-7.554l9.637,0c1.3,0 2.083,-1.041 2.083,-2.604c0,-1.562 -0.52,-2.604 -2.083,-2.604l-9.637,-0" style="fill-rule:nonzero;"/></g><g><path d="M3567.75,206.175c0,-1.821 -0.779,-2.083 -1.562,-2.083c-1.042,-0 -1.563,0.783 -1.821,1.562c-1.304,3.646 -4.167,8.333 -8.075,8.333c-0.521,0 -1.042,0 -1.563,-0.258l-3.904,-1.304c-2.604,-1.042 -8.854,-3.125 -14.062,-3.125c-1.825,0 -3.388,0.263 -4.95,0.783c2.866,-4.95 16.408,-11.458 19.27,-12.241c9.375,-1.3 17.188,-6.771 17.188,-16.925c-0,-6.25 -2.604,-10.417 -5.988,-13.542c-6.77,-5.471 -16.666,-6.25 -19.533,-6.25c-9.375,0 -16.925,0.521 -23.696,8.333c-1.825,2.084 -2.604,4.167 -2.604,6.25c0,1.821 0.779,3.905 1.563,6.25c1.562,3.125 4.945,5.467 8.591,5.467c6.513,0 7.292,-6.25 7.292,-9.112c-0,-5.992 -6.508,-6.513 -6.508,-9.117c-0,-1.821 2.604,-4.946 10.416,-4.946c12.238,0 16.404,10.154 16.404,13.279c0,4.688 -1.562,9.117 -4.166,12.763c-4.688,5.987 -13.279,8.071 -19.792,12.237c-7.292,4.429 -12.237,11.979 -14.583,20.313c-0,1.825 0.783,3.908 2.346,4.687c0.258,0.263 0.779,0.263 1.041,0.263c2.863,-0 4.425,-8.075 12.238,-8.075c5.208,-0 7.033,7.033 18.75,7.033c5.471,0 15.625,-0.521 17.708,-20.575" style="fill-rule:nonzero;"/></g><g><path d="M3746.74,217.133c-0,0 -0.263,1.042 -0.263,1.825c0,1.042 1.042,2.084 2.083,2.084c0.784,-0 1.305,-0.784 1.563,-1.042c0.262,-0.783 3.387,-11.458 4.95,-14.062c0.521,-1.042 1.042,-1.305 1.3,-1.305c0.521,0 0.783,1.042 0.783,1.825l0,37.238c0,3.125 -2.604,4.95 -5.208,4.95c-1.042,-0 -2.346,0.521 -2.346,2.083c0,1.563 1.304,2.084 3.388,2.084l21.875,-0c2.083,-0 2.083,-2.084 2.083,-2.084c-0,0 -0,-2.083 -2.083,-2.083c-1.825,-0 -4.167,-2.346 -4.167,-4.688l-0,-54.166c-0,-2.084 -0.783,-3.125 -2.604,-3.125c-1.825,-0 -3.388,0.521 -4.95,0.521c-2.604,-0 -3.125,-0 -5.209,-0.521c-1.041,-0 -2.341,1.562 -3.125,2.604l-8.07,27.862" style="fill-rule:nonzero;"/></g><g><path d="M3966.46,224.017c-0,-0 -0.263,1.041 -0.263,1.821c0,1.041 1.042,2.083 2.083,2.083c0.784,-0 1.305,-0.779 1.563,-1.042c0.262,-0.779 3.387,-11.458 4.95,-14.062c0.521,-1.042 1.042,-1.3 1.3,-1.3c0.521,-0 0.783,1.041 0.783,1.821l0,37.241c0,3.125 -2.604,4.946 -5.208,4.946c-1.042,0 -2.346,0.521 -2.346,2.083c0,1.563 1.304,2.084 3.388,2.084l21.875,-0c2.083,-0 2.083,-2.084 2.083,-2.084c-0,0 -0,-2.083 -2.083,-2.083c-1.825,0 -4.167,-2.342 -4.167,-4.687l-0,-54.167c-0,-2.083 -0.783,-3.125 -2.604,-3.125c-1.825,-0 -3.388,0.521 -4.95,0.521c-2.604,-0 -3.125,-0 -5.209,-0.521c-1.041,-0 -2.341,1.562 -3.125,2.604l-8.07,27.867" style="fill-rule:nonzero;"/></g><g><path d="M4215.14,236.254l-0,-27.862c-0,-1.305 -0.259,-2.346 -1.563,-2.346c-1.041,-0 -1.821,0.262 -2.604,1.304l-7.812,15.104c-0.521,0.521 -1.3,1.3 -1.3,3.125l-0,10.675l-16.93,0c10.68,-8.854 27.346,-38.279 27.605,-39.842c-0,-0.262 0.262,-0.52 0.262,-0.783c0,-1.042 -1.042,-1.821 -1.825,-1.821c-1.3,0 -6.771,0.521 -9.112,0.521c-2.346,0 -3.909,-0.521 -4.95,-0.521c-1.3,0 -3.125,0.521 -3.125,2.604c-0,16.667 -13.542,35.675 -16.925,40.363c-0.521,0.521 -1.042,1.304 -1.042,2.083c-0,1.304 1.042,2.604 2.604,2.604l23.438,0l-0,8.075c-0,3.646 -2.084,4.688 -4.167,4.688c-2.346,-0 -3.388,1.042 -3.388,2.342c0,1.304 0.521,2.866 2.867,2.866l22.396,0c1.3,0 2.604,-1.041 2.604,-2.866c0,-1.821 -1.562,-2.605 -2.867,-2.605c-1.3,0 -4.166,-0.779 -4.166,-4.945l-0,-7.555l9.637,0c1.3,0 2.084,-1.041 2.084,-2.604c-0,-1.562 -0.521,-2.604 -2.084,-2.604l-9.637,0" style="fill-rule:nonzero;"/></g><g><path d="M4418.48,194.067c-14.321,-0 -20.571,9.637 -20.571,15.104c0,3.646 2.084,8.075 8.592,8.333c4.95,0 7.292,-3.125 7.292,-6.508l-0,-1.042c-0.259,-3.908 -2.863,-4.166 -3.384,-4.429c-0.521,-0.258 -1.562,-1.3 -1.562,-3.125c0.521,-2.862 4.425,-3.904 5.466,-3.904c13.284,-0 17.188,7.029 17.188,11.458c-0,12.238 -12.5,13.279 -16.404,13.542c-1.825,-0 -3.646,0.779 -3.646,2.341c-0,1.563 2.342,1.563 3.383,1.563c15.104,0 17.188,7.813 17.188,11.721c-0,15.104 -12.238,15.625 -15.363,15.625c-1.562,-0 -4.166,-0.783 -4.429,-2.083l0,-1.563c0,-2.867 0.783,-5.992 1.042,-8.596c-0,-4.687 -3.125,-7.55 -7.813,-7.55l-1.041,0c-1.821,0.521 -3.646,1.563 -4.946,2.863c-1.825,1.562 -2.346,3.908 -2.346,6.25c0.262,8.333 7.554,15.366 20.575,15.625l1.562,-0c12.759,-0 26.042,-6.771 26.042,-18.23c0,-2.604 -0.521,-4.687 -1.304,-6.25c-0.521,-1.562 -1.563,-2.862 -2.604,-3.904c-0.779,-1.041 -1.821,-1.825 -2.863,-2.604l-2.866,-1.562l-1.563,-0.521c-0.521,-0 -0.779,-0.263 -1.3,-0.263l-1.562,-0.52c-0.784,-0.259 -1.042,-0 -1.305,-0.521c-0.258,-0.259 -0.258,-0.521 -0.258,-0.779c0,-0.521 0.258,-1.042 0.779,-1.042l4.167,-1.304c1.825,-1.042 3.646,-1.821 4.95,-3.646c2.083,-2.084 2.862,-5.467 2.862,-8.334c0,-12.237 -16.145,-15.625 -21.875,-16.145l-2.083,-0" style="fill-rule:nonzero;"/></g><g><path d="M4666.89,238.858c-0,-1.82 -0.779,-2.083 -1.563,-2.083c-1.041,0 -1.562,0.783 -1.821,1.563c-1.304,3.645 -4.166,8.333 -8.075,8.333c-0.52,-0 -1.041,-0 -1.562,-0.258l-3.904,-1.305c-2.604,-1.041 -8.854,-3.125 -14.063,-3.125c-1.825,0 -3.387,0.263 -4.95,0.784c2.867,-4.95 16.409,-11.459 19.271,-12.242c9.375,-1.3 17.188,-6.771 17.188,-16.925c-0,-6.25 -2.605,-10.417 -5.988,-13.542c-6.771,-5.47 -16.667,-6.25 -19.533,-6.25c-9.375,0 -16.925,0.521 -23.696,8.334c-1.825,2.083 -2.604,4.166 -2.604,6.25c-0,1.821 0.779,3.904 1.562,6.25c1.563,3.125 4.946,5.466 8.592,5.466c6.512,0 7.292,-6.25 7.292,-9.112c-0,-5.992 -6.509,-6.513 -6.509,-9.117c0,-1.821 2.604,-4.946 10.417,-4.946c12.237,0 16.404,10.155 16.404,13.28c0,4.687 -1.562,9.116 -4.167,12.762c-4.687,5.988 -13.279,8.071 -19.791,12.238c-7.292,4.429 -12.238,11.979 -14.584,20.312c0,1.825 0.784,3.908 2.346,4.688c0.259,0.262 0.779,0.262 1.042,0.262c2.862,0 4.425,-8.075 12.237,-8.075c5.209,0 7.034,7.033 18.75,7.033c5.471,0 15.625,-0.521 17.709,-20.575" style="fill-rule:nonzero;"/></g><g><path d="M4845.98,224.017c0,-0 -0.262,1.041 -0.262,1.821c-0,1.041 1.041,2.083 2.083,2.083c0.783,-0 1.304,-0.779 1.562,-1.042c0.263,-0.779 3.388,-11.458 4.95,-14.062c0.521,-1.042 1.042,-1.3 1.3,-1.3c0.521,-0 0.784,1.041 0.784,1.821l-0,37.241c-0,3.125 -2.604,4.946 -5.209,4.946c-1.041,0 -2.345,0.521 -2.345,2.083c-0,1.563 1.304,2.084 3.387,2.084l21.875,-0c2.083,-0 2.083,-2.084 2.083,-2.084c0,0 0,-2.083 -2.083,-2.083c-1.825,0 -4.167,-2.342 -4.167,-4.687l0,-54.167c0,-2.083 -0.783,-3.125 -2.604,-3.125c-1.825,-0 -3.387,0.521 -4.95,0.521c-2.604,-0 -3.125,-0 -5.208,-0.521c-1.042,-0 -2.342,1.562 -3.125,2.604l-8.071,27.867" style="fill-rule:nonzero;"/></g><g><path d="M5094.68,236.254l0,-27.862c0,-1.305 -0.258,-2.346 -1.562,-2.346c-1.042,-0 -1.821,0.262 -2.604,1.304l-7.813,15.104c-0.521,0.521 -1.3,1.3 -1.3,3.125l0,10.675l-16.929,0c10.679,-8.854 27.346,-38.279 27.604,-39.842c0,-0.262 0.263,-0.52 0.263,-0.783c-0,-1.042 -1.042,-1.821 -1.825,-1.821c-1.3,0 -6.771,0.521 -9.113,0.521c-2.346,0 -3.908,-0.521 -4.95,-0.521c-1.3,0 -3.125,0.521 -3.125,2.604c0,16.667 -13.541,35.675 -16.925,40.363c-0.521,0.521 -1.041,1.304 -1.041,2.083c-0,1.304 1.041,2.604 2.604,2.604l23.437,0l0,8.075c0,3.646 -2.083,4.688 -4.166,4.688c-2.346,-0 -3.388,1.042 -3.388,2.342c0,1.304 0.521,2.866 2.867,2.866l22.396,0c1.3,0 2.604,-1.041 2.604,-2.866c-0,-1.821 -1.563,-2.605 -2.867,-2.605c-1.3,0 -4.167,-0.779 -4.167,-4.945l0,-7.555l9.638,0c1.3,0 2.083,-1.041 2.083,-2.604c0,-1.562 -0.521,-2.604 -2.083,-2.604l-9.638,0" style="fill-rule:nonzero;"/></g><g><path d="M5326.52,238.858c-0,-1.82 -0.779,-2.083 -1.563,-2.083c-1.041,0 -1.562,0.783 -1.821,1.563c-1.304,3.645 -4.166,8.333 -8.075,8.333c-0.52,-0 -1.041,-0 -1.562,-0.258l-3.904,-1.305c-2.604,-1.041 -8.854,-3.125 -14.063,-3.125c-1.825,0 -3.387,0.263 -4.95,0.784c2.867,-4.95 16.409,-11.459 19.271,-12.242c9.375,-1.3 17.188,-6.771 17.188,-16.925c-0,-6.25 -2.605,-10.417 -5.988,-13.542c-6.771,-5.47 -16.667,-6.25 -19.533,-6.25c-9.375,0 -16.925,0.521 -23.696,8.334c-1.825,2.083 -2.604,4.166 -2.604,6.25c-0,1.821 0.779,3.904 1.562,6.25c1.563,3.125 4.946,5.466 8.592,5.466c6.512,0 7.292,-6.25 7.292,-9.112c-0,-5.992 -6.509,-6.513 -6.509,-9.117c0,-1.821 2.604,-4.946 10.417,-4.946c12.237,0 16.404,10.155 16.404,13.28c0,4.687 -1.562,9.116 -4.167,12.762c-4.687,5.988 -13.279,8.071 -19.791,12.238c-7.292,4.429 -12.238,11.979 -14.584,20.312c0,1.825 0.784,3.908 2.346,4.688c0.259,0.262 0.779,0.262 1.042,0.262c2.862,0 4.425,-8.075 12.237,-8.075c5.209,0 7.034,7.033 18.75,7.033c5.471,0 15.625,-0.521 17.709,-20.575" style="fill-rule:nonzero;"/></g><g><path d="M5505.6,224.017c0,-0 -0.258,1.041 -0.258,1.821c-0,1.041 1.041,2.083 2.083,2.083c0.779,-0 1.3,-0.779 1.563,-1.042c0.258,-0.779 3.383,-11.458 4.945,-14.062c0.521,-1.042 1.042,-1.3 1.305,-1.3c0.52,-0 0.779,1.041 0.779,1.821l-0,37.241c-0,3.125 -2.604,4.946 -5.209,4.946c-1.041,0 -2.341,0.521 -2.341,2.083c-0,1.563 1.3,2.084 3.383,2.084l21.875,-0c2.083,-0 2.083,-2.084 2.083,-2.084c0,0 0,-2.083 -2.083,-2.083c-1.821,0 -4.167,-2.342 -4.167,-4.687l0,-54.167c0,-2.083 -0.779,-3.125 -2.604,-3.125c-1.821,-0 -3.383,0.521 -4.946,0.521c-2.604,-0 -3.125,-0 -5.208,-0.521c-1.042,-0 -2.346,1.562 -3.125,2.604l-8.075,27.867" style="fill-rule:nonzero;"/></g><g><path d="M5725.39,224.017c-0,-0 -0.259,1.041 -0.259,1.821c0,1.041 1.042,2.083 2.084,2.083c0.779,-0 1.3,-0.779 1.562,-1.042c0.259,-0.779 3.384,-11.458 4.946,-14.062c0.521,-1.042 1.042,-1.3 1.304,-1.3c0.521,-0 0.779,1.041 0.779,1.821l0,37.241c0,3.125 -2.604,4.946 -5.208,4.946c-1.042,0 -2.342,0.521 -2.342,2.083c0,1.563 1.3,2.084 3.384,2.084l21.875,-0c2.083,-0 2.083,-2.084 2.083,-2.084c0,0 0,-2.083 -2.083,-2.083c-1.821,0 -4.167,-2.342 -4.167,-4.687l0,-54.167c0,-2.083 -0.779,-3.125 -2.604,-3.125c-1.821,-0 -3.383,0.521 -4.946,0.521c-2.604,-0 -3.125,-0 -5.208,-0.521c-1.042,-0 -2.346,1.562 -3.125,2.604l-8.075,27.867" style="fill-rule:nonzero;"/></g><g><path d="M6131.43,227.142c0,-17.971 -12.5,-32.813 -28.125,-32.813c-15.362,0 -27.862,14.842 -27.862,32.813c-0,17.966 12.5,32.812 27.862,32.812c15.625,0 28.125,-14.846 28.125,-32.812m-28.125,-28.646c5.471,-0 12.5,12.237 12.5,27.604c0,15.363 -7.029,27.863 -12.5,27.863c-5.466,-0 -12.237,-12.5 -12.237,-27.863c-0,-15.367 6.771,-27.604 12.237,-27.604" style="fill-rule:nonzero;"/></g><g><path d="M576.576,677.008c22.175,0 40.288,17.942 40.288,40.117c-0,22.175 -18.113,40.288 -40.288,40.288c-22.175,-0 -40.287,-18.113 -40.287,-40.288c-0,-22.175 18.112,-40.117 40.287,-40.117m5.079,11.68l-4.908,-0c-2.542,9.312 -4.233,10.495 -15.742,12.02l0,5.246l13.2,0l0,42.825l7.45,0l0,-60.091m-5.079,74.141c25.221,0 45.704,-20.483 45.704,-45.704c0,-25.221 -20.483,-45.533 -45.704,-45.533c-25.221,-0 -45.704,20.312 -45.704,45.533c-0,25.221 20.483,45.704 45.704,45.704" style="fill-rule:nonzero;"/></g><g><path d="M1456.09,719.917c22.175,-0 40.283,17.941 40.283,40.116c-0,22.175 -18.108,40.288 -40.283,40.288c-22.175,-0 -40.288,-18.113 -40.288,-40.288c0,-22.175 18.113,-40.116 40.288,-40.116m-0,85.821c25.22,-0 45.7,-20.484 45.7,-45.705c-0,-25.22 -20.48,-45.533 -45.7,-45.533c-25.221,0 -45.705,20.313 -45.705,45.533c0,25.221 20.484,45.705 45.705,45.705m20.141,-60.6c0,-10.155 -7.787,-17.605 -19.129,-17.605c-12.354,0 -19.462,6.263 -19.804,20.821l7.45,0c0.508,-9.987 4.737,-14.216 12.017,-14.216c6.77,-0 11.85,4.737 11.85,11.17c-0,4.738 -2.709,8.8 -8.125,11.85l-7.788,4.4c-12.525,7.109 -16.079,12.863 -16.758,26.067l39.95,0l-0,-7.446l-31.654,0c0.845,-4.908 3.554,-7.958 10.833,-12.358l8.462,-4.571c8.463,-4.4 12.696,-10.662 12.696,-18.112" style="fill-rule:nonzero;"/></g><g><path d="M2335.34,720.558c22.175,0 40.287,17.942 40.287,40.117c0,22.175 -18.112,40.283 -40.287,40.283c-22.171,0 -40.284,-18.108 -40.284,-40.283c0,-22.175 18.113,-40.117 40.284,-40.117m-0,85.817c25.225,0 45.704,-20.479 45.704,-45.7c-0,-25.221 -20.479,-45.533 -45.704,-45.533c-25.221,-0 -45.7,20.312 -45.7,45.533c-0,25.221 20.479,45.7 45.7,45.7m20.146,-33.346c-0,-7.279 -3.046,-11.508 -10.159,-14.05c5.588,-2.2 8.296,-6.091 8.296,-12.016c0,-10.325 -6.771,-16.588 -18.283,-16.588c-12.017,0 -18.45,6.6 -18.788,19.467l7.45,-0c0.167,-8.971 3.892,-12.867 11.509,-12.867c6.6,0 10.495,3.896 10.495,10.158c0,6.43 -2.708,9.138 -14.729,9.138l0,6.267l4.063,-0c8.296,-0 12.529,3.891 12.529,10.491c-0,7.617 -4.742,12.021 -12.529,12.021c-8.125,0 -12.017,-4.063 -12.525,-12.696l-7.446,0c0.846,13.371 7.446,19.296 19.804,19.296c12.354,0 20.313,-7.279 20.313,-18.621" style="fill-rule:nonzero;"/></g><g><path d="M3305.37,763.979l18.787,-26.237l0,26.237l-18.787,0m16.754,-49.087c22.175,-0 40.288,17.941 40.288,40.116c-0,22.175 -18.113,40.288 -40.288,40.288c-22.171,-0 -40.283,-18.113 -40.283,-40.288c-0,-22.175 18.112,-40.116 40.283,-40.116m18.283,49.087l-8.804,0l0,-38.933l-5.583,-0l-27.254,37.75l-0,7.954l25.391,0l0,14.388l7.446,-0l0,-14.388l8.804,0l0,-6.771m-18.283,36.734c25.221,-0 45.704,-20.484 45.704,-45.705c0,-25.22 -20.483,-45.533 -45.704,-45.533c-25.221,0 -45.7,20.313 -45.7,45.533c0,25.221 20.479,45.705 45.7,45.705" style="fill-rule:nonzero;"/></g><g><path d="M4201.31,805.025c22.175,0 40.288,17.946 40.288,40.121c-0,22.171 -18.113,40.283 -40.288,40.283c-22.175,0 -40.283,-18.112 -40.283,-40.283c0,-22.175 18.108,-40.121 40.283,-40.121m19.638,50.954c-0,-11.85 -7.958,-19.637 -19.467,-19.637c-4.233,-0 -7.616,1.016 -11.004,3.554l2.371,-15.404l24.883,-0l0,-7.446l-30.975,-0l-4.404,31.483l6.771,0c3.554,-4.233 6.433,-5.587 11.004,-5.587c8.125,-0 13.204,5.079 13.204,14.05c0,8.633 -5.079,13.541 -13.204,13.541c-6.433,0 -10.496,-3.383 -12.187,-10.154l-7.45,0c2.37,12.017 9.141,16.759 19.808,16.759c12.187,-0 20.65,-8.467 20.65,-21.159m-19.638,34.867c25.221,-0 45.705,-20.479 45.705,-45.7c-0,-25.225 -20.484,-45.538 -45.705,-45.538c-25.22,0 -45.7,20.313 -45.7,45.538c0,25.221 20.48,45.7 45.7,45.7" style="fill-rule:nonzero;"/></g><g><path d="M5080.85,908.317c22.175,-0 40.283,17.941 40.283,40.116c0,22.175 -18.108,40.288 -40.283,40.288c-22.175,-0 -40.287,-18.113 -40.287,-40.288c-0,-22.175 18.112,-40.116 40.287,-40.116m12.188,52.133c-0,7.617 -5.08,12.696 -12.021,12.696c-6.938,-0 -12.188,-5.417 -12.188,-13.033c0,-7.446 5.079,-12.359 12.529,-12.359c7.109,0 11.68,4.742 11.68,12.696m7.616,-0.508c0,-11.171 -7.616,-18.788 -18.45,-18.788c-5.925,0 -10.496,2.371 -13.712,6.771c-0,-14.725 4.741,-22.85 13.371,-22.85c5.25,0 8.804,3.383 9.987,9.138l7.45,-0c-1.354,-9.817 -7.787,-15.742 -16.929,-15.742c-14.05,-0 -21.496,11.85 -21.496,32.671c0,18.787 6.433,28.608 20.142,28.608c11.341,0 19.637,-8.125 19.637,-19.808m-19.804,34.196c25.221,-0 45.7,-20.484 45.7,-45.705c0,-25.22 -20.479,-45.533 -45.7,-45.533c-25.221,0 -45.704,20.313 -45.704,45.533c-0,25.221 20.483,45.705 45.704,45.705" style="fill-rule:nonzero;"/></g><g><path d="M563.405,163.079c23.179,0 51.563,-21.354 51.563,-43.492c-0,-13.279 -10.417,-21.612 -25.259,-21.612c-28.645,0 -51.562,21.092 -51.562,43.488c-0,13.541 11.196,21.616 25.258,21.616" style="fill-rule:nonzero;"/></g><g><path d="M695.334,151.621c0,-0 -0.779,-15.625 -0.779,-26.042c0,-4.166 0.259,-7.291 0.521,-8.333c1.821,-5.208 12.238,-12.763 18.229,-12.763c7.55,0 10.675,8.596 10.675,15.105c0,14.062 -11.979,28.125 -23.175,35.158c-1.041,0.521 -1.825,0.779 -2.604,0.779c-2.346,0 -2.867,-2.604 -2.867,-3.904m-9.112,23.175c0.779,1.041 1.562,1.304 2.342,1.304c0.783,0 1.562,-0.521 1.562,-0.521c7.813,-4.429 14.063,-11.458 20.575,-15.887c23.175,-16.146 31.25,-32.03 31.25,-44.009c0,-14.846 -11.458,-24.221 -23.437,-25c-4.43,0 -10.68,2.084 -14.325,4.425c-1.563,1.304 -4.425,3.646 -5.73,3.646c-0.52,0 -0.779,0 -1.3,-0.258c-1.825,-0.784 -2.866,-2.604 -2.866,-4.429c0.262,-5.73 1.825,-68.23 1.825,-73.438c-0,-2.862 -2.346,-4.425 -4.95,-4.425c-3.646,0 -7.813,2.604 -8.071,7.292c-0,-0 1.042,148.696 3.125,151.3" style="fill-rule:nonzero;"/></g><g><path d="M783.297,163.079c23.179,0 51.562,-21.354 51.562,-43.492c0,-13.279 -10.416,-21.612 -25.258,-21.612c-28.646,0 -51.562,21.092 -51.562,43.488c-0,13.541 11.195,21.616 25.258,21.616" style="fill-rule:nonzero;"/></g><g><path d="M1003.21,195.371c23.179,-0 51.562,-21.354 51.562,-43.492c0,-13.279 -10.417,-21.612 -25.258,-21.612c-28.646,-0 -51.563,21.091 -51.563,43.487c0,13.542 11.196,21.617 25.259,21.617" style="fill-rule:nonzero;"/></g><g><path d="M1160.55,206.829c-1.562,5.209 -13.804,10.417 -19.792,10.417c-1.562,-0 -2.866,-0.521 -3.125,-1.304c-0.52,-1.042 -0.783,-6.771 -0.783,-13.021c0,-8.071 0.263,-17.188 0.783,-19.271c0.521,-4.425 12.5,-9.896 19.009,-9.896c1.825,0 3.387,0.521 3.908,1.563c0.521,1.304 1.042,7.812 1.042,14.846c-0,7.029 -0.521,14.32 -1.042,16.666m17.967,-42.45c1.825,-0.779 3.125,-2.862 3.125,-4.425l-0,-18.491c-0,-1.3 -0.779,-2.084 -1.821,-2.084c-0.521,0 -0.783,0 -1.304,0.263c-0,-0 -5.209,2.083 -6.509,2.341c-1.825,0 -3.645,-1.3 -3.645,-3.383l-0,-31.771c-0,-1.562 -1.563,-2.866 -3.646,-2.866c-2.604,-0 -4.167,1.304 -4.167,2.866l0,33.854c-0.262,2.605 -1.042,5.988 -3.387,7.55c-3.125,1.825 -11.98,5.471 -16.405,6.513c-2.345,-0 -3.125,-3.125 -3.125,-5.208l0,-31.25c0,-1.563 -1.825,-2.867 -3.645,-2.867c-2.605,-0 -4.167,1.304 -4.167,2.867l-0,35.154c-0,3.646 -1.563,6.25 -3.125,7.033c-1.563,0.779 -6.771,2.863 -6.771,2.863c-1.825,0.52 -3.125,2.604 -3.125,4.166l0,18.492c0,1.562 0.779,2.342 2.083,2.342c1.042,-0 5.988,-2.342 6.771,-2.863c0.259,0 0.521,-0.262 0.779,-0.262c1.825,-0 3.388,2.604 3.388,4.687l-0,25.783c-0,2.863 -1.304,5.209 -2.867,5.988c-1.562,0.521 -7.029,2.867 -7.029,2.867c-1.825,0.52 -3.125,2.604 -3.125,4.166l0,18.488c0,1.562 0.779,2.346 2.083,2.346c0.259,-0 0.78,-0.263 1.042,-0.263c0,0 3.646,-1.562 5.988,-2.342c0.262,-0.262 0.52,-0.262 0.783,-0.262c1.821,-0 3.125,2.867 3.125,4.167l-0,32.033c-0,1.562 1.562,2.862 3.383,2.862c2.604,0 4.429,-1.3 4.429,-2.862l0,-36.2c0,-3.383 1.3,-5.209 2.605,-5.729l15.883,-6.509c0.262,0 0.783,-0.262 1.042,-0.262c2.083,-0 3.387,3.125 3.387,4.687l0,32.555c0,1.562 1.563,2.862 3.383,2.862c2.867,-0 4.43,-1.3 4.43,-2.863l-0,-36.979c-0,-2.083 1.041,-5.208 2.862,-5.991c1.825,-0.78 7.292,-2.863 7.292,-2.863c1.825,-0.783 3.125,-2.867 3.125,-4.429l-0,-18.488c-0,-1.304 -0.779,-2.083 -1.821,-2.083c-0.521,0 -0.783,0 -1.304,0.258l-6.771,2.605c-1.563,-0 -3.383,-1.563 -3.383,-4.688l-0,-24.217c-0,-1.825 1.3,-6.77 3.383,-7.554l6.771,-2.604" style="fill-rule:nonzero;"/></g><g><path d="M1223.01,227.663c23.175,-0 51.563,-21.355 51.563,-43.492c-0,-13.279 -10.417,-21.613 -25.263,-21.613c-28.646,0 -51.562,21.092 -51.562,43.488c-0,13.542 11.2,21.617 25.262,21.617" style="fill-rule:nonzero;"/></g><g><path d="M1442.92,259.954c23.179,0 51.562,-21.354 51.562,-43.492c0,-13.279 -10.416,-21.612 -25.258,-21.612c-28.646,0 -51.562,21.092 -51.562,43.488c-0,13.541 11.195,21.616 25.258,21.616" style="fill-rule:nonzero;"/></g><g><path d="M1662.83,292.246c23.179,-0 51.563,-21.354 51.563,-43.492c-0,-13.279 -10.417,-21.612 -25.259,-21.612c-28.645,-0 -51.562,21.091 -51.562,43.487c-0,13.542 11.196,21.617 25.258,21.617" style="fill-rule:nonzero;"/></g><g><path d="M1820.18,303.704c-1.562,5.209 -13.804,10.417 -19.792,10.417c-1.562,-0 -2.866,-0.521 -3.125,-1.304c-0.52,-1.042 -0.783,-6.771 -0.783,-13.021c0,-8.071 0.263,-17.188 0.783,-19.271c0.521,-4.425 12.5,-9.896 19.009,-9.896c1.825,0 3.387,0.521 3.908,1.563c0.521,1.304 1.042,7.812 1.042,14.846c-0,7.029 -0.521,14.32 -1.042,16.666m17.967,-42.45c1.825,-0.779 3.125,-2.862 3.125,-4.425l-0,-18.491c-0,-1.3 -0.779,-2.084 -1.821,-2.084c-0.521,0 -0.783,0 -1.304,0.263c-0,-0 -5.209,2.083 -6.509,2.341c-1.825,0 -3.645,-1.3 -3.645,-3.383l-0,-31.771c-0,-1.562 -1.563,-2.866 -3.646,-2.866c-2.604,-0 -4.167,1.304 -4.167,2.866l0,33.854c-0.262,2.605 -1.042,5.988 -3.387,7.55c-3.125,1.825 -11.98,5.471 -16.405,6.513c-2.345,-0 -3.125,-3.125 -3.125,-5.208l0,-31.25c0,-1.563 -1.825,-2.867 -3.645,-2.867c-2.605,-0 -4.167,1.304 -4.167,2.867l-0,35.154c-0,3.646 -1.563,6.25 -3.125,7.033c-1.563,0.779 -6.771,2.863 -6.771,2.863c-1.825,0.52 -3.125,2.604 -3.125,4.166l0,18.492c0,1.562 0.779,2.341 2.083,2.341c1.042,0 5.988,-2.341 6.771,-2.862c0.259,0 0.521,-0.262 0.779,-0.262c1.825,-0 3.388,2.604 3.388,4.687l-0,25.783c-0,2.863 -1.304,5.209 -2.867,5.988c-1.562,0.521 -7.029,2.867 -7.029,2.867c-1.825,0.52 -3.125,2.604 -3.125,4.166l0,18.488c0,1.562 0.779,2.346 2.083,2.346c0.259,-0 0.78,-0.263 1.042,-0.263c0,-0 3.646,-1.563 5.988,-2.342c0.262,-0.262 0.52,-0.262 0.783,-0.262c1.821,-0 3.125,2.866 3.125,4.166l-0,32.034c-0,1.562 1.562,2.862 3.383,2.862c2.604,0 4.429,-1.3 4.429,-2.862l0,-36.2c0,-3.384 1.3,-5.209 2.605,-5.729l15.883,-6.509c0.262,0 0.783,-0.262 1.042,-0.262c2.083,-0 3.387,3.125 3.387,4.687l0,32.554c0,1.563 1.563,2.863 3.383,2.863c2.867,-0 4.43,-1.3 4.43,-2.863l-0,-36.979c-0,-2.083 1.041,-5.208 2.862,-5.991c1.825,-0.78 7.292,-2.863 7.292,-2.863c1.825,-0.783 3.125,-2.867 3.125,-4.429l-0,-18.488c-0,-1.304 -0.779,-2.083 -1.821,-2.083c-0.521,0 -0.783,0 -1.304,0.258l-6.771,2.605c-1.563,-0 -3.383,-1.563 -3.383,-4.688l-0,-24.217c-0,-1.825 1.3,-6.77 3.383,-7.554l6.771,-2.604" style="fill-rule:nonzero;"/></g><g><path d="M1882.62,324.538c23.179,-0 51.562,-21.355 51.562,-43.492c0,-13.279 -10.416,-21.613 -25.258,-21.613c-28.646,0 -51.562,21.092 -51.562,43.488c-0,13.541 11.195,21.617 25.258,21.617" style="fill-rule:nonzero;"/></g><g><path d="M2039.89,335.996c-1.563,5.208 -13.8,10.417 -19.792,10.417c-1.563,-0 -2.863,-0.521 -3.125,-1.305c-0.521,-1.041 -0.779,-6.77 -0.779,-13.02c-0,-8.071 0.258,-17.188 0.779,-19.271c0.521,-4.425 12.5,-9.896 19.012,-9.896c1.821,-0 3.384,0.521 3.905,1.562c0.52,1.305 1.041,7.813 1.041,14.846c0,7.029 -0.521,14.321 -1.041,16.667m17.97,-42.45c1.821,-0.779 3.125,-2.863 3.125,-4.425l0,-18.492c0,-1.3 -0.783,-2.083 -1.825,-2.083c-0.52,-0 -0.779,-0 -1.3,0.262c0,0 -5.208,2.084 -6.512,2.342c-1.821,0 -3.646,-1.3 -3.646,-3.383l0,-31.771c0,-1.563 -1.562,-2.867 -3.646,-2.867c-2.604,0 -4.166,1.304 -4.166,2.867l-0,33.854c-0.259,2.604 -1.042,5.988 -3.384,7.55c-3.125,1.825 -11.979,5.471 -16.408,6.513c-2.342,-0 -3.125,-3.125 -3.125,-5.209l-0,-31.25c-0,-1.562 -1.821,-2.866 -3.646,-2.866c-2.604,-0 -4.167,1.304 -4.167,2.866l0,35.154c0,3.646 -1.562,6.25 -3.125,7.034c-1.562,0.779 -6.77,2.862 -6.77,2.862c-1.821,0.521 -3.125,2.604 -3.125,4.167l-0,18.492c-0,1.562 0.783,2.341 2.083,2.341c1.042,0 5.992,-2.341 6.771,-2.862c0.262,-0 0.521,-0.263 0.783,-0.263c1.821,0 3.383,2.604 3.383,4.688l0,25.783c0,2.863 -1.3,5.208 -2.862,5.988c-1.563,0.52 -7.033,2.866 -7.033,2.866c-1.821,0.521 -3.125,2.604 -3.125,4.167l-0,18.487c-0,1.563 0.783,2.346 2.083,2.346c0.262,0 0.783,-0.262 1.042,-0.262c-0,-0 3.645,-1.563 5.991,-2.342c0.259,-0.262 0.521,-0.262 0.779,-0.262c1.825,-0 3.125,2.866 3.125,4.166l0,32.034c0,1.562 1.563,2.862 3.388,2.862c2.604,0 4.425,-1.3 4.425,-2.862l-0,-36.2c-0,-3.384 1.304,-5.209 2.604,-5.73l15.888,-6.508c0.258,0 0.779,-0.262 1.041,-0.262c2.084,-0 3.384,3.125 3.384,4.687l-0,32.554c-0,1.563 1.562,2.863 3.387,2.863c2.863,-0 4.425,-1.3 4.425,-2.863l0,-36.979c0,-2.083 1.042,-5.208 2.867,-5.992c1.821,-0.779 7.291,-2.862 7.291,-2.862c1.821,-0.783 3.125,-2.867 3.125,-4.429l0,-18.488c0,-1.304 -0.783,-2.083 -1.825,-2.083c-0.52,-0 -0.779,-0 -1.3,0.258l-6.77,2.604c-1.563,0 -3.388,-1.562 -3.388,-4.687l0,-24.217c0,-1.825 1.304,-6.771 3.388,-7.554l6.77,-2.604" style="fill-rule:nonzero;"/></g><g><path d="M2102.35,356.829c23.175,0 51.563,-21.354 51.563,-43.492c-0,-13.279 -10.417,-21.612 -25.263,-21.612c-28.646,0 -51.562,21.092 -51.562,43.488c-0,13.541 11.2,21.616 25.262,21.616" style="fill-rule:nonzero;"/></g><g><path d="M2246.66,346.413c0,-3.646 15.888,-10.417 22.138,-10.417c1.562,-0 2.342,0.258 2.342,1.3l-0,26.825c-0,4.687 -14.842,10.675 -21.355,10.675c-1.82,-0 -3.125,-0.521 -3.125,-1.563l0,-26.821m27.084,-36.979c-0.521,0 -0.779,0.259 -1.042,0.259c0,-0 -16.667,5.991 -23.437,5.991c-1.563,0 -2.605,-0.262 -2.605,-1.304l0,-43.487c0,-1.825 -1.562,-3.125 -3.125,-3.125l-3.383,-0c-1.825,-0 -3.125,1.3 -3.125,3.125l0,134.112c0,1.563 0.779,2.346 2.083,2.346c0.259,0 1.563,-0.263 1.821,-0.521c3.646,-1.562 18.229,-7.812 25.784,-7.812c2.604,-0 4.425,0.779 4.425,2.862l-0,38.804c-0,1.821 1.304,3.125 3.125,3.125l3.387,0c1.563,0 3.125,-1.304 3.125,-3.125l0,-130.729c0,-1.304 -1.042,-2.083 -2.083,-2.083c-0.263,-0 -0.784,-0 -1.042,0.258l-3.908,1.304" style="fill-rule:nonzero;"/></g><g><path d="M2322.17,389.121c23.175,-0 51.562,-21.354 51.562,-43.492c0,-13.279 -10.416,-21.612 -25.262,-21.612c-28.646,-0 -51.563,21.091 -51.563,43.487c0,13.542 11.2,21.617 25.263,21.617" style="fill-rule:nonzero;"/></g><g><path d="M2454.03,377.663c0,-0 -0.783,-15.625 -0.783,-26.042c-0,-4.167 0.262,-7.292 0.521,-8.333c1.825,-5.209 12.241,-12.763 18.229,-12.763c7.554,0 10.679,8.596 10.679,15.104c0,14.063 -11.979,28.125 -23.179,35.159c-1.042,0.52 -1.821,0.779 -2.604,0.779c-2.342,-0 -2.863,-2.604 -2.863,-3.904m-9.116,23.175c0.783,1.041 1.562,1.304 2.345,1.304c0.78,-0 1.563,-0.521 1.563,-0.521c7.812,-4.429 14.062,-11.458 20.571,-15.888c23.179,-16.145 31.25,-32.029 31.25,-44.008c-0,-14.846 -11.459,-24.221 -23.438,-25c-4.425,0 -10.675,2.083 -14.321,4.425c-1.562,1.304 -4.429,3.646 -5.729,3.646c-0.521,-0 -0.783,-0 -1.304,-0.258c-1.821,-0.784 -2.862,-2.605 -2.862,-4.43c0.258,-5.729 1.82,-68.229 1.82,-73.437c0,-2.863 -2.341,-4.425 -4.945,-4.425c-3.646,-0 -7.813,2.604 -8.075,7.292c-0,-0 1.041,148.695 3.125,151.3" style="fill-rule:nonzero;"/></g><g><path d="M2542,389.121c23.179,-0 51.562,-21.354 51.562,-43.492c0,-13.279 -10.416,-21.612 -25.258,-21.612c-28.646,-0 -51.562,21.091 -51.562,43.487c-0,13.542 11.195,21.617 25.258,21.617" style="fill-rule:nonzero;"/></g><g><path d="M2761.91,421.413c23.179,-0 51.563,-21.355 51.563,-43.492c-0,-13.279 -10.417,-21.613 -25.259,-21.613c-28.645,0 -51.562,21.092 -51.562,43.488c-0,13.541 11.196,21.617 25.258,21.617" style="fill-rule:nonzero;"/></g><g><path d="M2919.17,432.871c-1.563,5.208 -13.8,10.417 -19.792,10.417c-1.562,-0 -2.862,-0.521 -3.125,-1.305c-0.521,-1.041 -0.779,-6.77 -0.779,-13.02c0,-8.071 0.258,-17.188 0.779,-19.271c0.521,-4.425 12.5,-9.896 19.013,-9.896c1.821,-0 3.383,0.521 3.904,1.562c0.521,1.305 1.042,7.813 1.042,14.846c-0,7.029 -0.521,14.321 -1.042,16.667m17.971,-42.45c1.821,-0.779 3.125,-2.863 3.125,-4.425l-0,-18.492c-0,-1.3 -0.784,-2.083 -1.825,-2.083c-0.521,-0 -0.779,-0 -1.3,0.262c-0,0 -5.209,2.084 -6.513,2.342c-1.821,0 -3.646,-1.3 -3.646,-3.383l0,-31.771c0,-1.563 -1.562,-2.867 -3.645,-2.867c-2.605,0 -4.167,1.304 -4.167,2.867l-0,33.854c-0.258,2.604 -1.042,5.988 -3.383,7.55c-3.125,1.825 -11.98,5.471 -16.409,6.513c-2.341,-0 -3.125,-3.125 -3.125,-5.209l0,-31.25c0,-1.562 -1.821,-2.866 -3.646,-2.866c-2.604,-0 -4.166,1.304 -4.166,2.866l-0,35.154c-0,3.646 -1.563,6.25 -3.125,7.034c-1.563,0.779 -6.771,2.862 -6.771,2.862c-1.821,0.521 -3.125,2.604 -3.125,4.167l-0,18.492c-0,1.562 0.783,2.341 2.083,2.341c1.042,0 5.992,-2.341 6.771,-2.862c0.263,-0 0.521,-0.263 0.783,-0.263c1.821,0 3.384,2.604 3.384,4.688l-0,25.783c-0,2.863 -1.3,5.208 -2.863,5.988c-1.562,0.52 -7.033,2.866 -7.033,2.866c-1.821,0.521 -3.125,2.604 -3.125,4.167l-0,18.487c-0,1.563 0.783,2.346 2.083,2.346c0.263,0 0.784,-0.262 1.042,-0.262c-0,-0 3.646,-1.563 5.992,-2.342c0.258,-0.262 0.52,-0.262 0.779,-0.262c1.825,-0 3.125,2.866 3.125,4.166l-0,32.034c-0,1.562 1.562,2.862 3.387,2.862c2.604,0 4.425,-1.3 4.425,-2.862l0,-36.2c0,-3.384 1.304,-5.209 2.604,-5.73l15.888,-6.508c0.258,0 0.779,-0.262 1.042,-0.262c2.083,-0 3.383,3.125 3.383,4.687l-0,32.554c-0,1.563 1.562,2.863 3.387,2.863c2.863,-0 4.425,-1.3 4.425,-2.863l0,-36.979c0,-2.083 1.042,-5.208 2.867,-5.992c1.821,-0.779 7.292,-2.862 7.292,-2.862c1.821,-0.783 3.125,-2.867 3.125,-4.429l-0,-18.488c-0,-1.304 -0.784,-2.083 -1.825,-2.083c-0.521,-0 -0.779,-0 -1.3,0.258l-6.771,2.604c-1.563,0 -3.388,-1.562 -3.388,-4.687l0,-24.217c0,-1.825 1.305,-6.771 3.388,-7.554l6.771,-2.604" style="fill-rule:nonzero;"/></g><g><path d="M2981.63,453.704c23.175,0 51.563,-21.354 51.563,-43.492c-0,-13.279 -10.417,-21.612 -25.263,-21.612c-28.645,0 -51.562,21.092 -51.562,43.488c-0,13.541 11.2,21.616 25.262,21.616" style="fill-rule:nonzero;"/></g><g><path d="M3308.88,485.996c23.18,-0 51.563,-21.354 51.563,-43.492c-0,-13.279 -10.417,-21.612 -25.258,-21.612c-28.646,-0 -51.563,21.091 -51.563,43.487c0,13.542 11.196,21.617 25.258,21.617" style="fill-rule:nonzero;"/></g><g><path d="M3528.81,518.288c23.179,-0 51.563,-21.355 51.563,-43.492c-0,-13.279 -10.417,-21.613 -25.259,-21.613c-28.645,0 -51.562,21.092 -51.562,43.488c-0,13.542 11.196,21.617 25.258,21.617" style="fill-rule:nonzero;"/></g><g><path d="M3686.07,529.746c-1.563,5.208 -13.8,10.417 -19.792,10.417c-1.562,-0 -2.862,-0.521 -3.125,-1.305c-0.521,-1.041 -0.779,-6.77 -0.779,-13.02c0,-8.071 0.258,-17.188 0.779,-19.271c0.521,-4.425 12.5,-9.896 19.013,-9.896c1.821,-0 3.383,0.521 3.904,1.562c0.521,1.305 1.042,7.813 1.042,14.846c-0,7.029 -0.521,14.321 -1.042,16.667m17.971,-42.45c1.821,-0.779 3.125,-2.863 3.125,-4.425l-0,-18.492c-0,-1.3 -0.784,-2.083 -1.825,-2.083c-0.521,-0 -0.779,-0 -1.3,0.262c-0,0 -5.209,2.084 -6.513,2.342c-1.821,0 -3.646,-1.3 -3.646,-3.383l0,-31.771c0,-1.563 -1.562,-2.867 -3.645,-2.867c-2.605,0 -4.167,1.304 -4.167,2.867l-0,33.854c-0.258,2.604 -1.042,5.988 -3.383,7.55c-3.125,1.825 -11.98,5.471 -16.409,6.513c-2.341,-0 -3.125,-3.125 -3.125,-5.209l0,-31.25c0,-1.562 -1.821,-2.866 -3.646,-2.866c-2.604,-0 -4.166,1.304 -4.166,2.866l-0,35.154c-0,3.646 -1.563,6.25 -3.125,7.034c-1.563,0.779 -6.771,2.862 -6.771,2.862c-1.821,0.521 -3.125,2.604 -3.125,4.167l-0,18.492c-0,1.562 0.783,2.341 2.083,2.341c1.042,0 5.992,-2.341 6.771,-2.862c0.263,-0 0.521,-0.263 0.783,-0.263c1.821,0 3.384,2.604 3.384,4.688l-0,25.783c-0,2.863 -1.3,5.208 -2.863,5.988c-1.562,0.52 -7.033,2.866 -7.033,2.866c-1.821,0.521 -3.125,2.604 -3.125,4.167l-0,18.487c-0,1.563 0.783,2.346 2.083,2.346c0.263,0 0.784,-0.262 1.042,-0.262c-0,-0 3.646,-1.563 5.992,-2.342c0.258,-0.263 0.52,-0.263 0.779,-0.263c1.825,0 3.125,2.867 3.125,4.167l-0,32.034c-0,1.562 1.562,2.862 3.387,2.862c2.604,0 4.425,-1.3 4.425,-2.862l0,-36.201c0,-3.383 1.304,-5.208 2.604,-5.729l15.888,-6.508c0.258,0 0.779,-0.262 1.042,-0.262c2.083,-0 3.383,3.125 3.383,4.687l-0,32.554c-0,1.563 1.562,2.863 3.387,2.863c2.863,-0 4.425,-1.3 4.425,-2.863l0,-36.979c0,-2.083 1.042,-5.208 2.867,-5.992c1.821,-0.779 7.292,-2.862 7.292,-2.862c1.821,-0.784 3.125,-2.867 3.125,-4.429l-0,-18.488c-0,-1.304 -0.784,-2.083 -1.825,-2.083c-0.521,-0 -0.779,-0 -1.3,0.258l-6.771,2.604c-1.563,0 -3.388,-1.562 -3.388,-4.687l0,-24.217c0,-1.825 1.305,-6.771 3.388,-7.554l6.771,-2.604" style="fill-rule:nonzero;"/></g><g><path d="M3748.52,550.579c23.175,0 51.562,-21.354 51.562,-43.491c0,-13.28 -10.416,-21.613 -25.262,-21.613c-28.646,0 -51.563,21.092 -51.563,43.488c0,13.541 11.2,21.616 25.263,21.616" style="fill-rule:nonzero;"/></g><g><path d="M3905.78,562.038c-1.562,5.208 -13.8,10.416 -19.791,10.416c-1.563,0 -2.863,-0.521 -3.125,-1.304c-0.521,-1.042 -0.779,-6.771 -0.779,-13.021c-0,-8.071 0.258,-17.187 0.779,-19.271c0.521,-4.425 12.5,-9.896 19.012,-9.896c1.821,0 3.384,0.521 3.904,1.563c0.521,1.304 1.042,7.812 1.042,14.846c0,7.029 -0.521,14.321 -1.042,16.666m17.971,-42.45c1.821,-0.779 3.125,-2.862 3.125,-4.425l0,-18.491c0,-1.3 -0.783,-2.084 -1.825,-2.084c-0.521,0 -0.779,0 -1.3,0.263c0,-0 -5.208,2.083 -6.512,2.342c-1.821,-0 -3.646,-1.3 -3.646,-3.384l-0,-31.771c-0,-1.562 -1.563,-2.866 -3.646,-2.866c-2.604,-0 -4.167,1.304 -4.167,2.866l0,33.855c-0.258,2.604 -1.041,5.987 -3.383,7.55c-3.125,1.825 -11.979,5.47 -16.408,6.512c-2.342,0 -3.125,-3.125 -3.125,-5.208l-0,-31.25c-0,-1.563 -1.821,-2.867 -3.646,-2.867c-2.604,0 -4.167,1.304 -4.167,2.867l0,35.154c0,3.646 -1.562,6.25 -3.125,7.033c-1.562,0.779 -6.771,2.863 -6.771,2.863c-1.82,0.521 -3.125,2.604 -3.125,4.166l0,18.492c0,1.563 0.784,2.342 2.084,2.342c1.041,-0 5.991,-2.342 6.771,-2.863c0.262,0 0.52,-0.262 0.783,-0.262c1.821,-0 3.383,2.604 3.383,4.687l0,25.784c0,2.862 -1.3,5.208 -2.862,5.987c-1.563,0.521 -7.034,2.867 -7.034,2.867c-1.82,0.521 -3.125,2.604 -3.125,4.166l0,18.488c0,1.562 0.784,2.346 2.084,2.346c0.262,-0 0.783,-0.263 1.041,-0.263c0,0 3.646,-1.562 5.992,-2.341c0.258,-0.263 0.521,-0.263 0.779,-0.263c1.825,0 3.125,2.867 3.125,4.167l0,32.033c0,1.563 1.563,2.863 3.388,2.863c2.604,-0 4.425,-1.3 4.425,-2.863l-0,-36.2c-0,-3.383 1.304,-5.208 2.604,-5.729l15.887,-6.508c0.259,-0 0.78,-0.263 1.042,-0.263c2.083,0 3.383,3.125 3.383,4.688l0,32.554c0,1.562 1.563,2.862 3.388,2.862c2.862,0 4.425,-1.3 4.425,-2.862l-0,-36.979c-0,-2.084 1.042,-5.209 2.867,-5.992c1.82,-0.779 7.291,-2.862 7.291,-2.862c1.821,-0.784 3.125,-2.867 3.125,-4.43l0,-18.487c0,-1.304 -0.783,-2.084 -1.825,-2.084c-0.521,0 -0.779,0 -1.3,0.259l-6.771,2.604c-1.562,-0 -3.387,-1.563 -3.387,-4.688l-0,-24.216c-0,-1.825 1.304,-6.771 3.387,-7.554l6.771,-2.605" style="fill-rule:nonzero;"/></g><g><path d="M3968.25,582.871c23.179,-0 51.562,-21.354 51.562,-43.492c0,-13.279 -10.416,-21.612 -25.258,-21.612c-28.646,-0 -51.562,21.091 -51.562,43.487c-0,13.542 11.195,21.617 25.258,21.617" style="fill-rule:nonzero;"/></g><g><path d="M4112.63,572.454c0,-3.646 15.888,-10.416 22.138,-10.416c1.562,-0 2.342,0.258 2.342,1.3l-0,26.825c-0,4.687 -14.842,10.675 -21.355,10.675c-1.82,-0 -3.125,-0.521 -3.125,-1.563l0,-26.821m27.084,-36.979c-0.521,0 -0.779,0.258 -1.042,0.258c0,0 -16.667,5.992 -23.437,5.992c-1.563,0 -2.605,-0.262 -2.605,-1.304l0,-43.488c0,-1.825 -1.562,-3.125 -3.125,-3.125l-3.383,0c-1.825,0 -3.125,1.3 -3.125,3.125l0,134.113c0,1.562 0.779,2.346 2.083,2.346c0.259,-0 1.563,-0.263 1.821,-0.521c3.646,-1.563 18.229,-7.813 25.784,-7.813c2.604,0 4.425,0.78 4.425,2.863l-0,38.804c-0,1.821 1.304,3.125 3.125,3.125l3.387,0c1.563,0 3.125,-1.304 3.125,-3.125l0,-130.729c0,-1.304 -1.042,-2.083 -2.083,-2.083c-0.263,-0 -0.784,-0 -1.042,0.258l-3.908,1.304" style="fill-rule:nonzero;"/></g><g><path d="M4188.14,615.163c23.175,-0 51.562,-21.355 51.562,-43.492c0,-13.279 -10.416,-21.613 -25.262,-21.613c-28.646,0 -51.563,21.092 -51.563,43.488c0,13.542 11.2,21.617 25.263,21.617" style="fill-rule:nonzero;"/></g><g><path d="M4320.06,603.704c0,0 -0.779,-15.625 -0.779,-26.041c0,-4.167 0.259,-7.292 0.521,-8.334c1.821,-5.208 12.238,-12.762 18.229,-12.762c7.55,-0 10.675,8.596 10.675,15.104c0,14.062 -11.979,28.125 -23.175,35.158c-1.041,0.521 -1.825,0.779 -2.604,0.779c-2.346,0 -2.867,-2.604 -2.867,-3.904m-9.112,23.175c0.779,1.042 1.562,1.304 2.342,1.304c0.783,0 1.562,-0.52 1.562,-0.52c7.813,-4.43 14.063,-11.459 20.575,-15.888c23.175,-16.146 31.25,-32.029 31.25,-44.008c0,-14.846 -11.458,-24.221 -23.437,-25c-4.43,-0 -10.68,2.083 -14.325,4.425c-1.563,1.304 -4.425,3.646 -5.73,3.646c-0.52,-0 -0.779,-0 -1.3,-0.259c-1.825,-0.783 -2.866,-2.604 -2.866,-4.429c0.262,-5.729 1.825,-68.229 1.825,-73.437c-0,-2.863 -2.346,-4.425 -4.95,-4.425c-3.646,-0 -7.813,2.604 -8.071,7.291c-0,0 1.042,148.696 3.125,151.3" style="fill-rule:nonzero;"/></g><g><path d="M4408.02,615.163c23.175,-0 51.562,-21.355 51.562,-43.492c0,-13.279 -10.416,-21.613 -25.262,-21.613c-28.646,0 -51.563,21.092 -51.563,43.488c0,13.542 11.2,21.617 25.263,21.617" style="fill-rule:nonzero;"/></g><g><path d="M4627.98,647.454c23.179,0 51.563,-21.354 51.563,-43.491c-0,-13.28 -10.417,-21.613 -25.259,-21.613c-28.646,0 -51.562,21.092 -51.562,43.487c-0,13.542 11.196,21.617 25.258,21.617" style="fill-rule:nonzero;"/></g><g><path d="M4785.31,658.913c-1.562,5.208 -13.804,10.416 -19.791,10.416c-1.563,0 -2.867,-0.521 -3.125,-1.304c-0.521,-1.042 -0.784,-6.771 -0.784,-13.021c0,-8.071 0.263,-17.187 0.784,-19.271c0.521,-4.425 12.5,-9.896 19.008,-9.896c1.825,0 3.388,0.521 3.908,1.563c0.521,1.304 1.042,7.812 1.042,14.846c0,7.029 -0.521,14.321 -1.042,16.666m17.967,-42.45c1.821,-0.779 3.125,-2.862 3.125,-4.425l0,-18.491c0,-1.3 -0.783,-2.084 -1.825,-2.084c-0.521,0 -0.779,0 -1.3,0.263c0,-0 -5.208,2.083 -6.508,2.342c-1.825,-0 -3.646,-1.3 -3.646,-3.384l-0,-31.771c-0,-1.562 -1.563,-2.866 -3.646,-2.866c-2.604,-0 -4.167,1.304 -4.167,2.866l0,33.855c-0.262,2.604 -1.041,5.987 -3.387,7.55c-3.125,1.825 -11.979,5.47 -16.404,6.512c-2.346,0 -3.125,-3.125 -3.125,-5.208l-0,-31.25c-0,-1.563 -1.825,-2.867 -3.646,-2.867c-2.604,0 -4.167,1.304 -4.167,2.867l0,35.154c0,3.646 -1.562,6.25 -3.125,7.033c-1.562,0.779 -6.771,2.863 -6.771,2.863c-1.825,0.521 -3.125,2.604 -3.125,4.166l0,18.492c0,1.563 0.78,2.342 2.084,2.342c1.041,-0 5.987,-2.342 6.771,-2.863c0.258,0 0.52,-0.262 0.779,-0.262c1.825,-0 3.387,2.604 3.387,4.687l0,25.784c0,2.862 -1.304,5.208 -2.866,5.987c-1.563,0.521 -7.03,2.867 -7.03,2.867c-1.825,0.521 -3.125,2.604 -3.125,4.166l0,18.488c0,1.562 0.78,2.346 2.084,2.346c0.258,-0 0.779,-0.263 1.041,-0.263c0,0 3.646,-1.562 5.988,-2.341c0.262,-0.263 0.521,-0.263 0.783,-0.263c1.821,0 3.125,2.867 3.125,4.167l0,32.033c0,1.563 1.563,2.863 3.384,2.863c2.604,-0 4.429,-1.3 4.429,-2.863l-0,-36.2c-0,-3.383 1.3,-5.208 2.604,-5.729l15.883,-6.508c0.263,-0 0.784,-0.263 1.042,-0.263c2.083,0 3.387,3.125 3.387,4.688l0,32.554c0,1.562 1.563,2.862 3.384,2.862c2.866,0 4.429,-1.3 4.429,-2.862l-0,-36.979c-0,-2.084 1.042,-5.209 2.862,-5.992c1.825,-0.779 7.292,-2.863 7.292,-2.863c1.821,-0.783 3.125,-2.866 3.125,-4.429l0,-18.487c0,-1.304 -0.783,-2.084 -1.825,-2.084c-0.521,0 -0.779,0 -1.3,0.259l-6.771,2.604c-1.562,-0 -3.383,-1.563 -3.383,-4.688l-0,-24.216c-0,-1.825 1.3,-6.771 3.383,-7.554l6.771,-2.605" style="fill-rule:nonzero;"/></g><g><path d="M4847.77,679.746c23.179,-0 51.562,-21.354 51.562,-43.492c0,-13.279 -10.416,-21.612 -25.258,-21.612c-28.646,-0 -51.563,21.091 -51.563,43.487c0,13.542 11.196,21.617 25.259,21.617" style="fill-rule:nonzero;"/></g><g><path d="M5067.64,712.038c23.179,-0 51.562,-21.355 51.562,-43.492c0,-13.279 -10.416,-21.613 -25.258,-21.613c-28.646,0 -51.563,21.092 -51.563,43.488c0,13.542 11.196,21.617 25.259,21.617" style="fill-rule:nonzero;"/></g><g><path d="M5287.6,744.329c23.179,0 51.563,-21.354 51.563,-43.491c-0,-13.28 -10.417,-21.613 -25.259,-21.613c-28.646,0 -51.562,21.092 -51.562,43.487c-0,13.542 11.196,21.617 25.258,21.617" style="fill-rule:nonzero;"/></g><g><path d="M5444.93,755.788c-1.562,5.208 -13.804,10.416 -19.791,10.416c-1.563,0 -2.867,-0.521 -3.125,-1.304c-0.521,-1.042 -0.784,-6.771 -0.784,-13.021c0,-8.071 0.263,-17.187 0.784,-19.271c0.521,-4.425 12.5,-9.896 19.008,-9.896c1.825,0 3.388,0.521 3.908,1.563c0.521,1.304 1.042,7.812 1.042,14.846c0,7.029 -0.521,14.321 -1.042,16.666m17.967,-42.45c1.825,-0.779 3.125,-2.862 3.125,-4.425l0,-18.491c0,-1.3 -0.779,-2.084 -1.821,-2.084c-0.521,0 -0.783,0 -1.304,0.263c0,-0 -5.208,2.083 -6.508,2.342c-1.825,-0 -3.646,-1.3 -3.646,-3.384l-0,-31.771c-0,-1.562 -1.563,-2.866 -3.646,-2.866c-2.604,-0 -4.167,1.304 -4.167,2.866l0,33.855c-0.262,2.604 -1.041,5.987 -3.387,7.55c-3.125,1.825 -11.979,5.47 -16.404,6.512c-2.346,0 -3.125,-3.125 -3.125,-5.208l-0,-31.25c-0,-1.563 -1.825,-2.867 -3.646,-2.867c-2.604,0 -4.167,1.304 -4.167,2.867l0,35.154c0,3.646 -1.562,6.25 -3.125,7.033c-1.562,0.779 -6.771,2.863 -6.771,2.863c-1.825,0.521 -3.125,2.604 -3.125,4.166l0,18.492c0,1.563 0.78,2.342 2.084,2.342c1.041,-0 5.987,-2.342 6.771,-2.863c0.258,0 0.52,-0.262 0.779,-0.262c1.825,-0 3.387,2.604 3.387,4.687l0,25.784c0,2.862 -1.304,5.208 -2.866,5.987c-1.563,0.521 -7.03,2.867 -7.03,2.867c-1.825,0.521 -3.125,2.604 -3.125,4.166l0,18.488c0,1.562 0.78,2.346 2.084,2.346c0.258,-0 0.779,-0.263 1.041,-0.263c0,0 3.646,-1.562 5.988,-2.341c0.262,-0.263 0.521,-0.263 0.783,-0.263c1.821,0 3.125,2.867 3.125,4.167l0,32.033c0,1.563 1.563,2.863 3.384,2.863c2.604,-0 4.429,-1.3 4.429,-2.863l-0,-36.2c-0,-3.383 1.3,-5.208 2.604,-5.729l15.883,-6.508c0.263,-0 0.784,-0.263 1.042,-0.263c2.083,0 3.387,3.125 3.387,4.688l0,32.554c0,1.562 1.563,2.862 3.384,2.862c2.866,0 4.429,-1.3 4.429,-2.862l-0,-36.979c-0,-2.084 1.042,-5.209 2.862,-5.992c1.825,-0.779 7.292,-2.863 7.292,-2.863c1.825,-0.783 3.125,-2.866 3.125,-4.429l0,-18.487c0,-1.304 -0.779,-2.084 -1.821,-2.084c-0.521,0 -0.783,0 -1.304,0.259l-6.771,2.604c-1.562,-0 -3.383,-1.563 -3.383,-4.688l-0,-24.216c-0,-1.825 1.3,-6.771 3.383,-7.554l6.771,-2.605" style="fill-rule:nonzero;"/></g><g><path d="M5507.39,776.621c23.179,-0 51.562,-21.354 51.562,-43.492c0,-13.279 -10.416,-21.612 -25.258,-21.612c-28.646,-0 -51.563,21.091 -51.563,43.487c0,13.542 11.196,21.617 25.259,21.617" style="fill-rule:nonzero;"/></g><g><path d="M5664.73,788.079c-1.562,5.209 -13.804,10.417 -19.792,10.417c-1.562,-0 -2.866,-0.521 -3.125,-1.304c-0.52,-1.042 -0.783,-6.771 -0.783,-13.021c0,-8.071 0.263,-17.188 0.783,-19.271c0.521,-4.425 12.5,-9.896 19.009,-9.896c1.825,0 3.387,0.521 3.908,1.563c0.521,1.304 1.042,7.812 1.042,14.845c-0,7.03 -0.521,14.321 -1.042,16.667m17.967,-42.45c1.825,-0.779 3.125,-2.862 3.125,-4.425l-0,-18.492c-0,-1.3 -0.779,-2.083 -1.821,-2.083c-0.521,0 -0.783,0 -1.304,0.263c-0,-0 -5.209,2.083 -6.509,2.341c-1.825,0 -3.645,-1.3 -3.645,-3.383l-0,-31.771c-0,-1.562 -1.563,-2.867 -3.646,-2.867c-2.604,0 -4.167,1.305 -4.167,2.867l0,33.854c-0.262,2.604 -1.042,5.988 -3.387,7.55c-3.125,1.825 -11.98,5.471 -16.405,6.513c-2.345,-0 -3.125,-3.125 -3.125,-5.209l0,-31.25c0,-1.562 -1.825,-2.866 -3.645,-2.866c-2.605,-0 -4.167,1.304 -4.167,2.866l-0,35.155c-0,3.645 -1.563,6.25 -3.125,7.033c-1.563,0.779 -6.771,2.862 -6.771,2.862c-1.825,0.521 -3.125,2.605 -3.125,4.167l0,18.492c0,1.562 0.779,2.341 2.083,2.341c1.042,0 5.988,-2.341 6.771,-2.862c0.259,-0 0.521,-0.263 0.779,-0.263c1.825,0 3.388,2.605 3.388,4.688l-0,25.783c-0,2.863 -1.304,5.209 -2.867,5.988c-1.562,0.521 -7.029,2.866 -7.029,2.866c-1.825,0.521 -3.125,2.605 -3.125,4.167l0,18.488c0,1.562 0.779,2.345 2.083,2.345c0.259,0 0.78,-0.262 1.042,-0.262c0,-0 3.646,-1.563 5.988,-2.342c0.262,-0.262 0.52,-0.262 0.783,-0.262c1.821,-0 3.125,2.866 3.125,4.166l-0,32.034c-0,1.562 1.562,2.862 3.383,2.862c2.604,0 4.429,-1.3 4.429,-2.862l0,-36.2c0,-3.384 1.3,-5.209 2.605,-5.729l15.883,-6.509c0.262,0 0.783,-0.262 1.042,-0.262c2.083,-0 3.387,3.125 3.387,4.687l0,32.554c0,1.563 1.563,2.863 3.383,2.863c2.867,-0 4.43,-1.3 4.43,-2.863l-0,-36.979c-0,-2.083 1.041,-5.208 2.862,-5.991c1.825,-0.78 7.292,-2.863 7.292,-2.863c1.825,-0.783 3.125,-2.867 3.125,-4.429l-0,-18.488c-0,-1.304 -0.779,-2.083 -1.821,-2.083c-0.521,0 -0.783,0 -1.304,0.258l-6.771,2.605c-1.563,-0 -3.383,-1.563 -3.383,-4.688l-0,-24.217c-0,-1.825 1.3,-6.77 3.383,-7.554l6.771,-2.604" style="fill-rule:nonzero;"/></g><g><path d="M5727.18,808.913c23.18,-0 51.563,-21.355 51.563,-43.492c-0,-13.279 -10.417,-21.613 -25.258,-21.613c-28.646,0 -51.563,21.092 -51.563,43.488c0,13.542 11.196,21.617 25.258,21.617" style="fill-rule:nonzero;"/></g><g><path d="M5998.23,798.496c0,-3.646 15.888,-10.417 22.138,-10.417c1.562,0 2.341,0.259 2.341,1.3l0,26.825c0,4.688 -14.841,10.675 -21.354,10.675c-1.821,0 -3.125,-0.521 -3.125,-1.562l0,-26.821m27.083,-36.979c-0.52,-0 -0.779,0.258 -1.041,0.258c-0,0 -16.667,5.992 -23.438,5.992c-1.562,-0 -2.604,-0.263 -2.604,-1.304l0,-43.488c0,-1.825 -1.562,-3.125 -3.125,-3.125l-3.383,0c-1.825,0 -3.125,1.3 -3.125,3.125l-0,134.113c-0,1.562 0.779,2.345 2.083,2.345c0.258,0 1.563,-0.262 1.821,-0.52c3.646,-1.563 18.229,-7.813 25.783,-7.813c2.604,0 4.425,0.779 4.425,2.863l0,38.804c0,1.821 1.304,3.125 3.125,3.125l3.388,-0c1.562,-0 3.125,-1.304 3.125,-3.125l-0,-130.729c-0,-1.305 -1.042,-2.084 -2.084,-2.084c-0.262,0 -0.783,0 -1.041,0.259l-3.909,1.304" style="fill-rule:nonzero;"/></g><g><path d="M6077.35,792.246c2.867,-9.117 12.5,-10.417 20.575,-10.417c17.967,0 32.292,19.271 32.292,34.896c-0,8.071 -3.388,15.363 -11.979,17.446c-2.605,0.783 -5.471,1.042 -8.075,1.042c-9.375,-0 -19.009,-6.25 -24.48,-13.542c-5.208,-5.988 -9.112,-14.842 -9.112,-23.175c-0,-2.083 0.258,-4.167 0.779,-6.25m27.346,-16.146c-34.638,0 -56.25,14.321 -56.25,32.029c-0,17.45 14.842,33.075 53.646,33.075c42.708,0 56.25,-14.846 56.25,-33.075c-0,-18.487 -29.429,-32.029 -53.646,-32.029" style="fill-rule:nonzero;"/></g><g><path d="M135.701,449.796c0.783,4.95 0.783,4.687 -3.904,6.25c-22.917,7.812 -37.763,28.387 -37.763,50.521c0,23.437 12.242,40.104 29.95,46.095c2.084,0.78 5.209,1.563 7.03,1.563c2.083,-0 3.125,-1.304 3.125,-2.867c-0,-1.821 -2.084,-2.604 -3.905,-3.383c-10.937,-4.688 -18.75,-15.888 -18.75,-27.867c0,-14.841 10.155,-26.041 26.042,-30.466c4.167,-1.042 4.688,-0.784 5.208,2.083l13.021,77.604c0.521,2.863 0.259,2.863 -3.646,3.646c-4.166,0.779 -9.375,1.3 -14.583,1.3c-45.575,0 -75,-25.258 -75,-61.458c0,-15.363 2.604,-35.938 24.217,-60.417c15.625,-17.446 27.604,-27.083 39.846,-36.979c2.604,-2.084 3.125,-1.821 3.645,1.041l5.467,33.334m28.388,-177.342c8.591,0 15.625,7.029 15.625,21.354c-0,28.905 -24.742,52.342 -45.313,70.313c-1.825,1.562 -2.867,1.3 -3.387,-2.083c-1.042,-6.771 -1.563,-15.625 -1.563,-23.959c0,-40.625 18.75,-65.625 34.638,-65.625m-10.417,218.75c-0.521,-3.125 -0.263,-3.908 2.862,-3.646c21.096,1.821 38.542,19.53 38.542,42.446c0,16.409 -9.896,29.688 -24.479,36.979c-3.125,1.563 -3.646,1.563 -4.167,-1.562l-12.758,-74.217m-14.063,-81.25c-0.52,-3.125 0,-3.387 1.563,-4.95c28.125,-26.3 49.479,-59.375 49.479,-99.216c0,-22.659 -6.25,-45.055 -16.929,-60.68c-3.904,-5.729 -10.675,-13.02 -13.542,-13.02c-3.646,-0 -11.716,6.77 -16.925,12.5c-19.271,21.354 -25.521,53.908 -25.521,80.991c0,15.104 1.821,32.029 3.646,42.709c0.521,3.125 0.779,3.645 -2.346,6.25c-37.5,30.987 -77.341,68.229 -77.341,120.833c-0,45.312 30.987,88.279 94.791,88.279c5.988,0 12.759,-0.521 17.967,-1.563c2.867,-0.52 3.388,-0.779 3.908,2.346c3.125,17.446 7.03,40.105 7.03,52.342c-0,38.542 -26.042,43.229 -41.405,43.229c-14.062,0 -20.833,-4.167 -20.833,-7.55c0,-1.825 2.342,-2.604 8.333,-4.429c8.071,-2.342 17.446,-9.375 17.446,-24.479c0,-14.321 -9.112,-26.563 -25,-26.563c-17.446,0 -27.862,13.804 -27.862,29.95c-0,16.925 10.154,42.446 49.479,42.446c17.446,0 51.3,-7.812 51.3,-52.083c-0,-14.842 -4.688,-39.584 -7.55,-55.729c-0.521,-3.125 -0.263,-2.863 3.383,-4.425c26.304,-10.417 43.75,-32.555 43.75,-61.98c0,-33.333 -24.479,-62.762 -62.758,-62.762c-6.771,-0 -6.771,-0 -7.554,-4.688l-6.509,-37.758" style="fill-rule:nonzero;"/></g><g><path d="M789.718,642.506c-3.386,0 -5.209,1.563 -5.209,3.907c0,2.343 1.823,3.906 5.209,3.906l2.604,-0c9.635,-0 14.323,5.729 14.323,14.062c-0,11.459 -8.073,27.344 -23.959,27.344c-5.208,0 -9.375,-2.083 -9.375,-4.687c0,-1.563 1.303,-2.084 3.386,-3.125c2.864,-1.303 6.51,-4.428 6.51,-11.198c0,-6.25 -4.427,-9.375 -9.896,-9.375c-7.291,-0 -12.76,6.51 -12.76,15.104c0,10.416 8.333,20.052 26.823,20.052c22.135,-0 40.365,-13.281 40.365,-33.854c-0,-6.511 -3.386,-12.761 -10.157,-16.146c-1.823,-0.781 -2.864,-1.042 -2.864,-2.344c-0,-0.781 1.041,-1.302 3.125,-2.344c10.937,-4.427 19.791,-12.76 19.791,-23.177c0,-13.541 -13.02,-21.875 -28.906,-21.875c-16.406,0 -29.948,8.594 -30.469,22.657c-0.26,6.77 3.907,11.197 9.896,11.197c6.511,0 11.719,-5.208 11.719,-12.239c-0,-2.865 -1.042,-4.948 -2.344,-6.511c-1.823,-1.562 -3.125,-2.604 -3.125,-3.385c0,-1.823 3.125,-3.646 8.594,-3.646c10.156,0 13.542,6.25 13.542,11.979c-0,13.802 -8.855,23.698 -23.959,23.698l-2.864,0Z" style="fill-rule:nonzero;"/></g><g><path d="M1449.33,642.506c-3.385,0 -5.208,1.563 -5.208,3.907c-0,2.343 1.823,3.906 5.208,3.906l2.604,-0c9.636,-0 14.323,5.729 14.323,14.062c0,11.459 -8.073,27.344 -23.958,27.344c-5.208,0 -9.375,-2.083 -9.375,-4.687c-0,-1.563 1.302,-2.084 3.385,-3.125c2.865,-1.303 6.511,-4.428 6.511,-11.198c-0,-6.25 -4.427,-9.375 -9.896,-9.375c-7.292,-0 -12.76,6.51 -12.76,15.104c-0,10.416 8.333,20.052 26.822,20.052c22.136,-0 40.365,-13.281 40.365,-33.854c0,-6.511 -3.385,-12.761 -10.156,-16.146c-1.823,-0.781 -2.865,-1.042 -2.865,-2.344c0,-0.781 1.042,-1.302 3.125,-2.344c10.938,-4.427 19.792,-12.76 19.792,-23.177c-0,-13.541 -13.021,-21.875 -28.906,-21.875c-16.407,0 -29.948,8.594 -30.469,22.657c-0.261,6.77 3.906,11.197 9.896,11.197c6.51,0 11.718,-5.208 11.718,-12.239c0,-2.865 -1.041,-4.948 -2.343,-6.511c-1.823,-1.562 -3.125,-2.604 -3.125,-3.385c-0,-1.823 3.125,-3.646 8.593,-3.646c10.157,0 13.542,6.25 13.542,11.979c0,13.802 -8.854,23.698 -23.958,23.698l-2.865,0Z" style="fill-rule:nonzero;"/></g><g><path d="M2108.81,650.906c-3.385,0 -5.208,1.563 -5.208,3.906c0,2.344 1.823,3.907 5.208,3.907l2.605,-0c9.635,-0 14.322,5.729 14.322,14.062c0,11.459 -8.072,27.344 -23.958,27.344c-5.208,-0 -9.375,-2.083 -9.375,-4.688c0,-1.562 1.302,-2.083 3.386,-3.125c2.864,-1.302 6.51,-4.427 6.51,-11.197c-0,-6.25 -4.427,-9.375 -9.896,-9.375c-7.292,-0 -12.76,6.51 -12.76,15.104c-0,10.416 8.333,20.052 26.823,20.052c22.135,-0 40.364,-13.281 40.364,-33.854c0,-6.511 -3.385,-12.761 -10.156,-16.146c-1.823,-0.781 -2.865,-1.042 -2.865,-2.344c0,-0.781 1.042,-1.302 3.125,-2.344c10.938,-4.427 19.792,-12.76 19.792,-23.177c0,-13.541 -13.021,-21.875 -28.906,-21.875c-16.406,0 -29.948,8.594 -30.469,22.656c-0.26,6.771 3.906,11.198 9.896,11.198c6.51,0 11.719,-5.208 11.719,-12.239c-0,-2.865 -1.042,-4.948 -2.344,-6.511c-1.823,-1.562 -3.125,-2.604 -3.125,-3.385c-0,-1.823 3.125,-3.646 8.594,-3.646c10.156,0 13.541,6.25 13.541,11.979c0,13.802 -8.854,23.698 -23.958,23.698l-2.865,0Z" style="fill-rule:nonzero;"/></g><g><path d="M2768.22,687.181c-3.386,0 -5.208,1.563 -5.208,3.906c-0,2.344 1.822,3.907 5.208,3.907l2.604,-0c9.635,-0 14.323,5.729 14.323,14.062c-0,11.459 -8.073,27.344 -23.958,27.344c-5.209,-0 -9.375,-2.083 -9.375,-4.688c-0,-1.562 1.302,-2.083 3.385,-3.125c2.865,-1.302 6.51,-4.427 6.51,-11.197c0,-6.25 -4.427,-9.375 -9.895,-9.375c-7.292,-0 -12.761,6.51 -12.761,15.104c0,10.416 8.334,20.052 26.823,20.052c22.136,-0 40.365,-13.281 40.365,-33.854c-0,-6.511 -3.386,-12.761 -10.157,-16.146c-1.822,-0.781 -2.864,-1.042 -2.864,-2.344c-0,-0.781 1.042,-1.302 3.125,-2.344c10.937,-4.427 19.792,-12.76 19.792,-23.177c-0,-13.541 -13.021,-21.875 -28.907,-21.875c-16.406,0 -29.948,8.594 -30.468,22.656c-0.261,6.771 3.906,11.198 9.895,11.198c6.511,0 11.719,-5.208 11.719,-12.239c0,-2.865 -1.042,-4.948 -2.344,-6.511c-1.823,-1.562 -3.125,-2.604 -3.125,-3.385c0,-1.823 3.125,-3.646 8.594,-3.646c10.156,0 13.542,6.25 13.542,11.979c-0,13.802 -8.854,23.698 -23.959,23.698l-2.864,0Z" style="fill-rule:nonzero;"/></g><g><path d="M3535.11,660.785c-3.385,0 -5.208,1.563 -5.208,3.907c0,2.343 1.823,3.906 5.208,3.906l2.605,-0c9.635,-0 14.322,5.729 14.322,14.062c0,11.459 -8.072,27.344 -23.958,27.344c-5.208,0 -9.375,-2.083 -9.375,-4.687c0,-1.563 1.302,-2.084 3.386,-3.125c2.864,-1.302 6.51,-4.427 6.51,-11.198c-0,-6.25 -4.427,-9.375 -9.896,-9.375c-7.292,-0 -12.76,6.51 -12.76,15.104c-0,10.417 8.333,20.052 26.823,20.052c22.135,0 40.364,-13.281 40.364,-33.854c0,-6.511 -3.385,-12.761 -10.156,-16.146c-1.823,-0.781 -2.865,-1.042 -2.865,-2.344c0,-0.781 1.042,-1.302 3.125,-2.343c10.938,-4.428 19.792,-12.761 19.792,-23.178c0,-13.541 -13.021,-21.875 -28.906,-21.875c-16.406,0 -29.948,8.594 -30.469,22.657c-0.26,6.77 3.906,11.198 9.896,11.198c6.51,-0 11.719,-5.209 11.719,-12.24c-0,-2.865 -1.042,-4.948 -2.344,-6.51c-1.823,-1.563 -3.125,-2.605 -3.125,-3.386c-0,-1.823 3.125,-3.646 8.594,-3.646c10.156,0 13.541,6.25 13.541,11.979c0,13.803 -8.854,23.698 -23.958,23.698l-2.865,0Z" style="fill-rule:nonzero;"/></g><g><path d="M4194.55,690.273c-3.386,-0 -5.208,1.562 -5.208,3.906c-0,2.344 1.822,3.906 5.208,3.906l2.604,0c9.635,0 14.323,5.73 14.323,14.063c-0,11.458 -8.073,27.344 -23.958,27.344c-5.209,-0 -9.375,-2.084 -9.375,-4.688c-0,-1.562 1.302,-2.083 3.385,-3.125c2.865,-1.302 6.51,-4.427 6.51,-11.198c0,-6.25 -4.427,-9.375 -9.895,-9.375c-7.292,0 -12.761,6.511 -12.761,15.104c0,10.417 8.334,20.053 26.823,20.053c22.136,-0 40.365,-13.282 40.365,-33.855c-0,-6.51 -3.386,-12.76 -10.157,-16.145c-1.822,-0.782 -2.864,-1.042 -2.864,-2.344c-0,-0.781 1.042,-1.302 3.125,-2.344c10.937,-4.427 19.792,-12.76 19.792,-23.177c-0,-13.542 -13.021,-21.875 -28.907,-21.875c-16.406,-0 -29.948,8.594 -30.468,22.656c-0.261,6.771 3.906,11.198 9.895,11.198c6.511,0 11.719,-5.208 11.719,-12.239c0,-2.865 -1.042,-4.948 -2.344,-6.511c-1.823,-1.562 -3.125,-2.604 -3.125,-3.385c0,-1.823 3.125,-3.646 8.594,-3.646c10.156,-0 13.542,6.25 13.542,11.979c-0,13.802 -8.854,23.698 -23.959,23.698l-2.864,-0Z" style="fill-rule:nonzero;"/></g><g><path d="M4854.2,770.523c-3.385,-0 -5.208,1.562 -5.208,3.906c-0,2.344 1.823,3.906 5.208,3.906l2.604,0c9.636,0 14.323,5.73 14.323,14.063c0,11.458 -8.073,27.344 -23.958,27.344c-5.208,-0 -9.375,-2.084 -9.375,-4.688c-0,-1.562 1.302,-2.083 3.385,-3.125c2.865,-1.302 6.511,-4.427 6.511,-11.198c-0,-6.25 -4.427,-9.375 -9.896,-9.375c-7.292,0 -12.76,6.511 -12.76,15.104c-0,10.417 8.333,20.053 26.822,20.053c22.136,-0 40.365,-13.282 40.365,-33.855c0,-6.51 -3.385,-12.76 -10.156,-16.145c-1.823,-0.782 -2.865,-1.042 -2.865,-2.344c0,-0.781 1.042,-1.302 3.125,-2.344c10.938,-4.427 19.792,-12.76 19.792,-23.177c-0,-13.542 -13.021,-21.875 -28.906,-21.875c-16.407,-0 -29.948,8.594 -30.469,22.656c-0.261,6.771 3.906,11.198 9.896,11.198c6.51,0 11.718,-5.208 11.718,-12.239c0,-2.865 -1.041,-4.948 -2.343,-6.511c-1.823,-1.562 -3.125,-2.604 -3.125,-3.385c-0,-1.823 3.125,-3.646 8.593,-3.646c10.157,-0 13.542,6.25 13.542,11.979c0,13.802 -8.854,23.698 -23.958,23.698l-2.865,-0Z" style="fill-rule:nonzero;"/></g><g><path d="M5513.79,874.965c-3.386,-0 -5.209,1.562 -5.209,3.906c0,2.344 1.823,3.906 5.209,3.906l2.604,0c9.635,0 14.323,5.729 14.323,14.063c-0,11.458 -8.073,27.343 -23.959,27.343c-5.208,0 -9.375,-2.083 -9.375,-4.687c0,-1.563 1.302,-2.083 3.386,-3.125c2.864,-1.302 6.51,-4.427 6.51,-11.198c0,-6.25 -4.427,-9.375 -9.896,-9.375c-7.291,-0 -12.76,6.51 -12.76,15.104c-0,10.417 8.333,20.052 26.823,20.052c22.135,0 40.364,-13.281 40.364,-33.854c0,-6.51 -3.385,-12.76 -10.156,-16.146c-1.823,-0.781 -2.864,-1.041 -2.864,-2.344c-0,-0.781 1.041,-1.302 3.125,-2.343c10.937,-4.427 19.791,-12.761 19.791,-23.177c0,-13.542 -13.021,-21.875 -28.906,-21.875c-16.406,-0 -29.948,8.593 -30.469,22.656c-0.26,6.771 3.906,11.198 9.896,11.198c6.51,-0 11.719,-5.209 11.719,-12.24c-0,-2.864 -1.042,-4.948 -2.344,-6.51c-1.823,-1.563 -3.125,-2.604 -3.125,-3.386c0,-1.823 3.125,-3.645 8.594,-3.645c10.156,-0 13.541,6.25 13.541,11.979c0,13.802 -8.854,23.698 -23.958,23.698l-2.864,-0Z" style="fill-rule:nonzero;"/></g><g><path d="M370.018,407.608l-0,-55.729c-0,-2.083 -0.261,-4.427 -3.125,-4.427c-2.344,0 -3.646,0.521 -5.209,2.344l-24.739,29.948c-1.042,1.302 -2.344,2.864 -2.344,5.989l0,21.875l-35.156,0c20.833,-17.708 62.5,-76.823 63.281,-79.687c0,-0.521 0.26,-0.781 0.26,-1.302c0,-2.084 -1.822,-3.646 -3.906,-3.646c-2.344,-0 -13.021,0.521 -17.708,0.521c-4.688,-0 -16.406,-0.521 -18.49,-0.521c-2.343,-0 -5.989,0.781 -5.989,4.948c-0,32.292 -25.521,68.489 -33.334,79.427l-1.562,2.083c-0,0.261 -0.261,0.521 -0.261,0.782c-0.52,1.041 -0.781,2.083 -0.781,2.864c0,2.604 2.084,4.427 5.209,4.427l48.437,0l0,16.406c0,7.032 -5.729,9.115 -10.417,9.115c-4.166,0 -5.989,2.344 -5.989,4.948c-0,2.604 1.041,5.469 4.948,5.469l55.468,-0c2.605,-0 5.209,-1.823 5.209,-5.469c-0,-3.646 -3.125,-5.208 -5.729,-5.208c-2.605,-0 -8.073,-1.563 -8.073,-9.896l-0,-15.365l19.01,0c2.604,0 3.906,-1.823 3.906,-4.948c0,-3.125 -1.041,-4.948 -3.906,-4.948l-19.01,0Z" style="fill-rule:nonzero;"/></g><g><path d="M370.018,538.021l-0,-55.729c-0,-2.084 -0.261,-4.427 -3.125,-4.427c-2.344,-0 -3.646,0.52 -5.209,2.343l-24.739,29.948c-1.042,1.302 -2.344,2.865 -2.344,5.99l0,21.875l-35.156,-0c20.833,-17.708 62.5,-76.823 63.281,-79.688c0,-0.52 0.26,-0.781 0.26,-1.302c0,-2.083 -1.822,-3.646 -3.906,-3.646c-2.344,0 -13.021,0.521 -17.708,0.521c-4.688,0 -16.406,-0.521 -18.49,-0.521c-2.343,0 -5.989,0.782 -5.989,4.948c-0,32.292 -25.521,68.49 -33.334,79.427l-1.562,2.084c-0,0.26 -0.261,0.521 -0.261,0.781c-0.52,1.042 -0.781,2.083 -0.781,2.865c0,2.604 2.084,4.427 5.209,4.427l48.437,-0l0,16.406c0,7.031 -5.729,9.115 -10.417,9.115c-4.166,-0 -5.989,2.343 -5.989,4.947c-0,2.605 1.041,5.469 4.948,5.469l55.468,0c2.605,0 5.209,-1.823 5.209,-5.469c-0,-3.645 -3.125,-5.208 -5.729,-5.208c-2.605,0 -8.073,-1.562 -8.073,-9.896l-0,-15.364l19.01,-0c2.604,-0 3.906,-1.823 3.906,-4.948c0,-3.125 -1.041,-4.948 -3.906,-4.948l-19.01,-0Z" style="fill-rule:nonzero;"/></g><g><path d="M654.155,714.592l-21.354,-0l0,5.325l21.354,-0l0,-5.325" style="fill-rule:nonzero;"/></g><g><path d="M697.772,714.592l-21.354,-0l-0,5.325l21.354,-0l-0,-5.325" style="fill-rule:nonzero;"/></g><g><path d="M741.264,714.592l-21.225,-0l-0,5.325l21.225,-0l-0,-5.325" style="fill-rule:nonzero;"/></g><g><path d="M784.884,714.592l-21.354,-0l0,5.325l21.354,-0l0,-5.325" style="fill-rule:nonzero;"/></g><g><path d="M828.372,714.592l-21.225,-0l-0,5.325l21.225,-0l-0,-5.325" style="fill-rule:nonzero;"/></g><g><path d="M871.993,714.592l-21.354,-0l-0,5.325l21.354,-0l-0,-5.325" style="fill-rule:nonzero;"/></g><g><path d="M915.614,714.592l-21.355,-0l0,5.325l21.355,-0l-0,-5.325" style="fill-rule:nonzero;"/></g><g><path d="M959.101,714.592l-21.225,-0l0,5.325l21.225,-0l0,-5.325" style="fill-rule:nonzero;"/></g><g><path d="M1002.72,714.592l-21.354,-0l-0,5.325l21.354,-0l-0,-5.325" style="fill-rule:nonzero;"/></g><g><path d="M1046.21,714.592l-21.22,-0l-0,5.325l21.22,-0l0,-5.325" style="fill-rule:nonzero;"/></g><g><path d="M1089.83,714.592l-21.354,-0l0,5.325l21.354,-0l0,-5.325" style="fill-rule:nonzero;"/></g><g><path d="M1133.45,714.592l-21.354,-0l-0,5.325l21.354,-0l0,-5.325" style="fill-rule:nonzero;"/></g><g><path d="M1176.94,714.592l-21.355,-0l0,5.325l21.355,-0l-0,-5.325" style="fill-rule:nonzero;"/></g><g><path d="M1220.56,714.592l-21.354,-0l0,5.325l21.354,-0l0,-5.325" style="fill-rule:nonzero;"/></g><g><path d="M1264.05,714.592l-21.225,-0l0,5.325l21.225,-0l0,-5.325" style="fill-rule:nonzero;"/></g><g><path d="M1310.27,714.592l-23.958,-0l-0,5.325l23.958,-0l-0,-5.325" style="fill-rule:nonzero;"/></g><g><path d="M1310.27,719.917l-5.208,-0l-0,-45.288l5.208,0l-0,45.288" style="fill-rule:nonzero;"/></g><g><path d="M1533.71,757.496l-21.354,-0l0,5.337l21.354,0l0,-5.337" style="fill-rule:nonzero;"/></g><g><path d="M1577.2,757.496l-21.354,-0l-0,5.337l21.354,0l0,-5.337" style="fill-rule:nonzero;"/></g><g><path d="M1620.82,757.496l-21.354,-0l-0,5.337l21.354,0l-0,-5.337" style="fill-rule:nonzero;"/></g><g><path d="M1664.31,757.496l-21.354,-0l0,5.337l21.354,0l0,-5.337" style="fill-rule:nonzero;"/></g><g><path d="M1707.93,757.496l-21.354,-0l0,5.337l21.354,0l0,-5.337" style="fill-rule:nonzero;"/></g><g><path d="M1751.42,757.496l-21.354,-0l-0,5.337l21.354,0l-0,-5.337" style="fill-rule:nonzero;"/></g><g><path d="M1795.04,757.496l-21.355,-0l0,5.337l21.355,0l-0,-5.337" style="fill-rule:nonzero;"/></g><g><path d="M1838.53,757.496l-21.354,-0l0,5.337l21.354,0l0,-5.337" style="fill-rule:nonzero;"/></g><g><path d="M1882.15,757.496l-21.354,-0l-0,5.337l21.354,0l-0,-5.337" style="fill-rule:nonzero;"/></g><g><path d="M1925.64,757.496l-21.355,-0l0,5.337l21.355,0l-0,-5.337" style="fill-rule:nonzero;"/></g><g><path d="M1969.26,757.496l-21.354,-0l0,5.337l21.354,0l0,-5.337" style="fill-rule:nonzero;"/></g><g><path d="M2012.75,757.496l-21.354,-0l-0,5.337l21.354,0l-0,-5.337" style="fill-rule:nonzero;"/></g><g><path d="M2056.37,757.496l-21.354,-0l-0,5.337l21.354,0l-0,-5.337" style="fill-rule:nonzero;"/></g><g><path d="M2099.86,757.496l-21.354,-0l0,5.337l21.354,0l0,-5.337" style="fill-rule:nonzero;"/></g><g><path d="M2143.35,757.496l-21.225,-0l-0,5.337l21.225,0l-0,-5.337" style="fill-rule:nonzero;"/></g><g><path d="M2189.57,757.496l-23.959,-0l0,5.337l23.959,0l-0,-5.337" style="fill-rule:nonzero;"/></g><g><path d="M2189.57,762.833l-5.209,0l0,-45.3l5.209,0l-0,45.3" style="fill-rule:nonzero;"/></g><g><path d="M2412.88,758.146l-21.225,-0l0,5.325l21.225,-0l0,-5.325" style="fill-rule:nonzero;"/></g><g><path d="M2456.5,758.146l-21.354,-0l-0,5.325l21.354,-0l-0,-5.325" style="fill-rule:nonzero;"/></g><g><path d="M2499.98,758.146l-21.22,-0l-0,5.325l21.22,-0l0,-5.325" style="fill-rule:nonzero;"/></g><g><path d="M2543.61,758.146l-21.354,-0l0,5.325l21.354,-0l0,-5.325" style="fill-rule:nonzero;"/></g><g><path d="M2587.1,758.146l-21.225,-0l-0,5.325l21.225,-0l-0,-5.325" style="fill-rule:nonzero;"/></g><g><path d="M2630.71,758.146l-21.355,-0l0,5.325l21.355,-0l-0,-5.325" style="fill-rule:nonzero;"/></g><g><path d="M2674.2,758.146l-21.225,-0l0,5.325l21.225,-0l0,-5.325" style="fill-rule:nonzero;"/></g><g><path d="M2717.83,758.146l-21.354,-0l-0,5.325l21.354,-0l0,-5.325" style="fill-rule:nonzero;"/></g><g><path d="M2761.44,758.146l-21.354,-0l-0,5.325l21.354,-0l-0,-5.325" style="fill-rule:nonzero;"/></g><g><path d="M2804.93,758.146l-21.354,-0l0,5.325l21.354,-0l0,-5.325" style="fill-rule:nonzero;"/></g><g><path d="M2848.55,758.146l-21.354,-0l0,5.325l21.354,-0l0,-5.325" style="fill-rule:nonzero;"/></g><g><path d="M2892.04,758.146l-21.354,-0l-0,5.325l21.354,-0l-0,-5.325" style="fill-rule:nonzero;"/></g><g><path d="M2935.66,758.146l-21.355,-0l0,5.325l21.355,-0l-0,-5.325" style="fill-rule:nonzero;"/></g><g><path d="M2979.15,758.146l-21.221,-0l0,5.325l21.221,-0l0,-5.325" style="fill-rule:nonzero;"/></g><g><path d="M3022.77,758.146l-21.354,-0l-0,5.325l21.354,-0l-0,-5.325" style="fill-rule:nonzero;"/></g><g><path d="M3069,758.146l-23.958,-0l-0,5.325l23.958,-0l-0,-5.325" style="fill-rule:nonzero;"/></g><g><path d="M3069,763.471l-5.338,-0l0,-45.283l5.338,-0l-0,45.283" style="fill-rule:nonzero;"/></g><g><path d="M3399.6,752.471l-21.225,-0l-0,5.337l21.225,0l-0,-5.337" style="fill-rule:nonzero;"/></g><g><path d="M3443.21,752.471l-21.355,-0l0,5.337l21.355,0l-0,-5.337" style="fill-rule:nonzero;"/></g><g><path d="M3486.7,752.471l-21.225,-0l0,5.337l21.225,0l0,-5.337" style="fill-rule:nonzero;"/></g><g><path d="M3530.32,752.471l-21.354,-0l-0,5.337l21.354,0l-0,-5.337" style="fill-rule:nonzero;"/></g><g><path d="M3573.81,752.471l-21.225,-0l-0,5.337l21.225,0l-0,-5.337" style="fill-rule:nonzero;"/></g><g><path d="M3617.43,752.471l-21.354,-0l0,5.337l21.354,0l0,-5.337" style="fill-rule:nonzero;"/></g><g><path d="M3660.92,752.471l-21.354,-0l-0,5.337l21.354,0l-0,-5.337" style="fill-rule:nonzero;"/></g><g><path d="M3704.54,752.471l-21.354,-0l-0,5.337l21.354,0l-0,-5.337" style="fill-rule:nonzero;"/></g><g><path d="M3748.03,752.471l-21.354,-0l0,5.337l21.354,0l0,-5.337" style="fill-rule:nonzero;"/></g><g><path d="M3791.65,752.471l-21.354,-0l-0,5.337l21.354,0l0,-5.337" style="fill-rule:nonzero;"/></g><g><path d="M3835.14,752.471l-21.354,-0l-0,5.337l21.354,0l-0,-5.337" style="fill-rule:nonzero;"/></g><g><path d="M3878.63,752.471l-21.225,-0l0,5.337l21.225,0l0,-5.337" style="fill-rule:nonzero;"/></g><g><path d="M3922.25,752.471l-21.354,-0l-0,5.337l21.354,0l0,-5.337" style="fill-rule:nonzero;"/></g><g><path d="M3965.74,752.471l-21.221,-0l-0,5.337l21.221,0l-0,-5.337" style="fill-rule:nonzero;"/></g><g><path d="M4009.36,752.471l-21.354,-0l0,5.337l21.354,0l0,-5.337" style="fill-rule:nonzero;"/></g><g><path d="M4055.58,752.471l-23.958,-0l0,5.337l23.958,0l0,-5.337" style="fill-rule:nonzero;"/></g><g><path d="M4055.58,757.808l-5.337,0l-0,-45.3l5.337,0l0,45.3" style="fill-rule:nonzero;"/></g><g><path d="M4278.89,842.613l-21.354,-0l-0,5.324l21.354,0l-0,-5.324" style="fill-rule:nonzero;"/></g><g><path d="M4322.52,842.613l-21.354,-0l-0,5.324l21.354,0l-0,-5.324" style="fill-rule:nonzero;"/></g><g><path d="M4366.02,842.613l-21.225,-0l-0,5.324l21.225,0l-0,-5.324" style="fill-rule:nonzero;"/></g><g><path d="M4409.64,842.613l-21.354,-0l-0,5.324l21.354,0l-0,-5.324" style="fill-rule:nonzero;"/></g><g><path d="M4453.1,842.613l-21.225,-0l0,5.324l21.225,0l0,-5.324" style="fill-rule:nonzero;"/></g><g><path d="M4496.73,842.613l-21.354,-0l-0,5.324l21.354,0l0,-5.324" style="fill-rule:nonzero;"/></g><g><path d="M4540.35,842.613l-21.354,-0l-0,5.324l21.354,0l0,-5.324" style="fill-rule:nonzero;"/></g><g><path d="M4583.85,842.613l-21.225,-0l0,5.324l21.225,0l0,-5.324" style="fill-rule:nonzero;"/></g><g><path d="M4627.48,842.613l-21.354,-0l-0,5.324l21.354,0l0,-5.324" style="fill-rule:nonzero;"/></g><g><path d="M4670.93,842.613l-21.22,-0l-0,5.324l21.22,0l0,-5.324" style="fill-rule:nonzero;"/></g><g><path d="M4714.56,842.613l-21.354,-0l0,5.324l21.354,0l0,-5.324" style="fill-rule:nonzero;"/></g><g><path d="M4758.18,842.613l-21.354,-0l0,5.324l21.354,0l0,-5.324" style="fill-rule:nonzero;"/></g><g><path d="M4801.68,842.613l-21.22,-0l-0,5.324l21.22,0l0,-5.324" style="fill-rule:nonzero;"/></g><g><path d="M4845.31,842.613l-21.354,-0l0,5.324l21.354,0l0,-5.324" style="fill-rule:nonzero;"/></g><g><path d="M4888.81,842.613l-21.225,-0l0,5.324l21.225,0l0,-5.324" style="fill-rule:nonzero;"/></g><g><path d="M4935.02,842.613l-23.959,-0l0,5.324l23.959,0l-0,-5.324" style="fill-rule:nonzero;"/></g><g><path d="M4935.02,847.938l-5.209,-0l0,-45.288l5.209,0l-0,45.288" style="fill-rule:nonzero;"/></g><g><path d="M5158.43,945.896l-21.354,-0l0,5.337l21.354,0l0,-5.337" style="fill-rule:nonzero;"/></g><g><path d="M5200.77,945.896l-21.354,-0l-0,5.337l21.354,0l-0,-5.337" style="fill-rule:nonzero;"/></g><g><path d="M5243.23,945.896l-21.354,-0l-0,5.337l21.354,0l0,-5.337" style="fill-rule:nonzero;"/></g><g><path d="M5285.52,945.896l-21.354,-0l-0,5.337l21.354,0l-0,-5.337" style="fill-rule:nonzero;"/></g><g><path d="M5327.85,945.896l-21.221,-0l0,5.337l21.221,0l0,-5.337" style="fill-rule:nonzero;"/></g><g><path d="M5370.31,945.896l-21.354,-0l0,5.337l21.354,0l0,-5.337" style="fill-rule:nonzero;"/></g><g><path d="M5412.6,945.896l-21.225,-0l0,5.337l21.225,0l0,-5.337" style="fill-rule:nonzero;"/></g><g><path d="M5455.06,945.896l-21.354,-0l0,5.337l21.354,0l0,-5.337" style="fill-rule:nonzero;"/></g><g><path d="M5497.39,945.896l-21.354,-0l-0,5.337l21.354,0l-0,-5.337" style="fill-rule:nonzero;"/></g><g><path d="M5539.81,945.896l-21.354,-0l0,5.337l21.354,0l0,-5.337" style="fill-rule:nonzero;"/></g><g><path d="M5582.14,945.896l-21.354,-0l-0,5.337l21.354,0l-0,-5.337" style="fill-rule:nonzero;"/></g><g><path d="M5624.48,945.896l-21.225,-0l0,5.337l21.225,0l0,-5.337" style="fill-rule:nonzero;"/></g><g><path d="M5666.89,945.896l-21.354,-0l-0,5.337l21.354,0l-0,-5.337" style="fill-rule:nonzero;"/></g><g><path d="M5709.23,945.896l-21.225,-0l0,5.337l21.225,0l0,-5.337" style="fill-rule:nonzero;"/></g><g><path d="M5751.68,945.896l-21.354,-0l0,5.337l21.354,0l0,-5.337" style="fill-rule:nonzero;"/></g><g><path d="M5793.98,945.896l-21.354,-0l-0,5.337l21.354,0l0,-5.337" style="fill-rule:nonzero;"/></g><g><path d="M5836.31,945.896l-21.225,-0l0,5.337l21.225,0l0,-5.337" style="fill-rule:nonzero;"/></g><g><path d="M5881.35,945.896l-23.958,-0l-0,5.337l23.958,0l0,-5.337" style="fill-rule:nonzero;"/></g><g><path d="M5881.35,951.233l-5.337,0l-0,-45.3l5.337,0l0,45.3" style="fill-rule:nonzero;"/></g><g><path d="M538.139,453.458l-0,-32.304l447.525,16.146l-0,32.304l-447.525,-16.146" style="fill-rule:nonzero;"/></g><g><path d="M1197.64,453.525l-0,-32.371l447.658,32.292l0,32.371l-447.658,-32.292" style="fill-rule:nonzero;"/></g><g><path d="M1857.28,534.512l0,-32.629l447.392,64.584l-0,32.629l-447.392,-64.584" style="fill-rule:nonzero;"/></g><g><path d="M2516.65,582.95l0,-32.629l447.396,64.583l-0,32.629l-447.396,-64.583" style="fill-rule:nonzero;"/></g><g><path d="M3352.59,275.842l-0,-32.488l447.395,48.438l0,32.487l-447.395,-48.437" style="fill-rule:nonzero;"/></g><g><path d="M4011.96,340.425l-0,-32.317l447.525,16.146l-0,32.317l-447.525,-16.146" style="fill-rule:nonzero;"/></g><g><path d="M4671.73,405.008l0,-32.641l447.396,64.583l-0,32.642l-447.396,-64.584" style="fill-rule:nonzero;"/></g><g><path d="M5331.35,469.592l0,-32.317l447.267,16.146l-0,32.317l-447.267,-16.146" style="fill-rule:nonzero;"/></g><g><path d="M516.784,648.604l208.855,0l-0,-10.341l-198.567,-0l-0,-38.096l-10.288,-0" style="fill-rule:nonzero;"/></g><g><path d="M1059.88,648.604l-192.708,0l0,-10.341l182.421,-0l-0,-38.096l10.287,-0" style="fill-rule:nonzero;"/></g><g><path d="M1176.42,648.604l208.854,0l-0,-10.341l-198.567,-0l0,-38.096l-10.287,-0" style="fill-rule:nonzero;"/></g><g><path d="M1719.52,648.604l-192.709,0l0,-10.341l182.421,-0l0,-38.096l10.288,-0" style="fill-rule:nonzero;"/></g><g><path d="M1836.06,647.196l208.721,7.279l0,-10.337l-198.433,-6.93l-0,-38.45l-10.288,0" style="fill-rule:nonzero;"/></g><g><path d="M2378.89,666.233l-192.579,-6.708l-0,-10.338l182.162,6.525l0,-37.916l10.417,-0" style="fill-rule:nonzero;"/></g><g><path d="M2495.43,654.879l208.984,28.529l-0,-10.429l-198.7,-27.125l-0,-39.412l-10.284,-0" style="fill-rule:nonzero;"/></g><g><path d="M3038.27,729.421l-192.838,-26.275l0,-10.429l182.55,25.545l0,-37.279l10.288,0" style="fill-rule:nonzero;"/></g><g><path d="M3262.23,647.196l208.854,14.608l0,-10.35l-198.437,-13.891l-0,-38.805l-10.417,0" style="fill-rule:nonzero;"/></g><g><path d="M3805.19,685.413l-192.709,-13.451l0,-10.366l182.421,13.087l0,-37.708l10.288,-0" style="fill-rule:nonzero;"/></g><g><path d="M3921.6,696.363l208.854,-0l0,-10.326l-198.437,0l-0,-38.112l-10.417,0" style="fill-rule:nonzero;"/></g><g><path d="M4464.68,696.363l-192.708,-0l0,-10.326l182.425,0l0,-38.112l10.283,0" style="fill-rule:nonzero;"/></g><g><path d="M4581.35,776.625l208.725,0l0,-10.342l-198.437,0l-0,-38.096l-10.288,0" style="fill-rule:nonzero;"/></g><g><path d="M5124.35,776.625l-192.579,0l-0,-10.342l182.292,0l-0,-38.096l10.287,0" style="fill-rule:nonzero;"/></g><g><path d="M5241.02,841.975l208.983,29.05l0,-10.442l-198.7,-27.604l0,-39.441l-10.283,-0" style="fill-rule:nonzero;"/></g><g><path d="M5783.85,917.833l-192.837,-26.729l-0,-10.446l182.55,26.005l-0,-37.267l10.287,-0" style="fill-rule:nonzero;"/></g></g></svg>