<?xml version="1.0" encoding="UTF-8" standalone="no"?><!DOCTYPE svg PUBLIC "-//W3C//DTD SVG 1.1//EN" "http://www.w3.org/Graphics/SVG/1.1/DTD/svg11.dtd"><svg width="100%" height="100%" viewBox="0 0 6894 1806" version="1.1" xmlns="http://www.w3.org/2000/svg" xmlns:xlink="http://www.w3.org/1999/xlink" xml:space="preserve" xmlns:serif="http://www.serif.com/" style="fill-rule:evenodd;clip-rule:evenodd;stroke-miterlimit:2;"><g><g><path d="M9.364,356.567l6875,-0" style="fill:none;stroke:#000;stroke-width:8.38px;"/><path d="M9.364,614.9l6875,0" style="fill:none;stroke:#000;stroke-width:8.38px;"/><path d="M9.364,421.15l6875,-0" style="fill:none;stroke:#000;stroke-width:8.38px;"/><path d="M9.364,550.317l6875,-0" style="fill:none;stroke:#000;stroke-width:8.38px;"/><path d="M9.364,485.733l6875,0" style="fill:none;stroke:#000;stroke-width:8.38px;"/></g><g><path d="M3569.16,352.375l-0,266.721" style="fill:none;stroke:#000;stroke-width:10.33px;"/><path d="M6879.15,352.375l0,266.721" style="fill:none;stroke:#000;stroke-width:10.33px;"/></g><g><path d="M434.555,501.817l0,263.696" style="fill:none;stroke:#000;stroke-width:7.75px;"/></g><g><path d="M335.793,744.067l128.479,-0" style="fill:none;stroke:#000;stroke-width:10.33px;"/><path d="M335.793,679.483l128.479,0" style="fill:none;stroke:#000;stroke-width:10.33px;"/></g><g><path d="M701.472,485.671l-0,247.55" style="fill:none;stroke:#000;stroke-width:7.75px;"/></g><g><path d="M602.709,744.067l128.463,-0" style="fill:none;stroke:#000;stroke-width:10.33px;"/><path d="M602.709,679.483l128.463,0" style="fill:none;stroke:#000;stroke-width:10.33px;"/></g><g><path d="M968.384,469.525l0,231.404" style="fill:none;stroke:#000;stroke-width:7.75px;"/></g><g><path d="M869.622,679.483l128.462,0" style="fill:none;stroke:#000;stroke-width:10.33px;"/></g><g><path d="M1235.17,436.933l-0,231.705" style="fill:none;stroke:#000;stroke-width:7.75px;"/></g><g><path d="M1151.47,679.483l113.396,0" style="fill:none;stroke:#000;stroke-width:10.33px;"/></g><g><path d="M1501.95,396.583l0,239.763" style="fill:none;stroke:#000;stroke-width:7.75px;"/><path d="M1768.87,356.204l-0,215.559" style="fill:none;stroke:#000;stroke-width:7.75px;"/><path d="M2035.77,340.292l-0,199.179" style="fill:none;stroke:#000;stroke-width:7.75px;"/><path d="M2302.68,316.071l0,191.108" style="fill:none;stroke:#000;stroke-width:7.75px;"/><path d="M2569.59,291.854l-0,183.034" style="fill:none;stroke:#000;stroke-width:7.75px;"/><path d="M2767.33,464.292l0,199.283" style="fill:none;stroke:#000;stroke-width:7.75px;"/><path d="M3034.05,432l-0,199.296" style="fill:none;stroke:#000;stroke-width:7.75px;"/><path d="M3300.96,367.417l0,231.575" style="fill:none;stroke:#000;stroke-width:7.75px;"/><path d="M3675.19,335.125l-0,215.429" style="fill:none;stroke:#000;stroke-width:7.75px;"/><path d="M3942.11,302.838l0,215.425" style="fill:none;stroke:#000;stroke-width:7.75px;"/></g><g><path d="M3912.4,291.983l128.467,0" style="fill:none;stroke:#000;stroke-width:10.33px;"/></g><g><path d="M4209.03,270.546l0,215.425" style="fill:none;stroke:#000;stroke-width:7.75px;"/></g><g><path d="M4179.32,291.983l128.462,0" style="fill:none;stroke:#000;stroke-width:10.33px;"/></g><g><path d="M4475.78,238.254l0,247.496" style="fill:none;stroke:#000;stroke-width:7.75px;"/></g><g><path d="M4461.19,227.404l113.412,0" style="fill:none;stroke:#000;stroke-width:10.33px;"/><path d="M4462.23,291.983l112.371,0" style="fill:none;stroke:#000;stroke-width:10.33px;"/></g><g><path d="M4742.57,205.963l-0,271.712" style="fill:none;stroke:#000;stroke-width:7.75px;"/></g><g><path d="M4729.03,227.404l112.371,0" style="fill:none;stroke:#000;stroke-width:10.33px;"/><path d="M4712.86,291.983l128.513,0" style="fill:none;stroke:#000;stroke-width:10.33px;"/></g><g><path d="M5009.48,141.379l0,328.225" style="fill:none;stroke:#000;stroke-width:7.75px;"/></g><g><path d="M4979.82,162.821l128.516,-0" style="fill:none;stroke:#000;stroke-width:10.33px;"/><path d="M4979.82,227.404l128.516,0" style="fill:none;stroke:#000;stroke-width:10.33px;"/><path d="M4979.82,291.983l128.516,0" style="fill:none;stroke:#000;stroke-width:10.33px;"/></g><g><path d="M5276.4,141.379l0,328.275" style="fill:none;stroke:#000;stroke-width:7.75px;"/></g><g><path d="M5246.73,162.821l128.517,-0" style="fill:none;stroke:#000;stroke-width:10.33px;"/><path d="M5246.73,227.404l128.517,0" style="fill:none;stroke:#000;stroke-width:10.33px;"/><path d="M5246.73,291.983l128.517,0" style="fill:none;stroke:#000;stroke-width:10.33px;"/></g><g><path d="M5543.36,205.963l0,279.837" style="fill:none;stroke:#000;stroke-width:7.75px;"/></g><g><path d="M5513.65,227.404l128.383,0" style="fill:none;stroke:#000;stroke-width:10.33px;"/><path d="M5513.65,291.983l128.383,0" style="fill:none;stroke:#000;stroke-width:10.33px;"/></g><g><path d="M5810.28,238.254l0,263.692" style="fill:none;stroke:#000;stroke-width:7.75px;"/></g><g><path d="M5780.57,227.404l128.387,0" style="fill:none;stroke:#000;stroke-width:10.33px;"/><path d="M5780.57,291.983l128.387,0" style="fill:none;stroke:#000;stroke-width:10.33px;"/></g><g><path d="M6077.19,270.546l-0,215.425" style="fill:none;stroke:#000;stroke-width:7.75px;"/></g><g><path d="M6047.53,291.983l128.383,0" style="fill:none;stroke:#000;stroke-width:10.33px;"/></g><g><path d="M6344.11,302.838l0,215.425" style="fill:none;stroke:#000;stroke-width:7.75px;"/></g><g><path d="M6314.32,291.983l128.516,0" style="fill:none;stroke:#000;stroke-width:10.33px;"/></g><g><path d="M6611.07,335.125l-0,215.429" style="fill:none;stroke:#000;stroke-width:7.75px;"/></g><g><path d="M385.101,256.308c0,0 -0.258,1.042 -0.258,1.825c-0,1.042 1.041,2.084 2.083,2.084c0.779,-0 1.3,-0.784 1.563,-1.042c0.258,-0.783 3.383,-11.458 4.945,-14.062c0.521,-1.042 1.042,-1.305 1.305,-1.305c0.52,0 0.779,1.042 0.779,1.825l-0,37.238c-0,3.125 -2.604,4.946 -5.209,4.946c-1.041,-0 -2.341,0.52 -2.341,2.083c-0,1.562 1.3,2.083 3.383,2.083l21.875,0c2.083,0 2.083,-2.083 2.083,-2.083c0,-0 0,-2.083 -2.083,-2.083c-1.821,-0 -4.167,-2.342 -4.167,-4.688l0,-54.162c0,-2.084 -0.779,-3.125 -2.604,-3.125c-1.821,-0 -3.383,0.521 -4.946,0.521c-2.604,-0 -3.125,-0 -5.208,-0.521c-1.042,-0 -2.346,1.562 -3.125,2.604l-8.075,27.862" style="fill-rule:nonzero;"/></g><g><path d="M692.747,271.15c-0,-1.821 -0.779,-2.083 -1.563,-2.083c-1.041,-0 -1.562,0.783 -1.82,1.562c-1.305,3.646 -4.167,8.334 -8.075,8.334c-0.521,-0 -1.042,-0 -1.563,-0.259l-3.904,-1.304c-2.604,-1.042 -8.854,-3.125 -14.063,-3.125c-1.825,0 -3.387,0.263 -4.95,0.783c2.867,-4.95 16.409,-11.458 19.271,-12.237c9.375,-1.304 17.188,-6.771 17.188,-16.929c-0,-6.25 -2.604,-10.417 -5.988,-13.542c-6.771,-5.467 -16.666,-6.25 -19.533,-6.25c-9.375,0 -16.925,0.521 -23.696,8.333c-1.825,2.084 -2.604,4.167 -2.604,6.25c-0,1.825 0.779,3.909 1.562,6.25c1.563,3.125 4.946,5.471 8.592,5.471c6.513,0 7.292,-6.25 7.292,-9.116c-0,-5.988 -6.509,-6.509 -6.509,-9.113c0,-1.825 2.605,-4.95 10.417,-4.95c12.238,0 16.404,10.158 16.404,13.283c0,4.688 -1.562,9.113 -4.166,12.759c-4.688,5.991 -13.28,8.075 -19.792,12.237c-7.292,4.429 -12.238,11.979 -14.583,20.313c-0,1.825 0.783,3.908 2.345,4.687c0.259,0.263 0.78,0.263 1.042,0.263c2.863,-0 4.425,-8.075 12.238,-8.075c5.208,-0 7.033,7.033 18.75,7.033c5.47,0 15.625,-0.521 17.708,-20.575" style="fill-rule:nonzero;"/></g><g><path d="M947.705,268.546l0,-27.863c0,-1.3 -0.258,-2.341 -1.562,-2.341c-1.042,-0 -1.821,0.258 -2.604,1.3l-7.813,15.104c-0.521,0.521 -1.3,1.304 -1.3,3.125l0,10.675l-16.929,-0c10.679,-8.85 27.346,-38.279 27.604,-39.842c0,-0.258 0.263,-0.521 0.263,-0.779c-0,-1.042 -1.042,-1.825 -1.825,-1.825c-1.3,0 -6.771,0.521 -9.113,0.521c-2.346,-0 -3.908,-0.521 -4.95,-0.521c-1.3,0 -3.125,0.521 -3.125,2.604c0,16.667 -13.542,35.679 -16.925,40.363c-0.521,0.52 -1.042,1.304 -1.042,2.083c0,1.304 1.042,2.604 2.605,2.604l23.437,0l0,8.075c0,3.646 -2.083,4.688 -4.167,4.688c-2.345,-0 -3.387,1.041 -3.387,2.341c-0,1.305 0.521,2.867 2.867,2.867l22.395,0c1.3,0 2.605,-1.042 2.605,-2.867c-0,-1.82 -1.563,-2.604 -2.867,-2.604c-1.3,0 -4.167,-0.779 -4.167,-4.946l0,-7.554l9.638,0c1.3,0 2.083,-1.042 2.083,-2.604c0,-1.563 -0.521,-2.604 -2.083,-2.604l-9.638,-0" style="fill-rule:nonzero;"/></g><g><path d="M1185.71,256.308c-0,0 -0.259,1.042 -0.259,1.825c0,1.042 1.042,2.084 2.084,2.084c0.779,-0 1.3,-0.784 1.562,-1.042c0.258,-0.783 3.383,-11.458 4.946,-14.062c0.521,-1.042 1.042,-1.305 1.304,-1.305c0.521,0 0.779,1.042 0.779,1.825l0,37.238c0,3.125 -2.604,4.946 -5.208,4.946c-1.042,-0 -2.342,0.52 -2.342,2.083c0,1.562 1.3,2.083 3.384,2.083l21.875,0c2.083,0 2.083,-2.083 2.083,-2.083c-0,-0 -0,-2.083 -2.083,-2.083c-1.821,-0 -4.167,-2.342 -4.167,-4.688l-0,-54.162c-0,-2.084 -0.779,-3.125 -2.604,-3.125c-1.821,-0 -3.384,0.521 -4.946,0.521c-2.604,-0 -3.125,-0 -5.208,-0.521c-1.042,-0 -2.346,1.562 -3.125,2.604l-8.075,27.862" style="fill-rule:nonzero;"/></g><g><path d="M1493.23,271.15c0,-1.821 -0.779,-2.083 -1.562,-2.083c-1.042,-0 -1.563,0.783 -1.821,1.562c-1.304,3.646 -4.167,8.334 -8.075,8.334c-0.521,-0 -1.042,-0 -1.563,-0.259l-3.904,-1.304c-2.604,-1.042 -8.854,-3.125 -14.062,-3.125c-1.825,0 -3.388,0.263 -4.95,0.783c2.866,-4.95 16.408,-11.458 19.27,-12.237c9.375,-1.304 17.188,-6.771 17.188,-16.929c-0,-6.25 -2.604,-10.417 -5.988,-13.542c-6.77,-5.467 -16.666,-6.25 -19.533,-6.25c-9.375,0 -16.925,0.521 -23.696,8.333c-1.825,2.084 -2.604,4.167 -2.604,6.25c0,1.825 0.779,3.909 1.563,6.25c1.562,3.125 4.945,5.471 8.591,5.471c6.513,0 7.292,-6.25 7.292,-9.116c-0,-5.988 -6.508,-6.509 -6.508,-9.113c-0,-1.825 2.604,-4.95 10.416,-4.95c12.238,0 16.404,10.158 16.404,13.283c0,4.688 -1.562,9.113 -4.166,12.759c-4.688,5.991 -13.279,8.075 -19.792,12.237c-7.292,4.429 -12.237,11.979 -14.583,20.313c-0,1.825 0.783,3.908 2.346,4.687c0.258,0.263 0.779,0.263 1.041,0.263c2.863,-0 4.425,-8.075 12.238,-8.075c5.208,-0 7.033,7.033 18.75,7.033c5.471,0 15.625,-0.521 17.708,-20.575" style="fill-rule:nonzero;"/></g><g><path d="M1748.2,268.546l0,-27.863c0,-1.3 -0.262,-2.341 -1.562,-2.341c-1.042,-0 -1.825,0.258 -2.605,1.3l-7.812,15.104c-0.521,0.521 -1.304,1.304 -1.304,3.125l-0,10.675l-16.925,-0c10.675,-8.85 27.341,-38.279 27.604,-39.842c-0,-0.258 0.258,-0.521 0.258,-0.779c0,-1.042 -1.041,-1.825 -1.821,-1.825c-1.304,0 -6.77,0.521 -9.116,0.521c-2.342,-0 -3.904,-0.521 -4.946,-0.521c-1.304,0 -3.125,0.521 -3.125,2.604c-0,16.667 -13.542,35.679 -16.929,40.363c-0.521,0.52 -1.042,1.304 -1.042,2.083c0,1.304 1.042,2.604 2.604,2.604l23.438,0l-0,8.075c-0,3.646 -2.084,4.688 -4.167,4.688c-2.342,-0 -3.383,1.041 -3.383,2.341c-0,1.305 0.521,2.867 2.862,2.867l22.396,0c1.304,0 2.604,-1.042 2.604,-2.867c0,-1.82 -1.562,-2.604 -2.862,-2.604c-1.304,0 -4.167,-0.779 -4.167,-4.946l0,-7.554l9.633,0c1.305,0 2.084,-1.042 2.084,-2.604c-0,-1.563 -0.521,-2.604 -2.084,-2.604l-9.633,-0" style="fill-rule:nonzero;"/></g><g><path d="M1986.31,256.308c-0,0 -0.263,1.042 -0.263,1.825c0,1.042 1.042,2.084 2.083,2.084c0.784,-0 1.305,-0.784 1.563,-1.042c0.262,-0.783 3.387,-11.458 4.95,-14.062c0.521,-1.042 1.042,-1.305 1.3,-1.305c0.521,0 0.783,1.042 0.783,1.825l0,37.238c0,3.125 -2.604,4.946 -5.208,4.946c-1.042,-0 -2.346,0.52 -2.346,2.083c0,1.562 1.304,2.083 3.388,2.083l21.875,0c2.083,0 2.083,-2.083 2.083,-2.083c-0,-0 -0,-2.083 -2.083,-2.083c-1.825,-0 -4.167,-2.342 -4.167,-4.688l-0,-54.162c-0,-2.084 -0.783,-3.125 -2.604,-3.125c-1.825,-0 -3.388,0.521 -4.95,0.521c-2.604,-0 -3.125,-0 -5.209,-0.521c-1.041,-0 -2.341,1.562 -3.125,2.604l-8.07,27.862" style="fill-rule:nonzero;"/></g><g><path d="M2293.97,245.996c-0,-1.821 -0.779,-2.083 -1.563,-2.083c-1.041,-0 -1.562,0.783 -1.821,1.562c-1.304,3.646 -4.166,8.333 -8.075,8.333c-0.52,0 -1.041,0 -1.562,-0.258l-3.904,-1.304c-2.604,-1.042 -8.854,-3.125 -14.063,-3.125c-1.825,-0 -3.387,0.262 -4.95,0.783c2.867,-4.95 16.409,-11.458 19.271,-12.241c9.375,-1.3 17.188,-6.771 17.188,-16.925c-0,-6.25 -2.605,-10.417 -5.988,-13.542c-6.771,-5.471 -16.667,-6.25 -19.533,-6.25c-9.375,-0 -16.925,0.521 -23.696,8.333c-1.825,2.084 -2.604,4.167 -2.604,6.25c-0,1.821 0.779,3.904 1.562,6.25c1.563,3.125 4.946,5.467 8.592,5.467c6.512,-0 7.292,-6.25 7.292,-9.113c-0,-5.991 -6.509,-6.512 -6.509,-9.116c0,-1.821 2.604,-4.946 10.417,-4.946c12.237,-0 16.404,10.154 16.404,13.279c0,4.688 -1.562,9.117 -4.167,12.763c-4.687,5.987 -13.279,8.07 -19.791,12.237c-7.292,4.429 -12.238,11.979 -14.584,20.313c0,1.825 0.784,3.908 2.346,4.687c0.259,0.258 0.779,0.258 1.042,0.258c2.862,0 4.425,-8.07 12.237,-8.07c5.209,-0 7.034,7.033 18.75,7.033c5.471,-0 15.625,-0.521 17.709,-20.575" style="fill-rule:nonzero;"/></g><g><path d="M2548.93,220.608l0,-27.862c0,-1.304 -0.262,-2.346 -1.562,-2.346c-1.042,0 -1.825,0.263 -2.604,1.304l-7.813,15.104c-0.521,0.521 -1.304,1.3 -1.304,3.125l-0,10.675l-16.925,0c10.675,-8.854 27.342,-38.279 27.604,-39.841c0,-0.263 0.258,-0.521 0.258,-0.784c0,-1.041 -1.041,-1.82 -1.82,-1.82c-1.305,-0 -6.771,0.52 -9.117,0.52c-2.342,0 -3.904,-0.52 -4.946,-0.52c-1.304,-0 -3.125,0.52 -3.125,2.604c0,16.666 -13.542,35.675 -16.929,40.362c-0.521,0.521 -1.042,1.304 -1.042,2.084c0,1.304 1.042,2.604 2.604,2.604l23.438,-0l-0,8.075c-0,3.645 -2.083,4.687 -4.167,4.687c-2.341,0 -3.383,1.042 -3.383,2.342c-0,1.304 0.521,2.866 2.862,2.866l22.396,0c1.304,0 2.604,-1.041 2.604,-2.866c0,-1.821 -1.562,-2.604 -2.862,-2.604c-1.304,-0 -4.167,-0.78 -4.167,-4.946l0,-7.554l9.634,-0c1.304,-0 2.083,-1.042 2.083,-2.605c-0,-1.562 -0.521,-2.604 -2.083,-2.604l-9.634,0" style="fill-rule:nonzero;"/></g><g><path d="M2786.93,256.308c0,0 -0.258,1.042 -0.258,1.825c0,1.042 1.042,2.084 2.083,2.084c0.78,-0 1.3,-0.784 1.563,-1.042c0.258,-0.783 3.383,-11.458 4.946,-14.062c0.521,-1.042 1.041,-1.305 1.304,-1.305c0.521,0 0.779,1.042 0.779,1.825l0,37.238c0,3.125 -2.604,4.946 -5.208,4.946c-1.042,-0 -2.342,0.52 -2.342,2.083c0,1.562 1.3,2.083 3.383,2.083l21.875,0c2.084,0 2.084,-2.083 2.084,-2.083c-0,-0 -0,-2.083 -2.084,-2.083c-1.82,-0 -4.166,-2.342 -4.166,-4.688l-0,-54.162c-0,-2.084 -0.779,-3.125 -2.604,-3.125c-1.821,-0 -3.384,0.521 -4.946,0.521c-2.604,-0 -3.125,-0 -5.209,-0.521c-1.041,-0 -2.345,1.562 -3.125,2.604l-8.075,27.862" style="fill-rule:nonzero;"/></g><g><path d="M3094.38,271.15c0,-1.821 -0.783,-2.083 -1.562,-2.083c-1.042,-0 -1.563,0.783 -1.825,1.562c-1.3,3.646 -4.167,8.334 -8.071,8.334c-0.521,-0 -1.042,-0 -1.562,-0.259l-3.909,-1.304c-2.604,-1.042 -8.854,-3.125 -14.062,-3.125c-1.821,0 -3.384,0.263 -4.946,0.783c2.862,-4.95 16.404,-11.458 19.271,-12.237c9.375,-1.304 17.187,-6.771 17.187,-16.929c0,-6.25 -2.604,-10.417 -5.991,-13.542c-6.771,-5.467 -16.667,-6.25 -19.53,-6.25c-9.375,0 -16.929,0.521 -23.7,8.333c-1.82,2.084 -2.604,4.167 -2.604,6.25c0,1.825 0.784,3.909 1.563,6.25c1.562,3.125 4.95,5.471 8.596,5.471c6.508,0 7.291,-6.25 7.291,-9.116c0,-5.988 -6.512,-6.509 -6.512,-9.113c-0,-1.825 2.604,-4.95 10.416,-4.95c12.242,0 16.409,10.158 16.409,13.283c-0,4.688 -1.563,9.113 -4.167,12.759c-4.687,5.991 -13.283,8.075 -19.792,12.237c-7.291,4.429 -12.241,11.979 -14.583,20.313c0,1.825 0.779,3.908 2.342,4.687c0.262,0.263 0.783,0.263 1.041,0.263c2.867,-0 4.43,-8.075 12.242,-8.075c5.208,-0 7.029,7.033 18.75,7.033c5.467,0 15.625,-0.521 17.708,-20.575" style="fill-rule:nonzero;"/></g><g><path d="M3349.35,268.492l-0,-27.867c-0,-1.3 -0.263,-2.342 -1.563,-2.342c-1.041,0 -1.825,0.259 -2.604,1.3l-7.812,15.105c-0.521,0.52 -1.304,1.304 -1.304,3.124l-0,10.68l-16.925,-0c10.675,-8.854 27.341,-38.284 27.604,-39.846c-0,-0.258 0.258,-0.521 0.258,-0.779c0,-1.042 -1.042,-1.825 -1.821,-1.825c-1.304,-0 -6.771,0.52 -9.116,0.52c-2.342,0 -3.905,-0.52 -4.946,-0.52c-1.304,-0 -3.125,0.52 -3.125,2.604c-0,16.666 -13.542,35.679 -16.929,40.367c-0.521,0.52 -1.042,1.299 -1.042,2.083c-0,1.3 1.042,2.604 2.604,2.604l23.438,0l-0,8.071c-0,3.646 -2.084,4.687 -4.167,4.687c-2.342,0 -3.383,1.042 -3.383,2.346c-0,1.3 0.52,2.863 2.862,2.863l22.396,-0c1.304,-0 2.604,-1.042 2.604,-2.863c0,-1.825 -1.562,-2.604 -2.862,-2.604c-1.305,-0 -4.167,-0.783 -4.167,-4.95l-0,-7.55l9.633,-0c1.304,-0 2.084,-1.042 2.084,-2.604c-0,-1.563 -0.521,-2.604 -2.084,-2.604l-9.633,-0" style="fill-rule:nonzero;"/></g><g><path d="M3694.82,223.758c-0,0 -0.263,1.042 -0.263,1.821c0,1.042 1.042,2.084 2.084,2.084c0.783,-0 1.304,-0.78 1.562,-1.042c0.263,-0.779 3.388,-11.458 4.95,-14.063c0.521,-1.041 1.042,-1.3 1.3,-1.3c0.521,0 0.783,1.042 0.783,1.821l0,37.242c0,3.125 -2.604,4.946 -5.208,4.946c-1.042,-0 -2.346,0.521 -2.346,2.083c0,1.563 1.304,2.083 3.388,2.083l21.875,0c2.083,0 2.083,-2.083 2.083,-2.083c0,0 0,-2.083 -2.083,-2.083c-1.825,-0 -4.167,-2.342 -4.167,-4.688l0,-54.167c0,-2.083 -0.783,-3.125 -2.604,-3.125c-1.825,0 -3.388,0.521 -4.95,0.521c-2.604,0 -3.125,0 -5.208,-0.52c-1.042,-0 -2.342,1.562 -3.125,2.604l-8.071,27.866" style="fill-rule:nonzero;"/></g><g><path d="M4002.44,205.496c-0,-1.825 -0.779,-2.083 -1.563,-2.083c-1.041,-0 -1.562,0.779 -1.821,1.562c-1.304,3.646 -4.166,8.333 -8.075,8.333c-0.52,0 -1.041,0 -1.562,-0.262l-3.904,-1.3c-2.604,-1.042 -8.854,-3.125 -14.063,-3.125c-1.825,-0 -3.387,0.258 -4.95,0.779c2.867,-4.946 16.409,-11.458 19.271,-12.237c9.375,-1.305 17.188,-6.771 17.188,-16.93c-0,-6.25 -2.605,-10.416 -5.988,-13.541c-6.771,-5.467 -16.667,-6.25 -19.533,-6.25c-9.375,-0 -16.925,0.52 -23.696,8.333c-1.825,2.083 -2.604,4.167 -2.604,6.25c-0,1.825 0.779,3.908 1.562,6.25c1.563,3.125 4.946,5.471 8.592,5.471c6.512,-0 7.292,-6.25 7.292,-9.117c-0,-5.987 -6.509,-6.508 -6.509,-9.112c0,-1.825 2.604,-4.95 10.417,-4.95c12.237,-0 16.404,10.158 16.404,13.283c0,4.688 -1.562,9.112 -4.167,12.758c-4.687,5.992 -13.279,8.075 -19.791,12.242c-7.292,4.425 -12.238,11.979 -14.584,20.312c0,1.821 0.784,3.905 2.346,4.688c0.259,0.258 0.779,0.258 1.042,0.258c2.862,0 4.425,-8.071 12.237,-8.071c5.209,0 7.034,7.03 18.75,7.03c5.471,-0 15.625,-0.521 17.709,-20.571" style="fill-rule:nonzero;"/></g><g><path d="M4257.4,171.617l0,-27.867c0,-1.3 -0.262,-2.342 -1.562,-2.342c-1.042,0 -1.825,0.259 -2.605,1.3l-7.812,15.105c-0.521,0.52 -1.304,1.304 -1.304,3.125l-0,10.679l-16.925,-0c10.675,-8.854 27.341,-38.284 27.604,-39.846c-0,-0.258 0.258,-0.521 0.258,-0.779c0,-1.042 -1.041,-1.825 -1.821,-1.825c-1.304,-0 -6.77,0.52 -9.116,0.52c-2.342,0 -3.904,-0.52 -4.946,-0.52c-1.304,-0 -3.125,0.52 -3.125,2.604c-0,16.666 -13.542,35.679 -16.929,40.367c-0.521,0.52 -1.042,1.299 -1.042,2.083c0,1.3 1.042,2.604 2.604,2.604l23.438,0l-0,8.071c-0,3.646 -2.084,4.687 -4.167,4.687c-2.342,0 -3.383,1.042 -3.383,2.346c-0,1.3 0.521,2.863 2.862,2.863l22.396,-0c1.304,-0 2.604,-1.042 2.604,-2.863c0,-1.825 -1.562,-2.604 -2.862,-2.604c-1.304,0 -4.167,-0.783 -4.167,-4.95l0,-7.55l9.633,0c1.305,0 2.084,-1.042 2.084,-2.604c-0,-1.563 -0.521,-2.604 -2.084,-2.604l-9.633,-0" style="fill-rule:nonzero;"/></g><g><path d="M4495.4,126.883c0,0 -0.262,1.042 -0.262,1.821c-0,1.042 1.041,2.084 2.083,2.084c0.783,-0 1.304,-0.78 1.562,-1.042c0.263,-0.779 3.388,-11.458 4.95,-14.063c0.521,-1.041 1.042,-1.3 1.3,-1.3c0.521,0 0.784,1.042 0.784,1.821l-0,37.242c-0,3.125 -2.604,4.946 -5.209,4.946c-1.041,-0 -2.345,0.521 -2.345,2.083c-0,1.563 1.304,2.083 3.387,2.083l21.875,0c2.083,0 2.083,-2.083 2.083,-2.083c0,0 0,-2.083 -2.083,-2.083c-1.825,-0 -4.167,-2.342 -4.167,-4.688l0,-54.166c0,-2.084 -0.783,-3.125 -2.604,-3.125c-1.825,-0 -3.387,0.52 -4.95,0.52c-2.604,0 -3.125,0 -5.208,-0.52c-1.042,-0 -2.342,1.562 -3.125,2.604l-8.071,27.866" style="fill-rule:nonzero;"/></g><g><path d="M4802.94,108.621c-0,-1.825 -0.784,-2.083 -1.563,-2.083c-1.041,-0 -1.562,0.779 -1.825,1.562c-1.3,3.646 -4.166,8.333 -8.071,8.333c-0.52,0 -1.041,0 -1.562,-0.262l-3.908,-1.3c-2.605,-1.042 -8.855,-3.125 -14.063,-3.125c-1.821,-0 -3.383,0.258 -4.946,0.779c2.863,-4.946 16.404,-11.458 19.271,-12.237c9.375,-1.305 17.188,-6.771 17.188,-16.93c-0,-6.25 -2.605,-10.416 -5.992,-13.541c-6.771,-5.467 -16.667,-6.25 -19.529,-6.25c-9.375,-0 -16.929,0.52 -23.7,8.333c-1.821,2.083 -2.604,4.167 -2.604,6.25c-0,1.825 0.783,3.908 1.562,6.25c1.563,3.125 4.95,5.471 8.596,5.471c6.508,-0 7.292,-6.25 7.292,-9.117c-0,-5.987 -6.513,-6.508 -6.513,-9.112c0,-1.825 2.604,-4.95 10.417,-4.95c12.241,-0 16.408,10.158 16.408,13.283c0,4.688 -1.562,9.112 -4.167,12.758c-4.687,5.992 -13.283,8.075 -19.791,12.242c-7.292,4.425 -12.242,11.979 -14.584,20.313c0,1.82 0.78,3.904 2.342,4.687c0.263,0.258 0.783,0.258 1.042,0.258c2.866,0 4.429,-8.071 12.241,-8.071c5.209,0 7.03,7.03 18.75,7.03c5.467,-0 15.625,-0.521 17.709,-20.571" style="fill-rule:nonzero;"/></g><g><path d="M5057.9,42.45l0,-27.867c0,-1.3 -0.258,-2.341 -1.562,-2.341c-1.042,-0 -1.821,0.258 -2.605,1.3l-7.812,15.104c-0.521,0.521 -1.3,1.304 -1.3,3.125l-0,10.679l-16.929,0c10.679,-8.854 27.346,-38.283 27.604,-39.846c-0,-0.258 0.262,-0.521 0.262,-0.779c0,-1.042 -1.041,-1.825 -1.825,-1.825c-1.3,0 -6.77,0.521 -9.112,0.521c-2.346,-0 -3.908,-0.521 -4.95,-0.521c-1.3,0 -3.125,0.521 -3.125,2.604c-0,16.667 -13.542,35.679 -16.925,40.367c-0.521,0.521 -1.042,1.3 -1.042,2.083c0,1.3 1.042,2.604 2.604,2.604l23.438,0l-0,8.071c-0,3.646 -2.083,4.688 -4.167,4.688c-2.346,-0 -3.387,1.041 -3.387,2.346c-0,1.3 0.521,2.862 2.866,2.862l22.396,0c1.3,0 2.604,-1.042 2.604,-2.862c0,-1.825 -1.562,-2.605 -2.866,-2.605c-1.3,0 -4.167,-0.783 -4.167,-4.95l0,-7.55l9.638,0c1.3,0 2.083,-1.041 2.083,-2.604c-0,-1.562 -0.521,-2.604 -2.083,-2.604l-9.638,0" style="fill-rule:nonzero;"/></g><g><path d="M5324.82,42.45l-0,-27.867c-0,-1.3 -0.263,-2.341 -1.563,-2.341c-1.041,-0 -1.825,0.258 -2.604,1.3l-7.812,15.104c-0.521,0.521 -1.305,1.304 -1.305,3.125l0,10.679l-16.925,0c10.675,-8.854 27.342,-38.283 27.605,-39.846c-0,-0.258 0.258,-0.521 0.258,-0.779c-0,-1.042 -1.042,-1.825 -1.821,-1.825c-1.304,0 -6.771,0.521 -9.117,0.521c-2.341,-0 -3.904,-0.521 -4.945,-0.521c-1.305,0 -3.125,0.521 -3.125,2.604c-0,16.667 -13.542,35.679 -16.93,40.367c-0.52,0.521 -1.041,1.3 -1.041,2.083c-0,1.3 1.041,2.604 2.604,2.604l23.437,0l0,8.071c0,3.646 -2.083,4.688 -4.166,4.688c-2.342,-0 -3.384,1.041 -3.384,2.346c0,1.3 0.521,2.862 2.863,2.862l22.396,0c1.304,0 2.604,-1.042 2.604,-2.862c-0,-1.825 -1.563,-2.605 -2.863,-2.605c-1.304,0 -4.166,-0.783 -4.166,-4.95l-0,-7.55l9.633,0c1.304,0 2.083,-1.041 2.083,-2.604c0,-1.562 -0.52,-2.604 -2.083,-2.604l-9.633,0" style="fill-rule:nonzero;"/></g><g><path d="M5603.65,108.621c0,-1.825 -0.783,-2.083 -1.562,-2.083c-1.042,-0 -1.563,0.779 -1.825,1.562c-1.3,3.646 -4.167,8.333 -8.071,8.333c-0.521,0 -1.042,0 -1.563,-0.262l-3.908,-1.3c-2.604,-1.042 -8.854,-3.125 -14.063,-3.125c-1.82,-0 -3.383,0.258 -4.945,0.779c2.862,-4.946 16.404,-11.458 19.27,-12.237c9.375,-1.305 17.188,-6.771 17.188,-16.93c-0,-6.25 -2.604,-10.416 -5.992,-13.541c-6.771,-5.467 -16.666,-6.25 -19.529,-6.25c-9.375,-0 -16.929,0.52 -23.7,8.333c-1.821,2.083 -2.604,4.167 -2.604,6.25c-0,1.825 0.783,3.908 1.562,6.25c1.563,3.125 4.95,5.471 8.596,5.471c6.509,-0 7.292,-6.25 7.292,-9.117c-0,-5.987 -6.513,-6.508 -6.513,-9.112c0,-1.825 2.605,-4.95 10.417,-4.95c12.242,-0 16.408,10.158 16.408,13.283c0,4.688 -1.562,9.112 -4.166,12.758c-4.688,5.992 -13.284,8.075 -19.792,12.242c-7.292,4.425 -12.242,11.979 -14.583,20.313c-0,1.82 0.779,3.904 2.341,4.687c0.263,0.258 0.784,0.258 1.042,0.258c2.867,0 4.429,-8.071 12.242,-8.071c5.208,0 7.029,7.03 18.75,7.03c5.466,-0 15.625,-0.521 17.708,-20.571" style="fill-rule:nonzero;"/></g><g><path d="M5829.86,126.883c0,0 -0.262,1.042 -0.262,1.821c-0,1.042 1.042,2.084 2.083,2.084c0.784,-0 1.304,-0.78 1.563,-1.042c0.262,-0.779 3.387,-11.458 4.95,-14.063c0.521,-1.041 1.041,-1.3 1.3,-1.3c0.521,0 0.783,1.042 0.783,1.821l0,37.242c0,3.125 -2.604,4.946 -5.208,4.946c-1.042,-0 -2.346,0.521 -2.346,2.083c-0,1.563 1.304,2.083 3.387,2.083l21.875,0c2.084,0 2.084,-2.083 2.084,-2.083c-0,0 -0,-2.083 -2.084,-2.083c-1.825,-0 -4.166,-2.342 -4.166,-4.688l-0,-54.166c-0,-2.084 -0.784,-3.125 -2.604,-3.125c-1.825,-0 -3.388,0.52 -4.95,0.52c-2.605,0 -3.125,0 -5.209,-0.52c-1.041,-0 -2.341,1.562 -3.125,2.604l-8.071,27.866" style="fill-rule:nonzero;"/></g><g><path d="M6125.57,171.617l-0,-27.867c-0,-1.3 -0.263,-2.342 -1.563,-2.342c-1.041,0 -1.825,0.259 -2.604,1.3l-7.812,15.105c-0.521,0.52 -1.305,1.304 -1.305,3.125l0,10.679l-16.925,-0c10.675,-8.854 27.342,-38.284 27.605,-39.846c-0,-0.258 0.258,-0.521 0.258,-0.779c-0,-1.042 -1.042,-1.825 -1.821,-1.825c-1.304,-0 -6.771,0.52 -9.117,0.52c-2.341,0 -3.904,-0.52 -4.945,-0.52c-1.305,-0 -3.125,0.52 -3.125,2.604c-0,16.666 -13.542,35.679 -16.93,40.367c-0.52,0.52 -1.041,1.299 -1.041,2.083c-0,1.3 1.041,2.604 2.604,2.604l23.437,0l0,8.071c0,3.646 -2.083,4.687 -4.166,4.687c-2.342,0 -3.384,1.042 -3.384,2.346c0,1.3 0.521,2.863 2.863,2.863l22.396,-0c1.304,-0 2.604,-1.042 2.604,-2.863c-0,-1.825 -1.563,-2.604 -2.863,-2.604c-1.304,0 -4.166,-0.783 -4.166,-4.95l-0,-7.55l9.633,0c1.304,0 2.083,-1.042 2.083,-2.604c0,-1.563 -0.52,-2.604 -2.083,-2.604l-9.633,-0" style="fill-rule:nonzero;"/></g><g><path d="M6404.4,205.496c0,-1.825 -0.783,-2.083 -1.562,-2.083c-1.042,-0 -1.563,0.779 -1.825,1.562c-1.3,3.646 -4.167,8.333 -8.071,8.333c-0.521,0 -1.042,0 -1.563,-0.262l-3.908,-1.3c-2.604,-1.042 -8.854,-3.125 -14.063,-3.125c-1.82,-0 -3.383,0.258 -4.945,0.779c2.862,-4.946 16.404,-11.458 19.27,-12.237c9.375,-1.305 17.188,-6.771 17.188,-16.93c-0,-6.25 -2.604,-10.416 -5.992,-13.541c-6.771,-5.467 -16.666,-6.25 -19.529,-6.25c-9.375,-0 -16.929,0.52 -23.7,8.333c-1.821,2.083 -2.604,4.167 -2.604,6.25c-0,1.825 0.783,3.908 1.562,6.25c1.563,3.125 4.95,5.471 8.596,5.471c6.509,-0 7.292,-6.25 7.292,-9.117c-0,-5.987 -6.513,-6.508 -6.513,-9.112c0,-1.825 2.605,-4.95 10.417,-4.95c12.242,-0 16.408,10.158 16.408,13.283c0,4.688 -1.562,9.112 -4.166,12.758c-4.688,5.992 -13.284,8.075 -19.792,12.242c-7.292,4.425 -12.242,11.979 -14.583,20.312c-0,1.821 0.779,3.905 2.341,4.688c0.263,0.258 0.784,0.258 1.042,0.258c2.867,0 4.429,-8.071 12.242,-8.071c5.208,0 7.029,7.03 18.75,7.03c5.466,-0 15.625,-0.521 17.708,-20.571" style="fill-rule:nonzero;"/></g><g><path d="M6630.57,223.758c-0,0 -0.263,1.042 -0.263,1.821c0,1.042 1.042,2.084 2.084,2.084c0.783,-0 1.304,-0.78 1.562,-1.042c0.263,-0.779 3.388,-11.458 4.95,-14.063c0.521,-1.041 1.042,-1.3 1.3,-1.3c0.521,0 0.783,1.042 0.783,1.821l0,37.242c0,3.125 -2.604,4.946 -5.208,4.946c-1.042,-0 -2.346,0.521 -2.346,2.083c0,1.563 1.304,2.083 3.388,2.083l21.875,0c2.083,0 2.083,-2.083 2.083,-2.083c0,0 0,-2.083 -2.083,-2.083c-1.825,-0 -4.167,-2.342 -4.167,-4.688l0,-54.167c0,-2.083 -0.783,-3.125 -2.604,-3.125c-1.825,0 -3.388,0.521 -4.95,0.521c-2.604,0 -3.125,0 -5.208,-0.52c-1.042,-0 -2.342,1.562 -3.125,2.604l-8.071,27.866" style="fill-rule:nonzero;"/></g><g><path d="M386.889,808.913c23.175,-0 51.562,-21.355 51.562,-43.492c0,-13.279 -10.417,-21.613 -25.262,-21.613c-28.646,0 -51.563,21.092 -51.563,43.488c0,13.542 11.2,21.617 25.263,21.617" style="fill-rule:nonzero;"/></g><g><path d="M653.797,776.621c23.179,-0 51.562,-21.354 51.562,-43.492c0,-13.279 -10.416,-21.612 -25.258,-21.612c-28.646,-0 -51.562,21.091 -51.562,43.487c-0,13.542 11.195,21.617 25.258,21.617" style="fill-rule:nonzero;"/></g><g><path d="M920.714,744.329c23.179,0 51.562,-21.354 51.562,-43.491c0,-13.28 -10.417,-21.613 -25.258,-21.613c-28.646,0 -51.563,21.092 -51.563,43.488c0,13.541 11.196,21.616 25.259,21.616" style="fill-rule:nonzero;"/></g><g><path d="M1125.04,691.204c-1.563,5.209 -13.805,10.417 -19.792,10.417c-1.563,-0 -2.867,-0.521 -3.125,-1.304c-0.521,-1.042 -0.783,-6.771 -0.783,-13.021c-0,-8.071 0.262,-17.188 0.783,-19.271c0.521,-4.425 12.5,-9.896 19.008,-9.896c1.825,0 3.388,0.521 3.909,1.563c0.52,1.304 1.041,7.812 1.041,14.845c0,7.03 -0.521,14.321 -1.041,16.667m17.966,-42.45c1.825,-0.779 3.125,-2.862 3.125,-4.425l0,-18.492c0,-1.3 -0.779,-2.083 -1.821,-2.083c-0.52,0 -0.783,0 -1.304,0.263c0,-0 -5.208,2.083 -6.508,2.341c-1.825,0 -3.646,-1.3 -3.646,-3.383l0,-31.771c0,-1.562 -1.562,-2.867 -3.646,-2.867c-2.604,0 -4.166,1.305 -4.166,2.867l-0,33.854c-0.263,2.604 -1.042,5.988 -3.388,7.55c-3.125,1.825 -11.979,5.471 -16.404,6.513c-2.346,-0 -3.125,-3.125 -3.125,-5.209l-0,-31.25c-0,-1.562 -1.825,-2.866 -3.646,-2.866c-2.604,-0 -4.167,1.304 -4.167,2.866l0,35.155c0,3.645 -1.562,6.25 -3.125,7.033c-1.562,0.779 -6.77,2.862 -6.77,2.862c-1.825,0.521 -3.125,2.605 -3.125,4.167l-0,18.492c-0,1.562 0.779,2.341 2.083,2.341c1.042,0 5.987,-2.341 6.771,-2.862c0.258,-0 0.521,-0.263 0.779,-0.263c1.825,0 3.387,2.605 3.387,4.688l0,25.783c0,2.863 -1.304,5.209 -2.866,5.988c-1.563,0.521 -7.029,2.866 -7.029,2.866c-1.825,0.521 -3.125,2.605 -3.125,4.167l-0,18.488c-0,1.562 0.779,2.345 2.083,2.345c0.258,0 0.779,-0.262 1.042,-0.262c-0,-0 3.645,-1.563 5.987,-2.342c0.263,-0.262 0.521,-0.262 0.783,-0.262c1.821,-0 3.125,2.866 3.125,4.166l0,32.034c0,1.562 1.563,2.862 3.384,2.862c2.604,0 4.429,-1.3 4.429,-2.862l-0,-36.2c-0,-3.384 1.3,-5.209 2.604,-5.729l15.883,-6.509c0.263,0 0.784,-0.262 1.042,-0.262c2.083,-0 3.388,3.125 3.388,4.687l-0,32.554c-0,1.563 1.562,2.863 3.383,2.863c2.867,-0 4.429,-1.3 4.429,-2.863l0,-36.979c0,-2.083 1.042,-5.208 2.863,-5.991c1.825,-0.78 7.291,-2.863 7.291,-2.863c1.825,-0.783 3.125,-2.867 3.125,-4.429l0,-18.488c0,-1.304 -0.779,-2.083 -1.821,-2.083c-0.52,0 -0.783,0 -1.304,0.258l-6.771,2.605c-1.562,-0 -3.383,-1.563 -3.383,-4.688l0,-24.217c0,-1.825 1.3,-6.77 3.383,-7.554l6.771,-2.604" style="fill-rule:nonzero;"/></g><g><path d="M1187.5,712.038c23.179,-0 51.562,-21.355 51.562,-43.492c0,-13.279 -10.416,-21.613 -25.258,-21.613c-28.646,0 -51.562,21.092 -51.562,43.488c-0,13.542 11.195,21.617 25.258,21.617" style="fill-rule:nonzero;"/></g><g><path d="M1391.82,658.913c-1.563,5.208 -13.804,10.416 -19.792,10.416c-1.562,0 -2.866,-0.521 -3.125,-1.304c-0.521,-1.042 -0.783,-6.771 -0.783,-13.021c-0,-8.071 0.262,-17.187 0.783,-19.271c0.521,-4.425 12.5,-9.895 19.009,-9.895c1.825,-0 3.387,0.52 3.908,1.562c0.521,1.304 1.042,7.813 1.042,14.846c-0,7.029 -0.521,14.321 -1.042,16.666m17.967,-42.45c1.825,-0.779 3.125,-2.862 3.125,-4.425l-0,-18.491c-0,-1.3 -0.78,-2.084 -1.821,-2.084c-0.521,0 -0.784,0 -1.304,0.263c-0,-0 -5.209,2.083 -6.509,2.342c-1.825,-0 -3.646,-1.3 -3.646,-3.384l0,-31.771c0,-1.562 -1.562,-2.866 -3.645,-2.866c-2.605,-0 -4.167,1.304 -4.167,2.866l-0,33.855c-0.263,2.604 -1.042,5.987 -3.388,7.55c-3.125,1.825 -11.979,5.47 -16.404,6.512c-2.346,0 -3.125,-3.125 -3.125,-5.208l0,-31.25c0,-1.563 -1.825,-2.867 -3.646,-2.867c-2.604,0 -4.166,1.304 -4.166,2.867l-0,35.154c-0,3.646 -1.563,6.25 -3.125,7.033c-1.563,0.779 -6.771,2.863 -6.771,2.863c-1.825,0.521 -3.125,2.604 -3.125,4.166l-0,18.492c-0,1.563 0.779,2.342 2.083,2.342c1.042,-0 5.988,-2.342 6.771,-2.863c0.258,0 0.521,-0.262 0.779,-0.262c1.825,-0 3.388,2.604 3.388,4.687l-0,25.784c-0,2.862 -1.304,5.208 -2.867,5.987c-1.562,0.521 -7.029,2.867 -7.029,2.867c-1.825,0.521 -3.125,2.604 -3.125,4.166l-0,18.488c-0,1.562 0.779,2.346 2.083,2.346c0.259,-0 0.779,-0.263 1.042,-0.263c-0,0 3.646,-1.562 5.987,-2.341c0.263,-0.263 0.521,-0.263 0.784,-0.263c1.821,0 3.125,2.867 3.125,4.167l-0,32.033c-0,1.563 1.562,2.863 3.383,2.863c2.604,-0 4.429,-1.3 4.429,-2.863l0,-36.2c0,-3.383 1.3,-5.208 2.604,-5.729l15.884,-6.508c0.262,-0 0.783,-0.263 1.041,-0.263c2.084,0 3.388,3.125 3.388,4.688l-0,32.554c-0,1.562 1.562,2.862 3.383,2.862c2.867,0 4.429,-1.3 4.429,-2.862l0,-36.979c0,-2.084 1.042,-5.209 2.863,-5.992c1.825,-0.779 7.292,-2.863 7.292,-2.863c1.825,-0.783 3.125,-2.866 3.125,-4.429l-0,-18.487c-0,-1.304 -0.78,-2.084 -1.821,-2.084c-0.521,0 -0.784,0 -1.304,0.259l-6.771,2.604c-1.563,-0 -3.384,-1.563 -3.384,-4.688l0,-24.216c0,-1.825 1.3,-6.771 3.384,-7.554l6.771,-2.605" style="fill-rule:nonzero;"/></g><g><path d="M1454.28,679.746c23.179,-0 51.563,-21.354 51.563,-43.492c-0,-13.279 -10.417,-21.612 -25.259,-21.612c-28.645,-0 -51.562,21.091 -51.562,43.487c-0,13.542 11.196,21.617 25.258,21.617" style="fill-rule:nonzero;"/></g><g><path d="M1721.2,615.163c23.175,-0 51.562,-21.355 51.562,-43.492c0,-13.279 -10.416,-21.613 -25.262,-21.613c-28.646,0 -51.563,21.092 -51.563,43.488c0,13.542 11.2,21.617 25.263,21.617" style="fill-rule:nonzero;"/></g><g><path d="M1988.11,582.871c23.175,-0 51.563,-21.354 51.563,-43.492c-0,-13.279 -10.417,-21.612 -25.263,-21.612c-28.645,-0 -51.562,21.091 -51.562,43.487c-0,13.542 11.2,21.617 25.262,21.617" style="fill-rule:nonzero;"/></g><g><path d="M2255.01,550.579c23.18,0 51.563,-21.354 51.563,-43.491c-0,-13.28 -10.417,-21.613 -25.258,-21.613c-28.646,0 -51.563,21.092 -51.563,43.488c0,13.541 11.196,21.616 25.258,21.616" style="fill-rule:nonzero;"/></g><g><path d="M2521.92,518.288c23.179,-0 51.562,-21.355 51.562,-43.492c0,-13.279 -10.416,-21.613 -25.258,-21.613c-28.646,0 -51.562,21.092 -51.562,43.488c-0,13.542 11.195,21.617 25.258,21.617" style="fill-rule:nonzero;"/></g><g><path d="M2726.26,465.162c-1.562,5.209 -13.8,10.417 -19.791,10.417c-1.563,0 -2.863,-0.521 -3.125,-1.304c-0.521,-1.042 -0.779,-6.771 -0.779,-13.021c-0,-8.071 0.258,-17.187 0.779,-19.271c0.521,-4.425 12.5,-9.896 19.012,-9.896c1.821,0 3.384,0.521 3.904,1.563c0.521,1.304 1.042,7.813 1.042,14.846c0,7.029 -0.521,14.321 -1.042,16.666m17.967,-42.45c1.825,-0.779 3.125,-2.862 3.125,-4.424l0,-18.492c0,-1.3 -0.779,-2.084 -1.821,-2.084c-0.521,0 -0.783,0 -1.304,0.263c0,0 -5.208,2.083 -6.508,2.342c-1.825,-0 -3.646,-1.3 -3.646,-3.384l-0,-31.77c-0,-1.563 -1.563,-2.867 -3.646,-2.867c-2.604,-0 -4.167,1.304 -4.167,2.867l0,33.854c-0.258,2.604 -1.041,5.987 -3.383,7.55c-3.125,1.825 -11.979,5.471 -16.408,6.512c-2.342,0 -3.125,-3.125 -3.125,-5.208l-0,-31.25c-0,-1.563 -1.821,-2.867 -3.646,-2.867c-2.604,0 -4.167,1.304 -4.167,2.867l0,35.154c0,3.646 -1.562,6.25 -3.125,7.033c-1.562,0.78 -6.771,2.863 -6.771,2.863c-1.82,0.521 -3.125,2.604 -3.125,4.167l0,18.491c0,1.563 0.784,2.342 2.084,2.342c1.041,-0 5.991,-2.342 6.771,-2.863c0.262,0 0.52,-0.262 0.783,-0.262c1.821,-0 3.383,2.604 3.383,4.687l0,25.784c0,2.862 -1.3,5.208 -2.862,5.987c-1.563,0.521 -7.034,2.867 -7.034,2.867c-1.82,0.521 -3.125,2.604 -3.125,4.167l0,18.487c0,1.563 0.784,2.346 2.084,2.346c0.262,-0 0.783,-0.263 1.041,-0.263c0,0 3.646,-1.562 5.992,-2.341c0.258,-0.263 0.521,-0.263 0.779,-0.263c1.825,0 3.125,2.867 3.125,4.167l0,32.033c0,1.563 1.563,2.863 3.388,2.863c2.604,-0 4.425,-1.3 4.425,-2.863l-0,-36.2c-0,-3.383 1.304,-5.208 2.604,-5.729l15.887,-6.508c0.259,-0 0.78,-0.263 1.042,-0.263c2.083,0 3.383,3.125 3.383,4.688l0,32.554c0,1.562 1.563,2.862 3.384,2.862c2.866,0 4.429,-1.3 4.429,-2.862l-0,-36.979c-0,-2.084 1.042,-5.209 2.862,-5.992c1.825,-0.779 7.292,-2.863 7.292,-2.863c1.825,-0.783 3.125,-2.866 3.125,-4.429l0,-18.487c0,-1.304 -0.779,-2.084 -1.821,-2.084c-0.521,0 -0.783,0 -1.304,0.259l-6.771,2.604c-1.562,-0 -3.383,-1.563 -3.383,-4.688l-0,-24.216c-0,-1.825 1.3,-6.771 3.383,-7.554l6.771,-2.605" style="fill-rule:nonzero;"/></g><g><path d="M2788.72,485.996c23.175,-0 51.562,-21.354 51.562,-43.492c0,-13.279 -10.416,-21.612 -25.262,-21.612c-28.646,-0 -51.563,21.091 -51.563,43.487c0,13.542 11.2,21.617 25.263,21.617" style="fill-rule:nonzero;"/></g><g><path d="M2992.98,432.871c-1.562,5.208 -13.8,10.417 -19.792,10.417c-1.562,-0 -2.862,-0.521 -3.125,-1.305c-0.52,-1.041 -0.779,-6.77 -0.779,-13.02c0,-8.071 0.259,-17.188 0.779,-19.271c0.521,-4.425 12.5,-9.896 19.013,-9.896c1.821,-0 3.383,0.521 3.904,1.562c0.521,1.305 1.042,7.813 1.042,14.846c-0,7.029 -0.521,14.321 -1.042,16.667m17.971,-42.45c1.821,-0.779 3.125,-2.863 3.125,-4.425l-0,-18.492c-0,-1.3 -0.783,-2.083 -1.825,-2.083c-0.521,-0 -0.779,-0 -1.3,0.262c-0,0 -5.208,2.084 -6.513,2.342c-1.82,0 -3.645,-1.3 -3.645,-3.383l-0,-31.771c-0,-1.563 -1.563,-2.867 -3.646,-2.867c-2.604,0 -4.167,1.304 -4.167,2.867l0,33.854c-0.258,2.604 -1.042,5.988 -3.383,7.55c-3.125,1.825 -11.979,5.471 -16.409,6.513c-2.341,-0 -3.125,-3.125 -3.125,-5.209l0,-31.25c0,-1.562 -1.82,-2.866 -3.645,-2.866c-2.605,-0 -4.167,1.304 -4.167,2.866l-0,35.154c-0,3.646 -1.563,6.25 -3.125,7.034c-1.563,0.779 -6.771,2.862 -6.771,2.862c-1.821,0.521 -3.125,2.604 -3.125,4.167l0,18.492c0,1.562 0.783,2.341 2.083,2.341c1.042,0 5.992,-2.341 6.771,-2.862c0.263,-0 0.521,-0.263 0.784,-0.263c1.82,0 3.383,2.604 3.383,4.688l-0,25.783c-0,2.863 -1.3,5.208 -2.863,5.988c-1.562,0.52 -7.033,2.866 -7.033,2.866c-1.821,0.521 -3.125,2.604 -3.125,4.167l0,18.487c0,1.563 0.783,2.346 2.083,2.346c0.263,0 0.784,-0.262 1.042,-0.262c0,-0 3.646,-1.563 5.992,-2.342c0.258,-0.262 0.521,-0.262 0.779,-0.262c1.825,-0 3.125,2.866 3.125,4.166l-0,32.034c-0,1.562 1.562,2.862 3.387,2.862c2.605,0 4.425,-1.3 4.425,-2.862l0,-36.2c0,-3.384 1.305,-5.209 2.605,-5.73l15.887,-6.508c0.258,0 0.779,-0.262 1.042,-0.262c2.083,-0 3.383,3.125 3.383,4.687l0,32.554c0,1.563 1.563,2.863 3.388,2.863c2.862,-0 4.425,-1.3 4.425,-2.863l-0,-36.979c-0,-2.083 1.041,-5.208 2.866,-5.992c1.821,-0.779 7.292,-2.862 7.292,-2.862c1.821,-0.784 3.125,-2.867 3.125,-4.429l-0,-18.488c-0,-1.304 -0.783,-2.083 -1.825,-2.083c-0.521,-0 -0.779,-0 -1.3,0.258l-6.771,2.604c-1.562,0 -3.387,-1.562 -3.387,-4.687l-0,-24.217c-0,-1.825 1.304,-6.771 3.387,-7.554l6.771,-2.604" style="fill-rule:nonzero;"/></g><g><path d="M3055.44,453.704c23.179,0 51.562,-21.354 51.562,-43.492c0,-13.279 -10.417,-21.612 -25.258,-21.612c-28.646,0 -51.563,21.092 -51.563,43.488c0,13.541 11.196,21.616 25.259,21.616" style="fill-rule:nonzero;"/></g><g><path d="M3322.34,389.121c23.179,-0 51.562,-21.354 51.562,-43.492c0,-13.279 -10.417,-21.612 -25.258,-21.612c-28.646,-0 -51.563,21.091 -51.563,43.487c0,13.542 11.196,21.617 25.259,21.617" style="fill-rule:nonzero;"/></g><g><path d="M3696.61,356.829c23.18,0 51.563,-21.354 51.563,-43.492c-0,-13.279 -10.417,-21.612 -25.258,-21.612c-28.646,0 -51.563,21.092 -51.563,43.488c0,13.541 11.196,21.616 25.258,21.616" style="fill-rule:nonzero;"/></g><g><path d="M3963.53,324.538c23.179,-0 51.563,-21.355 51.563,-43.492c-0,-13.279 -10.417,-21.613 -25.259,-21.613c-28.646,0 -51.562,21.092 -51.562,43.488c-0,13.541 11.196,21.617 25.258,21.617" style="fill-rule:nonzero;"/></g><g><path d="M4230.44,292.246c23.175,-0 51.562,-21.354 51.562,-43.488c0,-13.283 -10.416,-21.616 -25.262,-21.616c-28.646,-0 -51.563,21.096 -51.563,43.487c0,13.542 11.2,21.617 25.263,21.617" style="fill-rule:nonzero;"/></g><g><path d="M4434.73,239.121c-1.562,5.208 -13.8,10.417 -19.791,10.417c-1.563,-0 -2.863,-0.521 -3.125,-1.3c-0.521,-1.042 -0.779,-6.771 -0.779,-13.021c-0,-8.075 0.258,-17.188 0.779,-19.271c0.521,-4.429 12.5,-9.896 19.012,-9.896c1.821,0 3.384,0.521 3.904,1.563c0.521,1.3 1.042,7.812 1.042,14.841c0,7.034 -0.521,14.325 -1.042,16.667m17.971,-42.446c1.821,-0.783 3.125,-2.867 3.125,-4.429l0,-18.488c0,-1.304 -0.783,-2.083 -1.825,-2.083c-0.521,0 -0.779,0 -1.3,0.258c0,0 -5.208,2.084 -6.512,2.346c-1.821,0 -3.646,-1.304 -3.646,-3.387l-0,-31.771c-0,-1.563 -1.563,-2.863 -3.646,-2.863c-2.604,0 -4.167,1.3 -4.167,2.863l0,33.854c-0.258,2.604 -1.041,5.992 -3.383,7.554c-3.125,1.821 -11.979,5.467 -16.408,6.509c-2.342,-0 -3.125,-3.125 -3.125,-5.209l-0,-31.25c-0,-1.562 -1.821,-2.862 -3.646,-2.862c-2.604,-0 -4.167,1.3 -4.167,2.862l0,35.159c0,3.645 -1.562,6.25 -3.125,7.029c-1.562,0.783 -6.771,2.866 -6.771,2.866c-1.82,0.521 -3.125,2.605 -3.125,4.167l0,18.488c0,1.562 0.784,2.345 2.084,2.345c1.041,0 5.991,-2.345 6.771,-2.866c0.262,-0 0.52,-0.259 0.783,-0.259c1.821,0 3.383,2.605 3.383,4.688l0,25.779c0,2.867 -1.3,5.208 -2.862,5.992c-1.563,0.521 -7.034,2.862 -7.034,2.862c-1.82,0.521 -3.125,2.604 -3.125,4.167l0,18.487c0,1.563 0.784,2.346 2.084,2.346c0.262,0 0.783,-0.262 1.041,-0.262c0,-0 3.646,-1.563 5.992,-2.342c0.258,-0.262 0.521,-0.262 0.779,-0.262c1.825,-0 3.125,2.866 3.125,4.166l0,32.034c0,1.562 1.563,2.862 3.388,2.862c2.604,0 4.425,-1.3 4.425,-2.862l-0,-36.2c-0,-3.384 1.304,-5.209 2.604,-5.73l15.887,-6.508c0.259,0 0.78,-0.258 1.042,-0.258c2.083,-0 3.383,3.12 3.383,4.683l0,32.554c0,1.563 1.563,2.863 3.388,2.863c2.862,-0 4.425,-1.3 4.425,-2.863l-0,-36.979c-0,-2.083 1.042,-5.208 2.867,-5.987c1.82,-0.784 7.291,-2.867 7.291,-2.867c1.821,-0.779 3.125,-2.863 3.125,-4.425l0,-18.492c0,-1.3 -0.783,-2.083 -1.825,-2.083c-0.521,-0 -0.779,-0 -1.3,0.262l-6.771,2.605c-1.562,-0 -3.387,-1.563 -3.387,-4.688l-0,-24.221c-0,-1.821 1.304,-6.771 3.387,-7.55l6.771,-2.604" style="fill-rule:nonzero;"/></g><g><path d="M4497.19,259.954c23.175,0 51.562,-21.354 51.562,-43.487c0,-13.284 -10.416,-21.617 -25.262,-21.617c-28.646,0 -51.563,21.096 -51.563,43.492c0,13.541 11.2,21.612 25.263,21.612" style="fill-rule:nonzero;"/></g><g><path d="M4701.53,206.829c-1.562,5.209 -13.8,10.417 -19.792,10.417c-1.562,-0 -2.862,-0.521 -3.125,-1.3c-0.52,-1.042 -0.779,-6.771 -0.779,-13.021c0,-8.075 0.259,-17.187 0.779,-19.271c0.521,-4.429 12.5,-9.896 19.013,-9.896c1.821,0 3.383,0.521 3.904,1.563c0.521,1.3 1.042,7.812 1.042,14.842c-0,7.033 -0.521,14.325 -1.042,16.666m17.971,-42.446c1.821,-0.783 3.125,-2.866 3.125,-4.429l-0,-18.487c-0,-1.304 -0.783,-2.084 -1.825,-2.084c-0.521,0 -0.779,0 -1.3,0.259c-0,-0 -5.208,2.083 -6.513,2.346c-1.82,-0 -3.645,-1.305 -3.645,-3.388l-0,-31.771c-0,-1.562 -1.563,-2.862 -3.646,-2.862c-2.604,-0 -4.167,1.3 -4.167,2.862l0,33.854c-0.258,2.605 -1.042,5.992 -3.383,7.555c-3.125,1.82 -11.979,5.466 -16.409,6.508c-2.341,-0 -3.125,-3.125 -3.125,-5.208l0,-31.25c0,-1.563 -1.82,-2.863 -3.645,-2.863c-2.605,0 -4.167,1.3 -4.167,2.863l-0,35.158c-0,3.646 -1.563,6.25 -3.125,7.029c-1.563,0.783 -6.771,2.867 -6.771,2.867c-1.821,0.521 -3.125,2.604 -3.125,4.166l0,18.488c0,1.562 0.783,2.346 2.083,2.346c1.042,-0 5.992,-2.346 6.771,-2.867c0.263,0 0.521,-0.258 0.784,-0.258c1.82,-0 3.383,2.604 3.383,4.687l-0,25.779c-0,2.867 -1.3,5.209 -2.863,5.992c-1.562,0.521 -7.033,2.863 -7.033,2.863c-1.821,0.52 -3.125,2.604 -3.125,4.166l0,18.492c0,1.562 0.783,2.342 2.083,2.342c0.263,-0 0.784,-0.259 1.042,-0.259c0,0 3.646,-1.562 5.992,-2.346c0.258,-0.258 0.521,-0.258 0.779,-0.258c1.825,0 3.125,2.863 3.125,4.167l-0,32.029c-0,1.562 1.562,2.862 3.387,2.862c2.605,0 4.425,-1.3 4.425,-2.862l0,-36.196c0,-3.387 1.305,-5.208 2.605,-5.729l15.887,-6.513c0.258,0 0.779,-0.258 1.042,-0.258c2.083,0 3.383,3.125 3.383,4.688l0,32.55c0,1.562 1.563,2.862 3.388,2.862c2.862,0 4.425,-1.3 4.425,-2.862l-0,-36.98c-0,-2.083 1.041,-5.208 2.866,-5.987c1.821,-0.783 7.292,-2.867 7.292,-2.867c1.821,-0.779 3.125,-2.862 3.125,-4.425l-0,-18.491c-0,-1.3 -0.783,-2.084 -1.825,-2.084c-0.521,0 -0.779,0 -1.3,0.263l-6.771,2.604c-1.562,-0 -3.387,-1.563 -3.387,-4.688l-0,-24.22c-0,-1.821 1.304,-6.771 3.387,-7.55l6.771,-2.605" style="fill-rule:nonzero;"/></g><g><path d="M4763.98,227.663c23.175,-0 51.563,-21.355 51.563,-43.488c-0,-13.283 -10.417,-21.617 -25.263,-21.617c-28.645,0 -51.562,21.096 -51.562,43.492c-0,13.542 11.2,21.613 25.262,21.613" style="fill-rule:nonzero;"/></g><g><path d="M5030.9,163.079c23.179,0 51.563,-21.354 51.563,-43.487c-0,-13.284 -10.417,-21.617 -25.259,-21.617c-28.646,0 -51.562,21.096 -51.562,43.492c-0,13.541 11.196,21.612 25.258,21.612" style="fill-rule:nonzero;"/></g><g><path d="M5297.82,163.079c23.179,0 51.562,-21.354 51.562,-43.487c0,-13.284 -10.416,-21.617 -25.258,-21.617c-28.646,0 -51.563,21.096 -51.563,43.492c0,13.541 11.196,21.612 25.259,21.612" style="fill-rule:nonzero;"/></g><g><path d="M5564.73,227.663c23.175,-0 51.563,-21.355 51.563,-43.488c-0,-13.283 -10.417,-21.617 -25.263,-21.617c-28.645,0 -51.562,21.096 -51.562,43.492c-0,13.542 11.2,21.613 25.262,21.613" style="fill-rule:nonzero;"/></g><g><path d="M5831.65,259.954c23.179,0 51.563,-21.354 51.563,-43.487c-0,-13.284 -10.417,-21.617 -25.259,-21.617c-28.646,0 -51.562,21.096 -51.562,43.492c-0,13.541 11.196,21.612 25.258,21.612" style="fill-rule:nonzero;"/></g><g><path d="M6098.53,292.246c23.179,-0 51.563,-21.354 51.563,-43.488c-0,-13.283 -10.417,-21.616 -25.259,-21.616c-28.646,-0 -51.562,21.096 -51.562,43.487c-0,13.542 11.196,21.617 25.258,21.617" style="fill-rule:nonzero;"/></g><g><path d="M6365.48,324.538c23.175,-0 51.563,-21.355 51.563,-43.492c-0,-13.279 -10.417,-21.613 -25.263,-21.613c-28.645,0 -51.562,21.092 -51.562,43.488c-0,13.541 11.2,21.617 25.262,21.617" style="fill-rule:nonzero;"/></g><g><path d="M6632.36,356.829c23.175,0 51.563,-21.354 51.563,-43.492c-0,-13.279 -10.417,-21.612 -25.263,-21.612c-28.645,0 -51.562,21.092 -51.562,43.488c-0,13.541 11.2,21.616 25.262,21.616" style="fill-rule:nonzero;"/></g><g><path d="M135.664,482.088c0.779,4.949 0.779,4.687 -3.909,6.25c-22.916,7.812 -37.758,28.387 -37.758,50.52c-0,23.438 12.237,40.105 29.946,46.096c2.083,0.779 5.208,1.563 7.033,1.563c2.083,-0 3.125,-1.304 3.125,-2.867c0,-1.821 -2.083,-2.604 -3.908,-3.383c-10.938,-4.688 -18.75,-15.888 -18.75,-27.867c-0,-14.842 10.158,-26.042 26.041,-30.467c4.167,-1.041 4.688,-0.783 5.209,2.084l13.021,77.604c0.52,2.862 0.262,2.862 -3.646,3.646c-4.167,0.779 -9.375,1.3 -14.584,1.3c-45.57,-0 -75,-25.259 -75,-61.459c0,-15.362 2.605,-35.937 24.221,-60.416c15.625,-17.446 27.604,-27.084 39.842,-36.979c2.604,-2.084 3.125,-1.821 3.646,1.041l5.471,33.334m28.383,-177.342c8.596,-0 15.625,7.029 15.625,21.354c-0,28.904 -24.738,52.342 -45.313,70.313c-1.82,1.562 -2.862,1.3 -3.383,-2.084c-1.042,-6.771 -1.562,-15.625 -1.562,-23.958c-0,-40.625 18.75,-65.625 34.633,-65.625m-10.417,218.75c-0.521,-3.125 -0.258,-3.908 2.867,-3.646c21.092,1.821 38.542,19.529 38.542,42.446c-0,16.408 -9.896,29.687 -24.48,36.979c-3.125,1.563 -3.645,1.563 -4.166,-1.562l-12.763,-74.217m-14.062,-81.25c-0.521,-3.125 -0,-3.388 1.562,-4.95c28.125,-26.3 49.479,-59.375 49.479,-99.217c0,-22.658 -6.25,-45.054 -16.925,-60.679c-3.908,-5.729 -10.679,-13.017 -13.541,-13.017c-3.646,0 -11.721,6.767 -16.929,12.496c-19.271,21.354 -25.521,53.909 -25.521,80.992c-0,15.104 1.825,32.029 3.646,42.708c0.52,3.125 0.783,3.646 -2.342,6.25c-37.5,30.988 -77.346,68.229 -77.346,120.834c0,45.312 30.992,88.279 94.792,88.279c5.991,-0 12.762,-0.521 17.971,-1.563c2.862,-0.521 3.383,-0.779 3.904,2.346c3.125,17.446 7.033,40.104 7.033,52.342c0,38.541 -26.042,43.229 -41.408,43.229c-14.063,-0 -20.834,-4.167 -20.834,-7.55c0,-1.825 2.346,-2.604 8.334,-4.429c8.075,-2.342 17.45,-9.375 17.45,-24.48c-0,-14.32 -9.117,-26.562 -25,-26.562c-17.45,0 -27.867,13.804 -27.867,29.95c0,16.925 10.158,42.446 49.479,42.446c17.45,-0 51.304,-7.813 51.304,-52.084c0,-14.841 -4.687,-39.583 -7.554,-55.729c-0.521,-3.125 -0.258,-2.862 3.388,-4.425c26.3,-10.416 43.75,-32.554 43.75,-61.979c-0,-33.333 -24.479,-62.762 -62.763,-62.762c-6.771,-0 -6.771,-0 -7.55,-4.688l-6.512,-37.758" style="fill-rule:nonzero;"/></g><g><text x="628.439px" y="892.708px" style="font-family:'Bravura';font-size:260.417px;"></text></g><g><text x="1428.98px" y="824.433px" style="font-family:'Bravura';font-size:260.417px;"></text></g><g><text x="2229.66px" y="728.704px" style="font-family:'Bravura';font-size:260.417px;"></text></g><g><text x="2991.77px" y="765.988px" style="font-family:'Bravura';font-size:260.417px;"></text></g><g><text x="3899.73px" y="728.704px" style="font-family:'Bravura';font-size:260.417px;"></text></g><g><text x="4700.28px" y="728.704px" style="font-family:'Bravura';font-size:260.417px;"></text></g><g><text x="5500.94px" y="728.704px" style="font-family:'Bravura';font-size:260.417px;"></text></g><g><text x="6301.69px" y="728.704px" style="font-family:'Bravura';font-size:260.417px;"></text></g><g><path d="M430.676,518.025l0,-32.354l541.575,-32.292l0,32.354l-541.575,32.292" style="fill-rule:nonzero;"/></g><g><path d="M1231.29,453.442l-0,-32.655l541.445,-80.729l0,32.654l-541.445,80.73" style="fill-rule:nonzero;"/></g><g><path d="M2031.9,356.567l0,-32.421l541.575,-48.438l0,32.421l-541.575,48.438" style="fill-rule:nonzero;"/></g><g><path d="M2763.46,679.721l-0,-32.529l541.379,-64.584l-0,32.53l-541.379,64.583" style="fill-rule:nonzero;"/></g><g><path d="M3671.32,566.7l-0,-32.529l541.575,-64.583l-0,32.529l-541.575,64.583" style="fill-rule:nonzero;"/></g><g><path d="M4471.98,501.896l0,-32.309l541.405,-16.145l-0,32.308l-541.405,16.146" style="fill-rule:nonzero;"/></g><g><path d="M5272.53,485.8l0,-32.358l541.667,32.291l-0,32.359l-541.667,-32.292" style="fill-rule:nonzero;"/></g><g><path d="M6073.28,502.117l0,-32.529l541.538,64.583l-0,32.529l-541.538,-64.583" style="fill-rule:nonzero;"/></g><g><path d="M340.314,882.779l256.054,-29.571l-0,-10.404l-245.717,28.388l0,-36.85l-10.337,-0" style="fill-rule:nonzero;"/></g><g><path d="M977.422,808.913l-239.908,27.67l-0,-10.404l229.57,-27.058l0,-38.646l10.338,0" style="fill-rule:nonzero;"/></g><g><path d="M1140.92,776.621l255.771,-0l-0,-10.338l-245.429,0l-0,-38.1l-10.342,0" style="fill-rule:nonzero;"/></g><g><path d="M1777.9,776.621l-239.621,-0l0,-10.338l229.284,0l-0,-38.1l10.337,0" style="fill-rule:nonzero;"/></g><g><path d="M1941.53,680.892l255.834,-0l-0,-10.325l-245.509,-0l0,-38.113l-10.325,0" style="fill-rule:nonzero;"/></g><g><path d="M2578.64,680.892l-239.688,-0l0,-10.325l229.35,-0l0,-38.113l10.338,0" style="fill-rule:nonzero;"/></g><g><path d="M9.364,1260.73l2947.26,0" style="fill:none;stroke:#000;stroke-width:8.38px;"/><path d="M9.364,1519.07l2947.26,-0" style="fill:none;stroke:#000;stroke-width:8.38px;"/><path d="M9.364,1325.32l2947.26,-0" style="fill:none;stroke:#000;stroke-width:8.38px;"/><path d="M9.364,1454.48l2947.26,0" style="fill:none;stroke:#000;stroke-width:8.38px;"/><path d="M9.364,1389.9l2947.26,0" style="fill:none;stroke:#000;stroke-width:8.38px;"/></g><g><path d="M2291.2,1256.54l-0,266.721" style="fill:none;stroke:#000;stroke-width:10.33px;"/><path d="M2915.3,1256.54l-0,266.721" style="fill:none;stroke:#000;stroke-width:10.33px;"/><path d="M2951.45,1256.54l0,266.721" style="fill:none;stroke:#000;stroke-width:10.33px;"/></g><g><path d="M365.509,1271.58l0,231.85" style="fill:none;stroke:#000;stroke-width:7.75px;"/><path d="M547.472,1336.16l-0,199.558" style="fill:none;stroke:#000;stroke-width:7.75px;"/><path d="M729.439,1368.45l-0,199.559" style="fill:none;stroke:#000;stroke-width:7.75px;"/><path d="M947.826,1195.73l0,183.321" style="fill:none;stroke:#000;stroke-width:7.75px;"/><path d="M1097.15,1219.95l-0,191.392" style="fill:none;stroke:#000;stroke-width:7.75px;"/><path d="M1246.48,1244.17l0,199.467" style="fill:none;stroke:#000;stroke-width:7.75px;"/><path d="M1395.82,1259.95l-0,215.975" style="fill:none;stroke:#000;stroke-width:7.75px;"/><path d="M1577.91,1300.33l-0,240.184" style="fill:none;stroke:#000;stroke-width:7.75px;"/><path d="M1759.88,1340.68l0,232.121" style="fill:none;stroke:#000;stroke-width:7.75px;"/></g><g><path d="M1676.18,1583.65l113.396,0" style="fill:none;stroke:#000;stroke-width:10.33px;"/></g><g><path d="M1909.22,1389.85l-0,215.246" style="fill:none;stroke:#000;stroke-width:7.75px;"/></g><g><path d="M1810.45,1583.65l128.463,0" style="fill:none;stroke:#000;stroke-width:10.33px;"/></g><g><path d="M2058.54,1397.92l-0,239.467" style="fill:none;stroke:#000;stroke-width:7.75px;"/></g><g><path d="M1959.79,1648.23l128.466,0" style="fill:none;stroke:#000;stroke-width:10.33px;"/><path d="M1959.79,1583.65l128.466,0" style="fill:none;stroke:#000;stroke-width:10.33px;"/></g><g><path d="M2207.88,1406l0,263.683" style="fill:none;stroke:#000;stroke-width:7.75px;"/></g><g><path d="M2109.11,1648.23l128.475,0" style="fill:none;stroke:#000;stroke-width:10.33px;"/><path d="M2109.11,1583.65l128.475,0" style="fill:none;stroke:#000;stroke-width:10.33px;"/><path d="M2367.53,1648.23l161.533,0" style="fill:none;stroke:#000;stroke-width:10.33px;"/><path d="M2367.53,1583.65l161.533,0" style="fill:none;stroke:#000;stroke-width:10.33px;"/></g><g><path d="M413.889,1172.66l-0,-27.866c-0,-1.3 -0.259,-2.342 -1.563,-2.342c-1.042,0 -1.821,0.258 -2.604,1.3l-7.813,15.104c-0.52,0.521 -1.3,1.304 -1.3,3.125l0,10.679l-16.929,0c10.679,-8.854 27.346,-38.283 27.604,-39.845c0,-0.259 0.263,-0.521 0.263,-0.78c-0,-1.041 -1.042,-1.825 -1.825,-1.825c-1.3,0 -6.771,0.521 -9.113,0.521c-2.345,0 -3.908,-0.521 -4.95,-0.521c-1.3,0 -3.125,0.521 -3.125,2.605c0,16.666 -13.541,35.679 -16.925,40.366c-0.52,0.521 -1.041,1.3 -1.041,2.083c-0,1.301 1.041,2.605 2.604,2.605l23.437,-0l0,8.071c0,3.645 -2.083,4.687 -4.166,4.687c-2.346,0 -3.388,1.042 -3.388,2.346c0,1.3 0.521,2.862 2.867,2.862l22.396,0c1.3,0 2.604,-1.041 2.604,-2.862c-0,-1.825 -1.563,-2.604 -2.867,-2.604c-1.3,-0 -4.166,-0.784 -4.166,-4.95l-0,-7.55l9.637,-0c1.3,-0 2.083,-1.042 2.083,-2.604c0,-1.563 -0.52,-2.605 -2.083,-2.605l-9.637,0" style="fill-rule:nonzero;"/></g><g><path d="M607.801,1175.32c0,-1.821 -0.779,-2.084 -1.562,-2.084c-1.042,0 -1.563,0.784 -1.821,1.563c-1.304,3.646 -4.167,8.333 -8.075,8.333c-0.521,0 -1.042,0 -1.563,-0.258l-3.904,-1.304c-2.604,-1.042 -8.854,-3.125 -14.062,-3.125c-1.825,-0 -3.388,0.262 -4.95,0.783c2.866,-4.95 16.408,-11.458 19.27,-12.242c9.375,-1.3 17.188,-6.77 17.188,-16.925c-0,-6.25 -2.604,-10.416 -5.988,-13.541c-6.77,-5.471 -16.666,-6.25 -19.533,-6.25c-9.375,-0 -16.925,0.52 -23.696,8.333c-1.825,2.083 -2.604,4.167 -2.604,6.25c0,1.821 0.779,3.904 1.563,6.25c1.562,3.125 4.945,5.467 8.591,5.467c6.513,-0 7.292,-6.25 7.292,-9.113c-0,-5.992 -6.508,-6.512 -6.508,-9.117c-0,-1.82 2.604,-4.945 10.416,-4.945c12.238,-0 16.404,10.154 16.404,13.279c0,4.687 -1.562,9.116 -4.166,12.762c-4.688,5.988 -13.279,8.071 -19.792,12.238c-7.292,4.429 -12.237,11.979 -14.583,20.312c-0,1.825 0.783,3.909 2.346,4.688c0.258,0.262 0.779,0.262 1.041,0.262c2.863,0 4.425,-8.075 12.238,-8.075c5.208,0 7.033,7.034 18.75,7.034c5.471,-0 15.625,-0.521 17.708,-20.575" style="fill-rule:nonzero;"/></g><g><path d="M749.034,1160.48c0,-0 -0.262,1.042 -0.262,1.821c-0,1.042 1.042,2.083 2.083,2.083c0.784,0 1.304,-0.779 1.563,-1.042c0.262,-0.779 3.387,-11.458 4.95,-14.062c0.521,-1.042 1.041,-1.3 1.3,-1.3c0.521,-0 0.783,1.042 0.783,1.821l0,37.241c0,3.125 -2.604,4.946 -5.208,4.946c-1.042,0 -2.346,0.521 -2.346,2.084c-0,1.562 1.304,2.083 3.387,2.083l21.875,-0c2.084,-0 2.084,-2.083 2.084,-2.083c-0,-0 -0,-2.084 -2.084,-2.084c-1.825,0 -4.166,-2.341 -4.166,-4.687l-0,-54.167c-0,-2.083 -0.784,-3.125 -2.604,-3.125c-1.825,0 -3.388,0.521 -4.95,0.521c-2.605,-0 -3.125,-0 -5.209,-0.521c-1.041,0 -2.341,1.563 -3.125,2.604l-8.071,27.867" style="fill-rule:nonzero;"/></g><g><path d="M927.159,1124.06l0,-27.866c0,-1.3 -0.262,-2.342 -1.562,-2.342c-1.042,0 -1.825,0.258 -2.604,1.3l-7.813,15.104c-0.521,0.521 -1.304,1.304 -1.304,3.125l0,10.679l-16.925,0c10.675,-8.854 27.342,-38.283 27.604,-39.846c0,-0.258 0.259,-0.52 0.259,-0.779c-0,-1.041 -1.042,-1.825 -1.821,-1.825c-1.304,0 -6.771,0.521 -9.117,0.521c-2.342,0 -3.904,-0.521 -4.946,-0.521c-1.304,0 -3.125,0.521 -3.125,2.604c0,16.667 -13.541,35.68 -16.929,40.367c-0.521,0.521 -1.042,1.3 -1.042,2.083c0,1.3 1.042,2.605 2.605,2.605l23.437,-0l0,8.07c0,3.646 -2.083,4.688 -4.167,4.688c-2.341,-0 -3.383,1.042 -3.383,2.346c0,1.3 0.521,2.862 2.863,2.862l22.395,0c1.305,0 2.605,-1.041 2.605,-2.862c-0,-1.825 -1.563,-2.604 -2.863,-2.604c-1.304,-0 -4.167,-0.784 -4.167,-4.95l0,-7.55l9.634,-0c1.304,-0 2.083,-1.042 2.083,-2.605c0,-1.562 -0.521,-2.604 -2.083,-2.604l-9.634,0" style="fill-rule:nonzero;"/></g><g><path d="M1088.43,1138.97c0,-1.821 -0.779,-2.083 -1.562,-2.083c-1.042,-0 -1.563,0.783 -1.821,1.562c-1.304,3.646 -4.167,8.333 -8.075,8.333c-0.521,0 -1.042,0 -1.562,-0.258l-3.905,-1.304c-2.604,-1.042 -8.854,-3.125 -14.062,-3.125c-1.825,-0 -3.388,0.262 -4.95,0.783c2.867,-4.95 16.408,-11.458 19.271,-12.241c9.375,-1.3 17.187,-6.771 17.187,-16.925c0,-6.25 -2.604,-10.417 -5.987,-13.542c-6.771,-5.471 -16.667,-6.25 -19.534,-6.25c-9.375,-0 -16.925,0.521 -23.695,8.333c-1.825,2.083 -2.605,4.167 -2.605,6.25c0,1.821 0.78,3.904 1.563,6.25c1.562,3.125 4.946,5.467 8.592,5.467c6.512,-0 7.291,-6.25 7.291,-9.113c0,-5.991 -6.508,-6.512 -6.508,-9.116c-0,-1.821 2.604,-4.946 10.417,-4.946c12.237,-0 16.404,10.154 16.404,13.279c-0,4.688 -1.563,9.117 -4.167,12.762c-4.687,5.988 -13.279,8.071 -19.792,12.238c-7.291,4.429 -12.237,11.979 -14.583,20.313c0,1.824 0.783,3.908 2.346,4.687c0.258,0.262 0.779,0.262 1.042,0.262c2.862,0 4.425,-8.074 12.237,-8.074c5.208,-0 7.033,7.033 18.75,7.033c5.471,-0 15.625,-0.521 17.708,-20.575" style="fill-rule:nonzero;"/></g><g><path d="M1197.03,1150.3c0,-0 -0.262,1.042 -0.262,1.821c-0,1.041 1.041,2.083 2.083,2.083c0.783,0 1.304,-0.779 1.563,-1.042c0.262,-0.779 3.387,-11.458 4.95,-14.062c0.52,-1.042 1.041,-1.3 1.3,-1.3c0.52,-0 0.783,1.041 0.783,1.821l-0,37.241c-0,3.125 -2.604,4.946 -5.208,4.946c-1.042,0 -2.346,0.521 -2.346,2.083c-0,1.563 1.304,2.084 3.387,2.084l21.875,-0c2.084,-0 2.084,-2.084 2.084,-2.084c-0,0 -0,-2.083 -2.084,-2.083c-1.825,0 -4.166,-2.341 -4.166,-4.687l-0,-54.167c-0,-2.083 -0.784,-3.125 -2.605,-3.125c-1.825,-0 -3.387,0.521 -4.95,0.521c-2.604,-0 -3.125,-0 -5.208,-0.521c-1.042,-0 -2.342,1.562 -3.125,2.604l-8.071,27.867" style="fill-rule:nonzero;"/></g><g><path d="M1375.15,1172.71l0,-27.863c0,-1.304 -0.262,-2.346 -1.562,-2.346c-1.042,0 -1.825,0.263 -2.604,1.304l-7.813,15.104c-0.521,0.521 -1.304,1.301 -1.304,3.125l-0,10.676l-16.925,-0c10.675,-8.855 27.342,-38.28 27.604,-39.842c0,-0.263 0.258,-0.521 0.258,-0.783c0,-1.042 -1.041,-1.821 -1.82,-1.821c-1.305,-0 -6.771,0.52 -9.117,0.52c-2.342,0 -3.904,-0.52 -4.946,-0.52c-1.304,-0 -3.125,0.52 -3.125,2.604c0,16.666 -13.542,35.675 -16.929,40.362c-0.521,0.521 -1.042,1.304 -1.042,2.084c0,1.304 1.042,2.604 2.604,2.604l23.438,-0l-0,8.075c-0,3.646 -2.083,4.687 -4.167,4.687c-2.341,0 -3.383,1.042 -3.383,2.342c-0,1.304 0.521,2.867 2.862,2.867l22.396,-0c1.304,-0 2.604,-1.042 2.604,-2.867c0,-1.821 -1.562,-2.604 -2.862,-2.604c-1.304,-0 -4.167,-0.779 -4.167,-4.946l0,-7.554l9.634,-0c1.304,-0 2.083,-1.042 2.083,-2.604c-0,-1.563 -0.521,-2.605 -2.083,-2.605l-9.634,0" style="fill-rule:nonzero;"/></g><g><path d="M1569.19,1175.32c-0,-1.821 -0.78,-2.084 -1.563,-2.084c-1.042,0 -1.562,0.784 -1.821,1.563c-1.304,3.646 -4.166,8.333 -8.075,8.333c-0.521,0 -1.041,0 -1.562,-0.258l-3.904,-1.304c-2.605,-1.042 -8.855,-3.125 -14.063,-3.125c-1.825,-0 -3.387,0.262 -4.95,0.783c2.867,-4.95 16.408,-11.458 19.271,-12.242c9.375,-1.3 17.187,-6.77 17.187,-16.925c0,-6.25 -2.604,-10.416 -5.987,-13.541c-6.771,-5.471 -16.667,-6.25 -19.533,-6.25c-9.375,-0 -16.925,0.52 -23.696,8.333c-1.825,2.083 -2.604,4.167 -2.604,6.25c-0,1.821 0.779,3.904 1.562,6.25c1.563,3.125 4.946,5.467 8.592,5.467c6.512,-0 7.291,-6.25 7.291,-9.113c0,-5.992 -6.508,-6.512 -6.508,-9.117c0,-1.82 2.604,-4.945 10.417,-4.945c12.237,-0 16.404,10.154 16.404,13.279c-0,4.687 -1.563,9.116 -4.167,12.762c-4.687,5.988 -13.279,8.071 -19.791,12.238c-7.292,4.429 -12.238,11.979 -14.584,20.312c0,1.825 0.784,3.909 2.346,4.688c0.258,0.262 0.779,0.262 1.042,0.262c2.862,0 4.425,-8.075 12.237,-8.075c5.209,0 7.034,7.034 18.75,7.034c5.471,-0 15.625,-0.521 17.709,-20.575" style="fill-rule:nonzero;"/></g><g><path d="M1710.43,1160.48c0,-0 -0.258,1.042 -0.258,1.821c-0,1.042 1.041,2.083 2.083,2.083c0.779,0 1.3,-0.779 1.563,-1.042c0.258,-0.779 3.383,-11.458 4.945,-14.062c0.521,-1.042 1.042,-1.3 1.305,-1.3c0.52,-0 0.779,1.042 0.779,1.821l-0,37.241c-0,3.125 -2.604,4.946 -5.209,4.946c-1.041,0 -2.341,0.521 -2.341,2.084c-0,1.562 1.3,2.083 3.383,2.083l21.875,-0c2.083,-0 2.083,-2.083 2.083,-2.083c0,-0 0,-2.084 -2.083,-2.084c-1.821,0 -4.167,-2.341 -4.167,-4.687l0,-54.167c0,-2.083 -0.779,-3.125 -2.604,-3.125c-1.821,0 -3.383,0.521 -4.946,0.521c-2.604,-0 -3.125,-0 -5.208,-0.521c-1.042,0 -2.346,1.563 -3.125,2.604l-8.075,27.867" style="fill-rule:nonzero;"/></g><g><path d="M1888.55,1172.71l0,-27.863c0,-1.304 -0.258,-2.346 -1.562,-2.346c-1.042,0 -1.821,0.263 -2.605,1.304l-7.812,15.104c-0.521,0.521 -1.3,1.301 -1.3,3.125l-0,10.676l-16.929,-0c10.679,-8.855 27.346,-38.28 27.604,-39.842c-0,-0.263 0.262,-0.521 0.262,-0.783c0,-1.042 -1.041,-1.821 -1.825,-1.821c-1.3,-0 -6.77,0.52 -9.112,0.52c-2.346,0 -3.908,-0.52 -4.95,-0.52c-1.3,-0 -3.125,0.52 -3.125,2.604c-0,16.666 -13.542,35.675 -16.925,40.362c-0.521,0.521 -1.042,1.304 -1.042,2.084c0,1.304 1.042,2.604 2.604,2.604l23.438,-0l-0,8.075c-0,3.646 -2.083,4.687 -4.167,4.687c-2.346,0 -3.387,1.042 -3.387,2.342c-0,1.304 0.521,2.867 2.866,2.867l22.396,-0c1.3,-0 2.604,-1.042 2.604,-2.867c0,-1.821 -1.562,-2.604 -2.866,-2.604c-1.3,-0 -4.167,-0.779 -4.167,-4.946l0,-7.554l9.638,-0c1.3,-0 2.083,-1.042 2.083,-2.604c-0,-1.563 -0.521,-2.605 -2.083,-2.605l-9.638,0" style="fill-rule:nonzero;"/></g><g><path d="M2049.83,1175.32c0,-1.821 -0.779,-2.084 -1.562,-2.084c-1.042,0 -1.563,0.784 -1.821,1.563c-1.304,3.646 -4.167,8.333 -8.075,8.333c-0.521,0 -1.042,0 -1.563,-0.258l-3.904,-1.304c-2.604,-1.042 -8.854,-3.125 -14.062,-3.125c-1.825,-0 -3.388,0.262 -4.95,0.783c2.866,-4.95 16.408,-11.458 19.27,-12.242c9.375,-1.3 17.188,-6.77 17.188,-16.925c-0,-6.25 -2.604,-10.416 -5.988,-13.541c-6.77,-5.471 -16.666,-6.25 -19.533,-6.25c-9.375,-0 -16.925,0.52 -23.696,8.333c-1.825,2.083 -2.604,4.167 -2.604,6.25c0,1.821 0.779,3.904 1.563,6.25c1.562,3.125 4.945,5.467 8.591,5.467c6.513,-0 7.292,-6.25 7.292,-9.113c-0,-5.992 -6.508,-6.512 -6.508,-9.117c-0,-1.82 2.604,-4.945 10.416,-4.945c12.238,-0 16.404,10.154 16.404,13.279c0,4.687 -1.562,9.116 -4.166,12.762c-4.688,5.988 -13.279,8.071 -19.792,12.238c-7.292,4.429 -12.237,11.979 -14.583,20.312c-0,1.825 0.783,3.909 2.346,4.688c0.258,0.262 0.779,0.262 1.041,0.262c2.863,0 4.425,-8.075 12.238,-8.075c5.208,0 7.033,7.034 18.75,7.034c5.471,-0 15.625,-0.521 17.708,-20.575" style="fill-rule:nonzero;"/></g><g><path d="M2158.42,1160.48c-0,-0 -0.263,1.042 -0.263,1.821c0,1.042 1.042,2.083 2.084,2.083c0.783,0 1.304,-0.779 1.562,-1.042c0.263,-0.779 3.388,-11.458 4.95,-14.062c0.521,-1.042 1.042,-1.3 1.3,-1.3c0.521,-0 0.784,1.042 0.784,1.821l-0,37.241c-0,3.125 -2.605,4.946 -5.209,4.946c-1.041,0 -2.346,0.521 -2.346,2.084c0,1.562 1.305,2.083 3.388,2.083l21.875,-0c2.083,-0 2.083,-2.083 2.083,-2.083c0,-0 0,-2.084 -2.083,-2.084c-1.825,0 -4.167,-2.341 -4.167,-4.687l0,-54.167c0,-2.083 -0.783,-3.125 -2.604,-3.125c-1.825,0 -3.387,0.521 -4.95,0.521c-2.604,-0 -3.125,-0 -5.208,-0.521c-1.042,0 -2.342,1.563 -3.125,2.604l-8.071,27.867" style="fill-rule:nonzero;"/></g><g><path d="M2433.37,1160.48c-0,-0 -0.259,1.042 -0.259,1.821c0,1.042 1.042,2.083 2.084,2.083c0.779,0 1.3,-0.779 1.562,-1.042c0.259,-0.779 3.384,-11.458 4.946,-14.062c0.521,-1.042 1.042,-1.3 1.304,-1.3c0.521,-0 0.779,1.042 0.779,1.821l0,37.241c0,3.125 -2.604,4.946 -5.208,4.946c-1.042,0 -2.342,0.521 -2.342,2.084c0,1.562 1.3,2.083 3.384,2.083l21.875,-0c2.083,-0 2.083,-2.083 2.083,-2.083c0,-0 0,-2.084 -2.083,-2.084c-1.821,0 -4.167,-2.341 -4.167,-4.687l0,-54.167c0,-2.083 -0.779,-3.125 -2.604,-3.125c-1.821,0 -3.383,0.521 -4.946,0.521c-2.604,-0 -3.125,-0 -5.208,-0.521c-1.042,0 -2.346,1.563 -3.125,2.604l-8.075,27.867" style="fill-rule:nonzero;"/></g><g><path d="M386.889,1293.28c23.175,0 51.562,-21.354 51.562,-43.491c0,-13.28 -10.417,-21.613 -25.262,-21.613c-28.646,0 -51.563,21.092 -51.563,43.488c0,13.541 11.2,21.616 25.263,21.616" style="fill-rule:nonzero;"/></g><g><path d="M506.397,1337.03c-1.563,5.209 -13.8,10.417 -19.792,10.417c-1.562,0 -2.862,-0.521 -3.125,-1.304c-0.521,-1.042 -0.779,-6.771 -0.779,-13.021c0,-8.071 0.258,-17.188 0.779,-19.271c0.521,-4.425 12.5,-9.896 19.013,-9.896c1.821,0 3.383,0.521 3.904,1.563c0.521,1.304 1.042,7.812 1.042,14.846c-0,7.029 -0.521,14.32 -1.042,16.666m17.971,-42.45c1.821,-0.779 3.125,-2.862 3.125,-4.425l-0,-18.491c-0,-1.3 -0.784,-2.084 -1.825,-2.084c-0.521,0 -0.779,0 -1.3,0.263c-0,-0 -5.209,2.083 -6.513,2.341c-1.821,0.001 -3.646,-1.299 -3.646,-3.383l0,-31.771c0,-1.562 -1.562,-2.866 -3.645,-2.866c-2.605,-0 -4.167,1.304 -4.167,2.866l-0,33.855c-0.258,2.604 -1.042,5.987 -3.383,7.55c-3.125,1.825 -11.98,5.47 -16.409,6.512c-2.341,0 -3.125,-3.125 -3.125,-5.208l0,-31.25c0,-1.563 -1.821,-2.867 -3.646,-2.867c-2.604,0 -4.166,1.304 -4.166,2.867l-0,35.154c-0,3.646 -1.563,6.25 -3.125,7.033c-1.563,0.779 -6.771,2.863 -6.771,2.863c-1.821,0.521 -3.125,2.604 -3.125,4.166l-0,18.492c-0,1.563 0.783,2.342 2.083,2.342c1.042,-0 5.992,-2.342 6.771,-2.863c0.263,0 0.521,-0.262 0.783,-0.262c1.821,-0 3.384,2.604 3.384,4.687l-0,25.784c-0,2.862 -1.3,5.208 -2.863,5.987c-1.562,0.521 -7.033,2.867 -7.033,2.867c-1.821,0.521 -3.125,2.604 -3.125,4.166l-0,18.488c-0,1.562 0.783,2.346 2.083,2.346c0.263,-0 0.784,-0.263 1.042,-0.263c-0,0 3.646,-1.562 5.992,-2.341c0.258,-0.263 0.52,-0.263 0.779,-0.263c1.825,0 3.125,2.867 3.125,4.167l-0,32.033c-0,1.563 1.562,2.863 3.387,2.863c2.604,-0 4.425,-1.3 4.425,-2.863l0,-36.2c0,-3.383 1.304,-5.208 2.604,-5.729l15.888,-6.508c0.258,-0 0.779,-0.263 1.042,-0.263c2.083,0 3.383,3.125 3.383,4.688l-0,32.554c-0,1.562 1.562,2.862 3.387,2.862c2.863,0 4.425,-1.3 4.425,-2.862l0,-36.979c0,-2.084 1.042,-5.209 2.867,-5.992c1.821,-0.779 7.292,-2.863 7.292,-2.863c1.821,-0.783 3.125,-2.866 3.125,-4.429l-0,-18.487c-0,-1.304 -0.784,-2.084 -1.825,-2.084c-0.521,0 -0.779,0 -1.3,0.259l-6.771,2.604c-1.563,-0 -3.388,-1.563 -3.388,-4.688l0,-24.216c0,-1.825 1.305,-6.771 3.388,-7.554l6.771,-2.605" style="fill-rule:nonzero;"/></g><g><path d="M568.855,1357.87c23.175,-0 51.563,-21.354 51.563,-43.492c-0,-13.279 -10.417,-21.612 -25.263,-21.612c-28.646,-0 -51.562,21.091 -51.562,43.487c-0,13.542 11.2,21.617 25.262,21.617" style="fill-rule:nonzero;"/></g><g><path d="M688.364,1369.33c-1.563,5.208 -13.8,10.417 -19.792,10.417c-1.563,-0 -2.863,-0.521 -3.125,-1.304c-0.521,-1.042 -0.779,-6.771 -0.779,-13.021c-0,-8.071 0.258,-17.188 0.779,-19.271c0.521,-4.425 12.5,-9.896 19.012,-9.896c1.821,0 3.384,0.521 3.905,1.563c0.52,1.304 1.041,7.812 1.041,14.845c0,7.029 -0.521,14.321 -1.041,16.667m17.97,-42.45c1.821,-0.779 3.125,-2.862 3.125,-4.425l0,-18.492c0,-1.3 -0.783,-2.083 -1.825,-2.083c-0.52,0 -0.779,0 -1.3,0.263c0,-0 -5.208,2.083 -6.512,2.341c-1.821,0 -3.646,-1.3 -3.646,-3.383l0,-31.771c0,-1.562 -1.562,-2.867 -3.646,-2.867c-2.604,0 -4.166,1.305 -4.166,2.867l-0,33.854c-0.259,2.604 -1.042,5.988 -3.384,7.55c-3.125,1.825 -11.979,5.471 -16.408,6.513c-2.342,-0 -3.125,-3.125 -3.125,-5.209l-0,-31.25c-0,-1.562 -1.821,-2.866 -3.646,-2.866c-2.604,-0 -4.167,1.304 -4.167,2.866l0,35.155c0,3.645 -1.562,6.25 -3.125,7.033c-1.562,0.779 -6.77,2.862 -6.77,2.862c-1.821,0.521 -3.125,2.605 -3.125,4.167l-0,18.492c-0,1.562 0.783,2.341 2.083,2.341c1.042,0 5.992,-2.341 6.771,-2.862c0.262,-0 0.521,-0.263 0.783,-0.263c1.821,0 3.383,2.605 3.383,4.688l0,25.783c0,2.863 -1.3,5.209 -2.862,5.988c-1.563,0.521 -7.033,2.866 -7.033,2.866c-1.821,0.521 -3.125,2.605 -3.125,4.167l-0,18.488c-0,1.562 0.783,2.345 2.083,2.345c0.262,0 0.783,-0.262 1.042,-0.262c-0,-0 3.645,-1.563 5.991,-2.342c0.259,-0.262 0.521,-0.262 0.779,-0.262c1.825,-0 3.125,2.866 3.125,4.166l0,32.034c0,1.562 1.563,2.862 3.388,2.862c2.604,0 4.425,-1.3 4.425,-2.862l-0,-36.2c-0,-3.384 1.304,-5.209 2.604,-5.729l15.888,-6.509c0.258,0 0.779,-0.262 1.041,-0.262c2.084,-0 3.384,3.125 3.384,4.687l-0,32.554c-0,1.563 1.562,2.863 3.387,2.863c2.863,-0 4.425,-1.3 4.425,-2.863l0,-36.979c0,-2.083 1.042,-5.208 2.867,-5.991c1.821,-0.78 7.291,-2.863 7.291,-2.863c1.821,-0.783 3.125,-2.867 3.125,-4.429l0,-18.488c0,-1.304 -0.783,-2.083 -1.825,-2.083c-0.52,0 -0.779,0 -1.3,0.258l-6.77,2.605c-1.563,-0 -3.388,-1.563 -3.388,-4.688l0,-24.217c0,-1.825 1.304,-6.77 3.388,-7.554l6.77,-2.604" style="fill-rule:nonzero;"/></g><g><path d="M750.818,1390.16c23.179,0 51.562,-21.354 51.562,-43.491c0,-13.28 -10.416,-21.613 -25.258,-21.613c-28.646,0 -51.563,21.092 -51.563,43.488c0,13.541 11.196,21.616 25.259,21.616" style="fill-rule:nonzero;"/></g><g><path d="M900.155,1422.45c23.175,0 51.563,-21.354 51.563,-43.492c-0,-13.279 -10.417,-21.612 -25.263,-21.612c-28.646,-0 -51.562,21.091 -51.562,43.487c-0,13.542 11.2,21.617 25.262,21.617" style="fill-rule:nonzero;"/></g><g><path d="M1049.49,1454.74c23.179,-0 51.562,-21.354 51.562,-43.492c0,-13.279 -10.417,-21.612 -25.258,-21.612c-28.646,-0 -51.563,21.091 -51.563,43.487c0,13.542 11.196,21.617 25.259,21.617" style="fill-rule:nonzero;"/></g><g><path d="M1198.81,1487.03c23.175,0 51.562,-21.354 51.562,-43.491c0,-13.28 -10.417,-21.613 -25.262,-21.613c-28.646,0 -51.563,21.092 -51.563,43.488c0,13.541 11.2,21.616 25.263,21.616" style="fill-rule:nonzero;"/></g><g><path d="M1348.15,1519.33c23.179,0 51.562,-21.354 51.562,-43.492c0,-13.279 -10.416,-21.612 -25.258,-21.612c-28.646,-0 -51.562,21.092 -51.562,43.487c-0,13.542 11.195,21.617 25.258,21.617" style="fill-rule:nonzero;"/></g><g><path d="M1467.8,1563.08c-1.563,5.208 -13.8,10.417 -19.792,10.417c-1.562,-0 -2.862,-0.521 -3.125,-1.304c-0.521,-1.042 -0.779,-6.771 -0.779,-13.021c0,-8.071 0.258,-17.188 0.779,-19.271c0.521,-4.425 12.5,-9.896 19.009,-9.896c1.825,0 3.387,0.521 3.908,1.563c0.521,1.304 1.042,7.812 1.042,14.845c-0,7.03 -0.521,14.321 -1.042,16.667m17.967,-42.45c1.825,-0.779 3.125,-2.862 3.125,-4.425l-0,-18.492c-0,-1.3 -0.78,-2.083 -1.821,-2.083c-0.521,0 -0.784,0 -1.304,0.263c-0,-0 -5.209,2.083 -6.509,2.341c-1.825,0 -3.646,-1.3 -3.646,-3.383l0,-31.771c0,-1.562 -1.562,-2.867 -3.645,-2.867c-2.605,0 -4.167,1.305 -4.167,2.867l-0,33.854c-0.263,2.604 -1.042,5.988 -3.388,7.55c-3.125,1.825 -11.975,5.471 -16.404,6.513c-2.341,-0 -3.125,-3.125 -3.125,-5.209l0,-31.25c0,-1.562 -1.821,-2.866 -3.646,-2.866c-2.604,-0 -4.166,1.304 -4.166,2.866l-0,35.155c-0,3.645 -1.563,6.25 -3.125,7.033c-1.563,0.779 -6.771,2.862 -6.771,2.862c-1.821,0.521 -3.125,2.605 -3.125,4.167l-0,18.492c-0,1.562 0.783,2.341 2.083,2.341c1.042,0 5.992,-2.341 6.771,-2.862c0.263,-0 0.521,-0.263 0.783,-0.263c1.821,0 3.384,2.605 3.384,4.688l-0,25.783c-0,2.863 -1.3,5.209 -2.863,5.988c-1.562,0.521 -7.033,2.866 -7.033,2.866c-1.821,0.521 -3.125,2.605 -3.125,4.167l-0,18.488c-0,1.562 0.783,2.345 2.083,2.345c0.263,0 0.784,-0.262 1.042,-0.262c-0,-0 3.646,-1.563 5.992,-2.342c0.258,-0.262 0.52,-0.262 0.779,-0.262c1.825,-0 3.125,2.866 3.125,4.166l-0,32.034c-0,1.562 1.562,2.862 3.387,2.862c2.604,0 4.425,-1.3 4.425,-2.862l0,-36.2c0,-3.384 1.304,-5.209 2.604,-5.729l15.884,-6.509c0.262,0 0.783,-0.262 1.041,-0.262c2.084,-0 3.388,3.125 3.388,4.687l-0,32.554c-0,1.563 1.562,2.863 3.383,2.863c2.867,-0 4.429,-1.3 4.429,-2.863l0,-36.979c0,-2.083 1.042,-5.208 2.863,-5.991c1.825,-0.78 7.292,-2.863 7.292,-2.863c1.825,-0.783 3.125,-2.867 3.125,-4.429l-0,-18.488c-0,-1.304 -0.78,-2.083 -1.821,-2.083c-0.521,0 -0.784,0 -1.304,0.258l-6.771,2.605c-1.563,-0 -3.384,-1.563 -3.384,-4.688l0,-24.217c0,-1.825 1.3,-6.77 3.384,-7.554l6.771,-2.604" style="fill-rule:nonzero;"/></g><g><path d="M1530.24,1583.91c23.179,0 51.562,-21.354 51.562,-43.491c0,-13.28 -10.416,-21.613 -25.258,-21.613c-28.646,0 -51.563,21.092 -51.563,43.488c0,13.541 11.196,21.616 25.259,21.616" style="fill-rule:nonzero;"/></g><g><path d="M1649.76,1595.37c-1.563,5.208 -13.805,10.416 -19.792,10.416c-1.563,0 -2.867,-0.52 -3.125,-1.304c-0.521,-1.041 -0.783,-6.771 -0.783,-13.021c-0,-8.07 0.262,-17.187 0.783,-19.27c0.521,-4.425 12.5,-9.896 19.008,-9.896c1.825,-0 3.388,0.521 3.909,1.562c0.52,1.304 1.041,7.813 1.041,14.846c0,7.029 -0.521,14.321 -1.041,16.667m17.966,-42.45c1.825,-0.779 3.125,-2.863 3.125,-4.425l0,-18.492c0,-1.3 -0.779,-2.083 -1.821,-2.083c-0.52,-0 -0.783,-0 -1.304,0.262c0,0 -5.208,2.084 -6.508,2.342c-1.825,-0 -3.646,-1.3 -3.646,-3.383l0,-31.771c0,-1.563 -1.562,-2.867 -3.646,-2.867c-2.604,0 -4.166,1.304 -4.166,2.867l-0,33.854c-0.263,2.604 -1.042,5.987 -3.388,7.55c-3.125,1.825 -11.979,5.471 -16.404,6.512c-2.346,0 -3.125,-3.125 -3.125,-5.208l-0,-31.25c-0,-1.562 -1.825,-2.867 -3.646,-2.867c-2.604,0 -4.167,1.305 -4.167,2.867l0,35.154c0,3.646 -1.562,6.25 -3.125,7.034c-1.562,0.779 -6.77,2.862 -6.77,2.862c-1.825,0.521 -3.125,2.604 -3.125,4.167l-0,18.491c-0,1.563 0.779,2.342 2.083,2.342c1.042,0 5.987,-2.342 6.771,-2.862c0.258,-0 0.521,-0.263 0.779,-0.263c1.825,0 3.387,2.604 3.387,4.688l0,25.783c0,2.862 -1.304,5.208 -2.866,5.987c-1.563,0.521 -7.029,2.867 -7.029,2.867c-1.825,0.521 -3.125,2.604 -3.125,4.167l-0,18.487c-0,1.563 0.779,2.346 2.083,2.346c0.258,0 0.779,-0.262 1.042,-0.262c-0,-0 3.645,-1.563 5.987,-2.342c0.263,-0.263 0.521,-0.263 0.783,-0.263c1.821,0 3.125,2.867 3.125,4.167l0,32.033c0,1.563 1.563,2.863 3.384,2.863c2.604,-0 4.429,-1.3 4.429,-2.863l-0,-36.2c-0,-3.383 1.3,-5.208 2.604,-5.729l15.883,-6.508c0.263,-0 0.784,-0.263 1.042,-0.263c2.083,0 3.388,3.125 3.388,4.688l-0,32.554c-0,1.563 1.562,2.863 3.383,2.863c2.867,-0 4.429,-1.3 4.429,-2.863l0,-36.979c0,-2.083 1.042,-5.208 2.863,-5.992c1.825,-0.779 7.291,-2.862 7.291,-2.862c1.825,-0.784 3.125,-2.867 3.125,-4.429l0,-18.488c0,-1.304 -0.779,-2.083 -1.821,-2.083c-0.52,-0 -0.783,-0 -1.304,0.258l-6.771,2.604c-1.562,0 -3.383,-1.562 -3.383,-4.687l0,-24.217c0,-1.825 1.3,-6.771 3.383,-7.554l6.771,-2.604" style="fill-rule:nonzero;"/></g><g><path d="M1712.21,1616.2c23.18,0 51.563,-21.354 51.563,-43.492c-0,-13.279 -10.417,-21.612 -25.258,-21.612c-28.646,-0 -51.563,21.092 -51.563,43.487c0,13.542 11.196,21.617 25.258,21.617" style="fill-rule:nonzero;"/></g><g><path d="M1861.55,1648.49c23.175,-0 51.562,-21.354 51.562,-43.492c0,-13.279 -10.416,-21.612 -25.262,-21.612c-28.646,-0 -51.563,21.091 -51.563,43.487c0,13.542 11.2,21.617 25.263,21.617" style="fill-rule:nonzero;"/></g><g><path d="M2010.88,1680.78c23.175,0 51.563,-21.354 51.563,-43.491c-0,-13.28 -10.417,-21.613 -25.263,-21.613c-28.645,0 -51.562,21.092 -51.562,43.488c-0,13.541 11.2,21.616 25.262,21.616" style="fill-rule:nonzero;"/></g><g><path d="M2160.2,1713.08c23.175,0 51.563,-21.354 51.563,-43.492c-0,-13.279 -10.417,-21.612 -25.263,-21.612c-28.646,-0 -51.562,21.092 -51.562,43.487c-0,13.542 11.2,21.617 25.262,21.617" style="fill-rule:nonzero;"/></g><g><path d="M2422.26,1664.12c2.862,-9.117 12.5,-10.417 20.57,-10.417c17.971,0 32.292,19.271 32.292,34.896c0,8.071 -3.383,15.362 -11.979,17.446c-2.604,0.783 -5.467,1.041 -8.071,1.041c-9.375,0 -19.012,-6.25 -24.479,-13.541c-5.208,-5.988 -9.117,-14.842 -9.117,-23.175c0,-2.084 0.263,-4.167 0.784,-6.25m27.341,-16.146c-34.633,-0 -56.25,14.321 -56.25,32.029c0,17.45 14.846,33.075 53.646,33.075c42.708,0 56.25,-14.846 56.25,-33.075c0,-18.487 -29.425,-32.029 -53.646,-32.029" style="fill-rule:nonzero;"/></g><g><path d="M135.664,1386.25c0.779,4.95 0.779,4.688 -3.909,6.25c-22.916,7.813 -37.758,28.388 -37.758,50.521c-0,23.437 12.237,40.104 29.946,46.096c2.083,0.779 5.208,1.562 7.033,1.562c2.083,0 3.125,-1.304 3.125,-2.866c0,-1.821 -2.083,-2.605 -3.908,-3.384c-10.938,-4.687 -18.75,-15.887 -18.75,-27.866c-0,-14.842 10.158,-26.042 26.041,-30.467c4.167,-1.042 4.688,-0.783 5.209,2.083l13.021,77.604c0.52,2.863 0.262,2.863 -3.646,3.646c-4.167,0.779 -9.375,1.3 -14.584,1.3c-45.57,0 -75,-25.258 -75,-61.458c0,-15.363 2.605,-35.938 24.221,-60.417c15.625,-17.446 27.604,-27.083 39.842,-36.979c2.604,-2.083 3.125,-1.821 3.646,1.042l5.471,33.333m28.383,-177.342c8.596,0 15.625,7.03 15.625,21.355c-0,28.904 -24.738,52.341 -45.313,70.312c-1.82,1.563 -2.862,1.3 -3.383,-2.083c-1.042,-6.771 -1.562,-15.625 -1.562,-23.959c-0,-40.625 18.75,-65.625 34.633,-65.625m-10.417,218.75c-0.521,-3.125 -0.258,-3.908 2.867,-3.645c21.092,1.82 38.542,19.529 38.542,42.445c-0,16.409 -9.896,29.688 -24.48,36.98c-3.125,1.562 -3.645,1.562 -4.166,-1.563l-12.763,-74.217m-14.062,-81.25c-0.521,-3.125 -0,-3.387 1.562,-4.95c28.125,-26.3 49.479,-59.375 49.479,-99.216c0,-22.659 -6.25,-45.054 -16.925,-60.679c-3.908,-5.73 -10.679,-13.021 -13.541,-13.021c-3.646,-0 -11.721,6.771 -16.929,12.5c-19.271,21.354 -25.521,53.908 -25.521,80.991c-0,15.105 1.825,32.03 3.646,42.709c0.52,3.125 0.783,3.646 -2.342,6.25c-37.5,30.987 -77.346,68.229 -77.346,120.833c0,45.313 30.992,88.279 94.792,88.279c5.991,0 12.762,-0.521 17.971,-1.562c2.862,-0.521 3.383,-0.779 3.904,2.346c3.125,17.445 7.033,40.104 7.033,52.341c0,38.542 -26.042,43.229 -41.408,43.229c-14.063,0 -20.834,-4.166 -20.834,-7.55c0,-1.825 2.346,-2.604 8.334,-4.429c8.075,-2.341 17.45,-9.375 17.45,-24.479c-0,-14.321 -9.117,-26.562 -25,-26.562c-17.45,-0 -27.867,13.804 -27.867,29.95c0,16.925 10.158,42.445 49.479,42.445c17.45,0 51.304,-7.812 51.304,-52.083c0,-14.842 -4.687,-39.583 -7.554,-55.729c-0.521,-3.125 -0.258,-2.863 3.388,-4.425c26.3,-10.417 43.75,-32.554 43.75,-61.979c-0,-33.334 -24.479,-62.763 -62.763,-62.763c-6.771,0 -6.771,0 -7.55,-4.687l-6.512,-37.759" style="fill-rule:nonzero;"/></g><g><text x="505.089px" y="1672.12px" style="font-family:'Bravura';font-size:260.417px;"></text></g><g><text x="1024.13px" y="1632.87px" style="font-family:'Bravura';font-size:260.417px;"></text></g><g><text x="1504.81px" y="1739.99px" style="font-family:'Bravura';font-size:260.417px;"></text></g><g><text x="1985.52px" y="1803.15px" style="font-family:'Bravura';font-size:260.417px;"></text></g><g><path d="M361.626,1519.58l0,-32.8l371.679,64.583l0,32.8l-371.679,-64.583" style="fill-rule:nonzero;"/></g><g><path d="M943.943,1212.3l-0,-32.709l306.421,48.438l-0,32.708l-306.421,-48.437" style="fill-rule:nonzero;"/></g><g><path d="M1391.94,1276.88l-0,-33.071l371.808,80.729l-0,33.071l-371.808,-80.729" style="fill-rule:nonzero;"/></g><g><path d="M1905.34,1406.05l-0,-32.342l306.416,16.146l0,32.342l-306.416,-16.146" style="fill-rule:nonzero;"/></g><g><path d="M853.58,1585.06l138.254,0l0,-10.325l-127.916,0l-0,-38.112l-10.338,-0" style="fill-rule:nonzero;"/></g><g><path d="M1255.53,1585.06l-122.112,0l-0,-10.325l111.771,0l-0,-38.112l10.341,-0" style="fill-rule:nonzero;"/></g><g><path d="M1301.58,1651.66l171.417,28.475l-0,-10.479l-161.079,-26.758l-0,-39.675l-10.338,-0" style="fill-rule:nonzero;"/></g><g><path d="M1768.92,1729.92l-155.259,-25.7l0,-10.483l144.934,24.816l-0,-37.071l10.325,0" style="fill-rule:nonzero;"/></g><g><path d="M1814.97,1713.08l138.921,27.734l-0,-10.559l-128.584,-25.667l0,-39.945l-10.337,-0" style="fill-rule:nonzero;"/></g><g><path d="M2216.93,1794.26l-122.787,-24.376l-0,-10.558l112.45,23.321l-0,-36.825l10.337,-0" style="fill-rule:nonzero;"/></g></g></svg>