<?xml version="1.0" encoding="UTF-8" standalone="no"?><!DOCTYPE svg PUBLIC "-//W3C//DTD SVG 1.1//EN" "http://www.w3.org/Graphics/SVG/1.1/DTD/svg11.dtd"><svg width="100%" height="100%" viewBox="0 0 6894 1743" version="1.1" xmlns="http://www.w3.org/2000/svg" xmlns:xlink="http://www.w3.org/1999/xlink" xml:space="preserve" xmlns:serif="http://www.serif.com/" style="fill-rule:evenodd;clip-rule:evenodd;stroke-miterlimit:2;"><g><g><path d="M9.41,614.904l6875,0" style="fill:none;stroke:#000;stroke-width:8.42px;"/><path d="M9.41,356.571l6875,-0" style="fill:none;stroke:#000;stroke-width:8.42px;"/><path d="M9.41,421.154l6875,0" style="fill:none;stroke:#000;stroke-width:8.42px;"/><path d="M9.41,485.738l6875,-0" style="fill:none;stroke:#000;stroke-width:8.42px;"/><path d="M9.41,550.321l6875,-0" style="fill:none;stroke:#000;stroke-width:8.42px;"/></g><g><path d="M3569.18,352.375l-0,266.721" style="fill:none;stroke:#000;stroke-width:10.33px;"/><path d="M6879.2,352.375l-0,266.721" style="fill:none;stroke:#000;stroke-width:10.33px;"/></g><g><path d="M434.539,501.854l0,263.663" style="fill:none;stroke:#000;stroke-width:7.75px;"/></g><g><path d="M335.843,744.071l128.517,-0" style="fill:none;stroke:#000;stroke-width:10.33px;"/><path d="M335.843,679.488l128.517,-0" style="fill:none;stroke:#000;stroke-width:10.33px;"/></g><g><path d="M648.993,496.479l0,236.746" style="fill:none;stroke:#000;stroke-width:7.75px;"/></g><g><path d="M565.402,744.071l113.408,-0" style="fill:none;stroke:#000;stroke-width:10.33px;"/><path d="M550.298,679.488l128.512,-0" style="fill:none;stroke:#000;stroke-width:10.33px;"/></g><g><path d="M863.448,491.087l-0,209.846" style="fill:none;stroke:#000;stroke-width:7.75px;"/></g><g><path d="M780.893,679.488l112.371,-0" style="fill:none;stroke:#000;stroke-width:10.33px;"/></g><g><path d="M1077.9,485.708l-0,215.225" style="fill:none;stroke:#000;stroke-width:7.75px;"/></g><g><path d="M995.348,679.488l112.241,-0" style="fill:none;stroke:#000;stroke-width:10.33px;"/></g><g><path d="M1292.22,436.871l-0,231.771" style="fill:none;stroke:#000;stroke-width:7.75px;"/></g><g><path d="M1208.63,679.488l113.408,-0" style="fill:none;stroke:#000;stroke-width:10.33px;"/></g><g><path d="M1540.01,396.517l0,239.833" style="fill:none;stroke:#000;stroke-width:7.75px;"/><path d="M1787.93,356.142l-0,215.625" style="fill:none;stroke:#000;stroke-width:7.75px;"/><path d="M1966.83,561.167l-0,183.008" style="fill:none;stroke:#000;stroke-width:7.75px;"/><path d="M2181.28,528.875l0,204.529" style="fill:none;stroke:#000;stroke-width:7.75px;"/><path d="M2395.61,496.583l0,226.055" style="fill:none;stroke:#000;stroke-width:7.75px;"/><path d="M2610.06,496.583l0,215.3" style="fill:none;stroke:#000;stroke-width:7.75px;"/><path d="M2824.26,464.292l-0,199.321" style="fill:none;stroke:#000;stroke-width:7.75px;"/><path d="M3072.04,432l0,199.333" style="fill:none;stroke:#000;stroke-width:7.75px;"/><path d="M3319.96,367.417l-0,231.612" style="fill:none;stroke:#000;stroke-width:7.75px;"/><path d="M3675.16,335.125l0,215.6" style="fill:none;stroke:#000;stroke-width:7.75px;"/><path d="M3889.62,302.838l0,226.362" style="fill:none;stroke:#000;stroke-width:7.75px;"/></g><g><path d="M3874.91,291.988l113.408,-0" style="fill:none;stroke:#000;stroke-width:10.33px;"/></g><g><path d="M4104.08,270.546l-0,237.129" style="fill:none;stroke:#000;stroke-width:7.75px;"/></g><g><path d="M4090.41,291.988l112.367,-0" style="fill:none;stroke:#000;stroke-width:10.33px;"/></g><g><path d="M4318.41,270.546l0,215.596" style="fill:none;stroke:#000;stroke-width:7.75px;"/></g><g><path d="M4304.87,291.988l112.371,-0" style="fill:none;stroke:#000;stroke-width:10.33px;"/></g><g><path d="M4532.87,238.254l0,247.496" style="fill:none;stroke:#000;stroke-width:7.75px;"/></g><g><path d="M4518.12,227.404l113.413,0" style="fill:none;stroke:#000;stroke-width:10.33px;"/><path d="M4519.16,291.988l112.371,-0" style="fill:none;stroke:#000;stroke-width:10.33px;"/></g><g><path d="M4780.62,205.963l0,271.712" style="fill:none;stroke:#000;stroke-width:7.75px;"/></g><g><path d="M4766.95,227.404l112.366,0" style="fill:none;stroke:#000;stroke-width:10.33px;"/><path d="M4750.83,291.988l128.512,-0" style="fill:none;stroke:#000;stroke-width:10.33px;"/></g><g><path d="M5028.53,141.379l0,328.225" style="fill:none;stroke:#000;stroke-width:7.75px;"/></g><g><path d="M4998.74,162.821l128.513,-0" style="fill:none;stroke:#000;stroke-width:10.33px;"/><path d="M4998.74,227.404l128.513,0" style="fill:none;stroke:#000;stroke-width:10.33px;"/><path d="M4998.74,291.988l128.513,-0" style="fill:none;stroke:#000;stroke-width:10.33px;"/></g><g><path d="M5276.45,141.379l-0,328.275" style="fill:none;stroke:#000;stroke-width:7.75px;"/></g><g><path d="M5246.66,162.821l128.513,-0" style="fill:none;stroke:#000;stroke-width:10.33px;"/><path d="M5246.66,227.404l128.513,0" style="fill:none;stroke:#000;stroke-width:10.33px;"/><path d="M5246.66,291.988l128.513,-0" style="fill:none;stroke:#000;stroke-width:10.33px;"/></g><g><path d="M5524.24,205.963l-0.004,279.837" style="fill:none;stroke:#000;stroke-width:7.75px;"/></g><g><path d="M5494.58,227.404l128.512,0" style="fill:none;stroke:#000;stroke-width:10.33px;"/><path d="M5494.58,291.988l128.512,-0" style="fill:none;stroke:#000;stroke-width:10.33px;"/></g><g><path d="M5772.16,238.254l-0.004,263.692" style="fill:none;stroke:#000;stroke-width:7.75px;"/></g><g><path d="M5742.49,227.404l128.513,0" style="fill:none;stroke:#000;stroke-width:10.33px;"/><path d="M5742.49,291.988l128.513,-0" style="fill:none;stroke:#000;stroke-width:10.33px;"/></g><g><path d="M6020.08,270.546l-0.004,215.596" style="fill:none;stroke:#000;stroke-width:7.75px;"/></g><g><path d="M5990.41,291.988l128.513,-0" style="fill:none;stroke:#000;stroke-width:10.33px;"/></g><g><path d="M6234.53,270.546l0,237.117" style="fill:none;stroke:#000;stroke-width:7.75px;"/></g><g><path d="M6220.99,291.988l112.371,-0" style="fill:none;stroke:#000;stroke-width:10.33px;"/></g><g><path d="M6448.99,302.838l0,226.362" style="fill:none;stroke:#000;stroke-width:7.75px;"/></g><g><path d="M6419.28,291.988l128.517,-0" style="fill:none;stroke:#000;stroke-width:10.33px;"/></g><g><path d="M6663.45,335.125l-0,215.6" style="fill:none;stroke:#000;stroke-width:7.75px;"/></g><g><path d="M385.152,256.308c-0,0 -0.263,1.042 -0.263,1.825c0,1.042 1.042,2.084 2.084,2.084c0.783,-0 1.304,-0.784 1.562,-1.042c0.263,-0.783 3.388,-11.458 4.95,-14.062c0.521,-1.042 1.042,-1.305 1.3,-1.305c0.521,0 0.783,1.042 0.783,1.825l0,37.238c0,3.125 -2.604,4.95 -5.208,4.95c-1.042,-0 -2.346,0.521 -2.346,2.083c0,1.563 1.304,2.084 3.388,2.084l21.875,-0c2.083,-0 2.083,-2.084 2.083,-2.084c0,0 0,-2.083 -2.083,-2.083c-1.825,-0 -4.167,-2.346 -4.167,-4.688l0,-54.166c0,-2.084 -0.783,-3.125 -2.604,-3.125c-1.825,-0 -3.388,0.521 -4.95,0.521c-2.604,-0 -3.125,-0 -5.208,-0.521c-1.042,-0 -2.342,1.562 -3.125,2.604l-8.071,27.862" style="fill-rule:nonzero;"/></g><g><path d="M640.331,271.154c-0,-1.825 -0.779,-2.083 -1.563,-2.083c-1.041,-0 -1.562,0.779 -1.82,1.562c-1.305,3.646 -4.167,8.334 -8.075,8.334c-0.521,-0 -1.042,-0 -1.563,-0.263l-3.904,-1.3c-2.604,-1.041 -8.854,-3.125 -14.063,-3.125c-1.825,0 -3.387,0.259 -4.95,0.779c2.867,-4.945 16.409,-11.458 19.271,-12.237c9.375,-1.304 17.188,-6.771 17.188,-16.929c-0,-6.25 -2.604,-10.417 -5.988,-13.542c-6.771,-5.467 -16.666,-6.25 -19.533,-6.25c-9.375,0 -16.925,0.521 -23.696,8.333c-1.825,2.084 -2.604,4.167 -2.604,6.25c-0,1.825 0.779,3.909 1.562,6.25c1.563,3.125 4.946,5.471 8.592,5.471c6.513,0 7.292,-6.25 7.292,-9.116c-0,-5.988 -6.509,-6.509 -6.509,-9.113c0,-1.825 2.605,-4.95 10.417,-4.95c12.238,0 16.404,10.158 16.404,13.283c0,4.688 -1.562,9.113 -4.166,12.759c-4.688,5.991 -13.28,8.075 -19.792,12.241c-7.292,4.425 -12.238,11.98 -14.583,20.313c-0,1.821 0.783,3.904 2.345,4.687c0.259,0.259 0.78,0.259 1.042,0.259c2.863,-0 4.425,-8.071 12.238,-8.071c5.208,-0 7.033,7.029 18.75,7.029c5.47,0 15.625,-0.521 17.708,-20.571" style="fill-rule:nonzero;"/></g><g><path d="M842.835,268.55l0,-27.867c0,-1.3 -0.262,-2.341 -1.562,-2.341c-1.042,-0 -1.825,0.258 -2.605,1.3l-7.812,15.104c-0.521,0.521 -1.304,1.304 -1.304,3.125l-0,10.679l-16.925,0c10.675,-8.854 27.341,-38.283 27.604,-39.846c-0,-0.258 0.258,-0.521 0.258,-0.779c0,-1.042 -1.041,-1.825 -1.821,-1.825c-1.304,0 -6.77,0.521 -9.116,0.521c-2.342,-0 -3.904,-0.521 -4.946,-0.521c-1.304,0 -3.125,0.521 -3.125,2.604c-0,16.667 -13.542,35.679 -16.929,40.367c-0.521,0.521 -1.042,1.3 -1.042,2.083c0,1.3 1.042,2.604 2.604,2.604l23.438,0l-0,8.071c-0,3.646 -2.084,4.688 -4.167,4.688c-2.342,-0 -3.383,1.041 -3.383,2.346c-0,1.299 0.521,2.862 2.862,2.862l22.396,-0c1.304,-0 2.604,-1.042 2.604,-2.863c0,-1.825 -1.562,-2.604 -2.862,-2.604c-1.304,0 -4.167,-0.783 -4.167,-4.95l0,-7.55l9.633,0c1.305,0 2.084,-1.041 2.084,-2.604c-0,-1.562 -0.521,-2.604 -2.084,-2.604l-9.633,-0" style="fill-rule:nonzero;"/></g><g><path d="M1057.28,268.55l-0,-27.867c-0,-1.3 -0.263,-2.341 -1.563,-2.341c-1.041,-0 -1.825,0.258 -2.604,1.3l-7.812,15.104c-0.521,0.521 -1.305,1.304 -1.305,3.125l0,10.679l-16.925,0c10.675,-8.854 27.342,-38.283 27.605,-39.846c-0,-0.258 0.258,-0.521 0.258,-0.779c-0,-1.042 -1.042,-1.825 -1.821,-1.825c-1.304,0 -6.771,0.521 -9.117,0.521c-2.341,-0 -3.904,-0.521 -4.945,-0.521c-1.305,0 -3.125,0.521 -3.125,2.604c-0,16.667 -13.542,35.679 -16.93,40.367c-0.52,0.521 -1.041,1.3 -1.041,2.083c-0,1.3 1.041,2.604 2.604,2.604l23.437,0l0,8.071c0,3.646 -2.083,4.688 -4.166,4.688c-2.342,-0 -3.384,1.041 -3.384,2.346c0,1.299 0.521,2.862 2.863,2.862l22.396,-0c1.304,-0 2.604,-1.042 2.604,-2.863c-0,-1.825 -1.563,-2.604 -2.863,-2.604c-1.304,0 -4.166,-0.783 -4.166,-4.95l-0,-7.55l9.633,0c1.304,0 2.083,-1.041 2.083,-2.604c0,-1.562 -0.52,-2.604 -2.083,-2.604l-9.633,-0" style="fill-rule:nonzero;"/></g><g><path d="M1242.84,256.308c0,0 -0.262,1.042 -0.262,1.825c-0,1.042 1.041,2.084 2.083,2.084c0.783,-0 1.304,-0.784 1.562,-1.042c0.263,-0.783 3.388,-11.458 4.95,-14.062c0.521,-1.042 1.042,-1.305 1.3,-1.305c0.521,0 0.784,1.042 0.784,1.825l-0,37.238c-0,3.125 -2.604,4.95 -5.209,4.95c-1.041,-0 -2.345,0.521 -2.345,2.083c-0,1.563 1.304,2.084 3.387,2.084l21.875,-0c2.083,-0 2.083,-2.084 2.083,-2.084c0,0 0,-2.083 -2.083,-2.083c-1.825,-0 -4.167,-2.346 -4.167,-4.688l0,-54.166c0,-2.084 -0.783,-3.125 -2.604,-3.125c-1.825,-0 -3.387,0.521 -4.95,0.521c-2.604,-0 -3.125,-0 -5.208,-0.521c-1.042,-0 -2.342,1.562 -3.125,2.604l-8.071,27.862" style="fill-rule:nonzero;"/></g><g><path d="M1531.35,271.154c-0,-1.825 -0.784,-2.083 -1.563,-2.083c-1.041,-0 -1.562,0.779 -1.825,1.562c-1.3,3.646 -4.166,8.334 -8.071,8.334c-0.52,-0 -1.041,-0 -1.562,-0.263l-3.908,-1.3c-2.605,-1.041 -8.855,-3.125 -14.063,-3.125c-1.821,0 -3.383,0.259 -4.946,0.779c2.863,-4.945 16.404,-11.458 19.271,-12.237c9.375,-1.304 17.188,-6.771 17.188,-16.929c-0,-6.25 -2.605,-10.417 -5.992,-13.542c-6.771,-5.467 -16.667,-6.25 -19.529,-6.25c-9.375,0 -16.929,0.521 -23.7,8.333c-1.821,2.084 -2.604,4.167 -2.604,6.25c-0,1.825 0.783,3.909 1.562,6.25c1.563,3.125 4.95,5.471 8.596,5.471c6.508,0 7.292,-6.25 7.292,-9.116c-0,-5.988 -6.513,-6.509 -6.513,-9.113c0,-1.825 2.604,-4.95 10.417,-4.95c12.241,0 16.408,10.158 16.408,13.283c0,4.688 -1.562,9.113 -4.167,12.759c-4.687,5.991 -13.283,8.075 -19.791,12.241c-7.292,4.425 -12.242,11.98 -14.584,20.313c0,1.821 0.78,3.904 2.342,4.687c0.263,0.259 0.783,0.259 1.042,0.259c2.866,-0 4.429,-8.071 12.241,-8.071c5.209,-0 7.03,7.029 18.75,7.029c5.467,0 15.625,-0.521 17.709,-20.571" style="fill-rule:nonzero;"/></g><g><path d="M1767.31,268.55l0,-27.867c0,-1.3 -0.262,-2.341 -1.562,-2.341c-1.042,-0 -1.825,0.258 -2.604,1.3l-7.813,15.104c-0.521,0.521 -1.304,1.304 -1.304,3.125l-0,10.679l-16.925,0c10.675,-8.854 27.342,-38.283 27.604,-39.846c0,-0.258 0.258,-0.521 0.258,-0.779c0,-1.042 -1.041,-1.825 -1.82,-1.825c-1.305,0 -6.771,0.521 -9.117,0.521c-2.342,-0 -3.904,-0.521 -4.946,-0.521c-1.304,0 -3.125,0.521 -3.125,2.604c0,16.667 -13.542,35.679 -16.929,40.367c-0.521,0.521 -1.042,1.3 -1.042,2.083c0,1.3 1.042,2.604 2.604,2.604l23.438,0l-0,8.071c-0,3.646 -2.083,4.688 -4.167,4.688c-2.341,-0 -3.383,1.041 -3.383,2.346c-0,1.299 0.521,2.862 2.862,2.862l22.396,-0c1.304,-0 2.604,-1.042 2.604,-2.863c0,-1.825 -1.562,-2.604 -2.862,-2.604c-1.304,0 -4.167,-0.783 -4.167,-4.95l0,-7.55l9.634,0c1.304,0 2.083,-1.041 2.083,-2.604c-0,-1.562 -0.521,-2.604 -2.083,-2.604l-9.634,-0" style="fill-rule:nonzero;"/></g><g><path d="M1986.43,256.308c-0,0 -0.259,1.042 -0.259,1.825c0,1.042 1.042,2.084 2.084,2.084c0.779,-0 1.3,-0.784 1.562,-1.042c0.259,-0.783 3.384,-11.458 4.946,-14.062c0.521,-1.042 1.042,-1.305 1.304,-1.305c0.521,0 0.779,1.042 0.779,1.825l0,37.238c0,3.125 -2.604,4.95 -5.208,4.95c-1.042,-0 -2.342,0.521 -2.342,2.083c0,1.563 1.3,2.084 3.384,2.084l21.875,-0c2.083,-0 2.083,-2.084 2.083,-2.084c0,0 0,-2.083 -2.083,-2.083c-1.821,-0 -4.167,-2.346 -4.167,-4.688l0,-54.166c0,-2.084 -0.779,-3.125 -2.604,-3.125c-1.821,-0 -3.383,0.521 -4.946,0.521c-2.604,-0 -3.125,-0 -5.208,-0.521c-1.042,-0 -2.346,1.562 -3.125,2.604l-8.075,27.862" style="fill-rule:nonzero;"/></g><g><path d="M2241.62,271.154c-0,-1.825 -0.78,-2.083 -1.563,-2.083c-1.042,-0 -1.562,0.779 -1.821,1.562c-1.304,3.646 -4.166,8.334 -8.075,8.334c-0.521,-0 -1.041,-0 -1.562,-0.263l-3.904,-1.3c-2.605,-1.041 -8.855,-3.125 -14.063,-3.125c-1.825,0 -3.387,0.259 -4.95,0.779c2.867,-4.945 16.408,-11.458 19.271,-12.237c9.375,-1.304 17.187,-6.771 17.187,-16.929c0,-6.25 -2.604,-10.417 -5.987,-13.542c-6.771,-5.467 -16.667,-6.25 -19.533,-6.25c-9.375,0 -16.925,0.521 -23.696,8.333c-1.825,2.084 -2.604,4.167 -2.604,6.25c-0,1.825 0.779,3.909 1.562,6.25c1.563,3.125 4.946,5.471 8.592,5.471c6.512,0 7.291,-6.25 7.291,-9.116c0,-5.988 -6.508,-6.509 -6.508,-9.113c0,-1.825 2.604,-4.95 10.417,-4.95c12.237,0 16.404,10.158 16.404,13.283c-0,4.688 -1.563,9.113 -4.167,12.759c-4.687,5.991 -13.279,8.075 -19.791,12.241c-7.292,4.425 -12.238,11.98 -14.584,20.313c0,1.821 0.784,3.904 2.346,4.687c0.258,0.259 0.779,0.259 1.042,0.259c2.862,-0 4.425,-8.071 12.237,-8.071c5.209,-0 7.034,7.029 18.75,7.029c5.471,0 15.625,-0.521 17.709,-20.571" style="fill-rule:nonzero;"/></g><g><path d="M2444.05,268.55l-0,-27.867c-0,-1.3 -0.263,-2.341 -1.563,-2.341c-1.042,-0 -1.825,0.258 -2.604,1.3l-7.813,15.104c-0.52,0.521 -1.304,1.304 -1.304,3.125l0,10.679l-16.925,0c10.675,-8.854 27.342,-38.283 27.604,-39.846c0,-0.258 0.259,-0.521 0.259,-0.779c-0,-1.042 -1.042,-1.825 -1.821,-1.825c-1.304,0 -6.771,0.521 -9.117,0.521c-2.341,-0 -3.904,-0.521 -4.946,-0.521c-1.304,0 -3.125,0.521 -3.125,2.604c0,16.667 -13.541,35.679 -16.929,40.367c-0.521,0.521 -1.041,1.3 -1.041,2.083c-0,1.3 1.041,2.604 2.604,2.604l23.437,0l0,8.071c0,3.646 -2.083,4.688 -4.166,4.688c-2.342,-0 -3.384,1.041 -3.384,2.346c0,1.299 0.521,2.862 2.863,2.862l22.396,-0c1.304,-0 2.604,-1.042 2.604,-2.863c-0,-1.825 -1.563,-2.604 -2.863,-2.604c-1.304,0 -4.166,-0.783 -4.166,-4.95l-0,-7.55l9.633,0c1.304,0 2.083,-1.041 2.083,-2.604c0,-1.562 -0.521,-2.604 -2.083,-2.604l-9.633,-0" style="fill-rule:nonzero;"/></g><g><path d="M2658.43,268.55l0,-27.867c0,-1.3 -0.262,-2.341 -1.562,-2.341c-1.042,-0 -1.825,0.258 -2.605,1.3l-7.812,15.104c-0.521,0.521 -1.304,1.304 -1.304,3.125l-0,10.679l-16.925,0c10.675,-8.854 27.341,-38.283 27.604,-39.846c-0,-0.258 0.258,-0.521 0.258,-0.779c0,-1.042 -1.041,-1.825 -1.821,-1.825c-1.304,0 -6.77,0.521 -9.116,0.521c-2.342,-0 -3.904,-0.521 -4.946,-0.521c-1.304,0 -3.125,0.521 -3.125,2.604c-0,16.667 -13.542,35.679 -16.929,40.367c-0.521,0.521 -1.042,1.3 -1.042,2.083c0,1.3 1.042,2.604 2.604,2.604l23.438,0l-0,8.071c-0,3.646 -2.084,4.688 -4.167,4.688c-2.342,-0 -3.383,1.041 -3.383,2.346c-0,1.299 0.521,2.862 2.862,2.862l22.396,-0c1.304,-0 2.604,-1.042 2.604,-2.863c0,-1.825 -1.562,-2.604 -2.862,-2.604c-1.304,0 -4.167,-0.783 -4.167,-4.95l0,-7.55l9.633,0c1.305,0 2.084,-1.041 2.084,-2.604c-0,-1.562 -0.521,-2.604 -2.084,-2.604l-9.633,-0" style="fill-rule:nonzero;"/></g><g><path d="M2843.91,256.308c0,0 -0.258,1.042 -0.258,1.825c-0,1.042 1.042,2.084 2.083,2.084c0.779,-0 1.3,-0.784 1.563,-1.042c0.258,-0.783 3.383,-11.458 4.946,-14.062c0.52,-1.042 1.041,-1.305 1.304,-1.305c0.521,0 0.779,1.042 0.779,1.825l-0,37.238c-0,3.125 -2.604,4.95 -5.208,4.95c-1.042,-0 -2.342,0.521 -2.342,2.083c-0,1.563 1.3,2.084 3.383,2.084l21.875,-0c2.084,-0 2.084,-2.084 2.084,-2.084c-0,0 -0,-2.083 -2.084,-2.083c-1.821,-0 -4.166,-2.346 -4.166,-4.688l-0,-54.166c-0,-2.084 -0.78,-3.125 -2.605,-3.125c-1.82,-0 -3.383,0.521 -4.945,0.521c-2.605,-0 -3.125,-0 -5.209,-0.521c-1.041,-0 -2.346,1.562 -3.125,2.604l-8.075,27.862" style="fill-rule:nonzero;"/></g><g><path d="M3132.36,271.154c0,-1.825 -0.779,-2.083 -1.562,-2.083c-1.042,-0 -1.563,0.779 -1.821,1.562c-1.304,3.646 -4.167,8.334 -8.075,8.334c-0.521,-0 -1.042,-0 -1.563,-0.263l-3.904,-1.3c-2.604,-1.041 -8.854,-3.125 -14.062,-3.125c-1.825,0 -3.388,0.259 -4.95,0.779c2.866,-4.945 16.408,-11.458 19.271,-12.237c9.375,-1.304 17.187,-6.771 17.187,-16.929c0,-6.25 -2.604,-10.417 -5.987,-13.542c-6.771,-5.467 -16.667,-6.25 -19.534,-6.25c-9.375,0 -16.925,0.521 -23.696,8.333c-1.825,2.084 -2.604,4.167 -2.604,6.25c0,1.825 0.779,3.909 1.563,6.25c1.562,3.125 4.946,5.471 8.591,5.471c6.513,0 7.292,-6.25 7.292,-9.116c0,-5.988 -6.508,-6.509 -6.508,-9.113c-0,-1.825 2.604,-4.95 10.416,-4.95c12.238,0 16.405,10.158 16.405,13.283c-0,4.688 -1.563,9.113 -4.167,12.759c-4.688,5.991 -13.279,8.075 -19.792,12.241c-7.291,4.425 -12.237,11.98 -14.583,20.313c-0,1.821 0.783,3.904 2.346,4.687c0.258,0.259 0.779,0.259 1.041,0.259c2.863,-0 4.425,-8.071 12.238,-8.071c5.208,-0 7.033,7.029 18.75,7.029c5.471,0 15.625,-0.521 17.708,-20.571" style="fill-rule:nonzero;"/></g><g><path d="M3368.33,268.492l-0,-27.867c-0,-1.3 -0.263,-2.342 -1.563,-2.342c-1.041,0 -1.825,0.259 -2.604,1.3l-7.812,15.104c-0.521,0.521 -1.304,1.305 -1.304,3.125l-0,10.68l-16.925,-0c10.675,-8.855 27.341,-38.284 27.604,-39.846c-0,-0.259 0.258,-0.521 0.258,-0.779c0,-1.042 -1.042,-1.825 -1.821,-1.825c-1.304,-0 -6.771,0.52 -9.116,0.52c-2.342,0 -3.905,-0.52 -4.946,-0.52c-1.304,-0 -3.125,0.52 -3.125,2.604c-0,16.666 -13.542,35.679 -16.929,40.366c-0.521,0.521 -1.042,1.3 -1.042,2.084c-0,1.3 1.042,2.604 2.604,2.604l23.438,-0l-0,8.071c-0,3.646 -2.084,4.687 -4.167,4.687c-2.342,0 -3.383,1.042 -3.383,2.346c-0,1.3 0.52,2.863 2.862,2.863l22.396,-0c1.304,-0 2.604,-1.042 2.604,-2.863c0,-1.825 -1.562,-2.604 -2.862,-2.604c-1.305,-0 -4.167,-0.783 -4.167,-4.95l-0,-7.55l9.633,-0c1.304,-0 2.084,-1.042 2.084,-2.604c-0,-1.563 -0.521,-2.604 -2.084,-2.604l-9.633,-0" style="fill-rule:nonzero;"/></g><g><path d="M3694.78,223.758c0,0 -0.262,1.042 -0.262,1.821c-0,1.042 1.041,2.084 2.083,2.084c0.783,-0 1.304,-0.78 1.562,-1.042c0.263,-0.779 3.388,-11.458 4.95,-14.063c0.521,-1.041 1.042,-1.3 1.3,-1.3c0.521,0 0.784,1.042 0.784,1.821l-0,37.242c-0,3.125 -2.604,4.946 -5.209,4.946c-1.041,-0 -2.345,0.521 -2.345,2.083c-0,1.563 1.304,2.083 3.387,2.083l21.875,0c2.083,0 2.083,-2.083 2.083,-2.083c0,0 0,-2.083 -2.083,-2.083c-1.825,-0 -4.167,-2.342 -4.167,-4.688l0,-54.167c0,-2.083 -0.783,-3.125 -2.604,-3.125c-1.825,0 -3.387,0.521 -4.95,0.521c-2.604,0 -3.125,0 -5.208,-0.52c-1.042,-0 -2.342,1.562 -3.125,2.604l-8.071,27.866" style="fill-rule:nonzero;"/></g><g><path d="M3949.91,205.496c0,-1.825 -0.783,-2.083 -1.562,-2.083c-1.042,-0 -1.563,0.779 -1.825,1.562c-1.3,3.646 -4.167,8.333 -8.071,8.333c-0.521,0 -1.042,0 -1.563,-0.262l-3.908,-1.3c-2.604,-1.042 -8.854,-3.125 -14.063,-3.125c-1.82,-0 -3.383,0.258 -4.945,0.779c2.862,-4.946 16.404,-11.458 19.27,-12.237c9.375,-1.305 17.188,-6.771 17.188,-16.93c-0,-6.25 -2.604,-10.416 -5.992,-13.541c-6.771,-5.467 -16.666,-6.25 -19.529,-6.25c-9.375,-0 -16.929,0.52 -23.7,8.333c-1.821,2.083 -2.604,4.167 -2.604,6.25c-0,1.825 0.783,3.908 1.562,6.25c1.563,3.125 4.95,5.471 8.596,5.471c6.509,-0 7.292,-6.25 7.292,-9.117c-0,-5.987 -6.513,-6.508 -6.513,-9.112c0,-1.825 2.605,-4.95 10.417,-4.95c12.242,-0 16.408,10.158 16.408,13.283c0,4.688 -1.562,9.112 -4.166,12.758c-4.688,5.992 -13.284,8.075 -19.792,12.242c-7.292,4.425 -12.242,11.979 -14.583,20.313c-0,1.82 0.779,3.904 2.341,4.687c0.263,0.258 0.784,0.258 1.042,0.258c2.867,0 4.429,-8.071 12.242,-8.071c5.208,0 7.029,7.03 18.75,7.03c5.466,-0 15.625,-0.521 17.708,-20.571" style="fill-rule:nonzero;"/></g><g><path d="M4152.41,171.617l0,-27.867c0,-1.3 -0.262,-2.342 -1.562,-2.342c-1.042,0 -1.825,0.259 -2.605,1.3l-7.812,15.105c-0.521,0.52 -1.304,1.304 -1.304,3.125l-0,10.679l-16.925,-0c10.675,-8.854 27.341,-38.284 27.604,-39.846c-0,-0.258 0.258,-0.521 0.258,-0.779c0,-1.042 -1.041,-1.825 -1.821,-1.825c-1.304,-0 -6.77,0.521 -9.116,0.521c-2.342,-0 -3.904,-0.521 -4.946,-0.521c-1.304,-0 -3.125,0.521 -3.125,2.604c-0,16.667 -13.542,35.679 -16.929,40.366c-0.521,0.521 -1.042,1.3 -1.042,2.084c0,1.3 1.042,2.604 2.604,2.604l23.438,-0l-0,8.071c-0,3.646 -2.084,4.687 -4.167,4.687c-2.342,0 -3.383,1.042 -3.383,2.346c-0,1.3 0.521,2.863 2.862,2.863l22.396,-0c1.304,-0 2.604,-1.042 2.604,-2.863c0,-1.825 -1.562,-2.604 -2.862,-2.604c-1.304,-0 -4.167,-0.783 -4.167,-4.95l0,-7.55l9.633,-0c1.305,-0 2.084,-1.042 2.084,-2.604c-0,-1.563 -0.521,-2.604 -2.084,-2.604l-9.633,-0" style="fill-rule:nonzero;"/></g><g><path d="M4366.83,171.617l-0,-27.867c-0,-1.3 -0.259,-2.342 -1.563,-2.342c-1.041,0 -1.821,0.259 -2.604,1.3l-7.812,15.105c-0.521,0.52 -1.3,1.304 -1.3,3.125l-0,10.679l-16.93,-0c10.68,-8.854 27.346,-38.284 27.605,-39.846c-0,-0.258 0.262,-0.521 0.262,-0.779c0,-1.042 -1.042,-1.825 -1.825,-1.825c-1.3,-0 -6.771,0.521 -9.112,0.521c-2.346,-0 -3.909,-0.521 -4.95,-0.521c-1.3,-0 -3.125,0.521 -3.125,2.604c-0,16.667 -13.542,35.679 -16.925,40.366c-0.521,0.521 -1.042,1.3 -1.042,2.084c-0,1.3 1.042,2.604 2.604,2.604l23.438,-0l-0,8.071c-0,3.646 -2.084,4.687 -4.167,4.687c-2.346,0 -3.388,1.042 -3.388,2.346c0,1.3 0.521,2.863 2.867,2.863l22.396,-0c1.3,-0 2.604,-1.042 2.604,-2.863c0,-1.825 -1.562,-2.604 -2.867,-2.604c-1.3,-0 -4.166,-0.783 -4.166,-4.95l-0,-7.55l9.637,-0c1.3,-0 2.084,-1.042 2.084,-2.604c-0,-1.563 -0.521,-2.604 -2.084,-2.604l-9.637,-0" style="fill-rule:nonzero;"/></g><g><path d="M4552.41,126.883c0,0 -0.262,1.042 -0.262,1.821c-0,1.042 1.041,2.084 2.083,2.084c0.783,-0 1.304,-0.78 1.562,-1.042c0.263,-0.779 3.388,-11.458 4.95,-14.063c0.521,-1.041 1.042,-1.3 1.3,-1.3c0.521,0 0.784,1.042 0.784,1.821l-0,37.242c-0,3.125 -2.604,4.946 -5.209,4.946c-1.041,-0 -2.345,0.521 -2.345,2.083c-0,1.563 1.304,2.083 3.387,2.083l21.875,0c2.083,0 2.083,-2.083 2.083,-2.083c0,0 0,-2.083 -2.083,-2.083c-1.825,-0 -4.167,-2.342 -4.167,-4.688l0,-54.166c0,-2.084 -0.783,-3.125 -2.604,-3.125c-1.825,-0 -3.387,0.52 -4.95,0.52c-2.604,0 -3.125,0 -5.208,-0.52c-1.042,-0 -2.342,1.562 -3.125,2.604l-8.071,27.866" style="fill-rule:nonzero;"/></g><g><path d="M4840.91,108.621c0,-1.825 -0.783,-2.083 -1.562,-2.083c-1.042,-0 -1.563,0.779 -1.825,1.562c-1.3,3.646 -4.167,8.333 -8.071,8.333c-0.521,0 -1.042,0 -1.563,-0.262l-3.908,-1.3c-2.604,-1.042 -8.854,-3.125 -14.063,-3.125c-1.82,-0 -3.383,0.258 -4.945,0.779c2.862,-4.946 16.404,-11.458 19.27,-12.237c9.375,-1.305 17.188,-6.771 17.188,-16.93c-0,-6.25 -2.604,-10.416 -5.992,-13.541c-6.771,-5.467 -16.666,-6.25 -19.529,-6.25c-9.375,-0 -16.929,0.52 -23.7,8.333c-1.821,2.083 -2.604,4.167 -2.604,6.25c-0,1.825 0.783,3.908 1.562,6.25c1.563,3.125 4.95,5.471 8.596,5.471c6.509,-0 7.292,-6.25 7.292,-9.117c-0,-5.987 -6.513,-6.508 -6.513,-9.112c0,-1.825 2.605,-4.95 10.417,-4.95c12.242,-0 16.408,10.158 16.408,13.283c0,4.688 -1.562,9.112 -4.166,12.758c-4.688,5.992 -13.284,8.075 -19.792,12.242c-7.292,4.425 -12.242,11.979 -14.583,20.313c-0,1.82 0.779,3.904 2.341,4.687c0.263,0.258 0.784,0.258 1.042,0.258c2.867,0 4.429,-8.071 12.242,-8.071c5.208,0 7.029,7.03 18.75,7.03c5.466,-0 15.625,-0.521 17.708,-20.571" style="fill-rule:nonzero;"/></g><g><path d="M5076.87,42.45l0,-27.867c0,-1.3 -0.262,-2.341 -1.562,-2.341c-1.042,-0 -1.825,0.258 -2.604,1.3l-7.813,15.104c-0.521,0.521 -1.304,1.304 -1.304,3.125l0,10.679l-16.925,0c10.675,-8.854 27.342,-38.283 27.604,-39.846c0,-0.258 0.259,-0.521 0.259,-0.779c-0,-1.042 -1.042,-1.825 -1.821,-1.825c-1.304,0 -6.771,0.521 -9.117,0.521c-2.342,-0 -3.904,-0.521 -4.946,-0.521c-1.304,0 -3.125,0.521 -3.125,2.604c0,16.667 -13.541,35.679 -16.929,40.367c-0.521,0.521 -1.042,1.3 -1.042,2.083c0,1.3 1.042,2.604 2.605,2.604l23.437,0l0,8.071c0,3.646 -2.083,4.688 -4.167,4.688c-2.341,-0 -3.383,1.041 -3.383,2.346c0,1.3 0.521,2.862 2.863,2.862l22.395,0c1.305,0 2.605,-1.042 2.605,-2.862c-0,-1.825 -1.563,-2.605 -2.863,-2.605c-1.304,0 -4.167,-0.783 -4.167,-4.95l0,-7.55l9.634,0c1.304,0 2.083,-1.041 2.083,-2.604c0,-1.562 -0.521,-2.604 -2.083,-2.604l-9.634,0" style="fill-rule:nonzero;"/></g><g><path d="M5324.78,42.45l0,-27.867c0,-1.3 -0.262,-2.341 -1.562,-2.341c-1.042,-0 -1.825,0.258 -2.605,1.3l-7.812,15.104c-0.521,0.521 -1.304,1.304 -1.304,3.125l-0,10.679l-16.925,0c10.675,-8.854 27.341,-38.283 27.604,-39.846c-0,-0.258 0.258,-0.521 0.258,-0.779c0,-1.042 -1.041,-1.825 -1.821,-1.825c-1.304,0 -6.77,0.521 -9.116,0.521c-2.342,-0 -3.904,-0.521 -4.946,-0.521c-1.304,0 -3.125,0.521 -3.125,2.604c-0,16.667 -13.542,35.679 -16.929,40.367c-0.521,0.521 -1.042,1.3 -1.042,2.083c0,1.3 1.042,2.604 2.604,2.604l23.438,0l-0,8.071c-0,3.646 -2.084,4.688 -4.167,4.688c-2.342,-0 -3.383,1.041 -3.383,2.346c-0,1.3 0.521,2.862 2.862,2.862l22.396,0c1.304,0 2.604,-1.042 2.604,-2.862c0,-1.825 -1.562,-2.605 -2.862,-2.605c-1.304,0 -4.167,-0.783 -4.167,-4.95l0,-7.55l9.633,0c1.305,0 2.084,-1.041 2.084,-2.604c-0,-1.562 -0.521,-2.604 -2.084,-2.604l-9.633,0" style="fill-rule:nonzero;"/></g><g><path d="M5584.66,108.621c0,-1.825 -0.779,-2.083 -1.562,-2.083c-1.042,-0 -1.563,0.779 -1.821,1.562c-1.304,3.646 -4.167,8.333 -8.075,8.333c-0.521,0 -1.042,0 -1.563,-0.262l-3.904,-1.3c-2.604,-1.042 -8.854,-3.125 -14.062,-3.125c-1.825,-0 -3.388,0.258 -4.95,0.779c2.866,-4.946 16.408,-11.458 19.27,-12.237c9.375,-1.305 17.188,-6.771 17.188,-16.93c-0,-6.25 -2.604,-10.416 -5.988,-13.541c-6.77,-5.467 -16.666,-6.25 -19.533,-6.25c-9.375,-0 -16.925,0.52 -23.696,8.333c-1.825,2.083 -2.604,4.167 -2.604,6.25c0,1.825 0.779,3.908 1.563,6.25c1.562,3.125 4.945,5.471 8.591,5.471c6.513,-0 7.292,-6.25 7.292,-9.117c-0,-5.987 -6.508,-6.508 -6.508,-9.112c-0,-1.825 2.604,-4.95 10.416,-4.95c12.238,-0 16.404,10.158 16.404,13.283c0,4.688 -1.562,9.112 -4.166,12.758c-4.688,5.992 -13.279,8.075 -19.792,12.242c-7.292,4.425 -12.237,11.979 -14.583,20.313c-0,1.82 0.783,3.904 2.346,4.687c0.258,0.258 0.779,0.258 1.041,0.258c2.863,0 4.425,-8.071 12.238,-8.071c5.208,0 7.033,7.03 18.75,7.03c5.471,-0 15.625,-0.521 17.708,-20.571" style="fill-rule:nonzero;"/></g><g><path d="M5791.83,126.883c-0,0 -0.259,1.042 -0.259,1.821c0,1.042 1.042,2.084 2.084,2.084c0.779,-0 1.3,-0.78 1.562,-1.042c0.259,-0.779 3.384,-11.458 4.946,-14.063c0.521,-1.041 1.042,-1.3 1.304,-1.3c0.521,0 0.779,1.042 0.779,1.821l0,37.242c0,3.125 -2.604,4.946 -5.208,4.946c-1.042,-0 -2.342,0.521 -2.342,2.083c0,1.563 1.3,2.083 3.384,2.083l21.875,0c2.083,0 2.083,-2.083 2.083,-2.083c0,0 0,-2.083 -2.083,-2.083c-1.821,-0 -4.167,-2.342 -4.167,-4.688l0,-54.166c0,-2.084 -0.779,-3.125 -2.604,-3.125c-1.821,-0 -3.383,0.52 -4.946,0.52c-2.604,0 -3.125,0 -5.208,-0.52c-1.042,-0 -2.346,1.562 -3.125,2.604l-8.075,27.866" style="fill-rule:nonzero;"/></g><g><path d="M6068.49,171.617l0,-27.867c0,-1.3 -0.258,-2.342 -1.562,-2.342c-1.042,0 -1.821,0.259 -2.604,1.3l-7.813,15.105c-0.521,0.52 -1.3,1.304 -1.3,3.125l0,10.679l-16.929,-0c10.679,-8.854 27.346,-38.284 27.604,-39.846c0,-0.258 0.263,-0.521 0.263,-0.779c-0,-1.042 -1.042,-1.825 -1.825,-1.825c-1.3,-0 -6.771,0.521 -9.113,0.521c-2.346,-0 -3.908,-0.521 -4.95,-0.521c-1.3,-0 -3.125,0.521 -3.125,2.604c0,16.667 -13.541,35.679 -16.925,40.366c-0.521,0.521 -1.041,1.3 -1.041,2.084c-0,1.3 1.041,2.604 2.604,2.604l23.437,-0l0,8.071c0,3.646 -2.083,4.687 -4.166,4.687c-2.346,0 -3.388,1.042 -3.388,2.346c0,1.3 0.521,2.863 2.867,2.863l22.396,-0c1.3,-0 2.604,-1.042 2.604,-2.863c-0,-1.825 -1.563,-2.604 -2.867,-2.604c-1.3,-0 -4.167,-0.783 -4.167,-4.95l0,-7.55l9.638,-0c1.3,-0 2.083,-1.042 2.083,-2.604c0,-1.563 -0.521,-2.604 -2.083,-2.604l-9.638,-0" style="fill-rule:nonzero;"/></g><g><path d="M6282.95,171.617l-0,-27.867c-0,-1.3 -0.259,-2.342 -1.563,-2.342c-1.041,0 -1.821,0.259 -2.604,1.3l-7.812,15.105c-0.521,0.52 -1.3,1.304 -1.3,3.125l-0,10.679l-16.93,-0c10.68,-8.854 27.346,-38.284 27.605,-39.846c-0,-0.258 0.262,-0.521 0.262,-0.779c0,-1.042 -1.042,-1.825 -1.825,-1.825c-1.3,-0 -6.771,0.521 -9.112,0.521c-2.346,-0 -3.909,-0.521 -4.95,-0.521c-1.3,-0 -3.125,0.521 -3.125,2.604c-0,16.667 -13.542,35.679 -16.925,40.366c-0.521,0.521 -1.042,1.3 -1.042,2.084c-0,1.3 1.042,2.604 2.604,2.604l23.438,-0l-0,8.071c-0,3.646 -2.084,4.687 -4.167,4.687c-2.346,0 -3.388,1.042 -3.388,2.346c0,1.3 0.521,2.863 2.867,2.863l22.396,-0c1.3,-0 2.604,-1.042 2.604,-2.863c0,-1.825 -1.562,-2.604 -2.867,-2.604c-1.3,-0 -4.166,-0.783 -4.166,-4.95l-0,-7.55l9.637,-0c1.3,-0 2.084,-1.042 2.084,-2.604c-0,-1.563 -0.521,-2.604 -2.084,-2.604l-9.637,-0" style="fill-rule:nonzero;"/></g><g><path d="M6509.33,205.496c-0,-1.825 -0.779,-2.083 -1.563,-2.083c-1.041,-0 -1.562,0.779 -1.821,1.562c-1.304,3.646 -4.166,8.333 -8.075,8.333c-0.52,0 -1.041,0 -1.562,-0.262l-3.904,-1.3c-2.604,-1.042 -8.854,-3.125 -14.063,-3.125c-1.825,-0 -3.387,0.258 -4.95,0.779c2.867,-4.946 16.409,-11.458 19.271,-12.237c9.375,-1.305 17.188,-6.771 17.188,-16.93c-0,-6.25 -2.605,-10.416 -5.988,-13.541c-6.771,-5.467 -16.667,-6.25 -19.533,-6.25c-9.375,-0 -16.925,0.52 -23.696,8.333c-1.825,2.083 -2.604,4.167 -2.604,6.25c-0,1.825 0.779,3.908 1.562,6.25c1.563,3.125 4.946,5.471 8.592,5.471c6.512,-0 7.292,-6.25 7.292,-9.117c-0,-5.987 -6.509,-6.508 -6.509,-9.112c0,-1.825 2.604,-4.95 10.417,-4.95c12.237,-0 16.404,10.158 16.404,13.283c0,4.688 -1.562,9.112 -4.167,12.758c-4.687,5.992 -13.279,8.075 -19.791,12.242c-7.292,4.425 -12.238,11.979 -14.584,20.313c0,1.82 0.784,3.904 2.346,4.687c0.259,0.258 0.779,0.258 1.042,0.258c2.862,0 4.425,-8.071 12.237,-8.071c5.209,0 7.034,7.03 18.75,7.03c5.471,-0 15.625,-0.521 17.709,-20.571" style="fill-rule:nonzero;"/></g><g><path d="M6683.08,223.758c-0,0 -0.259,1.042 -0.259,1.821c0,1.042 1.042,2.084 2.084,2.084c0.779,-0 1.3,-0.78 1.562,-1.042c0.259,-0.779 3.384,-11.458 4.946,-14.063c0.521,-1.041 1.042,-1.3 1.304,-1.3c0.521,0 0.779,1.042 0.779,1.821l0,37.242c0,3.125 -2.604,4.946 -5.208,4.946c-1.042,-0 -2.342,0.521 -2.342,2.083c0,1.563 1.3,2.083 3.384,2.083l21.875,0c2.083,0 2.083,-2.083 2.083,-2.083c0,0 0,-2.083 -2.083,-2.083c-1.821,-0 -4.167,-2.342 -4.167,-4.688l0,-54.167c0,-2.083 -0.779,-3.125 -2.604,-3.125c-1.821,0 -3.383,0.521 -4.946,0.521c-2.604,0 -3.125,0 -5.208,-0.52c-1.042,-0 -2.346,1.562 -3.125,2.604l-8.075,27.866" style="fill-rule:nonzero;"/></g><g><path d="M386.939,808.913c23.175,-0 51.563,-21.355 51.563,-43.488c-0,-13.283 -10.417,-21.617 -25.263,-21.617c-28.646,0 -51.562,21.096 -51.562,43.492c-0,13.542 11.2,21.613 25.262,21.613" style="fill-rule:nonzero;"/></g><g><path d="M513.418,765.163c0,-0 -0.779,-15.625 -0.779,-26.042c0,-4.167 0.259,-7.292 0.521,-8.333c1.821,-5.209 12.238,-12.759 18.229,-12.759c7.55,0 10.675,8.592 10.675,15.104c0,14.063 -11.979,28.125 -23.175,35.154c-1.041,0.521 -1.825,0.784 -2.604,0.784c-2.346,-0 -2.867,-2.604 -2.867,-3.909m-9.112,23.18c0.779,1.041 1.562,1.3 2.342,1.3c0.783,-0 1.562,-0.521 1.562,-0.521c7.813,-4.425 14.063,-11.458 20.575,-15.884c23.175,-16.145 31.25,-32.033 31.25,-44.012c0,-14.842 -11.458,-24.217 -23.437,-25c-4.43,0 -10.68,2.083 -14.325,4.429c-1.563,1.3 -4.425,3.646 -5.73,3.646c-0.52,0 -0.779,0 -1.3,-0.262c-1.825,-0.78 -2.866,-2.605 -2.866,-4.425c0.262,-5.73 1.825,-68.23 1.825,-73.438c-0,-2.867 -2.346,-4.429 -4.95,-4.429c-3.646,-0 -7.813,2.604 -8.071,7.292c-0,-0 1.042,148.7 3.125,151.304" style="fill-rule:nonzero;"/></g><g><path d="M601.381,776.621c23.179,-0 51.562,-21.354 51.562,-43.488c0,-13.283 -10.416,-21.616 -25.258,-21.616c-28.646,-0 -51.562,21.095 -51.562,43.491c-0,13.542 11.195,21.613 25.258,21.613" style="fill-rule:nonzero;"/></g><g><path d="M727.864,732.871c0,-0 -0.779,-15.625 -0.779,-26.042c0,-4.166 0.258,-7.291 0.521,-8.333c1.821,-5.208 12.237,-12.759 18.229,-12.759c7.55,0 10.675,8.592 10.675,15.105c0,14.062 -11.979,28.125 -23.175,35.154c-1.042,0.521 -1.825,0.783 -2.604,0.783c-2.346,0 -2.867,-2.604 -2.867,-3.908m-9.112,23.179c0.779,1.042 1.562,1.3 2.341,1.3c0.784,0 1.563,-0.521 1.563,-0.521c7.812,-4.425 14.062,-11.458 20.575,-15.883c23.175,-16.146 31.25,-32.033 31.25,-44.013c-0,-14.841 -11.458,-24.216 -23.438,-25c-4.429,0 -10.679,2.084 -14.325,4.43c-1.562,1.3 -4.425,3.645 -5.729,3.645c-0.521,0 -0.779,0 -1.3,-0.262c-1.825,-0.779 -2.866,-2.604 -2.866,-4.425c0.262,-5.729 1.825,-68.229 1.825,-73.438c-0,-2.866 -2.346,-4.429 -4.95,-4.429c-3.646,0 -7.813,2.604 -8.071,7.292c-0,-0 1.041,148.7 3.125,151.304" style="fill-rule:nonzero;"/></g><g><path d="M815.831,744.329c23.175,0 51.562,-21.354 51.562,-43.487c0,-13.284 -10.416,-21.617 -25.262,-21.617c-28.646,-0 -51.563,21.096 -51.563,43.492c0,13.541 11.2,21.612 25.263,21.612" style="fill-rule:nonzero;"/></g><g><path d="M954.76,701.621c0,-3.646 15.888,-10.417 22.138,-10.417c1.562,0 2.341,0.263 2.341,1.304l0,26.821c0,4.688 -14.841,10.679 -21.354,10.679c-1.821,0 -3.125,-0.52 -3.125,-1.562l0,-26.825m27.083,-36.979c-0.52,-0 -0.779,0.262 -1.041,0.262c-0,0 -16.667,5.988 -23.438,5.988c-1.562,-0 -2.604,-0.259 -2.604,-1.3l0,-43.492c0,-1.821 -1.562,-3.125 -3.125,-3.125l-3.383,0c-1.825,0 -3.125,1.304 -3.125,3.125l-0,134.117c-0,1.562 0.779,2.341 2.083,2.341c0.258,0 1.563,-0.258 1.821,-0.52c3.646,-1.563 18.229,-7.813 25.783,-7.813c2.604,0 4.425,0.783 4.425,2.867l0,38.8c0,1.825 1.304,3.125 3.125,3.125l3.388,-0c1.562,-0 3.125,-1.3 3.125,-3.125l-0,-130.729c-0,-1.3 -1.042,-2.084 -2.084,-2.084c-0.262,0 -0.783,0 -1.041,0.263l-3.909,1.3" style="fill-rule:nonzero;"/></g><g><path d="M1030.27,744.329c23.18,0 51.563,-21.354 51.563,-43.487c-0,-13.284 -10.417,-21.617 -25.258,-21.617c-28.646,-0 -51.563,21.096 -51.563,43.492c0,13.541 11.196,21.612 25.258,21.612" style="fill-rule:nonzero;"/></g><g><path d="M1182.17,691.204c-1.563,5.208 -13.805,10.417 -19.792,10.417c-1.563,-0 -2.867,-0.521 -3.125,-1.3c-0.521,-1.042 -0.783,-6.771 -0.783,-13.021c-0,-8.075 0.262,-17.188 0.783,-19.271c0.521,-4.429 12.5,-9.896 19.008,-9.896c1.825,0 3.388,0.521 3.909,1.563c0.52,1.3 1.041,7.812 1.041,14.841c0,7.034 -0.521,14.325 -1.041,16.667m17.966,-42.446c1.825,-0.783 3.125,-2.866 3.125,-4.429l0,-18.487c0,-1.305 -0.779,-2.084 -1.821,-2.084c-0.52,0 -0.783,0 -1.304,0.259c0,-0 -5.208,2.083 -6.508,2.345c-1.825,0 -3.646,-1.304 -3.646,-3.387l0,-31.771c0,-1.562 -1.562,-2.862 -3.646,-2.862c-2.604,-0 -4.166,1.3 -4.166,2.862l-0,33.854c-0.263,2.604 -1.042,5.992 -3.388,7.554c-3.125,1.821 -11.979,5.467 -16.404,6.509c-2.346,-0 -3.125,-3.125 -3.125,-5.209l-0,-31.25c-0,-1.562 -1.825,-2.862 -3.646,-2.862c-2.604,-0 -4.167,1.3 -4.167,2.862l0,35.159c0,3.646 -1.562,6.25 -3.125,7.029c-1.562,0.783 -6.77,2.867 -6.77,2.867c-1.825,0.52 -3.125,2.604 -3.125,4.166l-0,18.488c-0,1.562 0.779,2.346 2.083,2.346c1.042,-0 5.987,-2.346 6.771,-2.867c0.258,-0 0.521,-0.258 0.779,-0.258c1.825,-0 3.387,2.604 3.387,4.687l0,25.779c0,2.867 -1.304,5.209 -2.866,5.992c-1.563,0.521 -7.029,2.862 -7.029,2.862c-1.825,0.521 -3.125,2.605 -3.125,4.167l-0,18.492c-0,1.562 0.779,2.341 2.083,2.341c0.258,0 0.779,-0.258 1.042,-0.258c-0,0 3.645,-1.562 5.987,-2.346c0.263,-0.258 0.521,-0.258 0.783,-0.258c1.821,-0 3.125,2.862 3.125,4.167l0,32.029c0,1.562 1.563,2.866 3.384,2.866c2.604,0 4.429,-1.304 4.429,-2.866l-0,-36.196c-0,-3.388 1.3,-5.208 2.604,-5.729l15.883,-6.513c0.263,0 0.784,-0.258 1.042,-0.258c2.083,-0 3.388,3.125 3.388,4.687l-0,32.55c-0,1.563 1.562,2.867 3.383,2.867c2.867,0 4.429,-1.304 4.429,-2.867l0,-36.979c0,-2.083 1.042,-5.208 2.863,-5.987c1.825,-0.784 7.291,-2.867 7.291,-2.867c1.825,-0.779 3.125,-2.862 3.125,-4.425l0,-18.492c0,-1.3 -0.779,-2.083 -1.821,-2.083c-0.52,0 -0.783,0 -1.304,0.263l-6.771,2.604c-1.562,-0 -3.383,-1.563 -3.383,-4.688l0,-24.221c0,-1.82 1.3,-6.77 3.383,-7.55l6.771,-2.604" style="fill-rule:nonzero;"/></g><g><path d="M1244.62,712.038c23.18,-0 51.563,-21.355 51.563,-43.488c-0,-13.283 -10.417,-21.617 -25.258,-21.617c-28.646,0 -51.563,21.096 -51.563,43.492c0,13.542 11.196,21.613 25.258,21.613" style="fill-rule:nonzero;"/></g><g><path d="M1429.94,658.913c-1.562,5.208 -13.8,10.416 -19.791,10.416c-1.563,0 -2.863,-0.521 -3.125,-1.3c-0.521,-1.042 -0.779,-6.771 -0.779,-13.021c-0,-8.075 0.258,-17.187 0.779,-19.271c0.521,-4.429 12.5,-9.895 19.012,-9.895c1.821,-0 3.384,0.52 3.904,1.562c0.521,1.3 1.042,7.813 1.042,14.842c0,7.033 -0.521,14.325 -1.042,16.666m17.971,-42.445c1.821,-0.784 3.125,-2.867 3.125,-4.43l0,-18.487c0,-1.304 -0.783,-2.083 -1.825,-2.083c-0.521,-0 -0.779,-0 -1.3,0.258c0,-0 -5.208,2.083 -6.512,2.346c-1.821,-0 -3.646,-1.304 -3.646,-3.388l-0,-31.771c-0,-1.562 -1.563,-2.862 -3.646,-2.862c-2.604,-0 -4.167,1.3 -4.167,2.862l0,33.855c-0.258,2.604 -1.041,5.991 -3.383,7.554c-3.125,1.821 -11.979,5.466 -16.408,6.508c-2.342,0 -3.125,-3.125 -3.125,-5.208l-0,-31.25c-0,-1.563 -1.821,-2.863 -3.646,-2.863c-2.604,0 -4.167,1.3 -4.167,2.863l0,35.158c0,3.646 -1.562,6.25 -3.125,7.029c-1.562,0.784 -6.771,2.867 -6.771,2.867c-1.82,0.521 -3.125,2.604 -3.125,4.167l0,18.487c0,1.563 0.784,2.346 2.084,2.346c1.041,-0 5.991,-2.346 6.771,-2.867c0.262,0 0.52,-0.258 0.783,-0.258c1.821,-0 3.383,2.604 3.383,4.687l0,25.78c0,2.866 -1.3,5.208 -2.862,5.991c-1.563,0.521 -7.034,2.863 -7.034,2.863c-1.82,0.521 -3.125,2.604 -3.125,4.166l0,18.492c0,1.563 0.784,2.342 2.084,2.342c0.262,-0 0.783,-0.259 1.041,-0.259c0,0 3.646,-1.562 5.992,-2.345c0.258,-0.259 0.521,-0.259 0.779,-0.259c1.825,0 3.125,2.863 3.125,4.167l0,32.029c0,1.563 1.563,2.867 3.388,2.867c2.604,-0 4.425,-1.304 4.425,-2.867l-0,-36.196c-0,-3.387 1.304,-5.208 2.604,-5.729l15.887,-6.512c0.259,-0 0.78,-0.259 1.042,-0.259c2.083,0 3.383,3.125 3.383,4.688l0,32.55c0,1.562 1.563,2.866 3.388,2.866c2.862,0 4.425,-1.304 4.425,-2.866l-0,-36.979c-0,-2.084 1.042,-5.209 2.867,-5.988c1.82,-0.783 7.291,-2.867 7.291,-2.867c1.821,-0.779 3.125,-2.862 3.125,-4.425l0,-18.491c0,-1.3 -0.783,-2.084 -1.825,-2.084c-0.521,0 -0.779,0 -1.3,0.263l-6.771,2.604c-1.562,0 -3.387,-1.562 -3.387,-4.687l-0,-24.221c-0,-1.821 1.304,-6.771 3.387,-7.55l6.771,-2.604" style="fill-rule:nonzero;"/></g><g><path d="M1492.41,679.746c23.175,-0 51.562,-21.354 51.562,-43.488c0,-13.283 -10.416,-21.616 -25.262,-21.616c-28.646,-0 -51.563,21.095 -51.563,43.491c0,13.542 11.2,21.613 25.263,21.613" style="fill-rule:nonzero;"/></g><g><path d="M1740.31,615.163c23.175,-0 51.563,-21.355 51.563,-43.488c-0,-13.283 -10.417,-21.617 -25.263,-21.617c-28.646,0 -51.562,21.096 -51.562,43.492c-0,13.542 11.2,21.613 25.262,21.613" style="fill-rule:nonzero;"/></g><g><path d="M1988.23,582.871c23.175,-0 51.562,-21.354 51.562,-43.488c0,-13.283 -10.416,-21.616 -25.262,-21.616c-28.646,-0 -51.563,21.095 -51.563,43.491c0,13.542 11.2,21.613 25.263,21.613" style="fill-rule:nonzero;"/></g><g><path d="M2114.71,539.121c0,-0 -0.783,-15.625 -0.783,-26.042c-0,-4.166 0.262,-7.291 0.521,-8.333c1.825,-5.208 12.241,-12.758 18.229,-12.758c7.554,-0 10.679,8.591 10.679,15.104c-0,14.062 -11.979,28.125 -23.179,35.154c-1.042,0.521 -1.821,0.783 -2.604,0.783c-2.342,0 -2.863,-2.604 -2.863,-3.908m-9.117,23.179c0.784,1.042 1.563,1.3 2.346,1.3c0.779,0 1.563,-0.521 1.563,-0.521c7.812,-4.425 14.062,-11.458 20.571,-15.883c23.179,-16.146 31.25,-32.033 31.25,-44.013c-0,-14.841 -11.459,-24.216 -23.438,-25c-4.425,0 -10.675,2.084 -14.321,4.43c-1.562,1.3 -4.429,3.645 -5.729,3.645c-0.521,0 -0.783,0 -1.304,-0.262c-1.821,-0.779 -2.863,-2.604 -2.863,-4.425c0.259,-5.729 1.821,-68.229 1.821,-73.438c0,-2.866 -2.341,-4.429 -4.946,-4.429c-3.645,0 -7.812,2.604 -8.075,7.292c0,-0 1.042,148.7 3.125,151.304" style="fill-rule:nonzero;"/></g><g><path d="M2202.66,550.579c23.179,0 51.563,-21.354 51.563,-43.487c-0,-13.284 -10.417,-21.617 -25.259,-21.617c-28.645,0 -51.562,21.096 -51.562,43.492c-0,13.541 11.196,21.612 25.258,21.612" style="fill-rule:nonzero;"/></g><g><path d="M2329.09,506.829c0,0 -0.783,-15.625 -0.783,-26.041c-0,-4.167 0.262,-7.292 0.521,-8.334c1.825,-5.208 12.241,-12.758 18.229,-12.758c7.554,-0 10.679,8.591 10.679,15.104c-0,14.062 -11.979,28.125 -23.179,35.154c-1.042,0.521 -1.821,0.783 -2.604,0.783c-2.342,0 -2.863,-2.604 -2.863,-3.908m-9.117,23.179c0.784,1.042 1.563,1.3 2.346,1.3c0.779,0 1.563,-0.52 1.563,-0.52c7.812,-4.426 14.062,-11.459 20.571,-15.884c23.179,-16.146 31.25,-32.033 31.25,-44.012c-0,-14.842 -11.459,-24.217 -23.438,-25c-4.425,-0 -10.675,2.083 -14.321,4.429c-1.562,1.3 -4.429,3.646 -5.729,3.646c-0.521,-0 -0.783,-0 -1.304,-0.263c-1.821,-0.779 -2.863,-2.604 -2.863,-4.425c0.259,-5.729 1.821,-68.229 1.821,-73.437c0,-2.867 -2.341,-4.43 -4.946,-4.43c-3.645,0 -7.812,2.605 -8.075,7.292c0,0 1.042,148.7 3.125,151.304" style="fill-rule:nonzero;"/></g><g><path d="M2417.05,518.288c23.179,-0 51.562,-21.355 51.562,-43.488c0,-13.283 -10.416,-21.617 -25.258,-21.617c-28.646,0 -51.563,21.096 -51.563,43.492c0,13.542 11.196,21.613 25.259,21.613" style="fill-rule:nonzero;"/></g><g><path d="M2555.92,475.579c-0,-3.646 15.883,-10.416 22.133,-10.416c1.562,-0 2.346,0.262 2.346,1.304l-0,26.821c-0,4.687 -14.846,10.679 -21.354,10.679c-1.825,-0 -3.125,-0.521 -3.125,-1.563l-0,-26.825m27.083,-36.979c-0.521,0 -0.783,0.262 -1.042,0.262c0,0 -16.666,5.988 -23.437,5.988c-1.563,0 -2.604,-0.258 -2.604,-1.3l-0,-43.492c-0,-1.821 -1.563,-3.125 -3.125,-3.125l-3.388,0c-1.821,0 -3.125,1.304 -3.125,3.125l0,134.117c0,1.563 0.783,2.342 2.083,2.342c0.263,-0 1.563,-0.259 1.825,-0.521c3.646,-1.563 18.23,-7.813 25.78,-7.813c2.604,0 4.429,0.784 4.429,2.867l-0,38.8c-0,1.825 1.3,3.125 3.125,3.125l3.383,0c1.563,0 3.125,-1.3 3.125,-3.125l0,-130.729c0,-1.3 -1.042,-2.083 -2.083,-2.083c-0.259,-0 -0.779,-0 -1.042,0.262l-3.904,1.3" style="fill-rule:nonzero;"/></g><g><path d="M2631.43,518.288c23.179,-0 51.562,-21.355 51.562,-43.488c0,-13.283 -10.416,-21.617 -25.258,-21.617c-28.646,0 -51.563,21.096 -51.563,43.492c0,13.542 11.196,21.613 25.259,21.613" style="fill-rule:nonzero;"/></g><g><path d="M2783.25,465.163c-1.563,5.208 -13.804,10.416 -19.792,10.416c-1.562,0 -2.867,-0.521 -3.125,-1.3c-0.521,-1.042 -0.783,-6.771 -0.783,-13.021c-0,-8.075 0.262,-17.187 0.783,-19.271c0.521,-4.429 12.5,-9.895 19.008,-9.895c1.825,-0 3.388,0.52 3.909,1.562c0.521,1.3 1.041,7.813 1.041,14.842c0,7.033 -0.52,14.325 -1.041,16.667m17.966,-42.446c1.825,-0.784 3.125,-2.867 3.125,-4.429l0,-18.488c0,-1.304 -0.779,-2.083 -1.82,-2.083c-0.521,-0 -0.784,-0 -1.305,0.258c0,0 -5.208,2.083 -6.508,2.346c-1.825,-0 -3.646,-1.304 -3.646,-3.388l0,-31.771c0,-1.562 -1.562,-2.862 -3.646,-2.862c-2.604,0 -4.166,1.3 -4.166,2.863l-0,33.854c-0.263,2.604 -1.042,5.991 -3.388,7.554c-3.125,1.821 -11.979,5.467 -16.404,6.508c-2.346,0 -3.125,-3.125 -3.125,-5.208l0,-31.25c0,-1.563 -1.825,-2.863 -3.646,-2.863c-2.604,0 -4.166,1.3 -4.166,2.863l-0,35.158c-0,3.646 -1.563,6.25 -3.125,7.029c-1.563,0.784 -6.771,2.867 -6.771,2.867c-1.825,0.521 -3.125,2.604 -3.125,4.167l-0,18.487c-0,1.563 0.779,2.346 2.083,2.346c1.042,0 5.988,-2.346 6.771,-2.867c0.258,0 0.521,-0.258 0.779,-0.258c1.825,0 3.388,2.604 3.388,4.688l-0,25.779c-0,2.866 -1.305,5.208 -2.867,5.991c-1.563,0.521 -7.029,2.863 -7.029,2.863c-1.825,0.521 -3.125,2.604 -3.125,4.167l-0,18.491c-0,1.563 0.779,2.342 2.083,2.342c0.258,-0 0.779,-0.258 1.042,-0.258c-0,-0 3.646,-1.563 5.987,-2.346c0.263,-0.259 0.521,-0.259 0.784,-0.259c1.82,0 3.125,2.863 3.125,4.167l-0,32.029c-0,1.563 1.562,2.867 3.383,2.867c2.604,-0 4.429,-1.304 4.429,-2.867l0,-36.196c0,-3.387 1.3,-5.208 2.604,-5.729l15.884,-6.512c0.262,-0 0.783,-0.259 1.041,-0.259c2.084,0 3.388,3.125 3.388,4.688l-0,32.55c-0,1.562 1.562,2.867 3.383,2.867c2.867,-0 4.429,-1.305 4.429,-2.867l0,-36.979c0,-2.084 1.042,-5.209 2.863,-5.988c1.825,-0.783 7.291,-2.866 7.291,-2.866c1.825,-0.78 3.125,-2.863 3.125,-4.425l0,-18.492c0,-1.3 -0.779,-2.083 -1.82,-2.083c-0.521,-0 -0.784,-0 -1.305,0.262l-6.77,2.604c-1.563,0 -3.384,-1.562 -3.384,-4.687l0,-24.221c0,-1.821 1.3,-6.771 3.384,-7.55l6.77,-2.604" style="fill-rule:nonzero;"/></g><g><path d="M2845.7,485.996c23.179,-0 51.562,-21.354 51.562,-43.488c0,-13.283 -10.417,-21.616 -25.258,-21.616c-28.646,-0 -51.563,21.095 -51.563,43.491c0,13.542 11.196,21.613 25.259,21.613" style="fill-rule:nonzero;"/></g><g><path d="M3030.96,432.871c-1.562,5.208 -13.804,10.417 -19.792,10.417c-1.562,-0 -2.866,-0.521 -3.125,-1.3c-0.52,-1.042 -0.783,-6.771 -0.783,-13.021c0,-8.075 0.263,-17.188 0.783,-19.271c0.521,-4.429 12.5,-9.896 19.009,-9.896c1.825,0 3.387,0.521 3.908,1.563c0.521,1.3 1.042,7.812 1.042,14.841c-0,7.034 -0.521,14.325 -1.042,16.667m17.967,-42.446c1.825,-0.783 3.125,-2.867 3.125,-4.429l-0,-18.488c-0,-1.304 -0.779,-2.083 -1.821,-2.083c-0.521,0 -0.783,0 -1.304,0.258c-0,0 -5.209,2.084 -6.509,2.346c-1.825,0 -3.645,-1.304 -3.645,-3.387l-0,-31.771c-0,-1.563 -1.563,-2.863 -3.646,-2.863c-2.604,0 -4.167,1.3 -4.167,2.863l0,33.854c-0.262,2.604 -1.042,5.992 -3.387,7.554c-3.125,1.821 -11.98,5.467 -16.405,6.509c-2.345,-0 -3.125,-3.125 -3.125,-5.209l0,-31.25c0,-1.562 -1.825,-2.862 -3.645,-2.862c-2.605,-0 -4.167,1.3 -4.167,2.862l-0,35.159c-0,3.645 -1.563,6.25 -3.125,7.029c-1.563,0.783 -6.771,2.866 -6.771,2.866c-1.825,0.521 -3.125,2.605 -3.125,4.167l0,18.488c0,1.562 0.779,2.345 2.083,2.345c1.042,0 5.988,-2.345 6.771,-2.866c0.259,-0 0.521,-0.259 0.779,-0.259c1.825,0 3.388,2.605 3.388,4.688l-0,25.779c-0,2.867 -1.304,5.208 -2.867,5.992c-1.562,0.521 -7.029,2.862 -7.029,2.862c-1.825,0.521 -3.125,2.604 -3.125,4.167l0,18.492c0,1.562 0.779,2.341 2.083,2.341c0.259,0 0.78,-0.258 1.042,-0.258c0,-0 3.646,-1.563 5.988,-2.346c0.262,-0.258 0.52,-0.258 0.783,-0.258c1.821,-0 3.125,2.862 3.125,4.166l-0,32.03c-0,1.562 1.562,2.866 3.383,2.866c2.604,0 4.429,-1.304 4.429,-2.866l0,-36.196c0,-3.388 1.3,-5.209 2.605,-5.729l15.883,-6.513c0.262,0 0.783,-0.258 1.042,-0.258c2.083,-0 3.387,3.125 3.387,4.687l0,32.55c0,1.563 1.563,2.867 3.383,2.867c2.867,-0 4.43,-1.304 4.43,-2.867l-0,-36.979c-0,-2.083 1.041,-5.208 2.862,-5.987c1.825,-0.784 7.292,-2.867 7.292,-2.867c1.825,-0.779 3.125,-2.863 3.125,-4.425l-0,-18.492c-0,-1.3 -0.779,-2.083 -1.821,-2.083c-0.521,-0 -0.783,-0 -1.304,0.262l-6.771,2.605c-1.563,-0 -3.383,-1.563 -3.383,-4.688l-0,-24.221c-0,-1.821 1.3,-6.771 3.383,-7.55l6.771,-2.604" style="fill-rule:nonzero;"/></g><g><path d="M3093.42,453.704c23.175,0 51.562,-21.354 51.562,-43.487c0,-13.284 -10.417,-21.617 -25.262,-21.617c-28.646,0 -51.563,21.096 -51.563,43.492c0,13.541 11.2,21.612 25.263,21.612" style="fill-rule:nonzero;"/></g><g><path d="M3341.32,389.121c23.179,-0 51.562,-21.354 51.562,-43.488c0,-13.283 -10.417,-21.616 -25.258,-21.616c-28.646,-0 -51.563,21.096 -51.563,43.491c0,13.542 11.196,21.613 25.259,21.613" style="fill-rule:nonzero;"/></g><g><path d="M3696.58,356.829c23.175,0 51.562,-21.354 51.562,-43.487c0,-13.284 -10.416,-21.617 -25.262,-21.617c-28.646,0 -51.563,21.096 -51.563,43.492c0,13.541 11.2,21.612 25.263,21.612" style="fill-rule:nonzero;"/></g><g><path d="M3822.99,313.079c0,0 -0.779,-15.625 -0.779,-26.041c0,-4.167 0.259,-7.292 0.521,-8.334c1.821,-5.208 12.238,-12.758 18.229,-12.758c7.55,-0 10.675,8.591 10.675,15.104c0,14.063 -11.979,28.125 -23.175,35.154c-1.041,0.521 -1.825,0.784 -2.604,0.784c-2.346,-0 -2.867,-2.605 -2.867,-3.909m-9.112,23.179c0.779,1.042 1.562,1.3 2.342,1.3c0.783,0 1.562,-0.521 1.562,-0.521c7.813,-4.424 14.063,-11.458 20.575,-15.883c23.175,-16.146 31.25,-32.033 31.25,-44.012c0,-14.842 -11.458,-24.217 -23.437,-25c-4.43,-0 -10.68,2.083 -14.325,4.429c-1.563,1.3 -4.425,3.646 -5.73,3.646c-0.52,-0 -0.779,-0 -1.3,-0.263c-1.825,-0.779 -2.866,-2.604 -2.866,-4.425c0.262,-5.729 1.825,-68.229 1.825,-73.437c-0,-2.867 -2.346,-4.43 -4.95,-4.43c-3.646,0 -7.813,2.605 -8.071,7.292c-0,0 1.042,148.7 3.125,151.304" style="fill-rule:nonzero;"/></g><g><path d="M3910.95,324.538c23.175,-0 51.562,-21.355 51.562,-43.488c0,-13.283 -10.416,-21.617 -25.262,-21.617c-28.646,0 -51.563,21.096 -51.563,43.492c0,13.542 11.2,21.613 25.263,21.613" style="fill-rule:nonzero;"/></g><g><path d="M4037.45,280.788c-0,-0 -0.784,-15.625 -0.784,-26.042c0.005,-4.167 0.263,-7.292 0.525,-8.333c1.821,-5.209 12.238,-12.759 18.23,-12.759c7.55,0 10.675,8.592 10.675,15.104c-0,14.063 -11.98,28.125 -23.175,35.155c-1.042,0.52 -1.825,0.783 -2.605,0.783c-2.345,-0 -2.866,-2.604 -2.866,-3.909m-9.113,23.18c0.779,1.041 1.563,1.3 2.342,1.3c0.783,-0 1.562,-0.521 1.562,-0.521c7.813,-4.425 14.063,-11.459 20.575,-15.883c23.175,-16.146 31.25,-32.034 31.25,-44.013c0,-14.842 -11.458,-24.217 -23.437,-25c-4.429,-0 -10.679,2.083 -14.325,4.429c-1.563,1.3 -4.425,3.646 -5.729,3.646c-0.521,0 -0.779,0 -1.3,-0.263c-1.825,-0.779 -2.867,-2.604 -2.867,-4.424c0.263,-5.73 1.825,-68.23 1.825,-73.438c0,-2.867 -2.346,-4.429 -4.95,-4.429c-3.646,-0 -7.812,2.604 -8.071,7.292c0,-0 1.042,148.7 3.125,151.304" style="fill-rule:nonzero;"/></g><g><path d="M4125.41,292.246c23.175,-0 51.563,-21.354 51.563,-43.488c-0,-13.283 -10.417,-21.616 -25.263,-21.616c-28.646,-0 -51.562,21.096 -51.562,43.491c-0,13.542 11.2,21.613 25.262,21.613" style="fill-rule:nonzero;"/></g><g><path d="M4264.33,249.538c-0,-3.646 15.887,-10.417 22.137,-10.417c1.563,-0 2.342,0.262 2.342,1.304l-0,26.821c-0,4.687 -14.842,10.679 -21.354,10.679c-1.821,0 -3.125,-0.521 -3.125,-1.562l-0,-26.825m27.083,-36.98c-0.521,0 -0.779,0.263 -1.042,0.263c0,-0 -16.666,5.987 -23.437,5.987c-1.563,0 -2.604,-0.258 -2.604,-1.3l-0,-43.491c-0,-1.821 -1.563,-3.125 -3.125,-3.125l-3.384,-0c-1.825,-0 -3.125,1.304 -3.125,3.125l0,134.116c0,1.563 0.78,2.342 2.084,2.342c0.258,0 1.562,-0.258 1.821,-0.521c3.645,-1.562 18.229,-7.812 25.783,-7.812c2.604,-0 4.425,0.783 4.425,2.866l-0,38.8c-0,1.825 1.304,3.125 3.125,3.125l3.387,0c1.563,0 3.125,-1.3 3.125,-3.125l0,-130.729c0,-1.3 -1.041,-2.083 -2.083,-2.083c-0.262,-0 -0.783,-0 -1.042,0.262l-3.908,1.3" style="fill-rule:nonzero;"/></g><g><path d="M4339.83,292.246c23.179,-0 51.562,-21.354 51.562,-43.488c0,-13.283 -10.416,-21.616 -25.258,-21.616c-28.646,-0 -51.563,21.096 -51.563,43.491c0,13.542 11.196,21.613 25.259,21.613" style="fill-rule:nonzero;"/></g><g><path d="M4491.74,239.121c-1.562,5.208 -13.8,10.417 -19.791,10.417c-1.563,-0 -2.863,-0.521 -3.125,-1.3c-0.521,-1.042 -0.779,-6.771 -0.779,-13.021c-0,-8.075 0.258,-17.188 0.779,-19.271c0.521,-4.429 12.5,-9.896 19.012,-9.896c1.821,0 3.384,0.521 3.904,1.563c0.521,1.3 1.042,7.812 1.042,14.841c0,7.034 -0.521,14.325 -1.042,16.667m17.971,-42.446c1.821,-0.783 3.125,-2.867 3.125,-4.429l0,-18.488c0,-1.304 -0.783,-2.083 -1.825,-2.083c-0.521,0 -0.779,0 -1.3,0.258c0,0 -5.208,2.084 -6.512,2.346c-1.821,0 -3.646,-1.304 -3.646,-3.387l-0,-31.771c-0,-1.563 -1.563,-2.863 -3.646,-2.863c-2.604,0 -4.167,1.3 -4.167,2.863l0,33.854c-0.258,2.604 -1.041,5.992 -3.383,7.554c-3.125,1.821 -11.979,5.467 -16.408,6.509c-2.342,-0 -3.125,-3.125 -3.125,-5.209l-0,-31.25c-0,-1.562 -1.821,-2.862 -3.646,-2.862c-2.604,-0 -4.167,1.3 -4.167,2.862l0,35.159c0,3.645 -1.562,6.25 -3.125,7.029c-1.562,0.783 -6.771,2.866 -6.771,2.866c-1.82,0.521 -3.125,2.605 -3.125,4.167l0,18.488c0,1.562 0.784,2.345 2.084,2.345c1.041,0 5.991,-2.345 6.771,-2.866c0.262,-0 0.52,-0.259 0.783,-0.259c1.821,0 3.383,2.605 3.383,4.688l0,25.779c0,2.867 -1.3,5.208 -2.862,5.992c-1.563,0.521 -7.034,2.862 -7.034,2.862c-1.82,0.521 -3.125,2.604 -3.125,4.167l0,18.492c0,1.562 0.784,2.341 2.084,2.341c0.262,0 0.783,-0.258 1.041,-0.258c0,-0 3.646,-1.563 5.992,-2.346c0.258,-0.258 0.521,-0.258 0.779,-0.258c1.825,-0 3.125,2.862 3.125,4.166l0,32.03c0,1.562 1.563,2.866 3.388,2.866c2.604,0 4.425,-1.304 4.425,-2.866l-0,-36.196c-0,-3.388 1.304,-5.209 2.604,-5.729l15.887,-6.513c0.259,0 0.78,-0.258 1.042,-0.258c2.083,-0 3.383,3.125 3.383,4.687l0,32.55c0,1.563 1.563,2.867 3.388,2.867c2.862,-0 4.425,-1.304 4.425,-2.867l-0,-36.979c-0,-2.083 1.042,-5.208 2.867,-5.988c1.82,-0.783 7.291,-2.866 7.291,-2.866c1.821,-0.779 3.125,-2.863 3.125,-4.425l0,-18.492c0,-1.3 -0.783,-2.083 -1.825,-2.083c-0.521,-0 -0.779,-0 -1.3,0.262l-6.771,2.604c-1.562,0 -3.387,-1.562 -3.387,-4.687l-0,-24.221c-0,-1.821 1.304,-6.771 3.387,-7.55l6.771,-2.604" style="fill-rule:nonzero;"/></g><g><path d="M4554.2,259.954c23.175,0 51.562,-21.354 51.562,-43.487c0,-13.284 -10.416,-21.617 -25.262,-21.617c-28.646,0 -51.563,21.096 -51.563,43.492c0,13.541 11.2,21.612 25.263,21.612" style="fill-rule:nonzero;"/></g><g><path d="M4739.53,206.829c-1.562,5.209 -13.804,10.417 -19.792,10.417c-1.562,-0 -2.866,-0.521 -3.125,-1.3c-0.52,-1.042 -0.783,-6.771 -0.783,-13.021c0.004,-8.075 0.263,-17.187 0.783,-19.271c0.521,-4.429 12.5,-9.896 19.013,-9.896c1.821,0 3.383,0.521 3.904,1.563c0.521,1.3 1.042,7.812 1.042,14.842c-0,7.033 -0.521,14.325 -1.042,16.666m17.971,-42.446c1.821,-0.783 3.121,-2.866 3.121,-4.429l-0,-18.487c-0,-1.304 -0.779,-2.084 -1.821,-2.084c-0.521,0 -0.783,0 -1.304,0.259c-0,-0 -5.209,2.083 -6.509,2.346c-1.825,-0 -3.645,-1.305 -3.645,-3.388l-0,-31.771c-0,-1.562 -1.563,-2.862 -3.646,-2.862c-2.604,-0 -4.167,1.3 -4.167,2.862l0,33.854c-0.262,2.605 -1.042,5.992 -3.387,7.555c-3.125,1.82 -11.98,5.466 -16.405,6.508c-2.345,-0 -3.125,-3.125 -3.125,-5.208l0,-31.25c0,-1.563 -1.825,-2.863 -3.645,-2.863c-2.605,0 -4.167,1.3 -4.167,2.863l-0,35.158c-0,3.646 -1.563,6.25 -3.125,7.029c-1.563,0.783 -6.771,2.867 -6.771,2.867c-1.825,0.521 -3.125,2.604 -3.125,4.166l0,18.488c0,1.562 0.779,2.346 2.083,2.346c1.042,-0 5.988,-2.346 6.771,-2.867c0.259,0 0.521,-0.258 0.779,-0.258c1.825,-0 3.388,2.604 3.388,4.687l-0,25.779c-0,2.867 -1.304,5.209 -2.867,5.992c-1.562,0.521 -7.029,2.863 -7.029,2.863c-1.825,0.52 -3.125,2.604 -3.125,4.166l0,18.492c0,1.562 0.779,2.342 2.083,2.342c0.259,-0 0.78,-0.259 1.042,-0.259c0,0 3.646,-1.562 5.988,-2.346c0.262,-0.258 0.52,-0.258 0.783,-0.258c1.821,0 3.125,2.863 3.125,4.167l-0,32.029c-0,1.562 1.562,2.867 3.383,2.867c2.604,-0 4.429,-1.305 4.429,-2.867l0,-36.196c0,-3.387 1.3,-5.208 2.605,-5.729l15.883,-6.513c0.262,0 0.783,-0.258 1.042,-0.258c2.083,0 3.387,3.125 3.387,4.688l0,32.55c0,1.562 1.563,2.866 3.383,2.866c2.867,0 4.43,-1.304 4.43,-2.866l-0,-36.98c-0,-2.083 1.041,-5.208 2.862,-5.987c1.825,-0.783 7.292,-2.867 7.292,-2.867c1.825,-0.779 3.125,-2.862 3.125,-4.425l-0,-18.491c-0,-1.3 -0.779,-2.084 -1.821,-2.084c-0.521,0 -0.783,0 -1.304,0.263l-6.771,2.604c-1.563,-0 -3.383,-1.563 -3.383,-4.688l-0,-24.22c-0,-1.821 1.3,-6.771 3.383,-7.55l6.771,-2.605" style="fill-rule:nonzero;"/></g><g><path d="M4801.99,227.663c23.175,-0 51.563,-21.355 51.563,-43.488c-0,-13.283 -10.417,-21.617 -25.263,-21.617c-28.645,0 -51.562,21.096 -51.562,43.492c-0,13.542 11.2,21.613 25.262,21.613" style="fill-rule:nonzero;"/></g><g><path d="M5049.87,163.079c23.175,0 51.563,-21.354 51.563,-43.487c-0,-13.284 -10.417,-21.617 -25.263,-21.617c-28.645,0 -51.562,21.096 -51.562,43.492c-0,13.541 11.2,21.612 25.262,21.612" style="fill-rule:nonzero;"/></g><g><path d="M5297.78,163.079c23.179,0 51.563,-21.354 51.563,-43.487c-0,-13.284 -10.417,-21.617 -25.259,-21.617c-28.646,0 -51.562,21.096 -51.562,43.492c-0,13.541 11.196,21.612 25.258,21.612" style="fill-rule:nonzero;"/></g><g><path d="M5545.7,227.663c23.179,-0 51.562,-21.355 51.562,-43.488c0,-13.283 -10.416,-21.617 -25.258,-21.617c-28.646,0 -51.563,21.096 -51.563,43.492c0,13.542 11.196,21.613 25.259,21.613" style="fill-rule:nonzero;"/></g><g><path d="M5793.62,259.954c23.18,0 51.563,-21.354 51.563,-43.487c-0,-13.284 -10.417,-21.617 -25.258,-21.617c-28.646,0 -51.563,21.096 -51.563,43.492c0,13.541 11.196,21.612 25.258,21.612" style="fill-rule:nonzero;"/></g><g><path d="M6041.53,292.246c23.179,-0 51.563,-21.354 51.563,-43.488c-0,-13.283 -10.417,-21.616 -25.259,-21.616c-28.646,-0 -51.562,21.096 -51.562,43.491c-0,13.542 11.196,21.613 25.258,21.613" style="fill-rule:nonzero;"/></g><g><path d="M6167.99,280.788c0,-0 -0.779,-15.625 -0.779,-26.042c0,-4.167 0.259,-7.292 0.521,-8.333c1.821,-5.209 12.238,-12.759 18.229,-12.759c7.55,0 10.675,8.592 10.675,15.104c0,14.063 -11.979,28.125 -23.175,35.155c-1.041,0.52 -1.825,0.783 -2.604,0.783c-2.346,-0 -2.867,-2.604 -2.867,-3.909m-9.112,23.18c0.779,1.041 1.562,1.3 2.342,1.3c0.783,-0 1.562,-0.521 1.562,-0.521c7.813,-4.425 14.063,-11.459 20.575,-15.883c23.175,-16.146 31.25,-32.034 31.25,-44.013c0,-14.842 -11.458,-24.217 -23.437,-25c-4.43,-0 -10.68,2.083 -14.325,4.429c-1.563,1.3 -4.425,3.646 -5.73,3.646c-0.52,0 -0.779,0 -1.3,-0.263c-1.825,-0.779 -2.866,-2.604 -2.866,-4.424c0.262,-5.73 1.825,-68.23 1.825,-73.438c-0,-2.867 -2.346,-4.429 -4.95,-4.429c-3.646,-0 -7.813,2.604 -8.071,7.292c-0,-0 1.042,148.7 3.125,151.304" style="fill-rule:nonzero;"/></g><g><path d="M6255.95,292.246c23.175,-0 51.562,-21.354 51.562,-43.488c0,-13.283 -10.416,-21.616 -25.262,-21.616c-28.646,-0 -51.563,21.096 -51.563,43.491c0,13.542 11.2,21.613 25.263,21.613" style="fill-rule:nonzero;"/></g><g><path d="M6470.41,324.538c23.175,-0 51.563,-21.355 51.563,-43.488c-0,-13.283 -10.417,-21.617 -25.263,-21.617c-28.646,0 -51.562,21.096 -51.562,43.492c-0,13.542 11.2,21.613 25.262,21.613" style="fill-rule:nonzero;"/></g><g><path d="M6684.87,356.829c23.18,0 51.563,-21.354 51.563,-43.487c-0,-13.284 -10.417,-21.617 -25.258,-21.617c-28.646,0 -51.563,21.096 -51.563,43.492c0,13.541 11.196,21.612 25.258,21.612" style="fill-rule:nonzero;"/></g><g><path d="M135.714,482.092c0.779,4.946 0.779,4.687 -3.908,6.25c-22.917,7.812 -37.763,28.383 -37.763,50.521c0,23.437 12.242,40.104 29.95,46.091c2.084,0.784 5.209,1.563 7.03,1.563c2.083,-0 3.125,-1.3 3.125,-2.863c-0,-1.825 -2.084,-2.604 -3.905,-3.387c-10.937,-4.688 -18.75,-15.884 -18.75,-27.863c0,-14.846 10.155,-26.041 26.042,-30.471c4.167,-1.041 4.688,-0.779 5.208,2.084l13.021,77.604c0.521,2.867 0.259,2.867 -3.646,3.646c-4.166,0.783 -9.375,1.304 -14.583,1.304c-45.575,-0 -75,-25.263 -75,-61.458c0,-15.367 2.604,-35.938 24.217,-60.417c15.625,-17.45 27.604,-27.083 39.846,-36.979c2.604,-2.084 3.125,-1.825 3.645,1.041l5.467,33.334m28.388,-177.346c8.591,-0 15.625,7.033 15.625,21.354c-0,28.908 -24.742,52.346 -45.313,70.313c-1.825,1.562 -2.867,1.304 -3.387,-2.084c-1.042,-6.771 -1.563,-15.625 -1.563,-23.958c0,-40.625 18.75,-65.625 34.638,-65.625m-10.417,218.75c-0.521,-3.125 -0.263,-3.904 2.862,-3.646c21.096,1.825 38.542,19.533 38.542,42.45c0,16.404 -9.896,29.688 -24.479,36.979c-3.125,1.563 -3.646,1.563 -4.167,-1.562l-12.758,-74.221m-14.063,-81.25c-0.52,-3.125 0,-3.383 1.563,-4.946c28.125,-26.304 49.479,-59.375 49.479,-99.221c0,-22.654 -6.25,-45.05 -16.929,-60.675c-3.904,-5.729 -10.675,-13.021 -13.542,-13.021c-3.646,0 -11.716,6.771 -16.925,12.5c-19.271,21.355 -25.521,53.905 -25.521,80.988c0,15.104 1.821,32.033 3.646,42.708c0.521,3.125 0.779,3.646 -2.346,6.25c-37.5,30.992 -77.341,68.229 -77.341,120.834c-0,45.312 30.987,88.283 94.791,88.283c5.988,-0 12.759,-0.521 17.967,-1.563c2.867,-0.52 3.388,-0.783 3.908,2.342c3.125,17.45 7.03,40.104 7.03,52.346c-0,38.542 -26.042,43.229 -41.405,43.229c-14.062,0 -20.833,-4.167 -20.833,-7.554c0,-1.821 2.342,-2.604 8.333,-4.425c8.071,-2.346 17.446,-9.375 17.446,-24.479c0,-14.325 -9.112,-26.563 -25,-26.563c-17.446,0 -27.862,13.8 -27.862,29.946c-0,16.929 10.154,42.45 49.479,42.45c17.446,-0 51.3,-7.813 51.3,-52.083c-0,-14.846 -4.688,-39.584 -7.55,-55.73c-0.521,-3.125 -0.263,-2.866 3.383,-4.429c26.304,-10.416 43.75,-32.55 43.75,-61.979c0,-33.333 -24.479,-62.758 -62.758,-62.758c-6.771,-0 -6.771,-0 -7.554,-4.688l-6.509,-37.762" style="fill-rule:nonzero;"/></g><g><text x="1467.11px" y="824.433px" style="font-family:'Bravura';font-size:260.417px;"></text></g><g><text x="3029.75px" y="766.383px" style="font-family:'Bravura';font-size:260.417px;"></text></g><g><text x="4738.24px" y="728.704px" style="font-family:'Bravura';font-size:260.417px;"></text></g><g><text x="5481.95px" y="728.704px" style="font-family:'Bravura';font-size:260.417px;"></text></g><g><path d="M430.764,518.017l0,-32.309l651.042,-16.146l-0,32.309l-651.042,16.146" style="fill-rule:nonzero;"/></g><g><path d="M430.764,566.467l0,-32.304l651.042,-16.146l-0,32.304l-651.042,16.146" style="fill-rule:nonzero;"/></g><g><path d="M1288.45,453.446l-0,-32.721l503.383,-80.729l-0,32.721l-503.383,80.729" style="fill-rule:nonzero;"/></g><g><path d="M1962.93,760.321l-0,-32.333l651.041,-32.292l0,32.333l-651.041,32.292" style="fill-rule:nonzero;"/></g><g><path d="M1962.93,711.817l-0,-32.329l651.041,-32.292l0,32.329l-651.041,32.292" style="fill-rule:nonzero;"/></g><g><path d="M2820.48,679.758l-0,-32.562l503.387,-64.583l0,32.562l-503.387,64.583" style="fill-rule:nonzero;"/></g><g><path d="M3671.24,566.871l0,-32.45l651.042,-64.583l0,32.45l-651.042,64.583" style="fill-rule:nonzero;"/></g><g><path d="M3671.24,518.183l0,-32.445l651.042,-64.584l0,32.446l-651.042,64.583" style="fill-rule:nonzero;"/></g><g><path d="M4528.95,501.896l-0,-32.304l503.383,-16.146l0,32.304l-503.383,16.146" style="fill-rule:nonzero;"/></g><g><path d="M5272.58,485.8l-0,-32.354l503.516,32.292l0,32.354l-503.516,-32.292" style="fill-rule:nonzero;"/></g><g><path d="M6016.33,502.288l-0,-32.45l651.041,64.583l0,32.45l-651.041,-64.583" style="fill-rule:nonzero;"/></g><g><path d="M6016.33,453.6l-0,-32.446l651.041,64.584l0,32.445l-651.041,-64.583" style="fill-rule:nonzero;"/></g><g><path d="M1198.08,776.621l236.721,-0l-0,-10.338l-226.434,0l0,-38.1l-10.287,0" style="fill-rule:nonzero;"/></g><g><path d="M1797.04,776.621l-220.704,-0l0,-10.338l210.288,0l-0,-38.1l10.416,0" style="fill-rule:nonzero;"/></g><g><path d="M9.41,1519.07l3408.6,-0" style="fill:none;stroke:#000;stroke-width:8.42px;"/><path d="M9.41,1260.74l3408.6,-0" style="fill:none;stroke:#000;stroke-width:8.42px;"/><path d="M9.41,1325.32l3408.6,-0" style="fill:none;stroke:#000;stroke-width:8.42px;"/><path d="M9.41,1389.9l3408.6,0" style="fill:none;stroke:#000;stroke-width:8.42px;"/><path d="M9.41,1454.49l3408.6,-0" style="fill:none;stroke:#000;stroke-width:8.42px;"/></g><g><path d="M2752.64,1256.54l0,266.721" style="fill:none;stroke:#000;stroke-width:10.33px;"/><path d="M3376.73,1256.54l-0,266.721" style="fill:none;stroke:#000;stroke-width:10.33px;"/><path d="M3412.93,1256.54l-0,266.721" style="fill:none;stroke:#000;stroke-width:10.33px;"/></g><g><path d="M365.531,1271.58l-0,231.85" style="fill:none;stroke:#000;stroke-width:7.75px;"/><path d="M547.56,1336.17l0,199.558" style="fill:none;stroke:#000;stroke-width:7.75px;"/><path d="M729.464,1368.46l0,199.559" style="fill:none;stroke:#000;stroke-width:7.75px;"/><path d="M890.531,1400.75l-0,215.375" style="fill:none;stroke:#000;stroke-width:7.75px;"/><path d="M1066.57,1400.75l-0,227.188" style="fill:none;stroke:#000;stroke-width:7.75px;"/><path d="M1242.74,1433.04l0,206.704" style="fill:none;stroke:#000;stroke-width:7.75px;"/><path d="M1371.91,1465.33l0,183.084" style="fill:none;stroke:#000;stroke-width:7.75px;"/><path d="M1570.09,1259.95l0,215.979" style="fill:none;stroke:#000;stroke-width:7.75px;"/><path d="M1752.12,1300.31l0,240.209" style="fill:none;stroke:#000;stroke-width:7.75px;"/><path d="M1934.15,1340.68l-0,232.125" style="fill:none;stroke:#000;stroke-width:7.75px;"/></g><g><path d="M1850.56,1583.65l113.412,0" style="fill:none;stroke:#000;stroke-width:10.33px;"/></g><g><path d="M2121,1389.86l-0,215.237" style="fill:none;stroke:#000;stroke-width:7.75px;"/></g><g><path d="M2038.32,1583.65l112.367,0" style="fill:none;stroke:#000;stroke-width:10.33px;"/></g><g><path d="M2322.69,1395.81l0,209.287" style="fill:none;stroke:#000;stroke-width:7.75px;"/></g><g><path d="M2240.14,1583.65l112.371,0" style="fill:none;stroke:#000;stroke-width:10.33px;"/></g><g><path d="M2524.51,1401.75l0,235.642" style="fill:none;stroke:#000;stroke-width:7.75px;"/></g><g><path d="M2440.92,1648.24l113.279,-0" style="fill:none;stroke:#000;stroke-width:10.33px;"/><path d="M2425.82,1583.65l128.384,0" style="fill:none;stroke:#000;stroke-width:10.33px;"/></g><g><path d="M2669.31,1406.01l-0,263.675" style="fill:none;stroke:#000;stroke-width:7.75px;"/></g><g><path d="M2570.48,1648.24l128.516,-0" style="fill:none;stroke:#000;stroke-width:10.33px;"/><path d="M2570.48,1583.65l128.516,0" style="fill:none;stroke:#000;stroke-width:10.33px;"/><path d="M2828.94,1648.24l161.588,-0" style="fill:none;stroke:#000;stroke-width:10.33px;"/><path d="M2828.94,1583.65l161.588,0" style="fill:none;stroke:#000;stroke-width:10.33px;"/></g><g><path d="M413.939,1172.66l0,-27.866c0,-1.3 -0.262,-2.342 -1.562,-2.342c-1.042,0 -1.825,0.258 -2.604,1.3l-7.813,15.104c-0.521,0.521 -1.304,1.304 -1.304,3.125l-0,10.679l-16.925,0c10.675,-8.854 27.342,-38.283 27.604,-39.846c0,-0.258 0.258,-0.52 0.258,-0.779c0,-1.041 -1.041,-1.825 -1.82,-1.825c-1.305,0 -6.771,0.521 -9.117,0.521c-2.342,0 -3.904,-0.521 -4.946,-0.521c-1.304,0 -3.125,0.521 -3.125,2.604c0,16.667 -13.542,35.68 -16.929,40.367c-0.521,0.521 -1.042,1.3 -1.042,2.084c0,1.299 1.042,2.604 2.604,2.604l23.438,-0l-0,8.07c-0,3.646 -2.083,4.688 -4.167,4.688c-2.341,-0 -3.383,1.042 -3.383,2.346c-0,1.3 0.521,2.862 2.862,2.862l22.396,0c1.304,0 2.604,-1.041 2.604,-2.862c0,-1.825 -1.562,-2.604 -2.862,-2.604c-1.304,-0 -4.167,-0.784 -4.167,-4.95l0,-7.55l9.634,-0c1.304,-0 2.083,-1.042 2.083,-2.604c-0,-1.563 -0.521,-2.605 -2.083,-2.605l-9.634,0" style="fill-rule:nonzero;"/></g><g><path d="M607.852,1175.32c-0,-1.825 -0.784,-2.083 -1.563,-2.083c-1.041,-0 -1.562,0.779 -1.825,1.562c-1.3,3.646 -4.166,8.333 -8.071,8.333c-0.52,0 -1.041,0 -1.562,-0.262l-3.908,-1.3c-2.605,-1.042 -8.855,-3.125 -14.063,-3.125c-1.821,-0 -3.383,0.258 -4.946,0.779c2.863,-4.946 16.404,-11.458 19.271,-12.237c9.375,-1.305 17.188,-6.771 17.188,-16.93c-0,-6.25 -2.605,-10.416 -5.992,-13.541c-6.771,-5.467 -16.667,-6.25 -19.529,-6.25c-9.375,-0 -16.929,0.521 -23.7,8.333c-1.821,2.083 -2.604,4.167 -2.604,6.25c-0,1.825 0.783,3.908 1.562,6.25c1.563,3.125 4.95,5.471 8.596,5.471c6.508,-0 7.292,-6.25 7.292,-9.117c-0,-5.987 -6.513,-6.508 -6.513,-9.112c0,-1.825 2.604,-4.95 10.417,-4.95c12.241,-0 16.408,10.158 16.408,13.283c0,4.688 -1.562,9.113 -4.167,12.758c-4.687,5.992 -13.283,8.075 -19.791,12.242c-7.292,4.425 -12.242,11.979 -14.584,20.313c0,1.82 0.78,3.904 2.342,4.687c0.263,0.258 0.783,0.258 1.042,0.258c2.866,0 4.429,-8.07 12.241,-8.07c5.209,-0 7.03,7.029 18.75,7.029c5.467,-0 15.625,-0.521 17.709,-20.571" style="fill-rule:nonzero;"/></g><g><path d="M749.085,1160.48c0,0 -0.262,1.042 -0.262,1.825c-0,1.042 1.041,2.083 2.083,2.083c0.783,0 1.304,-0.783 1.562,-1.041c0.263,-0.784 3.388,-11.459 4.95,-14.063c0.521,-1.042 1.042,-1.304 1.3,-1.304c0.521,0 0.784,1.042 0.784,1.825l-0,37.238c-0,3.125 -2.604,4.949 -5.209,4.949c-1.041,0 -2.345,0.521 -2.345,2.084c-0,1.562 1.304,2.083 3.387,2.083l21.875,0c2.083,0 2.083,-2.083 2.083,-2.083c0,-0 0,-2.084 -2.083,-2.084c-1.825,0 -4.167,-2.345 -4.167,-4.687l0,-54.167c0,-2.083 -0.783,-3.125 -2.604,-3.125c-1.825,0 -3.387,0.521 -4.95,0.521c-2.604,0 -3.125,0 -5.208,-0.521c-1.042,0 -2.342,1.563 -3.125,2.604l-8.071,27.863" style="fill-rule:nonzero;"/></g><g><path d="M938.914,1172.72l0,-27.867c0,-1.3 -0.258,-2.342 -1.562,-2.342c-1.042,0 -1.821,0.259 -2.604,1.3l-7.813,15.105c-0.521,0.52 -1.3,1.304 -1.3,3.125l0,10.679l-16.929,-0c10.679,-8.854 27.346,-38.284 27.604,-39.846c0,-0.258 0.263,-0.521 0.263,-0.779c-0,-1.042 -1.042,-1.825 -1.825,-1.825c-1.3,-0 -6.771,0.521 -9.113,0.521c-2.346,-0 -3.908,-0.521 -4.95,-0.521c-1.3,-0 -3.125,0.521 -3.125,2.604c0,16.667 -13.542,35.679 -16.925,40.367c-0.521,0.52 -1.042,1.3 -1.042,2.083c0,1.3 1.042,2.604 2.605,2.604l23.437,0l0,8.071c0,3.646 -2.083,4.687 -4.167,4.687c-2.345,0 -3.387,1.042 -3.387,2.346c-0,1.3 0.521,2.863 2.867,2.863l22.395,-0c1.3,-0 2.605,-1.042 2.605,-2.863c-0,-1.825 -1.563,-2.604 -2.867,-2.604c-1.3,0 -4.167,-0.783 -4.167,-4.95l0,-7.55l9.638,0c1.3,0 2.083,-1.042 2.083,-2.604c0,-1.563 -0.521,-2.604 -2.083,-2.604l-9.638,-0" style="fill-rule:nonzero;"/></g><g><path d="M1115.01,1172.72l0,-27.867c0,-1.3 -0.262,-2.342 -1.562,-2.342c-1.042,0 -1.825,0.259 -2.605,1.3l-7.812,15.105c-0.521,0.52 -1.304,1.304 -1.304,3.125l-0,10.679l-16.925,-0c10.675,-8.854 27.341,-38.284 27.604,-39.846c-0,-0.258 0.258,-0.521 0.258,-0.779c0,-1.042 -1.041,-1.825 -1.821,-1.825c-1.304,-0 -6.77,0.521 -9.116,0.521c-2.342,-0 -3.904,-0.521 -4.946,-0.521c-1.304,-0 -3.125,0.521 -3.125,2.604c-0,16.667 -13.542,35.679 -16.929,40.367c-0.521,0.52 -1.042,1.3 -1.042,2.083c0,1.3 1.042,2.604 2.604,2.604l23.438,0l-0,8.071c-0,3.646 -2.084,4.687 -4.167,4.687c-2.342,0 -3.383,1.042 -3.383,2.346c-0,1.3 0.521,2.863 2.862,2.863l22.396,-0c1.304,-0 2.604,-1.042 2.604,-2.863c0,-1.825 -1.562,-2.604 -2.862,-2.604c-1.304,0 -4.167,-0.783 -4.167,-4.95l0,-7.55l9.633,0c1.305,0 2.084,-1.042 2.084,-2.604c-0,-1.563 -0.521,-2.604 -2.084,-2.604l-9.633,-0" style="fill-rule:nonzero;"/></g><g><path d="M1303.04,1175.32c0,-1.825 -0.783,-2.083 -1.562,-2.083c-1.042,-0 -1.563,0.779 -1.825,1.562c-1.3,3.646 -4.167,8.333 -8.071,8.333c-0.521,0 -1.042,0 -1.562,-0.262l-3.909,-1.3c-2.604,-1.042 -8.854,-3.125 -14.062,-3.125c-1.821,-0 -3.384,0.258 -4.946,0.779c2.862,-4.946 16.404,-11.458 19.271,-12.237c9.375,-1.305 17.187,-6.771 17.187,-16.93c0,-6.25 -2.604,-10.416 -5.991,-13.541c-6.771,-5.467 -16.667,-6.25 -19.53,-6.25c-9.375,-0 -16.929,0.521 -23.7,8.333c-1.82,2.083 -2.604,4.167 -2.604,6.25c0,1.825 0.784,3.908 1.563,6.25c1.562,3.125 4.95,5.471 8.596,5.471c6.508,-0 7.291,-6.25 7.291,-9.117c0,-5.987 -6.512,-6.508 -6.512,-9.112c-0,-1.825 2.604,-4.95 10.416,-4.95c12.242,-0 16.409,10.158 16.409,13.283c-0,4.688 -1.563,9.113 -4.167,12.758c-4.687,5.992 -13.283,8.075 -19.792,12.242c-7.291,4.425 -12.241,11.979 -14.583,20.313c0,1.82 0.779,3.904 2.342,4.687c0.262,0.258 0.783,0.258 1.041,0.258c2.867,0 4.43,-8.07 12.242,-8.07c5.208,-0 7.029,7.029 18.75,7.029c5.467,-0 15.625,-0.521 17.708,-20.571" style="fill-rule:nonzero;"/></g><g><path d="M1391.51,1160.48c-0,0 -0.258,1.042 -0.258,1.825c-0,1.042 1.041,2.083 2.083,2.083c0.779,0 1.3,-0.783 1.562,-1.041c0.259,-0.784 3.384,-11.459 4.946,-14.063c0.521,-1.042 1.042,-1.304 1.304,-1.304c0.521,0 0.78,1.042 0.78,1.825l-0,37.238c-0,3.125 -2.605,4.949 -5.209,4.949c-1.041,0 -2.341,0.521 -2.341,2.084c-0,1.562 1.3,2.083 3.383,2.083l21.875,0c2.083,0 2.083,-2.083 2.083,-2.083c0,-0 0,-2.084 -2.083,-2.084c-1.821,0 -4.167,-2.345 -4.167,-4.687l0,-54.167c0,-2.083 -0.779,-3.125 -2.604,-3.125c-1.821,0 -3.383,0.521 -4.946,0.521c-2.604,0 -3.125,0 -5.208,-0.521c-1.042,0 -2.346,1.563 -3.125,2.604l-8.075,27.863" style="fill-rule:nonzero;"/></g><g><path d="M1549.49,1172.72l0,-27.867c0,-1.3 -0.262,-2.342 -1.562,-2.342c-1.042,0 -1.825,0.259 -2.604,1.3l-7.813,15.105c-0.521,0.52 -1.304,1.304 -1.304,3.125l-0,10.679l-16.925,-0c10.675,-8.854 27.342,-38.284 27.604,-39.846c0,-0.258 0.258,-0.521 0.258,-0.779c0,-1.042 -1.041,-1.825 -1.82,-1.825c-1.305,-0 -6.771,0.521 -9.117,0.521c-2.342,-0 -3.904,-0.521 -4.946,-0.521c-1.304,-0 -3.125,0.521 -3.125,2.604c0,16.667 -13.542,35.679 -16.929,40.367c-0.521,0.52 -1.042,1.3 -1.042,2.083c0,1.3 1.042,2.604 2.604,2.604l23.438,0l-0,8.071c-0,3.646 -2.083,4.687 -4.167,4.687c-2.341,0 -3.383,1.042 -3.383,2.346c-0,1.3 0.521,2.863 2.862,2.863l22.396,-0c1.304,-0 2.604,-1.042 2.604,-2.863c0,-1.825 -1.562,-2.604 -2.862,-2.604c-1.304,0 -4.167,-0.783 -4.167,-4.95l0,-7.55l9.634,0c1.304,0 2.083,-1.042 2.083,-2.604c-0,-1.563 -0.521,-2.604 -2.083,-2.604l-9.634,-0" style="fill-rule:nonzero;"/></g><g><path d="M1743.39,1175.32c0,-1.825 -0.779,-2.083 -1.562,-2.083c-1.042,-0 -1.563,0.779 -1.821,1.562c-1.304,3.646 -4.167,8.333 -8.075,8.333c-0.521,0 -1.042,0 -1.562,-0.262l-3.905,-1.3c-2.604,-1.042 -8.854,-3.125 -14.062,-3.125c-1.825,-0 -3.388,0.258 -4.95,0.779c2.867,-4.946 16.408,-11.458 19.271,-12.237c9.375,-1.305 17.187,-6.771 17.187,-16.93c0,-6.25 -2.604,-10.416 -5.987,-13.541c-6.771,-5.467 -16.667,-6.25 -19.534,-6.25c-9.375,-0 -16.925,0.521 -23.695,8.333c-1.825,2.083 -2.605,4.167 -2.605,6.25c0,1.825 0.78,3.908 1.563,6.25c1.562,3.125 4.946,5.471 8.592,5.471c6.512,-0 7.291,-6.25 7.291,-9.117c0,-5.987 -6.508,-6.508 -6.508,-9.112c-0,-1.825 2.604,-4.95 10.417,-4.95c12.237,-0 16.404,10.158 16.404,13.283c-0,4.688 -1.563,9.113 -4.167,12.758c-4.687,5.992 -13.279,8.075 -19.792,12.242c-7.291,4.425 -12.237,11.979 -14.583,20.313c0,1.82 0.783,3.904 2.346,4.687c0.258,0.258 0.779,0.258 1.042,0.258c2.862,0 4.425,-8.07 12.237,-8.07c5.208,-0 7.033,7.029 18.75,7.029c5.471,-0 15.625,-0.521 17.708,-20.571" style="fill-rule:nonzero;"/></g><g><path d="M1884.76,1160.48c0,0 -0.258,1.042 -0.258,1.825c-0,1.042 1.041,2.083 2.083,2.083c0.779,0 1.3,-0.783 1.563,-1.041c0.258,-0.784 3.383,-11.459 4.945,-14.063c0.521,-1.042 1.042,-1.304 1.305,-1.304c0.52,0 0.779,1.042 0.779,1.825l-0,37.238c-0,3.125 -2.604,4.949 -5.209,4.949c-1.041,0 -2.341,0.521 -2.341,2.084c-0,1.562 1.3,2.083 3.383,2.083l21.875,0c2.083,0 2.083,-2.083 2.083,-2.083c0,-0 0,-2.084 -2.083,-2.084c-1.821,0 -4.167,-2.345 -4.167,-4.687l0,-54.167c0,-2.083 -0.779,-3.125 -2.604,-3.125c-1.821,0 -3.383,0.521 -4.946,0.521c-2.604,0 -3.125,0 -5.208,-0.521c-1.042,0 -2.346,1.563 -3.125,2.604l-8.075,27.863" style="fill-rule:nonzero;"/></g><g><path d="M2100.28,1172.72l-0,-27.867c-0,-1.3 -0.258,-2.342 -1.563,-2.342c-1.041,0 -1.82,0.259 -2.604,1.3l-7.812,15.105c-0.521,0.52 -1.3,1.304 -1.3,3.125l-0,10.679l-16.929,-0c10.679,-8.854 27.345,-38.284 27.604,-39.846c-0,-0.258 0.262,-0.521 0.262,-0.779c0,-1.042 -1.041,-1.825 -1.825,-1.825c-1.3,-0 -6.771,0.521 -9.112,0.521c-2.346,-0 -3.909,-0.521 -4.95,-0.521c-1.3,-0 -3.125,0.521 -3.125,2.604c-0,16.667 -13.542,35.679 -16.925,40.367c-0.521,0.52 -1.042,1.3 -1.042,2.083c0,1.3 1.042,2.604 2.604,2.604l23.438,0l-0,8.071c-0,3.646 -2.084,4.687 -4.167,4.687c-2.346,0 -3.387,1.042 -3.387,2.346c-0,1.3 0.52,2.863 2.866,2.863l22.396,-0c1.3,-0 2.604,-1.042 2.604,-2.863c0,-1.825 -1.562,-2.604 -2.866,-2.604c-1.3,0 -4.167,-0.783 -4.167,-4.95l-0,-7.55l9.637,0c1.3,0 2.084,-1.042 2.084,-2.604c-0,-1.563 -0.521,-2.604 -2.084,-2.604l-9.637,-0" style="fill-rule:nonzero;"/></g><g><path d="M2302.08,1172.72l-0,-27.867c-0,-1.3 -0.263,-2.342 -1.563,-2.342c-1.041,0 -1.825,0.259 -2.604,1.3l-7.812,15.105c-0.521,0.52 -1.304,1.304 -1.304,3.125l-0,10.679l-16.925,-0c10.675,-8.854 27.341,-38.284 27.604,-39.846c-0,-0.258 0.258,-0.521 0.258,-0.779c0,-1.042 -1.042,-1.825 -1.821,-1.825c-1.304,-0 -6.771,0.521 -9.116,0.521c-2.342,-0 -3.905,-0.521 -4.946,-0.521c-1.304,-0 -3.125,0.521 -3.125,2.604c-0,16.667 -13.542,35.679 -16.929,40.367c-0.521,0.52 -1.042,1.3 -1.042,2.083c-0,1.3 1.042,2.604 2.604,2.604l23.438,0l-0,8.071c-0,3.646 -2.084,4.687 -4.167,4.687c-2.342,0 -3.383,1.042 -3.383,2.346c-0,1.3 0.52,2.863 2.862,2.863l22.396,-0c1.304,-0 2.604,-1.042 2.604,-2.863c0,-1.825 -1.562,-2.604 -2.862,-2.604c-1.305,0 -4.167,-0.783 -4.167,-4.95l-0,-7.55l9.633,0c1.304,0 2.084,-1.042 2.084,-2.604c-0,-1.563 -0.521,-2.604 -2.084,-2.604l-9.633,-0" style="fill-rule:nonzero;"/></g><g><path d="M2515.83,1175.32c-0,-1.825 -0.783,-2.083 -1.563,-2.083c-1.041,-0 -1.562,0.779 -1.825,1.562c-1.3,3.646 -4.166,8.333 -8.07,8.333c-0.521,0 -1.042,0 -1.563,-0.262l-3.908,-1.3c-2.604,-1.042 -8.854,-3.125 -14.063,-3.125c-1.821,-0 -3.383,0.258 -4.946,0.779c2.863,-4.946 16.405,-11.458 19.271,-12.237c9.375,-1.305 17.188,-6.771 17.188,-16.93c-0,-6.25 -2.604,-10.416 -5.992,-13.541c-6.771,-5.467 -16.667,-6.25 -19.529,-6.25c-9.375,-0 -16.929,0.521 -23.7,8.333c-1.821,2.083 -2.604,4.167 -2.604,6.25c-0,1.825 0.783,3.908 1.562,6.25c1.563,3.125 4.95,5.471 8.596,5.471c6.508,-0 7.292,-6.25 7.292,-9.117c-0,-5.987 -6.513,-6.508 -6.513,-9.112c0,-1.825 2.604,-4.95 10.417,-4.95c12.242,-0 16.408,10.158 16.408,13.283c0,4.688 -1.562,9.113 -4.166,12.758c-4.688,5.992 -13.284,8.075 -19.792,12.242c-7.292,4.425 -12.242,11.979 -14.583,20.313c-0,1.82 0.779,3.904 2.341,4.687c0.263,0.258 0.784,0.258 1.042,0.258c2.867,0 4.429,-8.07 12.242,-8.07c5.208,-0 7.029,7.029 18.75,7.029c5.466,-0 15.625,-0.521 17.708,-20.571" style="fill-rule:nonzero;"/></g><g><path d="M2619.84,1160.48c0,0 -0.258,1.042 -0.258,1.825c-0,1.042 1.042,2.083 2.083,2.083c0.779,0 1.3,-0.783 1.563,-1.041c0.258,-0.784 3.383,-11.459 4.946,-14.063c0.52,-1.042 1.041,-1.304 1.304,-1.304c0.521,0 0.779,1.042 0.779,1.825l-0,37.238c-0,3.125 -2.604,4.949 -5.208,4.949c-1.042,0 -2.342,0.521 -2.342,2.084c-0,1.562 1.3,2.083 3.383,2.083l21.875,0c2.084,0 2.084,-2.083 2.084,-2.083c-0,-0 -0,-2.084 -2.084,-2.084c-1.821,0 -4.166,-2.345 -4.166,-4.687l-0,-54.167c-0,-2.083 -0.78,-3.125 -2.605,-3.125c-1.82,0 -3.383,0.521 -4.945,0.521c-2.605,0 -3.125,0 -5.209,-0.521c-1.041,0 -2.346,1.563 -3.125,2.604l-8.075,27.863" style="fill-rule:nonzero;"/></g><g><path d="M2894.79,1160.48c0,0 -0.262,1.042 -0.262,1.825c-0,1.042 1.041,2.083 2.083,2.083c0.783,0 1.304,-0.783 1.563,-1.041c0.262,-0.784 3.387,-11.459 4.95,-14.063c0.52,-1.042 1.041,-1.304 1.3,-1.304c0.52,0 0.783,1.042 0.783,1.825l-0,37.238c-0,3.125 -2.604,4.949 -5.208,4.949c-1.042,0 -2.346,0.521 -2.346,2.084c-0,1.562 1.304,2.083 3.387,2.083l21.875,0c2.084,0 2.084,-2.083 2.084,-2.083c-0,-0 -0,-2.084 -2.084,-2.084c-1.825,0 -4.166,-2.345 -4.166,-4.687l-0,-54.167c-0,-2.083 -0.784,-3.125 -2.605,-3.125c-1.825,0 -3.387,0.521 -4.95,0.521c-2.604,0 -3.125,0 -5.208,-0.521c-1.042,0 -2.342,1.563 -3.125,2.604l-8.071,27.863" style="fill-rule:nonzero;"/></g><g><path d="M386.939,1293.29c23.175,-0 51.563,-21.354 51.563,-43.492c-0,-13.279 -10.417,-21.612 -25.263,-21.612c-28.646,-0 -51.562,21.091 -51.562,43.487c-0,13.542 11.2,21.617 25.262,21.617" style="fill-rule:nonzero;"/></g><g><path d="M506.448,1337.04c-1.563,5.208 -13.8,10.416 -19.792,10.416c-1.563,0 -2.863,-0.52 -3.125,-1.304c-0.521,-1.041 -0.779,-6.771 -0.779,-13.021c-0,-8.07 0.258,-17.187 0.779,-19.27c0.521,-4.425 12.5,-9.896 19.012,-9.896c1.821,-0 3.384,0.521 3.905,1.562c0.52,1.304 1.041,7.813 1.041,14.846c0,7.029 -0.521,14.321 -1.041,16.667m17.97,-42.45c1.821,-0.779 3.125,-2.863 3.125,-4.425l0,-18.492c0,-1.3 -0.783,-2.083 -1.825,-2.083c-0.52,-0 -0.779,-0 -1.3,0.262c0,0 -5.208,2.084 -6.512,2.342c-1.821,-0 -3.646,-1.3 -3.646,-3.383l0,-31.771c0,-1.563 -1.562,-2.867 -3.646,-2.867c-2.604,0 -4.166,1.304 -4.166,2.867l-0,33.854c-0.259,2.604 -1.042,5.987 -3.384,7.55c-3.125,1.825 -11.979,5.471 -16.408,6.512c-2.342,0 -3.125,-3.125 -3.125,-5.208l-0,-31.25c-0,-1.562 -1.821,-2.867 -3.646,-2.867c-2.604,0 -4.167,1.305 -4.167,2.867l0,35.154c0,3.646 -1.562,6.25 -3.125,7.034c-1.562,0.779 -6.77,2.862 -6.77,2.862c-1.821,0.521 -3.125,2.604 -3.125,4.167l-0,18.491c-0,1.563 0.783,2.342 2.083,2.342c1.042,0 5.992,-2.342 6.771,-2.862c0.262,-0 0.521,-0.263 0.783,-0.263c1.821,0 3.383,2.604 3.383,4.688l0,25.783c0,2.862 -1.3,5.208 -2.862,5.987c-1.563,0.521 -7.033,2.867 -7.033,2.867c-1.821,0.521 -3.125,2.604 -3.125,4.167l-0,18.487c-0,1.563 0.783,2.346 2.083,2.346c0.262,0 0.783,-0.262 1.042,-0.262c-0,-0 3.645,-1.563 5.991,-2.342c0.259,-0.263 0.521,-0.263 0.779,-0.263c1.825,0 3.125,2.867 3.125,4.167l0,32.033c0,1.563 1.563,2.863 3.388,2.863c2.604,-0 4.425,-1.3 4.425,-2.863l-0,-36.2c-0,-3.383 1.304,-5.208 2.604,-5.729l15.888,-6.508c0.258,-0 0.779,-0.263 1.041,-0.263c2.084,0 3.384,3.125 3.384,4.688l-0,32.554c-0,1.563 1.562,2.863 3.387,2.863c2.863,-0 4.425,-1.3 4.425,-2.863l0,-36.979c0,-2.083 1.042,-5.208 2.867,-5.992c1.821,-0.779 7.291,-2.862 7.291,-2.862c1.821,-0.784 3.125,-2.867 3.125,-4.429l0,-18.488c0,-1.304 -0.783,-2.083 -1.825,-2.083c-0.52,-0 -0.779,-0 -1.3,0.258l-6.77,2.604c-1.563,0 -3.388,-1.562 -3.388,-4.687l0,-24.217c0,-1.825 1.304,-6.771 3.388,-7.554l6.77,-2.604" style="fill-rule:nonzero;"/></g><g><path d="M568.902,1357.88c23.179,0 51.562,-21.354 51.562,-43.492c0,-13.279 -10.416,-21.612 -25.258,-21.612c-28.646,-0 -51.563,21.092 -51.563,43.487c0,13.542 11.196,21.617 25.259,21.617" style="fill-rule:nonzero;"/></g><g><path d="M688.414,1369.33c-1.562,5.209 -13.804,10.417 -19.791,10.417c-1.563,0 -2.867,-0.521 -3.125,-1.304c-0.521,-1.042 -0.784,-6.771 -0.784,-13.021c0,-8.071 0.263,-17.187 0.784,-19.271c0.52,-4.425 12.5,-9.896 19.008,-9.896c1.825,0 3.387,0.521 3.908,1.563c0.521,1.304 1.042,7.812 1.042,14.846c-0,7.029 -0.521,14.321 -1.042,16.666m17.967,-42.45c1.825,-0.779 3.125,-2.862 3.125,-4.425l-0,-18.491c-0,-1.3 -0.779,-2.084 -1.821,-2.084c-0.521,0 -0.783,0 -1.304,0.263c-0,-0 -5.208,2.083 -6.508,2.342c-1.825,-0 -3.646,-1.301 -3.646,-3.384l-0,-31.771c-0,-1.562 -1.563,-2.866 -3.646,-2.866c-2.604,-0 -4.167,1.304 -4.167,2.866l0,33.854c-0.262,2.605 -1.041,5.988 -3.387,7.551c-3.125,1.824 -11.979,5.47 -16.404,6.512c-2.346,0 -3.125,-3.125 -3.125,-5.208l-0,-31.25c-0,-1.563 -1.825,-2.867 -3.646,-2.867c-2.604,0 -4.167,1.304 -4.167,2.867l0,35.154c0,3.646 -1.562,6.25 -3.125,7.033c-1.562,0.779 -6.771,2.863 -6.771,2.863c-1.825,0.521 -3.125,2.604 -3.125,4.166l0,18.492c0,1.563 0.779,2.342 2.084,2.342c1.041,-0 5.987,-2.342 6.77,-2.863c0.259,0 0.521,-0.262 0.78,-0.262c1.825,-0 3.387,2.604 3.387,4.687l0,25.784c0,2.862 -1.304,5.208 -2.867,5.987c-1.562,0.521 -7.029,2.867 -7.029,2.867c-1.825,0.521 -3.125,2.604 -3.125,4.166l0,18.488c0,1.562 0.779,2.346 2.084,2.346c0.258,-0 0.779,-0.263 1.041,-0.263c0,0 3.646,-1.562 5.988,-2.341c0.262,-0.263 0.521,-0.263 0.783,-0.263c1.821,0 3.125,2.867 3.125,4.167l0,32.033c0,1.563 1.563,2.863 3.383,2.863c2.605,-0 4.43,-1.301 4.43,-2.863l-0,-36.2c-0,-3.383 1.3,-5.208 2.604,-5.729l15.883,-6.508c0.263,-0 0.783,-0.263 1.042,-0.263c2.083,0 3.387,3.125 3.387,4.688l0,32.554c0,1.562 1.563,2.862 3.384,2.862c2.866,0 4.429,-1.3 4.429,-2.862l-0,-36.98c-0,-2.083 1.041,-5.208 2.862,-5.991c1.825,-0.779 7.292,-2.863 7.292,-2.863c1.825,-0.783 3.125,-2.866 3.125,-4.429l-0,-18.487c-0,-1.304 -0.779,-2.084 -1.821,-2.084c-0.521,0 -0.783,0 -1.304,0.259l-6.771,2.604c-1.562,-0 -3.383,-1.563 -3.383,-4.688l-0,-24.216c-0,-1.825 1.3,-6.771 3.383,-7.554l6.771,-2.605" style="fill-rule:nonzero;"/></g><g><path d="M750.868,1390.17c23.18,-0 51.563,-21.354 51.563,-43.492c-0,-13.279 -10.417,-21.612 -25.258,-21.612c-28.646,-0 -51.563,21.091 -51.563,43.487c0,13.542 11.196,21.617 25.258,21.617" style="fill-rule:nonzero;"/></g><g><path d="M836.402,1379.75c-0,-3.646 15.887,-10.417 22.137,-10.417c1.563,0 2.342,0.259 2.342,1.3l-0,26.825c-0,4.688 -14.842,10.675 -21.354,10.675c-1.821,0 -3.125,-0.52 -3.125,-1.562l-0,-26.821m27.083,-36.979c-0.521,-0 -0.779,0.258 -1.042,0.258c0,0 -16.666,5.992 -23.437,5.992c-1.563,-0 -2.604,-0.263 -2.604,-1.304l-0,-43.488c-0,-1.825 -1.563,-3.125 -3.125,-3.125l-3.384,0c-1.825,0 -3.125,1.3 -3.125,3.125l0,134.113c0,1.562 0.78,2.345 2.084,2.345c0.258,0 1.562,-0.262 1.821,-0.52c3.645,-1.563 18.229,-7.813 25.783,-7.813c2.604,0 4.425,0.779 4.425,2.863l-0,38.804c-0,1.821 1.304,3.125 3.125,3.125l3.387,-0c1.563,-0 3.125,-1.304 3.125,-3.125l0,-130.729c0,-1.304 -1.041,-2.084 -2.083,-2.084c-0.262,0 -0.783,0 -1.042,0.259l-3.908,1.304" style="fill-rule:nonzero;"/></g><g><path d="M911.91,1422.46c23.179,0 51.563,-21.354 51.563,-43.491c-0,-13.28 -10.417,-21.613 -25.259,-21.613c-28.646,0 -51.562,21.092 -51.562,43.488c-0,13.541 11.196,21.616 25.258,21.616" style="fill-rule:nonzero;"/></g><g><path d="M1000.03,1411c0,0 -0.779,-15.625 -0.779,-26.042c-0,-4.166 0.258,-7.291 0.521,-8.333c1.821,-5.208 12.237,-12.762 18.229,-12.762c7.55,-0 10.675,8.595 10.675,15.104c-0,14.062 -11.979,28.125 -23.175,35.158c-1.042,0.521 -1.825,0.779 -2.604,0.779c-2.346,0 -2.867,-2.604 -2.867,-3.904m-9.112,23.175c0.779,1.042 1.562,1.304 2.341,1.304c0.784,0 1.563,-0.521 1.563,-0.521c7.812,-4.429 14.062,-11.458 20.575,-15.887c23.175,-16.146 31.25,-32.029 31.25,-44.009c-0,-14.845 -11.459,-24.22 -23.438,-25c-4.429,0 -10.679,2.084 -14.325,4.426c-1.562,1.304 -4.425,3.645 -5.729,3.645c-0.521,0 -0.779,0 -1.3,-0.258c-1.825,-0.783 -2.867,-2.604 -2.867,-4.429c0.263,-5.729 1.825,-68.229 1.825,-73.438c0,-2.862 -2.345,-4.425 -4.95,-4.425c-3.645,0 -7.812,2.605 -8.07,7.292c-0,0 1.041,148.696 3.125,151.3" style="fill-rule:nonzero;"/></g><g><path d="M1088.01,1422.46c23.175,0 51.562,-21.354 51.562,-43.491c0,-13.28 -10.416,-21.613 -25.262,-21.613c-28.646,0 -51.563,21.092 -51.563,43.488c0,13.541 11.2,21.616 25.263,21.616" style="fill-rule:nonzero;"/></g><g><path d="M1176.13,1443.29c-0,-0 -0.783,-15.625 -0.783,-26.042c-0,-4.167 0.262,-7.292 0.52,-8.333c1.825,-5.209 12.242,-12.763 18.23,-12.763c7.554,0 10.679,8.596 10.679,15.104c-0,14.063 -11.979,28.125 -23.179,35.159c-1.042,0.52 -1.825,0.779 -2.605,0.779c-2.345,-0 -2.866,-2.604 -2.866,-3.904m-9.113,23.175c0.784,1.041 1.563,1.304 2.346,1.304c0.779,-0 1.563,-0.521 1.563,-0.521c7.812,-4.429 14.062,-11.458 20.57,-15.888c23.18,-16.145 31.25,-32.029 31.25,-44.008c0,-14.846 -11.458,-24.221 -23.437,-25c-4.429,0 -10.679,2.083 -14.325,4.425c-1.563,1.304 -4.425,3.646 -5.729,3.646c-0.521,-0 -0.779,-0 -1.3,-0.258c-1.825,-0.784 -2.867,-2.605 -2.867,-4.43c0.263,-5.729 1.825,-68.229 1.825,-73.437c0,-2.863 -2.346,-4.425 -4.95,-4.425c-3.646,-0 -7.812,2.604 -8.071,7.292c0,-0 1.042,148.695 3.125,151.3" style="fill-rule:nonzero;"/></g><g><path d="M1264.1,1454.75c23.179,0 51.562,-21.354 51.562,-43.492c0,-13.279 -10.417,-21.612 -25.258,-21.612c-28.646,-0 -51.563,21.092 -51.563,43.487c0,13.542 11.196,21.617 25.259,21.617" style="fill-rule:nonzero;"/></g><g><path d="M1393.29,1487.04c23.179,-0 51.563,-21.355 51.563,-43.492c-0,-13.279 -10.417,-21.613 -25.259,-21.613c-28.645,0 -51.562,21.092 -51.562,43.488c-0,13.542 11.196,21.617 25.258,21.617" style="fill-rule:nonzero;"/></g><g><path d="M1522.49,1519.33c23.175,0 51.563,-21.354 51.563,-43.491c-0,-13.28 -10.417,-21.613 -25.263,-21.613c-28.646,0 -51.562,21.092 -51.562,43.488c-0,13.541 11.2,21.616 25.262,21.616" style="fill-rule:nonzero;"/></g><g><path d="M1641.99,1563.08c-1.562,5.209 -13.804,10.417 -19.791,10.417c-1.563,0 -2.867,-0.521 -3.125,-1.304c-0.521,-1.042 -0.784,-6.771 -0.784,-13.021c0,-8.071 0.263,-17.187 0.784,-19.271c0.52,-4.425 12.5,-9.896 19.008,-9.896c1.825,0 3.387,0.521 3.908,1.563c0.521,1.304 1.042,7.812 1.042,14.846c-0,7.029 -0.521,14.321 -1.042,16.666m17.967,-42.45c1.825,-0.779 3.125,-2.862 3.125,-4.425l-0,-18.491c-0,-1.3 -0.779,-2.084 -1.821,-2.084c-0.521,0 -0.783,0 -1.304,0.263c-0,-0 -5.208,2.083 -6.508,2.342c-1.825,-0 -3.646,-1.301 -3.646,-3.384l-0,-31.771c-0,-1.562 -1.563,-2.866 -3.646,-2.866c-2.604,-0 -4.167,1.304 -4.167,2.866l0,33.854c-0.262,2.605 -1.041,5.988 -3.387,7.551c-3.125,1.824 -11.979,5.47 -16.404,6.512c-2.346,0 -3.125,-3.125 -3.125,-5.208l-0,-31.25c-0,-1.563 -1.825,-2.867 -3.646,-2.867c-2.604,0 -4.167,1.304 -4.167,2.867l0,35.154c0,3.646 -1.562,6.25 -3.125,7.033c-1.562,0.779 -6.771,2.863 -6.771,2.863c-1.825,0.521 -3.125,2.604 -3.125,4.166l0,18.492c0,1.563 0.779,2.342 2.084,2.342c1.041,-0 5.987,-2.342 6.77,-2.863c0.259,0 0.521,-0.262 0.78,-0.262c1.825,-0 3.387,2.604 3.387,4.687l0,25.784c0,2.862 -1.304,5.208 -2.867,5.987c-1.562,0.521 -7.029,2.867 -7.029,2.867c-1.825,0.521 -3.125,2.604 -3.125,4.166l0,18.488c0,1.562 0.779,2.346 2.084,2.346c0.258,-0 0.779,-0.263 1.041,-0.263c0,0 3.646,-1.562 5.988,-2.341c0.262,-0.263 0.521,-0.263 0.783,-0.263c1.821,0 3.125,2.867 3.125,4.167l0,32.033c0,1.563 1.563,2.863 3.383,2.863c2.605,-0 4.43,-1.301 4.43,-2.863l-0,-36.2c-0,-3.383 1.3,-5.208 2.604,-5.729l15.883,-6.508c0.263,-0 0.783,-0.263 1.042,-0.263c2.083,0 3.387,3.125 3.387,4.688l0,32.554c0,1.562 1.563,2.862 3.384,2.862c2.866,0 4.429,-1.3 4.429,-2.862l-0,-36.98c-0,-2.083 1.041,-5.208 2.862,-5.991c1.825,-0.779 7.292,-2.863 7.292,-2.863c1.825,-0.783 3.125,-2.866 3.125,-4.429l-0,-18.487c-0,-1.304 -0.779,-2.084 -1.821,-2.084c-0.521,0 -0.783,0 -1.304,0.259l-6.771,2.604c-1.562,-0 -3.383,-1.563 -3.383,-4.688l-0,-24.216c-0,-1.825 1.3,-6.771 3.383,-7.554l6.771,-2.605" style="fill-rule:nonzero;"/></g><g><path d="M1704.45,1583.92c23.179,-0 51.562,-21.355 51.562,-43.492c0,-13.279 -10.417,-21.613 -25.258,-21.613c-28.646,0 -51.563,21.092 -51.563,43.488c0,13.542 11.196,21.617 25.259,21.617" style="fill-rule:nonzero;"/></g><g><path d="M1824.09,1595.38c-1.562,5.208 -13.804,10.417 -19.792,10.417c-1.562,-0 -2.866,-0.521 -3.125,-1.304c-0.52,-1.042 -0.783,-6.771 -0.783,-13.021c0,-8.071 0.263,-17.188 0.783,-19.271c0.521,-4.425 12.5,-9.896 19.009,-9.896c1.825,0 3.387,0.521 3.908,1.563c0.521,1.304 1.042,7.812 1.042,14.845c-0,7.03 -0.521,14.321 -1.042,16.667m17.967,-42.45c1.825,-0.779 3.125,-2.862 3.125,-4.425l-0,-18.492c-0,-1.3 -0.779,-2.083 -1.821,-2.083c-0.521,0 -0.783,0 -1.304,0.263c-0,-0 -5.209,2.083 -6.509,2.341c-1.825,0 -3.645,-1.3 -3.645,-3.383l-0,-31.771c-0,-1.562 -1.563,-2.867 -3.646,-2.867c-2.604,0 -4.167,1.305 -4.167,2.867l0,33.854c-0.262,2.604 -1.042,5.988 -3.387,7.55c-3.125,1.825 -11.98,5.471 -16.405,6.513c-2.345,-0 -3.125,-3.125 -3.125,-5.209l0,-31.25c0,-1.562 -1.825,-2.866 -3.645,-2.866c-2.605,-0 -4.167,1.304 -4.167,2.866l-0,35.155c-0,3.645 -1.563,6.25 -3.125,7.033c-1.563,0.779 -6.771,2.862 -6.771,2.862c-1.825,0.521 -3.125,2.605 -3.125,4.167l0,18.492c0,1.562 0.779,2.341 2.083,2.341c1.042,0 5.988,-2.341 6.771,-2.862c0.259,-0 0.521,-0.263 0.779,-0.263c1.825,0 3.388,2.605 3.388,4.688l-0,25.783c-0,2.863 -1.304,5.209 -2.867,5.988c-1.562,0.521 -7.029,2.866 -7.029,2.866c-1.825,0.521 -3.125,2.605 -3.125,4.167l0,18.488c0,1.562 0.779,2.345 2.083,2.345c0.259,0 0.78,-0.262 1.042,-0.262c0,-0 3.646,-1.563 5.988,-2.342c0.262,-0.262 0.52,-0.262 0.783,-0.262c1.821,-0 3.125,2.866 3.125,4.166l-0,32.034c-0,1.562 1.562,2.862 3.383,2.862c2.604,0 4.429,-1.3 4.429,-2.862l0,-36.2c0,-3.384 1.3,-5.209 2.605,-5.729l15.883,-6.509c0.262,0 0.783,-0.262 1.042,-0.262c2.083,-0 3.387,3.125 3.387,4.687l0,32.554c0,1.563 1.563,2.863 3.383,2.863c2.867,-0 4.43,-1.3 4.43,-2.863l-0,-36.979c-0,-2.083 1.041,-5.208 2.862,-5.991c1.825,-0.78 7.292,-2.863 7.292,-2.863c1.825,-0.783 3.125,-2.867 3.125,-4.429l-0,-18.488c-0,-1.304 -0.779,-2.083 -1.821,-2.083c-0.521,0 -0.783,0 -1.304,0.258l-6.771,2.605c-1.563,-0 -3.383,-1.563 -3.383,-4.688l-0,-24.217c-0,-1.825 1.3,-6.77 3.383,-7.554l6.771,-2.604" style="fill-rule:nonzero;"/></g><g><path d="M1886.55,1616.21c23.175,0 51.562,-21.354 51.562,-43.491c0,-13.28 -10.417,-21.613 -25.262,-21.613c-28.646,0 -51.563,21.092 -51.563,43.488c0,13.541 11.2,21.616 25.263,21.616" style="fill-rule:nonzero;"/></g><g><path d="M1997.77,1605.79c0,-3.646 15.888,-10.417 22.138,-10.417c1.562,-0 2.342,0.258 2.342,1.3l-0,26.825c-0,4.687 -14.842,10.675 -21.355,10.675c-1.82,0 -3.125,-0.521 -3.125,-1.563l0,-26.82m27.084,-36.98c-0.521,0 -0.779,0.259 -1.042,0.259c0,-0 -16.667,5.991 -23.437,5.991c-1.563,0 -2.605,-0.262 -2.605,-1.304l0,-43.487c0,-1.825 -1.562,-3.125 -3.125,-3.125l-3.383,-0c-1.825,-0 -3.125,1.3 -3.125,3.125l0,134.112c0,1.563 0.779,2.346 2.083,2.346c0.259,0 1.563,-0.262 1.821,-0.521c3.646,-1.562 18.229,-7.812 25.784,-7.812c2.604,-0 4.425,0.779 4.425,2.862l-0,38.804c-0,1.821 1.304,3.125 3.125,3.125l3.387,0c1.563,0 3.125,-1.304 3.125,-3.125l0,-130.729c0,-1.304 -1.042,-2.083 -2.083,-2.083c-0.263,-0 -0.784,-0 -1.042,0.258l-3.908,1.304" style="fill-rule:nonzero;"/></g><g><path d="M2073.29,1648.5c23.179,0 51.563,-21.354 51.563,-43.492c-0,-13.279 -10.417,-21.612 -25.259,-21.612c-28.645,-0 -51.562,21.092 -51.562,43.487c-0,13.542 11.196,21.617 25.258,21.617" style="fill-rule:nonzero;"/></g><g><path d="M2187.12,1637.04c0,-0 -0.779,-15.625 -0.779,-26.042c0,-4.167 0.259,-7.292 0.521,-8.333c1.821,-5.209 12.238,-12.763 18.229,-12.763c7.55,0 10.675,8.596 10.675,15.104c0,14.063 -11.979,28.125 -23.175,35.159c-1.041,0.52 -1.825,0.779 -2.604,0.779c-2.346,-0 -2.867,-2.604 -2.867,-3.904m-9.112,23.175c0.779,1.041 1.562,1.304 2.342,1.304c0.783,-0 1.562,-0.521 1.562,-0.521c7.813,-4.429 14.063,-11.458 20.575,-15.888c23.175,-16.145 31.25,-32.029 31.25,-44.008c0,-14.846 -11.458,-24.221 -23.437,-25c-4.43,0 -10.68,2.083 -14.325,4.425c-1.563,1.304 -4.425,3.646 -5.73,3.646c-0.52,-0 -0.779,-0 -1.3,-0.258c-1.825,-0.784 -2.866,-2.605 -2.866,-4.43c0.262,-5.729 1.825,-68.229 1.825,-73.437c-0,-2.863 -2.346,-4.425 -4.95,-4.425c-3.646,-0 -7.813,2.604 -8.071,7.292c-0,-0 1.042,148.695 3.125,151.3" style="fill-rule:nonzero;"/></g><g><path d="M2275.09,1648.5c23.175,0 51.563,-21.354 51.563,-43.492c-0,-13.279 -10.417,-21.612 -25.263,-21.612c-28.646,-0 -51.562,21.092 -51.562,43.487c-0,13.542 11.2,21.617 25.262,21.617" style="fill-rule:nonzero;"/></g><g><path d="M2388.91,1669.33c0,0 -0.779,-15.625 -0.779,-26.041c0,-4.167 0.258,-7.292 0.521,-8.334c1.821,-5.208 12.237,-12.762 18.229,-12.762c7.55,-0 10.675,8.596 10.675,15.104c0,14.063 -11.979,28.125 -23.175,35.158c-1.042,0.521 -1.825,0.78 -2.604,0.78c-2.346,-0 -2.867,-2.605 -2.867,-3.905m-9.112,23.175c0.779,1.042 1.562,1.304 2.341,1.304c0.784,0 1.563,-0.52 1.563,-0.52c7.812,-4.429 14.062,-11.459 20.575,-15.888c23.175,-16.146 31.25,-32.029 31.25,-44.008c-0,-14.846 -11.458,-24.221 -23.438,-25c-4.429,-0 -10.679,2.083 -14.325,4.425c-1.562,1.304 -4.425,3.646 -5.729,3.646c-0.521,-0 -0.779,-0 -1.3,-0.259c-1.825,-0.783 -2.866,-2.604 -2.866,-4.429c0.262,-5.729 1.825,-68.229 1.825,-73.437c-0,-2.863 -2.346,-4.425 -4.95,-4.425c-3.646,-0 -7.813,2.604 -8.071,7.291c-0,0 1.041,148.696 3.125,151.3" style="fill-rule:nonzero;"/></g><g><path d="M2476.89,1680.79c23.175,-0 51.563,-21.355 51.563,-43.492c-0,-13.279 -10.417,-21.613 -25.263,-21.613c-28.646,0 -51.562,21.092 -51.562,43.488c-0,13.542 11.2,21.617 25.262,21.617" style="fill-rule:nonzero;"/></g><g><path d="M2621.62,1713.08c23.179,0 51.562,-21.354 51.562,-43.491c0,-13.28 -10.417,-21.613 -25.258,-21.613c-28.646,0 -51.563,21.092 -51.563,43.488c0,13.541 11.196,21.616 25.259,21.616" style="fill-rule:nonzero;"/></g><g><path d="M2883.68,1664.12c2.867,-9.117 12.5,-10.417 20.575,-10.417c17.967,0 32.292,19.271 32.292,34.896c-0,8.071 -3.388,15.363 -11.98,17.446c-2.604,0.783 -5.47,1.042 -8.075,1.042c-9.375,-0 -19.008,-6.25 -24.479,-13.542c-5.208,-5.987 -9.112,-14.842 -9.112,-23.175c-0,-2.083 0.258,-4.167 0.779,-6.25m27.346,-16.146c-34.638,0 -56.25,14.321 -56.25,32.029c-0,17.45 14.841,33.075 53.646,33.075c42.708,0 56.25,-14.845 56.25,-33.075c-0,-18.487 -29.43,-32.029 -53.646,-32.029" style="fill-rule:nonzero;"/></g><g><path d="M135.714,1386.26c0.779,4.95 0.779,4.688 -3.908,6.25c-22.917,7.813 -37.763,28.388 -37.763,50.521c0,23.438 12.242,40.104 29.95,46.096c2.084,0.779 5.209,1.563 7.03,1.563c2.083,-0.001 3.125,-1.305 3.125,-2.867c-0,-1.821 -2.084,-2.604 -3.905,-3.384c-10.937,-4.687 -18.75,-15.887 -18.75,-27.866c0,-14.842 10.155,-26.042 26.042,-30.467c4.167,-1.042 4.688,-0.783 5.208,2.083l13.021,77.605c0.521,2.862 0.259,2.862 -3.646,3.645c-4.166,0.78 -9.375,1.301 -14.583,1.301c-45.575,-0 -75,-25.259 -75,-61.459c0,-15.362 2.604,-35.937 24.217,-60.416c15.625,-17.446 27.604,-27.084 39.846,-36.98c2.604,-2.083 3.125,-1.821 3.645,1.042l5.467,33.333m28.388,-177.341c8.591,-0 15.625,7.029 15.625,21.354c-0,28.904 -24.742,52.342 -45.313,70.312c-1.825,1.563 -2.867,1.3 -3.387,-2.083c-1.042,-6.771 -1.563,-15.625 -1.563,-23.958c0,-40.625 18.75,-65.625 34.638,-65.625m-10.417,218.75c-0.521,-3.125 -0.263,-3.909 2.862,-3.646c21.096,1.821 38.542,19.529 38.542,42.446c0,16.408 -9.896,29.687 -24.479,36.979c-3.125,1.562 -3.646,1.562 -4.167,-1.563l-12.758,-74.216m-14.063,-81.25c-0.52,-3.125 0,-3.388 1.563,-4.95c28.125,-26.3 49.479,-59.375 49.479,-99.217c0,-22.658 -6.25,-45.054 -16.929,-60.679c-3.904,-5.729 -10.675,-13.021 -13.542,-13.021c-3.646,0 -11.716,6.771 -16.925,12.5c-19.271,21.354 -25.521,53.908 -25.521,80.992c0,15.104 1.821,32.029 3.646,42.708c0.521,3.125 0.779,3.646 -2.346,6.25c-37.5,30.988 -77.341,68.229 -77.341,120.833c-0,45.313 30.987,88.28 94.791,88.28c5.988,-0 12.759,-0.521 17.967,-1.563c2.867,-0.521 3.388,-0.779 3.908,2.346c3.125,17.446 7.03,40.104 7.03,52.342c-0,38.541 -26.042,43.229 -41.405,43.229c-14.062,-0 -20.833,-4.167 -20.833,-7.55c0,-1.825 2.342,-2.604 8.333,-4.429c8.071,-2.342 17.446,-9.375 17.446,-24.48c0,-14.32 -9.112,-26.562 -25,-26.562c-17.446,-0 -27.862,13.804 -27.862,29.95c-0,16.925 10.154,42.446 49.479,42.446c17.446,-0 51.3,-7.813 51.3,-52.084c-0,-14.841 -4.688,-39.583 -7.55,-55.729c-0.521,-3.125 -0.263,-2.862 3.383,-4.425c26.304,-10.416 43.75,-32.554 43.75,-61.979c0,-33.333 -24.479,-62.762 -62.758,-62.762c-6.771,-0 -6.771,-0 -7.554,-4.688l-6.509,-37.758" style="fill-rule:nonzero;"/></g><g><text x="505.139px" y="1672.12px" style="font-family:'Bravura';font-size:260.417px;"></text></g><g><text x="1679.15px" y="1740px" style="font-family:'Bravura';font-size:260.417px;"></text></g><g><path d="M361.623,1519.58l-0,-32.8l371.745,64.584l0,32.8l-371.745,-64.584" style="fill-rule:nonzero;"/></g><g><path d="M886.623,1632.27l-0,-32.367l489.191,32.292l0,32.367l-489.191,-32.292" style="fill-rule:nonzero;"/></g><g><path d="M886.623,1583.73l-0,-32.366l489.191,32.291l0,32.367l-489.191,-32.292" style="fill-rule:nonzero;"/></g><g><path d="M1566.31,1276.88l0,-33.075l371.746,80.73l-0,33.075l-371.746,-80.73" style="fill-rule:nonzero;"/></g><g><path d="M2117.09,1406.02l0,-32.304l556.117,16.146l0,32.304l-556.117,-16.146" style="fill-rule:nonzero;"/></g><g><path d="M2117.09,1454.49l0,-32.305l556.117,16.146l0,32.304l-556.117,-16.145" style="fill-rule:nonzero;"/></g><g><path d="M1475.95,1651.74l171.354,28.424l-0,-10.479l-161.067,-26.708l0,-39.675l-10.287,0" style="fill-rule:nonzero;"/></g><g><path d="M1943.26,1729.88l-155.337,-25.662l-0,-10.484l145.05,24.779l-0,-37.071l10.287,0" style="fill-rule:nonzero;"/></g></g></svg>