<?xml version="1.0" encoding="UTF-8" standalone="no"?><!DOCTYPE svg PUBLIC "-//W3C//DTD SVG 1.1//EN" "http://www.w3.org/Graphics/SVG/1.1/DTD/svg11.dtd"><svg width="100%" height="100%" viewBox="0 0 6894 1806" version="1.1" xmlns="http://www.w3.org/2000/svg" xmlns:xlink="http://www.w3.org/1999/xlink" xml:space="preserve" xmlns:serif="http://www.serif.com/" style="fill-rule:evenodd;clip-rule:evenodd;stroke-miterlimit:2;"><g><g><path d="M9.364,614.9l6875,0" style="fill:none;stroke:#000;stroke-width:8.38px;"/><path d="M9.364,356.567l6875,-0" style="fill:none;stroke:#000;stroke-width:8.38px;"/><path d="M9.364,421.15l6875,-0" style="fill:none;stroke:#000;stroke-width:8.38px;"/><path d="M9.364,485.733l6875,0" style="fill:none;stroke:#000;stroke-width:8.38px;"/><path d="M9.364,550.317l6875,-0" style="fill:none;stroke:#000;stroke-width:8.38px;"/></g><g><path d="M3569.51,352.375l-0,266.721" style="fill:none;stroke:#000;stroke-width:10.33px;"/><path d="M6879.15,352.375l0,266.721" style="fill:none;stroke:#000;stroke-width:10.33px;"/></g><g><path d="M434.493,501.817l-0,263.696" style="fill:none;stroke:#000;stroke-width:7.75px;"/></g><g><path d="M335.793,744.067l128.516,-0" style="fill:none;stroke:#000;stroke-width:10.33px;"/><path d="M335.793,679.483l128.516,0" style="fill:none;stroke:#000;stroke-width:10.33px;"/></g><g><path d="M682.409,485.671l0,247.55" style="fill:none;stroke:#000;stroke-width:7.75px;"/></g><g><path d="M583.709,744.067l128.388,-0" style="fill:none;stroke:#000;stroke-width:10.33px;"/><path d="M583.709,679.483l128.388,0" style="fill:none;stroke:#000;stroke-width:10.33px;"/></g><g><path d="M930.326,469.525l0,231.404" style="fill:none;stroke:#000;stroke-width:7.75px;"/></g><g><path d="M831.626,679.483l128.388,0" style="fill:none;stroke:#000;stroke-width:10.33px;"/></g><g><path d="M1178.11,436.658l0,231.979" style="fill:none;stroke:#000;stroke-width:7.75px;"/></g><g><path d="M1094.39,679.483l113.408,0" style="fill:none;stroke:#000;stroke-width:10.33px;"/></g><g><path d="M1392.56,409.758l-0,226.588" style="fill:none;stroke:#000;stroke-width:7.75px;"/><path d="M1607.02,382.846l-0,221.208" style="fill:none;stroke:#000;stroke-width:7.75px;"/><path d="M1821.47,355.929l-0,215.833" style="fill:none;stroke:#000;stroke-width:7.75px;"/><path d="M2035.92,340.267l-0,199.204" style="fill:none;stroke:#000;stroke-width:7.75px;"/><path d="M2283.84,316.05l-0,191.129" style="fill:none;stroke:#000;stroke-width:7.75px;"/><path d="M2531.76,291.833l0,183.054" style="fill:none;stroke:#000;stroke-width:7.75px;"/><path d="M2710.4,464.292l0,199.45" style="fill:none;stroke:#000;stroke-width:7.75px;"/><path d="M2924.86,432l0,210.221" style="fill:none;stroke:#000;stroke-width:7.75px;"/><path d="M3139.31,399.708l0,220.975" style="fill:none;stroke:#000;stroke-width:7.75px;"/><path d="M3353.76,367.417l0,231.741" style="fill:none;stroke:#000;stroke-width:7.75px;"/><path d="M3675.48,335.125l0,215.467" style="fill:none;stroke:#000;stroke-width:7.75px;"/><path d="M3923.4,302.838l0,215.462" style="fill:none;stroke:#000;stroke-width:7.75px;"/></g><g><path d="M3893.73,291.983l128.384,0" style="fill:none;stroke:#000;stroke-width:10.33px;"/></g><g><path d="M4171.32,270.546l-0,215.462" style="fill:none;stroke:#000;stroke-width:7.75px;"/></g><g><path d="M4141.53,291.983l128.513,0" style="fill:none;stroke:#000;stroke-width:10.33px;"/></g><g><path d="M4418.98,238.254l0,247.509" style="fill:none;stroke:#000;stroke-width:7.75px;"/></g><g><path d="M4404.4,227.4l113.413,0" style="fill:none;stroke:#000;stroke-width:10.33px;"/><path d="M4405.44,291.983l112.371,0" style="fill:none;stroke:#000;stroke-width:10.33px;"/></g><g><path d="M4633.44,205.963l-0,274.42" style="fill:none;stroke:#000;stroke-width:7.75px;"/></g><g><path d="M4603.65,227.4l128.517,0" style="fill:none;stroke:#000;stroke-width:10.33px;"/><path d="M4603.65,291.983l128.517,0" style="fill:none;stroke:#000;stroke-width:10.33px;"/></g><g><path d="M4847.78,173.671l0,301.321" style="fill:none;stroke:#000;stroke-width:7.75px;"/></g><g><path d="M4818.07,162.821l128.387,-0" style="fill:none;stroke:#000;stroke-width:10.33px;"/><path d="M4818.07,227.4l128.387,0" style="fill:none;stroke:#000;stroke-width:10.33px;"/><path d="M4818.07,291.983l128.387,0" style="fill:none;stroke:#000;stroke-width:10.33px;"/></g><g><path d="M5062.11,141.379l0,328.238" style="fill:none;stroke:#000;stroke-width:7.75px;"/></g><g><path d="M5032.4,162.821l128.517,-0" style="fill:none;stroke:#000;stroke-width:10.33px;"/><path d="M5032.4,227.4l128.517,0" style="fill:none;stroke:#000;stroke-width:10.33px;"/><path d="M5032.4,291.983l128.517,0" style="fill:none;stroke:#000;stroke-width:10.33px;"/></g><g><path d="M5276.57,141.379l-0,328.238" style="fill:none;stroke:#000;stroke-width:7.75px;"/></g><g><path d="M5246.86,162.821l128.513,-0" style="fill:none;stroke:#000;stroke-width:10.33px;"/><path d="M5246.86,227.4l128.513,0" style="fill:none;stroke:#000;stroke-width:10.33px;"/><path d="M5246.86,291.983l128.513,0" style="fill:none;stroke:#000;stroke-width:10.33px;"/></g><g><path d="M5490.98,173.671l0,301.321" style="fill:none;stroke:#000;stroke-width:7.75px;"/></g><g><path d="M5461.32,162.821l128.387,-0" style="fill:none;stroke:#000;stroke-width:10.33px;"/><path d="M5461.32,227.4l128.387,0" style="fill:none;stroke:#000;stroke-width:10.33px;"/><path d="M5461.32,291.983l128.387,0" style="fill:none;stroke:#000;stroke-width:10.33px;"/></g><g><path d="M5705.44,205.963l-0,274.42" style="fill:none;stroke:#000;stroke-width:7.75px;"/></g><g><path d="M5675.65,227.4l128.517,0" style="fill:none;stroke:#000;stroke-width:10.33px;"/><path d="M5675.65,291.983l128.517,0" style="fill:none;stroke:#000;stroke-width:10.33px;"/></g><g><path d="M5919.78,238.254l0,247.509" style="fill:none;stroke:#000;stroke-width:7.75px;"/></g><g><path d="M5890.07,227.4l128.512,0" style="fill:none;stroke:#000;stroke-width:10.33px;"/><path d="M5890.07,291.983l128.512,0" style="fill:none;stroke:#000;stroke-width:10.33px;"/></g><g><path d="M6134.23,270.546l0,215.462" style="fill:none;stroke:#000;stroke-width:7.75px;"/></g><g><path d="M6104.53,291.983l128.388,0" style="fill:none;stroke:#000;stroke-width:10.33px;"/></g><g><path d="M6382.15,302.838l0,215.462" style="fill:none;stroke:#000;stroke-width:7.75px;"/></g><g><path d="M6352.44,291.983l128.387,0" style="fill:none;stroke:#000;stroke-width:10.33px;"/></g><g><path d="M6630.07,335.125l-0,215.467" style="fill:none;stroke:#000;stroke-width:7.75px;"/></g><g><path d="M385.101,256.308c0,0 -0.258,1.042 -0.258,1.821c-0,1.042 1.041,2.083 2.083,2.083c0.779,0 1.3,-0.779 1.563,-1.041c0.258,-0.779 3.383,-11.459 4.945,-14.063c0.521,-1.041 1.042,-1.3 1.305,-1.3c0.52,0 0.779,1.042 0.779,1.821l-0,37.242c-0,3.125 -2.604,4.946 -5.209,4.946c-1.041,-0 -2.341,0.52 -2.341,2.083c-0,1.562 1.3,2.083 3.383,2.083l21.875,0c2.083,0 2.083,-2.083 2.083,-2.083c0,-0 0,-2.083 -2.083,-2.083c-1.821,-0 -4.167,-2.342 -4.167,-4.688l0,-54.167c0,-2.083 -0.779,-3.125 -2.604,-3.125c-1.821,0 -3.383,0.521 -4.946,0.521c-2.604,0 -3.125,0 -5.208,-0.521c-1.042,0 -2.346,1.563 -3.125,2.605l-8.075,27.866" style="fill-rule:nonzero;"/></g><g><path d="M673.726,271.15c0,-1.821 -0.783,-2.083 -1.562,-2.083c-1.042,-0 -1.563,0.783 -1.825,1.562c-1.3,3.646 -4.167,8.334 -8.071,8.334c-0.521,-0 -1.042,-0 -1.563,-0.259l-3.908,-1.304c-2.604,-1.042 -8.854,-3.125 -14.063,-3.125c-1.82,0 -3.383,0.263 -4.945,0.783c2.862,-4.95 16.404,-11.458 19.27,-12.241c9.375,-1.3 17.188,-6.771 17.188,-16.925c-0,-6.25 -2.604,-10.417 -5.992,-13.542c-6.771,-5.471 -16.666,-6.25 -19.529,-6.25c-9.375,0 -16.929,0.521 -23.7,8.333c-1.821,2.084 -2.604,4.167 -2.604,6.25c-0,1.821 0.783,3.905 1.562,6.25c1.563,3.125 4.95,5.467 8.596,5.467c6.509,0 7.292,-6.25 7.292,-9.113c-0,-5.991 -6.513,-6.512 -6.513,-9.116c0,-1.821 2.605,-4.946 10.417,-4.946c12.242,0 16.408,10.154 16.408,13.279c0,4.688 -1.562,9.117 -4.166,12.763c-4.688,5.987 -13.284,8.07 -19.792,12.237c-7.292,4.429 -12.242,11.979 -14.583,20.313c-0,1.825 0.779,3.908 2.341,4.687c0.263,0.263 0.784,0.263 1.042,0.263c2.867,-0 4.429,-8.075 12.242,-8.075c5.208,-0 7.029,7.033 18.75,7.033c5.466,0 15.625,-0.521 17.708,-20.575" style="fill-rule:nonzero;"/></g><g><path d="M909.672,268.546l-0,-27.863c-0,-1.304 -0.258,-2.345 -1.563,-2.345c-1.041,-0 -1.82,0.262 -2.604,1.304l-7.812,15.104c-0.521,0.521 -1.3,1.3 -1.3,3.125l-0,10.675l-16.929,-0c10.679,-8.854 27.345,-38.279 27.604,-39.842c-0,-0.262 0.262,-0.521 0.262,-0.783c0,-1.042 -1.041,-1.821 -1.825,-1.821c-1.3,-0 -6.771,0.521 -9.112,0.521c-2.346,-0 -3.909,-0.521 -4.95,-0.521c-1.3,-0 -3.125,0.521 -3.125,2.604c-0,16.667 -13.542,35.675 -16.925,40.363c-0.521,0.52 -1.042,1.304 -1.042,2.083c0,1.304 1.042,2.604 2.604,2.604l23.438,0l-0,8.075c-0,3.646 -2.084,4.688 -4.167,4.688c-2.346,-0 -3.387,1.041 -3.387,2.341c-0,1.305 0.52,2.867 2.866,2.867l22.396,0c1.3,0 2.604,-1.042 2.604,-2.867c0,-1.82 -1.562,-2.604 -2.866,-2.604c-1.3,0 -4.167,-0.779 -4.167,-4.946l-0,-7.554l9.637,0c1.3,0 2.084,-1.042 2.084,-2.604c-0,-1.563 -0.521,-2.604 -2.084,-2.604l-9.637,-0" style="fill-rule:nonzero;"/></g><g><path d="M1128.64,256.308c-0,0 -0.259,1.042 -0.259,1.821c0,1.042 1.042,2.083 2.084,2.083c0.779,0 1.3,-0.779 1.562,-1.041c0.259,-0.779 3.384,-11.459 4.946,-14.063c0.521,-1.041 1.042,-1.3 1.304,-1.3c0.521,0 0.779,1.042 0.779,1.821l0,37.242c0,3.125 -2.604,4.946 -5.208,4.946c-1.042,-0 -2.342,0.52 -2.342,2.083c0,1.562 1.3,2.083 3.384,2.083l21.875,0c2.083,0 2.083,-2.083 2.083,-2.083c0,-0 0,-2.083 -2.083,-2.083c-1.821,-0 -4.167,-2.342 -4.167,-4.688l0,-54.167c0,-2.083 -0.779,-3.125 -2.604,-3.125c-1.821,0 -3.383,0.521 -4.946,0.521c-2.604,0 -3.125,0 -5.208,-0.521c-1.042,0 -2.346,1.563 -3.125,2.605l-8.075,27.866" style="fill-rule:nonzero;"/></g><g><path d="M1383.84,271.15c-0,-1.821 -0.78,-2.083 -1.563,-2.083c-1.042,-0 -1.562,0.783 -1.821,1.562c-1.304,3.646 -4.166,8.334 -8.075,8.334c-0.521,-0 -1.041,-0 -1.562,-0.259l-3.904,-1.304c-2.605,-1.042 -8.855,-3.125 -14.063,-3.125c-1.825,0 -3.387,0.263 -4.95,0.783c2.867,-4.95 16.408,-11.458 19.271,-12.241c9.375,-1.3 17.187,-6.771 17.187,-16.925c0,-6.25 -2.604,-10.417 -5.987,-13.542c-6.771,-5.471 -16.667,-6.25 -19.533,-6.25c-9.375,0 -16.925,0.521 -23.696,8.333c-1.825,2.084 -2.604,4.167 -2.604,6.25c-0,1.821 0.779,3.905 1.562,6.25c1.563,3.125 4.946,5.467 8.592,5.467c6.512,0 7.291,-6.25 7.291,-9.113c0,-5.991 -6.508,-6.512 -6.508,-9.116c0,-1.821 2.604,-4.946 10.417,-4.946c12.237,0 16.404,10.154 16.404,13.279c-0,4.688 -1.563,9.117 -4.167,12.763c-4.687,5.987 -13.279,8.07 -19.791,12.237c-7.292,4.429 -12.238,11.979 -14.584,20.313c0,1.825 0.784,3.908 2.346,4.687c0.258,0.263 0.779,0.263 1.042,0.263c2.862,-0 4.425,-8.075 12.237,-8.075c5.209,-0 7.034,7.033 18.75,7.033c5.471,0 15.625,-0.521 17.709,-20.575" style="fill-rule:nonzero;"/></g><g><path d="M1586.34,268.546l-0,-27.863c-0,-1.304 -0.263,-2.345 -1.563,-2.345c-1.042,-0 -1.825,0.262 -2.604,1.304l-7.813,15.104c-0.52,0.521 -1.304,1.3 -1.304,3.125l0,10.675l-16.925,-0c10.675,-8.854 27.342,-38.279 27.604,-39.842c0,-0.262 0.259,-0.521 0.259,-0.783c-0,-1.042 -1.042,-1.821 -1.821,-1.821c-1.304,-0 -6.771,0.521 -9.117,0.521c-2.341,-0 -3.904,-0.521 -4.946,-0.521c-1.304,-0 -3.125,0.521 -3.125,2.604c0,16.667 -13.541,35.675 -16.929,40.363c-0.521,0.52 -1.041,1.304 -1.041,2.083c-0,1.304 1.041,2.604 2.604,2.604l23.437,0l0,8.075c0,3.646 -2.083,4.688 -4.166,4.688c-2.342,-0 -3.384,1.041 -3.384,2.341c0,1.305 0.521,2.867 2.863,2.867l22.396,0c1.304,0 2.604,-1.042 2.604,-2.867c-0,-1.82 -1.563,-2.604 -2.863,-2.604c-1.304,0 -4.166,-0.779 -4.166,-4.946l-0,-7.554l9.633,0c1.304,0 2.083,-1.042 2.083,-2.604c0,-1.563 -0.521,-2.604 -2.083,-2.604l-9.633,-0" style="fill-rule:nonzero;"/></g><g><path d="M1800.79,268.546l-0,-27.863c-0,-1.304 -0.263,-2.345 -1.563,-2.345c-1.041,-0 -1.825,0.262 -2.604,1.304l-7.812,15.104c-0.521,0.521 -1.305,1.3 -1.305,3.125l0,10.675l-16.925,-0c10.675,-8.854 27.342,-38.279 27.605,-39.842c-0,-0.262 0.258,-0.521 0.258,-0.783c-0,-1.042 -1.042,-1.821 -1.821,-1.821c-1.304,-0 -6.771,0.521 -9.117,0.521c-2.341,-0 -3.904,-0.521 -4.945,-0.521c-1.305,-0 -3.125,0.521 -3.125,2.604c-0,16.667 -13.542,35.675 -16.93,40.363c-0.52,0.52 -1.041,1.304 -1.041,2.083c-0,1.304 1.041,2.604 2.604,2.604l23.437,0l0,8.075c0,3.646 -2.083,4.688 -4.166,4.688c-2.342,-0 -3.384,1.041 -3.384,2.341c0,1.305 0.521,2.867 2.863,2.867l22.396,0c1.304,0 2.604,-1.042 2.604,-2.867c-0,-1.82 -1.563,-2.604 -2.863,-2.604c-1.304,0 -4.166,-0.779 -4.166,-4.946l-0,-7.554l9.633,0c1.304,0 2.083,-1.042 2.083,-2.604c0,-1.563 -0.52,-2.604 -2.083,-2.604l-9.633,-0" style="fill-rule:nonzero;"/></g><g><path d="M1986.47,256.308c-0,0 -0.259,1.042 -0.259,1.821c0,1.042 1.042,2.083 2.084,2.083c0.779,0 1.3,-0.779 1.562,-1.041c0.259,-0.779 3.384,-11.459 4.946,-14.063c0.521,-1.041 1.042,-1.3 1.304,-1.3c0.521,0 0.779,1.042 0.779,1.821l0,37.242c0,3.125 -2.604,4.946 -5.208,4.946c-1.042,-0 -2.342,0.52 -2.342,2.083c0,1.562 1.3,2.083 3.384,2.083l21.875,0c2.083,0 2.083,-2.083 2.083,-2.083c0,-0 0,-2.083 -2.083,-2.083c-1.821,-0 -4.167,-2.342 -4.167,-4.688l0,-54.167c0,-2.083 -0.779,-3.125 -2.604,-3.125c-1.821,0 -3.383,0.521 -4.946,0.521c-2.604,0 -3.125,0 -5.208,-0.521c-1.042,0 -2.346,1.563 -3.125,2.605l-8.075,27.866" style="fill-rule:nonzero;"/></g><g><path d="M2275.09,245.983c-0,-1.82 -0.784,-2.083 -1.563,-2.083c-1.042,0 -1.562,0.783 -1.825,1.563c-1.3,3.645 -4.167,8.333 -8.071,8.333c-0.521,-0 -1.041,-0 -1.562,-0.258l-3.909,-1.305c-2.604,-1.041 -8.854,-3.125 -14.062,-3.125c-1.821,0 -3.383,0.263 -4.946,0.784c2.863,-4.95 16.404,-11.459 19.271,-12.242c9.375,-1.3 17.187,-6.771 17.187,-16.925c0,-6.25 -2.604,-10.417 -5.991,-13.542c-6.771,-5.47 -16.667,-6.25 -19.529,-6.25c-9.375,0 -16.93,0.521 -23.7,8.334c-1.821,2.083 -2.605,4.166 -2.605,6.25c0,1.821 0.784,3.904 1.563,6.25c1.562,3.125 4.95,5.466 8.596,5.466c6.508,0 7.291,-6.25 7.291,-9.112c0,-5.992 -6.512,-6.513 -6.512,-9.117c-0,-1.821 2.604,-4.946 10.417,-4.946c12.241,0 16.408,10.155 16.408,13.28c-0,4.687 -1.563,9.116 -4.167,12.762c-4.687,5.988 -13.283,8.071 -19.791,12.238c-7.292,4.429 -12.242,11.979 -14.584,20.312c0,1.825 0.779,3.908 2.342,4.688c0.262,0.262 0.783,0.262 1.042,0.262c2.866,0 4.429,-8.075 12.241,-8.075c5.209,0 7.029,7.033 18.75,7.033c5.467,0 15.625,-0.52 17.709,-20.575" style="fill-rule:nonzero;"/></g><g><path d="M2511.03,220.629l0,-27.862c0,-1.304 -0.262,-2.346 -1.562,-2.346c-1.042,-0 -1.825,0.262 -2.605,1.304l-7.812,15.104c-0.521,0.521 -1.304,1.3 -1.304,3.125l-0,10.675l-16.925,0c10.675,-8.854 27.341,-38.279 27.604,-39.842c-0,-0.262 0.258,-0.52 0.258,-0.783c0,-1.042 -1.041,-1.821 -1.821,-1.821c-1.304,0 -6.77,0.521 -9.116,0.521c-2.342,0 -3.904,-0.521 -4.946,-0.521c-1.304,0 -3.125,0.521 -3.125,2.604c-0,16.667 -13.542,35.675 -16.929,40.363c-0.521,0.521 -1.042,1.304 -1.042,2.083c0,1.304 1.042,2.604 2.604,2.604l23.438,0l-0,8.075c-0,3.646 -2.084,4.688 -4.167,4.688c-2.342,-0 -3.383,1.042 -3.383,2.342c-0,1.304 0.521,2.866 2.862,2.866l22.396,0c1.304,0 2.604,-1.041 2.604,-2.866c0,-1.821 -1.562,-2.605 -2.862,-2.605c-1.304,0 -4.167,-0.779 -4.167,-4.945l0,-7.555l9.633,0c1.305,0 2.084,-1.041 2.084,-2.604c-0,-1.562 -0.521,-2.604 -2.084,-2.604l-9.633,0" style="fill-rule:nonzero;"/></g><g><path d="M2729.93,256.308c0,0 -0.258,1.042 -0.258,1.821c-0,1.042 1.042,2.083 2.083,2.083c0.779,0 1.3,-0.779 1.563,-1.041c0.258,-0.779 3.383,-11.459 4.946,-14.063c0.52,-1.041 1.041,-1.3 1.304,-1.3c0.521,0 0.779,1.042 0.779,1.821l-0,37.242c-0,3.125 -2.604,4.946 -5.208,4.946c-1.042,-0 -2.342,0.52 -2.342,2.083c-0,1.562 1.3,2.083 3.383,2.083l21.875,0c2.084,0 2.084,-2.083 2.084,-2.083c-0,-0 -0,-2.083 -2.084,-2.083c-1.821,-0 -4.166,-2.342 -4.166,-4.688l-0,-54.167c-0,-2.083 -0.78,-3.125 -2.605,-3.125c-1.82,0 -3.383,0.521 -4.945,0.521c-2.605,0 -3.125,0 -5.209,-0.521c-1.041,0 -2.346,1.563 -3.125,2.605l-8.075,27.866" style="fill-rule:nonzero;"/></g><g><path d="M2985.13,271.15c0,-1.821 -0.779,-2.083 -1.562,-2.083c-1.042,-0 -1.563,0.783 -1.821,1.562c-1.304,3.646 -4.167,8.334 -8.075,8.334c-0.521,-0 -1.042,-0 -1.563,-0.259l-3.904,-1.304c-2.604,-1.042 -8.854,-3.125 -14.062,-3.125c-1.825,0 -3.388,0.263 -4.95,0.783c2.866,-4.95 16.408,-11.458 19.27,-12.241c9.375,-1.3 17.188,-6.771 17.188,-16.925c-0,-6.25 -2.604,-10.417 -5.988,-13.542c-6.77,-5.471 -16.666,-6.25 -19.533,-6.25c-9.375,0 -16.925,0.521 -23.696,8.333c-1.825,2.084 -2.604,4.167 -2.604,6.25c0,1.821 0.779,3.905 1.563,6.25c1.562,3.125 4.945,5.467 8.591,5.467c6.513,0 7.292,-6.25 7.292,-9.113c-0,-5.991 -6.508,-6.512 -6.508,-9.116c-0,-1.821 2.604,-4.946 10.416,-4.946c12.238,0 16.404,10.154 16.404,13.279c0,4.688 -1.562,9.117 -4.166,12.763c-4.688,5.987 -13.279,8.07 -19.792,12.237c-7.292,4.429 -12.237,11.979 -14.583,20.313c-0,1.825 0.783,3.908 2.346,4.687c0.258,0.263 0.779,0.263 1.041,0.263c2.863,-0 4.425,-8.075 12.238,-8.075c5.208,-0 7.033,7.033 18.75,7.033c5.471,0 15.625,-0.521 17.708,-20.575" style="fill-rule:nonzero;"/></g><g><path d="M3187.64,268.546l-0,-27.863c-0,-1.304 -0.259,-2.345 -1.563,-2.345c-1.042,-0 -1.821,0.262 -2.604,1.304l-7.813,15.104c-0.52,0.521 -1.3,1.3 -1.3,3.125l0,10.675l-16.929,-0c10.679,-8.854 27.346,-38.279 27.604,-39.842c0,-0.262 0.263,-0.521 0.263,-0.783c-0,-1.042 -1.042,-1.821 -1.825,-1.821c-1.3,-0 -6.771,0.521 -9.113,0.521c-2.345,-0 -3.908,-0.521 -4.95,-0.521c-1.3,-0 -3.125,0.521 -3.125,2.604c0,16.667 -13.541,35.675 -16.925,40.363c-0.52,0.52 -1.041,1.304 -1.041,2.083c-0,1.304 1.041,2.604 2.604,2.604l23.437,0l0,8.075c0,3.646 -2.083,4.688 -4.166,4.688c-2.346,-0 -3.388,1.041 -3.388,2.341c0,1.305 0.521,2.867 2.867,2.867l22.396,0c1.3,0 2.604,-1.042 2.604,-2.867c-0,-1.82 -1.563,-2.604 -2.867,-2.604c-1.3,0 -4.166,-0.779 -4.166,-4.946l-0,-7.554l9.637,0c1.3,0 2.083,-1.042 2.083,-2.604c0,-1.563 -0.52,-2.604 -2.083,-2.604l-9.637,-0" style="fill-rule:nonzero;"/></g><g><path d="M3402.09,268.492l-0,-27.867c-0,-1.3 -0.263,-2.342 -1.563,-2.342c-1.041,0 -1.825,0.259 -2.604,1.3l-7.812,15.105c-0.521,0.52 -1.305,1.304 -1.305,3.124l0,10.68l-16.925,-0c10.675,-8.854 27.342,-38.284 27.605,-39.846c-0,-0.258 0.258,-0.521 0.258,-0.779c-0,-1.042 -1.042,-1.825 -1.821,-1.825c-1.304,-0 -6.771,0.52 -9.117,0.52c-2.341,0 -3.904,-0.52 -4.945,-0.52c-1.305,-0 -3.125,0.52 -3.125,2.604c-0,16.666 -13.542,35.679 -16.93,40.367c-0.52,0.52 -1.041,1.299 -1.041,2.083c-0,1.3 1.041,2.604 2.604,2.604l23.437,0l0,8.071c0,3.646 -2.083,4.687 -4.166,4.687c-2.342,0 -3.384,1.042 -3.384,2.346c0,1.3 0.521,2.863 2.863,2.863l22.396,-0c1.304,-0 2.604,-1.042 2.604,-2.863c-0,-1.825 -1.563,-2.604 -2.863,-2.604c-1.304,-0 -4.166,-0.783 -4.166,-4.95l-0,-7.55l9.633,-0c1.304,-0 2.083,-1.042 2.083,-2.604c0,-1.563 -0.52,-2.604 -2.083,-2.604l-9.633,-0" style="fill-rule:nonzero;"/></g><g><path d="M3695.11,223.754c0,0 -0.262,1.042 -0.262,1.825c-0,1.042 1.042,2.084 2.083,2.084c0.784,-0 1.304,-0.784 1.563,-1.042c0.262,-0.783 3.387,-11.458 4.95,-14.063c0.521,-1.041 1.041,-1.304 1.3,-1.304c0.521,0 0.783,1.042 0.783,1.825l0,37.238c0,3.125 -2.604,4.95 -5.208,4.95c-1.042,-0 -2.346,0.521 -2.346,2.083c-0,1.563 1.304,2.083 3.387,2.083l21.875,0c2.084,0 2.084,-2.083 2.084,-2.083c-0,0 -0,-2.083 -2.084,-2.083c-1.825,-0 -4.166,-2.346 -4.166,-4.688l-0,-54.166c-0,-2.084 -0.784,-3.125 -2.604,-3.125c-1.825,-0 -3.388,0.52 -4.95,0.52c-2.605,0 -3.125,0 -5.209,-0.52c-1.041,-0 -2.341,1.562 -3.125,2.604l-8.071,27.862" style="fill-rule:nonzero;"/></g><g><path d="M3983.73,205.496c0,-1.825 -0.779,-2.083 -1.562,-2.083c-1.042,-0 -1.563,0.779 -1.821,1.562c-1.304,3.646 -4.167,8.333 -8.075,8.333c-0.521,0 -1.042,0 -1.562,-0.262l-3.905,-1.3c-2.604,-1.042 -8.854,-3.125 -14.062,-3.125c-1.825,-0 -3.388,0.258 -4.95,0.779c2.867,-4.946 16.408,-11.458 19.271,-12.237c9.375,-1.305 17.187,-6.771 17.187,-16.93c0,-6.25 -2.604,-10.416 -5.987,-13.541c-6.771,-5.467 -16.667,-6.25 -19.534,-6.25c-9.375,-0 -16.925,0.52 -23.695,8.333c-1.825,2.083 -2.605,4.167 -2.605,6.25c0,1.825 0.78,3.908 1.563,6.25c1.562,3.125 4.946,5.471 8.592,5.471c6.512,-0 7.291,-6.25 7.291,-9.117c0,-5.987 -6.508,-6.508 -6.508,-9.112c-0,-1.825 2.604,-4.95 10.417,-4.95c12.237,-0 16.404,10.158 16.404,13.283c-0,4.688 -1.563,9.112 -4.167,12.758c-4.687,5.992 -13.279,8.075 -19.792,12.242c-7.291,4.425 -12.237,11.979 -14.583,20.313c0,1.82 0.783,3.904 2.346,4.687c0.258,0.258 0.779,0.258 1.042,0.258c2.862,0 4.425,-8.07 12.237,-8.07c5.208,-0 7.033,7.029 18.75,7.029c5.471,-0 15.625,-0.521 17.708,-20.571" style="fill-rule:nonzero;"/></g><g><path d="M4219.65,171.617l0,-27.867c0,-1.3 -0.258,-2.342 -1.562,-2.342c-1.042,0 -1.821,0.259 -2.605,1.3l-7.812,15.105c-0.521,0.52 -1.3,1.304 -1.3,3.125l-0,10.679l-16.929,-0c10.679,-8.854 27.346,-38.284 27.604,-39.846c-0,-0.258 0.262,-0.521 0.262,-0.779c0,-1.042 -1.041,-1.825 -1.825,-1.825c-1.3,-0 -6.77,0.521 -9.112,0.521c-2.346,-0 -3.908,-0.521 -4.95,-0.521c-1.3,-0 -3.125,0.521 -3.125,2.604c-0,16.667 -13.542,35.679 -16.925,40.367c-0.521,0.52 -1.042,1.3 -1.042,2.083c0,1.3 1.042,2.604 2.604,2.604l23.438,0l-0,8.071c-0,3.646 -2.083,4.687 -4.167,4.687c-2.346,0 -3.387,1.042 -3.387,2.346c-0,1.3 0.521,2.863 2.866,2.863l22.396,-0c1.3,-0 2.604,-1.042 2.604,-2.863c0,-1.825 -1.562,-2.604 -2.866,-2.604c-1.3,0 -4.167,-0.783 -4.167,-4.95l0,-7.55l9.638,0c1.3,0 2.083,-1.042 2.083,-2.604c-0,-1.563 -0.521,-2.604 -2.083,-2.604l-9.638,-0" style="fill-rule:nonzero;"/></g><g><path d="M4438.65,126.883c0,0 -0.262,1.042 -0.262,1.821c-0,1.042 1.041,2.083 2.083,2.083c0.783,0 1.304,-0.779 1.562,-1.041c0.263,-0.779 3.388,-11.459 4.95,-14.063c0.521,-1.041 1.042,-1.3 1.3,-1.3c0.521,0 0.784,1.042 0.784,1.821l-0,37.242c-0,3.125 -2.604,4.946 -5.209,4.946c-1.041,-0 -2.345,0.52 -2.345,2.083c-0,1.563 1.304,2.083 3.387,2.083l21.875,0c2.083,0 2.083,-2.083 2.083,-2.083c0,0 0,-2.083 -2.083,-2.083c-1.825,-0 -4.167,-2.342 -4.167,-4.688l0,-54.167c0,-2.083 -0.783,-3.125 -2.604,-3.125c-1.825,0 -3.387,0.521 -4.95,0.521c-2.604,0 -3.125,0 -5.208,-0.521c-1.042,0 -2.342,1.563 -3.125,2.605l-8.071,27.866" style="fill-rule:nonzero;"/></g><g><path d="M4693.73,108.621c0,-1.825 -0.779,-2.084 -1.562,-2.084c-1.042,0 -1.563,0.78 -1.821,1.563c-1.304,3.646 -4.167,8.333 -8.075,8.333c-0.521,0 -1.042,0 -1.562,-0.262l-3.905,-1.3c-2.604,-1.042 -8.854,-3.125 -14.062,-3.125c-1.825,-0 -3.388,0.258 -4.95,0.779c2.867,-4.946 16.408,-11.458 19.271,-12.238c9.375,-1.304 17.187,-6.77 17.187,-16.929c0,-6.25 -2.604,-10.416 -5.987,-13.541c-6.771,-5.467 -16.667,-6.25 -19.534,-6.25c-9.375,-0 -16.925,0.52 -23.695,8.333c-1.825,2.083 -2.605,4.167 -2.605,6.25c0,1.825 0.78,3.908 1.563,6.25c1.562,3.125 4.946,5.471 8.592,5.471c6.512,-0 7.291,-6.25 7.291,-9.117c0,-5.987 -6.508,-6.508 -6.508,-9.112c-0,-1.825 2.604,-4.95 10.417,-4.95c12.237,-0 16.404,10.158 16.404,13.283c-0,4.687 -1.563,9.112 -4.167,12.758c-4.687,5.992 -13.279,8.075 -19.792,12.242c-7.291,4.425 -12.237,11.979 -14.583,20.312c0,1.821 0.783,3.905 2.346,4.688c0.258,0.258 0.779,0.258 1.042,0.258c2.862,0 4.425,-8.071 12.237,-8.071c5.208,0 7.033,7.03 18.75,7.03c5.471,-0 15.625,-0.521 17.708,-20.571" style="fill-rule:nonzero;"/></g><g><path d="M4879.57,32.35c-14.321,-0 -20.571,9.638 -20.571,15.104c-0,3.646 2.083,8.075 8.592,8.333c4.95,0 7.291,-3.125 7.291,-6.508l0,-1.041c-0.258,-3.909 -2.862,-4.167 -3.383,-4.43c-0.521,-0.258 -1.563,-1.3 -1.563,-3.125c0.521,-2.862 4.425,-3.904 5.467,-3.904c13.283,0 17.188,7.029 17.188,11.459c-0,12.237 -12.5,13.279 -16.405,13.541c-1.825,0 -3.645,0.779 -3.645,2.342c-0,1.562 2.341,1.562 3.383,1.562c15.104,0 17.187,7.813 17.187,11.721c0,15.104 -12.237,15.625 -15.362,15.625c-1.563,0 -4.167,-0.783 -4.429,-2.083l-0,-1.563c-0,-2.866 0.783,-5.991 1.041,-8.596c0,-4.687 -3.125,-7.549 -7.812,-7.549l-1.042,-0c-1.821,0.52 -3.646,1.562 -4.946,2.862c-1.825,1.563 -2.345,3.908 -2.345,6.25c0.262,8.333 7.554,15.367 20.575,15.625l1.562,0c12.758,0 26.042,-6.771 26.042,-18.229c-0,-2.604 -0.521,-4.688 -1.304,-6.25c-0.521,-1.563 -1.563,-2.863 -2.605,-3.904c-0.779,-1.042 -1.82,-1.825 -2.862,-2.604l-2.867,-1.563l-1.562,-0.521c-0.521,0 -0.779,-0.262 -1.3,-0.262l-1.563,-0.521c-0.783,-0.258 -1.041,-0 -1.304,-0.521c-0.258,-0.258 -0.258,-0.521 -0.258,-0.779c-0,-0.521 0.258,-1.042 0.779,-1.042l4.167,-1.304c1.825,-1.042 3.645,-1.821 4.95,-3.646c2.083,-2.083 2.862,-5.466 2.862,-8.333c0,-12.238 -16.146,-15.625 -21.875,-16.146l-2.083,0" style="fill-rule:nonzero;"/></g><g><path d="M5110.53,42.45l0,-27.867c0,-1.3 -0.262,-2.341 -1.562,-2.341c-1.042,-0 -1.825,0.258 -2.605,1.3l-7.812,15.104c-0.521,0.521 -1.304,1.304 -1.304,3.125l-0,10.679l-16.925,-0c10.675,-8.854 27.341,-38.283 27.604,-39.846c-0,-0.258 0.258,-0.521 0.258,-0.779c0,-1.042 -1.041,-1.825 -1.821,-1.825c-1.304,0 -6.77,0.521 -9.116,0.521c-2.342,-0 -3.904,-0.521 -4.946,-0.521c-1.304,0 -3.125,0.521 -3.125,2.604c-0,16.667 -13.542,35.679 -16.929,40.367c-0.521,0.521 -1.042,1.3 -1.042,2.083c0,1.3 1.042,2.604 2.604,2.604l23.438,0l-0,8.071c-0,3.646 -2.084,4.688 -4.167,4.688c-2.342,-0 -3.383,1.041 -3.383,2.345c-0,1.301 0.521,2.863 2.862,2.863l22.396,0c1.304,0 2.604,-1.042 2.604,-2.863c0,-1.825 -1.562,-2.604 -2.862,-2.604c-1.304,0 -4.167,-0.783 -4.167,-4.95l0,-7.55l9.633,0c1.305,0 2.084,-1.041 2.084,-2.604c-0,-1.562 -0.521,-2.604 -2.084,-2.604l-9.633,-0" style="fill-rule:nonzero;"/></g><g><path d="M5324.94,42.45l-0,-27.867c-0,-1.3 -0.263,-2.341 -1.563,-2.341c-1.041,-0 -1.825,0.258 -2.604,1.3l-7.812,15.104c-0.521,0.521 -1.305,1.304 -1.305,3.125l0,10.679l-16.925,-0c10.675,-8.854 27.342,-38.283 27.605,-39.846c-0,-0.258 0.258,-0.521 0.258,-0.779c-0,-1.042 -1.042,-1.825 -1.821,-1.825c-1.304,0 -6.771,0.521 -9.117,0.521c-2.341,-0 -3.904,-0.521 -4.945,-0.521c-1.305,0 -3.125,0.521 -3.125,2.604c-0,16.667 -13.542,35.679 -16.93,40.367c-0.52,0.521 -1.041,1.3 -1.041,2.083c-0,1.3 1.041,2.604 2.604,2.604l23.437,0l0,8.071c0,3.646 -2.083,4.688 -4.166,4.688c-2.342,-0 -3.384,1.041 -3.384,2.345c0,1.301 0.521,2.863 2.863,2.863l22.396,0c1.304,0 2.604,-1.042 2.604,-2.863c-0,-1.825 -1.563,-2.604 -2.863,-2.604c-1.304,0 -4.166,-0.783 -4.166,-4.95l-0,-7.55l9.633,0c1.304,0 2.083,-1.041 2.083,-2.604c0,-1.562 -0.52,-2.604 -2.083,-2.604l-9.633,-0" style="fill-rule:nonzero;"/></g><g><path d="M5522.82,32.35c-14.321,-0 -20.571,9.638 -20.571,15.104c-0,3.646 2.083,8.075 8.592,8.333c4.95,0 7.291,-3.125 7.291,-6.508l0,-1.041c-0.258,-3.909 -2.862,-4.167 -3.383,-4.43c-0.521,-0.258 -1.563,-1.3 -1.563,-3.125c0.521,-2.862 4.425,-3.904 5.467,-3.904c13.283,0 17.188,7.029 17.188,11.459c-0,12.237 -12.5,13.279 -16.405,13.541c-1.825,0 -3.645,0.779 -3.645,2.342c-0,1.562 2.341,1.562 3.383,1.562c15.104,0 17.187,7.813 17.187,11.721c0,15.104 -12.237,15.625 -15.362,15.625c-1.563,0 -4.167,-0.783 -4.429,-2.083l-0,-1.563c-0,-2.866 0.783,-5.991 1.041,-8.596c0,-4.687 -3.125,-7.549 -7.812,-7.549l-1.042,-0c-1.821,0.52 -3.646,1.562 -4.946,2.862c-1.825,1.563 -2.345,3.908 -2.345,6.25c0.262,8.333 7.554,15.367 20.575,15.625l1.562,0c12.758,0 26.042,-6.771 26.042,-18.229c-0,-2.604 -0.521,-4.688 -1.304,-6.25c-0.521,-1.563 -1.563,-2.863 -2.605,-3.904c-0.779,-1.042 -1.82,-1.825 -2.862,-2.604l-2.867,-1.563l-1.562,-0.521c-0.521,0 -0.779,-0.262 -1.3,-0.262l-1.563,-0.521c-0.783,-0.258 -1.041,-0 -1.304,-0.521c-0.258,-0.258 -0.258,-0.521 -0.258,-0.779c-0,-0.521 0.258,-1.042 0.779,-1.042l4.167,-1.304c1.825,-1.042 3.645,-1.821 4.95,-3.646c2.083,-2.083 2.862,-5.466 2.862,-8.333c0,-12.238 -16.146,-15.625 -21.875,-16.146l-2.083,0" style="fill-rule:nonzero;"/></g><g><path d="M5765.73,108.621c0,-1.825 -0.779,-2.084 -1.562,-2.084c-1.042,0 -1.563,0.78 -1.821,1.563c-1.304,3.646 -4.167,8.333 -8.075,8.333c-0.521,0 -1.042,0 -1.562,-0.262l-3.905,-1.3c-2.604,-1.042 -8.854,-3.125 -14.062,-3.125c-1.825,-0 -3.388,0.258 -4.95,0.779c2.867,-4.946 16.408,-11.458 19.271,-12.238c9.375,-1.304 17.187,-6.77 17.187,-16.929c0,-6.25 -2.604,-10.416 -5.987,-13.541c-6.771,-5.467 -16.667,-6.25 -19.534,-6.25c-9.375,-0 -16.925,0.52 -23.695,8.333c-1.825,2.083 -2.605,4.167 -2.605,6.25c0,1.825 0.78,3.908 1.563,6.25c1.562,3.125 4.946,5.471 8.592,5.471c6.512,-0 7.291,-6.25 7.291,-9.117c0,-5.987 -6.508,-6.508 -6.508,-9.112c-0,-1.825 2.604,-4.95 10.417,-4.95c12.237,-0 16.404,10.158 16.404,13.283c-0,4.687 -1.563,9.112 -4.167,12.758c-4.687,5.992 -13.279,8.075 -19.792,12.242c-7.291,4.425 -12.237,11.979 -14.583,20.312c0,1.821 0.783,3.905 2.346,4.688c0.258,0.258 0.779,0.258 1.042,0.258c2.862,0 4.425,-8.071 12.237,-8.071c5.208,0 7.033,7.03 18.75,7.03c5.471,-0 15.625,-0.521 17.708,-20.571" style="fill-rule:nonzero;"/></g><g><path d="M5939.4,126.883c0,0 -0.262,1.042 -0.262,1.821c-0,1.042 1.041,2.083 2.083,2.083c0.783,0 1.304,-0.779 1.562,-1.041c0.263,-0.779 3.388,-11.459 4.95,-14.063c0.521,-1.041 1.042,-1.3 1.3,-1.3c0.521,0 0.784,1.042 0.784,1.821l-0,37.242c-0,3.125 -2.604,4.946 -5.209,4.946c-1.041,-0 -2.345,0.52 -2.345,2.083c-0,1.563 1.304,2.083 3.387,2.083l21.875,0c2.083,0 2.083,-2.083 2.083,-2.083c0,0 0,-2.083 -2.083,-2.083c-1.825,-0 -4.167,-2.342 -4.167,-4.688l0,-54.167c0,-2.083 -0.783,-3.125 -2.604,-3.125c-1.825,0 -3.387,0.521 -4.95,0.521c-2.604,0 -3.125,0 -5.208,-0.521c-1.042,0 -2.342,1.563 -3.125,2.605l-8.071,27.866" style="fill-rule:nonzero;"/></g><g><path d="M6182.61,171.617l0,-27.867c0,-1.3 -0.258,-2.342 -1.562,-2.342c-1.042,0 -1.821,0.259 -2.604,1.3l-7.813,15.105c-0.521,0.52 -1.3,1.304 -1.3,3.125l0,10.679l-16.929,-0c10.679,-8.854 27.346,-38.284 27.604,-39.846c0,-0.258 0.263,-0.521 0.263,-0.779c-0,-1.042 -1.042,-1.825 -1.825,-1.825c-1.3,-0 -6.771,0.521 -9.113,0.521c-2.346,-0 -3.908,-0.521 -4.95,-0.521c-1.3,-0 -3.125,0.521 -3.125,2.604c0,16.667 -13.541,35.679 -16.925,40.367c-0.521,0.52 -1.041,1.3 -1.041,2.083c-0,1.3 1.041,2.604 2.604,2.604l23.437,0l0,8.071c0,3.646 -2.083,4.687 -4.166,4.687c-2.346,0 -3.388,1.042 -3.388,2.346c0,1.3 0.521,2.863 2.867,2.863l22.396,-0c1.3,-0 2.604,-1.042 2.604,-2.863c-0,-1.825 -1.563,-2.604 -2.867,-2.604c-1.3,0 -4.167,-0.783 -4.167,-4.95l0,-7.55l9.638,0c1.3,0 2.083,-1.042 2.083,-2.604c0,-1.563 -0.521,-2.604 -2.083,-2.604l-9.638,-0" style="fill-rule:nonzero;"/></g><g><path d="M6442.44,205.496c-0,-1.825 -0.784,-2.083 -1.563,-2.083c-1.041,-0 -1.562,0.779 -1.825,1.562c-1.3,3.646 -4.166,8.333 -8.071,8.333c-0.52,0 -1.041,0 -1.562,-0.262l-3.908,-1.3c-2.605,-1.042 -8.855,-3.125 -14.063,-3.125c-1.821,-0 -3.383,0.258 -4.946,0.779c2.863,-4.946 16.404,-11.458 19.271,-12.237c9.375,-1.305 17.188,-6.771 17.188,-16.93c-0,-6.25 -2.605,-10.416 -5.992,-13.541c-6.771,-5.467 -16.667,-6.25 -19.529,-6.25c-9.375,-0 -16.929,0.52 -23.7,8.333c-1.821,2.083 -2.604,4.167 -2.604,6.25c-0,1.825 0.783,3.908 1.562,6.25c1.563,3.125 4.95,5.471 8.596,5.471c6.508,-0 7.292,-6.25 7.292,-9.117c-0,-5.987 -6.513,-6.508 -6.513,-9.112c0,-1.825 2.604,-4.95 10.417,-4.95c12.241,-0 16.408,10.158 16.408,13.283c0,4.688 -1.562,9.112 -4.167,12.758c-4.687,5.992 -13.283,8.075 -19.791,12.242c-7.292,4.425 -12.242,11.979 -14.584,20.313c0,1.82 0.78,3.904 2.342,4.687c0.263,0.258 0.783,0.258 1.042,0.258c2.866,0 4.429,-8.07 12.241,-8.07c5.209,-0 7.03,7.029 18.75,7.029c5.467,-0 15.625,-0.521 17.709,-20.571" style="fill-rule:nonzero;"/></g><g><path d="M6649.61,223.754c0,0 -0.258,1.042 -0.258,1.825c0,1.042 1.042,2.084 2.083,2.084c0.78,-0 1.3,-0.784 1.563,-1.042c0.258,-0.783 3.383,-11.458 4.946,-14.063c0.521,-1.041 1.041,-1.304 1.304,-1.304c0.521,0 0.779,1.042 0.779,1.825l0,37.238c0,3.125 -2.604,4.95 -5.208,4.95c-1.042,-0 -2.342,0.521 -2.342,2.083c0,1.563 1.3,2.083 3.383,2.083l21.875,0c2.084,0 2.084,-2.083 2.084,-2.083c-0,0 -0,-2.083 -2.084,-2.083c-1.82,-0 -4.166,-2.346 -4.166,-4.688l-0,-54.166c-0,-2.084 -0.779,-3.125 -2.604,-3.125c-1.821,-0 -3.384,0.52 -4.946,0.52c-2.604,0 -3.125,0 -5.209,-0.52c-1.041,-0 -2.345,1.562 -3.125,2.604l-8.075,27.862" style="fill-rule:nonzero;"/></g><g><path d="M386.889,808.913c23.175,-0 51.562,-21.355 51.562,-43.492c0,-13.279 -10.417,-21.613 -25.262,-21.613c-28.646,0 -51.563,21.092 -51.563,43.488c0,13.542 11.2,21.617 25.263,21.617" style="fill-rule:nonzero;"/></g><g><path d="M634.776,776.621c23.179,-0 51.563,-21.354 51.563,-43.492c-0,-13.279 -10.417,-21.612 -25.259,-21.612c-28.646,-0 -51.562,21.091 -51.562,43.487c-0,13.542 11.196,21.617 25.258,21.617" style="fill-rule:nonzero;"/></g><g><path d="M882.668,744.329c23.175,0 51.562,-21.354 51.562,-43.491c0,-13.28 -10.416,-21.613 -25.262,-21.613c-28.646,-0 -51.563,21.092 -51.563,43.487c0,13.542 11.2,21.617 25.263,21.617" style="fill-rule:nonzero;"/></g><g><path d="M1067.98,691.204c-1.562,5.208 -13.804,10.417 -19.791,10.417c-1.563,-0 -2.867,-0.521 -3.125,-1.304c-0.521,-1.042 -0.784,-6.771 -0.784,-13.021c0,-8.071 0.263,-17.188 0.784,-19.271c0.52,-4.425 12.5,-9.896 19.008,-9.896c1.825,0 3.387,0.521 3.908,1.563c0.521,1.304 1.042,7.812 1.042,14.845c-0,7.03 -0.521,14.321 -1.042,16.667m17.967,-42.45c1.825,-0.779 3.125,-2.862 3.125,-4.425l-0,-18.492c-0,-1.3 -0.779,-2.083 -1.821,-2.083c-0.521,0 -0.783,0 -1.304,0.263c-0,-0 -5.208,2.083 -6.508,2.341c-1.825,0 -3.646,-1.3 -3.646,-3.383l-0,-31.771c-0,-1.562 -1.563,-2.867 -3.646,-2.867c-2.604,0 -4.167,1.305 -4.167,2.867l0,33.854c-0.262,2.604 -1.041,5.988 -3.387,7.55c-3.125,1.825 -11.979,5.471 -16.404,6.513c-2.346,-0 -3.125,-3.125 -3.125,-5.209l-0,-31.25c-0,-1.562 -1.825,-2.866 -3.646,-2.866c-2.604,-0 -4.167,1.304 -4.167,2.866l0,35.155c0,3.645 -1.562,6.25 -3.125,7.033c-1.562,0.779 -6.771,2.862 -6.771,2.862c-1.825,0.521 -3.125,2.605 -3.125,4.167l0,18.492c0,1.562 0.779,2.341 2.084,2.341c1.041,0 5.987,-2.341 6.77,-2.862c0.259,-0 0.521,-0.263 0.78,-0.263c1.825,0 3.387,2.605 3.387,4.688l0,25.783c0,2.863 -1.304,5.209 -2.867,5.988c-1.562,0.521 -7.029,2.866 -7.029,2.866c-1.825,0.521 -3.125,2.605 -3.125,4.167l0,18.488c0,1.562 0.779,2.345 2.084,2.345c0.258,0 0.779,-0.262 1.041,-0.262c0,-0 3.646,-1.563 5.988,-2.342c0.262,-0.262 0.521,-0.262 0.783,-0.262c1.821,-0 3.125,2.866 3.125,4.166l0,32.034c0,1.562 1.563,2.862 3.383,2.862c2.605,0 4.43,-1.3 4.43,-2.862l-0,-36.2c-0,-3.384 1.3,-5.209 2.604,-5.729l15.883,-6.509c0.263,0 0.783,-0.262 1.042,-0.262c2.083,-0 3.387,3.125 3.387,4.687l0,32.554c0,1.563 1.563,2.863 3.384,2.863c2.866,-0 4.429,-1.3 4.429,-2.863l-0,-36.979c-0,-2.083 1.041,-5.208 2.862,-5.991c1.825,-0.78 7.292,-2.863 7.292,-2.863c1.825,-0.783 3.125,-2.867 3.125,-4.429l-0,-18.488c-0,-1.304 -0.779,-2.083 -1.821,-2.083c-0.521,0 -0.783,0 -1.304,0.258l-6.771,2.605c-1.562,-0 -3.383,-1.563 -3.383,-4.688l-0,-24.217c-0,-1.825 1.3,-6.77 3.383,-7.554l6.771,-2.604" style="fill-rule:nonzero;"/></g><g><path d="M1130.43,712.038c23.179,-0 51.563,-21.355 51.563,-43.492c-0,-13.279 -10.417,-21.613 -25.259,-21.613c-28.646,0 -51.562,21.092 -51.562,43.488c-0,13.542 11.196,21.617 25.258,21.617" style="fill-rule:nonzero;"/></g><g><path d="M1344.88,679.746c23.179,-0 51.563,-21.354 51.563,-43.492c-0,-13.279 -10.417,-21.612 -25.259,-21.612c-28.645,-0 -51.562,21.091 -51.562,43.487c-0,13.542 11.196,21.617 25.258,21.617" style="fill-rule:nonzero;"/></g><g><path d="M1559.33,647.454c23.175,0 51.563,-21.354 51.563,-43.491c-0,-13.28 -10.417,-21.613 -25.263,-21.613c-28.645,-0 -51.562,21.092 -51.562,43.487c-0,13.542 11.2,21.617 25.262,21.617" style="fill-rule:nonzero;"/></g><g><path d="M1773.8,615.163c23.175,-0 51.563,-21.355 51.563,-43.492c-0,-13.279 -10.417,-21.613 -25.263,-21.613c-28.646,0 -51.562,21.092 -51.562,43.488c-0,13.542 11.2,21.616 25.262,21.616" style="fill-rule:nonzero;"/></g><g><path d="M1988.25,582.871c23.179,-0 51.563,-21.354 51.563,-43.492c-0,-13.279 -10.417,-21.612 -25.259,-21.612c-28.646,-0 -51.562,21.091 -51.562,43.487c-0,13.542 11.196,21.617 25.258,21.617" style="fill-rule:nonzero;"/></g><g><path d="M2236.14,550.579c23.175,0 51.562,-21.354 51.562,-43.491c0,-13.28 -10.416,-21.613 -25.262,-21.613c-28.646,-0 -51.563,21.092 -51.563,43.488c0,13.541 11.2,21.616 25.263,21.616" style="fill-rule:nonzero;"/></g><g><path d="M2484.03,518.288c23.175,-0 51.563,-21.355 51.563,-43.492c-0,-13.279 -10.417,-21.613 -25.263,-21.613c-28.645,0 -51.562,21.092 -51.562,43.488c-0,13.542 11.2,21.617 25.262,21.617" style="fill-rule:nonzero;"/></g><g><path d="M2669.27,465.163c-1.563,5.208 -13.804,10.416 -19.792,10.416c-1.562,0 -2.867,-0.521 -3.125,-1.304c-0.521,-1.042 -0.783,-6.771 -0.783,-13.021c-0,-8.071 0.262,-17.187 0.783,-19.271c0.521,-4.425 12.5,-9.895 19.008,-9.895c1.825,-0 3.388,0.52 3.909,1.562c0.521,1.304 1.041,7.813 1.041,14.846c0,7.029 -0.52,14.321 -1.041,16.666m17.966,-42.449c1.825,-0.78 3.125,-2.863 3.125,-4.425l0,-18.492c0,-1.3 -0.779,-2.083 -1.82,-2.083c-0.521,-0 -0.784,-0 -1.305,0.262c0,0 -5.208,2.083 -6.508,2.342c-1.825,-0 -3.646,-1.3 -3.646,-3.384l0,-31.77c0,-1.563 -1.562,-2.867 -3.646,-2.867c-2.604,-0 -4.166,1.304 -4.166,2.867l-0,33.854c-0.263,2.604 -1.042,5.987 -3.388,7.55c-3.125,1.825 -11.979,5.471 -16.404,6.512c-2.346,0 -3.125,-3.125 -3.125,-5.208l0,-31.25c0,-1.563 -1.825,-2.867 -3.646,-2.867c-2.604,0 -4.166,1.304 -4.166,2.867l-0,35.154c-0,3.646 -1.563,6.25 -3.125,7.033c-1.563,0.78 -6.771,2.863 -6.771,2.863c-1.825,0.521 -3.125,2.604 -3.125,4.167l-0,18.491c-0,1.563 0.779,2.342 2.083,2.342c1.042,-0 5.988,-2.342 6.771,-2.863c0.258,0 0.521,-0.262 0.779,-0.262c1.825,-0 3.388,2.604 3.388,4.687l-0,25.784c-0,2.862 -1.305,5.208 -2.867,5.987c-1.563,0.521 -7.029,2.867 -7.029,2.867c-1.825,0.521 -3.125,2.604 -3.125,4.167l-0,18.487c-0,1.563 0.779,2.346 2.083,2.346c0.258,-0 0.779,-0.263 1.042,-0.263c-0,0 3.646,-1.562 5.987,-2.341c0.263,-0.263 0.521,-0.263 0.784,-0.263c1.82,0 3.125,2.867 3.125,4.167l-0,32.033c-0,1.563 1.562,2.863 3.383,2.863c2.604,-0 4.429,-1.3 4.429,-2.863l0,-36.2c0,-3.383 1.3,-5.208 2.604,-5.729l15.884,-6.508c0.262,-0 0.783,-0.263 1.041,-0.263c2.084,0 3.388,3.125 3.388,4.688l-0,32.554c-0,1.562 1.562,2.862 3.383,2.862c2.867,0 4.429,-1.3 4.429,-2.862l0,-36.979c0,-2.084 1.042,-5.209 2.863,-5.992c1.825,-0.779 7.291,-2.862 7.291,-2.862c1.825,-0.784 3.125,-2.867 3.125,-4.43l0,-18.487c0,-1.304 -0.779,-2.083 -1.82,-2.083c-0.521,-0 -0.784,-0 -1.305,0.258l-6.77,2.604c-1.563,0 -3.384,-1.562 -3.384,-4.687l0,-24.217c0,-1.825 1.3,-6.771 3.384,-7.554l6.77,-2.604" style="fill-rule:nonzero;"/></g><g><path d="M2731.73,485.996c23.175,-0 51.559,-21.354 51.559,-43.492c-0,-13.279 -10.413,-21.612 -25.259,-21.612c-28.646,-0 -51.562,21.091 -51.562,43.487c-0,13.542 11.2,21.617 25.262,21.617" style="fill-rule:nonzero;"/></g><g><path d="M2946.18,453.704c23.179,0 51.563,-21.354 51.563,-43.491c-0,-13.28 -10.417,-21.613 -25.259,-21.613c-28.645,0 -51.562,21.092 -51.562,43.488c-0,13.541 11.196,21.616 25.258,21.616" style="fill-rule:nonzero;"/></g><g><path d="M3160.63,421.413c23.175,-0 51.563,-21.355 51.563,-43.492c-0,-13.279 -10.417,-21.613 -25.263,-21.613c-28.645,0 -51.562,21.092 -51.562,43.488c-0,13.542 11.2,21.617 25.262,21.617" style="fill-rule:nonzero;"/></g><g><path d="M3375.09,389.121c23.175,-0 51.562,-21.354 51.562,-43.492c0,-13.279 -10.417,-21.612 -25.262,-21.612c-28.646,-0 -51.563,21.091 -51.563,43.487c0,13.542 11.2,21.617 25.263,21.617" style="fill-rule:nonzero;"/></g><g><path d="M3696.9,356.829c23.175,0 51.563,-21.354 51.563,-43.492c-0,-13.279 -10.417,-21.612 -25.263,-21.612c-28.646,0 -51.562,21.092 -51.562,43.488c-0,13.541 11.2,21.616 25.262,21.616" style="fill-rule:nonzero;"/></g><g><path d="M3944.78,324.538c23.175,-0 51.563,-21.355 51.563,-43.492c-0,-13.279 -10.417,-21.613 -25.263,-21.613c-28.646,0 -51.562,21.092 -51.562,43.488c-0,13.541 11.2,21.617 25.262,21.617" style="fill-rule:nonzero;"/></g><g><path d="M4192.65,292.246c23.179,-0 51.563,-21.354 51.563,-43.492c-0,-13.279 -10.417,-21.612 -25.259,-21.612c-28.646,-0 -51.562,21.091 -51.562,43.487c-0,13.542 11.196,21.617 25.258,21.617" style="fill-rule:nonzero;"/></g><g><path d="M4377.94,239.121c-1.563,5.208 -13.8,10.416 -19.792,10.416c-1.562,0 -2.862,-0.52 -3.125,-1.304c-0.521,-1.041 -0.779,-6.77 -0.779,-13.02c-0,-8.071 0.258,-17.188 0.779,-19.271c0.521,-4.425 12.5,-9.896 19.013,-9.896c1.82,-0 3.383,0.521 3.904,1.562c0.521,1.304 1.041,7.813 1.041,14.846c0,7.029 -0.52,14.321 -1.041,16.667m17.971,-42.45c1.82,-0.779 3.125,-2.863 3.125,-4.425l-0,-18.488c-0,-1.304 -0.784,-2.083 -1.825,-2.083c-0.521,0 -0.78,0 -1.3,0.258c-0,0 -5.209,2.084 -6.513,2.346c-1.821,0 -3.646,-1.304 -3.646,-3.387l0,-31.771c0,-1.563 -1.562,-2.863 -3.646,-2.863c-2.604,0 -4.166,1.3 -4.166,2.863l-0,33.854c-0.259,2.604 -1.042,5.988 -3.384,7.55c-3.125,1.825 -11.979,5.471 -16.408,6.513c-2.342,-0 -3.125,-3.125 -3.125,-5.209l0,-31.25c0,-1.562 -1.821,-2.862 -3.646,-2.862c-2.604,-0 -4.166,1.3 -4.166,2.862l-0,35.154c-0,3.646 -1.563,6.25 -3.125,7.034c-1.563,0.779 -6.771,2.862 -6.771,2.862c-1.821,0.521 -3.125,2.604 -3.125,4.167l-0,18.492c-0,1.562 0.783,2.341 2.083,2.341c1.042,0 5.992,-2.341 6.771,-2.862c0.262,-0 0.521,-0.263 0.783,-0.263c1.821,0 3.384,2.604 3.384,4.688l-0,25.783c-0,2.863 -1.3,5.208 -2.863,5.988c-1.562,0.52 -7.033,2.866 -7.033,2.866c-1.821,0.521 -3.125,2.604 -3.125,4.167l-0,18.487c-0,1.563 0.783,2.346 2.083,2.346c0.263,0 0.783,-0.262 1.042,-0.262c-0,-0 3.646,-1.563 5.991,-2.342c0.259,-0.262 0.521,-0.262 0.78,-0.262c1.825,-0 3.125,2.866 3.125,4.166l-0,32.034c-0,1.562 1.562,2.862 3.387,2.862c2.604,0 4.425,-1.3 4.425,-2.862l0,-36.2c0,-3.384 1.304,-5.209 2.604,-5.73l15.888,-6.508c0.258,0 0.779,-0.262 1.041,-0.262c2.084,-0 3.384,3.125 3.384,4.687l-0,32.554c-0,1.563 1.562,2.863 3.387,2.863c2.863,-0 4.425,-1.3 4.425,-2.863l0,-36.979c0,-2.083 1.042,-5.208 2.867,-5.992c1.821,-0.779 7.292,-2.862 7.292,-2.862c1.82,-0.783 3.125,-2.867 3.125,-4.429l-0,-18.488c-0,-1.304 -0.784,-2.083 -1.825,-2.083c-0.521,-0 -0.78,-0 -1.3,0.258l-6.771,2.604c-1.563,0 -3.388,-1.562 -3.388,-4.687l0,-24.217c0,-1.825 1.304,-6.771 3.388,-7.554l6.771,-2.604" style="fill-rule:nonzero;"/></g><g><path d="M4440.44,259.954c23.175,0 51.562,-21.354 51.562,-43.492c0,-13.279 -10.416,-21.612 -25.262,-21.612c-28.646,0 -51.563,21.092 -51.563,43.488c0,13.541 11.2,21.616 25.263,21.616" style="fill-rule:nonzero;"/></g><g><path d="M4654.78,227.663c23.179,-0.001 51.563,-21.355 51.563,-43.492c-0,-13.279 -10.417,-21.613 -25.259,-21.613c-28.646,0 -51.562,21.092 -51.562,43.488c-0,13.542 11.196,21.617 25.258,21.617" style="fill-rule:nonzero;"/></g><g><path d="M4869.11,195.371c23.175,-0 51.563,-21.354 51.563,-43.488c-0,-13.283 -10.417,-21.616 -25.263,-21.616c-28.645,-0 -51.562,21.096 -51.562,43.491c-0,13.538 11.2,21.613 25.262,21.613" style="fill-rule:nonzero;"/></g><g><path d="M5083.53,163.079c23.179,0 51.563,-21.354 51.563,-43.487c-0,-13.284 -10.417,-21.617 -25.259,-21.617c-28.646,-0 -51.562,21.096 -51.562,43.492c-0,13.541 11.196,21.612 25.258,21.612" style="fill-rule:nonzero;"/></g><g><path d="M5297.94,163.079c23.175,0 51.562,-21.354 51.562,-43.487c0,-13.284 -10.416,-21.617 -25.262,-21.617c-28.646,-0 -51.563,21.096 -51.563,43.492c0,13.541 11.2,21.612 25.263,21.612" style="fill-rule:nonzero;"/></g><g><path d="M5512.36,195.371c23.18,-0 51.563,-21.354 51.563,-43.488c-0,-13.283 -10.417,-21.616 -25.258,-21.616c-28.646,-0 -51.563,21.096 -51.563,43.491c0,13.538 11.196,21.613 25.258,21.613" style="fill-rule:nonzero;"/></g><g><path d="M5726.78,227.663c23.179,-0.001 51.563,-21.355 51.563,-43.492c-0,-13.279 -10.417,-21.613 -25.259,-21.613c-28.646,0 -51.562,21.092 -51.562,43.488c-0,13.542 11.196,21.617 25.258,21.617" style="fill-rule:nonzero;"/></g><g><path d="M5941.19,259.954c23.175,0 51.562,-21.354 51.562,-43.492c0,-13.279 -10.416,-21.612 -25.262,-21.612c-28.646,0 -51.563,21.092 -51.563,43.488c0,13.541 11.2,21.616 25.263,21.616" style="fill-rule:nonzero;"/></g><g><path d="M6155.61,292.246c23.18,-0 51.563,-21.354 51.563,-43.492c-0,-13.279 -10.417,-21.612 -25.258,-21.612c-28.646,-0 -51.563,21.091 -51.563,43.487c0,13.542 11.196,21.617 25.258,21.617" style="fill-rule:nonzero;"/></g><g><path d="M6403.48,324.538c23.175,-0 51.563,-21.355 51.563,-43.492c-0,-13.279 -10.417,-21.613 -25.263,-21.613c-28.645,0 -51.562,21.092 -51.562,43.488c-0,13.541 11.2,21.617 25.262,21.617" style="fill-rule:nonzero;"/></g><g><path d="M6651.4,356.829c23.175,0 51.563,-21.354 51.563,-43.492c-0,-13.279 -10.417,-21.612 -25.263,-21.612c-28.646,0 -51.562,21.092 -51.562,43.488c-0,13.541 11.2,21.616 25.262,21.616" style="fill-rule:nonzero;"/></g><g><path d="M135.664,482.087c0.779,4.95 0.779,4.688 -3.909,6.25c-22.916,7.813 -37.758,28.388 -37.758,50.521c-0,23.438 12.237,40.105 29.946,46.096c2.083,0.779 5.208,1.563 7.033,1.563c2.083,-0 3.125,-1.304 3.125,-2.867c0,-1.821 -2.083,-2.604 -3.908,-3.383c-10.938,-4.688 -18.75,-15.888 -18.75,-27.867c-0,-14.842 10.158,-26.042 26.041,-30.467c4.167,-1.041 4.688,-0.783 5.209,2.084l13.021,77.604c0.52,2.862 0.262,2.862 -3.646,3.646c-4.167,0.779 -9.375,1.3 -14.584,1.3c-45.57,-0 -75,-25.259 -75,-61.459c0,-15.362 2.605,-35.937 24.221,-60.416c15.625,-17.446 27.604,-27.084 39.842,-36.979c2.604,-2.084 3.125,-1.821 3.646,1.041l5.471,33.334m28.383,-177.342c8.596,-0 15.625,7.029 15.625,21.354c-0,28.904 -24.738,52.342 -45.313,70.312c-1.82,1.563 -2.862,1.3 -3.383,-2.083c-1.042,-6.771 -1.562,-15.625 -1.562,-23.958c-0,-40.625 18.75,-65.625 34.633,-65.625m-10.417,218.75c-0.521,-3.125 -0.258,-3.908 2.867,-3.646c21.092,1.821 38.542,19.529 38.542,42.446c-0,16.408 -9.896,29.687 -24.48,36.979c-3.125,1.563 -3.645,1.563 -4.166,-1.563l-12.763,-74.216m-14.062,-81.25c-0.521,-3.125 -0,-3.388 1.562,-4.95c28.125,-26.3 49.479,-59.375 49.479,-99.217c0,-22.658 -6.25,-45.054 -16.925,-60.679c-3.908,-5.729 -10.679,-13.021 -13.541,-13.021c-3.646,0 -11.721,6.771 -16.929,12.5c-19.271,21.354 -25.521,53.909 -25.521,80.992c-0,15.104 1.825,32.029 3.646,42.708c0.52,3.125 0.783,3.646 -2.342,6.25c-37.5,30.988 -77.346,68.229 -77.346,120.833c0,45.313 30.992,88.28 94.792,88.28c5.991,-0 12.762,-0.521 17.971,-1.563c2.862,-0.521 3.383,-0.779 3.904,2.346c3.125,17.446 7.033,40.104 7.033,52.342c0,38.541 -26.042,43.229 -41.408,43.229c-14.063,-0 -20.834,-4.167 -20.834,-7.55c0,-1.825 2.346,-2.604 8.334,-4.429c8.075,-2.342 17.45,-9.375 17.45,-24.48c-0,-14.32 -9.117,-26.562 -25,-26.562c-17.45,0 -27.867,13.804 -27.867,29.95c0,16.925 10.158,42.446 49.479,42.446c17.45,-0 51.304,-7.813 51.304,-52.084c0,-14.841 -4.687,-39.583 -7.554,-55.729c-0.521,-3.125 -0.258,-2.862 3.388,-4.425c26.3,-10.416 43.75,-32.554 43.75,-61.979c-0,-33.333 -24.479,-62.762 -62.763,-62.762c-6.771,-0 -6.771,-0 -7.55,-4.688l-6.512,-37.758" style="fill-rule:nonzero;"/></g><g><text x="609.414px" y="892.992px" style="font-family:'Bravura';font-size:260.417px;"></text></g><g><text x="2210.78px" y="728.704px" style="font-family:'Bravura';font-size:260.417px;"></text></g><g><text x="3881.03px" y="728.704px" style="font-family:'Bravura';font-size:260.417px;"></text></g><g><text x="6339.73px" y="728.704px" style="font-family:'Bravura';font-size:260.417px;"></text></g><g><path d="M430.718,518.025l-0,-32.354l503.512,-32.292l0,32.354l-503.512,32.292" style="fill-rule:nonzero;"/></g><g><path d="M1174.2,453.067l0,-32.554l651.171,-80.73l0,32.554l-651.171,80.73" style="fill-rule:nonzero;"/></g><g><path d="M1174.2,501.879l0,-32.537l651.171,-80.73l0,32.538l-651.171,80.729" style="fill-rule:nonzero;"/></g><g><path d="M2032.02,356.567l-0,-32.442l503.512,-48.438l0,32.442l-503.512,48.438" style="fill-rule:nonzero;"/></g><g><path d="M2706.5,679.888l-0,-32.446l651.042,-64.584l-0,32.446l-651.042,64.584" style="fill-rule:nonzero;"/></g><g><path d="M2706.5,631.204l-0,-32.45l651.042,-64.583l-0,32.45l-651.042,64.583" style="fill-rule:nonzero;"/></g><g><path d="M3671.61,566.738l0,-32.567l503.517,-64.584l0,32.567l-503.517,64.583" style="fill-rule:nonzero;"/></g><g><path d="M4415.23,501.908l0,-32.304l650.78,-16.146l-0,32.305l-650.78,16.145" style="fill-rule:nonzero;"/></g><g><path d="M4415.23,453.458l0,-32.308l650.78,-16.146l-0,32.308l-650.78,16.146" style="fill-rule:nonzero;"/></g><g><path d="M5272.65,485.763l0,-32.305l651.042,16.146l-0,32.304l-651.042,-16.145" style="fill-rule:nonzero;"/></g><g><path d="M5272.65,437.313l0,-32.309l651.042,16.146l-0,32.308l-651.042,-16.146" style="fill-rule:nonzero;"/></g><g><path d="M6130.32,502.154l-0,-32.567l503.512,64.584l0,32.566l-503.512,-64.583" style="fill-rule:nonzero;"/></g><g><path d="M340.351,883.496l236.979,-29.375l0,-10.417l-226.691,28.1l-0,-36.746l-10.288,0" style="fill-rule:nonzero;"/></g><g><path d="M939.439,808.913l-220.963,27.329l0,-10.417l210.546,-26.679l-0,-38.671l10.417,0" style="fill-rule:nonzero;"/></g><g><path d="M1941.65,680.892l236.85,-0l0,-10.325l-226.433,-0l-0,-38.113l-10.417,0" style="fill-rule:nonzero;"/></g><g><path d="M2540.74,680.892l-220.7,-0l-0,-10.325l210.416,-0l0,-38.113l10.284,0" style="fill-rule:nonzero;"/></g><g><path d="M9.364,1519.07l3075.39,-0" style="fill:none;stroke:#000;stroke-width:8.38px;"/><path d="M9.364,1260.73l3075.39,0" style="fill:none;stroke:#000;stroke-width:8.38px;"/><path d="M9.364,1325.32l3075.39,-0" style="fill:none;stroke:#000;stroke-width:8.38px;"/><path d="M9.364,1389.9l3075.39,0" style="fill:none;stroke:#000;stroke-width:8.38px;"/><path d="M9.364,1454.48l3075.39,0" style="fill:none;stroke:#000;stroke-width:8.38px;"/></g><g><path d="M2419.26,1256.54l0,266.716" style="fill:none;stroke:#000;stroke-width:10.33px;"/><path d="M3043.34,1256.54l-0,266.716" style="fill:none;stroke:#000;stroke-width:10.33px;"/><path d="M3079.54,1256.54l-0,266.716" style="fill:none;stroke:#000;stroke-width:10.33px;"/></g><g><path d="M365.48,1271.58l0,232.2" style="fill:none;stroke:#000;stroke-width:7.75px;"/><path d="M494.647,1303.87l-0,218.867" style="fill:none;stroke:#000;stroke-width:7.75px;"/><path d="M623.947,1336.16l-0,205.52" style="fill:none;stroke:#000;stroke-width:7.75px;"/><path d="M805.847,1368.45l-0,199.909" style="fill:none;stroke:#000;stroke-width:7.75px;"/><path d="M1004.15,1195.73l0,183.321" style="fill:none;stroke:#000;stroke-width:7.75px;"/><path d="M1153.37,1219.95l-0,191.392" style="fill:none;stroke:#000;stroke-width:7.75px;"/><path d="M1302.72,1244.17l-0,199.467" style="fill:none;stroke:#000;stroke-width:7.75px;"/><path d="M1452.07,1259.39l-0,216.537" style="fill:none;stroke:#000;stroke-width:7.75px;"/><path d="M1581.23,1283.07l0,225.154" style="fill:none;stroke:#000;stroke-width:7.75px;"/><path d="M1710.53,1306.75l0,233.763" style="fill:none;stroke:#000;stroke-width:7.75px;"/><path d="M1892.56,1340.12l-0,232.683" style="fill:none;stroke:#000;stroke-width:7.75px;"/></g><g><path d="M1808.84,1583.65l113.412,0" style="fill:none;stroke:#000;stroke-width:10.33px;"/></g><g><path d="M2037.36,1389.85l0,215.246" style="fill:none;stroke:#000;stroke-width:7.75px;"/></g><g><path d="M1938.53,1583.65l128.517,0" style="fill:none;stroke:#000;stroke-width:10.33px;"/></g><g><path d="M2186.7,1397.92l0,239.467" style="fill:none;stroke:#000;stroke-width:7.75px;"/></g><g><path d="M2087.88,1648.23l128.517,0" style="fill:none;stroke:#000;stroke-width:10.33px;"/><path d="M2087.88,1583.65l128.517,0" style="fill:none;stroke:#000;stroke-width:10.33px;"/></g><g><path d="M2335.92,1406l-0,263.683" style="fill:none;stroke:#000;stroke-width:7.75px;"/></g><g><path d="M2237.23,1648.23l128.513,0" style="fill:none;stroke:#000;stroke-width:10.33px;"/><path d="M2237.23,1583.65l128.513,0" style="fill:none;stroke:#000;stroke-width:10.33px;"/><path d="M2495.69,1648.23l161.458,0" style="fill:none;stroke:#000;stroke-width:10.33px;"/><path d="M2495.69,1583.65l161.458,0" style="fill:none;stroke:#000;stroke-width:10.33px;"/></g><g><path d="M413.889,1172.66l-0,-27.866c-0,-1.3 -0.259,-2.342 -1.563,-2.342c-1.042,0 -1.821,0.258 -2.604,1.3l-7.813,15.104c-0.52,0.521 -1.3,1.304 -1.3,3.125l0,10.679l-16.929,0c10.679,-8.854 27.346,-38.283 27.604,-39.845c0,-0.259 0.263,-0.521 0.263,-0.78c-0,-1.041 -1.042,-1.825 -1.825,-1.825c-1.3,0 -6.771,0.521 -9.113,0.521c-2.345,0 -3.908,-0.521 -4.95,-0.521c-1.3,0 -3.125,0.521 -3.125,2.605c0,16.666 -13.541,35.679 -16.925,40.366c-0.52,0.521 -1.041,1.3 -1.041,2.084c-0,1.3 1.041,2.604 2.604,2.604l23.437,-0l0,8.071c0,3.645 -2.083,4.687 -4.166,4.687c-2.346,0 -3.388,1.042 -3.388,2.346c0,1.3 0.521,2.862 2.867,2.862l22.396,0c1.3,0 2.604,-1.041 2.604,-2.862c-0,-1.825 -1.563,-2.604 -2.867,-2.604c-1.3,-0 -4.166,-0.784 -4.166,-4.95l-0,-7.55l9.637,-0c1.3,-0 2.083,-1.042 2.083,-2.604c0,-1.563 -0.52,-2.605 -2.083,-2.605l-9.637,0" style="fill-rule:nonzero;"/></g><g><path d="M543.08,1172.71l0,-27.862c0,-1.304 -0.262,-2.346 -1.562,-2.346c-1.042,0 -1.825,0.263 -2.604,1.304l-7.813,15.104c-0.521,0.521 -1.304,1.3 -1.304,3.125l-0,10.675l-16.925,0c10.675,-8.854 27.342,-38.279 27.604,-39.841c0,-0.263 0.258,-0.521 0.258,-0.784c0,-1.041 -1.041,-1.82 -1.82,-1.82c-1.305,-0 -6.771,0.52 -9.117,0.52c-2.342,0 -3.904,-0.52 -4.946,-0.52c-1.304,-0 -3.125,0.52 -3.125,2.604c0,16.666 -13.542,35.675 -16.929,40.362c-0.521,0.521 -1.042,1.304 -1.042,2.083c0,1.305 1.042,2.605 2.604,2.605l23.438,-0l-0,8.075c-0,3.645 -2.083,4.687 -4.167,4.687c-2.341,0 -3.383,1.042 -3.383,2.342c-0,1.304 0.521,2.866 2.862,2.866l22.396,0c1.304,0 2.604,-1.041 2.604,-2.866c0,-1.821 -1.562,-2.604 -2.862,-2.604c-1.304,-0 -4.167,-0.78 -4.167,-4.946l0,-7.554l9.634,-0c1.304,-0 2.083,-1.042 2.083,-2.605c-0,-1.562 -0.521,-2.604 -2.083,-2.604l-9.634,0" style="fill-rule:nonzero;"/></g><g><path d="M684.218,1175.31c-0,-1.821 -0.779,-2.084 -1.563,-2.084c-1.041,0 -1.562,0.784 -1.821,1.563c-1.304,3.646 -4.166,8.333 -8.075,8.333c-0.52,0 -1.041,0 -1.562,-0.258l-3.904,-1.304c-2.604,-1.042 -8.854,-3.125 -14.063,-3.125c-1.825,-0 -3.387,0.262 -4.95,0.783c2.867,-4.95 16.409,-11.458 19.271,-12.242c9.375,-1.3 17.188,-6.771 17.188,-16.925c-0,-6.25 -2.605,-10.416 -5.988,-13.541c-6.771,-5.471 -16.667,-6.25 -19.533,-6.25c-9.375,-0 -16.925,0.52 -23.696,8.333c-1.825,2.083 -2.604,4.167 -2.604,6.25c-0,1.821 0.779,3.904 1.562,6.25c1.563,3.125 4.946,5.466 8.592,5.466c6.512,0.001 7.292,-6.249 7.292,-9.112c-0,-5.992 -6.509,-6.512 -6.509,-9.117c0,-1.82 2.604,-4.945 10.417,-4.945c12.237,-0 16.404,10.154 16.404,13.279c0,4.687 -1.562,9.116 -4.167,12.762c-4.687,5.988 -13.279,8.071 -19.791,12.238c-7.292,4.429 -12.238,11.979 -14.584,20.312c0,1.825 0.784,3.909 2.346,4.688c0.259,0.262 0.779,0.262 1.042,0.262c2.862,0 4.425,-8.075 12.237,-8.075c5.209,0 7.034,7.034 18.75,7.034c5.471,-0 15.625,-0.521 17.709,-20.575" style="fill-rule:nonzero;"/></g><g><path d="M825.455,1160.47c0,-0 -0.262,1.042 -0.262,1.821c-0,1.041 1.041,2.083 2.083,2.083c0.783,0 1.304,-0.779 1.563,-1.042c0.262,-0.779 3.387,-11.458 4.95,-14.062c0.52,-1.042 1.041,-1.3 1.3,-1.3c0.52,-0 0.783,1.042 0.783,1.821l-0,37.241c-0,3.125 -2.604,4.946 -5.208,4.946c-1.042,0 -2.346,0.521 -2.346,2.084c-0,1.562 1.304,2.083 3.387,2.083l21.875,-0c2.084,-0 2.084,-2.083 2.084,-2.083c-0,-0 -0,-2.084 -2.084,-2.084c-1.825,0 -4.166,-2.341 -4.166,-4.687l-0,-54.167c-0,-2.083 -0.784,-3.125 -2.605,-3.125c-1.825,0 -3.387,0.521 -4.95,0.521c-2.604,-0 -3.125,-0 -5.208,-0.521c-1.042,0 -2.342,1.563 -3.125,2.604l-8.071,27.867" style="fill-rule:nonzero;"/></g><g><path d="M983.422,1124.06l-0,-27.863c-0,-1.304 -0.258,-2.346 -1.563,-2.346c-1.041,0 -1.82,0.263 -2.604,1.304l-7.812,15.104c-0.521,0.521 -1.3,1.301 -1.3,3.125l-0,10.676l-16.929,-0c10.679,-8.855 27.345,-38.28 27.604,-39.842c-0,-0.263 0.262,-0.521 0.262,-0.783c0,-1.042 -1.041,-1.821 -1.825,-1.821c-1.3,-0 -6.771,0.52 -9.112,0.52c-2.346,0 -3.909,-0.52 -4.95,-0.52c-1.3,-0 -3.125,0.52 -3.125,2.604c-0,16.666 -13.542,35.675 -16.925,40.362c-0.521,0.521 -1.042,1.304 -1.042,2.084c0,1.304 1.042,2.604 2.604,2.604l23.438,-0l-0,8.075c-0,3.646 -2.084,4.687 -4.167,4.687c-2.346,0 -3.387,1.042 -3.387,2.342c-0,1.304 0.52,2.867 2.866,2.867l22.396,-0c1.3,-0 2.604,-1.042 2.604,-2.867c0,-1.821 -1.562,-2.604 -2.866,-2.604c-1.3,-0 -4.167,-0.779 -4.167,-4.946l-0,-7.554l9.637,-0c1.3,-0 2.084,-1.042 2.084,-2.604c-0,-1.563 -0.521,-2.605 -2.084,-2.605l-9.637,0" style="fill-rule:nonzero;"/></g><g><path d="M1144.71,1138.96c0,-1.821 -0.779,-2.083 -1.562,-2.083c-1.042,0 -1.563,0.783 -1.821,1.563c-1.304,3.645 -4.167,8.333 -8.075,8.333c-0.521,-0 -1.042,-0 -1.562,-0.259l-3.905,-1.304c-2.604,-1.041 -8.854,-3.125 -14.062,-3.125c-1.825,0 -3.388,0.263 -4.95,0.784c2.867,-4.95 16.408,-11.459 19.271,-12.242c9.375,-1.3 17.187,-6.771 17.187,-16.925c0,-6.25 -2.604,-10.417 -5.987,-13.542c-6.771,-5.471 -16.667,-6.25 -19.534,-6.25c-9.375,0 -16.925,0.521 -23.695,8.334c-1.825,2.083 -2.605,4.166 -2.605,6.25c0,1.82 0.78,3.904 1.563,6.25c1.562,3.125 4.946,5.466 8.592,5.466c6.512,0 7.291,-6.25 7.291,-9.112c0,-5.992 -6.508,-6.513 -6.508,-9.117c-0,-1.821 2.604,-4.946 10.417,-4.946c12.237,0 16.404,10.154 16.404,13.279c-0,4.688 -1.563,9.117 -4.167,12.763c-4.687,5.987 -13.279,8.071 -19.792,12.237c-7.291,4.43 -12.237,11.98 -14.583,20.313c0,1.825 0.783,3.908 2.346,4.687c0.258,0.263 0.779,0.263 1.042,0.263c2.862,-0 4.425,-8.075 12.237,-8.075c5.208,0 7.033,7.033 18.75,7.033c5.471,0 15.625,-0.521 17.708,-20.575" style="fill-rule:nonzero;"/></g><g><path d="M1253.31,1150.29c0,-0 -0.262,1.041 -0.262,1.825c-0,1.041 1.041,2.083 2.083,2.083c0.783,-0 1.304,-0.784 1.563,-1.042c0.262,-0.783 3.387,-11.458 4.95,-14.062c0.52,-1.042 1.041,-1.305 1.3,-1.305c0.52,0 0.783,1.042 0.783,1.825l-0,37.238c-0,3.125 -2.604,4.95 -5.208,4.95c-1.042,-0 -2.346,0.521 -2.346,2.083c-0,1.563 1.304,2.084 3.387,2.084l21.875,-0c2.084,-0 2.084,-2.084 2.084,-2.084c-0,0 -0,-2.083 -2.084,-2.083c-1.825,-0 -4.166,-2.346 -4.166,-4.688l-0,-54.166c-0,-2.084 -0.784,-3.125 -2.605,-3.125c-1.825,-0 -3.387,0.521 -4.95,0.521c-2.604,-0 -3.125,-0 -5.208,-0.521c-1.042,-0 -2.342,1.562 -3.125,2.604l-8.071,27.862" style="fill-rule:nonzero;"/></g><g><path d="M1431.43,1172.71l0,-27.862c0,-1.304 -0.262,-2.346 -1.562,-2.346c-1.042,0 -1.825,0.263 -2.604,1.304l-7.813,15.104c-0.521,0.521 -1.304,1.3 -1.304,3.125l-0,10.675l-16.925,0c10.675,-8.854 27.342,-38.279 27.604,-39.841c0,-0.263 0.258,-0.521 0.258,-0.784c0,-1.041 -1.041,-1.82 -1.82,-1.82c-1.305,-0 -6.771,0.52 -9.117,0.52c-2.342,0 -3.904,-0.52 -4.946,-0.52c-1.304,-0 -3.125,0.52 -3.125,2.604c0,16.666 -13.542,35.675 -16.929,40.362c-0.521,0.521 -1.042,1.304 -1.042,2.083c0,1.305 1.042,2.605 2.604,2.605l23.438,-0l-0,8.075c-0,3.645 -2.083,4.687 -4.167,4.687c-2.341,0 -3.383,1.042 -3.383,2.342c-0,1.304 0.521,2.866 2.862,2.866l22.396,0c1.304,0 2.604,-1.041 2.604,-2.866c0,-1.821 -1.562,-2.604 -2.862,-2.604c-1.304,-0 -4.167,-0.78 -4.167,-4.946l0,-7.554l9.634,-0c1.304,-0 2.083,-1.042 2.083,-2.605c-0,-1.562 -0.521,-2.604 -2.083,-2.604l-9.634,0" style="fill-rule:nonzero;"/></g><g><path d="M1560.62,1172.71l-0,-27.862c-0,-1.304 -0.258,-2.346 -1.563,-2.346c-1.041,0 -1.82,0.263 -2.604,1.304l-7.812,15.104c-0.521,0.521 -1.3,1.3 -1.3,3.125l-0,10.675l-16.929,0c10.679,-8.854 27.345,-38.279 27.604,-39.841c-0,-0.263 0.262,-0.521 0.262,-0.784c0,-1.041 -1.041,-1.82 -1.825,-1.82c-1.3,-0 -6.771,0.52 -9.112,0.52c-2.346,0 -3.909,-0.52 -4.95,-0.52c-1.3,-0 -3.125,0.52 -3.125,2.604c-0,16.666 -13.542,35.675 -16.925,40.362c-0.521,0.521 -1.042,1.304 -1.042,2.083c0,1.305 1.042,2.605 2.604,2.605l23.438,-0l-0,8.075c-0,3.645 -2.084,4.687 -4.167,4.687c-2.346,0 -3.387,1.042 -3.387,2.342c-0,1.304 0.52,2.866 2.866,2.866l22.396,0c1.3,0 2.604,-1.041 2.604,-2.866c0,-1.821 -1.562,-2.604 -2.866,-2.604c-1.3,-0 -4.167,-0.78 -4.167,-4.946l-0,-7.554l9.637,-0c1.3,-0 2.084,-1.042 2.084,-2.605c-0,-1.562 -0.521,-2.604 -2.084,-2.604l-9.637,0" style="fill-rule:nonzero;"/></g><g><path d="M1701.76,1175.31c0,-1.821 -0.783,-2.084 -1.562,-2.084c-1.042,0 -1.563,0.784 -1.825,1.563c-1.3,3.646 -4.167,8.333 -8.071,8.333c-0.521,0 -1.042,0 -1.563,-0.258l-3.908,-1.304c-2.604,-1.042 -8.854,-3.125 -14.062,-3.125c-1.821,-0 -3.384,0.262 -4.946,0.783c2.862,-4.95 16.404,-11.458 19.271,-12.242c9.375,-1.3 17.187,-6.771 17.187,-16.925c0,-6.25 -2.604,-10.416 -5.992,-13.541c-6.77,-5.471 -16.666,-6.25 -19.529,-6.25c-9.375,-0 -16.929,0.52 -23.7,8.333c-1.821,2.083 -2.604,4.167 -2.604,6.25c0,1.821 0.783,3.904 1.563,6.25c1.562,3.125 4.95,5.466 8.595,5.466c6.509,0.001 7.292,-6.249 7.292,-9.112c0,-5.992 -6.512,-6.512 -6.512,-9.117c-0,-1.82 2.604,-4.945 10.416,-4.945c12.242,-0 16.409,10.154 16.409,13.279c-0,4.687 -1.563,9.116 -4.167,12.762c-4.688,5.988 -13.283,8.071 -19.792,12.238c-7.291,4.429 -12.241,11.979 -14.583,20.312c-0,1.825 0.779,3.909 2.342,4.688c0.262,0.262 0.783,0.262 1.041,0.262c2.867,0 4.429,-8.075 12.242,-8.075c5.208,0 7.029,7.034 18.75,7.034c5.467,-0 15.625,-0.521 17.708,-20.575" style="fill-rule:nonzero;"/></g><g><path d="M1843.11,1160.47c0,-0 -0.262,1.042 -0.262,1.821c-0,1.041 1.042,2.083 2.083,2.083c0.784,0 1.304,-0.779 1.563,-1.042c0.262,-0.779 3.387,-11.458 4.95,-14.062c0.521,-1.042 1.041,-1.3 1.3,-1.3c0.521,-0 0.783,1.042 0.783,1.821l0,37.241c0,3.125 -2.604,4.946 -5.208,4.946c-1.042,0 -2.346,0.521 -2.346,2.084c-0,1.562 1.304,2.083 3.387,2.083l21.875,-0c2.084,-0 2.084,-2.083 2.084,-2.083c-0,-0 -0,-2.084 -2.084,-2.084c-1.825,0 -4.166,-2.341 -4.166,-4.687l-0,-54.167c-0,-2.083 -0.784,-3.125 -2.604,-3.125c-1.825,0 -3.388,0.521 -4.95,0.521c-2.605,-0 -3.125,-0 -5.209,-0.521c-1.041,0 -2.341,1.563 -3.125,2.604l-8.071,27.867" style="fill-rule:nonzero;"/></g><g><path d="M2016.65,1172.71l0,-27.862c0,-1.304 -0.262,-2.346 -1.562,-2.346c-1.042,0 -1.825,0.263 -2.605,1.304l-7.812,15.104c-0.521,0.521 -1.304,1.3 -1.304,3.125l-0,10.675l-16.925,0c10.675,-8.854 27.341,-38.279 27.604,-39.841c-0,-0.263 0.258,-0.521 0.258,-0.784c0,-1.041 -1.041,-1.82 -1.821,-1.82c-1.304,-0 -6.77,0.52 -9.116,0.52c-2.342,0 -3.904,-0.52 -4.946,-0.52c-1.304,-0 -3.125,0.52 -3.125,2.604c-0,16.666 -13.542,35.675 -16.929,40.362c-0.521,0.521 -1.042,1.304 -1.042,2.083c0,1.305 1.042,2.605 2.604,2.605l23.438,-0l-0,8.075c-0,3.645 -2.084,4.687 -4.167,4.687c-2.342,0 -3.383,1.042 -3.383,2.342c-0,1.304 0.521,2.866 2.862,2.866l22.396,0c1.304,0 2.604,-1.041 2.604,-2.866c0,-1.821 -1.562,-2.604 -2.862,-2.604c-1.304,-0 -4.167,-0.78 -4.167,-4.946l0,-7.554l9.633,-0c1.305,-0 2.084,-1.042 2.084,-2.605c-0,-1.562 -0.521,-2.604 -2.084,-2.604l-9.633,0" style="fill-rule:nonzero;"/></g><g><path d="M2177.93,1175.31c0,-1.821 -0.779,-2.084 -1.562,-2.084c-1.042,0 -1.563,0.784 -1.821,1.563c-1.304,3.646 -4.167,8.333 -8.075,8.333c-0.521,0 -1.042,0 -1.563,-0.258l-3.904,-1.304c-2.604,-1.042 -8.854,-3.125 -14.062,-3.125c-1.825,-0 -3.388,0.262 -4.95,0.783c2.866,-4.95 16.408,-11.458 19.27,-12.242c9.375,-1.3 17.188,-6.771 17.188,-16.925c-0,-6.25 -2.604,-10.416 -5.988,-13.541c-6.77,-5.471 -16.666,-6.25 -19.533,-6.25c-9.375,-0 -16.925,0.52 -23.696,8.333c-1.825,2.083 -2.604,4.167 -2.604,6.25c0,1.821 0.779,3.904 1.563,6.25c1.562,3.125 4.945,5.466 8.591,5.466c6.513,0.001 7.292,-6.249 7.292,-9.112c-0,-5.992 -6.508,-6.512 -6.508,-9.117c-0,-1.82 2.604,-4.945 10.416,-4.945c12.238,-0 16.404,10.154 16.404,13.279c0,4.687 -1.562,9.116 -4.166,12.762c-4.688,5.988 -13.279,8.071 -19.792,12.238c-7.292,4.429 -12.237,11.979 -14.583,20.312c-0,1.825 0.783,3.909 2.346,4.688c0.258,0.262 0.779,0.262 1.041,0.262c2.863,0 4.425,-8.075 12.238,-8.075c5.208,0 7.033,7.034 18.75,7.034c5.471,-0 15.625,-0.521 17.708,-20.575" style="fill-rule:nonzero;"/></g><g><path d="M2286.52,1160.47c-0,-0 -0.263,1.042 -0.263,1.821c0,1.041 1.042,2.083 2.084,2.083c0.783,0 1.304,-0.779 1.562,-1.042c0.263,-0.779 3.388,-11.458 4.95,-14.062c0.521,-1.042 1.042,-1.3 1.3,-1.3c0.521,-0 0.784,1.042 0.784,1.821l-0,37.241c-0,3.125 -2.605,4.946 -5.209,4.946c-1.041,0 -2.346,0.521 -2.346,2.084c0,1.562 1.305,2.083 3.388,2.083l21.875,-0c2.083,-0 2.083,-2.083 2.083,-2.083c0,-0 0,-2.084 -2.083,-2.084c-1.825,0 -4.167,-2.341 -4.167,-4.687l0,-54.167c0,-2.083 -0.783,-3.125 -2.604,-3.125c-1.825,0 -3.387,0.521 -4.95,0.521c-2.604,-0 -3.125,-0 -5.208,-0.521c-1.042,0 -2.342,1.563 -3.125,2.604l-8.071,27.867" style="fill-rule:nonzero;"/></g><g><path d="M2561.47,1160.47c-0,-0 -0.259,1.042 -0.259,1.821c0,1.041 1.042,2.083 2.084,2.083c0.779,0 1.3,-0.779 1.562,-1.042c0.259,-0.779 3.384,-11.458 4.946,-14.062c0.521,-1.042 1.042,-1.3 1.304,-1.3c0.521,-0 0.779,1.042 0.779,1.821l0,37.241c0,3.125 -2.604,4.946 -5.208,4.946c-1.042,0 -2.342,0.521 -2.342,2.084c0,1.562 1.3,2.083 3.384,2.083l21.875,-0c2.083,-0 2.083,-2.083 2.083,-2.083c0,-0 0,-2.084 -2.083,-2.084c-1.821,0 -4.167,-2.341 -4.167,-4.687l0,-54.167c0,-2.083 -0.779,-3.125 -2.604,-3.125c-1.821,0 -3.383,0.521 -4.946,0.521c-2.604,-0 -3.125,-0 -5.208,-0.521c-1.042,0 -2.346,1.563 -3.125,2.604l-8.075,27.867" style="fill-rule:nonzero;"/></g><g><path d="M386.889,1293.28c23.175,0 51.562,-21.354 51.562,-43.491c0,-13.279 -10.417,-21.613 -25.262,-21.613c-28.646,0 -51.563,21.092 -51.563,43.488c0,13.541 11.2,21.616 25.263,21.616" style="fill-rule:nonzero;"/></g><g><path d="M516.076,1325.58c23.179,0 51.563,-21.354 51.563,-43.492c-0,-13.279 -10.417,-21.612 -25.259,-21.612c-28.646,-0 -51.562,21.092 -51.562,43.487c-0,13.542 11.196,21.617 25.258,21.617" style="fill-rule:nonzero;"/></g><g><path d="M645.268,1357.87c23.179,-0 51.562,-21.354 51.562,-43.492c0,-13.279 -10.416,-21.612 -25.258,-21.612c-28.646,-0 -51.563,21.091 -51.563,43.487c0,13.542 11.196,21.617 25.259,21.617" style="fill-rule:nonzero;"/></g><g><path d="M764.78,1369.33c-1.562,5.208 -13.8,10.417 -19.791,10.417c-1.563,-0 -2.863,-0.521 -3.125,-1.304c-0.521,-1.042 -0.78,-6.771 -0.78,-13.021c0,-8.071 0.259,-17.188 0.78,-19.271c0.52,-4.425 12.5,-9.896 19.012,-9.896c1.821,0 3.383,0.521 3.904,1.563c0.521,1.304 1.042,7.812 1.042,14.845c-0,7.03 -0.521,14.321 -1.042,16.667m17.971,-42.45c1.821,-0.779 3.125,-2.862 3.125,-4.425l0,-18.492c0,-1.3 -0.783,-2.083 -1.825,-2.083c-0.521,0 -0.779,0 -1.3,0.263c0,-0 -5.208,2.083 -6.512,2.341c-1.821,0 -3.646,-1.3 -3.646,-3.383l-0,-31.771c-0,-1.562 -1.563,-2.867 -3.646,-2.867c-2.604,0 -4.167,1.305 -4.167,2.867l0,33.854c-0.258,2.604 -1.041,5.988 -3.383,7.55c-3.125,1.825 -11.979,5.471 -16.408,6.513c-2.342,-0 -3.125,-3.125 -3.125,-5.209l-0,-31.25c-0,-1.562 -1.821,-2.866 -3.646,-2.866c-2.604,-0 -4.167,1.304 -4.167,2.866l0,35.155c0,3.645 -1.562,6.25 -3.125,7.033c-1.562,0.779 -6.771,2.862 -6.771,2.862c-1.821,0.521 -3.125,2.605 -3.125,4.167l0,18.492c0,1.562 0.784,2.341 2.084,2.341c1.041,0 5.991,-2.341 6.77,-2.862c0.263,-0 0.521,-0.263 0.784,-0.263c1.821,0 3.383,2.605 3.383,4.688l0,25.783c0,2.863 -1.3,5.209 -2.862,5.988c-1.563,0.521 -7.034,2.866 -7.034,2.866c-1.821,0.521 -3.125,2.605 -3.125,4.167l0,18.488c0,1.562 0.784,2.345 2.084,2.345c0.262,0 0.783,-0.262 1.041,-0.262c0,-0 3.646,-1.563 5.992,-2.342c0.258,-0.262 0.521,-0.262 0.779,-0.262c1.825,-0 3.125,2.866 3.125,4.166l0,32.034c0,1.562 1.563,2.862 3.388,2.862c2.604,0 4.425,-1.3 4.425,-2.862l-0,-36.2c-0,-3.384 1.304,-5.209 2.604,-5.729l15.887,-6.509c0.259,0 0.779,-0.262 1.042,-0.262c2.083,-0 3.383,3.125 3.383,4.687l0,32.554c0,1.563 1.563,2.863 3.388,2.863c2.862,-0 4.425,-1.3 4.425,-2.863l-0,-36.979c-0,-2.083 1.041,-5.208 2.866,-5.991c1.821,-0.78 7.292,-2.863 7.292,-2.863c1.821,-0.783 3.125,-2.867 3.125,-4.429l0,-18.488c0,-1.304 -0.783,-2.083 -1.825,-2.083c-0.521,0 -0.779,0 -1.3,0.258l-6.771,2.605c-1.562,-0 -3.387,-1.563 -3.387,-4.688l-0,-24.217c-0,-1.825 1.304,-6.77 3.387,-7.554l6.771,-2.604" style="fill-rule:nonzero;"/></g><g><path d="M827.239,1390.16c23.175,0 51.562,-21.354 51.562,-43.491c0,-13.279 -10.417,-21.613 -25.262,-21.613c-28.646,0 -51.563,21.092 -51.563,43.488c0,13.541 11.2,21.616 25.263,21.616" style="fill-rule:nonzero;"/></g><g><path d="M956.43,1422.45c23.175,0 51.563,-21.354 51.563,-43.492c-0,-13.279 -10.417,-21.612 -25.263,-21.612c-28.646,-0 -51.562,21.092 -51.562,43.487c-0,13.542 11.2,21.617 25.262,21.617" style="fill-rule:nonzero;"/></g><g><path d="M1105.75,1454.74c23.179,-0 51.563,-21.354 51.563,-43.492c-0,-13.279 -10.417,-21.612 -25.259,-21.612c-28.646,-0 -51.562,21.091 -51.562,43.487c-0,13.542 11.196,21.617 25.258,21.617" style="fill-rule:nonzero;"/></g><g><path d="M1255.09,1487.03c23.179,0 51.562,-21.354 51.562,-43.491c0,-13.279 -10.417,-21.613 -25.258,-21.613c-28.646,0 -51.563,21.092 -51.563,43.488c0,13.541 11.196,21.616 25.259,21.616" style="fill-rule:nonzero;"/></g><g><path d="M1404.43,1519.33c23.175,0 51.563,-21.354 51.563,-43.492c-0,-13.279 -10.417,-21.612 -25.263,-21.612c-28.646,-0 -51.562,21.092 -51.562,43.487c-0,13.542 11.2,21.617 25.262,21.617" style="fill-rule:nonzero;"/></g><g><path d="M1533.62,1551.62c23.175,-0 51.562,-21.354 51.562,-43.492c0,-13.279 -10.416,-21.612 -25.262,-21.612c-28.646,-0 -51.563,21.091 -51.563,43.487c0,13.542 11.2,21.617 25.263,21.617" style="fill-rule:nonzero;"/></g><g><path d="M1662.81,1583.91c23.18,0 51.563,-21.354 51.563,-43.491c-0,-13.279 -10.417,-21.613 -25.258,-21.613c-28.646,0 -51.563,21.092 -51.563,43.488c0,13.541 11.196,21.616 25.258,21.616" style="fill-rule:nonzero;"/></g><g><path d="M1782.45,1595.37c-1.563,5.208 -13.804,10.416 -19.792,10.416c-1.562,0 -2.866,-0.52 -3.125,-1.304c-0.521,-1.041 -0.783,-6.771 -0.783,-13.021c-0,-8.07 0.262,-17.187 0.783,-19.27c0.521,-4.425 12.5,-9.896 19.009,-9.896c1.825,-0 3.387,0.521 3.908,1.562c0.521,1.304 1.042,7.813 1.042,14.846c-0,7.029 -0.521,14.321 -1.042,16.667m17.967,-42.45c1.825,-0.779 3.125,-2.863 3.125,-4.425l-0,-18.492c-0,-1.3 -0.78,-2.083 -1.821,-2.083c-0.521,-0 -0.784,-0 -1.304,0.262c-0,0 -5.209,2.084 -6.509,2.342c-1.825,-0 -3.646,-1.3 -3.646,-3.383l0,-31.771c0,-1.563 -1.562,-2.867 -3.645,-2.867c-2.605,0 -4.167,1.304 -4.167,2.867l-0,33.854c-0.263,2.604 -1.042,5.987 -3.388,7.55c-3.125,1.825 -11.979,5.471 -16.404,6.512c-2.346,0 -3.125,-3.125 -3.125,-5.208l0,-31.25c0,-1.562 -1.825,-2.867 -3.646,-2.867c-2.604,0 -4.166,1.305 -4.166,2.867l-0,35.154c-0,3.646 -1.563,6.25 -3.125,7.034c-1.563,0.779 -6.771,2.862 -6.771,2.862c-1.825,0.521 -3.125,2.604 -3.125,4.167l-0,18.491c-0,1.563 0.779,2.342 2.083,2.342c1.042,0 5.988,-2.342 6.771,-2.862c0.258,-0 0.521,-0.263 0.779,-0.263c1.825,0 3.388,2.604 3.388,4.688l-0,25.783c-0,2.862 -1.304,5.208 -2.867,5.987c-1.562,0.521 -7.029,2.867 -7.029,2.867c-1.825,0.521 -3.125,2.604 -3.125,4.167l-0,18.487c-0,1.563 0.779,2.346 2.083,2.346c0.259,0 0.779,-0.262 1.042,-0.262c-0,-0 3.646,-1.563 5.987,-2.342c0.263,-0.263 0.521,-0.263 0.784,-0.263c1.821,0 3.125,2.867 3.125,4.167l-0,32.033c-0,1.563 1.562,2.863 3.383,2.863c2.604,-0 4.429,-1.3 4.429,-2.863l0,-36.2c0,-3.383 1.3,-5.208 2.604,-5.729l15.884,-6.508c0.262,-0 0.783,-0.263 1.041,-0.263c2.084,0 3.388,3.125 3.388,4.688l-0,32.554c-0,1.563 1.562,2.863 3.383,2.863c2.867,-0 4.429,-1.3 4.429,-2.863l0,-36.979c0,-2.083 1.042,-5.208 2.863,-5.992c1.825,-0.779 7.292,-2.862 7.292,-2.862c1.825,-0.784 3.125,-2.867 3.125,-4.429l-0,-18.488c-0,-1.304 -0.78,-2.083 -1.821,-2.083c-0.521,-0 -0.784,-0 -1.304,0.258l-6.771,2.604c-1.563,0 -3.384,-1.562 -3.384,-4.687l0,-24.217c0,-1.825 1.3,-6.771 3.384,-7.554l6.771,-2.604" style="fill-rule:nonzero;"/></g><g><path d="M1844.9,1616.2c23.179,0 51.563,-21.354 51.563,-43.492c-0,-13.279 -10.417,-21.612 -25.259,-21.612c-28.645,-0 -51.562,21.092 -51.562,43.487c-0,13.542 11.196,21.617 25.258,21.617" style="fill-rule:nonzero;"/></g><g><path d="M1989.65,1648.49c23.175,-0 51.562,-21.354 51.562,-43.492c0,-13.279 -10.416,-21.612 -25.262,-21.612c-28.646,-0 -51.563,21.091 -51.563,43.487c0,13.542 11.2,21.617 25.263,21.617" style="fill-rule:nonzero;"/></g><g><path d="M2138.98,1680.78c23.179,0 51.563,-21.354 51.563,-43.491c-0,-13.279 -10.417,-21.613 -25.259,-21.613c-28.645,0 -51.562,21.092 -51.562,43.488c-0,13.541 11.196,21.616 25.258,21.616" style="fill-rule:nonzero;"/></g><g><path d="M2288.32,1713.08c23.175,0 51.562,-21.354 51.562,-43.492c0,-13.279 -10.416,-21.612 -25.262,-21.612c-28.646,-0 -51.563,21.092 -51.563,43.487c0,13.542 11.2,21.617 25.263,21.617" style="fill-rule:nonzero;"/></g><g><path d="M2550.38,1664.12c2.863,-9.117 12.5,-10.417 20.571,-10.417c17.971,0 32.292,19.271 32.292,34.896c-0,8.071 -3.384,15.362 -11.98,17.446c-2.604,0.783 -5.466,1.041 -8.07,1.041c-9.375,0 -19.013,-6.25 -24.48,-13.541c-5.208,-5.988 -9.116,-14.842 -9.116,-23.175c-0,-2.084 0.262,-4.167 0.783,-6.25m27.342,-16.146c-34.634,-0 -56.25,14.321 -56.25,32.029c-0,17.45 14.846,33.075 53.646,33.075c42.708,0 56.25,-14.846 56.25,-33.075c-0,-18.487 -29.425,-32.029 -53.646,-32.029" style="fill-rule:nonzero;"/></g><g><path d="M135.664,1386.25c0.779,4.95 0.779,4.688 -3.909,6.25c-22.916,7.813 -37.758,28.388 -37.758,50.521c-0,23.437 12.237,40.104 29.946,46.096c2.083,0.779 5.208,1.562 7.033,1.562c2.083,0 3.125,-1.304 3.125,-2.866c0,-1.821 -2.083,-2.605 -3.908,-3.384c-10.938,-4.687 -18.75,-15.887 -18.75,-27.866c-0,-14.842 10.158,-26.042 26.041,-30.467c4.167,-1.042 4.688,-0.783 5.209,2.083l13.021,77.604c0.52,2.863 0.262,2.863 -3.646,3.646c-4.167,0.779 -9.375,1.3 -14.584,1.3c-45.57,0 -75,-25.258 -75,-61.458c0,-15.363 2.605,-35.938 24.221,-60.417c15.625,-17.446 27.604,-27.083 39.842,-36.979c2.604,-2.083 3.125,-1.821 3.646,1.042l5.471,33.333m28.383,-177.342c8.596,0 15.625,7.03 15.625,21.355c-0,28.904 -24.738,52.341 -45.313,70.312c-1.82,1.563 -2.862,1.3 -3.383,-2.083c-1.042,-6.771 -1.562,-15.625 -1.562,-23.959c-0,-40.625 18.75,-65.625 34.633,-65.625m-10.417,218.75c-0.521,-3.125 -0.258,-3.908 2.867,-3.645c21.092,1.82 38.542,19.529 38.542,42.445c-0,16.409 -9.896,29.688 -24.48,36.98c-3.125,1.562 -3.645,1.562 -4.166,-1.563l-12.763,-74.217m-14.062,-81.25c-0.521,-3.125 -0,-3.387 1.562,-4.95c28.125,-26.3 49.479,-59.375 49.479,-99.216c0,-22.659 -6.25,-45.054 -16.925,-60.679c-3.908,-5.73 -10.679,-13.021 -13.541,-13.021c-3.646,-0 -11.721,6.771 -16.929,12.5c-19.271,21.354 -25.521,53.908 -25.521,80.991c-0,15.105 1.825,32.03 3.646,42.709c0.52,3.125 0.783,3.646 -2.342,6.25c-37.5,30.987 -77.346,68.229 -77.346,120.833c0,45.313 30.992,88.279 94.792,88.279c5.991,0 12.762,-0.521 17.971,-1.562c2.862,-0.521 3.383,-0.779 3.904,2.346c3.125,17.445 7.033,40.104 7.033,52.341c0,38.542 -26.042,43.229 -41.408,43.229c-14.063,0 -20.834,-4.166 -20.834,-7.55c0,-1.825 2.346,-2.604 8.334,-4.429c8.075,-2.341 17.45,-9.375 17.45,-24.479c-0,-14.321 -9.117,-26.562 -25,-26.562c-17.45,-0 -27.867,13.804 -27.867,29.95c0,16.925 10.158,42.445 49.479,42.445c17.45,0 51.304,-7.812 51.304,-52.083c0,-14.842 -4.687,-39.583 -7.554,-55.729c-0.521,-3.125 -0.258,-2.863 3.388,-4.425c26.3,-10.417 43.75,-32.554 43.75,-61.979c-0,-33.334 -24.479,-62.763 -62.763,-62.763c-6.771,0 -6.771,0 -7.55,-4.687l-6.512,-37.759" style="fill-rule:nonzero;"/></g><g><text x="1080.4px" y="1632.87px" style="font-family:'Bravura';font-size:260.417px;"></text></g><g><text x="2113.62px" y="1803.15px" style="font-family:'Bravura';font-size:260.417px;"></text></g><g><path d="M361.576,1519.92l0,-32.629l448.175,64.583l0,32.629l-448.175,-64.583" style="fill-rule:nonzero;"/></g><g><path d="M361.576,1470.98l0,-32.645l448.175,64.583l0,32.646l-448.175,-64.584" style="fill-rule:nonzero;"/></g><g><path d="M1000.25,1212.3l-0,-32.708l306.379,48.437l0,32.708l-306.379,-48.437" style="fill-rule:nonzero;"/></g><g><path d="M1448.16,1276.08l-0,-32.829l448.308,80.729l-0,32.829l-448.308,-80.729" style="fill-rule:nonzero;"/></g><g><path d="M1448.16,1325.32l-0,-32.825l448.308,80.729l-0,32.825l-448.308,-80.729" style="fill-rule:nonzero;"/></g><g><path d="M2033.45,1406.05l0,-32.342l306.379,16.146l0,32.342l-306.379,-16.146" style="fill-rule:nonzero;"/></g><g><path d="M909.88,1585.06l138.284,0l-0,-10.325l-127.996,0l-0,-38.112l-10.288,-0" style="fill-rule:nonzero;"/></g><g><path d="M1311.83,1585.06l-122.133,0l0,-10.325l111.717,0l-0,-38.112l10.416,-0" style="fill-rule:nonzero;"/></g><g><path d="M1943.08,1713.08l138.934,27.734l-0,-10.559l-128.646,-25.666l-0,-39.946l-10.288,-0" style="fill-rule:nonzero;"/></g><g><path d="M2345.04,1794.26l-122.788,-24.375l0,-10.559l112.5,23.321l0,-36.825l10.288,0" style="fill-rule:nonzero;"/></g></g></svg>