<?xml version="1.0" encoding="UTF-8" standalone="no"?><!DOCTYPE svg PUBLIC "-//W3C//DTD SVG 1.1//EN" "http://www.w3.org/Graphics/SVG/1.1/DTD/svg11.dtd"><svg width="100%" height="100%" viewBox="0 0 6894 1806" version="1.1" xmlns="http://www.w3.org/2000/svg" xmlns:xlink="http://www.w3.org/1999/xlink" xml:space="preserve" xmlns:serif="http://www.serif.com/" style="fill-rule:evenodd;clip-rule:evenodd;stroke-miterlimit:2;"><g><g><path d="M9.364,356.567l6875,-0" style="fill:none;stroke:#000;stroke-width:8.38px;"/><path d="M9.364,421.15l6875,0" style="fill:none;stroke:#000;stroke-width:8.38px;"/><path d="M9.364,485.733l6875,0" style="fill:none;stroke:#000;stroke-width:8.38px;"/><path d="M9.364,550.317l6875,-0" style="fill:none;stroke:#000;stroke-width:8.38px;"/><path d="M9.364,614.9l6875,0" style="fill:none;stroke:#000;stroke-width:8.38px;"/></g><g><path d="M3569.13,352.375l0,266.717" style="fill:none;stroke:#000;stroke-width:10.33px;"/><path d="M6879.15,352.375l0,266.717" style="fill:none;stroke:#000;stroke-width:10.33px;"/></g><g><path d="M434.493,501.854l-0,263.659" style="fill:none;stroke:#000;stroke-width:7.75px;"/></g><g><path d="M335.793,744.067l128.516,-0" style="fill:none;stroke:#000;stroke-width:10.33px;"/><path d="M335.793,679.483l128.516,0" style="fill:none;stroke:#000;stroke-width:10.33px;"/></g><g><path d="M648.947,496.475l-0,236.746" style="fill:none;stroke:#000;stroke-width:7.75px;"/></g><g><path d="M565.351,744.067l113.413,-0" style="fill:none;stroke:#000;stroke-width:10.33px;"/><path d="M550.247,679.483l128.517,0" style="fill:none;stroke:#000;stroke-width:10.33px;"/></g><g><path d="M863.397,491.083l-0,209.846" style="fill:none;stroke:#000;stroke-width:7.75px;"/></g><g><path d="M780.847,679.483l112.367,0" style="fill:none;stroke:#000;stroke-width:10.33px;"/></g><g><path d="M1077.85,485.708l0,215.221" style="fill:none;stroke:#000;stroke-width:7.75px;"/></g><g><path d="M995.297,679.483l112.371,0" style="fill:none;stroke:#000;stroke-width:10.33px;"/></g><g><path d="M1292.31,436.867l0,231.771" style="fill:none;stroke:#000;stroke-width:7.75px;"/></g><g><path d="M1208.58,679.483l113.413,0" style="fill:none;stroke:#000;stroke-width:10.33px;"/></g><g><path d="M1540.09,396.513l-0,239.833" style="fill:none;stroke:#000;stroke-width:7.75px;"/><path d="M1788.01,356.138l0,215.625" style="fill:none;stroke:#000;stroke-width:7.75px;"/><path d="M1966.78,561.163l0,183.008" style="fill:none;stroke:#000;stroke-width:7.75px;"/><path d="M2181.23,528.871l0,204.529" style="fill:none;stroke:#000;stroke-width:7.75px;"/><path d="M2395.69,496.579l-0,226.054" style="fill:none;stroke:#000;stroke-width:7.75px;"/><path d="M2610.01,496.579l0,215.3" style="fill:none;stroke:#000;stroke-width:7.75px;"/><path d="M2824.33,464.288l0,199.32" style="fill:none;stroke:#000;stroke-width:7.75px;"/><path d="M3071.99,431.996l-0,199.337" style="fill:none;stroke:#000;stroke-width:7.75px;"/><path d="M3319.91,367.413l0,231.612" style="fill:none;stroke:#000;stroke-width:7.75px;"/><path d="M3675.23,335.121l0,215.6" style="fill:none;stroke:#000;stroke-width:7.75px;"/><path d="M3889.57,302.833l-0,226.363" style="fill:none;stroke:#000;stroke-width:7.75px;"/></g><g><path d="M3874.98,291.983l113.28,0" style="fill:none;stroke:#000;stroke-width:10.33px;"/></g><g><path d="M4104.03,270.542l0,237.129" style="fill:none;stroke:#000;stroke-width:7.75px;"/></g><g><path d="M4090.48,291.983l112.238,0" style="fill:none;stroke:#000;stroke-width:10.33px;"/></g><g><path d="M4318.48,270.542l0,215.596" style="fill:none;stroke:#000;stroke-width:7.75px;"/></g><g><path d="M4304.94,291.983l112.241,0" style="fill:none;stroke:#000;stroke-width:10.33px;"/></g><g><path d="M4532.82,238.25l-0,247.496" style="fill:none;stroke:#000;stroke-width:7.75px;"/></g><g><path d="M4518.23,227.4l113.413,0" style="fill:none;stroke:#000;stroke-width:10.33px;"/><path d="M4519.23,291.983l112.371,0" style="fill:none;stroke:#000;stroke-width:10.33px;"/></g><g><path d="M4780.57,205.958l-0,271.717" style="fill:none;stroke:#000;stroke-width:7.75px;"/></g><g><path d="M4767.03,227.4l112.367,0" style="fill:none;stroke:#000;stroke-width:10.33px;"/><path d="M4750.9,291.983l128.513,0" style="fill:none;stroke:#000;stroke-width:10.33px;"/></g><g><path d="M5028.48,141.375l0,328.225" style="fill:none;stroke:#000;stroke-width:7.75px;"/></g><g><path d="M4998.82,162.817l128.516,-0" style="fill:none;stroke:#000;stroke-width:10.33px;"/><path d="M4998.82,227.4l128.516,0" style="fill:none;stroke:#000;stroke-width:10.33px;"/><path d="M4998.82,291.983l128.516,0" style="fill:none;stroke:#000;stroke-width:10.33px;"/></g><g><path d="M5276.4,141.375l0,328.238" style="fill:none;stroke:#000;stroke-width:7.75px;"/></g><g><path d="M5246.73,162.817l128.517,-0" style="fill:none;stroke:#000;stroke-width:10.33px;"/><path d="M5246.73,227.4l128.517,0" style="fill:none;stroke:#000;stroke-width:10.33px;"/><path d="M5246.73,291.983l128.517,0" style="fill:none;stroke:#000;stroke-width:10.33px;"/></g><g><path d="M5490.86,173.667l0,301.325" style="fill:none;stroke:#000;stroke-width:7.75px;"/></g><g><path d="M5461.19,162.817l128.387,-0" style="fill:none;stroke:#000;stroke-width:10.33px;"/><path d="M5461.19,227.4l128.387,0" style="fill:none;stroke:#000;stroke-width:10.33px;"/><path d="M5461.19,291.983l128.387,0" style="fill:none;stroke:#000;stroke-width:10.33px;"/></g><g><path d="M5705.32,205.958l-0,274.425" style="fill:none;stroke:#000;stroke-width:7.75px;"/></g><g><path d="M5691.78,227.4l112.238,0" style="fill:none;stroke:#000;stroke-width:10.33px;"/><path d="M5675.65,291.983l128.383,0" style="fill:none;stroke:#000;stroke-width:10.33px;"/></g><g><path d="M5919.78,238.25l0,247.508" style="fill:none;stroke:#000;stroke-width:7.75px;"/></g><g><path d="M5890.07,227.4l128.383,0" style="fill:none;stroke:#000;stroke-width:10.33px;"/><path d="M5890.07,291.983l128.383,0" style="fill:none;stroke:#000;stroke-width:10.33px;"/></g><g><path d="M6134.23,270.542l0,215.466" style="fill:none;stroke:#000;stroke-width:7.75px;"/></g><g><path d="M6104.53,291.983l128.388,0" style="fill:none;stroke:#000;stroke-width:10.33px;"/></g><g><path d="M6382.03,302.833l0,215.463" style="fill:none;stroke:#000;stroke-width:7.75px;"/></g><g><path d="M6367.44,291.983l113.412,0" style="fill:none;stroke:#000;stroke-width:10.33px;"/></g><g><path d="M6629.94,335.121l-0,215.467" style="fill:none;stroke:#000;stroke-width:7.75px;"/></g><g><path d="M385.101,256.304c0,0 -0.258,1.042 -0.258,1.825c-0,1.042 1.041,2.084 2.083,2.084c0.779,-0 1.3,-0.784 1.563,-1.042c0.258,-0.784 3.383,-11.459 4.945,-14.063c0.521,-1.041 1.042,-1.304 1.305,-1.304c0.52,0 0.779,1.042 0.779,1.825l-0,37.238c-0,3.125 -2.604,4.95 -5.209,4.95c-1.041,-0 -2.341,0.52 -2.341,2.083c-0,1.562 1.3,2.083 3.383,2.083l21.875,0c2.083,0 2.083,-2.083 2.083,-2.083c0,-0 0,-2.083 -2.083,-2.083c-1.821,-0 -4.167,-2.346 -4.167,-4.688l0,-54.167c0,-2.083 -0.779,-3.125 -2.604,-3.125c-1.821,0 -3.383,0.521 -4.946,0.521c-2.604,0 -3.125,0 -5.208,-0.521c-1.042,0 -2.346,1.563 -3.125,2.605l-8.075,27.862" style="fill-rule:nonzero;"/></g><g><path d="M640.284,271.15c0,-1.825 -0.779,-2.083 -1.562,-2.083c-1.042,-0 -1.563,0.779 -1.821,1.562c-1.304,3.646 -4.167,8.334 -8.075,8.334c-0.521,-0 -1.042,-0 -1.562,-0.263l-3.905,-1.3c-2.604,-1.042 -8.854,-3.125 -14.062,-3.125c-1.825,0 -3.388,0.258 -4.95,0.779c2.867,-4.946 16.408,-11.458 19.271,-12.237c9.375,-1.304 17.187,-6.771 17.187,-16.929c0,-6.25 -2.604,-10.417 -5.987,-13.542c-6.771,-5.467 -16.667,-6.25 -19.534,-6.25c-9.375,-0 -16.925,0.521 -23.695,8.333c-1.825,2.084 -2.605,4.167 -2.605,6.25c0,1.825 0.78,3.909 1.563,6.25c1.562,3.125 4.946,5.471 8.592,5.471c6.512,0 7.291,-6.25 7.291,-9.117c0,-5.987 -6.508,-6.508 -6.508,-9.112c-0,-1.825 2.604,-4.95 10.417,-4.95c12.237,-0 16.404,10.158 16.404,13.283c-0,4.688 -1.563,9.113 -4.167,12.759c-4.687,5.991 -13.279,8.075 -19.792,12.241c-7.291,4.425 -12.237,11.979 -14.583,20.313c0,1.821 0.783,3.904 2.346,4.687c0.258,0.259 0.779,0.259 1.042,0.259c2.862,-0 4.425,-8.071 12.237,-8.071c5.208,-0 7.033,7.029 18.75,7.029c5.471,-0 15.625,-0.521 17.708,-20.571" style="fill-rule:nonzero;"/></g><g><path d="M842.784,268.546l0,-27.867c0,-1.3 -0.262,-2.341 -1.562,-2.341c-1.042,-0 -1.825,0.258 -2.604,1.299l-7.813,15.105c-0.521,0.521 -1.304,1.304 -1.304,3.125l0,10.679l-16.925,-0c10.675,-8.854 27.342,-38.283 27.604,-39.846c0,-0.258 0.259,-0.521 0.259,-0.779c-0,-1.042 -1.042,-1.825 -1.821,-1.825c-1.304,-0 -6.771,0.521 -9.117,0.521c-2.342,-0 -3.904,-0.521 -4.946,-0.521c-1.304,-0 -3.125,0.521 -3.125,2.604c0,16.667 -13.541,35.679 -16.929,40.367c-0.521,0.521 -1.042,1.3 -1.042,2.083c0,1.3 1.042,2.604 2.605,2.604l23.437,0l0,8.071c0,3.646 -2.083,4.688 -4.167,4.688c-2.341,-0 -3.383,1.041 -3.383,2.345c0,1.3 0.521,2.863 2.863,2.863l22.395,-0c1.305,-0 2.605,-1.042 2.605,-2.863c-0,-1.825 -1.563,-2.604 -2.863,-2.604c-1.304,0 -4.167,-0.783 -4.167,-4.95l0,-7.55l9.634,0c1.304,0 2.083,-1.041 2.083,-2.604c0,-1.563 -0.521,-2.604 -2.083,-2.604l-9.634,-0" style="fill-rule:nonzero;"/></g><g><path d="M1057.24,268.546l-0,-27.867c-0,-1.3 -0.263,-2.341 -1.563,-2.341c-1.042,-0 -1.825,0.258 -2.604,1.299l-7.813,15.105c-0.52,0.521 -1.304,1.304 -1.304,3.125l0,10.679l-16.925,-0c10.675,-8.854 27.342,-38.283 27.604,-39.846c0,-0.258 0.259,-0.521 0.259,-0.779c-0,-1.042 -1.042,-1.825 -1.821,-1.825c-1.304,-0 -6.771,0.521 -9.117,0.521c-2.341,-0 -3.904,-0.521 -4.946,-0.521c-1.304,-0 -3.125,0.521 -3.125,2.604c0,16.667 -13.541,35.679 -16.929,40.367c-0.521,0.521 -1.041,1.3 -1.041,2.083c-0,1.3 1.041,2.604 2.604,2.604l23.437,0l0,8.071c0,3.646 -2.083,4.688 -4.166,4.688c-2.342,-0 -3.384,1.041 -3.384,2.345c0,1.3 0.521,2.863 2.863,2.863l22.396,-0c1.304,-0 2.604,-1.042 2.604,-2.863c-0,-1.825 -1.563,-2.604 -2.863,-2.604c-1.304,0 -4.166,-0.783 -4.166,-4.95l-0,-7.55l9.633,0c1.304,0 2.083,-1.041 2.083,-2.604c0,-1.563 -0.521,-2.604 -2.083,-2.604l-9.633,-0" style="fill-rule:nonzero;"/></g><g><path d="M1242.8,256.304c-0,0 -0.258,1.042 -0.258,1.825c-0,1.042 1.041,2.084 2.083,2.084c0.779,-0 1.3,-0.784 1.562,-1.042c0.259,-0.784 3.384,-11.459 4.946,-14.063c0.521,-1.041 1.042,-1.304 1.304,-1.304c0.521,0 0.78,1.042 0.78,1.825l-0,37.238c-0,3.125 -2.605,4.95 -5.209,4.95c-1.041,-0 -2.341,0.52 -2.341,2.083c-0,1.562 1.3,2.083 3.383,2.083l21.875,0c2.083,0 2.083,-2.083 2.083,-2.083c0,-0 0,-2.083 -2.083,-2.083c-1.821,-0 -4.167,-2.346 -4.167,-4.688l0,-54.167c0,-2.083 -0.779,-3.125 -2.604,-3.125c-1.821,0 -3.383,0.521 -4.946,0.521c-2.604,0 -3.125,0 -5.208,-0.521c-1.042,0 -2.346,1.563 -3.125,2.605l-8.075,27.862" style="fill-rule:nonzero;"/></g><g><path d="M1531.31,271.15c-0,-1.825 -0.784,-2.083 -1.563,-2.083c-1.042,-0 -1.562,0.779 -1.825,1.562c-1.3,3.646 -4.167,8.334 -8.071,8.334c-0.521,-0 -1.041,-0 -1.562,-0.263l-3.909,-1.3c-2.604,-1.042 -8.854,-3.125 -14.062,-3.125c-1.821,0 -3.383,0.258 -4.946,0.779c2.863,-4.946 16.404,-11.458 19.271,-12.237c9.375,-1.304 17.187,-6.771 17.187,-16.929c0,-6.25 -2.604,-10.417 -5.991,-13.542c-6.771,-5.467 -16.667,-6.25 -19.529,-6.25c-9.375,-0 -16.93,0.521 -23.7,8.333c-1.821,2.084 -2.605,4.167 -2.605,6.25c0,1.825 0.784,3.909 1.563,6.25c1.562,3.125 4.95,5.471 8.596,5.471c6.508,0 7.291,-6.25 7.291,-9.117c0,-5.987 -6.512,-6.508 -6.512,-9.112c-0,-1.825 2.604,-4.95 10.417,-4.95c12.241,-0 16.408,10.158 16.408,13.283c-0,4.688 -1.563,9.113 -4.167,12.759c-4.687,5.991 -13.283,8.075 -19.791,12.241c-7.292,4.425 -12.242,11.979 -14.584,20.313c0,1.821 0.779,3.904 2.342,4.687c0.262,0.259 0.783,0.259 1.042,0.259c2.866,-0 4.429,-8.071 12.241,-8.071c5.209,-0 7.029,7.029 18.75,7.029c5.467,-0 15.625,-0.521 17.709,-20.571" style="fill-rule:nonzero;"/></g><g><path d="M1767.29,268.546l-0,-27.867c-0,-1.3 -0.259,-2.341 -1.563,-2.341c-1.042,-0 -1.821,0.258 -2.604,1.299l-7.813,15.105c-0.52,0.521 -1.3,1.304 -1.3,3.125l0,10.679l-16.929,-0c10.679,-8.854 27.346,-38.283 27.604,-39.846c0,-0.258 0.263,-0.521 0.263,-0.779c-0,-1.042 -1.042,-1.825 -1.825,-1.825c-1.3,-0 -6.771,0.521 -9.113,0.521c-2.345,-0 -3.908,-0.521 -4.95,-0.521c-1.3,-0 -3.125,0.521 -3.125,2.604c0,16.667 -13.541,35.679 -16.925,40.367c-0.52,0.521 -1.041,1.3 -1.041,2.083c-0,1.3 1.041,2.604 2.604,2.604l23.437,0l0,8.071c0,3.646 -2.083,4.688 -4.166,4.688c-2.346,-0 -3.388,1.041 -3.388,2.345c0,1.3 0.521,2.863 2.867,2.863l22.396,-0c1.3,-0 2.604,-1.042 2.604,-2.863c-0,-1.825 -1.563,-2.604 -2.867,-2.604c-1.3,0 -4.166,-0.783 -4.166,-4.95l-0,-7.55l9.637,0c1.3,0 2.083,-1.041 2.083,-2.604c0,-1.563 -0.52,-2.604 -2.083,-2.604l-9.637,-0" style="fill-rule:nonzero;"/></g><g><path d="M1986.4,256.304c0,0 -0.262,1.042 -0.262,1.825c-0,1.042 1.041,2.084 2.083,2.084c0.783,-0 1.304,-0.784 1.563,-1.042c0.262,-0.784 3.387,-11.459 4.95,-14.063c0.52,-1.041 1.041,-1.304 1.3,-1.304c0.52,0 0.783,1.042 0.783,1.825l-0,37.238c-0,3.125 -2.604,4.95 -5.208,4.95c-1.042,-0 -2.346,0.52 -2.346,2.083c-0,1.562 1.304,2.083 3.387,2.083l21.875,0c2.084,0 2.084,-2.083 2.084,-2.083c-0,-0 -0,-2.083 -2.084,-2.083c-1.825,-0 -4.166,-2.346 -4.166,-4.688l-0,-54.167c-0,-2.083 -0.784,-3.125 -2.605,-3.125c-1.825,0 -3.387,0.521 -4.95,0.521c-2.604,0 -3.125,0 -5.208,-0.521c-1.042,0 -2.342,1.563 -3.125,2.605l-8.071,27.862" style="fill-rule:nonzero;"/></g><g><path d="M2241.6,271.15c-0,-1.825 -0.779,-2.083 -1.563,-2.083c-1.041,-0 -1.562,0.779 -1.82,1.562c-1.305,3.646 -4.167,8.334 -8.075,8.334c-0.521,-0 -1.042,-0 -1.563,-0.263l-3.904,-1.3c-2.604,-1.042 -8.854,-3.125 -14.063,-3.125c-1.825,0 -3.387,0.258 -4.95,0.779c2.867,-4.946 16.409,-11.458 19.271,-12.237c9.375,-1.304 17.188,-6.771 17.188,-16.929c-0,-6.25 -2.604,-10.417 -5.988,-13.542c-6.771,-5.467 -16.666,-6.25 -19.533,-6.25c-9.375,-0 -16.925,0.521 -23.696,8.333c-1.825,2.084 -2.604,4.167 -2.604,6.25c-0,1.825 0.779,3.909 1.562,6.25c1.563,3.125 4.946,5.471 8.592,5.471c6.513,0 7.292,-6.25 7.292,-9.117c-0,-5.987 -6.509,-6.508 -6.509,-9.112c0,-1.825 2.605,-4.95 10.417,-4.95c12.238,-0 16.404,10.158 16.404,13.283c0,4.688 -1.562,9.113 -4.166,12.759c-4.688,5.991 -13.28,8.075 -19.792,12.241c-7.292,4.425 -12.238,11.979 -14.583,20.313c-0,1.821 0.783,3.904 2.345,4.687c0.259,0.259 0.78,0.259 1.042,0.259c2.863,-0 4.425,-8.071 12.238,-8.071c5.208,-0 7.033,7.029 18.75,7.029c5.47,-0 15.625,-0.521 17.708,-20.571" style="fill-rule:nonzero;"/></g><g><path d="M2444.03,268.546l0,-27.867c0,-1.3 -0.262,-2.341 -1.562,-2.341c-1.042,-0 -1.825,0.258 -2.604,1.299l-7.813,15.105c-0.521,0.521 -1.304,1.304 -1.304,3.125l0,10.679l-16.925,-0c10.675,-8.854 27.342,-38.283 27.604,-39.846c0,-0.258 0.259,-0.521 0.259,-0.779c-0,-1.042 -1.042,-1.825 -1.821,-1.825c-1.304,-0 -6.771,0.521 -9.117,0.521c-2.342,-0 -3.904,-0.521 -4.946,-0.521c-1.304,-0 -3.125,0.521 -3.125,2.604c0,16.667 -13.541,35.679 -16.929,40.367c-0.521,0.521 -1.042,1.3 -1.042,2.083c0,1.3 1.042,2.604 2.605,2.604l23.437,0l0,8.071c0,3.646 -2.083,4.688 -4.167,4.688c-2.341,-0 -3.383,1.041 -3.383,2.345c0,1.3 0.521,2.863 2.863,2.863l22.395,-0c1.305,-0 2.605,-1.042 2.605,-2.863c-0,-1.825 -1.563,-2.604 -2.863,-2.604c-1.304,0 -4.167,-0.783 -4.167,-4.95l0,-7.55l9.634,0c1.304,0 2.083,-1.041 2.083,-2.604c0,-1.563 -0.521,-2.604 -2.083,-2.604l-9.634,-0" style="fill-rule:nonzero;"/></g><g><path d="M2658.41,268.546l0,-27.867c0,-1.3 -0.262,-2.341 -1.562,-2.341c-1.042,-0 -1.825,0.258 -2.604,1.299l-7.813,15.105c-0.521,0.521 -1.304,1.304 -1.304,3.125l0,10.679l-16.925,-0c10.675,-8.854 27.342,-38.283 27.604,-39.846c0,-0.258 0.259,-0.521 0.259,-0.779c-0,-1.042 -1.042,-1.825 -1.821,-1.825c-1.304,-0 -6.771,0.521 -9.117,0.521c-2.342,-0 -3.904,-0.521 -4.946,-0.521c-1.304,-0 -3.125,0.521 -3.125,2.604c0,16.667 -13.541,35.679 -16.929,40.367c-0.521,0.521 -1.042,1.3 -1.042,2.083c0,1.3 1.042,2.604 2.605,2.604l23.437,0l0,8.071c0,3.646 -2.083,4.688 -4.167,4.688c-2.341,-0 -3.383,1.041 -3.383,2.345c0,1.3 0.521,2.863 2.863,2.863l22.395,-0c1.305,-0 2.605,-1.042 2.605,-2.863c-0,-1.825 -1.563,-2.604 -2.863,-2.604c-1.304,0 -4.167,-0.783 -4.167,-4.95l0,-7.55l9.634,0c1.304,0 2.083,-1.041 2.083,-2.604c0,-1.563 -0.521,-2.604 -2.083,-2.604l-9.634,-0" style="fill-rule:nonzero;"/></g><g><path d="M2843.9,256.304c0,0 -0.258,1.042 -0.258,1.825c-0,1.042 1.041,2.084 2.083,2.084c0.779,-0 1.3,-0.784 1.563,-1.042c0.258,-0.784 3.383,-11.459 4.945,-14.063c0.521,-1.041 1.042,-1.304 1.305,-1.304c0.52,0 0.779,1.042 0.779,1.825l-0,37.238c-0,3.125 -2.604,4.95 -5.209,4.95c-1.041,-0 -2.341,0.52 -2.341,2.083c-0,1.562 1.3,2.083 3.383,2.083l21.875,0c2.083,0 2.083,-2.083 2.083,-2.083c0,-0 0,-2.083 -2.083,-2.083c-1.821,-0 -4.167,-2.346 -4.167,-4.688l0,-54.167c0,-2.083 -0.779,-3.125 -2.604,-3.125c-1.821,0 -3.383,0.521 -4.946,0.521c-2.604,0 -3.125,0 -5.208,-0.521c-1.042,0 -2.346,1.563 -3.125,2.605l-8.075,27.862" style="fill-rule:nonzero;"/></g><g><path d="M3132.35,271.15c0,-1.825 -0.779,-2.083 -1.562,-2.083c-1.042,-0 -1.563,0.779 -1.821,1.562c-1.304,3.646 -4.167,8.334 -8.075,8.334c-0.521,-0 -1.042,-0 -1.563,-0.263l-3.904,-1.3c-2.604,-1.042 -8.854,-3.125 -14.062,-3.125c-1.825,0 -3.388,0.258 -4.95,0.779c2.866,-4.946 16.408,-11.458 19.27,-12.237c9.375,-1.304 17.188,-6.771 17.188,-16.929c-0,-6.25 -2.604,-10.417 -5.988,-13.542c-6.77,-5.467 -16.666,-6.25 -19.533,-6.25c-9.375,-0 -16.925,0.521 -23.696,8.333c-1.825,2.084 -2.604,4.167 -2.604,6.25c0,1.825 0.779,3.909 1.563,6.25c1.562,3.125 4.945,5.471 8.591,5.471c6.513,0 7.292,-6.25 7.292,-9.117c-0,-5.987 -6.508,-6.508 -6.508,-9.112c-0,-1.825 2.604,-4.95 10.416,-4.95c12.238,-0 16.404,10.158 16.404,13.283c0,4.688 -1.562,9.113 -4.166,12.759c-4.688,5.991 -13.279,8.075 -19.792,12.241c-7.292,4.425 -12.237,11.979 -14.583,20.313c-0,1.821 0.783,3.904 2.346,4.687c0.258,0.259 0.779,0.259 1.041,0.259c2.863,-0 4.425,-8.071 12.238,-8.071c5.208,-0 7.033,7.029 18.75,7.029c5.471,-0 15.625,-0.521 17.708,-20.571" style="fill-rule:nonzero;"/></g><g><path d="M3368.32,268.488l-0,-27.863c-0,-1.304 -0.263,-2.346 -1.563,-2.346c-1.041,0 -1.825,0.263 -2.604,1.304l-7.812,15.105c-0.521,0.52 -1.305,1.3 -1.305,3.125l0,10.675l-16.925,-0c10.675,-8.855 27.342,-38.28 27.605,-39.842c-0,-0.263 0.258,-0.521 0.258,-0.783c-0,-1.042 -1.042,-1.821 -1.821,-1.821c-1.304,-0 -6.771,0.521 -9.117,0.521c-2.341,-0 -3.904,-0.521 -4.945,-0.521c-1.305,-0 -3.125,0.521 -3.125,2.604c-0,16.667 -13.542,35.675 -16.93,40.362c-0.52,0.521 -1.041,1.305 -1.041,2.084c-0,1.304 1.041,2.604 2.604,2.604l23.437,-0l0,8.075c0,3.646 -2.083,4.687 -4.166,4.687c-2.342,0 -3.384,1.042 -3.384,2.342c0,1.304 0.521,2.867 2.863,2.867l22.396,-0c1.304,-0 2.604,-1.042 2.604,-2.867c-0,-1.821 -1.563,-2.604 -2.863,-2.604c-1.304,-0 -4.166,-0.779 -4.166,-4.946l-0,-7.554l9.633,-0c1.304,-0 2.083,-1.042 2.083,-2.604c0,-1.563 -0.52,-2.604 -2.083,-2.604l-9.633,-0" style="fill-rule:nonzero;"/></g><g><path d="M3694.78,223.754c0,0 -0.262,1.042 -0.262,1.821c-0,1.042 1.041,2.083 2.083,2.083c0.783,0 1.304,-0.779 1.562,-1.041c0.263,-0.779 3.388,-11.459 4.95,-14.063c0.521,-1.042 1.042,-1.3 1.3,-1.3c0.521,0 0.784,1.042 0.784,1.821l-0,37.242c-0,3.125 -2.604,4.946 -5.209,4.946c-1.041,-0 -2.345,0.52 -2.345,2.083c-0,1.562 1.304,2.083 3.387,2.083l21.875,0c2.083,0 2.083,-2.083 2.083,-2.083c0,-0 0,-2.083 -2.083,-2.083c-1.825,-0 -4.167,-2.342 -4.167,-4.688l0,-54.167c0,-2.083 -0.783,-3.125 -2.604,-3.125c-1.825,0 -3.387,0.521 -4.95,0.521c-2.604,0 -3.125,0 -5.208,-0.521c-1.042,0 -2.342,1.563 -3.125,2.604l-8.071,27.867" style="fill-rule:nonzero;"/></g><g><path d="M3949.9,205.492c0,-1.821 -0.783,-2.084 -1.562,-2.084c-1.042,0 -1.563,0.784 -1.825,1.563c-1.3,3.646 -4.167,8.333 -8.071,8.333c-0.521,0 -1.042,0 -1.563,-0.258l-3.908,-1.304c-2.604,-1.042 -8.854,-3.125 -14.063,-3.125c-1.82,-0 -3.383,0.262 -4.945,0.783c2.862,-4.95 16.404,-11.458 19.27,-12.242c9.375,-1.3 17.188,-6.77 17.188,-16.925c-0,-6.25 -2.604,-10.416 -5.992,-13.541c-6.771,-5.471 -16.666,-6.25 -19.529,-6.25c-9.375,-0 -16.929,0.521 -23.7,8.333c-1.821,2.083 -2.604,4.167 -2.604,6.25c-0,1.821 0.783,3.904 1.562,6.25c1.563,3.125 4.95,5.467 8.596,5.467c6.509,-0 7.292,-6.25 7.292,-9.113c-0,-5.991 -6.513,-6.512 -6.513,-9.116c0,-1.821 2.605,-4.946 10.417,-4.946c12.242,-0 16.408,10.154 16.408,13.279c0,4.687 -1.562,9.117 -4.166,12.762c-4.688,5.988 -13.284,8.071 -19.792,12.238c-7.292,4.429 -12.242,11.979 -14.583,20.312c-0,1.825 0.779,3.909 2.341,4.688c0.263,0.262 0.784,0.262 1.042,0.262c2.867,0 4.429,-8.075 12.242,-8.075c5.208,0 7.029,7.034 18.75,7.034c5.466,-0 15.625,-0.521 17.708,-20.575" style="fill-rule:nonzero;"/></g><g><path d="M4152.4,171.613l0,-27.863c0,-1.304 -0.262,-2.346 -1.562,-2.346c-1.042,0 -1.825,0.263 -2.605,1.304l-7.812,15.105c-0.521,0.52 -1.304,1.3 -1.304,3.125l-0,10.675l-16.925,-0c10.675,-8.855 27.341,-38.28 27.604,-39.842c-0,-0.263 0.258,-0.521 0.258,-0.784c0,-1.041 -1.041,-1.82 -1.821,-1.82c-1.304,-0 -6.77,0.521 -9.116,0.521c-2.342,-0 -3.904,-0.521 -4.946,-0.521c-1.304,-0 -3.125,0.521 -3.125,2.604c-0,16.667 -13.542,35.675 -16.929,40.362c-0.521,0.521 -1.042,1.305 -1.042,2.084c0,1.304 1.042,2.604 2.604,2.604l23.438,-0l-0,8.075c-0,3.646 -2.084,4.687 -4.167,4.687c-2.342,0 -3.383,1.042 -3.383,2.342c-0,1.304 0.521,2.867 2.862,2.867l22.396,-0c1.304,-0 2.604,-1.042 2.604,-2.867c0,-1.821 -1.562,-2.604 -2.862,-2.604c-1.304,-0 -4.167,-0.779 -4.167,-4.946l0,-7.554l9.633,-0c1.305,-0 2.084,-1.042 2.084,-2.604c-0,-1.563 -0.521,-2.605 -2.084,-2.605l-9.633,0" style="fill-rule:nonzero;"/></g><g><path d="M4366.86,171.613l0,-27.863c0,-1.304 -0.258,-2.346 -1.562,-2.346c-1.042,0 -1.821,0.263 -2.604,1.304l-7.813,15.105c-0.521,0.52 -1.3,1.3 -1.3,3.125l0,10.675l-16.929,-0c10.679,-8.855 27.346,-38.28 27.604,-39.842c0,-0.263 0.263,-0.521 0.263,-0.784c-0,-1.041 -1.042,-1.82 -1.825,-1.82c-1.3,-0 -6.771,0.521 -9.113,0.521c-2.346,-0 -3.908,-0.521 -4.95,-0.521c-1.3,-0 -3.125,0.521 -3.125,2.604c0,16.667 -13.541,35.675 -16.925,40.362c-0.521,0.521 -1.041,1.305 -1.041,2.084c-0,1.304 1.041,2.604 2.604,2.604l23.437,-0l0,8.075c0,3.646 -2.083,4.687 -4.166,4.687c-2.346,0 -3.388,1.042 -3.388,2.342c0,1.304 0.521,2.867 2.867,2.867l22.396,-0c1.3,-0 2.604,-1.042 2.604,-2.867c-0,-1.821 -1.563,-2.604 -2.867,-2.604c-1.3,-0 -4.167,-0.779 -4.167,-4.946l0,-7.554l9.638,-0c1.3,-0 2.083,-1.042 2.083,-2.604c0,-1.563 -0.521,-2.605 -2.083,-2.605l-9.638,0" style="fill-rule:nonzero;"/></g><g><path d="M4552.4,126.879c0,0 -0.262,1.042 -0.262,1.821c-0,1.042 1.041,2.083 2.083,2.083c0.783,0 1.304,-0.779 1.562,-1.041c0.263,-0.779 3.388,-11.459 4.95,-14.063c0.521,-1.042 1.042,-1.3 1.3,-1.3c0.521,0 0.784,1.042 0.784,1.821l-0,37.242c-0,3.125 -2.604,4.945 -5.209,4.945c-1.041,0 -2.345,0.521 -2.345,2.084c-0,1.562 1.304,2.083 3.387,2.083l21.875,0c2.083,0 2.083,-2.083 2.083,-2.083c0,-0 0,-2.084 -2.083,-2.084c-1.825,0 -4.167,-2.341 -4.167,-4.687l0,-54.167c0,-2.083 -0.783,-3.125 -2.604,-3.125c-1.825,0 -3.387,0.521 -4.95,0.521c-2.604,0 -3.125,0 -5.208,-0.521c-1.042,0 -2.342,1.563 -3.125,2.605l-8.071,27.866" style="fill-rule:nonzero;"/></g><g><path d="M4840.94,108.617c-0,-1.821 -0.784,-2.084 -1.563,-2.084c-1.041,0 -1.562,0.784 -1.825,1.563c-1.3,3.646 -4.166,8.333 -8.071,8.333c-0.52,0 -1.041,0 -1.562,-0.258l-3.908,-1.304c-2.605,-1.042 -8.855,-3.125 -14.063,-3.125c-1.821,-0 -3.383,0.262 -4.946,0.783c2.863,-4.95 16.404,-11.458 19.271,-12.242c9.375,-1.3 17.188,-6.77 17.188,-16.925c-0,-6.25 -2.605,-10.416 -5.992,-13.541c-6.771,-5.471 -16.667,-6.25 -19.529,-6.25c-9.375,-0 -16.929,0.521 -23.7,8.333c-1.821,2.083 -2.604,4.167 -2.604,6.25c-0,1.821 0.783,3.904 1.562,6.25c1.563,3.125 4.95,5.467 8.596,5.467c6.508,-0 7.292,-6.25 7.292,-9.113c-0,-5.991 -6.513,-6.512 -6.513,-9.116c0,-1.821 2.604,-4.946 10.417,-4.946c12.241,-0 16.408,10.154 16.408,13.279c0,4.687 -1.562,9.117 -4.167,12.762c-4.687,5.988 -13.283,8.071 -19.791,12.238c-7.292,4.429 -12.242,11.979 -14.584,20.312c0,1.825 0.78,3.909 2.342,4.688c0.263,0.262 0.783,0.262 1.042,0.262c2.866,0 4.429,-8.075 12.241,-8.075c5.209,0 7.03,7.034 18.75,7.034c5.467,-0 15.625,-0.521 17.709,-20.575" style="fill-rule:nonzero;"/></g><g><path d="M5076.9,42.446l0,-27.863c0,-1.304 -0.262,-2.345 -1.562,-2.345c-1.042,-0 -1.825,0.262 -2.605,1.304l-7.812,15.104c-0.521,0.521 -1.304,1.3 -1.304,3.125l-0,10.675l-16.925,-0c10.675,-8.854 27.341,-38.279 27.604,-39.842c-0,-0.262 0.258,-0.521 0.258,-0.783c0,-1.042 -1.041,-1.821 -1.821,-1.821c-1.304,0 -6.77,0.521 -9.116,0.521c-2.342,-0 -3.904,-0.521 -4.946,-0.521c-1.304,0 -3.125,0.521 -3.125,2.604c-0,16.667 -13.542,35.675 -16.929,40.363c-0.521,0.521 -1.042,1.304 -1.042,2.083c0,1.304 1.042,2.604 2.604,2.604l23.438,0l-0,8.075c-0,3.646 -2.084,4.688 -4.167,4.688c-2.342,-0 -3.383,1.041 -3.383,2.341c-0,1.304 0.521,2.867 2.862,2.867l22.396,0c1.304,0 2.604,-1.042 2.604,-2.867c0,-1.821 -1.562,-2.604 -2.862,-2.604c-1.304,0 -4.167,-0.779 -4.167,-4.946l0,-7.554l9.633,0c1.305,0 2.084,-1.041 2.084,-2.604c-0,-1.562 -0.521,-2.604 -2.084,-2.604l-9.633,-0" style="fill-rule:nonzero;"/></g><g><path d="M5324.82,42.446l-0,-27.863c-0,-1.304 -0.263,-2.345 -1.563,-2.345c-1.041,-0 -1.825,0.262 -2.604,1.304l-7.812,15.104c-0.521,0.521 -1.305,1.3 -1.305,3.125l0,10.675l-16.925,-0c10.675,-8.854 27.342,-38.279 27.605,-39.842c-0,-0.262 0.258,-0.521 0.258,-0.783c-0,-1.042 -1.042,-1.821 -1.821,-1.821c-1.304,0 -6.771,0.521 -9.117,0.521c-2.341,-0 -3.904,-0.521 -4.945,-0.521c-1.305,0 -3.125,0.521 -3.125,2.604c-0,16.667 -13.542,35.675 -16.93,40.363c-0.52,0.521 -1.041,1.304 -1.041,2.083c-0,1.304 1.041,2.604 2.604,2.604l23.437,0l0,8.075c0,3.646 -2.083,4.688 -4.166,4.688c-2.342,-0 -3.384,1.041 -3.384,2.341c0,1.304 0.521,2.867 2.863,2.867l22.396,0c1.304,0 2.604,-1.042 2.604,-2.867c-0,-1.821 -1.563,-2.604 -2.863,-2.604c-1.304,0 -4.166,-0.779 -4.166,-4.946l-0,-7.554l9.633,0c1.304,0 2.083,-1.041 2.083,-2.604c0,-1.562 -0.52,-2.604 -2.083,-2.604l-9.633,-0" style="fill-rule:nonzero;"/></g><g><path d="M5522.69,32.346c-14.321,-0 -20.571,9.637 -20.571,15.104c-0,3.646 2.083,8.075 8.592,8.333c4.95,0 7.291,-3.125 7.291,-6.508l0,-1.042c-0.258,-3.908 -2.862,-4.166 -3.383,-4.429c-0.521,-0.258 -1.563,-1.3 -1.563,-3.125c0.521,-2.862 4.425,-3.904 5.467,-3.904c13.283,0 17.188,7.029 17.188,11.458c-0,12.238 -12.5,13.28 -16.405,13.542c-1.825,0 -3.645,0.779 -3.645,2.342c-0,1.562 2.341,1.562 3.383,1.562c15.104,0 17.187,7.813 17.187,11.721c0,15.104 -12.237,15.625 -15.362,15.625c-1.563,0 -4.167,-0.783 -4.429,-2.083l-0,-1.563c-0,-2.867 0.783,-5.992 1.041,-8.596c0,-4.687 -3.125,-7.55 -7.812,-7.55l-1.042,0c-1.821,0.521 -3.646,1.563 -4.946,2.863c-1.825,1.562 -2.345,3.908 -2.345,6.25c0.262,8.333 7.554,15.367 20.575,15.625l1.562,-0c12.758,-0 26.042,-6.771 26.042,-18.229c-0,-2.605 -0.521,-4.688 -1.304,-6.25c-0.521,-1.563 -1.563,-2.863 -2.605,-3.904c-0.779,-1.042 -1.82,-1.826 -2.862,-2.605l-2.867,-1.562l-1.562,-0.521c-0.521,0 -0.779,-0.262 -1.3,-0.262l-1.563,-0.521c-0.783,-0.259 -1.041,-0 -1.304,-0.521c-0.258,-0.258 -0.258,-0.521 -0.258,-0.779c-0,-0.521 0.258,-1.042 0.779,-1.042l4.167,-1.304c1.825,-1.042 3.645,-1.821 4.95,-3.646c2.083,-2.083 2.862,-5.467 2.862,-8.333c0,-12.238 -16.146,-15.625 -21.875,-16.146l-2.083,-0" style="fill-rule:nonzero;"/></g><g><path d="M5724.9,94.588c0,-0 -0.262,1.041 -0.262,1.82c-0,1.042 1.041,2.084 2.083,2.084c0.783,-0 1.304,-0.779 1.562,-1.042c0.263,-0.779 3.388,-11.458 4.95,-14.063c0.521,-1.041 1.042,-1.299 1.3,-1.299c0.521,-0 0.784,1.041 0.784,1.82l-0,37.242c-0,3.125 -2.604,4.946 -5.209,4.946c-1.041,-0 -2.345,0.521 -2.345,2.083c-0,1.563 1.304,2.084 3.387,2.084l21.875,-0c2.083,-0 2.083,-2.084 2.083,-2.084c0,0 0,-2.083 -2.083,-2.083c-1.825,-0 -4.167,-2.342 -4.167,-4.688l0,-54.166c0,-2.084 -0.783,-3.125 -2.604,-3.125c-1.825,-0 -3.387,0.521 -4.95,0.521c-2.604,-0 -3.125,-0 -5.208,-0.521c-1.042,-0 -2.342,1.562 -3.125,2.604l-8.071,27.867" style="fill-rule:nonzero;"/></g><g><path d="M5939.36,126.879c0,0 -0.258,1.042 -0.258,1.821c0,1.042 1.042,2.083 2.083,2.083c0.78,0 1.3,-0.779 1.563,-1.041c0.258,-0.779 3.383,-11.459 4.946,-14.063c0.521,-1.042 1.041,-1.3 1.304,-1.3c0.521,0 0.779,1.042 0.779,1.821l0,37.242c0,3.125 -2.604,4.945 -5.208,4.945c-1.042,0 -2.342,0.521 -2.342,2.084c0,1.562 1.3,2.083 3.383,2.083l21.875,0c2.084,0 2.084,-2.083 2.084,-2.083c-0,-0 -0,-2.084 -2.084,-2.084c-1.82,0 -4.166,-2.341 -4.166,-4.687l-0,-54.167c-0,-2.083 -0.779,-3.125 -2.604,-3.125c-1.821,0 -3.384,0.521 -4.946,0.521c-2.604,0 -3.125,0 -5.209,-0.521c-1.041,0 -2.345,1.563 -3.125,2.605l-8.075,27.866" style="fill-rule:nonzero;"/></g><g><path d="M6182.57,171.613l-0,-27.863c-0,-1.304 -0.259,-2.346 -1.563,-2.346c-1.041,0 -1.821,0.263 -2.604,1.304l-7.812,15.105c-0.521,0.52 -1.3,1.3 -1.3,3.125l-0,10.675l-16.93,-0c10.68,-8.855 27.346,-38.28 27.605,-39.842c-0,-0.263 0.262,-0.521 0.262,-0.784c0,-1.041 -1.042,-1.82 -1.825,-1.82c-1.3,-0 -6.771,0.521 -9.112,0.521c-2.346,-0 -3.909,-0.521 -4.95,-0.521c-1.3,-0 -3.125,0.521 -3.125,2.604c-0,16.667 -13.542,35.675 -16.925,40.362c-0.521,0.521 -1.042,1.305 -1.042,2.084c-0,1.304 1.042,2.604 2.604,2.604l23.438,-0l-0,8.075c-0,3.646 -2.084,4.687 -4.167,4.687c-2.346,0 -3.388,1.042 -3.388,2.342c0,1.304 0.521,2.867 2.867,2.867l22.396,-0c1.3,-0 2.604,-1.042 2.604,-2.867c0,-1.821 -1.562,-2.604 -2.867,-2.604c-1.3,-0 -4.166,-0.779 -4.166,-4.946l-0,-7.554l9.637,-0c1.3,-0 2.084,-1.042 2.084,-2.604c-0,-1.563 -0.521,-2.605 -2.084,-2.605l-9.637,0" style="fill-rule:nonzero;"/></g><g><path d="M6442.4,205.492c0,-1.821 -0.779,-2.084 -1.562,-2.084c-1.042,0 -1.563,0.784 -1.821,1.563c-1.304,3.646 -4.167,8.333 -8.075,8.333c-0.521,0 -1.042,0 -1.563,-0.258l-3.904,-1.304c-2.604,-1.042 -8.854,-3.125 -14.062,-3.125c-1.825,-0 -3.388,0.262 -4.95,0.783c2.866,-4.95 16.408,-11.458 19.27,-12.242c9.375,-1.3 17.188,-6.77 17.188,-16.925c-0,-6.25 -2.604,-10.416 -5.988,-13.541c-6.77,-5.471 -16.666,-6.25 -19.533,-6.25c-9.375,-0 -16.925,0.521 -23.696,8.333c-1.825,2.083 -2.604,4.167 -2.604,6.25c0,1.821 0.779,3.904 1.563,6.25c1.562,3.125 4.945,5.467 8.591,5.467c6.513,-0 7.292,-6.25 7.292,-9.113c-0,-5.991 -6.508,-6.512 -6.508,-9.116c-0,-1.821 2.604,-4.946 10.416,-4.946c12.238,-0 16.404,10.154 16.404,13.279c0,4.687 -1.562,9.117 -4.166,12.762c-4.688,5.988 -13.279,8.071 -19.792,12.238c-7.292,4.429 -12.237,11.979 -14.583,20.312c-0,1.825 0.783,3.909 2.346,4.688c0.258,0.262 0.779,0.262 1.041,0.262c2.863,0 4.425,-8.075 12.238,-8.075c5.208,0 7.033,7.034 18.75,7.034c5.471,-0 15.625,-0.521 17.708,-20.575" style="fill-rule:nonzero;"/></g><g><path d="M6649.57,223.754c-0,0 -0.259,1.042 -0.259,1.821c0,1.042 1.042,2.083 2.084,2.083c0.779,0 1.3,-0.779 1.562,-1.041c0.259,-0.779 3.384,-11.459 4.946,-14.063c0.521,-1.042 1.042,-1.3 1.304,-1.3c0.521,0 0.779,1.042 0.779,1.821l0,37.242c0,3.125 -2.604,4.946 -5.208,4.946c-1.042,-0 -2.342,0.52 -2.342,2.083c0,1.562 1.3,2.083 3.384,2.083l21.875,0c2.083,0 2.083,-2.083 2.083,-2.083c0,-0 0,-2.083 -2.083,-2.083c-1.821,-0 -4.167,-2.342 -4.167,-4.688l0,-54.167c0,-2.083 -0.779,-3.125 -2.604,-3.125c-1.821,0 -3.383,0.521 -4.946,0.521c-2.604,0 -3.125,0 -5.208,-0.521c-1.042,0 -2.346,1.563 -3.125,2.604l-8.075,27.867" style="fill-rule:nonzero;"/></g><g><path d="M386.889,808.908c23.175,0 51.562,-21.354 51.562,-43.487c0,-13.284 -10.417,-21.617 -25.262,-21.617c-28.646,0 -51.563,21.096 -51.563,43.492c0,13.542 11.2,21.612 25.263,21.612" style="fill-rule:nonzero;"/></g><g><path d="M513.372,765.158c-0,0 -0.779,-15.625 -0.779,-26.041c-0,-4.167 0.258,-7.292 0.521,-8.334c1.82,-5.208 12.237,-12.758 18.229,-12.758c7.55,0 10.675,8.592 10.675,15.104c-0,14.063 -11.979,28.125 -23.175,35.154c-1.042,0.521 -1.825,0.784 -2.604,0.784c-2.346,-0 -2.867,-2.604 -2.867,-3.909m-9.113,23.18c0.78,1.041 1.563,1.3 2.342,1.3c0.783,-0 1.563,-0.521 1.563,-0.521c7.812,-4.425 14.062,-11.459 20.575,-15.884c23.175,-16.145 31.25,-32.033 31.25,-44.012c-0,-14.842 -11.459,-24.217 -23.438,-25c-4.429,-0 -10.679,2.083 -14.325,4.429c-1.562,1.3 -4.425,3.646 -5.729,3.646c-0.521,-0 -0.779,-0 -1.3,-0.263c-1.825,-0.779 -2.867,-2.604 -2.867,-4.425c0.263,-5.729 1.825,-68.229 1.825,-73.437c0,-2.867 -2.346,-4.429 -4.95,-4.429c-3.646,-0 -7.812,2.604 -8.071,7.291c0,0 1.042,148.7 3.125,151.305" style="fill-rule:nonzero;"/></g><g><path d="M601.339,776.617c23.175,-0 51.562,-21.354 51.562,-43.488c0,-13.283 -10.417,-21.616 -25.262,-21.616c-28.646,-0 -51.563,21.095 -51.563,43.491c0,13.542 11.2,21.613 25.263,21.613" style="fill-rule:nonzero;"/></g><g><path d="M727.822,732.867c-0,-0 -0.779,-15.625 -0.779,-26.042c-0,-4.167 0.258,-7.292 0.521,-8.333c1.82,-5.209 12.237,-12.759 18.229,-12.759c7.55,0 10.675,8.592 10.675,15.105c-0,14.062 -11.979,28.125 -23.175,35.154c-1.042,0.521 -1.825,0.783 -2.604,0.783c-2.346,0 -2.867,-2.604 -2.867,-3.908m-9.113,23.179c0.78,1.042 1.563,1.3 2.342,1.3c0.783,-0 1.563,-0.521 1.563,-0.521c7.812,-4.425 14.062,-11.458 20.575,-15.883c23.175,-16.146 31.25,-32.034 31.25,-44.013c-0,-14.841 -11.459,-24.216 -23.438,-25c-4.429,0 -10.679,2.084 -14.325,4.429c-1.562,1.3 -4.425,3.646 -5.729,3.646c-0.521,0 -0.779,0 -1.3,-0.262c-1.825,-0.779 -2.867,-2.604 -2.867,-4.425c0.263,-5.729 1.825,-68.229 1.825,-73.438c0,-2.866 -2.346,-4.429 -4.95,-4.429c-3.646,0 -7.812,2.604 -8.071,7.292c0,-0 1.042,148.7 3.125,151.304" style="fill-rule:nonzero;"/></g><g><path d="M815.793,744.325c23.175,0 51.562,-21.354 51.562,-43.487c0,-13.284 -10.416,-21.617 -25.262,-21.617c-28.646,-0 -51.563,21.096 -51.563,43.491c0,13.542 11.2,21.613 25.263,21.613" style="fill-rule:nonzero;"/></g><g><path d="M954.726,701.617c0,-3.646 15.883,-10.417 22.133,-10.417c1.563,0 2.346,0.263 2.346,1.304l0,26.821c0,4.688 -14.846,10.679 -21.354,10.679c-1.825,0 -3.125,-0.521 -3.125,-1.562l0,-26.825m27.083,-36.979c-0.52,-0 -0.783,0.262 -1.041,0.262c-0,0 -16.667,5.988 -23.438,5.988c-1.562,-0 -2.604,-0.259 -2.604,-1.3l0,-43.492c0,-1.821 -1.562,-3.125 -3.125,-3.125l-3.387,-0c-1.821,-0 -3.125,1.304 -3.125,3.125l-0,134.117c-0,1.562 0.783,2.341 2.083,2.341c0.262,0 1.562,-0.258 1.825,-0.521c3.646,-1.562 18.229,-7.812 25.779,-7.812c2.604,-0 4.429,0.783 4.429,2.867l0,38.8c0,1.825 1.3,3.125 3.125,3.125l3.384,-0c1.562,-0 3.125,-1.3 3.125,-3.125l-0,-130.73c-0,-1.3 -1.042,-2.083 -2.084,-2.083c-0.258,0 -0.779,0 -1.041,0.263l-3.905,1.3" style="fill-rule:nonzero;"/></g><g><path d="M1030.23,744.325c23.179,0 51.563,-21.354 51.563,-43.487c-0,-13.284 -10.417,-21.617 -25.259,-21.617c-28.645,-0 -51.562,21.096 -51.562,43.491c-0,13.542 11.196,21.613 25.258,21.613" style="fill-rule:nonzero;"/></g><g><path d="M1182.13,691.2c-1.562,5.208 -13.804,10.417 -19.791,10.417c-1.563,-0 -2.867,-0.521 -3.125,-1.3c-0.521,-1.042 -0.784,-6.771 -0.784,-13.021c0,-8.075 0.263,-17.188 0.784,-19.271c0.521,-4.429 12.5,-9.896 19.008,-9.896c1.825,0 3.388,0.521 3.908,1.563c0.521,1.3 1.042,7.812 1.042,14.841c0,7.034 -0.521,14.325 -1.042,16.667m17.967,-42.446c1.825,-0.783 3.125,-2.867 3.125,-4.429l0,-18.488c0,-1.304 -0.779,-2.083 -1.821,-2.083c-0.521,0 -0.783,0 -1.304,0.258c0,0 -5.208,2.084 -6.508,2.346c-1.825,0 -3.646,-1.304 -3.646,-3.387l-0,-31.771c-0,-1.563 -1.563,-2.863 -3.646,-2.863c-2.604,0 -4.167,1.3 -4.167,2.863l0,33.854c-0.262,2.604 -1.041,5.992 -3.387,7.554c-3.125,1.821 -11.979,5.467 -16.404,6.509c-2.346,-0 -3.125,-3.125 -3.125,-5.209l-0,-31.25c-0,-1.562 -1.825,-2.862 -3.646,-2.862c-2.604,-0 -4.167,1.3 -4.167,2.862l0,35.159c0,3.645 -1.562,6.25 -3.125,7.029c-1.562,0.783 -6.771,2.866 -6.771,2.866c-1.825,0.521 -3.125,2.605 -3.125,4.167l0,18.488c0,1.562 0.78,2.345 2.084,2.345c1.041,0 5.987,-2.345 6.771,-2.866c0.258,-0 0.52,-0.259 0.779,-0.259c1.825,0 3.387,2.605 3.387,4.688l0,25.779c0,2.867 -1.304,5.208 -2.866,5.992c-1.563,0.521 -7.03,2.862 -7.03,2.862c-1.825,0.521 -3.125,2.604 -3.125,4.167l0,18.492c0,1.562 0.78,2.341 2.084,2.341c0.258,0 0.779,-0.258 1.041,-0.258c0,-0 3.646,-1.563 5.988,-2.346c0.262,-0.258 0.521,-0.258 0.783,-0.258c1.821,-0 3.125,2.862 3.125,4.166l0,32.03c0,1.562 1.563,2.866 3.384,2.866c2.604,0 4.429,-1.304 4.429,-2.866l-0,-36.196c-0,-3.388 1.3,-5.209 2.604,-5.729l15.883,-6.513c0.263,0 0.784,-0.258 1.042,-0.258c2.083,-0 3.387,3.125 3.387,4.687l0,32.55c0,1.563 1.563,2.867 3.384,2.867c2.866,0 4.429,-1.304 4.429,-2.867l-0,-36.979c-0,-2.083 1.042,-5.208 2.862,-5.987c1.825,-0.784 7.292,-2.867 7.292,-2.867c1.825,-0.779 3.125,-2.863 3.125,-4.425l0,-18.492c0,-1.3 -0.779,-2.083 -1.821,-2.083c-0.521,-0 -0.783,-0 -1.304,0.262l-6.771,2.605c-1.562,-0 -3.383,-1.563 -3.383,-4.688l-0,-24.221c-0,-1.821 1.3,-6.771 3.383,-7.55l6.771,-2.604" style="fill-rule:nonzero;"/></g><g><path d="M1244.58,712.033c23.179,0 51.563,-21.354 51.563,-43.487c-0,-13.284 -10.417,-21.617 -25.259,-21.617c-28.645,0 -51.562,21.096 -51.562,43.492c-0,13.542 11.196,21.612 25.258,21.612" style="fill-rule:nonzero;"/></g><g><path d="M1429.92,658.908c-1.563,5.209 -13.8,10.417 -19.792,10.417c-1.562,0 -2.862,-0.521 -3.125,-1.3c-0.521,-1.042 -0.779,-6.771 -0.779,-13.021c-0,-8.075 0.258,-17.187 0.779,-19.271c0.521,-4.429 12.5,-9.896 19.013,-9.896c1.82,0 3.383,0.521 3.904,1.563c0.521,1.3 1.041,7.812 1.041,14.842c0,7.033 -0.52,14.325 -1.041,16.666m17.971,-42.446c1.82,-0.783 3.125,-2.866 3.125,-4.429l-0,-18.487c-0,-1.304 -0.784,-2.084 -1.825,-2.084c-0.521,0 -0.78,0 -1.3,0.259c-0,-0 -5.209,2.083 -6.513,2.346c-1.821,-0 -3.646,-1.305 -3.646,-3.388l0,-31.771c0,-1.562 -1.562,-2.862 -3.646,-2.862c-2.604,-0 -4.166,1.3 -4.166,2.862l-0,33.854c-0.259,2.605 -1.042,5.992 -3.384,7.555c-3.125,1.82 -11.979,5.466 -16.408,6.508c-2.342,-0 -3.125,-3.125 -3.125,-5.208l0,-31.25c0,-1.563 -1.821,-2.863 -3.646,-2.863c-2.604,0 -4.166,1.3 -4.166,2.863l-0,35.158c-0,3.646 -1.563,6.25 -3.125,7.029c-1.563,0.783 -6.771,2.867 -6.771,2.867c-1.821,0.521 -3.125,2.604 -3.125,4.166l-0,18.488c-0,1.562 0.783,2.346 2.083,2.346c1.042,-0 5.992,-2.346 6.771,-2.867c0.262,0 0.521,-0.258 0.783,-0.258c1.821,-0 3.384,2.604 3.384,4.687l-0,25.779c-0,2.867 -1.3,5.209 -2.863,5.992c-1.562,0.521 -7.033,2.863 -7.033,2.863c-1.821,0.52 -3.125,2.604 -3.125,4.166l-0,18.492c-0,1.562 0.783,2.342 2.083,2.342c0.263,-0 0.783,-0.259 1.042,-0.259c-0,0 3.646,-1.562 5.991,-2.346c0.259,-0.258 0.521,-0.258 0.78,-0.258c1.825,0 3.125,2.863 3.125,4.167l-0,32.029c-0,1.562 1.562,2.867 3.387,2.867c2.604,-0 4.425,-1.305 4.425,-2.867l0,-36.196c0,-3.387 1.304,-5.208 2.604,-5.729l15.888,-6.513c0.258,0 0.779,-0.258 1.041,-0.258c2.084,0 3.384,3.125 3.384,4.688l-0,32.55c-0,1.562 1.562,2.866 3.387,2.866c2.863,0 4.425,-1.304 4.425,-2.866l0,-36.98c0,-2.083 1.042,-5.208 2.867,-5.987c1.821,-0.783 7.292,-2.867 7.292,-2.867c1.82,-0.779 3.125,-2.862 3.125,-4.425l-0,-18.491c-0,-1.3 -0.784,-2.084 -1.825,-2.084c-0.521,0 -0.78,0 -1.3,0.263l-6.771,2.604c-1.563,-0 -3.388,-1.563 -3.388,-4.688l0,-24.22c0,-1.821 1.304,-6.771 3.388,-7.55l6.771,-2.605" style="fill-rule:nonzero;"/></g><g><path d="M1492.37,679.742c23.175,-0 51.562,-21.354 51.562,-43.488c0,-13.283 -10.416,-21.616 -25.262,-21.616c-28.646,-0 -51.563,21.095 -51.563,43.491c0,13.542 11.2,21.613 25.263,21.613" style="fill-rule:nonzero;"/></g><g><path d="M1740.28,615.158c23.175,0 51.563,-21.354 51.563,-43.487c-0,-13.284 -10.417,-21.617 -25.263,-21.617c-28.645,0 -51.562,21.096 -51.562,43.492c-0,13.542 11.2,21.612 25.262,21.612" style="fill-rule:nonzero;"/></g><g><path d="M1988.2,582.867c23.175,-0 51.563,-21.354 51.563,-43.488c-0,-13.283 -10.417,-21.616 -25.263,-21.616c-28.646,-0 -51.562,21.095 -51.562,43.491c-0,13.542 11.2,21.613 25.262,21.613" style="fill-rule:nonzero;"/></g><g><path d="M2114.68,539.117c0,-0 -0.779,-15.625 -0.779,-26.042c0,-4.167 0.259,-7.292 0.521,-8.333c1.821,-5.209 12.238,-12.759 18.229,-12.759c7.55,0 10.675,8.592 10.675,15.105c0,14.062 -11.979,28.125 -23.175,35.154c-1.041,0.521 -1.825,0.783 -2.604,0.783c-2.346,0 -2.867,-2.604 -2.867,-3.908m-9.112,23.179c0.779,1.042 1.562,1.3 2.342,1.3c0.783,-0 1.562,-0.521 1.562,-0.521c7.813,-4.425 14.063,-11.458 20.575,-15.883c23.175,-16.146 31.246,-32.034 31.246,-44.013c-0,-14.841 -11.458,-24.216 -23.433,-25c-4.43,0 -10.68,2.084 -14.325,4.429c-1.563,1.3 -4.425,3.646 -5.73,3.646c-0.52,0 -0.779,0 -1.3,-0.262c-1.825,-0.779 -2.866,-2.604 -2.866,-4.425c0.262,-5.729 1.825,-68.229 1.825,-73.438c-0,-2.866 -2.346,-4.429 -4.95,-4.429c-3.646,0 -7.813,2.604 -8.071,7.292c-0,-0 1.042,148.7 3.125,151.304" style="fill-rule:nonzero;"/></g><g><path d="M2202.65,550.575c23.179,0 51.563,-21.354 51.563,-43.488c-0,-13.283 -10.417,-21.616 -25.259,-21.616c-28.646,-0 -51.562,21.096 -51.562,43.492c-0,13.541 11.196,21.612 25.258,21.612" style="fill-rule:nonzero;"/></g><g><path d="M2329.07,506.825c-0,0 -0.779,-15.625 -0.779,-26.042c-0,-4.166 0.258,-7.291 0.521,-8.333c1.82,-5.208 12.237,-12.758 18.229,-12.758c7.55,-0 10.675,8.591 10.675,15.104c-0,14.062 -11.979,28.125 -23.175,35.154c-1.042,0.521 -1.825,0.783 -2.604,0.783c-2.346,0 -2.867,-2.604 -2.867,-3.908m-9.113,23.179c0.78,1.042 1.563,1.3 2.342,1.3c0.783,0 1.563,-0.521 1.563,-0.521c7.812,-4.425 14.062,-11.458 20.575,-15.883c23.175,-16.146 31.25,-32.033 31.25,-44.012c-0,-14.842 -11.459,-24.217 -23.438,-25c-4.429,-0 -10.679,2.083 -14.325,4.429c-1.562,1.3 -4.425,3.646 -5.729,3.646c-0.521,-0 -0.779,-0 -1.3,-0.263c-1.825,-0.779 -2.867,-2.604 -2.867,-4.425c0.263,-5.729 1.825,-68.229 1.825,-73.437c0,-2.867 -2.346,-4.43 -4.95,-4.43c-3.646,0 -7.812,2.605 -8.071,7.292c0,0 1.042,148.7 3.125,151.304" style="fill-rule:nonzero;"/></g><g><path d="M2417.03,518.283c23.179,0 51.563,-21.354 51.563,-43.487c-0,-13.283 -10.417,-21.617 -25.259,-21.617c-28.646,0 -51.562,21.096 -51.562,43.492c-0,13.542 11.196,21.612 25.258,21.612" style="fill-rule:nonzero;"/></g><g><path d="M2555.9,475.575c-0,-3.646 15.883,-10.417 22.133,-10.417c1.563,0 2.346,0.263 2.346,1.305l0,26.82c0,4.688 -14.846,10.68 -21.354,10.68c-1.825,-0 -3.125,-0.521 -3.125,-1.563l-0,-26.825m27.083,-36.979c-0.521,-0 -0.783,0.262 -1.041,0.262c-0,0 -16.667,5.988 -23.438,5.988c-1.562,-0 -2.604,-0.259 -2.604,-1.3l-0,-43.492c-0,-1.821 -1.563,-3.125 -3.125,-3.125l-3.388,0c-1.82,0 -3.125,1.304 -3.125,3.125l0,134.117c0,1.562 0.784,2.341 2.084,2.341c0.262,0 1.562,-0.258 1.825,-0.52c3.646,-1.563 18.229,-7.813 25.779,-7.813c2.604,0 4.429,0.784 4.429,2.867l0,38.8c0,1.825 1.3,3.125 3.125,3.125l3.383,-0c1.563,-0 3.125,-1.3 3.125,-3.125l0,-130.729c0,-1.3 -1.041,-2.084 -2.083,-2.084c-0.258,0 -0.779,0 -1.042,0.263l-3.904,1.3" style="fill-rule:nonzero;"/></g><g><path d="M2631.42,518.283c23.175,0 51.562,-21.354 51.562,-43.487c0,-13.283 -10.416,-21.617 -25.262,-21.617c-28.646,0 -51.563,21.096 -51.563,43.492c0,13.542 11.2,21.612 25.263,21.612" style="fill-rule:nonzero;"/></g><g><path d="M2783.24,465.158c-1.563,5.209 -13.8,10.417 -19.792,10.417c-1.563,0 -2.863,-0.521 -3.125,-1.3c-0.521,-1.042 -0.779,-6.771 -0.779,-13.021c-0,-8.075 0.258,-17.187 0.779,-19.271c0.521,-4.429 12.5,-9.895 19.012,-9.895c1.821,-0 3.384,0.52 3.905,1.562c0.52,1.3 1.041,7.813 1.041,14.842c0,7.033 -0.521,14.325 -1.041,16.666m17.97,-42.445c1.821,-0.784 3.125,-2.867 3.125,-4.43l0,-18.487c0,-1.304 -0.783,-2.083 -1.825,-2.083c-0.52,-0 -0.779,-0 -1.3,0.258c0,-0 -5.208,2.083 -6.512,2.346c-1.821,-0 -3.646,-1.304 -3.646,-3.388l0,-31.771c0,-1.562 -1.562,-2.862 -3.646,-2.862c-2.604,-0 -4.166,1.3 -4.166,2.862l-0,33.855c-0.259,2.604 -1.042,5.991 -3.384,7.554c-3.125,1.821 -11.979,5.466 -16.408,6.508c-2.342,0 -3.125,-3.125 -3.125,-5.208l-0,-31.25c-0,-1.563 -1.821,-2.863 -3.646,-2.863c-2.604,0 -4.167,1.3 -4.167,2.863l0,35.158c0,3.646 -1.562,6.25 -3.125,7.029c-1.562,0.784 -6.77,2.867 -6.77,2.867c-1.821,0.521 -3.125,2.604 -3.125,4.167l-0,18.487c-0,1.563 0.783,2.346 2.083,2.346c1.042,-0 5.992,-2.346 6.771,-2.867c0.262,0 0.521,-0.258 0.783,-0.258c1.821,-0 3.383,2.604 3.383,4.687l0,25.78c0,2.866 -1.3,5.208 -2.862,5.991c-1.563,0.521 -7.033,2.863 -7.033,2.863c-1.821,0.521 -3.125,2.604 -3.125,4.166l-0,18.492c-0,1.563 0.783,2.342 2.083,2.342c0.262,-0 0.783,-0.259 1.042,-0.259c-0,0 3.645,-1.562 5.991,-2.345c0.259,-0.259 0.521,-0.259 0.779,-0.259c1.825,0 3.125,2.863 3.125,4.167l0,32.029c0,1.563 1.563,2.867 3.388,2.867c2.604,-0 4.425,-1.304 4.425,-2.867l-0,-36.196c-0,-3.387 1.304,-5.208 2.604,-5.729l15.888,-6.512c0.258,-0 0.779,-0.259 1.041,-0.259c2.084,0 3.384,3.125 3.384,4.688l-0,32.55c-0,1.562 1.562,2.866 3.387,2.866c2.863,0 4.425,-1.304 4.425,-2.866l0,-36.979c0,-2.084 1.042,-5.209 2.867,-5.988c1.821,-0.783 7.291,-2.867 7.291,-2.867c1.821,-0.779 3.125,-2.862 3.125,-4.425l0,-18.491c0,-1.3 -0.783,-2.084 -1.825,-2.084c-0.52,0 -0.779,0 -1.3,0.263l-6.77,2.604c-1.563,0 -3.388,-1.562 -3.388,-4.687l0,-24.221c0,-1.821 1.304,-6.771 3.388,-7.55l6.77,-2.604" style="fill-rule:nonzero;"/></g><g><path d="M2845.68,485.992c23.18,-0 51.563,-21.354 51.563,-43.488c-0,-13.283 -10.417,-21.616 -25.258,-21.616c-28.646,-0 -51.563,21.095 -51.563,43.491c0,13.542 11.196,21.613 25.258,21.613" style="fill-rule:nonzero;"/></g><g><path d="M3030.95,432.867c-1.563,5.208 -13.804,10.416 -19.792,10.416c-1.562,0 -2.866,-0.52 -3.125,-1.3c-0.521,-1.041 -0.783,-6.77 -0.783,-13.02c-0,-8.075 0.262,-17.188 0.783,-19.271c0.521,-4.429 12.5,-9.896 19.009,-9.896c1.825,-0 3.387,0.521 3.908,1.562c0.521,1.3 1.042,7.813 1.042,14.842c-0,7.033 -0.521,14.325 -1.042,16.667m17.967,-42.446c1.825,-0.783 3.125,-2.867 3.125,-4.429l-0,-18.488c-0,-1.304 -0.78,-2.083 -1.821,-2.083c-0.521,-0 -0.784,-0 -1.304,0.258c-0,0 -5.209,2.084 -6.509,2.346c-1.825,0 -3.646,-1.304 -3.646,-3.387l0,-31.771c0,-1.563 -1.562,-2.863 -3.645,-2.863c-2.605,0 -4.167,1.3 -4.167,2.863l-0,33.854c-0.263,2.604 -1.042,5.992 -3.388,7.554c-3.125,1.821 -11.979,5.467 -16.404,6.508c-2.346,0 -3.125,-3.125 -3.125,-5.208l0,-31.25c0,-1.562 -1.825,-2.862 -3.646,-2.862c-2.604,-0 -4.166,1.3 -4.166,2.862l-0,35.158c-0,3.646 -1.563,6.25 -3.125,7.03c-1.563,0.783 -6.771,2.866 -6.771,2.866c-1.825,0.521 -3.125,2.604 -3.125,4.167l-0,18.487c-0,1.563 0.779,2.346 2.083,2.346c1.042,0 5.988,-2.346 6.771,-2.866c0.258,-0 0.521,-0.259 0.779,-0.259c1.825,0 3.388,2.604 3.388,4.688l-0,25.779c-0,2.867 -1.304,5.208 -2.867,5.992c-1.562,0.52 -7.029,2.862 -7.029,2.862c-1.825,0.521 -3.125,2.604 -3.125,4.167l-0,18.491c-0,1.563 0.779,2.342 2.083,2.342c0.259,0 0.779,-0.258 1.042,-0.258c-0,-0 3.646,-1.563 5.987,-2.346c0.263,-0.258 0.521,-0.258 0.784,-0.258c1.821,-0 3.125,2.862 3.125,4.166l-0,32.029c-0,1.563 1.562,2.867 3.383,2.867c2.604,0 4.429,-1.304 4.429,-2.867l0,-36.195c0,-3.388 1.3,-5.209 2.604,-5.73l15.884,-6.512c0.262,-0 0.783,-0.258 1.041,-0.258c2.084,-0 3.388,3.125 3.388,4.687l-0,32.55c-0,1.563 1.562,2.867 3.383,2.867c2.867,-0 4.429,-1.304 4.429,-2.867l0,-36.979c0,-2.083 1.042,-5.208 2.863,-5.988c1.825,-0.783 7.292,-2.866 7.292,-2.866c1.825,-0.779 3.125,-2.863 3.125,-4.425l-0,-18.492c-0,-1.3 -0.78,-2.083 -1.821,-2.083c-0.521,-0 -0.784,-0 -1.304,0.262l-6.771,2.604c-1.563,0 -3.384,-1.562 -3.384,-4.687l0,-24.221c0,-1.821 1.3,-6.771 3.384,-7.55l6.771,-2.604" style="fill-rule:nonzero;"/></g><g><path d="M3093.41,453.7c23.175,0 51.563,-21.354 51.563,-43.487c-0,-13.284 -10.417,-21.617 -25.263,-21.617c-28.645,-0 -51.562,21.096 -51.562,43.492c-0,13.541 11.2,21.612 25.262,21.612" style="fill-rule:nonzero;"/></g><g><path d="M3341.33,389.117c23.175,-0 51.563,-21.354 51.563,-43.488c-0,-13.283 -10.417,-21.617 -25.263,-21.617c-28.646,0 -51.562,21.096 -51.562,43.492c-0,13.542 11.2,21.613 25.262,21.613" style="fill-rule:nonzero;"/></g><g><path d="M3696.57,356.825c23.175,0 51.562,-21.354 51.562,-43.487c0,-13.284 -10.416,-21.617 -25.262,-21.617c-28.646,-0 -51.563,21.096 -51.563,43.492c0,13.541 11.2,21.612 25.263,21.612" style="fill-rule:nonzero;"/></g><g><path d="M3822.98,313.075c0,0 -0.779,-15.625 -0.779,-26.042c0,-4.166 0.259,-7.291 0.521,-8.333c1.821,-5.208 12.238,-12.758 18.229,-12.758c7.55,-0 10.675,8.591 10.675,15.104c0,14.062 -11.979,28.125 -23.175,35.154c-1.041,0.521 -1.825,0.783 -2.604,0.783c-2.346,0 -2.867,-2.604 -2.867,-3.908m-9.112,23.179c0.779,1.042 1.562,1.3 2.342,1.3c0.783,0 1.562,-0.521 1.562,-0.521c7.813,-4.425 14.063,-11.458 20.575,-15.883c23.175,-16.146 31.25,-32.033 31.25,-44.012c0,-14.842 -11.458,-24.217 -23.437,-25c-4.43,-0 -10.68,2.083 -14.325,4.429c-1.563,1.3 -4.425,3.646 -5.73,3.646c-0.52,-0 -0.779,-0 -1.3,-0.263c-1.825,-0.779 -2.866,-2.604 -2.866,-4.425c0.262,-5.729 1.825,-68.229 1.825,-73.438c-0,-2.866 -2.346,-4.429 -4.95,-4.429c-3.646,0 -7.813,2.604 -8.071,7.292c-0,-0 1.042,148.7 3.125,151.304" style="fill-rule:nonzero;"/></g><g><path d="M3910.94,324.533c23.175,0 51.562,-21.354 51.562,-43.487c0,-13.283 -10.416,-21.617 -25.262,-21.617c-28.646,0 -51.563,21.096 -51.563,43.492c0,13.542 11.2,21.612 25.263,21.612" style="fill-rule:nonzero;"/></g><g><path d="M4037.44,280.783c-0,0 -0.779,-15.625 -0.779,-26.041c-0,-4.167 0.258,-7.292 0.52,-8.334c1.821,-5.208 12.238,-12.758 18.23,-12.758c7.55,0 10.675,8.592 10.675,15.104c-0,14.063 -11.98,28.125 -23.175,35.154c-1.042,0.521 -1.825,0.784 -2.605,0.784c-2.345,-0 -2.866,-2.604 -2.866,-3.909m-9.113,23.18c0.779,1.041 1.563,1.3 2.342,1.3c0.783,-0 1.562,-0.521 1.562,-0.521c7.813,-4.425 14.063,-11.459 20.575,-15.884c23.175,-16.145 31.25,-32.033 31.25,-44.012c0,-14.842 -11.458,-24.217 -23.437,-25c-4.429,-0 -10.679,2.083 -14.325,4.429c-1.563,1.3 -4.425,3.646 -5.729,3.646c-0.521,-0 -0.779,-0 -1.3,-0.263c-1.825,-0.779 -2.867,-2.604 -2.867,-4.425c0.263,-5.729 1.825,-68.229 1.825,-73.437c0,-2.867 -2.346,-4.429 -4.95,-4.429c-3.646,-0 -7.812,2.604 -8.071,7.291c0,0 1.042,148.7 3.125,151.305" style="fill-rule:nonzero;"/></g><g><path d="M4125.4,292.242c23.175,-0 51.563,-21.354 51.563,-43.488c-0,-13.283 -10.417,-21.617 -25.263,-21.617c-28.646,0 -51.562,21.096 -51.562,43.492c-0,13.542 11.2,21.613 25.262,21.613" style="fill-rule:nonzero;"/></g><g><path d="M4264.36,249.533c0,-3.645 15.888,-10.416 22.138,-10.416c1.562,-0 2.342,0.262 2.342,1.304l-0,26.821c-0,4.687 -14.842,10.679 -21.355,10.679c-1.82,-0 -3.125,-0.521 -3.125,-1.563l0,-26.825m27.084,-36.979c-0.521,0 -0.779,0.263 -1.042,0.263c0,-0 -16.667,5.987 -23.437,5.987c-1.563,0 -2.605,-0.258 -2.605,-1.3l0,-43.492c0,-1.82 -1.562,-3.125 -3.125,-3.125l-3.383,0c-1.825,0 -3.125,1.305 -3.125,3.125l0,134.117c0,1.563 0.779,2.342 2.083,2.342c0.259,-0 1.563,-0.258 1.821,-0.521c3.646,-1.562 18.229,-7.812 25.784,-7.812c2.604,-0 4.425,0.783 4.425,2.866l-0,38.8c-0,1.825 1.304,3.125 3.125,3.125l3.387,0c1.563,0 3.125,-1.3 3.125,-3.125l0,-130.729c0,-1.3 -1.042,-2.083 -2.083,-2.083c-0.263,-0 -0.784,-0 -1.042,0.262l-3.908,1.3" style="fill-rule:nonzero;"/></g><g><path d="M4339.86,292.242c23.18,-0 51.563,-21.354 51.563,-43.488c-0,-13.283 -10.417,-21.617 -25.258,-21.617c-28.646,0 -51.563,21.096 -51.563,43.492c0,13.542 11.196,21.613 25.258,21.613" style="fill-rule:nonzero;"/></g><g><path d="M4491.73,239.117c-1.562,5.208 -13.8,10.416 -19.791,10.416c-1.563,0 -2.863,-0.52 -3.125,-1.3c-0.521,-1.041 -0.779,-6.77 -0.779,-13.02c-0,-8.076 0.258,-17.188 0.779,-19.271c0.521,-4.43 12.5,-9.896 19.012,-9.896c1.821,-0 3.384,0.521 3.904,1.562c0.521,1.3 1.042,7.813 1.042,14.842c0,7.033 -0.521,14.325 -1.042,16.667m17.971,-42.446c1.821,-0.784 3.125,-2.867 3.125,-4.429l0,-18.488c0,-1.304 -0.783,-2.083 -1.825,-2.083c-0.521,-0 -0.779,-0 -1.3,0.258c0,0 -5.208,2.083 -6.512,2.346c-1.821,0 -3.646,-1.304 -3.646,-3.388l-0,-31.77c-0,-1.563 -1.563,-2.863 -3.646,-2.863c-2.604,0 -4.167,1.3 -4.167,2.863l0,33.854c-0.258,2.604 -1.041,5.992 -3.383,7.554c-3.125,1.821 -11.979,5.467 -16.408,6.508c-2.342,0 -3.125,-3.125 -3.125,-5.208l-0,-31.25c-0,-1.563 -1.821,-2.862 -3.646,-2.862c-2.604,-0 -4.167,1.299 -4.167,2.862l0,35.158c0,3.646 -1.562,6.25 -3.125,7.029c-1.562,0.784 -6.771,2.867 -6.771,2.867c-1.82,0.521 -3.125,2.604 -3.125,4.167l0,18.487c0,1.563 0.784,2.346 2.084,2.346c1.041,0 5.991,-2.346 6.771,-2.867c0.262,0 0.52,-0.258 0.783,-0.258c1.821,0 3.383,2.604 3.383,4.688l0,25.779c0,2.867 -1.3,5.208 -2.862,5.992c-1.563,0.52 -7.034,2.862 -7.034,2.862c-1.82,0.521 -3.125,2.604 -3.125,4.167l0,18.491c0,1.563 0.784,2.342 2.084,2.342c0.262,0 0.783,-0.258 1.041,-0.258c0,-0 3.646,-1.563 5.992,-2.346c0.258,-0.258 0.521,-0.258 0.779,-0.258c1.825,-0 3.125,2.862 3.125,4.166l0,32.029c0,1.563 1.563,2.867 3.388,2.867c2.604,0 4.425,-1.304 4.425,-2.867l-0,-36.195c-0,-3.388 1.304,-5.209 2.604,-5.73l15.887,-6.512c0.259,-0 0.78,-0.258 1.042,-0.258c2.083,-0 3.383,3.125 3.383,4.687l0,32.55c0,1.563 1.563,2.867 3.388,2.867c2.862,-0 4.425,-1.304 4.425,-2.867l-0,-36.979c-0,-2.083 1.042,-5.208 2.867,-5.988c1.82,-0.783 7.291,-2.866 7.291,-2.866c1.821,-0.779 3.125,-2.863 3.125,-4.425l0,-18.492c0,-1.3 -0.783,-2.083 -1.825,-2.083c-0.521,-0 -0.779,-0 -1.3,0.262l-6.771,2.604c-1.562,0 -3.387,-1.562 -3.387,-4.687l-0,-24.221c-0,-1.821 1.304,-6.771 3.387,-7.55l6.771,-2.604" style="fill-rule:nonzero;"/></g><g><path d="M4554.19,259.95c23.175,0 51.562,-21.354 51.562,-43.487c0,-13.284 -10.416,-21.617 -25.262,-21.617c-28.646,-0 -51.563,21.096 -51.563,43.492c0,13.541 11.2,21.612 25.263,21.612" style="fill-rule:nonzero;"/></g><g><path d="M4739.53,206.825c-1.562,5.208 -13.8,10.417 -19.792,10.417c-1.562,-0 -2.862,-0.521 -3.125,-1.3c-0.52,-1.042 -0.779,-6.771 -0.779,-13.021c0,-8.075 0.259,-17.188 0.779,-19.271c0.521,-4.429 12.5,-9.896 19.013,-9.896c1.821,0 3.383,0.521 3.904,1.563c0.521,1.3 1.042,7.812 1.042,14.841c-0,7.034 -0.521,14.325 -1.042,16.667m17.971,-42.446c1.821,-0.783 3.125,-2.866 3.125,-4.429l-0,-18.487c-0,-1.305 -0.783,-2.084 -1.825,-2.084c-0.521,0 -0.779,0 -1.3,0.259c-0,-0 -5.208,2.083 -6.513,2.345c-1.82,0 -3.645,-1.304 -3.645,-3.387l-0,-31.771c-0,-1.562 -1.563,-2.862 -3.646,-2.862c-2.604,-0 -4.167,1.3 -4.167,2.862l0,33.854c-0.258,2.604 -1.042,5.992 -3.383,7.554c-3.125,1.821 -11.979,5.467 -16.409,6.509c-2.341,-0 -3.125,-3.125 -3.125,-5.209l0,-31.25c0,-1.562 -1.82,-2.862 -3.645,-2.862c-2.605,-0 -4.167,1.3 -4.167,2.862l-0,35.159c-0,3.646 -1.563,6.25 -3.125,7.029c-1.563,0.783 -6.771,2.867 -6.771,2.867c-1.821,0.52 -3.125,2.604 -3.125,4.166l0,18.488c0,1.562 0.783,2.346 2.083,2.346c1.042,-0 5.992,-2.346 6.771,-2.867c0.263,-0 0.521,-0.258 0.784,-0.258c1.82,-0 3.383,2.604 3.383,4.687l-0,25.779c-0,2.867 -1.3,5.209 -2.863,5.992c-1.562,0.521 -7.033,2.862 -7.033,2.862c-1.821,0.521 -3.125,2.605 -3.125,4.167l0,18.492c0,1.562 0.783,2.341 2.083,2.341c0.263,0 0.784,-0.258 1.042,-0.258c0,0 3.646,-1.562 5.992,-2.346c0.258,-0.258 0.521,-0.258 0.779,-0.258c1.825,-0 3.125,2.862 3.125,4.167l-0,32.029c-0,1.562 1.562,2.866 3.387,2.866c2.605,0 4.425,-1.304 4.425,-2.866l0,-36.196c0,-3.388 1.305,-5.208 2.605,-5.729l15.887,-6.513c0.258,0 0.779,-0.258 1.042,-0.258c2.083,-0 3.383,3.125 3.383,4.687l0,32.55c0,1.563 1.563,2.867 3.388,2.867c2.862,0 4.425,-1.304 4.425,-2.867l-0,-36.979c-0,-2.083 1.041,-5.208 2.866,-5.987c1.821,-0.784 7.292,-2.867 7.292,-2.867c1.821,-0.779 3.125,-2.862 3.125,-4.425l-0,-18.492c-0,-1.3 -0.783,-2.083 -1.825,-2.083c-0.521,0 -0.779,0 -1.3,0.263l-6.771,2.604c-1.562,-0 -3.387,-1.563 -3.387,-4.688l-0,-24.221c-0,-1.82 1.304,-6.77 3.387,-7.55l6.771,-2.604" style="fill-rule:nonzero;"/></g><g><path d="M4801.98,227.658c23.175,0 51.563,-21.354 51.563,-43.487c-0,-13.284 -10.417,-21.617 -25.263,-21.617c-28.645,0 -51.562,21.096 -51.562,43.492c-0,13.541 11.2,21.612 25.262,21.612" style="fill-rule:nonzero;"/></g><g><path d="M5049.9,163.075c23.175,-0 51.563,-21.354 51.563,-43.487c-0,-13.284 -10.417,-21.617 -25.263,-21.617c-28.646,-0 -51.562,21.096 -51.562,43.492c-0,13.541 11.2,21.612 25.262,21.612" style="fill-rule:nonzero;"/></g><g><path d="M5297.82,163.075c23.179,-0 51.562,-21.354 51.562,-43.487c0,-13.284 -10.416,-21.617 -25.258,-21.617c-28.646,-0 -51.563,21.096 -51.563,43.492c0,13.541 11.196,21.612 25.259,21.612" style="fill-rule:nonzero;"/></g><g><path d="M5512.23,195.367c23.18,-0 51.563,-21.355 51.563,-43.488c-0,-13.283 -10.417,-21.617 -25.258,-21.617c-28.646,0 -51.563,21.096 -51.563,43.492c0,13.542 11.196,21.613 25.258,21.613" style="fill-rule:nonzero;"/></g><g><path d="M5651.19,184.95c-0,-3.646 15.883,-10.417 22.133,-10.417c1.563,0 2.346,0.263 2.346,1.305l-0,26.82c-0,4.688 -14.846,10.68 -21.354,10.68c-1.825,-0 -3.125,-0.521 -3.125,-1.563l-0,-26.825m27.083,-36.979c-0.521,-0 -0.783,0.262 -1.042,0.262c0,0 -16.666,5.988 -23.437,5.988c-1.563,-0 -2.604,-0.259 -2.604,-1.3l-0,-43.492c-0,-1.821 -1.563,-3.125 -3.125,-3.125l-3.388,0c-1.821,0 -3.125,1.304 -3.125,3.125l0,134.117c0,1.562 0.784,2.341 2.084,2.341c0.262,0 1.562,-0.258 1.825,-0.52c3.645,-1.563 18.229,-7.813 25.779,-7.813c2.604,0 4.429,0.783 4.429,2.867l-0,38.8c-0,1.825 1.3,3.125 3.125,3.125l3.383,-0c1.563,-0 3.125,-1.3 3.125,-3.125l0,-130.729c0,-1.3 -1.041,-2.084 -2.083,-2.084c-0.258,0 -0.779,0 -1.042,0.263l-3.904,1.3" style="fill-rule:nonzero;"/></g><g><path d="M5726.69,227.658c23.175,0 51.562,-21.354 51.562,-43.487c0,-13.284 -10.416,-21.617 -25.262,-21.617c-28.646,0 -51.563,21.096 -51.563,43.492c0,13.541 11.2,21.612 25.263,21.612" style="fill-rule:nonzero;"/></g><g><path d="M5941.11,259.95c23.18,0 51.563,-21.354 51.563,-43.487c-0,-13.284 -10.417,-21.617 -25.258,-21.617c-28.646,-0 -51.563,21.096 -51.563,43.492c0,13.541 11.196,21.612 25.258,21.612" style="fill-rule:nonzero;"/></g><g><path d="M6155.57,292.242c23.175,-0 51.562,-21.354 51.562,-43.488c0,-13.283 -10.416,-21.617 -25.262,-21.617c-28.646,0 -51.563,21.096 -51.563,43.492c0,13.542 11.2,21.613 25.263,21.613" style="fill-rule:nonzero;"/></g><g><path d="M6327.94,281.825c-0,-3.646 15.883,-10.417 22.133,-10.417c1.563,0 2.346,0.263 2.346,1.305l-0,26.82c-0,4.688 -14.846,10.68 -21.354,10.68c-1.825,-0 -3.125,-0.521 -3.125,-1.563l-0,-26.825m27.083,-36.979c-0.521,-0 -0.783,0.262 -1.042,0.262c0,0 -16.666,5.988 -23.437,5.988c-1.563,-0 -2.604,-0.259 -2.604,-1.3l-0,-43.492c-0,-1.821 -1.563,-3.125 -3.125,-3.125l-3.388,0c-1.821,0 -3.125,1.304 -3.125,3.125l0,134.117c0,1.562 0.784,2.341 2.084,2.341c0.262,0 1.562,-0.258 1.825,-0.52c3.645,-1.563 18.229,-7.813 25.779,-7.813c2.604,0 4.429,0.783 4.429,2.867l-0,38.8c-0,1.825 1.3,3.125 3.125,3.125l3.383,-0c1.563,-0 3.125,-1.3 3.125,-3.125l0,-130.729c0,-1.3 -1.041,-2.084 -2.083,-2.084c-0.258,0 -0.779,0 -1.042,0.263l-3.904,1.3" style="fill-rule:nonzero;"/></g><g><path d="M6403.44,324.533c23.179,0 51.562,-21.354 51.562,-43.487c0,-13.283 -10.416,-21.617 -25.258,-21.617c-28.646,0 -51.563,21.096 -51.563,43.492c0,13.542 11.196,21.612 25.259,21.612" style="fill-rule:nonzero;"/></g><g><path d="M6651.36,356.825c23.18,0 51.563,-21.354 51.563,-43.487c-0,-13.284 -10.417,-21.617 -25.258,-21.617c-28.646,-0 -51.563,21.096 -51.563,43.492c0,13.541 11.196,21.612 25.258,21.612" style="fill-rule:nonzero;"/></g><g><path d="M135.664,482.088c0.779,4.945 0.779,4.687 -3.909,6.25c-22.916,7.812 -37.758,28.383 -37.758,50.52c-0,23.438 12.237,40.105 29.946,46.092c2.083,0.783 5.208,1.563 7.033,1.563c2.083,-0 3.125,-1.3 3.125,-2.863c0,-1.825 -2.083,-2.604 -3.908,-3.387c-10.938,-4.688 -18.75,-15.884 -18.75,-27.863c-0,-14.846 10.158,-26.042 26.041,-30.471c4.167,-1.042 4.688,-0.779 5.209,2.083l13.021,77.605c0.52,2.866 0.262,2.866 -3.646,3.645c-4.167,0.784 -9.375,1.305 -14.584,1.305c-45.57,-0 -75,-25.263 -75,-61.459c0,-15.366 2.605,-35.937 24.221,-60.416c15.625,-17.45 27.604,-27.084 39.842,-36.979c2.604,-2.084 3.125,-1.825 3.646,1.041l5.471,33.334m28.383,-177.346c8.596,-0 15.625,7.033 15.625,21.354c-0,28.908 -24.738,52.346 -45.313,70.312c-1.82,1.563 -2.862,1.305 -3.383,-2.083c-1.042,-6.771 -1.562,-15.625 -1.562,-23.958c-0,-40.625 18.75,-65.625 34.633,-65.625m-10.417,218.75c-0.521,-3.125 -0.258,-3.904 2.867,-3.646c21.092,1.825 38.542,19.533 38.542,42.45c-0,16.404 -9.896,29.687 -24.48,36.979c-3.125,1.563 -3.645,1.563 -4.166,-1.563l-12.763,-74.22m-14.062,-81.25c-0.521,-3.125 -0,-3.384 1.562,-4.946c28.125,-26.304 49.479,-59.375 49.479,-99.221c0,-22.654 -6.25,-45.05 -16.925,-60.675c-3.908,-5.729 -10.679,-13.021 -13.541,-13.021c-3.646,0 -11.721,6.771 -16.929,12.5c-19.271,21.354 -25.521,53.904 -25.521,80.988c-0,15.104 1.825,32.033 3.646,42.708c0.52,3.125 0.783,3.646 -2.342,6.25c-37.5,30.992 -77.346,68.229 -77.346,120.833c0,45.313 30.992,88.284 94.792,88.284c5.991,-0 12.762,-0.521 17.971,-1.563c2.862,-0.521 3.383,-0.783 3.904,2.342c3.125,17.45 7.033,40.104 7.033,52.346c0,38.541 -26.042,43.229 -41.408,43.229c-14.063,-0 -20.834,-4.167 -20.834,-7.554c0,-1.821 2.346,-2.605 8.334,-4.425c8.075,-2.346 17.45,-9.375 17.45,-24.48c-0,-14.325 -9.117,-26.562 -25,-26.562c-17.45,0 -27.867,13.8 -27.867,29.946c0,16.929 10.158,42.45 49.479,42.45c17.45,-0 51.304,-7.813 51.304,-52.084c0,-14.845 -4.687,-39.583 -7.554,-55.729c-0.521,-3.125 -0.258,-2.866 3.388,-4.429c26.3,-10.417 43.75,-32.55 43.75,-61.979c-0,-33.333 -24.479,-62.758 -62.763,-62.758c-6.771,-0 -6.771,-0 -7.55,-4.688l-6.512,-37.762" style="fill-rule:nonzero;"/></g><g><text x="1467.07px" y="824.429px" style="font-family:'Bravura';font-size:260.417px;"></text></g><g><text x="3029.73px" y="766.371px" style="font-family:'Bravura';font-size:260.417px;"></text></g><g><text x="4738.28px" y="728.7px" style="font-family:'Bravura';font-size:260.417px;"></text></g><g><text x="6339.69px" y="728.7px" style="font-family:'Bravura';font-size:260.417px;"></text></g><g><path d="M430.718,518.013l-0,-32.305l651.037,-16.145l0,32.304l-651.037,16.145" style="fill-rule:nonzero;"/></g><g><path d="M430.718,566.463l-0,-32.305l651.037,-16.145l0,32.304l-651.037,16.146" style="fill-rule:nonzero;"/></g><g><path d="M1288.4,453.442l-0,-32.721l503.387,-80.729l0,32.721l-503.387,80.729" style="fill-rule:nonzero;"/></g><g><path d="M1962.88,760.317l0,-32.334l651.042,-32.291l-0,32.333l-651.042,32.292" style="fill-rule:nonzero;"/></g><g><path d="M1962.88,711.813l0,-32.33l651.042,-32.291l-0,32.329l-651.042,32.292" style="fill-rule:nonzero;"/></g><g><path d="M2820.43,679.754l0,-32.562l503.388,-64.584l-0,32.563l-503.388,64.583" style="fill-rule:nonzero;"/></g><g><path d="M3671.32,566.867l-0,-32.45l651.041,-64.584l0,32.45l-651.041,64.584" style="fill-rule:nonzero;"/></g><g><path d="M3671.32,518.179l-0,-32.446l651.041,-64.583l0,32.446l-651.041,64.583" style="fill-rule:nonzero;"/></g><g><path d="M4528.9,501.892l0,-32.304l503.517,-16.146l-0,32.304l-503.517,16.146" style="fill-rule:nonzero;"/></g><g><path d="M5272.53,485.758l0,-32.304l651.171,16.146l-0,32.304l-651.171,-16.146" style="fill-rule:nonzero;"/></g><g><path d="M5272.53,437.308l0,-32.304l651.171,16.146l-0,32.304l-651.171,-16.146" style="fill-rule:nonzero;"/></g><g><path d="M6130.32,502.15l-0,-32.563l503.512,64.584l0,32.562l-503.512,-64.583" style="fill-rule:nonzero;"/></g><g><path d="M1198.03,776.617l236.717,-0l0,-10.338l-226.433,0l-0,-38.1l-10.284,0" style="fill-rule:nonzero;"/></g><g><path d="M1796.99,776.617l-220.575,-0l-0,-10.338l210.287,0l0,-38.1l10.288,0" style="fill-rule:nonzero;"/></g><g><path d="M9.364,1260.73l3075.39,0" style="fill:none;stroke:#000;stroke-width:8.38px;"/><path d="M9.364,1325.32l3075.39,-0" style="fill:none;stroke:#000;stroke-width:8.38px;"/><path d="M9.364,1389.9l3075.39,0" style="fill:none;stroke:#000;stroke-width:8.38px;"/><path d="M9.364,1454.48l3075.39,0" style="fill:none;stroke:#000;stroke-width:8.38px;"/><path d="M9.364,1519.07l3075.39,-0" style="fill:none;stroke:#000;stroke-width:8.38px;"/></g><g><path d="M2419.26,1256.54l0,266.721" style="fill:none;stroke:#000;stroke-width:10.33px;"/><path d="M3043.34,1256.54l-0,266.721" style="fill:none;stroke:#000;stroke-width:10.33px;"/><path d="M3079.54,1256.54l-0,266.721" style="fill:none;stroke:#000;stroke-width:10.33px;"/></g><g><path d="M365.48,1271.58l0,232.2" style="fill:none;stroke:#000;stroke-width:7.75px;"/><path d="M494.647,1303.87l-0,218.867" style="fill:none;stroke:#000;stroke-width:7.75px;"/><path d="M623.947,1336.16l-0,205.52" style="fill:none;stroke:#000;stroke-width:7.75px;"/><path d="M805.847,1368.45l-0,199.909" style="fill:none;stroke:#000;stroke-width:7.75px;"/><path d="M1004.15,1195.73l0,183.321" style="fill:none;stroke:#000;stroke-width:7.75px;"/><path d="M1153.37,1219.95l-0,191.396" style="fill:none;stroke:#000;stroke-width:7.75px;"/><path d="M1302.72,1244.17l-0,199.467" style="fill:none;stroke:#000;stroke-width:7.75px;"/><path d="M1452.07,1259.39l-0,216.537" style="fill:none;stroke:#000;stroke-width:7.75px;"/><path d="M1581.23,1283.06l0,225.158" style="fill:none;stroke:#000;stroke-width:7.75px;"/><path d="M1710.53,1306.75l0,233.766" style="fill:none;stroke:#000;stroke-width:7.75px;"/><path d="M1892.56,1340.12l-0,232.683" style="fill:none;stroke:#000;stroke-width:7.75px;"/></g><g><path d="M1808.84,1583.65l113.412,0" style="fill:none;stroke:#000;stroke-width:10.33px;"/></g><g><path d="M2037.36,1389.85l0,215.25" style="fill:none;stroke:#000;stroke-width:7.75px;"/></g><g><path d="M1938.53,1583.65l128.517,0" style="fill:none;stroke:#000;stroke-width:10.33px;"/></g><g><path d="M2186.7,1397.92l0,239.467" style="fill:none;stroke:#000;stroke-width:7.75px;"/></g><g><path d="M2087.88,1648.23l128.517,0" style="fill:none;stroke:#000;stroke-width:10.33px;"/><path d="M2087.88,1583.65l128.517,0" style="fill:none;stroke:#000;stroke-width:10.33px;"/></g><g><path d="M2335.92,1405.99l-0,263.687" style="fill:none;stroke:#000;stroke-width:7.75px;"/></g><g><path d="M2237.23,1648.23l128.513,0" style="fill:none;stroke:#000;stroke-width:10.33px;"/><path d="M2237.23,1583.65l128.513,0" style="fill:none;stroke:#000;stroke-width:10.33px;"/><path d="M2495.69,1648.23l161.458,0" style="fill:none;stroke:#000;stroke-width:10.33px;"/><path d="M2495.69,1583.65l161.458,0" style="fill:none;stroke:#000;stroke-width:10.33px;"/></g><g><path d="M413.889,1172.66l-0,-27.862c-0,-1.304 -0.259,-2.346 -1.563,-2.346c-1.042,0 -1.821,0.263 -2.604,1.304l-7.813,15.104c-0.52,0.521 -1.3,1.3 -1.3,3.125l0,10.675l-16.929,0c10.679,-8.854 27.346,-38.279 27.604,-39.841c0,-0.263 0.263,-0.521 0.263,-0.784c-0,-1.041 -1.042,-1.821 -1.825,-1.821c-1.3,0 -6.771,0.521 -9.113,0.521c-2.345,0 -3.908,-0.521 -4.95,-0.521c-1.3,0 -3.125,0.521 -3.125,2.605c0,16.666 -13.541,35.675 -16.925,40.362c-0.52,0.521 -1.041,1.304 -1.041,2.083c-0,1.305 1.041,2.605 2.604,2.605l23.437,-0l0,8.075c0,3.645 -2.083,4.687 -4.166,4.687c-2.346,0 -3.388,1.042 -3.388,2.342c0,1.304 0.521,2.866 2.867,2.866l22.396,0c1.3,0 2.604,-1.041 2.604,-2.866c-0,-1.821 -1.563,-2.604 -2.867,-2.604c-1.3,-0 -4.166,-0.78 -4.166,-4.946l-0,-7.554l9.637,-0c1.3,-0 2.083,-1.042 2.083,-2.605c0,-1.562 -0.52,-2.604 -2.083,-2.604l-9.637,0" style="fill-rule:nonzero;"/></g><g><path d="M526.534,1130.53c-14.32,0 -20.57,9.633 -20.57,15.104c-0,3.646 2.083,8.071 8.591,8.333c4.95,0 7.292,-3.125 7.292,-6.512l-0,-1.042c-0.258,-3.904 -2.863,-4.166 -3.383,-4.425c-0.521,-0.262 -1.563,-1.304 -1.563,-3.125c0.521,-2.866 4.425,-3.908 5.467,-3.908c13.283,-0 17.187,7.033 17.187,11.458c0,12.242 -12.5,13.284 -16.404,13.542c-1.825,-0 -3.646,0.783 -3.646,2.346c0,1.562 2.342,1.562 3.384,1.562c15.104,0 17.187,7.813 17.187,11.717c0,15.104 -12.237,15.625 -15.362,15.625c-1.563,-0 -4.167,-0.779 -4.43,-2.083l0,-1.563c0,-2.862 0.784,-5.987 1.042,-8.592c0,-4.687 -3.125,-7.554 -7.812,-7.554l-1.042,0c-1.821,0.521 -3.646,1.563 -4.946,2.867c-1.825,1.563 -2.346,3.904 -2.346,6.25c0.263,8.333 7.554,15.362 20.575,15.625l1.563,0c12.758,0 26.041,-6.771 26.041,-18.229c0,-2.604 -0.52,-4.688 -1.304,-6.25c-0.521,-1.563 -1.562,-2.867 -2.604,-3.909c-0.779,-1.041 -1.821,-1.82 -2.862,-2.604l-2.867,-1.562l-1.563,-0.521c-0.52,0 -0.779,-0.258 -1.3,-0.258l-1.562,-0.521c-0.783,-0.263 -1.042,-0 -1.304,-0.521c-0.259,-0.263 -0.259,-0.521 -0.259,-0.783c0,-0.521 0.259,-1.042 0.78,-1.042l4.166,-1.3c1.825,-1.042 3.646,-1.825 4.95,-3.646c2.084,-2.083 2.863,-5.471 2.863,-8.333c-0,-12.242 -16.146,-15.625 -21.875,-16.146l-2.084,-0" style="fill-rule:nonzero;"/></g><g><path d="M643.484,1160.47c0,-0 -0.262,1.042 -0.262,1.825c-0,1.042 1.042,2.083 2.083,2.083c0.784,0 1.304,-0.783 1.563,-1.042c0.262,-0.783 3.387,-11.458 4.95,-14.062c0.521,-1.042 1.041,-1.304 1.3,-1.304c0.521,-0 0.783,1.041 0.783,1.825l0,37.237c0,3.125 -2.604,4.95 -5.208,4.95c-1.042,0 -2.346,0.521 -2.346,2.084c-0,1.562 1.304,2.083 3.387,2.083l21.875,-0c2.084,-0 2.084,-2.083 2.084,-2.083c-0,-0 -0,-2.084 -2.084,-2.084c-1.825,0 -4.166,-2.346 -4.166,-4.687l-0,-54.167c-0,-2.083 -0.784,-3.125 -2.604,-3.125c-1.825,0 -3.388,0.521 -4.95,0.521c-2.605,-0 -3.125,-0 -5.209,-0.521c-1.041,0 -2.341,1.563 -3.125,2.604l-8.071,27.863" style="fill-rule:nonzero;"/></g><g><path d="M825.455,1160.47c0,-0 -0.262,1.042 -0.262,1.825c-0,1.042 1.041,2.083 2.083,2.083c0.783,0 1.304,-0.783 1.563,-1.042c0.262,-0.783 3.387,-11.458 4.95,-14.062c0.52,-1.042 1.041,-1.304 1.3,-1.304c0.52,-0 0.783,1.041 0.783,1.825l-0,37.237c-0,3.125 -2.604,4.95 -5.208,4.95c-1.042,0 -2.346,0.521 -2.346,2.084c-0,1.562 1.304,2.083 3.387,2.083l21.875,-0c2.084,-0 2.084,-2.083 2.084,-2.083c-0,-0 -0,-2.084 -2.084,-2.084c-1.825,0 -4.166,-2.346 -4.166,-4.687l-0,-54.167c-0,-2.083 -0.784,-3.125 -2.605,-3.125c-1.825,0 -3.387,0.521 -4.95,0.521c-2.604,-0 -3.125,-0 -5.208,-0.521c-1.042,0 -2.342,1.563 -3.125,2.604l-8.071,27.863" style="fill-rule:nonzero;"/></g><g><path d="M983.422,1124.05l-0,-27.867c-0,-1.3 -0.258,-2.341 -1.563,-2.341c-1.041,-0 -1.82,0.258 -2.604,1.3l-7.812,15.104c-0.521,0.521 -1.3,1.304 -1.3,3.125l-0,10.679l-16.929,0c10.679,-8.854 27.345,-38.283 27.604,-39.846c-0,-0.258 0.262,-0.521 0.262,-0.779c0,-1.042 -1.041,-1.825 -1.825,-1.825c-1.3,0 -6.771,0.521 -9.112,0.521c-2.346,-0 -3.909,-0.521 -4.95,-0.521c-1.3,0 -3.125,0.521 -3.125,2.604c-0,16.667 -13.542,35.679 -16.925,40.367c-0.521,0.521 -1.042,1.3 -1.042,2.083c0,1.3 1.042,2.604 2.604,2.604l23.438,0l-0,8.071c-0,3.646 -2.084,4.688 -4.167,4.688c-2.346,-0 -3.387,1.041 -3.387,2.346c-0,1.3 0.52,2.862 2.866,2.862l22.396,0c1.3,0 2.604,-1.042 2.604,-2.862c0,-1.825 -1.562,-2.605 -2.866,-2.605c-1.3,0 -4.167,-0.783 -4.167,-4.95l-0,-7.55l9.637,0c1.3,0 2.084,-1.041 2.084,-2.604c-0,-1.562 -0.521,-2.604 -2.084,-2.604l-9.637,0" style="fill-rule:nonzero;"/></g><g><path d="M1144.71,1138.96c0,-1.824 -0.779,-2.083 -1.562,-2.083c-1.042,0 -1.563,0.779 -1.821,1.563c-1.304,3.645 -4.167,8.333 -8.075,8.333c-0.521,-0 -1.042,-0 -1.562,-0.263l-3.905,-1.3c-2.604,-1.041 -8.854,-3.125 -14.062,-3.125c-1.825,0 -3.388,0.259 -4.95,0.78c2.867,-4.946 16.408,-11.459 19.271,-12.238c9.375,-1.304 17.187,-6.771 17.187,-16.929c0,-6.25 -2.604,-10.417 -5.987,-13.542c-6.771,-5.466 -16.667,-6.25 -19.534,-6.25c-9.375,0 -16.925,0.521 -23.695,8.334c-1.825,2.083 -2.605,4.166 -2.605,6.25c0,1.825 0.78,3.908 1.563,6.25c1.562,3.125 4.946,5.47 8.592,5.47c6.512,0 7.291,-6.25 7.291,-9.116c0,-5.988 -6.508,-6.509 -6.508,-9.113c-0,-1.825 2.604,-4.95 10.417,-4.95c12.237,0 16.404,10.159 16.404,13.284c-0,4.687 -1.563,9.112 -4.167,12.758c-4.687,5.992 -13.279,8.075 -19.792,12.242c-7.291,4.425 -12.237,11.979 -14.583,20.312c0,1.821 0.783,3.904 2.346,4.688c0.258,0.258 0.779,0.258 1.042,0.258c2.862,-0 4.425,-8.071 12.237,-8.071c5.208,0 7.033,7.029 18.75,7.029c5.471,0 15.625,-0.521 17.708,-20.571" style="fill-rule:nonzero;"/></g><g><path d="M1253.31,1150.29c0,-0 -0.262,1.041 -0.262,1.821c-0,1.041 1.041,2.083 2.083,2.083c0.783,-0 1.304,-0.779 1.563,-1.042c0.262,-0.779 3.387,-11.458 4.95,-14.062c0.52,-1.042 1.041,-1.3 1.3,-1.3c0.52,-0 0.783,1.041 0.783,1.821l-0,37.241c-0,3.125 -2.604,4.946 -5.208,4.946c-1.042,0 -2.346,0.521 -2.346,2.083c-0,1.563 1.304,2.084 3.387,2.084l21.875,-0c2.084,-0 2.084,-2.084 2.084,-2.084c-0,0 -0,-2.083 -2.084,-2.083c-1.825,0 -4.166,-2.342 -4.166,-4.687l-0,-54.167c-0,-2.083 -0.784,-3.125 -2.605,-3.125c-1.825,-0 -3.387,0.521 -4.95,0.521c-2.604,-0 -3.125,-0 -5.208,-0.521c-1.042,-0 -2.342,1.562 -3.125,2.604l-8.071,27.867" style="fill-rule:nonzero;"/></g><g><path d="M1431.43,1172.71l0,-27.867c0,-1.3 -0.262,-2.342 -1.562,-2.342c-1.042,0 -1.825,0.259 -2.604,1.3l-7.813,15.104c-0.521,0.521 -1.304,1.305 -1.304,3.125l-0,10.68l-16.925,-0c10.675,-8.855 27.342,-38.284 27.604,-39.846c0,-0.259 0.258,-0.521 0.258,-0.779c0,-1.042 -1.041,-1.825 -1.82,-1.825c-1.305,-0 -6.771,0.52 -9.117,0.52c-2.342,0 -3.904,-0.52 -4.946,-0.52c-1.304,-0 -3.125,0.52 -3.125,2.604c0,16.666 -13.542,35.679 -16.929,40.366c-0.521,0.521 -1.042,1.3 -1.042,2.084c0,1.3 1.042,2.604 2.604,2.604l23.438,-0l-0,8.071c-0,3.646 -2.083,4.687 -4.167,4.687c-2.341,0 -3.383,1.042 -3.383,2.346c-0,1.3 0.521,2.863 2.862,2.863l22.396,-0c1.304,-0 2.604,-1.042 2.604,-2.863c0,-1.825 -1.562,-2.604 -2.862,-2.604c-1.304,-0 -4.167,-0.783 -4.167,-4.95l0,-7.55l9.634,-0c1.304,-0 2.083,-1.042 2.083,-2.604c-0,-1.563 -0.521,-2.604 -2.083,-2.604l-9.634,-0" style="fill-rule:nonzero;"/></g><g><path d="M1544.07,1130.53c-14.321,0 -20.571,9.633 -20.571,15.104c0,3.646 2.083,8.071 8.592,8.333c4.95,0 7.291,-3.125 7.291,-6.512l0,-1.042c-0.258,-3.904 -2.862,-4.166 -3.383,-4.425c-0.521,-0.262 -1.562,-1.304 -1.562,-3.125c0.52,-2.866 4.425,-3.908 5.466,-3.908c13.284,-0 17.188,7.033 17.188,11.458c-0,12.242 -12.5,13.284 -16.404,13.542c-1.825,-0 -3.646,0.783 -3.646,2.346c-0,1.562 2.341,1.562 3.383,1.562c15.104,0 17.188,7.813 17.188,11.717c-0,15.104 -12.238,15.625 -15.363,15.625c-1.562,-0 -4.167,-0.779 -4.429,-2.083l-0,-1.563c-0,-2.862 0.783,-5.987 1.042,-8.592c-0,-4.687 -3.125,-7.554 -7.813,-7.554l-1.042,0c-1.82,0.521 -3.645,1.563 -4.945,2.867c-1.825,1.563 -2.346,3.904 -2.346,6.25c0.262,8.333 7.554,15.362 20.575,15.625l1.562,0c12.759,0 26.042,-6.771 26.042,-18.229c-0,-2.604 -0.521,-4.688 -1.304,-6.25c-0.521,-1.563 -1.563,-2.867 -2.604,-3.909c-0.78,-1.041 -1.821,-1.82 -2.863,-2.604l-2.867,-1.562l-1.562,-0.521c-0.521,0 -0.779,-0.258 -1.3,-0.258l-1.563,-0.521c-0.783,-0.263 -1.041,-0 -1.304,-0.521c-0.258,-0.263 -0.258,-0.521 -0.258,-0.783c-0,-0.521 0.258,-1.042 0.779,-1.042l4.167,-1.3c1.825,-1.042 3.646,-1.825 4.95,-3.646c2.083,-2.083 2.862,-5.471 2.862,-8.333c0,-12.242 -16.146,-15.625 -21.875,-16.146l-2.083,-0" style="fill-rule:nonzero;"/></g><g><path d="M1661.01,1160.47c-0,-0 -0.263,1.042 -0.263,1.825c0,1.042 1.042,2.083 2.083,2.083c0.784,0 1.305,-0.783 1.563,-1.042c0.262,-0.783 3.387,-11.458 4.95,-14.062c0.521,-1.042 1.042,-1.304 1.3,-1.304c0.521,-0 0.783,1.041 0.783,1.825l0,37.237c0,3.125 -2.604,4.95 -5.208,4.95c-1.042,0 -2.346,0.521 -2.346,2.084c0,1.562 1.304,2.083 3.388,2.083l21.875,-0c2.083,-0 2.083,-2.083 2.083,-2.083c-0,-0 -0,-2.084 -2.083,-2.084c-1.825,0 -4.167,-2.346 -4.167,-4.687l-0,-54.167c-0,-2.083 -0.783,-3.125 -2.604,-3.125c-1.825,0 -3.388,0.521 -4.95,0.521c-2.604,-0 -3.125,-0 -5.209,-0.521c-1.041,0 -2.341,1.563 -3.125,2.604l-8.07,27.863" style="fill-rule:nonzero;"/></g><g><path d="M1843.12,1160.47c-0,-0 -0.258,1.042 -0.258,1.825c-0,1.042 1.041,2.083 2.083,2.083c0.779,0 1.3,-0.783 1.562,-1.042c0.259,-0.783 3.384,-11.458 4.946,-14.062c0.521,-1.042 1.042,-1.304 1.304,-1.304c0.521,-0 0.78,1.041 0.78,1.825l-0,37.237c-0,3.125 -2.605,4.95 -5.209,4.95c-1.041,0 -2.341,0.521 -2.341,2.084c-0,1.562 1.3,2.083 3.383,2.083l21.875,-0c2.083,-0 2.083,-2.083 2.083,-2.083c0,-0 0,-2.084 -2.083,-2.084c-1.821,0 -4.167,-2.346 -4.167,-4.687l0,-54.167c0,-2.083 -0.779,-3.125 -2.604,-3.125c-1.821,0 -3.383,0.521 -4.946,0.521c-2.604,-0 -3.125,-0 -5.208,-0.521c-1.042,0 -2.346,1.563 -3.125,2.604l-8.075,27.863" style="fill-rule:nonzero;"/></g><g><path d="M2016.65,1172.71l0,-27.867c0,-1.3 -0.262,-2.342 -1.562,-2.342c-1.042,0 -1.825,0.259 -2.605,1.3l-7.812,15.104c-0.521,0.521 -1.304,1.305 -1.304,3.125l-0,10.68l-16.925,-0c10.675,-8.855 27.341,-38.284 27.604,-39.846c-0,-0.259 0.258,-0.521 0.258,-0.779c0,-1.042 -1.041,-1.825 -1.821,-1.825c-1.304,-0 -6.77,0.52 -9.116,0.52c-2.342,0 -3.904,-0.52 -4.946,-0.52c-1.304,-0 -3.125,0.52 -3.125,2.604c-0,16.666 -13.542,35.679 -16.929,40.366c-0.521,0.521 -1.042,1.3 -1.042,2.084c0,1.3 1.042,2.604 2.604,2.604l23.438,-0l-0,8.071c-0,3.646 -2.084,4.687 -4.167,4.687c-2.342,0 -3.383,1.042 -3.383,2.346c-0,1.3 0.521,2.863 2.862,2.863l22.396,-0c1.304,-0 2.604,-1.042 2.604,-2.863c0,-1.825 -1.562,-2.604 -2.862,-2.604c-1.304,-0 -4.167,-0.783 -4.167,-4.95l0,-7.55l9.633,-0c1.305,-0 2.084,-1.042 2.084,-2.604c-0,-1.563 -0.521,-2.604 -2.084,-2.604l-9.633,-0" style="fill-rule:nonzero;"/></g><g><path d="M2177.93,1175.32c0,-1.825 -0.779,-2.084 -1.562,-2.084c-1.042,0 -1.563,0.78 -1.821,1.563c-1.304,3.646 -4.167,8.333 -8.075,8.333c-0.521,0 -1.042,0 -1.563,-0.262l-3.904,-1.3c-2.604,-1.042 -8.854,-3.125 -14.062,-3.125c-1.825,-0 -3.388,0.258 -4.95,0.779c2.866,-4.946 16.408,-11.459 19.27,-12.238c9.375,-1.304 17.188,-6.771 17.188,-16.929c-0,-6.25 -2.604,-10.417 -5.988,-13.542c-6.77,-5.466 -16.666,-6.25 -19.533,-6.25c-9.375,0 -16.925,0.521 -23.696,8.334c-1.825,2.083 -2.604,4.166 -2.604,6.25c0,1.825 0.779,3.908 1.563,6.25c1.562,3.125 4.945,5.471 8.591,5.471c6.513,-0 7.292,-6.25 7.292,-9.117c-0,-5.988 -6.508,-6.508 -6.508,-9.113c-0,-1.825 2.604,-4.95 10.416,-4.95c12.238,0 16.404,10.159 16.404,13.284c0,4.687 -1.562,9.112 -4.166,12.758c-4.688,5.992 -13.279,8.075 -19.792,12.242c-7.292,4.425 -12.237,11.979 -14.583,20.312c-0,1.821 0.783,3.904 2.346,4.688c0.258,0.258 0.779,0.258 1.041,0.258c2.863,0 4.425,-8.071 12.238,-8.071c5.208,0 7.033,7.029 18.75,7.029c5.471,0 15.625,-0.52 17.708,-20.57" style="fill-rule:nonzero;"/></g><g><path d="M2286.52,1160.47c-0,-0 -0.263,1.042 -0.263,1.825c0,1.042 1.042,2.083 2.084,2.083c0.783,0 1.304,-0.783 1.562,-1.042c0.263,-0.783 3.388,-11.458 4.95,-14.062c0.521,-1.042 1.042,-1.304 1.3,-1.304c0.521,-0 0.784,1.041 0.784,1.825l-0,37.237c-0,3.125 -2.605,4.95 -5.209,4.95c-1.041,0 -2.346,0.521 -2.346,2.084c0,1.562 1.305,2.083 3.388,2.083l21.875,-0c2.083,-0 2.083,-2.083 2.083,-2.083c0,-0 0,-2.084 -2.083,-2.084c-1.825,0 -4.167,-2.346 -4.167,-4.687l0,-54.167c0,-2.083 -0.783,-3.125 -2.604,-3.125c-1.825,0 -3.387,0.521 -4.95,0.521c-2.604,-0 -3.125,-0 -5.208,-0.521c-1.042,0 -2.342,1.563 -3.125,2.604l-8.071,27.863" style="fill-rule:nonzero;"/></g><g><path d="M2561.47,1160.47c-0,-0 -0.259,1.042 -0.259,1.825c0,1.042 1.042,2.083 2.084,2.083c0.779,0 1.3,-0.783 1.562,-1.042c0.259,-0.783 3.384,-11.458 4.946,-14.062c0.521,-1.042 1.042,-1.304 1.304,-1.304c0.521,-0 0.779,1.041 0.779,1.825l0,37.237c0,3.125 -2.604,4.95 -5.208,4.95c-1.042,0 -2.342,0.521 -2.342,2.084c0,1.562 1.3,2.083 3.384,2.083l21.875,-0c2.083,-0 2.083,-2.083 2.083,-2.083c0,-0 0,-2.084 -2.083,-2.084c-1.821,0 -4.167,-2.346 -4.167,-4.687l0,-54.167c0,-2.083 -0.779,-3.125 -2.604,-3.125c-1.821,0 -3.383,0.521 -4.946,0.521c-2.604,-0 -3.125,-0 -5.208,-0.521c-1.042,0 -2.346,1.563 -3.125,2.604l-8.075,27.863" style="fill-rule:nonzero;"/></g><g><path d="M386.889,1293.28c23.175,0 51.562,-21.354 51.562,-43.487c0,-13.284 -10.417,-21.617 -25.262,-21.617c-28.646,0 -51.563,21.096 -51.563,43.492c0,13.542 11.2,21.612 25.263,21.612" style="fill-rule:nonzero;"/></g><g><path d="M516.076,1325.58c23.179,0 51.563,-21.354 51.563,-43.487c-0,-13.284 -10.417,-21.617 -25.259,-21.617c-28.646,-0 -51.562,21.096 -51.562,43.492c-0,13.541 11.196,21.612 25.258,21.612" style="fill-rule:nonzero;"/></g><g><path d="M645.268,1357.87c23.179,-0 51.562,-21.354 51.562,-43.488c0,-13.283 -10.416,-21.616 -25.258,-21.616c-28.646,-0 -51.563,21.095 -51.563,43.491c0,13.542 11.196,21.613 25.259,21.613" style="fill-rule:nonzero;"/></g><g><path d="M764.78,1369.33c-1.562,5.208 -13.8,10.417 -19.791,10.417c-1.563,-0 -2.863,-0.521 -3.125,-1.3c-0.521,-1.042 -0.78,-6.771 -0.78,-13.021c0,-8.075 0.259,-17.188 0.78,-19.271c0.52,-4.429 12.5,-9.896 19.012,-9.896c1.821,0 3.383,0.521 3.904,1.563c0.521,1.3 1.042,7.812 1.042,14.841c-0,7.034 -0.521,14.325 -1.042,16.667m17.971,-42.446c1.821,-0.783 3.125,-2.867 3.125,-4.429l0,-18.487c0,-1.305 -0.783,-2.084 -1.825,-2.084c-0.521,0 -0.779,0 -1.3,0.259c0,-0 -5.208,2.083 -6.512,2.345c-1.821,0 -3.646,-1.304 -3.646,-3.387l-0,-31.771c-0,-1.563 -1.563,-2.862 -3.646,-2.862c-2.604,-0 -4.167,1.3 -4.167,2.862l0,33.854c-0.258,2.604 -1.041,5.992 -3.383,7.554c-3.125,1.821 -11.979,5.467 -16.408,6.509c-2.342,-0 -3.125,-3.125 -3.125,-5.209l-0,-31.25c-0,-1.562 -1.821,-2.862 -3.646,-2.862c-2.604,-0 -4.167,1.3 -4.167,2.862l0,35.159c0,3.645 -1.562,6.25 -3.125,7.029c-1.562,0.783 -6.771,2.866 -6.771,2.866c-1.821,0.521 -3.125,2.605 -3.125,4.167l0,18.488c0,1.562 0.784,2.345 2.084,2.345c1.041,0 5.991,-2.345 6.77,-2.866c0.263,-0 0.521,-0.259 0.784,-0.259c1.821,0 3.383,2.605 3.383,4.688l0,25.779c0,2.867 -1.3,5.208 -2.862,5.992c-1.563,0.521 -7.034,2.862 -7.034,2.862c-1.821,0.521 -3.125,2.604 -3.125,4.167l0,18.492c0,1.562 0.784,2.341 2.084,2.341c0.262,0 0.783,-0.258 1.041,-0.258c0,0 3.646,-1.563 5.992,-2.346c0.258,-0.258 0.521,-0.258 0.779,-0.258c1.825,-0 3.125,2.862 3.125,4.167l0,32.029c0,1.562 1.563,2.866 3.388,2.866c2.604,0 4.425,-1.304 4.425,-2.866l-0,-36.196c-0,-3.388 1.304,-5.208 2.604,-5.729l15.887,-6.513c0.259,0 0.779,-0.258 1.042,-0.258c2.083,-0 3.383,3.125 3.383,4.687l0,32.55c0,1.563 1.563,2.867 3.388,2.867c2.862,0 4.425,-1.304 4.425,-2.867l-0,-36.979c-0,-2.083 1.041,-5.208 2.866,-5.987c1.821,-0.784 7.292,-2.867 7.292,-2.867c1.821,-0.779 3.125,-2.862 3.125,-4.425l0,-18.492c0,-1.3 -0.783,-2.083 -1.825,-2.083c-0.521,0 -0.779,0 -1.3,0.263l-6.771,2.604c-1.562,-0 -3.387,-1.563 -3.387,-4.688l-0,-24.221c-0,-1.82 1.304,-6.77 3.387,-7.55l6.771,-2.604" style="fill-rule:nonzero;"/></g><g><path d="M827.239,1390.16c23.175,0 51.562,-21.354 51.562,-43.487c0,-13.284 -10.417,-21.617 -25.262,-21.617c-28.646,0 -51.563,21.096 -51.563,43.492c0,13.542 11.2,21.612 25.263,21.612" style="fill-rule:nonzero;"/></g><g><path d="M956.43,1422.45c23.175,0 51.563,-21.354 51.563,-43.487c-0,-13.284 -10.417,-21.617 -25.263,-21.617c-28.646,-0 -51.562,21.096 -51.562,43.492c-0,13.541 11.2,21.612 25.262,21.612" style="fill-rule:nonzero;"/></g><g><path d="M1105.75,1454.74c23.179,-0 51.563,-21.354 51.563,-43.488c-0,-13.283 -10.417,-21.616 -25.259,-21.616c-28.646,-0 -51.562,21.095 -51.562,43.491c-0,13.542 11.196,21.613 25.258,21.613" style="fill-rule:nonzero;"/></g><g><path d="M1255.09,1487.03c23.179,0 51.562,-21.354 51.562,-43.487c0,-13.284 -10.417,-21.617 -25.258,-21.617c-28.646,0 -51.563,21.096 -51.563,43.492c0,13.542 11.196,21.612 25.259,21.612" style="fill-rule:nonzero;"/></g><g><path d="M1404.43,1519.33c23.175,0 51.563,-21.354 51.563,-43.487c-0,-13.284 -10.417,-21.617 -25.263,-21.617c-28.646,-0 -51.562,21.096 -51.562,43.492c-0,13.541 11.2,21.612 25.262,21.612" style="fill-rule:nonzero;"/></g><g><path d="M1533.62,1551.62c23.175,-0 51.562,-21.354 51.562,-43.488c0,-13.283 -10.416,-21.616 -25.262,-21.616c-28.646,-0 -51.563,21.095 -51.563,43.491c0,13.542 11.2,21.613 25.263,21.613" style="fill-rule:nonzero;"/></g><g><path d="M1662.81,1583.91c23.18,0 51.563,-21.354 51.563,-43.487c-0,-13.284 -10.417,-21.617 -25.258,-21.617c-28.646,0 -51.563,21.096 -51.563,43.492c0,13.542 11.196,21.612 25.258,21.612" style="fill-rule:nonzero;"/></g><g><path d="M1782.45,1595.37c-1.563,5.208 -13.804,10.416 -19.792,10.416c-1.562,0 -2.866,-0.52 -3.125,-1.3c-0.521,-1.041 -0.783,-6.77 -0.783,-13.02c-0,-8.075 0.262,-17.188 0.783,-19.271c0.521,-4.429 12.5,-9.896 19.009,-9.896c1.825,-0 3.387,0.521 3.908,1.562c0.521,1.3 1.042,7.813 1.042,14.842c-0,7.033 -0.521,14.325 -1.042,16.667m17.967,-42.446c1.825,-0.784 3.125,-2.867 3.125,-4.429l-0,-18.488c-0,-1.304 -0.78,-2.083 -1.821,-2.083c-0.521,-0 -0.784,-0 -1.304,0.258c-0,0 -5.209,2.084 -6.509,2.346c-1.825,0 -3.646,-1.304 -3.646,-3.387l0,-31.771c0,-1.563 -1.562,-2.863 -3.645,-2.863c-2.605,0 -4.167,1.3 -4.167,2.863l-0,33.854c-0.263,2.604 -1.042,5.992 -3.388,7.554c-3.125,1.821 -11.979,5.467 -16.404,6.508c-2.346,0 -3.125,-3.125 -3.125,-5.208l0,-31.25c0,-1.563 -1.825,-2.862 -3.646,-2.862c-2.604,-0 -4.166,1.3 -4.166,2.862l-0,35.158c-0,3.646 -1.563,6.25 -3.125,7.03c-1.563,0.783 -6.771,2.866 -6.771,2.866c-1.825,0.521 -3.125,2.604 -3.125,4.167l-0,18.487c-0,1.563 0.779,2.346 2.083,2.346c1.042,0 5.988,-2.346 6.771,-2.866c0.258,-0 0.521,-0.259 0.779,-0.259c1.825,0 3.388,2.604 3.388,4.688l-0,25.779c-0,2.867 -1.304,5.208 -2.867,5.992c-1.562,0.52 -7.029,2.862 -7.029,2.862c-1.825,0.521 -3.125,2.604 -3.125,4.167l-0,18.491c-0,1.563 0.779,2.342 2.083,2.342c0.259,0 0.779,-0.258 1.042,-0.258c-0,-0 3.646,-1.563 5.987,-2.346c0.263,-0.258 0.521,-0.258 0.784,-0.258c1.821,-0 3.125,2.862 3.125,4.166l-0,32.029c-0,1.563 1.562,2.867 3.383,2.867c2.604,0 4.429,-1.304 4.429,-2.867l0,-36.195c0,-3.388 1.3,-5.209 2.604,-5.73l15.884,-6.512c0.262,-0 0.783,-0.258 1.041,-0.258c2.084,-0 3.388,3.125 3.388,4.687l-0,32.55c-0,1.563 1.562,2.867 3.383,2.867c2.867,-0 4.429,-1.304 4.429,-2.867l0,-36.979c0,-2.083 1.042,-5.208 2.863,-5.988c1.825,-0.783 7.292,-2.866 7.292,-2.866c1.825,-0.779 3.125,-2.863 3.125,-4.425l-0,-18.492c-0,-1.3 -0.78,-2.083 -1.821,-2.083c-0.521,-0 -0.784,-0 -1.304,0.262l-6.771,2.604c-1.563,0 -3.384,-1.562 -3.384,-4.687l0,-24.221c0,-1.821 1.3,-6.771 3.384,-7.55l6.771,-2.604" style="fill-rule:nonzero;"/></g><g><path d="M1844.9,1616.2c23.179,0 51.563,-21.354 51.563,-43.487c-0,-13.284 -10.417,-21.617 -25.259,-21.617c-28.645,-0 -51.562,21.096 -51.562,43.492c-0,13.541 11.196,21.612 25.258,21.612" style="fill-rule:nonzero;"/></g><g><path d="M1989.65,1648.49c23.175,-0 51.562,-21.354 51.562,-43.488c0,-13.283 -10.416,-21.616 -25.262,-21.616c-28.646,-0 -51.563,21.095 -51.563,43.491c0,13.542 11.2,21.613 25.263,21.613" style="fill-rule:nonzero;"/></g><g><path d="M2138.98,1680.78c23.179,0 51.563,-21.354 51.563,-43.487c-0,-13.284 -10.417,-21.617 -25.259,-21.617c-28.645,0 -51.562,21.096 -51.562,43.492c-0,13.542 11.196,21.612 25.258,21.612" style="fill-rule:nonzero;"/></g><g><path d="M2288.32,1713.08c23.175,0 51.562,-21.354 51.562,-43.487c0,-13.284 -10.416,-21.617 -25.262,-21.617c-28.646,-0 -51.563,21.096 -51.563,43.492c0,13.541 11.2,21.612 25.263,21.612" style="fill-rule:nonzero;"/></g><g><path d="M2550.38,1664.12c2.863,-9.113 12.5,-10.417 20.571,-10.417c17.971,0 32.292,19.271 32.292,34.896c-0,8.075 -3.384,15.367 -11.98,17.45c-2.604,0.779 -5.466,1.042 -8.07,1.042c-9.375,-0 -19.013,-6.25 -24.48,-13.542c-5.208,-5.992 -9.116,-14.846 -9.116,-23.179c-0,-2.084 0.262,-4.167 0.783,-6.25m27.342,-16.146c-34.634,-0 -56.25,14.325 -56.25,32.033c-0,17.446 14.846,33.071 53.646,33.071c42.708,0 56.25,-14.842 56.25,-33.071c-0,-18.491 -29.425,-32.033 -53.646,-32.033" style="fill-rule:nonzero;"/></g><g><path d="M135.664,1386.25c0.779,4.946 0.779,4.688 -3.909,6.25c-22.916,7.813 -37.758,28.383 -37.758,50.521c-0,23.438 12.237,40.104 29.946,46.092c2.083,0.783 5.208,1.562 7.033,1.562c2.083,0 3.125,-1.3 3.125,-2.862c0,-1.825 -2.083,-2.604 -3.908,-3.388c-10.938,-4.687 -18.75,-15.883 -18.75,-27.862c-0,-14.846 10.158,-26.042 26.041,-30.471c4.167,-1.042 4.688,-0.779 5.209,2.083l13.021,77.604c0.52,2.867 0.262,2.867 -3.646,3.646c-4.167,0.784 -9.375,1.304 -14.584,1.304c-45.57,0 -75,-25.262 -75,-61.458c0,-15.367 2.605,-35.938 24.221,-60.417c15.625,-17.45 27.604,-27.083 39.842,-36.979c2.604,-2.083 3.125,-1.825 3.646,1.042l5.471,33.333m28.383,-177.346c8.596,0 15.625,7.034 15.625,21.354c-0,28.909 -24.738,52.346 -45.313,70.313c-1.82,1.562 -2.862,1.304 -3.383,-2.083c-1.042,-6.771 -1.562,-15.625 -1.562,-23.959c-0,-40.625 18.75,-65.625 34.633,-65.625m-10.417,218.75c-0.521,-3.125 -0.258,-3.904 2.867,-3.646c21.092,1.825 38.542,19.534 38.542,42.45c-0,16.405 -9.896,29.688 -24.48,36.98c-3.125,1.562 -3.645,1.562 -4.166,-1.563l-12.763,-74.221m-14.062,-81.25c-0.521,-3.125 -0,-3.383 1.562,-4.946c28.125,-26.304 49.479,-59.375 49.479,-99.22c0,-22.655 -6.25,-45.05 -16.925,-60.675c-3.908,-5.73 -10.679,-13.021 -13.541,-13.021c-3.646,-0 -11.721,6.771 -16.929,12.5c-19.271,21.354 -25.521,53.904 -25.521,80.987c-0,15.104 1.825,32.034 3.646,42.709c0.52,3.125 0.783,3.645 -2.342,6.25c-37.5,30.991 -77.346,68.229 -77.346,120.833c0,45.312 30.992,88.283 94.792,88.283c5.991,0 12.762,-0.521 17.971,-1.562c2.862,-0.521 3.383,-0.784 3.904,2.341c3.125,17.45 7.033,40.105 7.033,52.346c0,38.542 -26.042,43.229 -41.408,43.229c-14.063,0 -20.834,-4.166 -20.834,-7.554c0,-1.821 2.346,-2.604 8.334,-4.425c8.075,-2.346 17.45,-9.375 17.45,-24.479c-0,-14.325 -9.117,-26.562 -25,-26.562c-17.45,-0 -27.867,13.8 -27.867,29.945c0,16.93 10.158,42.45 49.479,42.45c17.45,0 51.304,-7.812 51.304,-52.083c0,-14.846 -4.687,-39.583 -7.554,-55.729c-0.521,-3.125 -0.258,-2.867 3.388,-4.429c26.3,-10.417 43.75,-32.55 43.75,-61.979c-0,-33.334 -24.479,-62.759 -62.763,-62.759c-6.771,0 -6.771,0 -7.55,-4.687l-6.512,-37.763" style="fill-rule:nonzero;"/></g><g><text x="1080.4px" y="1632.87px" style="font-family:'Bravura';font-size:260.417px;"></text></g><g><text x="2113.62px" y="1803.15px" style="font-family:'Bravura';font-size:260.417px;"></text></g><g><path d="M361.576,1519.92l0,-32.629l448.175,64.583l0,32.629l-448.175,-64.583" style="fill-rule:nonzero;"/></g><g><path d="M361.576,1470.98l0,-32.641l448.175,64.583l0,32.641l-448.175,-64.583" style="fill-rule:nonzero;"/></g><g><path d="M1000.25,1212.3l-0,-32.709l306.379,48.438l0,32.708l-306.379,-48.437" style="fill-rule:nonzero;"/></g><g><path d="M1448.16,1276.07l-0,-32.825l448.308,80.729l-0,32.825l-448.308,-80.729" style="fill-rule:nonzero;"/></g><g><path d="M1448.16,1325.32l-0,-32.825l448.308,80.729l-0,32.825l-448.308,-80.729" style="fill-rule:nonzero;"/></g><g><path d="M2033.45,1406.05l0,-32.346l306.379,16.146l0,32.346l-306.379,-16.146" style="fill-rule:nonzero;"/></g><g><path d="M909.88,1585.05l138.284,0l-0,-10.325l-127.996,0l-0,-38.112l-10.288,-0" style="fill-rule:nonzero;"/></g><g><path d="M1311.83,1585.05l-122.133,0l0,-10.325l111.717,0l-0,-38.112l10.416,-0" style="fill-rule:nonzero;"/></g><g><path d="M1943.08,1713.08l138.934,27.733l-0,-10.558l-128.646,-25.662l-0,-39.95l-10.288,-0" style="fill-rule:nonzero;"/></g><g><path d="M2345.04,1794.26l-122.788,-24.376l0,-10.562l112.5,23.321l0,-36.821l10.288,-0" style="fill-rule:nonzero;"/></g></g></svg>