<?xml version="1.0" encoding="UTF-8" standalone="no"?><!DOCTYPE svg PUBLIC "-//W3C//DTD SVG 1.1//EN" "http://www.w3.org/Graphics/SVG/1.1/DTD/svg11.dtd"><svg width="100%" height="100%" viewBox="0 0 1658 260" version="1.1" xmlns="http://www.w3.org/2000/svg" xmlns:xlink="http://www.w3.org/1999/xlink" xml:space="preserve" xmlns:serif="http://www.serif.com/" style="fill-rule:evenodd;clip-rule:evenodd;stroke-miterlimit:2;"><g><g><path d="M2.253,106.728l1650,0" style="fill:none;stroke:#000;stroke-width:2.01px;"/><path d="M2.253,137.728l1650,-0" style="fill:none;stroke:#000;stroke-width:2.01px;"/><path d="M2.253,122.228l1650,0" style="fill:none;stroke:#000;stroke-width:2.01px;"/><path d="M2.253,153.228l1650,-0" style="fill:none;stroke:#000;stroke-width:2.01px;"/><path d="M2.253,168.728l1650,-0" style="fill:none;stroke:#000;stroke-width:2.01px;"/></g><g><path d="M551.965,105.719l-0,64.015" style="fill:none;stroke:#000;stroke-width:2.48px;"/><path d="M1004.02,105.719l0,64.015" style="fill:none;stroke:#000;stroke-width:2.48px;"/><path d="M1456.03,105.719l0,64.015" style="fill:none;stroke:#000;stroke-width:2.48px;"/><path d="M1635.5,105.719l-0,64.015" style="fill:none;stroke:#000;stroke-width:2.48px;"/></g><g><path d="M1648.38,105.719l-0,64.015" style="fill:none;stroke:#000;stroke-width:7.75px;"/></g><g><path d="M460.121,75.481l41.528,7.75" style="fill:none;stroke:#000;stroke-width:1.29px;"/><path d="M912.177,79.359l41.531,5.166" style="fill:none;stroke:#000;stroke-width:1.29px;"/><path d="M1364.19,80.709l41.5,5.166" style="fill:none;stroke:#000;stroke-width:1.29px;"/></g><g><path d="M130.081,62.831l-0,71.031" style="fill:none;stroke:#000;stroke-width:1.86px;"/></g><g><path d="M122.953,60.228l30.831,0" style="fill:none;stroke:#000;stroke-width:2.48px;"/><path d="M122.953,75.728l30.831,0" style="fill:none;stroke:#000;stroke-width:2.48px;"/><path d="M122.953,91.228l30.831,0" style="fill:none;stroke:#000;stroke-width:2.48px;"/></g><g><path d="M182.781,62.831l-0,73.613" style="fill:none;stroke:#000;stroke-width:1.86px;"/></g><g><path d="M179.268,60.228l27.216,0" style="fill:none;stroke:#000;stroke-width:2.48px;"/><path d="M175.653,75.728l30.831,0" style="fill:none;stroke:#000;stroke-width:2.48px;"/><path d="M175.653,91.228l30.831,0" style="fill:none;stroke:#000;stroke-width:2.48px;"/></g><g><path d="M235.487,70.581l0,68.447" style="fill:none;stroke:#000;stroke-width:1.86px;"/></g><g><path d="M228.356,75.728l30.834,0" style="fill:none;stroke:#000;stroke-width:2.48px;"/><path d="M228.356,91.228l30.834,0" style="fill:none;stroke:#000;stroke-width:2.48px;"/></g><g><path d="M288.162,78.331l0,63.281" style="fill:none;stroke:#000;stroke-width:1.86px;"/></g><g><path d="M284.646,75.728l27.219,0" style="fill:none;stroke:#000;stroke-width:2.48px;"/><path d="M284.906,91.228l26.959,0" style="fill:none;stroke:#000;stroke-width:2.48px;"/></g><g><path d="M340.865,86.081l0,51.703" style="fill:none;stroke:#000;stroke-width:1.86px;"/></g><g><path d="M333.737,91.228l30.831,0" style="fill:none;stroke:#000;stroke-width:2.48px;"/></g><g><path d="M393.571,93.831l0,50.413" style="fill:none;stroke:#000;stroke-width:1.86px;"/></g><g><path d="M386.44,91.228l30.834,0" style="fill:none;stroke:#000;stroke-width:2.48px;"/></g><g><path d="M446.246,101.581l0,49.119" style="fill:none;stroke:#000;stroke-width:1.86px;"/><path d="M498.952,109.331l0,47.828" style="fill:none;stroke:#000;stroke-width:1.86px;"/><path d="M582.071,117.081l0,47.809" style="fill:none;stroke:#000;stroke-width:1.86px;"/><path d="M634.777,117.081l0,52.975" style="fill:none;stroke:#000;stroke-width:1.86px;"/><path d="M687.484,124.831l-0,50.391" style="fill:none;stroke:#000;stroke-width:1.86px;"/><path d="M740.187,132.581l-0,47.809" style="fill:none;stroke:#000;stroke-width:1.86px;"/><path d="M809.465,91.191l-0,43.931" style="fill:none;stroke:#000;stroke-width:1.86px;"/><path d="M862.171,96.356l-0,46.516" style="fill:none;stroke:#000;stroke-width:1.86px;"/><path d="M914.874,101.522l0,49.1" style="fill:none;stroke:#000;stroke-width:1.86px;"/><path d="M967.58,106.691l0,51.681" style="fill:none;stroke:#000;stroke-width:1.86px;"/><path d="M1050.69,118.344l-0,47.778" style="fill:none;stroke:#000;stroke-width:1.86px;"/><path d="M1103.41,120.925l0,45.197" style="fill:none;stroke:#000;stroke-width:1.86px;"/><path d="M1156.13,123.509l0,50.363" style="fill:none;stroke:#000;stroke-width:1.86px;"/><path d="M1208.81,126.094l0,55.528" style="fill:none;stroke:#000;stroke-width:1.86px;"/></g><g><path d="M1188.72,184.228l27.218,-0" style="fill:none;stroke:#000;stroke-width:2.48px;"/></g><g><path d="M1261.53,137.725l0,51.647" style="fill:none;stroke:#000;stroke-width:1.86px;"/></g><g><path d="M1237.81,184.228l30.844,-0" style="fill:none;stroke:#000;stroke-width:2.48px;"/></g><g><path d="M1314.22,139.015l-0,58.107" style="fill:none;stroke:#000;stroke-width:1.86px;"/></g><g><path d="M1290.53,199.728l30.813,-0" style="fill:none;stroke:#000;stroke-width:2.48px;"/><path d="M1290.53,184.228l30.813,-0" style="fill:none;stroke:#000;stroke-width:2.48px;"/></g><g><path d="M1366.91,140.309l0,64.563" style="fill:none;stroke:#000;stroke-width:1.86px;"/></g><g><path d="M1347.06,199.728l26.969,-0" style="fill:none;stroke:#000;stroke-width:2.48px;"/><path d="M1343.19,184.228l30.844,-0" style="fill:none;stroke:#000;stroke-width:2.48px;"/></g><g><path d="M1419.56,141.6l0,71.022" style="fill:none;stroke:#000;stroke-width:1.86px;"/></g><g><path d="M1399.5,215.228l27.219,-0" style="fill:none;stroke:#000;stroke-width:2.48px;"/><path d="M1399.75,199.728l26.969,-0" style="fill:none;stroke:#000;stroke-width:2.48px;"/><path d="M1395.88,184.228l30.844,-0" style="fill:none;stroke:#000;stroke-width:2.48px;"/><path d="M1482.88,215.228l34.875,-0" style="fill:none;stroke:#000;stroke-width:2.48px;"/><path d="M1479,199.728l38.75,-0" style="fill:none;stroke:#000;stroke-width:2.48px;"/><path d="M1479,184.228l38.75,-0" style="fill:none;stroke:#000;stroke-width:2.48px;"/></g><g><path d="M141.695,39.088l-0,-6.687c-0,-0.313 -0.063,-0.563 -0.375,-0.563c-0.25,0 -0.438,0.063 -0.625,0.313l-1.875,3.625c-0.125,0.125 -0.313,0.312 -0.313,0.75l0,2.562l-4.062,0c2.562,-2.125 6.562,-9.187 6.625,-9.562c-0,-0.063 0.062,-0.125 0.062,-0.188c0,-0.25 -0.25,-0.437 -0.437,-0.437c-0.313,-0 -1.625,0.125 -2.188,0.125c-0.562,-0 -0.937,-0.125 -1.187,-0.125c-0.313,-0 -0.75,0.125 -0.75,0.625c-0,4 -3.25,8.562 -4.063,9.687c-0.125,0.125 -0.25,0.313 -0.25,0.5c0,0.313 0.25,0.625 0.625,0.625l5.625,0l0,1.938c0,0.875 -0.5,1.125 -1,1.125c-0.562,-0 -0.812,0.25 -0.812,0.562c-0,0.313 0.125,0.688 0.687,0.688l5.375,-0c0.313,-0 0.625,-0.25 0.625,-0.688c0,-0.437 -0.375,-0.625 -0.687,-0.625c-0.313,0 -1,-0.187 -1,-1.187l-0,-1.813l2.312,0c0.313,0 0.5,-0.25 0.5,-0.625c0,-0.375 -0.125,-0.625 -0.5,-0.625l-2.312,0" style="fill-rule:nonzero;"/></g><g><path d="M190.423,28.915c-3.437,-0 -4.937,2.312 -4.937,3.625c-0,0.875 0.5,1.937 2.062,2c1.188,-0 1.75,-0.75 1.75,-1.563l0,-0.25c-0.062,-0.937 -0.687,-1 -0.812,-1.062c-0.125,-0.063 -0.375,-0.313 -0.375,-0.75c0.125,-0.688 1.062,-0.938 1.312,-0.938c3.188,0 4.125,1.688 4.125,2.75c0,2.938 -3,3.188 -3.937,3.25c-0.438,0 -0.875,0.188 -0.875,0.563c-0,0.375 0.562,0.375 0.812,0.375c3.625,-0 4.125,1.875 4.125,2.812c0,3.625 -2.937,3.75 -3.687,3.75c-0.375,0 -1,-0.187 -1.063,-0.5l0,-0.375c0,-0.687 0.188,-1.437 0.25,-2.062c0,-1.125 -0.75,-1.813 -1.875,-1.813l-0.25,0c-0.437,0.125 -0.875,0.375 -1.187,0.688c-0.438,0.375 -0.563,0.937 -0.563,1.5c0.063,2 1.813,3.687 4.938,3.75l0.375,-0c3.062,-0 6.25,-1.625 6.25,-4.375c-0,-0.625 -0.125,-1.125 -0.313,-1.5c-0.125,-0.375 -0.375,-0.688 -0.625,-0.938c-0.187,-0.25 -0.437,-0.437 -0.687,-0.625l-0.688,-0.375l-0.375,-0.125c-0.125,0 -0.187,-0.062 -0.312,-0.062l-0.375,-0.125c-0.188,-0.063 -0.25,-0 -0.313,-0.125c-0.062,-0.063 -0.062,-0.125 -0.062,-0.188c-0,-0.125 0.062,-0.25 0.187,-0.25l1,-0.312c0.438,-0.25 0.875,-0.438 1.188,-0.875c0.5,-0.5 0.687,-1.313 0.687,-2c0,-2.938 -3.875,-3.75 -5.25,-3.875l-0.5,-0" style="fill-rule:nonzero;"/></g><g><path d="M249.966,47.219c0,-0.437 -0.187,-0.5 -0.375,-0.5c-0.25,0 -0.375,0.188 -0.437,0.375c-0.313,0.875 -1,2 -1.938,2c-0.125,0 -0.25,0 -0.375,-0.062l-0.937,-0.313c-0.625,-0.25 -2.125,-0.75 -3.375,-0.75c-0.438,0 -0.813,0.063 -1.188,0.188c0.688,-1.188 3.938,-2.75 4.625,-2.938c2.25,-0.312 4.125,-1.625 4.125,-4.062c0,-1.5 -0.625,-2.5 -1.437,-3.25c-1.625,-1.313 -4,-1.5 -4.688,-1.5c-2.25,-0 -4.062,0.125 -5.687,2c-0.438,0.5 -0.625,1 -0.625,1.5c-0,0.437 0.187,0.937 0.375,1.5c0.375,0.75 1.187,1.312 2.062,1.312c1.563,0 1.75,-1.5 1.75,-2.187c0,-1.438 -1.562,-1.563 -1.562,-2.188c-0,-0.437 0.625,-1.187 2.5,-1.187c2.937,-0 3.937,2.437 3.937,3.187c0,1.125 -0.375,2.188 -1,3.063c-1.125,1.437 -3.187,1.937 -4.75,2.937c-1.75,1.063 -2.937,2.875 -3.5,4.875c0,0.438 0.188,0.938 0.563,1.125c0.062,0.063 0.187,0.063 0.25,0.063c0.687,-0 1.062,-1.938 2.937,-1.938c1.25,0 1.688,1.688 4.5,1.688c1.313,-0 3.75,-0.125 4.25,-4.938" style="fill-rule:nonzero;"/></g><g><path d="M292.864,51.602c0,0 -0.062,0.25 -0.062,0.438c-0,0.25 0.25,0.5 0.5,0.5c0.187,-0 0.312,-0.188 0.375,-0.25c0.062,-0.188 0.812,-2.75 1.187,-3.375c0.125,-0.25 0.25,-0.313 0.313,-0.313c0.125,0 0.187,0.25 0.187,0.438l0,8.937c0,0.75 -0.625,1.188 -1.25,1.188c-0.25,-0 -0.562,0.125 -0.562,0.5c-0,0.375 0.312,0.5 0.812,0.5l5.25,-0c0.5,-0 0.5,-0.5 0.5,-0.5c0,-0 0,-0.5 -0.5,-0.5c-0.437,-0 -1,-0.563 -1,-1.125l0,-13c0,-0.5 -0.187,-0.75 -0.625,-0.75c-0.437,-0 -0.812,0.125 -1.187,0.125c-0.625,-0 -0.75,-0 -1.25,-0.125c-0.25,-0 -0.563,0.375 -0.75,0.625l-1.938,6.687" style="fill-rule:nonzero;"/></g><g><path d="M352.48,62.338l0,-6.687c0,-0.313 -0.062,-0.563 -0.375,-0.563c-0.25,0 -0.437,0.063 -0.625,0.313l-1.875,3.625c-0.125,0.125 -0.312,0.312 -0.312,0.75l-0,2.562l-4.063,0c2.563,-2.125 6.563,-9.187 6.625,-9.562c0,-0.063 0.063,-0.125 0.063,-0.188c-0,-0.25 -0.25,-0.437 -0.438,-0.437c-0.312,-0 -1.625,0.125 -2.187,0.125c-0.563,-0 -0.938,-0.125 -1.188,-0.125c-0.312,-0 -0.75,0.125 -0.75,0.625c0,4 -3.25,8.562 -4.062,9.687c-0.125,0.125 -0.25,0.313 -0.25,0.5c-0,0.313 0.25,0.625 0.625,0.625l5.625,0l-0,1.938c-0,0.875 -0.5,1.125 -1,1.125c-0.563,-0 -0.813,0.25 -0.813,0.562c0,0.313 0.125,0.688 0.688,0.688l5.375,-0c0.312,-0 0.625,-0.25 0.625,-0.688c-0,-0.437 -0.375,-0.625 -0.688,-0.625c-0.312,0 -1,-0.187 -1,-1.187l0,-1.813l2.313,0c0.312,0 0.5,-0.25 0.5,-0.625c-0,-0.375 -0.125,-0.625 -0.5,-0.625l-2.313,0" style="fill-rule:nonzero;"/></g><g><path d="M408.052,70.469c0,-0.437 -0.187,-0.5 -0.375,-0.5c-0.25,0 -0.375,0.188 -0.437,0.375c-0.313,0.875 -1,2 -1.938,2c-0.125,0 -0.25,0 -0.375,-0.062l-0.937,-0.313c-0.625,-0.25 -2.125,-0.75 -3.375,-0.75c-0.438,0 -0.813,0.063 -1.188,0.188c0.688,-1.188 3.938,-2.75 4.625,-2.938c2.25,-0.312 4.125,-1.625 4.125,-4.062c0,-1.5 -0.625,-2.5 -1.437,-3.25c-1.625,-1.313 -4,-1.5 -4.688,-1.5c-2.25,-0 -4.062,0.125 -5.687,2c-0.438,0.5 -0.625,1 -0.625,1.5c-0,0.437 0.187,0.937 0.375,1.5c0.375,0.75 1.187,1.312 2.062,1.312c1.563,0 1.75,-1.5 1.75,-2.187c0,-1.438 -1.562,-1.563 -1.562,-2.188c-0,-0.437 0.625,-1.187 2.5,-1.187c2.937,-0 3.937,2.437 3.937,3.187c0,1.125 -0.375,2.188 -1,3.063c-1.125,1.437 -3.187,1.937 -4.75,2.937c-1.75,1.063 -2.937,2.875 -3.5,4.875c0,0.438 0.188,0.938 0.563,1.125c0.062,0.063 0.187,0.063 0.25,0.063c0.687,-0 1.062,-1.938 2.937,-1.938c1.25,0 1.688,1.688 4.5,1.688c1.313,-0 3.75,-0.125 4.25,-4.938" style="fill-rule:nonzero;"/></g><g><path d="M450.949,74.852c-0,0 -0.063,0.25 -0.063,0.438c0,0.25 0.25,0.5 0.5,0.5c0.188,-0 0.313,-0.188 0.375,-0.25c0.063,-0.188 0.813,-2.75 1.188,-3.375c0.125,-0.25 0.25,-0.313 0.312,-0.313c0.125,0 0.188,0.25 0.188,0.438l-0,8.937c-0,0.75 -0.625,1.188 -1.25,1.188c-0.25,-0 -0.563,0.125 -0.563,0.5c0,0.375 0.313,0.5 0.813,0.5l5.25,-0c0.5,-0 0.5,-0.5 0.5,-0.5c-0,-0 -0,-0.5 -0.5,-0.5c-0.438,-0 -1,-0.563 -1,-1.125l-0,-13c-0,-0.5 -0.188,-0.75 -0.625,-0.75c-0.438,-0 -0.813,0.125 -1.188,0.125c-0.625,-0 -0.75,-0 -1.25,-0.125c-0.25,-0 -0.562,0.375 -0.75,0.625l-1.937,6.687" style="fill-rule:nonzero;"/></g><g><path d="M503.655,82.602c0,0 -0.062,0.25 -0.062,0.438c-0,0.25 0.25,0.5 0.5,0.5c0.187,-0 0.312,-0.188 0.375,-0.25c0.062,-0.188 0.812,-2.75 1.187,-3.375c0.125,-0.25 0.25,-0.313 0.313,-0.313c0.125,0 0.187,0.25 0.187,0.438l0,8.937c0,0.75 -0.625,1.188 -1.25,1.188c-0.25,-0 -0.562,0.125 -0.562,0.5c-0,0.375 0.312,0.5 0.812,0.5l5.25,-0c0.5,-0 0.5,-0.5 0.5,-0.5c0,-0 0,-0.5 -0.5,-0.5c-0.437,-0 -1,-0.563 -1,-1.125l0,-13c0,-0.5 -0.187,-0.75 -0.625,-0.75c-0.437,-0 -0.812,0.125 -1.187,0.125c-0.625,-0 -0.75,-0 -1.25,-0.125c-0.25,-0 -0.563,0.375 -0.75,0.625l-1.938,6.687" style="fill-rule:nonzero;"/></g><g><path d="M593.683,85.602l0,-6.687c0,-0.313 -0.062,-0.563 -0.375,-0.563c-0.25,0 -0.437,0.063 -0.625,0.313l-1.875,3.625c-0.125,0.125 -0.312,0.312 -0.312,0.75l-0,2.562l-4.063,0c2.563,-2.125 6.563,-9.187 6.625,-9.562c0,-0.063 0.063,-0.125 0.063,-0.188c-0,-0.25 -0.25,-0.437 -0.438,-0.437c-0.312,-0 -1.625,0.125 -2.187,0.125c-0.563,-0 -0.938,-0.125 -1.188,-0.125c-0.312,-0 -0.75,0.125 -0.75,0.625c0,4 -3.25,8.562 -4.062,9.687c-0.125,0.125 -0.25,0.313 -0.25,0.5c-0,0.313 0.25,0.625 0.625,0.625l5.625,0l-0,1.938c-0,0.875 -0.5,1.125 -1,1.125c-0.563,-0 -0.813,0.25 -0.813,0.562c0,0.313 0.125,0.688 0.688,0.688l5.375,-0c0.312,-0 0.625,-0.25 0.625,-0.688c-0,-0.437 -0.375,-0.625 -0.688,-0.625c-0.312,0 -1,-0.187 -1,-1.187l0,-1.813l2.313,0c0.312,0 0.5,-0.25 0.5,-0.625c-0,-0.375 -0.125,-0.625 -0.5,-0.625l-2.313,0" style="fill-rule:nonzero;"/></g><g><path d="M642.417,75.477c-3.437,0 -4.937,2.313 -4.937,3.625c-0,0.875 0.5,1.938 2.062,2c1.188,0 1.75,-0.75 1.75,-1.562l0,-0.25c-0.062,-0.938 -0.687,-1 -0.812,-1.063c-0.125,-0.062 -0.375,-0.312 -0.375,-0.75c0.125,-0.687 1.062,-0.937 1.312,-0.937c3.188,-0 4.125,1.687 4.125,2.75c0,2.937 -3,3.187 -3.937,3.25c-0.438,-0 -0.875,0.187 -0.875,0.562c-0,0.375 0.562,0.375 0.812,0.375c3.625,0 4.125,1.875 4.125,2.813c0,3.625 -2.937,3.75 -3.687,3.75c-0.375,-0 -1,-0.188 -1.063,-0.5l0,-0.375c0,-0.688 0.188,-1.438 0.25,-2.063c0,-1.125 -0.75,-1.812 -1.875,-1.812l-0.25,-0c-0.437,0.125 -0.875,0.375 -1.187,0.687c-0.438,0.375 -0.563,0.938 -0.563,1.5c0.063,2 1.813,3.688 4.938,3.75l0.375,0c3.062,0 6.25,-1.625 6.25,-4.375c-0,-0.625 -0.125,-1.125 -0.313,-1.5c-0.125,-0.375 -0.375,-0.687 -0.625,-0.937c-0.187,-0.25 -0.437,-0.438 -0.687,-0.625l-0.688,-0.375l-0.375,-0.125c-0.125,-0 -0.187,-0.063 -0.312,-0.063l-0.375,-0.125c-0.188,-0.062 -0.25,0 -0.313,-0.125c-0.062,-0.062 -0.062,-0.125 -0.062,-0.187c-0,-0.125 0.062,-0.25 0.187,-0.25l1,-0.313c0.438,-0.25 0.875,-0.437 1.188,-0.875c0.5,-0.5 0.687,-1.312 0.687,-2c0,-2.937 -3.875,-3.75 -5.25,-3.875l-0.5,0" style="fill-rule:nonzero;"/></g><g><path d="M701.961,86.227c0,-0.437 -0.187,-0.5 -0.375,-0.5c-0.25,0 -0.375,0.188 -0.437,0.375c-0.313,0.875 -1,2 -1.938,2c-0.125,0 -0.25,0 -0.375,-0.062l-0.937,-0.313c-0.625,-0.25 -2.125,-0.75 -3.375,-0.75c-0.438,0 -0.813,0.063 -1.188,0.188c0.688,-1.188 3.938,-2.75 4.625,-2.938c2.25,-0.312 4.125,-1.625 4.125,-4.062c0,-1.5 -0.625,-2.5 -1.437,-3.25c-1.625,-1.313 -4,-1.5 -4.688,-1.5c-2.25,-0 -4.062,0.125 -5.687,2c-0.438,0.5 -0.625,1 -0.625,1.5c-0,0.437 0.187,0.937 0.375,1.5c0.375,0.75 1.187,1.312 2.062,1.312c1.563,0 1.75,-1.5 1.75,-2.187c0,-1.438 -1.562,-1.563 -1.562,-2.188c-0,-0.437 0.625,-1.187 2.5,-1.187c2.937,-0 3.937,2.437 3.937,3.187c0,1.125 -0.375,2.188 -1,3.063c-1.125,1.437 -3.187,1.937 -4.75,2.937c-1.75,1.063 -2.937,2.875 -3.5,4.875c0,0.438 0.188,0.938 0.563,1.125c0.062,0.063 0.187,0.063 0.25,0.063c0.687,-0 1.062,-1.938 2.937,-1.938c1.25,0 1.688,1.688 4.5,1.688c1.313,-0 3.75,-0.125 4.25,-4.938" style="fill-rule:nonzero;"/></g><g><path d="M744.889,82.665c0,-0 -0.062,0.25 -0.062,0.437c-0,0.25 0.25,0.5 0.5,0.5c0.187,0 0.312,-0.187 0.375,-0.25c0.062,-0.187 0.812,-2.75 1.187,-3.375c0.125,-0.25 0.25,-0.312 0.313,-0.312c0.125,-0 0.187,0.25 0.187,0.437l0,8.938c0,0.75 -0.625,1.187 -1.25,1.187c-0.25,0 -0.562,0.125 -0.562,0.5c-0,0.375 0.312,0.5 0.812,0.5l5.25,0c0.5,0 0.5,-0.5 0.5,-0.5c0,0 0,-0.5 -0.5,-0.5c-0.437,0 -1,-0.562 -1,-1.125l0,-13c0,-0.5 -0.187,-0.75 -0.625,-0.75c-0.437,0 -0.812,0.125 -1.187,0.125c-0.625,0 -0.75,0 -1.25,-0.125c-0.25,0 -0.563,0.375 -0.75,0.625l-1.938,6.688" style="fill-rule:nonzero;"/></g><g><path d="M804.505,73.989l-0,-6.688c-0,-0.312 -0.063,-0.562 -0.375,-0.562c-0.25,-0 -0.438,0.062 -0.625,0.312l-1.875,3.625c-0.125,0.125 -0.313,0.313 -0.313,0.75l0,2.563l-4.062,-0c2.562,-2.125 6.562,-9.188 6.625,-9.563c-0,-0.062 0.062,-0.125 0.062,-0.187c0,-0.25 -0.25,-0.438 -0.437,-0.438c-0.313,0 -1.625,0.125 -2.188,0.125c-0.562,0 -0.937,-0.125 -1.187,-0.125c-0.313,0 -0.75,0.125 -0.75,0.625c-0,4 -3.25,8.563 -4.063,9.688c-0.125,0.125 -0.25,0.312 -0.25,0.5c0,0.312 0.25,0.625 0.625,0.625l5.625,-0l0,1.937c0,0.875 -0.5,1.125 -1,1.125c-0.562,0 -0.812,0.25 -0.812,0.563c-0,0.312 0.125,0.687 0.687,0.687l5.375,0c0.313,0 0.625,-0.25 0.625,-0.687c0,-0.438 -0.375,-0.625 -0.687,-0.625c-0.313,-0 -1,-0.188 -1,-1.188l-0,-1.812l2.312,-0c0.313,-0 0.5,-0.25 0.5,-0.625c0,-0.375 -0.125,-0.625 -0.5,-0.625l-2.312,-0" style="fill-rule:nonzero;"/></g><g><path d="M860.077,77.965c-0,-0.438 -0.188,-0.5 -0.375,-0.5c-0.25,-0 -0.375,0.187 -0.438,0.375c-0.312,0.875 -1,2 -1.937,2c-0.125,-0 -0.25,-0 -0.375,-0.063l-0.938,-0.312c-0.625,-0.25 -2.125,-0.75 -3.375,-0.75c-0.437,-0 -0.812,0.062 -1.187,0.187c0.687,-1.187 3.937,-2.75 4.625,-2.937c2.25,-0.313 4.125,-1.625 4.125,-4.063c-0,-1.5 -0.625,-2.5 -1.438,-3.25c-1.625,-1.312 -4,-1.5 -4.687,-1.5c-2.25,0 -4.063,0.125 -5.688,2c-0.437,0.5 -0.625,1 -0.625,1.5c0,0.438 0.188,0.938 0.375,1.5c0.375,0.75 1.188,1.313 2.063,1.313c1.562,-0 1.75,-1.5 1.75,-2.188c-0,-1.437 -1.563,-1.562 -1.563,-2.187c0,-0.438 0.625,-1.188 2.5,-1.188c2.938,0 3.938,2.438 3.938,3.188c-0,1.125 -0.375,2.187 -1,3.062c-1.125,1.438 -3.188,1.938 -4.75,2.938c-1.75,1.062 -2.938,2.875 -3.5,4.875c-0,0.437 0.187,0.937 0.562,1.125c0.063,0.062 0.188,0.062 0.25,0.062c0.688,0 1.063,-1.937 2.938,-1.937c1.25,-0 1.687,1.687 4.5,1.687c1.312,0 3.75,-0.125 4.25,-4.937" style="fill-rule:nonzero;"/></g><g><path d="M903.005,79.962c-0,0 -0.063,0.25 -0.063,0.438c0,0.25 0.25,0.5 0.5,0.5c0.188,-0 0.313,-0.188 0.375,-0.25c0.063,-0.188 0.813,-2.75 1.188,-3.375c0.125,-0.25 0.25,-0.313 0.312,-0.313c0.125,0 0.188,0.25 0.188,0.438l-0,8.937c-0,0.75 -0.625,1.188 -1.25,1.188c-0.25,-0 -0.563,0.125 -0.563,0.5c0,0.375 0.313,0.5 0.813,0.5l5.25,-0c0.5,-0 0.5,-0.5 0.5,-0.5c-0,-0 -0,-0.5 -0.5,-0.5c-0.438,-0 -1,-0.563 -1,-1.125l-0,-13c-0,-0.5 -0.188,-0.75 -0.625,-0.75c-0.438,-0 -0.813,0.125 -1.188,0.125c-0.625,-0 -0.75,-0 -1.25,-0.125c-0.25,-0 -0.562,0.375 -0.75,0.625l-1.937,6.687" style="fill-rule:nonzero;"/></g><g><path d="M955.711,82.665c-0,-0 -0.063,0.25 -0.063,0.437c0,0.25 0.25,0.5 0.5,0.5c0.188,0 0.313,-0.187 0.375,-0.25c0.063,-0.187 0.813,-2.75 1.188,-3.375c0.125,-0.25 0.25,-0.312 0.312,-0.312c0.125,-0 0.188,0.25 0.188,0.437l-0,8.938c-0,0.75 -0.625,1.187 -1.25,1.187c-0.25,0 -0.563,0.125 -0.563,0.5c0,0.375 0.313,0.5 0.813,0.5l5.25,0c0.5,0 0.5,-0.5 0.5,-0.5c-0,0 -0,-0.5 -0.5,-0.5c-0.438,0 -1,-0.562 -1,-1.125l-0,-13c-0,-0.5 -0.188,-0.75 -0.625,-0.75c-0.438,0 -0.813,0.125 -1.188,0.125c-0.625,0 -0.75,0 -1.25,-0.125c-0.25,0 -0.562,0.375 -0.75,0.625l-1.937,6.688" style="fill-rule:nonzero;"/></g><g><path d="M1045.74,85.602l0,-6.687c0,-0.313 -0.062,-0.563 -0.375,-0.563c-0.25,0 -0.437,0.063 -0.625,0.313l-1.875,3.625c-0.125,0.125 -0.312,0.312 -0.312,0.75l-0,2.562l-4.063,0c2.563,-2.125 6.563,-9.187 6.625,-9.562c0,-0.063 0.063,-0.125 0.063,-0.188c-0,-0.25 -0.25,-0.437 -0.438,-0.437c-0.312,-0 -1.625,0.125 -2.187,0.125c-0.563,-0 -0.938,-0.125 -1.188,-0.125c-0.312,-0 -0.75,0.125 -0.75,0.625c0,4 -3.25,8.562 -4.062,9.687c-0.125,0.125 -0.25,0.313 -0.25,0.5c-0,0.313 0.25,0.625 0.625,0.625l5.625,0l-0,1.938c-0,0.875 -0.5,1.125 -1,1.125c-0.563,-0 -0.813,0.25 -0.813,0.562c0,0.313 0.125,0.688 0.688,0.688l5.375,-0c0.312,-0 0.625,-0.25 0.625,-0.688c-0,-0.437 -0.375,-0.625 -0.688,-0.625c-0.312,0 -1,-0.187 -1,-1.187l0,-1.813l2.313,0c0.312,0 0.5,-0.25 0.5,-0.625c-0,-0.375 -0.125,-0.625 -0.5,-0.625l-2.313,0" style="fill-rule:nonzero;"/></g><g><path d="M1094.48,75.477c-3.438,0 -4.938,2.313 -4.938,3.625c0,0.875 0.5,1.938 2.063,2c1.187,0 1.75,-0.75 1.75,-1.562l-0,-0.25c-0.063,-0.938 -0.688,-1 -0.813,-1.063c-0.125,-0.062 -0.375,-0.312 -0.375,-0.75c0.125,-0.687 1.063,-0.937 1.313,-0.937c3.187,-0 4.125,1.687 4.125,2.75c-0,2.937 -3,3.187 -3.938,3.25c-0.437,-0 -0.875,0.187 -0.875,0.562c0,0.375 0.563,0.375 0.813,0.375c3.625,0 4.125,1.875 4.125,2.813c-0,3.625 -2.938,3.75 -3.688,3.75c-0.375,-0 -1,-0.188 -1.062,-0.5l-0,-0.375c-0,-0.688 0.187,-1.438 0.25,-2.063c-0,-1.125 -0.75,-1.812 -1.875,-1.812l-0.25,-0c-0.438,0.125 -0.875,0.375 -1.188,0.687c-0.437,0.375 -0.562,0.938 -0.562,1.5c0.062,2 1.812,3.688 4.937,3.75l0.375,0c3.063,0 6.25,-1.625 6.25,-4.375c0,-0.625 -0.125,-1.125 -0.312,-1.5c-0.125,-0.375 -0.375,-0.687 -0.625,-0.937c-0.188,-0.25 -0.438,-0.438 -0.688,-0.625l-0.687,-0.375l-0.375,-0.125c-0.125,-0 -0.188,-0.063 -0.313,-0.063l-0.375,-0.125c-0.187,-0.062 -0.25,0 -0.312,-0.125c-0.063,-0.062 -0.063,-0.125 -0.063,-0.187c0,-0.125 0.063,-0.25 0.188,-0.25l1,-0.313c0.437,-0.25 0.875,-0.437 1.187,-0.875c0.5,-0.5 0.688,-1.312 0.688,-2c-0,-2.937 -3.875,-3.75 -5.25,-3.875l-0.5,0" style="fill-rule:nonzero;"/></g><g><path d="M1154.02,86.227c0,-0.437 -0.187,-0.5 -0.375,-0.5c-0.25,0 -0.375,0.188 -0.437,0.375c-0.313,0.875 -1,2 -1.938,2c-0.125,0 -0.25,0 -0.375,-0.062l-0.937,-0.313c-0.625,-0.25 -2.125,-0.75 -3.375,-0.75c-0.438,0 -0.813,0.063 -1.188,0.188c0.688,-1.188 3.938,-2.75 4.625,-2.938c2.25,-0.312 4.125,-1.625 4.125,-4.062c0,-1.5 -0.625,-2.5 -1.437,-3.25c-1.625,-1.313 -4,-1.5 -4.688,-1.5c-2.25,-0 -4.062,0.125 -5.687,2c-0.438,0.5 -0.625,1 -0.625,1.5c-0,0.437 0.187,0.937 0.375,1.5c0.375,0.75 1.187,1.312 2.062,1.312c1.563,0 1.75,-1.5 1.75,-2.187c0,-1.438 -1.562,-1.563 -1.562,-2.188c-0,-0.437 0.625,-1.187 2.5,-1.187c2.937,-0 3.937,2.437 3.937,3.187c0,1.125 -0.375,2.188 -1,3.063c-1.125,1.437 -3.187,1.937 -4.75,2.937c-1.75,1.063 -2.937,2.875 -3.5,4.875c0,0.438 0.188,0.938 0.563,1.125c0.062,0.063 0.187,0.063 0.25,0.063c0.687,-0 1.062,-1.938 2.937,-1.938c1.25,0 1.688,1.688 4.5,1.688c1.313,-0 3.75,-0.125 4.25,-4.938" style="fill-rule:nonzero;"/></g><g><path d="M1196.95,82.665c0,-0 -0.062,0.25 -0.062,0.437c-0,0.25 0.25,0.5 0.5,0.5c0.187,0 0.312,-0.187 0.375,-0.25c0.062,-0.187 0.812,-2.75 1.187,-3.375c0.125,-0.25 0.25,-0.312 0.313,-0.312c0.125,-0 0.187,0.25 0.187,0.437l0,8.938c0,0.75 -0.625,1.187 -1.25,1.187c-0.25,0 -0.562,0.125 -0.562,0.5c-0,0.375 0.312,0.5 0.812,0.5l5.25,0c0.5,0 0.5,-0.5 0.5,-0.5c0,0 0,-0.5 -0.5,-0.5c-0.437,0 -1,-0.562 -1,-1.125l0,-13c0,-0.5 -0.187,-0.75 -0.625,-0.75c-0.437,0 -0.812,0.125 -1.187,0.125c-0.625,0 -0.75,0 -1.25,-0.125c-0.25,0 -0.563,0.375 -0.75,0.625l-1.938,6.688" style="fill-rule:nonzero;"/></g><g><path d="M1256.56,85.602l-0,-6.687c-0,-0.313 -0.063,-0.563 -0.375,-0.563c-0.25,0 -0.438,0.063 -0.625,0.313l-1.875,3.625c-0.125,0.125 -0.313,0.312 -0.313,0.75l0,2.562l-4.062,0c2.562,-2.125 6.562,-9.187 6.625,-9.562c-0,-0.063 0.062,-0.125 0.062,-0.188c0,-0.25 -0.25,-0.437 -0.437,-0.437c-0.313,-0 -1.625,0.125 -2.188,0.125c-0.562,-0 -0.937,-0.125 -1.187,-0.125c-0.313,-0 -0.75,0.125 -0.75,0.625c-0,4 -3.25,8.562 -4.063,9.687c-0.125,0.125 -0.25,0.313 -0.25,0.5c0,0.313 0.25,0.625 0.625,0.625l5.625,0l0,1.938c0,0.875 -0.5,1.125 -1,1.125c-0.562,-0 -0.812,0.25 -0.812,0.562c-0,0.313 0.125,0.688 0.687,0.688l5.375,-0c0.313,-0 0.625,-0.25 0.625,-0.688c0,-0.437 -0.375,-0.625 -0.687,-0.625c-0.313,0 -1,-0.187 -1,-1.187l-0,-1.813l2.312,0c0.313,0 0.5,-0.25 0.5,-0.625c0,-0.375 -0.125,-0.625 -0.5,-0.625l-2.312,0" style="fill-rule:nonzero;"/></g><g><path d="M1312.14,86.227c-0,-0.437 -0.188,-0.5 -0.375,-0.5c-0.25,0 -0.375,0.188 -0.438,0.375c-0.312,0.875 -1,2 -1.937,2c-0.125,0 -0.25,0 -0.375,-0.062l-0.938,-0.313c-0.625,-0.25 -2.125,-0.75 -3.375,-0.75c-0.437,0 -0.812,0.063 -1.187,0.188c0.687,-1.188 3.937,-2.75 4.625,-2.938c2.25,-0.312 4.125,-1.625 4.125,-4.062c-0,-1.5 -0.625,-2.5 -1.438,-3.25c-1.625,-1.313 -4,-1.5 -4.687,-1.5c-2.25,-0 -4.063,0.125 -5.688,2c-0.437,0.5 -0.625,1 -0.625,1.5c0,0.437 0.188,0.937 0.375,1.5c0.375,0.75 1.188,1.312 2.063,1.312c1.562,0 1.75,-1.5 1.75,-2.187c-0,-1.438 -1.563,-1.563 -1.563,-2.188c0,-0.437 0.625,-1.187 2.5,-1.187c2.938,-0 3.938,2.437 3.938,3.187c-0,1.125 -0.375,2.188 -1,3.063c-1.125,1.437 -3.188,1.937 -4.75,2.937c-1.75,1.063 -2.938,2.875 -3.5,4.875c-0,0.438 0.187,0.938 0.562,1.125c0.063,0.063 0.188,0.063 0.25,0.063c0.688,-0 1.063,-1.938 2.938,-1.938c1.25,0 1.687,1.688 4.5,1.688c1.312,-0 3.75,-0.125 4.25,-4.938" style="fill-rule:nonzero;"/></g><g><path d="M1355.03,82.665c-0,-0 -0.063,0.25 -0.063,0.437c0,0.25 0.25,0.5 0.5,0.5c0.188,0 0.313,-0.187 0.375,-0.25c0.063,-0.187 0.813,-2.75 1.188,-3.375c0.125,-0.25 0.25,-0.312 0.312,-0.312c0.125,-0 0.188,0.25 0.188,0.437l-0,8.938c-0,0.75 -0.625,1.187 -1.25,1.187c-0.25,0 -0.563,0.125 -0.563,0.5c0,0.375 0.313,0.5 0.813,0.5l5.25,0c0.5,0 0.5,-0.5 0.5,-0.5c-0,0 -0,-0.5 -0.5,-0.5c-0.438,0 -1,-0.562 -1,-1.125l-0,-13c-0,-0.5 -0.188,-0.75 -0.625,-0.75c-0.438,0 -0.813,0.125 -1.188,0.125c-0.625,0 -0.75,0 -1.25,-0.125c-0.25,0 -0.562,0.375 -0.75,0.625l-1.937,6.688" style="fill-rule:nonzero;"/></g><g><path d="M1407.71,82.665c-0,-0 -0.063,0.25 -0.063,0.437c0,0.25 0.25,0.5 0.5,0.5c0.188,0 0.313,-0.187 0.375,-0.25c0.063,-0.187 0.813,-2.75 1.188,-3.375c0.125,-0.25 0.25,-0.312 0.312,-0.312c0.125,-0 0.188,0.25 0.188,0.437l-0,8.938c-0,0.75 -0.625,1.187 -1.25,1.187c-0.25,0 -0.563,0.125 -0.563,0.5c0,0.375 0.313,0.5 0.813,0.5l5.25,0c0.5,0 0.5,-0.5 0.5,-0.5c-0,0 -0,-0.5 -0.5,-0.5c-0.438,0 -1,-0.562 -1,-1.125l-0,-13c-0,-0.5 -0.188,-0.75 -0.625,-0.75c-0.438,0 -0.813,0.125 -1.188,0.125c-0.625,0 -0.75,0 -1.25,-0.125c-0.25,0 -0.562,0.375 -0.75,0.625l-1.937,6.688" style="fill-rule:nonzero;"/></g><g><path d="M1505.11,83.415c0,-4.313 -3,-7.875 -6.75,-7.875c-3.687,-0 -6.687,3.562 -6.687,7.875c-0,4.312 3,7.875 6.687,7.875c3.75,-0 6.75,-3.563 6.75,-7.875m-6.75,-6.875c1.313,-0 3,2.937 3,6.625c0,3.687 -1.687,6.687 -3,6.687c-1.312,0 -2.937,-3 -2.937,-6.687c-0,-3.688 1.625,-6.625 2.937,-6.625" style="fill-rule:nonzero;"/></g><g><path d="M138.375,173.88c5.322,0 9.668,4.306 9.668,9.628c0,5.322 -4.346,9.669 -9.668,9.669c-5.322,0 -9.669,-4.347 -9.669,-9.669c-0,-5.322 4.347,-9.628 9.669,-9.628m1.218,2.803l-1.178,0c-0.609,2.235 -1.015,2.519 -3.778,2.885l0,1.259l3.169,0l-0,10.278l1.787,0l0,-14.422m-1.218,17.794c6.053,0 10.968,-4.916 10.968,-10.969c0,-6.053 -4.915,-10.928 -10.968,-10.928c-6.053,0 -10.969,4.875 -10.969,10.928c-0,6.053 4.916,10.969 10.969,10.969" style="fill-rule:nonzero;"/></g><g><path d="M349.158,173.88c5.322,0 9.669,4.306 9.669,9.628c0,5.322 -4.347,9.669 -9.669,9.669c-5.322,0 -9.668,-4.347 -9.668,-9.669c-0,-5.322 4.346,-9.628 9.668,-9.628m0,20.597c6.053,0 10.969,-4.916 10.969,-10.969c0,-6.053 -4.916,-10.928 -10.969,-10.928c-6.053,0 -10.968,4.875 -10.968,10.928c-0,6.053 4.915,10.969 10.968,10.969m4.835,-14.544c-0,-2.437 -1.869,-4.225 -4.591,-4.225c-2.966,0 -4.672,1.503 -4.753,4.997l1.787,0c0.122,-2.397 1.138,-3.412 2.885,-3.412c1.625,-0 2.844,1.137 2.844,2.681c-0,1.137 -0.65,2.112 -1.95,2.844l-1.869,1.056c-3.006,1.706 -3.86,3.087 -4.022,6.256l9.587,0l0,-1.787l-7.596,-0c0.203,-1.178 0.853,-1.91 2.6,-2.966l2.031,-1.097c2.031,-1.056 3.047,-2.559 3.047,-4.347" style="fill-rule:nonzero;"/></g><g><path d="M590.364,179.119c5.322,0 9.669,4.306 9.669,9.628c0,5.322 -4.347,9.669 -9.669,9.669c-5.321,0 -9.668,-4.347 -9.668,-9.669c-0,-5.322 4.347,-9.628 9.668,-9.628m0,20.597c6.054,0 10.969,-4.916 10.969,-10.969c0,-6.053 -4.915,-10.928 -10.969,-10.928c-6.053,0 -10.968,4.875 -10.968,10.928c-0,6.053 4.915,10.969 10.968,10.969m4.835,-8.003c-0,-1.747 -0.731,-2.763 -2.438,-3.372c1.341,-0.528 1.991,-1.462 1.991,-2.884c-0,-2.478 -1.625,-3.982 -4.388,-3.982c-2.884,0 -4.428,1.585 -4.509,4.672l1.788,0c0.04,-2.153 0.934,-3.087 2.762,-3.087c1.584,-0 2.519,0.934 2.519,2.437c-0,1.544 -0.65,2.194 -3.535,2.194l0,1.503l0.975,0c1.991,0 3.007,0.935 3.007,2.519c-0,1.828 -1.138,2.884 -3.007,2.884c-1.95,0 -2.884,-0.975 -3.006,-3.047l-1.787,0c0.203,3.21 1.787,4.632 4.753,4.632c2.965,-0 4.875,-1.747 4.875,-4.469" style="fill-rule:nonzero;"/></g><g><path d="M797.18,189.342l4.509,-6.297l0,6.297l-4.509,-0m4.022,-11.782c5.322,0 9.668,4.307 9.668,9.629c0,5.321 -4.346,9.668 -9.668,9.668c-5.322,0 -9.669,-4.347 -9.669,-9.668c-0,-5.322 4.347,-9.629 9.669,-9.629m4.387,11.782l-2.112,-0l-0,-9.344l-1.341,-0l-6.541,9.059l0,1.91l6.094,-0l0,3.453l1.788,-0l-0,-3.453l2.112,-0l0,-1.625m-4.387,8.815c6.053,0 10.968,-4.915 10.968,-10.968c0,-6.054 -4.915,-10.929 -10.968,-10.929c-6.053,0 -10.969,4.875 -10.969,10.929c-0,6.053 4.916,10.968 10.969,10.968" style="fill-rule:nonzero;"/></g><g><path d="M1042.42,200.81c5.322,0 9.669,4.307 9.669,9.629c0,5.321 -4.347,9.668 -9.669,9.668c-5.322,0 -9.668,-4.347 -9.668,-9.668c-0,-5.322 4.346,-9.629 9.668,-9.629m4.713,12.229c-0,-2.844 -1.91,-4.713 -4.672,-4.713c-1.016,0 -1.828,0.244 -2.641,0.853l0.569,-3.697l5.972,0l-0,-1.787l-7.434,-0l-1.057,7.556l1.625,0c0.853,-1.016 1.544,-1.341 2.641,-1.341c1.95,0 3.169,1.219 3.169,3.372c-0,2.072 -1.219,3.25 -3.169,3.25c-1.544,0 -2.519,-0.812 -2.925,-2.437l-1.788,-0c0.569,2.884 2.194,4.022 4.754,4.022c2.925,-0 4.956,-2.032 4.956,-5.078m-4.713,8.368c6.053,0 10.969,-4.915 10.969,-10.968c0,-6.054 -4.916,-10.929 -10.969,-10.929c-6.053,0 -10.968,4.875 -10.968,10.929c-0,6.053 4.915,10.968 10.968,10.968" style="fill-rule:nonzero;"/></g><g><path d="M1253.24,238.779c5.322,0 9.669,4.306 9.669,9.628c-0,5.322 -4.347,9.669 -9.669,9.669c-5.322,0 -9.669,-4.347 -9.669,-9.669c0,-5.322 4.347,-9.628 9.669,-9.628m2.925,12.513c0,1.828 -1.219,3.047 -2.884,3.047c-1.666,-0 -2.925,-1.3 -2.925,-3.129c-0,-1.787 1.218,-2.965 3.006,-2.965c1.706,-0 2.803,1.137 2.803,3.047m1.828,-0.122c0,-2.681 -1.828,-4.51 -4.428,-4.51c-1.422,0 -2.519,0.569 -3.291,1.625c0,-3.534 1.138,-5.484 3.21,-5.484c1.259,0 2.112,0.813 2.397,2.194l1.787,-0c-0.325,-2.356 -1.869,-3.778 -4.062,-3.778c-3.372,-0 -5.16,2.843 -5.16,7.84c0,4.51 1.544,6.866 4.835,6.866c2.722,-0 4.712,-1.95 4.712,-4.753m-4.753,8.206c6.053,0 10.969,-4.916 10.969,-10.969c-0,-6.053 -4.916,-10.928 -10.969,-10.928c-6.053,0 -10.969,4.875 -10.969,10.928c0,6.053 4.916,10.969 10.969,10.969" style="fill-rule:nonzero;"/></g><g><path d="M135.214,68.04c5.563,-0 12.375,-5.125 12.375,-10.438c0,-3.187 -2.5,-5.187 -6.062,-5.187c-6.875,-0 -12.375,5.062 -12.375,10.437c-0,3.25 2.687,5.188 6.062,5.188" style="fill-rule:nonzero;"/></g><g><path d="M166.802,65.29c-0,-0 -0.188,-3.75 -0.188,-6.25c0,-1 0.063,-1.75 0.125,-2c0.438,-1.25 2.938,-3.063 4.375,-3.063c1.813,0 2.563,2.063 2.563,3.625c-0,3.375 -2.875,6.75 -5.563,8.438c-0.25,0.125 -0.437,0.187 -0.625,0.187c-0.562,0 -0.687,-0.625 -0.687,-0.937m-2.188,5.562c0.188,0.25 0.375,0.313 0.563,0.313c0.187,-0 0.375,-0.125 0.375,-0.125c1.875,-1.063 3.375,-2.75 4.937,-3.813c5.563,-3.875 7.5,-7.687 7.5,-10.562c0,-3.563 -2.75,-5.813 -5.625,-6c-1.062,-0 -2.562,0.5 -3.437,1.062c-0.375,0.313 -1.063,0.875 -1.375,0.875c-0.125,0 -0.188,0 -0.313,-0.062c-0.437,-0.188 -0.687,-0.625 -0.687,-1.063c0.062,-1.375 0.437,-16.375 0.437,-17.625c0,-0.687 -0.562,-1.062 -1.187,-1.062c-0.875,-0 -1.875,0.625 -1.938,1.75c0,-0 0.25,35.687 0.75,36.312" style="fill-rule:nonzero;"/></g><g><path d="M187.913,68.04c5.563,-0 12.375,-5.125 12.375,-10.438c0,-3.187 -2.5,-5.187 -6.062,-5.187c-6.875,-0 -12.375,5.062 -12.375,10.437c-0,3.25 2.687,5.188 6.062,5.188" style="fill-rule:nonzero;"/></g><g><path d="M240.618,75.79c5.563,-0 12.375,-5.125 12.375,-10.438c0,-3.187 -2.5,-5.187 -6.062,-5.187c-6.875,-0 -12.375,5.062 -12.375,10.437c-0,3.25 2.687,5.188 6.062,5.188" style="fill-rule:nonzero;"/></g><g><path d="M278.304,78.54c-0.375,1.25 -3.313,2.5 -4.75,2.5c-0.375,-0 -0.688,-0.125 -0.75,-0.313c-0.125,-0.25 -0.188,-1.625 -0.188,-3.125c0,-1.937 0.063,-4.125 0.188,-4.625c0.125,-1.062 3,-2.375 4.562,-2.375c0.438,0 0.813,0.125 0.938,0.375c0.125,0.313 0.25,1.875 0.25,3.563c-0,1.687 -0.125,3.437 -0.25,4m4.312,-10.188c0.438,-0.187 0.75,-0.687 0.75,-1.062l0,-4.438c0,-0.312 -0.187,-0.5 -0.437,-0.5c-0.125,0 -0.188,0 -0.313,0.063c0,-0 -1.25,0.5 -1.562,0.562c-0.438,0 -0.875,-0.312 -0.875,-0.812l-0,-7.625c-0,-0.375 -0.375,-0.688 -0.875,-0.688c-0.625,0 -1,0.313 -1,0.688l-0,8.125c-0.063,0.625 -0.25,1.437 -0.813,1.812c-0.75,0.438 -2.875,1.313 -3.937,1.563c-0.563,-0 -0.75,-0.75 -0.75,-1.25l-0,-7.5c-0,-0.375 -0.438,-0.688 -0.875,-0.688c-0.625,0 -1,0.313 -1,0.688l-0,8.437c-0,0.875 -0.375,1.5 -0.75,1.688c-0.375,0.187 -1.625,0.687 -1.625,0.687c-0.438,0.125 -0.75,0.625 -0.75,1l-0,4.438c-0,0.375 0.187,0.562 0.5,0.562c0.25,0 1.437,-0.562 1.625,-0.687c0.062,-0 0.125,-0.063 0.187,-0.063c0.438,0 0.813,0.625 0.813,1.125l-0,6.188c-0,0.687 -0.313,1.25 -0.688,1.437c-0.375,0.125 -1.687,0.688 -1.687,0.688c-0.438,0.125 -0.75,0.625 -0.75,1l-0,4.437c-0,0.375 0.187,0.563 0.5,0.563c0.062,-0 0.187,-0.063 0.25,-0.063c-0,0 0.875,-0.375 1.437,-0.562c0.063,-0.063 0.125,-0.063 0.188,-0.063c0.437,0 0.75,0.688 0.75,1l-0,7.688c-0,0.375 0.375,0.687 0.812,0.687c0.625,0 1.063,-0.312 1.063,-0.687l-0,-8.688c-0,-0.812 0.312,-1.25 0.625,-1.375l3.812,-1.562c0.063,-0 0.188,-0.063 0.25,-0.063c0.5,0 0.813,0.75 0.813,1.125l-0,7.813c-0,0.375 0.375,0.687 0.812,0.687c0.688,0 1.063,-0.312 1.063,-0.687l-0,-8.875c-0,-0.5 0.25,-1.25 0.687,-1.438c0.438,-0.187 1.75,-0.687 1.75,-0.687c0.438,-0.188 0.75,-0.688 0.75,-1.063l0,-4.437c0,-0.313 -0.187,-0.5 -0.437,-0.5c-0.125,-0 -0.188,-0 -0.313,0.062l-1.625,0.625c-0.375,0 -0.812,-0.375 -0.812,-1.125l-0,-5.812c-0,-0.438 0.312,-1.625 0.812,-1.813l1.625,-0.625" style="fill-rule:nonzero;"/></g><g><path d="M293.293,83.54c5.563,-0 12.375,-5.125 12.375,-10.438c0,-3.187 -2.5,-5.187 -6.062,-5.187c-6.875,-0 -12.375,5.062 -12.375,10.437c-0,3.25 2.687,5.188 6.062,5.188" style="fill-rule:nonzero;"/></g><g><path d="M345.999,91.29c5.562,-0 12.375,-5.125 12.375,-10.438c-0,-3.187 -2.5,-5.187 -6.063,-5.187c-6.875,-0 -12.375,5.062 -12.375,10.437c0,3.25 2.688,5.188 6.063,5.188" style="fill-rule:nonzero;"/></g><g><path d="M398.702,99.04c5.563,-0 12.375,-5.125 12.375,-10.438c0,-3.187 -2.5,-5.187 -6.062,-5.187c-6.875,-0 -12.375,5.062 -12.375,10.437c-0,3.25 2.687,5.188 6.062,5.188" style="fill-rule:nonzero;"/></g><g><path d="M436.389,101.79c-0.375,1.25 -3.312,2.5 -4.75,2.5c-0.375,-0 -0.687,-0.125 -0.75,-0.313c-0.125,-0.25 -0.187,-1.625 -0.187,-3.125c-0,-1.937 0.062,-4.125 0.187,-4.625c0.125,-1.062 3,-2.375 4.563,-2.375c0.437,0 0.812,0.125 0.937,0.375c0.125,0.313 0.25,1.875 0.25,3.563c0,1.687 -0.125,3.437 -0.25,4m4.313,-10.188c0.437,-0.187 0.75,-0.687 0.75,-1.062l-0,-4.438c-0,-0.312 -0.188,-0.5 -0.438,-0.5c-0.125,0 -0.187,0 -0.312,0.063c-0,-0 -1.25,0.5 -1.563,0.562c-0.437,0 -0.875,-0.312 -0.875,-0.812l0,-7.625c0,-0.375 -0.375,-0.688 -0.875,-0.688c-0.625,0 -1,0.313 -1,0.688l0,8.125c-0.062,0.625 -0.25,1.437 -0.812,1.812c-0.75,0.438 -2.875,1.313 -3.938,1.563c-0.562,-0 -0.75,-0.75 -0.75,-1.25l0,-7.5c0,-0.375 -0.437,-0.688 -0.875,-0.688c-0.625,0 -1,0.313 -1,0.688l0,8.437c0,0.875 -0.375,1.5 -0.75,1.688c-0.375,0.187 -1.625,0.687 -1.625,0.687c-0.437,0.125 -0.75,0.625 -0.75,1l0,4.438c0,0.375 0.188,0.562 0.5,0.562c0.25,0 1.438,-0.562 1.625,-0.687c0.063,-0 0.125,-0.063 0.188,-0.063c0.437,0 0.812,0.625 0.812,1.125l0,6.188c0,0.687 -0.312,1.25 -0.687,1.437c-0.375,0.125 -1.688,0.688 -1.688,0.688c-0.437,0.125 -0.75,0.625 -0.75,1l0,4.437c0,0.375 0.188,0.563 0.5,0.563c0.063,-0 0.188,-0.063 0.25,-0.063c0,0 0.875,-0.375 1.438,-0.562c0.062,-0.063 0.125,-0.063 0.187,-0.063c0.438,0 0.75,0.688 0.75,1l0,7.688c0,0.375 0.375,0.687 0.813,0.687c0.625,0 1.062,-0.312 1.062,-0.687l0,-8.688c0,-0.812 0.313,-1.25 0.625,-1.375l3.813,-1.562c0.062,-0 0.187,-0.063 0.25,-0.063c0.5,0 0.812,0.75 0.812,1.125l0,7.813c0,0.375 0.375,0.687 0.813,0.687c0.687,0 1.062,-0.312 1.062,-0.687l0,-8.875c0,-0.5 0.25,-1.25 0.688,-1.438c0.437,-0.187 1.75,-0.687 1.75,-0.687c0.437,-0.188 0.75,-0.688 0.75,-1.063l-0,-4.437c-0,-0.313 -0.188,-0.5 -0.438,-0.5c-0.125,-0 -0.187,-0 -0.312,0.062l-1.625,0.625c-0.375,0 -0.813,-0.375 -0.813,-1.125l0,-5.812c0,-0.438 0.313,-1.625 0.813,-1.813l1.625,-0.625" style="fill-rule:nonzero;"/></g><g><path d="M451.377,106.79c5.562,-0 12.375,-5.125 12.375,-10.438c-0,-3.187 -2.5,-5.187 -6.063,-5.187c-6.875,-0 -12.375,5.062 -12.375,10.437c0,3.25 2.688,5.188 6.063,5.188" style="fill-rule:nonzero;"/></g><g><path d="M489.093,109.54c-0.375,1.25 -3.313,2.5 -4.75,2.5c-0.375,-0 -0.688,-0.125 -0.75,-0.313c-0.125,-0.25 -0.188,-1.625 -0.188,-3.125c0,-1.937 0.063,-4.125 0.188,-4.625c0.125,-1.062 3,-2.375 4.562,-2.375c0.438,0 0.813,0.125 0.938,0.375c0.125,0.313 0.25,1.875 0.25,3.563c-0,1.687 -0.125,3.437 -0.25,4m4.312,-10.188c0.438,-0.187 0.75,-0.687 0.75,-1.062l0,-4.438c0,-0.312 -0.187,-0.5 -0.437,-0.5c-0.125,0 -0.188,0 -0.313,0.063c0,-0 -1.25,0.5 -1.562,0.562c-0.438,0 -0.875,-0.312 -0.875,-0.812l-0,-7.625c-0,-0.375 -0.375,-0.688 -0.875,-0.688c-0.625,0 -1,0.313 -1,0.688l-0,8.125c-0.063,0.625 -0.25,1.437 -0.813,1.812c-0.75,0.438 -2.875,1.313 -3.937,1.563c-0.563,-0 -0.75,-0.75 -0.75,-1.25l-0,-7.5c-0,-0.375 -0.438,-0.688 -0.875,-0.688c-0.625,0 -1,0.313 -1,0.688l-0,8.437c-0,0.875 -0.375,1.5 -0.75,1.688c-0.375,0.187 -1.625,0.687 -1.625,0.687c-0.438,0.125 -0.75,0.625 -0.75,1l-0,4.438c-0,0.375 0.187,0.562 0.5,0.562c0.25,0 1.437,-0.562 1.625,-0.687c0.062,-0 0.125,-0.063 0.187,-0.063c0.438,0 0.813,0.625 0.813,1.125l-0,6.188c-0,0.687 -0.313,1.25 -0.688,1.437c-0.375,0.125 -1.687,0.688 -1.687,0.688c-0.438,0.125 -0.75,0.625 -0.75,1l-0,4.437c-0,0.375 0.187,0.563 0.5,0.563c0.062,-0 0.187,-0.063 0.25,-0.063c-0,0 0.875,-0.375 1.437,-0.562c0.063,-0.063 0.125,-0.063 0.188,-0.063c0.437,0 0.75,0.688 0.75,1l-0,7.688c-0,0.375 0.375,0.687 0.812,0.687c0.625,0 1.063,-0.312 1.063,-0.687l-0,-8.688c-0,-0.812 0.312,-1.25 0.625,-1.375l3.812,-1.562c0.063,-0 0.188,-0.063 0.25,-0.063c0.5,0 0.813,0.75 0.813,1.125l-0,7.813c-0,0.375 0.375,0.687 0.812,0.687c0.688,0 1.063,-0.312 1.063,-0.687l-0,-8.875c-0,-0.5 0.25,-1.25 0.687,-1.438c0.438,-0.187 1.75,-0.687 1.75,-0.687c0.438,-0.188 0.75,-0.688 0.75,-1.063l0,-4.437c0,-0.313 -0.187,-0.5 -0.437,-0.5c-0.125,-0 -0.188,-0 -0.313,0.062l-1.625,0.625c-0.375,0 -0.812,-0.375 -0.812,-1.125l-0,-5.812c-0,-0.438 0.312,-1.625 0.812,-1.813l1.625,-0.625" style="fill-rule:nonzero;"/></g><g><path d="M504.083,114.54c5.563,-0 12.375,-5.125 12.375,-10.438c0,-3.187 -2.5,-5.187 -6.062,-5.187c-6.875,-0 -12.375,5.062 -12.375,10.437c-0,3.25 2.687,5.188 6.062,5.188" style="fill-rule:nonzero;"/></g><g><path d="M569.08,112.04c0,-0.875 3.813,-2.5 5.313,-2.5c0.375,-0 0.562,0.062 0.562,0.312l0,6.438c0,1.125 -3.562,2.562 -5.125,2.562c-0.437,0 -0.75,-0.125 -0.75,-0.375l0,-6.437m6.5,-8.875c-0.125,-0 -0.187,0.062 -0.25,0.062c0,0 -4,1.438 -5.625,1.438c-0.375,-0 -0.625,-0.063 -0.625,-0.313l0,-10.437c0,-0.438 -0.375,-0.75 -0.75,-0.75l-0.812,-0c-0.438,-0 -0.75,0.312 -0.75,0.75l-0,32.187c-0,0.375 0.187,0.563 0.5,0.563c0.062,-0 0.375,-0.063 0.437,-0.125c0.875,-0.375 4.375,-1.875 6.188,-1.875c0.625,-0 1.062,0.187 1.062,0.687l0,9.313c0,0.437 0.313,0.75 0.75,0.75l0.813,-0c0.375,-0 0.75,-0.313 0.75,-0.75l-0,-31.375c-0,-0.313 -0.25,-0.5 -0.5,-0.5c-0.063,-0 -0.188,-0 -0.25,0.062l-0.938,0.313" style="fill-rule:nonzero;"/></g><g><path d="M587.205,122.29c5.563,-0 12.375,-5.125 12.375,-10.438c-0,-3.187 -2.5,-5.187 -6.062,-5.187c-6.875,-0 -12.375,5.062 -12.375,10.437c-0,3.25 2.687,5.188 6.062,5.188" style="fill-rule:nonzero;"/></g><g><path d="M618.799,119.54c-0,-0 -0.188,-3.75 -0.188,-6.25c0,-1 0.063,-1.75 0.125,-2c0.438,-1.25 2.938,-3.063 4.375,-3.063c1.813,0 2.563,2.063 2.563,3.625c-0,3.375 -2.875,6.75 -5.563,8.438c-0.25,0.125 -0.437,0.187 -0.625,0.187c-0.562,0 -0.687,-0.625 -0.687,-0.937m-2.188,5.562c0.188,0.25 0.375,0.313 0.563,0.313c0.187,-0 0.375,-0.125 0.375,-0.125c1.875,-1.063 3.375,-2.75 4.937,-3.813c5.563,-3.875 7.5,-7.687 7.5,-10.562c0,-3.563 -2.75,-5.813 -5.625,-6c-1.062,-0 -2.562,0.5 -3.437,1.062c-0.375,0.313 -1.063,0.875 -1.375,0.875c-0.125,0 -0.188,0 -0.313,-0.062c-0.437,-0.188 -0.687,-0.625 -0.687,-1.063c0.062,-1.375 0.437,-16.375 0.437,-17.625c0,-0.687 -0.562,-1.062 -1.187,-1.062c-0.875,-0 -1.875,0.625 -1.938,1.75c0,-0 0.25,35.687 0.75,36.312" style="fill-rule:nonzero;"/></g><g><path d="M639.908,122.29c5.563,-0 12.375,-5.125 12.375,-10.438c0,-3.187 -2.5,-5.187 -6.062,-5.187c-6.875,-0 -12.375,5.062 -12.375,10.437c-0,3.25 2.687,5.188 6.062,5.188" style="fill-rule:nonzero;"/></g><g><path d="M692.614,130.04c5.563,-0 12.375,-5.125 12.375,-10.438c0,-3.187 -2.5,-5.187 -6.062,-5.187c-6.875,-0 -12.375,5.062 -12.375,10.437c-0,3.25 2.687,5.188 6.062,5.188" style="fill-rule:nonzero;"/></g><g><path d="M730.33,132.79c-0.375,1.25 -3.313,2.5 -4.75,2.5c-0.375,-0 -0.688,-0.125 -0.75,-0.313c-0.125,-0.25 -0.188,-1.625 -0.188,-3.125c0,-1.937 0.063,-4.125 0.188,-4.625c0.125,-1.062 3,-2.375 4.562,-2.375c0.438,0 0.813,0.125 0.938,0.375c0.125,0.313 0.25,1.875 0.25,3.563c-0,1.687 -0.125,3.437 -0.25,4m4.312,-10.188c0.438,-0.187 0.75,-0.687 0.75,-1.062l0,-4.438c0,-0.312 -0.187,-0.5 -0.437,-0.5c-0.125,0 -0.188,0 -0.313,0.063c0,-0 -1.25,0.5 -1.562,0.562c-0.438,0 -0.875,-0.312 -0.875,-0.812l-0,-7.625c-0,-0.375 -0.375,-0.688 -0.875,-0.688c-0.625,0 -1,0.313 -1,0.688l-0,8.125c-0.063,0.625 -0.25,1.437 -0.813,1.812c-0.75,0.438 -2.875,1.313 -3.937,1.563c-0.563,-0 -0.75,-0.75 -0.75,-1.25l-0,-7.5c-0,-0.375 -0.438,-0.688 -0.875,-0.688c-0.625,0 -1,0.313 -1,0.688l-0,8.437c-0,0.875 -0.375,1.5 -0.75,1.688c-0.375,0.187 -1.625,0.687 -1.625,0.687c-0.438,0.125 -0.75,0.625 -0.75,1l-0,4.438c-0,0.375 0.187,0.562 0.5,0.562c0.25,0 1.437,-0.562 1.625,-0.687c0.062,-0 0.125,-0.063 0.187,-0.063c0.438,0 0.813,0.625 0.813,1.125l-0,6.188c-0,0.687 -0.313,1.25 -0.688,1.437c-0.375,0.125 -1.687,0.688 -1.687,0.688c-0.438,0.125 -0.75,0.625 -0.75,1l-0,4.437c-0,0.375 0.187,0.563 0.5,0.563c0.062,-0 0.187,-0.063 0.25,-0.063c-0,0 0.875,-0.375 1.437,-0.562c0.063,-0.063 0.125,-0.063 0.188,-0.063c0.437,0 0.75,0.688 0.75,1l-0,7.688c-0,0.375 0.375,0.687 0.812,0.687c0.625,0 1.063,-0.312 1.063,-0.687l-0,-8.688c-0,-0.812 0.312,-1.25 0.625,-1.375l3.812,-1.562c0.063,-0 0.188,-0.063 0.25,-0.063c0.5,0 0.813,0.75 0.813,1.125l-0,7.813c-0,0.375 0.375,0.687 0.812,0.687c0.688,0 1.063,-0.312 1.063,-0.687l-0,-8.875c-0,-0.5 0.25,-1.25 0.687,-1.438c0.438,-0.187 1.75,-0.687 1.75,-0.687c0.438,-0.188 0.75,-0.688 0.75,-1.063l0,-4.437c0,-0.313 -0.187,-0.5 -0.437,-0.5c-0.125,-0 -0.188,-0 -0.313,0.062l-1.625,0.625c-0.375,0 -0.812,-0.375 -0.812,-1.125l-0,-5.812c-0,-0.438 0.312,-1.625 0.812,-1.813l1.625,-0.625" style="fill-rule:nonzero;"/></g><g><path d="M745.321,137.79c5.562,-0 12.375,-5.125 12.375,-10.438c-0,-3.187 -2.5,-5.187 -6.063,-5.187c-6.875,-0 -12.375,5.062 -12.375,10.437c0,3.25 2.688,5.188 6.063,5.188" style="fill-rule:nonzero;"/></g><g><path d="M798.024,145.54c5.562,-0 12.375,-5.125 12.375,-10.438c-0,-3.187 -2.5,-5.187 -6.063,-5.187c-6.875,-0 -12.375,5.062 -12.375,10.437c0,3.25 2.688,5.188 6.063,5.188" style="fill-rule:nonzero;"/></g><g><path d="M850.73,153.29c5.562,-0 12.375,-5.125 12.375,-10.438c-0,-3.187 -2.5,-5.187 -6.063,-5.187c-6.875,-0 -12.375,5.062 -12.375,10.437c0,3.25 2.688,5.188 6.063,5.188" style="fill-rule:nonzero;"/></g><g><path d="M888.445,156.04c-0.375,1.25 -3.312,2.5 -4.75,2.5c-0.375,-0 -0.687,-0.125 -0.75,-0.313c-0.125,-0.25 -0.187,-1.625 -0.187,-3.125c-0,-1.937 0.062,-4.125 0.187,-4.625c0.125,-1.062 3,-2.375 4.563,-2.375c0.437,0 0.812,0.125 0.937,0.375c0.125,0.313 0.25,1.875 0.25,3.563c0,1.687 -0.125,3.437 -0.25,4m4.313,-10.188c0.437,-0.187 0.75,-0.687 0.75,-1.062l-0,-4.438c-0,-0.312 -0.188,-0.5 -0.438,-0.5c-0.125,0 -0.187,0 -0.312,0.063c-0,-0 -1.25,0.5 -1.563,0.562c-0.437,0 -0.875,-0.312 -0.875,-0.812l0,-7.625c0,-0.375 -0.375,-0.688 -0.875,-0.688c-0.625,0 -1,0.313 -1,0.688l0,8.125c-0.062,0.625 -0.25,1.437 -0.812,1.812c-0.75,0.438 -2.875,1.313 -3.938,1.563c-0.562,-0 -0.75,-0.75 -0.75,-1.25l0,-7.5c0,-0.375 -0.437,-0.688 -0.875,-0.688c-0.625,0 -1,0.313 -1,0.688l0,8.437c0,0.875 -0.375,1.5 -0.75,1.688c-0.375,0.187 -1.625,0.687 -1.625,0.687c-0.437,0.125 -0.75,0.625 -0.75,1l0,4.438c0,0.375 0.188,0.562 0.5,0.562c0.25,0 1.438,-0.562 1.625,-0.687c0.063,-0 0.125,-0.063 0.188,-0.063c0.437,0 0.812,0.625 0.812,1.125l0,6.188c0,0.687 -0.312,1.25 -0.687,1.437c-0.375,0.125 -1.688,0.688 -1.688,0.688c-0.437,0.125 -0.75,0.625 -0.75,1l0,4.437c0,0.375 0.188,0.563 0.5,0.563c0.063,-0 0.188,-0.063 0.25,-0.063c0,0 0.875,-0.375 1.438,-0.562c0.062,-0.063 0.125,-0.063 0.187,-0.063c0.438,0 0.75,0.688 0.75,1l0,7.688c0,0.375 0.375,0.687 0.813,0.687c0.625,0 1.062,-0.312 1.062,-0.687l0,-8.688c0,-0.812 0.313,-1.25 0.625,-1.375l3.813,-1.562c0.062,-0 0.187,-0.063 0.25,-0.063c0.5,0 0.812,0.75 0.812,1.125l0,7.813c0,0.375 0.375,0.687 0.813,0.687c0.687,0 1.062,-0.312 1.062,-0.687l0,-8.875c0,-0.5 0.25,-1.25 0.688,-1.438c0.437,-0.187 1.75,-0.687 1.75,-0.687c0.437,-0.188 0.75,-0.688 0.75,-1.063l-0,-4.437c-0,-0.313 -0.188,-0.5 -0.438,-0.5c-0.125,-0 -0.187,-0 -0.312,0.062l-1.625,0.625c-0.375,0 -0.813,-0.375 -0.813,-1.125l0,-5.812c0,-0.438 0.313,-1.625 0.813,-1.813l1.625,-0.625" style="fill-rule:nonzero;"/></g><g><path d="M903.436,161.04c5.563,-0 12.375,-5.125 12.375,-10.438c0,-3.187 -2.5,-5.187 -6.062,-5.187c-6.875,-0 -12.375,5.062 -12.375,10.437c-0,3.25 2.687,5.188 6.062,5.188" style="fill-rule:nonzero;"/></g><g><path d="M941.152,163.79c-0.375,1.25 -3.313,2.5 -4.75,2.5c-0.375,-0 -0.688,-0.125 -0.75,-0.313c-0.125,-0.25 -0.188,-1.625 -0.188,-3.125c0,-1.937 0.063,-4.125 0.188,-4.625c0.125,-1.062 3,-2.375 4.562,-2.375c0.438,0 0.813,0.125 0.938,0.375c0.125,0.313 0.25,1.875 0.25,3.563c-0,1.687 -0.125,3.437 -0.25,4m4.312,-10.188c0.438,-0.187 0.75,-0.687 0.75,-1.062l0,-4.438c0,-0.312 -0.187,-0.5 -0.437,-0.5c-0.125,0 -0.188,0 -0.313,0.063c0,-0 -1.25,0.5 -1.562,0.562c-0.438,0 -0.875,-0.312 -0.875,-0.812l-0,-7.625c-0,-0.375 -0.375,-0.688 -0.875,-0.688c-0.625,0 -1,0.313 -1,0.688l-0,8.125c-0.063,0.625 -0.25,1.437 -0.813,1.812c-0.75,0.438 -2.875,1.313 -3.937,1.563c-0.563,-0 -0.75,-0.75 -0.75,-1.25l-0,-7.5c-0,-0.375 -0.438,-0.688 -0.875,-0.688c-0.625,0 -1,0.313 -1,0.688l-0,8.437c-0,0.875 -0.375,1.5 -0.75,1.688c-0.375,0.187 -1.625,0.687 -1.625,0.687c-0.438,0.125 -0.75,0.625 -0.75,1l-0,4.438c-0,0.375 0.187,0.562 0.5,0.562c0.25,0 1.437,-0.562 1.625,-0.687c0.062,-0 0.125,-0.063 0.187,-0.063c0.438,0 0.813,0.625 0.813,1.125l-0,6.188c-0,0.687 -0.313,1.25 -0.688,1.437c-0.375,0.125 -1.687,0.688 -1.687,0.688c-0.438,0.125 -0.75,0.625 -0.75,1l-0,4.437c-0,0.375 0.187,0.563 0.5,0.563c0.062,-0 0.187,-0.063 0.25,-0.063c-0,0 0.875,-0.375 1.437,-0.562c0.063,-0.063 0.125,-0.063 0.188,-0.063c0.437,0 0.75,0.688 0.75,1l-0,7.688c-0,0.375 0.375,0.687 0.812,0.687c0.625,0 1.063,-0.312 1.063,-0.687l-0,-8.688c-0,-0.812 0.312,-1.25 0.625,-1.375l3.812,-1.562c0.063,-0 0.188,-0.063 0.25,-0.063c0.5,0 0.813,0.75 0.813,1.125l-0,7.813c-0,0.375 0.375,0.687 0.812,0.687c0.688,0 1.063,-0.312 1.063,-0.687l-0,-8.875c-0,-0.5 0.25,-1.25 0.687,-1.438c0.438,-0.187 1.75,-0.687 1.75,-0.687c0.438,-0.188 0.75,-0.688 0.75,-1.063l0,-4.437c0,-0.313 -0.187,-0.5 -0.437,-0.5c-0.125,-0 -0.188,-0 -0.313,0.062l-1.625,0.625c-0.375,0 -0.812,-0.375 -0.812,-1.125l-0,-5.812c-0,-0.438 0.312,-1.625 0.812,-1.813l1.625,-0.625" style="fill-rule:nonzero;"/></g><g><path d="M956.139,168.79c5.563,-0 12.375,-5.125 12.375,-10.438c0,-3.187 -2.5,-5.187 -6.062,-5.187c-6.875,-0 -12.375,5.062 -12.375,10.437c-0,3.25 2.687,5.188 6.062,5.188" style="fill-rule:nonzero;"/></g><g><path d="M1021.14,166.29c0,-0.875 3.813,-2.5 5.313,-2.5c0.375,-0 0.562,0.062 0.562,0.312l0,6.438c0,1.125 -3.562,2.562 -5.125,2.562c-0.437,0 -0.75,-0.125 -0.75,-0.375l0,-6.437m6.5,-8.875c-0.125,-0 -0.187,0.062 -0.25,0.062c0,0 -4,1.438 -5.625,1.438c-0.375,-0 -0.625,-0.063 -0.625,-0.313l0,-10.437c0,-0.438 -0.375,-0.75 -0.75,-0.75l-0.812,-0c-0.438,-0 -0.75,0.312 -0.75,0.75l-0,32.187c-0,0.375 0.187,0.563 0.5,0.563c0.062,-0 0.375,-0.063 0.437,-0.125c0.875,-0.375 4.375,-1.875 6.188,-1.875c0.625,-0 1.062,0.187 1.062,0.687l0,9.313c0,0.437 0.313,0.75 0.75,0.75l0.813,-0c0.375,-0 0.75,-0.313 0.75,-0.75l-0,-31.375c-0,-0.313 -0.25,-0.5 -0.5,-0.5c-0.063,-0 -0.188,-0 -0.25,0.062l-0.938,0.313" style="fill-rule:nonzero;"/></g><g><path d="M1039.26,176.54c5.562,-0 12.375,-5.125 12.375,-10.438c-0,-3.187 -2.5,-5.187 -6.063,-5.187c-6.875,-0 -12.375,5.062 -12.375,10.437c0,3.25 2.688,5.188 6.063,5.188" style="fill-rule:nonzero;"/></g><g><path d="M1070.86,173.79c-0,-0 -0.188,-3.75 -0.188,-6.25c0,-1 0.063,-1.75 0.125,-2c0.438,-1.25 2.938,-3.063 4.375,-3.063c1.813,0 2.563,2.063 2.563,3.625c-0,3.375 -2.875,6.75 -5.563,8.438c-0.25,0.125 -0.437,0.187 -0.625,0.187c-0.562,0 -0.687,-0.625 -0.687,-0.937m-2.188,5.562c0.188,0.25 0.375,0.313 0.563,0.313c0.187,-0 0.375,-0.125 0.375,-0.125c1.875,-1.063 3.375,-2.75 4.937,-3.813c5.563,-3.875 7.5,-7.687 7.5,-10.562c0,-3.563 -2.75,-5.813 -5.625,-6c-1.062,-0 -2.562,0.5 -3.437,1.062c-0.375,0.313 -1.063,0.875 -1.375,0.875c-0.125,0 -0.188,0 -0.313,-0.062c-0.437,-0.188 -0.687,-0.625 -0.687,-1.063c0.062,-1.375 0.437,-16.375 0.437,-17.625c0,-0.687 -0.562,-1.062 -1.187,-1.062c-0.875,-0 -1.875,0.625 -1.938,1.75c0,-0 0.25,35.687 0.75,36.312" style="fill-rule:nonzero;"/></g><g><path d="M1091.97,176.54c5.563,-0 12.375,-5.125 12.375,-10.438c0,-3.187 -2.5,-5.187 -6.062,-5.187c-6.875,-0 -12.375,5.062 -12.375,10.437c-0,3.25 2.687,5.188 6.062,5.188" style="fill-rule:nonzero;"/></g><g><path d="M1144.67,184.29c5.563,-0 12.375,-5.125 12.375,-10.438c0,-3.187 -2.5,-5.187 -6.062,-5.187c-6.875,-0 -12.375,5.062 -12.375,10.437c-0,3.25 2.687,5.188 6.062,5.188" style="fill-rule:nonzero;"/></g><g><path d="M1182.39,187.04c-0.375,1.25 -3.313,2.5 -4.75,2.5c-0.375,-0 -0.688,-0.125 -0.75,-0.313c-0.125,-0.25 -0.188,-1.625 -0.188,-3.125c0,-1.937 0.063,-4.125 0.188,-4.625c0.125,-1.062 3,-2.375 4.562,-2.375c0.438,0 0.813,0.125 0.938,0.375c0.125,0.313 0.25,1.875 0.25,3.563c-0,1.687 -0.125,3.437 -0.25,4m4.312,-10.188c0.438,-0.187 0.75,-0.687 0.75,-1.062l0,-4.438c0,-0.312 -0.187,-0.5 -0.437,-0.5c-0.125,0 -0.188,0 -0.313,0.063c0,-0 -1.25,0.5 -1.562,0.562c-0.438,0 -0.875,-0.312 -0.875,-0.812l-0,-7.625c-0,-0.375 -0.375,-0.688 -0.875,-0.688c-0.625,0 -1,0.313 -1,0.688l-0,8.125c-0.063,0.625 -0.25,1.437 -0.813,1.812c-0.75,0.438 -2.875,1.313 -3.937,1.563c-0.563,-0 -0.75,-0.75 -0.75,-1.25l-0,-7.5c-0,-0.375 -0.438,-0.688 -0.875,-0.688c-0.625,0 -1,0.313 -1,0.688l-0,8.437c-0,0.875 -0.375,1.5 -0.75,1.688c-0.375,0.187 -1.625,0.687 -1.625,0.687c-0.438,0.125 -0.75,0.625 -0.75,1l-0,4.438c-0,0.375 0.187,0.562 0.5,0.562c0.25,0 1.437,-0.562 1.625,-0.687c0.062,-0 0.125,-0.063 0.187,-0.063c0.438,0 0.813,0.625 0.813,1.125l-0,6.188c-0,0.687 -0.313,1.25 -0.688,1.437c-0.375,0.125 -1.687,0.688 -1.687,0.688c-0.438,0.125 -0.75,0.625 -0.75,1l-0,4.437c-0,0.375 0.187,0.563 0.5,0.563c0.062,-0 0.187,-0.063 0.25,-0.063c-0,0 0.875,-0.375 1.437,-0.562c0.063,-0.063 0.125,-0.063 0.188,-0.063c0.437,0 0.75,0.688 0.75,1l-0,7.688c-0,0.375 0.375,0.687 0.812,0.687c0.625,0 1.063,-0.312 1.063,-0.687l-0,-8.688c-0,-0.812 0.312,-1.25 0.625,-1.375l3.812,-1.562c0.063,-0 0.188,-0.063 0.25,-0.063c0.5,0 0.813,0.75 0.813,1.125l-0,7.813c-0,0.375 0.375,0.687 0.812,0.687c0.688,0 1.063,-0.312 1.063,-0.687l-0,-8.875c-0,-0.5 0.25,-1.25 0.687,-1.438c0.438,-0.187 1.75,-0.687 1.75,-0.687c0.438,-0.188 0.75,-0.688 0.75,-1.063l0,-4.437c0,-0.313 -0.187,-0.5 -0.437,-0.5c-0.125,-0 -0.188,-0 -0.313,0.062l-1.625,0.625c-0.375,0 -0.812,-0.375 -0.812,-1.125l-0,-5.812c-0,-0.438 0.312,-1.625 0.812,-1.813l1.625,-0.625" style="fill-rule:nonzero;"/></g><g><path d="M1197.38,192.04c5.563,-0 12.375,-5.125 12.375,-10.438c0,-3.187 -2.5,-5.187 -6.062,-5.187c-6.875,-0 -12.375,5.062 -12.375,10.437c-0,3.25 2.687,5.188 6.062,5.188" style="fill-rule:nonzero;"/></g><g><path d="M1250.08,199.79c5.562,-0 12.375,-5.125 12.375,-10.438c-0,-3.187 -2.5,-5.187 -6.063,-5.187c-6.875,-0 -12.375,5.062 -12.375,10.437c0,3.25 2.688,5.188 6.063,5.188" style="fill-rule:nonzero;"/></g><g><path d="M1302.79,207.54c5.562,-0 12.375,-5.125 12.375,-10.438c-0,-3.187 -2.5,-5.187 -6.063,-5.187c-6.875,-0 -12.375,5.062 -12.375,10.437c0,3.25 2.688,5.188 6.063,5.188" style="fill-rule:nonzero;"/></g><g><path d="M1340.47,210.29c-0.375,1.25 -3.312,2.5 -4.75,2.5c-0.375,-0 -0.687,-0.125 -0.75,-0.313c-0.125,-0.25 -0.187,-1.625 -0.187,-3.125c-0,-1.937 0.062,-4.125 0.187,-4.625c0.125,-1.062 3,-2.375 4.563,-2.375c0.437,0 0.812,0.125 0.937,0.375c0.125,0.313 0.25,1.875 0.25,3.563c0,1.687 -0.125,3.437 -0.25,4m4.313,-10.188c0.437,-0.187 0.75,-0.687 0.75,-1.062l-0,-4.438c-0,-0.312 -0.188,-0.5 -0.438,-0.5c-0.125,0 -0.187,0 -0.312,0.063c-0,-0 -1.25,0.5 -1.563,0.562c-0.437,0 -0.875,-0.312 -0.875,-0.812l0,-7.625c0,-0.375 -0.375,-0.688 -0.875,-0.688c-0.625,0 -1,0.313 -1,0.688l0,8.125c-0.062,0.625 -0.25,1.437 -0.812,1.812c-0.75,0.438 -2.875,1.313 -3.938,1.563c-0.562,-0 -0.75,-0.75 -0.75,-1.25l0,-7.5c0,-0.375 -0.437,-0.688 -0.875,-0.688c-0.625,0 -1,0.313 -1,0.688l0,8.437c0,0.875 -0.375,1.5 -0.75,1.688c-0.375,0.187 -1.625,0.687 -1.625,0.687c-0.437,0.125 -0.75,0.625 -0.75,1l0,4.438c0,0.375 0.188,0.562 0.5,0.562c0.25,0 1.438,-0.562 1.625,-0.687c0.063,-0 0.125,-0.063 0.188,-0.063c0.437,0 0.812,0.625 0.812,1.125l0,6.188c0,0.687 -0.312,1.25 -0.687,1.437c-0.375,0.125 -1.688,0.688 -1.688,0.688c-0.437,0.125 -0.75,0.625 -0.75,1l0,4.437c0,0.375 0.188,0.563 0.5,0.563c0.063,-0 0.188,-0.063 0.25,-0.063c0,0 0.875,-0.375 1.438,-0.562c0.062,-0.063 0.125,-0.063 0.187,-0.063c0.438,0 0.75,0.688 0.75,1l0,7.687c0,0.375 0.375,0.688 0.813,0.688c0.625,-0 1.062,-0.313 1.062,-0.688l0,-8.687c0,-0.812 0.313,-1.25 0.625,-1.375l3.813,-1.562c0.062,-0 0.187,-0.063 0.25,-0.063c0.5,0 0.812,0.75 0.812,1.125l0,7.812c0,0.375 0.375,0.688 0.813,0.688c0.687,-0 1.062,-0.313 1.062,-0.688l0,-8.874c0,-0.5 0.25,-1.25 0.688,-1.438c0.437,-0.187 1.75,-0.687 1.75,-0.687c0.437,-0.188 0.75,-0.688 0.75,-1.063l-0,-4.437c-0,-0.313 -0.188,-0.5 -0.438,-0.5c-0.125,-0 -0.187,-0 -0.312,0.062l-1.625,0.625c-0.375,0 -0.813,-0.375 -0.813,-1.125l0,-5.812c0,-0.438 0.313,-1.625 0.813,-1.813l1.625,-0.625" style="fill-rule:nonzero;"/></g><g><path d="M1355.46,215.29c5.562,-0 12.375,-5.125 12.375,-10.438c-0,-3.187 -2.5,-5.187 -6.063,-5.187c-6.875,-0 -12.375,5.062 -12.375,10.437c0,3.25 2.688,5.188 6.063,5.188" style="fill-rule:nonzero;"/></g><g><path d="M1393.15,218.04c-0.375,1.25 -3.312,2.5 -4.75,2.5c-0.375,-0 -0.687,-0.125 -0.75,-0.313c-0.125,-0.25 -0.187,-1.625 -0.187,-3.125c-0,-1.937 0.062,-4.125 0.187,-4.625c0.125,-1.062 3,-2.375 4.563,-2.375c0.437,0 0.812,0.125 0.937,0.375c0.125,0.313 0.25,1.875 0.25,3.563c0,1.687 -0.125,3.437 -0.25,4m4.313,-10.188c0.437,-0.187 0.75,-0.687 0.75,-1.062l-0,-4.438c-0,-0.312 -0.188,-0.5 -0.438,-0.5c-0.125,0 -0.187,0 -0.312,0.063c-0,-0 -1.25,0.5 -1.563,0.562c-0.437,0 -0.875,-0.312 -0.875,-0.812l0,-7.625c0,-0.375 -0.375,-0.688 -0.875,-0.688c-0.625,0 -1,0.313 -1,0.688l0,8.125c-0.062,0.625 -0.25,1.437 -0.812,1.812c-0.75,0.438 -2.875,1.313 -3.938,1.563c-0.562,-0 -0.75,-0.75 -0.75,-1.25l0,-7.5c0,-0.375 -0.437,-0.688 -0.875,-0.688c-0.625,0 -1,0.313 -1,0.688l0,8.437c0,0.875 -0.375,1.5 -0.75,1.688c-0.375,0.187 -1.625,0.687 -1.625,0.687c-0.437,0.125 -0.75,0.625 -0.75,1l0,4.438c0,0.375 0.188,0.562 0.5,0.562c0.25,0 1.438,-0.562 1.625,-0.687c0.063,-0 0.125,-0.063 0.188,-0.063c0.437,0 0.812,0.625 0.812,1.125l0,6.188c0,0.687 -0.312,1.249 -0.687,1.437c-0.375,0.125 -1.688,0.687 -1.688,0.687c-0.437,0.125 -0.75,0.625 -0.75,1l0,4.438c0,0.375 0.188,0.562 0.5,0.562c0.063,0 0.188,-0.062 0.25,-0.062c0,-0 0.875,-0.375 1.438,-0.563c0.062,-0.062 0.125,-0.062 0.187,-0.062c0.438,-0 0.75,0.687 0.75,1l0,7.687c0,0.375 0.375,0.688 0.813,0.688c0.625,-0 1.062,-0.313 1.062,-0.688l0,-8.687c0,-0.813 0.313,-1.25 0.625,-1.375l3.813,-1.563c0.062,0 0.187,-0.062 0.25,-0.062c0.5,-0 0.812,0.75 0.812,1.125l0,7.812c0,0.375 0.375,0.688 0.813,0.688c0.687,-0 1.062,-0.313 1.062,-0.688l0,-8.875c0,-0.5 0.25,-1.25 0.688,-1.437c0.437,-0.188 1.75,-0.688 1.75,-0.688c0.437,-0.187 0.75,-0.687 0.75,-1.062l-0,-4.437c-0,-0.313 -0.188,-0.5 -0.438,-0.5c-0.125,-0 -0.187,-0 -0.312,0.062l-1.625,0.625c-0.375,0 -0.813,-0.375 -0.813,-1.125l0,-5.812c0,-0.438 0.313,-1.625 0.813,-1.813l1.625,-0.625" style="fill-rule:nonzero;"/></g><g><path d="M1408.14,223.039c5.562,0 12.375,-5.124 12.375,-10.437c-0,-3.187 -2.5,-5.187 -6.063,-5.187c-6.875,-0 -12.375,5.062 -12.375,10.437c0,3.25 2.688,5.187 6.063,5.187" style="fill-rule:nonzero;"/></g><g><path d="M1473.13,220.54c-0,-0.875 3.812,-2.5 5.312,-2.5c0.375,-0 0.563,0.062 0.563,0.312l-0,6.437c-0,1.125 -3.563,2.563 -5.125,2.563c-0.438,-0 -0.75,-0.125 -0.75,-0.375l-0,-6.437m6.5,-8.875c-0.125,-0 -0.188,0.062 -0.25,0.062c-0,0 -4,1.438 -5.625,1.438c-0.375,-0 -0.625,-0.063 -0.625,-0.313l-0,-10.437c-0,-0.438 -0.375,-0.75 -0.75,-0.75l-0.813,-0c-0.437,-0 -0.75,0.312 -0.75,0.75l0,32.187c0,0.375 0.188,0.562 0.5,0.562c0.063,0 0.375,-0.062 0.438,-0.125c0.875,-0.375 4.375,-1.875 6.187,-1.875c0.625,0 1.063,0.188 1.063,0.688l-0,9.312c-0,0.438 0.312,0.75 0.75,0.75l0.812,0c0.375,0 0.75,-0.312 0.75,-0.75l-0,-31.374c-0,-0.313 -0.25,-0.5 -0.5,-0.5c-0.063,-0 -0.188,-0 -0.25,0.062l-0.937,0.313" style="fill-rule:nonzero;"/></g><g><path d="M1492.13,219.04c0.688,-2.188 3,-2.5 4.938,-2.5c4.312,-0 7.75,4.624 7.75,8.374c-0,1.938 -0.813,3.688 -2.875,4.188c-0.625,0.187 -1.313,0.25 -1.938,0.25c-2.25,-0 -4.562,-1.5 -5.875,-3.25c-1.25,-1.438 -2.187,-3.563 -2.187,-5.562c-0,-0.5 0.062,-1 0.187,-1.5m6.563,-3.875c-8.313,-0 -13.5,3.437 -13.5,7.687c-0,4.187 3.562,7.937 12.875,7.937c10.25,0 13.5,-3.562 13.5,-7.937c-0,-4.437 -7.063,-7.687 -12.875,-7.687" style="fill-rule:nonzero;"/></g><g><path d="M32.565,136.852c0.187,1.188 0.187,1.125 -0.938,1.5c-5.5,1.875 -9.062,6.813 -9.062,12.125c-0,5.625 2.937,9.625 7.187,11.063c0.5,0.187 1.25,0.375 1.688,0.375c0.5,-0 0.75,-0.313 0.75,-0.688c-0,-0.437 -0.5,-0.625 -0.938,-0.812c-2.625,-1.125 -4.5,-3.813 -4.5,-6.688c0,-3.562 2.438,-6.25 6.25,-7.312c1,-0.25 1.125,-0.188 1.25,0.5l3.125,18.625c0.125,0.687 0.063,0.687 -0.875,0.875c-1,0.187 -2.25,0.312 -3.5,0.312c-10.937,0 -18,-6.062 -18,-14.75c0,-3.687 0.625,-8.625 5.813,-14.5c3.75,-4.187 6.625,-6.5 9.562,-8.875c0.625,-0.5 0.75,-0.437 0.875,0.25l1.313,8m6.812,-42.562c2.063,-0 3.75,1.687 3.75,5.125c0,6.937 -5.937,12.562 -10.875,16.875c-0.437,0.375 -0.687,0.312 -0.812,-0.5c-0.25,-1.625 -0.375,-3.75 -0.375,-5.75c-0,-9.75 4.5,-15.75 8.312,-15.75m-2.5,52.5c-0.125,-0.75 -0.062,-0.938 0.688,-0.875c5.062,0.437 9.25,4.687 9.25,10.187c-0,3.938 -2.375,7.125 -5.875,8.875c-0.75,0.375 -0.875,0.375 -1,-0.375l-3.063,-17.812m-3.375,-19.5c-0.125,-0.75 0,-0.813 0.375,-1.188c6.75,-6.312 11.875,-14.25 11.875,-23.812c0,-5.438 -1.5,-10.813 -4.062,-14.563c-0.938,-1.375 -2.563,-3.125 -3.25,-3.125c-0.875,0 -2.813,1.625 -4.063,3c-4.625,5.125 -6.125,12.938 -6.125,19.438c0,3.625 0.438,7.687 0.875,10.25c0.125,0.75 0.188,0.875 -0.562,1.5c-9,7.437 -18.563,16.375 -18.563,29c0,10.875 7.438,21.187 22.75,21.187c1.438,0 3.063,-0.125 4.313,-0.375c0.687,-0.125 0.812,-0.187 0.937,0.563c0.75,4.187 1.688,9.625 1.688,12.562c-0,9.25 -6.25,10.375 -9.938,10.375c-3.375,0 -5,-1 -5,-1.812c0,-0.438 0.563,-0.625 2,-1.063c1.938,-0.562 4.188,-2.25 4.188,-5.875c-0,-3.437 -2.188,-6.375 -6,-6.375c-4.188,0 -6.688,3.313 -6.688,7.188c0,4.062 2.438,10.187 11.875,10.187c4.188,0 12.313,-1.875 12.313,-12.5c-0,-3.562 -1.125,-9.5 -1.813,-13.375c-0.125,-0.75 -0.062,-0.687 0.813,-1.062c6.312,-2.5 10.5,-7.813 10.5,-14.875c-0,-8 -5.875,-15.063 -15.063,-15.063c-1.625,0 -1.625,0 -1.812,-1.125l-1.563,-9.062" style="fill-rule:nonzero;"/></g><g><text x="66.176px" y="122.102px" style="font-family:'Bravura';font-size:62.5px;"></text></g><g><text x="66.176px" y="153.401px" style="font-family:'Bravura';font-size:62.5px;"></text></g><g><path d="M157.003,182.9l-5.116,-0l0,1.278l5.116,-0l-0,-1.278" style="fill-rule:nonzero;"/></g><g><path d="M167.44,182.9l-5.112,-0l-0,1.278l5.112,-0l0,-1.278" style="fill-rule:nonzero;"/></g><g><path d="M177.881,182.9l-5.116,-0l0,1.278l5.116,-0l-0,-1.278" style="fill-rule:nonzero;"/></g><g><path d="M188.318,182.9l-5.115,-0l-0,1.278l5.115,-0l0,-1.278" style="fill-rule:nonzero;"/></g><g><path d="M198.759,182.9l-5.116,-0l0,1.278l5.116,-0l-0,-1.278" style="fill-rule:nonzero;"/></g><g><path d="M209.196,182.9l-5.115,-0l-0,1.278l5.115,-0l0,-1.278" style="fill-rule:nonzero;"/></g><g><path d="M219.634,182.9l-5.113,-0l0,1.278l5.113,-0l-0,-1.278" style="fill-rule:nonzero;"/></g><g><path d="M230.075,182.9l-5.116,-0l-0,1.278l5.116,-0l-0,-1.278" style="fill-rule:nonzero;"/></g><g><path d="M240.512,182.9l-5.116,-0l0,1.278l5.116,-0l0,-1.278" style="fill-rule:nonzero;"/></g><g><path d="M250.953,182.9l-5.116,-0l0,1.278l5.116,-0l-0,-1.278" style="fill-rule:nonzero;"/></g><g><path d="M261.39,182.9l-5.115,-0l-0,1.278l5.115,-0l0,-1.278" style="fill-rule:nonzero;"/></g><g><path d="M271.828,182.9l-5.113,-0l0,1.278l5.113,-0l-0,-1.278" style="fill-rule:nonzero;"/></g><g><path d="M282.268,182.9l-5.115,-0l-0,1.278l5.115,-0l0,-1.278" style="fill-rule:nonzero;"/></g><g><path d="M292.706,182.9l-5.116,-0l0,1.278l5.116,-0l-0,-1.278" style="fill-rule:nonzero;"/></g><g><path d="M303.146,182.9l-5.115,-0l-0,1.278l5.115,-0l0,-1.278" style="fill-rule:nonzero;"/></g><g><path d="M314.224,182.9l-5.756,-0l0,1.278l5.756,-0l0,-1.278" style="fill-rule:nonzero;"/></g><g><path d="M314.224,184.178l-1.281,-0l0,-10.869l1.281,0l0,10.869" style="fill-rule:nonzero;"/></g><g><path d="M114.234,13.241l1.938,-0l-0,16.469l-1.938,-0l0,-16.469" style="fill-rule:nonzero;"/></g><g><path d="M146.859,13.241l-30.687,-0l-0,1.937l30.687,0l-0,-1.937" style="fill-rule:nonzero;"/></g><g><path d="M312.615,13.241l-30.687,-0l-0,1.937l30.687,0l0,-1.937" style="fill-rule:nonzero;"/></g><g><path d="M312.615,13.241l1.938,-0l-0,16.469l-1.938,-0l0,-16.469" style="fill-rule:nonzero;"/></g><g><path d="M367.787,182.9l-5.116,-0l0,1.278l5.116,-0l-0,-1.278" style="fill-rule:nonzero;"/></g><g><path d="M378.228,182.9l-5.116,-0l-0,1.278l5.116,-0l-0,-1.278" style="fill-rule:nonzero;"/></g><g><path d="M388.665,182.9l-5.116,-0l0,1.278l5.116,-0l0,-1.278" style="fill-rule:nonzero;"/></g><g><path d="M399.106,182.9l-5.116,-0l0,1.278l5.116,-0l-0,-1.278" style="fill-rule:nonzero;"/></g><g><path d="M409.543,182.9l-5.115,-0l-0,1.278l5.115,-0l0,-1.278" style="fill-rule:nonzero;"/></g><g><path d="M419.984,182.9l-5.116,-0l0,1.278l5.116,-0l-0,-1.278" style="fill-rule:nonzero;"/></g><g><path d="M430.421,182.9l-5.115,-0l-0,1.278l5.115,-0l0,-1.278" style="fill-rule:nonzero;"/></g><g><path d="M440.862,182.9l-5.116,-0l0,1.278l5.116,-0l-0,-1.278" style="fill-rule:nonzero;"/></g><g><path d="M451.299,182.9l-5.115,-0l-0,1.278l5.115,-0l0,-1.278" style="fill-rule:nonzero;"/></g><g><path d="M461.74,182.9l-5.116,-0l0,1.278l5.116,-0l0,-1.278" style="fill-rule:nonzero;"/></g><g><path d="M472.178,182.9l-5.116,-0l-0,1.278l5.116,-0l-0,-1.278" style="fill-rule:nonzero;"/></g><g><path d="M482.618,182.9l-5.115,-0l-0,1.278l5.115,-0l0,-1.278" style="fill-rule:nonzero;"/></g><g><path d="M493.056,182.9l-5.116,-0l-0,1.278l5.116,-0l-0,-1.278" style="fill-rule:nonzero;"/></g><g><path d="M503.496,182.9l-5.115,-0l-0,1.278l5.115,-0l0,-1.278" style="fill-rule:nonzero;"/></g><g><path d="M513.934,182.9l-5.113,-0l0,1.278l5.113,-0l-0,-1.278" style="fill-rule:nonzero;"/></g><g><path d="M525.012,182.9l-5.753,-0l-0,1.278l5.753,-0l-0,-1.278" style="fill-rule:nonzero;"/></g><g><path d="M525.012,184.178l-1.278,-0l-0,-10.869l1.278,0l-0,10.869" style="fill-rule:nonzero;"/></g><g><path d="M325.018,42.48l1.938,-0l-0,16.47l-1.938,-0l0,-16.47" style="fill-rule:nonzero;"/></g><g><path d="M383.012,42.48l-56.056,-0l-0,1.937l56.056,0l-0,-1.937" style="fill-rule:nonzero;"/></g><g><path d="M523.406,42.48l-56.057,-0l0,1.937l56.057,0l-0,-1.937" style="fill-rule:nonzero;"/></g><g><path d="M523.406,42.48l1.937,-0l0,16.47l-1.937,-0l-0,-16.47" style="fill-rule:nonzero;"/></g><g><path d="M608.993,188.14l-5.116,0l0,1.279l5.116,-0l0,-1.279" style="fill-rule:nonzero;"/></g><g><path d="M619.434,188.14l-5.116,0l0,1.279l5.116,-0l-0,-1.279" style="fill-rule:nonzero;"/></g><g><path d="M629.874,188.14l-5.115,0l-0,1.279l5.115,-0l0,-1.279" style="fill-rule:nonzero;"/></g><g><path d="M640.315,188.14l-5.113,0l0,1.279l5.113,-0l-0,-1.279" style="fill-rule:nonzero;"/></g><g><path d="M650.759,188.14l-5.116,0l0,1.279l5.116,-0l-0,-1.279" style="fill-rule:nonzero;"/></g><g><path d="M661.199,188.14l-5.115,0l-0,1.279l5.115,-0l0,-1.279" style="fill-rule:nonzero;"/></g><g><path d="M671.64,188.14l-5.116,0l0,1.279l5.116,-0l-0,-1.279" style="fill-rule:nonzero;"/></g><g><path d="M682.08,188.14l-5.115,0l-0,1.279l5.115,-0l0,-1.279" style="fill-rule:nonzero;"/></g><g><path d="M692.521,188.14l-5.116,0l0,1.279l5.116,-0l0,-1.279" style="fill-rule:nonzero;"/></g><g><path d="M702.962,188.14l-5.113,0l0,1.279l5.113,-0l-0,-1.279" style="fill-rule:nonzero;"/></g><g><path d="M713.405,188.14l-5.115,0l-0,1.279l5.115,-0l0,-1.279" style="fill-rule:nonzero;"/></g><g><path d="M723.846,188.14l-5.116,0l0,1.279l5.116,-0l0,-1.279" style="fill-rule:nonzero;"/></g><g><path d="M734.287,188.14l-5.116,0l0,1.279l5.116,-0l-0,-1.279" style="fill-rule:nonzero;"/></g><g><path d="M744.727,188.14l-5.115,0l-0,1.279l5.115,-0l0,-1.279" style="fill-rule:nonzero;"/></g><g><path d="M755.168,188.14l-5.113,0l0,1.279l5.113,-0l-0,-1.279" style="fill-rule:nonzero;"/></g><g><path d="M766.249,188.14l-5.753,0l0,1.279l5.753,-0l0,-1.279" style="fill-rule:nonzero;"/></g><g><path d="M766.249,189.419l-1.278,-0l0,-10.869l1.278,-0l0,10.869" style="fill-rule:nonzero;"/></g><g><path d="M556.112,59.753l1.937,0l0,16.469l-1.937,-0l-0,-16.469" style="fill-rule:nonzero;"/></g><g><path d="M593.812,59.753l-35.763,0l0,1.938l35.763,-0l-0,-1.938" style="fill-rule:nonzero;"/></g><g><path d="M764.64,59.753l-35.76,0l0,1.938l35.76,-0l-0,-1.938" style="fill-rule:nonzero;"/></g><g><path d="M764.64,59.753l1.937,0l0,16.469l-1.937,-0l-0,-16.469" style="fill-rule:nonzero;"/></g><g><path d="M819.815,186.581l-5.116,0l0,1.278l5.116,0l-0,-1.278" style="fill-rule:nonzero;"/></g><g><path d="M830.255,186.581l-5.115,0l-0,1.278l5.115,0l0,-1.278" style="fill-rule:nonzero;"/></g><g><path d="M840.696,186.581l-5.116,0l0,1.278l5.116,0l-0,-1.278" style="fill-rule:nonzero;"/></g><g><path d="M851.137,186.581l-5.116,0l-0,1.278l5.116,0l-0,-1.278" style="fill-rule:nonzero;"/></g><g><path d="M861.577,186.581l-5.115,0l-0,1.278l5.115,0l0,-1.278" style="fill-rule:nonzero;"/></g><g><path d="M872.018,186.581l-5.113,0l0,1.278l5.113,0l-0,-1.278" style="fill-rule:nonzero;"/></g><g><path d="M882.462,186.581l-5.116,0l-0,1.278l5.116,0l-0,-1.278" style="fill-rule:nonzero;"/></g><g><path d="M892.902,186.581l-5.115,0l-0,1.278l5.115,0l0,-1.278" style="fill-rule:nonzero;"/></g><g><path d="M903.343,186.581l-5.116,0l0,1.278l5.116,0l-0,-1.278" style="fill-rule:nonzero;"/></g><g><path d="M913.783,186.581l-5.115,0l-0,1.278l5.115,0l0,-1.278" style="fill-rule:nonzero;"/></g><g><path d="M924.224,186.581l-5.116,0l0,1.278l5.116,0l0,-1.278" style="fill-rule:nonzero;"/></g><g><path d="M934.665,186.581l-5.113,0l0,1.278l5.113,0l-0,-1.278" style="fill-rule:nonzero;"/></g><g><path d="M945.108,186.581l-5.115,0l-0,1.278l5.115,0l0,-1.278" style="fill-rule:nonzero;"/></g><g><path d="M955.549,186.581l-5.116,0l0,1.278l5.116,0l0,-1.278" style="fill-rule:nonzero;"/></g><g><path d="M965.99,186.581l-5.116,0l0,1.278l5.116,0l-0,-1.278" style="fill-rule:nonzero;"/></g><g><path d="M977.071,186.581l-5.756,0l-0,1.278l5.756,0l-0,-1.278" style="fill-rule:nonzero;"/></g><g><path d="M977.071,187.859l-1.278,0l-0,-10.869l1.278,0l-0,10.869" style="fill-rule:nonzero;"/></g><g><path d="M783.243,51.492l1.937,0l0,16.47l-1.937,0l-0,-16.47" style="fill-rule:nonzero;"/></g><g><path d="M838.152,51.492l-52.972,0l0,1.938l52.972,-0l0,-1.938" style="fill-rule:nonzero;"/></g><g><path d="M975.462,51.492l-52.972,0l-0,1.938l52.972,-0l-0,-1.938" style="fill-rule:nonzero;"/></g><g><path d="M975.462,51.492l1.937,0l0,16.47l-1.937,0l-0,-16.47" style="fill-rule:nonzero;"/></g><g><path d="M1061.07,209.831l-5.125,0l-0,1.278l5.125,0l-0,-1.278" style="fill-rule:nonzero;"/></g><g><path d="M1071.5,209.831l-5.125,0l0,1.278l5.125,0l0,-1.278" style="fill-rule:nonzero;"/></g><g><path d="M1081.94,209.831l-5.125,0l-0,1.278l5.125,0l-0,-1.278" style="fill-rule:nonzero;"/></g><g><path d="M1092.38,209.831l-5.125,0l0,1.278l5.125,0l0,-1.278" style="fill-rule:nonzero;"/></g><g><path d="M1102.82,209.831l-5.125,0l-0,1.278l5.125,0l-0,-1.278" style="fill-rule:nonzero;"/></g><g><path d="M1113.25,209.831l-5.125,0l0,1.278l5.125,0l0,-1.278" style="fill-rule:nonzero;"/></g><g><path d="M1123.69,209.831l-5.094,0l-0,1.278l5.094,0l-0,-1.278" style="fill-rule:nonzero;"/></g><g><path d="M1134.13,209.831l-5.094,0l0,1.278l5.094,0l0,-1.278" style="fill-rule:nonzero;"/></g><g><path d="M1144.57,209.831l-5.094,0l-0,1.278l5.094,0l-0,-1.278" style="fill-rule:nonzero;"/></g><g><path d="M1155.03,209.831l-5.125,0l0,1.278l5.125,0l0,-1.278" style="fill-rule:nonzero;"/></g><g><path d="M1165.47,209.831l-5.125,0l-0,1.278l5.125,0l-0,-1.278" style="fill-rule:nonzero;"/></g><g><path d="M1175.91,209.831l-5.125,0l0,1.278l5.125,0l0,-1.278" style="fill-rule:nonzero;"/></g><g><path d="M1186.35,209.831l-5.125,0l-0,1.278l5.125,0l-0,-1.278" style="fill-rule:nonzero;"/></g><g><path d="M1196.78,209.831l-5.125,0l0,1.278l5.125,0l0,-1.278" style="fill-rule:nonzero;"/></g><g><path d="M1207.22,209.831l-5.125,0l-0,1.278l5.125,0l-0,-1.278" style="fill-rule:nonzero;"/></g><g><path d="M1218.31,209.831l-5.75,0l0,1.278l5.75,0l0,-1.278" style="fill-rule:nonzero;"/></g><g><path d="M1218.31,211.109l-1.281,0l0,-10.869l1.281,0l0,10.869" style="fill-rule:nonzero;"/></g><g><path d="M1008.17,59.753l1.937,0l0,16.469l-1.937,-0l-0,-16.469" style="fill-rule:nonzero;"/></g><g><path d="M1045.88,59.753l-35.769,0l0,1.938l35.769,-0l0,-1.938" style="fill-rule:nonzero;"/></g><g><path d="M1216.69,59.753l-35.749,0l-0,1.938l35.749,-0l0,-1.938" style="fill-rule:nonzero;"/></g><g><path d="M1216.69,59.753l1.938,0l-0,16.469l-1.938,-0l0,-16.469" style="fill-rule:nonzero;"/></g><g><path d="M1271.88,247.8l-5.125,-0l-0,1.278l5.125,-0l-0,-1.278" style="fill-rule:nonzero;"/></g><g><path d="M1282,247.8l-5.125,-0l-0,1.278l5.125,-0l-0,-1.278" style="fill-rule:nonzero;"/></g><g><path d="M1292.1,247.8l-5.094,-0l-0,1.278l5.094,-0l-0,-1.278" style="fill-rule:nonzero;"/></g><g><path d="M1302.22,247.8l-5.094,-0l-0,1.278l5.094,-0l-0,-1.278" style="fill-rule:nonzero;"/></g><g><path d="M1312.35,247.8l-5.125,-0l-0,1.278l5.125,-0l-0,-1.278" style="fill-rule:nonzero;"/></g><g><path d="M1322.47,247.8l-5.125,-0l-0,1.278l5.125,-0l-0,-1.278" style="fill-rule:nonzero;"/></g><g><path d="M1332.6,247.8l-5.125,-0l-0,1.278l5.125,-0l-0,-1.278" style="fill-rule:nonzero;"/></g><g><path d="M1342.72,247.8l-5.125,-0l-0,1.278l5.125,-0l-0,-1.278" style="fill-rule:nonzero;"/></g><g><path d="M1352.85,247.8l-5.125,-0l-0,1.278l5.125,-0l-0,-1.278" style="fill-rule:nonzero;"/></g><g><path d="M1362.94,247.8l-5.093,-0l-0,1.278l5.093,-0l0,-1.278" style="fill-rule:nonzero;"/></g><g><path d="M1373.06,247.8l-5.093,-0l-0,1.278l5.093,-0l0,-1.278" style="fill-rule:nonzero;"/></g><g><path d="M1383.19,247.8l-5.125,-0l0,1.278l5.125,-0l0,-1.278" style="fill-rule:nonzero;"/></g><g><path d="M1393.31,247.8l-5.125,-0l0,1.278l5.125,-0l0,-1.278" style="fill-rule:nonzero;"/></g><g><path d="M1403.44,247.8l-5.125,-0l0,1.278l5.125,-0l0,-1.278" style="fill-rule:nonzero;"/></g><g><path d="M1413.56,247.8l-5.125,-0l0,1.278l5.125,-0l0,-1.278" style="fill-rule:nonzero;"/></g><g><path d="M1423.66,247.8l-5.094,-0l0,1.278l5.094,-0l0,-1.278" style="fill-rule:nonzero;"/></g><g><path d="M1433.78,247.8l-5.094,-0l0,1.278l5.094,-0l0,-1.278" style="fill-rule:nonzero;"/></g><g><path d="M1443.91,247.8l-5.125,-0l0,1.278l5.125,-0l0,-1.278" style="fill-rule:nonzero;"/></g><g><path d="M1454.03,247.8l-5.125,-0l0,1.278l5.125,-0l0,-1.278" style="fill-rule:nonzero;"/></g><g><path d="M1464.16,247.8l-5.125,-0l0,1.278l5.125,-0l0,-1.278" style="fill-rule:nonzero;"/></g><g><path d="M1474.28,247.8l-5.125,-0l0,1.278l5.125,-0l0,-1.278" style="fill-rule:nonzero;"/></g><g><path d="M1484.38,247.8l-5.094,-0l0,1.278l5.094,-0l-0,-1.278" style="fill-rule:nonzero;"/></g><g><path d="M1495.16,247.8l-5.75,-0l0,1.278l5.75,-0l0,-1.278" style="fill-rule:nonzero;"/></g><g><path d="M1495.16,249.078l-1.281,-0l-0,-10.869l1.281,0l0,10.869" style="fill-rule:nonzero;"/></g><g><path d="M1229.1,59.681l1.937,0l0,16.469l-1.937,-0l-0,-16.469" style="fill-rule:nonzero;"/></g><g><path d="M1287.06,59.681l-56.031,0l0,1.938l56.031,-0l0,-1.938" style="fill-rule:nonzero;"/></g><g><path d="M1427.47,59.681l-56.063,0l0,1.938l56.063,-0l-0,-1.938" style="fill-rule:nonzero;"/></g><g><path d="M1427.47,59.681l1.937,0l0,16.469l-1.937,-0l-0,-16.469" style="fill-rule:nonzero;"/></g><g><path d="M129.153,137.737l-0,-7.759l159.937,7.75l0,7.759l-159.937,-7.75" style="fill-rule:nonzero;"/></g><g><path d="M339.937,141.659l-0,-7.806l159.944,19.375l-0,7.806l-159.944,-19.375" style="fill-rule:nonzero;"/></g><g><path d="M581.143,168.765l0,-7.787l159.975,15.5l-0,7.787l-159.975,-15.5" style="fill-rule:nonzero;"/></g><g><path d="M808.537,95.103l-0,-7.787l159.975,15.5l-0,7.787l-159.975,-15.5" style="fill-rule:nonzero;"/></g><g><path d="M1049.78,122.228l0,-7.759l159.969,7.75l-0,7.759l-159.969,-7.75" style="fill-rule:nonzero;"/></g><g><path d="M1260.6,141.603l-0,-7.753l159.906,3.875l-0,7.753l-159.906,-3.875" style="fill-rule:nonzero;"/></g><g><text x="149.781px" y="20.728px" style="font-family:'Academico';font-size:28.125px;">c<tspan x="162.071px " y="20.728px ">h</tspan>romatic</text></g><g><text x="386.177px" y="49.967px" style="font-family:'Academico';font-size:28.125px;">minor</text></g><g><text x="596.733px" y="67.242px" style="font-family:'Academico';font-size:28.125px;">c<tspan x="609.024px " y="67.242px ">h</tspan>romatic</text></g><g><text x="841.32px" y="58.98px" style="font-family:'Academico';font-size:28.125px;">minor</text></g><g><text x="1048.79px" y="67.242px" style="font-family:'Academico';font-size:28.125px;">c<tspan x="1061.08px " y="67.242px ">h</tspan>romatic</text></g><g><text x="1290.25px" y="67.169px" style="font-family:'Academico';font-size:28.125px;">minor</text></g></g></svg>