<?xml version="1.0" encoding="UTF-8" standalone="no"?><!DOCTYPE svg PUBLIC "-//W3C//DTD SVG 1.1//EN" "http://www.w3.org/Graphics/SVG/1.1/DTD/svg11.dtd"><svg width="100%" height="100%" viewBox="0 0 1658 239" version="1.1" xmlns="http://www.w3.org/2000/svg" xmlns:xlink="http://www.w3.org/1999/xlink" xml:space="preserve" xmlns:serif="http://www.serif.com/" style="fill-rule:evenodd;clip-rule:evenodd;stroke-miterlimit:2;"><g><g><path d="M2.253,93.327l1650,0" style="fill:none;stroke:#000;stroke-width:2.01px;"/><path d="M2.253,77.827l1650,0" style="fill:none;stroke:#000;stroke-width:2.01px;"/><path d="M2.253,108.827l1650,0" style="fill:none;stroke:#000;stroke-width:2.01px;"/><path d="M2.253,139.827l1650,0" style="fill:none;stroke:#000;stroke-width:2.01px;"/><path d="M2.253,124.327l1650,0" style="fill:none;stroke:#000;stroke-width:2.01px;"/></g><g><path d="M763.534,76.818l-0,64.015" style="fill:none;stroke:#000;stroke-width:2.48px;"/><path d="M1422.44,76.818l0,64.015" style="fill:none;stroke:#000;stroke-width:2.48px;"/><path d="M1635.5,76.818l-0,64.015" style="fill:none;stroke:#000;stroke-width:2.48px;"/></g><g><path d="M1648.38,76.818l-0,64.015" style="fill:none;stroke:#000;stroke-width:7.75px;"/></g><g><path d="M460.565,46.58l41.562,7.75" style="fill:none;stroke:#000;stroke-width:1.29px;"/><path d="M908.377,50.983l41.563,5.166" style="fill:none;stroke:#000;stroke-width:1.29px;"/><path d="M1330.5,51.808l41.594,5.166" style="fill:none;stroke:#000;stroke-width:1.29px;"/></g><g><path d="M130.096,33.93l0,71.025" style="fill:none;stroke:#000;stroke-width:1.86px;"/></g><g><path d="M122.94,31.327l30.844,0" style="fill:none;stroke:#000;stroke-width:2.48px;"/><path d="M122.94,46.827l30.844,0" style="fill:none;stroke:#000;stroke-width:2.48px;"/><path d="M122.94,62.327l30.844,0" style="fill:none;stroke:#000;stroke-width:2.48px;"/></g><g><path d="M182.846,33.93l0,72.963" style="fill:none;stroke:#000;stroke-width:1.86px;"/></g><g><path d="M179.346,31.327l27.219,0" style="fill:none;stroke:#000;stroke-width:2.48px;"/><path d="M175.721,46.827l30.844,0" style="fill:none;stroke:#000;stroke-width:2.48px;"/><path d="M175.721,62.327l30.844,0" style="fill:none;stroke:#000;stroke-width:2.48px;"/></g><g><path d="M235.628,41.68l-0,67.15" style="fill:none;stroke:#000;stroke-width:1.86px;"/></g><g><path d="M228.503,46.827l30.843,0" style="fill:none;stroke:#000;stroke-width:2.48px;"/><path d="M228.503,62.327l30.843,0" style="fill:none;stroke:#000;stroke-width:2.48px;"/></g><g><path d="M288.378,49.43l-0,55.541" style="fill:none;stroke:#000;stroke-width:1.86px;"/></g><g><path d="M284.878,46.827l27.218,0" style="fill:none;stroke:#000;stroke-width:2.48px;"/><path d="M285.128,62.327l26.968,0" style="fill:none;stroke:#000;stroke-width:2.48px;"/></g><g><path d="M341.159,57.18l-0,51.666" style="fill:none;stroke:#000;stroke-width:1.86px;"/></g><g><path d="M334.034,62.327l30.844,0" style="fill:none;stroke:#000;stroke-width:2.48px;"/></g><g><path d="M393.94,64.93l0,47.791" style="fill:none;stroke:#000;stroke-width:1.86px;"/></g><g><path d="M386.815,62.327l30.844,0" style="fill:none;stroke:#000;stroke-width:2.48px;"/></g><g><path d="M446.69,72.68l0,51.728" style="fill:none;stroke:#000;stroke-width:1.86px;"/><path d="M499.44,80.43l-0,51.728" style="fill:none;stroke:#000;stroke-width:1.86px;"/><path d="M552.19,88.18l-0,51.728" style="fill:none;stroke:#000;stroke-width:1.86px;"/><path d="M604.94,88.18l-0,47.853" style="fill:none;stroke:#000;stroke-width:1.86px;"/><path d="M657.721,95.93l0,47.856" style="fill:none;stroke:#000;stroke-width:1.86px;"/><path d="M710.471,103.68l0,47.853" style="fill:none;stroke:#000;stroke-width:1.86px;"/><path d="M805.565,62.28l-0,43.941" style="fill:none;stroke:#000;stroke-width:1.86px;"/><path d="M858.346,68.096l-0,45.875" style="fill:none;stroke:#000;stroke-width:1.86px;"/><path d="M911.096,73.905l-0,47.816" style="fill:none;stroke:#000;stroke-width:1.86px;"/><path d="M963.815,77.821l-0,51.65" style="fill:none;stroke:#000;stroke-width:1.86px;"/><path d="M1016.6,79.758l-0,57.463" style="fill:none;stroke:#000;stroke-width:1.86px;"/><path d="M1069.38,81.696l0,55.525" style="fill:none;stroke:#000;stroke-width:1.86px;"/><path d="M1122.16,93.243l0,51.728" style="fill:none;stroke:#000;stroke-width:1.86px;"/><path d="M1174.91,100.99l0,51.731" style="fill:none;stroke:#000;stroke-width:1.86px;"/></g><g><path d="M1154.82,155.327l27.218,0" style="fill:none;stroke:#000;stroke-width:2.48px;"/></g><g><path d="M1227.69,108.743l0,51.728" style="fill:none;stroke:#000;stroke-width:1.86px;"/></g><g><path d="M1203.97,155.327l30.843,0" style="fill:none;stroke:#000;stroke-width:2.48px;"/></g><g><path d="M1280.47,108.821l-0,59.4" style="fill:none;stroke:#000;stroke-width:1.86px;"/></g><g><path d="M1256.75,170.827l30.844,0" style="fill:none;stroke:#000;stroke-width:2.48px;"/><path d="M1256.75,155.327l30.844,0" style="fill:none;stroke:#000;stroke-width:2.48px;"/></g><g><path d="M1333.22,110.758l-0,65.213" style="fill:none;stroke:#000;stroke-width:1.86px;"/></g><g><path d="M1313.38,170.827l26.969,0" style="fill:none;stroke:#000;stroke-width:2.48px;"/><path d="M1309.5,155.327l30.844,0" style="fill:none;stroke:#000;stroke-width:2.48px;"/></g><g><path d="M1385.97,112.696l-0,71.025" style="fill:none;stroke:#000;stroke-width:1.86px;"/></g><g><path d="M1365.88,186.327l27.219,0" style="fill:none;stroke:#000;stroke-width:2.48px;"/><path d="M1366.13,170.827l26.969,0" style="fill:none;stroke:#000;stroke-width:2.48px;"/><path d="M1362.25,155.327l30.844,0" style="fill:none;stroke:#000;stroke-width:2.48px;"/><path d="M1449.31,186.327l34.875,0" style="fill:none;stroke:#000;stroke-width:2.48px;"/><path d="M1445.44,170.827l38.75,0" style="fill:none;stroke:#000;stroke-width:2.48px;"/><path d="M1445.44,155.327l38.75,0" style="fill:none;stroke:#000;stroke-width:2.48px;"/></g><g><path d="M141.704,10.187l0,-6.687c0,-0.313 -0.062,-0.563 -0.375,-0.563c-0.25,0 -0.437,0.063 -0.625,0.313l-1.875,3.625c-0.125,0.125 -0.312,0.312 -0.312,0.75l-0,2.562l-4.063,0c2.563,-2.125 6.563,-9.187 6.625,-9.562c0,-0.063 0.063,-0.125 0.063,-0.188c-0,-0.25 -0.25,-0.437 -0.438,-0.437c-0.312,0 -1.625,0.125 -2.187,0.125c-0.563,-0 -0.938,-0.125 -1.188,-0.125c-0.312,0 -0.75,0.125 -0.75,0.625c0,4 -3.25,8.562 -4.062,9.687c-0.125,0.125 -0.25,0.313 -0.25,0.5c-0,0.313 0.25,0.625 0.625,0.625l5.625,0l-0,1.938c-0,0.875 -0.5,1.125 -1,1.125c-0.563,-0 -0.813,0.25 -0.813,0.562c0,0.313 0.125,0.688 0.688,0.688l5.375,-0c0.312,-0 0.625,-0.25 0.625,-0.688c-0,-0.437 -0.375,-0.625 -0.688,-0.625c-0.312,0 -1,-0.187 -1,-1.187l0,-1.813l2.313,0c0.312,0 0.5,-0.25 0.5,-0.625c-0,-0.375 -0.125,-0.625 -0.5,-0.625l-2.313,0" style="fill-rule:nonzero;"/></g><g><path d="M190.507,0.014c-3.437,-0 -4.937,2.312 -4.937,3.625c-0,0.875 0.5,1.937 2.062,2c1.188,-0 1.75,-0.75 1.75,-1.563l0,-0.25c-0.062,-0.937 -0.687,-1 -0.812,-1.062c-0.125,-0.063 -0.375,-0.313 -0.375,-0.75c0.125,-0.688 1.062,-0.938 1.312,-0.938c3.188,0 4.125,1.688 4.125,2.75c0,2.938 -3,3.188 -3.937,3.25c-0.438,0 -0.875,0.188 -0.875,0.563c-0,0.375 0.562,0.375 0.812,0.375c3.625,-0 4.125,1.875 4.125,2.812c0,3.625 -2.937,3.75 -3.687,3.75c-0.375,0 -1,-0.187 -1.063,-0.5l0,-0.375c0,-0.687 0.188,-1.437 0.25,-2.062c0,-1.125 -0.75,-1.813 -1.875,-1.813l-0.25,0c-0.437,0.125 -0.875,0.375 -1.187,0.688c-0.438,0.375 -0.563,0.937 -0.563,1.5c0.063,2 1.813,3.687 4.938,3.75l0.375,-0c3.062,-0 6.25,-1.625 6.25,-4.375c-0,-0.625 -0.125,-1.125 -0.313,-1.5c-0.125,-0.375 -0.375,-0.688 -0.625,-0.938c-0.187,-0.25 -0.437,-0.437 -0.687,-0.625l-0.688,-0.375l-0.375,-0.125c-0.125,0 -0.187,-0.062 -0.312,-0.062l-0.375,-0.125c-0.188,-0.063 -0.25,-0 -0.313,-0.125c-0.062,-0.063 -0.062,-0.125 -0.062,-0.188c-0,-0.125 0.062,-0.25 0.187,-0.25l1,-0.312c0.438,-0.25 0.875,-0.438 1.188,-0.875c0.5,-0.5 0.687,-1.313 0.687,-2c0,-2.938 -3.875,-3.75 -5.25,-3.875l-0.5,-0" style="fill-rule:nonzero;"/></g><g><path d="M250.125,18.318c-0,-0.437 -0.188,-0.5 -0.375,-0.5c-0.25,0 -0.375,0.188 -0.438,0.375c-0.312,0.875 -1,2 -1.937,2c-0.125,0 -0.25,0 -0.375,-0.062l-0.938,-0.313c-0.625,-0.25 -2.125,-0.75 -3.375,-0.75c-0.437,0 -0.812,0.063 -1.187,0.188c0.687,-1.188 3.937,-2.75 4.625,-2.938c2.25,-0.312 4.125,-1.625 4.125,-4.062c-0,-1.5 -0.625,-2.5 -1.438,-3.25c-1.625,-1.313 -4,-1.5 -4.687,-1.5c-2.25,-0 -4.063,0.125 -5.688,2c-0.437,0.5 -0.625,1 -0.625,1.5c0,0.437 0.188,0.937 0.375,1.5c0.375,0.75 1.188,1.312 2.063,1.312c1.562,0 1.75,-1.5 1.75,-2.187c-0,-1.438 -1.563,-1.563 -1.563,-2.188c0,-0.437 0.625,-1.187 2.5,-1.187c2.938,-0 3.938,2.437 3.938,3.187c-0,1.125 -0.375,2.188 -1,3.063c-1.125,1.437 -3.188,1.937 -4.75,2.937c-1.75,1.063 -2.938,2.875 -3.5,4.875c-0,0.438 0.187,0.938 0.562,1.125c0.063,0.063 0.188,0.063 0.25,0.063c0.688,-0 1.063,-1.938 2.938,-1.938c1.25,0 1.687,1.688 4.5,1.688c1.312,-0 3.75,-0.125 4.25,-4.938" style="fill-rule:nonzero;"/></g><g><path d="M293.098,22.701c-0,0 -0.063,0.25 -0.063,0.438c0,0.25 0.25,0.5 0.5,0.5c0.188,-0 0.313,-0.188 0.375,-0.25c0.063,-0.188 0.813,-2.75 1.188,-3.375c0.125,-0.25 0.25,-0.313 0.312,-0.313c0.125,0 0.188,0.25 0.188,0.438l-0,8.937c-0,0.75 -0.625,1.188 -1.25,1.188c-0.25,-0 -0.563,0.125 -0.563,0.5c0,0.375 0.313,0.5 0.813,0.5l5.25,-0c0.5,-0 0.5,-0.5 0.5,-0.5c-0,-0 -0,-0.5 -0.5,-0.5c-0.438,-0 -1,-0.563 -1,-1.125l-0,-13c-0,-0.5 -0.188,-0.75 -0.625,-0.75c-0.438,-0 -0.813,0.125 -1.188,0.125c-0.625,-0 -0.75,-0 -1.25,-0.125c-0.25,-0 -0.562,0.375 -0.75,0.625l-1.937,6.687" style="fill-rule:nonzero;"/></g><g><path d="M352.789,33.437l-0,-6.687c-0,-0.313 -0.063,-0.563 -0.375,-0.563c-0.25,0 -0.438,0.063 -0.625,0.313l-1.875,3.625c-0.125,0.125 -0.313,0.312 -0.313,0.75l0,2.562l-4.062,0c2.562,-2.125 6.562,-9.187 6.625,-9.562c-0,-0.063 0.062,-0.125 0.062,-0.188c0,-0.25 -0.25,-0.437 -0.437,-0.437c-0.313,-0 -1.625,0.125 -2.188,0.125c-0.562,-0 -0.937,-0.125 -1.187,-0.125c-0.313,-0 -0.75,0.125 -0.75,0.625c-0,4 -3.25,8.562 -4.063,9.687c-0.125,0.125 -0.25,0.313 -0.25,0.5c0,0.313 0.25,0.625 0.625,0.625l5.625,0l0,1.938c0,0.875 -0.5,1.125 -1,1.125c-0.562,-0 -0.812,0.25 -0.812,0.562c-0,0.313 0.125,0.688 0.687,0.688l5.375,-0c0.313,-0 0.625,-0.25 0.625,-0.688c0,-0.437 -0.375,-0.625 -0.687,-0.625c-0.313,0 -1,-0.187 -1,-1.187l-0,-1.813l2.312,0c0.313,0 0.5,-0.25 0.5,-0.625c0,-0.375 -0.125,-0.625 -0.5,-0.625l-2.312,0" style="fill-rule:nonzero;"/></g><g><path d="M408.435,41.568c0,-0.437 -0.187,-0.5 -0.375,-0.5c-0.25,0 -0.375,0.188 -0.437,0.375c-0.313,0.875 -1,2 -1.938,2c-0.125,0 -0.25,0 -0.375,-0.062l-0.937,-0.313c-0.625,-0.25 -2.125,-0.75 -3.375,-0.75c-0.438,0 -0.813,0.063 -1.188,0.188c0.688,-1.188 3.938,-2.75 4.625,-2.938c2.25,-0.312 4.125,-1.625 4.125,-4.062c0,-1.5 -0.625,-2.5 -1.437,-3.25c-1.625,-1.313 -4,-1.5 -4.688,-1.5c-2.25,-0 -4.062,0.125 -5.687,2c-0.438,0.5 -0.625,1 -0.625,1.5c-0,0.437 0.187,0.937 0.375,1.5c0.375,0.75 1.187,1.312 2.062,1.312c1.563,0 1.75,-1.5 1.75,-2.187c0,-1.438 -1.562,-1.563 -1.562,-2.188c-0,-0.437 0.625,-1.187 2.5,-1.187c2.937,-0 3.937,2.437 3.937,3.187c0,1.125 -0.375,2.188 -1,3.063c-1.125,1.437 -3.187,1.937 -4.75,2.937c-1.75,1.063 -2.937,2.875 -3.5,4.875c0,0.438 0.188,0.938 0.563,1.125c0.062,0.063 0.187,0.063 0.25,0.063c0.687,-0 1.062,-1.938 2.937,-1.938c1.25,0 1.688,1.688 4.5,1.688c1.313,-0 3.75,-0.125 4.25,-4.938" style="fill-rule:nonzero;"/></g><g><path d="M451.407,45.951c0,0 -0.062,0.25 -0.062,0.438c-0,0.25 0.25,0.5 0.5,0.5c0.187,-0 0.312,-0.188 0.375,-0.25c0.062,-0.188 0.812,-2.75 1.187,-3.375c0.125,-0.25 0.25,-0.313 0.313,-0.313c0.125,0 0.187,0.25 0.187,0.438l0,8.937c0,0.75 -0.625,1.188 -1.25,1.188c-0.25,-0 -0.562,0.125 -0.562,0.5c-0,0.375 0.312,0.5 0.812,0.5l5.25,-0c0.5,-0 0.5,-0.5 0.5,-0.5c0,-0 0,-0.5 -0.5,-0.5c-0.437,-0 -1,-0.563 -1,-1.125l0,-13c0,-0.5 -0.187,-0.75 -0.625,-0.75c-0.437,-0 -0.812,0.125 -1.187,0.125c-0.625,-0 -0.75,-0 -1.25,-0.125c-0.25,-0 -0.563,0.375 -0.75,0.625l-1.938,6.687" style="fill-rule:nonzero;"/></g><g><path d="M504.142,53.701c-0,0 -0.063,0.25 -0.063,0.438c0,0.25 0.25,0.5 0.5,0.5c0.188,-0 0.313,-0.188 0.375,-0.25c0.063,-0.188 0.813,-2.75 1.188,-3.375c0.125,-0.25 0.25,-0.313 0.312,-0.313c0.125,0 0.188,0.25 0.188,0.438l-0,8.937c-0,0.75 -0.625,1.188 -1.25,1.188c-0.25,-0 -0.563,0.125 -0.563,0.5c0,0.375 0.313,0.5 0.813,0.5l5.25,-0c0.5,-0 0.5,-0.5 0.5,-0.5c-0,-0 -0,-0.5 -0.5,-0.5c-0.438,-0 -1,-0.563 -1,-1.125l-0,-13c-0,-0.5 -0.188,-0.75 -0.625,-0.75c-0.438,-0 -0.813,0.125 -1.188,0.125c-0.625,-0 -0.75,-0 -1.25,-0.125c-0.25,-0 -0.562,0.375 -0.75,0.625l-1.937,6.687" style="fill-rule:nonzero;"/></g><g><path d="M563.807,56.701l0,-6.687c0,-0.313 -0.062,-0.563 -0.375,-0.563c-0.25,0 -0.437,0.063 -0.625,0.313l-1.875,3.625c-0.125,0.125 -0.312,0.312 -0.312,0.75l-0,2.562l-4.063,0c2.563,-2.125 6.563,-9.187 6.625,-9.562c0,-0.063 0.063,-0.125 0.063,-0.188c-0,-0.25 -0.25,-0.437 -0.438,-0.437c-0.312,-0 -1.625,0.125 -2.187,0.125c-0.563,-0 -0.938,-0.125 -1.188,-0.125c-0.312,-0 -0.75,0.125 -0.75,0.625c0,4 -3.25,8.562 -4.062,9.687c-0.125,0.125 -0.25,0.313 -0.25,0.5c-0,0.313 0.25,0.625 0.625,0.625l5.625,0l-0,1.938c-0,0.875 -0.5,1.125 -1,1.125c-0.563,-0 -0.813,0.25 -0.813,0.562c0,0.313 0.125,0.688 0.688,0.688l5.375,-0c0.312,-0 0.625,-0.25 0.625,-0.688c-0,-0.437 -0.375,-0.625 -0.688,-0.625c-0.312,0 -1,-0.187 -1,-1.187l0,-1.813l2.313,0c0.312,0 0.5,-0.25 0.5,-0.625c-0,-0.375 -0.125,-0.625 -0.5,-0.625l-2.313,0" style="fill-rule:nonzero;"/></g><g><path d="M612.595,46.576c-3.438,0 -4.938,2.313 -4.938,3.625c0,0.875 0.5,1.938 2.063,2c1.187,0 1.75,-0.75 1.75,-1.562l-0,-0.25c-0.063,-0.938 -0.688,-1 -0.813,-1.063c-0.125,-0.062 -0.375,-0.312 -0.375,-0.75c0.125,-0.687 1.063,-0.937 1.313,-0.937c3.187,-0 4.125,1.687 4.125,2.75c-0,2.937 -3,3.187 -3.938,3.25c-0.437,-0 -0.875,0.187 -0.875,0.562c0,0.375 0.563,0.375 0.813,0.375c3.625,0 4.125,1.875 4.125,2.813c-0,3.625 -2.938,3.75 -3.688,3.75c-0.375,-0 -1,-0.188 -1.062,-0.5l-0,-0.375c-0,-0.688 0.187,-1.438 0.25,-2.063c-0,-1.125 -0.75,-1.812 -1.875,-1.812l-0.25,-0c-0.438,0.125 -0.875,0.375 -1.188,0.687c-0.437,0.375 -0.562,0.938 -0.562,1.5c0.062,2 1.812,3.688 4.937,3.75l0.375,0c3.063,0 6.25,-1.625 6.25,-4.375c0,-0.625 -0.125,-1.125 -0.312,-1.5c-0.125,-0.375 -0.375,-0.687 -0.625,-0.937c-0.188,-0.25 -0.438,-0.438 -0.688,-0.625l-0.687,-0.375l-0.375,-0.125c-0.125,-0 -0.188,-0.063 -0.313,-0.063l-0.375,-0.125c-0.187,-0.062 -0.25,0 -0.312,-0.125c-0.063,-0.062 -0.063,-0.125 -0.063,-0.187c0,-0.125 0.063,-0.25 0.188,-0.25l1,-0.313c0.437,-0.25 0.875,-0.437 1.187,-0.875c0.5,-0.5 0.688,-1.312 0.688,-2c-0,-2.937 -3.875,-3.75 -5.25,-3.875l-0.5,0" style="fill-rule:nonzero;"/></g><g><path d="M672.213,57.326c0,-0.437 -0.187,-0.5 -0.375,-0.5c-0.25,0 -0.375,0.188 -0.437,0.375c-0.313,0.875 -1,2 -1.938,2c-0.125,0 -0.25,0 -0.375,-0.062l-0.937,-0.313c-0.625,-0.25 -2.125,-0.75 -3.375,-0.75c-0.438,0 -0.813,0.063 -1.188,0.188c0.688,-1.188 3.938,-2.75 4.625,-2.938c2.25,-0.312 4.125,-1.625 4.125,-4.062c0,-1.5 -0.625,-2.5 -1.437,-3.25c-1.625,-1.313 -4,-1.5 -4.688,-1.5c-2.25,-0 -4.062,0.125 -5.687,2c-0.438,0.5 -0.625,1 -0.625,1.5c-0,0.437 0.187,0.937 0.375,1.5c0.375,0.75 1.187,1.312 2.062,1.312c1.563,0 1.75,-1.5 1.75,-2.187c0,-1.438 -1.562,-1.563 -1.562,-2.188c-0,-0.437 0.625,-1.187 2.5,-1.187c2.937,-0 3.937,2.437 3.937,3.187c0,1.125 -0.375,2.188 -1,3.063c-1.125,1.437 -3.187,1.937 -4.75,2.937c-1.75,1.063 -2.937,2.875 -3.5,4.875c0,0.438 0.188,0.938 0.563,1.125c0.062,0.063 0.187,0.063 0.25,0.063c0.687,-0 1.062,-1.938 2.937,-1.938c1.25,0 1.688,1.688 4.5,1.688c1.313,-0 3.75,-0.125 4.25,-4.938" style="fill-rule:nonzero;"/></g><g><path d="M715.17,53.764c-0,-0 -0.063,0.25 -0.063,0.437c0,0.25 0.25,0.5 0.5,0.5c0.188,0 0.313,-0.187 0.375,-0.25c0.063,-0.187 0.813,-2.75 1.188,-3.375c0.125,-0.25 0.25,-0.312 0.312,-0.312c0.125,-0 0.188,0.25 0.188,0.437l-0,8.938c-0,0.75 -0.625,1.187 -1.25,1.187c-0.25,0 -0.563,0.125 -0.563,0.5c0,0.375 0.313,0.5 0.813,0.5l5.25,0c0.5,0 0.5,-0.5 0.5,-0.5c-0,0 -0,-0.5 -0.5,-0.5c-0.438,0 -1,-0.562 -1,-1.125l-0,-13c-0,-0.5 -0.188,-0.75 -0.625,-0.75c-0.438,0 -0.813,0.125 -1.188,0.125c-0.625,0 -0.75,0 -1.25,-0.125c-0.25,0 -0.562,0.375 -0.75,0.625l-1.937,6.688" style="fill-rule:nonzero;"/></g><g><path d="M800.619,45.078l0,-6.687c0,-0.313 -0.062,-0.563 -0.375,-0.563c-0.25,0 -0.437,0.063 -0.625,0.313l-1.874,3.625c-0.125,0.125 -0.313,0.312 -0.313,0.75l0,2.562l-4.062,0c2.562,-2.125 6.562,-9.187 6.624,-9.562c0,-0.063 0.063,-0.125 0.063,-0.188c-0,-0.25 -0.25,-0.437 -0.438,-0.437c-0.312,-0 -1.624,0.125 -2.187,0.125c-0.562,-0 -0.937,-0.125 -1.187,-0.125c-0.313,-0 -0.75,0.125 -0.75,0.625c-0,4 -3.25,8.562 -4.063,9.687c-0.125,0.125 -0.25,0.313 -0.25,0.5c0,0.313 0.25,0.625 0.625,0.625l5.625,0l0,1.938c0,0.875 -0.5,1.125 -1,1.125c-0.562,-0 -0.812,0.25 -0.812,0.562c-0,0.313 0.125,0.688 0.687,0.688l5.375,-0c0.312,-0 0.625,-0.25 0.625,-0.688c-0,-0.437 -0.375,-0.625 -0.688,-0.625c-0.312,0 -1,-0.187 -1,-1.187l0,-1.813l2.313,0c0.312,0 0.5,-0.25 0.5,-0.625c-0,-0.375 -0.125,-0.625 -0.5,-0.625l-2.313,0" style="fill-rule:nonzero;"/></g><g><path d="M856.266,49.482c0,-0.437 -0.187,-0.5 -0.375,-0.5c-0.25,0 -0.375,0.188 -0.437,0.375c-0.313,0.875 -1,2 -1.938,2c-0.125,0 -0.25,0 -0.375,-0.062l-0.937,-0.313c-0.625,-0.25 -2.125,-0.75 -3.375,-0.75c-0.438,0 -0.813,0.063 -1.188,0.188c0.688,-1.188 3.938,-2.75 4.625,-2.938c2.25,-0.312 4.125,-1.625 4.125,-4.062c0,-1.5 -0.625,-2.5 -1.437,-3.25c-1.625,-1.313 -4,-1.5 -4.688,-1.5c-2.25,-0 -4.062,0.125 -5.687,2c-0.438,0.5 -0.625,1 -0.625,1.5c-0,0.437 0.187,0.937 0.375,1.5c0.375,0.75 1.187,1.312 2.062,1.312c1.563,0 1.75,-1.5 1.75,-2.187c0,-1.438 -1.562,-1.563 -1.562,-2.188c-0,-0.437 0.625,-1.187 2.5,-1.187c2.937,-0 3.937,2.437 3.937,3.187c0,1.125 -0.375,2.188 -1,3.063c-1.125,1.437 -3.187,1.937 -4.75,2.937c-1.75,1.063 -2.937,2.875 -3.5,4.875c0,0.438 0.188,0.938 0.563,1.125c0.062,0.063 0.187,0.063 0.25,0.063c0.687,-0 1.062,-1.938 2.937,-1.938c1.25,0 1.688,1.688 4.5,1.688c1.313,-0 3.75,-0.125 4.25,-4.938" style="fill-rule:nonzero;"/></g><g><path d="M899.223,52.112c-0,0 -0.063,0.25 -0.063,0.438c0,0.25 0.25,0.5 0.5,0.5c0.188,-0 0.313,-0.188 0.375,-0.25c0.063,-0.188 0.813,-2.75 1.188,-3.375c0.125,-0.25 0.25,-0.313 0.312,-0.313c0.125,0 0.188,0.25 0.188,0.438l-0,8.937c-0,0.75 -0.625,1.188 -1.25,1.188c-0.25,-0 -0.563,0.125 -0.563,0.5c0,0.375 0.313,0.5 0.813,0.5l5.25,-0c0.5,-0 0.5,-0.5 0.5,-0.5c-0,-0 -0,-0.5 -0.5,-0.5c-0.438,-0 -1,-0.563 -1,-1.125l-0,-13c-0,-0.5 -0.188,-0.75 -0.625,-0.75c-0.438,-0 -0.813,0.125 -1.188,0.125c-0.625,-0 -0.75,-0 -1.25,-0.125c-0.25,-0 -0.562,0.375 -0.75,0.625l-1.937,6.687" style="fill-rule:nonzero;"/></g><g><path d="M951.957,53.764c-0,-0 -0.063,0.25 -0.063,0.437c0,0.25 0.25,0.5 0.5,0.5c0.188,0 0.313,-0.187 0.375,-0.25c0.063,-0.187 0.813,-2.75 1.188,-3.375c0.125,-0.25 0.25,-0.312 0.312,-0.312c0.125,-0 0.188,0.25 0.188,0.437l-0,8.938c-0,0.75 -0.625,1.187 -1.25,1.187c-0.25,0 -0.563,0.125 -0.563,0.5c0,0.375 0.313,0.5 0.813,0.5l5.25,0c0.5,0 0.5,-0.5 0.5,-0.5c-0,0 -0,-0.5 -0.5,-0.5c-0.438,0 -1,-0.562 -1,-1.125l-0,-13c-0,-0.5 -0.188,-0.75 -0.625,-0.75c-0.438,0 -0.813,0.125 -1.188,0.125c-0.625,0 -0.75,0 -1.25,-0.125c-0.25,0 -0.562,0.375 -0.75,0.625l-1.937,6.688" style="fill-rule:nonzero;"/></g><g><path d="M1011.64,56.701l0,-6.687c0,-0.313 -0.062,-0.563 -0.375,-0.563c-0.25,0 -0.437,0.063 -0.625,0.313l-1.875,3.625c-0.125,0.125 -0.312,0.312 -0.312,0.75l-0,2.562l-4.063,0c2.563,-2.125 6.563,-9.187 6.625,-9.562c0,-0.063 0.063,-0.125 0.063,-0.188c-0,-0.25 -0.25,-0.437 -0.438,-0.437c-0.312,-0 -1.625,0.125 -2.187,0.125c-0.563,-0 -0.938,-0.125 -1.188,-0.125c-0.312,-0 -0.75,0.125 -0.75,0.625c0,4 -3.25,8.562 -4.062,9.687c-0.125,0.125 -0.25,0.313 -0.25,0.5c-0,0.313 0.25,0.625 0.625,0.625l5.625,0l-0,1.938c-0,0.875 -0.5,1.125 -1,1.125c-0.563,-0 -0.813,0.25 -0.813,0.562c0,0.313 0.125,0.688 0.688,0.688l5.375,-0c0.312,-0 0.625,-0.25 0.625,-0.688c-0,-0.437 -0.375,-0.625 -0.688,-0.625c-0.312,0 -1,-0.187 -1,-1.187l0,-1.813l2.313,0c0.312,0 0.5,-0.25 0.5,-0.625c-0,-0.375 -0.125,-0.625 -0.5,-0.625l-2.313,0" style="fill-rule:nonzero;"/></g><g><path d="M1060.44,46.576c-3.437,0 -4.937,2.313 -4.937,3.625c-0,0.875 0.5,1.938 2.062,2c1.188,0 1.75,-0.75 1.75,-1.562l0,-0.25c-0.062,-0.938 -0.687,-1 -0.812,-1.063c-0.125,-0.062 -0.375,-0.312 -0.375,-0.75c0.125,-0.687 1.062,-0.937 1.312,-0.937c3.188,-0 4.125,1.687 4.125,2.75c0,2.937 -3,3.187 -3.937,3.25c-0.438,-0 -0.875,0.187 -0.875,0.562c-0,0.375 0.562,0.375 0.812,0.375c3.625,0 4.125,1.875 4.125,2.813c0,3.625 -2.937,3.75 -3.687,3.75c-0.375,-0 -1,-0.188 -1.063,-0.5l0,-0.375c0,-0.688 0.188,-1.438 0.25,-2.063c0,-1.125 -0.75,-1.812 -1.875,-1.812l-0.25,-0c-0.437,0.125 -0.875,0.375 -1.187,0.687c-0.438,0.375 -0.563,0.938 -0.563,1.5c0.063,2 1.813,3.688 4.938,3.75l0.375,0c3.062,0 6.25,-1.625 6.25,-4.375c-0,-0.625 -0.125,-1.125 -0.313,-1.5c-0.125,-0.375 -0.375,-0.687 -0.625,-0.937c-0.187,-0.25 -0.437,-0.438 -0.687,-0.625l-0.688,-0.375l-0.375,-0.125c-0.125,-0 -0.187,-0.063 -0.312,-0.063l-0.375,-0.125c-0.188,-0.062 -0.25,0 -0.313,-0.125c-0.062,-0.062 -0.062,-0.125 -0.062,-0.187c-0,-0.125 0.062,-0.25 0.187,-0.25l1,-0.313c0.438,-0.25 0.875,-0.437 1.188,-0.875c0.5,-0.5 0.687,-1.312 0.687,-2c0,-2.937 -3.875,-3.75 -5.25,-3.875l-0.5,0" style="fill-rule:nonzero;"/></g><g><path d="M1120.06,57.326c0,-0.437 -0.187,-0.5 -0.375,-0.5c-0.25,0 -0.375,0.188 -0.437,0.375c-0.313,0.875 -1,2 -1.938,2c-0.125,0 -0.25,0 -0.375,-0.062l-0.937,-0.313c-0.625,-0.25 -2.125,-0.75 -3.375,-0.75c-0.438,0 -0.813,0.063 -1.188,0.188c0.688,-1.188 3.938,-2.75 4.625,-2.938c2.25,-0.312 4.125,-1.625 4.125,-4.062c0,-1.5 -0.625,-2.5 -1.437,-3.25c-1.625,-1.313 -4,-1.5 -4.688,-1.5c-2.25,-0 -4.062,0.125 -5.687,2c-0.438,0.5 -0.625,1 -0.625,1.5c-0,0.437 0.187,0.937 0.375,1.5c0.375,0.75 1.187,1.312 2.062,1.312c1.563,0 1.75,-1.5 1.75,-2.187c0,-1.438 -1.562,-1.563 -1.562,-2.188c-0,-0.437 0.625,-1.187 2.5,-1.187c2.937,-0 3.937,2.437 3.937,3.187c0,1.125 -0.375,2.188 -1,3.063c-1.125,1.437 -3.187,1.937 -4.75,2.937c-1.75,1.063 -2.937,2.875 -3.5,4.875c0,0.438 0.188,0.938 0.563,1.125c0.062,0.063 0.187,0.063 0.25,0.063c0.687,-0 1.062,-1.938 2.937,-1.938c1.25,0 1.688,1.688 4.5,1.688c1.313,-0 3.75,-0.125 4.25,-4.938" style="fill-rule:nonzero;"/></g><g><path d="M1163.04,53.764c-0,-0 -0.063,0.25 -0.063,0.437c0,0.25 0.25,0.5 0.5,0.5c0.188,0 0.313,-0.187 0.375,-0.25c0.063,-0.187 0.813,-2.75 1.188,-3.375c0.125,-0.25 0.25,-0.312 0.312,-0.312c0.125,-0 0.188,0.25 0.188,0.437l-0,8.938c-0,0.75 -0.625,1.187 -1.25,1.187c-0.25,0 -0.563,0.125 -0.563,0.5c0,0.375 0.313,0.5 0.813,0.5l5.25,0c0.5,0 0.5,-0.5 0.5,-0.5c-0,0 -0,-0.5 -0.5,-0.5c-0.438,0 -1,-0.562 -1,-1.125l-0,-13c-0,-0.5 -0.188,-0.75 -0.625,-0.75c-0.438,0 -0.813,0.125 -1.188,0.125c-0.625,0 -0.75,0 -1.25,-0.125c-0.25,0 -0.562,0.375 -0.75,0.625l-1.937,6.688" style="fill-rule:nonzero;"/></g><g><path d="M1222.73,56.701l0,-6.687c0,-0.313 -0.062,-0.563 -0.375,-0.563c-0.25,0 -0.437,0.063 -0.625,0.313l-1.875,3.625c-0.125,0.125 -0.312,0.312 -0.312,0.75l-0,2.562l-4.063,0c2.563,-2.125 6.563,-9.187 6.625,-9.562c0,-0.063 0.063,-0.125 0.063,-0.188c-0,-0.25 -0.25,-0.437 -0.438,-0.437c-0.312,-0 -1.625,0.125 -2.187,0.125c-0.563,-0 -0.938,-0.125 -1.188,-0.125c-0.312,-0 -0.75,0.125 -0.75,0.625c0,4 -3.25,8.562 -4.062,9.687c-0.125,0.125 -0.25,0.313 -0.25,0.5c-0,0.313 0.25,0.625 0.625,0.625l5.625,0l-0,1.938c-0,0.875 -0.5,1.125 -1,1.125c-0.563,-0 -0.813,0.25 -0.813,0.562c0,0.313 0.125,0.688 0.688,0.688l5.375,-0c0.312,-0 0.625,-0.25 0.625,-0.688c-0,-0.437 -0.375,-0.625 -0.688,-0.625c-0.312,0 -1,-0.187 -1,-1.187l0,-1.813l2.313,0c0.312,0 0.5,-0.25 0.5,-0.625c-0,-0.375 -0.125,-0.625 -0.5,-0.625l-2.313,0" style="fill-rule:nonzero;"/></g><g><path d="M1278.37,57.326c0,-0.437 -0.187,-0.5 -0.375,-0.5c-0.25,0 -0.375,0.188 -0.437,0.375c-0.313,0.875 -1,2 -1.938,2c-0.125,0 -0.25,0 -0.375,-0.062l-0.937,-0.313c-0.625,-0.25 -2.125,-0.75 -3.375,-0.75c-0.438,0 -0.813,0.063 -1.188,0.188c0.688,-1.188 3.938,-2.75 4.625,-2.938c2.25,-0.312 4.125,-1.625 4.125,-4.062c0,-1.5 -0.625,-2.5 -1.437,-3.25c-1.625,-1.313 -4,-1.5 -4.688,-1.5c-2.25,-0 -4.062,0.125 -5.687,2c-0.438,0.5 -0.625,1 -0.625,1.5c-0,0.437 0.187,0.937 0.375,1.5c0.375,0.75 1.187,1.312 2.062,1.312c1.563,0 1.75,-1.5 1.75,-2.187c0,-1.438 -1.562,-1.563 -1.562,-2.188c-0,-0.437 0.625,-1.187 2.5,-1.187c2.937,-0 3.937,2.437 3.937,3.187c0,1.125 -0.375,2.188 -1,3.063c-1.125,1.437 -3.187,1.937 -4.75,2.937c-1.75,1.063 -2.937,2.875 -3.5,4.875c0,0.438 0.188,0.938 0.563,1.125c0.062,0.063 0.187,0.063 0.25,0.063c0.687,-0 1.062,-1.938 2.937,-1.938c1.25,0 1.688,1.688 4.5,1.688c1.313,-0 3.75,-0.125 4.25,-4.938" style="fill-rule:nonzero;"/></g><g><path d="M1321.35,53.764c0,-0 -0.062,0.25 -0.062,0.437c-0,0.25 0.25,0.5 0.5,0.5c0.187,0 0.312,-0.187 0.375,-0.25c0.062,-0.187 0.812,-2.75 1.187,-3.375c0.125,-0.25 0.25,-0.312 0.313,-0.312c0.125,-0 0.187,0.25 0.187,0.437l0,8.938c0,0.75 -0.625,1.187 -1.25,1.187c-0.25,0 -0.562,0.125 -0.562,0.5c-0,0.375 0.312,0.5 0.812,0.5l5.25,0c0.5,0 0.5,-0.5 0.5,-0.5c0,0 0,-0.5 -0.5,-0.5c-0.437,0 -1,-0.562 -1,-1.125l0,-13c0,-0.5 -0.187,-0.75 -0.625,-0.75c-0.437,0 -0.812,0.125 -1.187,0.125c-0.625,0 -0.75,0 -1.25,-0.125c-0.25,0 -0.563,0.375 -0.75,0.625l-1.938,6.688" style="fill-rule:nonzero;"/></g><g><path d="M1374.1,53.764c0,-0 -0.062,0.25 -0.062,0.437c-0,0.25 0.25,0.5 0.5,0.5c0.187,0 0.312,-0.187 0.375,-0.25c0.062,-0.187 0.812,-2.75 1.187,-3.375c0.125,-0.25 0.25,-0.312 0.313,-0.312c0.125,-0 0.187,0.25 0.187,0.437l0,8.938c0,0.75 -0.625,1.187 -1.25,1.187c-0.25,0 -0.562,0.125 -0.562,0.5c-0,0.375 0.312,0.5 0.812,0.5l5.25,0c0.5,0 0.5,-0.5 0.5,-0.5c0,0 0,-0.5 -0.5,-0.5c-0.437,0 -1,-0.562 -1,-1.125l0,-13c0,-0.5 -0.187,-0.75 -0.625,-0.75c-0.437,0 -0.812,0.125 -1.187,0.125c-0.625,0 -0.75,0 -1.25,-0.125c-0.25,0 -0.563,0.375 -0.75,0.625l-1.938,6.688" style="fill-rule:nonzero;"/></g><g><path d="M1471.55,54.514c0,-4.313 -3,-7.875 -6.75,-7.875c-3.687,-0 -6.687,3.562 -6.687,7.875c-0,4.312 3,7.875 6.687,7.875c3.75,-0 6.75,-3.563 6.75,-7.875m-6.75,-6.875c1.313,-0 3,2.937 3,6.625c0,3.687 -1.687,6.687 -3,6.687c-1.312,0 -2.937,-3 -2.937,-6.687c-0,-3.688 1.625,-6.625 2.937,-6.625" style="fill-rule:nonzero;"/></g><g><path d="M138.384,162.482c5.322,0 9.669,4.306 9.669,9.628c-0,5.322 -4.347,9.669 -9.669,9.669c-5.322,-0 -9.669,-4.347 -9.669,-9.669c0,-5.322 4.347,-9.628 9.669,-9.628m1.219,2.803l-1.178,0c-0.61,2.235 -1.016,2.519 -3.778,2.885l-0,1.259l3.168,-0l0,10.278l1.788,0l-0,-14.422m-1.219,17.794c6.053,-0 10.969,-4.916 10.969,-10.969c-0,-6.053 -4.916,-10.928 -10.969,-10.928c-6.053,0 -10.969,4.875 -10.969,10.928c0,6.053 4.916,10.969 10.969,10.969" style="fill-rule:nonzero;"/></g><g><path d="M349.467,172.78c5.322,0 9.668,4.306 9.668,9.628c0,5.322 -4.346,9.669 -9.668,9.669c-5.322,0 -9.669,-4.347 -9.669,-9.669c-0,-5.322 4.347,-9.628 9.669,-9.628m-0,20.597c6.053,0 10.968,-4.916 10.968,-10.969c0,-6.053 -4.915,-10.928 -10.968,-10.928c-6.053,0 -10.969,4.875 -10.969,10.928c-0,6.053 4.916,10.969 10.969,10.969m4.834,-14.544c0,-2.437 -1.869,-4.225 -4.591,-4.225c-2.965,0 -4.671,1.503 -4.753,4.997l1.788,0c0.122,-2.397 1.137,-3.412 2.884,-3.412c1.625,-0 2.844,1.137 2.844,2.681c-0,1.137 -0.65,2.112 -1.95,2.844l-1.869,1.056c-3.006,1.706 -3.859,3.087 -4.022,6.256l9.588,0l-0,-1.787l-7.597,-0c0.203,-1.178 0.853,-1.91 2.6,-2.966l2.031,-1.097c2.031,-1.056 3.047,-2.559 3.047,-4.347" style="fill-rule:nonzero;"/></g><g><path d="M560.488,172.934c5.322,-0 9.669,4.306 9.669,9.628c0,5.322 -4.347,9.668 -9.669,9.668c-5.321,0 -9.668,-4.346 -9.668,-9.668c-0,-5.322 4.347,-9.628 9.668,-9.628m0,20.596c6.054,0 10.969,-4.915 10.969,-10.968c0,-6.053 -4.915,-10.928 -10.969,-10.928c-6.053,-0 -10.968,4.875 -10.968,10.928c-0,6.053 4.915,10.968 10.968,10.968m4.835,-8.003c-0,-1.747 -0.731,-2.762 -2.438,-3.372c1.341,-0.528 1.991,-1.462 1.991,-2.884c-0,-2.478 -1.625,-3.981 -4.388,-3.981c-2.884,-0 -4.428,1.584 -4.509,4.672l1.788,-0c0.04,-2.153 0.934,-3.088 2.762,-3.088c1.584,0 2.519,0.935 2.519,2.438c-0,1.543 -0.65,2.193 -3.535,2.193l0,1.504l0.975,-0c1.991,-0 3.007,0.934 3.007,2.518c-0,1.828 -1.138,2.885 -3.007,2.885c-1.95,-0 -2.884,-0.975 -3.006,-3.047l-1.787,-0c0.203,3.209 1.787,4.631 4.753,4.631c2.965,0 4.875,-1.747 4.875,-4.469" style="fill-rule:nonzero;"/></g><g><path d="M793.295,183.355l4.509,-6.297l-0,6.297l-4.509,0m4.021,-11.781c5.322,-0 9.669,4.306 9.669,9.628c0,5.322 -4.347,9.669 -9.669,9.669c-5.321,-0 -9.668,-4.347 -9.668,-9.669c-0,-5.322 4.347,-9.628 9.668,-9.628m4.388,11.781l-2.113,0l0,-9.344l-1.34,0l-6.541,9.06l0,1.909l6.094,0l-0,3.453l1.787,0l0,-3.453l2.113,0l-0,-1.625m-4.388,8.816c6.053,-0 10.969,-4.916 10.969,-10.969c0,-6.053 -4.916,-10.928 -10.969,-10.928c-6.053,-0 -10.968,4.875 -10.968,10.928c-0,6.053 4.915,10.969 10.968,10.969" style="fill-rule:nonzero;"/></g><g><path d="M1008.32,193.206c5.322,0 9.669,4.307 9.669,9.629c0,5.321 -4.347,9.668 -9.669,9.668c-5.322,0 -9.668,-4.347 -9.668,-9.668c-0,-5.322 4.346,-9.629 9.668,-9.629m4.713,12.229c-0,-2.844 -1.91,-4.713 -4.672,-4.713c-1.016,0 -1.828,0.244 -2.641,0.853l0.569,-3.697l5.972,0l-0,-1.787l-7.434,-0l-1.057,7.556l1.625,0c0.853,-1.016 1.544,-1.341 2.641,-1.341c1.95,0 3.169,1.219 3.169,3.372c-0,2.072 -1.219,3.25 -3.169,3.25c-1.544,0 -2.519,-0.812 -2.925,-2.437l-1.788,-0c0.569,2.884 2.194,4.022 4.754,4.022c2.925,-0 4.956,-2.032 4.956,-5.078m-4.713,8.368c6.053,0 10.969,-4.915 10.969,-10.968c0,-6.054 -4.916,-10.929 -10.969,-10.929c-6.053,0 -10.968,4.875 -10.968,10.929c-0,6.053 4.915,10.968 10.968,10.968" style="fill-rule:nonzero;"/></g><g><path d="M1219.41,217.996c5.322,-0 9.668,4.306 9.668,9.628c0,5.322 -4.346,9.669 -9.668,9.669c-5.322,-0 -9.669,-4.347 -9.669,-9.669c-0,-5.322 4.347,-9.628 9.669,-9.628m2.925,12.512c-0,1.828 -1.219,3.047 -2.885,3.047c-1.665,0 -2.925,-1.3 -2.925,-3.128c0,-1.787 1.219,-2.966 3.007,-2.966c1.706,0 2.803,1.138 2.803,3.047m1.828,-0.122c-0,-2.681 -1.828,-4.509 -4.428,-4.509c-1.422,0 -2.519,0.569 -3.291,1.625c0,-3.534 1.138,-5.484 3.209,-5.484c1.26,-0 2.113,0.812 2.397,2.193l1.788,0c-0.325,-2.356 -1.869,-3.778 -4.063,-3.778c-3.372,0 -5.159,2.844 -5.159,7.841c-0,4.509 1.544,6.866 4.834,6.866c2.722,-0 4.713,-1.95 4.713,-4.754m-4.753,8.207c6.053,-0 10.968,-4.916 10.968,-10.969c0,-6.053 -4.915,-10.928 -10.968,-10.928c-6.053,-0 -10.969,4.875 -10.969,10.928c-0,6.053 4.916,10.969 10.969,10.969" style="fill-rule:nonzero;"/></g><g><path d="M135.223,39.139c5.563,-0 12.375,-5.125 12.375,-10.438c0,-3.187 -2.5,-5.187 -6.062,-5.187c-6.875,-0 -12.375,5.062 -12.375,10.437c-0,3.25 2.687,5.188 6.062,5.188" style="fill-rule:nonzero;"/></g><g><path d="M166.886,36.389c0,-0 -0.187,-3.75 -0.187,-6.25c-0,-1 0.062,-1.75 0.125,-2c0.437,-1.25 2.937,-3.063 4.375,-3.063c1.812,0 2.562,2.063 2.562,3.625c0,3.375 -2.875,6.75 -5.562,8.438c-0.25,0.125 -0.438,0.187 -0.625,0.187c-0.563,0 -0.688,-0.625 -0.688,-0.937m-2.187,5.562c0.187,0.25 0.375,0.313 0.562,0.313c0.188,-0 0.375,-0.125 0.375,-0.125c1.875,-1.063 3.375,-2.75 4.938,-3.813c5.562,-3.875 7.5,-7.687 7.5,-10.562c-0,-3.563 -2.75,-5.813 -5.625,-6c-1.063,-0 -2.563,0.5 -3.438,1.062c-0.375,0.313 -1.062,0.875 -1.375,0.875c-0.125,0 -0.187,0 -0.312,-0.062c-0.438,-0.188 -0.688,-0.625 -0.688,-1.063c0.063,-1.375 0.438,-16.375 0.438,-17.625c-0,-0.687 -0.563,-1.062 -1.188,-1.062c-0.875,-0 -1.875,0.625 -1.937,1.75c-0,-0 0.25,35.687 0.75,36.312" style="fill-rule:nonzero;"/></g><g><path d="M187.997,39.139c5.563,-0 12.375,-5.125 12.375,-10.438c0,-3.187 -2.5,-5.187 -6.062,-5.187c-6.875,-0 -12.375,5.062 -12.375,10.437c-0,3.25 2.687,5.188 6.062,5.188" style="fill-rule:nonzero;"/></g><g><path d="M240.777,46.889c5.563,-0 12.375,-5.125 12.375,-10.438c0,-3.187 -2.5,-5.187 -6.062,-5.187c-6.875,-0 -12.375,5.062 -12.375,10.437c-0,3.25 2.687,5.188 6.062,5.188" style="fill-rule:nonzero;"/></g><g><path d="M278.538,49.639c-0.375,1.25 -3.313,2.5 -4.75,2.5c-0.375,-0 -0.688,-0.125 -0.75,-0.313c-0.125,-0.25 -0.188,-1.625 -0.188,-3.125c0,-1.937 0.063,-4.125 0.188,-4.625c0.125,-1.062 3,-2.375 4.562,-2.375c0.438,0 0.813,0.125 0.938,0.375c0.125,0.313 0.25,1.875 0.25,3.563c-0,1.687 -0.125,3.437 -0.25,4m4.312,-10.188c0.438,-0.187 0.75,-0.687 0.75,-1.062l0,-4.438c0,-0.312 -0.187,-0.5 -0.437,-0.5c-0.125,0 -0.188,0 -0.313,0.063c0,-0 -1.25,0.5 -1.562,0.562c-0.438,0 -0.875,-0.312 -0.875,-0.812l-0,-7.625c-0,-0.375 -0.375,-0.688 -0.875,-0.688c-0.625,0 -1,0.313 -1,0.688l-0,8.125c-0.063,0.625 -0.25,1.437 -0.813,1.812c-0.75,0.438 -2.875,1.313 -3.937,1.563c-0.563,-0 -0.75,-0.75 -0.75,-1.25l-0,-7.5c-0,-0.375 -0.438,-0.688 -0.875,-0.688c-0.625,0 -1,0.313 -1,0.688l-0,8.437c-0,0.875 -0.375,1.5 -0.75,1.688c-0.375,0.187 -1.625,0.687 -1.625,0.687c-0.438,0.125 -0.75,0.625 -0.75,1l-0,4.438c-0,0.375 0.187,0.562 0.5,0.562c0.25,0 1.437,-0.562 1.625,-0.687c0.062,-0 0.125,-0.063 0.187,-0.063c0.438,0 0.813,0.625 0.813,1.125l-0,6.188c-0,0.687 -0.313,1.25 -0.688,1.437c-0.375,0.125 -1.687,0.688 -1.687,0.688c-0.438,0.125 -0.75,0.625 -0.75,1l-0,4.437c-0,0.375 0.187,0.563 0.5,0.563c0.062,-0 0.187,-0.063 0.25,-0.063c-0,0 0.875,-0.375 1.437,-0.562c0.063,-0.063 0.125,-0.063 0.188,-0.063c0.437,0 0.75,0.688 0.75,1l-0,7.688c-0,0.375 0.375,0.687 0.812,0.687c0.625,0 1.063,-0.312 1.063,-0.687l-0,-8.688c-0,-0.812 0.312,-1.25 0.625,-1.375l3.812,-1.562c0.063,-0 0.188,-0.063 0.25,-0.063c0.5,0 0.813,0.75 0.813,1.125l-0,7.813c-0,0.375 0.375,0.687 0.812,0.687c0.688,0 1.063,-0.312 1.063,-0.687l-0,-8.875c-0,-0.5 0.25,-1.25 0.687,-1.438c0.438,-0.187 1.75,-0.687 1.75,-0.687c0.438,-0.188 0.75,-0.688 0.75,-1.063l0,-4.437c0,-0.313 -0.187,-0.5 -0.437,-0.5c-0.125,-0 -0.188,-0 -0.313,0.062l-1.625,0.625c-0.375,0 -0.812,-0.375 -0.812,-1.125l-0,-5.812c-0,-0.438 0.312,-1.625 0.812,-1.813l1.625,-0.625" style="fill-rule:nonzero;"/></g><g><path d="M293.527,54.639c5.562,-0 12.375,-5.125 12.375,-10.438c-0,-3.187 -2.5,-5.187 -6.063,-5.187c-6.875,-0 -12.375,5.062 -12.375,10.437c0,3.25 2.688,5.188 6.063,5.188" style="fill-rule:nonzero;"/></g><g><path d="M346.307,62.389c5.563,-0 12.375,-5.125 12.375,-10.438c0,-3.187 -2.5,-5.187 -6.062,-5.187c-6.875,-0 -12.375,5.062 -12.375,10.437c-0,3.25 2.687,5.188 6.062,5.188" style="fill-rule:nonzero;"/></g><g><path d="M399.085,70.139c5.563,-0 12.375,-5.125 12.375,-10.438c0,-3.187 -2.5,-5.187 -6.062,-5.187c-6.875,-0 -12.375,5.062 -12.375,10.437c-0,3.25 2.687,5.188 6.062,5.188" style="fill-rule:nonzero;"/></g><g><path d="M436.848,72.889c-0.375,1.25 -3.313,2.5 -4.75,2.5c-0.375,-0 -0.688,-0.125 -0.75,-0.313c-0.125,-0.25 -0.188,-1.625 -0.188,-3.125c0,-1.937 0.063,-4.125 0.188,-4.625c0.125,-1.062 3,-2.375 4.562,-2.375c0.438,0 0.813,0.125 0.938,0.375c0.125,0.313 0.25,1.875 0.25,3.563c-0,1.687 -0.125,3.437 -0.25,4m4.312,-10.188c0.438,-0.187 0.75,-0.687 0.75,-1.062l0,-4.438c0,-0.312 -0.187,-0.5 -0.437,-0.5c-0.125,0 -0.188,0 -0.313,0.063c0,-0 -1.25,0.5 -1.562,0.562c-0.438,0 -0.875,-0.312 -0.875,-0.812l-0,-7.625c-0,-0.375 -0.375,-0.688 -0.875,-0.688c-0.625,0 -1,0.313 -1,0.688l-0,8.125c-0.063,0.625 -0.25,1.437 -0.813,1.812c-0.75,0.438 -2.875,1.313 -3.937,1.563c-0.563,-0 -0.75,-0.75 -0.75,-1.25l-0,-7.5c-0,-0.375 -0.438,-0.688 -0.875,-0.688c-0.625,0 -1,0.313 -1,0.688l-0,8.437c-0,0.875 -0.375,1.5 -0.75,1.688c-0.375,0.187 -1.625,0.687 -1.625,0.687c-0.438,0.125 -0.75,0.625 -0.75,1l-0,4.438c-0,0.375 0.187,0.562 0.5,0.562c0.25,0 1.437,-0.562 1.625,-0.687c0.062,-0 0.125,-0.063 0.187,-0.063c0.438,0 0.813,0.625 0.813,1.125l-0,6.188c-0,0.687 -0.313,1.25 -0.688,1.437c-0.375,0.125 -1.687,0.688 -1.687,0.688c-0.438,0.125 -0.75,0.625 -0.75,1l-0,4.437c-0,0.375 0.187,0.563 0.5,0.563c0.062,-0 0.187,-0.063 0.25,-0.063c-0,0 0.875,-0.375 1.437,-0.562c0.063,-0.063 0.125,-0.063 0.188,-0.063c0.437,0 0.75,0.688 0.75,1l-0,7.688c-0,0.375 0.375,0.687 0.812,0.687c0.625,0 1.063,-0.312 1.063,-0.687l-0,-8.688c-0,-0.812 0.312,-1.25 0.625,-1.375l3.812,-1.562c0.063,-0 0.188,-0.063 0.25,-0.063c0.5,0 0.813,0.75 0.813,1.125l-0,7.813c-0,0.375 0.375,0.687 0.812,0.687c0.688,0 1.063,-0.312 1.063,-0.687l-0,-8.875c-0,-0.5 0.25,-1.25 0.687,-1.438c0.438,-0.187 1.75,-0.687 1.75,-0.687c0.438,-0.188 0.75,-0.688 0.75,-1.063l0,-4.437c0,-0.313 -0.187,-0.5 -0.437,-0.5c-0.125,-0 -0.188,-0 -0.313,0.062l-1.625,0.625c-0.375,0 -0.812,-0.375 -0.812,-1.125l-0,-5.812c-0,-0.438 0.312,-1.625 0.812,-1.813l1.625,-0.625" style="fill-rule:nonzero;"/></g><g><path d="M451.835,77.889c5.563,-0 12.375,-5.125 12.375,-10.438c0,-3.187 -2.5,-5.187 -6.062,-5.187c-6.875,-0 -12.375,5.062 -12.375,10.437c-0,3.25 2.687,5.188 6.062,5.188" style="fill-rule:nonzero;"/></g><g><path d="M489.579,80.639c-0.375,1.25 -3.312,2.5 -4.75,2.5c-0.375,-0 -0.687,-0.125 -0.75,-0.313c-0.125,-0.25 -0.187,-1.625 -0.187,-3.125c-0,-1.937 0.062,-4.125 0.187,-4.625c0.125,-1.062 3,-2.375 4.563,-2.375c0.437,0 0.812,0.125 0.937,0.375c0.125,0.313 0.25,1.875 0.25,3.563c0,1.687 -0.125,3.437 -0.25,4m4.313,-10.188c0.437,-0.187 0.75,-0.687 0.75,-1.062l-0,-4.438c-0,-0.312 -0.188,-0.5 -0.438,-0.5c-0.125,0 -0.187,0 -0.312,0.063c-0,-0 -1.25,0.5 -1.563,0.562c-0.437,0 -0.875,-0.312 -0.875,-0.812l0,-7.625c0,-0.375 -0.375,-0.688 -0.875,-0.688c-0.625,0 -1,0.313 -1,0.688l0,8.125c-0.062,0.625 -0.25,1.437 -0.812,1.812c-0.75,0.438 -2.875,1.313 -3.938,1.563c-0.562,-0 -0.75,-0.75 -0.75,-1.25l0,-7.5c0,-0.375 -0.437,-0.688 -0.875,-0.688c-0.625,0 -1,0.313 -1,0.688l0,8.437c0,0.875 -0.375,1.5 -0.75,1.688c-0.375,0.187 -1.625,0.687 -1.625,0.687c-0.437,0.125 -0.75,0.625 -0.75,1l0,4.438c0,0.375 0.188,0.562 0.5,0.562c0.25,0 1.438,-0.562 1.625,-0.687c0.063,-0 0.125,-0.063 0.188,-0.063c0.437,0 0.812,0.625 0.812,1.125l0,6.188c0,0.687 -0.312,1.25 -0.687,1.437c-0.375,0.125 -1.688,0.688 -1.688,0.688c-0.437,0.125 -0.75,0.625 -0.75,1l0,4.437c0,0.375 0.188,0.563 0.5,0.563c0.063,-0 0.188,-0.063 0.25,-0.063c0,0 0.875,-0.375 1.438,-0.562c0.062,-0.063 0.125,-0.063 0.187,-0.063c0.438,0 0.75,0.688 0.75,1l0,7.688c0,0.375 0.375,0.687 0.813,0.687c0.625,0 1.062,-0.312 1.062,-0.687l0,-8.688c0,-0.812 0.313,-1.25 0.625,-1.375l3.813,-1.562c0.062,-0 0.187,-0.063 0.25,-0.063c0.5,0 0.812,0.75 0.812,1.125l0,7.813c0,0.375 0.375,0.687 0.813,0.687c0.687,0 1.062,-0.312 1.062,-0.687l0,-8.875c0,-0.5 0.25,-1.25 0.688,-1.438c0.437,-0.187 1.75,-0.687 1.75,-0.687c0.437,-0.188 0.75,-0.688 0.75,-1.063l-0,-4.437c-0,-0.313 -0.188,-0.5 -0.438,-0.5c-0.125,-0 -0.187,-0 -0.312,0.062l-1.625,0.625c-0.375,0 -0.813,-0.375 -0.813,-1.125l0,-5.812c0,-0.438 0.313,-1.625 0.813,-1.813l1.625,-0.625" style="fill-rule:nonzero;"/></g><g><path d="M504.57,85.639c5.562,-0 12.375,-5.125 12.375,-10.438c-0,-3.187 -2.5,-5.187 -6.063,-5.187c-6.875,-0 -12.375,5.062 -12.375,10.437c0,3.25 2.688,5.188 6.063,5.188" style="fill-rule:nonzero;"/></g><g><path d="M539.204,83.139c0,-0.875 3.813,-2.5 5.313,-2.5c0.375,-0 0.562,0.062 0.562,0.312l0,6.438c0,1.125 -3.562,2.562 -5.125,2.562c-0.437,0 -0.75,-0.125 -0.75,-0.375l0,-6.437m6.5,-8.875c-0.125,-0 -0.187,0.062 -0.25,0.062c0,0 -4,1.438 -5.625,1.438c-0.375,-0 -0.625,-0.063 -0.625,-0.313l0,-10.437c0,-0.438 -0.375,-0.75 -0.75,-0.75l-0.812,-0c-0.438,-0 -0.75,0.312 -0.75,0.75l-0,32.187c-0,0.375 0.187,0.563 0.5,0.563c0.062,-0 0.375,-0.063 0.437,-0.125c0.875,-0.375 4.375,-1.875 6.188,-1.875c0.625,-0 1.062,0.187 1.062,0.687l0,9.313c0,0.437 0.313,0.75 0.75,0.75l0.813,-0c0.375,-0 0.75,-0.313 0.75,-0.75l-0,-31.375c-0,-0.313 -0.25,-0.5 -0.5,-0.5c-0.063,-0 -0.188,-0 -0.25,0.062l-0.938,0.313" style="fill-rule:nonzero;"/></g><g><path d="M557.326,93.389c5.562,-0 12.375,-5.125 12.375,-10.438c-0,-3.187 -2.5,-5.187 -6.063,-5.187c-6.875,-0 -12.375,5.062 -12.375,10.437c0,3.25 2.688,5.188 6.063,5.188" style="fill-rule:nonzero;"/></g><g><path d="M588.973,90.639c-0,-0 -0.188,-3.75 -0.188,-6.25c0,-1 0.063,-1.75 0.125,-2c0.438,-1.25 2.938,-3.063 4.375,-3.063c1.813,0 2.563,2.063 2.563,3.625c-0,3.375 -2.875,6.75 -5.563,8.438c-0.25,0.125 -0.437,0.187 -0.625,0.187c-0.562,0 -0.687,-0.625 -0.687,-0.937m-2.188,5.562c0.188,0.25 0.375,0.313 0.563,0.313c0.187,-0 0.375,-0.125 0.375,-0.125c1.875,-1.063 3.375,-2.75 4.937,-3.813c5.563,-3.875 7.5,-7.687 7.5,-10.562c0,-3.563 -2.75,-5.813 -5.625,-6c-1.062,-0 -2.562,0.5 -3.437,1.062c-0.375,0.313 -1.063,0.875 -1.375,0.875c-0.125,0 -0.188,0 -0.313,-0.062c-0.437,-0.188 -0.687,-0.625 -0.687,-1.063c0.062,-1.375 0.437,-16.375 0.437,-17.625c0,-0.687 -0.562,-1.062 -1.187,-1.062c-0.875,-0 -1.875,0.625 -1.938,1.75c0,-0 0.25,35.687 0.75,36.312" style="fill-rule:nonzero;"/></g><g><path d="M610.085,93.389c5.563,-0 12.375,-5.125 12.375,-10.438c0,-3.187 -2.5,-5.187 -6.062,-5.187c-6.875,-0 -12.375,5.062 -12.375,10.437c-0,3.25 2.687,5.188 6.062,5.188" style="fill-rule:nonzero;"/></g><g><path d="M662.863,101.139c5.563,-0 12.375,-5.125 12.375,-10.438c0,-3.187 -2.5,-5.187 -6.062,-5.187c-6.875,-0 -12.375,5.062 -12.375,10.437c-0,3.25 2.687,5.188 6.062,5.188" style="fill-rule:nonzero;"/></g><g><path d="M700.607,103.889c-0.375,1.25 -3.312,2.5 -4.75,2.5c-0.375,-0 -0.687,-0.125 -0.75,-0.313c-0.125,-0.25 -0.187,-1.625 -0.187,-3.125c-0,-1.937 0.062,-4.125 0.187,-4.625c0.125,-1.062 3,-2.375 4.563,-2.375c0.437,0 0.812,0.125 0.937,0.375c0.125,0.313 0.25,1.875 0.25,3.563c0,1.687 -0.125,3.437 -0.25,4m4.313,-10.188c0.437,-0.187 0.75,-0.687 0.75,-1.062l-0,-4.438c-0,-0.312 -0.188,-0.5 -0.438,-0.5c-0.125,0 -0.187,0 -0.312,0.063c-0,-0 -1.25,0.5 -1.563,0.562c-0.437,0 -0.875,-0.312 -0.875,-0.812l0,-7.625c0,-0.375 -0.375,-0.688 -0.875,-0.688c-0.625,0 -1,0.313 -1,0.688l0,8.125c-0.062,0.625 -0.25,1.437 -0.812,1.812c-0.75,0.438 -2.875,1.313 -3.938,1.563c-0.562,-0 -0.75,-0.75 -0.75,-1.25l0,-7.5c0,-0.375 -0.437,-0.688 -0.875,-0.688c-0.625,0 -1,0.313 -1,0.688l0,8.437c0,0.875 -0.375,1.5 -0.75,1.688c-0.375,0.187 -1.625,0.687 -1.625,0.687c-0.437,0.125 -0.75,0.625 -0.75,1l0,4.438c0,0.375 0.188,0.562 0.5,0.562c0.25,0 1.438,-0.562 1.625,-0.687c0.063,-0 0.125,-0.063 0.188,-0.063c0.437,0 0.812,0.625 0.812,1.125l0,6.188c0,0.687 -0.312,1.25 -0.687,1.437c-0.375,0.125 -1.688,0.688 -1.688,0.688c-0.437,0.125 -0.75,0.625 -0.75,1l0,4.437c0,0.375 0.188,0.563 0.5,0.563c0.063,-0 0.188,-0.063 0.25,-0.063c0,0 0.875,-0.375 1.438,-0.562c0.062,-0.063 0.125,-0.063 0.187,-0.063c0.438,0 0.75,0.688 0.75,1l0,7.688c0,0.375 0.375,0.687 0.813,0.687c0.625,0 1.062,-0.312 1.062,-0.687l0,-8.688c0,-0.812 0.313,-1.25 0.625,-1.375l3.813,-1.562c0.062,-0 0.187,-0.063 0.25,-0.063c0.5,0 0.812,0.75 0.812,1.125l0,7.813c0,0.375 0.375,0.687 0.813,0.687c0.687,0 1.062,-0.312 1.062,-0.687l0,-8.875c0,-0.5 0.25,-1.25 0.688,-1.438c0.437,-0.187 1.75,-0.687 1.75,-0.687c0.437,-0.188 0.75,-0.688 0.75,-1.063l-0,-4.437c-0,-0.313 -0.188,-0.5 -0.438,-0.5c-0.125,-0 -0.187,-0 -0.312,0.062l-1.625,0.625c-0.375,0 -0.813,-0.375 -0.813,-1.125l0,-5.812c0,-0.438 0.313,-1.625 0.813,-1.813l1.625,-0.625" style="fill-rule:nonzero;"/></g><g><path d="M715.598,108.889c5.562,-0 12.375,-5.125 12.375,-10.438c-0,-3.187 -2.5,-5.187 -6.063,-5.187c-6.875,-0 -12.375,5.062 -12.375,10.437c0,3.25 2.688,5.188 6.063,5.188" style="fill-rule:nonzero;"/></g><g><path d="M794.138,116.639c5.563,-0 12.375,-5.125 12.375,-10.438c0,-3.187 -2.5,-5.187 -6.062,-5.187c-6.875,-0 -12.375,5.062 -12.375,10.437c-0,3.25 2.687,5.188 6.062,5.188" style="fill-rule:nonzero;"/></g><g><path d="M846.919,124.389c5.563,-0 12.375,-5.125 12.375,-10.438c0,-3.187 -2.5,-5.187 -6.062,-5.187c-6.875,-0 -12.375,5.062 -12.375,10.437c-0,3.25 2.687,5.188 6.062,5.188" style="fill-rule:nonzero;"/></g><g><path d="M884.663,127.139c-0.375,1.25 -3.312,2.5 -4.75,2.5c-0.375,-0 -0.687,-0.125 -0.75,-0.313c-0.125,-0.25 -0.187,-1.625 -0.187,-3.125c-0,-1.937 0.062,-4.125 0.187,-4.625c0.125,-1.062 3,-2.375 4.563,-2.375c0.437,0 0.812,0.125 0.937,0.375c0.125,0.313 0.25,1.875 0.25,3.563c0,1.687 -0.125,3.437 -0.25,4m4.313,-10.188c0.437,-0.187 0.75,-0.687 0.75,-1.062l-0,-4.438c-0,-0.312 -0.188,-0.5 -0.438,-0.5c-0.125,0 -0.187,0 -0.312,0.063c-0,-0 -1.25,0.5 -1.563,0.562c-0.437,0 -0.875,-0.312 -0.875,-0.812l0,-7.625c0,-0.375 -0.375,-0.688 -0.875,-0.688c-0.625,0 -1,0.313 -1,0.688l0,8.125c-0.062,0.625 -0.25,1.437 -0.812,1.812c-0.75,0.438 -2.875,1.313 -3.938,1.563c-0.562,-0 -0.75,-0.75 -0.75,-1.25l0,-7.5c0,-0.375 -0.437,-0.688 -0.875,-0.688c-0.625,0 -1,0.313 -1,0.688l0,8.437c0,0.875 -0.375,1.5 -0.75,1.688c-0.375,0.187 -1.625,0.687 -1.625,0.687c-0.437,0.125 -0.75,0.625 -0.75,1l0,4.438c0,0.375 0.188,0.562 0.5,0.562c0.25,0 1.438,-0.562 1.625,-0.687c0.063,-0 0.125,-0.063 0.188,-0.063c0.437,0 0.812,0.625 0.812,1.125l0,6.188c0,0.687 -0.312,1.25 -0.687,1.437c-0.375,0.125 -1.688,0.688 -1.688,0.688c-0.437,0.125 -0.75,0.625 -0.75,1l0,4.437c0,0.375 0.188,0.563 0.5,0.563c0.063,-0 0.188,-0.063 0.25,-0.063c0,0 0.875,-0.375 1.438,-0.562c0.062,-0.063 0.125,-0.063 0.187,-0.063c0.438,0 0.75,0.688 0.75,1l0,7.688c0,0.375 0.375,0.687 0.813,0.687c0.625,0 1.062,-0.312 1.062,-0.687l0,-8.688c0,-0.812 0.313,-1.25 0.625,-1.375l3.813,-1.562c0.062,-0 0.187,-0.063 0.25,-0.063c0.5,0 0.812,0.75 0.812,1.125l0,7.813c0,0.375 0.375,0.687 0.813,0.687c0.687,0 1.062,-0.312 1.062,-0.687l0,-8.875c0,-0.5 0.25,-1.25 0.688,-1.438c0.437,-0.187 1.75,-0.687 1.75,-0.687c0.437,-0.188 0.75,-0.688 0.75,-1.063l-0,-4.437c-0,-0.313 -0.188,-0.5 -0.438,-0.5c-0.125,-0 -0.187,-0 -0.312,0.062l-1.625,0.625c-0.375,0 -0.813,-0.375 -0.813,-1.125l0,-5.812c0,-0.438 0.313,-1.625 0.813,-1.813l1.625,-0.625" style="fill-rule:nonzero;"/></g><g><path d="M899.651,132.139c5.562,-0 12.375,-5.125 12.375,-10.438c-0,-3.187 -2.5,-5.187 -6.063,-5.187c-6.875,-0 -12.375,5.062 -12.375,10.437c0,3.25 2.688,5.188 6.063,5.188" style="fill-rule:nonzero;"/></g><g><path d="M937.394,134.889c-0.375,1.25 -3.312,2.5 -4.75,2.5c-0.375,-0 -0.687,-0.125 -0.75,-0.313c-0.125,-0.25 -0.187,-1.625 -0.187,-3.125c-0,-1.937 0.062,-4.125 0.187,-4.625c0.125,-1.062 3,-2.375 4.563,-2.375c0.437,0 0.812,0.125 0.937,0.375c0.125,0.313 0.25,1.875 0.25,3.563c0,1.687 -0.125,3.437 -0.25,4m4.313,-10.188c0.437,-0.187 0.75,-0.687 0.75,-1.062l-0,-4.438c-0,-0.312 -0.188,-0.5 -0.438,-0.5c-0.125,0 -0.187,0 -0.312,0.063c-0,-0 -1.25,0.5 -1.563,0.562c-0.437,0 -0.875,-0.312 -0.875,-0.812l0,-7.625c0,-0.375 -0.375,-0.688 -0.875,-0.688c-0.625,0 -1,0.313 -1,0.688l0,8.125c-0.062,0.625 -0.25,1.437 -0.812,1.812c-0.75,0.438 -2.875,1.313 -3.938,1.563c-0.562,-0 -0.75,-0.75 -0.75,-1.25l0,-7.5c0,-0.375 -0.437,-0.688 -0.875,-0.688c-0.625,0 -1,0.313 -1,0.688l0,8.437c0,0.875 -0.375,1.5 -0.75,1.688c-0.375,0.187 -1.625,0.687 -1.625,0.687c-0.437,0.125 -0.75,0.625 -0.75,1l0,4.438c0,0.375 0.188,0.562 0.5,0.562c0.25,0 1.438,-0.562 1.625,-0.687c0.063,-0 0.125,-0.063 0.188,-0.063c0.437,0 0.812,0.625 0.812,1.125l0,6.188c0,0.687 -0.312,1.25 -0.687,1.437c-0.375,0.125 -1.688,0.688 -1.688,0.688c-0.437,0.125 -0.75,0.625 -0.75,1l0,4.437c0,0.375 0.188,0.563 0.5,0.563c0.063,-0 0.188,-0.063 0.25,-0.063c0,0 0.875,-0.375 1.438,-0.562c0.062,-0.063 0.125,-0.063 0.187,-0.063c0.438,0 0.75,0.688 0.75,1l0,7.688c0,0.375 0.375,0.687 0.813,0.687c0.625,0 1.062,-0.312 1.062,-0.687l0,-8.688c0,-0.812 0.313,-1.25 0.625,-1.375l3.813,-1.562c0.062,-0 0.187,-0.063 0.25,-0.063c0.5,0 0.812,0.75 0.812,1.125l0,7.813c0,0.375 0.375,0.687 0.813,0.687c0.687,0 1.062,-0.312 1.062,-0.687l0,-8.875c0,-0.5 0.25,-1.25 0.688,-1.438c0.437,-0.187 1.75,-0.687 1.75,-0.687c0.437,-0.188 0.75,-0.688 0.75,-1.063l-0,-4.437c-0,-0.313 -0.188,-0.5 -0.438,-0.5c-0.125,-0 -0.187,-0 -0.312,0.062l-1.625,0.625c-0.375,0 -0.813,-0.375 -0.813,-1.125l0,-5.812c0,-0.438 0.313,-1.625 0.813,-1.813l1.625,-0.625" style="fill-rule:nonzero;"/></g><g><path d="M952.385,139.889c5.563,-0 12.375,-5.125 12.375,-10.438c0,-3.187 -2.5,-5.187 -6.062,-5.187c-6.875,-0 -12.375,5.062 -12.375,10.437c-0,3.25 2.687,5.188 6.062,5.188" style="fill-rule:nonzero;"/></g><g><path d="M987.038,137.389c0,-0.875 3.813,-2.5 5.313,-2.5c0.375,-0 0.562,0.062 0.562,0.312l0,6.438c0,1.125 -3.562,2.562 -5.125,2.562c-0.437,0 -0.75,-0.125 -0.75,-0.375l0,-6.437m6.5,-8.875c-0.125,-0 -0.187,0.062 -0.25,0.062c0,0 -4,1.438 -5.625,1.438c-0.375,-0 -0.625,-0.063 -0.625,-0.313l0,-10.437c0,-0.438 -0.375,-0.75 -0.75,-0.75l-0.812,-0c-0.438,-0 -0.75,0.312 -0.75,0.75l-0,32.187c-0,0.375 0.187,0.563 0.5,0.563c0.062,-0 0.375,-0.063 0.437,-0.125c0.875,-0.375 4.375,-1.875 6.188,-1.875c0.625,-0 1.062,0.187 1.062,0.687l0,9.313c0,0.437 0.313,0.75 0.75,0.75l0.813,-0c0.375,-0 0.75,-0.313 0.75,-0.75l-0,-31.375c-0,-0.313 -0.25,-0.5 -0.5,-0.5c-0.063,-0 -0.188,-0 -0.25,0.062l-0.938,0.313" style="fill-rule:nonzero;"/></g><g><path d="M1005.16,147.639c5.562,-0 12.375,-5.125 12.375,-10.438c-0,-3.187 -2.5,-5.187 -6.063,-5.187c-6.875,-0 -12.375,5.062 -12.375,10.437c0,3.25 2.688,5.188 6.063,5.188" style="fill-rule:nonzero;"/></g><g><path d="M1036.82,144.889c0,-0 -0.187,-3.75 -0.187,-6.25c-0,-1 0.062,-1.75 0.125,-2c0.437,-1.25 2.937,-3.063 4.375,-3.063c1.812,0 2.562,2.063 2.562,3.625c0,3.375 -2.875,6.75 -5.562,8.438c-0.25,0.125 -0.438,0.187 -0.625,0.187c-0.563,0 -0.688,-0.625 -0.688,-0.937m-2.187,5.562c0.187,0.25 0.375,0.313 0.562,0.313c0.188,-0 0.375,-0.125 0.375,-0.125c1.875,-1.063 3.375,-2.75 4.938,-3.813c5.562,-3.875 7.5,-7.687 7.5,-10.562c-0,-3.563 -2.75,-5.813 -5.625,-6c-1.063,-0 -2.563,0.5 -3.438,1.062c-0.375,0.313 -1.062,0.875 -1.375,0.875c-0.125,0 -0.187,0 -0.312,-0.062c-0.438,-0.188 -0.688,-0.625 -0.688,-1.063c0.063,-1.375 0.438,-16.375 0.438,-17.625c-0,-0.687 -0.563,-1.062 -1.188,-1.062c-0.875,-0 -1.875,0.625 -1.937,1.75c-0,-0 0.25,35.687 0.75,36.312" style="fill-rule:nonzero;"/></g><g><path d="M1057.93,147.639c5.562,-0 12.375,-5.125 12.375,-10.438c-0,-3.187 -2.5,-5.187 -6.063,-5.187c-6.875,-0 -12.375,5.062 -12.375,10.437c0,3.25 2.688,5.188 6.063,5.188" style="fill-rule:nonzero;"/></g><g><path d="M1110.72,155.389c5.563,-0 12.375,-5.125 12.375,-10.438c0,-3.187 -2.5,-5.187 -6.062,-5.187c-6.875,-0 -12.375,5.062 -12.375,10.437c-0,3.25 2.687,5.188 6.062,5.188" style="fill-rule:nonzero;"/></g><g><path d="M1148.48,158.139c-0.375,1.25 -3.313,2.5 -4.75,2.5c-0.375,-0 -0.688,-0.125 -0.75,-0.313c-0.125,-0.25 -0.188,-1.625 -0.188,-3.125c0,-1.937 0.063,-4.125 0.188,-4.625c0.125,-1.062 3,-2.375 4.562,-2.375c0.438,0 0.813,0.125 0.938,0.375c0.125,0.313 0.25,1.875 0.25,3.563c-0,1.687 -0.125,3.437 -0.25,4m4.312,-10.188c0.437,-0.187 0.75,-0.687 0.75,-1.062l-0,-4.438c-0,-0.312 -0.188,-0.5 -0.438,-0.5c-0.125,0 -0.187,0 -0.312,0.063c-0,-0 -1.25,0.5 -1.562,0.562c-0.438,0 -0.875,-0.312 -0.875,-0.812l-0,-7.625c-0,-0.375 -0.375,-0.688 -0.875,-0.688c-0.625,0 -1,0.313 -1,0.688l-0,8.125c-0.063,0.625 -0.25,1.437 -0.813,1.812c-0.75,0.438 -2.875,1.313 -3.937,1.563c-0.563,-0 -0.75,-0.75 -0.75,-1.25l-0,-7.5c-0,-0.375 -0.438,-0.688 -0.875,-0.688c-0.625,0 -1,0.313 -1,0.688l-0,8.437c-0,0.875 -0.375,1.5 -0.75,1.688c-0.375,0.187 -1.625,0.687 -1.625,0.687c-0.438,0.125 -0.75,0.625 -0.75,1l-0,4.438c-0,0.375 0.187,0.562 0.5,0.562c0.25,0 1.437,-0.562 1.625,-0.687c0.062,-0 0.125,-0.063 0.187,-0.063c0.438,0 0.813,0.625 0.813,1.125l-0,6.188c-0,0.687 -0.313,1.25 -0.688,1.437c-0.375,0.125 -1.687,0.688 -1.687,0.688c-0.438,0.125 -0.75,0.625 -0.75,1l-0,4.437c-0,0.375 0.187,0.563 0.5,0.563c0.062,-0 0.187,-0.063 0.25,-0.063c-0,0 0.875,-0.375 1.437,-0.562c0.063,-0.063 0.125,-0.063 0.188,-0.063c0.437,0 0.75,0.688 0.75,1l-0,7.688c-0,0.375 0.375,0.687 0.812,0.687c0.625,0 1.063,-0.312 1.063,-0.687l-0,-8.688c-0,-0.812 0.312,-1.25 0.625,-1.375l3.812,-1.562c0.063,-0 0.188,-0.063 0.25,-0.063c0.5,0 0.813,0.75 0.813,1.125l-0,7.813c-0,0.375 0.375,0.687 0.812,0.687c0.688,0 1.063,-0.312 1.063,-0.687l-0,-8.875c-0,-0.5 0.25,-1.25 0.687,-1.438c0.438,-0.187 1.75,-0.687 1.75,-0.687c0.437,-0.188 0.75,-0.688 0.75,-1.063l-0,-4.437c-0,-0.313 -0.188,-0.5 -0.438,-0.5c-0.125,-0 -0.187,-0 -0.312,0.062l-1.625,0.625c-0.375,0 -0.812,-0.375 -0.812,-1.125l-0,-5.812c-0,-0.438 0.312,-1.625 0.812,-1.813l1.625,-0.625" style="fill-rule:nonzero;"/></g><g><path d="M1163.47,163.139c5.563,-0 12.375,-5.125 12.375,-10.438c0,-3.187 -2.5,-5.187 -6.062,-5.187c-6.875,-0 -12.375,5.062 -12.375,10.437c-0,3.25 2.687,5.188 6.062,5.188" style="fill-rule:nonzero;"/></g><g><path d="M1216.24,170.889c5.563,-0 12.375,-5.125 12.375,-10.438c0,-3.187 -2.5,-5.187 -6.062,-5.187c-6.875,-0 -12.375,5.062 -12.375,10.437c-0,3.25 2.687,5.188 6.062,5.188" style="fill-rule:nonzero;"/></g><g><path d="M1269.03,178.639c5.563,-0 12.375,-5.125 12.375,-10.438c0,-3.187 -2.5,-5.187 -6.062,-5.187c-6.875,-0 -12.375,5.062 -12.375,10.437c-0,3.25 2.687,5.188 6.062,5.188" style="fill-rule:nonzero;"/></g><g><path d="M1306.79,181.389c-0.375,1.25 -3.313,2.5 -4.75,2.5c-0.375,-0 -0.688,-0.125 -0.75,-0.313c-0.125,-0.25 -0.188,-1.625 -0.188,-3.125c0,-1.937 0.063,-4.125 0.188,-4.625c0.125,-1.062 3,-2.375 4.562,-2.375c0.438,0 0.813,0.125 0.938,0.375c0.125,0.313 0.25,1.875 0.25,3.563c-0,1.687 -0.125,3.437 -0.25,4m4.312,-10.188c0.438,-0.187 0.75,-0.687 0.75,-1.062l0,-4.438c0,-0.312 -0.187,-0.5 -0.437,-0.5c-0.125,0 -0.188,0 -0.313,0.063c0,-0 -1.25,0.5 -1.562,0.562c-0.438,0 -0.875,-0.312 -0.875,-0.812l-0,-7.625c-0,-0.375 -0.375,-0.688 -0.875,-0.688c-0.625,0 -1,0.313 -1,0.688l-0,8.125c-0.063,0.625 -0.25,1.437 -0.813,1.812c-0.75,0.438 -2.875,1.313 -3.937,1.563c-0.563,-0 -0.75,-0.75 -0.75,-1.25l-0,-7.5c-0,-0.375 -0.438,-0.688 -0.875,-0.688c-0.625,0 -1,0.313 -1,0.688l-0,8.437c-0,0.875 -0.375,1.5 -0.75,1.688c-0.375,0.187 -1.625,0.687 -1.625,0.687c-0.438,0.125 -0.75,0.625 -0.75,1l-0,4.438c-0,0.375 0.187,0.562 0.5,0.562c0.25,0 1.437,-0.562 1.625,-0.687c0.062,-0 0.125,-0.063 0.187,-0.063c0.438,0 0.813,0.625 0.813,1.125l-0,6.188c-0,0.687 -0.313,1.25 -0.688,1.437c-0.375,0.125 -1.687,0.688 -1.687,0.688c-0.438,0.125 -0.75,0.625 -0.75,1l-0,4.437c-0,0.375 0.187,0.563 0.5,0.563c0.062,-0 0.187,-0.063 0.25,-0.063c-0,0 0.875,-0.375 1.437,-0.562c0.063,-0.063 0.125,-0.063 0.188,-0.063c0.437,0 0.75,0.688 0.75,1l-0,7.688c-0,0.375 0.375,0.687 0.812,0.687c0.625,0 1.063,-0.312 1.063,-0.687l-0,-8.688c-0,-0.812 0.312,-1.25 0.625,-1.375l3.812,-1.562c0.063,-0 0.188,-0.063 0.25,-0.063c0.5,0 0.813,0.75 0.813,1.125l-0,7.813c-0,0.375 0.375,0.687 0.812,0.687c0.688,0 1.063,-0.312 1.063,-0.687l-0,-8.875c-0,-0.5 0.25,-1.25 0.687,-1.438c0.438,-0.187 1.75,-0.687 1.75,-0.687c0.438,-0.188 0.75,-0.688 0.75,-1.063l0,-4.437c0,-0.313 -0.187,-0.5 -0.437,-0.5c-0.125,-0 -0.188,-0 -0.313,0.062l-1.625,0.625c-0.375,0 -0.812,-0.375 -0.812,-1.125l-0,-5.812c-0,-0.438 0.312,-1.625 0.812,-1.813l1.625,-0.625" style="fill-rule:nonzero;"/></g><g><path d="M1321.78,186.389c5.563,-0 12.375,-5.125 12.375,-10.438c0,-3.187 -2.5,-5.187 -6.062,-5.187c-6.875,-0 -12.375,5.062 -12.375,10.437c-0,3.25 2.687,5.188 6.062,5.188" style="fill-rule:nonzero;"/></g><g><path d="M1359.54,189.139c-0.375,1.25 -3.313,2.5 -4.75,2.5c-0.375,-0 -0.688,-0.125 -0.75,-0.313c-0.125,-0.25 -0.188,-1.625 -0.188,-3.125c0,-1.937 0.063,-4.125 0.188,-4.625c0.125,-1.062 3,-2.375 4.562,-2.375c0.438,0 0.813,0.125 0.938,0.375c0.125,0.313 0.25,1.875 0.25,3.563c-0,1.687 -0.125,3.437 -0.25,4m4.312,-10.188c0.438,-0.187 0.75,-0.687 0.75,-1.062l0,-4.438c0,-0.312 -0.187,-0.5 -0.437,-0.5c-0.125,0 -0.188,0 -0.313,0.063c0,-0 -1.25,0.5 -1.562,0.562c-0.438,0 -0.875,-0.312 -0.875,-0.812l-0,-7.625c-0,-0.375 -0.375,-0.688 -0.875,-0.688c-0.625,0 -1,0.313 -1,0.688l-0,8.125c-0.063,0.625 -0.25,1.437 -0.813,1.812c-0.75,0.438 -2.875,1.313 -3.937,1.563c-0.563,-0 -0.75,-0.75 -0.75,-1.25l-0,-7.5c-0,-0.375 -0.438,-0.688 -0.875,-0.688c-0.625,0 -1,0.313 -1,0.688l-0,8.437c-0,0.875 -0.375,1.5 -0.75,1.688c-0.375,0.187 -1.625,0.687 -1.625,0.687c-0.438,0.125 -0.75,0.625 -0.75,1l-0,4.438c-0,0.375 0.187,0.562 0.5,0.562c0.25,0 1.437,-0.562 1.625,-0.687c0.062,-0 0.125,-0.063 0.187,-0.063c0.438,0 0.813,0.625 0.813,1.125l-0,6.188c-0,0.687 -0.313,1.25 -0.688,1.437c-0.375,0.125 -1.687,0.688 -1.687,0.688c-0.438,0.125 -0.75,0.625 -0.75,1l-0,4.437c-0,0.375 0.187,0.563 0.5,0.563c0.062,-0 0.187,-0.063 0.25,-0.063c-0,0 0.875,-0.375 1.437,-0.562c0.063,-0.063 0.125,-0.063 0.188,-0.063c0.437,0 0.75,0.688 0.75,1l-0,7.688c-0,0.375 0.375,0.687 0.812,0.687c0.625,0 1.063,-0.312 1.063,-0.687l-0,-8.688c-0,-0.812 0.312,-1.25 0.625,-1.375l3.812,-1.562c0.063,-0 0.188,-0.063 0.25,-0.063c0.5,0 0.813,0.75 0.813,1.125l-0,7.813c-0,0.375 0.375,0.687 0.812,0.687c0.688,0 1.063,-0.312 1.063,-0.687l-0,-8.875c-0,-0.5 0.25,-1.25 0.687,-1.438c0.438,-0.187 1.75,-0.687 1.75,-0.687c0.438,-0.188 0.75,-0.688 0.75,-1.063l0,-4.437c0,-0.313 -0.187,-0.5 -0.437,-0.5c-0.125,-0 -0.188,-0 -0.313,0.062l-1.625,0.625c-0.375,0 -0.812,-0.375 -0.812,-1.125l-0,-5.812c-0,-0.438 0.312,-1.625 0.812,-1.813l1.625,-0.625" style="fill-rule:nonzero;"/></g><g><path d="M1374.53,194.139c5.563,-0 12.375,-5.125 12.375,-10.438c0,-3.187 -2.5,-5.187 -6.062,-5.187c-6.875,-0 -12.375,5.062 -12.375,10.437c-0,3.25 2.687,5.188 6.062,5.188" style="fill-rule:nonzero;"/></g><g><path d="M1439.58,191.639c0,-0.875 3.813,-2.5 5.313,-2.5c0.375,-0 0.562,0.062 0.562,0.312l0,6.438c0,1.125 -3.562,2.562 -5.125,2.562c-0.437,0 -0.75,-0.125 -0.75,-0.375l0,-6.437m6.5,-8.875c-0.125,-0 -0.187,0.062 -0.25,0.062c0,0 -4,1.438 -5.625,1.438c-0.375,-0 -0.625,-0.063 -0.625,-0.313l0,-10.437c0,-0.438 -0.375,-0.75 -0.75,-0.75l-0.812,-0c-0.438,-0 -0.75,0.312 -0.75,0.75l-0,32.187c-0,0.375 0.187,0.563 0.5,0.563c0.062,-0 0.375,-0.063 0.437,-0.125c0.875,-0.375 4.375,-1.875 6.188,-1.875c0.625,-0 1.062,0.187 1.062,0.687l0,9.313c0,0.437 0.313,0.75 0.75,0.75l0.813,-0c0.375,-0 0.75,-0.313 0.75,-0.75l-0,-31.375c-0,-0.313 -0.25,-0.5 -0.5,-0.5c-0.063,-0 -0.188,-0 -0.25,0.062l-0.938,0.313" style="fill-rule:nonzero;"/></g><g><path d="M1458.57,190.139c0.688,-2.188 3,-2.5 4.938,-2.5c4.312,-0 7.75,4.625 7.75,8.375c-0,1.937 -0.813,3.687 -2.875,4.187c-0.625,0.188 -1.313,0.25 -1.938,0.25c-2.25,0 -4.562,-1.5 -5.875,-3.25c-1.25,-1.437 -2.187,-3.562 -2.187,-5.562c-0,-0.5 0.062,-1 0.187,-1.5m6.563,-3.875c-8.313,-0 -13.5,3.437 -13.5,7.687c-0,4.188 3.562,7.938 12.875,7.938c10.25,-0 13.5,-3.563 13.5,-7.938c-0,-4.437 -7.063,-7.687 -12.875,-7.687" style="fill-rule:nonzero;"/></g><g><path d="M32.574,107.951c0.188,1.188 0.188,1.125 -0.937,1.5c-5.5,1.875 -9.063,6.813 -9.063,12.125c0,5.625 2.938,9.625 7.188,11.063c0.5,0.187 1.25,0.375 1.687,0.375c0.5,-0 0.75,-0.313 0.75,-0.688c0,-0.437 -0.5,-0.625 -0.937,-0.812c-2.625,-1.125 -4.5,-3.813 -4.5,-6.688c-0,-3.562 2.437,-6.25 6.25,-7.312c1,-0.25 1.125,-0.188 1.25,0.5l3.125,18.625c0.125,0.687 0.062,0.687 -0.875,0.875c-1,0.187 -2.25,0.312 -3.5,0.312c-10.938,0 -18,-6.062 -18,-14.75c-0,-3.687 0.625,-8.625 5.812,-14.5c3.75,-4.187 6.625,-6.5 9.563,-8.875c0.625,-0.5 0.75,-0.437 0.875,0.25l1.312,8m6.813,-42.562c2.062,-0 3.75,1.687 3.75,5.125c-0,6.937 -5.938,12.562 -10.875,16.875c-0.438,0.375 -0.688,0.312 -0.813,-0.5c-0.25,-1.625 -0.375,-3.75 -0.375,-5.75c0,-9.75 4.5,-15.75 8.313,-15.75m-2.5,52.5c-0.125,-0.75 -0.063,-0.938 0.687,-0.875c5.063,0.437 9.25,4.687 9.25,10.187c0,3.938 -2.375,7.125 -5.875,8.875c-0.75,0.375 -0.875,0.375 -1,-0.375l-3.062,-17.812m-3.375,-19.5c-0.125,-0.75 -0,-0.813 0.375,-1.188c6.75,-6.312 11.875,-14.25 11.875,-23.812c-0,-5.438 -1.5,-10.813 -4.063,-14.563c-0.937,-1.375 -2.562,-3.125 -3.25,-3.125c-0.875,0 -2.812,1.625 -4.062,3c-4.625,5.125 -6.125,12.938 -6.125,19.438c-0,3.625 0.437,7.687 0.875,10.25c0.125,0.75 0.187,0.875 -0.563,1.5c-9,7.437 -18.562,16.375 -18.562,29c-0,10.875 7.437,21.187 22.75,21.187c1.437,0 3.062,-0.125 4.312,-0.375c0.688,-0.125 0.813,-0.187 0.938,0.563c0.75,4.187 1.687,9.625 1.687,12.562c0,9.25 -6.25,10.375 -9.937,10.375c-3.375,0 -5,-1 -5,-1.812c-0,-0.438 0.562,-0.625 2,-1.063c1.937,-0.562 4.187,-2.25 4.187,-5.875c0,-3.437 -2.187,-6.375 -6,-6.375c-4.187,0 -6.687,3.313 -6.687,7.188c-0,4.062 2.437,10.187 11.875,10.187c4.187,0 12.312,-1.875 12.312,-12.5c0,-3.562 -1.125,-9.5 -1.812,-13.375c-0.125,-0.75 -0.063,-0.687 0.812,-1.062c6.313,-2.5 10.5,-7.813 10.5,-14.875c0,-8 -5.875,-15.063 -15.062,-15.063c-1.625,0 -1.625,0 -1.813,-1.125l-1.562,-9.062" style="fill-rule:nonzero;"/></g><g><text x="181.913px" y="167.139px" style="font-family:'Bravura';font-size:62.5px;"></text></g><g><text x="340.22px" y="167.139px" style="font-family:'Bravura';font-size:62.5px;"></text></g><g><text x="498.495px" y="169.155px" style="font-family:'Bravura';font-size:62.5px;"></text></g><g><text x="656.754px" y="177.861px" style="font-family:'Bravura';font-size:62.5px;"></text></g><g><text x="840.807px" y="171.526px" style="font-family:'Bravura';font-size:62.5px;"></text></g><g><text x="999.072px" y="178.603px" style="font-family:'Bravura';font-size:62.5px;"></text></g><g><text x="1157.39px" y="197.863px" style="font-family:'Bravura';font-size:62.5px;"></text></g><g><text x="1315.69px" y="222.929px" style="font-family:'Bravura';font-size:62.5px;"></text></g><g><text x="66.185px" y="93.201px" style="font-family:'Bravura';font-size:62.5px;"></text></g><g><text x="66.185px" y="124.5px" style="font-family:'Bravura';font-size:62.5px;"></text></g><g><path d="M157.003,171.502l-5.125,0l-0,1.278l5.125,0l-0,-1.278" style="fill-rule:nonzero;"/></g><g><path d="M167.471,171.502l-5.125,0l0,1.278l5.125,0l0,-1.278" style="fill-rule:nonzero;"/></g><g><path d="M177.909,171.502l-5.094,0l0,1.278l5.094,0l-0,-1.278" style="fill-rule:nonzero;"/></g><g><path d="M188.378,171.502l-5.125,0l-0,1.278l5.125,0l-0,-1.278" style="fill-rule:nonzero;"/></g><g><path d="M198.815,171.502l-5.094,0l0,1.278l5.094,0l0,-1.278" style="fill-rule:nonzero;"/></g><g><path d="M209.284,171.502l-5.125,0l-0,1.278l5.125,0l-0,-1.278" style="fill-rule:nonzero;"/></g><g><path d="M219.753,171.502l-5.125,0l-0,1.278l5.125,0l-0,-1.278" style="fill-rule:nonzero;"/></g><g><path d="M230.19,171.502l-5.094,0l0,1.278l5.094,0l0,-1.278" style="fill-rule:nonzero;"/></g><g><path d="M240.659,171.502l-5.125,0l-0,1.278l5.125,0l-0,-1.278" style="fill-rule:nonzero;"/></g><g><path d="M251.096,171.502l-5.093,0l-0,1.278l5.093,0l0,-1.278" style="fill-rule:nonzero;"/></g><g><path d="M261.565,171.502l-5.125,0l0,1.278l5.125,0l0,-1.278" style="fill-rule:nonzero;"/></g><g><path d="M272.034,171.502l-5.125,0l-0,1.278l5.125,0l-0,-1.278" style="fill-rule:nonzero;"/></g><g><path d="M282.471,171.502l-5.125,0l0,1.278l5.125,0l0,-1.278" style="fill-rule:nonzero;"/></g><g><path d="M292.94,171.502l-5.125,0l0,1.278l5.125,0l0,-1.278" style="fill-rule:nonzero;"/></g><g><path d="M303.378,171.502l-5.094,0l-0,1.278l5.094,0l-0,-1.278" style="fill-rule:nonzero;"/></g><g><path d="M314.471,171.502l-5.75,0l0,1.278l5.75,0l0,-1.278" style="fill-rule:nonzero;"/></g><g><path d="M314.471,172.78l-1.25,0l0,-10.869l1.25,0l0,10.869" style="fill-rule:nonzero;"/></g><g><path d="M368.096,181.799l-5.125,-0l0,1.281l5.125,0l0,-1.281" style="fill-rule:nonzero;"/></g><g><path d="M378.534,181.799l-5.125,-0l-0,1.281l5.125,0l-0,-1.281" style="fill-rule:nonzero;"/></g><g><path d="M389.003,181.799l-5.125,-0l-0,1.281l5.125,0l-0,-1.281" style="fill-rule:nonzero;"/></g><g><path d="M399.44,181.799l-5.125,-0l0,1.281l5.125,0l0,-1.281" style="fill-rule:nonzero;"/></g><g><path d="M409.909,181.799l-5.125,-0l-0,1.281l5.125,0l-0,-1.281" style="fill-rule:nonzero;"/></g><g><path d="M420.346,181.799l-5.125,-0l0,1.281l5.125,0l0,-1.281" style="fill-rule:nonzero;"/></g><g><path d="M430.815,181.799l-5.125,-0l0,1.281l5.125,0l0,-1.281" style="fill-rule:nonzero;"/></g><g><path d="M441.253,181.799l-5.125,-0l-0,1.281l5.125,0l-0,-1.281" style="fill-rule:nonzero;"/></g><g><path d="M451.721,181.799l-5.125,-0l0,1.281l5.125,0l0,-1.281" style="fill-rule:nonzero;"/></g><g><path d="M462.159,181.799l-5.125,-0l-0,1.281l5.125,0l-0,-1.281" style="fill-rule:nonzero;"/></g><g><path d="M472.628,181.799l-5.125,-0l-0,1.281l5.125,0l-0,-1.281" style="fill-rule:nonzero;"/></g><g><path d="M483.065,181.799l-5.125,-0l0,1.281l5.125,0l-0,-1.281" style="fill-rule:nonzero;"/></g><g><path d="M493.534,181.799l-5.125,-0l-0,1.281l5.125,0l-0,-1.281" style="fill-rule:nonzero;"/></g><g><path d="M503.971,181.799l-5.125,-0l0,1.281l5.125,0l0,-1.281" style="fill-rule:nonzero;"/></g><g><path d="M514.409,181.799l-5.094,-0l-0,1.281l5.094,0l-0,-1.281" style="fill-rule:nonzero;"/></g><g><path d="M525.502,181.799l-5.75,-0l0,1.281l5.75,0l0,-1.281" style="fill-rule:nonzero;"/></g><g><path d="M525.502,183.08l-1.25,0l0,-10.872l1.25,0l0,10.872" style="fill-rule:nonzero;"/></g><g><path d="M579.096,181.955l-5.094,0l0,1.278l5.094,0l0,-1.278" style="fill-rule:nonzero;"/></g><g><path d="M589.565,181.955l-5.125,0l-0,1.278l5.125,0l-0,-1.278" style="fill-rule:nonzero;"/></g><g><path d="M600.002,181.955l-5.093,0l-0,1.278l5.093,0l0,-1.278" style="fill-rule:nonzero;"/></g><g><path d="M610.471,181.955l-5.125,0l0,1.278l5.125,0l0,-1.278" style="fill-rule:nonzero;"/></g><g><path d="M620.909,181.955l-5.094,0l-0,1.278l5.094,0l-0,-1.278" style="fill-rule:nonzero;"/></g><g><path d="M631.377,181.955l-5.125,0l0,1.278l5.125,0l0,-1.278" style="fill-rule:nonzero;"/></g><g><path d="M641.815,181.955l-5.094,0l0,1.278l5.094,0l-0,-1.278" style="fill-rule:nonzero;"/></g><g><path d="M652.284,181.955l-5.125,0l-0,1.278l5.125,0l-0,-1.278" style="fill-rule:nonzero;"/></g><g><path d="M662.752,181.955l-5.125,0l0,1.278l5.125,0l0,-1.278" style="fill-rule:nonzero;"/></g><g><path d="M673.19,181.955l-5.125,0l-0,1.278l5.125,0l-0,-1.278" style="fill-rule:nonzero;"/></g><g><path d="M683.659,181.955l-5.125,0l-0,1.278l5.125,0l-0,-1.278" style="fill-rule:nonzero;"/></g><g><path d="M694.096,181.955l-5.125,0l0,1.278l5.125,0l0,-1.278" style="fill-rule:nonzero;"/></g><g><path d="M704.565,181.955l-5.125,0l-0,1.278l5.125,0l-0,-1.278" style="fill-rule:nonzero;"/></g><g><path d="M715.002,181.955l-5.093,0l-0,1.278l5.093,0l0,-1.278" style="fill-rule:nonzero;"/></g><g><path d="M725.471,181.955l-5.125,0l0,1.278l5.125,0l0,-1.278" style="fill-rule:nonzero;"/></g><g><path d="M736.565,181.955l-5.75,0l-0,1.278l5.75,0l-0,-1.278" style="fill-rule:nonzero;"/></g><g><path d="M736.565,183.233l-1.281,0l-0,-10.868l1.281,-0l-0,10.868" style="fill-rule:nonzero;"/></g><g><path d="M815.909,180.593l-5.094,-0l-0,1.281l5.094,-0l-0,-1.281" style="fill-rule:nonzero;"/></g><g><path d="M826.377,180.593l-5.125,-0l0,1.281l5.125,-0l0,-1.281" style="fill-rule:nonzero;"/></g><g><path d="M836.815,180.593l-5.094,-0l-0,1.281l5.094,-0l-0,-1.281" style="fill-rule:nonzero;"/></g><g><path d="M847.283,180.593l-5.125,-0l0,1.281l5.125,-0l0,-1.281" style="fill-rule:nonzero;"/></g><g><path d="M857.721,180.593l-5.094,-0l0,1.281l5.094,-0l-0,-1.281" style="fill-rule:nonzero;"/></g><g><path d="M868.19,180.593l-5.125,-0l-0,1.281l5.125,-0l-0,-1.281" style="fill-rule:nonzero;"/></g><g><path d="M878.627,180.593l-5.125,-0l0,1.281l5.125,-0l0,-1.281" style="fill-rule:nonzero;"/></g><g><path d="M889.096,180.593l-5.125,-0l-0,1.281l5.125,-0l-0,-1.281" style="fill-rule:nonzero;"/></g><g><path d="M899.533,180.593l-5.125,-0l0,1.281l5.125,-0l0,-1.281" style="fill-rule:nonzero;"/></g><g><path d="M910.002,180.593l-5.125,-0l0,1.281l5.125,-0l0,-1.281" style="fill-rule:nonzero;"/></g><g><path d="M920.44,180.593l-5.125,-0l-0,1.281l5.125,-0l-0,-1.281" style="fill-rule:nonzero;"/></g><g><path d="M930.877,180.593l-5.094,-0l0,1.281l5.094,-0l0,-1.281" style="fill-rule:nonzero;"/></g><g><path d="M941.346,180.593l-5.125,-0l-0,1.281l5.125,-0l-0,-1.281" style="fill-rule:nonzero;"/></g><g><path d="M951.783,180.593l-5.093,-0l-0,1.281l5.093,-0l0,-1.281" style="fill-rule:nonzero;"/></g><g><path d="M962.252,180.593l-5.125,-0l0,1.281l5.125,-0l0,-1.281" style="fill-rule:nonzero;"/></g><g><path d="M973.346,180.593l-5.75,-0l-0,1.281l5.75,-0l-0,-1.281" style="fill-rule:nonzero;"/></g><g><path d="M973.346,181.874l-1.281,-0l-0,-10.872l1.281,0l-0,10.872" style="fill-rule:nonzero;"/></g><g><path d="M1026.94,202.227l-5.125,0l-0,1.278l5.125,0l-0,-1.278" style="fill-rule:nonzero;"/></g><g><path d="M1037.41,202.227l-5.125,0l0,1.278l5.125,0l0,-1.278" style="fill-rule:nonzero;"/></g><g><path d="M1047.85,202.227l-5.094,0l0,1.278l5.094,0l-0,-1.278" style="fill-rule:nonzero;"/></g><g><path d="M1058.32,202.227l-5.125,0l-0,1.278l5.125,0l-0,-1.278" style="fill-rule:nonzero;"/></g><g><path d="M1068.75,202.227l-5.094,0l0,1.278l5.094,0l0,-1.278" style="fill-rule:nonzero;"/></g><g><path d="M1079.22,202.227l-5.125,0l-0,1.278l5.125,0l-0,-1.278" style="fill-rule:nonzero;"/></g><g><path d="M1089.69,202.227l-5.125,0l-0,1.278l5.125,0l-0,-1.278" style="fill-rule:nonzero;"/></g><g><path d="M1100.13,202.227l-5.094,0l0,1.278l5.094,0l0,-1.278" style="fill-rule:nonzero;"/></g><g><path d="M1110.6,202.227l-5.125,0l-0,1.278l5.125,0l-0,-1.278" style="fill-rule:nonzero;"/></g><g><path d="M1121.03,202.227l-5.093,0l-0,1.278l5.093,0l0,-1.278" style="fill-rule:nonzero;"/></g><g><path d="M1131.5,202.227l-5.125,0l0,1.278l5.125,0l0,-1.278" style="fill-rule:nonzero;"/></g><g><path d="M1141.97,202.227l-5.125,0l-0,1.278l5.125,0l-0,-1.278" style="fill-rule:nonzero;"/></g><g><path d="M1152.41,202.227l-5.093,0l-0,1.278l5.093,0l0,-1.278" style="fill-rule:nonzero;"/></g><g><path d="M1162.88,202.227l-5.125,0l0,1.278l5.125,0l0,-1.278" style="fill-rule:nonzero;"/></g><g><path d="M1173.32,202.227l-5.094,0l-0,1.278l5.094,0l-0,-1.278" style="fill-rule:nonzero;"/></g><g><path d="M1184.41,202.227l-5.75,0l0,1.278l5.75,0l0,-1.278" style="fill-rule:nonzero;"/></g><g><path d="M1184.41,203.505l-1.25,0l0,-10.869l1.25,0l0,10.869" style="fill-rule:nonzero;"/></g><g><path d="M1238.03,227.015l-5.125,-0l0,1.281l5.125,-0l0,-1.281" style="fill-rule:nonzero;"/></g><g><path d="M1248.19,227.015l-5.125,-0l0,1.281l5.125,-0l0,-1.281" style="fill-rule:nonzero;"/></g><g><path d="M1258.38,227.015l-5.125,-0l-0,1.281l5.125,-0l-0,-1.281" style="fill-rule:nonzero;"/></g><g><path d="M1268.53,227.015l-5.125,-0l0,1.281l5.125,-0l0,-1.281" style="fill-rule:nonzero;"/></g><g><path d="M1278.69,227.015l-5.093,-0l-0,1.281l5.093,-0l0,-1.281" style="fill-rule:nonzero;"/></g><g><path d="M1288.88,227.015l-5.125,-0l-0,1.281l5.125,-0l-0,-1.281" style="fill-rule:nonzero;"/></g><g><path d="M1299.03,227.015l-5.094,-0l0,1.281l5.094,-0l0,-1.281" style="fill-rule:nonzero;"/></g><g><path d="M1309.22,227.015l-5.125,-0l-0,1.281l5.125,-0l-0,-1.281" style="fill-rule:nonzero;"/></g><g><path d="M1319.38,227.015l-5.125,-0l-0,1.281l5.125,-0l-0,-1.281" style="fill-rule:nonzero;"/></g><g><path d="M1329.56,227.015l-5.125,-0l0,1.281l5.125,-0l0,-1.281" style="fill-rule:nonzero;"/></g><g><path d="M1339.72,227.015l-5.125,-0l-0,1.281l5.125,-0l-0,-1.281" style="fill-rule:nonzero;"/></g><g><path d="M1349.88,227.015l-5.094,-0l0,1.281l5.094,-0l-0,-1.281" style="fill-rule:nonzero;"/></g><g><path d="M1360.06,227.015l-5.125,-0l0,1.281l5.125,-0l0,-1.281" style="fill-rule:nonzero;"/></g><g><path d="M1370.22,227.015l-5.094,-0l-0,1.281l5.094,-0l-0,-1.281" style="fill-rule:nonzero;"/></g><g><path d="M1380.41,227.015l-5.125,-0l0,1.281l5.125,-0l0,-1.281" style="fill-rule:nonzero;"/></g><g><path d="M1390.56,227.015l-5.125,-0l0,1.281l5.125,-0l0,-1.281" style="fill-rule:nonzero;"/></g><g><path d="M1400.72,227.015l-5.094,-0l-0,1.281l5.094,-0l-0,-1.281" style="fill-rule:nonzero;"/></g><g><path d="M1411.53,227.015l-5.75,-0l0,1.281l5.75,-0l0,-1.281" style="fill-rule:nonzero;"/></g><g><path d="M1411.53,228.296l-1.281,-0l-0,-10.872l1.281,-0l0,10.872" style="fill-rule:nonzero;"/></g><g><path d="M129.159,108.83l-0,-7.753l107.406,3.875l0,7.753l-107.406,-3.875" style="fill-rule:nonzero;"/></g><g><path d="M287.44,108.846l0,-7.769l107.438,7.75l-0,7.769l-107.438,-7.75" style="fill-rule:nonzero;"/></g><g><path d="M445.753,128.283l-0,-7.831l107.374,15.5l0,7.831l-107.374,-15.5" style="fill-rule:nonzero;"/></g><g><path d="M604.002,139.908l0,-7.831l107.375,15.5l0,7.831l-107.375,-15.5" style="fill-rule:nonzero;"/></g><g><path d="M804.627,66.202l0,-7.797l107.375,11.625l0,7.797l-107.375,-11.625" style="fill-rule:nonzero;"/></g><g><path d="M962.877,81.702l0,-7.756l107.406,3.875l0,7.756l-107.406,-3.875" style="fill-rule:nonzero;"/></g><g><path d="M1121.22,97.202l-0,-7.834l107.375,15.5l-0,7.834l-107.375,-15.5" style="fill-rule:nonzero;"/></g><g><path d="M1279.53,112.702l0,-7.756l107.344,3.875l-0,7.756l-107.344,-3.875" style="fill-rule:nonzero;"/></g><g><path d="M124.034,155.665l50.125,-0l-0,-2.482l-47.656,0l-0,-9.143l-2.469,-0" style="fill-rule:nonzero;"/></g><g><path d="M254.378,155.665l-46.25,-0l-0,-2.482l43.781,0l-0,-9.143l2.469,-0" style="fill-rule:nonzero;"/></g><g><path d="M282.346,155.665l50.125,-0l0,-2.482l-47.656,0l0,-9.143l-2.469,-0" style="fill-rule:nonzero;"/></g><g><path d="M412.69,155.665l-46.25,-0l0,-2.482l43.781,0l0,-9.143l2.469,-0" style="fill-rule:nonzero;"/></g><g><path d="M440.659,155.327l50.093,1.747l0,-2.481l-47.624,-1.663l-0,-9.228l-2.469,0" style="fill-rule:nonzero;"/></g><g><path d="M570.94,159.896l-46.219,-1.61l0,-2.481l43.719,1.566l-0,-9.1l2.5,-0" style="fill-rule:nonzero;"/></g><g><path d="M598.909,157.171l50.156,6.847l-0,-2.503l-47.688,-6.51l0,-9.459l-2.468,-0" style="fill-rule:nonzero;"/></g><g><path d="M729.19,175.061l-46.281,-6.306l-0,-2.503l43.812,6.131l0,-8.947l2.469,0" style="fill-rule:nonzero;"/></g><g><path d="M782.94,155.327l50.125,3.506l-0,-2.484l-47.625,-3.334l-0,-9.313l-2.5,0" style="fill-rule:nonzero;"/></g><g><path d="M913.252,164.499l-46.25,-3.228l0,-2.488l43.781,3.141l0,-9.05l2.469,-0" style="fill-rule:nonzero;"/></g><g><path d="M941.19,167.127l50.125,0l-0,-2.478l-47.625,-0l-0,-9.147l-2.5,0" style="fill-rule:nonzero;"/></g><g><path d="M1071.53,167.127l-46.25,0l0,-2.478l43.782,-0l-0,-9.147l2.468,0" style="fill-rule:nonzero;"/></g><g><path d="M1099.53,186.39l50.094,-0l0,-2.482l-47.625,0l0,-9.143l-2.469,-0" style="fill-rule:nonzero;"/></g><g><path d="M1229.85,186.39l-46.219,-0l0,-2.482l43.75,0l-0,-9.143l2.469,-0" style="fill-rule:nonzero;"/></g><g><path d="M1257.85,202.074l50.156,6.972l-0,-2.506l-47.688,-6.625l0,-9.466l-2.468,-0" style="fill-rule:nonzero;"/></g><g><path d="M1388.13,220.28l-46.281,-6.415l-0,-2.507l43.812,6.241l0,-8.944l2.469,0" style="fill-rule:nonzero;"/></g></g></svg>